<svg xmlns="http://www.w3.org/2000/svg" xmlns:xlink="http://www.w3.org/1999/xlink" viewBox="0 0 439.4 182.6"><defs><style>.cls-1{opacity:0.16;}.cls-2{fill:#fff;}.cls-3{opacity:0.11;}.cls-4{fill:url(#linear-gradient);}.cls-5{fill:url(#linear-gradient-2);}.cls-6{fill:url(#linear-gradient-3);}.cls-7{fill:url(#linear-gradient-4);}.cls-8{fill:url(#radial-gradient);}.cls-9{fill:url(#linear-gradient-5);}.cls-10{fill:url(#linear-gradient-6);}.cls-11{fill:url(#radial-gradient-3);}.cls-12{opacity:0.7;}.cls-13{fill:url(#linear-gradient-7);}.cls-14{fill:url(#linear-gradient-8);}.cls-15{fill:#bbb3ac;}.cls-16{fill:url(#linear-gradient-9);}.cls-17{fill:url(#linear-gradient-10);}.cls-18{fill:url(#radial-gradient-5);}.cls-19{fill:url(#linear-gradient-11);}.cls-20{fill:url(#linear-gradient-12);}.cls-21{fill:url(#linear-gradient-13);}.cls-22{fill:url(#linear-gradient-14);}.cls-23{fill:url(#radial-gradient-7);}.cls-24{fill:url(#linear-gradient-15);}.cls-25{fill:url(#linear-gradient-16);}.cls-26{fill:#f6f6f6;}.cls-27{fill:url(#radial-gradient-9);}.cls-28{fill:url(#radial-gradient-10);}.cls-29{fill:url(#linear-gradient-17);}.cls-30{fill:url(#radial-gradient-11);}.cls-31{fill:url(#radial-gradient-12);}.cls-32{fill:url(#linear-gradient-18);}.cls-33{fill:none;stroke:#7fc000;stroke-miterlimit:10;}.cls-34{fill:#7fc000;}</style><linearGradient id="linear-gradient" x1="-147.16" y1="-585.8" x2="-146.11" y2="-585.8" gradientTransform="matrix(58.5, -51, -50.87, -58.35, -21101.07, -41580.62)" gradientUnits="userSpaceOnUse"><stop offset="0.02" stop-color="#8f847d"/><stop offset="1" stop-color="#f7f7f7"/></linearGradient><linearGradient id="linear-gradient-2" x1="-142.62" y1="-566.84" x2="-141.58" y2="-566.84" gradientTransform="matrix(-64, 0.5, 0.5, 63.84, -8757.32, 36321.95)" gradientUnits="userSpaceOnUse"><stop offset="0" stop-color="#8b7f79"/><stop offset="1" stop-color="#b2a9a4"/></linearGradient><linearGradient id="linear-gradient-3" x1="-149.06" y1="-588.06" x2="-148.01" y2="-588.06" gradientTransform="matrix(44, -40, -39.9, -43.89, -16812, -31671.69)" gradientUnits="userSpaceOnUse"><stop offset="0" stop-color="#f5f5f5"/><stop offset="1" stop-color="#f5f5f5"/></linearGradient><linearGradient id="linear-gradient-4" x1="-142.62" y1="-567.76" x2="-141.58" y2="-567.76" gradientTransform="matrix(-70, 0, 0, 69.82, -9891.72, 39701.59)" gradientUnits="userSpaceOnUse"><stop offset="0" stop-color="#ebebeb"/><stop offset="0.4" stop-color="#f0eef1"/><stop offset="0.97" stop-color="#f5f5f5"/></linearGradient><radialGradient id="radial-gradient" cx="-134.78" cy="-580.55" r="0.52" gradientTransform="matrix(59.34, 81.35, 121.19, -88.5, 78450.8, -40346.54)" gradientUnits="userSpaceOnUse"><stop offset="0.17" stop-color="#aca59a"/><stop offset="0.77" stop-color="#ede5dd" stop-opacity="0.42"/><stop offset="1" stop-color="#ede5dd" stop-opacity="0"/></radialGradient><linearGradient id="linear-gradient-5" x1="-132.63" y1="-591.37" x2="-131.59" y2="-591.37" gradientTransform="matrix(44.03, 51.35, 24.06, -20.36, 20146.44, -5192.09)" gradientUnits="userSpaceOnUse"><stop offset="0.76" stop-color="#bfada1"/><stop offset="0.8" stop-color="#89654a"/><stop offset="0.87" stop-color="#a08875"/><stop offset="0.99" stop-color="#a08875" stop-opacity="0"/></linearGradient><linearGradient id="linear-gradient-6" x1="-132.7" y1="-576.16" x2="-131.66" y2="-576.16" gradientTransform="matrix(0, 82.5, 38.38, -0.25, 22228.75, 10816.67)" gradientUnits="userSpaceOnUse"><stop offset="0.04" stop-color="#dfdbd8"/><stop offset="1" stop-color="#e1d7d6"/></linearGradient><radialGradient id="radial-gradient-3" cx="-135.59" cy="-581.3" r="0.52" gradientTransform="matrix(-63.28, 81.43, -129.25, -88.57, -83623.95, -40381.18)" xlink:href="#radial-gradient"/><linearGradient id="linear-gradient-7" x1="-134.43" y1="-595.22" x2="-133.39" y2="-595.22" gradientTransform="matrix(-47.63, 50.41, -24.01, -21.69, -20581.67, -6098.15)" gradientUnits="userSpaceOnUse"><stop offset="0.87" stop-color="#89654a"/><stop offset="0.91" stop-color="#bfada1"/><stop offset="0.97" stop-color="#a08875"/></linearGradient><linearGradient id="linear-gradient-8" x1="-133.63" y1="-561.16" x2="-132.59" y2="-561.16" gradientTransform="matrix(52.83, 42.04, -20.56, 23.44, -4412.49, 18809.28)" gradientUnits="userSpaceOnUse"><stop offset="0.06" stop-color="#e8e3e0"/><stop offset="1" stop-color="#e6e1de"/></linearGradient><linearGradient id="linear-gradient-9" x1="-136.02" y1="-588.43" x2="-135.28" y2="-588.43" gradientTransform="matrix(66.04, 77.3, 36.1, -30.64, 30450.97, -7486.97)" xlink:href="#linear-gradient-5"/><linearGradient id="linear-gradient-10" x1="-135.47" y1="-578.51" x2="-134.73" y2="-578.51" gradientTransform="matrix(0, 124.19, 57.57, -0.38, 33574.43, 16612.33)" gradientUnits="userSpaceOnUse"><stop offset="0.04" stop-color="#efefed"/><stop offset="1" stop-color="#e1d7d6"/></linearGradient><radialGradient id="radial-gradient-5" cx="-137.09" cy="-579.93" r="0.37" gradientTransform="matrix(-94.92, 122.58, -193.87, -133.34, -125205.21, -60459.91)" xlink:href="#radial-gradient"/><linearGradient id="linear-gradient-11" x1="-136.09" y1="-588.26" x2="-135.35" y2="-588.26" gradientTransform="matrix(-71.44, 75.88, -36.01, -32.66, -30641.2, -8850.95)" xlink:href="#linear-gradient-7"/><linearGradient id="linear-gradient-12" x1="-136.76" y1="-565.57" x2="-136.02" y2="-565.57" gradientTransform="matrix(79.25, 63.29, -30.84, 35.28, -6387.38, 28644.16)" gradientUnits="userSpaceOnUse"><stop offset="0.06" stop-color="#f0eef1"/><stop offset="1" stop-color="#e6e1de"/></linearGradient><linearGradient id="linear-gradient-13" x1="-136.81" y1="-589.04" x2="-136.07" y2="-589.04" gradientTransform="matrix(70.17, 81.71, 38.35, -32.4, 32557.37, -7875.4)" xlink:href="#linear-gradient-5"/><linearGradient id="linear-gradient-14" x1="-135.81" y1="-579.8" x2="-135.08" y2="-579.8" gradientTransform="matrix(0, 131.29, 61.16, -0.4, 35876.03, 17600.83)" gradientUnits="userSpaceOnUse"><stop offset="0.07" stop-color="#e9e5e3"/><stop offset="1" stop-color="#edeae9"/></linearGradient><radialGradient id="radial-gradient-7" cx="-137.04" cy="-579.57" r="0.37" gradientTransform="matrix(-100.86, 129.58, -205.99, -140.96, -132827.33, -63875.31)" xlink:href="#radial-gradient"/><linearGradient id="linear-gradient-15" x1="-135.91" y1="-586.55" x2="-135.18" y2="-586.55" gradientTransform="matrix(-75.91, 80.22, -38.26, -34.52, -32353.06, -9317.36)" xlink:href="#linear-gradient-7"/><linearGradient id="linear-gradient-16" x1="-137.58" y1="-565.29" x2="-136.85" y2="-565.29" gradientTransform="matrix(84.2, 66.9, -32.76, 37.3, -6583.39, 30320.34)" xlink:href="#linear-gradient-12"/><radialGradient id="radial-gradient-9" cx="-132.76" cy="-581.03" r="0.38" gradientTransform="matrix(-47.73, 64.1, -97.48, -69.72, -62564.69, -31944.45)" xlink:href="#radial-gradient"/><radialGradient id="radial-gradient-10" cx="-132.78" cy="-581.03" r="0.36" gradientTransform="matrix(-47.73, 64.1, -97.48, -69.72, -62564.69, -31944.45)" xlink:href="#radial-gradient"/><linearGradient id="linear-gradient-17" x1="-133.73" y1="-551.73" x2="-132.99" y2="-551.73" gradientTransform="matrix(41.76, 33, -16.25, 18.4, -2983.24, 14605.93)" gradientUnits="userSpaceOnUse"><stop offset="0.21" stop-color="#eaeae8"/><stop offset="1" stop-color="#ebecf0"/></linearGradient><radialGradient id="radial-gradient-11" cx="-174.25" cy="-619.17" r="0.38" gradientTransform="matrix(43.65, 64.1, 89.16, -69.72, 63170.25, -31944.45)" xlink:href="#radial-gradient"/><radialGradient id="radial-gradient-12" cx="-174.26" cy="-619.17" r="0.36" gradientTransform="matrix(43.65, 64.1, 89.16, -69.72, 63170.25, -31944.45)" xlink:href="#radial-gradient"/><linearGradient id="linear-gradient-18" x1="2280.76" y1="-667.69" x2="2392.46" y2="-666.34" gradientTransform="matrix(-38.19, 33, 14.86, 18.4, 8672.91, 14605.93)" gradientUnits="userSpaceOnUse"><stop offset="0.09" stop-color="#eaeae8"/><stop offset="0.85" stop-color="#fff"/></linearGradient></defs><title>bootstrap-2</title><g id="Layer_2" data-name="Layer 2"><g id="Layer_1-2" data-name="Layer 1"><g class="cls-1"><path class="cls-2" d="M248.5,177.1q0,.2-.3.3h-4l-.2.2v.2h2.5v.2l.2.2v.3h.1v.7h-.1c-.1.2-.2.4-.3.4h-.1c-.1.1-.1.1-.1.2h-.2l-.4.2-.2.2h-3.3l-.3-.2v-.2h-.2v-.4h0v-.2h.3c.2,0,.3.1.3.4v.2h2.6l.3-.2h.7c.1,0,.1,0,.1-.1l.2-.3h.1v-.2h-3.8v-.2h0V179h.3v-.2h.1l.3-.4h0v-.2h-.2l.2-.4h5C248.4,176.9,248.5,177,248.5,177.1Z"/><path class="cls-2" d="M249.6,181.7h-1.2v-.2c0-.2.1-.2.2-.3l.3-.2h.5l.2.2h0Z"/></g><g class="cls-1"><path class="cls-2" d="M95.8,179.5a.5.5,0,0,1-.3.5h-.4c0,.1-.1.1-.2.2H93.6v.2h-.1v.2h-.1v.2h0a.5.5,0,0,1,.2.4h-.6v-.2H93V182h0v-.2h0v-.3h-.1a.1.1,0,0,1,.1-.1h0v-.2H89.8V180l.3-.3h.7l.2-.2h.6v-.2h0l.2-.2h.3V178h.1c0-.1.1-.1.1-.2h.2v-.2h.2c.1-.2.2-.4.3-.4h.3v.5h0v.2h-.2a.9.9,0,0,1-.3.5c0,.2-.1.2-.2.3h-.1v.2l-.2.2h1.1V179h.1c0-.1.1-.1.1-.2h0v-.4h.1v-.2h.1v-.4c.1-.2.2-.3.4-.3l.4.4v.3h-.1v.3h0v.2h0v.2h0v.4l-.2.5h1.9Z"/><path class="cls-2" d="M97.8,181.7H96.6v-.2c0-.2.1-.2.3-.3l.2-.2h.6v.2h0Z"/></g><g class="cls-1"><path class="cls-2" d="M384.9,180h0v.2h-.1c0,.1,0,.2-.1.2h-.1l-.3.2h-.5l-.4.2h-1l-.7.2h-1.3l-.2-.2h-.3l-.3-.3v-.6h0v-.2h-.1v-.4h.2v-.4h.1l.3-.3v-.2h.1v-.2h.8l.7-.5H383c.3.2.4.4.4.5v.2l-.5.3h-1.3l-.2.3h-.1l-.2.2h-.4v.2c-.1,0-.1.1-.1.2v.6h0v-.3h.2l.4-.3h.1l.3-.2h.9l.3-.2h1.6l.3.2.3.3h.2v.4Zm-.7,0h-1.1c-.2.1-.3.1-.3.2h-1.2l-.3.2-.2.2H381l-.2.2h0v.2h-.1a.1.1,0,0,1-.1.1H384c0-.1.1-.1.1-.2h.1Z"/><path class="cls-2" d="M387.1,181.7H386v-.2c0-.2.1-.2.2-.3l.3-.2h.5v.2h0Z"/></g><g class="cls-3"><path d="M145.5,68a1.1,1.1,0,0,0,.3-.6c0-2.1-34.4-32.8-47.7-47.4v.8l-1.3-1.3v3.1h0V19.5l-1.1,1h-1v-1c-14.4,16.6-48.6,47-48.6,49.2a2.8,2.8,0,0,0,.5.9.3.3,0,0,1-.1.2L5,111.4l5.2.2-5.2,5,91.8.9v0l91.9-.8v-.2l-5-4.8,5-.2v-.3L150.1,72.7Z"/><path d="M246.2,13.7v.6h-3.6V13.1c-15.3,17.7-51.5,50-51.5,52.3a4.1,4.1,0,0,0,.7,1.2,4,4,0,0,0-1.1,1.7c0,2.2,34.6,31.9,50.2,46.7l1.2.6.5.5h3.8l8.2-8.5c17-16.6,42.1-41.6,42.1-43.5S260.2,29.2,246.2,13.7Z"/><path d="M434.4,61.9c0-2.4-38.6-36.9-53.6-53.3v.6H377V8c-16.2,18.6-54.7,52.8-54.7,55.2a3.3,3.3,0,0,0,.8,1.3q-1.2,1.4-1.2,1.8c0,2.4,36.8,33.7,53.3,49.4l1.2.6.6.6h4.1l8.6-9C407.8,90.3,434.4,63.9,434.4,61.9Z"/></g><g id="Group_6" data-name="Group 6"><g id="Intersect"><path id="path13_fill" data-name="path13 fill" class="cls-4" d="M91.9,20.8v88.7l91.9-.8v-.2Z"/></g><g id="Intersect-2" data-name="Intersect"><path id="path14_fill" data-name="path14 fill" class="cls-5" d="M0,108.6l91.8.9L92,21h-.2Z"/></g><g id="Intersect-3" data-name="Intersect"><path id="path15_fill" data-name="path15 fill" class="cls-6" d="M91.8,11.5v97l91.9-5v-.3Z"/></g><g id="Intersect-4" data-name="Intersect"><path id="path16_fill" data-name="path16 fill" class="cls-7" d="M0,103.4l91.8,5.1v-97Z"/></g><g id="Vector_2.2" data-name="Vector 2.2"><path id="path38_fill" data-name="path38 fill" class="cls-8" d="M141.8,61.5c-2.6-2.6-33.6-32-47.9-48.5l-1.4,1.1v92.7h6.6C165.3,103.3,143.4,63.1,141.8,61.5Z"/><path id="path38_fill-2" data-name="path38 fill" class="cls-8" d="M141.8,61.5c-2.6-2.6-33.6-32-47.9-48.5l-1.4,1.1v92.7h6.6C165.3,103.3,143.4,63.1,141.8,61.5Z"/></g><g id="Vector_2" data-name="Vector 2"><path id="path39_fill" data-name="path39 fill" class="cls-9" d="M147.6,67.8c0-2.1-40.5-38.7-54.3-55.3l-.9,1.6.9,93.8h10.5C119.9,95.9,147.6,69.9,147.6,67.8Z"/></g><g id="Vector_2.1" data-name="Vector 2.1"><path id="path40_fill" data-name="path40 fill" class="cls-10" d="M140.8,59.4c0-2.1-34.4-32.8-47.7-47.4v2.1l.7,90.7-.7,3.3C107.5,94.2,140.8,61.6,140.8,59.4Z"/></g><g id="Vector_2.3" data-name="Vector 2.3"><path id="path41_fill" data-name="path41 fill" class="cls-11" d="M41.7,61.5C43.3,60,72.3,31,87.6,14.6h5.2l-.7,92.8H85C14.4,103.9,40.2,63,41.7,61.5Z"/><path id="path41_fill-2" data-name="path41 fill" class="cls-11" d="M41.7,61.5C43.3,60,72.3,31,87.6,14.6h5.2l-.7,92.8H85C14.4,103.9,40.2,63,41.7,61.5Z"/></g><g id="Vector_2.4" data-name="Vector 2.4" class="cls-12"><path id="path42_fill" data-name="path42 fill" class="cls-13" d="M40.7,63.4c0-2.2,34.4-34.3,48.5-50.9h1.5l-.5,96-2.1-1.1C73.4,93.4,40.7,65.5,40.7,63.4Z"/></g><g id="Vector_2.5" data-name="Vector 2.5"><path id="path43_fill" data-name="path43 fill" class="cls-14" d="M41.1,60.7c0-2.2,34.2-32.6,48.6-49.2v93.6l.7,3.4C75.3,94.5,41.1,62.8,41.1,60.7Z"/></g></g><g id="Group_5" data-name="Group 5"><g id="Vector_3" data-name="Vector 3"><path id="path44_fill" data-name="path44 fill" class="cls-15" d="M242.6,6.3h3.8l49.2,50.3-49.2,51.5h-3.8L191.8,57.8Z"/></g><g id="Group_4" data-name="Group 4"><g id="Vector_2.7" data-name="Vector 2.7"><path id="path45_fill" data-name="path45 fill" class="cls-16" d="M295.6,56.1c0-2.3-34.6-32.3-49.2-49.8L245.5,8l.9,99.6,10-10.5C271.8,81,295.6,58.3,295.6,56.1Z"/></g><g id="Vector_2.8" data-name="Vector 2.8"><path id="path46_fill" data-name="path46 fill" class="cls-17" d="M296.7,56.1c0-2.3-36.5-34.9-50.5-50.4V7.9l.7,96.3-.7,3.6C261.5,93,296.7,58.3,296.7,56.1Z"/></g><g id="Vector_2.9" data-name="Vector 2.9"><path id="path47_fill" data-name="path47 fill" class="cls-18" d="M191.8,58.3s32.4-32.4,48.6-49.8h5.5l-.8,98.5L236,97.1A328.7,328.7,0,0,0,191.8,58.3Z"/><path id="path47_fill-2" data-name="path47 fill" class="cls-18" d="M191.8,58.3s32.4-32.4,48.6-49.8h5.5l-.8,98.5L236,97.1A328.7,328.7,0,0,0,191.8,58.3Z"/></g><g id="Vector_2.10" data-name="Vector 2.10" class="cls-12"><path id="path48_fill" data-name="path48 fill" class="cls-19" d="M190.7,60.3c0-2.3,36.5-36.4,51.4-54h1.6l-.6,101.8-2.2-1.1C225.3,92.2,190.7,62.5,190.7,60.3Z"/></g><g id="Vector_2.11" data-name="Vector 2.11"><path id="path49_fill" data-name="path49 fill" class="cls-20" d="M191.1,57.4c0-2.3,36.2-34.6,51.5-52.3v99.5l.7,3.5C227.3,93.3,191.1,59.7,191.1,57.4Z"/></g></g></g><g id="Group_5.1" data-name="Group 5.1"><g id="Vector_3-2" data-name="Vector 3"><path id="path50_fill" data-name="path50 fill" class="cls-15" d="M382,1.2h4.1l52.2,53.2-52.2,54.5H382L328.1,55.6Z"/></g><g id="Group_4-2" data-name="Group 4"><g id="Vector_2.7-2" data-name="Vector 2.7"><path id="path51_fill" data-name="path51 fill" class="cls-21" d="M438.3,53.9c0-2.4-36.7-34.2-52.2-52.7l-1,1.8,1,105.3,10.5-11.1C413.1,80.2,438.3,56.2,438.3,53.9Z"/></g><g id="Vector_2.8-2" data-name="Vector 2.8"><path id="path52_fill" data-name="path52 fill" class="cls-22" d="M439.4,53.9c0-2.4-38.6-36.9-53.6-53.3V2.9l.8,101.9-.8,3.7C402.1,92.9,439.4,56.2,439.4,53.9Z"/></g><g id="Vector_2.9-2" data-name="Vector 2.9"><path id="path53_fill" data-name="path53 fill" class="cls-23" d="M328.1,56.2S362.5,22,379.7,3.5h5.8l-.8,104.2L375,97.2A353.9,353.9,0,0,0,328.1,56.2Z"/><path id="path53_fill-2" data-name="path53 fill" class="cls-23" d="M328.1,56.2S362.5,22,379.7,3.5h5.8l-.8,104.2L375,97.2A353.9,353.9,0,0,0,328.1,56.2Z"/></g><g id="Vector_2.10-2" data-name="Vector 2.10" class="cls-12"><path id="path54_fill" data-name="path54 fill" class="cls-24" d="M326.9,58.3c0-2.4,38.7-38.5,54.6-57.1h1.7l-.7,107.7-2.3-1.2C363.7,92,326.9,60.7,326.9,58.3Z"/></g><g id="Vector_2.11-2" data-name="Vector 2.11"><path id="path55_fill" data-name="path55 fill" class="cls-25" d="M327.3,55.2c0-2.4,38.5-36.6,54.7-55.2V105.2l.8,3.7C365.8,93.2,327.3,57.6,327.3,55.2Z"/></g></g></g><g id="Group_2.2" data-name="Group 2.2"><g id="Subtract"><path id="path29_fill" data-name="path29 fill" class="cls-26" d="M385.7,105.9h.4l25.4-25.4V28.4L386.1,2.9h-.4Z"/></g><g id="Vector_2.4-2" data-name="Vector 2.4"><path id="path36_fill" data-name="path36 fill" class="cls-27" d="M385.8,57.6c0-1.2,16.3-19.8,24.4-28.9H413l-.4,51.5-2,1.1C388.9,103.3,385.8,58.7,385.8,57.6Z"/><path id="path36_fill-2" data-name="path36 fill" class="cls-28" d="M385.8,57.6c0-1.2,16.3-19.8,24.4-28.9H413l-.4,51.5-2,1.1C393.6,98.7,385.8,58.7,385.8,57.6Z"/></g><g id="Vector_2.3-2" data-name="Vector 2.3"><path id="path32_fill" data-name="path32 fill" class="cls-29" d="M386.1,55.5c0-1.1,16.9-19.1,24.9-28.3l2,1.5L412.5,71l-.3,9.9C403.8,73.2,386.1,56.7,386.1,55.5Z"/></g></g><g id="Group_2.2-2" data-name="Group 2.2"><g id="Subtract-2" data-name="Subtract"><path id="path29_fill-2" data-name="path29 fill" class="cls-26" d="M379.9,105.9h-.4L356.3,80.5V28.4L379.5,2.9h.4Z"/></g><g id="Vector_2.4-3" data-name="Vector 2.4"><path id="path36_fill-3" data-name="path36 fill" class="cls-30" d="M379.8,57.6c.1-1.2-14.6-16.5-22-25.7L355,28.7l.3,51.5,1.8,1.1C373.7,100,379.7,70.9,379.8,57.6Z"/><path id="path36_fill-4" data-name="path36 fill" class="cls-31" d="M380,58.1c0-1.2-15.2-17.3-22.7-26.4l-2.2-2.5.4,51.5,1.8,1.1C370.2,95.9,380.3,67.6,380,58.1Z"/></g><g id="Vector_2.3-3" data-name="Vector 2.3"><path id="path32_fill-2" data-name="path32 fill" class="cls-32" d="M379.5,55.5c0-1.1-15.7-16.1-23.1-25.3L355,28.7l.4,47.1.3,5.1C363.4,73.2,379.5,56.7,379.5,55.5Z"/></g></g><path class="cls-33" d="M141.1,45.3a15.3,15.3,0,0,1,8.4,4.4,13.6,13.6,0,0,1,2.4,3.1"/><polygon class="cls-34" points="143.7 49.3 142.4 45.5 144.2 42 135.2 45 143.7 49.3"/><polygon class="cls-34" points="149.2 56.3 149.3 56.1 151.1 52.5 153.8 60.7 151.9 64.6 149.2 56.3"/><path class="cls-34" d="M158.5,62.4l-3.7-2-2.7-8.3a16.5,16.5,0,0,0,3.7,2Z"/><path class="cls-33" d="M41.1,46.2A16,16,0,0,0,33,51.1a21,21,0,0,0-2.2,3.3"/><polygon class="cls-34" points="37.9 43.1 39.9 46.6 38.9 50.4 47.1 45.6 37.9 43.1"/><polygon class="cls-34" points="26.9 55.9 27.1 55.8 30.6 53.7 28.4 62.1 24.7 64.3 26.9 55.9"/><path class="cls-34" d="M31.4,66.1l-2-3.7L31.6,54a15.3,15.3,0,0,0,2.1,3.7Z"/><path class="cls-33" d="M227.9,87.5c-5.3,5.2-12.4,11-17.8,11.2-8,.3-5.4-6.6-5.4-6.6a18.3,18.3,0,0,1,2.4-4.7"/><polygon class="cls-34" points="227 83.2 227 83.5 227.1 87.6 233.1 81.2 233 76.9 227 83.2"/><path class="cls-34" d="M238.1,81.7l-4.3.2-6,6.3a20.7,20.7,0,0,1,4.3-.2Z"/><polygon class="cls-34" points="207.6 92.2 206.3 88.4 202.7 86.7 211.7 83.6 207.6 92.2"/><path class="cls-33" d="M258.6,87.5c5.3,5.2,12.4,11,17.8,11.2,8,.3,5.4-6.6,5.4-6.6a18.3,18.3,0,0,0-2.4-4.7"/><polygon class="cls-34" points="254.3 88.1 254.6 88.1 258.6 88.3 252.7 81.9 248.3 81.8 254.3 88.1"/><path class="cls-34" d="M253.5,77v4.2l6,6.4a15.5,15.5,0,0,1,0-4.3Z"/><polygon class="cls-34" points="283.8 86.7 280.2 88.4 278.8 92.2 274.8 83.6 283.8 86.7"/><line class="cls-33" x1="349.9" y1="55.6" x2="360" y2="55.6"/><polygon class="cls-34" points="347.5 59.1 347.6 58.9 350.5 56.1 341.9 56.1 338.8 59.1 347.5 59.1"/><path class="cls-34" d="M338.8,52.1l3.1,3h8.6a21.3,21.3,0,0,1-3-3Z"/><path class="cls-34" d="M359.6,55.6A7,7,0,0,1,358,51a14.5,14.5,0,0,0,5.5,4.6,14.1,14.1,0,0,0-5.5,4.5A7.3,7.3,0,0,1,359.6,55.6Z"/><line class="cls-33" x1="415.1" y1="55.6" x2="405.1" y2="55.6"/><polygon class="cls-34" points="417.5 52 417.4 52.2 414.5 55.1 423.2 55.1 426.3 52 417.5 52"/><path class="cls-34" d="M426.3,59l-3.1-2.9h-8.7a20.9,20.9,0,0,1,3.1,2.9Z"/><path class="cls-34" d="M405.5,55.6a7.9,7.9,0,0,1,1.6,4.5,13.7,13.7,0,0,0-5.6-4.5,14.6,14.6,0,0,0,5.6-4.6A8.2,8.2,0,0,1,405.5,55.6Z"/></g></g></svg>