<svg width="67" height="66" viewBox="0 0 67 66" version="1.1" xmlns="http://www.w3.org/2000/svg" xmlns:xlink="http://www.w3.org/1999/xlink">
<title>3d-tv</title>
<desc>Created using Figma</desc>
<g id="Canvas" transform="translate(-10060 1602)">
<g id="3d-tv">
<g id="Vector">
<use xlink:href="#path0_fill" transform="translate(10060 -1602)" fill="#6A95DB"/>
</g>
<g id="Vector">
<use xlink:href="#path1_fill" transform="translate(10075 -1590)" fill="#000000" fill-opacity="0.25"/>
</g>
<g id="Vector">
<use xlink:href="#path2_fill" transform="translate(10074.3 -1590.77)" fill="#FFFFFF"/>
</g>
</g>
</g>
<defs>
<path id="path0_fill" d="M 67 57.3755C 67 62.1387 63.0801 66 58.2448 66L 8.75532 66C 3.92004 66 3.67057e-08 62.1387 3.67057e-08 57.3755L 3.67057e-08 8.62437C 3.67057e-08 3.8614 3.92004 -2.60549e-08 8.75532 -2.60549e-08L 58.2448 -2.60549e-08C 63.0801 -2.60549e-08 67 3.8614 67 8.62437L 67 57.3755Z"/>
<path id="path1_fill" d="M 52 45.0239L 52 26.8198C 49.9237 24.6443 39.9135 14.2749 37.585 11.8571C 35.2564 9.43921 32.9277 7.02128 30.5992 4.6035C 29.4348 3.39446 28.2705 2.18556 27.1063 0.976667C 26.8443 0.704655 26.5951 0.398696 26.2636 0.215034C 25.9514 0.0421069 25.5916 -0.0288334 25.2398 0.0106265C 24.6223 0.0801165 24.0726 0.494881 23.8162 1.08199C 23.5309 1.73453 23.6445 2.5185 24.1006 3.056C 24.1317 3.09241 24.4381 3.39504 24.4311 3.40461C 24.4243 3.41418 24.4174 3.42362 24.4107 3.43319C 24.3673 3.49369 24.324 3.55404 24.2805 3.61453C 23.8439 4.22326 23.4073 4.83213 22.9705 5.441C 22.3176 6.35119 21.6647 7.26123 21.0118 8.17142C 20.7156 7.89332 20.4607 7.56792 20.1631 7.29097C 19.8885 6.97326 19.5737 6.69269 19.2912 6.38282C 19.0087 6.07294 18.7092 5.77743 18.4186 5.47567C 18.1279 5.17392 17.8433 4.86289 17.5449 4.5694C 16.3498 3.39431 15.2471 2.11781 14.052 0.942576C 13.7807 0.675642 13.5478 0.374614 13.2075 0.196755C 12.8926 0.0320969 12.5324 -0.0301393 12.183 0.0171545C 11.5678 0.100572 11.0273 0.527087 10.7828 1.11855C 10.5091 1.78066 10.6417 2.56681 11.1135 3.09459C 11.6652 3.71188 12.2638 4.29101 12.8374 4.88668C 12.9772 5.03175 13.1169 5.17682 13.2566 5.3219C 13.2887 5.35526 13.3339 5.38181 13.3502 5.42722C 13.3719 5.48728 13.3937 5.54748 13.4153 5.60754C 13.5155 5.88492 13.6157 6.16245 13.7158 6.43968C 14.025 7.29605 14.3344 8.15242 14.6437 9.00878C 14.8867 9.68207 15.1298 10.3549 15.3729 11.0279C 14.4431 11.0279 13.5132 11.0279 12.5834 11.0279C 10.7885 11.0279 8.99356 11.0279 7.19862 11.0279C 6.03017 11.0279 4.86158 11.0279 3.69327 11.0279C 2.80453 11.0279 1.95226 11.317 1.27044 11.9197C 0.464419 12.6317 0 13.6883 0 14.7857C 0 15.5082 0 16.2307 0 16.9531C 0 18.5366 0 20.1201 0 21.7034C 0 23.6123 0 25.521 0 27.4299C 0 29.1285 0 30.8272 0 32.5257C 0 33.4784 0 34.4312 0 35.3839C 0 36.0806 0.119039 36.7544 0.447513 37.3716C 0.620342 37.6964 0.840116 37.9941 1.09677 38.2525C 1.3906 38.5483 1.66864 38.8616 1.96595 39.1538C 2.53139 39.7737 3.13007 40.3643 3.71143 40.9681C 6.03967 43.3865 8.36902 45.8034 10.6973 48.2217C 12.5519 50.1482 14.4072 52.0739 16.2622 54L 43.3555 54C 48.1296 54 52 49.9813 52 45.0239Z"/>
<path id="path2_fill" d="M 34.6773 10.6803L 22.7598 10.6803L 22.7615 10.6803L 25.4586 3.53995C 25.5563 3.55681 25.6558 3.57016 25.7583 3.57016C 26.7506 3.57016 27.5563 2.77087 27.5563 1.78543C 27.5563 0.799285 26.7506 4.54487e-07 25.7583 4.54487e-07C 24.7651 4.54487e-07 23.9605 0.799285 23.9605 1.78543C 23.9605 2.40502 24.2794 2.95085 24.7635 3.27062L 19.2053 10.6803L 19.1652 10.6803L 13.569 3.27202C 14.0519 2.95127 14.371 2.40628 14.371 1.78669C 14.371 0.801111 13.5658 0.00168549 12.5729 0.00168549C 11.5808 0.00168549 10.7756 0.80097 10.7756 1.78669C 10.7756 2.77157 11.5807 3.57086 12.5729 3.57086C 12.6756 3.57086 12.7748 3.55779 12.8733 3.54136L 15.5694 10.6803L 3.65189 10.6803C 1.63548 10.6803 -5.00924e-07 12.3043 -5.00924e-07 14.3063L -5.00924e-07 34.4433C -5.00924e-07 36.4463 1.63548 38.0694 3.65189 38.0694L 34.6774 38.0694C 36.6944 38.0694 38.3295 36.4458 38.3295 34.4433L 38.3295 14.3063C 38.3293 12.3043 36.6943 10.6803 34.6773 10.6803ZM 29.9472 31.6806C 29.9472 33.2429 28.6734 34.5135 27.1006 34.5135L 6.43072 34.5135C 4.8582 34.5135 3.58129 33.2429 3.58129 31.6806L 3.58129 17.1105C 3.58129 15.5502 4.85806 14.3122 6.43072 14.3122L 27.1006 14.3122C 28.6734 14.3122 29.9472 15.5502 29.9472 17.1105L 29.9472 31.6806ZM 34.1478 32.1306C 33.1567 32.1306 32.3506 31.331 32.3506 30.3453C 32.3506 29.3601 33.1567 28.5601 34.1478 28.5601C 35.1411 28.5601 35.9474 29.3601 35.9474 30.3453C 35.9474 31.331 35.141 32.1306 34.1478 32.1306ZM 34.1478 26.1804C 33.1567 26.1804 32.3506 25.3806 32.3506 24.395C 32.3506 23.4107 33.1567 22.6104 34.1478 22.6104C 35.1411 22.6104 35.9474 23.4107 35.9474 24.395C 35.9474 25.3804 35.141 26.1804 34.1478 26.1804ZM 34.1478 20.2314C 33.1567 20.2314 32.3506 19.4304 32.3506 18.4456C 32.3506 17.4601 33.1567 16.6605 34.1478 16.6605C 35.1411 16.6605 35.9474 17.4601 35.9474 18.4456C 35.9474 19.4304 35.141 20.2314 34.1478 20.2314Z"/>
</defs>
</svg>
