<svg width="29" height="29" viewBox="0 0 29 29" xmlns="http://www.w3.org/2000/svg" xmlns:xlink="http://www.w3.org/1999/xlink">
  <title>
    article-icon
  </title>



  <g transform="translate(1 1)">
    <use xlink:href="#d" fill="#FFF"/>
    <use xlink:href="#e" fill="#4F4F4F"/>
  </g>
  <use xlink:href="#f" transform="translate(14.5 1.04)" fill="#4F4F4F"/>
  <use xlink:href="#g" transform="translate(1.04 14.5)" fill="#4F4F4F"/>
  <use xlink:href="#h" transform="translate(7.55 1.04)" fill="#4F4F4F"/>
  <use xlink:href="#i" transform="translate(15.37 1.04)" fill="#4F4F4F"/>
  <use xlink:href="#j" transform="translate(4.08 5.82)" fill="#4F4F4F"/>
  <use xlink:href="#k" transform="translate(4.08 18.84)" fill="#4F4F4F"/>
  <defs>
    
    <path id="b" d="M0 0v-1h-1v1h1zm70 0h1v-1h-1v1zm0 70v1h1v-1h-1zM0 70h-1v1h1v-1zM0 1h70v-2H0v2zm69-1v70h2V0h-2zm1 69H0v2h70v-2zM1 70V0h-2v70h2z"/>
    <path id="d" d="M13.5 0C20.966 0 27 6.034 27 13.5S20.966 27 13.5 27 0 20.966 0 13.5 6.034 0 13.5 0z"/>
    <path id="e" d="M13.5.563c7.156 0 12.938 5.78 12.938 12.937h1.125c0-7.777-6.286-14.063-14.063-14.063V.563zM26.438 13.5c0 7.156-5.782 12.938-12.938 12.938v1.125c7.777 0 14.063-6.286 14.063-14.063h-1.125zM13.5 26.438C6.344 26.438.562 20.655.562 13.5H-.563c0 7.777 6.286 14.063 14.063 14.063v-1.125zM.562 13.5C.562 6.344 6.345.562 13.5.562V-.563C5.723-.563-.563 5.723-.563 13.5H.563z"/>
    <path id="f" d="M.562 0c0-.31-.25-.563-.562-.563-.31 0-.563.252-.563.563H.562zM-.563 26.913c0 .31.252.563.563.563.31 0 .562-.252.562-.563H-.563zM-.563 0v26.913H.562V0H-.563z"/>
    <path id="g" d="M26.913.562c.31 0 .563-.25.563-.562 0-.31-.252-.563-.563-.563V.562zM0-.563c-.31 0-.563.252-.563.563 0 .31.252.562.563.562V-.563zm26.913 0H0V.562h26.913V-.563z"/>
    <path id="h" d="M6.425.442c.244-.192.286-.545.094-.79-.2-.244-.55-.286-.79-.094l.69.884zM5.73 27.355c.244.192.598.15.79-.094.19-.24.15-.59-.095-.79l-.695.89zM6.077 0L5.73-.442c-.002 0-.002 0-.003.002l-.005.004-.016.013-.057.047c-.05.04-.12.1-.21.177-.17.16-.43.39-.72.69-.58.6-1.38 1.5-2.16 2.67C1.02 5.48-.55 9-.56 13.46H.563C.55 9.234 2.01 6.024 3.506 3.785c.738-1.11 1.464-1.938 2.023-2.51.27-.282.49-.49.66-.632.07-.07.13-.12.18-.155L6.41.45c.005-.002.008-.005.01-.007h.002L6.077 0zm-6.64 13.457c.013 4.46 1.59 7.977 3.134 10.296.79 1.17 1.58 2.077 2.16 2.67.3.303.55.537.72.69l.21.177.06.047.02.013.01.003.004.002.347-.442.345-.442h-.02c-.01-.01-.022-.02-.042-.03l-.18-.15c-.16-.14-.384-.35-.66-.63-.56-.57-1.284-1.4-2.022-2.51C2.01 20.89.55 17.68.56 13.46H-.563z"/>
    <path id="i" d="M.348-.442c-.245-.192-.598-.15-.79.094-.192.245-.15.598.094.79l.696-.884zM-.348 26.47c-.244.193-.286.546-.094.79.192.245.545.287.79.095l-.696-.884zM0 0l-.348.442h.002l.01.01.044.036.18.155c.16.143.384.35.66.632.558.572 1.284 1.4 2.023 2.51 1.5 2.24 2.96 5.45 2.95 9.672h1.12C6.63 8.997 5.05 5.48 3.51 3.16 2.728 1.99 1.932 1.084 1.352.49 1.057.186.805-.048.635-.2L.428-.375.37-.423.356-.436.35-.44.347-.443 0 0zm5.515 13.457c.012 4.222-1.45 7.432-2.944 9.67-.73 1.11-1.46 1.94-2.02 2.51-.27.283-.5.49-.66.633l-.18.155-.04.037-.01.008.35.443.35.442v-.002l.01-.003.02-.013.06-.047c.05-.04.12-.1.21-.178.17-.152.42-.386.72-.688.58-.594 1.374-1.502 2.155-2.67 1.547-2.32 3.12-5.838 3.137-10.297H5.52z"/>
    <path id="j" d="M.503-.252c-.14-.277-.477-.39-.755-.25-.277.138-.39.476-.25.754L.502-.252zM21.34.252c.138-.278.025-.616-.252-.755-.278-.14-.616-.026-.755.25l1.006.505zM0 0l-.503.252c0 .002 0 .003.002.003V.26c0 .005 0 .01.01.017l.02.05c.02.035.05.094.1.162.08.12.21.32.39.54.35.42.93 1.02 1.76 1.6C3.46 3.78 6.18 4.9 10.4 4.9V3.77c-4.018 0-6.51-1.055-7.98-2.07C1.69 1.192 1.22.71.902.32.752.137.652-.005.582-.115L.52-.227.503-.25v-.004.002L0 0zm10.418 4.903c4.228 0 6.946-1.114 8.62-2.27.83-.575 1.417-1.173 1.766-1.6.18-.22.316-.417.397-.545.05-.068.08-.127.1-.163l.03-.05.01-.014h.01L20.84 0l-.504-.252v-.002.003c-.004 0-.007.01-.013.02l-.07.11c-.07.11-.16.25-.32.43-.31.39-.78.87-1.53 1.38-1.47 1.01-3.96 2.07-7.98 2.07V4.9z"/>
    <path id="k" d="M-.503 4.09c-.14.277-.026.615.25.754.28.14.617.026.756-.252L-.503 4.09zm20.836.502c.14.278.477.39.755.252.277-.14.39-.477.25-.755l-1.005.5zM0 4.342l.503.25.013-.024.068-.112c.07-.11.168-.252.32-.438.316-.388.788-.875 1.532-1.385C3.908 1.618 6.4.563 10.418.563V-.564c-4.228 0-6.946 1.115-8.62 2.27C.968 2.283.38 2.88.03 3.306c-.18.22-.316.42-.397.547-.043.067-.078.127-.1.163l-.025.05c-.004.005-.007.01-.008.014l-.003.005c-.002 0-.002.002-.002.003L0 4.34zM10.418.56c4.02 0 6.51 1.056 7.983 2.07.75.51 1.22.998 1.54 1.386.15.186.25.328.32.438l.07.112.02.024.51-.25c.504-.25.504-.25.504-.253h-.002V4.08c0-.01-.003-.01-.007-.02l-.028-.05c-.02-.04-.055-.1-.1-.16-.08-.13-.215-.33-.395-.55-.35-.43-.938-1.03-1.768-1.6-1.68-1.16-4.4-2.27-8.625-2.27V.56z"/>
  </defs>
</svg>
