<svg width="70" height="70" viewBox="0 0 70 70" version="1.1" xmlns="http://www.w3.org/2000/svg" xmlns:xlink="http://www.w3.org/1999/xlink">
<title>book2</title>
<desc>Created using Figma</desc>
<g id="Canvas" transform="translate(-8934 2013)">
<g id="book2">
<g id="Rectangle 26">
<use xlink:href="#path0_fill" transform="translate(8934 -2013)" fill="#BB6BD9"/>
</g>
<g id="Rectangle 27">
<use xlink:href="#path1_fill" transform="translate(8934 -1957)" fill="#4F4F4F"/>
</g>
<g id="BOOK">
<use xlink:href="#path2_fill" transform="translate(8934 -1957.23)" fill="#F2F2F2"/>
</g>
<g id="book6">
<g id="Layer 2">
<g id="Layer 1">
<g id="Vector">
<use xlink:href="#path3_fill" transform="matrix(0.505484 -0.862836 -0.869157 -0.494536 8970.92 -1956.62)" fill="#FFFFFF"/>
</g>
<g id="Vector">
<use xlink:href="#path4_fill" transform="matrix(0.505484 -0.862836 -0.869157 -0.494536 8970.2 -1984.88)" fill="#FFFFFF"/>
</g>
<g id="Vector">
<use xlink:href="#path5_fill" transform="matrix(0.505484 -0.862836 -0.869157 -0.494536 8960.99 -1962.27)" fill="#F3DEFC"/>
</g>
<g id="Vector">
<use xlink:href="#path6_fill" transform="matrix(0.505484 -0.862836 -0.869157 -0.494536 8971.05 -1955.93)" fill="#333333"/>
</g>
<g id="label">
<use xlink:href="#path7_fill" transform="matrix(0.505484 -0.862836 -0.869157 -0.494536 8971.41 -1974.81)" fill="#F3DEFC"/>
</g>
<g id="Rectangle 27">
<use xlink:href="#path8_fill" transform="matrix(1.00544 -1.67408e-08 -2.66327e-08 0.994491 8960.76 -1989.67)" fill="#333333"/>
</g>
</g>
</g>
</g>
</g>
</g>
<defs>
<path id="path0_fill" d="M 0 0L 70 0L 70 70L 0 70L 0 0Z"/>
<path id="path1_fill" d="M 0 0L 70 0L 70 14L 0 14L 0 0Z"/>
<path id="path2_fill" d="M 20.0117 11L 20.0117 2.46875L 22.9355 2.46875C 23.9004 2.46875 24.6348 2.66211 25.1387 3.04883C 25.6426 3.43555 25.8945 4.01172 25.8945 4.77734C 25.8945 5.16797 25.7891 5.51953 25.5781 5.83203C 25.3672 6.14453 25.0586 6.38672 24.6523 6.55859C 25.1133 6.68359 25.4688 6.91992 25.7188 7.26758C 25.9727 7.61133 26.0996 8.02539 26.0996 8.50977C 26.0996 9.31055 25.8418 9.92578 25.3262 10.3555C 24.8145 10.7852 24.0801 11 23.123 11L 20.0117 11ZM 21.4941 7.15039L 21.4941 9.81641L 23.1406 9.81641C 23.6055 9.81641 23.9688 9.70117 24.2305 9.4707C 24.4922 9.24023 24.623 8.91992 24.623 8.50977C 24.623 7.62305 24.1699 7.16992 23.2637 7.15039L 21.4941 7.15039ZM 21.4941 6.06055L 22.9473 6.06055C 23.4082 6.06055 23.7676 5.95703 24.0254 5.75C 24.2871 5.53906 24.418 5.24219 24.418 4.85938C 24.418 4.4375 24.2969 4.13281 24.0547 3.94531C 23.8164 3.75781 23.4434 3.66406 22.9355 3.66406L 21.4941 3.66406L 21.4941 6.06055ZM 34.3906 6.95703C 34.3906 7.79297 34.2461 8.52734 33.957 9.16016C 33.668 9.78906 33.2539 10.2734 32.7148 10.6133C 32.1797 10.9492 31.5625 11.1172 30.8633 11.1172C 30.1719 11.1172 29.5547 10.9492 29.0117 10.6133C 28.4727 10.2734 28.0547 9.79102 27.7578 9.16602C 27.4648 8.54102 27.3164 7.82031 27.3125 7.00391L 27.3125 6.52344C 27.3125 5.69141 27.459 4.95703 27.752 4.32031C 28.0488 3.68359 28.4648 3.19727 29 2.86133C 29.5391 2.52148 30.1562 2.35156 30.8516 2.35156C 31.5469 2.35156 32.1621 2.51953 32.6973 2.85547C 33.2363 3.1875 33.6523 3.66797 33.9453 4.29688C 34.2383 4.92188 34.3867 5.65039 34.3906 6.48242L 34.3906 6.95703ZM 32.9082 6.51172C 32.9082 5.56641 32.7285 4.8418 32.3691 4.33789C 32.0137 3.83398 31.5078 3.58203 30.8516 3.58203C 30.2109 3.58203 29.709 3.83398 29.3457 4.33789C 28.9863 4.83789 28.8027 5.54688 28.7949 6.46484L 28.7949 6.95703C 28.7949 7.89453 28.9766 8.61914 29.3398 9.13086C 29.707 9.64258 30.2148 9.89844 30.8633 9.89844C 31.5195 9.89844 32.0234 9.64844 32.375 9.14844C 32.7305 8.64844 32.9082 7.91797 32.9082 6.95703L 32.9082 6.51172ZM 42.6758 6.95703C 42.6758 7.79297 42.5312 8.52734 42.2422 9.16016C 41.9531 9.78906 41.5391 10.2734 41 10.6133C 40.4648 10.9492 39.8477 11.1172 39.1484 11.1172C 38.457 11.1172 37.8398 10.9492 37.2969 10.6133C 36.7578 10.2734 36.3398 9.79102 36.043 9.16602C 35.75 8.54102 35.6016 7.82031 35.5977 7.00391L 35.5977 6.52344C 35.5977 5.69141 35.7441 4.95703 36.0371 4.32031C 36.334 3.68359 36.75 3.19727 37.2852 2.86133C 37.8242 2.52148 38.4414 2.35156 39.1367 2.35156C 39.832 2.35156 40.4473 2.51953 40.9824 2.85547C 41.5215 3.1875 41.9375 3.66797 42.2305 4.29688C 42.5234 4.92188 42.6719 5.65039 42.6758 6.48242L 42.6758 6.95703ZM 41.1934 6.51172C 41.1934 5.56641 41.0137 4.8418 40.6543 4.33789C 40.2988 3.83398 39.793 3.58203 39.1367 3.58203C 38.4961 3.58203 37.9941 3.83398 37.6309 4.33789C 37.2715 4.83789 37.0879 5.54688 37.0801 6.46484L 37.0801 6.95703C 37.0801 7.89453 37.2617 8.61914 37.625 9.13086C 37.9922 9.64258 38.5 9.89844 39.1484 9.89844C 39.8047 9.89844 40.3086 9.64844 40.6602 9.14844C 41.0156 8.64844 41.1934 7.91797 41.1934 6.95703L 41.1934 6.51172ZM 46.6016 7.31445L 45.6348 8.33984L 45.6348 11L 44.1523 11L 44.1523 2.46875L 45.6348 2.46875L 45.6348 6.4707L 46.4551 5.45703L 48.9512 2.46875L 50.7441 2.46875L 47.5742 6.24805L 50.9258 11L 49.168 11L 46.6016 7.31445Z"/>
<path id="path3_fill" d="M 0 11.3846L 19.6693 0L 43.5114 13.8027L 23.8421 25.1873L 0 11.3846Z"/>
<path id="path4_fill" d="M 17.9007 -2.34275e-07L 9.34622e-07 10.3789L 9.34622e-07 17.1575L 17.9007 6.77854L 17.9007 -2.34275e-07Z"/>
<path id="path5_fill" d="M 23.9569 20.6427L 0 6.77086L 0 2.34275e-07L 23.9569 13.8641L 23.9569 20.6427Z"/>
<path id="path6_fill" d="M 44.7901 16.8581L 43.9478 16.4051L 43.9402 16.4051L 43.1822 15.9906L 43.1822 15.4379L 43.6646 15.1615L 44.7901 14.5858L 19.6693 0L 0 11.5458L 0 18.9384L 24.5848 33.148L 24.5924 33.148L 44.7901 21.4641L 43.9478 21.0112L 43.9402 21.0112L 43.1822 20.5966L 43.1822 20.0823L 44.7901 19.1534L 43.9478 18.7005L 43.9402 18.7005L 43.1822 18.2859L 43.1822 17.7716L 44.7901 16.8581ZM 25.1131 28.2503L 42.0337 18.4548L 42.0337 19.7982L 25.1131 29.5707L 25.1131 28.2503ZM 25.1131 27.2293L 25.1131 25.9089L 42.0337 16.1134L 42.0337 17.4261L 25.1131 27.2293ZM 23.9493 25.4022L 23.9646 25.4253L 23.9646 31.6127L 1.14846 18.378L 1.14846 12.1369L 19.6464 1.18989L 42.6463 14.5781L 23.9493 25.4022ZM 25.1131 30.5533L 42.0337 20.7578L 42.0337 22.1013L 25.1131 31.8737L 25.1131 30.5533Z"/>
<path id="path7_fill" d="M 19.1028 4.08401L 7.04391 11.0621L 0 6.98581L 12.0589 0L 19.1028 4.08401Z"/>
<path id="path8_fill" d="M 0 0L 1.02384 0L 1.02384 27.5431L 0 27.5431L 0 0Z"/>
</defs>
</svg>
