<svg width="50" height="50" viewBox="0 0 50 50" version="1.1" xmlns="http://www.w3.org/2000/svg" xmlns:xlink="http://www.w3.org/1999/xlink">
<title>book</title>
<desc>Created using Figma</desc>
<g id="Canvas" transform="translate(-11117 180)">
<g id="book">
<g id="Group 4.1">
<g id="Rectangle">
<use xlink:href="#path0_fill" transform="translate(11117 -180)" fill="#F2994A"/>
</g>
<g id="Union">
<use xlink:href="#path1_fill" transform="translate(11129 -170)" fill="#FFFFFF"/>
</g>
<g id="Bookmark-2">
<g id="Vector">
<use xlink:href="#path2_fill" transform="translate(11129 -170)" fill="#261313"/>
</g>
</g>
</g>
</g>
</g>
<defs>
<path id="path0_fill" d="M 0 25C 0 11.1929 11.1929 0 25 0C 38.8071 0 50 11.1929 50 25C 50 38.8071 38.8071 50 25 50C 11.1929 50 0 38.8071 0 25Z"/>
<path id="path1_fill" d="M 4 0C 1.79102 0 0 1.79089 0 4L 0 26C 0 28.2091 1.79102 30 4 30L 24 30L 24 10.1569C 24 9.09595 23.5371 8.09094 23.0537 7.14685C 22.7549 6.56262 22.5 5.82373 22.5 5C 22.5 4.32495 22.6709 3.53589 22.8975 2.78674C 23.2959 1.46741 22.3779 0 21 0L 4 0Z"/>
<path id="path2_fill" d="M 23.987 8.438C 23.984 8.415 23.98 8.394 23.974 8.372C 23.951 8.288 23.914 8.209 23.855 8.149C 23.855 8.149 23.855 8.148 23.854 8.148C 22.423 6.716 22.423 2.286 23.854 0.855C 23.996 0.712 24.039 0.497 23.962 0.31C 23.885 0.122 23.702 0 23.5 0L 3.9 0C 1.822 0 0 1.694 0 3.625L 0 5L 0 5.5L 0 26.375C 0 28.476 1.378 30 3.275 30L 23.5 30C 23.776 30 24 29.776 24 29.5L 24 8.5C 24 8.478 23.99 8.459 23.987 8.438ZM 1 3.625C 1 2.251 2.382 1 3.9 1L 22.53 1C 22.092 1.823 21.856 2.896 21.798 4L 4.5 4C 4.224 4 4 4.224 4 4.5C 4 4.776 4.224 5 4.5 5L 7 5L 7 8L 4 8C 2.581 8 1 6.973 1 5.5L 1 5L 1 3.625ZM 8 5L 14 5L 14 18.169L 11.376 15.17C 11.187 14.952 10.813 14.952 10.624 15.17L 8 18.169L 8 5ZM 15 5L 21.798 5C 21.856 6.104 22.092 7.177 22.53 8L 15 8L 15 5ZM 3.275 29C 1.703 29 1 27.682 1 26.375L 1 7.766C 1.781 8.537 2.906 9 4 9L 7 9L 7 19.5C 7 19.708 7.129 19.895 7.324 19.968C 7.522 20.041 7.739 19.986 7.876 19.829L 11 16.259L 14.124 19.829C 14.221 19.94 14.358 20 14.5 20C 14.559 20 14.618 19.99 14.676 19.968C 14.871 19.895 15 19.708 15 19.5L 15 9L 23 9L 23 29L 3.275 29Z"/>
</defs>
</svg>
