<svg width="135" height="114" viewBox="0 0 135 114" version="1.1" xmlns="http://www.w3.org/2000/svg" xmlns:xlink="http://www.w3.org/1999/xlink">
<title>chestpanel</title>
<desc>Created using Figma</desc>
<g id="Canvas" transform="translate(-4697 -179)">
<g id="chestpanel">
<g id="body">
<use xlink:href="#path0_fill" transform="translate(4719.08 180.781)" fill="#FAA81C"/>
</g>
<g id="Vector">
<use xlink:href="#path1_fill" transform="translate(4740.6 242.53)" fill="#F290BC"/>
</g>
<g id="nose">
<use xlink:href="#path2_fill" transform="translate(4762.82 190.898)"/>
</g>
<g id="Vector">
<use xlink:href="#path3_fill" transform="translate(4745.13 248.097)" fill="#FFFFFF"/>
</g>
<g id="Vector">
<use xlink:href="#path4_fill" transform="translate(4743.64 246.148)"/>
</g>
<g id="Vector">
<use xlink:href="#path5_fill" transform="translate(4739.08 240.981)"/>
</g>
<g id="button-3">
<g id="Vector">
<use xlink:href="#path6_fill" transform="translate(4726.98 265.718)" fill="#FFFFFF"/>
</g>
<g id="Vector">
<use xlink:href="#path7_fill" transform="translate(4725.63 264.384)"/>
</g>
</g>
<g id="button-2">
<g id="Vector">
<use xlink:href="#path8_fill" transform="translate(4726.8 252.633)" fill="#FFFFFF"/>
</g>
<g id="Vector">
<use xlink:href="#path9_fill" transform="translate(4725.17 250.862)"/>
</g>
</g>
<g id="button-1">
<g id="Vector">
<use xlink:href="#path10_fill" transform="translate(4726.18 240.815)" fill="#FFFFFF"/>
</g>
<g id="Vector">
<use xlink:href="#path11_fill" transform="translate(4725.01 238.87)"/>
</g>
</g>
<g id="left-ear">
<g id="Vector">
<use xlink:href="#path12_fill" transform="translate(4713.96 197.434)" fill="#EE4B8C"/>
</g>
<g id="Vector">
<use xlink:href="#path13_fill" transform="translate(4698.78 196.79)" fill="#FFFFFF"/>
</g>
</g>
<g id="right-ear">
<g id="Vector">
<use xlink:href="#path14_fill" transform="translate(4805.52 197.931)" fill="#EE4B8C"/>
</g>
<g id="Vector">
<use xlink:href="#path15_fill" transform="translate(4824.82 196.231)" fill="#FFFFFF"/>
</g>
</g>
<g id="bodykeyline">
<use xlink:href="#path16_fill" transform="translate(4697.7 179)"/>
</g>
</g>
</g>
<defs>
<path id="path0_fill" d="M 0.111181 86.3823C 0.0555909 88.4391 0.0555896 90.4958 0.0555896 92.5525C 0.0555896 94.4425 0 96.3324 0 98.1668C 0 100.057 0.222361 101.947 0.0555896 103.781C -0.111182 105.671 0.778265 107.45 0.611494 109.34C 0.611494 109.729 0.778267 110.118 1.22299 110.062C 2.72393 110.062 4.22487 110.062 5.72582 110.007C 6.83763 109.34 8.11621 109.562 9.28361 109.562C 10.6178 109.562 11.8408 109.117 13.1193 109.062C 14.7871 108.951 16.5104 108.951 18.1781 108.951C 18.734 108.951 19.3455 109.062 19.8458 108.895C 21.4023 108.284 22.9589 108.506 24.571 108.395C 25.1269 108.339 25.7384 108.45 26.2387 108.228C 27.0725 107.839 27.9064 107.95 28.7403 107.895C 31.7421 107.839 34.744 107.783 37.7459 107.839C 38.5798 107.839 39.3025 107.45 40.1919 107.561C 40.9702 107.672 41.804 107.061 42.6379 107.45C 43.4717 107.839 44.3056 107.728 45.1394 107.783C 46.7516 107.839 48.3081 107.783 49.9202 107.783C 50.6429 107.783 51.3656 107.728 52.1438 107.505C 53.3112 107.172 54.5342 107.116 55.7572 107.505C 57.8697 108.117 60.0377 107.617 62.2057 107.783C 63.2619 107.172 64.3737 107.394 65.4855 107.339C 67.2644 107.283 69.0434 107.283 70.8222 107.228C 71.3782 107.228 71.9896 107.339 72.49 107.116C 73.4906 106.672 74.4912 106.783 75.5474 106.783C 80.1614 106.727 84.7754 106.727 89.3339 106.672C 90.4457 106.672 90.8904 106.171 90.8904 105.115C 90.8904 92.7193 90.8904 80.3233 90.8904 67.9274C 90.8904 66.4266 90.8348 64.9257 90.8348 63.4249C 90.8348 60.2564 91.1128 57.0879 90.5013 53.9195C 90.8904 52.5298 90.2789 51.1957 90.3345 49.806C 90.4457 47.4714 90.5569 45.1367 89.8342 42.8577C 89.7786 42.6353 89.8898 42.3018 89.9454 42.0238C 90.0009 41.8571 90.1121 41.6347 90.0565 41.5236C 89.5562 40.3562 89.9454 39.0777 89.6674 37.9104C 89.6118 37.6325 89.6674 37.2989 89.5562 37.0766C 89.0003 36.0204 89.2227 34.8531 89.1115 33.7414C 88.9447 32.6296 88.6112 31.5179 88.6668 30.4061C 88.778 27.9047 87.6105 25.6812 87.2214 23.291C 85.9984 20.6784 84.9422 17.9546 83.5525 15.4532C 82.8854 14.2303 81.9959 13.1186 81.0509 12.0624C 79.3276 10.1724 77.104 8.94952 75.1583 7.3375C 74.5468 6.83721 73.6573 6.67045 72.9347 6.28134C 69.766 4.50255 66.3194 3.33523 62.8728 2.11231C 61.4275 1.61203 59.8709 1.7232 58.5367 1.05615C 57.147 0.38911 55.5349 0.889393 54.2007 0.166761C 53.9783 0.0555871 53.6448 0.111174 53.3668 0.111174C 51.8659 0.0555871 50.365 0 48.864 0C 47.0851 0 45.3062 0.0555871 43.5273 0.111174C 41.4149 1.00057 39.0801 0.277935 36.9121 1.11174C 34.6329 0.94498 32.5204 1.77879 30.3524 2.44583C 26.6834 3.55757 23.07 4.66932 19.6234 6.33693C 17.3442 7.44867 15.343 9.0607 13.6753 10.9507C 11.4516 13.5077 9.8951 16.5094 8.11621 19.3443C 8.00503 19.5111 7.94943 19.6778 7.94943 19.8446C 7.83825 21.5678 6.83763 22.9575 6.44849 24.6251C 5.837 27.5156 4.44724 30.2394 4.39164 33.2967C 4.39164 33.4634 4.22487 33.6302 4.22487 33.797C 3.94692 35.0755 3.61338 36.2984 3.44661 37.6325C 3.27984 38.9666 3.00188 40.3006 2.8907 41.6903C 2.77952 43.1912 2.44598 44.6364 2.11244 46.0817C 1.83448 47.3602 1.77889 48.6387 1.7233 49.9728C 1.55653 52.6966 1.11181 55.3647 0.889446 58.0329C 0.722675 60.0341 0.555903 62.0352 0.500313 64.0919C 0.500313 64.5366 0.667085 65.0925 0.444723 65.4816C -0.166772 66.5378 0.0555905 67.7051 0 68.7612C 0.111181 74.7091 0.111181 80.5457 0.111181 86.3823Z"/>
<path id="path1_fill" d="M 0.489479 19.6311C 0.54507 19.6311 0.545068 19.6311 0.600658 19.6311C 0.600658 21.5767 0.600658 23.5778 0.600658 25.5234C 0.600658 28.4139 0.378296 28.0804 3.15782 28.0804C 3.54695 28.0804 3.93608 28.136 4.26963 27.9692C 5.04789 27.5245 5.93734 27.6357 6.7712 27.6357C 8.71686 27.6357 10.7737 27.3577 12.6638 27.8024C 14.7206 28.2471 16.7775 27.9136 18.7787 28.2471C 18.9455 28.3027 19.1679 28.1915 19.3346 28.3027C 20.502 28.9142 21.725 28.7474 22.948 28.803C 23.5039 28.803 24.0598 29.0809 24.5601 29.0809C 25.4496 29.1365 26.4502 29.4145 27.2285 29.1365C 28.5071 28.6918 29.8412 28.6918 31.1198 28.7474C 32.454 28.803 33.677 28.1915 34.9556 28.1915C 37.4571 28.2471 39.9587 27.4689 42.4603 27.5245C 42.7938 27.5245 43.1829 27.2466 43.5165 27.3022C 44.4615 27.4689 45.2954 26.8575 46.2404 27.0242C 47.519 27.3022 48.5752 26.5239 49.7982 26.3572C 50.3541 26.246 50.8544 25.579 50.6321 25.1343C 50.3541 24.5784 50.6321 24.0781 50.5209 23.5778C 50.3541 22.5773 50.2985 21.5211 50.1318 20.5205C 49.965 19.4088 49.7426 18.3526 49.687 17.2409C 49.5758 14.406 49.5759 11.6266 49.5759 8.79166C 49.5759 8.34696 49.687 7.79109 49.5203 7.40198C 48.9088 5.73436 49.1867 4.06675 49.1311 2.39914C 49.1311 1.84327 49.1311 1.2874 49.0755 0.731525C 49.0199 0.342416 48.7976 0.00889563 48.3529 0.00889563C 47.9081 0.00889563 47.3522 -0.0466932 46.9631 0.120068C 46.0736 0.564765 45.1286 0.398002 44.1836 0.509176C 43.0718 0.62035 41.96 0.564767 40.7926 0.564767C 39.6807 0.564767 38.5133 0.398004 37.4015 0.620353C 36.2897 0.842701 35.2335 0.398005 34.1217 0.564767C 33.4546 0.675941 32.8431 0.675938 32.176 0.731525C 31.1198 0.842699 30.008 0.953874 28.9518 1.00946C 26.0611 1.06505 23.1148 1.12064 20.2241 1.12064C 19.557 1.12064 18.8899 1.12064 18.2784 1.12064C 17.6113 1.17622 16.8887 1.06505 16.3883 1.34298C 15.7213 1.73209 15.1654 1.17622 14.5539 1.34298C 12.775 1.78768 10.8849 1.67651 9.0504 2.06562C 7.77182 2.34355 6.43765 2.06561 5.10348 2.17679C 3.71372 2.28796 2.32396 2.51031 0.9342 2.67707C 0.211524 2.78825 0.0447537 2.95501 0.0447537 3.78882C 0.0447537 4.84497 0.0447537 5.84554 0.0447537 6.90169C 0.0447537 7.95785 0.489477 9.06959 0.0447537 10.1257C -0.0664272 10.3481 0.0447554 10.6816 0.211527 10.9596C 0.54507 11.571 0.489479 12.2381 0.489479 12.9051C 0.489479 15.1286 0.489479 17.3521 0.489479 19.6311Z"/>
<path id="path2_fill" d="M 0.0574282 20.9007C 0.0574282 18.7328 -0.220526 16.6205 0.44656 14.5082C 0.557741 14.1747 0.557741 13.73 0.44656 13.3965C -0.331707 10.6171 0.2242 7.83778 0.0574282 5.05843C 0.613333 3.55757 0.446561 1.94555 0.613333 0.333523C 0.613333 0.222348 1.00247 0.0555869 1.22483 -2.12048e-07C 1.33601 -2.12048e-07 1.55837 0.166761 1.61396 0.277935C 1.72514 0.444697 1.72514 0.667045 1.72514 0.833806C 1.50278 2.77935 1.89191 4.78049 1.3916 6.67045C 1.22482 7.28191 1.66955 7.72661 1.66955 8.28248C 1.61396 11.1174 1.66955 13.8968 1.61396 16.7317C 1.61396 17.1764 1.44719 17.6211 1.33601 18.0658C 1.28042 18.4549 1.05806 18.844 1.22483 19.122C 2.0031 21.1231 1.44719 23.2354 1.72514 25.2365C 1.78073 25.4589 1.66955 25.7924 1.50278 26.0148C 1.33601 26.1815 1.00247 26.3483 0.780106 26.2927C 0.557744 26.2927 0.224203 26.0703 0.113022 25.848C 0.00184109 25.6257 0.0574282 25.2921 0.0574282 25.0142C 0.0574282 23.6801 0.0574282 22.2904 0.0574282 20.9007Z"/>
<path id="path3_fill" d="M 0.569801 12.1738C 0.569801 14.0637 0.569801 15.8981 0.569801 17.7881C 2.45988 18.5107 4.40554 18.0104 6.35121 18.1216C 7.68538 18.1772 8.96396 18.1216 10.2981 18.1216C 10.9096 18.1216 11.2988 17.7325 11.0764 17.2878C 10.7429 16.5651 10.7429 15.8425 10.6873 15.1199C 10.6317 12.952 10.6317 10.7841 10.5761 8.67177C 10.5761 8.00472 10.4093 7.39326 10.2981 6.72622C 10.0758 5.0586 9.68664 3.44658 9.63105 1.77897C 9.51987 -0.0554056 9.2975 0.000183205 7.5742 0.000183205C 7.12947 0.000183205 6.62916 0.000181508 6.18444 0.111356C 4.51672 0.611639 2.84901 1.2231 1.07012 1.27868C 0.569802 1.27868 0.0138968 1.94573 0.0138968 2.44601C 0.0694872 3.55775 -0.152874 4.6695 0.236259 5.78124C 0.514212 6.55946 0.514212 7.44885 0.514212 8.28266C 0.625393 9.56116 0.569801 10.8397 0.569801 12.1738Z"/>
<path id="path4_fill" d="M 0.559722 18.0697C 0.670903 16.68 0.726491 15.2904 1.00444 13.9007C 1.2824 12.5666 1.39358 11.1213 0.782085 9.73165C 0.615313 9.39812 0.670902 9.00901 0.615312 8.6199C 0.504131 7.23023 0.504131 5.84055 0.0594072 4.50646C 0.00381677 4.3397 0.00381762 4.11735 0.00381762 3.95059C -0.0517728 3.00561 0.504132 2.22739 1.39358 2.22739C 3.11688 2.22739 4.729 1.89386 6.28554 1.28241C 6.61908 1.11564 7.00821 1.11564 7.39735 1.06006C 8.89829 1.00447 10.3992 0.948884 11.6778 0.0594909C 11.9558 -0.162858 12.6784 0.281838 12.7896 0.670948C 12.9008 1.39358 13.012 2.11621 13.0676 2.89443C 13.1788 4.17294 13.012 5.45144 13.5123 6.78553C 13.9014 7.89727 13.4011 9.23136 14.0126 10.3431C 13.7347 11.8995 14.235 13.4004 14.1794 14.9568C 14.1238 16.6244 14.4017 18.2921 14.6797 19.9597C 14.9021 21.4049 14.4573 21.794 13.0676 21.9052C 12.1781 22.0164 11.2887 21.5161 10.3436 21.794C 9.56537 22.0164 8.67593 21.8496 7.84207 21.8496C 6.89703 21.8496 5.952 21.8496 5.00696 21.9052C 3.89515 21.9052 2.78334 21.9608 1.61594 22.0164C 1.00445 22.0164 0.615313 21.6273 0.559722 20.9602C 0.559722 19.9597 0.559722 19.0147 0.559722 18.0697ZM 2.33861 14.3454C 2.33861 16.2353 2.33861 18.0697 2.33861 19.9597C 4.22869 20.6823 6.17436 20.182 8.12002 20.2932C 9.45419 20.3488 10.7328 20.2932 12.0669 20.2932C 12.6784 20.2932 13.0676 19.9041 12.8452 19.4594C 12.5117 18.7368 12.5117 18.0141 12.4561 17.2915C 12.4005 15.1236 12.4005 12.9557 12.3449 10.8434C 12.3449 10.1763 12.1781 9.56489 12.0669 8.89784C 11.8446 7.23023 11.4555 5.6182 11.3999 3.95059C 11.2887 2.11621 11.0663 2.1718 9.34301 2.1718C 8.89829 2.1718 8.39797 2.1718 7.95325 2.28297C 6.28554 2.78326 4.61782 3.39472 2.83893 3.4503C 2.33862 3.4503 1.78271 4.11735 1.78271 4.61764C 1.8383 5.72938 1.61594 6.84112 2.00507 7.95286C 2.28303 8.73108 2.28303 9.62047 2.28303 10.4543C 2.39421 11.7328 2.33861 13.0113 2.33861 14.3454Z"/>
<path id="path5_fill" d="M 27.6388 32.1305C 26.5826 32.1305 25.582 32.1305 24.5258 32.1305C 23.8031 32.1305 23.0248 32.1861 22.3577 31.797C 22.1354 31.6858 21.8018 31.6303 21.5239 31.6303C 18.7444 31.5747 15.9648 30.7409 13.1853 31.0188C 12.1847 31.13 11.3508 30.4629 10.4614 30.5741C 9.57193 30.6853 8.68248 31.0744 7.73744 31.0188C 6.79241 30.9632 5.90296 31.13 4.95792 31.4079C 4.06847 31.6858 3.12344 31.5191 2.1784 31.5191C 1.73368 31.5191 1.17777 30.852 1.17777 30.2962C 1.17777 29.1844 1.23336 28.0171 1.17777 26.9053C 1.12218 25.4601 1.011 23.9592 0.899821 22.514C 0.84423 22.0693 0.899819 21.569 0.733048 21.1243C 0.399505 20.2349 1.45572 19.5679 0.95541 18.6785C 0.455096 17.8447 0.788638 16.8441 0.733048 15.8991C 0.677457 15.0653 0.677458 14.2315 0.677458 13.3421C 0.677458 12.5083 0.677459 11.6745 0.621868 10.7851C 0.566278 9.0063 -0.0452169 7.28311 0.065964 5.50432C 0.065964 5.11521 0.0103702 4.78169 0.0103702 4.39258C -0.0452203 2.83614 0.0659632 2.72497 1.78927 2.72497C 2.84549 2.72497 3.84611 2.72497 4.90233 2.66938C 6.12532 2.61379 7.34831 2.89173 8.46012 2.28027C 8.51571 2.22468 8.62689 2.28027 8.73807 2.28027C 12.0179 2.39144 15.2422 1.50205 18.522 1.55764C 19.3558 1.55764 20.1341 1.39087 20.968 1.39087C 21.8018 1.39087 22.6357 1.55764 23.4695 1.55764C 25.5264 1.50205 27.5276 1.55763 29.5845 1.22411C 31.7525 0.835002 34.0873 1.11294 36.3109 1.11294C 38.201 1.11294 40.0355 1.05735 41.9256 1.05735C 42.3147 1.05735 42.7594 1.16853 43.0374 1.00177C 44.038 0.445896 45.0386 0.668241 46.0949 0.612654C 47.4846 0.557067 48.8744 0.66824 50.2641 0.11237C 50.82 -0.109979 51.5427 0.0567825 52.2098 0.11237C 52.5989 0.167957 52.8769 0.723828 52.8213 1.16853C 52.3766 4.11464 52.4322 7.56105 52.9881 10.8963C 53.0437 11.063 53.0993 11.341 53.0437 11.4521C 52.321 12.3971 53.0993 13.3977 52.7657 14.3427C 53.266 15.2877 53.0437 16.3438 53.0993 17.4C 53.1548 18.4561 52.9325 19.5123 53.2104 20.4573C 53.7107 22.0137 53.4884 23.6257 54.0443 25.1266C 54.3222 25.9048 54.2111 26.7942 54.2111 27.628C 54.2111 29.0732 53.7663 29.6291 52.3766 29.9071C 51.3759 30.0738 50.3753 30.2962 49.3747 30.4073C 48.4297 30.5185 47.4846 30.4629 46.5396 30.5185C 45.8169 30.5185 45.0942 30.5185 44.316 30.852C 43.8156 31.0744 43.2041 30.9076 42.6482 31.0188C 41.2585 31.1856 39.8131 30.852 38.479 31.5191C 38.2566 31.6303 37.9231 31.5747 37.6451 31.5747C 35.6994 31.6303 33.7538 31.6858 31.8081 32.075C 30.4739 32.3529 29.0286 32.1305 27.6388 32.1305ZM 2.28958 21.4022C 2.34517 21.4022 2.34517 21.4022 2.40076 21.4022C 2.40076 23.3478 2.40076 25.3489 2.40076 27.2945C 2.40076 30.185 2.1784 29.8515 4.95792 29.8515C 5.34705 29.8515 5.73619 29.9071 6.06973 29.7403C 6.848 29.2956 7.73744 29.4068 8.5713 29.4068C 10.517 29.4068 12.5738 29.1288 14.4639 29.5735C 16.5207 30.0182 18.5776 29.6847 20.5788 30.0182C 20.7456 30.0738 20.968 29.9626 21.1347 30.0738C 22.3021 30.6853 23.5251 30.5185 24.7481 30.5741C 25.304 30.5741 25.8599 30.852 26.3602 30.852C 27.2497 30.9076 28.2503 31.1856 29.0286 30.9076C 30.3072 30.4629 31.6413 30.4629 32.9199 30.5185C 34.2541 30.5741 35.4771 29.9626 36.7557 29.9626C 39.2572 30.0182 41.7588 29.24 44.2604 29.2956C 44.5939 29.2956 44.983 29.0177 45.3166 29.0732C 46.2616 29.24 47.0955 28.6286 48.0405 28.7953C 49.3191 29.0732 50.3753 28.295 51.5983 28.1283C 52.1542 28.0171 52.6545 27.35 52.4322 26.9053C 52.1542 26.3495 52.4322 25.8492 52.321 25.3489C 52.1542 24.3483 52.0986 23.2922 51.9319 22.2916C 51.7651 21.1799 51.5427 20.1237 51.4871 19.012C 51.3759 16.177 51.3759 13.3977 51.3759 10.5627C 51.3759 10.118 51.4871 9.56218 51.3204 9.17307C 50.7089 7.50546 50.9868 5.83784 50.9312 4.17023C 50.9312 3.61436 50.9312 3.05849 50.8756 2.50262C 50.82 2.11351 50.5977 1.77998 50.153 1.77998C 49.7082 1.77998 49.1523 1.7244 48.7632 1.89116C 47.8737 2.33586 46.9287 2.16909 45.9837 2.28027C 44.8719 2.39144 43.7601 2.33585 42.5927 2.33585C 41.4809 2.33585 40.3134 2.1691 39.2016 2.39144C 38.0898 2.61379 37.0336 2.16909 35.9218 2.33585C 35.2547 2.44703 34.6432 2.44703 33.9761 2.50262C 32.9199 2.61379 31.8081 2.72496 30.7519 2.78055C 27.8612 2.83614 24.9149 2.89172 22.0242 2.89172C 21.3571 2.89172 20.69 2.89172 20.0785 2.89172C 19.4114 2.94731 18.6888 2.83614 18.1884 3.11407C 17.5214 3.50318 16.9655 2.94731 16.354 3.11407C 14.5751 3.55877 12.685 3.4476 10.8505 3.83671C 9.57193 4.11464 8.23776 3.83671 6.90359 3.94788C 5.51383 4.05905 4.12406 4.2814 2.7343 4.44816C 2.01163 4.55934 1.84486 4.7261 1.84486 5.55991C 1.84486 6.61606 1.84486 7.61663 1.84486 8.67278C 1.84486 9.72894 2.28958 10.8407 1.84486 11.8968C 1.73368 12.1192 1.84486 12.4527 2.01163 12.7306C 2.34517 13.3421 2.28958 14.0091 2.28958 14.6762C 2.28958 16.8997 2.28958 19.1232 2.28958 21.4022Z"/>
<path id="path6_fill" d="M 3.98861 1.61202C 3.98861 1.00056 3.54389 0 3.09917 0C 2.15413 0.111174 1.09791 -0.166761 0.375235 0.833806C -0.125079 1.50085 -0.125079 2.50142 0.375235 3.16846C 0.764368 3.66875 1.765 3.94668 2.43208 3.72433C 3.26594 3.50199 3.98861 2.50142 3.98861 1.61202Z"/>
<path id="path7_fill" d="M 3.17755 0.222348C 3.62227 0.166761 4.067 3.39277e-06 4.45613 3.39277e-06C 4.90085 0.0555905 5.34558 0.166763 5.7903 0.389111C 6.67975 0.833808 7.29124 1.50085 7.34683 2.557C 7.34683 2.94611 7.34683 3.27964 7.29124 3.66875C 6.9577 6.55928 4.67849 7.44867 2.23251 6.94839C 1.17629 6.72604 0.00889447 5.1696 0.00889447 4.05785C 0.00889447 3.50198 -0.0466977 2.89053 0.120074 2.39024C 0.398026 1.7232 0.62039 0.944984 1.34307 0.555874C 1.89897 0.277939 2.56605 0.22235 3.17755 0.111176C 3.17755 0.166763 3.17755 0.222348 3.17755 0.222348ZM 5.62353 3.16847C 5.62353 2.55701 5.17881 1.55644 4.73408 1.55644C 3.78904 1.66761 2.73283 1.38967 2.01015 2.39024C 1.50984 3.05729 1.50984 4.05786 2.01015 4.72491C 2.39928 5.22519 3.39991 5.50313 4.067 5.28078C 4.90086 5.05843 5.62353 4.05786 5.62353 3.16847Z"/>
<path id="path8_fill" d="M 4.22825 1.63434C 4.22825 0.522594 3.22762 -0.255618 2.17141 0.0779041C 1.67109 0.244665 1.11518 0.411423 0.61487 0.578185C 0.114556 0.800533 -0.218984 2.07903 0.170149 2.46814C 0.614873 2.91284 1.11519 3.35754 1.6155 3.74665C 1.83786 3.91341 2.17141 3.91341 2.39377 3.85782C 3.44999 3.63547 4.17266 2.69049 4.22825 1.63434Z"/>
<path id="path9_fill" d="M 3.51954 7.12961C 3.35277 7.07402 2.6301 6.90726 1.90742 6.68491C 0.517659 6.24022 0.184115 4.96171 0.0173438 3.84997C -0.0938371 3.12734 0.350888 2.23794 0.740021 1.51531C 1.12915 0.792679 1.85183 0.292397 2.68569 0.0144615C 3.13041 -0.0967126 5.35403 0.459155 5.79875 0.792677C 6.13229 1.07061 6.46584 1.45972 6.79938 1.73766C 7.8556 2.62705 7.96678 3.79438 7.52206 5.0173C 7.07733 6.35139 6.07671 6.96284 4.52017 7.01843C 4.40899 7.1296 4.24222 7.12961 3.51954 7.12961ZM 6.13229 3.62762C 6.13229 2.51588 5.13167 1.73766 4.07545 2.07118C 3.57513 2.23794 3.01923 2.4047 2.51891 2.57146C 2.0186 2.79381 1.68506 4.07232 2.07419 4.46143C 2.51892 4.90613 3.01923 5.35082 3.51954 5.73993C 3.74191 5.9067 4.07545 5.90669 4.29781 5.85111C 5.35403 5.62876 6.0767 4.68378 6.13229 3.62762Z"/>
<path id="path10_fill" d="M 2.18129 -1.69638e-06C 2.29247 -1.69638e-06 2.07011 -1.69638e-06 1.90334 -1.69638e-06C 1.01389 -1.69638e-06 0.569169 0.333523 0.291217 1.22292C 0.180036 1.55644 0.0688551 1.94555 0.0132646 2.27907C -0.153507 3.11288 1.29185 4.55814 2.1257 4.33579C 2.23688 4.33579 2.29247 4.28021 2.34806 4.22462C 2.90397 3.72434 3.51546 3.27964 3.9046 2.66818C 4.79404 1.44526 4.01578 0.0555854 2.18129 -1.69638e-06Z"/>
<path id="path11_fill" d="M 3.46212 7.83778C 2.73944 7.78219 2.35031 7.83778 2.01677 7.7266C 1.68323 7.61543 1.2941 7.44867 1.07173 7.17073C 0.404648 6.39251 -0.0956671 5.50312 0.0155138 4.39138C 0.0711042 3.94668 0.0155129 3.4464 0.0711034 3.0017C 0.126694 2.72377 0.182284 2.44583 0.349056 2.22348C 0.84937 1.66761 1.34968 1.05616 1.96118 0.667046C 2.57267 0.277936 3.35094 -1.69638e-06 4.01802 -1.69638e-06C 4.46275 -1.69638e-06 4.96306 0.500282 5.40779 0.833805C 5.85251 1.16733 6.40842 1.38968 6.68637 1.83437C 7.35345 2.89053 7.74258 4.05786 6.85314 5.22519C 6.79755 5.28077 6.79755 5.39195 6.74196 5.50312C 6.01928 7.05956 5.07424 8.22689 3.46212 7.83778ZM 3.62889 2.1679C 3.74007 2.1679 3.51771 2.1679 3.35094 2.1679C 2.46149 2.1679 2.01677 2.50142 1.73882 3.39081C 1.62764 3.72434 1.51646 4.11344 1.46086 4.44697C 1.29409 5.28077 2.73945 6.72604 3.5733 6.50369C 3.68448 6.50369 3.74007 6.4481 3.79566 6.39251C 4.35157 5.89223 4.96306 5.44754 5.3522 4.83608C 6.24164 3.61316 5.46338 2.22348 3.62889 2.1679Z"/>
<path id="path12_fill" d="M 0 13.8086C 0.0555905 14.5868 -4.30748e-07 15.3095 0.166771 16.0321C 0.333542 17.1438 0.389132 18.3112 0.889446 19.2562C 2.00126 21.4241 3.94692 22.7026 6.22613 23.4252C 6.33731 23.4808 6.67085 23.314 6.67085 23.2028C 6.89322 22.3134 7.33794 21.4796 7.39353 20.5347C 7.5603 18.0332 8.1718 15.5874 8.7277 13.1416C 9.72833 8.80578 10.7845 4.46999 12.9526 0.523308C 13.0082 0.412134 12.8414 0.189786 12.7858 0.0786116C 12.7302 0.0230245 12.619 -0.0325617 12.5634 0.0230253C 11.1737 0.523309 9.67274 0.634482 8.33857 1.35711C 6.17054 2.52444 4.0581 3.63619 2.77952 5.85967C 2.61275 6.19319 2.27921 6.41554 2.00126 6.69348C 0.889446 8.02757 0.389133 9.584 0.166771 11.3072C 0.05559 12.141 0.0555905 12.9748 0 13.8086Z"/>
<path id="path13_fill" d="M 0.00298869 2.39024C -0.0526018 3.83551 0.670074 4.89166 1.94865 5.50312C 2.61574 5.83665 3.56078 5.72547 4.0055 5.1696C 5.39526 3.61316 5.45085 2.1679 4.06109 0.444696C 3.89432 0.222348 3.61637 0.111174 3.33842 0.0555873C 2.94928 2.1122e-07 2.61574 1.97485e-15 2.22661 1.97485e-15C 0.836846 0.111174 0.00298869 1.00057 0.00298869 2.39024Z"/>
<path id="path14_fill" d="M 11.2849 11.0334C 11.5072 9.19907 11.0069 7.08676 10.1175 4.97446C 9.56155 3.64036 8.61652 2.58421 7.50471 1.7504C 5.39227 0.193966 2.94629 -0.195144 0.38913 0.0827915C 0.222358 0.0827915 -1.69649e-06 0.4719 -1.69649e-06 0.694249C -1.69649e-06 1.02777 0.166773 1.41688 0.333544 1.7504C 1.89008 4.52976 2.72393 7.53146 3.4466 10.6443C 3.55779 11.089 3.89134 11.5337 3.83574 11.9784C 3.72456 14.2019 4.33605 16.4254 4.44723 18.6489C 4.50282 19.8718 4.78078 21.0391 5.11432 22.2065C 5.16991 22.4844 5.33668 22.4288 5.55904 22.3176C 8.44975 21.3726 9.78392 19.2048 10.6734 16.5366C 11.1737 14.8134 11.2293 13.1458 11.2849 11.0334Z"/>
<path id="path15_fill" d="M 2.09694 0.00377965C 2.3193 0.00377965 2.15253 0.00377965 1.98576 0.00377965C 0.985133 0.0593667 -0.237857 1.33787 0.0400948 2.28285C 0.318047 3.39459 0.651591 4.61751 1.87458 5.22897C 2.20812 5.39573 2.48608 5.61808 2.87521 5.28455C 3.20875 5.00662 3.59788 4.72868 3.87583 4.39516C 4.54292 3.61694 4.48733 2.67196 4.48733 1.78257C 4.32056 0.504064 3.76465 -0.0518074 2.09694 0.00377965Z"/>
<path id="path16_fill" fill-rule="evenodd" d="M 114.238 63.3858C 114.151 63.5121 114.104 63.6689 114.104 63.8721C 114.104 65.2896 114.118 66.6931 114.132 68.0967C 114.146 69.5003 114.16 70.9038 114.16 72.3213L 114.16 85.829C 114.16 88.2818 114.146 90.7346 114.132 93.1804C 114.118 95.6123 114.104 98.0373 114.104 100.448C 114.104 100.709 114.098 100.969 114.092 101.23C 114.067 102.359 114.042 103.488 114.493 104.617C 114.298 104.878 114.389 105.158 114.475 105.423C 114.536 105.611 114.595 105.791 114.549 105.952C 114.36 106.519 114.314 107.104 114.269 107.677C 114.235 108.114 114.2 108.544 114.104 108.953C 114.049 109.287 113.493 109.676 113.104 109.787C 112.746 109.906 112.331 109.883 111.92 109.861C 111.757 109.852 111.594 109.843 111.436 109.843C 109.276 109.87 107.115 109.884 104.962 109.898C 102.793 109.912 100.631 109.926 98.4836 109.954L 97.3718 109.954C 97.0016 109.991 96.632 110.2 96.4094 110.5L 93.2673 110.5C 93.2258 110.498 93.1838 110.495 93.1418 110.492C 92.8801 110.475 92.6086 110.457 92.3708 110.5L 83.8044 110.5L 83.0134 111.133C 82.7214 111.153 82.4255 111.137 82.1276 111.121C 81.4435 111.084 80.7507 111.047 80.0832 111.455C 79.8605 111.566 79.4714 111.566 79.2492 111.455C 78.3478 110.94 77.4128 110.988 76.4709 111.037C 76.1931 111.051 75.9142 111.066 75.6359 111.066L 56.735 111.066C 56.0124 111.066 55.2341 111.121 54.5114 111.232C 54.1345 111.316 53.8679 111.408 53.6852 111.546L 51.2985 111.723C 51.1799 111.64 51.0251 111.589 50.8425 111.566C 50.1755 111.621 49.5637 111.621 48.8967 111.621L 48.8967 111.677C 48.7648 111.677 48.633 111.683 48.5031 111.69C 48.2502 111.702 48.0056 111.714 47.7849 111.677C 47.0807 111.566 46.4265 111.751 45.7717 111.936C 45.444 112.029 45.1169 112.122 44.7829 112.177C 44.7477 112.184 44.7092 112.197 44.6696 112.214L 41.8786 112.42C 41.7263 112.228 41.4836 112.122 41.1696 112.122C 40.9684 112.122 40.7624 112.106 40.5573 112.091C 40.0822 112.056 39.6125 112.022 39.2238 112.177C 38.3259 112.519 37.3947 112.533 36.4557 112.546C 36.1745 112.55 35.8923 112.554 35.6105 112.566C 35.4538 112.566 35.2951 112.565 35.1359 112.563C 34.3381 112.556 33.5261 112.548 32.8312 112.733C 32.4567 112.85 32.0822 112.81 31.7077 112.769C 31.1926 112.713 30.6774 112.657 30.1628 113.011C 29.9518 113.152 29.6516 113.137 29.3332 113.121C 29.1481 113.111 28.9567 113.102 28.7731 113.122C 28.3005 113.15 27.8278 113.164 27.3552 113.178C 26.883 113.192 26.4103 113.206 25.9377 113.233C 25.5729 113.233 25.2297 113.35 24.8845 113.468C 24.4401 113.619 23.9924 113.772 23.4919 113.678C 23.2233 113.645 22.9343 113.672 22.6501 113.699C 22.4631 113.716 22.2785 113.734 22.1022 113.734C 21.7131 113.734 21.3239 113.567 21.2683 113.122C 21.1999 112.6 21.0671 112.088 20.9338 111.573C 20.7404 110.827 20.5456 110.076 20.5456 109.287C 20.5456 109.152 20.548 109.014 20.551 108.874C 20.5651 108.096 20.5808 107.262 20.1564 106.507C 19.9885 106.213 20.0109 105.824 20.0319 105.459C 20.0383 105.341 20.0451 105.226 20.0451 105.118L 20.0451 86.2181C 20.0451 85.8218 20.1042 85.4451 20.1638 85.0648C 20.2043 84.8049 20.2453 84.5433 20.2678 84.2725C 20.2878 84.0502 20.2492 83.8278 20.2106 83.6054C 20.1433 83.2164 20.0759 82.8273 20.3234 82.4382C 20.5456 82.1046 20.4899 81.4932 20.4343 81.0485C 19.8786 78.4359 19.9343 75.8789 20.4343 73.2663C 20.6266 72.1903 20.5798 71.0878 20.5324 69.9771C 20.5109 69.4811 20.4899 68.9834 20.4899 68.4858C 20.4899 68.3567 20.3903 68.1943 20.2936 68.1018L 20.3044 68L 20.5197 65.4858C 20.5705 65.3883 20.6013 65.2934 20.6013 65.2062C 20.6013 64.5117 20.7438 63.8411 20.8864 63.1722C 21.0519 62.3955 21.217 61.6212 21.1569 60.8148C 21.1013 59.5919 21.0461 58.369 21.3796 57.2016C 21.4929 56.6351 21.5549 56.0943 21.6179 55.5443C 21.6476 55.2847 21.6774 55.0231 21.7131 54.7558C 21.7946 54.2127 21.7297 53.8685 21.5324 53.6716L 21.7316 51.3509C 21.8659 51.2922 21.9904 51.2239 22.1022 51.1427C 22.5388 50.779 22.5231 50.2249 22.5065 49.6517C 22.4982 49.3489 22.4894 49.0407 22.5471 48.7524C 22.6096 48.3623 22.6848 47.9765 22.76 47.5926C 22.9528 46.6093 23.1428 45.6385 23.1027 44.639C 23.1027 44.0275 23.0471 43.5828 22.3244 43.3605C 21.8986 43.2294 21.5114 43.0212 21.1286 42.8154C 20.862 42.6719 20.5974 42.5296 20.3234 42.4155C 18.7897 41.6998 17.7731 40.4201 16.7551 39.1382L 16.4875 38.8023C 16.2385 38.5035 16.0788 38.0709 15.9284 37.6644L 15.8762 37.5238C 15.0978 34.5777 14.9865 31.6316 15.2643 28.6299C 15.2643 28.4775 15.3478 28.3418 15.4328 28.2044C 15.5026 28.0913 15.5729 27.9772 15.5978 27.8516C 15.7648 27.1846 15.6535 26.8511 15.0422 26.462C 14.403 26.0729 13.7775 25.6699 13.152 25.2669C 12.5266 24.8639 11.9011 24.4608 11.2619 24.0717C 10.6506 23.6826 9.92792 23.3491 9.26093 23.1823C 8.42694 22.96 7.64862 23.0156 6.92597 23.6826C 5.03583 25.2946 4.14618 25.4614 1.75604 23.5159C 0.310731 22.2929 -0.523253 20.7921 0.366395 18.791C 0.422059 18.7354 0.422059 18.6242 0.422059 18.513C 0.366395 17.568 0.81122 17.0122 1.58905 16.4563L 1.74091 16.3541C 2.32831 15.9562 2.76972 15.657 3.59052 16.0672C 3.97968 16.2618 4.45087 16.2656 4.92743 16.2695C 5.13104 16.2712 5.33612 16.2729 5.53632 16.2895C 6.75897 16.3451 7.42645 17.0122 7.81561 18.0683C 7.8703 18.2326 7.92499 18.4105 7.97968 18.5885C 8.03632 18.7718 8.09247 18.9553 8.14911 19.1245L 8.17304 19.1985C 8.76093 21.016 8.78095 21.0789 10.3171 21.7371C 12.3181 22.5709 14.0969 23.6826 15.7648 25.0167C 16.2097 25.3502 16.5432 25.2946 16.8766 24.7944C 17.134 24.4511 17.3835 24.0995 17.634 23.746C 18.0324 23.1837 18.4343 22.6167 18.8781 22.0706C 19.4338 21.4036 20.0451 20.7921 20.7126 20.3474C 20.965 20.1906 21.2155 20.0321 21.4655 19.8738C 23.2551 18.7422 25.0217 17.6247 27.2165 17.2345C 27.5632 17.1652 27.9099 17.0574 28.2643 16.9472C 28.7629 16.7923 29.277 16.6324 29.8293 16.5675C 30.7741 16.5119 31.4411 15.9004 31.9973 15.0666C 32.6804 13.9634 33.5124 12.9099 34.3054 11.906L 34.4431 11.7314C 36.111 9.61909 38.3347 8.285 40.614 7.00649C 42.5036 5.95034 44.3937 5.00537 46.5065 4.44949C 47.0065 4.31057 47.4787 4.11611 47.9514 3.92163C 48.424 3.727 48.8967 3.53236 49.3972 3.39334C 50.0905 3.17997 50.7839 3.005 51.4714 2.83157C 52.2165 2.64355 52.9548 2.45735 53.6774 2.22601C 54.3078 2.03427 54.9377 1.9235 55.5612 1.81391C 56.2028 1.70112 56.8371 1.58956 57.4577 1.39221C 58.736 1.05868 60.0705 1.05868 61.3488 1.05868C 61.4357 1.05868 61.5266 1.0608 61.6198 1.06297C 62.0046 1.07191 62.426 1.08171 62.739 0.947505C 63.3903 0.621836 64.0417 0.602381 64.7082 0.582484C 65.0656 0.571818 65.4274 0.561015 65.7961 0.502803C 66.2497 0.440974 66.7033 0.455561 67.154 0.470072C 67.9186 0.494685 68.675 0.519038 69.4094 0.169291C 70.1203 -0.153829 70.7936 0.0489604 71.4733 0.253596C 71.9626 0.400996 72.4553 0.549357 72.9675 0.502803C 73.2277 0.486537 73.4831 0.446498 73.739 0.406336C 74.3586 0.309169 74.9831 0.211253 75.6911 0.447215C 76.1428 0.606639 76.6203 0.639064 77.1047 0.671961C 77.6335 0.707881 78.1706 0.744395 78.6931 0.947505C 79.0612 1.09469 79.4724 1.1228 79.8889 1.15126C 80.4157 1.18728 80.9514 1.22386 81.4172 1.50338C 83.4182 1.55897 85.2531 2.2816 87.0319 3.17098C 90.4841 3.8408 93.5544 5.51353 96.5969 7.17105L 97.3161 7.56237C 101.152 9.61909 104.543 12.2317 106.711 16.1228C 107.1 16.7898 107.656 17.0122 108.379 16.8454C 108.56 16.8124 108.751 16.7599 108.945 16.7066C 109.404 16.5804 109.878 16.4502 110.269 16.5675C 110.923 16.7704 111.594 16.891 112.263 17.0109C 113.242 17.1866 114.213 17.3608 115.105 17.7904C 116.495 18.4574 117.717 19.2357 118.718 20.403C 118.779 20.483 118.841 20.5613 118.902 20.6394C 119.183 20.995 119.461 21.3469 119.552 21.8482C 119.663 22.4597 119.997 23.0712 120.33 23.627C 120.497 23.905 120.775 24.1829 121.276 23.9606C 122.099 23.5643 122.938 23.2015 123.786 22.8355C 124.484 22.5339 125.187 22.2302 125.889 21.9038C 126.445 21.6259 126.557 21.348 126.445 20.403L 126.427 20.2736C 126.378 19.9381 126.334 19.6366 126.334 19.2912C 126.334 17.6792 127.168 16.4007 128.669 15.7893C 129.169 15.5669 129.725 15.4001 130.226 15.289C 130.504 15.2334 130.837 15.2334 131.059 15.3446C 131.893 15.7337 132.727 16.1784 133.283 17.0122C 133.45 17.2345 133.616 17.5125 133.616 17.7348C 133.672 19.2357 133.672 20.7365 132.894 22.0706C 132.282 23.1267 131.448 23.7382 130.17 23.6826C 130.098 23.6826 130.022 23.6841 129.945 23.6856C 129.549 23.6934 129.106 23.702 128.78 23.5159C 127.302 22.6848 126.055 23.2343 124.783 23.7947C 124.524 23.909 124.263 24.0237 123.999 24.1273C 123.612 24.2683 123.268 24.5211 122.927 24.7723C 122.731 24.9172 122.535 25.0615 122.332 25.1835C 121.442 25.7393 121.109 26.462 121.164 27.5181C 121.276 28.7411 121.276 29.964 121.164 31.1869C 121.074 32.6222 120.659 33.985 120.239 35.3632C 120.138 35.693 120.038 36.0237 119.941 36.3565C 119.33 38.2464 118.385 39.9141 116.439 40.8034C 116.089 40.9589 115.794 41.2503 115.514 41.5255C 115.394 41.6439 115.278 41.7593 115.16 41.8596C 114.771 42.1931 114.327 42.3043 113.882 42.082C 113.659 41.9708 113.493 41.9708 113.437 42.1931C 113.382 43.5828 113.382 45.0281 113.382 46.4178C 113.843 47.1486 113.825 47.906 113.808 48.6716C 113.801 48.9439 113.796 49.2173 113.811 49.4908L 113.804 49.5L 113.92 53.209C 113.82 53.3048 113.742 53.4254 113.715 53.5329C 113.652 53.7872 113.661 54.0596 113.67 54.3294C 113.676 54.5315 113.683 54.7321 113.659 54.9226C 113.638 55.1962 113.753 55.454 113.867 55.7108C 113.919 55.8271 113.97 55.9431 114.009 56.0604L 114.029 56.6969C 113.991 56.8065 113.926 56.9188 113.826 57.0349C 113.932 57.6176 114.038 58.2003 114.096 58.8312C 114.099 58.8623 114.102 58.8935 114.104 58.9248C 114.131 59.2694 114.132 59.6265 114.132 59.9843C 114.132 60.0017 114.132 60.0191 114.132 60.0366C 114.132 60.4118 114.132 60.787 114.16 61.1483C 114.16 61.2122 114.164 61.278 114.174 61.3413L 114.238 63.3858ZM 21.7131 94.5561C 21.7131 92.4994 21.7131 90.4427 21.7687 88.386C 21.7687 82.5493 21.7687 76.7127 21.6574 70.7649C 21.6711 70.5014 21.6677 70.231 21.6642 69.9571C 21.654 69.1332 21.6433 68.2779 22.1022 67.4853C 22.259 67.2107 22.2224 66.8532 22.1872 66.5103C 22.1725 66.3671 22.1579 66.2265 22.1579 66.0956C 22.2131 64.0389 22.3801 62.0377 22.5471 60.0366C 22.6447 58.8663 22.7849 57.696 22.9255 56.521C 23.1057 55.0171 23.2873 53.5056 23.3806 51.9765C 23.4362 50.6424 23.4919 49.3639 23.7697 48.0854C 24.1032 46.6401 24.4367 45.1948 24.548 43.694C 24.6164 42.8427 24.7468 42.0123 24.8762 41.19C 24.9582 40.6699 25.0392 40.153 25.1042 39.6361C 25.2272 38.6501 25.4416 37.7249 25.6574 36.793C 25.7336 36.464 25.8098 36.1342 25.8825 35.8006C 25.8825 35.7172 25.924 35.6338 25.9655 35.5505C 26.0075 35.4671 26.049 35.3837 26.049 35.3003C 26.0842 33.3621 26.6559 31.5578 27.2253 29.7602C 27.5539 28.7224 27.882 27.6867 28.1057 26.6287C 28.2668 25.9381 28.5329 25.2951 28.7971 24.6564C 29.1711 23.7528 29.5417 22.8578 29.6066 21.8482C 29.6066 21.6815 29.6623 21.5147 29.7736 21.348C 30.2302 20.6207 30.6716 19.8825 31.114 19.1436C 32.3952 17.0022 33.6794 14.8554 35.3327 12.9543C 37.0002 11.0644 39.0016 9.45233 41.2809 8.34059C 44.7272 6.67297 48.341 5.56123 52.0099 4.44949C 52.3332 4.35008 52.655 4.24696 52.9763 4.14399C 54.8112 3.55613 56.6301 2.97349 58.5695 3.1154C 59.634 2.706 60.7385 2.67182 61.8376 2.63783C 62.9767 2.6026 64.1096 2.56755 65.1848 2.11483C 66.9636 2.05924 68.7424 2.00366 70.5212 2.00366C 72.0222 2.00366 73.5231 2.05924 75.0241 2.11483C 75.0925 2.11483 75.1647 2.11145 75.2375 2.10801C 75.4601 2.09754 75.6906 2.0867 75.8581 2.17042C 76.5412 2.54057 77.2975 2.58985 78.0598 2.63952C 78.7853 2.68681 79.5163 2.73445 80.194 3.05981C 80.9465 3.43592 81.7692 3.56463 82.6032 3.69502C 83.2482 3.79589 83.8996 3.89778 84.53 4.11596L 85.2805 4.38169C 88.4758 5.51161 91.6535 6.63537 94.592 8.285C 94.8766 8.43836 95.1877 8.55719 95.4973 8.67552C 95.9728 8.85739 96.445 9.03805 96.8156 9.34115C 97.5246 9.92866 98.2707 10.4645 99.0163 10.9998C 100.316 11.9332 101.613 12.8649 102.708 14.0661C 103.654 15.1222 104.543 16.234 105.21 17.4569C 106.137 19.1257 106.916 20.8935 107.695 22.6613C 108.083 23.5432 108.472 24.4251 108.879 25.2946C 109.026 26.1987 109.284 27.079 109.543 27.9594C 109.968 29.4067 110.393 30.8545 110.324 32.4098C 110.285 33.1877 110.437 33.9656 110.589 34.7436C 110.654 35.0774 110.719 35.4112 110.769 35.745C 110.802 36.0787 110.805 36.4174 110.809 36.7566C 110.817 37.5475 110.825 38.3411 111.214 39.0803C 111.28 39.214 111.287 39.3879 111.294 39.5658C 111.298 39.6837 111.303 39.8033 111.325 39.9141C 111.444 40.4142 111.441 40.9347 111.437 41.4581C 111.433 42.1564 111.428 42.86 111.714 43.5272C 111.758 43.6143 111.699 43.7695 111.645 43.9128C 111.63 43.9525 111.615 43.9913 111.603 44.0275C 111.59 44.0918 111.574 44.1591 111.558 44.2273C 111.505 44.4538 111.449 44.6904 111.491 44.8613C 112.214 47.1404 112.103 49.475 111.992 51.8097C 111.969 52.3671 112.054 52.9156 112.139 53.4624C 112.266 54.2786 112.392 55.0909 112.159 55.9231C 112.625 58.3373 112.574 60.7514 112.524 63.1655C 112.508 63.9199 112.492 64.6742 112.492 65.4285C 112.492 66.1789 112.506 66.9294 112.52 67.6798C 112.534 68.4302 112.548 69.1807 112.548 69.9311L 112.548 107.119C 112.548 108.175 112.103 108.675 110.991 108.675C 108.706 108.703 106.406 108.717 104.1 108.731C 101.806 108.745 99.5056 108.759 97.2048 108.786C 97.0275 108.786 96.8517 108.783 96.6774 108.78C 95.8127 108.765 94.9802 108.75 94.1472 109.12C 93.7712 109.287 93.3327 109.266 92.9016 109.245C 92.7595 109.238 92.6179 109.231 92.4797 109.231C 91.59 109.259 90.7009 109.273 89.8112 109.287C 88.9221 109.301 88.0324 109.315 87.1428 109.342C 86.8644 109.356 86.5866 109.353 86.3093 109.349C 85.4782 109.339 84.655 109.329 83.863 109.787C 83.049 109.724 82.235 109.756 81.424 109.787C 80.0749 109.839 78.7341 109.891 77.4147 109.509C 76.1916 109.12 74.9684 109.176 73.8015 109.509C 73.0231 109.731 72.3005 109.787 71.5778 109.787C 71.0383 109.787 70.5051 109.793 69.9738 109.799C 68.9177 109.812 67.8693 109.824 66.7971 109.787C 66.5886 109.773 66.3801 109.77 66.1716 109.766C 65.5461 109.756 64.9206 109.745 64.2951 109.453C 63.8073 109.226 63.3195 109.341 62.843 109.453C 62.5046 109.533 62.1721 109.611 61.8493 109.565C 61.3469 109.502 60.8976 109.599 60.4514 109.695C 60.1076 109.769 59.7663 109.843 59.4035 109.843C 56.4016 109.787 53.3996 109.843 50.3976 109.898C 50.1891 109.912 49.9807 109.916 49.7722 109.919C 49.1467 109.929 48.5217 109.94 47.8962 110.232C 47.5627 110.38 47.1794 110.38 46.7966 110.38C 46.6052 110.38 46.4138 110.38 46.2282 110.398C 45.7682 110.43 45.3127 110.435 44.8605 110.439C 43.7277 110.451 42.6154 110.462 41.5031 110.899C 41.1452 111.018 40.7307 110.995 40.3195 110.972C 40.1564 110.963 39.9938 110.954 39.8356 110.954C 38.1677 110.954 36.4445 110.954 34.7766 111.066C 34.1862 111.091 33.6076 111.2 33.0246 111.309C 32.3449 111.437 31.6589 111.566 30.9411 111.566C 30.7097 111.566 30.4743 111.557 30.236 111.548C 29.2736 111.513 28.2746 111.476 27.383 112.01C 25.8825 112.066 24.3815 112.066 22.8806 112.066C 22.4357 112.122 22.2687 111.733 22.2687 111.343C 22.3522 110.398 22.1716 109.481 21.9909 108.564C 21.8102 107.647 21.6296 106.73 21.7131 105.785C 21.8185 104.62 21.7678 103.433 21.7165 102.238C 21.6872 101.551 21.6574 100.861 21.6574 100.17C 21.6574 99.2601 21.6711 98.3361 21.6848 97.4052C 21.6989 96.4602 21.7131 95.5082 21.7131 94.5561ZM 16.5739 33.222C 16.5676 32.9746 16.5617 32.723 16.5432 32.4654C 16.5617 32.1866 16.5739 31.9079 16.5866 31.6291C 16.611 31.0741 16.6359 30.519 16.7097 29.964C 16.9323 28.2408 17.4323 26.6843 18.5441 25.3502C 18.6242 25.2704 18.7087 25.1952 18.7922 25.1206C 19.0002 24.9354 19.2038 24.7542 19.3225 24.5164C 20.5808 22.3289 22.6457 21.2174 24.7766 20.0704L 24.8815 20.0139C 25.696 19.5728 26.5725 19.3595 27.4479 19.1465C 28.007 19.0106 28.5651 18.8747 29.1066 18.6798C 29.1623 18.6242 29.2731 18.6798 29.3288 18.7354C 29.3415 18.7604 29.3596 18.791 29.3796 18.8247C 29.4484 18.9409 29.5388 19.0939 29.4958 19.1801C 27.3278 23.1267 26.2712 27.4625 25.2707 31.7983C 25.2101 32.0654 25.1486 32.3325 25.0871 32.5996C 24.5866 34.779 24.0851 36.9631 23.9367 39.1914C 23.9011 39.795 23.7067 40.3532 23.5134 40.9096C 23.4035 41.2242 23.2941 41.5383 23.2141 41.8596C 23.2141 41.9708 22.8806 42.1375 22.7692 42.082C 20.4899 41.3593 18.5441 40.0808 17.4323 37.9129C 17.0324 37.1572 16.9167 36.2594 16.801 35.3615C 16.7722 35.1365 16.7433 34.9116 16.7097 34.6889C 16.5983 34.2055 16.5861 33.7221 16.5739 33.222ZM 118.218 23.5715C 119.108 25.6838 119.608 27.7961 119.385 29.6304C 119.33 31.7427 119.274 33.4104 118.774 35.1336C 117.884 37.8018 116.55 39.9696 113.659 40.9146C 113.437 41.0258 113.271 41.0814 113.215 40.8034C 112.882 39.6361 112.603 38.4688 112.548 37.2459C 112.502 36.3359 112.373 35.4259 112.244 34.516C 112.057 33.2024 111.87 31.8889 111.936 30.5754C 111.972 30.2923 111.849 30.0093 111.727 29.7262C 111.657 29.5646 111.588 29.4029 111.547 29.2413C 110.824 26.1285 109.99 23.1267 108.434 20.3474C 108.267 20.0139 108.101 19.6248 108.101 19.2912C 108.101 19.0689 108.323 18.6798 108.489 18.6798C 111.047 18.4018 113.493 18.791 115.605 20.3474C 116.717 21.1812 117.662 22.2374 118.218 23.5715ZM 3.31268 23.5159C 2.03388 22.9044 1.31122 21.8482 1.36688 20.403C 1.36688 19.0133 2.20087 18.1239 3.59052 18.0127C 3.97968 18.0127 4.31317 18.0127 4.70233 18.0683C 4.98017 18.1239 5.258 18.2351 5.42499 18.4574C 6.81464 20.1806 6.75897 21.6259 5.36933 23.1823C 4.9245 23.7382 3.97968 23.8494 3.31268 23.5159ZM 129.392 17.4569L 129.503 17.4569C 131.171 17.4013 131.726 17.9571 131.893 19.2357L 131.894 19.4266C 131.898 20.259 131.902 21.1255 131.282 21.8482C 131.069 22.104 130.79 22.327 130.522 22.5424C 130.44 22.608 130.359 22.6728 130.281 22.7376C 129.939 23.0306 129.683 22.8947 129.4 22.7443C 129.361 22.7234 129.321 22.7023 129.28 22.6821C 128.057 22.0706 127.724 20.8477 127.446 19.7359C 127.168 18.791 128.391 17.5125 129.392 17.4569Z"/>
</defs>
</svg>
