<svg width="60" height="360" viewBox="0 0 60 360" version="1.1" xmlns="http://www.w3.org/2000/svg" xmlns:xlink="http://www.w3.org/1999/xlink">
<title>creditcards</title>
<desc>Created using Figma</desc>
<g id="Canvas" transform="translate(487 373)">
<clipPath id="clip-0" clip-rule="evenodd">
<path d="M -487 -373L -427 -373L -427 -13L -487 -13L -487 -373Z" fill="#FFFFFF"/>
</clipPath>
<g id="creditcards" clip-path="url(#clip-0)">
<g id="credit_cards">
<g id="Group">
<g id="Group">
<g id="Group">
<g id="Group">
<g id="Vector">
<use xlink:href="#path0_fill" transform="translate(-487 -253)" fill="#5EC1EC"/>
</g>
<g id="Vector">
<use xlink:href="#path1_fill" transform="translate(-485.531 -251.531)" fill="#5BBBE6"/>
</g>
<g id="Group">
<g id="Vector">
<use xlink:href="#path2_fill" transform="translate(-476.142 -237.396)" fill="#FFFFFF"/>
</g>
<g id="Vector">
<use xlink:href="#path3_fill" transform="translate(-465.699 -237.36)" fill="#FFFFFF"/>
</g>
<g id="Vector">
<use xlink:href="#path4_fill" transform="translate(-453.391 -237.359)" fill="#FFFFFF"/>
</g>
<g id="Vector">
<use xlink:href="#path5_fill" transform="translate(-447.234 -237.359)" fill="#FFFFFF"/>
</g>
</g>
<g id="Group">
<g id="Vector">
<use xlink:href="#path2_fill" transform="translate(-476.142 -237.396)" fill="#FFFFFF"/>
</g>
<g id="Vector">
<use xlink:href="#path3_fill" transform="translate(-465.699 -237.36)" fill="#FFFFFF"/>
</g>
<g id="Vector">
<use xlink:href="#path4_fill" transform="translate(-453.391 -237.359)" fill="#FFFFFF"/>
</g>
<g id="Vector">
<use xlink:href="#path5_fill" transform="translate(-447.234 -237.359)" fill="#FFFFFF"/>
</g>
</g>
</g>
<g id="Group">
<g id="Vector">
<use xlink:href="#path6_fill" transform="translate(-487 -253)" fill="#9BCEE0"/>
</g>
</g>
</g>
<g id="Group">
<g id="Vector">
<use xlink:href="#path0_fill" transform="translate(-487 -213)" fill="#F3F4F4"/>
</g>
<g id="Group">
<g id="Group">
<g id="Vector">
<use xlink:href="#path7_fill" transform="translate(-478 -203)" fill="#5565AF"/>
</g>
<g id="Vector">
<use xlink:href="#path7_fill" transform="translate(-464 -203)" fill="#EA564B"/>
</g>
<g id="Vector">
<use xlink:href="#path7_fill" transform="translate(-450 -203)" fill="#99CD76"/>
</g>
</g>
<g id="Vector" opacity="0.08">
<use xlink:href="#path1_fill" transform="translate(-485.531 -211.531)" fill="#FFFFFF"/>
</g>
<g id="Group">
<g id="Vector">
<use xlink:href="#path6_fill" transform="translate(-487 -213)" fill="#F8F8F9"/>
</g>
</g>
</g>
</g>
<g id="Diners">
<g id="Vector">
<use xlink:href="#path0_fill" transform="translate(-487 -133)" fill="#F3F4F4"/>
</g>
<g id="Group">
<g id="Group">
<g id="Vector">
<use xlink:href="#path8_fill" transform="translate(-470.166 -123)" fill="#009FDA"/>
</g>
<g id="Vector">
<use xlink:href="#path9_fill" transform="translate(-461 -123)" fill="#009FDA"/>
</g>
<g id="Vector">
<use xlink:href="#path10_fill" transform="translate(-461 -123)" fill="#009FDA"/>
</g>
<g id="Vector">
<use xlink:href="#path11_fill" transform="translate(-469.604 -122.438)" fill="#F3F4F4"/>
</g>
<g id="Group">
<g id="Vector">
<use xlink:href="#path12_fill" transform="translate(-459 -119)" fill="#009FDA"/>
</g>
</g>
<g id="Group">
<g id="Vector">
<use xlink:href="#path13_fill" transform="translate(-467 -119)" fill="#009FDA"/>
</g>
</g>
</g>
<g id="Vector" opacity="0.08">
<use xlink:href="#path1_fill" transform="translate(-485.531 -131.531)" fill="#FFFFFF"/>
</g>
<g id="Group">
<g id="Vector">
<use xlink:href="#path6_fill" transform="translate(-487 -133)" fill="#F8F8F9"/>
</g>
</g>
</g>
</g>
<g id="Discover">
<g id="Vector">
<use xlink:href="#path0_fill" transform="translate(-487 -173)" fill="#FFF9F0"/>
</g>
<g id="Group">
<g id="Vector">
<use xlink:href="#path14_fill" transform="translate(-476.915 -156.041)" fill="#414042"/>
</g>
<g id="Vector">
<use xlink:href="#path15_fill" transform="translate(-470.774 -156.041)" fill="#414042"/>
</g>
<g id="Vector">
<use xlink:href="#path16_fill" transform="translate(-468.327 -156.126)" fill="#414042"/>
</g>
<g id="Vector">
<use xlink:href="#path17_fill" transform="translate(-463.527 -156.13)" fill="#414042"/>
</g>
<g id="Vector">
<use xlink:href="#path18_fill" transform="translate(-453.026 -156.041)" fill="#414042"/>
</g>
<g id="Vector">
<use xlink:href="#path19_fill" transform="translate(-446.723 -156.041)" fill="#414042"/>
</g>
<g id="Vector">
<use xlink:href="#path20_fill" transform="translate(-441.948 -156.041)" fill="#414042"/>
</g>
<g id="Vector">
<use xlink:href="#path21_fill" transform="translate(-458.977 -156.041)" fill="#E6A124"/>
</g>
</g>
<g id="Vector">
<use xlink:href="#path22_fill" transform="translate(-476.914 -145.5)" fill="#E6A124"/>
</g>
<g id="Vector" opacity="0.08">
<use xlink:href="#path1_fill" transform="translate(-485.531 -171.531)" fill="#FFFFFF"/>
</g>
<g id="Group">
<g id="Vector">
<use xlink:href="#path6_fill" transform="translate(-487 -173)" fill="#F7F5F2"/>
</g>
</g>
</g>
</g>
<g id="CCV">
<g id="Group">
<g id="Vector">
<use xlink:href="#path23_fill" transform="translate(-487 -93)" fill="#CDCDCD"/>
</g>
</g>
<g id="Vector">
<use xlink:href="#path24_fill" transform="translate(-485 -87)" fill="#424143"/>
</g>
<g id="Vector">
<use xlink:href="#path25_fill" transform="translate(-479.25 -74.709)" fill="#FFFFFF"/>
</g>
<g id="Vector">
<use xlink:href="#path26_fill" transform="translate(-476.25 -71.709)" fill="#424143"/>
</g>
<g id="Group">
<g id="Group">
<g id="Vector">
<use xlink:href="#path27_fill" transform="translate(-487 -93)" fill="#DFDEDD"/>
</g>
</g>
</g>
<g id="Vector">
<use xlink:href="#path28_fill" transform="translate(-440.25 -74.709)" fill="#FFFFFF"/>
</g>
<g id="Vector">
<use xlink:href="#path29_fill" transform="translate(-439.25 -71.709)" fill="#424143"/>
</g>
<g id="Vector">
<use xlink:href="#path30_stroke" transform="translate(-444.5 -78.563)" fill="#E9564B"/>
</g>
</g>
</g>
</g>
<g id="visa">
<g id="Vector">
<use xlink:href="#path0_fill" transform="translate(-487 -333)" fill="#F3F4F4"/>
</g>
<g id="Vector">
<use xlink:href="#path31_fill" transform="translate(-486 -333)" fill="#5565AF"/>
</g>
<g id="Vector">
<use xlink:href="#path32_fill" transform="translate(-486 -303)" fill="#E6A124"/>
</g>
<g id="Group">
<g id="Vector">
<use xlink:href="#path33_fill" transform="translate(-472.355 -318.707)" fill="#5565AF"/>
</g>
<g id="Vector">
<use xlink:href="#path34_fill" transform="translate(-463.941 -318.707)" fill="#5565AF"/>
</g>
<g id="Vector">
<use xlink:href="#path35_fill" transform="translate(-458.886 -318.872)" fill="#5565AF"/>
</g>
<g id="Vector">
<use xlink:href="#path36_fill" transform="translate(-451.691 -318.754)" fill="#5565AF"/>
</g>
</g>
<g id="Vector" opacity="0.04">
<use xlink:href="#path1_fill" transform="translate(-485.531 -331.531)" fill="#FFFFFF"/>
</g>
<g id="Group">
<g id="Vector">
<use xlink:href="#path6_fill" transform="translate(-487 -333)" fill="#F8F8F9"/>
</g>
</g>
</g>
<g id="MC">
<g id="Vector">
<use xlink:href="#path0_fill" transform="translate(-487 -293)" fill="#5565AF"/>
</g>
<g id="Vector" opacity="0.04">
<use xlink:href="#path1_fill" transform="translate(-485.531 -291.531)" fill="#FFFFFF"/>
</g>
<g id="Group">
<g id="Vector">
<use xlink:href="#path37_fill" transform="translate(-474.5 -283)" fill="#EA564B"/>
</g>
<g id="Vector">
<use xlink:href="#path38_fill" transform="translate(-459.5 -279.6)" fill="#EA564B"/>
</g>
</g>
<g id="Vector">
<use xlink:href="#path39_fill" transform="translate(-459.449 -283)" fill="#E9D419"/>
</g>
<g id="Group">
<g id="Vector">
<use xlink:href="#path6_fill" transform="translate(-487 -293)" fill="#7684B7"/>
</g>
</g>
</g>
<g id="Vector">
<use xlink:href="#path23_fill" transform="translate(-487 -373)" fill="#F2F2F2"/>
</g>
<g id="Rectangle">
<use xlink:href="#path40_fill" transform="translate(-470 -353)" fill="#E0E0E0"/>
</g>
<g id="Rectangle">
<use xlink:href="#path41_fill" transform="translate(-451 -344)" fill="#E0E0E0"/>
</g>
<g id="Rectangle">
<use xlink:href="#path41_fill" transform="translate(-442 -344)" fill="#E0E0E0"/>
</g>
</g>
</g>
<defs>
<path id="path0_fill" d="M 60 35C 60 37.75 57.75 40 55 40L 5 40C 2.25 40 0 37.75 0 35L 0 5C 0 2.25 2.25 0 5 0L 55 0C 57.75 0 60 2.25 60 5L 60 35Z"/>
<path id="path1_fill" d="M 57.062 -5.85938e-06C 57.968 0.905994 58.531 2.156 58.531 3.531L 58.531 18.531L 58.531 33.531C 58.531 34.906 57.969 36.156 57.062 37.062C 56.155 37.968 54.906 38.531 53.531 38.531L 28.531 38.531L 3.531 38.531C 2.156 38.531 0.905994 37.969 -5.85938e-06 37.062L 57.062 -5.85938e-06Z"/>
<path id="path2_fill" d="M 6.69699 9.318L 6.23999 7.57801L 3.22501 7.57801L 2.75501 9.318L 1.70898e-06 9.318L 3.02799 3.90625e-06L 6.37299 3.90625e-06L 9.43799 9.318L 6.69699 9.318ZM 5.72 5.521L 5.32001 3.99799C 5.22601 3.65999 5.11401 3.223 4.98001 2.685C 4.84701 2.147 4.75901 1.762 4.71601 1.53C 4.67901 1.746 4.603 2.10101 4.491 2.59601C 4.379 3.09101 4.13 4.06701 3.745 5.52201L 5.72 5.521Z"/>
<path id="path3_fill" d="M 4.04299 9.282L 2.14501 2.597L 2.08801 2.597C 2.17701 3.735 2.221 4.61899 2.221 5.25099L 2.221 9.28099L -5.12695e-06 9.28099L -5.12695e-06 1.46484e-05L 3.33801 1.46484e-05L 5.27499 6.59001L 5.32601 6.59001L 7.22299 1.46484e-05L 10.569 1.46484e-05L 10.569 9.28099L 8.264 9.28099L 8.264 5.21199C 8.264 5.00099 8.26801 4.76701 8.27401 4.50801C 8.28001 4.24901 8.30901 3.617 8.36001 2.61L 8.303 2.61L 6.42999 9.282L 4.04299 9.282L 4.04299 9.282Z"/>
<path id="path4_fill" d="M 5.50999 9.281L 8.78906e-06 9.281L 8.78906e-06 -8.78906e-06L 5.50999 -8.78906e-06L 5.50999 2.01299L 2.50599 2.01299L 2.50599 3.47301L 5.287 3.47301L 5.287 5.48501L 2.50599 5.48501L 2.50599 7.23699L 5.50999 7.23699L 5.50999 9.281Z"/>
<path id="path5_fill" d="M 9.338 9.281L 6.43801 9.281L 4.62701 6.381L 2.838 9.281L -8.78906e-06 9.281L 3.07799 4.53301L 0.183005 -8.78906e-06L 2.96401 -8.78906e-06L 4.64001 2.86901L 6.251 -8.78906e-06L 9.11401 -8.78906e-06L 6.17501 4.729L 9.338 9.281Z"/>
<path id="path6_fill" d="M 55 1C 57.206 1 59 2.794 59 5L 59 35C 59 37.206 57.206 39 55 39L 5 39C 2.794 39 1 37.206 1 35L 1 5C 1 2.794 2.794 1 5 1L 55 1ZM 55 0L 5 0C 2.25 0 0 2.25 0 5L 0 35C 0 37.75 2.25 40 5 40L 55 40C 57.75 40 60 37.75 60 35L 60 5C 60 2.25 57.75 0 55 0Z"/>
<path id="path7_fill" d="M 8 20L 0 20L 0 5C 0 2.238 3.238 0 6 0L 12 0L 12 15C 12 17.762 10.762 20 8 20Z"/>
<path id="path8_fill" d="M 9.99998 20C 15.5228 20 20 15.5228 20 10C 20 4.47715 15.5228 0 9.99998 0C 4.47714 0 -1.5625e-05 4.47715 -1.5625e-05 10C -1.5625e-05 15.5228 4.47714 20 9.99998 20Z"/>
<path id="path9_fill" d="M 0 0C 5 0 9.99902 4.478 9.99902 10C 9.99902 15.521 5 20 0 20L 0 0Z"/>
<path id="path10_fill" d="M 0 20L 0 0L 7.16699 0C 12.167 0 17.166 4.478 17.166 10C 17.166 15.521 12.167 20 7.16699 20L 0 20Z"/>
<path id="path11_fill" d="M 9.43798 18.876C 14.6504 18.876 18.876 14.6505 18.876 9.438C 18.876 4.22554 14.6504 1.17188e-05 9.43798 1.17188e-05C 4.22552 1.17188e-05 -3.90625e-06 4.22554 -3.90625e-06 9.438C -3.90625e-06 14.6505 4.22552 18.876 9.43798 18.876Z"/>
<path id="path12_fill" d="M 4.99999 6C 4.99999 3.0829 2.25327 0.642886 0 -9.40174e-06L 0 12C 2.25327 11.3571 4.99999 8.91924 4.99999 6Z"/>
<path id="path13_fill" d="M 1.32027e-05 6.00054C 1.32027e-05 8.91737 2.74673 11.3572 5 12L 5 1.56682e-05C 2.74673 0.643923 1.32027e-05 3.08263 1.32027e-05 6.00054Z"/>
<path id="path14_fill" d="M 5.05001 2.98399C 5.05001 3.98599 4.76501 4.753 4.19601 5.286C 3.62501 5.818 2.80099 6.08501 1.72399 6.08501L -8.54492e-06 6.08501L -8.54492e-06 1.48926e-05L 1.91 1.48926e-05C 2.904 1.48926e-05 3.67501 0.263002 4.22301 0.787002C 4.77501 1.311 5.05001 2.04399 5.05001 2.98399ZM 3.71001 3.01799C 3.71001 1.71099 3.132 1.058 1.98 1.058L 1.29201 1.058L 1.29201 5.019L 1.846 5.019C 3.089 5.02 3.71001 4.35199 3.71001 3.01799Z"/>
<path id="path15_fill" d="M 1.31836e-05 6.08501L 1.31836e-05 1.48926e-05L 1.28999 1.48926e-05L 1.28999 6.08501L 1.31836e-05 6.08501Z"/>
<path id="path16_fill" d="M 3.96799 4.48C 3.96799 5.031 3.771 5.46202 3.374 5.77902C 2.978 6.09502 2.429 6.255 1.724 6.255C 1.076 6.255 0.500004 6.132 4.15039e-06 5.889L 4.15039e-06 4.69C 0.411004 4.875 0.759003 5.002 1.043 5.079C 1.327 5.153 1.58801 5.19 1.82401 5.19C 2.10601 5.19 2.32401 5.13501 2.47501 5.02801C 2.62301 4.92101 2.702 4.75801 2.702 4.54601C 2.702 4.42701 2.66899 4.32099 2.60099 4.22799C 2.53599 4.13399 2.43701 4.04401 2.30701 3.95901C 2.17801 3.87401 1.91499 3.73499 1.51899 3.54699C 1.14799 3.37199 0.870011 3.20299 0.682011 3.04299C 0.495011 2.88299 0.348004 2.69601 0.237004 2.48101C 0.126004 2.26601 0.070988 2.01601 0.070988 1.73101C 0.070988 1.19301 0.252985 0.769999 0.617985 0.461999C 0.983985 0.152999 1.48699 -7.08008e-06 2.13199 -7.08008e-06C 2.44799 -7.08008e-06 2.74999 0.0369924 3.03699 0.111992C 3.32399 0.185992 3.62499 0.293002 3.93799 0.428002L 3.52201 1.43099C 3.19701 1.29799 2.927 1.203 2.715 1.152C 2.502 1.1 2.29299 1.07299 2.08899 1.07299C 1.84399 1.07299 1.65601 1.12901 1.52701 1.24401C 1.39601 1.35801 1.331 1.50599 1.331 1.68899C 1.331 1.80299 1.35701 1.90099 1.41001 1.98699C 1.46301 2.07199 1.54699 2.15299 1.66199 2.23199C 1.77699 2.31099 2.05102 2.45299 2.48002 2.65899C 3.04802 2.93099 3.438 3.20401 3.65 3.47701C 3.862 3.74801 3.96799 4.083 3.96799 4.48Z"/>
<path id="path17_fill" d="M 2.855 1.07501C 2.369 1.07501 1.99401 1.259 1.72701 1.622C 1.45901 1.987 1.32799 2.49701 1.32799 3.14801C 1.32799 4.50401 1.837 5.18301 2.855 5.18301C 3.283 5.18301 3.79801 5.079 4.40801 4.863L 4.40801 5.945C 3.90801 6.154 3.35 6.25701 2.734 6.25701C 1.849 6.25701 1.17199 5.98701 0.702995 5.45001C 0.233995 4.91401 -8.05664e-06 4.143 -8.05664e-06 3.138C -8.05664e-06 2.505 0.116007 1.95101 0.347007 1.47601C 0.576007 0.998008 0.908012 0.635007 1.33901 0.381007C 1.77201 0.127007 2.27699 -4.88281e-06 2.85699 -4.88281e-06C 3.44799 -4.88281e-06 4.04299 0.143011 4.63799 0.429011L 4.22201 1.47799C 3.99301 1.36999 3.76599 1.276 3.53399 1.195C 3.30299 1.114 3.077 1.07501 2.855 1.07501Z"/>
<path id="path18_fill" d="M 4.23501 1.48926e-05L 5.53799 1.48926e-05L 3.47101 6.08501L 2.06399 6.08501L -9.76562e-07 1.48926e-05L 1.30402 1.48926e-05L 2.449 3.62099C 2.512 3.83599 2.58 4.083 2.647 4.369C 2.713 4.654 2.75599 4.84901 2.77399 4.96101C 2.80399 4.70601 2.908 4.26199 3.086 3.62099L 4.23501 1.48926e-05Z"/>
<path id="path19_fill" d="M 3.50501 6.08501L 8.05664e-06 6.08501L 8.05664e-06 1.48926e-05L 3.50501 1.48926e-05L 3.50501 1.058L 1.28999 1.058L 1.28999 2.394L 3.352 2.394L 3.352 3.451L 1.28999 3.451L 1.28999 5.019L 3.50501 5.019L 3.50501 6.08501Z"/>
<path id="path20_fill" d="M 1.29001 3.75001L 1.29001 6.08501L 1.95313e-06 6.08501L 1.95313e-06 1.48926e-05L 1.77301 1.48926e-05C 2.60001 1.48926e-05 3.21101 0.150011 3.60901 0.452011C 4.00501 0.753011 4.20401 1.20901 4.20401 1.82301C 4.20401 2.18001 4.105 2.5 3.909 2.778C 3.712 3.057 3.433 3.27601 3.073 3.43401C 3.988 4.80001 4.584 5.685 4.862 6.084L 3.42999 6.084L 1.97699 3.74901L 1.29001 3.75001ZM 1.29001 2.701L 1.707 2.701C 2.114 2.701 2.41599 2.633 2.60999 2.498C 2.80299 2.361 2.901 2.147 2.901 1.856C 2.901 1.567 2.801 1.36301 2.603 1.24001C 2.405 1.11701 2.09801 1.05699 1.68201 1.05699L 1.288 1.05699L 1.29001 2.701Z"/>
<path id="path21_fill" d="M 3.04301 6.08601C 4.72361 6.08601 6.08601 4.72362 6.08601 3.04301C 6.08601 1.36241 4.72361 1.48926e-05 3.04301 1.48926e-05C 1.36241 1.48926e-05 1.02539e-05 1.36241 1.02539e-05 3.04301C 1.02539e-05 4.72362 1.36241 6.08601 3.04301 6.08601Z"/>
<path id="path22_fill" d="M 49.914 0L 49.914 7.5C 49.914 8.188 49.773 8.84401 49.519 9.44101C 49.264 10.038 48.898 10.578 48.445 11.031C 47.992 11.484 47.453 11.85 46.855 12.105C 46.256 12.359 45.601 12.5 44.914 12.5L 22.457 12.5L -1.46484e-06 12.5L 49.914 0Z"/>
<path id="path23_fill" d="M 60 35C 60 37.75 57.75 40 55 40L 5 40C 2.25 40 0 37.75 0 35L 0 5.00001C 0 2.25001 2.25 1.48926e-05 5 1.48926e-05L 55 1.48926e-05C 57.75 1.48926e-05 60 2.25001 60 5.00001L 60 35Z"/>
<path id="path24_fill" d="M 58 0L 0 0L 0 8L 58 8L 58 0Z"/>
<path id="path25_fill" d="M 36 0L 0 0L 0 8L 36 8L 36 0Z"/>
<path id="path26_fill" d="M 29 0L 0 0L 0 2L 29 2L 29 0Z"/>
<path id="path27_fill" d="M 55 1.00001C 57.206 1.00001 59 2.79401 59 5.00001L 59 35C 59 37.206 57.206 39 55 39L 5 39C 2.794 39 1 37.206 1 35L 1 5.00001C 1 2.79401 2.794 1.00001 5 1.00001L 55 1.00001ZM 55 1.48926e-05L 5 1.48926e-05C 2.25 1.48926e-05 0 2.25001 0 5.00001L 0 35C 0 37.75 2.25 40 5 40L 55 40C 57.75 40 60 37.75 60 35L 60 5.00001C 60 2.25001 57.75 1.48926e-05 55 1.48926e-05Z"/>
<path id="path28_fill" d="M 8 0L 0 0L 0 8L 8 8L 8 0Z"/>
<path id="path29_fill" d="M 6 0L 0 0L 0 2L 6 2L 6 0Z"/>
<path id="path30_stroke" d="M 14.5 7.75C 14.5 11.4779 11.4779 14.5 7.75 14.5L 7.75 16.5C 12.5825 16.5 16.5 12.5825 16.5 7.75L 14.5 7.75ZM 7.75 14.5C 4.02208 14.5 1 11.4779 1 7.75L -1 7.75C -1 12.5825 2.91751 16.5 7.75 16.5L 7.75 14.5ZM 1 7.75C 1 4.02207 4.02208 0.999996 7.75 0.999996L 7.75 -1C 2.91751 -1 -1 2.9175 -1 7.75L 1 7.75ZM 7.75 0.999996C 11.4779 0.999996 14.5 4.02207 14.5 7.75L 16.5 7.75C 16.5 2.9175 12.5825 -1 7.75 -1L 7.75 0.999996Z"/>
<path id="path31_fill" d="M 0 10L 0 5C 0 2.25 2.25 0 5 0L 53 0C 55.75 0 58 2.25 58 5L 58 10"/>
<path id="path32_fill" d="M 58 0L 58 5C 58 7.75 55.75 9 53 9L 5 9C 2.25 9 0 7.75 0 5L 0 0"/>
<path id="path33_fill" d="M 2.74199 9.086C 3.14799 7.936 3.433 7.199 3.601 6.875L 6.976 -7.32422e-07L 9.445 -7.32422e-07L 3.601 11.422L 0.991993 11.422L 4.27246e-06 -7.32422e-07L 2.305 -7.32422e-07L 2.70301 6.875C 2.72301 7.109 2.734 7.457 2.734 7.914C 2.722 8.451 2.707 8.842 2.687 9.086L 2.74199 9.086Z"/>
<path id="path34_fill" d="M 5.7373e-06 11.422L 2.43799 -7.32422e-07L 4.821 -7.32422e-07L 2.383 11.422L 5.7373e-06 11.422Z"/>
<path id="path35_fill" d="M 7.07001 8.212C 7.07001 9.302 6.683 10.161 5.914 10.794C 5.143 11.427 4.098 11.743 2.781 11.743C 1.629 11.743 0.702998 11.509 -1.58691e-06 11.04L -1.58691e-06 8.89901C 1.004 9.46101 1.938 9.743 2.797 9.743C 3.379 9.743 3.836 9.634 4.164 9.411C 4.492 9.19 4.656 8.888 4.656 8.501C 4.656 8.278 4.62099 8.081 4.55099 7.911C 4.48099 7.743 4.379 7.58501 4.25 7.43801C 4.119 7.29201 3.797 7.02801 3.281 6.64101C 2.562 6.12401 2.056 5.616 1.765 5.109C 1.472 4.604 1.32699 4.06 1.32699 3.476C 1.32699 2.804 1.487 2.20501 1.811 1.67501C 2.133 1.14701 2.592 0.736 3.19 0.441C 3.786 0.147 4.47101 -9.27734e-06 5.24901 -9.27734e-06C 6.37801 -9.27734e-06 7.413 0.258001 8.351 0.773001L 7.49901 2.59301C 6.68701 2.20801 5.93701 2.01501 5.24901 2.01501C 4.81501 2.01501 4.462 2.132 4.187 2.367C 3.91 2.601 3.77299 2.91199 3.77299 3.29699C 3.77299 3.61499 3.859 3.89299 4.031 4.12899C 4.203 4.36599 4.588 4.68 5.187 5.07C 5.816 5.487 6.289 5.947 6.601 6.449C 6.913 6.954 7.07001 7.54 7.07001 8.212Z"/>
<path id="path36_fill" d="M 7.53901 8.75L 3.844 8.75L 2.50001 11.469L 5.7373e-06 11.469L 5.984 2.19727e-06L 8.898 2.19727e-06L 10.046 11.469L 7.726 11.469L 7.53901 8.75ZM 7.421 6.719L 7.21799 3.98499C 7.16499 3.30299 7.14001 2.644 7.14001 2.008L 7.14001 1.72699C 6.91001 2.35199 6.626 3.014 6.288 3.711L 4.81901 6.719L 7.421 6.719Z"/>
<path id="path37_fill" d="M 17.5 3.39999C 15.667 1.31999 12.99 0 10 0C 4.478 0 0 4.477 0 10C 0 15.521 4.478 20 10 20C 12.99 20 15.667 18.68 17.5 16.599C 15.948 14.837 15 12.534 15 10C 15 7.466 15.948 5.16199 17.5 3.39999Z"/>
<path id="path38_fill" d="M 2.5 -6.10352e-06C 0.948 1.76199 0 4.067 0 6.6C 0 9.133 0.948 11.437 2.5 13.199C 4.052 11.437 5 9.134 5 6.6C 5 4.066 4.052 1.76199 2.5 -6.10352e-06Z"/>
<path id="path39_fill" d="M 9.949 0C 6.959 0 4.282 1.31999 2.449 3.39999C 2.016 3.89199 1.637 4.43 1.305 5L 3.593 5C 3.957 5.625 4.24 6.299 4.464 7L 0.419993 7C 0.216993 7.643 0.070002 8.309 0.00100195 9L 4.88 9C 4.914 9.33 4.94799 9.66 4.94799 10C 4.94799 10.338 4.928 10.671 4.895 11L -5.12695e-06 11C 0.0689949 11.691 0.216001 12.357 0.419001 13L 4.475 13C 4.252 13.704 3.953 14.372 3.589 15L 1.304 15C 1.635 15.568 2.01499 16.107 2.44799 16.599C 4.28099 18.68 6.95799 20 9.94799 20C 15.47 20 19.948 15.521 19.948 10C 19.949 4.477 15.471 0 9.949 0Z"/>
<path id="path40_fill" d="M 0 0L 35 0L 35 4L 0 4L 0 0Z"/>
<path id="path41_fill" d="M 0 0L 7 0L 7 4L 0 4L 0 0Z"/>
</defs>
</svg>
