<svg width="33" height="29" viewBox="0 0 33 29" version="1.1" xmlns="http://www.w3.org/2000/svg" xmlns:xlink="http://www.w3.org/1999/xlink">
<title>Hand</title>
<desc>Created using Figma</desc>
<g id="Canvas" transform="translate(-4832 -283)">
<g id="Hand">
<g id="right=hand">
<g id="Vector">
<use xlink:href="#path0_fill" transform="translate(4844 292)" fill="#EE4B8C"/>
</g>
<g id="Vector">
<use xlink:href="#path1_fill" transform="translate(4834 293)" fill="#EE4B8C"/>
</g>
<g id="Vector">
<use xlink:href="#path2_fill" transform="translate(4852 290)" fill="#EE4B8C"/>
</g>
<g id="Vector">
<use xlink:href="#path3_fill" transform="translate(4838.1 284)" fill="#EE4B8C"/>
</g>
</g>
<g id="Intersect">
<use xlink:href="#path4_fill" transform="translate(4832.96 283)"/>
</g>
</g>
</g>
<defs>
<path id="path0_fill" d="M 0.00441488 11.6012C -0.0537531 13.3722 0.469758 14.9661 1.16777 16.5009C 2.15663 18.567 3.49449 19.0393 5.4722 17.9177C 5.87937 17.6815 6.28655 17.3864 6.63556 17.0322C 8.78777 14.6709 9.4858 11.8373 8.55511 8.76767C 7.97343 6.76057 7.44991 4.75348 7.27541 2.74638C 6.9264 -0.854581 7.21724 -0.146189 4.07617 0.621229C 3.72716 0.739294 3.37816 1.03445 3.02915 1.03445C 2.15664 1.09349 2.0403 1.62477 1.80762 2.33316C 1.10961 4.22219 0.702437 6.11122 0.702437 8.11832C 0.702437 8.53154 0.644259 8.88574 0.527923 9.29896C 0.295251 10.0664 0.178919 10.8338 0.00441488 11.6012Z"/>
<path id="path1_fill" d="M 7.59322 0.145023C 7.41062 0.0863632 7.16715 0.145019 6.98454 0.0863596C 5.46286 -0.265597 4.67159 0.496973 4.12378 1.67016C 3.27163 3.37128 2.48035 5.0724 1.56734 6.65621C 0.71519 8.06403 0.593462 9.64784 0.167389 11.1143C -0.0760807 12.0529 -0.0152169 13.0501 0.106518 14.0473C 0.167386 14.9272 1.38473 16.159 2.11514 15.983C 3.33249 15.6898 4.79333 15.7484 5.70634 14.6925C 6.31502 13.9886 6.80195 13.3434 7.04542 12.4048C 7.59322 10.5277 8.38451 8.70928 8.93231 6.83219C 9.54099 4.89643 10.1497 2.90201 9.96707 0.79027C 9.9062 0.320995 9.66272 0.0863596 9.17578 0.0863596C 8.5671 0.145019 8.08016 0.145023 7.59322 0.145023Z"/>
<path id="path2_fill" d="M 2.02851 0.0198576C 1.77607 0.0198576 1.52362 0.0198576 1.33429 0.0198576C 0.198296 0.0779057 -0.0541507 0.310098 0.00896 1.47106C 0.0720707 1.93545 0.0720823 2.45788 0.198304 2.92226C 0.703189 4.72175 1.27119 6.4632 1.14496 8.32074C 1.08185 9.77194 1.90228 10.7007 3.10138 11.4553C 4.23737 12.1519 5.5627 12.6163 6.88802 12.9065C 7.8978 13.1387 8.90758 12.9065 9.98046 12.5582C 11.4951 12.0358 11.4951 10.8168 12 9.82998C 11.432 8.61097 11.6213 7.15977 10.5485 6.05686C 8.71825 4.14127 6.63559 2.51593 4.48982 0.890579C 3.7325 0.310098 2.97517 -0.0962386 2.02851 0.0198576Z"/>
<path id="path3_fill" d="M 5.19451 7.93093C 7.34672 7.98996 9.49894 7.81286 11.4185 6.63221C 11.6512 6.51415 12.0002 6.51415 12.2328 6.39609C 13.3962 5.6877 14.5596 4.97932 15.6066 4.09384C 16.4209 3.44448 16.3628 2.08674 15.6647 1.49641C 14.8504 0.847059 13.9197 0.25674 12.8145 0.0796436C 10.7205 -0.215517 8.74276 0.374803 6.76505 0.788028C 5.65986 1.79158 4.1475 2.0277 2.80964 2.67706C 1.82078 3.14932 1.06459 3.91673 0.308407 4.74318C 0.192071 4.86125 0.0757348 5.09738 0.0175669 5.27448C -0.156937 6.0419 1.00643 7.63577 1.82078 7.75383C 3.0423 7.8719 4.08932 7.8719 5.19451 7.93093Z"/>
<path id="path4_fill" fill-rule="evenodd" d="M 20.5477 0.194092C 22.0843 1.00113 22.8319 2.41006 22.9784 4.11942C 23.0336 4.95322 23.2562 5.56467 23.9232 6.06497C 24.0516 6.16373 24.1815 6.26245 24.3129 6.36182C 24.9188 6.82184 25.5428 7.2952 26.0912 7.84375C 27.5922 9.289 29.0375 10.7343 30.4828 12.1795C 30.8719 12.5687 31.2054 13.1245 31.3168 13.6248C 31.3949 14.1333 31.5077 14.6417 31.6205 15.1526C 31.829 16.0938 32.0394 17.0433 32.0394 18.0162C 32.0394 18.9056 31.5946 19.517 30.9276 19.795C 30.7758 19.8601 30.6219 19.927 30.4667 19.9946C 29.4286 20.4468 28.3226 20.9284 27.2587 21.0735C 26.4559 21.1499 25.6537 20.9373 24.8509 20.7248C 24.4862 20.6281 24.121 20.5315 23.7562 20.462C 23.5341 20.425 23.3119 20.3138 23.0731 20.1945C 22.9535 20.1347 22.83 20.0729 22.7001 20.0173C 21.0883 19.3503 20.9213 19.4059 20.8099 21.0179C 20.8099 21.1641 20.8158 21.3163 20.8221 21.4706C 20.8343 21.7856 20.8475 22.1091 20.8099 22.4076C 20.7967 22.5017 20.7865 22.5958 20.7762 22.6891C 20.745 22.9816 20.7142 23.2664 20.5878 23.5193C 19.6429 25.4093 18.142 26.799 16.2518 27.7995C 16.0292 27.9107 15.6957 28.0219 15.4735 28.0219C 13.8055 27.8551 12.1381 27.6884 11.2484 25.854C 11.1468 25.6607 11.0375 25.4693 10.9281 25.2773C 10.4393 24.4204 9.94518 23.5531 10.0814 22.4632C 10.0814 22.403 10.0326 22.3265 9.97888 22.2425C 9.93347 22.1714 9.88415 22.0949 9.85876 22.0185C 9.81188 22.0497 9.76501 22.0765 9.7196 22.1027C 9.6029 22.1696 9.49401 22.2321 9.41393 22.352C 9.24743 22.6299 9.09411 22.9218 8.94177 23.2136C 8.78845 23.5054 8.6361 23.7972 8.46911 24.0752C 7.69079 25.4648 6.6903 26.4654 4.91149 26.3542L 4.63317 26.3542C 3.46618 26.9657 2.52087 26.5766 1.57604 25.854C 0.630731 25.1313 0.0750668 24.1308 0.0194028 22.9634C -0.0362613 21.7405 0.0194028 20.5732 0.297235 19.3503C 0.800164 17.1067 1.84167 15.0784 2.8778 13.0594C 3.33093 12.1771 3.78307 11.2967 4.18884 10.4008C 4.30944 10.0784 4.48864 9.78534 4.66296 9.50024C 4.72888 9.39203 4.79479 9.28494 4.85583 9.17786C 5.078 8.78873 5.02233 8.4552 4.68884 8.17728C 4.07751 7.56583 3.68835 6.84317 3.85485 5.89819C 3.9735 5.06927 4.34411 4.32446 4.86755 3.74335C 6.3153 2.81314 7.86071 2.03748 9.48425 1.43796C 9.80407 1.41623 10.2386 1.28113 10.8592 1.06213C 11.3007 0.922882 11.7416 0.773956 12.1825 0.623413C 13.9066 0.215302 15.6996 0 17.5394 0C 18.558 0 19.5619 0.065979 20.5477 0.194092ZM 12.1937 24.9646C 11.5267 23.5193 11.0262 22.0185 11.0819 20.3508C 11.1371 20.1114 11.1864 19.8719 11.2352 19.6324C 11.3343 19.1493 11.4335 18.6661 11.5824 18.183C 11.6932 17.7939 11.7489 17.4603 11.7489 17.0712C 11.7489 15.1812 12.1381 13.4025 12.805 11.6237L 12.8451 11.5024C 13.0443 10.8967 13.1898 10.4529 13.9725 10.4008C 14.181 10.4008 14.3895 10.2922 14.598 10.1836C 14.723 10.1185 14.848 10.0533 14.973 10.0117C 16.5189 9.63959 17.1947 9.28226 17.5326 9.48596C 17.8509 9.67792 17.869 10.3679 18.0306 12.0128C 18.1976 13.9027 18.6976 15.7927 19.2538 17.6827C 20.1429 20.5732 19.4759 23.2414 17.4193 25.4648C 17.0858 25.7984 16.6966 26.0763 16.3075 26.2986C 14.4174 27.3548 13.1385 26.9101 12.1937 24.9646ZM 8.19079 10.4841C 8.28845 10.4841 8.38561 10.4841 8.46911 10.5119C 8.91393 10.5119 9.35876 10.5119 9.91442 10.4564C 10.3592 10.4564 10.5814 10.6787 10.6371 11.1234C 10.8041 13.1245 10.2479 15.0145 9.69225 16.8488C 9.44177 17.7383 9.1361 18.6137 8.83044 19.4893C 8.52477 20.3647 8.21911 21.2402 7.96862 22.1296C 7.74645 23.019 7.30163 23.6305 6.74597 24.2975C 6.11657 25.0525 5.20251 25.2061 4.31432 25.3555C 4.02526 25.4041 3.73913 25.4522 3.46618 25.5204C 2.7987 25.6872 1.68688 24.5199 1.63122 23.6861C 1.52038 22.7411 1.46472 21.7961 1.68688 20.9067C 1.80358 20.4893 1.89538 20.0619 1.98815 19.632C 2.203 18.6305 2.42126 17.6155 2.96569 16.6821C 3.58825 15.5616 4.1488 14.3791 4.71716 13.1809C 4.90954 12.7742 5.10339 12.3657 5.30065 11.9572C 5.80065 10.8455 6.52331 10.1228 7.91296 10.4564C 7.99645 10.4841 8.09362 10.4841 8.19079 10.4841ZM 20.8099 7.5658L 21.4217 7.5658C 22.2557 7.51022 22.9227 7.84375 23.5897 8.39963C 25.4799 9.95605 27.3143 11.5125 28.9261 13.3469C 29.5155 14.0054 29.6727 14.7936 29.8285 15.5767C 29.9227 16.0495 30.0165 16.5205 30.205 16.96C 30.0936 17.1963 30.0101 17.4465 29.9271 17.6967C 29.6766 18.4471 29.4266 19.1974 28.4261 19.5726C 27.4808 19.9062 26.5917 20.1285 25.702 19.9061C 24.5345 19.6282 23.3675 19.1835 22.3666 18.5165C 21.3104 17.7939 20.5878 16.9044 20.6434 15.5148C 20.7435 13.9117 20.347 12.3988 19.9423 10.8542L 19.8094 10.3452C 19.7357 10.0516 19.7108 9.73376 19.6864 9.42371C 19.6742 9.26413 19.6615 9.1066 19.6429 8.95551C 19.5873 7.84375 19.8094 7.6214 20.8099 7.5658ZM 16.3632 7.6214C 14.5287 8.73315 12.4716 8.8999 10.4149 8.84433C 10.0585 8.82556 9.70837 8.81311 9.35583 8.8006C 8.66393 8.77606 7.96374 8.75119 7.1903 8.67755C 6.41247 8.56638 5.30065 7.06552 5.46716 6.3429C 5.52282 6.17615 5.63415 5.9538 5.74499 5.84262C 6.46765 5.06439 7.1903 4.34177 8.13561 3.89706C 8.5736 3.68765 9.03063 3.52386 9.48571 3.36108C 10.3583 3.04855 11.2211 2.73962 11.9159 2.11829C 12.223 2.05502 12.5301 1.98737 12.8378 1.91959C 14.4232 1.57047 16.0209 1.21848 17.6971 1.45123C 18.7533 1.61798 19.6429 2.17386 20.4213 2.78534C 21.0883 3.34122 21.1439 4.61969 20.3656 5.23114C 19.3646 6.06497 18.2528 6.73199 17.141 7.39905C 17.0297 7.45465 16.891 7.48242 16.7523 7.51022C 16.6132 7.53802 16.474 7.5658 16.3632 7.6214Z"/>
</defs>
</svg>
