<svg width="53" height="53" viewBox="0 0 53 53" version="1.1" xmlns="http://www.w3.org/2000/svg" xmlns:xlink="http://www.w3.org/1999/xlink">
<title>if_tv_328077</title>
<desc>Created using Figma</desc>
<g id="Canvas" transform="translate(-9885 1562)">
<g id="if_tv_328077">
<g id="Union">
<use xlink:href="#path0_fill" transform="translate(9886 -1561)" fill="#333333" fill-opacity="0.26"/>
</g>
<g id="Vector">
<use xlink:href="#path1_fill" transform="translate(9885.34 -1561.77)" fill="#FFFFFF"/>
</g>
</g>
</g>
<defs>
<path id="path0_fill" d="M 52 25.8265L 52 52L 16.2617 52L 3.71191 39.4508C 3.52344 39.2624 3.33301 39.0755 3.14258 38.8884C 2.74609 38.4979 2.34766 38.1071 1.96582 37.7036C 1.80371 37.55 1.64746 37.3904 1.49023 37.2306C 1.36035 37.0979 1.23047 36.9651 1.09668 36.8357C 0.839844 36.5869 0.620117 36.3003 0.447266 35.9874C 0.119141 35.3932 0 34.7442 0 34.0733L 0 14.2381C 0 13.1812 0.464844 12.1638 1.27051 11.4781C 1.95215 10.8979 2.80469 10.6195 3.69336 10.6195L 15.373 10.6195L 13.415 5.39987L 13.3506 5.22617C 13.3389 5.19516 13.3125 5.17319 13.2871 5.1517L 13.2568 5.12473L 12.8379 4.70566C 12.6514 4.51913 12.4619 4.3342 12.2725 4.14926C 11.8789 3.76547 11.4854 3.38107 11.1133 2.97995C 10.6416 2.47177 10.5088 1.71469 10.7832 1.07712C 11.0273 0.507538 11.5674 0.0967719 12.1826 0.0164496C 12.5322 -0.0290826 12.8926 0.0308539 13.208 0.189423C 13.4658 0.319306 13.6621 0.517548 13.8604 0.717866C 13.9229 0.781586 13.9863 0.845673 14.0518 0.907685C 14.6494 1.47336 15.2236 2.06332 15.7979 2.65341C 16.3721 3.24374 16.9473 3.8342 17.5449 4.40012C 17.7441 4.58835 17.9365 4.78403 18.1289 4.97958C 18.2256 5.07773 18.3213 5.17575 18.4189 5.2728L 18.7129 5.56418C 18.9082 5.75607 19.1035 5.94809 19.291 6.14633C 19.416 6.27756 19.5459 6.40329 19.6768 6.52902C 19.8428 6.6893 20.0098 6.84946 20.1631 7.02097C 20.3145 7.15671 20.4551 7.30454 20.5957 7.45224C 20.7314 7.59482 20.8662 7.73727 21.0117 7.86874L 24.2803 3.48068L 24.4111 3.306L 24.4307 3.27853C 24.4355 3.27243 24.3037 3.14304 24.2041 3.04587L 24.1006 2.94284C 23.6445 2.42514 23.5312 1.67026 23.8164 1.04184C 24.0723 0.476533 24.6221 0.0771185 25.2402 0.010224C 25.5918 -0.0277399 25.9512 0.0404975 26.2637 0.207001C 26.5342 0.351655 26.751 0.575165 26.9639 0.795136L 27.1064 0.940522L 41.248 15.0766C 45.127 18.9492 50.5361 24.3493 52 25.8265Z"/>
<path id="path1_fill" d="M 34.6773 10.6803L 22.7598 10.6803L 22.7615 10.6803L 25.4586 3.53995C 25.5563 3.55681 25.6558 3.57016 25.7583 3.57016C 26.7506 3.57016 27.5563 2.77087 27.5563 1.78543C 27.5563 0.799285 26.7506 4.54487e-07 25.7583 4.54487e-07C 24.7651 4.54487e-07 23.9605 0.799285 23.9605 1.78543C 23.9605 2.40502 24.2794 2.95085 24.7635 3.27062L 19.2053 10.6803L 19.1652 10.6803L 13.569 3.27202C 14.0519 2.95127 14.371 2.40628 14.371 1.78669C 14.371 0.801111 13.5658 0.00168549 12.5729 0.00168549C 11.5808 0.00168549 10.7756 0.80097 10.7756 1.78669C 10.7756 2.77157 11.5807 3.57086 12.5729 3.57086C 12.6756 3.57086 12.7748 3.55779 12.8733 3.54136L 15.5694 10.6803L 3.65189 10.6803C 1.63548 10.6803 -5.00924e-07 12.3043 -5.00924e-07 14.3063L -5.00924e-07 34.4433C -5.00924e-07 36.4463 1.63548 38.0694 3.65189 38.0694L 34.6774 38.0694C 36.6944 38.0694 38.3295 36.4458 38.3295 34.4433L 38.3295 14.3063C 38.3293 12.3043 36.6943 10.6803 34.6773 10.6803ZM 29.9472 31.6806C 29.9472 33.2429 28.6734 34.5135 27.1006 34.5135L 6.43072 34.5135C 4.8582 34.5135 3.58129 33.2429 3.58129 31.6806L 3.58129 17.1105C 3.58129 15.5502 4.85806 14.3122 6.43072 14.3122L 27.1006 14.3122C 28.6734 14.3122 29.9472 15.5502 29.9472 17.1105L 29.9472 31.6806ZM 34.1478 32.1306C 33.1567 32.1306 32.3506 31.331 32.3506 30.3453C 32.3506 29.3601 33.1567 28.5601 34.1478 28.5601C 35.1411 28.5601 35.9474 29.3601 35.9474 30.3453C 35.9474 31.331 35.141 32.1306 34.1478 32.1306ZM 34.1478 26.1804C 33.1567 26.1804 32.3506 25.3806 32.3506 24.395C 32.3506 23.4107 33.1567 22.6104 34.1478 22.6104C 35.1411 22.6104 35.9474 23.4107 35.9474 24.395C 35.9474 25.3804 35.141 26.1804 34.1478 26.1804ZM 34.1478 20.2314C 33.1567 20.2314 32.3506 19.4304 32.3506 18.4456C 32.3506 17.4601 33.1567 16.6605 34.1478 16.6605C 35.1411 16.6605 35.9474 17.4601 35.9474 18.4456C 35.9474 19.4304 35.141 20.2314 34.1478 20.2314Z"/>
</defs>
</svg>
