<svg width="38" height="43" viewBox="0 0 38 43" version="1.1" xmlns="http://www.w3.org/2000/svg" xmlns:xlink="http://www.w3.org/1999/xlink">
<title>lappy</title>
<desc>Created using Figma</desc>
<g id="Canvas" transform="translate(-9815 1379)">
<g id="lappy">
<g id="Vector">
<use xlink:href="#path0_fill" transform="translate(9816 -1359.26)" fill="#FFFFFF"/>
<mask id="mask0_outline_ins">
<use xlink:href="#path0_fill" fill="white" transform="translate(9816 -1359.26)"/>
</mask>
<g mask="url(#mask0_outline_ins)">
<use xlink:href="#path1_stroke_2x" transform="translate(9816 -1359.26)" fill="#333333"/>
</g>
</g>
<g id="Vector">
<use xlink:href="#path2_fill" transform="translate(9815 -1379)" fill="#FBE3CE"/>
<mask id="mask1_outline_ins">
<use xlink:href="#path2_fill" fill="white" transform="translate(9815 -1379)"/>
</mask>
<g mask="url(#mask1_outline_ins)">
<use xlink:href="#path3_stroke_2x" transform="translate(9815 -1379)" fill="#333333"/>
</g>
</g>
<g id="Group">
<g id="Vector">
<use xlink:href="#path4_fill" transform="translate(9816.03 -1359.67)" fill="#FFFFFF"/>
<mask id="mask2_outline_ins">
<use xlink:href="#path4_fill" fill="white" transform="translate(9816.03 -1359.67)"/>
</mask>
<g mask="url(#mask2_outline_ins)">
<use xlink:href="#path5_stroke_2x" transform="translate(9816.03 -1359.67)" fill="#333333"/>
</g>
</g>
<g id="keys">
<g id="Vector">
<use xlink:href="#path6_fill" transform="translate(9823 -1347.32)" fill="#BDBDBD"/>
</g>
<g id="Vector">
<use xlink:href="#path7_fill" transform="translate(9825.25 -1348.56)" fill="#BDBDBD"/>
</g>
<g id="Vector">
<use xlink:href="#path8_fill" transform="translate(9827.5 -1349.8)" fill="#BDBDBD"/>
</g>
<g id="Vector">
<use xlink:href="#path9_fill" transform="translate(9829.76 -1351.04)" fill="#BDBDBD"/>
</g>
<g id="Vector">
<use xlink:href="#path10_fill" transform="translate(9832 -1352.29)" fill="#BDBDBD"/>
</g>
<g id="Vector">
<use xlink:href="#path11_fill" transform="translate(9834.25 -1353.52)" fill="#BDBDBD"/>
</g>
<g id="Vector">
<use xlink:href="#path12_fill" transform="translate(9836.5 -1354.76)" fill="#BDBDBD"/>
</g>
<g id="Vector">
<use xlink:href="#path13_fill" transform="translate(9838.75 -1356)" fill="#BDBDBD"/>
</g>
<g id="Vector">
<use xlink:href="#path14_fill" transform="translate(9824.9 -1345.95)" fill="#BDBDBD"/>
</g>
<g id="Vector">
<use xlink:href="#path15_fill" transform="translate(9827.15 -1347.2)" fill="#BDBDBD"/>
</g>
<g id="Vector">
<use xlink:href="#path16_fill" transform="translate(9829.4 -1348.43)" fill="#BDBDBD"/>
</g>
<g id="Vector">
<use xlink:href="#path17_fill" transform="translate(9831.65 -1349.67)" fill="#BDBDBD"/>
</g>
<g id="Vector">
<use xlink:href="#path18_fill" transform="translate(9833.9 -1350.91)" fill="#BDBDBD"/>
</g>
<g id="Vector">
<use xlink:href="#path19_fill" transform="translate(9836.15 -1352.16)" fill="#BDBDBD"/>
</g>
<g id="Vector">
<use xlink:href="#path20_fill" transform="translate(9838.4 -1353.4)" fill="#BDBDBD"/>
</g>
<g id="Vector">
<use xlink:href="#path21_fill" transform="translate(9840.65 -1354.63)" fill="#BDBDBD"/>
</g>
<g id="Vector">
<use xlink:href="#path22_fill" transform="translate(9826.78 -1344.57)" fill="#BDBDBD"/>
</g>
<g id="Vector">
<use xlink:href="#path23_fill" transform="translate(9829.03 -1352.01)" fill="#BDBDBD"/>
</g>
<g id="Vector">
<use xlink:href="#path24_fill" transform="translate(9840.28 -1352.01)" fill="#BDBDBD"/>
</g>
<g id="Vector">
<use xlink:href="#path25_fill" transform="translate(9842.53 -1353.26)" fill="#BDBDBD"/>
</g>
<g id="Vector">
<use xlink:href="#path26_fill" transform="translate(9835.18 -1348.53)" fill="#BDBDBD"/>
</g>
</g>
</g>
<g id="Group 2">
<g id="Ellipse">
<use xlink:href="#path27_fill" transform="matrix(0.919725 0.392563 -0.455614 0.890177 9827.5 -1369)" fill="#F97601"/>
</g>
<g id="Vector 2">
<use xlink:href="#path28_fill" transform="translate(9827.4 -1364.62)" fill="#FFFFFF"/>
</g>
</g>
</g>
</g>
<defs>
<path id="path0_fill" d="M 36.9809 8.93715L 36.9695 7.75964C 36.7638 8.2135 36.6495 7.58687 36.3754 7.38263L 26.8306 0.339085C 26.248 -0.0807446 25.197 -0.114786 24.5001 0.259657L 0.623353 13.2063C 0.0570019 13.2063 0.000629685 13.2596 0 14.2596L 0.000629685 14.7596L 0.0576316 15.1325C 0.114753 15.28 0.228996 15.4161 0.388936 15.541L 10.1681 22.6213C 10.7508 23.0412 11.8018 23.0752 12.4987 22.7008L 36.3754 9.75412C 36.741 9.56122 36.9352 9.2889 36.9695 9.01658L 36.9695 8.9485C 36.9809 8.9485 36.9809 8.9485 36.9809 8.93715Z"/>
<path id="path1_stroke_2x" d="M 36.9809 8.93715L 37.7309 8.93715L 37.7309 8.92987L 36.9809 8.93715ZM 36.9695 7.75964L 37.7194 7.75237L 36.2863 7.45006L 36.9695 7.75964ZM 36.3754 7.38263L 36.8234 6.78116L 36.8207 6.77916L 36.3754 7.38263ZM 26.8306 0.339085L 27.276 -0.264425L 27.2691 -0.269401L 26.8306 0.339085ZM 24.5001 0.259657L 24.1451 -0.401018L 24.1426 -0.399657L 24.5001 0.259657ZM 0.623353 13.2063L 0.623353 13.9563L 0.813604 13.9563L 0.980852 13.8656L 0.623353 13.2063ZM 0 14.2596L -0.750001 14.2592L -0.749999 14.2606L 0 14.2596ZM 0.000629685 14.7596L -0.74937 14.7606L -0.749299 14.8171L -0.740756 14.873L 0.000629685 14.7596ZM 0.0576316 15.1325L -0.683754 15.2458L -0.671364 15.3269L -0.64176 15.4033L 0.0576316 15.1325ZM 0.388936 15.541L -0.072479 16.1322L -0.0618365 16.1405L -0.0509019 16.1485L 0.388936 15.541ZM 10.1681 22.6213L 9.72828 23.2288L 9.72966 23.2298L 10.1681 22.6213ZM 12.4987 22.7008L 12.8537 23.3614L 12.8562 23.3601L 12.4987 22.7008ZM 36.3754 9.75412L 36.0254 9.09075L 36.0179 9.0948L 36.3754 9.75412ZM 36.9695 9.01658L 37.7136 9.11023L 37.7195 9.06359L 37.7195 9.01658L 36.9695 9.01658ZM 36.9695 8.9485L 36.9695 8.1985L 36.2195 8.1985L 36.2195 8.9485L 36.9695 8.9485ZM 37.7309 8.92987L 37.7194 7.75237L 36.2195 7.76692L 36.2309 8.94443L 37.7309 8.92987ZM 36.2863 7.45006C 36.2746 7.47593 36.2881 7.43655 36.339 7.38003C 36.393 7.32014 36.5452 7.1824 36.7962 7.17162C 37.0379 7.16124 37.1956 7.27711 37.2464 7.31988C 37.2984 7.36367 37.3206 7.39923 37.3109 7.38545C 37.2887 7.35586 37.2494 7.28411 37.1829 7.18149C 37.1217 7.08772 37.0038 6.91552 36.8234 6.78116L 35.9273 7.9841C 35.8841 7.95186 35.8832 7.93458 35.9269 8.00156C 35.9655 8.05969 36.019 8.15453 36.0853 8.25039C 36.124 8.30427 36.2087 8.40301 36.2804 8.46743C 36.3743 8.54649 36.575 8.6825 36.8606 8.67024C 37.1556 8.65757 37.3526 8.49592 37.4533 8.38423C 37.5209 8.30435 37.6068 8.16695 37.6526 8.06923L 36.2863 7.45006ZM 36.8207 6.77916L 27.276 -0.264386L 26.3853 0.942557L 35.93 7.9861L 36.8207 6.77916ZM 27.2691 -0.269401C 26.4238 -0.878513 25.0604 -0.89284 24.1451 -0.401013L 24.8551 0.920327C 25.3335 0.663268 26.0722 0.717024 26.3922 0.947572L 27.2691 -0.269401ZM 24.1426 -0.399657L 0.265854 12.547L 0.980852 13.8656L 24.8576 0.91897L 24.1426 -0.399657ZM -0.749999 14.2606L -0.74937 14.7606L 0.750629 14.7587L 0.749999 14.2587L -0.749999 14.2606ZM -0.740756 14.873L -0.683754 15.2458L 0.799017 15.0191L 0.742015 14.6463L -0.740756 14.873ZM -0.64176 15.4033C -0.519656 15.7186 -0.297676 15.9565 -0.072479 16.1322L 0.85035 14.9497C 0.805492 14.9147 0.779255 14.8875 0.765233 14.8704C 0.75159 14.8537 0.752697 14.8505 0.757023 14.8616L -0.64176 15.4033ZM -0.0509019 16.1485L 9.72828 23.2288L 10.608 22.0139L 0.828773 14.9335L -0.0509019 16.1485ZM 9.72966 23.2298C 10.575 23.8389 11.9383 23.8533 12.8537 23.3614L 12.1437 22.0401C 11.6653 22.2972 10.9265 22.2434 10.6066 22.0129L 9.72966 23.2298ZM 12.8562 23.3601L 36.7329 10.4134L 36.0179 9.0948L 12.1412 22.0415L 12.8562 23.3601ZM 36.7254 10.4174C 37.2469 10.1423 37.6411 9.68616 37.7136 9.11023L 36.2253 8.92293C 36.2293 8.89164 36.235 8.98017 36.0254 9.09079L 36.7254 10.4174ZM 37.7195 9.01658L 37.7195 8.9485L 36.2195 8.9485L 36.2195 9.01658L 37.7195 9.01658ZM 36.9695 9.6985C 36.9723 9.6985 37.0157 9.69736 37.0583 9.69379C 37.1049 9.68865 37.3213 9.66464 37.508 9.47924C 37.6957 9.29281 37.7207 9.07533 37.7261 9.02712C 37.7297 8.98389 37.7309 8.93999 37.7309 8.93715L 36.2309 8.93715C 36.2309 8.95842 36.2298 8.91036 36.2354 8.86029C 36.2404 8.81528 36.2647 8.59993 36.451 8.41491C 36.6362 8.23093 36.8504 8.20763 36.8938 8.20284C 36.9432 8.1974 36.9905 8.1985 36.9695 8.1985L 36.9695 9.6985ZM 0.623353 12.4563C 0.470376 12.4564 0.271634 12.4664 0.110138 12.5014C -0.12333 12.5581 -0.372011 12.6927 -0.539548 12.9654C -0.67483 13.1857 -0.711651 13.4285 -0.728427 13.6003C -0.744931 13.7752 -0.749806 14.0023 -0.75 14.2592L 0.75 14.2601C 0.750158 14.0085 0.754206 13.8512 0.76447 13.7461C 0.76695 13.72 0.768212 13.7096 0.771238 13.6915C 0.773649 13.6756 0.777007 13.665 0.774784 13.6728C 0.774144 13.6756 0.773572 13.6772 0.773227 13.678C 0.773343 13.678 0.767095 13.6951 0.76773 13.6932C 0.762448 13.7065 0.753326 13.7265 0.73861 13.7505C 0.706366 13.803 0.657905 13.8569 0.594232 13.8994C 0.534531 13.9393 0.483934 13.9543 0.464089 13.9591C 0.446978 13.9632 0.447239 13.9611 0.479802 13.9592C 0.517622 13.9566 0.557533 13.9563 0.623353 13.9563L 0.623353 12.4563Z"/>
<path id="path2_fill" d="M 25.2593 19.0937L 1.69099 31.7226C 0.777046 32.2219 0.0116191 31.9042 0.00019485 31.0191L 0.00019485 15.3606C -0.0112294 14.4756 0.480014 13.4657 1.39396 12.9778L 24.9622 0.348849C 26.1961 -0.263876 26.9044 -0.093675 26.9044 1.05235L 26.9044 16.5974C 26.9044 17.7094 26.6759 18.2654 25.2593 19.0937Z"/>
<path id="path3_stroke_2x" d="M 25.2593 19.0937L 25.7316 19.9751L 25.748 19.9663L 25.764 19.957L 25.2593 19.0937ZM 1.69099 31.7226L 1.21866 30.8412L 1.21159 30.845L 1.69099 31.7226ZM 0.00019485 31.0191L -0.999888 31.0191L -0.999722 31.032L 0.00019485 31.0191ZM 0.00019485 15.3606L 1.00028 15.3606L 1.00011 15.3477L 0.00019485 15.3606ZM 1.39396 12.9778L 1.8649 13.86L 1.86627 13.8592L 1.39396 12.9778ZM 24.9622 0.348849L 24.5175 -0.546791L 24.5036 -0.5399L 24.4899 -0.532583L 24.9622 0.348849ZM 24.787 18.2123L 1.21868 30.8412L 2.1633 32.6041L 25.7316 19.9751L 24.787 18.2123ZM 1.21159 30.845C 1.07128 30.9217 0.969291 30.9488 0.911326 30.9565C 0.853924 30.9641 0.854544 30.9514 0.891052 30.9666C 0.934486 30.9847 0.975812 31.0208 0.998741 31.0591C 1.01797 31.0912 1.00114 31.0856 1.00011 31.0062L -0.999722 31.032C -0.990048 31.7815 -0.63082 32.4999 0.123242 32.8134C 0.808879 33.0984 1.55818 32.9347 2.17039 32.6002L 1.21159 30.845ZM 1.00019 31.0191L 1.00019 15.3606L -0.999805 15.3606L -0.999805 31.0191L 1.00019 31.0191ZM 1.00011 15.3477C 0.992964 14.794 1.31657 14.1527 1.8649 13.86L 0.923011 12.0956C -0.356538 12.7787 -1.01542 14.1572 -0.999722 15.3735L 1.00011 15.3477ZM 1.86627 13.8592L 25.4345 1.23028L 24.4899 -0.532583L 0.921645 12.0964L 1.86627 13.8592ZM 25.407 1.24449C 25.6711 1.11335 25.8662 1.04516 25.9992 1.01617C 26.138 0.985905 26.1465 1.01177 26.0829 0.990797C 26.0461 0.978647 26.0005 0.955372 25.9576 0.917927C 25.9154 0.881105 25.8931 0.845702 25.8841 0.828103C 25.853 0.788733 25.9091 0.862608 25.9044 1.05235L 27.9044 1.05235C 27.9044 0.325941 27.6638 -0.593934 26.7091 -0.908661C 25.9664 -1.15346 25.1533 -0.862547 24.5175 -0.546791L 25.407 1.24449ZM 25.9044 1.05235L 25.9044 16.5974L 27.9044 16.5974L 27.9044 1.05235L 25.9044 1.05235ZM 25.9044 16.5974C 25.9044 17.097 25.8481 17.2865 25.7608 17.4288C 25.6581 17.596 25.4219 17.8402 24.7545 18.2304L 25.764 19.957C 26.5132 19.5189 27.0996 19.0709 27.4653 18.4751C 27.8464 17.8543 27.9044 17.2098 27.9044 16.5974L 25.9044 16.5974Z"/>
<path id="path4_fill" d="M 36.3699 8.87639L 12.4932 21.823C 11.7963 22.2088 10.7453 22.1634 10.1626 21.7436L 0.383452 14.6632C -0.199186 14.2434 -0.107792 13.5853 0.589089 13.2109L 24.4658 0.264204C 25.1627 -0.121586 26.2137 -0.0761996 26.7964 0.343631L 36.5756 7.42401C 37.1696 7.83249 37.0668 8.4906 36.3699 8.87639Z"/>
<path id="path5_stroke_2x" d="M 36.3699 8.87639L 36.8466 9.75551L 36.8543 9.75128L 36.3699 8.87639ZM 12.4932 21.823L 12.0165 20.9439L 12.0089 20.9482L 12.4932 21.823ZM 10.1626 21.7436L 9.57618 22.5536L 9.57802 22.5549L 10.1626 21.7436ZM 0.383452 14.6632L 0.969904 13.8533L 0.96806 13.8519L 0.383452 14.6632ZM 0.589089 13.2109L 1.06241 14.0918L 1.06575 14.0899L 0.589089 13.2109ZM 24.4658 0.264204L 24.9425 1.14332L 24.9502 1.13909L 24.4658 0.264204ZM 26.7964 0.343631L 27.3828 -0.466357L 27.381 -0.467685L 26.7964 0.343631ZM 36.5756 7.42401L 35.9891 8.23399L 35.999 8.24112L 36.009 8.24801L 36.5756 7.42401ZM 35.8933 7.99731L 12.0165 20.944L 12.9698 22.7021L 36.8466 9.75548L 35.8933 7.99731ZM 12.0089 20.9482C 11.6189 21.164 10.9876 21.1055 10.7472 20.9323L 9.57802 22.5549C 10.503 23.2214 11.9737 23.2537 12.9775 22.6979L 12.0089 20.9482ZM 10.7491 20.9336L 0.969902 13.8533L -0.202998 15.4732L 9.57618 22.5536L 10.7491 20.9336ZM 0.96806 13.8519C 0.932037 13.826 0.947075 13.8258 0.968514 13.8693C 0.992231 13.9173 1.00698 13.9863 0.996692 14.0594C 0.975934 14.2069 0.896613 14.1808 1.0624 14.0917L 0.115774 12.33C -0.415315 12.6153 -0.888775 13.1055 -0.98379 13.7807C -1.08408 14.4933 -0.720796 15.1001 -0.201156 15.4746L 0.96806 13.8519ZM 1.06575 14.0899L 24.9425 1.14329L 23.9892 -0.614881L 0.112424 12.3318L 1.06575 14.0899ZM 24.9502 1.13909C 25.3401 0.92323 25.9714 0.981769 26.2118 1.15495L 27.381 -0.467685C 26.456 -1.13417 24.9853 -1.1664 23.9815 -0.610681L 24.9502 1.13909ZM 26.2099 1.15362L 35.9891 8.23399L 37.162 6.61402L 27.3828 -0.466355L 26.2099 1.15362ZM 36.009 8.24801C 36.0441 8.27214 36.0241 8.26891 35.9988 8.21867C 35.9709 8.16323 35.9565 8.08864 35.9674 8.01409C 35.9775 7.94472 36.0036 7.91337 36.0002 7.91755C 35.996 7.92283 35.9657 7.95718 35.8856 8.00151L 36.8543 9.75128C 37.3754 9.4628 37.8483 8.97432 37.9463 8.30333C 38.0519 7.58118 37.6793 6.96936 37.1422 6.60001L 36.009 8.24801Z"/>
<path id="path6_fill" d="M 2.47259 0.835222L 1.12921 1.57218L -1.48538e-07 0.746788L 1.35311 5.9974e-07L 2.47259 0.835222Z"/>
<path id="path7_fill" d="M 2.48232 0.825395L 1.12921 1.57218L -2.97077e-07 0.746787L 1.35311 0L 2.48232 0.825395Z"/>
<path id="path8_fill" d="M 2.48232 0.825395L 1.12921 1.57218L 2.97077e-07 0.73696L 1.35311 -5.9974e-07L 2.48232 0.825395Z"/>
<path id="path9_fill" d="M 2.47259 0.825395L 1.11948 1.57218L 0 0.736961L 1.34338 2.9987e-07L 2.47259 0.825395Z"/>
<path id="path10_fill" d="M 2.47259 0.835222L 1.12921 1.57218L 5.94153e-07 0.746786L 1.34338 5.9974e-07L 2.47259 0.835222Z"/>
<path id="path11_fill" d="M 2.47259 0.825395L 1.12921 1.57218L -2.97077e-07 0.746787L 1.35311 0L 2.47259 0.825395Z"/>
<path id="path12_fill" d="M 2.48232 0.825396L 1.12921 1.57218L 2.97077e-07 0.746787L 1.35311 -5.9974e-07L 2.48232 0.825396Z"/>
<path id="path13_fill" d="M 2.48232 0.825395L 1.12921 1.57218L -5.94153e-07 0.736961L 1.35311 2.9987e-07L 2.48232 0.825395Z"/>
<path id="path14_fill" d="M 2.47259 0.825396L 1.12921 1.57218L -1.48538e-07 0.736961L 1.35311 5.9974e-07L 2.47259 0.825396Z"/>
<path id="path15_fill" d="M 2.47259 0.835221L 1.12921 1.57218L -2.97077e-07 0.746787L 1.35311 -5.9974e-07L 2.47259 0.835221Z"/>
<path id="path16_fill" d="M 2.48232 0.825397L 1.12921 1.57218L 2.97077e-07 0.746786L 1.35311 -1.19948e-06L 2.48232 0.825397Z"/>
<path id="path17_fill" d="M 2.47259 0.825396L 1.11948 1.57218L 0 0.746785L 1.34338 1.19948e-06L 2.47259 0.825396Z"/>
<path id="path18_fill" d="M 2.47259 0.825396L 1.11948 1.57218L 5.94153e-07 0.736961L 1.34338 5.9974e-07L 2.47259 0.825396Z"/>
<path id="path19_fill" d="M 2.47259 0.835221L 1.12921 1.57218L -2.97077e-07 0.746787L 1.35311 -5.9974e-07L 2.47259 0.835221Z"/>
<path id="path20_fill" d="M 2.48232 0.825395L 1.12921 1.57218L 2.97077e-07 0.746786L 1.35311 2.9987e-07L 2.48232 0.825395Z"/>
<path id="path21_fill" d="M 2.48232 0.825396L 1.12921 1.57218L -5.94153e-07 0.746787L 1.35311 -2.9987e-07L 2.48232 0.825396Z"/>
<path id="path22_fill" d="M 2.47259 0.825396L 1.11948 1.57218L 1.48538e-07 0.746788L 1.34338 5.9974e-07L 2.47259 0.825396Z"/>
<path id="path23_fill" d="M 13.7258 0.825396L 1.12921 7.77248L 0 6.93726L 12.6063 -5.9974e-07L 13.7258 0.825396Z"/>
<path id="path24_fill" d="M 2.47259 0.825396L 1.12921 1.57218L 5.94153e-07 0.73696L 1.35311 -5.9974e-07L 2.47259 0.825396Z"/>
<path id="path25_fill" d="M 2.47259 0.835222L 1.12921 1.57218L -2.97077e-07 0.746787L 1.35311 -2.9987e-07L 2.47259 0.835222Z"/>
<path id="path26_fill" d="M 5.96469 1.29898L 2.13025 3.46395L 0 2.16497L 3.83444 0L 5.96469 1.29898Z"/>
<path id="path27_fill" d="M 8.14983 4.94322C 8.14983 7.67328 6.32543 9.88643 4.07491 9.88643C 1.8244 9.88643 0 7.67328 0 4.94322C 0 2.21315 1.8244 0 4.07491 0C 6.32543 0 8.14983 2.21315 8.14983 4.94322Z"/>
<path id="path28_fill" d="M 0 4.31757L 0 0L 4.13697 0.539696L 0 4.31757Z"/>
</defs>
</svg>
