<svg width="72" height="270" viewBox="0 0 72 270" version="1.1" xmlns="http://www.w3.org/2000/svg" xmlns:xlink="http://www.w3.org/1999/xlink">
<title>Learn</title>
<desc>Created using Figma</desc>
<g id="Canvas" transform="translate(-6543 560)">
<g id="Learn">
<g id="Rectangle 3">
<use xlink:href="#path0_fill" transform="matrix(9.78738e-17 1 -1 3.83085e-17 6615 -560)" fill="#27AE60"/>
</g>
<g id="Learn">
<use xlink:href="#path1_fill" transform="matrix(5.7845e-17 1 -1 6.4818e-17 6599.05 -507.531)" fill="#F2F2F2"/>
<use xlink:href="#path2_fill" transform="matrix(5.7845e-17 1 -1 6.4818e-17 6599.05 -507.531)" fill="#F2F2F2"/>
<use xlink:href="#path3_fill" transform="matrix(5.7845e-17 1 -1 6.4818e-17 6599.05 -507.531)" fill="#F2F2F2"/>
<use xlink:href="#path4_fill" transform="matrix(5.7845e-17 1 -1 6.4818e-17 6599.05 -507.531)" fill="#F2F2F2"/>
<use xlink:href="#path5_fill" transform="matrix(5.7845e-17 1 -1 6.4818e-17 6599.05 -507.531)" fill="#F2F2F2"/>
</g>
<g id="calendar-full">
<g id="Vector">
<use xlink:href="#path6_fill" transform="translate(6561 -366)" fill="#F2F2F2"/>
</g>
<g id="Vector">
<use xlink:href="#path7_fill" transform="translate(6571.8 -351.778)" fill="#F2F2F2"/>
</g>
<g id="Vector">
<use xlink:href="#path8_fill" transform="translate(6577.2 -351.778)" fill="#F2F2F2"/>
</g>
<g id="Vector">
<use xlink:href="#path8_fill" transform="translate(6582.6 -351.778)" fill="#F2F2F2"/>
</g>
<g id="Vector">
<use xlink:href="#path8_fill" transform="translate(6588 -351.778)" fill="#F2F2F2"/>
</g>
<g id="Vector">
<use xlink:href="#path9_fill" transform="translate(6566.4 -348.222)" fill="#F2F2F2"/>
</g>
<g id="Vector">
<use xlink:href="#path7_fill" transform="translate(6571.8 -348.222)" fill="#F2F2F2"/>
</g>
<g id="Vector">
<use xlink:href="#path8_fill" transform="translate(6577.2 -348.222)" fill="#F2F2F2"/>
</g>
<g id="Vector">
<use xlink:href="#path8_fill" transform="translate(6582.6 -348.222)" fill="#F2F2F2"/>
</g>
<g id="Vector">
<use xlink:href="#path8_fill" transform="translate(6588 -348.222)" fill="#F2F2F2"/>
</g>
<g id="Vector">
<use xlink:href="#path9_fill" transform="translate(6566.4 -344.667)" fill="#F2F2F2"/>
</g>
<g id="Vector">
<use xlink:href="#path7_fill" transform="translate(6571.8 -344.667)" fill="#F2F2F2"/>
</g>
<g id="Vector">
<use xlink:href="#path8_fill" transform="translate(6577.2 -344.667)" fill="#F2F2F2"/>
</g>
<g id="Vector">
<use xlink:href="#path8_fill" transform="translate(6582.6 -344.667)" fill="#F2F2F2"/>
</g>
<g id="Vector">
<use xlink:href="#path8_fill" transform="translate(6588 -344.667)" fill="#F2F2F2"/>
</g>
<g id="Vector">
<use xlink:href="#path9_fill" transform="translate(6566.4 -341.111)" fill="#F2F2F2"/>
</g>
<g id="Vector">
<use xlink:href="#path7_fill" transform="translate(6571.8 -341.111)" fill="#F2F2F2"/>
</g>
<g id="Vector">
<use xlink:href="#path8_fill" transform="translate(6577.2 -341.111)" fill="#F2F2F2"/>
</g>
<g id="Vector">
<use xlink:href="#path8_fill" transform="translate(6582.6 -341.111)" fill="#F2F2F2"/>
</g>
<g id="Vector">
<use xlink:href="#path8_fill" transform="translate(6588 -341.111)" fill="#F2F2F2"/>
</g>
</g>
</g>
</g>
<defs>
<path id="path0_fill" d="M 0 0L 249.238 2.71872e-15L 270 36L 249.238 72L 0 72L 0 0Z"/>
<path id="path1_fill" d="M 5.92969 29.3906L 21.4219 29.3906L 21.4219 34.125L 0 34.125L 0 0L 5.92969 0L 5.92969 29.3906Z"/>
<path id="path2_fill" d="M 36.5859 34.5938C 32.9766 34.5938 30.0469 33.4609 27.7969 31.1953C 25.5625 28.9141 24.4453 25.8828 24.4453 22.1016L 24.4453 21.3984C 24.4453 18.8672 24.9297 16.6094 25.8984 14.625C 26.8828 12.625 28.2578 11.0703 30.0234 9.96094C 31.7891 8.85156 33.7578 8.29688 35.9297 8.29688C 39.3828 8.29688 42.0469 9.39844 43.9219 11.6016C 45.8125 13.8047 46.7578 16.9219 46.7578 20.9531L 46.7578 23.25L 30.1875 23.25C 30.3594 25.3438 31.0547 27 32.2734 28.2188C 33.5078 29.4375 35.0547 30.0469 36.9141 30.0469C 39.5234 30.0469 41.6484 28.9922 43.2891 26.8828L 46.3594 29.8125C 45.3438 31.3281 43.9844 32.5078 42.2812 33.3516C 40.5938 34.1797 38.6953 34.5938 36.5859 34.5938ZM 35.9062 12.8672C 34.3438 12.8672 33.0781 13.4141 32.1094 14.5078C 31.1563 15.6016 30.5469 17.125 30.2812 19.0781L 41.1328 19.0781L 41.1328 18.6562C 41.0078 16.75 40.5 15.3125 39.6094 14.3438C 38.7188 13.3594 37.4844 12.8672 35.9062 12.8672Z"/>
<path id="path3_fill" d="M 66.3516 34.125C 66.1016 33.6406 65.8828 32.8516 65.6953 31.7578C 63.8828 33.6484 61.6641 34.5938 59.0391 34.5938C 56.4922 34.5938 54.4141 33.8672 52.8047 32.4141C 51.1953 30.9609 50.3906 29.1641 50.3906 27.0234C 50.3906 24.3203 51.3906 22.25 53.3906 20.8125C 55.4062 19.3594 58.2812 18.6328 62.0156 18.6328L 65.5078 18.6328L 65.5078 16.9688C 65.5078 15.6562 65.1406 14.6094 64.4062 13.8281C 63.6719 13.0312 62.5547 12.6328 61.0547 12.6328C 59.7578 12.6328 58.6953 12.9609 57.8672 13.6172C 57.0391 14.2578 56.625 15.0781 56.625 16.0781L 50.9297 16.0781C 50.9297 14.6875 51.3906 13.3906 52.3125 12.1875C 53.2344 10.9688 54.4844 10.0156 56.0625 9.32812C 57.6562 8.64062 59.4297 8.29688 61.3828 8.29688C 64.3516 8.29688 66.7188 9.04688 68.4844 10.5469C 70.25 12.0312 71.1562 14.125 71.2031 16.8281L 71.2031 28.2656C 71.2031 30.5469 71.5234 32.3672 72.1641 33.7266L 72.1641 34.125L 66.3516 34.125ZM 60.0938 30.0234C 61.2188 30.0234 62.2734 29.75 63.2578 29.2031C 64.2578 28.6563 65.0078 27.9219 65.5078 27L 65.5078 22.2188L 62.4375 22.2188C 60.3281 22.2188 58.7422 22.5859 57.6797 23.3203C 56.6172 24.0547 56.0859 25.0937 56.0859 26.4375C 56.0859 27.5312 56.4453 28.4062 57.1641 29.0625C 57.8984 29.7031 58.875 30.0234 60.0938 30.0234Z"/>
<path id="path4_fill" d="M 90.4453 13.9688C 89.6953 13.8438 88.9219 13.7812 88.125 13.7812C 85.5156 13.7812 83.7578 14.7813 82.8516 16.7812L 82.8516 34.125L 77.1562 34.125L 77.1562 8.76562L 82.5938 8.76562L 82.7344 11.6016C 84.1094 9.39844 86.0156 8.29688 88.4531 8.29688C 89.2656 8.29688 89.9375 8.40625 90.4688 8.625L 90.4453 13.9688Z"/>
<path id="path5_fill" d="M 99.3281 8.76562L 99.4922 11.6953C 101.367 9.42969 103.828 8.29688 106.875 8.29688C 112.156 8.29688 114.844 11.3203 114.938 17.3672L 114.938 34.125L 109.242 34.125L 109.242 17.6953C 109.242 16.0859 108.891 14.8984 108.188 14.1328C 107.5 13.3516 106.367 12.9609 104.789 12.9609C 102.492 12.9609 100.781 14 99.6562 16.0781L 99.6562 34.125L 93.9609 34.125L 93.9609 8.76562L 99.3281 8.76562Z"/>
<path id="path6_fill" d="M 33.3 1.77778L 28.8 1.77778L 28.8 0.888889C 28.8 0.398222 28.3968 0 27.9 0C 27.4032 0 27 0.398222 27 0.888889L 27 1.77778L 9 1.77778L 9 0.888889C 9 0.398222 8.5968 0 8.1 0C 7.6032 0 7.2 0.398222 7.2 0.888889L 7.2 1.77778L 2.7 1.77778C 1.2114 1.77778 0 2.97422 0 4.44444L 0 29.3333C 0 30.8036 1.2114 32 2.7 32L 33.3 32C 34.7886 32 36 30.8036 36 29.3333L 36 4.44444C 36 2.97422 34.7886 1.77778 33.3 1.77778ZM 2.7 3.55556L 7.2 3.55556L 7.2 6.22222C 7.2 6.71289 7.6032 7.11111 8.1 7.11111C 8.5968 7.11111 9 6.71289 9 6.22222L 9 3.55556L 27 3.55556L 27 6.22222C 27 6.71289 27.4032 7.11111 27.9 7.11111C 28.3968 7.11111 28.8 6.71289 28.8 6.22222L 28.8 3.55556L 33.3 3.55556C 33.7968 3.55556 34.2 3.95378 34.2 4.44444L 34.2 8.88889L 1.8 8.88889L 1.8 4.44444C 1.8 3.95378 2.2032 3.55556 2.7 3.55556ZM 33.3 30.2222L 2.7 30.2222C 2.2032 30.2222 1.8 29.824 1.8 29.3333L 1.8 10.6667L 34.2 10.6667L 34.2 29.3333C 34.2 29.824 33.7968 30.2222 33.3 30.2222Z"/>
<path id="path7_fill" d="M 2.7 1.77778L 0.9 1.77778C 0.4032 1.77778 1.59872e-15 1.37956 1.59872e-15 0.888889C 1.59872e-15 0.398222 0.4032 0 0.9 0L 2.7 0C 3.1968 0 3.6 0.398222 3.6 0.888889C 3.6 1.37956 3.1968 1.77778 2.7 1.77778Z"/>
<path id="path8_fill" d="M 2.7 1.77778L 0.9 1.77778C 0.4032 1.77778 0 1.37956 0 0.888889C 0 0.398222 0.4032 0 0.9 0L 2.7 0C 3.1968 0 3.6 0.398222 3.6 0.888889C 3.6 1.37956 3.1968 1.77778 2.7 1.77778Z"/>
<path id="path9_fill" d="M 2.7 1.77778L 0.9 1.77778C 0.4032 1.77778 7.99361e-16 1.37956 7.99361e-16 0.888889C 7.99361e-16 0.398222 0.4032 0 0.9 0L 2.7 0C 3.1968 0 3.6 0.398222 3.6 0.888889C 3.6 1.37956 3.1968 1.77778 2.7 1.77778Z"/>
</defs>
</svg>
