<svg width="28" height="27" viewBox="0 0 28 27" version="1.1" xmlns="http://www.w3.org/2000/svg" xmlns:xlink="http://www.w3.org/1999/xlink">
<title>left-hand</title>
<desc>Created using Figma</desc>
<g id="Canvas" transform="translate(-4689 -293)">
<g id="left-hand">
<g id="Vector">
<use xlink:href="#path0_fill" transform="translate(4705.17 299.049)" fill="#EE4B8C"/>
</g>
<g id="Vector">
<use xlink:href="#path1_fill" transform="translate(4698.29 300.731)" fill="#EE4B8C"/>
</g>
<g id="Vector">
<use xlink:href="#path2_fill" transform="translate(4689.08 301.793)" fill="#EE4B8C"/>
</g>
<g id="Vector">
<use xlink:href="#path3_fill" transform="translate(4691.13 293.801)" fill="#EE4B8C"/>
</g>
</g>
</g>
<defs>
<path id="path0_fill" d="M 0.345416 2.96792C 1.0125 6.80343 2.51344 10.1942 4.90383 13.3071C 5.51533 14.0853 6.2936 14.6412 7.12745 14.9191C 7.85013 15.1415 8.79517 15.4194 9.51784 14.7524C 11.1856 13.4183 11.6859 10.4722 10.6297 8.6934C 9.51784 6.85902 8.29485 5.08023 6.73832 3.63497C 5.84887 2.80116 5.07061 1.91177 4.18116 1.02238C 3.84762 0.688854 3.51407 0.410915 3.12494 0.13298C 2.90258 0.0218054 2.62463 -0.03378 2.34667 0.0218071C 2.06872 0.0773942 1.84636 0.244154 1.624 0.410915C 1.06809 0.744438 0.345416 0.966791 0.067464 1.46707C -0.154898 1.74501 0.234235 2.46764 0.345416 2.96792Z"/>
<path id="path1_fill" d="M 6.66644 11.7361C 6.77762 9.23465 6.16612 7.01116 6.05494 4.6765C 5.99935 3.23124 5.22109 1.84157 4.77636 0.45189C 4.72077 0.229542 4.33164 -0.0483953 4.16487 0.00719179C 2.88629 0.285127 1.6633 0.674239 0.384716 1.00776C 0.329125 1.00776 0.217944 1.34128 0.273535 1.39687C 0.88503 2.45302 0.607077 3.62035 0.329125 4.6765C 0.162354 5.34355 -0.171189 6.0106 0.106764 6.56647C 0.440306 7.34469 -0.171189 8.06732 0.106764 8.67878C 0.662668 9.95728 0.495897 11.2358 0.495897 12.5143C 0.440307 14.3487 1.16298 15.9607 1.83007 17.5727C 2.2192 18.4065 3.05306 18.6289 3.9425 18.1286C 5.05431 17.5171 5.61022 16.461 6.16612 15.3492C 6.77762 14.2375 6.77762 12.959 6.66644 11.7361Z"/>
<path id="path2_fill" d="M 0.0288398 11.5634C 0.0844303 12.564 0.0844303 13.6202 0.251202 14.6207C 0.362383 15.3434 1.14065 15.788 1.97451 15.7325C 2.47482 15.6769 2.91954 15.5101 3.14191 15.121C 4.3093 13.231 5.75466 11.4523 6.19938 9.22877C 6.69969 6.67177 7.58914 4.22594 7.53355 1.61334C 7.53355 1.27982 7.58914 0.890706 7.75591 0.557183C 7.97828 -0.0542749 7.58914 0.00131228 7.2556 0.00131228C 6.58851 0.00131228 5.97702 0.112488 5.30993 0.168075C 4.19812 0.334837 3.64222 0.557183 3.30868 1.11305C 1.52978 4.33711 -0.249112 7.61675 0.0288398 11.5634Z"/>
<path id="path3_fill" d="M 3.32032 6.71476C 4.48772 6.548 5.59953 6.32564 6.71134 6.21447C 8.76819 6.04771 10.7694 5.54743 12.7151 4.99156C 13.6046 4.71362 14.3828 4.21333 15.2167 3.82422C 15.439 3.71305 15.6614 3.4907 15.8838 3.26835C 16.4397 2.71248 16.2729 1.65633 15.6058 1.3228C 15.2723 1.15604 14.8275 1.15605 14.5496 0.989287C 13.7713 0.433416 12.7151 1.32281 11.9924 0.544589C 10.7694 0.433415 9.54646 -0.511568 8.21229 0.377826C 7.21166 -0.0668709 6.21103 0.489002 5.26599 0.544589C 4.26536 0.655763 3.32032 1.04487 2.26411 1.10046C 1.93056 1.10046 1.59702 1.37839 1.31907 1.60074C 0.207259 2.54572 -0.126283 3.82423 0.0404879 5.10273C 0.207259 6.21447 1.59702 5.93654 2.37529 6.43682C 2.59765 6.71476 2.98678 6.65917 3.32032 6.71476Z"/>
</defs>
</svg>
