<svg width="39" height="29" viewBox="0 0 39 29" version="1.1" xmlns="http://www.w3.org/2000/svg" xmlns:xlink="http://www.w3.org/1999/xlink">
<title>left-shoe</title>
<desc>Created using Figma</desc>
<g id="Canvas" transform="translate(-4726 -328)">
<g id="left-shoe">
<g id="left-sole">
<use xlink:href="#path0_fill" transform="translate(4727.58 349.63)" fill="#FFFFFF"/>
</g>
<g id="Vector">
<use xlink:href="#path1_fill" transform="translate(4731.04 336.67)" fill="#EE4B8C"/>
</g>
<g id="Vector">
<use xlink:href="#path2_fill" transform="translate(4737.7 328.865)" fill="#FFFFFF"/>
</g>
<g id="Intersect">
<use xlink:href="#path3_fill" transform="translate(4726.19 328)"/>
</g>
</g>
</g>
<defs>
<path id="path0_fill" d="M 19.3455 3.9715C 19.3455 3.91591 19.3455 3.9159 19.3455 3.86032C 20.0126 3.86032 20.7352 4.02707 21.2911 3.80473C 22.7365 3.24886 24.2374 3.5268 25.7384 3.36004C 26.0163 3.30445 26.2943 3.41562 26.5722 3.30445C 28.4067 2.74857 30.2412 2.80416 32.1313 2.74857C 33.5766 2.74857 34.2993 1.74802 34.8552 0.691862C 34.9108 0.580688 34.6329 0.0248105 34.5217 0.0248105C 32.9651 0.0803976 31.353 -0.253128 29.8521 0.525091C 29.5741 0.691852 29.2406 1.02537 28.8514 0.747436C 28.1844 0.247152 27.4061 0.525088 26.6834 0.4695C 25.9607 0.413913 25.1825 0.4695 24.4598 0.4695C 23.7371 0.4695 22.9589 0.469504 22.2362 0.525091C 21.5691 0.580678 20.9576 0.747436 20.2905 0.747436C 19.5678 0.747436 18.8452 0.580678 18.1225 0.525091C 17.3998 0.469504 16.6215 0.525091 15.8989 0.525091C 13.3417 0.525091 10.8401 0.525091 8.28298 0.525091C 7.5603 0.525091 6.83763 0.525091 6.05936 0.803026C 4.61401 1.24772 3.11307 1.13656 1.61212 0.969798C 1.27858 0.914211 1.00063 0.525091 0.611494 0.803026C 0.222361 1.08096 -7.89988e-15 1.52567 -7.89988e-15 2.02595C -7.89988e-15 2.58182 -8.49071e-07 3.13769 0.0555896 3.69356C 0.11118 4.08267 0.333544 4.3606 0.778267 4.3606C 1.89008 4.3606 3.05748 4.52737 4.11369 4.24943C 5.05873 3.9715 5.94818 4.02708 6.89322 3.91591C 8.95006 3.69356 11.0069 4.13826 13.0082 3.41563C 14.2867 3.47121 15.6209 3.47121 16.8995 3.58238C 17.6778 3.69356 18.5116 3.86032 19.3455 3.9715Z"/>
<path id="path1_fill" d="M 15.3329 0.033359C 14.5546 0.033359 13.8319 -0.0222281 13.0536 0.033359C 9.71821 0.255707 6.71633 1.36744 4.27035 3.75768C 2.32468 5.59206 1.04611 7.81554 0.323429 10.4281C 0.212248 10.8728 -0.232477 11.262 0.156656 11.7066C 0.545789 12.1513 0.990512 12.4293 1.60201 12.4293C 2.15791 12.3737 2.76941 12.5404 3.26972 12.3181C 4.60389 11.7066 6.04924 11.929 7.439 11.929C 9.38467 11.8734 11.3859 11.8734 13.3316 11.929C 14.1654 11.929 14.9993 12.2625 15.7776 12.0957C 16.7226 11.8734 17.6121 11.9846 18.5571 11.929C 21.0587 11.8178 23.6158 11.929 26.1174 11.3731C 27.0068 11.1508 27.118 10.7617 27.0624 9.98345C 26.9513 8.64935 26.3398 7.48202 26.0062 6.20351C 25.5059 4.14679 24.1161 2.75712 22.6152 1.5342C 22.0037 1.03392 21.1698 0.700401 20.336 0.533639C 18.6683 0.0889427 17.0006 -0.0778151 15.3329 0.033359Z"/>
<path id="path2_fill" d="M 6.50022 6.22575C 6.50022 6.17016 6.50022 6.11458 6.50022 6.05899C 7.83439 6.05899 9.11297 6.11458 10.4471 6.05899C 12.5596 5.94782 14.4497 5.33636 16.0618 3.8911C 16.4509 3.50199 16.5621 2.77935 16.2285 2.39024C 15.9506 2.05672 15.6171 1.66762 15.2279 1.38968C 14.95 1.16733 14.5608 1.11174 14.1717 1.00056C 13.727 0.88939 13.3934 0.555874 12.8931 0.83381C 12.6708 0.944984 12.2816 0.611458 11.9481 0.500284C 11.5034 0.333523 11.0586 0.222342 10.6139 0.111167C 10.2804 0.0555803 9.89124 3.39277e-06 9.50211 3.39277e-06C 9.16856 0.0555905 8.83502 0.166758 8.44589 0.166758C 7.61203 0.166758 6.83376 0.333523 5.99991 0.500284C 5.11046 0.667045 4.16542 0.889393 3.27597 1.05615C 3.16479 1.05615 3.1092 1.05616 2.99802 1.11175C 2.49771 1.33409 1.9418 1.50084 1.44149 1.77878C 0.32968 2.33465 -0.170634 3.27963 0.0517282 4.55813C 0.2185 5.39194 0.607633 6.00341 1.44149 6.05899C 3.16479 6.11458 4.83251 6.17016 6.50022 6.22575Z"/>
<path id="path3_fill" fill-rule="evenodd" d="M 28.5975 1.41959C 28.6253 1.43826 28.6536 1.45734 28.6815 1.47681C 29.7933 2.255 30.4046 4.31171 29.8485 5.47906C 29.7581 5.66049 29.5565 5.8049 29.3641 5.9425C 29.3211 5.97354 29.2782 6.00421 29.2371 6.03491C 28.9818 6.22052 28.7171 6.39645 28.4549 6.57077C 28.0882 6.81412 27.7269 7.05432 27.4027 7.31342C 27.2913 7.42462 27.2913 7.86929 27.4027 7.98047C 27.598 8.22449 27.9217 8.38278 28.2235 8.53064L 28.348 8.59192C 30.8494 10.1484 32.3504 12.4274 33.1839 15.2068C 33.2586 15.4809 33.3421 15.7579 33.4261 16.0376C 33.7171 17.0057 34.0179 18.0073 34.0179 19.0423C 34.0179 19.7094 34.6849 20.1541 35.4075 20.0984C 35.6019 20.0707 35.7825 20.0429 35.9632 20.0151C 36.1439 19.9873 36.3245 19.9595 36.5194 19.9317C 37.7982 19.5426 38.5765 20.4876 38.3538 21.4882C 38.2933 21.7317 38.2489 21.9752 38.203 22.2278C 38.1654 22.4366 38.1263 22.6515 38.076 22.8778C 38.0628 22.9846 38.0462 23.0913 38.0296 23.1989C 37.9769 23.5392 37.9227 23.8873 37.9647 24.2675C 38.0203 25.3236 37.8538 25.7128 37.0755 25.8239C 36.742 25.861 36.4085 25.9104 36.0755 25.9597C 35.408 26.0586 34.7406 26.1575 34.0736 26.1575C 33.6419 26.1575 33.2337 26.2154 32.827 26.2731C 32.3436 26.3418 31.8631 26.41 31.3494 26.3798C 30.349 26.3798 29.3485 26.4354 28.2923 26.7689C 27.6375 26.9999 26.9027 26.9909 26.1805 26.982C 25.8602 26.9781 25.5423 26.9742 25.2347 26.9913L 14.2279 26.9913C 12.9491 26.9913 11.6707 27.0468 10.3363 27.3248C 9.33577 27.5557 8.28206 27.5468 7.2303 27.5379C 6.76253 27.534 6.29573 27.53 5.83382 27.5471C 4.61067 27.5471 3.44319 27.5471 2.22005 27.9362C 1.16389 28.3253 0.274734 27.7695 0.163406 26.6577C -0.0587617 25.2125 -0.114426 23.7116 0.385574 22.2108C 0.71907 21.2102 1.33089 20.5987 2.4427 20.7099C 2.99837 20.7655 3.27669 20.4875 3.44319 19.9317C 3.66536 19.0979 3.88802 18.3196 4.16585 17.5414C 4.99983 15.2068 6.38948 13.2612 8.00179 11.3713C 8.44661 10.871 9.00227 10.5375 9.55794 10.2039C 10.1829 9.81345 10.8079 9.45041 11.452 9.07623C 11.7249 8.91779 12.0008 8.75729 12.2821 8.59192C 12.0809 8.46609 11.9022 8.34027 11.7308 8.2196C 11.5238 8.07373 11.3275 7.93542 11.1146 7.81372C 9.72493 6.81314 9.55794 4.25613 10.7254 2.81085C 10.9491 2.53555 11.1995 2.29218 11.4681 2.07419C 14.3026 0.743591 17.4676 0 20.806 0C 23.5496 0 26.1756 0.502167 28.5975 1.41959ZM 19.6839 8.91293C 19.9373 8.91916 20.1922 8.92545 20.4539 8.92545C 22.1214 8.81427 23.7894 8.98102 25.4569 9.42572C 26.2908 9.5925 27.1248 9.92603 27.7362 10.4263C 29.2371 11.6492 30.6268 13.0389 31.1273 15.0956C 31.2479 15.5584 31.4051 16.0066 31.5618 16.4534C 31.8377 17.241 32.1126 18.0243 32.1834 18.8755C 32.2391 19.6537 32.1278 20.0428 31.2386 20.2652C 29.3641 20.6817 27.4583 20.7237 25.5682 20.7654C 24.9359 20.7793 24.305 20.7932 23.6781 20.8211C 23.3631 20.8396 23.0545 20.8396 22.7474 20.8396C 22.1341 20.8396 21.5286 20.8396 20.8988 20.9879C 20.4354 21.0872 19.952 21.009 19.4603 20.9296C 19.1268 20.8756 18.7899 20.8211 18.4525 20.8211C 16.5072 20.7655 14.5057 20.7655 12.5599 20.8211C 12.2684 20.8211 11.974 20.8113 11.679 20.8015C 10.5687 20.7645 9.44514 20.7271 8.39095 21.2102C 8.07259 21.3516 7.7093 21.3356 7.34407 21.3195C 7.13509 21.3104 6.92561 21.3011 6.72298 21.3214C 6.11165 21.3214 5.66682 21.0435 5.27766 20.5988C 5.00325 20.2853 5.14339 19.9995 5.28889 19.7024C 5.34993 19.5779 5.41194 19.4515 5.44466 19.3202C 6.16731 16.7076 7.44563 14.4842 9.39143 12.6498C 11.8372 10.2595 14.8392 9.1478 18.1746 8.92545C 18.6912 8.88855 19.1834 8.90063 19.6839 8.91293ZM 21.6224 25.7986C 21.4173 25.7835 21.2108 25.7683 21.0096 25.7683L 21.0096 25.8795C 20.1761 25.7128 19.3421 25.546 18.5638 25.4904C 17.7157 25.4166 16.8421 25.3918 15.9774 25.3672C 15.5389 25.3547 15.1029 25.3423 14.6727 25.3236C 13.3992 25.7834 12.1033 25.7706 10.7996 25.7578C 10.054 25.7504 9.3055 25.743 8.55745 25.8239C 8.24446 25.8607 7.93782 25.8793 7.63313 25.8977C 7.01741 25.9349 6.40999 25.9716 5.77815 26.1575C 5.00911 26.3598 4.18147 26.3264 3.35921 26.2933C 3.05159 26.281 2.74544 26.2686 2.4427 26.2686C 1.99788 26.2686 1.77571 25.9907 1.72005 25.6016C 1.66438 25.0457 1.66438 24.4898 1.66438 23.934C 1.66438 23.4337 1.83089 22.989 2.27571 22.7111C 2.53499 22.5258 2.74495 22.6369 2.95491 22.748C 3.06038 22.8036 3.16536 22.8593 3.27669 22.8778C 4.77718 23.0446 6.27815 23.1558 7.72346 22.7111C 8.50179 22.4331 9.22444 22.4331 9.9471 22.4331L 17.5633 22.4331C 17.8021 22.4331 18.0472 22.427 18.2943 22.4209C 18.7943 22.4085 19.3031 22.3959 19.7869 22.4331C 20.076 22.4554 20.3651 22.4954 20.6541 22.5354C 21.0877 22.5954 21.5213 22.6555 21.9549 22.6555C 22.3509 22.6555 22.7279 22.5966 23.1082 22.5372C 23.368 22.4966 23.6297 22.4557 23.9007 22.4331C 24.6234 22.3775 25.4017 22.3775 26.1243 22.3775C 26.3631 22.3775 26.6082 22.3714 26.8553 22.3653C 27.3553 22.3529 27.8641 22.3403 28.348 22.3775C 28.5648 22.3942 28.786 22.3809 29.0081 22.3676C 29.5272 22.3364 30.0487 22.3051 30.5159 22.6555C 30.8407 22.8873 31.1263 22.6937 31.3734 22.5263C 31.4227 22.493 31.4705 22.4608 31.5164 22.4331C 32.6287 21.8565 33.8021 21.8902 34.9681 21.9238C 35.3758 21.9355 35.783 21.9472 36.1859 21.9328C 36.2972 21.9328 36.575 22.4887 36.5194 22.5999C 35.9637 23.656 35.241 24.6566 33.7957 24.6566C 33.5076 24.6651 33.2205 24.671 32.9349 24.6768C 31.346 24.7094 29.7913 24.7413 28.2366 25.2125C 28.078 25.276 27.9188 25.2669 27.7601 25.2578C 27.6409 25.251 27.5218 25.2442 27.4027 25.2681C 26.8807 25.326 26.3587 25.3303 25.8392 25.3345C 24.8646 25.3423 23.8983 25.3501 22.9554 25.7127C 22.5672 25.868 22.098 25.8335 21.6224 25.7986ZM 18.286 7.14667L 18.286 7.31342L 18.1649 7.30939C 16.5374 7.25516 14.909 7.2009 13.2274 7.14667C 12.3934 7.09106 12.0042 6.47961 11.8372 5.64581C 11.6151 4.36731 12.1156 3.42233 13.2274 2.86646C 13.5433 2.69073 13.8822 2.55948 14.2147 2.43051C 14.408 2.35547 14.5994 2.28119 14.7835 2.1994C 14.8949 2.14383 14.9505 2.1438 15.0618 2.1438C 15.5062 2.06042 15.9652 1.96313 16.4237 1.86588C 16.8822 1.76862 17.3411 1.67133 17.7855 1.58795L 17.9329 1.55835C 18.7117 1.40204 19.4471 1.25443 20.2318 1.25443C 20.4998 1.25443 20.7415 1.2016 20.9754 1.15054C 21.0809 1.12753 21.1844 1.10492 21.2879 1.08765C 21.6771 1.08765 22.0662 1.14325 22.3997 1.19885C 22.8441 1.31003 23.2889 1.4212 23.7337 1.58795C 23.8509 1.62701 23.9749 1.69351 24.096 1.75854C 24.3201 1.8786 24.5345 1.99359 24.679 1.92148C 25.0374 1.72226 25.3104 1.83722 25.5999 1.95923C 25.7142 2.00745 25.8314 2.05673 25.9574 2.08823C 26.0438 2.11288 26.1297 2.1348 26.2152 2.1564C 26.5135 2.23227 26.7972 2.30432 27.0135 2.47736C 27.4027 2.75528 27.7362 3.14438 28.014 3.47791C 28.348 3.867 28.2366 4.58966 27.8475 4.97876C 26.2352 6.42401 24.345 7.03546 22.2327 7.14667C 21.3455 7.18362 20.4827 7.17142 19.6116 7.15909C 19.1732 7.15289 18.7327 7.14667 18.286 7.14667Z"/>
</defs>
</svg>
