<svg width="30" height="34" viewBox="0 0 30 34" version="1.1" xmlns="http://www.w3.org/2000/svg" xmlns:xlink="http://www.w3.org/1999/xlink">
<title>locked</title>
<desc>Created using Figma</desc>
<g id="Canvas" transform="translate(-10363 1422)">
<g id="locked">
<g id="Group 3">
<g id="Subtract">
<use xlink:href="#path0_fill" transform="translate(10364.8 -1422)" fill="#FFFFFF" fill-opacity="0.23"/>
<use xlink:href="#path1_fill" transform="translate(10364.8 -1422)" fill="#FFFFFF" fill-opacity="0.23"/>
<use xlink:href="#path2_fill" transform="translate(10364.8 -1422)" fill="#FFFFFF" fill-opacity="0.23"/>
<use xlink:href="#path3_fill" transform="translate(10364.8 -1422)" fill="#FFFFFF" fill-opacity="0.23"/>
</g>
<g id="Subtract">
<use xlink:href="#path4_fill" transform="translate(10363 -1407.42)" fill="#FFFFFF"/>
</g>
<g id="Rectangle 16">
<use xlink:href="#path5_fill" transform="translate(10375.9 -1401.66)" fill="#FFFFFF"/>
</g>
</g>
</g>
</g>
<defs>
<path id="path0_fill" d="M 0 12.8547C 0 12.9188 0.000719572 12.9827 0.00143914 13.0465L 0 18.8024L 3.68421 18.8024L 3.68421 13.0465C 3.68277 12.9827 3.68421 12.8547 3.68421 12.8547C 3.68421 7.80812 7.49686 3.83722 12.3421 3.83722C 17.1873 3.83722 21 7.80812 21 12.8547L 21.0004 12.9188C 21.0007 12.9614 21.0011 13.004 21 13.0465L 20.9996 13.814L 21 14.1977L 21 14.3896L 20.9993 14.5814L 20.9986 15.5407L 22.8417 15.5407L 22.8417 16.3082L 20.9986 16.3082L 20.9986 17.0756L 24.6828 17.0756L 24.6828 13.0465C 24.6835 12.9827 24.6842 12.9188 24.6842 12.8547C 24.6842 5.75526 19.1586 0 12.3421 0C 5.5256 0 0 5.75526 0 12.8547Z"/>
<path id="path1_fill" d="M 0 12.8547C 0 12.9188 0.000719572 12.9827 0.00143914 13.0465L 0 18.8024L 3.68421 18.8024L 3.68421 13.0465C 3.68277 12.9827 3.68421 12.8547 3.68421 12.8547C 3.68421 7.80812 7.49686 3.83722 12.3421 3.83722C 17.1873 3.83722 21 7.80812 21 12.8547L 21.0004 12.9188C 21.0007 12.9614 21.0011 13.004 21 13.0465L 20.9996 13.814L 21 14.1977L 21 14.3896L 20.9993 14.5814L 20.9986 15.5407L 22.8417 15.5407L 22.8417 16.3082L 20.9986 16.3082L 20.9986 17.0756L 24.6828 17.0756L 24.6828 13.0465C 24.6835 12.9827 24.6842 12.9188 24.6842 12.8547C 24.6842 5.75526 19.1586 0 12.3421 0C 5.5256 0 0 5.75526 0 12.8547Z"/>
<path id="path2_fill" d="M 0 12.8547C 0 12.9188 0.000719572 12.9827 0.00143914 13.0465L 0 18.8024L 3.68421 18.8024L 3.68421 13.0465C 3.68277 12.9827 3.68421 12.8547 3.68421 12.8547C 3.68421 7.80812 7.49686 3.83722 12.3421 3.83722C 17.1873 3.83722 21 7.80812 21 12.8547L 21.0004 12.9188C 21.0007 12.9614 21.0011 13.004 21 13.0465L 20.9996 13.814L 21 14.1977L 21 14.3896L 20.9993 14.5814L 20.9986 15.5407L 22.8417 15.5407L 22.8417 16.3082L 20.9986 16.3082L 20.9986 17.0756L 24.6828 17.0756L 24.6828 13.0465C 24.6835 12.9827 24.6842 12.9188 24.6842 12.8547C 24.6842 5.75526 19.1586 0 12.3421 0C 5.5256 0 0 5.75526 0 12.8547Z"/>
<path id="path3_fill" d="M 0 12.8547C 0 12.9188 0.000719572 12.9827 0.00143914 13.0465L 0 18.8024L 3.68421 18.8024L 3.68421 13.0465C 3.68277 12.9827 3.68421 12.8547 3.68421 12.8547C 3.68421 7.80812 7.49686 3.83722 12.3421 3.83722C 17.1873 3.83722 21 7.80812 21 12.8547L 21.0004 12.9188C 21.0007 12.9614 21.0011 13.004 21 13.0465L 20.9996 13.814L 21 14.1977L 21 14.3896L 20.9993 14.5814L 20.9986 15.5407L 22.8417 15.5407L 22.8417 16.3082L 20.9986 16.3082L 20.9986 17.0756L 24.6828 17.0756L 24.6828 13.0465C 24.6835 12.9827 24.6842 12.9188 24.6842 12.8547C 24.6842 5.75526 19.1586 0 12.3421 0C 5.5256 0 0 5.75526 0 12.8547Z"/>
<path id="path4_fill" fill-rule="evenodd" d="M 28 0L 0 0L 0 18.4187L 28 18.4187L 28 0ZM 14.1846 15.3489C 17.3379 15.3489 19.8945 12.686 19.8945 9.40112C 19.8945 6.11633 17.3379 3.45349 14.1846 3.45349C 11.0303 3.45349 8.47363 6.11633 8.47363 9.40112C 8.47363 12.686 11.0303 15.3489 14.1846 15.3489Z"/>
<path id="path5_fill" d="M 0 0L 2.21053 0L 2.21053 7.67444L 0 7.67444L 0 0Z"/>
</defs>
</svg>
