<?xml version="1.0" encoding="utf-8"?>
<svg width="40" height="40" xmlns="http://www.w3.org/2000/svg">
  <title>lock</title>
  <g>
    <g id="svg-1" transform="matrix(1, 0, 0, 1, 22.5, 15.5)">
      <path id="svg-1" d="M0 17.53c0 .086 0 .174.002.26L0 25.64h5.263v-7.85c-.002-.086 0-.26 0-.26 0-6.883 5.447-12.297 12.37-12.297C24.552 5.233 30 10.647 30 17.53v.086c0 .06.002.117 0 .175v2.094l-.002 1.308h2.633v1.046H30v1.047h5.263V17.79c.002-.086.003-.174.003-.26C35.263 7.847 27.37 0 17.633 0 7.892 0 0 7.848 0 17.53z" transform="matrix(1, 0, 0, 1, 0, 0)" style="fill: rgb(195, 184, 184);"/>
      <path id="svg-1" d="M0 17.53c0 .086 0 .174.002.26L0 25.64h5.263v-7.85c-.002-.086 0-.26 0-.26 0-6.883 5.447-12.297 12.37-12.297C24.552 5.233 30 10.647 30 17.53v.086c0 .06.002.117 0 .175v2.094l-.002 1.308h2.633v1.046H30v1.047h5.263V17.79c.002-.086.003-.174.003-.26C35.263 7.847 27.37 0 17.633 0 7.892 0 0 7.848 0 17.53z" transform="matrix(1, 0, 0, 1, 0, 0)" style="fill: rgb(195, 184, 184);"/>
      <path id="svg-1" d="M0 17.53c0 .086 0 .174.002.26L0 25.64h5.263v-7.85c-.002-.086 0-.26 0-.26 0-6.883 5.447-12.297 12.37-12.297C24.552 5.233 30 10.647 30 17.53v.086c0 .06.002.117 0 .175v2.094l-.002 1.308h2.633v1.046H30v1.047h5.263V17.79c.002-.086.003-.174.003-.26C35.263 7.847 27.37 0 17.633 0 7.892 0 0 7.848 0 17.53z" style="fill: rgb(195, 184, 184);" transform="matrix(1, 0, 0, 1, 0, 0)"/>
      <path id="svg-1" d="M0 17.53c0 .086 0 .174.002.26L0 25.64h5.263v-7.85c-.002-.086 0-.26 0-.26 0-6.883 5.447-12.297 12.37-12.297C24.552 5.233 30 10.647 30 17.53v.086c0 .06.002.117 0 .175v2.094l-.002 1.308h2.633v1.046H30v1.047h5.263V17.79c.002-.086.003-.174.003-.26C35.263 7.847 27.37 0 17.633 0 7.892 0 0 7.848 0 17.53z" style="fill: rgb(195, 184, 184);" transform="matrix(1, 0, 0, 1, 0, 0)"/>
    </g>
    <rect x="20" y="36" width="40" height="25" style="fill: rgb(216, 216, 216);"/>
    <ellipse style="fill: rgb(255, 255, 255);" cx="40" cy="48" rx="9" ry="9"/>
    <rect x="38" y="42" width="4" height="12" style="fill: rgb(133, 119, 119);"/>
  </g>
</svg>