<svg xmlns="http://www.w3.org/2000/svg" width="1024" height="300">
  <path fill="none" d="M-1-1h1026v302H-1z"/>
  <g fill="#000" stroke="null" stroke-opacity="null" stroke-width="1.5">
    <path d="M291.55 146.423l108-108 108 108-108 108-108-108zM25 122.898h88.235l27.265-79.45 27.265 79.45H256L184.617 172l27.266 79.45-71.383-49.104-71.383 49.103L96.383 172 25 122.898z"/>
    <ellipse cx="649.5" cy="142" ry="88" rx="91.5"/>
    <path d="M797.925 94.623l44.368-44.853 47.132 47.646 47.13-47.646 44.37 44.853-47.132 47.647 47.132 47.647-44.37 44.853-47.13-47.647-47.132 47.647-44.368-44.853 47.13-47.647-47.13-47.647z"/>
  </g>
</svg>
