<svg width="36" height="17" viewBox="0 0 36 17" version="1.1" xmlns="http://www.w3.org/2000/svg" xmlns:xlink="http://www.w3.org/1999/xlink">
<title>mouth</title>
<desc>Created using Figma</desc>
<g id="Canvas" transform="translate(-4747 -219)">
<g id="mouth">
<g id="Vector">
<use xlink:href="#path0_fill" transform="translate(4763.65 222.274)" fill="#FFFFFF"/>
</g>
<g id="Vector">
<use xlink:href="#path1_fill" transform="translate(4757.42 222.083)" fill="#FFFFFF"/>
</g>
<g id="Vector">
<use xlink:href="#path2_fill" transform="translate(4751.97 221.86)" fill="#FFFFFF"/>
</g>
<g id="Vector">
<use xlink:href="#path3_fill" transform="translate(4769.93 222.004)" fill="#FFFFFF"/>
</g>
<g id="Vector">
<use xlink:href="#path4_fill" transform="translate(4775.44 221.129)" fill="#FFFFFF"/>
</g>
<g id="Vector">
<use xlink:href="#path5_fill" transform="translate(4748.48 221.897)" fill="#FFFFFF"/>
</g>
<g id="Vector">
<use xlink:href="#path6_fill" transform="translate(4747.04 219.52)"/>
</g>
</g>
</g>
<defs>
<path id="path0_fill" d="M 3.07077 11.0927C 3.40432 11.0927 3.68227 11.0927 3.96022 11.0927C 4.23818 11.0927 4.51613 11.0927 4.79408 11.0927C 5.79471 11.0371 6.12825 10.648 6.18384 9.75862C 6.40621 7.03486 5.62794 4.36668 5.57234 1.6985C 5.57234 1.08704 5.2388 0.642339 4.62731 0.419991C 3.96022 0.197642 3.29314 -0.302639 2.51487 0.253232C 2.29251 0.419993 1.7922 0.308819 1.45865 0.253232C 0.0133031 0.0864705 -0.0422908 0.0864671 0.0132997 1.30938C 0.0688901 2.977 0.0132997 4.7002 0.291252 6.36781C 0.513614 7.47955 0.680388 8.53571 0.624798 9.70304C 0.569208 10.926 0.84716 11.2595 2.01456 11.2595C 2.3481 11.2039 2.73723 11.1483 3.07077 11.0927Z"/>
<path id="path1_fill" d="M 5.73489 7.11515C 5.90166 5.44754 5.06781 3.16846 5.06781 0.833806C 5.06781 0.444697 4.84545 0.111172 4.40073 0.111172C 3.17774 0.0555854 1.95474 0 0.731752 0C 0.342619 0 0.0090743 0.222347 0.0090743 0.667043C 0.0090743 2.44583 -0.102105 4.22462 0.4538 5.94782C 0.676161 6.55928 0.620572 7.22632 0.676162 7.89337C 0.676162 8.83835 0.676162 9.78333 0.676162 10.6727C 0.676162 11.173 1.0097 11.3398 1.39884 11.2842C 2.62183 11.2842 3.84482 11.2286 5.06781 11.2286C 5.51253 11.2286 5.79049 10.9507 5.79049 10.5615C 5.7349 9.67215 5.73489 8.72717 5.73489 7.11515Z"/>
<path id="path2_fill" d="M 5.01853 6.83721C 5.1853 5.22519 4.51822 3.05729 4.40703 0.833806C 4.40703 0.667044 4.07349 0.389108 3.90672 0.333521C 3.29522 0.16676 2.62814 -8.48192e-07 2.01664 -8.48192e-07C 1.40515 0.0555862 0.682475 0.166761 0.237751 0.500284C -0.262563 0.889393 0.182157 1.50085 0.182157 2.05672C 0.182157 3.05729 0.460109 4.00227 0.460109 5.00284C 0.460109 6.8928 0.460113 8.72717 0.515703 10.6171C 0.515703 11.173 0.793655 11.5065 1.40515 11.5065C 5.7968 11.5621 5.07412 12.4515 5.12971 8.00454C 5.01853 7.83778 5.01853 7.61543 5.01853 6.83721Z"/>
<path id="path3_fill" d="M 5.06905 7.63808C 5.01346 7.63808 5.01346 7.63808 4.95787 7.63808C 4.95787 6.63751 5.18023 5.52577 4.90228 4.58079C 4.62432 3.58022 4.56874 2.57965 4.51314 1.57909C 4.45755 -0.144113 4.45755 -0.0885238 2.78984 0.0782375C 2.06716 0.189412 1.2889 0.189413 0.56622 0.245C 0.121496 0.300588 -0.045275 0.689697 0.0103154 1.07881C 0.121496 1.80144 0.34386 2.52407 0.455041 3.2467C 0.566222 3.96933 0.399452 4.74755 0.621814 5.47018C 0.844176 6.2484 0.732995 7.02663 0.899766 7.80484C 1.06654 8.52748 1.01095 9.3057 1.06654 10.0283C 1.12213 10.6398 1.2889 10.9177 1.8448 10.9177C 2.67866 10.9177 3.51252 10.9177 4.34637 10.8621C 4.7911 10.8621 5.01346 10.5842 5.06905 10.1395C 5.06905 9.30569 5.06905 8.47189 5.06905 7.63808Z"/>
<path id="path4_fill" d="M 4.11674 9.51417C 4.06115 8.90271 4.17233 8.23567 3.94997 7.79097C 3.44965 6.73482 3.56083 5.62307 3.50524 4.51133C 3.44965 3.39959 3.44965 2.28785 3.39406 1.12052C 3.39406 0.842583 3.39407 0.564648 3.28288 0.286712C 3.22729 0.175538 3.00493 -0.0468105 2.83816 0.00877659C 2.0043 0.119951 1.22604 0.286709 0.392182 0.509057C 0.225411 0.564644 0.0586362 0.786995 0.0586362 0.898169C 0.00304571 1.45404 0.00305081 2.00991 0.00305081 2.56578C -0.0525397 5.28955 0.67013 7.90214 0.72572 10.6259C 0.72572 10.7927 1.05927 11.1818 1.22604 11.1818C 1.94871 11.2374 2.72698 11.1818 3.44966 11.1262C 3.67202 11.1262 3.89438 10.7927 3.94997 10.5703C 4.11674 10.1812 4.11674 9.7921 4.11674 9.51417Z"/>
<path id="path5_fill" d="M 2.89071 5.91138C 2.83511 5.91138 2.83511 5.91138 2.77952 5.91138C 2.77952 4.24377 2.77952 2.57616 2.77952 0.852955C 2.77952 0.130323 2.27921 -0.147609 1.44535 0.0747394C 0.111179 0.408262 0.0555888 0.408259 0.0555888 1.63118C -1.69814e-06 4.41053 -8.48243e-07 7.24547 -8.48243e-07 10.0248C -8.48243e-07 10.3583 0.166773 10.7475 0.389135 11.0254C 1.00063 11.6369 1.77889 11.5257 2.50157 11.3033C 3.00188 11.1366 2.89071 10.5251 2.89071 10.0804C 2.89071 8.74633 2.89071 7.35665 2.89071 5.91138Z"/>
<path id="path6_fill" d="M 30.13 14.7358C 28.7403 14.9026 26.9058 14.7358 25.0157 15.125C 23.2924 15.5141 21.4579 15.2917 19.679 15.2917C 15.4541 15.2917 11.2293 15.2917 7.0044 15.2917C 5.78141 15.2917 4.55842 15.5141 3.39102 15.5141C 2.50157 15.5141 1.55653 15.3473 0.667084 15.2361C 0.22236 15.1805 0 14.847 0 14.4579C 0 12.29 0.0555896 10.1221 0.0555896 8.00981C 0.722675 6.56455 0.444724 5.06369 0.500315 3.56284C 0.500315 3.28491 0.555906 3.00697 0.444725 2.72904C 0.333544 2.28434 8.61497e-07 1.89523 0.500315 1.45053C 1.00063 1.00583 1.55653 0.783486 2.27921 0.89466C 4.78078 1.39494 7.33794 1.06142 9.83951 1.1726C 10.7845 1.22818 11.7296 1.06142 12.619 1.28377C 13.5085 1.50612 14.3979 1.06142 15.2874 1.5617C 15.8989 1.89523 16.7327 1.67288 17.511 1.67288C 18.8452 1.67288 20.1237 1.67288 21.4579 1.67288C 23.1256 1.67288 24.7933 1.5617 26.4611 1.28377C 28.1288 1.00583 29.7409 0.727901 31.353 0.227617C 31.7977 0.116443 32.2425 0.0608548 32.7428 0.00526774C 33.4099 -0.0503194 33.8546 0.338789 33.8546 0.950247C 33.8546 2.33992 33.799 3.78519 33.799 5.17486C 33.799 6.39778 33.7434 7.56511 34.1881 8.78803C 34.4661 9.45507 34.2993 10.2889 34.3549 11.0115C 34.4105 11.8453 34.3549 12.6791 34.8552 13.4573C 35.2443 14.0688 34.6884 14.7358 33.9102 14.7358C 32.854 14.7358 31.7421 14.7358 30.13 14.7358ZM 19.957 14.0688C 20.2905 14.0688 20.5685 14.0688 20.8464 14.0688C 21.1244 14.0688 21.4023 14.0688 21.6803 14.0688C 22.6809 14.0132 23.0144 13.6241 23.07 12.7347C 23.2924 10.0109 22.5141 7.34276 22.4585 4.67458C 22.4585 4.06313 22.125 3.61843 21.5135 3.39608C 20.8464 3.17373 20.1793 2.67345 19.4011 3.22932C 19.1787 3.39608 18.6784 3.2849 18.3448 3.22932C 16.8995 3.06256 16.8439 3.06256 16.8995 4.28547C 16.9551 5.95308 16.8995 7.67628 17.1774 9.3439C 17.3998 10.4556 17.5666 11.5118 17.511 12.6791C 17.4554 13.902 17.7334 14.2356 18.9008 14.2356C 19.2343 14.18 19.6234 14.1244 19.957 14.0688ZM 16.3992 9.95536C 16.566 8.28774 15.7321 6.00867 15.7321 3.67402C 15.7321 3.28491 15.5097 2.95138 15.065 2.95138C 13.842 2.89579 12.619 2.84021 11.396 2.84021C 11.0069 2.84021 10.6734 3.06256 10.6734 3.50725C 10.6734 5.28604 10.5622 7.06483 11.1181 8.78803C 11.3405 9.39948 11.2849 10.0665 11.3405 10.7336C 11.3405 11.6786 11.3405 12.6235 11.3405 13.5129C 11.3405 14.0132 11.674 14.18 12.0631 14.1244C 13.2861 14.1244 14.5091 14.0688 15.7321 14.0688C 16.1768 14.0688 16.4548 13.7909 16.4548 13.4018C 16.3992 12.4568 16.3992 11.5118 16.3992 9.95536ZM 10.2286 9.39949C 10.3954 7.78746 9.72833 5.61956 9.61715 3.39608C 9.61715 3.22932 9.28361 2.95138 9.11683 2.89579C 8.50534 2.72903 7.83825 2.56227 7.22676 2.56227C 6.61526 2.61786 5.89259 2.72904 5.44787 3.06256C 4.94755 3.45167 5.39227 4.06312 5.39227 4.61899C 5.39227 5.61956 5.67022 6.56454 5.67022 7.56511C 5.67022 9.45507 5.67023 11.2894 5.72582 13.1794C 5.72582 13.7353 6.00377 14.0688 6.61526 14.0688C 11.0069 14.1244 10.2842 15.0138 10.3398 10.5668C 10.2286 10.4001 10.2286 10.2333 10.2286 9.39949ZM 28.24 10.3445C 28.1844 10.3445 28.1844 10.3445 28.1288 10.3445C 28.1288 9.3439 28.3511 8.23216 28.0732 7.28718C 27.7952 6.28661 27.7396 5.28604 27.684 4.28547C 27.6285 2.56227 27.6285 2.61786 25.9607 2.78462C 25.2381 2.8958 24.4598 2.89579 23.7371 2.95138C 23.2924 3.00697 23.1256 3.39608 23.1812 3.78519C 23.2924 4.50782 23.5148 5.23045 23.6259 5.95308C 23.7371 6.67572 23.5704 7.45394 23.7927 8.17657C 24.0151 8.95479 23.9039 9.73301 24.0707 10.5112C 24.2374 11.2339 24.1819 12.0121 24.2374 12.7347C 24.293 13.3462 24.4598 13.6241 25.0157 13.6241C 25.8496 13.6241 26.6834 13.6241 27.5173 13.5685C 27.962 13.5685 28.1844 13.2906 28.24 12.8459C 28.24 12.0121 28.24 11.1783 28.24 10.3445ZM 32.7984 11.345C 32.7428 10.7336 32.854 10.0665 32.6316 9.62183C 32.1313 8.56568 32.2425 7.45394 32.1869 6.3422C 32.1313 5.23046 32.1313 4.11871 32.0757 2.95138C 32.0757 2.67345 32.0757 2.39551 31.9645 2.11757C 31.9089 2.0064 31.6866 1.78405 31.5198 1.83964C 30.6859 1.95081 29.9077 2.11758 29.0738 2.33992C 28.907 2.39551 28.7403 2.61786 28.7403 2.72904C 28.6847 3.28491 28.6847 3.84078 28.6847 4.39665C 28.6291 7.12042 29.3518 9.73301 29.4073 12.4568C 29.4073 12.6235 29.7409 13.0126 29.9077 13.0126C 30.6303 13.0682 31.4086 13.0126 32.1313 12.9571C 32.3536 12.9571 32.576 12.6235 32.6316 12.4012C 32.7984 12.0121 32.7984 11.623 32.7984 11.345ZM 4.61401 8.51009C 4.55842 8.51009 4.55842 8.51009 4.50283 8.51009C 4.50283 6.84248 4.50283 5.17487 4.50283 3.45167C 4.50283 2.72903 4.00251 2.4511 3.16865 2.67345C 1.83448 3.00697 1.77889 3.00697 1.77889 4.22989C 1.7233 7.00924 1.7233 9.84418 1.7233 12.6235C 1.7233 12.9571 1.89008 13.3462 2.11244 13.6241C 2.72393 14.2356 3.5022 14.1244 4.22487 13.902C 4.72519 13.7353 4.61401 13.1238 4.61401 12.6791C 4.61401 11.345 4.61401 9.95535 4.61401 8.51009Z"/>
</defs>
</svg>
