<svg width="76" height="30" viewBox="0 0 76 30" version="1.1" xmlns="http://www.w3.org/2000/svg" xmlns:xlink="http://www.w3.org/1999/xlink">
<title>padlock</title>
<desc>Created using Figma</desc>
<g id="Canvas" transform="translate(-10924 1412)">
<g id="padlock" filter="url(#filter0_d)">
<g id="Rectangle 26">
<use xlink:href="#path0_fill" transform="translate(10924 -1412)" fill="#9B51E0"/>
</g>
<g id="UNLOCK">
<use xlink:href="#path1_fill" transform="translate(10924 -1406.32)" fill="#FFFFFF"/>
</g>
</g>
</g>
<defs>
<filter id="filter0_d" filterUnits="userSpaceOnUse" x="10924" y="-1412" width="76" height="30" color-interpolation-filters="sRGB">
<feFlood flood-opacity="0" result="BackgroundImageFix"/>
<feColorMatrix in="SourceAlpha" type="matrix" values="0 0 0 0 0 0 0 0 0 0 0 0 0 0 0 0 0 0 255 0"/>
<feOffset dx="2" dy="2"/>
<feGaussianBlur stdDeviation="0.5"/>
<feColorMatrix type="matrix" values="0 0 0 0 0 0 0 0 0 0 0 0 0 0 0 0 0 0 0.1 0"/>
<feBlend mode="normal" in2="BackgroundImageFix" result="effect1_dropShadow"/>
<feBlend mode="normal" in="SourceGraphic" in2="effect1_dropShadow" result="shape"/>
</filter>
<path id="path0_fill" d="M 0 4C 0 1.79086 1.79086 0 4 0L 69 0C 71.2091 0 73 1.79086 73 4L 73 23C 73 25.2091 71.2091 27 69 27L 4 27C 1.79086 27 0 25.2091 0 23L 0 4Z"/>
<path id="path1_fill" d="M 16.4803 3.33594L 16.4803 10.4624C 16.4803 11.5952 16.1165 12.4937 15.389 13.1577C 14.6663 13.8169 13.702 14.1465 12.4959 14.1465C 11.2752 14.1465 10.306 13.8218 9.58822 13.1724C 8.87045 12.5181 8.51156 11.6123 8.51156 10.4551L 8.51156 3.33594L 10.3573 3.33594L 10.3573 10.4697C 10.3573 11.1826 10.5379 11.7271 10.8993 12.103C 11.2606 12.479 11.7928 12.667 12.4959 12.667C 13.9217 12.667 14.6346 11.915 14.6346 10.4111L 14.6346 3.33594L 16.4803 3.33594ZM 26.9246 14L 25.0716 14L 20.3182 6.43408L 20.3182 14L 18.4652 14L 18.4652 3.33594L 20.3182 3.33594L 25.0863 10.9312L 25.0863 3.33594L 26.9246 3.33594L 26.9246 14ZM 30.9676 12.5205L 35.8089 12.5205L 35.8089 14L 29.1146 14L 29.1146 3.33594L 30.9676 3.33594L 30.9676 12.5205ZM 45.2718 8.94629C 45.2718 9.99121 45.0912 10.9092 44.7298 11.7002C 44.3685 12.4863 43.8509 13.0918 43.1771 13.5166C 42.5081 13.9365 41.7367 14.1465 40.8626 14.1465C 39.9984 14.1465 39.2269 13.9365 38.5482 13.5166C 37.8744 13.0918 37.3519 12.4888 36.9808 11.7075C 36.6146 10.9263 36.429 10.0254 36.4242 9.00488L 36.4242 8.4043C 36.4242 7.36426 36.6073 6.44629 36.9735 5.65039C 37.3446 4.85449 37.8646 4.24658 38.5335 3.82666C 39.2074 3.40186 39.9788 3.18945 40.848 3.18945C 41.7171 3.18945 42.4862 3.39941 43.1551 3.81934C 43.8289 4.23438 44.349 4.83496 44.7152 5.62109C 45.0814 6.40234 45.2669 7.31299 45.2718 8.35303L 45.2718 8.94629ZM 43.4188 8.38965C 43.4188 7.20801 43.1942 6.30225 42.745 5.67236C 42.3006 5.04248 41.6683 4.72754 40.848 4.72754C 40.0472 4.72754 39.4198 5.04248 38.9657 5.67236C 38.5164 6.29736 38.287 7.18359 38.2772 8.33105L 38.2772 8.94629C 38.2772 10.1182 38.5042 11.0239 38.9583 11.6636C 39.4173 12.3032 40.0521 12.623 40.8626 12.623C 41.6829 12.623 42.3128 12.3105 42.7523 11.6855C 43.1966 11.0605 43.4188 10.1475 43.4188 8.94629L 43.4188 8.38965ZM 55.2547 10.5283C 55.1473 11.666 54.7274 12.5547 53.995 13.1943C 53.2625 13.8291 52.2884 14.1465 51.0726 14.1465C 50.223 14.1465 49.4735 13.9463 48.8241 13.5459C 48.1795 13.1406 47.6815 12.5669 47.3299 11.8247C 46.9784 11.0825 46.7953 10.2207 46.7806 9.23926L 46.7806 8.24316C 46.7806 7.2373 46.9588 6.35107 47.3153 5.58447C 47.6717 4.81787 48.182 4.22705 48.846 3.81201C 49.515 3.39697 50.2865 3.18945 51.1605 3.18945C 52.3372 3.18945 53.2845 3.50928 54.0023 4.14893C 54.7201 4.78857 55.1375 5.69189 55.2547 6.85889L 53.409 6.85889C 53.3211 6.09229 53.0965 5.54053 52.7352 5.20361C 52.3787 4.86182 51.8538 4.69092 51.1605 4.69092C 50.3548 4.69092 49.7347 4.98633 49.3001 5.57715C 48.8704 6.16309 48.6507 7.0249 48.641 8.1626L 48.641 9.10742C 48.641 10.2598 48.846 11.1387 49.2562 11.7441C 49.6712 12.3496 50.2767 12.6523 51.0726 12.6523C 51.8001 12.6523 52.347 12.4888 52.7132 12.1616C 53.0794 11.8345 53.3114 11.29 53.409 10.5283L 55.2547 10.5283ZM 59.9788 9.39307L 58.7704 10.6748L 58.7704 14L 56.9173 14L 56.9173 3.33594L 58.7704 3.33594L 58.7704 8.33838L 59.7957 7.07129L 62.9159 3.33594L 65.1571 3.33594L 61.1947 8.06006L 65.3841 14L 63.1869 14L 59.9788 9.39307Z"/>
</defs>
</svg>
