<svg width="15" height="17" viewBox="0 0 15 17" version="1.1" xmlns="http://www.w3.org/2000/svg" xmlns:xlink="http://www.w3.org/1999/xlink">
<title>padlock-purple</title>
<desc>Created using Figma</desc>
<g id="Canvas" transform="translate(-11274 255)">
<g id="padlock-purple">
<g id="bolt">
<use xlink:href="#path0_fill" transform="matrix(0.999993 0.00382053 -0.00382053 0.999993 11275 -255)" fill="#FFFFFF"/>
<use xlink:href="#path1_fill" transform="matrix(0.999993 0.00382053 -0.00382053 0.999993 11275 -255)" fill="#FFFFFF"/>
<use xlink:href="#path2_fill" transform="matrix(0.999993 0.00382053 -0.00382053 0.999993 11275 -255)" fill="#FFFFFF"/>
<use xlink:href="#path3_fill" transform="matrix(0.999993 0.00382053 -0.00382053 0.999993 11275 -255)" fill="#FFFFFF"/>
</g>
<g id="body">
<use xlink:href="#path4_fill" transform="translate(11274 -247.488)" fill="#CBB4E0"/>
</g>
<g id="barrel">
<use xlink:href="#path5_fill" transform="translate(11278.5 -245.709)" fill="#FFFFFF"/>
</g>
<g id="keyhole">
<use xlink:href="#path6_fill" transform="translate(11280.9 -244.523)" fill="#333333"/>
</g>
</g>
</g>
<defs>
<path id="path0_fill" d="M 0 6.62212C 0 6.65513 0.000385485 6.68806 0.00077097 6.72095L 0.0114616 12.6861L 1.98515 12.6861L 1.97368 6.72095C 1.97291 6.68809 1.97368 6.62212 1.97368 6.62212C 1.97368 4.02237 4.01618 1.97675 6.61184 1.97675C 9.20751 1.97675 11.25 4.02237 11.25 6.62212C 11.2517 6.9186 11.2498 7.21516 11.2496 7.51165L 12.237 7.51165L 12.2388 7.97851L 11.2553 7.98226L 12.0315 8.97931L 13.2327 8.97472C 13.2327 8.24991 13.2237 7.34692 13.2237 6.62212C 13.2237 2.96484 10.2635 0 6.61184 0C 2.96014 0 0 2.96484 0 6.62212Z"/>
<path id="path1_fill" d="M 0 6.62212C 0 6.65513 0.000385485 6.68806 0.00077097 6.72095L 0.0114616 12.6861L 1.98515 12.6861L 1.97368 6.72095C 1.97291 6.68809 1.97368 6.62212 1.97368 6.62212C 1.97368 4.02237 4.01618 1.97675 6.61184 1.97675C 9.20751 1.97675 11.25 4.02237 11.25 6.62212C 11.2517 6.9186 11.2498 7.21516 11.2496 7.51165L 12.237 7.51165L 12.2388 7.97851L 11.2553 7.98226L 12.0315 8.97931L 13.2327 8.97472C 13.2327 8.24991 13.2237 7.34692 13.2237 6.62212C 13.2237 2.96484 10.2635 0 6.61184 0C 2.96014 0 0 2.96484 0 6.62212Z"/>
<path id="path2_fill" d="M 0 6.62212C 0 6.65513 0.000385485 6.68806 0.00077097 6.72095L 0.0114616 12.6861L 1.98515 12.6861L 1.97368 6.72095C 1.97291 6.68809 1.97368 6.62212 1.97368 6.62212C 1.97368 4.02237 4.01618 1.97675 6.61184 1.97675C 9.20751 1.97675 11.25 4.02237 11.25 6.62212C 11.2517 6.9186 11.2498 7.21516 11.2496 7.51165L 12.237 7.51165L 12.2388 7.97851L 11.2553 7.98226L 12.0315 8.97931L 13.2327 8.97472C 13.2327 8.24991 13.2237 7.34692 13.2237 6.62212C 13.2237 2.96484 10.2635 0 6.61184 0C 2.96014 0 0 2.96484 0 6.62212Z"/>
<path id="path3_fill" d="M 0 6.62212C 0 6.65513 0.000385485 6.68806 0.00077097 6.72095L 0.0114616 12.6861L 1.98515 12.6861L 1.97368 6.72095C 1.97291 6.68809 1.97368 6.62212 1.97368 6.62212C 1.97368 4.02237 4.01618 1.97675 6.61184 1.97675C 9.20751 1.97675 11.25 4.02237 11.25 6.62212C 11.2517 6.9186 11.2498 7.21516 11.2496 7.51165L 12.237 7.51165L 12.2388 7.97851L 11.2553 7.98226L 12.0315 8.97931L 13.2327 8.97472C 13.2327 8.24991 13.2237 7.34692 13.2237 6.62212C 13.2237 2.96484 10.2635 0 6.61184 0C 2.96014 0 0 2.96484 0 6.62212Z"/>
<path id="path4_fill" d="M 0 0L 15 0L 15 9.48841L 0 9.48841L 0 0Z"/>
<path id="path5_fill" d="M 6.11842 3.06397C 6.11842 4.75615 4.74877 6.12793 3.05921 6.12793C 1.36966 6.12793 0 4.75615 0 3.06397C 0 1.37178 1.36966 0 3.05921 0C 4.74877 0 6.11842 1.37178 6.11842 3.06397Z"/>
<path id="path6_fill" d="M 0 0L 1.18421 0L 1.18421 3.9535L 0 3.9535L 0 0Z"/>
</defs>
</svg>
