<?xml version="1.0" encoding="utf-8"?>
<svg width="774" height="660" viewBox="0 0 775 660" version="1.1" xmlns="http://www.w3.org/2000/svg">
  <title>path</title>
  <desc>Created using Figma</desc>
  <defs>
    <path id="path0_fill" d="M 0 0L 774 0L 774 660L 0 660L 0 0Z"/>
    <path id="path1_stroke" d="M 39.505 32.7634L 39.0259 34.7052L 39.505 32.7634ZM 302.505 28.2623L 302.287 26.2742L 302.505 28.2623ZM 433.505 2.2622L 433.746 4.24758L 433.505 2.2622ZM 562.005 40.7637L 560.362 41.9048L 560.362 41.9048L 562.005 40.7637ZM 517.005 285.264L 515.792 283.674L 515.792 283.674L 517.005 285.264ZM 311.505 265.762L 311.81 263.786L 311.505 265.762ZM 112.005 228.762L 112.005 230.762L 112.032 230.762L 112.06 230.761L 112.005 228.762ZM 7.50499 297.764L 5.58334 297.209L 7.50499 297.764ZM 39.505 485.764L 40.9062 484.336L 39.505 485.764ZM 302.505 471.264L 302.85 473.234L 302.505 471.264ZM 166.005 499.264L 166.279 501.245L 166.005 499.264ZM 11.4308 25.4972C 11.8595 26.0384 12.0451 26.3451 12.181 26.6462L 15.8112 24.9665C 15.5756 24.4647 15.1492 23.763 14.579 23.0297L 11.4308 25.4972ZM 15.9515 29.7657C 16.7683 29.8897 17.8964 30.0683 19.4993 30.3614L 20.2184 26.4266C 18.5691 26.1253 17.3815 25.9369 16.5517 25.811L 15.9515 29.7657ZM 23.0353 31.0465C 24.0946 31.2619 25.2698 31.5087 26.5884 31.7956L 27.4389 27.8871C 26.1061 27.5971 24.9041 27.3446 23.8322 27.1267L 23.0353 31.0465ZM 30.1502 32.5905C 31.254 32.8425 32.4285 33.1155 33.6867 33.4133L 34.6082 29.5209C 33.342 29.2212 32.1518 28.9446 31.0405 28.6908L 30.1502 32.5905ZM 37.2206 34.2625C 37.808 34.4056 38.4086 34.5529 39.0259 34.7052L 39.9841 30.8217C 39.3641 30.6687 38.7577 30.52 38.1675 30.3762L 37.2206 34.2625ZM 39.0259 34.7052C 39.6802 34.8667 40.3281 35.0267 40.9702 35.1853L 41.9295 31.302C 41.2873 31.1433 40.6388 30.9832 39.9841 30.8217L 39.0259 34.7052ZM 44.8269 36.138C 46.1356 36.4612 47.4207 36.7781 48.6839 37.0885L 49.6385 33.204C 48.3768 32.894 47.0939 32.5777 45.7857 32.2547L 44.8269 36.138ZM 52.5419 38.0322C 53.8539 38.3514 55.1465 38.6637 56.4195 38.9683L 57.3504 35.0781C 56.0816 34.7746 54.7964 34.464 53.4874 34.1456L 52.5419 38.0322ZM 60.2994 39.8863C 61.6074 40.1918 62.9031 40.4901 64.1836 40.7796L 65.0656 36.878C 63.7927 36.5903 62.511 36.2952 61.2093 35.9911L 60.2994 39.8863ZM 68.0802 41.6425C 69.3886 41.9259 70.6943 42.2018 71.9912 42.468L 72.7955 38.5497C 71.51 38.2858 70.2255 38.0144 68.9269 37.7332L 68.0802 41.6425ZM 75.9125 43.2479C 77.2191 43.4992 78.5334 43.7429 79.8467 43.9768L 80.5478 40.0387C 79.2487 39.8074 77.9615 39.5687 76.6679 39.3199L 75.9125 43.2479ZM 83.7921 44.6495C 85.0981 44.8622 86.4216 45.0677 87.7519 45.2637L 88.3348 41.3064C 87.02 41.1127 85.7266 40.9119 84.4352 40.7015L 83.7921 44.6495ZM 91.7155 45.8168C 93.0182 45.9884 94.3453 46.1534 95.6859 46.3099L 96.1496 42.3368C 94.8238 42.1821 93.5263 42.0208 92.2382 41.8511L 91.7155 45.8168ZM 99.6667 46.7455C 100.971 46.879 102.305 47.0064 103.656 47.1264L 104.01 43.1421C 102.672 43.0233 101.365 42.8984 100.074 42.7663L 99.6667 46.7455ZM 107.638 47.455C 108.939 47.5543 110.269 47.6483 111.621 47.7362L 111.88 43.7447C 110.54 43.6575 109.232 43.5651 107.943 43.4666L 107.638 47.455ZM 115.606 47.9745C 116.907 48.0457 118.238 48.1123 119.592 48.1738L 119.774 44.1779C 118.429 44.1168 117.116 44.0512 115.824 43.9805L 115.606 47.9745ZM 123.579 48.3378C 124.882 48.386 126.213 48.4303 127.567 48.4702L 127.685 44.472C 126.338 44.4322 125.022 44.3885 123.727 44.3405L 123.579 48.3378ZM 131.556 48.5742C 132.861 48.6039 134.194 48.6302 135.549 48.6528L 135.615 44.6534C 134.266 44.6308 132.946 44.6048 131.647 44.5753L 131.556 48.5742ZM 139.544 48.7085C 140.843 48.7231 142.167 48.7348 143.513 48.7435L 143.539 44.7435C 142.198 44.7349 140.883 44.7234 139.589 44.7088L 139.544 48.7085ZM 147.487 48.7601C 148.154 48.7615 148.827 48.7622 149.505 48.7622L 149.505 44.7622C 148.829 44.7622 148.16 44.7615 147.495 44.7601L 147.487 48.7601ZM 149.505 48.7622C 150.188 48.7622 150.872 48.7602 151.552 48.7563L 151.529 44.7564C 150.855 44.7602 150.182 44.7622 149.505 44.7622L 149.505 48.7622ZM 155.632 48.7099C 156.995 48.6867 158.357 48.6558 159.71 48.6179L 159.598 44.6195C 158.256 44.6571 156.915 44.6875 155.564 44.7104L 155.632 48.7099ZM 163.792 48.4811C 165.155 48.428 166.517 48.3677 167.87 48.3007L 167.673 44.3056C 166.33 44.3721 164.988 44.4315 163.637 44.4841L 163.792 48.4811ZM 171.944 48.0781C 173.304 47.9969 174.663 47.9087 176.014 47.8145L 175.736 43.8242C 174.395 43.9177 173.055 44.0046 171.706 44.0852L 171.944 48.0781ZM 180.08 47.5115C 181.437 47.4039 182.795 47.2898 184.144 47.1703L 183.791 43.1859C 182.451 43.3046 181.111 43.4171 179.763 43.524L 180.08 47.5115ZM 188.205 46.7927C 189.559 46.6609 190.914 46.5232 192.261 46.3807L 191.84 42.4029C 190.501 42.5445 189.163 42.6806 187.817 42.8116L 188.205 46.7927ZM 196.312 45.9362C 197.662 45.7826 199.013 45.6238 200.358 45.461L 199.877 41.49C 198.539 41.652 197.203 41.8091 195.86 41.9618L 196.312 45.9362ZM 204.399 44.9573C 205.746 44.7848 207.094 44.6076 208.436 44.4271L 207.903 40.4628C 206.567 40.6425 205.232 40.818 203.891 40.9897L 204.399 44.9573ZM 212.47 43.8726C 213.815 43.6839 215.16 43.4914 216.5 43.2962L 215.923 39.338C 214.588 39.5325 213.254 39.7235 211.914 39.9114L 212.47 43.8726ZM 220.525 42.7003C 221.866 42.4987 223.208 42.294 224.546 42.0873L 223.935 38.1342C 222.601 38.3403 221.267 38.5438 219.93 38.7448L 220.525 42.7003ZM 228.563 41.4595C 229.902 41.248 231.241 41.0344 232.578 40.8195L 231.943 36.8702C 230.608 37.0848 229.275 37.2975 227.939 37.5085L 228.563 41.4595ZM 236.59 40.1696C 237.926 39.9516 239.263 39.7323 240.599 39.5124L 239.949 35.5656C 238.615 35.7853 237.281 36.004 235.946 36.2217L 236.59 40.1696ZM 244.606 38.8506C 245.941 38.6295 247.277 38.408 248.612 38.1865L 247.957 34.2405C 246.622 34.4619 245.287 34.6833 243.953 34.9043L 244.606 38.8506ZM 252.616 37.5228C 253.95 37.302 255.284 37.0816 256.62 36.862L 255.97 32.915C 254.634 33.1349 253.298 33.3556 251.963 33.5765L 252.616 37.5228ZM 260.623 36.2065C 261.957 35.9892 263.291 35.7733 264.627 35.5588L 263.992 31.6094C 262.654 31.8243 261.316 32.0409 259.98 32.2585L 260.623 36.2065ZM 268.63 34.9216C 269.963 34.7113 271.297 34.5032 272.634 34.2971L 272.024 30.3438C 270.684 30.5505 269.344 30.7596 268.007 30.9704L 268.63 34.9216ZM 276.639 33.6877C 277.973 33.4875 279.307 33.2903 280.646 33.0958L 280.071 29.1374C 278.727 29.3326 277.384 29.5312 276.046 29.732L 276.639 33.6877ZM 284.655 32.5235C 285.991 32.3364 287.326 32.1531 288.667 31.9731L 288.135 28.0086C 286.788 28.1894 285.441 28.3743 284.1 28.5622L 284.655 32.5235ZM 292.68 31.4469C 294.016 31.2761 295.351 31.1096 296.694 30.9471L 296.213 26.9761C 294.864 27.1394 293.515 27.3076 292.172 27.4793L 292.68 31.4469ZM 300.711 30.4754C 301.381 30.3991 302.051 30.3242 302.723 30.2503L 302.287 26.2742C 301.61 26.3486 300.933 26.4243 300.259 26.501L 300.711 30.4754ZM 302.723 30.2503C 303.376 30.1786 304.033 30.1041 304.687 30.0277L 304.223 26.0547C 303.576 26.1303 302.932 26.2033 302.287 26.2742L 302.723 30.2503ZM 308.614 29.5431C 309.916 29.3738 311.227 29.1954 312.533 29.0098L 311.97 25.0496C 310.676 25.2335 309.389 25.4088 308.098 25.5764L 308.614 29.5431ZM 316.444 28.4315C 317.742 28.2322 319.046 28.0248 320.346 27.8116L 319.699 23.8643C 318.409 24.076 317.124 24.2801 315.837 24.4778L 316.444 28.4315ZM 324.241 27.1535C 325.535 26.9286 326.833 26.6969 328.127 26.4603L 327.408 22.5255C 326.122 22.7606 324.841 22.9893 323.556 23.2125L 324.241 27.1535ZM 332.006 25.7349C 333.296 25.4884 334.589 25.2362 335.879 24.9801L 335.099 21.0568C 333.817 21.3115 332.538 21.5609 331.256 21.806L 332.006 25.7349ZM 339.744 24.1987C 341.031 23.9342 342.319 23.6652 343.604 23.3932L 342.775 19.48C 341.496 19.7508 340.22 20.0174 338.939 20.2805L 339.744 24.1987ZM 347.458 22.5665C 348.741 22.2877 350.026 22.0053 351.306 21.721L 350.438 17.8161C 349.162 18.0995 347.887 18.3799 346.609 18.6577L 347.458 22.5665ZM 355.149 20.8591C 356.43 20.5692 357.71 20.2769 358.987 19.9835L 358.091 16.0852C 356.817 16.3779 355.543 16.6687 354.266 16.9578L 355.149 20.8591ZM 362.822 19.0963C 364.102 18.7984 365.38 18.4994 366.654 18.2001L 365.739 14.3061C 364.467 14.605 363.193 14.9031 361.915 15.2004L 362.822 19.0963ZM 370.483 17.2973C 371.762 16.9949 373.038 16.6924 374.31 16.3907L 373.387 12.4987C 372.115 12.8004 370.841 13.1025 369.563 13.4047L 370.483 17.2973ZM 378.135 15.4827C 379.414 15.1791 380.689 14.8768 381.959 14.5761L 381.037 10.6837C 379.766 10.9846 378.491 11.2872 377.211 11.5908L 378.135 15.4827ZM 385.782 13.6737C 387.061 13.3726 388.335 13.0741 389.604 12.7783L 388.697 8.88267C 387.425 9.179 386.147 9.47846 384.865 9.77999L 385.782 13.6737ZM 393.428 11.8931C 394.709 11.5985 395.983 11.3079 397.252 11.0213L 396.371 7.11959C 395.098 7.40715 393.816 7.69937 392.531 7.99479L 393.428 11.8931ZM 401.078 10.1665C 402.363 9.88285 403.638 9.60502 404.907 9.33241L 404.068 5.42153C 402.792 5.69546 401.506 5.97578 400.216 6.26057L 401.078 10.1665ZM 408.739 8.52324C 410.028 8.25595 411.304 7.99637 412.575 7.74358L 411.795 3.82041C 410.515 4.07491 409.223 4.33777 407.927 4.60661L 408.739 8.52324ZM 416.415 6.99851C 417.709 6.75409 418.987 6.51958 420.26 6.29375L 419.562 2.35524C 418.277 2.58314 416.977 2.82167 415.673 3.06803L 416.415 6.99851ZM 424.11 5.63577C 425.41 5.42248 426.69 5.22168 427.965 5.03192L 427.377 1.0755C 426.086 1.26759 424.776 1.47301 423.463 1.68857L 424.11 5.63577ZM 431.825 4.49065C 432.47 4.40588 433.108 4.32521 433.746 4.24758L 433.264 0.276819C 432.615 0.355647 431.959 0.438705 431.304 0.524673L 431.825 4.49065ZM 433.746 4.24758C 434.382 4.1703 435.022 4.09398 435.671 4.01829L 435.207 0.0452397C 434.553 0.121526 433.904 0.198988 433.264 0.276819L 433.746 4.24758ZM 439.554 3.58583C 440.83 3.45071 442.122 3.32106 443.439 3.19728L 443.065 -0.785174C 441.735 -0.660193 440.42 -0.528196 439.133 -0.391941L 439.554 3.58583ZM 447.327 2.85668C 448.61 2.7526 449.902 2.65619 451.216 2.56778L 450.948 -1.42319C 449.619 -1.33378 448.3 -1.23533 447.004 -1.13023L 447.327 2.85668ZM 455.107 2.33417C 456.395 2.26636 457.688 2.20795 458.999 2.15942L 458.851 -1.83784C 457.524 -1.78868 456.2 -1.72887 454.897 -1.66031L 455.107 2.33417ZM 462.892 2.04714C 464.184 2.02063 465.476 2.00495 466.784 2.001L 466.772 -1.99898C 465.445 -1.99493 464.118 -1.97884 462.81 -1.95202L 462.892 2.04714ZM 470.675 2.02477C 471.968 2.04471 473.258 2.07673 474.562 2.12235L 474.702 -1.87521C 473.378 -1.92148 472.049 -1.95448 470.736 -1.97476L 470.675 2.02477ZM 478.445 2.29777C 479.738 2.36961 481.023 2.45462 482.321 2.55521L 482.63 -1.43285C 481.309 -1.53511 479.981 -1.623 478.667 -1.69606L 478.445 2.29777ZM 486.187 2.89888C 487.475 3.02834 488.751 3.17188 490.04 3.33315L 490.537 -0.635915C 489.223 -0.800208 487.898 -0.949167 486.588 -1.08104L 486.187 2.89888ZM 493.879 3.86282C 495.158 4.05614 496.424 4.26432 497.7 4.49264L 498.404 0.555098C 497.1 0.321989 495.782 0.105053 494.477 -0.092265L 493.879 3.86282ZM 501.5 5.22743C 502.766 5.4911 504.015 5.77016 505.274 6.07206L 506.206 2.18227C 504.917 1.87332 503.61 1.58118 502.316 1.31148L 501.5 5.22743ZM 509.017 7.03138C 510.263 7.37193 511.488 7.72816 512.723 8.1102L 513.905 4.28874C 512.637 3.8968 511.348 3.52207 510.071 3.17289L 509.017 7.03138ZM 516.388 9.31305C 517.607 9.73665 518.801 10.1759 520.004 10.6441L 521.455 6.91635C 520.217 6.43471 518.954 5.97036 517.702 5.53495L 516.388 9.31305ZM 523.565 12.1076C 524.747 12.6197 525.901 13.1469 527.064 13.7067L 528.799 10.1026C 527.6 9.52544 526.373 8.96525 525.156 8.43759L 523.565 12.1076ZM 530.493 15.4444C 531.627 16.049 532.732 16.6679 533.844 17.3228L 535.874 13.8762C 534.724 13.1995 533.545 12.539 532.374 11.9147L 530.493 15.4444ZM 537.109 19.3433C 538.185 20.0419 539.23 20.7537 540.28 21.5049L 542.607 18.2512C 541.52 17.4738 540.401 16.7115 539.288 15.9887L 537.109 19.3433ZM 543.346 23.8043C 544.352 24.5947 545.326 25.397 546.303 26.2413L 548.918 23.2142C 547.905 22.3395 546.86 21.4786 545.819 20.66L 543.346 23.8043ZM 549.144 28.8127C 550.071 29.6918 550.967 30.5815 551.865 31.5152L 554.749 28.7434C 553.819 27.7761 552.857 26.821 551.896 25.9101L 549.144 28.8127ZM 554.461 34.3446C 555.301 35.3031 556.111 36.2708 556.919 37.2834L 560.045 34.7871C 559.207 33.7389 558.339 32.7015 557.47 31.7089L 554.461 34.3446ZM 559.242 40.3288C 559.621 40.8504 559.991 41.3697 560.362 41.9048L 563.648 39.6226C 563.263 39.0693 562.868 38.5139 562.475 37.9745L 559.242 40.3288ZM 560.362 41.9048C 560.722 42.4227 561.073 42.9405 561.427 43.4786L 564.767 41.2776C 564.399 40.7194 564.021 40.1609 563.648 39.6226L 560.362 41.9048ZM 563.5 46.7896C 564.151 47.8831 564.781 48.9935 565.41 50.1545L 568.927 48.2489C 568.279 47.0533 567.609 45.8728 566.937 44.7439L 563.5 46.7896ZM 567.2 53.6102C 567.776 54.7721 568.334 55.9474 568.887 57.1652L 572.529 55.5104C 571.962 54.2625 571.375 53.0266 570.784 51.8341L 567.2 53.6102ZM 570.438 60.7229C 570.938 61.9174 571.421 63.122 571.899 64.362L 575.631 62.9246C 575.144 61.6582 574.639 60.4007 574.128 59.1796L 570.438 60.7229ZM 573.259 68.0417C 573.691 69.2601 574.109 70.4858 574.519 71.7418L 578.321 70.4992C 577.903 69.2196 577.469 67.9464 577.029 66.7043L 573.259 68.0417ZM 575.701 75.5099C 576.072 76.7468 576.43 77.9889 576.78 79.2573L 580.636 78.1929C 580.28 76.9028 579.91 75.6173 579.531 74.3587L 575.701 75.5099ZM 577.79 83.077C 578.107 84.333 578.411 85.5926 578.707 86.8754L 582.605 85.9769C 582.304 84.6738 581.99 83.3736 581.668 82.0973L 577.79 83.077ZM 579.554 90.73C 579.82 92.0023 580.073 93.2767 580.317 94.5719L 584.248 93.8305C 584 92.516 583.739 91.203 583.469 89.9113L 579.554 90.73ZM 581.011 98.4553C 581.228 99.7397 581.432 101.025 581.627 102.329L 585.583 101.738C 585.385 100.415 585.175 99.0931 584.955 97.7901L 581.011 98.4553ZM 582.173 106.236C 582.342 107.529 582.498 108.822 582.645 110.131L 586.62 109.686C 586.471 108.359 586.31 107.03 586.139 105.719L 582.173 106.236ZM 583.048 114.057C 583.17 115.356 583.28 116.654 583.379 117.967L 587.368 117.665C 587.267 116.334 587.154 115.001 587.031 113.684L 583.048 114.057ZM 583.642 121.907C 583.717 123.21 583.781 124.511 583.834 125.825L 587.831 125.665C 587.777 124.332 587.712 122.997 587.635 121.676L 583.642 121.907ZM 583.958 129.775C 583.988 131.08 584.006 132.381 584.012 133.696L 588.012 133.675C 588.005 132.343 587.987 131.007 587.957 129.684L 583.958 129.775ZM 583.998 137.643C 583.982 138.95 583.954 140.253 583.915 141.568L 587.913 141.687C 587.953 140.355 587.981 139.018 587.998 137.693L 583.998 137.643ZM 583.762 145.507C 583.7 146.815 583.626 148.118 583.54 149.431L 587.532 149.692C 587.619 148.361 587.694 147.023 587.757 145.697L 583.762 145.507ZM 583.249 153.358C 583.14 154.665 583.02 155.966 582.888 157.277L 586.867 157.68C 587.002 156.351 587.125 155.014 587.235 153.689L 583.249 153.358ZM 582.456 161.186C 582.301 162.49 582.134 163.786 581.954 165.093L 585.916 165.64C 586.099 164.315 586.27 162.982 586.428 161.66L 582.456 161.186ZM 581.381 168.979C 581.177 170.278 580.963 171.569 580.735 172.868L 584.674 173.561C 584.906 172.243 585.126 170.916 585.333 169.599L 581.381 168.979ZM 580.019 176.728C 579.767 178.017 579.505 179.297 579.228 180.585L 583.139 181.426C 583.42 180.119 583.69 178.802 583.945 177.494L 580.019 176.728ZM 578.366 184.418C 578.066 185.695 577.755 186.963 577.429 188.238L 581.304 189.229C 581.635 187.934 581.955 186.63 582.26 185.333L 578.366 184.418ZM 576.417 192.037C 576.068 193.301 575.708 194.553 575.332 195.813L 579.165 196.957C 579.547 195.678 579.918 194.387 580.273 193.104L 576.417 192.037ZM 574.169 199.572C 573.769 200.82 573.36 202.055 572.933 203.297L 576.717 204.596C 577.15 203.334 577.572 202.06 577.978 200.793L 574.169 199.572ZM 571.618 207.005C 571.167 208.235 570.707 209.452 570.229 210.675L 573.955 212.13C 574.44 210.887 574.916 209.631 575.373 208.382L 571.618 207.005ZM 568.761 214.32C 568.258 215.531 567.746 216.728 567.216 217.93L 570.876 219.544C 571.415 218.321 571.944 217.085 572.455 215.854L 568.761 214.32ZM 565.593 221.505C 565.038 222.693 564.474 223.868 563.89 225.048L 567.476 226.82C 568.069 225.621 568.653 224.406 569.217 223.198L 565.593 221.505ZM 562.114 228.542C 561.507 229.705 560.89 230.853 560.254 232.006L 563.757 233.938C 564.404 232.765 565.041 231.577 565.66 230.394L 562.114 228.542ZM 558.323 235.415C 557.664 236.548 556.997 237.665 556.31 238.786L 559.72 240.877C 560.419 239.736 561.11 238.579 561.78 237.426L 558.323 235.415ZM 554.22 242.108C 553.51 243.206 552.794 244.289 552.056 245.375L 555.365 247.623C 556.116 246.517 556.858 245.395 557.58 244.277L 554.22 242.108ZM 549.807 248.604C 549.049 249.665 548.283 250.71 547.496 251.758L 550.695 254.16C 551.496 253.093 552.29 252.009 553.061 250.929L 549.807 248.604ZM 545.1 254.872C 544.29 255.897 543.474 256.907 542.636 257.918L 545.716 260.471C 546.57 259.44 547.416 258.394 548.24 257.349L 545.1 254.872ZM 540.099 260.906C 539.239 261.896 538.371 262.869 537.482 263.843L 540.435 266.54C 541.341 265.548 542.241 264.539 543.117 263.532L 540.099 260.906ZM 534.813 266.696C 533.906 267.642 532.993 268.572 532.057 269.502L 534.878 272.339C 535.83 271.391 536.777 270.427 537.7 269.464L 534.813 266.696ZM 529.248 272.229C 528.301 273.127 527.348 274.009 526.372 274.89L 529.053 277.859C 530.046 276.961 531.035 276.047 531.999 275.132L 529.248 272.229ZM 523.415 277.496C 522.431 278.344 521.442 279.175 520.429 280.005L 522.966 283.098C 523.997 282.252 525.022 281.391 526.025 280.528L 523.415 277.496ZM 517.359 282.464C 516.839 282.87 516.319 283.271 515.792 283.674L 518.218 286.854C 518.755 286.445 519.293 286.029 519.822 285.615L 517.359 282.464ZM 515.792 283.674C 515.297 284.052 514.811 284.395 514.277 284.746L 516.474 288.088C 517.065 287.7 517.665 287.275 518.218 286.854L 515.792 283.674ZM 510.991 286.618C 509.864 287.175 508.721 287.666 507.472 288.134L 508.875 291.88C 510.213 291.378 511.54 290.807 512.761 290.205L 510.991 286.618ZM 503.79 289.339C 502.559 289.69 501.313 289.998 499.992 290.281L 500.829 294.192C 502.212 293.896 503.587 293.556 504.885 293.187L 503.79 289.339ZM 496.116 290.997C 494.847 291.197 493.566 291.368 492.23 291.516L 492.673 295.492C 494.052 295.338 495.422 295.155 496.738 294.948L 496.116 290.997ZM 488.296 291.876C 486.99 291.971 485.675 292.044 484.318 292.097L 484.476 296.094C 485.865 296.039 487.246 295.963 488.586 295.866L 488.296 291.876ZM 480.336 292.197C 479.029 292.211 477.714 292.209 476.367 292.191L 476.313 296.191C 477.684 296.209 479.048 296.211 480.38 296.196L 480.336 292.197ZM 472.363 292.092C 471.045 292.046 469.72 291.986 468.371 291.913L 468.153 295.907C 469.521 295.981 470.884 296.043 472.222 296.09L 472.363 292.092ZM 464.387 291.661C 463.059 291.566 461.726 291.46 460.372 291.342L 460.025 295.327C 461.394 295.446 462.758 295.555 464.102 295.651L 464.387 291.661ZM 456.402 290.97C 455.078 290.836 453.75 290.694 452.406 290.542L 451.956 294.517C 453.312 294.67 454.665 294.815 456.001 294.949L 456.402 290.97ZM 448.421 290.068C 447.102 289.904 445.779 289.733 444.443 289.553L 443.909 293.517C 445.255 293.698 446.598 293.872 447.927 294.038L 448.421 290.068ZM 440.453 288.996C 439.137 288.806 437.819 288.611 436.49 288.408L 435.886 292.362C 437.223 292.566 438.558 292.764 439.883 292.955L 440.453 288.996ZM 432.502 287.783C 431.188 287.572 429.872 287.356 428.547 287.134L 427.886 291.079C 429.217 291.302 430.547 291.521 431.869 291.733L 432.502 287.783ZM 424.573 286.455C 423.257 286.226 421.941 285.993 420.618 285.755L 419.909 289.691C 421.237 289.931 422.565 290.166 423.887 290.396L 424.573 286.455ZM 416.653 285.03C 415.337 284.786 414.021 284.538 412.7 284.287L 411.952 288.216C 413.277 288.469 414.603 288.718 415.924 288.963L 416.653 285.03ZM 408.743 283.525C 407.427 283.268 406.111 283.009 404.792 282.747L 404.012 286.67C 405.334 286.933 406.658 287.194 407.978 287.451L 408.743 283.525ZM 400.841 281.954C 399.525 281.688 398.209 281.419 396.893 281.148L 396.087 285.067C 397.407 285.338 398.728 285.607 400.047 285.875L 400.841 281.954ZM 392.945 280.331C 391.629 280.057 390.315 279.781 389.001 279.504L 388.176 283.418C 389.492 283.696 390.811 283.972 392.129 284.247L 392.945 280.331ZM 385.054 278.668C 383.739 278.388 382.425 278.108 381.114 277.827L 380.275 281.738C 381.588 282.019 382.904 282.3 384.222 282.581L 385.054 278.668ZM 377.166 276.978C 375.851 276.694 374.539 276.41 373.23 276.127L 372.383 280.036C 373.693 280.32 375.006 280.604 376.323 280.888L 377.166 276.978ZM 369.278 275.27C 367.963 274.985 366.653 274.7 365.347 274.417L 364.498 278.326C 365.804 278.609 367.115 278.894 368.43 279.179L 369.278 275.27ZM 361.389 273.558C 360.071 273.273 358.759 272.989 357.453 272.707L 356.609 276.617C 357.914 276.899 359.225 277.182 360.542 277.468L 361.389 273.558ZM 353.495 271.855C 352.173 271.571 350.857 271.29 349.55 271.012L 348.717 274.924C 350.022 275.202 351.335 275.483 352.656 275.766L 353.495 271.855ZM 345.595 270.175C 344.266 269.896 342.945 269.62 341.634 269.348L 340.822 273.265C 342.129 273.536 343.445 273.811 344.771 274.09L 345.595 270.175ZM 337.688 268.536C 336.35 268.264 335.021 267.996 333.706 267.734L 332.924 271.657C 334.234 271.918 335.555 272.184 336.889 272.456L 337.688 268.536ZM 329.754 266.957C 328.41 266.696 327.078 266.442 325.764 266.195L 325.026 270.127C 326.334 270.372 327.654 270.624 328.992 270.884L 329.754 266.957ZM 321.776 265.462C 320.439 265.221 319.116 264.988 317.814 264.766L 317.139 268.708C 318.432 268.929 319.739 269.159 321.067 269.399L 321.776 265.462ZM 313.782 264.096C 313.12 263.99 312.461 263.886 311.81 263.786L 311.2 267.739C 311.845 267.838 312.492 267.94 313.148 268.046L 313.782 264.096ZM 311.81 263.786C 311.16 263.685 310.508 263.581 309.846 263.473L 309.198 267.42C 309.87 267.53 310.54 267.637 311.2 267.739L 311.81 263.786ZM 305.862 262.784C 304.553 262.547 303.229 262.298 301.878 262.034L 301.112 265.96C 302.475 266.226 303.826 266.481 305.15 266.721L 305.862 262.784ZM 297.916 261.236C 296.614 260.967 295.299 260.688 293.964 260.398L 293.115 264.307C 294.46 264.598 295.793 264.882 297.104 265.153L 297.916 261.236ZM 290.006 259.521C 288.697 259.226 287.377 258.923 286.04 258.612L 285.134 262.508C 286.477 262.82 287.81 263.126 289.126 263.423L 290.006 259.521ZM 282.096 257.682C 280.794 257.371 279.482 257.054 278.156 256.731L 277.209 260.618C 278.539 260.942 279.86 261.26 281.167 261.572L 282.096 257.682ZM 274.204 255.76C 272.898 255.437 271.584 255.109 270.259 254.777L 269.286 258.657C 270.614 258.99 271.934 259.319 273.242 259.643L 274.204 255.76ZM 266.325 253.786C 265.018 253.454 263.703 253.12 262.378 252.782L 261.39 256.658C 262.716 256.996 264.034 257.332 265.343 257.663L 266.325 253.786ZM 258.437 251.775C 257.133 251.44 255.821 251.104 254.502 250.765L 253.507 254.639C 254.827 254.978 256.139 255.315 257.445 255.649L 258.437 251.775ZM 250.553 249.75C 249.247 249.415 247.934 249.078 246.615 248.74L 245.622 252.614C 246.94 252.952 248.251 253.289 249.557 253.625L 250.553 249.75ZM 242.672 247.73C 241.36 247.394 240.042 247.058 238.719 246.722L 237.733 250.599C 239.055 250.935 240.371 251.27 241.682 251.605L 242.672 247.73ZM 234.779 245.724C 233.465 245.392 232.147 245.06 230.824 244.729L 229.853 248.61C 231.173 248.94 232.488 249.271 233.8 249.602L 234.779 245.724ZM 226.872 243.745C 225.557 243.42 224.238 243.095 222.916 242.771L 221.965 246.657C 223.284 246.98 224.598 247.303 225.91 247.628L 226.872 243.745ZM 218.95 241.808C 217.634 241.49 216.313 241.174 214.99 240.86L 214.066 244.752C 215.385 245.065 216.699 245.38 218.012 245.696L 218.95 241.808ZM 211.019 239.925C 209.698 239.617 208.372 239.311 207.047 239.007L 206.155 242.907C 207.476 243.209 208.794 243.513 210.111 243.821L 211.019 239.925ZM 203.068 238.107C 201.743 237.811 200.413 237.517 199.084 237.226L 198.23 241.134C 199.554 241.423 200.874 241.715 202.195 242.011L 203.068 238.107ZM 195.096 236.367C 193.766 236.084 192.433 235.804 191.101 235.529L 190.292 239.447C 191.618 239.72 192.94 239.998 194.264 240.279L 195.096 236.367ZM 187.101 234.716C 185.767 234.45 184.429 234.187 183.094 233.929L 182.336 237.857C 183.664 238.113 184.989 238.373 186.317 238.639L 187.101 234.716ZM 179.082 233.17C 177.743 232.922 176.4 232.678 175.061 232.44L 174.362 236.379C 175.693 236.615 177.021 236.856 178.353 237.103L 179.082 233.17ZM 171.038 231.743C 169.694 231.516 168.346 231.294 167.003 231.078L 166.371 235.028C 167.704 235.242 169.035 235.461 170.371 235.687L 171.038 231.743ZM 162.964 230.45C 161.616 230.247 160.265 230.05 158.92 229.861L 158.362 233.822C 159.697 234.009 161.029 234.204 162.368 234.406L 162.964 230.45ZM 154.863 229.311C 153.511 229.135 152.156 228.966 150.808 228.805L 150.336 232.777C 151.672 232.936 153.006 233.103 154.347 233.277L 154.863 229.311ZM 146.737 228.345C 145.378 228.199 144.016 228.062 142.664 227.934L 142.287 231.916C 143.627 232.043 144.964 232.178 146.311 232.322L 146.737 228.345ZM 138.588 227.575C 137.222 227.464 135.854 227.362 134.496 227.271L 134.228 231.262C 135.571 231.352 136.912 231.452 138.264 231.562L 138.588 227.575ZM 130.409 227.026C 129.041 226.955 127.669 226.894 126.31 226.844L 126.164 230.841C 127.507 230.89 128.847 230.95 130.2 231.021L 130.409 227.026ZM 122.206 226.729C 120.838 226.702 119.467 226.687 118.11 226.685L 118.103 230.685C 119.442 230.687 120.777 230.702 122.127 230.728L 122.206 226.729ZM 113.994 226.717C 113.313 226.729 112.628 226.744 111.95 226.763L 112.06 230.761C 112.728 230.743 113.393 230.728 114.064 230.716L 113.994 226.717ZM 112.005 226.762C 111.32 226.762 110.634 226.765 109.957 226.772L 109.994 230.771C 110.662 230.765 111.329 230.762 112.005 230.762L 112.005 226.762ZM 105.928 226.846C 104.559 226.885 103.196 226.937 101.86 227.002L 102.054 230.997C 103.369 230.933 104.691 230.883 106.041 230.845L 105.928 226.846ZM 97.8077 227.241C 96.4486 227.336 95.096 227.447 93.7724 227.57L 94.143 231.552C 95.4437 231.431 96.7507 231.325 98.0872 231.231L 97.8077 227.241ZM 89.7409 227.994C 88.3783 228.154 87.0222 228.332 85.6983 228.523L 86.2694 232.482C 87.5672 232.294 88.8715 232.124 90.2084 231.966L 89.7409 227.994ZM 81.6772 229.159C 80.3284 229.392 78.986 229.644 77.6786 229.91L 78.4758 233.83C 79.7539 233.57 81.0382 233.329 82.3581 233.101L 81.6772 229.159ZM 73.7045 230.783C 72.3722 231.098 71.046 231.435 69.7582 231.786L 70.8088 235.645C 72.064 235.304 73.325 234.983 74.6249 234.676L 73.7045 230.783ZM 65.8323 232.93C 64.5195 233.338 63.2129 233.772 61.9482 234.219L 63.2809 237.99C 64.5095 237.556 65.7439 237.146 67.0206 236.749L 65.8323 232.93ZM 58.1154 235.66C 56.8387 236.17 55.5683 236.709 54.3427 237.26L 55.9828 240.908C 57.1694 240.374 58.3616 239.869 59.599 239.375L 58.1154 235.66ZM 50.6401 239.024C 49.4129 239.643 48.1923 240.295 47.0188 240.957L 48.9848 244.441C 50.1175 243.801 51.2558 243.193 52.4415 242.595L 50.6401 239.024ZM 43.4906 243.062C 42.3288 243.794 41.1743 244.563 40.068 245.339L 42.3668 248.613C 43.4322 247.865 44.5035 247.151 45.6231 246.446L 43.4906 243.062ZM 36.7631 247.788C 35.6831 248.633 34.6114 249.516 33.5875 250.405L 36.2103 253.425C 37.1952 252.569 38.1869 251.752 39.2261 250.94L 36.7631 247.788ZM 30.5515 253.183C 29.5674 254.132 28.593 255.122 27.664 256.115L 30.5856 258.848C 31.4794 257.892 32.3811 256.976 33.3278 256.063L 30.5515 253.183ZM 24.9317 259.192C 24.0529 260.233 23.1853 261.316 22.3594 262.4L 25.5413 264.824C 26.3372 263.779 27.1424 262.774 27.9888 261.771L 24.9317 259.192ZM 19.9498 265.727C 19.1802 266.846 18.4229 268.004 17.7026 269.162L 21.0993 271.274C 21.7953 270.155 22.5018 269.075 23.2449 267.995L 19.9498 265.727ZM 15.6155 272.692C 14.9526 273.871 14.3027 275.088 13.6849 276.304L 17.2511 278.116C 17.8501 276.936 18.4604 275.794 19.1025 274.651L 15.6155 272.692ZM 11.9052 279.988C 11.3424 281.214 10.7927 282.474 10.2704 283.733L 13.9653 285.266C 14.4734 284.04 14.9933 282.848 15.5405 281.657L 11.9052 279.988ZM 8.77344 287.531C 8.30158 288.792 7.84264 290.083 7.40693 291.373L 11.1967 292.652C 11.6221 291.392 12.0592 290.163 12.5195 288.933L 8.77344 287.531ZM 6.16331 295.252C 5.96657 295.898 5.77191 296.556 5.58334 297.209L 9.42664 298.318C 9.61123 297.678 9.79769 297.048 9.99021 296.415L 6.16331 295.252ZM 5.58334 297.209C 5.40235 297.837 5.22251 298.477 5.04762 299.117L 8.90601 300.172C 9.07724 299.545 9.24953 298.932 9.42664 298.318L 5.58334 297.209ZM 4.0392 303.009C 3.72628 304.284 3.42213 305.593 3.13233 306.909L 7.03883 307.769C 7.3235 306.476 7.61681 305.214 7.924 303.962L 4.0392 303.009ZM 2.31855 310.813C 2.06407 312.104 1.81842 313.423 1.58552 314.747L 5.52505 315.44C 5.75439 314.135 5.9925 312.858 6.24301 311.587L 2.31855 310.813ZM 0.929427 318.703C 0.727393 319.997 0.534095 321.315 0.352287 322.636L 4.31496 323.181C 4.49429 321.878 4.68233 320.596 4.8816 319.319L 0.929427 318.703ZM -0.157403 326.596C -0.314847 327.907 -0.463422 329.239 -0.60117 330.572L 3.37767 330.983C 3.51369 329.666 3.6586 328.368 3.81409 327.072L -0.157403 326.596ZM -0.977984 334.529C -1.09276 335.843 -1.19868 337.175 -1.29443 338.507L 2.69528 338.794C 2.7899 337.477 2.89339 336.176 3.00685 334.877L -0.977984 334.529ZM -1.55061 342.488C -1.62542 343.803 -1.69138 345.133 -1.74767 346.462L 2.24875 346.631C 2.3044 345.317 2.36892 344.016 2.44293 342.715L -1.55061 342.488ZM -1.88801 350.451C -1.92498 351.77 -1.95301 353.101 -1.97168 354.43L 2.02792 354.486C 2.04638 353.171 2.07381 351.868 2.11042 350.563L -1.88801 350.451ZM -1.99999 358.413C -2.00024 359.736 -1.99135 361.071 -1.97332 362.401L 2.02631 362.347C 2.00845 361.03 1.99974 359.723 2.00001 358.414L -1.99999 358.413ZM -1.89223 366.379C -1.85621 367.702 -1.81087 369.035 -1.75658 370.364L 2.24008 370.2C 2.18633 368.886 2.14192 367.58 2.10629 366.27L -1.89223 366.379ZM -1.56681 374.34C -1.49467 375.662 -1.41296 376.992 -1.32245 378.317L 2.66824 378.044C 2.57865 376.733 2.49862 375.431 2.42724 374.122L -1.56681 374.34ZM -1.02325 382.29C -0.91463 383.61 -0.796141 384.938 -0.668941 386.258L 3.31261 385.874C 3.18674 384.568 3.07074 383.268 2.96328 381.962L -1.02325 382.29ZM -0.258626 390.221C -0.112714 391.539 0.0434581 392.863 0.20829 394.179L 4.17724 393.681C 4.01419 392.38 3.8614 391.085 3.71708 389.781L -0.258626 390.221ZM 0.732881 398.13C 0.91722 399.444 1.11229 400.763 1.31599 402.072L 5.26841 401.457C 5.06702 400.163 4.87634 398.873 4.69409 397.574L 0.732881 398.13ZM 1.95958 406.008C 2.18386 407.317 2.41944 408.629 2.66362 409.93L 6.59492 409.191C 6.35366 407.907 6.12367 406.625 5.90206 405.333L 1.95958 406.008ZM 3.43222 413.847C 3.69887 415.15 3.97754 416.456 4.26481 417.748L 8.16949 416.88C 7.88588 415.605 7.61424 414.332 7.35095 413.045L 3.43222 413.847ZM 5.16429 421.635C 5.47613 422.931 5.80087 424.229 6.13421 425.511L 10.0056 424.505C 9.6768 423.24 9.36086 421.977 9.05325 420.699L 5.16429 421.635ZM 7.17303 429.36C 7.53326 430.646 7.90746 431.933 8.29023 433.203L 12.12 432.048C 11.7429 430.798 11.3797 429.548 11.0248 428.281L 7.17303 429.36ZM 9.48274 437.017C 9.89381 438.286 10.3201 439.555 10.7547 440.804L 14.5324 439.489C 14.1049 438.261 13.6924 437.032 13.2879 435.784L 9.48274 437.017ZM 12.115 444.574C 12.5824 445.825 13.0665 447.075 13.5589 448.302L 17.2712 446.813C 16.7878 445.608 16.3209 444.402 15.8618 443.174L 12.115 444.574ZM 15.0979 452.003C 15.6284 453.234 16.1777 454.464 16.7349 455.668L 20.3647 453.987C 19.8188 452.808 19.2914 451.627 18.7713 450.42L 15.0979 452.003ZM 18.4679 459.277C 19.0668 460.479 19.6868 461.68 20.3142 462.85L 23.8393 460.959C 23.2264 459.816 22.6341 458.67 22.0486 457.494L 18.4679 459.277ZM 22.2719 466.365C 22.9435 467.526 23.6391 468.683 24.3413 469.806L 27.733 467.686C 27.0493 466.592 26.389 465.494 25.7343 464.362L 22.2719 466.365ZM 26.541 473.186C 27.2972 474.302 28.0813 475.413 28.8707 476.485L 32.0915 474.113C 31.3257 473.073 30.587 472.027 29.8526 470.943L 26.541 473.186ZM 31.3297 479.683C 32.1738 480.734 33.0501 481.777 33.9298 482.777L 36.9329 480.135C 36.0832 479.169 35.2646 478.195 34.4482 477.178L 31.3297 479.683ZM 36.6817 485.759C 37.1481 486.24 37.628 486.723 38.1038 487.191L 40.9062 484.336C 40.4484 483.887 40.0037 483.439 39.5546 482.976L 36.6817 485.759ZM 38.1038 487.191C 38.61 487.688 39.1332 488.185 39.6498 488.66L 42.3587 485.717C 41.8656 485.264 41.3893 484.811 40.9062 484.336L 38.1038 487.191ZM 42.8681 491.434C 43.9701 492.323 45.1195 493.188 46.263 493.991L 48.5624 490.718C 47.4721 489.953 46.4284 489.167 45.3788 488.32L 42.8681 491.434ZM 49.8191 496.318C 51.0226 497.05 52.2745 497.757 53.5182 498.408L 55.3733 494.864C 54.1854 494.243 53.0456 493.6 51.8983 492.901L 49.8191 496.318ZM 57.3371 500.258C 58.615 500.829 59.9391 501.373 61.2544 501.871L 62.6692 498.13C 61.4074 497.653 60.192 497.153 58.9692 496.606L 57.3371 500.258ZM 65.2505 503.256C 66.5777 503.676 67.9465 504.07 69.3074 504.426L 70.3184 500.556C 69.0053 500.213 67.7344 499.847 66.4574 499.443L 65.2505 503.256ZM 73.4094 505.394C 74.7652 505.681 76.1573 505.944 77.5432 506.176L 78.2044 502.231C 76.8591 502.006 75.5509 501.759 74.2382 501.481L 73.4094 505.394ZM 81.6979 506.789C 83.0674 506.964 84.4677 507.118 85.8638 507.248L 86.2336 503.265C 84.8709 503.139 83.5399 502.992 82.2062 502.821L 81.6979 506.789ZM 90.0334 507.568C 91.4074 507.653 92.8073 507.718 94.2047 507.765L 94.3379 503.767C 92.9674 503.721 91.6235 503.658 90.2785 503.576L 90.0334 507.568ZM 98.3743 507.85C 99.7486 507.862 101.145 507.857 102.54 507.838L 102.484 503.838C 101.11 503.857 99.7585 503.862 98.4074 503.85L 98.3743 507.85ZM 106.699 507.737C 108.072 507.691 109.462 507.631 110.852 507.56L 110.647 503.565C 109.273 503.636 107.918 503.694 106.564 503.74L 106.699 507.737ZM 114.997 507.314C 116.365 507.223 117.748 507.121 119.132 507.009L 118.812 503.022C 117.44 503.133 116.084 503.233 114.731 503.323L 114.997 507.314ZM 123.259 506.653C 124.624 506.527 126 506.392 127.379 506.251L 126.971 502.272C 125.602 502.412 124.245 502.545 122.892 502.669L 123.259 506.653ZM 131.493 505.81C 132.854 505.659 134.226 505.501 135.601 505.337L 135.129 501.365C 133.761 501.528 132.404 501.684 131.05 501.835L 131.493 505.81ZM 139.703 504.837C 141.063 504.667 142.431 504.493 143.802 504.315L 143.287 500.348C 141.92 500.525 140.562 500.699 139.208 500.868L 139.703 504.837ZM 147.896 503.775C 149.255 503.593 150.619 503.409 151.988 503.222L 151.447 499.259C 150.081 499.445 148.721 499.629 147.366 499.81L 147.896 503.775ZM 156.073 502.661C 157.428 502.473 158.789 502.285 160.154 502.095L 159.603 498.133C 158.239 498.323 156.88 498.511 155.525 498.698L 156.073 502.661ZM 164.234 501.528C 164.915 501.434 165.596 501.339 166.279 501.245L 165.731 497.282C 165.048 497.377 164.365 497.472 163.685 497.566L 164.234 501.528ZM 166.279 501.245C 166.957 501.151 167.637 501.055 168.315 500.958L 167.75 496.999C 167.075 497.095 166.404 497.189 165.731 497.282L 166.279 501.245ZM 172.388 500.359C 173.741 500.155 175.099 499.943 176.455 499.728L 175.826 495.777C 174.477 495.992 173.135 496.201 171.789 496.404L 172.388 500.359ZM 180.516 499.065C 181.866 498.84 183.22 498.609 184.571 498.375L 183.886 494.434C 182.542 494.667 181.201 494.896 179.858 495.12L 180.516 499.065ZM 188.62 497.657C 189.967 497.414 191.317 497.167 192.664 496.915L 191.93 492.983C 190.589 493.233 189.251 493.479 187.91 493.721L 188.62 497.657ZM 196.703 496.15C 198.047 495.892 199.394 495.629 200.737 495.364L 199.962 491.44C 198.623 491.704 197.287 491.965 195.948 492.222L 196.703 496.15ZM 204.766 494.558C 206.109 494.287 207.452 494.011 208.791 493.734L 207.981 489.817C 206.645 490.094 205.311 490.367 203.973 490.638L 204.766 494.558ZM 212.812 492.894C 214.152 492.611 215.492 492.326 216.828 492.039L 215.988 488.128C 214.655 488.414 213.322 488.698 211.986 488.98L 212.812 492.894ZM 220.84 491.17C 222.179 490.878 223.517 490.584 224.851 490.289L 223.987 486.383C 222.656 486.678 221.324 486.97 219.988 487.262L 220.84 491.17ZM 228.858 489.398C 230.196 489.098 231.532 488.798 232.862 488.497L 231.981 484.596C 230.652 484.896 229.321 485.195 227.985 485.494L 228.858 489.398ZM 236.864 487.59C 238.202 487.285 239.536 486.98 240.864 486.676L 239.971 482.777C 238.643 483.081 237.312 483.385 235.976 483.689L 236.864 487.59ZM 244.862 485.758C 246.199 485.451 247.531 485.144 248.858 484.838L 247.959 480.94C 246.633 481.246 245.301 481.553 243.965 481.86L 244.862 485.758ZM 252.852 483.916C 254.19 483.608 255.521 483.301 256.846 482.996L 255.948 479.098C 254.623 479.403 253.291 479.71 251.953 480.019L 252.852 483.916ZM 260.839 482.078C 262.177 481.771 263.508 481.467 264.832 481.165L 263.943 477.265C 262.618 477.567 261.284 477.872 259.945 478.179L 260.839 482.078ZM 268.826 480.259C 270.166 479.956 271.497 479.657 272.82 479.362L 271.949 475.458C 270.623 475.754 269.287 476.054 267.944 476.357L 268.826 480.259ZM 276.816 478.476C 278.16 478.181 279.491 477.89 280.815 477.605L 279.971 473.695C 278.644 473.981 277.304 474.273 275.957 474.569L 276.816 478.476ZM 284.816 476.751C 286.163 476.467 287.496 476.19 288.819 475.918L 288.016 472C 286.687 472.272 285.343 472.552 283.99 472.837L 284.816 476.751ZM 292.827 475.111C 294.179 474.843 295.514 474.584 296.838 474.332L 296.091 470.402C 294.759 470.655 293.409 470.918 292.05 471.187L 292.827 475.111ZM 300.852 473.589C 301.523 473.468 302.187 473.35 302.85 473.234L 302.16 469.293C 301.492 469.41 300.818 469.53 300.142 469.652L 300.852 473.589ZM 302.85 473.234C 303.549 473.111 304.239 472.99 304.921 472.87L 304.228 468.931C 303.547 469.05 302.858 469.171 302.16 469.293L 302.85 473.234ZM 308.966 472.155C 310.347 471.91 311.693 471.669 313.004 471.434L 312.298 467.497C 310.989 467.732 309.646 467.972 308.266 468.217L 308.966 472.155ZM 317.076 470.702C 318.469 470.45 319.822 470.205 321.138 469.967L 320.425 466.031C 319.109 466.27 317.757 466.514 316.366 466.765L 317.076 470.702ZM 325.193 469.231C 326.583 468.979 327.931 468.734 329.243 468.497L 328.531 464.561C 327.218 464.798 325.869 465.043 324.479 465.295L 325.193 469.231ZM 333.286 467.769C 334.675 467.521 336.023 467.282 337.339 467.051L 336.649 463.111C 335.328 463.342 333.974 463.583 332.582 463.832L 333.286 467.769ZM 341.396 466.351C 342.775 466.117 344.119 465.894 345.444 465.68L 344.806 461.731C 343.473 461.947 342.113 462.172 340.727 462.407L 341.396 466.351ZM 349.486 465.048C 350.852 464.842 352.195 464.648 353.54 464.462L 352.994 460.5C 351.636 460.687 350.267 460.885 348.89 461.093L 349.486 465.048ZM 357.595 463.933C 358.943 463.767 360.289 463.612 361.659 463.465L 361.232 459.488C 359.846 459.637 358.469 459.796 357.107 459.963L 357.595 463.933ZM 365.721 463.06C 367.055 462.937 368.405 462.823 369.796 462.715L 369.487 458.727C 368.082 458.836 366.703 458.953 365.354 459.077L 365.721 463.06ZM 373.887 462.426C 375.217 462.34 376.575 462.26 377.98 462.186L 377.768 458.191C 376.352 458.267 374.971 458.348 373.63 458.434L 373.887 462.426ZM 382.068 461.989C 383.396 461.931 384.757 461.878 386.165 461.828L 386.024 457.831C 384.608 457.881 383.231 457.935 381.894 457.993L 382.068 461.989ZM 390.27 461.697C 391.603 461.659 392.971 461.624 394.383 461.591L 394.291 457.592C 392.874 457.625 391.495 457.661 390.155 457.699L 390.27 461.697ZM 398.508 461.506C 399.838 461.482 401.202 461.46 402.604 461.439L 402.546 457.44C 401.14 457.46 399.769 457.483 398.435 457.507L 398.508 461.506ZM 406.7 461.387C 408.038 461.372 409.407 461.358 410.811 461.346L 410.777 457.346C 409.37 457.358 407.995 457.372 406.655 457.387L 406.7 461.387ZM 414.951 461.315C 416.29 461.307 417.658 461.299 419.058 461.293L 419.04 457.293C 417.638 457.299 416.267 457.307 414.926 457.315L 414.951 461.315ZM 423.156 461.278C 424.512 461.274 425.895 461.271 427.307 461.268L 427.301 457.268C 425.887 457.271 424.501 457.274 423.144 457.278L 423.156 461.278ZM 431.399 461.264C 432.094 461.264 432.796 461.264 433.505 461.264L 433.505 457.264C 432.796 457.264 432.093 457.264 431.397 457.264L 431.399 461.264ZM 433.505 461.264C 434.136 461.264 434.772 461.268 435.427 461.276L 435.478 457.276C 434.811 457.268 434.149 457.264 433.505 457.264L 433.505 461.264ZM 439.338 461.37C 440.613 461.415 441.914 461.472 443.255 461.543L 443.466 457.549C 442.108 457.477 440.771 457.418 439.477 457.373L 439.338 461.37ZM 447.173 461.781C 448.459 461.869 449.762 461.967 451.093 462.076L 451.42 458.09C 450.076 457.979 448.746 457.879 447.446 457.79L 447.173 461.781ZM 455.015 462.422C 456.308 462.544 457.612 462.674 458.936 462.814L 459.355 458.836C 458.02 458.695 456.694 458.562 455.39 458.44L 455.015 462.422ZM 462.842 463.246C 464.134 463.395 465.432 463.552 466.745 463.717L 467.243 459.748C 465.921 459.582 464.603 459.423 463.302 459.272L 462.842 463.246ZM 470.648 464.225C 471.944 464.4 473.242 464.581 474.551 464.769L 475.121 460.81C 473.803 460.62 472.487 460.437 471.183 460.261L 470.648 464.225ZM 478.45 465.348C 479.744 465.545 481.038 465.749 482.338 465.959L 482.975 462.01C 481.667 461.798 480.357 461.593 479.054 461.394L 478.45 465.348ZM 486.222 466.603C 487.517 466.823 488.809 467.048 490.103 467.28L 490.808 463.343C 489.505 463.11 488.197 462.881 486.894 462.659L 486.222 466.603ZM 493.976 467.99C 495.27 468.233 496.556 468.481 497.843 468.734L 498.616 464.809C 497.32 464.554 496.017 464.304 494.715 464.059L 493.976 467.99ZM 501.704 469.513C 502.997 469.78 504.278 470.05 505.557 470.327L 506.403 466.417C 505.115 466.139 503.814 465.864 502.513 465.595L 501.704 469.513ZM 509.397 471.177C 510.684 471.469 511.956 471.765 513.222 472.066L 514.148 468.175C 512.872 467.871 511.579 467.571 510.282 467.277L 509.397 471.177ZM 517.05 472.999C 518.337 473.321 519.605 473.646 520.862 473.977L 521.88 470.109C 520.61 469.774 519.319 469.443 518.02 469.119L 517.05 472.999ZM 524.656 475.002C 525.936 475.358 527.189 475.716 528.428 476.081L 529.557 472.243C 528.304 471.874 527.021 471.508 525.726 471.148L 524.656 475.002ZM 532.176 477.218C 533.448 477.616 534.682 478.016 535.896 478.422L 537.167 474.63C 535.934 474.217 534.661 473.805 533.371 473.401L 532.176 477.218ZM 539.583 479.706C 540.845 480.163 542.053 480.619 543.229 481.084L 544.699 477.364C 543.494 476.888 542.232 476.411 540.944 475.945L 539.583 479.706ZM 546.82 482.577C 548.063 483.122 549.218 483.66 550.323 484.213L 552.11 480.634C 550.956 480.058 549.712 479.478 548.426 478.914L 546.82 482.577ZM 553.676 486.027C 554.852 486.722 555.855 487.385 556.768 488.078L 559.183 484.889C 558.167 484.121 556.975 483.331 555.713 482.584L 553.676 486.027ZM 559.352 490.446C 559.749 490.912 560.012 491.284 560.253 491.727L 563.757 489.8C 563.406 489.167 562.914 488.465 562.401 487.858L 559.352 490.446Z"/>
  </defs>
  <path style="fill: none; paint-order: fill markers; stroke-linecap: round; stroke-width: 4; stroke-dasharray: 6, 8; stroke: rgb(225, 230, 230);" d="M 102.568 53.514 C 102.568 53.514 181.351 83.243 248.243 77.297 C 315.135 71.351 529.189 29.73 564.865 28.243 C 600.541 26.756 679.324 55 677.838 178.378 C 676.352 301.756 645.136 325.54 573.784 325.541 C 502.432 325.542 291.351 255.676 220 255.676 C 148.649 255.676 87.703 282.432 86.216 395.405 C 84.729 508.378 145.676 536.622 181.351 538.108 C 217.026 539.594 434.054 486.081 512.838 487.568 C 591.622 489.055 655.541 518.784 655.541 518.784"/>
</svg>
