<?xml version="1.0" encoding="utf-8"?>
<svg viewBox="0 0 775 660" width="775" height="660" xmlns="http://www.w3.org/2000/svg">
  <path style="fill: none; paint-order: fill markers; stroke-linecap: round; stroke-width: 4; stroke: rgb(233, 233, 233); stroke-dasharray: 5, 8; vector-effect: non-scaling-stroke;" d="M 102.568 53.514 C 102.568 53.514 181.351 83.243 248.243 77.297 C 315.135 71.351 529.189 29.73 564.865 28.243 C 600.541 26.756 695.675 55 694.189 178.378 C 694.113 184.655 693.961 190.673 693.73 196.444 C 689.423 304.114 641.506 325.54 573.784 325.541 C 502.432 325.542 291.351 255.676 220 255.676 C 148.649 255.676 87.703 282.432 86.216 395.405 C 84.729 508.378 145.676 536.622 181.351 538.108 C 217.026 539.594 434.054 486.081 512.838 487.568 C 591.622 489.055 655.541 518.784 655.541 518.784" transform="matrix(0.9999999999999999, 0, 0, 0.9999999999999999, -2.842170943040401e-14, 0)"/>
</svg>