<svg width="94" height="327" viewBox="0 0 94 327" version="1.1" xmlns="http://www.w3.org/2000/svg" xmlns:xlink="http://www.w3.org/1999/xlink">
<title>react-brand</title>
<desc>Created using Figma</desc>
<g id="Canvas" transform="translate(-6532 1046)">
<g id="react-brand">
<g id="Rectangle 3">
<use xlink:href="#path0_fill" transform="matrix(-2.18395e-16 -1 1 -1.61549e-16 6532 -719)" fill="#333333"/>
</g>
<g id="REACT">
<use xlink:href="#path1_fill" transform="matrix(6.12323e-17 1 -1 6.12323e-17 6607 -952.543)" fill="#F2F2F2"/>
</g>
<g id="Group">
<g id="Subtract">
<use xlink:href="#path2_fill" transform="matrix(-1 1.22465e-16 -1.22465e-16 -1 6605.58 -978.543)" fill="#00D8FF"/>
</g>
<g id="Vector">
<use xlink:href="#path3_fill" transform="matrix(-1 1.22465e-16 -1.22465e-16 -1 6583.7 -997.463)" fill="#00D8FF"/>
</g>
</g>
<g id="HUB">
<use xlink:href="#path4_fill" transform="matrix(1 -2.44929e-16 2.44929e-16 1 6532 -793)" fill="#BDBDBD"/>
</g>
</g>
</g>
<defs>
<path id="path0_fill" d="M 0 0L 327 0L 327 94L 0 94L 23.047 47L 0 0Z"/>
<path id="path1_fill" d="M 15.6797 32.5078L 10.0781 32.5078L 10.0781 45L 3.04688 45L 3.04688 10.875L 15.7266 10.875C 19.7578 10.875 22.8672 11.7734 25.0547 13.5703C 27.2422 15.3672 28.3359 17.9062 28.3359 21.1875C 28.3359 23.5156 27.8281 25.4609 26.8125 27.0234C 25.8125 28.5703 24.2891 29.8047 22.2422 30.7266L 29.625 44.6719L 29.625 45L 22.0781 45L 15.6797 32.5078ZM 10.0781 26.8125L 15.75 26.8125C 17.5156 26.8125 18.8828 26.3672 19.8516 25.4766C 20.8203 24.5703 21.3047 23.3281 21.3047 21.75C 21.3047 20.1406 20.8437 18.875 19.9219 17.9531C 19.0156 17.0312 17.6172 16.5703 15.7266 16.5703L 10.0781 16.5703L 10.0781 26.8125ZM 54.2344 30.2109L 40.7344 30.2109L 40.7344 39.3516L 56.5781 39.3516L 56.5781 45L 33.7031 45L 33.7031 10.875L 56.5312 10.875L 56.5312 16.5703L 40.7344 16.5703L 40.7344 24.7031L 54.2344 24.7031L 54.2344 30.2109ZM 79.9688 37.9688L 67.6406 37.9688L 65.2969 45L 57.8203 45L 70.5234 10.875L 77.0391 10.875L 89.8125 45L 82.3359 45L 79.9688 37.9688ZM 69.5391 32.2734L 78.0703 32.2734L 73.7812 19.5L 69.5391 32.2734ZM 119.273 33.6328C 119.008 37.3047 117.648 40.1953 115.195 42.3047C 112.758 44.4141 109.539 45.4688 105.539 45.4688C 101.164 45.4688 97.7188 44 95.2031 41.0625C 92.7031 38.1094 91.4531 34.0625 91.4531 28.9219L 91.4531 26.8359C 91.4531 23.5547 92.0312 20.6641 93.1875 18.1641C 94.3437 15.6641 95.9922 13.75 98.1328 12.4219C 100.289 11.0781 102.789 10.4062 105.633 10.4062C 109.57 10.4062 112.742 11.4609 115.148 13.5703C 117.555 15.6797 118.945 18.6406 119.32 22.4531L 112.289 22.4531C 112.117 20.25 111.5 18.6562 110.438 17.6719C 109.391 16.6719 107.789 16.1719 105.633 16.1719C 103.289 16.1719 101.531 17.0156 100.359 18.7031C 99.2031 20.375 98.6094 22.9766 98.5781 26.5078L 98.5781 29.0859C 98.5781 32.7734 99.1328 35.4688 100.242 37.1719C 101.367 38.875 103.133 39.7266 105.539 39.7266C 107.711 39.7266 109.328 39.2344 110.391 38.25C 111.469 37.25 112.086 35.7109 112.242 33.6328L 119.273 33.6328ZM 148.875 16.5703L 138.422 16.5703L 138.422 45L 131.391 45L 131.391 16.5703L 121.078 16.5703L 121.078 10.875L 148.875 10.875L 148.875 16.5703Z"/>
<path id="path2_fill" fill-rule="evenodd" d="M 42.0959 14.8406C 42.6721 15.0065 43.2441 15.187 43.8113 15.3817C 49.5664 17.3649 53.2852 20.4714 53.2852 23.6835C 53.2852 27.0335 49.311 30.3089 43.2021 32.3347C 42.8794 32.4419 42.5486 32.5448 42.2112 32.6445C 42.3315 33.1289 42.439 33.6045 42.5308 34.0703C 43.7368 40.168 42.8081 45.1798 39.95 46.836C 37.1826 48.4396 32.71 46.8644 28.1814 42.9634C 27.6892 42.5384 27.2087 42.0997 26.741 41.6479C 26.3696 42.0074 25.9985 42.3504 25.6292 42.6738C 20.9536 46.7648 16.1523 48.462 13.2915 46.8108C 10.522 45.2115 9.65137 40.5462 10.7659 34.6706C 10.8877 34.032 11.0273 33.397 11.1846 32.7663C 10.7007 32.628 10.2202 32.4776 9.74365 32.3154C 3.86743 30.3051 0 26.9893 0 23.6835C 0 20.483 3.60278 17.3972 9.24414 15.4284C 9.87476 15.2084 10.5339 15.0016 11.2163 14.8076C 11.0701 14.2221 10.939 13.633 10.8225 13.0409C 9.65356 7.06145 10.4761 2.28284 13.2532 0.673611C 16.1492 -1.00456 20.9724 0.797543 25.7844 5.07452C 26.0837 5.34114 26.3782 5.61329 26.6675 5.89082C 27.0994 5.47344 27.5417 5.06704 27.9941 4.67203C 32.5854 0.672428 37.1316 -1.00078 39.9114 0.60397C 42.8105 2.27718 43.6594 7.36007 42.3611 13.6695C 42.28 14.0615 42.1917 14.452 42.0959 14.8406ZM 41.5916 30.4522C 41.8962 30.3617 42.1953 30.2685 42.4866 30.172C 47.7607 28.4225 51.0093 25.7456 51.0093 23.6835C 51.0093 21.7478 48.0017 19.2354 43.0706 17.5365C 42.5608 17.3606 42.0315 17.1942 41.4866 17.036C 40.8311 19.1594 39.9561 21.4027 38.8933 23.6949C 40.0068 26.0425 40.917 28.3151 41.5916 30.4522ZM 40.5542 41.5527C 40.9075 39.647 40.8313 37.2092 40.2981 34.5129C 40.2148 34.092 40.1182 33.6617 40.0098 33.2226C 37.8025 33.7332 35.3689 34.1073 32.7927 34.3361C 31.3284 36.4583 29.8279 38.3695 28.3264 40.0134C 28.7749 40.4454 29.2222 40.8538 29.6663 41.2362C 33.5391 44.5722 37.1304 45.837 38.8096 44.864C 39.5986 44.4067 40.2368 43.2651 40.5542 41.5527ZM 14.4292 44.8366C 15.219 45.2924 16.5256 45.2759 18.1663 44.6959C 19.9919 44.0503 22.064 42.7671 24.1313 40.9579C 24.4773 40.6543 24.8159 40.3423 25.1465 40.0221C 23.5906 38.3506 22.0466 36.4418 20.5725 34.3651C 17.9902 34.1555 15.5742 33.8078 13.3918 33.3246C 13.2458 33.9112 13.116 34.5017 13.0027 35.0955C 12.0498 40.1201 12.7483 43.8664 14.4292 44.8366ZM 4.26538 26.8543C 5.73608 28.1149 7.88184 29.2702 10.4802 30.1592C 10.915 30.3074 11.3538 30.4448 11.7954 30.5714C 12.4685 28.3748 13.3557 26.0687 14.425 23.739C 13.3694 21.4436 12.4946 19.1736 11.8279 17.0025C 11.2109 17.1771 10.5994 17.3697 9.9939 17.5802C 5.16919 19.264 2.27637 21.7415 2.27637 23.6835C 2.27637 24.5964 2.94385 25.7212 4.26538 26.8543ZM 14.3938 2.64568C 12.7202 3.61543 12.0552 7.48 13.0566 12.6033C 13.165 13.1541 13.2871 13.7018 13.4229 14.2465C 15.6284 13.7463 18.0273 13.3728 20.5334 13.1403C 21.9949 11.0757 23.5247 9.1813 25.0725 7.5173C 24.8054 7.26164 24.5386 7.01448 24.2729 6.77842C 20.1184 3.0857 16.1765 1.61267 14.3938 2.64568ZM 34.4211 15.6171C 34.9805 16.4945 35.5205 17.3839 36.0415 18.2846C 36.5708 19.1995 37.0818 20.1249 37.5742 21.0602C 38.2483 19.4809 38.8206 17.9404 39.2798 16.4671C 37.7502 16.1175 36.1213 15.8319 34.4211 15.6171ZM 29.804 12.9349C 28.7698 11.5556 27.7183 10.2842 26.6682 9.14566C 25.6018 10.2974 24.5415 11.5669 23.5061 12.9335C 25.6042 12.8352 27.7058 12.8357 29.804 12.9349ZM 15.731 21.0585C 16.2107 20.1275 16.7122 19.2078 17.2349 18.3001C 17.7583 17.3917 18.303 16.4957 18.8684 15.6128C 17.1794 15.8241 15.5581 16.1024 14.0376 16.443C 14.501 17.9373 15.0681 19.4847 15.731 21.0585ZM 14.0063 31.1266C 15.5261 31.4578 17.1721 31.7219 18.917 31.9169C 18.3379 31.0173 17.78 30.1039 17.2441 29.1777C 16.719 28.2696 16.2153 27.3494 15.7334 26.4176C 15.0564 28.0252 14.4768 29.6059 14.0063 31.1266ZM 23.5254 34.5417C 24.5764 35.9281 25.6523 37.217 26.7312 38.3824C 27.7742 37.233 28.8218 35.9423 29.8594 34.5306C 28.8027 34.5778 27.729 34.6021 26.6428 34.6021C 25.5857 34.6021 24.5454 34.5818 23.5254 34.5417ZM 39.3855 31.0279C 38.9087 29.5329 38.3081 27.9608 37.5959 26.3357C 37.1018 27.2891 36.5867 28.2314 36.0508 29.1618C 35.5234 30.0774 34.978 30.9823 34.4148 31.8761C 36.1724 31.665 37.8403 31.3808 39.3855 31.0279ZM 31.5225 32.1523C 32.4189 30.8041 33.2715 29.4272 34.0789 28.0236C 34.8928 26.612 35.6567 25.1719 36.3687 23.706C 35.6494 22.2548 34.8833 20.8275 34.0715 19.4262C 33.2642 18.0285 32.4077 16.6599 31.5042 15.3227C 29.9199 15.2018 28.293 15.1386 26.6431 15.1386C 25.0005 15.1386 23.3757 15.2014 21.791 15.3213C 20.8782 16.6605 20.0161 18.0335 19.2073 19.4382C 18.3982 20.8426 17.6423 22.277 16.9409 23.7383C 17.644 25.1992 18.4023 26.6328 19.2141 28.0361C 20.0298 29.4468 20.8987 30.8262 21.8184 32.1712C 23.3718 32.272 24.9849 32.3237 26.6428 32.3237C 28.3076 32.3237 29.9414 32.2654 31.5225 32.1523ZM 40.1318 13.2097C 41.2529 7.7621 40.5588 3.60811 38.7747 2.57793C 37.0994 1.61079 33.4226 2.96389 29.4888 6.39104C 29.071 6.75586 28.6624 7.13099 28.2634 7.51612C 29.7864 9.15864 31.3035 11.0563 32.7676 13.1434C 35.281 13.3794 37.6816 13.7595 39.8923 14.2701C 39.9785 13.9181 40.0583 13.5646 40.1318 13.2097Z"/>
<path id="path3_fill" d="M 4.75816 2.16121e-07C 7.38616 2.16121e-07 9.51633 2.13259 9.51633 4.76303C 9.51633 7.3937 7.38616 9.52629 4.75816 9.52629C 2.13041 9.52629 -3.02261e-07 7.3937 -3.02261e-07 4.76303C -3.02261e-07 2.13259 2.13041 2.16121e-07 4.75816 2.16121e-07Z"/>
<path id="path4_fill" d="M 33.3233 22L 29.8077 22L 29.8077 14.6875L 22.9522 14.6875L 22.9522 22L 19.4366 22L 19.4366 4.9375L 22.9522 4.9375L 22.9522 11.8516L 29.8077 11.8516L 29.8077 4.9375L 33.3233 4.9375L 33.3233 22ZM 52.6794 4.9375L 52.6794 16.1758C 52.6794 18.043 52.0934 19.5195 50.9216 20.6055C 49.7575 21.6914 48.1637 22.2344 46.1403 22.2344C 44.1481 22.2344 42.5661 21.707 41.3942 20.6523C 40.2223 19.5977 39.6247 18.1484 39.6012 16.3047L 39.6012 4.9375L 43.1169 4.9375L 43.1169 16.1992C 43.1169 17.3164 43.3825 18.1328 43.9137 18.6484C 44.4528 19.1562 45.195 19.4102 46.1403 19.4102C 48.1169 19.4102 49.1208 18.3711 49.152 16.293L 49.152 4.9375L 52.6794 4.9375ZM 58.9222 22L 58.9222 4.9375L 64.8988 4.9375C 66.9691 4.9375 68.5394 5.33594 69.6097 6.13281C 70.68 6.92188 71.2152 8.08203 71.2152 9.61328C 71.2152 10.4492 71.0003 11.1875 70.5706 11.8281C 70.1409 12.4609 69.5433 12.9258 68.7777 13.2227C 69.6527 13.4414 70.3402 13.8828 70.8402 14.5469C 71.348 15.2109 71.6019 16.0234 71.6019 16.9844C 71.6019 18.625 71.0784 19.8672 70.0316 20.7109C 68.9847 21.5547 67.4925 21.9844 65.555 22L 58.9222 22ZM 62.4378 14.5703L 62.4378 19.1758L 65.4495 19.1758C 66.2777 19.1758 66.9222 18.9805 67.3831 18.5898C 67.8519 18.1914 68.0863 17.6445 68.0863 16.9492C 68.0863 15.3867 67.2777 14.5938 65.6605 14.5703L 62.4378 14.5703ZM 62.4378 12.0859L 65.0394 12.0859C 66.8128 12.0547 67.6995 11.3477 67.6995 9.96484C 67.6995 9.19141 67.473 8.63672 67.0198 8.30078C 66.5745 7.95703 65.8675 7.78516 64.8988 7.78516L 62.4378 7.78516L 62.4378 12.0859Z"/>
</defs>
</svg>
