<svg width="17" height="17" viewBox="0 0 17 17" version="1.1" xmlns="http://www.w3.org/2000/svg" xmlns:xlink="http://www.w3.org/1999/xlink">
<title>right-eye</title>
<desc>Created using Figma</desc>
<g id="Canvas" transform="translate(-4773 -199)">
<g id="right-eye">
<g id="Vector">
<use xlink:href="#path0_fill" transform="translate(4775.08 200.756)" fill="#FFFFFF"/>
</g>
<g id="Vector">
<use xlink:href="#path1_fill" transform="translate(4773.78 199.228)"/>
</g>
</g>
</g>
<defs>
<path id="path0_fill" d="M 5.42187 12.9329C 6.36691 12.9329 6.86723 13.044 7.31195 12.9329C 8.7573 12.5993 10.3138 12.377 10.9809 10.765C 12.6486 8.98619 12.6486 6.81829 12.2595 4.70598C 12.0927 3.761 11.5368 2.81602 10.9809 1.92662C 10.5362 1.31517 8.03463 0.64812 7.034 0.259011C 6.08896 -0.130099 5.19951 0.759296 4.36566 0.0366637C 4.25447 -0.0745105 3.80975 0.0922504 3.58738 0.203425C 3.19825 0.48136 2.86471 0.814882 2.53117 1.09282C 0.363141 2.98278 -0.24835 5.4842 0.0851923 8.20797C 0.307554 10.0979 1.30818 11.71 3.19825 12.5438C 4.03211 12.9329 4.97715 12.9329 5.42187 12.9329Z"/>
<path id="path1_fill" d="M 7.39353 16.3509C 5.11432 16.1841 2.9463 15.6283 1.50094 13.7383C 1.00063 13.1268 0.667082 12.293 0.44472 11.5148C 0.166768 10.6254 0.555908 9.62486 3.39297e-06 8.79105C 0.555908 7.95725 0.166768 6.90109 0.44472 6.06728C 0.889444 4.67761 1.27858 3.17676 2.66834 2.34295C 3.05747 2.1206 3.39102 1.78708 3.72456 1.45356C 5.05873 0.175053 6.67085 -0.158469 8.39416 0.0638791C 8.67211 0.119466 9.00566 0.175053 9.17243 0.341815C 10.3954 1.45356 11.952 1.84267 13.3417 2.5653C 14.0644 2.95441 14.5091 3.51028 14.7315 4.17732C 15.065 5.34465 15.4541 6.51198 15.6209 7.67931C 16.01 10.2919 14.7315 12.4042 13.3417 14.4053C 13.0638 14.7945 12.6746 15.128 12.2299 15.2392C 10.6734 15.6839 9.17242 16.4621 7.39353 16.3509ZM 7.0044 14.7389C 7.94943 14.7389 8.44975 14.85 8.89448 14.7389C 10.3398 14.4053 11.8964 14.183 12.5634 12.571C 14.2312 10.7922 14.2312 8.62429 13.842 6.51198C 13.6753 5.567 13.1193 4.62202 12.5634 3.73263C 12.1187 3.12117 9.61715 2.45412 8.61652 2.06501C 7.67149 1.6759 6.78204 2.5653 5.94818 1.84267C 5.837 1.73149 5.39227 1.89825 5.16991 2.00943C 4.78078 2.28736 4.44724 2.62088 4.11369 2.89882C 1.94567 4.78878 1.33417 7.2902 1.66772 10.014C 1.89008 11.9039 2.8907 13.516 4.78078 14.3498C 5.61463 14.6833 6.55967 14.6833 7.0044 14.7389Z"/>
</defs>
</svg>
