<svg  viewBox="0 0 681 425" fill="none" xmlns="http://www.w3.org/2000/svg">
	<g class="bg">
  <rect width="681" height="425" fill="#009494"/>

   <path fill="#fff" fill-opacity="0.05" d="M299-173l44 419-110.234-406.665-82.705 32.094L343 246 78.087-81.643l-62.73 62.73L343 246-22.503 36.392l-35.787 81.175L343 246l-419-44v88l419-44-406.665 110.235 32.095 82.704L343 246 15.357 510.913l62.73 62.73L343 246 133.392 611.504l81.175 35.786L343 246l-44 419h88l-44-419 110.235 406.666 82.704-32.095L343 246l264.913 327.643 62.73-62.73L343 246l365.504 209.608 35.786-81.175L343 246l419 44v-88l-419 44 406.666-110.234-32.095-82.705L343 246 670.643-18.913l-62.73-62.73L343 246l209.608-365.503-81.175-35.787L343 246l44-419h-88z"/>

  </g>
</svg>
