<svg width="70" height="70" viewBox="0 0 70 70" version="1.1" xmlns="http://www.w3.org/2000/svg" xmlns:xlink="http://www.w3.org/1999/xlink">
<title>video2</title>
<desc>Created using Figma</desc>
<g id="Canvas" transform="translate(-9045 1870)">
<g id="video2">
<g id="Rectangle 26">
<use xlink:href="#path0_fill" transform="translate(9045 -1870)" fill="#FA851D"/>
</g>
<g id="Group">
<g id="Vector">
<use xlink:href="#path1_fill" transform="translate(9061 -1861)" fill="#333333"/>
</g>
<g id="Group">
<g id="Vector">
<use xlink:href="#path2_fill" transform="translate(9062.15 -1838.56)" fill="#FFFFFF"/>
<use xlink:href="#path3_stroke" transform="translate(9062.15 -1838.56)" fill="#333333"/>
</g>
<g id="Vector">
<use xlink:href="#path2_fill" transform="translate(9062.15 -1839.56)" fill="#FFFFFF"/>
<use xlink:href="#path3_stroke" transform="translate(9062.15 -1839.56)" fill="#333333"/>
</g>
<g id="keys">
<g id="Vector">
<use xlink:href="#path4_fill" transform="translate(9066.79 -1825.82)" fill="#F2994A"/>
</g>
<g id="Vector">
<use xlink:href="#path5_fill" transform="translate(9069.72 -1827.39)" fill="#F2994A"/>
</g>
<g id="Vector">
<use xlink:href="#path6_fill" transform="translate(9072.65 -1828.95)" fill="#F2994A"/>
</g>
<g id="Vector">
<use xlink:href="#path7_fill" transform="translate(9075.59 -1830.51)" fill="#F2994A"/>
</g>
<g id="Vector">
<use xlink:href="#path8_fill" transform="translate(9078.52 -1832.09)" fill="#F2994A"/>
</g>
<g id="Vector">
<use xlink:href="#path9_fill" transform="translate(9081.45 -1833.65)" fill="#F2994A"/>
</g>
<g id="Vector">
<use xlink:href="#path10_fill" transform="translate(9084.39 -1835.21)" fill="#F2994A"/>
</g>
<g id="Vector">
<use xlink:href="#path11_fill" transform="translate(9087.32 -1836.77)" fill="#F2994A"/>
</g>
<g id="Vector">
<use xlink:href="#path12_fill" transform="translate(9069.26 -1824.09)" fill="#F2994A"/>
</g>
<g id="Vector">
<use xlink:href="#path13_fill" transform="translate(9072.19 -1825.66)" fill="#F2994A"/>
</g>
<g id="Vector">
<use xlink:href="#path14_fill" transform="translate(9075.12 -1827.22)" fill="#F2994A"/>
</g>
<g id="Vector">
<use xlink:href="#path15_fill" transform="translate(9078.07 -1828.79)" fill="#F2994A"/>
</g>
<g id="Vector">
<use xlink:href="#path16_fill" transform="translate(9081 -1830.35)" fill="#F2994A"/>
</g>
<g id="Vector">
<use xlink:href="#path17_fill" transform="translate(9083.93 -1831.93)" fill="#F2994A"/>
</g>
<g id="Vector">
<use xlink:href="#path18_fill" transform="translate(9086.86 -1833.49)" fill="#F2994A"/>
</g>
<g id="Vector">
<use xlink:href="#path19_fill" transform="translate(9089.79 -1835.05)" fill="#F2994A"/>
</g>
<g id="Vector">
<use xlink:href="#path20_fill" transform="translate(9071.71 -1822.35)" fill="#F2994A"/>
</g>
<g id="Vector">
<use xlink:href="#path21_fill" transform="translate(9074.64 -1831.74)" fill="#F2994A"/>
</g>
<g id="Vector">
<use xlink:href="#path22_fill" transform="translate(9089.31 -1831.74)" fill="#F2994A"/>
</g>
<g id="Vector">
<use xlink:href="#path23_fill" transform="translate(9092.24 -1833.31)" fill="#F2994A"/>
</g>
<g id="Vector">
<use xlink:href="#path24_fill" transform="translate(9083.65 -1827.68)" fill="#F2994A"/>
</g>
</g>
</g>
<g id="Vector">
<use xlink:href="#path25_fill" transform="translate(9062.06 -1859.68)" fill="#FFFFFF"/>
</g>
<g id="Ellipse">
<use xlink:href="#path26_fill" transform="matrix(0.910539 0.413423 -0.433568 0.901121 9075.65 -1848.74)" fill="#F2994A"/>
</g>
<g id="Vector 2">
<use xlink:href="#path27_fill" transform="translate(9075.56 -1844.68)" fill="#FFFFFF"/>
</g>
</g>
</g>
</g>
<defs>
<path id="path0_fill" d="M 0 0L 70 0L 70 70L 0 70L 0 0Z"/>
<path id="path1_fill" d="M 28.5586 20.8173L 1.87815 34.9908C 0.86305 35.5365 0.0129051 35.1893 0.000216416 34.2219L 0.000216416 17.1068C -0.0124723 16.1394 0.533143 15.0356 1.54824 14.5023L 28.0586 0.317261C 29.429 -0.352462 29.8822 0.0646471 29.8822 1.31728L 29.8822 18.4586C 29.8822 19.674 30.132 19.9119 28.5586 20.8173Z"/>
<path id="path2_fill" d="M 40.3954 9.70211L 13.8759 23.8531C 13.1019 24.2748 11.9346 24.2252 11.2874 23.7663L 0.425893 16.0273C -0.221232 15.5684 -0.119722 14.849 0.65429 14.4398L 27.1737 0.28878C 27.9477 -0.132897 29.1151 -0.0832884 29.7622 0.375596L 40.6238 8.11461C 41.2836 8.5611 41.1694 9.28043 40.3954 9.70211Z"/>
<path id="path3_stroke" d="M 40.3954 9.70211L 40.6308 10.1432L 40.6346 10.1412L 40.3954 9.70211ZM 13.8759 23.8531L 13.6405 23.412L 13.6367 23.414L 13.8759 23.8531ZM 11.2874 23.7663L 10.9973 24.1735L 10.9982 24.1741L 11.2874 23.7663ZM 0.425893 16.0273L 0.716035 15.6201L 0.715113 15.6194L 0.425893 16.0273ZM 0.65429 14.4398L 0.888014 14.8818L 0.889679 14.8809L 0.65429 14.4398ZM 27.1737 0.28878L 27.4091 0.729923L 27.4129 0.72785L 27.1737 0.28878ZM 29.7622 0.375596L 30.0524 -0.0316129L 30.0515 -0.0322668L 29.7622 0.375596ZM 40.6238 8.11461L 40.3336 8.52194L 40.3436 8.52872L 40.6238 8.11461ZM 40.16 9.26098L 13.6406 23.412L 14.1113 24.2942L 40.6308 10.1432L 40.16 9.26098ZM 13.6367 23.414C 13.3203 23.5932 12.9654 23.6584 12.5523 23.6402C 12.1504 23.6256 11.7995 23.5164 11.5767 23.3584L 10.9982 24.1741C 11.4225 24.475 11.9789 24.6201 12.516 24.6396C 13.0418 24.6555 13.6576 24.5346 14.1151 24.2922L 13.6367 23.414ZM 11.5776 23.3591L 0.716034 15.6201L 0.135752 16.4345L 10.9973 24.1735L 11.5776 23.3591ZM 0.715113 15.6194C 0.505094 15.4705 0.493614 15.3452 0.502129 15.2857C 0.513536 15.2059 0.590747 15.039 0.888013 14.8818L 0.420568 13.9978C -0.0561787 14.2498 -0.416729 14.6472 -0.487799 15.1441C -0.56176 15.6613 -0.300433 16.1252 0.136673 16.4351L 0.715113 15.6194ZM 0.889679 14.8809L 27.4091 0.729906L 26.9383 -0.152346L 0.418902 13.9986L 0.889679 14.8809ZM 27.4129 0.72785C 27.7294 0.548632 28.0843 0.483461 28.4974 0.501648C 28.8993 0.516246 29.2502 0.625447 29.473 0.783458L 30.0515 -0.0322668C 29.6272 -0.33314 29.0708 -0.478185 28.5337 -0.497693C 28.0079 -0.513612 27.3921 -0.392749 26.9345 -0.15029L 27.4129 0.72785ZM 29.4721 0.782803L 40.3336 8.52182L 40.9139 7.70741L 30.0524 -0.0316119L 29.4721 0.782803ZM 40.3436 8.52872C 40.5542 8.67125 40.5608 8.78959 40.5527 8.84421C 40.5405 8.92613 40.4584 9.09841 40.1562 9.26304L 40.6346 10.1412C 41.1064 9.88412 41.4684 9.4859 41.5418 8.99111C 41.6194 8.46903 41.3532 8.00446 40.904 7.70051L 40.3436 8.52872Z"/>
<path id="path4_fill" d="M 3.22294 1.05419L 1.47189 1.98436L -1.93615e-07 0.942574L 1.76373 7.56975e-07L 3.22294 1.05419Z"/>
<path id="path5_fill" d="M 3.23562 1.04179L 1.47189 1.98436L -3.87229e-07 0.942573L 1.76373 0L 3.23562 1.04179Z"/>
<path id="path6_fill" d="M 3.23563 1.04179L 1.47189 1.98436L 3.87229e-07 0.93017L 1.76373 -7.56975e-07L 3.23563 1.04179Z"/>
<path id="path7_fill" d="M 3.22294 1.04179L 1.4592 1.98436L 0 0.930171L 1.75104 3.78487e-07L 3.22294 1.04179Z"/>
<path id="path8_fill" d="M 3.22294 1.05419L 1.47189 1.98436L 7.74458e-07 0.942572L 1.75104 7.56975e-07L 3.22294 1.05419Z"/>
<path id="path9_fill" d="M 3.22294 1.04179L 1.47189 1.98436L -3.87229e-07 0.942573L 1.76373 0L 3.22294 1.04179Z"/>
<path id="path10_fill" d="M 3.23563 1.04179L 1.47189 1.98436L 3.87229e-07 0.942573L 1.76373 -7.56975e-07L 3.23563 1.04179Z"/>
<path id="path11_fill" d="M 3.23562 1.04179L 1.47189 1.98436L -7.74458e-07 0.930171L 1.76373 3.78487e-07L 3.23562 1.04179Z"/>
<path id="path12_fill" d="M 3.22294 1.04179L 1.47189 1.98436L -1.93615e-07 0.930171L 1.76373 7.56975e-07L 3.22294 1.04179Z"/>
<path id="path13_fill" d="M 3.22294 1.05419L 1.47189 1.98436L -3.87229e-07 0.942573L 1.76373 -7.56975e-07L 3.22294 1.05419Z"/>
<path id="path14_fill" d="M 3.23563 1.04179L 1.47189 1.98436L 3.87229e-07 0.942572L 1.76373 -1.51395e-06L 3.23563 1.04179Z"/>
<path id="path15_fill" d="M 3.22294 1.04179L 1.4592 1.98436L 0 0.942571L 1.75104 1.51395e-06L 3.22294 1.04179Z"/>
<path id="path16_fill" d="M 3.22294 1.04179L 1.4592 1.98436L 7.74458e-07 0.930171L 1.75104 7.56975e-07L 3.22294 1.04179Z"/>
<path id="path17_fill" d="M 3.22294 1.05419L 1.47189 1.98436L -3.87229e-07 0.942573L 1.76373 -7.56975e-07L 3.22294 1.05419Z"/>
<path id="path18_fill" d="M 3.23563 1.04179L 1.47189 1.98436L 3.87229e-07 0.942572L 1.76373 3.78487e-07L 3.23563 1.04179Z"/>
<path id="path19_fill" d="M 3.23562 1.04179L 1.47189 1.98436L -7.74458e-07 0.942573L 1.76373 -3.78487e-07L 3.23562 1.04179Z"/>
<path id="path20_fill" d="M 3.22294 1.04179L 1.4592 1.98436L 1.93615e-07 0.942574L 1.75104 7.56975e-07L 3.22294 1.04179Z"/>
<path id="path21_fill" d="M 17.8911 1.04179L 1.47189 9.8102L 0 8.756L 16.4319 -7.56975e-07L 17.8911 1.04179Z"/>
<path id="path22_fill" d="M 3.22294 1.04179L 1.47189 1.98436L 7.74458e-07 0.93017L 1.76373 -7.56975e-07L 3.22294 1.04179Z"/>
<path id="path23_fill" d="M 3.22294 1.05419L 1.47189 1.98436L -3.87229e-07 0.942573L 1.76373 -3.78487e-07L 3.22294 1.05419Z"/>
<path id="path24_fill" d="M 7.60055 2.05878L 2.88034 4.57644L 7.74458e-07 2.51766L 4.72021 1.51395e-06L 7.60055 2.05878Z"/>
<path id="path25_fill" d="M 27.7648 18L 0 32.5L 0 15L 27.7648 0L 27.7648 18Z"/>
<path id="path26_fill" d="M 7.1694 4.52401C 7.1694 7.02256 5.56448 9.04803 3.5847 9.04803C 1.60493 9.04803 0 7.02256 0 4.52401C 0 2.02547 1.60493 0 3.5847 0C 5.56448 0 7.1694 2.02547 7.1694 4.52401Z"/>
<path id="path27_fill" d="M 0 4L 0 0L 3.60294 0.5L 0 4Z"/>
</defs>
</svg>
