<?xml version="1.0" encoding="utf-8"?>
<!-- Generator: Adobe Illustrator 22.0.0, SVG Export Plug-In . SVG Version: 6.00 Build 0)  -->
<svg version="1.1" id="Layer_1" xmlns="http://www.w3.org/2000/svg" xmlns:xlink="http://www.w3.org/1999/xlink" x="0px" y="0px"
	 viewBox="0 0 140 138" style="enable-background:new 0 0 140 138;" xml:space="preserve">
<style type="text/css">
	.st0{fill:#F2F2F2;}
	.st1{fill:#FFFFFF;}
	.st2{fill:#4F4F4F;}
</style>
<title>World</title>
<desc>Created using Figma</desc>
<g id="Canvas" transform="matrix(2 0 0 2 -20684 3716)">
	<g id="World">
		<rect x="10307" y="-1892.5" class="st0" width="140" height="138"/>
		<g id="globe">
			<g id="Group">
				<g id="Vector">
					<g transform="translate(10365 -1836)">
						<path id="path2_fill" class="st1" d="M10377-1836c6.6,0,12,5.4,12,12s-5.4,12-12,12s-12-5.4-12-12S10370.4-1836,10377-1836z"
							/>
					</g>
					<g transform="translate(10365 -1836)">
						<path id="path3_stroke" class="st2" d="M10377-1835.5c6.4,0,11.5,5.1,11.5,11.5h1c0-6.9-5.6-12.5-12.5-12.5V-1835.5z
							 M10388.5-1824c0,6.4-5.1,11.5-11.5,11.5v1c6.9,0,12.5-5.6,12.5-12.5H10388.5z M10377-1812.5c-6.4,0-11.5-5.1-11.5-11.5h-1
							c0,6.9,5.6,12.5,12.5,12.5V-1812.5z M10365.5-1824c0-6.4,5.1-11.5,11.5-11.5v-1c-6.9,0-12.5,5.6-12.5,12.5H10365.5z"/>
					</g>
				</g>
				<g id="Vector_1_">
					<g transform="translate(10377 -1835.96)">
						<path id="path4_stroke" class="st2" d="M10377.5-1836c0-0.3-0.2-0.5-0.5-0.5s-0.5,0.2-0.5,0.5H10377.5z M10376.5-1812
							c0,0.3,0.2,0.5,0.5,0.5s0.5-0.2,0.5-0.5H10376.5z M10376.5-1836v23.9h1v-23.9H10376.5z"/>
					</g>
				</g>
				<g id="Vector_2_">
					<g transform="translate(10365 -1824)">
						<path id="path5_stroke" class="st2" d="M10388.9-1823.5c0.3,0,0.5-0.2,0.5-0.5s-0.2-0.5-0.5-0.5V-1823.5z M10365-1824.5
							c-0.3,0-0.5,0.2-0.5,0.5s0.2,0.5,0.5,0.5V-1824.5z M10388.9-1824.5h-23.9v1h23.9V-1824.5z"/>
					</g>
				</g>
				<g id="Vector_3_">
					<g transform="translate(10370.8 -1835.96)">
						<path id="path6_stroke" class="st2" d="M10376.5-1835.6c0.2-0.2,0.3-0.5,0.1-0.7c-0.2-0.2-0.5-0.3-0.7-0.1L10376.5-1835.6z
							 M10375.9-1811.6c0.2,0.2,0.5,0.1,0.7-0.1c0.2-0.2,0.1-0.5-0.1-0.7L10375.9-1811.6z M10376.2-1836c-0.3-0.4-0.3-0.4-0.3-0.4
							c0,0,0,0,0,0c0,0,0,0,0,0c0,0,0,0,0,0c0,0,0,0,0,0c0,0,0,0-0.1,0c0,0-0.1,0.1-0.2,0.2c-0.2,0.1-0.4,0.3-0.6,0.6
							c-0.5,0.5-1.2,1.3-1.9,2.4c-1.4,2.1-2.8,5.2-2.8,9.2h1c0-3.8,1.3-6.6,2.6-8.6c0.7-1,1.3-1.7,1.8-2.2c0.2-0.3,0.4-0.4,0.6-0.6
							c0.1-0.1,0.1-0.1,0.2-0.1c0,0,0,0,0,0c0,0,0,0,0,0c0,0,0,0,0,0c0,0,0,0,0,0s0,0,0,0
							C10376.5-1835.6,10376.5-1835.6,10376.2-1836z M10370.3-1824c0,4,1.4,7.1,2.8,9.2c0.7,1,1.4,1.8,1.9,2.4
							c0.3,0.3,0.5,0.5,0.6,0.6c0.1,0.1,0.1,0.1,0.2,0.2c0,0,0,0,0.1,0c0,0,0,0,0,0c0,0,0,0,0,0c0,0,0,0,0,0c0,0,0,0,0,0
							s0,0,0.3-0.4c0.3-0.4,0.3-0.4,0.3-0.4c0,0,0,0,0,0c0,0,0,0,0,0c0,0,0,0,0,0c0,0,0,0,0,0c0,0,0,0,0,0c0,0-0.1-0.1-0.2-0.1
							c-0.1-0.1-0.3-0.3-0.6-0.6c-0.5-0.5-1.1-1.2-1.8-2.2c-1.3-2-2.6-4.8-2.6-8.6H10370.3z"/>
					</g>
				</g>
				<g id="Vector_4_">
					<g transform="translate(10377.8 -1835.96)">
						<path id="path7_stroke" class="st2" d="M10378.1-1836.4c-0.2-0.2-0.5-0.1-0.7,0.1c-0.2,0.2-0.1,0.5,0.1,0.7L10378.1-1836.4z
							 M10377.5-1812.4c-0.2,0.2-0.3,0.5-0.1,0.7c0.2,0.2,0.5,0.3,0.7,0.1L10377.5-1812.4z M10377.8-1836c-0.3,0.4-0.3,0.4-0.3,0.4
							c0,0,0,0,0,0s0,0,0,0c0,0,0,0,0,0c0,0,0,0,0,0c0,0,0,0,0,0c0,0,0.1,0.1,0.2,0.1c0.1,0.1,0.3,0.3,0.6,0.6
							c0.5,0.5,1.1,1.2,1.8,2.2c1.3,2,2.6,4.8,2.6,8.6h1c0-4-1.4-7.1-2.8-9.2c-0.7-1-1.4-1.8-1.9-2.4c-0.3-0.3-0.5-0.5-0.6-0.6
							c-0.1-0.1-0.1-0.1-0.2-0.2c0,0,0,0-0.1,0c0,0,0,0,0,0c0,0,0,0,0,0c0,0,0,0,0,0c0,0,0,0,0,0
							C10378.1-1836.4,10378.1-1836.4,10377.8-1836z M10382.7-1824c0,3.8-1.3,6.6-2.6,8.6c-0.7,1-1.3,1.7-1.8,2.2
							c-0.2,0.3-0.4,0.4-0.6,0.6c-0.1,0.1-0.1,0.1-0.2,0.1c0,0,0,0,0,0c0,0,0,0,0,0c0,0,0,0,0,0c0,0,0,0,0,0c0,0,0,0,0,0
							c0,0,0,0,0.3,0.4s0.3,0.4,0.3,0.4s0,0,0,0c0,0,0,0,0,0c0,0,0,0,0,0c0,0,0,0,0,0c0,0,0,0,0.1,0c0,0,0.1-0.1,0.2-0.2
							c0.2-0.1,0.4-0.3,0.6-0.6c0.5-0.5,1.2-1.3,1.9-2.4c1.4-2.1,2.8-5.2,2.8-9.2H10382.7z"/>
					</g>
				</g>
				<g id="Vector_5_">
					<g transform="translate(10367.7 -1831.72)">
						<path id="path8_stroke" class="st2" d="M10368.1-1831.9c-0.1-0.2-0.4-0.3-0.7-0.2c-0.2,0.1-0.3,0.4-0.2,0.7L10368.1-1831.9z
							 M10386.7-1831.5c0.1-0.2,0-0.5-0.2-0.7c-0.2-0.1-0.5,0-0.7,0.2L10386.7-1831.5z M10367.7-1831.7c-0.4,0.2-0.4,0.2-0.4,0.2
							c0,0,0,0,0,0c0,0,0,0,0,0c0,0,0,0,0,0c0,0,0,0,0,0c0,0,0,0,0,0c0,0,0,0.1,0.1,0.1c0.1,0.1,0.2,0.3,0.4,0.5
							c0.3,0.4,0.8,0.9,1.6,1.4c1.5,1,3.9,2,7.7,2v-1c-3.6,0-5.8-0.9-7.1-1.8c-0.7-0.5-1.1-0.9-1.4-1.2c-0.1-0.2-0.2-0.3-0.3-0.4
							c0,0,0-0.1-0.1-0.1c0,0,0,0,0,0c0,0,0,0,0,0c0,0,0,0,0,0c0,0,0,0,0,0c0,0,0,0,0,0
							C10368.1-1831.9,10368.1-1831.9,10367.7-1831.7z M10377-1827.4c3.8,0,6.2-1,7.7-2c0.7-0.5,1.3-1,1.6-1.4
							c0.2-0.2,0.3-0.4,0.4-0.5c0-0.1,0.1-0.1,0.1-0.1c0,0,0,0,0,0c0,0,0,0,0,0c0,0,0,0,0,0c0,0,0,0,0,0c0,0,0,0,0,0
							c0,0,0,0-0.4-0.2s-0.4-0.2-0.4-0.2c0,0,0,0,0,0c0,0,0,0,0,0c0,0,0,0,0,0c0,0,0,0,0,0c0,0,0,0,0,0c0,0,0,0.1-0.1,0.1
							c-0.1,0.1-0.1,0.2-0.3,0.4c-0.3,0.3-0.7,0.8-1.4,1.2c-1.3,0.9-3.5,1.8-7.1,1.8V-1827.4z"/>
					</g>
				</g>
				<g id="Vector_6_">
					<g transform="translate(10367.7 -1820.14)">
						<path id="path9_stroke" class="st2" d="M10367.3-1816.5c-0.1,0.2,0,0.5,0.2,0.7c0.2,0.1,0.5,0,0.7-0.2L10367.3-1816.5z
							 M10385.8-1816.1c0.1,0.2,0.4,0.3,0.7,0.2c0.2-0.1,0.3-0.4,0.2-0.7L10385.8-1816.1z M10367.7-1816.3c0.4,0.2,0.4,0.2,0.4,0.2
							c0,0,0,0,0,0c0,0,0,0,0,0c0,0,0,0,0,0c0,0,0,0,0,0c0,0,0,0,0,0c0,0,0-0.1,0.1-0.1c0.1-0.1,0.1-0.2,0.3-0.4
							c0.3-0.3,0.7-0.8,1.4-1.2c1.3-0.9,3.5-1.8,7.1-1.8v-1c-3.8,0-6.2,1-7.7,2c-0.7,0.5-1.3,1-1.6,1.4c-0.2,0.2-0.3,0.4-0.4,0.5
							c0,0.1-0.1,0.1-0.1,0.1c0,0,0,0,0,0c0,0,0,0,0,0c0,0,0,0,0,0c0,0,0,0,0,0c0,0,0,0,0,0
							C10367.3-1816.5,10367.3-1816.5,10367.7-1816.3z M10377-1819.6c3.6,0,5.8,0.9,7.1,1.8c0.7,0.5,1.1,0.9,1.4,1.2
							c0.1,0.2,0.2,0.3,0.3,0.4c0,0,0,0.1,0.1,0.1c0,0,0,0,0,0c0,0,0,0,0,0c0,0,0,0,0,0c0,0,0,0,0,0c0,0,0,0,0,0c0,0,0,0,0.4-0.2
							s0.4-0.2,0.4-0.2c0,0,0,0,0,0c0,0,0,0,0,0c0,0,0,0,0,0c0,0,0,0,0,0c0,0,0,0,0,0c0,0,0-0.1-0.1-0.1c-0.1-0.1-0.2-0.3-0.4-0.5
							c-0.3-0.4-0.8-0.9-1.6-1.4c-1.5-1-3.9-2-7.7-2V-1819.6z"/>
					</g>
				</g>
			</g>
		</g>
	</g>
</g>
</svg>
