<svg xmlns="http://www.w3.org/2000/svg" id="Layer_1" data-name="Layer 1" viewBox="0 0 140 138">
  <defs>
    <style>
      .cls-1{fill:#f2f2f2;}.cls-2{fill:#fff;}.cls-3{fill:#4f4f4f;}
    </style>
  </defs>
  <g id="Canvas">
    <g id="World">
      <path d="M0 0h140v138H0z" class="cls-1"/>
      <g id="globe">
        <g id="Group">
          <g id="Vector">
            <path id="path2_fill" d="M70 44a24 24 0 1 1-24 24 24 24 0 0 1 24-24z" data-name="path2 fill" class="cls-2"/>
            <path id="path3_stroke" d="M70 45a23 23 0 0 1 23 23h2a25 25 0 0 0-25-25zm23 23a23 23 0 0 1-23 23v2a25 25 0 0 0 25-25zM70 91a23 23 0 0 1-23-23h-2a25 25 0 0 0 25 25zM47 68a23 23 0 0 1 23-23v-2a25 25 0 0 0-25 25z" data-name="path3 stroke" class="cls-3"/>
          </g>
          <g id="Vector-2" data-name="Vector">
            <path id="path4_stroke" d="M71 44.08a1 1 0 0 0-2 0zm-2 47.85a1 1 0 0 0 2 0zm0-47.85v47.85h2V44.08z" data-name="path4 stroke" class="cls-3"/>
          </g>
          <g id="Vector-3" data-name="Vector">
            <path id="path5_stroke" d="M93.85 69a1 1 0 0 0 0-2zM46 67a1 1 0 0 0 0 2zm47.85 0H46v2h47.85z" data-name="path5 stroke" class="cls-3"/>
          </g>
          <g id="Vector-4" data-name="Vector">
            <path id="path6_stroke" d="M69 44.87a1 1 0 0 0-1.23-1.58zm-1.21 47.84A1 1 0 1 0 69 91.14zm.61-48.63a9.65 9.65 0 0 0-.62-.79l-.1.08-.36.32c-.32.31-.8.72-1.32 1.31a34 34 0 0 0-3.83 4.75A33.19 33.19 0 0 0 56.6 68h2a30.4 30.4 0 0 1 5.23-17.19 31.21 31.21 0 0 1 3.6-4.46c.49-.5.89-.87 1.17-1.13l.32-.27.08-.07zM56.6 68a33.2 33.2 0 0 0 5.57 18.31A34 34 0 0 0 66 91.06c.52.53 1 1 1.28 1.22.15.14.28.25.36.31l.1.09a9.55 9.55 0 0 0 .62-.78l.62-.79-.08-.06-.32-.28c-.28-.25-.68-.62-1.17-1.12a31.79 31.79 0 0 1-3.6-4.46A30.41 30.41 0 0 1 58.6 68z" data-name="path6 stroke" class="cls-3"/>
          </g>
          <g id="Vector-5" data-name="Vector">
            <path id="path7_stroke" d="M72.22 43.29A1 1 0 0 0 71 44.87zM71 91.14a1 1 0 1 0 1.24 1.57zm.62-47.06l-.62.79.08.07.32.27c.29.26.68.63 1.17 1.13a29.88 29.88 0 0 1 3.6 4.46A30.25 30.25 0 0 1 81.4 68h2A33.3 33.3 0 0 0 74 45c-.52-.54-1-1-1.27-1.22l-.37-.32-.1-.08zM81.4 68a31.22 31.22 0 0 1-8.83 21.66c-.49.5-.88.87-1.17 1.12l-.32.28-.08.06.62.79.62.78.1-.09.37-.31c.3-.27.75-.69 1.27-1.22A33.3 33.3 0 0 0 83.4 68z" data-name="path7 stroke" class="cls-3"/>
          </g>
          <g id="Vector-6" data-name="Vector">
            <path id="path8_stroke" d="M52.29 52.11a1 1 0 1 0-1.78.9zm37.05.9a1 1 0 0 0-1.79-.9zm-37.94-.45l-.89.45v.09a2.86 2.86 0 0 0 .17.29c.15.22.39.57.71 1a15.48 15.48 0 0 0 3.13 2.84c3 2.06 7.81 4 15.33 4v-2c-7.14 0-11.57-1.88-14.19-3.68A12.72 12.72 0 0 1 53 53.13a8 8 0 0 1-.57-.77l-.12-.2zm18.52 8.72c7.52 0 12.35-2 15.33-4a15.21 15.21 0 0 0 3.13-2.84c.32-.4.57-.75.71-1l.18-.29v-.09l-.9-.45-.89-.45-.12.2a7.57 7.57 0 0 1-.56.77 13.08 13.08 0 0 1-2.73 2.47c-2.61 1.8-7 3.68-14.19 3.68z" data-name="path8 stroke" class="cls-3"/>
          </g>
          <g id="Vector-7" data-name="Vector">
            <path id="path9_stroke" d="M50.51 83a1 1 0 0 0 .49 1.33 1 1 0 0 0 1.34-.45zm37 .89a1 1 0 0 0 1.34.45 1 1 0 0 0 .49-1.34zm-36.11-.45a8.33 8.33 0 0 1 .89.45l.12-.2a7.89 7.89 0 0 1 .57-.78 12.73 12.73 0 0 1 2.72-2.46c2.62-1.8 7.05-3.68 14.19-3.68v-2c-7.52 0-12.35 2-15.33 4a15.48 15.48 0 0 0-3.13 2.84 11.06 11.06 0 0 0-.71 1 2.86 2.86 0 0 0-.17.29v.09zm18.52-6.72c7.15 0 11.58 1.88 14.19 3.68a13.08 13.08 0 0 1 2.73 2.46 7.46 7.46 0 0 1 .56.78 1.28 1.28 0 0 1 .12.2 8.33 8.33 0 0 1 .89-.45l.9-.45v-.09l-.18-.29a9.3 9.3 0 0 0-.71-1 15.21 15.21 0 0 0-3.13-2.84c-3-2.06-7.81-4-15.33-4z" data-name="path9 stroke" class="cls-3"/>
          </g>
        </g>
      </g>
    </g>
  </g>
</svg>