<svg width="620" height="435" viewBox="0 0 620 435" fill="none" xmlns="http://www.w3.org/2000/svg">
<ellipse rx="251.739" ry="29.1227" transform="matrix(0.999979 -0.00646981 0.0136632 0.999907 332.457 370.098)" fill="url(#paint0_radial)"/>
<path d="M403.351 321.03L400.704 262.309L464.008 337.97L468.619 350.288L403.351 321.03Z" fill="url(#paint1_linear)"/>
<path d="M319.355 346.231C319.355 346.231 352.493 358.263 371.515 356.988C390.536 355.713 451.165 342.168 451.165 342.168L468.395 349.308L441.785 351.594L443.139 366.206L465.629 390.416C465.629 390.416 405.53 371.676 385.191 369.409C364.853 367.142 343.623 367.084 324.6 369.244C305.576 371.403 262.188 387.649 262.188 387.649L260.456 373.933L274.656 356.723L293.996 344.086L319.355 346.231Z" fill="url(#paint2_radial)"/>
<path d="M398.293 186.904L388.391 226.213L419.849 228.156L455.632 231.637L494.404 102.657L522.795 83.3992L494.522 59.6704L493.295 51.1902L549.973 78.1539L548.857 86.1916L554.177 81.3411L581.196 90.1019L577.61 108.566L567.498 115.892L527.089 113.08L509.443 251.99L433.19 320.378L302.129 337.78L199.647 291.504L168.5 237.461L136.931 251.767L98.9364 244.347L69.8698 196.536L18.8611 212.573L61.791 180.389L81.5011 186.196L117.025 227.592C127.967 216.269 151.459 193.391 157.888 192.461C164.317 191.531 196.543 206.349 211.853 213.874L245.886 261.979L313.728 226.192L233.051 48.4768L398.293 186.904Z" fill="white"/>
<path d="M201.572 289.904L244.397 262.435L213.54 224.757L174.144 237.034L201.572 289.904Z" fill="url(#paint3_linear)"/>
<path d="M99.3823 243.021L115.851 228.601L84.9944 190.923L70.3238 194.734L99.3823 243.021Z" fill="url(#paint4_linear)"/>
<path d="M69.8699 196.536L61.9444 181.449L18.8611 212.573L69.8699 196.536Z" fill="url(#paint5_linear)"/>
<path d="M168.5 237.461L149.471 202.336L99.3786 244.348L136.931 251.767L168.5 237.461Z" fill="url(#paint6_linear)"/>
<path d="M388.888 223.977L398.447 187.964L295.915 154.097L388.888 223.977Z" fill="url(#paint7_linear)"/>
<path d="M321.286 335.9L300.992 257.254L366.416 329.389L321.286 335.9Z" fill="url(#paint8_linear)"/>
<path d="M431.009 322.047L400.255 228.826L508.598 252.378L465.176 291.942L431.009 322.047Z" fill="url(#paint9_linear)"/>
<path d="M363.762 329.382L377.024 221.364L432.783 320.282L363.762 329.382Z" fill="url(#paint10_linear)"/>
<path d="M393.812 326.074L383.717 205.245L404.501 218.472L429.209 315.543L393.812 326.074Z" fill="url(#paint11_linear)"/>
<path d="M363.771 328.256L393.163 210.86L151.279 74.9332L141.636 76.3282L363.771 328.256Z" fill="url(#paint12_linear)"/>
<path d="M281.663 242.735L200.657 291.095L275.637 325.854L316.971 339.354L281.663 242.735Z" fill="url(#paint13_linear)"/>
<path d="M402.827 360.031L399.269 262.517L464.03 374.764L466.316 390.572L402.827 360.031Z" fill="url(#paint14_linear)"/>
<path d="M504.167 240.849L460.453 229.248L470.706 199.644L510.525 194.445L504.167 240.849Z" fill="url(#paint15_linear)"/>
<path d="M527.089 113.08L529.875 81.2929L570.398 94.862L566.774 116.479L527.089 113.08Z" fill="url(#paint16_linear)"/>
<path d="M497.942 56.5838L529.918 75.9246L508.924 65.2665L524.809 80.9435L498.185 58.2606L497.942 56.5838Z" fill="url(#paint17_linear)"/>
<path d="M497.735 108.668L526.611 85.8525L506.677 210.184L460.797 227.643L497.735 108.668Z" fill="url(#paint18_linear)"/>
<path d="M543.553 84.8503L538.766 83.9806L530.736 81.5441L541.148 87.4249L539.881 96.9185L548.054 88.9155L558.628 90.6116L547.876 86.8454C545.94 88.5763 543.176 92.011 542.54 91.4759C541.904 90.9408 543.214 86.9649 543.553 84.8503Z" fill="white"/>
<path d="M146.435 74.9171L388.007 210.776L361.131 321.413L382.46 211.438L146.435 74.9171Z" fill="#DADADA"/>
<path d="M549.973 78.154L542.981 85.4218L542.963 91.9251L549.953 85.4409L549.973 78.154Z" fill="url(#paint19_linear)"/>
<path d="M321.333 335.477L300.532 254.074L285.527 241.094L281.663 242.735L293.967 322.12L321.333 335.477Z" fill="url(#paint20_linear)"/>
<path d="M323.363 343.841L303.826 265.501L260.379 373.514L262.373 387.294L323.363 343.841Z" fill="url(#paint21_linear)"/>
<g filter="url(#filter0_f)">
<path d="M306.78 317.931C303.128 307.096 291.319 296.353 291.319 296.353L303.369 267.817L300.719 255.349L363.765 328.497L378.751 268.023L392.212 210.044L397.128 258.266L410.332 281.743C410.332 281.743 407.383 283.061 404.995 292.343C402.608 301.624 401.128 315.331 401.128 315.331L401.102 325.061L364.646 329.826L363.765 328.497L363.761 329.824L321.285 336.342L323.475 343.867L314.17 350.476C314.17 350.476 310.431 328.766 306.78 317.931Z" fill="url(#paint22_linear)" fill-opacity="0.15"/>
</g>
<defs>
<filter id="filter0_f" x="287.319" y="206.044" width="127.013" height="148.431" filterUnits="userSpaceOnUse" color-interpolation-filters="sRGB">
<feFlood flood-opacity="0" result="BackgroundImageFix"/>
<feBlend mode="normal" in="SourceGraphic" in2="BackgroundImageFix" result="shape"/>
<feGaussianBlur stdDeviation="2" result="effect1_foregroundBlur"/>
</filter>
<radialGradient id="paint0_radial" cx="0" cy="0" r="1" gradientUnits="userSpaceOnUse" gradientTransform="translate(262.483 30.0051) rotate(-89.9998) scale(30.0051 257.931)">
<stop offset="0.192708" stop-opacity="0.26"/>
<stop offset="0.941958" stop-color="#9F9F9F" stop-opacity="0"/>
</radialGradient>
<linearGradient id="paint1_linear" x1="458.177" y1="277.589" x2="451.057" y2="354.84" gradientUnits="userSpaceOnUse">
<stop offset="0.0520833" stop-color="white"/>
<stop offset="0.941958" stop-color="#CBCBCB"/>
</linearGradient>
<radialGradient id="paint2_radial" cx="0" cy="0" r="1" gradientUnits="userSpaceOnUse" gradientTransform="translate(363.756 354.005) rotate(171.769) scale(153.028 106.322)">
<stop stop-color="#101517" stop-opacity="0"/>
<stop offset="1"/>
</radialGradient>
<linearGradient id="paint3_linear" x1="233.375" y1="219.524" x2="272.166" y2="297.009" gradientUnits="userSpaceOnUse">
<stop stop-color="white"/>
<stop offset="0.391904" stop-color="#E9E9EA"/>
<stop offset="0.989583" stop-color="#C5C6C8"/>
</linearGradient>
<linearGradient id="paint4_linear" x1="104.83" y1="185.689" x2="143.62" y2="263.174" gradientUnits="userSpaceOnUse">
<stop stop-color="white"/>
<stop offset="0.458333" stop-color="#E9E9EA"/>
<stop offset="0.989583" stop-color="#C5C6C8"/>
</linearGradient>
<linearGradient id="paint5_linear" x1="61.1408" y1="181.566" x2="69.5729" y2="194.327" gradientUnits="userSpaceOnUse">
<stop offset="0.0520833" stop-color="white"/>
<stop offset="0.654629" stop-color="#E2E2E2"/>
</linearGradient>
<linearGradient id="paint6_linear" x1="140.773" y1="196.973" x2="172.071" y2="223.27" gradientUnits="userSpaceOnUse">
<stop offset="0.0520833" stop-color="white"/>
<stop offset="0.558292" stop-color="#E2E2E2"/>
<stop offset="0.941958" stop-color="#CBCBCB"/>
</linearGradient>
<linearGradient id="paint7_linear" x1="327.906" y1="130.422" x2="317.065" y2="213.099" gradientUnits="userSpaceOnUse">
<stop stop-color="white"/>
<stop offset="0.538572" stop-color="#E9E9EA"/>
<stop offset="0.989583" stop-color="#C5C6C8"/>
</linearGradient>
<linearGradient id="paint8_linear" x1="323.337" y1="294.557" x2="347.201" y2="281.417" gradientUnits="userSpaceOnUse">
<stop stop-color="white"/>
<stop offset="0.770833" stop-color="#E9E9EA"/>
<stop offset="0.989583" stop-color="#C5C6C8"/>
</linearGradient>
<linearGradient id="paint9_linear" x1="419.25" y1="206.301" x2="376.144" y2="290.066" gradientUnits="userSpaceOnUse">
<stop stop-color="white"/>
<stop offset="0.498543" stop-color="#E9E9EA"/>
<stop offset="0.989583" stop-color="#C5C6C8"/>
</linearGradient>
<linearGradient id="paint10_linear" x1="366.669" y1="278.571" x2="439.429" y2="298.946" gradientUnits="userSpaceOnUse">
<stop offset="0.0520833" stop-color="white"/>
<stop offset="0.941958" stop-color="#E2E2E2"/>
</linearGradient>
<linearGradient id="paint11_linear" x1="409.583" y1="144.262" x2="519.32" y2="319.745" gradientUnits="userSpaceOnUse">
<stop offset="0.0520833" stop-color="white"/>
<stop offset="0.834158" stop-color="#E2E2E2"/>
<stop offset="0.941958" stop-color="#E2E2E2"/>
</linearGradient>
<linearGradient id="paint12_linear" x1="154.285" y1="59.1835" x2="102.469" y2="258.395" gradientUnits="userSpaceOnUse">
<stop stop-color="white"/>
<stop offset="0.552347" stop-color="#E9E9EA"/>
<stop offset="0.989583" stop-color="#C5C6C8"/>
</linearGradient>
<linearGradient id="paint13_linear" x1="272.876" y1="247.754" x2="222.057" y2="289.269" gradientUnits="userSpaceOnUse">
<stop stop-color="white"/>
<stop offset="0.391904" stop-color="#E9E9EA"/>
<stop offset="0.989583" stop-color="#C5C6C8"/>
</linearGradient>
<linearGradient id="paint14_linear" x1="448.526" y1="327.349" x2="387.676" y2="356.674" gradientUnits="userSpaceOnUse">
<stop offset="0.0520833" stop-color="white"/>
<stop offset="0.941958" stop-color="#E2E2E2"/>
</linearGradient>
<linearGradient id="paint15_linear" x1="498.948" y1="213.467" x2="495.696" y2="248.824" gradientUnits="userSpaceOnUse">
<stop offset="0.0520833" stop-color="white"/>
<stop offset="0.941958" stop-color="#D6D7D8"/>
</linearGradient>
<linearGradient id="paint16_linear" x1="550.289" y1="148.683" x2="526.742" y2="82.9292" gradientUnits="userSpaceOnUse">
<stop offset="0.276042" stop-color="white"/>
<stop offset="0.941958" stop-color="#C4C4C4"/>
</linearGradient>
<linearGradient id="paint17_linear" x1="514.647" y1="103.789" x2="495.727" y2="58.9842" gradientUnits="userSpaceOnUse">
<stop offset="0.0520833" stop-color="white"/>
<stop offset="0.941958" stop-color="#E2E2E2"/>
</linearGradient>
<linearGradient id="paint18_linear" x1="462.667" y1="133.341" x2="531.274" y2="177.149" gradientUnits="userSpaceOnUse">
<stop stop-color="#E2E2E2"/>
<stop offset="0.980003" stop-color="white"/>
</linearGradient>
<linearGradient id="paint19_linear" x1="547.497" y1="90.5054" x2="544.635" y2="80.6744" gradientUnits="userSpaceOnUse">
<stop offset="0.0520833" stop-color="white"/>
<stop offset="0.941958" stop-color="#E2E2E2"/>
</linearGradient>
<linearGradient id="paint20_linear" x1="281.748" y1="238.048" x2="315.235" y2="264.243" gradientUnits="userSpaceOnUse">
<stop offset="0.0520833" stop-color="white"/>
<stop offset="0.941958" stop-color="#E2E2E2"/>
</linearGradient>
<linearGradient id="paint21_linear" x1="263.889" y1="329.718" x2="336.208" y2="347.957" gradientUnits="userSpaceOnUse">
<stop offset="0.0520833" stop-color="white"/>
<stop offset="0.941958" stop-color="#E2E2E2"/>
</linearGradient>
<linearGradient id="paint22_linear" x1="346.181" y1="341.333" x2="316.018" y2="209.716" gradientUnits="userSpaceOnUse">
<stop/>
<stop offset="1" stop-opacity="0"/>
</linearGradient>
</defs>
</svg>
