<?xml version="1.0" encoding="utf-8"?>
<svg version="1.1" id="Layer_1" viewBox="0 0 730.8 774.2" style="enable-background:new 0 0 730.8 774.2;" xmlns="http://www.w3.org/2000/svg">
  <style type="text/css">
	.st0{fill:url(#base_00000007423445637667278450000016758902703891613600_);}
	.st1{fill:#E7EAED;}
	.st2{fill-opacity:8.000000e-02;}
	.st3{fill:url(#wing_shoulder_00000077295590998466760330000003343204912827643293_);}
	.st4{fill:#FFFFFF;}
	.st5{fill:url(#shoulder-new_00000150078153492632515020000015021296142859205781_);}
	.st6{fill:url(#hip_00000154411066467301899850000003219640071633839498_);}
	.st7{fill:url(#hip-2_00000008109630804449877140000002659306819566333366_);}
	.st8{fill:url(#hip-3_00000029013588542696624760000003157473921843481492_);}
	.st9{fill:url(#hipbottom_00000163766943734564853530000010550598697046776460_);}
	.st10{fill:url(#ripple-1-shadow_00000160153864351888468410000003294186505693679034_);}
	.st11{fill:url(#ripple-1_00000150799339083135753550000013431113265859522209_);}
	.st12{fill:url(#ripple-2-shadow_00000161607906094417136490000014937919697885503670_);}
	.st13{fill:url(#ripple-2_00000167396900586925005830000016287821643542529945_);}
	.st14{fill:url(#ripple-3-shadow_00000049192449995401745300000014647153681396460977_);}
	.st15{fill:url(#ripple-3_00000037662159958732163470000015536655035553795728_);}
	.st16{fill:url(#ripple-4-shadow_00000031182279031743243010000017134100183110706318_);}
	.st17{fill:url(#ripple-4_00000020375206433402517230000003059395516362087554_);}
	.st18{fill:url(#wing-shadow_00000022548330922074915930000013657368524094803135_);}
	.st19{fill:url(#chest_00000127765849978112682620000003067166775650680965_);}
	.st20{fill:url(#cheek-low-1_00000101820748094503501630000016093505850262697109_);}
	.st21{fill:url(#wing-inset2_00000131360670377167604190000013222144918210624409_);}
	.st22{fill:url(#wing-inset1_00000131335520415732967830000017281948930438491306_);}
	.st23{fill:url(#beak-1_00000060030631752900469970000000499053954861089182_);stroke:#D4D7DB;}
	.st24{fill:url(#beak-top_00000166660602488629617880000015039174228945772734_);}
	.st25{fill-opacity:6.000000e-02;}
	.st26{fill:url(#cheek-1_00000043415745102836711840000001305926448897682564_);}
	.st27{fill:url(#cheek-2_00000053508976835203462670000012132202109261245088_);}
	.st28{fill:url(#eye-ripple-shadow_00000176022539314087404710000015626922913823806871_);}
	.st29{fill:url(#eye-ripple_00000090288635568353949390000010917806325638510261_);stroke:#D4D5D6;}
	.st30{fill:url(#ripple-shad_00000010302905802324452540000003384001491485293961_);}
	.st31{fill:url(#inner-ripple_00000032614386106117410890000009485243074916950441_);}
	.st32{fill:url(#eye-ripple-4-shadow_00000034049047920486850520000007952112086936562061_);}
	.st33{fill:url(#eye-ripple-4_00000128480186723297102620000010095964386224446398_);stroke:#EAEAEA;}
	.st34{fill:url(#cap_00000052080880477387183790000004735108652413590912_);}
</style>
  <radialGradient id="base_00000046318107294558320740000014314253108764896903_" cx="345.2477" cy="412.0042" r="271.9809" gradientUnits="userSpaceOnUse">
    <stop offset="0" style="stop-color:#E7EAED"/>
    <stop offset="0.064" style="stop-color:#EDEFF1"/>
    <stop offset="1" style="stop-color:#FBFBFB"/>
  </radialGradient>
  <path id="base" style="fill:url(#base_00000046318107294558320740000014314253108764896903_);" d="M610.3,447.5l-22.4-32.2 c3.5-1.9,9.7-6.8,6.5-11c-3.2-4.2-22.4-24.7-31.6-34.5l-38.8-7.1l-28.2,32.7l-15.7-0.4l-4.2-43.5l3-25.6l7.4-42.4l3.4-32.1 l-14.3,38.2l15.9-64.2l-3.8-28.2l2.2-17.2l-0.1-46.8l-21.8,172.5l-2,15.2l-0.2-0.9l-15.5,117.4l-128.9-82.7l-75.7-103.9l-56.7-109.8 l-25.9,50.3l18.8,66.1l76.1,66.5L96.4,216.8l-1.5,51.5l31.3,41.7l134,43l-180-39.4l20.8,49l32.2,22.2l114.5-6.7L97.1,396.9l34.6,42 l38.8,13.4l-24.1,13.3l32.2,26.2l34.7,4.8l-16.2,15.2l25.3,16.9L253,521l12.6-10.4l-25.2,35.1l31.9,4.1l26.3-14.5l7.8-10.6 l-13.5,35.5l21.4,3.6l23.9-13.2l-0.6,14L369,550l30.1-38l0.1,0.2l0.7,40.3l-96.7,122.4l16.6,15.9l26.5-7.5l18.6,7.2l16.7-17.3 l19.3,1.9l13.5-23.4l16.5-7.5l11.7-21.8l0.6-6.1l19.5-5.1l3.5-22.5l-8.9-11.2l60.8-30.7l34.3-24.7l13.5-21.1l9.1-34.2l-0.4-26.6 L610.3,447.5z"/>
  <path id="tail" class="st1" d="M405,545.5L303.4,674.8l16.4,16L398,563.7L375,610.1l-28.7,73.2l18.5,7.5l38-133.8l6.6-3.6 l-27.6,119.9l19,2L416,549.8l-1.4,101.9l16.5-7.5L419,548.1l24.1,68.4l19.9-5.3L419.1,540L405,545.5z"/>
  <path id="tail_shadow" class="st2" d="M438.1,571.2l-21-16.4l-4.8-8.8l-17.2,23.5l-27.5,44.5l6.5-1l12.5,4.5l10-5.8l11.5,7.4l3.6-10 l10.4,2.3l12.9-18l13.8-5.5l8.6-10.4L438.1,571.2z"/>
  <linearGradient id="wing_shoulder_00000158718809660094828100000018343856699215397531_" gradientUnits="userSpaceOnUse" x1="323.6665" y1="327.8464" x2="399.5662" y2="389.5276" gradientTransform="matrix(1 0 0 -1 0 774.3727)">
    <stop offset="0" style="stop-color:#D8DCE1"/>
    <stop offset="1" style="stop-color:#FFFFFF"/>
  </linearGradient>
  <path id="wing_shoulder" style="fill:url(#wing_shoulder_00000158718809660094828100000018343856699215397531_);" d="M430.3,460.6 l-114-108.8l134.1,85.2L430.3,460.6z"/>
  <path id="shoulder-2" class="st4" d="M450.7,438l15-118.6l14.9,73.5l-2.8,30.1L450.7,438z"/>
  <linearGradient id="shoulder-new_00000083056584032326748040000010456429018351470485_" gradientUnits="userSpaceOnUse" x1="331.413" y1="303.8248" x2="378.9899" y2="365.8447" gradientTransform="matrix(1 0 0 -1 0 774.3727)">
    <stop offset="0.2491" style="stop-color:#BEC5CD"/>
    <stop offset="0.9067" style="stop-color:#FFFFFF"/>
  </linearGradient>
  <path id="shoulder-new" style="fill:url(#shoulder-new_00000083056584032326748040000010456429018351470485_);" d="M430.3,460.6 L320.5,354.8l78.7,157.4L430.3,460.6z"/>
  <linearGradient id="hip_00000163046555821503669610000009005191147115931559_" gradientUnits="userSpaceOnUse" x1="385.4223" y1="301.4639" x2="434.6863" y2="200.6941" gradientTransform="matrix(1 0 0 -1 0 774.3727)">
    <stop offset="0" style="stop-color:#CED3D8"/>
    <stop offset="0.2811" style="stop-color:#ECEEF1"/>
    <stop offset="0.5709" style="stop-color:#FFFFFF"/>
    <stop offset="0.8984" style="stop-color:#E4E6E5"/>
  </linearGradient>
  <path id="hip" style="fill:url(#hip_00000163046555821503669610000009005191147115931559_);" d="M398.9,512.7l31.4-51.3l31.3,83.7 l-61.7,61L398.9,512.7z"/>
  <linearGradient id="hip-2_00000004536228981731353230000017034013662103712162_" gradientUnits="userSpaceOnUse" x1="350.11" y1="230.5953" x2="532.8591" y2="172.1843" gradientTransform="matrix(1 0 0 -1 0 774.3727)">
    <stop offset="0" style="stop-color:#BEC5CD"/>
    <stop offset="0.4356" style="stop-color:#ECEEF1"/>
    <stop offset="1" style="stop-color:#FFFFFF"/>
  </linearGradient>
  <path id="hip-2" style="fill:url(#hip-2_00000004536228981731353230000017034013662103712162_);" d="M399.6,511.9 c0,0,12.7,4.4,25.3,10.6c12.6,6.2,37.4,22.2,37.4,22.2l-62.7,62.6V511.9z"/>
  <radialGradient id="hip-3_00000025442600423723472350000000758250265478755753_" cx="-270.026" cy="749.5945" r="1.0054" gradientTransform="matrix(32 23 46.2608 -64.3628 -25633.2207 54982.7344)" gradientUnits="userSpaceOnUse">
    <stop offset="0.0401" style="stop-color:#FFFFFF;stop-opacity:0.65"/>
    <stop offset="0.7012" style="stop-color:#FFFFFF;stop-opacity:0"/>
  </radialGradient>
  <path id="hip-3" style="fill:url(#hip-3_00000025442600423723472350000000758250265478755753_);" d="M399.1,512 c0,0,13.2,4.3,25.8,10.5c12.6,6.2,37.4,22.2,37.4,22.2l-62.7,62.6L399.1,512z"/>
  <linearGradient id="hipbottom_00000070822245205125873290000009286296176233682330_" gradientUnits="userSpaceOnUse" x1="470.941" y1="182.7469" x2="426.3521" y2="252.681" gradientTransform="matrix(1 0 0 -1 0 774.3727)">
    <stop offset="0" style="stop-color:#BEC5CD"/>
    <stop offset="0.7597" style="stop-color:#ECEEF1"/>
    <stop offset="1" style="stop-color:#FFFFFF"/>
  </linearGradient>
  <path id="hipbottom" style="fill:url(#hipbottom_00000070822245205125873290000009286296176233682330_);" d="M521.9,546.2l-59.6-1.5 l-61.7,62.1L521.9,546.2z"/>
  <radialGradient id="ripple-1-shadow_00000089546229310533805660000008435799089234296767_" cx="-278.1477" cy="749.5322" r="1" gradientTransform="matrix(-22 44.5 85.9346 42.4846 -70027.1641 -18944.7246)" gradientUnits="userSpaceOnUse">
    <stop offset="0.0171" style="stop-color:#000000"/>
    <stop offset="0.5162" style="stop-color:#252628;stop-opacity:0.807"/>
    <stop offset="0.8174" style="stop-color:#BEC5CD;stop-opacity:0"/>
  </radialGradient>
  <path id="ripple-1-shadow" style="fill:url(#ripple-1-shadow_00000089546229310533805660000008435799089234296767_);" d=" M450.2,551.7l50-35.6l41.3,13.7l-23.7,18.5l-11.5,5.5c0,0-17.1,5.5-27.6,5C468.2,558.3,450.2,551.7,450.2,551.7z"/>
  <linearGradient id="ripple-1_00000139275064159780407360000015374237478515202220_" gradientUnits="userSpaceOnUse" x1="532.172" y1="207.3545" x2="466.97" y2="296.8855" gradientTransform="matrix(1 0 0 -1 0 774.3727)">
    <stop offset="0" style="stop-color:#BEC5CD"/>
    <stop offset="0.7597" style="stop-color:#ECEEF1"/>
    <stop offset="1" style="stop-color:#FFFFFF"/>
  </linearGradient>
  <path id="ripple-1" style="fill:url(#ripple-1_00000139275064159780407360000015374237478515202220_);" d="M462.3,544.7l50-35.6 l41.3,13.7l-33.4,25.3c0,0-18.9,4.1-29.4,3.7C480.3,551.4,462.3,544.7,462.3,544.7z"/>
  <radialGradient id="ripple-2-shadow_00000102507664683506555300000016550716008043001263_" cx="-276.8833" cy="751.4272" r="1" gradientTransform="matrix(-5.7288 40.8297 61.32 8.6038 -47135.8555 5336.7397)" gradientUnits="userSpaceOnUse">
    <stop offset="0.0171" style="stop-color:#000000"/>
    <stop offset="0.5162" style="stop-color:#252628;stop-opacity:0.807"/>
    <stop offset="0.8174" style="stop-color:#BEC5CD;stop-opacity:0"/>
  </radialGradient>
  <path id="ripple-2-shadow" style="fill:url(#ripple-2-shadow_00000102507664683506555300000016550716008043001263_);" d=" M545.3,529.3l9-7c0,0-4.6-19.9-13-20.8c-8.4-0.9-20.6-4.4-20.6-4.4l-27.2,21.5c0,0,15.7,11.9,27.2,13 C532.2,532.7,545.3,529.3,545.3,529.3z"/>
  <linearGradient id="ripple-2_00000151509971099236280080000008279311806755438525_" gradientUnits="userSpaceOnUse" x1="559.9738" y1="228.5314" x2="497.9787" y2="329.3094" gradientTransform="matrix(1 0 0 -1 0 774.3727)">
    <stop offset="0" style="stop-color:#BEC5CD"/>
    <stop offset="0.7597" style="stop-color:#ECEEF1"/>
    <stop offset="1" style="stop-color:#FFFFFF"/>
  </linearGradient>
  <path id="ripple-2" style="fill:url(#ripple-2_00000151509971099236280080000008279311806755438525_);" d="M554.1,523.2l14.9-24.8 c0,0-12.2-3.5-20.6-4.4c-8.4-0.9-20.6-4.4-20.6-4.4l-27.2,21.5c0,0,15.7,11.9,27.2,13C539.1,525.2,554.1,523.2,554.1,523.2z"/>
  <radialGradient id="ripple-3-shadow_00000057120638479606173520000008387101079818129823_" cx="-276.7607" cy="752.5582" r="1" gradientTransform="matrix(-2.5514 34.2274 49.5817 3.696 -37473.4336 7169.6616)" gradientUnits="userSpaceOnUse">
    <stop offset="0.0171" style="stop-color:#000000"/>
    <stop offset="0.5162" style="stop-color:#252628;stop-opacity:0.807"/>
    <stop offset="0.8174" style="stop-color:#BEC5CD;stop-opacity:0"/>
  </radialGradient>
  <path id="ripple-3-shadow" style="fill:url(#ripple-3-shadow_00000057120638479606173520000008387101079818129823_);" d=" M569.8,496.8l-25.1-20.2l-23.1,20.2c0,0,15.9,8.6,27.5,9.4c11.6,0.8,15.2,0,15.2,0L569.8,496.8z"/>
  <linearGradient id="ripple-3_00000098217519877170635530000014973964360599052676_" gradientUnits="userSpaceOnUse" x1="573.5715" y1="255.0343" x2="519.3245" y2="341.0503" gradientTransform="matrix(1 0 0 -1 0 774.3727)">
    <stop offset="0" style="stop-color:#BEC5CD"/>
    <stop offset="0.6189" style="stop-color:#ECEEF1"/>
    <stop offset="1" style="stop-color:#FFFFFF"/>
  </linearGradient>
  <path id="ripple-3" style="fill:url(#ripple-3_00000098217519877170635530000014973964360599052676_);" d="M574.5,475.2l-24.9-5 l-23.1,20.2c0,0,15.9,8.6,27.5,9.4c11.6,0.8,16.1,0.2,16.1,0.2L574.5,475.2z"/>
  <radialGradient id="ripple-4-shadow_00000076598636631673473160000009140863292188138638_" cx="-275.9006" cy="756.1194" r="1" gradientTransform="matrix(1.5 29.5 30.4701 -1.5493 -22067.875 9765.8047)" gradientUnits="userSpaceOnUse">
    <stop offset="0.0171" style="stop-color:#000000"/>
    <stop offset="0.5738" style="stop-color:#252628;stop-opacity:0.807"/>
    <stop offset="0.8804" style="stop-color:#BEC5CD;stop-opacity:0"/>
  </radialGradient>
  <path id="ripple-4-shadow" style="fill:url(#ripple-4-shadow_00000076598636631673473160000009140863292188138638_);" d=" M546.7,475.8c0,0-15.1-11.7-16.6-13.7s18.6-1.5,25-3.5c6.4-2,17.9-12.8,17.9-12.8s2.7,11.1,2.7,16.2c0,5.1-2.1,20-2.1,20 s-3.8-0.7-12.1-0.2C553.2,482.5,546.7,475.8,546.7,475.8z"/>
  <linearGradient id="ripple-4_00000068650756232229115770000012560126332019339939_" gradientUnits="userSpaceOnUse" x1="589.0377" y1="286.7499" x2="528.9617" y2="354.0579" gradientTransform="matrix(1 0 0 -1 0 774.3727)">
    <stop offset="0" style="stop-color:#BEC5CD"/>
    <stop offset="0.5025" style="stop-color:#ECEEF1"/>
    <stop offset="1" style="stop-color:#FFFFFF"/>
  </linearGradient>
  <path id="ripple-4" style="fill:url(#ripple-4_00000068650756232229115770000012560126332019339939_);" d="M549,470 c0,0-15.1-11.7-16.6-13.7s18.6-1.5,25-3.5c6.4-2,17.9-12.8,17.9-12.8s2.7,11.1,2.7,16.2c0,5.1-2.1,20-2.1,20s-3.8-0.7-12.1-0.2 C555.5,476.6,549,470,549,470z"/>
  <radialGradient id="wing-shadow_00000064336344229005104740000016875906242173083546_" cx="-274.3364" cy="749.1159" r="1" gradientTransform="matrix(43.0001 98.5002 125.5721 -54.8183 -81801.6875 68544.2266)" gradientUnits="userSpaceOnUse">
    <stop offset="0.0171" style="stop-color:#000000"/>
    <stop offset="0.5778" style="stop-color:#252628;stop-opacity:0.807"/>
    <stop offset="0.8174" style="stop-color:#BEC5CD;stop-opacity:0"/>
  </radialGradient>
  <path id="wing-shadow" style="fill:url(#wing-shadow_00000064336344229005104740000016875906242173083546_);" d="M485,440.2l14.4-8 L536,424l7.3,29.3l7,18.5c4,7.5-0.4,32-11.5,43.2c-17.6,17.7-59.1,35.3-59.1,35.3l-17.5-5.5c0,0-16.2-20.5-16.2-33.5 c0-13-2.9-36.1-2.9-36.1l36.6-24.8L485,440.2z"/>
  <radialGradient id="chest_00000066508404928601286050000011237867712905753476_" cx="490.4323" cy="296.799" r="86.6184" gradientTransform="matrix(0.8059 -0.592 -0.4088 -0.5565 216.5274 933.105)" gradientUnits="userSpaceOnUse">
    <stop offset="0.0628" style="stop-color:#FFFFFF"/>
    <stop offset="0.3821" style="stop-color:#F3F4F6"/>
    <stop offset="0.7085" style="stop-color:#ECEEF1"/>
    <stop offset="0.9914" style="stop-color:#BEC5CD"/>
  </radialGradient>
  <path id="chest" style="fill:url(#chest_00000066508404928601286050000011237867712905753476_);" d="M471.7,426.2l14.4-8l36.6-8.2 l18.6,33.7l9.6,27.8c-5,9.6-14.3,18.3-25.4,29.5c-17.6,17.7-57.8,41.1-57.8,41.1l-5.7,3.1c0,0-18.1-27.1-23-41.6s-9.1-42.4-9.1-42.4 l36.6-24.8L471.7,426.2z"/>
  <path id="cheek-low-2" class="st4" d="M466.9,438.2L471,424l7.8-1.4l11.8-6.5l24.8-0.6l-24.7,13.1L466.9,438.2z"/>
  <linearGradient id="cheek-low-1_00000157274934961749080990000002589374658658774175_" gradientUnits="userSpaceOnUse" x1="493.6168" y1="355.4018" x2="460.5168" y2="300.5508" gradientTransform="matrix(1 0 0 -1 0 774.3727)">
    <stop offset="0" style="stop-color:#BEC5CD"/>
    <stop offset="0.2661" style="stop-color:#E1E4E8;stop-opacity:0.4685"/>
    <stop offset="0.8275" style="stop-color:#FFFFFF;stop-opacity:0"/>
  </linearGradient>
  <path id="cheek-low-1" style="fill:url(#cheek-low-1_00000157274934961749080990000002589374658658774175_);" d="M466.9,438.2 L471,424l7.8-1.4l11.8-6.5l24.8-0.6L491.8,429L466.9,438.2z"/>
  <path id="lower-cheek" class="st4" d="M430.3,460.6l20-23.7l9.2-6.1L471,424l-3.9,13.6l-13.6,11.5L430.3,460.6z"/>
  <radialGradient id="wing-inset2_00000129182675719725419920000007438036173099223470_" cx="210.8148" cy="495.2897" r="212.8701" gradientUnits="userSpaceOnUse">
    <stop offset="0" style="stop-color:#E4EAF0"/>
    <stop offset="1" style="stop-color:#EFF1F3"/>
  </radialGradient>
  <polygon id="wing-inset2" style="fill:url(#wing-inset2_00000129182675719725419920000007438036173099223470_);" points="&#10;&#9;399.2,512.2 330.4,379.4 326.5,376.8 214.1,250.6 176.9,168.9 163.6,192.2 182.1,256.8 257.1,323.3 320.2,372.5 320.2,372.5 &#10;&#9;95.3,256.8 95.5,268.7 125.7,309.7 305.7,373 101.6,361.3 134.4,385.5 241.5,377.7 314,378.7 132.1,438.1 171.1,452 316.4,383.1 &#10;&#9;179.4,490.8 214.8,495.8 323,383.5 221.7,526.9 252.5,520.7 265.3,510.8 324,391.5 272.3,549.2 298.5,534.7 305.9,524.3 &#10;&#9;329.6,386.1 315.3,562 338.9,548.9 332.9,392.3 369,549.5 "/>
  <linearGradient id="wing-inset1_00000029046096218870275430000006969206484792186766_" gradientUnits="userSpaceOnUse" x1="481.1545" y1="436.3234" x2="34.126" y2="301.6317">
    <stop offset="0" style="stop-color:#BEC5CD"/>
    <stop offset="0.4014" style="stop-color:#ECEEF1;stop-opacity:0.51"/>
    <stop offset="0.748" style="stop-color:#FFFFFF;stop-opacity:0"/>
  </linearGradient>
  <polygon id="wing-inset1" style="fill:url(#wing-inset1_00000029046096218870275430000006969206484792186766_);" points="&#10;&#9;399.2,512.2 332.4,378.4 329.5,372.8 214.1,250.6 176.9,168.9 163.6,192.2 182.1,256.8 257.1,323.3 320.2,372.5 320.2,372.5 &#10;&#9;95.3,256.8 95.5,268.7 125.7,309.7 305.7,373 101.6,361.3 134.4,385.5 241.5,377.7 314,378.7 132.1,438.1 171.1,452 316.4,383.1 &#10;&#9;179.4,490.8 214.8,495.8 323,383.5 221.7,526.9 252.5,520.7 265.3,510.8 324,391.5 272.3,549.2 298.5,534.7 305.9,524.3 &#10;&#9;329.6,386.1 315.3,562 338.9,548.9 332.9,392.3 369,549.5 "/>
  <radialGradient id="beak-1_00000008850559340857519730000003000444630776079259_" cx="-277.7745" cy="748.012" r="1" gradientTransform="matrix(-41.5532 56.0945 188.3912 139.5549 -151877.6875 -88381.9688)" gradientUnits="userSpaceOnUse">
    <stop offset="0.0401" style="stop-color:#B7BFC8"/>
    <stop offset="0.2313" style="stop-color:#F7F8F9"/>
  </radialGradient>
  <path id="beak-1" style="fill:url(#beak-1_00000008850559340857519730000003000444630776079259_);stroke:#D4D7DB;" d="M609.2,444.4 c0.4,1.2,0.9,3.8-0.1,4.7c-4.3-1.3-16.4-3.8-16.4-3.8s-26.1-6.7-34.3-9l28.4-20.5l4,4.8L609.2,444.4z"/>
  <linearGradient id="beak-top_00000119829074578784967610000018010742217202301365_" gradientUnits="userSpaceOnUse" x1="584.3109" y1="327.1511" x2="598.8639" y2="347.2491" gradientTransform="matrix(1 0 0 -1 0 774.3727)">
    <stop offset="0.1003" style="stop-color:#B7BFC8"/>
    <stop offset="0.5868" style="stop-color:#DADEE2"/>
    <stop offset="0.7428" style="stop-color:#EDEFF1"/>
    <stop offset="0.9123" style="stop-color:#FFFFFF"/>
  </linearGradient>
  <path id="beak-top" style="fill:url(#beak-top_00000119829074578784967610000018010742217202301365_);" d="M610.9,447.4 c0,0-34.9-24.2-35.5-24.8l10.2-8.1C602.2,430,613.7,443.4,610.9,447.4z"/>
  <path id="cheek-1-shadow_00000093876529714552839220000013488514524139629208_" class="st25" d="M573,439.4 c0.4-3.4,6.6-9.6,12.1-9.7c0.4,0-0.7-0.8-0.7-0.8s-1.5-0.4-1.3-0.8c1.5-2.3,2.4-4.3,2.4-5.5l-3.5-12.2l-40.3-23.1l-16.5,9.1 L477.9,423l5.3,8.6l4.5-1.1c5.6,2.1,13.4,2,22.5-6.4c0,0-5.9,14.1,15.2,25c6,3.1,16,8.6,21.8,10.4l-2.7-5.4c7.5,3,13.6,2.6,13.6,2.6 c6.7-1,16.7-7.6,18.4-12.1c0.1-0.2-0.8-3-0.8-3s-3-0.7-2.8-0.9C573.4,440.1,572.9,440,573,439.4z"/>
  <linearGradient id="cheek-1_00000086688313992569706910000011909783860447240103_" gradientUnits="userSpaceOnUse" x1="533.0952" y1="368.6406" x2="535.0352" y2="322.1006" gradientTransform="matrix(1 0 0 -1 0 774.3727)">
    <stop offset="0" style="stop-color:#BEC5CD"/>
    <stop offset="0.2885" style="stop-color:#ECEEF1"/>
    <stop offset="1" style="stop-color:#FFFFFF"/>
  </linearGradient>
  <path id="cheek-1" style="fill:url(#cheek-1_00000086688313992569706910000011909783860447240103_);" d="M569.3,433.8 c8.4-0.3,17.3-11.5,17.9-12.7l-7.9-19L539,379l-16.5,9.1l-42.2,33c0,0,19.8-2.4,25.8-2.9c4.7,0.3-4.7,11.6,16.4,22.5 c15.9,8.2,35.5,11.6,35.5,11.6C559.1,448.9,560.9,434.1,569.3,433.8z"/>
  <radialGradient id="cheek-2_00000119825421231105387930000017567903756412473733_" cx="-276.1765" cy="748.7719" r="1" gradientTransform="matrix(-12.8895 72.8173 161.2512 28.5432 -123734.6875 -853.0742)" gradientUnits="userSpaceOnUse">
    <stop offset="0.0401" style="stop-color:#B7BFC8"/>
    <stop offset="0.3431" style="stop-color:#FFFFFF;stop-opacity:0"/>
  </radialGradient>
  <path id="cheek-2" style="fill:url(#cheek-2_00000119825421231105387930000017567903756412473733_);" d="M569.3,433.8 c8.4-0.3,17.3-11.5,17.9-12.7l-7.9-19L539,379l-16.5,9.1l-42.2,33c0,0,19.8-2.4,25.8-2.9c4.7,0.3-4.7,11.6,16.4,22.5 c15.9,8.2,35.5,11.6,35.5,11.6C559.1,448.9,560.9,434.1,569.3,433.8z"/>
  <linearGradient id="eye-ripple-shadow_00000041990920929987269570000017197693144291085988_" gradientUnits="userSpaceOnUse" x1="552.5126" y1="412.2549" x2="551.9226" y2="352.2019" gradientTransform="matrix(1 0 0 -1 0 774.3727)">
    <stop offset="0.0171" style="stop-color:#000000"/>
    <stop offset="0.5865" style="stop-color:#252628;stop-opacity:0.807"/>
    <stop offset="0.959" style="stop-color:#BEC5CD;stop-opacity:0"/>
  </linearGradient>
  <path id="eye-ripple-shadow" style="fill:url(#eye-ripple-shadow_00000041990920929987269570000017197693144291085988_);" d=" M538.1,419.1l-30.1-0.8l5.3-21.3l47.7-9.3c10.5,7.5,34.8,37.1,34.8,37.1s-3.2-1-5,0c-1.8,1-5,2.6-5,2.6l-13.5-8.8 c-0.9-2.6-3.4-4.8-5.8-5.7c-2.9-1.2-6.6,4.9-8.4,5.5C556.7,418.7,544.2,419,538.1,419.1z"/>
  <linearGradient id="eye-ripple_00000119819076779914540620000004432594696117599640_" gradientUnits="userSpaceOnUse" x1="568.4582" y1="392.5606" x2="536.0381" y2="337.5136" gradientTransform="matrix(1 0 0 -1 0 774.3727)">
    <stop offset="0" style="stop-color:#BEC5CD"/>
    <stop offset="0.5266" style="stop-color:#E4E7EA"/>
    <stop offset="1" style="stop-color:#FFFFFF"/>
  </linearGradient>
  <path id="eye-ripple" style="fill:url(#eye-ripple_00000119819076779914540620000004432594696117599640_);stroke:#D4D5D6;" d=" M537.8,413.7l-28.9-0.5l4.1-21.6l47.7-9.3c10.5,7.5,33.7,39.7,33.7,39.7s-2.3-1-4-0.1c-1.8,1-4,5.1-4,5.1L572,413.1 c-0.9-2.6-3.8-8.9-6.2-9.9c-2.9-1.2-6.2,9.1-8,9.6C556.5,413.3,543.9,413.6,537.8,413.7z"/>
  <radialGradient id="ripple-shad_00000048477138498253278760000012292572071061778580_" cx="-277.1299" cy="748.8438" r="1" gradientTransform="matrix(-10.9052 46.3345 149.396 35.1616 -114321.7891 -13091.7822)" gradientUnits="userSpaceOnUse">
    <stop offset="0.0401" style="stop-color:#B7BFC8"/>
    <stop offset="0.3431" style="stop-color:#FFFFFF;stop-opacity:0"/>
  </radialGradient>
  <path id="ripple-shad" style="fill:url(#ripple-shad_00000048477138498253278760000012292572071061778580_);" d="M537.8,413.7 l-28.9-0.5l4.1-21.6l47.7-9.3c10.5,7.5,33.7,39.7,33.7,39.7s-2.3-1-4-0.1c-1.8,1-4,5.1-4,5.1L572,413.1c-0.9-2.6-3.8-8.9-6.2-9.9 c-2.9-1.2-6.2,9.1-8,9.6C556.5,413.3,543.9,413.6,537.8,413.7z"/>
  <radialGradient id="inner-ripple_00000012457899564284205500000008166331077730757252_" cx="-267.2869" cy="722.8953" r="1" gradientTransform="matrix(10.1927 -18.7712 -7.9133 -4.2969 9009.3926 -1507.6132)" gradientUnits="userSpaceOnUse">
    <stop offset="0" style="stop-color:#FFFFFF"/>
    <stop offset="0.5049" style="stop-color:#FFFFFF;stop-opacity:0"/>
  </radialGradient>
  <path id="inner-ripple" style="fill:url(#inner-ripple_00000012457899564284205500000008166331077730757252_);" d="M566,402.8 c-2.7-0.8-5.9,6.5-7,7.7l-5.7-7.7c3.4-2.5,11.9-9.2,16.4-8.5c4.5,0.7,7.4,8.3,8.3,12l-7,2.8C570.4,408.2,568.1,403.4,566,402.8z"/>
  <radialGradient id="eye-ripple-4-shadow_00000038405090559062753210000002759032401324385156_" cx="-277.157" cy="752.7441" r="1" gradientTransform="matrix(-2.982 30.6569 47.5747 4.6275 -36099.9883 5399.6621)" gradientUnits="userSpaceOnUse">
    <stop offset="0.0171" style="stop-color:#000000"/>
    <stop offset="0.5747" style="stop-color:#252628;stop-opacity:0.807"/>
    <stop offset="0.8035" style="stop-color:#BEC5CD;stop-opacity:0"/>
  </radialGradient>
  <path id="eye-ripple-4-shadow" style="fill:url(#eye-ripple-4-shadow_00000038405090559062753210000002759032401324385156_);" d=" M543.3,413.3l-43-10l20-10.5c8.2,2.9,26.2,9.5,30.3,8.6c4.1-0.9,13.7-4.9,17.2-5.1c-0.5,1,3,9,3,9c-2.8,3.6-11,5.5-13,7.5 C557.1,413.2,543.3,413.3,543.3,413.3z"/>
  <linearGradient id="eye-ripple-4_00000041296157594676518360000009885647574894657443_" gradientUnits="userSpaceOnUse" x1="543.9101" y1="405.7221" x2="534.7301" y2="362.3752" gradientTransform="matrix(1 0 0 -1 0 774.3727)">
    <stop offset="0" style="stop-color:#B7BFC8"/>
    <stop offset="1" style="stop-color:#FFFFFF"/>
  </linearGradient>
  <path id="eye-ripple-4" style="fill:url(#eye-ripple-4_00000041296157594676518360000009885647574894657443_);stroke:#EAEAEA;" d=" M551.8,399.9c3.4-0.7,9.7-1.3,13.7-1.6c-2.1,1.5-4.8,3.3-7.2,4.9c-1.5,1-2.9,1.9-3.9,2.6c-1.1,0.7-1.7,1.1-1.9,1.2 c-0.1,0.1-0.5,0.2-1.1,0.4c-0.5,0.2-1.2,0.4-2,0.6c-1.4,0.4-3,0.9-4,1.2l-35.8-9.8l12.2-7c4.1,1.4,10.5,3.5,16.3,5.1 c3,0.8,5.8,1.5,8.2,2c1.2,0.2,2.3,0.4,3.2,0.5C550.4,400,551.2,400,551.8,399.9z"/>
  <radialGradient id="cap_00000087372516716531421230000001120341971202848404_" cx="-273.697" cy="749.103" r="1.0008" gradientTransform="matrix(40.6383 68.3742 113.519 -67.4702 -73403.0391 69624.2109)" gradientUnits="userSpaceOnUse">
    <stop offset="0" style="stop-color:#FFFFFF"/>
    <stop offset="0.4772" style="stop-color:#FDFDFD"/>
    <stop offset="1" style="stop-color:#F0F1F3"/>
  </radialGradient>
  <path id="cap" style="fill:url(#cap_00000087372516716531421230000001120341971202848404_);" d="M567.7,398.5 c-2.3-2.4-13.2,6.7-16.1,6c0,0-26.6-9.9-31.3-10.1c-8.7-0.5-10.3,19.3-12,24.9c0,0-3.6,4.8-6.5,7s-10.5,2.4-10.5,2.4l-13.4-6 c0,0,4.1-37,14-46.5c9.9-9.4,19.8-11.7,29.4-13.8c9.6-2.1,23.1-1.9,36.5,1.6c10.6,2.8,25.4,16.2,28.9,20.1c3.5,3.9,7.8,11.9,9.6,17 c1.4,5.6-3.5,13.1-3.6,14.1l0.9,5.3c-5-1.7-6.5,0.9-7.7,2.7c-3.7-3.6-9-9.6-10.4-10.6C573.8,411.5,570,400.9,567.7,398.5z"/>
</svg>