<svg width="731" height="775" viewBox="0 0 731 775" fill="none" xmlns="http://www.w3.org/2000/svg">
<path d="M192.989 154.363L249.657 264.151L325.326 368.008L454.513 450.862L471.908 319.001L493.67 146.452L493.806 193.22L491.606 210.431L495.451 238.583L479.521 302.797L493.838 264.61L490.462 296.752L483.032 339.132L480.06 364.767L485.049 416.85L435.426 557.951L470.584 601.934L467.036 624.46L447.55 629.514L446.905 635.584L430.032 666.044L413.518 667.171L405.213 688.327L385.889 686.437L369.144 703.688L350.5 696.5L324 704L307.405 688.104L404.231 565.512L404.231 524.012L373.203 563.2L341.798 577.698L342.372 563.671L318.489 576.868L297.08 573.274L310.613 537.804L302.77 548.422L276.512 562.931L244.566 558.876L269.754 523.822L257.2 534.186L226.636 541.935L201.323 525.074L217.481 509.862L182.818 505.023L150.63 478.822L174.7 465.522L135.879 452.127L101.251 410.137L251.989 391.395L137.459 398.127L105.214 375.957L84.3947 326.908L264.382 366.267L130.345 323.224L99 281.5L100.545 230.01L262.068 337.268L185.925 270.804L167.087 204.665L192.989 154.363Z" fill="url(#paint0_radial)"/>
<path d="M403.36 525.4L321.162 366.31L454.23 451.018L469.748 333.333L483.126 408.202L499.929 408.628L528.122 375.912L566.909 383.042C576.114 392.808 595.328 413.382 598.543 417.546C601.758 421.711 595.56 426.621 592.059 428.555L614.422 460.756L578.987 453.488L579.412 480.102L570.301 514.271L556.849 535.414L522.506 560.104L404.991 619.327L403.36 525.4Z" fill="#E7EAED"/>
<path d="M409.208 558.729L307.56 688.018L324 704L402.125 576.924L379.194 623.299L350.5 696.5L369 704L406.997 570.233L413.561 566.606L386 686.5L405 688.5L420.126 562.979L413.5 667.5L430 666L423.189 561.286L447.267 629.671L467.19 624.374L423.305 553.224L409.208 558.729Z" fill="#E7EAED"/>
<path d="M442.271 584.446L421.231 568.08L416.395 559.328L403.035 582.705L388.833 634.54L400.753 625.097L412.246 632.456L415.862 622.46L426.25 624.718L439.16 606.73L452.976 601.201L461.624 590.823L442.271 584.446Z" fill="black" fill-opacity="0.08"/>
<path d="M435.527 475.064L320.437 364.997L455.785 450.73L435.527 475.064Z" fill="url(#paint1_linear)"/>
<path d="M404.991 619.327L465.696 555.506L521.193 560.829L515.066 564.215L404.991 619.327Z" stroke="#D2D7DC"/>
<path d="M567.968 387.027C569.092 388.234 588.428 409.235 597.955 419.585L598.543 417.546L566.909 383.042L528.122 375.912L523.746 378.33L559.711 387.591C559.972 386.685 560.805 384.815 562.049 384.585C563.604 384.297 566.563 385.518 567.968 387.027Z" stroke="#D2D7DC"/>
<path d="M404.477 525.354L435.285 474.626L466.468 557.936L404.749 618.89L404.477 525.354Z" fill="url(#paint2_linear)" stroke="#E7EAED"/>
<path d="M526.099 559.403L466.468 557.936L404.795 620.007L526.099 559.403Z" fill="url(#paint3_linear)"/>
<path d="M454.386 564.897L504.391 529.268L545.688 543.008L522 561.5L510.5 567C510.5 567 493.414 572.465 482.877 572.004C472.339 571.543 454.386 564.897 454.386 564.897Z" fill="url(#paint4_radial)"/>
<path d="M466.468 557.936L516.473 522.307L557.77 536.048L524.349 561.371C524.349 561.371 505.496 565.504 494.959 565.043C484.421 564.582 466.468 557.936 466.468 557.936Z" fill="url(#paint5_linear)"/>
<path d="M549.5 542.5L558.5 535.5C558.5 535.5 553.892 515.616 545.534 514.72C537.175 513.824 524.945 510.299 524.945 510.299L497.715 531.805C497.715 531.805 513.423 543.691 524.881 544.785C536.34 545.88 549.5 542.5 549.5 542.5Z" fill="url(#paint6_radial)"/>
<path d="M558.217 536.462L573.085 511.68C573.085 511.68 560.855 508.155 552.496 507.259C544.138 506.363 531.908 502.839 531.908 502.839L504.678 524.345C504.678 524.345 520.386 536.23 531.844 537.325C543.303 538.42 558.217 536.462 558.217 536.462Z" fill="url(#paint7_linear)"/>
<path d="M574 509.99L548.898 489.792L525.784 509.99C525.784 509.99 541.693 518.623 553.25 519.377C564.806 520.132 568.5 519.377 568.5 519.377L574 509.99Z" fill="url(#paint8_radial)"/>
<path d="M578.676 488.442L553.811 483.395L530.696 503.593C530.696 503.593 546.606 512.226 558.163 512.98C569.719 513.735 574.285 513.211 574.285 513.211L578.676 488.442Z" fill="url(#paint9_linear)"/>
<path d="M550.823 489.031C550.823 489.031 535.692 477.305 534.192 475.305C532.692 473.305 552.762 473.832 559.191 471.832C565.621 469.832 577.116 459.078 577.116 459.078C577.116 459.078 579.81 470.157 579.798 475.305C579.787 480.453 577.713 495.309 577.713 495.309C577.713 495.309 573.878 494.571 565.621 495.135C557.364 495.699 550.823 489.031 550.823 489.031Z" fill="url(#paint10_radial)"/>
<path d="M553.131 483.199C553.131 483.199 538 471.473 536.5 469.473C535 467.473 555.071 468 561.5 466C567.929 464 579.424 453.246 579.424 453.246C579.424 453.246 582.119 464.325 582.107 469.473C582.095 474.62 580.022 489.476 580.022 489.476C580.022 489.476 576.187 488.739 567.929 489.303C559.672 489.867 553.131 483.199 553.131 483.199Z" fill="url(#paint11_linear)"/>
<path d="M489.123 453.392L503.565 445.411L540.152 437.19L547.5 466.5L554.5 485C558.5 492.5 554.135 516.955 543.005 528.158C525.384 545.892 483.951 563.5 483.951 563.5L466.5 558C466.5 558 450.269 537.5 450.269 524.527C450.269 511.554 447.375 488.457 447.375 488.457L483.951 463.676L489.123 453.392Z" fill="url(#paint12_radial)"/>
<path d="M475.818 439.392L490.259 431.411L526.847 423.19L545.468 456.888L555.117 484.689C550.142 494.293 540.83 502.955 529.699 514.158C512.079 531.892 471.863 555.257 471.863 555.257L466.174 558.401C466.174 558.401 448.092 531.261 443.2 516.826C438.309 502.391 434.069 474.457 434.069 474.457L470.646 449.676L475.818 439.392Z" fill="url(#paint13_linear)"/>
<path d="M475.818 439.392L490.259 431.411L526.847 423.19L545.468 456.888L555.117 484.689C550.142 494.293 540.83 502.955 529.699 514.158C512.079 531.892 471.863 555.257 471.863 555.257L466.174 558.401C466.174 558.401 448.092 531.261 443.2 516.826C438.309 502.391 434.069 474.457 434.069 474.457L470.646 449.676L475.818 439.392Z" fill="url(#paint14_diamond)"/>
<path d="M454.91 451.214L469.943 332.654L484.831 406.117L482.043 436.221L454.91 451.214Z" fill="url(#paint15_linear)"/>
<g opacity="0.5">
<path d="M549.377 468.135C548.41 466.385 548.015 462.224 547.501 460.604C548.261 460.945 551.623 462.896 551.623 462.896C551.623 462.896 556.445 464.04 557.255 463.783C556.767 464.623 554.12 467 553.65 468.631C553.18 470.261 553.251 473.422 553.972 476.45L549.377 468.135Z" fill="url(#paint16_linear)"/>
<path d="M549.377 468.135C548.41 466.385 548.015 462.224 547.501 460.604C548.261 460.945 551.623 462.896 551.623 462.896C551.623 462.896 556.445 464.04 557.255 463.783C556.767 464.623 554.12 467 553.65 468.631C553.18 470.261 553.251 473.422 553.972 476.45L549.377 468.135Z" fill="url(#paint17_radial)"/>
</g>
<path d="M435.388 474.476L320.921 365.872L404.281 526.034L435.388 474.476Z" fill="url(#paint18_linear)"/>
<path d="M435.388 474.476L320.921 365.872L404.281 526.034L435.388 474.476Z" fill="url(#paint19_linear)"/>
<path d="M403.797 525.158C403.797 525.158 416.511 529.558 429.075 535.754C441.639 541.951 466.468 557.936 466.468 557.936L403.797 620.5L403.797 525.158Z" fill="url(#paint20_linear)"/>
<path d="M403.797 525.158C403.797 525.158 416.511 529.558 429.075 535.754C441.639 541.951 466.468 557.936 466.468 557.936L403.797 620.5L403.797 525.158Z" fill="url(#paint21_radial)"/>
<path d="M471.033 451.445L475.144 437.176L482.918 435.737L494.734 429.208L519.552 428.633L494.803 441.738L471.033 451.445Z" fill="white"/>
<path d="M471.033 451.445L475.144 437.176L482.918 435.737L494.734 429.208L519.552 428.633L494.803 441.738L471.033 451.445Z" fill="url(#paint22_linear)"/>
<path d="M181.085 182.077L218.245 263.799L332.517 392.026L261.302 336.549L186.276 270.039L167.725 205.455L181.085 182.077Z" fill="url(#paint23_radial)"/>
<path d="M181.085 182.077L218.245 263.799L332.517 392.026L261.302 336.549L186.276 270.039L167.725 205.455L181.085 182.077Z" fill="url(#paint24_linear)"/>
<path d="M99.4424 270.036L324.365 385.677L334.555 392.614L403.36 525.4L373.116 562.677L337.099 405.489L343.105 562.123L319.472 575.182L333.714 399.362L310.088 537.523L302.683 547.899L276.425 562.408L328.117 404.74L269.471 523.978L256.676 533.905L225.823 540.099L327.115 396.725L218.949 509.051L183.606 504.017L320.608 396.322L175.292 465.195L136.23 451.362L318.19 391.945L245.637 390.906L138.535 398.675L105.761 374.512L309.899 386.244L129.82 322.943L99.7068 281.886L99.4424 270.036Z" fill="url(#paint25_radial)"/>
<path d="M99.4424 270.036L324.365 385.677L334.555 392.614L403.36 525.4L373.116 562.677L337.099 405.489L343.105 562.123L319.472 575.182L333.714 399.362L310.088 537.523L302.683 547.899L276.425 562.408L328.117 404.74L269.471 523.978L256.676 533.905L225.823 540.099L327.115 396.725L218.949 509.051L183.606 504.017L320.608 396.322L175.292 465.195L136.23 451.362L318.19 391.945L245.637 390.906L138.535 398.675L105.761 374.512L309.899 386.244L129.82 322.943L99.7068 281.886L99.4424 270.036Z" fill="url(#paint26_linear)"/>
<path d="M435.527 475.064L454.91 451.214L464.492 444.777L475.144 437.176L471.228 450.766L457.604 462.293L435.527 475.064Z" fill="#FBF9F9"/>
<path d="M613.344 457.661C613.716 458.846 614.22 461.448 613.261 462.373C608.962 461.119 596.829 458.547 596.829 458.547C596.829 458.547 570.709 451.806 562.5 449.5L590.87 428.978L594.91 433.764L613.344 457.661Z" fill="url(#paint27_diamond)" stroke="#D4D7DB"/>
<path d="M615.06 460.637C615.06 460.637 580.131 436.449 579.552 435.849L589.712 427.779C606.364 443.243 617.831 456.587 615.06 460.637Z" fill="url(#paint28_linear)"/>
<path d="M574 452C579 452 589 439.478 589 435.5L585.451 423.294L545.199 400.19L528.652 409.333L484 435.5L486.5 444.5L491 443.446C496.551 445.499 504.353 445.405 513.5 437C513.5 437 507.559 451.071 528.652 462C534.661 465.113 544.195 468.203 550 470L549.5 468.5C557 471.5 564.149 473.571 564.149 473.571C565.297 470.142 569 452 574 452Z" fill="black" fill-opacity="0.06"/>
<path d="M573.5 447C581.914 446.714 590.755 435.458 591.365 434.291L583.451 415.294L543.199 392.19L526.652 401.333L484.427 434.332C484.427 434.332 504.246 431.949 510.269 431.478C514.979 431.731 505.559 443.071 526.652 454C542.559 462.242 562.149 465.571 562.149 465.571C563.297 462.142 565.085 447.287 573.5 447Z" fill="url(#paint29_linear)"/>
<path d="M573.5 447C581.914 446.714 590.755 435.458 591.365 434.291L583.451 415.294L543.199 392.19L526.652 401.333L484.427 434.332C484.427 434.332 504.246 431.949 510.269 431.478C514.979 431.731 505.559 443.071 526.652 454C542.559 462.242 562.149 465.571 562.149 465.571C563.297 462.142 565.085 447.287 573.5 447Z" fill="url(#paint30_diamond)"/>
<path d="M573.5 447C581.914 446.714 590.755 435.458 591.365 434.291L583.451 415.294L543.199 392.19L526.652 401.333L484.427 434.332C484.427 434.332 504.246 431.949 510.269 431.478C514.979 431.731 505.559 443.071 526.652 454C542.559 462.242 562.149 465.571 562.149 465.571C563.297 462.142 565.085 447.287 573.5 447Z" stroke="#ECEEF1"/>
<path d="M542.264 432.343L512.179 431.519L517.495 410.19L565.212 400.928C575.687 408.381 600 438 600 438C600 438 596.75 437.033 595 438C593.249 438.967 590 440.573 590 440.573L576.453 431.769C575.516 429.199 573.018 427.006 570.679 426.022C567.754 424.792 564.092 430.961 562.314 431.519C560.892 431.965 548.355 432.254 542.264 432.343Z" fill="url(#paint31_linear)"/>
<path d="M541.996 426.936L513.13 426.426L517.226 404.783L564.943 395.521C575.419 402.974 598.6 435.224 598.6 435.224C598.6 435.224 596.319 434.199 594.569 435.166C592.818 436.133 590.527 440.256 590.527 440.256L576.184 426.362C575.247 423.792 572.34 417.484 570 416.5C567.075 415.27 563.823 425.554 562.046 426.112C560.623 426.558 548.086 426.847 541.996 426.936Z" fill="url(#paint32_linear)"/>
<path d="M541.996 426.936L513.13 426.426L517.226 404.783L564.943 395.521C575.419 402.974 598.6 435.224 598.6 435.224C598.6 435.224 596.319 434.199 594.569 435.166C592.818 436.133 590.527 440.256 590.527 440.256L576.184 426.362C575.247 423.792 572.34 417.484 570 416.5C567.075 415.27 563.823 425.554 562.046 426.112C560.623 426.558 548.086 426.847 541.996 426.936Z" fill="url(#paint33_diamond)"/>
<path d="M541.996 426.936L513.13 426.426L517.226 404.783L564.943 395.521C575.419 402.974 598.6 435.224 598.6 435.224C598.6 435.224 596.319 434.199 594.569 435.166C592.818 436.133 590.527 440.256 590.527 440.256L576.184 426.362C575.247 423.792 572.34 417.484 570 416.5C567.075 415.27 563.823 425.554 562.046 426.112C560.623 426.558 548.086 426.847 541.996 426.936Z" stroke="#D2D2D2"/>
<g filter="url(#filter0_d)">
<path d="M570.185 416.049C567.467 415.265 564.256 422.55 563.185 423.713L557.499 416.049C560.904 413.596 569.428 406.829 573.933 407.539C578.438 408.248 581.361 415.812 582.259 419.504L575.211 422.257C574.581 421.462 572.223 416.636 570.185 416.049Z" fill="url(#paint34_radial)"/>
</g>
<path d="M547.5 426.5L504.5 416.5L524.5 406C532.75 408.868 550.736 415.477 554.817 414.593C558.899 413.708 568.503 409.719 572 409.5C571.5 410.5 575 418.5 575 418.5C572.25 422.103 563.995 424.005 562 426C561.3 426.387 547.5 426.5 547.5 426.5Z" fill="url(#paint35_radial)"/>
<path d="M553.565 421.204C552.162 421.638 550.593 422.098 549.526 422.403L513.775 412.603L526.017 405.641C530.156 407.075 536.49 409.13 542.323 410.733C545.289 411.548 548.135 412.248 550.5 412.689C551.682 412.909 552.752 413.067 553.661 413.14C554.561 413.213 555.34 413.208 555.923 413.081C559.357 412.337 565.637 411.751 569.594 411.457C567.445 412.911 564.761 414.723 562.384 416.321C560.89 417.325 559.517 418.244 558.475 418.936C557.418 419.637 556.729 420.086 556.577 420.17C556.448 420.241 556.085 420.382 555.524 420.574C554.981 420.759 554.297 420.977 553.565 421.204Z" fill="url(#paint36_linear)" stroke="#EAEAEA"/>
<path d="M596.419 428.004L596.418 428.042L596.423 428.081L597.253 434.105C595.076 433.502 593.518 433.737 592.339 434.41C591.298 435.004 590.608 435.918 590.073 436.691C588.634 435.259 586.985 433.521 585.428 431.882C585.099 431.535 584.774 431.193 584.457 430.86C583.473 429.826 582.557 428.871 581.798 428.113C581.051 427.367 580.424 426.777 580.031 426.505C579.895 426.411 579.688 426.182 579.417 425.778C579.156 425.388 578.865 424.883 578.55 424.289C577.921 423.103 577.219 421.606 576.491 420.056L576.486 420.045C575.759 418.496 575.009 416.898 574.295 415.536C573.589 414.19 572.889 413.017 572.254 412.359C571.83 411.92 571.244 411.784 570.642 411.804C570.042 411.824 569.36 411.998 568.646 412.258C567.215 412.777 565.518 413.686 563.838 414.628C563.433 414.855 563.03 415.084 562.631 415.311C561.353 416.035 560.115 416.738 559.011 417.282C558.288 417.639 557.641 417.919 557.095 418.09C556.557 418.258 556.18 418.3 555.942 418.258L555.903 418.243L555.679 418.16C555.483 418.088 555.195 417.982 554.826 417.846C554.089 417.576 553.031 417.189 551.747 416.724C549.179 415.794 545.706 414.551 542.085 413.301C538.464 412.05 534.692 410.79 531.528 409.827C529.946 409.345 528.512 408.936 527.323 408.639C526.144 408.344 525.173 408.151 524.531 408.117C522.134 407.988 520.26 409.267 518.8 411.218C517.346 413.159 516.255 415.824 515.399 418.631C514.541 421.446 513.907 424.446 513.389 427.081C513.279 427.64 513.174 428.18 513.074 428.698C512.708 430.593 512.399 432.189 512.094 433.276C512.069 433.309 512.035 433.354 511.993 433.408C511.891 433.542 511.742 433.735 511.553 433.974C511.176 434.453 510.641 435.114 510.014 435.844C508.754 437.311 507.146 439.025 505.701 440.099C505.024 440.602 504.059 441.011 502.956 441.336C501.86 441.66 500.664 441.89 499.549 442.054C498.436 442.217 497.414 442.312 496.669 442.367C496.298 442.394 495.996 442.411 495.787 442.421C495.704 442.425 495.636 442.428 495.584 442.43L483.687 436.87C483.689 436.847 483.691 436.823 483.694 436.797C483.718 436.523 483.754 436.119 483.804 435.601C483.905 434.565 484.059 433.074 484.276 431.255C484.709 427.616 485.389 422.667 486.379 417.427C487.369 412.184 488.666 406.662 490.33 401.869C492.001 397.06 494.017 393.057 496.41 390.787C506.237 381.464 515.972 379.195 525.596 377.114C535.146 375.05 548.494 375.255 561.906 378.75C567.101 380.103 573.388 384.109 578.847 388.306C584.294 392.494 588.843 396.817 590.554 398.735C593.966 402.559 598.208 410.454 600.074 415.557C600.568 417.848 599.729 420.616 598.693 423.012C598.207 424.137 597.69 425.153 597.273 425.973L597.202 426.114C596.989 426.531 596.803 426.901 596.669 427.197C596.602 427.345 596.544 427.484 596.501 427.607C596.463 427.72 596.421 427.863 596.419 428.004Z" fill="url(#paint37_radial)"/>
<path d="M596.419 428.004L596.418 428.042L596.423 428.081L597.253 434.105C595.076 433.502 593.518 433.737 592.339 434.41C591.298 435.004 590.608 435.918 590.073 436.691C588.634 435.259 586.985 433.521 585.428 431.882C585.099 431.535 584.774 431.193 584.457 430.86C583.473 429.826 582.557 428.871 581.798 428.113C581.051 427.367 580.424 426.777 580.031 426.505C579.895 426.411 579.688 426.182 579.417 425.778C579.156 425.388 578.865 424.883 578.55 424.289C577.921 423.103 577.219 421.606 576.491 420.056L576.486 420.045C575.759 418.496 575.009 416.898 574.295 415.536C573.589 414.19 572.889 413.017 572.254 412.359C571.83 411.92 571.244 411.784 570.642 411.804C570.042 411.824 569.36 411.998 568.646 412.258C567.215 412.777 565.518 413.686 563.838 414.628C563.433 414.855 563.03 415.084 562.631 415.311C561.353 416.035 560.115 416.738 559.011 417.282C558.288 417.639 557.641 417.919 557.095 418.09C556.557 418.258 556.18 418.3 555.942 418.258L555.903 418.243L555.679 418.16C555.483 418.088 555.195 417.982 554.826 417.846C554.089 417.576 553.031 417.189 551.747 416.724C549.179 415.794 545.706 414.551 542.085 413.301C538.464 412.05 534.692 410.79 531.528 409.827C529.946 409.345 528.512 408.936 527.323 408.639C526.144 408.344 525.173 408.151 524.531 408.117C522.134 407.988 520.26 409.267 518.8 411.218C517.346 413.159 516.255 415.824 515.399 418.631C514.541 421.446 513.907 424.446 513.389 427.081C513.279 427.64 513.174 428.18 513.074 428.698C512.708 430.593 512.399 432.189 512.094 433.276C512.069 433.309 512.035 433.354 511.993 433.408C511.891 433.542 511.742 433.735 511.553 433.974C511.176 434.453 510.641 435.114 510.014 435.844C508.754 437.311 507.146 439.025 505.701 440.099C505.024 440.602 504.059 441.011 502.956 441.336C501.86 441.66 500.664 441.89 499.549 442.054C498.436 442.217 497.414 442.312 496.669 442.367C496.298 442.394 495.996 442.411 495.787 442.421C495.704 442.425 495.636 442.428 495.584 442.43L483.687 436.87C483.689 436.847 483.691 436.823 483.694 436.797C483.718 436.523 483.754 436.119 483.804 435.601C483.905 434.565 484.059 433.074 484.276 431.255C484.709 427.616 485.389 422.667 486.379 417.427C487.369 412.184 488.666 406.662 490.33 401.869C492.001 397.06 494.017 393.057 496.41 390.787C506.237 381.464 515.972 379.195 525.596 377.114C535.146 375.05 548.494 375.255 561.906 378.75C567.101 380.103 573.388 384.109 578.847 388.306C584.294 392.494 588.843 396.817 590.554 398.735C593.966 402.559 598.208 410.454 600.074 415.557C600.568 417.848 599.729 420.616 598.693 423.012C598.207 424.137 597.69 425.153 597.273 425.973L597.202 426.114C596.989 426.531 596.803 426.901 596.669 427.197C596.602 427.345 596.544 427.484 596.501 427.607C596.463 427.72 596.421 427.863 596.419 428.004Z" fill="url(#paint38_angular)"/>
<path d="M596.419 428.004L596.418 428.042L596.423 428.081L597.253 434.105C595.076 433.502 593.518 433.737 592.339 434.41C591.298 435.004 590.608 435.918 590.073 436.691C588.634 435.259 586.985 433.521 585.428 431.882C585.099 431.535 584.774 431.193 584.457 430.86C583.473 429.826 582.557 428.871 581.798 428.113C581.051 427.367 580.424 426.777 580.031 426.505C579.895 426.411 579.688 426.182 579.417 425.778C579.156 425.388 578.865 424.883 578.55 424.289C577.921 423.103 577.219 421.606 576.491 420.056L576.486 420.045C575.759 418.496 575.009 416.898 574.295 415.536C573.589 414.19 572.889 413.017 572.254 412.359C571.83 411.92 571.244 411.784 570.642 411.804C570.042 411.824 569.36 411.998 568.646 412.258C567.215 412.777 565.518 413.686 563.838 414.628C563.433 414.855 563.03 415.084 562.631 415.311C561.353 416.035 560.115 416.738 559.011 417.282C558.288 417.639 557.641 417.919 557.095 418.09C556.557 418.258 556.18 418.3 555.942 418.258L555.903 418.243L555.679 418.16C555.483 418.088 555.195 417.982 554.826 417.846C554.089 417.576 553.031 417.189 551.747 416.724C549.179 415.794 545.706 414.551 542.085 413.301C538.464 412.05 534.692 410.79 531.528 409.827C529.946 409.345 528.512 408.936 527.323 408.639C526.144 408.344 525.173 408.151 524.531 408.117C522.134 407.988 520.26 409.267 518.8 411.218C517.346 413.159 516.255 415.824 515.399 418.631C514.541 421.446 513.907 424.446 513.389 427.081C513.279 427.64 513.174 428.18 513.074 428.698C512.708 430.593 512.399 432.189 512.094 433.276C512.069 433.309 512.035 433.354 511.993 433.408C511.891 433.542 511.742 433.735 511.553 433.974C511.176 434.453 510.641 435.114 510.014 435.844C508.754 437.311 507.146 439.025 505.701 440.099C505.024 440.602 504.059 441.011 502.956 441.336C501.86 441.66 500.664 441.89 499.549 442.054C498.436 442.217 497.414 442.312 496.669 442.367C496.298 442.394 495.996 442.411 495.787 442.421C495.704 442.425 495.636 442.428 495.584 442.43L483.687 436.87C483.689 436.847 483.691 436.823 483.694 436.797C483.718 436.523 483.754 436.119 483.804 435.601C483.905 434.565 484.059 433.074 484.276 431.255C484.709 427.616 485.389 422.667 486.379 417.427C487.369 412.184 488.666 406.662 490.33 401.869C492.001 397.06 494.017 393.057 496.41 390.787C506.237 381.464 515.972 379.195 525.596 377.114C535.146 375.05 548.494 375.255 561.906 378.75C567.101 380.103 573.388 384.109 578.847 388.306C584.294 392.494 588.843 396.817 590.554 398.735C593.966 402.559 598.208 410.454 600.074 415.557C600.568 417.848 599.729 420.616 598.693 423.012C598.207 424.137 597.69 425.153 597.273 425.973L597.202 426.114C596.989 426.531 596.803 426.901 596.669 427.197C596.602 427.345 596.544 427.484 596.501 427.607C596.463 427.72 596.421 427.863 596.419 428.004Z" stroke="#E5E5E5"/>
<path d="M571.894 411.706C569.58 409.308 558.741 418.381 555.806 417.74C555.806 417.74 529.215 407.87 524.505 407.616C515.819 407.148 514.169 426.884 512.55 432.502C512.55 432.502 508.984 437.282 506 439.5C503.016 441.718 495.482 441.934 495.482 441.934L483.16 436.175C483.16 436.175 486.131 398.849 496.066 389.425C506 380 515.854 377.709 525.491 375.626C535.128 373.542 548.555 373.755 562.032 377.266C572.631 380.027 587.454 393.509 590.928 397.402C594.402 401.296 598.682 409.277 600.555 414.418C602 420 597.017 427.558 597 428.5L597.855 433.816C592.876 432.103 591.356 434.721 590.147 436.467C586.478 432.867 581.143 426.884 579.746 425.916C578 424.707 574.209 414.104 571.894 411.706Z" fill="url(#paint39_radial)"/>
<path d="M571.894 411.706C569.58 409.308 558.741 418.381 555.806 417.74C555.806 417.74 529.215 407.87 524.505 407.616C515.819 407.148 514.169 426.884 512.55 432.502C512.55 432.502 508.984 437.282 506 439.5C503.016 441.718 495.482 441.934 495.482 441.934L483.16 436.175C483.16 436.175 486.131 398.849 496.066 389.425C506 380 515.854 377.709 525.491 375.626C535.128 373.542 548.555 373.755 562.032 377.266C572.631 380.027 587.454 393.509 590.928 397.402C594.402 401.296 598.682 409.277 600.555 414.418C602 420 597.017 427.558 597 428.5L597.855 433.816C592.876 432.103 591.356 434.721 590.147 436.467C586.478 432.867 581.143 426.884 579.746 425.916C578 424.707 574.209 414.104 571.894 411.706Z" fill="url(#paint40_angular)"/>
<defs>
<filter id="filter0_d" x="553" y="405" width="34.1149" height="32.1775" filterUnits="userSpaceOnUse" color-interpolation-filters="sRGB">
<feFlood flood-opacity="0" result="BackgroundImageFix"/>
<feColorMatrix in="SourceAlpha" type="matrix" values="0 0 0 0 0 0 0 0 0 0 0 0 0 0 0 0 0 0 127 0" result="hardAlpha"/>
<feOffset dy="4"/>
<feGaussianBlur stdDeviation="2"/>
<feColorMatrix type="matrix" values="0 0 0 0 0 0 0 0 0 0 0 0 0 0 0 0 0 0 0.25 0"/>
<feBlend mode="normal" in2="BackgroundImageFix" result="effect1_dropShadow"/>
<feBlend mode="normal" in="SourceGraphic" in2="effect1_dropShadow" result="shape"/>
</filter>
<radialGradient id="paint0_radial" cx="0" cy="0" r="1" gradientUnits="userSpaceOnUse" gradientTransform="translate(437.865 472.058) rotate(75.8492) scale(245.103 240.604)">
<stop stop-color="#E7EAED"/>
<stop offset="0.0639506" stop-color="#EDEFF1"/>
<stop offset="1" stop-color="#FBFBFB"/>
</radialGradient>
<linearGradient id="paint1_linear" x1="334.575" y1="469.151" x2="411.449" y2="406.679" gradientUnits="userSpaceOnUse">
<stop stop-color="#D8DCE1"/>
<stop offset="1" stop-color="white"/>
</linearGradient>
<linearGradient id="paint2_linear" x1="368.731" y1="490.512" x2="560.445" y2="518.097" gradientUnits="userSpaceOnUse">
<stop offset="0.016263" stop-color="#BEC5CD"/>
<stop offset="0.358383" stop-color="#ECEEF1"/>
<stop offset="0.615315" stop-color="white"/>
</linearGradient>
<linearGradient id="paint3_linear" x1="501.968" y1="587.718" x2="457.379" y2="517.784" gradientUnits="userSpaceOnUse">
<stop stop-color="#BEC5CD"/>
<stop offset="0.759743" stop-color="#ECEEF1"/>
<stop offset="1" stop-color="white"/>
</linearGradient>
<radialGradient id="paint4_radial" cx="0" cy="0" r="1" gradientUnits="userSpaceOnUse" gradientTransform="translate(507 534.5) rotate(116.307) scale(49.6412 95.8629)">
<stop offset="0.0170511"/>
<stop offset="0.516249" stop-color="#252628" stop-opacity="0.806995"/>
<stop offset="0.81743" stop-color="#BEC5CD" stop-opacity="0"/>
</radialGradient>
<linearGradient id="paint5_linear" x1="550.881" y1="569.645" x2="485.679" y2="480.114" gradientUnits="userSpaceOnUse">
<stop stop-color="#BEC5CD"/>
<stop offset="0.759743" stop-color="#ECEEF1"/>
<stop offset="1" stop-color="white"/>
</linearGradient>
<radialGradient id="paint6_radial" cx="0" cy="0" r="1" gradientUnits="userSpaceOnUse" gradientTransform="translate(531.989 510.016) rotate(97.987) scale(41.2296 61.9206)">
<stop offset="0.0170511"/>
<stop offset="0.516249" stop-color="#252628" stop-opacity="0.806995"/>
<stop offset="0.81743" stop-color="#BEC5CD" stop-opacity="0"/>
</radialGradient>
<linearGradient id="paint7_linear" x1="571.797" y1="554.35" x2="509.801" y2="453.572" gradientUnits="userSpaceOnUse">
<stop stop-color="#BEC5CD"/>
<stop offset="0.759743" stop-color="#ECEEF1"/>
<stop offset="1" stop-color="white"/>
</linearGradient>
<radialGradient id="paint8_radial" cx="0" cy="0" r="1" gradientUnits="userSpaceOnUse" gradientTransform="translate(550 491.5) rotate(94.2631) scale(34.3224 49.7193)">
<stop offset="0.0170511"/>
<stop offset="0.516249" stop-color="#252628" stop-opacity="0.806995"/>
<stop offset="0.81743" stop-color="#BEC5CD" stop-opacity="0"/>
</radialGradient>
<linearGradient id="paint9_linear" x1="580.677" y1="530.703" x2="526.43" y2="444.687" gradientUnits="userSpaceOnUse">
<stop stop-color="#BEC5CD"/>
<stop offset="0.618931" stop-color="#ECEEF1"/>
<stop offset="1" stop-color="white"/>
</linearGradient>
<radialGradient id="paint10_radial" cx="0" cy="0" r="1" gradientUnits="userSpaceOnUse" gradientTransform="translate(561.5 468.5) rotate(87.0892) scale(29.5381 30.5095)">
<stop offset="0.0170511"/>
<stop offset="0.57378" stop-color="#252628" stop-opacity="0.806995"/>
<stop offset="0.88038" stop-color="#BEC5CD" stop-opacity="0"/>
</radialGradient>
<linearGradient id="paint11_linear" x1="593.814" y1="500.296" x2="533.737" y2="432.988" gradientUnits="userSpaceOnUse">
<stop stop-color="#BEC5CD"/>
<stop offset="0.50254" stop-color="#ECEEF1"/>
<stop offset="1" stop-color="white"/>
</linearGradient>
<radialGradient id="paint12_radial" cx="0" cy="0" r="1" gradientUnits="userSpaceOnUse" gradientTransform="translate(474 470) rotate(66.4164) scale(107.477 137.016)">
<stop offset="0.0170511"/>
<stop offset="0.57783" stop-color="#252628" stop-opacity="0.806995"/>
<stop offset="0.81743" stop-color="#BEC5CD" stop-opacity="0"/>
</radialGradient>
<linearGradient id="paint13_linear" x1="560.02" y1="571.096" x2="408.022" y2="418.015" gradientUnits="userSpaceOnUse">
<stop stop-color="#BEC5CD"/>
<stop offset="0.505208" stop-color="#ECEEF1"/>
<stop offset="0.776042" stop-color="#F3F4F6"/>
<stop offset="1" stop-color="white"/>
</linearGradient>
<radialGradient id="paint14_diamond" cx="0" cy="0" r="1" gradientUnits="userSpaceOnUse" gradientTransform="translate(503.94 459.27) rotate(60.3772) scale(123.009 191.46)">
<stop offset="0.0400845" stop-color="white"/>
<stop offset="0.343084" stop-color="white" stop-opacity="0"/>
</radialGradient>
<linearGradient id="paint15_linear" x1="512.774" y1="438.248" x2="448.237" y2="406.302" gradientUnits="userSpaceOnUse">
<stop stop-color="#D8DCE1"/>
<stop offset="1" stop-color="white"/>
</linearGradient>
<linearGradient id="paint16_linear" x1="551.222" y1="466.033" x2="558.136" y2="475.048" gradientUnits="userSpaceOnUse">
<stop stop-color="#BEC5CD"/>
<stop offset="0.28852" stop-color="#ECEEF1"/>
<stop offset="1" stop-color="white"/>
</linearGradient>
<radialGradient id="paint17_radial" cx="0" cy="0" r="1" gradientUnits="userSpaceOnUse" gradientTransform="translate(551.278 465.372) rotate(31.3311) scale(24.1868 23.2233)">
<stop offset="0.0400845" stop-color="#B7BFC8"/>
<stop offset="0.343084" stop-color="white" stop-opacity="0"/>
</radialGradient>
<linearGradient id="paint18_linear" x1="305.398" y1="466.023" x2="397.844" y2="395.354" gradientUnits="userSpaceOnUse">
<stop stop-color="#BEC5CD"/>
<stop offset="0.401383" stop-color="#ECEEF1"/>
<stop offset="0.74801" stop-color="white"/>
</linearGradient>
<linearGradient id="paint19_linear" x1="376.5" y1="515" x2="460.5" y2="405.5" gradientUnits="userSpaceOnUse">
<stop stop-color="#BEC5CD"/>
<stop offset="0.416196" stop-color="#ECEEF1" stop-opacity="0.51"/>
<stop offset="0.845049" stop-color="white" stop-opacity="0"/>
</linearGradient>
<linearGradient id="paint20_linear" x1="367.982" y1="514.101" x2="550.731" y2="572.512" gradientUnits="userSpaceOnUse">
<stop stop-color="#BEC5CD"/>
<stop offset="0.435568" stop-color="#ECEEF1"/>
<stop offset="1" stop-color="white"/>
</linearGradient>
<radialGradient id="paint21_radial" cx="0" cy="0" r="1" gradientUnits="userSpaceOnUse" gradientTransform="translate(407.231 539.512) rotate(35.7067) scale(39.4081 79.2631)">
<stop offset="0.0400845" stop-color="white" stop-opacity="0.65"/>
<stop offset="0.701161" stop-color="white" stop-opacity="0"/>
</radialGradient>
<linearGradient id="paint22_linear" x1="492.258" y1="428.862" x2="459.158" y2="483.713" gradientUnits="userSpaceOnUse">
<stop stop-color="#BEC5CD"/>
<stop offset="0.266139" stop-color="#E1E4E8" stop-opacity="0.468479"/>
<stop offset="0.827483" stop-color="white" stop-opacity="0"/>
</linearGradient>
<radialGradient id="paint23_radial" cx="0" cy="0" r="1" gradientUnits="userSpaceOnUse" gradientTransform="translate(359.842 463.187) rotate(113.008) scale(143.531 174.738)">
<stop stop-color="#E4EAF0"/>
<stop offset="1" stop-color="#EFF1F3"/>
</radialGradient>
<linearGradient id="paint24_linear" x1="416" y1="437.5" x2="120.06" y2="526.668" gradientUnits="userSpaceOnUse">
<stop stop-color="#BEC5CD"/>
<stop offset="0.401383" stop-color="#ECEEF1" stop-opacity="0.51"/>
<stop offset="0.74801" stop-color="white" stop-opacity="0"/>
</linearGradient>
<radialGradient id="paint25_radial" cx="0" cy="0" r="1" gradientUnits="userSpaceOnUse" gradientTransform="translate(359.842 463.187) rotate(113.008) scale(143.531 174.738)">
<stop stop-color="#E4EAF0"/>
<stop offset="1" stop-color="#EFF1F3"/>
</radialGradient>
<linearGradient id="paint26_linear" x1="416" y1="437.5" x2="120.06" y2="526.668" gradientUnits="userSpaceOnUse">
<stop stop-color="#BEC5CD"/>
<stop offset="0.401383" stop-color="#ECEEF1" stop-opacity="0.51"/>
<stop offset="0.74801" stop-color="white" stop-opacity="0"/>
</linearGradient>
<radialGradient id="paint27_diamond" cx="0" cy="0" r="1" gradientUnits="userSpaceOnUse" gradientTransform="translate(587.763 438.356) rotate(126.53) scale(69.8087 234.45)">
<stop offset="0.0400845" stop-color="#B7BFC8"/>
<stop offset="0.231272" stop-color="#F7F8F9"/>
</radialGradient>
<linearGradient id="paint28_linear" x1="591.447" y1="462.598" x2="606" y2="442.5" gradientUnits="userSpaceOnUse">
<stop offset="0.100277" stop-color="#B7BFC8"/>
<stop offset="0.586817" stop-color="#DADEE2"/>
<stop offset="0.742841" stop-color="#EDEFF1"/>
<stop offset="0.91227" stop-color="white"/>
</linearGradient>
<linearGradient id="paint29_linear" x1="541.525" y1="418.776" x2="543.465" y2="465.317" gradientUnits="userSpaceOnUse">
<stop stop-color="#BEC5CD"/>
<stop offset="0.28852" stop-color="#ECEEF1"/>
<stop offset="1" stop-color="white"/>
</linearGradient>
<radialGradient id="paint30_diamond" cx="0" cy="0" r="1" gradientUnits="userSpaceOnUse" gradientTransform="translate(569.637 422.094) rotate(100.038) scale(73.9493 163.758)">
<stop offset="0.0400845" stop-color="#B7BFC8"/>
<stop offset="0.343084" stop-color="white" stop-opacity="0"/>
</radialGradient>
<linearGradient id="paint31_linear" x1="573" y1="375.5" x2="572.41" y2="435.553" gradientUnits="userSpaceOnUse">
<stop offset="0.0170511"/>
<stop offset="0.586493" stop-color="#252628" stop-opacity="0.806995"/>
<stop offset="0.958961" stop-color="#BEC5CD" stop-opacity="0"/>
</linearGradient>
<linearGradient id="paint32_linear" x1="588.374" y1="404.313" x2="555.954" y2="459.36" gradientUnits="userSpaceOnUse">
<stop stop-color="#BEC5CD"/>
<stop offset="0.526628" stop-color="#E4E7EA"/>
<stop offset="1" stop-color="white"/>
</linearGradient>
<radialGradient id="paint33_diamond" cx="0" cy="0" r="1" gradientUnits="userSpaceOnUse" gradientTransform="translate(578.778 411.302) rotate(103.244) scale(47.6005 153.478)">
<stop offset="0.0400845" stop-color="#B7BFC8"/>
<stop offset="0.343084" stop-color="white" stop-opacity="0"/>
</radialGradient>
<radialGradient id="paint34_radial" cx="0" cy="0" r="1" gradientUnits="userSpaceOnUse" gradientTransform="translate(568.716 416.705) rotate(-61.4981) scale(21.36 9.0046)">
<stop stop-color="white"/>
<stop offset="0.50487" stop-color="white" stop-opacity="0"/>
</radialGradient>
<radialGradient id="paint35_radial" cx="0" cy="0" r="1" gradientUnits="userSpaceOnUse" gradientTransform="translate(542.194 399.445) rotate(95.5556) scale(30.8016 47.7992)">
<stop offset="0.0170511"/>
<stop offset="0.57474" stop-color="#252628" stop-opacity="0.806995"/>
<stop offset="0.803452" stop-color="#BEC5CD" stop-opacity="0"/>
</radialGradient>
<linearGradient id="paint36_linear" x1="546.03" y1="381.44" x2="536.849" y2="424.788" gradientUnits="userSpaceOnUse">
<stop stop-color="#B7BFC8"/>
<stop offset="1" stop-color="white"/>
</linearGradient>
<radialGradient id="paint37_radial" cx="0" cy="0" r="1" gradientUnits="userSpaceOnUse" gradientTransform="translate(516.259 382.325) rotate(59.2748) scale(79.5393 132.056)">
<stop stop-color="white"/>
<stop offset="0.477151" stop-color="#FDFDFD"/>
<stop offset="1" stop-color="#F0F1F3"/>
</radialGradient>
<radialGradient id="paint38_angular" cx="0" cy="0" r="1" gradientUnits="userSpaceOnUse" gradientTransform="translate(568.186 420.468) rotate(-15.2971) scale(33.9558 33.0861)">
<stop stop-color="#A0A6AE" stop-opacity="0.41"/>
<stop offset="0.157163" stop-color="#D5D7DB" stop-opacity="0.182831"/>
<stop offset="0.839524" stop-color="white" stop-opacity="0"/>
</radialGradient>
<radialGradient id="paint39_radial" cx="0" cy="0" r="1" gradientUnits="userSpaceOnUse" gradientTransform="translate(516.259 381.325) rotate(59.2748) scale(79.5393 132.056)">
<stop stop-color="white"/>
<stop offset="0.477151" stop-color="#FDFDFD"/>
<stop offset="1" stop-color="#F0F1F3"/>
</radialGradient>
<radialGradient id="paint40_angular" cx="0" cy="0" r="1" gradientUnits="userSpaceOnUse" gradientTransform="translate(568.186 419.468) rotate(-15.2971) scale(33.9558 33.0861)">
<stop stop-color="#A0A6AE" stop-opacity="0.41"/>
<stop offset="0.157163" stop-color="#D5D7DB" stop-opacity="0.182831"/>
<stop offset="0.839524" stop-color="white" stop-opacity="0"/>
</radialGradient>
</defs>
</svg>
