<svg width="532" height="558" viewBox="0 0 532 558" fill="none" xmlns="http://www.w3.org/2000/svg">
<path d="M108.595 7.91084L165.262 117.698L240.932 221.556L369.877 304.255L385.353 186.881L385.508 187.75L387.514 172.548L409.275 0L409.411 46.7678L407.211 63.9789L411.056 92.1308L395.126 156.345L409.443 118.158L406.067 150.3L398.637 192.679L395.665 218.315L399.829 261.777L403.232 261.864C405.209 253.938 407.952 246.5 411.671 242.972C421.605 233.548 431.459 231.257 441.096 229.173C450.733 227.09 464.16 227.303 477.637 230.814C488.236 233.575 503.059 247.057 506.533 250.95C510.007 254.843 514.287 262.825 516.16 267.965C517.251 272.178 514.681 277.515 513.347 280.286C512.913 281.187 512.609 281.817 512.605 282.048L513.46 287.364C513.412 287.347 513.364 287.331 513.316 287.315L513.355 287.6C513.904 288.353 514.205 288.771 514.205 288.771C514.205 288.771 513.704 288.546 512.992 288.407C513.507 289.02 513.955 289.558 514.329 290.007C525.871 301.603 532.9 310.918 530.665 314.185L529.378 313.293C529.381 313.322 529.383 313.351 529.386 313.381L530.027 314.304L529.418 314.179C529.403 314.897 529.255 315.547 528.867 315.921C524.567 314.667 512.434 312.095 512.434 312.095C512.434 312.095 504.009 309.921 495.225 307.619C495.844 310.281 497.722 318.72 497.713 323.021C497.701 328.168 495.627 343.024 495.627 343.024C495.627 343.024 495.138 342.93 494.132 342.835L489.891 366.759C489.891 366.759 489.206 366.838 487.693 366.89L473.822 390.01C473.822 390.01 473.399 390.066 472.64 390.153L439.954 414.918C439.954 414.918 438.536 415.229 436.26 415.671L377.738 444.909L386.189 455.482L382.683 477.74L382.796 477.922L382.648 477.961L382.641 478.007L375.768 479.79L363.146 483.146L362.51 489.131L345.637 519.591L343.587 519.731L329.105 521.048L329.126 520.719L329.123 520.719L320.819 541.875L320.628 541.856L320.605 542.048L301.605 540.048L301.617 539.997L301.494 539.985L284.749 557.236L284.699 557.217L284.605 557.548L266.105 550.048L239.605 557.548L223.01 541.652L242.114 517.465L319.402 419.159L319.402 404.143L318.965 378.948L318.875 378.774L288.808 416.748L257.403 431.246L257.977 417.219L234.094 430.416L212.685 426.822L226.218 391.352L218.375 401.97L192.117 416.479L160.171 412.424L185.359 377.37L172.806 387.734L142.241 395.483L116.929 378.622L133.087 363.41L98.4228 358.571L66.2357 332.37L90.3054 319.07L51.4844 305.675L16.8565 263.685L167.595 244.943L53.0643 251.675L20.8195 229.505L0 180.456L179.987 219.814L45.9503 176.772L14.6053 135.048L16.1499 83.5578L177.674 190.816L101.53 124.352L82.6923 58.2131L108.595 7.91084Z" fill="white"/>
</svg>
