<svg width="572" height="691" viewBox="0 0 572 691" fill="none" xmlns="http://www.w3.org/2000/svg">
<ellipse cx="284.5" cy="339.5" rx="279.5" ry="219.5" fill="url(#paint0_radial)"/>
<path d="M113.989 70.363L170.657 180.151L246.326 284.008L375.513 366.862L392.908 235.001L414.67 62.4521L414.806 109.22L412.606 126.431L416.451 154.583L400.521 218.797L414.838 180.61L411.462 212.752L404.032 255.132L401.06 280.767L406.049 332.85L356.426 473.951L391.584 517.934L388.036 540.46L368.55 545.514L367.905 551.584L351.032 582.044L334.518 583.171L326.213 604.327L306.889 602.437L290.144 619.688L271.5 612.5L245 620L228.405 604.104L325.231 481.512L325.231 440.012L294.203 479.2L262.798 493.698L263.372 479.671L239.489 492.868L218.08 489.274L231.613 453.804L223.77 464.422L197.512 478.931L165.566 474.876L190.754 439.822L178.2 450.186L147.636 457.935L122.323 441.074L138.481 425.862L103.818 421.023L71.6304 394.822L95.7001 381.522L56.8791 368.127L22.2512 326.137L172.989 307.395L58.4591 314.127L26.2142 291.957L5.39473 242.908L185.382 282.267L51.3451 239.224L20 197.5L21.5446 146.01L183.068 253.268L106.925 186.804L88.0871 120.665L113.989 70.363Z" fill="url(#paint1_radial)"/>
<path d="M324.36 441.4L242.162 282.31L375.23 367.018L390.748 249.333L404.126 324.202L420.929 324.628L449.122 291.912L487.909 299.042C497.114 308.808 516.328 329.382 519.543 333.546C522.758 337.711 516.56 342.621 513.059 344.555L535.422 376.756L499.987 369.488L500.412 396.102L491.301 430.271L477.849 451.414L443.506 476.104L325.991 535.327L324.36 441.4Z" fill="#E7EAED"/>
<path d="M330.208 474.729L228.56 604.018L245 620L323.125 492.924L300.194 539.299L271.5 612.5L290 620L327.997 486.233L334.561 482.606L307 602.5L326 604.5L341.126 478.979L334.5 583.5L351 582L344.189 477.286L368.267 545.671L388.19 540.374L344.305 469.224L330.208 474.729Z" fill="#E7EAED"/>
<path d="M363.271 500.446L342.231 484.08L337.394 475.328L324.035 498.705L309.833 550.54L321.753 541.097L333.246 548.456L336.862 538.46L347.25 540.718L360.16 522.73L373.976 517.201L382.623 506.823L363.271 500.446Z" fill="black" fill-opacity="0.08"/>
<path d="M356.527 391.064L241.437 280.997L376.785 366.73L356.527 391.064Z" fill="url(#paint2_linear)"/>
<path d="M325.991 535.327L386.696 471.506L442.193 476.829L436.066 480.215L325.991 535.327Z" stroke="#D2D7DC"/>
<path d="M488.968 303.027C490.092 304.233 509.428 325.235 518.955 335.584L519.543 333.546L487.909 299.042L449.122 291.912L444.746 294.33L480.711 303.591C480.972 302.685 481.805 300.815 483.049 300.585C484.604 300.297 487.563 301.518 488.968 303.027Z" stroke="#D2D7DC"/>
<path d="M325.477 441.354L356.285 390.626L387.468 473.936L325.749 534.89L325.477 441.354Z" fill="url(#paint3_linear)" stroke="#E7EAED"/>
<path d="M447.099 475.403L387.468 473.936L325.795 536.007L447.099 475.403Z" fill="url(#paint4_linear)"/>
<path d="M375.386 480.897L425.391 445.268L466.688 459.008L443 477.5L431.5 483C431.5 483 414.414 488.465 403.877 488.004C393.339 487.543 375.386 480.897 375.386 480.897Z" fill="url(#paint5_radial)"/>
<path d="M387.468 473.936L437.473 438.307L478.77 452.048L445.349 477.371C445.349 477.371 426.496 481.504 415.959 481.043C405.421 480.582 387.468 473.936 387.468 473.936Z" fill="url(#paint6_linear)"/>
<path d="M470.5 458.5L479.5 451.5C479.5 451.5 474.892 431.616 466.534 430.72C458.175 429.824 445.945 426.299 445.945 426.299L418.715 447.805C418.715 447.805 434.423 459.691 445.881 460.785C457.34 461.88 470.5 458.5 470.5 458.5Z" fill="url(#paint7_radial)"/>
<path d="M479.217 452.462L494.085 427.68C494.085 427.68 481.855 424.155 473.496 423.259C465.138 422.363 452.908 418.839 452.908 418.839L425.678 440.345C425.678 440.345 441.386 452.23 452.844 453.325C464.303 454.42 479.217 452.462 479.217 452.462Z" fill="url(#paint8_linear)"/>
<path d="M495 425.99L469.898 405.792L446.784 425.99C446.784 425.99 462.693 434.623 474.25 435.377C485.806 436.132 489.5 435.377 489.5 435.377L495 425.99Z" fill="url(#paint9_radial)"/>
<path d="M499.676 404.442L474.811 399.395L451.696 419.593C451.696 419.593 467.606 428.226 479.163 428.98C490.719 429.735 495.285 429.211 495.285 429.211L499.676 404.442Z" fill="url(#paint10_linear)"/>
<path d="M471.823 405.031C471.823 405.031 456.692 393.305 455.192 391.305C453.692 389.305 473.762 389.832 480.191 387.832C486.621 385.832 498.116 375.078 498.116 375.078C498.116 375.078 500.81 386.157 500.798 391.305C500.787 396.453 498.713 411.309 498.713 411.309C498.713 411.309 494.878 410.571 486.621 411.135C478.364 411.699 471.823 405.031 471.823 405.031Z" fill="url(#paint11_radial)"/>
<path d="M474.131 399.199C474.131 399.199 459 387.473 457.5 385.473C456 383.473 476.071 384 482.5 382C488.929 380 500.424 369.246 500.424 369.246C500.424 369.246 503.119 380.325 503.107 385.473C503.095 390.62 501.022 405.476 501.022 405.476C501.022 405.476 497.187 404.739 488.929 405.303C480.672 405.867 474.131 399.199 474.131 399.199Z" fill="url(#paint12_linear)"/>
<path d="M410.123 369.392L424.564 361.411L461.152 353.19L468.5 382.5L475.5 401C479.5 408.5 475.135 432.955 464.004 444.158C446.384 461.892 404.951 479.5 404.951 479.5L387.5 474C387.5 474 371.269 453.5 371.269 440.527C371.269 427.554 368.374 404.457 368.374 404.457L404.951 379.676L410.123 369.392Z" fill="url(#paint13_radial)"/>
<path d="M396.818 355.392L411.259 347.411L447.847 339.19L466.468 372.888L476.117 400.689C471.142 410.293 461.83 418.955 450.699 430.158C433.079 447.892 392.863 471.257 392.863 471.257L387.173 474.401C387.173 474.401 369.092 447.261 364.2 432.826C359.308 418.391 355.069 390.457 355.069 390.457L391.646 365.676L396.818 355.392Z" fill="url(#paint14_linear)"/>
<path d="M396.818 355.392L411.259 347.411L447.847 339.19L466.468 372.888L476.117 400.689C471.142 410.293 461.83 418.955 450.699 430.158C433.079 447.892 392.863 471.257 392.863 471.257L387.173 474.401C387.173 474.401 369.092 447.261 364.2 432.826C359.308 418.391 355.069 390.457 355.069 390.457L391.646 365.676L396.818 355.392Z" fill="url(#paint15_diamond)"/>
<path d="M375.91 367.214L390.943 248.654L405.831 322.117L403.043 352.221L375.91 367.214Z" fill="url(#paint16_linear)"/>
<g opacity="0.5">
<path d="M470.377 384.135C469.41 382.385 469.015 378.224 468.501 376.604C469.261 376.945 472.623 378.895 472.623 378.895C472.623 378.895 477.445 380.04 478.255 379.782C477.767 380.623 475.12 383 474.65 384.631C474.18 386.261 474.25 389.421 474.972 392.45L470.377 384.135Z" fill="url(#paint17_linear)"/>
<path d="M470.377 384.135C469.41 382.385 469.015 378.224 468.501 376.604C469.261 376.945 472.623 378.895 472.623 378.895C472.623 378.895 477.445 380.04 478.255 379.782C477.767 380.623 475.12 383 474.65 384.631C474.18 386.261 474.25 389.421 474.972 392.45L470.377 384.135Z" fill="url(#paint18_radial)"/>
</g>
<path d="M356.388 390.476L241.921 281.872L325.281 442.033L356.388 390.476Z" fill="url(#paint19_linear)"/>
<path d="M356.388 390.476L241.921 281.872L325.281 442.033L356.388 390.476Z" fill="url(#paint20_linear)"/>
<path d="M324.797 441.158C324.797 441.158 337.511 445.558 350.075 451.754C362.639 457.951 387.468 473.936 387.468 473.936L324.797 536.5L324.797 441.158Z" fill="url(#paint21_linear)"/>
<path d="M324.797 441.158C324.797 441.158 337.511 445.558 350.075 451.754C362.639 457.951 387.468 473.936 387.468 473.936L324.797 536.5L324.797 441.158Z" fill="url(#paint22_radial)"/>
<path d="M392.032 367.445L396.144 353.176L403.918 351.737L415.734 345.208L440.552 344.633L415.803 357.738L392.032 367.445Z" fill="white"/>
<path d="M392.032 367.445L396.144 353.176L403.918 351.737L415.734 345.208L440.552 344.633L415.803 357.738L392.032 367.445Z" fill="url(#paint23_linear)"/>
<path d="M102.085 98.0774L139.245 179.799L253.517 308.026L182.302 252.549L107.276 186.039L88.7254 121.455L102.085 98.0774Z" fill="url(#paint24_radial)"/>
<path d="M102.085 98.0774L139.245 179.799L253.517 308.026L182.302 252.549L107.276 186.039L88.7254 121.455L102.085 98.0774Z" fill="url(#paint25_linear)"/>
<path d="M20.4424 186.036L245.365 301.677L255.555 308.614L324.36 441.4L294.116 478.677L258.099 321.489L264.105 478.123L240.472 491.182L254.714 315.362L231.088 453.523L223.683 463.899L197.425 478.408L249.117 320.74L190.471 439.978L177.676 449.905L146.823 456.099L248.115 312.725L139.949 425.051L104.606 420.017L241.608 312.322L96.2925 381.195L57.2296 367.362L239.19 307.945L166.637 306.906L59.5351 314.675L26.7606 290.512L230.899 302.244L50.8203 238.943L20.7068 197.886L20.4424 186.036Z" fill="url(#paint26_radial)"/>
<path d="M20.4424 186.036L245.365 301.677L255.555 308.614L324.36 441.4L294.116 478.677L258.099 321.489L264.105 478.123L240.472 491.182L254.714 315.362L231.088 453.523L223.683 463.899L197.425 478.408L249.117 320.74L190.471 439.978L177.676 449.905L146.823 456.099L248.115 312.725L139.949 425.051L104.606 420.017L241.608 312.322L96.2925 381.195L57.2296 367.362L239.19 307.945L166.637 306.906L59.5351 314.675L26.7606 290.512L230.899 302.244L50.8203 238.943L20.7068 197.886L20.4424 186.036Z" fill="url(#paint27_linear)"/>
<path d="M356.527 391.063L375.91 367.214L385.492 360.777L396.144 353.176L392.228 366.765L378.604 378.293L356.527 391.063Z" fill="#FBF9F9"/>
<path d="M534.344 373.661C534.716 374.846 535.22 377.448 534.261 378.373C529.962 377.119 517.829 374.547 517.829 374.547C517.829 374.547 491.709 367.806 483.5 365.5L511.87 344.978L515.91 349.764L534.344 373.661Z" fill="url(#paint28_diamond)" stroke="#D4D7DB"/>
<path d="M536.06 376.637C536.06 376.637 501.131 352.449 500.552 351.849L510.712 343.779C527.363 359.243 538.831 372.587 536.06 376.637Z" fill="url(#paint29_linear)"/>
<path d="M495 368C500 368 510 355.478 510 351.5L506.451 339.294L466.199 316.19L449.652 325.333L405 351.5L407.5 360.5L412 359.446C417.551 361.499 425.353 361.405 434.5 353C434.5 353 428.559 367.071 449.652 378C455.661 381.113 465.195 384.203 471 386L470.5 384.5C478 387.5 485.149 389.571 485.149 389.571C486.297 386.142 490 368 495 368Z" fill="black" fill-opacity="0.06"/>
<path d="M494.5 363C502.914 362.713 511.755 351.458 512.365 350.291L504.451 331.294L464.199 308.19L447.652 317.333L405.426 350.332C405.426 350.332 425.246 347.949 431.269 347.477C435.979 347.731 426.558 359.071 447.652 370C463.558 378.242 483.148 381.571 483.148 381.571C484.297 378.142 486.085 363.287 494.5 363Z" fill="url(#paint30_linear)"/>
<path d="M494.5 363C502.914 362.713 511.755 351.458 512.365 350.291L504.451 331.294L464.199 308.19L447.652 317.333L405.426 350.332C405.426 350.332 425.246 347.949 431.269 347.477C435.979 347.731 426.558 359.071 447.652 370C463.558 378.242 483.148 381.571 483.148 381.571C484.297 378.142 486.085 363.287 494.5 363Z" fill="url(#paint31_diamond)"/>
<path d="M494.5 363C502.914 362.713 511.755 351.458 512.365 350.291L504.451 331.294L464.199 308.19L447.652 317.333L405.426 350.332C405.426 350.332 425.246 347.949 431.269 347.477C435.979 347.731 426.558 359.071 447.652 370C463.558 378.242 483.148 381.571 483.148 381.571C484.297 378.142 486.085 363.287 494.5 363Z" stroke="#ECEEF1"/>
<path d="M463.264 348.343L433.178 347.519L438.495 326.19L486.212 316.928C496.687 324.381 521 354 521 354C521 354 517.75 353.033 516 354C514.249 354.967 511 356.573 511 356.573L497.452 347.769C496.516 345.199 494.018 343.006 491.678 342.022C488.754 340.792 485.092 346.961 483.314 347.519C481.892 347.965 469.355 348.254 463.264 348.343Z" fill="url(#paint32_linear)"/>
<path d="M462.996 342.936L434.13 342.426L438.226 320.783L485.943 311.521C496.419 318.973 519.6 351.224 519.6 351.224C519.6 351.224 517.319 350.199 515.569 351.166C513.818 352.133 511.526 356.256 511.526 356.256L497.184 342.362C496.247 339.792 493.34 333.484 491 332.5C488.075 331.27 484.823 341.554 483.046 342.112C481.623 342.558 469.086 342.847 462.996 342.936Z" fill="url(#paint33_linear)"/>
<path d="M462.996 342.936L434.13 342.426L438.226 320.783L485.943 311.521C496.419 318.973 519.6 351.224 519.6 351.224C519.6 351.224 517.319 350.199 515.569 351.166C513.818 352.133 511.526 356.256 511.526 356.256L497.184 342.362C496.247 339.792 493.34 333.484 491 332.5C488.075 331.27 484.823 341.554 483.046 342.112C481.623 342.558 469.086 342.847 462.996 342.936Z" fill="url(#paint34_diamond)"/>
<path d="M462.996 342.936L434.13 342.426L438.226 320.783L485.943 311.521C496.419 318.973 519.6 351.224 519.6 351.224C519.6 351.224 517.319 350.199 515.569 351.166C513.818 352.133 511.526 356.256 511.526 356.256L497.184 342.362C496.247 339.792 493.34 333.484 491 332.5C488.075 331.27 484.823 341.554 483.046 342.112C481.623 342.558 469.086 342.847 462.996 342.936Z" stroke="#D2D2D2"/>
<g filter="url(#filter0_d)">
<path d="M491.184 332.049C488.467 331.265 485.256 338.55 484.184 339.713L478.499 332.049C481.904 329.596 490.428 322.829 494.933 323.539C499.438 324.248 502.361 331.811 503.259 335.504L496.211 338.257C495.581 337.462 493.223 332.636 491.184 332.049Z" fill="url(#paint35_radial)"/>
</g>
<path d="M468.5 342.5L425.5 332.5L445.5 322C453.749 324.868 471.736 331.477 475.817 330.592C479.898 329.708 489.503 325.719 493 325.5C492.5 326.5 496 334.5 496 334.5C493.25 338.103 484.995 340.005 483 342C482.3 342.387 468.5 342.5 468.5 342.5Z" fill="url(#paint36_radial)"/>
<path d="M474.565 337.204C473.162 337.638 471.593 338.098 470.526 338.403L434.775 328.603L447.017 321.641C451.156 323.075 457.489 325.13 463.323 326.732C466.289 327.547 469.135 328.248 471.5 328.689C472.682 328.909 473.751 329.066 474.661 329.14C475.56 329.213 476.34 329.207 476.923 329.081C480.356 328.337 486.637 327.751 490.593 327.457C488.445 328.911 485.761 330.723 483.384 332.321C481.889 333.325 480.517 334.244 479.475 334.936C478.418 335.637 477.729 336.086 477.577 336.17C477.448 336.241 477.085 336.382 476.523 336.574C475.981 336.759 475.297 336.977 474.565 337.204Z" fill="url(#paint37_linear)" stroke="#EAEAEA"/>
<path d="M517.418 344.004L517.418 344.042L517.423 344.081L518.252 350.105C516.075 349.502 514.518 349.737 513.339 350.41C512.298 351.004 511.608 351.918 511.073 352.691C509.634 351.259 507.984 349.521 506.428 347.882C506.099 347.535 505.774 347.193 505.457 346.86C504.473 345.826 503.557 344.871 502.798 344.113C502.051 343.367 501.424 342.777 501.031 342.505C500.895 342.411 500.688 342.182 500.417 341.778C500.156 341.388 499.865 340.883 499.55 340.289C498.921 339.103 498.219 337.606 497.491 336.056L497.486 336.045C496.759 334.496 496.009 332.898 495.295 331.536C494.589 330.19 493.888 329.017 493.254 328.359C492.83 327.92 492.244 327.784 491.642 327.804C491.042 327.824 490.36 327.998 489.646 328.258C488.215 328.777 486.518 329.686 484.838 330.628C484.433 330.855 484.03 331.084 483.63 331.311C482.353 332.035 481.115 332.738 480.011 333.282C479.288 333.639 478.641 333.919 478.095 334.089C477.557 334.258 477.18 334.3 476.942 334.258L476.903 334.243L476.679 334.16C476.483 334.088 476.194 333.982 475.826 333.846C475.089 333.576 474.031 333.189 472.747 332.724C470.179 331.794 466.706 330.551 463.084 329.301C459.464 328.05 455.692 326.79 452.528 325.827C450.946 325.345 449.512 324.936 448.323 324.639C447.144 324.344 446.173 324.151 445.531 324.117C443.134 323.988 441.26 325.267 439.799 327.218C438.346 329.159 437.254 331.824 436.399 334.631C435.54 337.446 434.907 340.446 434.388 343.081C434.279 343.64 434.174 344.18 434.074 344.698C433.708 346.593 433.399 348.189 433.094 349.276C433.069 349.309 433.035 349.354 432.993 349.408C432.891 349.542 432.742 349.735 432.553 349.974C432.175 350.453 431.641 351.114 431.014 351.844C429.754 353.311 428.146 355.025 426.701 356.099C426.024 356.602 425.059 357.011 423.956 357.336C422.86 357.66 421.664 357.89 420.549 358.054C419.436 358.217 418.414 358.312 417.669 358.367C417.297 358.394 416.996 358.411 416.787 358.421C416.704 358.425 416.636 358.428 416.584 358.43L404.687 352.87C404.689 352.847 404.691 352.822 404.693 352.797C404.717 352.523 404.754 352.119 404.804 351.601C404.905 350.565 405.059 349.074 405.276 347.255C405.708 343.616 406.389 338.667 407.378 333.427C408.368 328.184 409.666 322.661 411.33 317.869C413.001 313.06 415.017 309.057 417.41 306.787C427.237 297.464 436.971 295.195 446.596 293.114C456.146 291.05 469.494 291.255 482.906 294.75C488.101 296.103 494.388 300.109 499.847 304.306C505.294 308.494 509.843 312.817 511.554 314.735C514.966 318.559 519.208 326.454 521.074 331.557C521.568 333.848 520.729 336.616 519.693 339.012C519.207 340.137 518.69 341.153 518.273 341.973L518.201 342.114C517.989 342.531 517.802 342.901 517.669 343.197C517.602 343.345 517.544 343.484 517.501 343.607C517.462 343.72 517.421 343.863 517.418 344.004Z" fill="url(#paint38_radial)"/>
<path d="M517.418 344.004L517.418 344.042L517.423 344.081L518.252 350.105C516.075 349.502 514.518 349.737 513.339 350.41C512.298 351.004 511.608 351.918 511.073 352.691C509.634 351.259 507.984 349.521 506.428 347.882C506.099 347.535 505.774 347.193 505.457 346.86C504.473 345.826 503.557 344.871 502.798 344.113C502.051 343.367 501.424 342.777 501.031 342.505C500.895 342.411 500.688 342.182 500.417 341.778C500.156 341.388 499.865 340.883 499.55 340.289C498.921 339.103 498.219 337.606 497.491 336.056L497.486 336.045C496.759 334.496 496.009 332.898 495.295 331.536C494.589 330.19 493.888 329.017 493.254 328.359C492.83 327.92 492.244 327.784 491.642 327.804C491.042 327.824 490.36 327.998 489.646 328.258C488.215 328.777 486.518 329.686 484.838 330.628C484.433 330.855 484.03 331.084 483.63 331.311C482.353 332.035 481.115 332.738 480.011 333.282C479.288 333.639 478.641 333.919 478.095 334.089C477.557 334.258 477.18 334.3 476.942 334.258L476.903 334.243L476.679 334.16C476.483 334.088 476.194 333.982 475.826 333.846C475.089 333.576 474.031 333.189 472.747 332.724C470.179 331.794 466.706 330.551 463.084 329.301C459.464 328.05 455.692 326.79 452.528 325.827C450.946 325.345 449.512 324.936 448.323 324.639C447.144 324.344 446.173 324.151 445.531 324.117C443.134 323.988 441.26 325.267 439.799 327.218C438.346 329.159 437.254 331.824 436.399 334.631C435.54 337.446 434.907 340.446 434.388 343.081C434.279 343.64 434.174 344.18 434.074 344.698C433.708 346.593 433.399 348.189 433.094 349.276C433.069 349.309 433.035 349.354 432.993 349.408C432.891 349.542 432.742 349.735 432.553 349.974C432.175 350.453 431.641 351.114 431.014 351.844C429.754 353.311 428.146 355.025 426.701 356.099C426.024 356.602 425.059 357.011 423.956 357.336C422.86 357.66 421.664 357.89 420.549 358.054C419.436 358.217 418.414 358.312 417.669 358.367C417.297 358.394 416.996 358.411 416.787 358.421C416.704 358.425 416.636 358.428 416.584 358.43L404.687 352.87C404.689 352.847 404.691 352.822 404.693 352.797C404.717 352.523 404.754 352.119 404.804 351.601C404.905 350.565 405.059 349.074 405.276 347.255C405.708 343.616 406.389 338.667 407.378 333.427C408.368 328.184 409.666 322.661 411.33 317.869C413.001 313.06 415.017 309.057 417.41 306.787C427.237 297.464 436.971 295.195 446.596 293.114C456.146 291.05 469.494 291.255 482.906 294.75C488.101 296.103 494.388 300.109 499.847 304.306C505.294 308.494 509.843 312.817 511.554 314.735C514.966 318.559 519.208 326.454 521.074 331.557C521.568 333.848 520.729 336.616 519.693 339.012C519.207 340.137 518.69 341.153 518.273 341.973L518.201 342.114C517.989 342.531 517.802 342.901 517.669 343.197C517.602 343.345 517.544 343.484 517.501 343.607C517.462 343.72 517.421 343.863 517.418 344.004Z" fill="url(#paint39_angular)"/>
<path d="M517.418 344.004L517.418 344.042L517.423 344.081L518.252 350.105C516.075 349.502 514.518 349.737 513.339 350.41C512.298 351.004 511.608 351.918 511.073 352.691C509.634 351.259 507.984 349.521 506.428 347.882C506.099 347.535 505.774 347.193 505.457 346.86C504.473 345.826 503.557 344.871 502.798 344.113C502.051 343.367 501.424 342.777 501.031 342.505C500.895 342.411 500.688 342.182 500.417 341.778C500.156 341.388 499.865 340.883 499.55 340.289C498.921 339.103 498.219 337.606 497.491 336.056L497.486 336.045C496.759 334.496 496.009 332.898 495.295 331.536C494.589 330.19 493.888 329.017 493.254 328.359C492.83 327.92 492.244 327.784 491.642 327.804C491.042 327.824 490.36 327.998 489.646 328.258C488.215 328.777 486.518 329.686 484.838 330.628C484.433 330.855 484.03 331.084 483.63 331.311C482.353 332.035 481.115 332.738 480.011 333.282C479.288 333.639 478.641 333.919 478.095 334.089C477.557 334.258 477.18 334.3 476.942 334.258L476.903 334.243L476.679 334.16C476.483 334.088 476.194 333.982 475.826 333.846C475.089 333.576 474.031 333.189 472.747 332.724C470.179 331.794 466.706 330.551 463.084 329.301C459.464 328.05 455.692 326.79 452.528 325.827C450.946 325.345 449.512 324.936 448.323 324.639C447.144 324.344 446.173 324.151 445.531 324.117C443.134 323.988 441.26 325.267 439.799 327.218C438.346 329.159 437.254 331.824 436.399 334.631C435.54 337.446 434.907 340.446 434.388 343.081C434.279 343.64 434.174 344.18 434.074 344.698C433.708 346.593 433.399 348.189 433.094 349.276C433.069 349.309 433.035 349.354 432.993 349.408C432.891 349.542 432.742 349.735 432.553 349.974C432.175 350.453 431.641 351.114 431.014 351.844C429.754 353.311 428.146 355.025 426.701 356.099C426.024 356.602 425.059 357.011 423.956 357.336C422.86 357.66 421.664 357.89 420.549 358.054C419.436 358.217 418.414 358.312 417.669 358.367C417.297 358.394 416.996 358.411 416.787 358.421C416.704 358.425 416.636 358.428 416.584 358.43L404.687 352.87C404.689 352.847 404.691 352.822 404.693 352.797C404.717 352.523 404.754 352.119 404.804 351.601C404.905 350.565 405.059 349.074 405.276 347.255C405.708 343.616 406.389 338.667 407.378 333.427C408.368 328.184 409.666 322.661 411.33 317.869C413.001 313.06 415.017 309.057 417.41 306.787C427.237 297.464 436.971 295.195 446.596 293.114C456.146 291.05 469.494 291.255 482.906 294.75C488.101 296.103 494.388 300.109 499.847 304.306C505.294 308.494 509.843 312.817 511.554 314.735C514.966 318.559 519.208 326.454 521.074 331.557C521.568 333.848 520.729 336.616 519.693 339.012C519.207 340.137 518.69 341.153 518.273 341.973L518.201 342.114C517.989 342.531 517.802 342.901 517.669 343.197C517.602 343.345 517.544 343.484 517.501 343.607C517.462 343.72 517.421 343.863 517.418 344.004Z" stroke="#E5E5E5"/>
<path d="M492.894 327.706C490.579 325.308 479.74 334.381 476.805 333.74C476.805 333.74 450.215 323.87 445.504 323.616C436.818 323.148 435.169 342.884 433.549 348.502C433.549 348.502 429.984 353.282 427 355.5C424.016 357.718 416.482 357.934 416.482 357.934L404.16 352.175C404.16 352.175 407.131 314.849 417.065 305.425C427 296 436.853 293.709 446.49 291.626C456.128 289.542 469.555 289.755 483.032 293.266C493.63 296.027 508.453 309.509 511.927 313.402C515.401 317.296 519.682 325.277 521.555 330.418C523 336 518.017 343.557 518 344.5L518.855 349.816C513.876 348.103 512.356 350.721 511.146 352.467C507.478 348.867 502.143 342.884 500.746 341.916C499 340.707 495.209 330.104 492.894 327.706Z" fill="url(#paint40_radial)"/>
<path d="M492.894 327.706C490.579 325.308 479.74 334.381 476.805 333.74C476.805 333.74 450.215 323.87 445.504 323.616C436.818 323.148 435.169 342.884 433.549 348.502C433.549 348.502 429.984 353.282 427 355.5C424.016 357.718 416.482 357.934 416.482 357.934L404.16 352.175C404.16 352.175 407.131 314.849 417.065 305.425C427 296 436.853 293.709 446.49 291.626C456.128 289.542 469.555 289.755 483.032 293.266C493.63 296.027 508.453 309.509 511.927 313.402C515.401 317.296 519.682 325.277 521.555 330.418C523 336 518.017 343.557 518 344.5L518.855 349.816C513.876 348.103 512.356 350.721 511.146 352.467C507.478 348.867 502.143 342.884 500.746 341.916C499 340.707 495.209 330.104 492.894 327.706Z" fill="url(#paint41_angular)"/>
<defs>
<filter id="filter0_d" x="474.499" y="323.487" width="32.76" height="24.2265" filterUnits="userSpaceOnUse" color-interpolation-filters="sRGB">
<feFlood flood-opacity="0" result="BackgroundImageFix"/>
<feColorMatrix in="SourceAlpha" type="matrix" values="0 0 0 0 0 0 0 0 0 0 0 0 0 0 0 0 0 0 127 0" result="hardAlpha"/>
<feOffset dy="4"/>
<feGaussianBlur stdDeviation="2"/>
<feColorMatrix type="matrix" values="0 0 0 0 0 0 0 0 0 0 0 0 0 0 0 0 0 0 0.25 0"/>
<feBlend mode="normal" in2="BackgroundImageFix" result="effect1_dropShadow"/>
<feBlend mode="normal" in="SourceGraphic" in2="effect1_dropShadow" result="shape"/>
</filter>
<radialGradient id="paint0_radial" cx="0" cy="0" r="1" gradientUnits="userSpaceOnUse" gradientTransform="translate(284.5 339.5) rotate(90) scale(219.5 279.5)">
<stop stop-color="white" stop-opacity="0.34"/>
<stop offset="1" stop-color="white" stop-opacity="0"/>
</radialGradient>
<radialGradient id="paint1_radial" cx="0" cy="0" r="1" gradientUnits="userSpaceOnUse" gradientTransform="translate(358.865 388.058) rotate(75.8492) scale(245.103 240.604)">
<stop stop-color="#E7EAED"/>
<stop offset="0.0639506" stop-color="#EDEFF1"/>
<stop offset="1" stop-color="#FBFBFB"/>
</radialGradient>
<linearGradient id="paint2_linear" x1="255.575" y1="385.151" x2="332.449" y2="322.679" gradientUnits="userSpaceOnUse">
<stop stop-color="#D8DCE1"/>
<stop offset="1" stop-color="white"/>
</linearGradient>
<linearGradient id="paint3_linear" x1="289.731" y1="406.512" x2="481.445" y2="434.097" gradientUnits="userSpaceOnUse">
<stop offset="0.016263" stop-color="#BEC5CD"/>
<stop offset="0.358383" stop-color="#ECEEF1"/>
<stop offset="0.615315" stop-color="white"/>
</linearGradient>
<linearGradient id="paint4_linear" x1="422.969" y1="503.718" x2="378.379" y2="433.784" gradientUnits="userSpaceOnUse">
<stop stop-color="#BEC5CD"/>
<stop offset="0.759743" stop-color="#ECEEF1"/>
<stop offset="1" stop-color="white"/>
</linearGradient>
<radialGradient id="paint5_radial" cx="0" cy="0" r="1" gradientUnits="userSpaceOnUse" gradientTransform="translate(428 450.5) rotate(116.307) scale(49.6412 95.8629)">
<stop offset="0.0170511"/>
<stop offset="0.516249" stop-color="#252628" stop-opacity="0.806995"/>
<stop offset="0.81743" stop-color="#BEC5CD" stop-opacity="0"/>
</radialGradient>
<linearGradient id="paint6_linear" x1="471.881" y1="485.645" x2="406.679" y2="396.114" gradientUnits="userSpaceOnUse">
<stop stop-color="#BEC5CD"/>
<stop offset="0.759743" stop-color="#ECEEF1"/>
<stop offset="1" stop-color="white"/>
</linearGradient>
<radialGradient id="paint7_radial" cx="0" cy="0" r="1" gradientUnits="userSpaceOnUse" gradientTransform="translate(452.989 426.016) rotate(97.987) scale(41.2296 61.9206)">
<stop offset="0.0170511"/>
<stop offset="0.516249" stop-color="#252628" stop-opacity="0.806995"/>
<stop offset="0.81743" stop-color="#BEC5CD" stop-opacity="0"/>
</radialGradient>
<linearGradient id="paint8_linear" x1="492.797" y1="470.35" x2="430.801" y2="369.572" gradientUnits="userSpaceOnUse">
<stop stop-color="#BEC5CD"/>
<stop offset="0.759743" stop-color="#ECEEF1"/>
<stop offset="1" stop-color="white"/>
</linearGradient>
<radialGradient id="paint9_radial" cx="0" cy="0" r="1" gradientUnits="userSpaceOnUse" gradientTransform="translate(471 407.5) rotate(94.2631) scale(34.3224 49.7193)">
<stop offset="0.0170511"/>
<stop offset="0.516249" stop-color="#252628" stop-opacity="0.806995"/>
<stop offset="0.81743" stop-color="#BEC5CD" stop-opacity="0"/>
</radialGradient>
<linearGradient id="paint10_linear" x1="501.677" y1="446.703" x2="447.43" y2="360.687" gradientUnits="userSpaceOnUse">
<stop stop-color="#BEC5CD"/>
<stop offset="0.618931" stop-color="#ECEEF1"/>
<stop offset="1" stop-color="white"/>
</linearGradient>
<radialGradient id="paint11_radial" cx="0" cy="0" r="1" gradientUnits="userSpaceOnUse" gradientTransform="translate(482.5 384.5) rotate(87.0892) scale(29.5381 30.5095)">
<stop offset="0.0170511"/>
<stop offset="0.57378" stop-color="#252628" stop-opacity="0.806995"/>
<stop offset="0.88038" stop-color="#BEC5CD" stop-opacity="0"/>
</radialGradient>
<linearGradient id="paint12_linear" x1="514.814" y1="416.296" x2="454.737" y2="348.988" gradientUnits="userSpaceOnUse">
<stop stop-color="#BEC5CD"/>
<stop offset="0.50254" stop-color="#ECEEF1"/>
<stop offset="1" stop-color="white"/>
</linearGradient>
<radialGradient id="paint13_radial" cx="0" cy="0" r="1" gradientUnits="userSpaceOnUse" gradientTransform="translate(395 386) rotate(66.4164) scale(107.477 137.016)">
<stop offset="0.0170511"/>
<stop offset="0.57783" stop-color="#252628" stop-opacity="0.806995"/>
<stop offset="0.81743" stop-color="#BEC5CD" stop-opacity="0"/>
</radialGradient>
<linearGradient id="paint14_linear" x1="481.02" y1="487.096" x2="329.022" y2="334.015" gradientUnits="userSpaceOnUse">
<stop stop-color="#BEC5CD"/>
<stop offset="0.505208" stop-color="#ECEEF1"/>
<stop offset="0.776042" stop-color="#F3F4F6"/>
<stop offset="1" stop-color="white"/>
</linearGradient>
<radialGradient id="paint15_diamond" cx="0" cy="0" r="1" gradientUnits="userSpaceOnUse" gradientTransform="translate(424.94 375.27) rotate(60.3772) scale(123.009 191.46)">
<stop offset="0.0400845" stop-color="white"/>
<stop offset="0.343084" stop-color="white" stop-opacity="0"/>
</radialGradient>
<linearGradient id="paint16_linear" x1="433.773" y1="354.248" x2="369.237" y2="322.302" gradientUnits="userSpaceOnUse">
<stop stop-color="#D8DCE1"/>
<stop offset="1" stop-color="white"/>
</linearGradient>
<linearGradient id="paint17_linear" x1="472.222" y1="382.033" x2="479.136" y2="391.047" gradientUnits="userSpaceOnUse">
<stop stop-color="#BEC5CD"/>
<stop offset="0.28852" stop-color="#ECEEF1"/>
<stop offset="1" stop-color="white"/>
</linearGradient>
<radialGradient id="paint18_radial" cx="0" cy="0" r="1" gradientUnits="userSpaceOnUse" gradientTransform="translate(472.278 381.371) rotate(31.3311) scale(24.1868 23.2233)">
<stop offset="0.0400845" stop-color="#B7BFC8"/>
<stop offset="0.343084" stop-color="white" stop-opacity="0"/>
</radialGradient>
<linearGradient id="paint19_linear" x1="226.398" y1="382.023" x2="318.844" y2="311.354" gradientUnits="userSpaceOnUse">
<stop stop-color="#BEC5CD"/>
<stop offset="0.401383" stop-color="#ECEEF1"/>
<stop offset="0.74801" stop-color="white"/>
</linearGradient>
<linearGradient id="paint20_linear" x1="297.5" y1="431" x2="381.5" y2="321.5" gradientUnits="userSpaceOnUse">
<stop stop-color="#BEC5CD"/>
<stop offset="0.416196" stop-color="#ECEEF1" stop-opacity="0.51"/>
<stop offset="0.845049" stop-color="white" stop-opacity="0"/>
</linearGradient>
<linearGradient id="paint21_linear" x1="288.982" y1="430.101" x2="471.731" y2="488.512" gradientUnits="userSpaceOnUse">
<stop stop-color="#BEC5CD"/>
<stop offset="0.435568" stop-color="#ECEEF1"/>
<stop offset="1" stop-color="white"/>
</linearGradient>
<radialGradient id="paint22_radial" cx="0" cy="0" r="1" gradientUnits="userSpaceOnUse" gradientTransform="translate(328.231 455.512) rotate(35.7067) scale(39.4081 79.2631)">
<stop offset="0.0400845" stop-color="white" stop-opacity="0.65"/>
<stop offset="0.701161" stop-color="white" stop-opacity="0"/>
</radialGradient>
<linearGradient id="paint23_linear" x1="413.258" y1="344.862" x2="380.158" y2="399.713" gradientUnits="userSpaceOnUse">
<stop stop-color="#BEC5CD"/>
<stop offset="0.266139" stop-color="#E1E4E8" stop-opacity="0.468479"/>
<stop offset="0.827483" stop-color="white" stop-opacity="0"/>
</linearGradient>
<radialGradient id="paint24_radial" cx="0" cy="0" r="1" gradientUnits="userSpaceOnUse" gradientTransform="translate(280.842 379.187) rotate(113.008) scale(143.531 174.738)">
<stop stop-color="#E4EAF0"/>
<stop offset="1" stop-color="#EFF1F3"/>
</radialGradient>
<linearGradient id="paint25_linear" x1="337" y1="353.5" x2="41.0604" y2="442.668" gradientUnits="userSpaceOnUse">
<stop stop-color="#BEC5CD"/>
<stop offset="0.401383" stop-color="#ECEEF1" stop-opacity="0.51"/>
<stop offset="0.74801" stop-color="white" stop-opacity="0"/>
</linearGradient>
<radialGradient id="paint26_radial" cx="0" cy="0" r="1" gradientUnits="userSpaceOnUse" gradientTransform="translate(280.842 379.187) rotate(113.008) scale(143.531 174.738)">
<stop stop-color="#E4EAF0"/>
<stop offset="1" stop-color="#EFF1F3"/>
</radialGradient>
<linearGradient id="paint27_linear" x1="337" y1="353.5" x2="41.0604" y2="442.668" gradientUnits="userSpaceOnUse">
<stop stop-color="#BEC5CD"/>
<stop offset="0.401383" stop-color="#ECEEF1" stop-opacity="0.51"/>
<stop offset="0.74801" stop-color="white" stop-opacity="0"/>
</linearGradient>
<radialGradient id="paint28_diamond" cx="0" cy="0" r="1" gradientUnits="userSpaceOnUse" gradientTransform="translate(508.763 354.356) rotate(126.53) scale(69.8087 234.45)">
<stop offset="0.0400845" stop-color="#B7BFC8"/>
<stop offset="0.231272" stop-color="#F7F8F9"/>
</radialGradient>
<linearGradient id="paint29_linear" x1="512.447" y1="378.598" x2="527" y2="358.5" gradientUnits="userSpaceOnUse">
<stop offset="0.100277" stop-color="#B7BFC8"/>
<stop offset="0.586817" stop-color="#DADEE2"/>
<stop offset="0.742841" stop-color="#EDEFF1"/>
<stop offset="0.91227" stop-color="white"/>
</linearGradient>
<linearGradient id="paint30_linear" x1="462.525" y1="334.776" x2="464.465" y2="381.317" gradientUnits="userSpaceOnUse">
<stop stop-color="#BEC5CD"/>
<stop offset="0.28852" stop-color="#ECEEF1"/>
<stop offset="1" stop-color="white"/>
</linearGradient>
<radialGradient id="paint31_diamond" cx="0" cy="0" r="1" gradientUnits="userSpaceOnUse" gradientTransform="translate(490.636 338.094) rotate(100.038) scale(73.9493 163.758)">
<stop offset="0.0400845" stop-color="#B7BFC8"/>
<stop offset="0.343084" stop-color="white" stop-opacity="0"/>
</radialGradient>
<linearGradient id="paint32_linear" x1="494" y1="291.5" x2="493.41" y2="351.553" gradientUnits="userSpaceOnUse">
<stop offset="0.0170511"/>
<stop offset="0.586493" stop-color="#252628" stop-opacity="0.806995"/>
<stop offset="0.958961" stop-color="#BEC5CD" stop-opacity="0"/>
</linearGradient>
<linearGradient id="paint33_linear" x1="509.374" y1="320.313" x2="476.954" y2="375.36" gradientUnits="userSpaceOnUse">
<stop stop-color="#BEC5CD"/>
<stop offset="0.526628" stop-color="#E4E7EA"/>
<stop offset="1" stop-color="white"/>
</linearGradient>
<radialGradient id="paint34_diamond" cx="0" cy="0" r="1" gradientUnits="userSpaceOnUse" gradientTransform="translate(499.778 327.302) rotate(103.244) scale(47.6005 153.478)">
<stop offset="0.0400845" stop-color="#B7BFC8"/>
<stop offset="0.343084" stop-color="white" stop-opacity="0"/>
</radialGradient>
<radialGradient id="paint35_radial" cx="0" cy="0" r="1" gradientUnits="userSpaceOnUse" gradientTransform="translate(489.716 332.705) rotate(-61.4981) scale(21.36 9.0046)">
<stop stop-color="white"/>
<stop offset="0.50487" stop-color="white" stop-opacity="0"/>
</radialGradient>
<radialGradient id="paint36_radial" cx="0" cy="0" r="1" gradientUnits="userSpaceOnUse" gradientTransform="translate(463.194 315.445) rotate(95.5556) scale(30.8016 47.7992)">
<stop offset="0.0170511"/>
<stop offset="0.57474" stop-color="#252628" stop-opacity="0.806995"/>
<stop offset="0.803452" stop-color="#BEC5CD" stop-opacity="0"/>
</radialGradient>
<linearGradient id="paint37_linear" x1="467.029" y1="297.44" x2="457.849" y2="340.787" gradientUnits="userSpaceOnUse">
<stop stop-color="#B7BFC8"/>
<stop offset="1" stop-color="white"/>
</linearGradient>
<radialGradient id="paint38_radial" cx="0" cy="0" r="1" gradientUnits="userSpaceOnUse" gradientTransform="translate(437.259 298.324) rotate(59.2748) scale(79.5393 132.056)">
<stop stop-color="white"/>
<stop offset="0.477151" stop-color="#FDFDFD"/>
<stop offset="1" stop-color="#F0F1F3"/>
</radialGradient>
<radialGradient id="paint39_angular" cx="0" cy="0" r="1" gradientUnits="userSpaceOnUse" gradientTransform="translate(489.186 336.468) rotate(-15.2971) scale(33.9558 33.0861)">
<stop stop-color="#A0A6AE" stop-opacity="0.41"/>
<stop offset="0.157163" stop-color="#D5D7DB" stop-opacity="0.182831"/>
<stop offset="0.839524" stop-color="white" stop-opacity="0"/>
</radialGradient>
<radialGradient id="paint40_radial" cx="0" cy="0" r="1" gradientUnits="userSpaceOnUse" gradientTransform="translate(437.259 297.324) rotate(59.2748) scale(79.5393 132.056)">
<stop stop-color="white"/>
<stop offset="0.477151" stop-color="#FDFDFD"/>
<stop offset="1" stop-color="#F0F1F3"/>
</radialGradient>
<radialGradient id="paint41_angular" cx="0" cy="0" r="1" gradientUnits="userSpaceOnUse" gradientTransform="translate(489.186 335.468) rotate(-15.2971) scale(33.9558 33.0861)">
<stop stop-color="#A0A6AE" stop-opacity="0.41"/>
<stop offset="0.157163" stop-color="#D5D7DB" stop-opacity="0.182831"/>
<stop offset="0.839524" stop-color="white" stop-opacity="0"/>
</radialGradient>
</defs>
</svg>
