<svg id="Layer_1" data-name="Layer 1" xmlns="http://www.w3.org/2000/svg" xmlns:xlink="http://www.w3.org/1999/xlink" viewBox="0 0 1035 659"><defs><style>.cls-1,.cls-15,.cls-2,.cls-3,.cls-4,.cls-5,.cls-6,.cls-7,.cls-74{fill:none;}.cls-2,.cls-3,.cls-4{stroke:#ec008c;}.cls-2,.cls-3,.cls-4,.cls-5,.cls-6,.cls-7{stroke-linecap:round;stroke-width:1.5px;}.cls-2,.cls-3,.cls-4,.cls-5,.cls-6,.cls-7,.cls-72,.cls-73,.cls-74{stroke-linejoin:round;}.cls-2,.cls-5{stroke-dasharray:0 2.99;}.cls-3,.cls-6{stroke-dasharray:0 3;}.cls-5,.cls-6,.cls-7{stroke:#eb008b;}.cls-8{fill:#59aabd;}.cls-9{clip-path:url(#clip-path);}.cls-10,.cls-13,.cls-14,.cls-31,.cls-33,.cls-34,.cls-35,.cls-36,.cls-46,.cls-51,.cls-52,.cls-53,.cls-68,.cls-70,.cls-71,.cls-72,.cls-73{fill:#fff;}.cls-11{clip-path:url(#clip-path-2);}.cls-12,.cls-69{fill:#353847;}.cls-13{font-size:19px;letter-spacing:0.01em;}.cls-13,.cls-14,.cls-16,.cls-20,.cls-21,.cls-22,.cls-23,.cls-24,.cls-28,.cls-33,.cls-36,.cls-46,.cls-52,.cls-53{font-family:Raleway-SemiBold, Raleway;}.cls-13,.cls-14,.cls-16,.cls-20,.cls-21,.cls-22,.cls-23,.cls-24,.cls-28,.cls-33,.cls-37,.cls-46,.cls-52,.cls-53{font-weight:700;}.cls-14{font-size:14px;}.cls-15{stroke:#fff;}.cls-16,.cls-19,.cls-34{font-size:10px;}.cls-16,.cls-19,.cls-30,.cls-49,.cls-50{fill:#231f20;}.cls-17{letter-spacing:0.01em;}.cls-18{letter-spacing:0em;}.cls-19,.cls-30,.cls-31,.cls-34,.cls-35,.cls-41,.cls-49,.cls-50,.cls-51,.cls-58,.cls-68{font-family:Raleway-Medium, Raleway;}.cls-20{letter-spacing:-0.02em;}.cls-21,.cls-25{letter-spacing:-0.02em;}.cls-22,.cls-26{letter-spacing:-0.02em;}.cls-23{letter-spacing:0em;}.cls-27,.cls-28{letter-spacing:-0.02em;}.cls-29{fill:#e64633;}.cls-30,.cls-58{font-size:8px;}.cls-31,.cls-33{font-size:9px;}.cls-32{letter-spacing:-0.02em;}.cls-35,.cls-46,.cls-49,.cls-68{font-size:11px;}.cls-36{font-size:23.38px;}.cls-38{letter-spacing:-0.04em;}.cls-39{letter-spacing:-0.04em;}.cls-40{letter-spacing:-0.04em;}.cls-42{letter-spacing:-0.04em;}.cls-43{letter-spacing:-0.03em;}.cls-44{letter-spacing:-0.06em;}.cls-45{fill:#283d4a;}.cls-47{letter-spacing:-0.02em;}.cls-48{fill:#99c;}.cls-49{letter-spacing:-0.02em;}.cls-50{font-size:6px;letter-spacing:-0.01em;}.cls-51{font-size:67px;}.cls-52{font-size:15px;letter-spacing:0em;}.cls-53{font-size:12px;}.cls-54{letter-spacing:-0.02em;}.cls-55{letter-spacing:-0.02em;}.cls-56{letter-spacing:0em;}.cls-57{letter-spacing:-0.03em;}.cls-59{letter-spacing:-0.02em;}.cls-60{letter-spacing:0em;}.cls-61{letter-spacing:-0.02em;}.cls-62{letter-spacing:-0.01em;}.cls-63{letter-spacing:-0.01em;}.cls-64{letter-spacing:-0.03em;}.cls-65{letter-spacing:0em;}.cls-66{letter-spacing:0em;}.cls-67{letter-spacing:0em;}.cls-68{letter-spacing:-0.02em;}.cls-69{opacity:0.48;}.cls-70{font-size:8.59px;font-family:ArialMT, Arial;}.cls-71,.cls-73{stroke:#000;}.cls-71{stroke-miterlimit:10;}.cls-71,.cls-72,.cls-73,.cls-74{stroke-width:0.72px;}.cls-72,.cls-74{stroke:#99c;stroke-dasharray:2.88 2.16;}</style><clipPath id="clip-path"><rect class="cls-1" x="887.2" y="52.7" width="131.9" height="28.83"/></clipPath><clipPath id="clip-path-2"><rect class="cls-1" x="506.9" y="31.7" width="20.8" height="99.36"/></clipPath></defs><title>cover-react1</title><line class="cls-2" x1="508.6" y1="11.2" x2="508.6" y2="650.2"/><line class="cls-3" x1="511.6" y1="651.7" x2="525.1" y2="651.7"/><line class="cls-2" x1="526.6" y1="648.7" x2="526.6" y2="9.7"/><line class="cls-3" x1="523.6" y1="8.2" x2="510.1" y2="8.2"/><path class="cls-4" d="M508.6,8.2h0m18,0h0m0,643.5h0m-18,0h0"/><line class="cls-5" x1="540.1" y1="11.2" x2="540.1" y2="650.2"/><line class="cls-6" x1="543.1" y1="651.7" x2="1024.6" y2="651.7"/><line class="cls-6" x1="1023.1" y1="8.2" x2="541.6" y2="8.2"/><path class="cls-7" d="M540.1,8.2h0m486,0h0m0,643.5h0m-486,0h0"/><rect class="cls-8" width="1035" height="659"/><g class="cls-9"><path class="cls-10" d="M921,70.6a1.8,1.8,0,0,0,.9.8l1.1.5h2.5a2.3,2.3,0,0,0,1.1-.3,1.6,1.6,0,0,0,.8-.6,1.5,1.5,0,0,0,.3-1,1.4,1.4,0,0,0-.7-1.3,5.9,5.9,0,0,0-1.6-.7l-2.2-.5a7.9,7.9,0,0,1-2.2-.6,4.6,4.6,0,0,1-1.6-1.1,3.3,3.3,0,0,1-.2-3.8,4.6,4.6,0,0,1,1.2-1.2,3.8,3.8,0,0,1,1.6-.6,5.5,5.5,0,0,1,1.8-.2,7.8,7.8,0,0,1,2.2.2,5.5,5.5,0,0,1,1.8.6,3.7,3.7,0,0,1,1.2,1.3,5.9,5.9,0,0,1,.5,2h-2.3a1.7,1.7,0,0,0-.3-1,2.7,2.7,0,0,0-.8-.7l-1-.4H923l-.9.2c-.3.2-.6.3-.7.6a1.1,1.1,0,0,0-.3.8,1,1,0,0,0,.4.9,3,3,0,0,0,1.1.7l1.4.4,1.6.3,1.7.5a5.9,5.9,0,0,1,1.4.6,3.5,3.5,0,0,1,1,1.1,2.9,2.9,0,0,1,.4,1.6,3.9,3.9,0,0,1-.5,2,3.5,3.5,0,0,1-1.4,1.3,4,4,0,0,1-1.9.7l-2.1.2-2.1-.2a5.4,5.4,0,0,1-1.9-.8,4.4,4.4,0,0,1-1.3-1.4,4.6,4.6,0,0,1-.5-2.1h2.3a2.1,2.1,0,0,0,.3,1.2"/><rect class="cls-10" x="932.8" y="60.3" width="2.3" height="13.35"/><path class="cls-10" d="M944.4,60.3v1.9h-2.7v8.3c0,.3,0,.5.1.6a.5.5,0,0,0,.2.4h2.4v1.9h-3.2a2.3,2.3,0,0,1-1-.4,1.5,1.5,0,0,1-.6-.9,6.1,6.1,0,0,1-.2-1.5V62.2h-2.3V60.3h2.3v-4h2.3v4Z"/><path class="cls-10" d="M956.7,72.8a6.7,6.7,0,0,1-3.9,1.1,7.8,7.8,0,0,1-2.8-.5,5.4,5.4,0,0,1-2.1-1.5,5.2,5.2,0,0,1-1.2-2.2,8.2,8.2,0,0,1-.5-2.8,8.7,8.7,0,0,1,.5-2.8,8,8,0,0,1,1.3-2.2,6,6,0,0,1,2.1-1.4,5.5,5.5,0,0,1,2.6-.5,5.6,5.6,0,0,1,3,.7,5.2,5.2,0,0,1,2,1.9,7.2,7.2,0,0,1,1,2.4,7.8,7.8,0,0,1,.2,2.6H948.6a9.9,9.9,0,0,0,.2,1.7,3.9,3.9,0,0,0,.8,1.4,2.8,2.8,0,0,0,1.4.9,4.6,4.6,0,0,0,4.3-.3,2.9,2.9,0,0,0,1.2-1.9h2.2a5.2,5.2,0,0,1-2,3.4m-.5-8.6a2.7,2.7,0,0,0-.9-1.2,3.6,3.6,0,0,0-1.2-.8,4,4,0,0,0-1.5-.3,3.8,3.8,0,0,0-1.6.3,3.6,3.6,0,0,0-1.2.8,2.8,2.8,0,0,0-.8,1.2,4.2,4.2,0,0,0-.4,1.5h7.9a4,4,0,0,0-.3-1.5"/><path class="cls-10" d="M963.6,60.3v1.8h.1a3,3,0,0,1,1.7-1.6,5.9,5.9,0,0,1,2.7-.5,6.1,6.1,0,0,1,2.8.5,4.9,4.9,0,0,1,1.9,1.6,4.8,4.8,0,0,1,1.2,2.2,7.7,7.7,0,0,1,.4,2.7,12.4,12.4,0,0,1-.3,2.7,7.8,7.8,0,0,1-1.2,2.2,6.2,6.2,0,0,1-2,1.5,7.8,7.8,0,0,1-2.8.5H967l-1.2-.3-1.2-.7a2.2,2.2,0,0,1-.9-1h-.1v6.9h-2.2V60.3Zm8.2,4.7a4.8,4.8,0,0,0-.8-1.6,4.7,4.7,0,0,0-1.3-1.1,4.1,4.1,0,0,0-1.9-.4,4.2,4.2,0,0,0-2,.4,3.7,3.7,0,0,0-1.3,1.2,4.6,4.6,0,0,0-.7,1.6,5.7,5.7,0,0,0-.3,1.8,5.8,5.8,0,0,0,.3,1.9,4.9,4.9,0,0,0,2.1,2.8,4,4,0,0,0,2,.4,5.9,5.9,0,0,0,2-.4,3.4,3.4,0,0,0,1.2-1.2,4.4,4.4,0,0,0,.7-1.7,5.8,5.8,0,0,0,.2-1.9,5.5,5.5,0,0,0-.2-1.8"/><path class="cls-10" d="M976.8,64.2a6.1,6.1,0,0,1,1.3-2.2,5.7,5.7,0,0,1,2.1-1.5,6.5,6.5,0,0,1,2.9-.5,6.8,6.8,0,0,1,2.9.5,6.2,6.2,0,0,1,2,1.5,6.1,6.1,0,0,1,1.3,2.2,8.7,8.7,0,0,1,.5,2.8,8.1,8.1,0,0,1-.5,2.7,6.1,6.1,0,0,1-1.3,2.2,6.2,6.2,0,0,1-2,1.5,8.8,8.8,0,0,1-2.9.5,8.4,8.4,0,0,1-2.9-.5,5.7,5.7,0,0,1-2.1-1.5,6.1,6.1,0,0,1-1.3-2.2,8,8,0,0,1-.4-2.7,8.6,8.6,0,0,1,.4-2.8m2.3,4.9a4.2,4.2,0,0,0,.9,1.6,7.1,7.1,0,0,0,1.4,1,4.7,4.7,0,0,0,1.7.3,4.5,4.5,0,0,0,1.6-.3,7.1,7.1,0,0,0,1.4-1,4.2,4.2,0,0,0,.9-1.6,6.5,6.5,0,0,0,.4-2.1,6.7,6.7,0,0,0-.4-2.2,4.2,4.2,0,0,0-.9-1.6,7.1,7.1,0,0,0-1.4-1,4.5,4.5,0,0,0-1.6-.3,4.7,4.7,0,0,0-1.7.3,7.1,7.1,0,0,0-1.4,1,4.2,4.2,0,0,0-.9,1.6,6.9,6.9,0,0,0-.3,2.2,6.6,6.6,0,0,0,.3,2.1"/><rect class="cls-10" x="992.6" y="60.3" width="2.3" height="13.35"/><path class="cls-10" d="M1000.5,60.3v2.1h0A5,5,0,0,1,1005,60a7.5,7.5,0,0,1,2.3.3,5.6,5.6,0,0,1,1.5,1,4.6,4.6,0,0,1,.7,1.6,5.8,5.8,0,0,1,.3,1.9v8.8h-2.3v-9a2.7,2.7,0,0,0-.7-2,2.8,2.8,0,0,0-2.1-.7,4.8,4.8,0,0,0-1.8.3,3.8,3.8,0,0,0-1.3.9,3.3,3.3,0,0,0-.7,1.3,4.7,4.7,0,0,0-.3,1.7v7.5h-2.3V60.3Z"/><path class="cls-10" d="M1019.1,60.3v1.9h-2.8v8.3a3.5,3.5,0,0,0,.1.6c0,.2.1.3.3.4h2.4v1.9h-3.3l-1-.4a1.9,1.9,0,0,1-.5-.9,3.4,3.4,0,0,1-.2-1.5V62.2h-2.4V60.3h2.4v-4h2.2v4Z"/><path class="cls-10" d="M888,65.4l2.1,2,6.6,6.2,2.8-2.8a.8.8,0,0,0,0-1.1l-2.6-2.3h0l-2.8-2.7a1,1,0,0,1,0-1.3l7.6-7.3-3.5-3.4-8.1,7.9-2.1,2a1.9,1.9,0,0,0,0,2.8"/><path class="cls-10" d="M910.5,68.9l-2.1-2-6.6-6.2L899,63.5a.8.8,0,0,0,0,1.1l2.6,2.3h0l2.8,2.8a.9.9,0,0,1,0,1.2l-7.6,7.3,3.5,3.4,8.1-7.9,2.1-2a1.9,1.9,0,0,0,0-2.8"/><path class="cls-10" d="M935.2,57.5a1.3,1.3,0,0,1-2.6,0,1.3,1.3,0,0,1,2.6,0"/><path class="cls-10" d="M995,57.5a1.3,1.3,0,1,1-2.6,0,1.3,1.3,0,0,1,2.6,0"/></g><g class="cls-11"><path class="cls-10" d="M514.8,57.2a1.7,1.7,0,0,0-.6.6l-.3.9a3.4,3.4,0,0,0-.1,1,2.8,2.8,0,0,0,.1.9,2.4,2.4,0,0,0,.2.8,2.1,2.1,0,0,0,.4.6.8.8,0,0,0,.7.2,1,1,0,0,0,1-.5,3.3,3.3,0,0,0,.5-1.2l.3-1.7a9.8,9.8,0,0,1,.5-1.6,5.7,5.7,0,0,1,.8-1.3,2.1,2.1,0,0,1,1.5-.5,2.5,2.5,0,0,1,1.2.4,2.6,2.6,0,0,1,.9.9,5.6,5.6,0,0,1,.4,1.2,7.8,7.8,0,0,1,.2,1.4,9.1,9.1,0,0,1-.1,1.7,5,5,0,0,1-.5,1.3,2.8,2.8,0,0,1-1,.9,3.9,3.9,0,0,1-1.4.4V61.9a1.3,1.3,0,0,0,.8-.3,1,1,0,0,0,.4-.5,1.3,1.3,0,0,0,.3-.8,2.5,2.5,0,0,0,.1-.8,2.2,2.2,0,0,0-.1-.8,1.4,1.4,0,0,0-.2-.7.9.9,0,0,0-.3-.5.7.7,0,0,0-.6-.2.9.9,0,0,0-.7.3,2.8,2.8,0,0,0-.5.8l-.3,1a5.9,5.9,0,0,1-.2,1.3l-.3,1.2a11.7,11.7,0,0,1-.5,1.1,3,3,0,0,1-.8.8,2.1,2.1,0,0,1-1.2.3,3.3,3.3,0,0,1-1.4-.4,2.4,2.4,0,0,1-.9-1.1,3.4,3.4,0,0,1-.5-1.4,7.8,7.8,0,0,1-.2-1.6,8.8,8.8,0,0,1,.2-1.6,5.8,5.8,0,0,1,.5-1.4,4.7,4.7,0,0,1,1-1l1.6-.4v1.7a1.2,1.2,0,0,0-.9.3"/><rect class="cls-10" x="512.6" y="66" width="9.7" height="1.71"/><path class="cls-10" d="M522.3,74.8h-1.4v-2h-6.5l-.2.2c-.1.1-.1.2-.1.4a1.5,1.5,0,0,0-.1.7v.7h-1.4V73.5c0-.4.1-.8.1-1.1l.3-.8.6-.4h7.3V69.3h1.4v1.8h2.9v1.7h-2.9Z"/><path class="cls-10" d="M513.2,84.1a5.5,5.5,0,0,1-.8-2.9,4.8,4.8,0,0,1,.4-2.2,4,4,0,0,1,1-1.5,3.9,3.9,0,0,1,1.6-1,7.1,7.1,0,0,1,2.1-.3,6.4,6.4,0,0,1,2,.3,5.7,5.7,0,0,1,1.6,1.1,4,4,0,0,1,1,1.5,4.2,4.2,0,0,1,.4,2,5.2,5.2,0,0,1-.5,2.3,3.8,3.8,0,0,1-1.4,1.4,3.7,3.7,0,0,1-1.8.8l-1.8.2V78h-1.2l-1,.6a2.1,2.1,0,0,0-.7,1.1,3.2,3.2,0,0,0-.3,1.4,3.5,3.5,0,0,0,.5,1.8,1.9,1.9,0,0,0,1.4.9v1.7a3.8,3.8,0,0,1-2.5-1.5m6.2-.4.9-.6a3.3,3.3,0,0,0,.6-1,3.6,3.6,0,0,0,.2-1.1,3.7,3.7,0,0,0-.2-1.2l-.6-1-.9-.6-1-.2v6l1-.3"/><path class="cls-10" d="M522.3,89.3H521a2.6,2.6,0,0,1,1.1,1.4,4.2,4.2,0,0,1,.4,2,4.6,4.6,0,0,1-.4,2.1,4,4,0,0,1-1.1,1.4,5.1,5.1,0,0,1-1.6.9,6.4,6.4,0,0,1-2,.3l-1.9-.2a4.4,4.4,0,0,1-2.7-2.4,4.6,4.6,0,0,1-.4-2.1,3.1,3.1,0,0,1,.1-.9,2.9,2.9,0,0,1,.2-.9,4.1,4.1,0,0,1,.5-.9l.7-.7h-5V87.6h13.4Zm-3.4,6.1,1.1-.5a3.9,3.9,0,0,0,.8-1,3.7,3.7,0,0,0,.3-1.5,2.9,2.9,0,0,0-.3-1.4,2.1,2.1,0,0,0-.8-1,3.4,3.4,0,0,0-1.2-.6l-1.3-.2-1.4.2a2.7,2.7,0,0,0-1.2.6,3.9,3.9,0,0,0-.8,1,3.9,3.9,0,0,0,0,3,2.8,2.8,0,0,0,.9,1,3.3,3.3,0,0,0,1.2.5h1.3a3.4,3.4,0,0,0,1.4-.2"/><path class="cls-10" d="M519.4,99.2a4.4,4.4,0,0,1,1.6,1,3.8,3.8,0,0,1,1.1,1.6,4.6,4.6,0,0,1,.4,2.1,4.8,4.8,0,0,1-.4,2.2,4.6,4.6,0,0,1-1.1,1.6,6.2,6.2,0,0,1-1.6,1,6,6,0,0,1-2,.3,5.8,5.8,0,0,1-1.9-.3,6.2,6.2,0,0,1-1.6-1,4.6,4.6,0,0,1-1.1-1.6,4.8,4.8,0,0,1-.4-2.2,4.6,4.6,0,0,1,.4-2.1,3.8,3.8,0,0,1,1.1-1.6,4.4,4.4,0,0,1,1.6-1,5.8,5.8,0,0,1,1.9-.3,6,6,0,0,1,2,.3m-3.5,1.8a3.4,3.4,0,0,0-1.2.6,4.1,4.1,0,0,0-.7,1.1,4,4,0,0,0,0,2.5,3.6,3.6,0,0,0,.7,1,2.4,2.4,0,0,0,1.2.7,3.7,3.7,0,0,0,1.5.3,4.1,4.1,0,0,0,1.6-.3,2.1,2.1,0,0,0,1.1-.7,2.5,2.5,0,0,0,.8-1,4,4,0,0,0,0-2.5,2.8,2.8,0,0,0-.8-1.1,2.9,2.9,0,0,0-1.1-.6,4.1,4.1,0,0,0-1.6-.3,3.7,3.7,0,0,0-1.5.3"/><rect class="cls-10" x="512.6" y="111.1" width="9.7" height="1.71"/><path class="cls-10" d="M522.3,117.1h-1.6a3.6,3.6,0,0,1,1.8,3.4,4.3,4.3,0,0,1-.3,1.7,2.1,2.1,0,0,1-.7,1.1,2.4,2.4,0,0,1-1.1.6l-1.4.2h-6.4v-1.7h6.6a1.8,1.8,0,0,0,1.4-.6,2.5,2.5,0,0,0,.5-1.6,5.1,5.1,0,0,0-.2-1.3,3.6,3.6,0,0,0-.7-1l-.9-.5a2.5,2.5,0,0,0-1.2-.2h-5.5v-1.7h9.7Z"/><path class="cls-10" d="M522.3,131.1h-1.4V129h-6.5a.2.2,0,0,0-.2.2c-.1,0-.1.2-.1.3a1.5,1.5,0,0,0-.1.7v.8h-1.4v-1.3c0-.5.1-.8.1-1.2l.3-.7.6-.5h7.3v-1.8h1.4v1.8h2.9V129h-2.9Z"/><path class="cls-10" d="M518.6,32.3l-1.5,1.6-4.5,5,2,2.1a.7.7,0,0,0,.9,0l1.6-2h0l2-2.1a.7.7,0,0,1,.9,0l5.3,5.7,2.4-2.6L522,33.9l-1.4-1.6a1.3,1.3,0,0,0-2,0"/><path class="cls-10" d="M516,49.3l1.5-1.6,4.5-5-2-2.1a.7.7,0,0,0-.9,0l-1.6,2h0l-2,2.1a.7.7,0,0,1-.9,0L509.3,39l-2.4,2.6,5.7,6.1,1.4,1.6a1.3,1.3,0,0,0,2,0"/><path class="cls-10" d="M524.2,67.9a1,1,0,0,1-.9-1,.9.9,0,0,1,.9-1,.9.9,0,0,1,1,1,1,1,0,0,1-1,1"/><path class="cls-10" d="M524.2,112.9a.9.9,0,0,1-.9-.9.9.9,0,0,1,.9-1,.9.9,0,0,1,1,1,.9.9,0,0,1-1,.9"/></g><rect class="cls-12" x="504.7" y="145.1" width="26.4" height="155.16"/><text class="cls-13" transform="translate(510.7 196.6) rotate(90)">REACT</text><text class="cls-14" transform="translate(511.9 374.2) rotate(90)">YOUR FIRST WEEK WITH REACT</text><rect class="cls-10" x="19.3" y="516" width="448.2" height="107.21"/><rect class="cls-15" x="19.3" y="516" width="448.2" height="107.21"/><text class="cls-16" transform="translate(32.8 539.8)">SITEPOINT <tspan class="cls-17" x="53.8" y="0">B</tspan><tspan class="cls-18" x="60.6" y="0">OOKS</tspan></text><text class="cls-19" transform="translate(32.8 556.8)"><tspan xml:space="preserve">     Advocate </tspan><tspan class="cls-20" x="60" y="0">best</tspan><tspan class="cls-21" x="80.1" y="0"> </tspan><tspan class="cls-22" x="82.4" y="0">pr</tspan><tspan class="cls-21" x="92.1" y="0">a</tspan><tspan class="cls-22" x="97.6" y="0">ctic</tspan><tspan class="cls-23" x="114.1" y="0">e </tspan><tspan x="122.5" y="0" xml:space="preserve">techniques  </tspan></text><text class="cls-19" transform="translate(32.8 571.8)"><tspan xml:space="preserve">     Lead you through </tspan><tspan class="cls-22" x="98.2" y="0">pr</tspan><tspan class="cls-21" x="107.9" y="0">a</tspan><tspan class="cls-22" x="113.4" y="0">ctic</tspan><tspan class="cls-21" x="129.9" y="0">a</tspan><tspan class="cls-24" x="135.4" y="0">l </tspan><tspan x="140.8" y="0" xml:space="preserve">examples  </tspan></text><text class="cls-19" transform="translate(32.8 587.2)"><tspan class="cls-25" xml:space="preserve">     </tspan><tspan class="cls-26" x="11.6" y="0">P</tspan><tspan class="cls-25" x="17.7" y="0">ro</tspan><tspan class="cls-26" x="26.9" y="0">v</tspan><tspan class="cls-27" x="32.1" y="0">id</tspan><tspan class="cls-26" x="40.3" y="0">e </tspan><tspan class="cls-21" x="48.4" y="0">w</tspan><tspan class="cls-22" x="56.5" y="0">or</tspan><tspan class="cls-21" x="66" y="0">k</tspan><tspan class="cls-22" x="71.2" y="0">i</tspan><tspan class="cls-28" x="73.5" y="0">n</tspan><tspan class="cls-20" x="79.2" y="0">g</tspan><tspan class="cls-28" x="85.3" y="0"> </tspan><tspan class="cls-22" x="87.6" y="0">co</tspan><tspan class="cls-28" x="98.8" y="0">d</tspan><tspan class="cls-24" x="105.1" y="0">e</tspan><tspan x="111" y="0"> </tspan><tspan class="cls-25" x="113.5" y="0">for </tspan><tspan class="cls-26" x="128.5" y="0">y</tspan><tspan class="cls-27" x="133.7" y="0">our </tspan><tspan class="cls-26" x="151.2" y="0">we</tspan><tspan class="cls-27" x="165" y="0">bsi</tspan><tspan class="cls-26" x="177.8" y="0">t</tspan><tspan x="181.1" y="0">e</tspan></text><text class="cls-19" transform="translate(32.8 601.8)"><tspan xml:space="preserve">     Make learning </tspan><tspan class="cls-22" x="81.2" y="0">e</tspan><tspan class="cls-21" x="87" y="0">a</tspan><tspan class="cls-22" x="92.5" y="0">s</tspan><tspan class="cls-24" x="97.3" y="0">y </tspan><tspan x="105.2" y="0">and fun</tspan></text><path class="cls-29" d="M31.9,552.3l2.4,4.3a31.6,31.6,0,0,1,2.7-4c1.5-1.9,3.6-4,3.6-4a18.8,18.8,0,0,0-4,2.7,12.9,12.9,0,0,0-2.1,2.6Z"/><path class="cls-29" d="M31.9,567.1l2.4,4.3a31.6,31.6,0,0,1,2.7-4,45.6,45.6,0,0,1,3.6-4.1,24.2,24.2,0,0,0-4,2.7,12.9,12.9,0,0,0-2.1,2.6Z"/><path class="cls-29" d="M31.9,582.1l2.4,4.3a31.6,31.6,0,0,1,2.7-4,45.6,45.6,0,0,1,3.6-4.1,24.2,24.2,0,0,0-4,2.7,12.9,12.9,0,0,0-2.1,2.6Z"/><path class="cls-29" d="M31.9,597.1l2.4,4.3a31.6,31.6,0,0,1,2.7-4,45.6,45.6,0,0,1,3.6-4.1,21.1,21.1,0,0,0-4,2.8,14.8,14.8,0,0,0-2.1,2.5Z"/><rect class="cls-12" y="36.8" width="467.6" height="107.01"/><text class="cls-30" transform="translate(412.1 525.2)">WEB DESIGN </text><text class="cls-31" transform="translate(9.5 634.8)">Visit us on the <tspan class="cls-32" x="61" y="0">W</tspan><tspan x="70.3" y="0">eb at sitepoint.com or for sales and support email books @sitepoint.com </tspan></text><text class="cls-33" transform="translate(164.8 634.8)"> </text><text class="cls-30" transform="translate(330.6 619.3)">USD $29.95 </text><text class="cls-30" transform="translate(416.3 619.3)">CAD $39.95</text><text class="cls-34" transform="translate(29.7 345.7)"> </text><text class="cls-34" transform="translate(29.7 362.7)"> </text><text class="cls-34" transform="translate(334.9 362.7)"> </text><text class="cls-34" transform="translate(23.8 379.7)"> </text><text class="cls-34" transform="translate(29.7 396.7)"> </text><text class="cls-34" transform="translate(29.6 413.7)"> </text><text class="cls-34" transform="translate(29.7 430.7)"> </text><text class="cls-35" transform="translate(23.8 444.7)"> </text><text class="cls-36" transform="translate(24.2 108.1)"><tspan class="cls-37"><tspan class="cls-38">E</tspan><tspan class="cls-39" x="13.3" y="0">V</tspan><tspan class="cls-38" x="28.1" y="0">ER</tspan><tspan class="cls-40" x="56.1" y="0">YTHIN</tspan><tspan class="cls-38" x="122.6" y="0">G</tspan><tspan class="cls-40" x="138.3" y="0" xml:space="preserve"> A D</tspan><tspan class="cls-38" x="178.7" y="0">ES</tspan><tspan class="cls-39" x="205.4" y="0">I</tspan><tspan class="cls-38" x="210.8" y="0">G</tspan><tspan class="cls-40" x="226.6" y="0">N</tspan><tspan class="cls-38" x="243.6" y="0">ER</tspan><tspan class="cls-39" x="271.6" y="0" xml:space="preserve"> N</tspan><tspan class="cls-38" x="293.4" y="0">EE</tspan><tspan class="cls-40" x="320" y="0">D</tspan><tspan class="cls-38" x="335.8" y="0">S</tspan><tspan x="349.3" y="0">,</tspan></tspan><tspan class="cls-41"><tspan class="cls-38" x="0" y="28.1">R</tspan><tspan class="cls-40" x="14.6" y="28.1">I</tspan><tspan class="cls-42" x="19.8" y="28.1">G</tspan><tspan class="cls-39" x="35.6" y="28.1">HT O</tspan><tspan class="cls-38" x="87.1" y="28.1">U</tspan><tspan class="cls-40" x="103.8" y="28.1">T OF TH</tspan><tspan class="cls-38" x="186.2" y="28.1">E</tspan><tspan class="cls-40" x="199.6" y="28.1"> </tspan><tspan class="cls-43" x="204.5" y="28.1">B</tspan><tspan class="cls-44" x="219.5" y="28.1">O</tspan><tspan x="235.7" y="28.1">X</tspan><tspan class="cls-24" x="250.6" y="28.1"> </tspan></tspan></text><rect class="cls-10" x="345.9" y="166.3" width="122.1" height="332.67"/><rect class="cls-45" x="345.9" y="166.3" width="122.1" height="19.92"/><text class="cls-46" transform="translate(366.4 180.5)"><tspan class="cls-47">Y</tspan><tspan x="6.9" y="0">OUR </tspan><tspan class="cls-47" x="33.4" y="0">A</tspan><tspan x="40.6" y="0">UTHOR </tspan></text><rect class="cls-48" x="360.4" y="201.1" width="95.3" height="107.04"/><text class="cls-49" transform="translate(359.5 326.3)">Contributing Editor</text><text class="cls-50" transform="translate(360 342.6)">Author Bio</text><text class="cls-51" transform="translate(631.9 202.6)">YOUR FIRST<tspan x="-19.7" y="56">WEEK WITH </tspan><tspan x="170.1" y="112">REACT</tspan></text><text class="cls-52" transform="translate(677.3 608.3)">NOW IS THE TIME TO REACT!</text><text class="cls-53" transform="translate(112 25.3)">SUPPORTING FILES <tspan class="cls-54" x="114.5" y="0">A</tspan><tspan class="cls-55" x="122.4" y="0">V</tspan><tspan class="cls-56" x="130.3" y="0">AILABLE FOR DOWN</tspan><tspan class="cls-57" x="248.5" y="0">L</tspan><tspan x="255.2" y="0">OAD</tspan></text><text class="cls-58" transform="translate(360.7 353.8)"><tspan class="cls-59">L</tspan><tspan x="4.6" y="0">orem ipsum do</tspan><tspan class="cls-60" x="61.1" y="0">l</tspan><tspan x="63.3" y="0">o</tspan><tspan class="cls-61" x="68.1" y="0">r</tspan><tspan x="70.8" y="0" xml:space="preserve"> sit </tspan><tspan x="0" y="9.6">am</tspan><tspan class="cls-62" x="11.8" y="9.6">e</tspan><tspan x="16.5" y="9.6">t, </tspan><tspan class="cls-63" x="23" y="9.6">c</tspan><tspan x="27.4" y="9.6">onsect</tspan><tspan class="cls-62" x="52.7" y="9.6">e</tspan><tspan x="57.4" y="9.6">tue</tspan><tspan class="cls-61" x="69.8" y="9.6">r</tspan><tspan x="72.5" y="9.6"> </tspan><tspan x="0" y="19.2">adipiscing elit, sed diam </tspan><tspan x="0" y="28.8">nonumm</tspan><tspan class="cls-64" x="33.7" y="28.8">y</tspan><tspan x="37.8" y="28.8" xml:space="preserve"> nibh euismod </tspan><tspan x="0" y="38.4">tincidu</tspan><tspan class="cls-65" x="25.4" y="38.4">n</tspan><tspan x="30" y="38.4">t </tspan><tspan class="cls-60" x="34.8" y="38.4">u</tspan><tspan x="39.6" y="38.4">t laore</tspan><tspan class="cls-66" x="63.5" y="38.4">e</tspan><tspan class="cls-67" x="68.2" y="38.4">t </tspan><tspan x="0" y="48">do</tspan><tspan class="cls-60" x="9.8" y="48">l</tspan><tspan x="12.1" y="48">ore magna aliquam </tspan></text><text class="cls-68" transform="translate(50.7 194.7)">SitePoint is a hub for web developers to share their <tspan x="0" y="13.2">passion for building incredible Internet things. Founded </tspan><tspan x="0" y="26.4">by Mark Harbottle and Matt Mickiewicz in 1999, Site</tspan><tspan x="254.6" y="26.4">-</tspan><tspan x="0" y="39.6">Point is for web professionals, by web professionals: </tspan><tspan x="0" y="52.8">developers, designers, programmers, product creators </tspan><tspan x="0" y="66">and entrepreneurs alike.</tspan><tspan x="0" y="92.4">We love our rich and engaged community and our </tspan><tspan x="0" y="105.6">contributors, who are truly leaders in their field</tspan></text><ellipse class="cls-69" cx="644.3" cy="552.8" rx="39.9" ry="4.8"/><ellipse class="cls-69" cx="739.7" cy="552.8" rx="39.9" ry="4.8"/><ellipse class="cls-69" cx="832.3" cy="552.8" rx="39.9" ry="4.8"/><ellipse class="cls-69" cx="921.4" cy="552.8" rx="39.9" ry="4.8"/><g id="planes"><polygon class="cls-10" points="775 432 739.8 394.8 704 432.6 704 432.7 704.3 493.2 704.3 492.8 775.3 493 775.5 493.2 775 431.9 775 432"/><text class="cls-70" transform="translate(782.1 394.1)"> </text><text class="cls-70" transform="translate(782.1 404)"> </text><text class="cls-70" transform="translate(782.1 413.9)"> </text><text class="cls-70" transform="translate(862.8 423.8)"> </text><rect class="cls-71" x="796.7" y="433.2" width="71.5" height="60.44"/><polygon class="cls-71" points="796.7 433.2 832.5 471.1 868.2 433.2 796.7 433.2"/><line class="cls-72" x1="832.6" y1="493.7" x2="832.5" y2="471.1"/><line class="cls-72" x1="832.6" y1="433.2" x2="868.4" y2="471"/><line class="cls-72" x1="832.3" y1="433.3" x2="796.7" y2="470.5"/><polygon class="cls-71" points="885.7 470.9 921.5 433 957.2 470.9 885.7 470.9"/><rect class="cls-71" x="885.7" y="471" width="71.5" height="22.67"/><line class="cls-72" x1="921.4" y1="493.5" x2="921.5" y2="470.9"/><rect class="cls-71" x="608.7" y="394.6" width="71.7" height="98.65"/><line class="cls-72" x1="644.7" y1="493.1" x2="644.7" y2="394.6"/><line class="cls-73" x1="739.5" y1="395.2" x2="703.7" y2="433"/><line class="cls-73" x1="739.5" y1="395.2" x2="774.7" y2="432.4"/><line class="cls-73" x1="703.7" y1="433.1" x2="704" y2="493.5"/><line class="cls-73" x1="774.8" y1="432.6" x2="775.2" y2="493.9"/><line class="cls-73" x1="775.1" y1="493.7" x2="704.1" y2="493.5"/><line class="cls-72" x1="739.9" y1="493.7" x2="739.7" y2="432.8"/><line class="cls-73" x1="774.4" y1="432.8" x2="703.6" y2="432.9"/><line class="cls-74" x1="738.5" y1="398.5" x2="738.5" y2="433.3"/><line class="cls-72" x1="644.6" y1="394.6" x2="680.4" y2="432.4"/><line class="cls-72" x1="644.3" y1="394.7" x2="608.7" y2="432"/><line class="cls-74" x1="740.8" y1="398.5" x2="740.8" y2="433"/><line class="cls-74" x1="831.2" y1="434.5" x2="831.2" y2="469.3"/><line class="cls-74" x1="833.5" y1="434.5" x2="833.5" y2="469"/><line class="cls-74" x1="920.4" y1="435.3" x2="920.4" y2="470"/><line class="cls-74" x1="922.7" y1="435.3" x2="922.7" y2="469.8"/></g></svg>