<svg xmlns="http://www.w3.org/2000/svg" xmlns:xlink="http://www.w3.org/1999/xlink" viewBox="0 0 503 659"><defs><style>.cls-1,.cls-11,.cls-12,.cls-3{fill:none;}.cls-2{fill:#59aabd;}.cls-3{stroke:#eb008b;stroke-linecap:round;stroke-width:1.5px;}.cls-11,.cls-12,.cls-13,.cls-3{stroke-linejoin:round;}.cls-4{clip-path:url(#clip-path);}.cls-10,.cls-13,.cls-5,.cls-6,.cls-8{fill:#fff;}.cls-6{font-size:100px;font-family:Raleway-Medium, Raleway;}.cls-7{font-size:36px;}.cls-8{font-size:15px;font-family:Raleway-SemiBold, Raleway;font-weight:700;letter-spacing:0em;}.cls-9{fill:#353847;opacity:0.48;}.cls-10,.cls-11{stroke:#000;}.cls-10{stroke-miterlimit:10;}.cls-11,.cls-12,.cls-13{stroke-width:0.72px;}.cls-12,.cls-13{stroke:#99c;stroke-dasharray:2.88 2.16;}.cls-14{fill:#accaf1;}.cls-15{fill:#e6ffff;}.cls-16{fill:#b4daf6;}.cls-17{fill:#96c6ed;}.cls-18{fill:#bed9fa;}</style><clipPath id="clip-path"><rect class="cls-1" x="353.4" y="49.8" width="131.9" height="28.83"/></clipPath></defs><title>react-tools-cover</title><g id="Layer_2" data-name="Layer 2"><g id="Layer_1-2" data-name="Layer 1"><rect class="cls-2" width="503" height="659"/><path class="cls-3" d="M6.3,648.8h0"/><g class="cls-4"><path class="cls-5" d="M387.2,67.7a3.4,3.4,0,0,0,.9.8,3.4,3.4,0,0,0,1.2.4l1.3.2h1.1l1.1-.3a1.6,1.6,0,0,0,.8-.6,1.7,1.7,0,0,0,.3-1,1.5,1.5,0,0,0-.6-1.3,4.4,4.4,0,0,0-1.7-.7l-2.2-.5-2.1-.6a4.3,4.3,0,0,1-1.7-1.2,2.6,2.6,0,0,1-.7-2,3.1,3.1,0,0,1,.5-1.7,3.4,3.4,0,0,1,1.2-1.2l1.6-.7,1.9-.2,2.1.2a4.8,4.8,0,0,1,1.8.7,3,3,0,0,1,1.2,1.3,3.9,3.9,0,0,1,.5,2h-2.2a3.6,3.6,0,0,0-.4-1.1l-.7-.7-1-.3h-2.2l-.9.3a1.8,1.8,0,0,0-.7.5,1.2,1.2,0,0,0-.3.9,1.5,1.5,0,0,0,.4.9,2.4,2.4,0,0,0,1.1.6l1.4.4,1.6.4,1.7.4a6.1,6.1,0,0,1,1.4.7,2.9,2.9,0,0,1,1.1,1.1,3.5,3.5,0,0,1,.3,1.6,3.1,3.1,0,0,1-.5,2,4,4,0,0,1-1.3,1.3l-1.9.7-2.1.2a7.8,7.8,0,0,1-2.2-.3,6.2,6.2,0,0,1-1.9-.7,4.1,4.1,0,0,1-1.2-1.4,4.7,4.7,0,0,1-.6-2.1h2.3a2.1,2.1,0,0,0,.3,1.2"/><rect class="cls-5" x="399" y="57.3" width="2.3" height="13.35"/><path class="cls-5" d="M410.7,57.3v2h-2.8v8.3a1.3,1.3,0,0,0,.1.6l.2.3a1.1,1.1,0,0,0,.6.2h1.9v2h-3.3l-1-.5-.6-.8a6.6,6.6,0,0,1-.1-1.5V59.3h-2.4v-2h2.4v-4h2.2v4Z"/><path class="cls-5" d="M422.9,69.8a6.9,6.9,0,0,1-6.7.6,6,6,0,0,1-2.1-1.4,7.8,7.8,0,0,1-1.2-2.2,12.6,12.6,0,0,1-.5-2.8,7.8,7.8,0,0,1,.5-2.8,5.5,5.5,0,0,1,1.4-2.2,6.2,6.2,0,0,1,2-1.5,7.5,7.5,0,0,1,2.6-.5,5.9,5.9,0,0,1,3.1.8,5.5,5.5,0,0,1,1.9,1.8,7.7,7.7,0,0,1,1,2.5,12.2,12.2,0,0,1,.3,2.6H414.8a8.8,8.8,0,0,0,.2,1.6,4.7,4.7,0,0,0,.8,1.4,5,5,0,0,0,1.4,1,5.3,5.3,0,0,0,1.9.4,4.3,4.3,0,0,0,2.4-.7,3.1,3.1,0,0,0,1.2-2h2.2a4.9,4.9,0,0,1-2,3.4m-.5-8.5a3.6,3.6,0,0,0-.8-1.2,3.8,3.8,0,0,0-1.3-.9l-1.5-.2-1.6.2a2.7,2.7,0,0,0-1.2.9,2.5,2.5,0,0,0-.8,1.2,5.7,5.7,0,0,0-.4,1.4h8a5.7,5.7,0,0,0-.4-1.4"/><path class="cls-5" d="M429.9,57.3v1.8h0a4,4,0,0,1,1.8-1.6,7.5,7.5,0,0,1,2.6-.5,6.1,6.1,0,0,1,2.8.6,7.5,7.5,0,0,1,2,1.5,8.4,8.4,0,0,1,1.2,2.3,9,9,0,0,1,0,5.3,6.6,6.6,0,0,1-1.2,2.2,4.3,4.3,0,0,1-2,1.5,6,6,0,0,1-2.7.6h-1.2l-1.2-.4a3.4,3.4,0,0,1-1.2-.6l-.9-1h0v6.9h-2.3V57.3Zm8.1,4.8a4,4,0,0,0-.8-1.6,2.8,2.8,0,0,0-1.3-1.1A3.8,3.8,0,0,0,434,59a4.2,4.2,0,0,0-2,.4,6.9,6.9,0,0,0-1.3,1.1,8.7,8.7,0,0,0-.7,1.7,11,11,0,0,0-.2,1.8,12.3,12.3,0,0,0,.2,1.9,4.8,4.8,0,0,0,.8,1.6,3.5,3.5,0,0,0,1.3,1.1,4.2,4.2,0,0,0,2,.5,3.9,3.9,0,0,0,2-.5,6.9,6.9,0,0,0,1.3-1.1,4.9,4.9,0,0,0,.6-1.7,6.3,6.3,0,0,0,.3-1.9,5.7,5.7,0,0,0-.3-1.8"/><path class="cls-5" d="M443,61.3a6.5,6.5,0,0,1,1.3-2.3,6,6,0,0,1,2.1-1.4,6.5,6.5,0,0,1,2.9-.6,6.8,6.8,0,0,1,2.9.6,6,6,0,0,1,2.1,1.4,8.6,8.6,0,0,1,1.3,2.3A11,11,0,0,1,456,64a12.6,12.6,0,0,1-.4,2.8,9.8,9.8,0,0,1-1.3,2.2,6,6,0,0,1-2.1,1.4,6.8,6.8,0,0,1-2.9.6,6.5,6.5,0,0,1-2.9-.6,6,6,0,0,1-2.1-1.4,7.1,7.1,0,0,1-1.3-2.2,8.6,8.6,0,0,1-.4-2.8,7.7,7.7,0,0,1,.4-2.7m2.3,4.9a3.8,3.8,0,0,0,.9,1.5,3.3,3.3,0,0,0,1.4,1,4.7,4.7,0,0,0,1.7.4,5.3,5.3,0,0,0,1.7-.4,3.1,3.1,0,0,0,1.3-1,3.8,3.8,0,0,0,.9-1.5,5.4,5.4,0,0,0,.4-2.2,4.6,4.6,0,0,0-.4-2.1,3.5,3.5,0,0,0-.9-1.6,3.1,3.1,0,0,0-1.3-1,5.1,5.1,0,0,0-1.7-.3,4.7,4.7,0,0,0-1.7.3,3.3,3.3,0,0,0-1.4,1,3.5,3.5,0,0,0-.9,1.6A6.6,6.6,0,0,0,445,64a7.8,7.8,0,0,0,.3,2.2"/><rect class="cls-5" x="458.8" y="57.3" width="2.3" height="13.35"/><path class="cls-5" d="M466.7,57.3v2.1h.1a4.7,4.7,0,0,1,4.4-2.4,5,5,0,0,1,2.3.4,4,4,0,0,1,1.5,1,3.6,3.6,0,0,1,.8,1.5,12.3,12.3,0,0,1,.2,2v8.8h-2.3V61.6a2.5,2.5,0,0,0-.7-1.9,2.8,2.8,0,0,0-2.1-.7,4.8,4.8,0,0,0-1.8.3,3.6,3.6,0,0,0-1.2.8,3.9,3.9,0,0,0-.8,1.4,4.1,4.1,0,0,0-.3,1.6v7.6h-2.2V57.3Z"/><path class="cls-5" d="M485.3,57.3v2h-2.7v8.9l.3.3.5.2h1.9v2h-3.2a1.9,1.9,0,0,1-1-.5,1.6,1.6,0,0,1-.6-.8,6.1,6.1,0,0,1-.2-1.5V59.3h-2.4v-2h2.4v-4h2.3v4Z"/><path class="cls-5" d="M354.2,62.4l2.1,2.1,6.6,6.2,2.9-2.8a1.1,1.1,0,0,0-.1-1.2l-2.6-2.3h0l-2.8-2.7a1.1,1.1,0,0,1,0-1.3l7.6-7.3-3.4-3.3-8.2,7.9-2.1,2a1.8,1.8,0,0,0,0,2.7"/><path class="cls-5" d="M376.7,66l-2.1-2.1L368,57.8l-2.8,2.7a.9.9,0,0,0,0,1.2l2.6,2.3h0l2.8,2.7a.9.9,0,0,1,0,1.3l-7.5,7.3,3.4,3.3,8.1-7.8,2.1-2.1a1.8,1.8,0,0,0,0-2.7"/><path class="cls-5" d="M401.4,54.6a1.3,1.3,0,1,1-1.3-1.3,1.3,1.3,0,0,1,1.3,1.3"/><path class="cls-5" d="M461.2,54.6a1.3,1.3,0,1,1-1.3-1.3,1.3,1.3,0,0,1,1.3,1.3"/></g><text class="cls-6" transform="translate(158.2 231.3)">REACT<tspan class="cls-7"><tspan x="-51.8" y="45">TOOLS &amp; RESOURCES</tspan></tspan></text><text class="cls-8" transform="translate(167.6 603.7)">A REACT COLLECTION</text><ellipse class="cls-9" cx="138.6" cy="518" rx="50.7" ry="4"/><ellipse class="cls-9" cx="276.9" cy="518.6" rx="50.2" ry="4"/><ellipse class="cls-9" cx="395.7" cy="517.3" rx="29.4" ry="4.3"/><polygon class="cls-10" points="366.6 437.1 392.7 412.5 424.9 412.5 425.1 412.5 424.9 463.3 366.4 463.3 366.6 437.1"/><path d="M379.9,449.1l-12.6-12.2.2-.3,12.6,12.3Zm-.7.7-12.6-12.2.4-.5,12.6,12.3Zm-.5.5-12.6-12.2.2-.2,12.6,12.2Z"/><line class="cls-11" x1="366.3" y1="449.3" x2="379.2" y2="449.7"/><line class="cls-11" x1="379.6" y1="449.5" x2="379.7" y2="463.5"/><path d="M379.3,449l-12.9,13.8-.2-.2L379,448.8Zm.7.7-12.8,13.8-.5-.4,12.8-13.8Zm.5.5L367.7,464l-.3-.3,12.9-13.8Z"/><line class="cls-12" x1="424.8" y1="449.5" x2="379.7" y2="449.5"/><line class="cls-12" x1="424.9" y1="417.7" x2="389.2" y2="415.9"/><polygon class="cls-10" points="324.2 431.7 324.5 464 223.8 464 223.5 431.8 247.6 405.9 299.6 405.9 324.2 431.7"/><path d="M274.2,432V406.2h.7V432Zm-1.3,0V406.2h.6V432Z"/><line class="cls-11" x1="289.7" y1="416.3" x2="324.1" y2="431.5"/><line class="cls-11" x1="257.7" y1="416.5" x2="223.8" y2="431.8"/><line class="cls-13" x1="273.8" y1="463.6" x2="273.6" y2="431.8"/><line class="cls-11" x1="273.8" y1="432.1" x2="299.7" y2="406.1"/><line class="cls-11" x1="273.8" y1="432.2" x2="247.9" y2="406.4"/><path class="cls-14" d="M285.1,404.9a7.5,7.5,0,0,1-1.5,0h-1.5l.3-.2c.2-.3.3-.7.5-1a3.8,3.8,0,0,1,1-1.2,3.6,3.6,0,0,1,2.7-.3h1.6a2.6,2.6,0,0,0-2.2,1.4l-.6,1.2Z"/><path class="cls-5" d="M293.9,407.8h-2.3c-.1,0-.5.1-.6,0s-.3-.8-.3-1l-.6-1.5a13,13,0,0,0-1.6-3.1,4.9,4.9,0,0,0-3.3-2.1h3c2.2.1,3.7,2.4,4.5,4.2A11.2,11.2,0,0,1,293.9,407.8Z"/><polygon class="cls-15" points="291.3 412.7 292.9 405.8 295.9 405.9 294.3 412.8 291.3 412.7"/><path class="cls-16" d="M291.3,412.7l-3.3-2.2,2.1-2-.6-1.8a11.1,11.1,0,0,0-1.6-2.9,4.1,4.1,0,0,0-2.8-1.8c-1,0-2,.8-2.7,2.5s-.4.4-.6.2h0a2.3,2.3,0,0,1-.1-1.4c1-2.1,2.1-3.2,3.5-3.2a4.6,4.6,0,0,1,3.2,2,13.6,13.6,0,0,1,1.8,3.4,10.5,10.5,0,0,1,.7,2.3l2-1.9Z"/><path class="cls-14" d="M259.6,404.3h3c-.2,0-.3-.1-.3-.2l-.5-1a4.1,4.1,0,0,0-1.1-1.2,3.6,3.6,0,0,0-2.7-.3h-1.5a2.6,2.6,0,0,1,2.1,1.4c.3.4.4.8.7,1.2S259.4,404.3,259.6,404.3Z"/><path class="cls-5" d="M250.7,407.2h3c.1-.1.2-.8.3-1a8.8,8.8,0,0,1,.5-1.5,13.4,13.4,0,0,1,1.7-3.1,4.7,4.7,0,0,1,3.2-2.1h-3c-2.2.1-3.6,2.4-4.5,4.2A20.6,20.6,0,0,0,250.7,407.2Z"/><polygon class="cls-15" points="253.3 412.1 251.7 405.2 248.7 405.3 250.3 412.2 253.3 412.1"/><path class="cls-16" d="M253.3,412.1l3.4-2.2-2.1-2a7.6,7.6,0,0,1,.6-1.8,8.8,8.8,0,0,1,1.6-2.9,3.7,3.7,0,0,1,2.7-1.8c1.1,0,2,.8,2.7,2.5s.4.4.6.2h.1a1.7,1.7,0,0,0,0-1.4c-.9-2.1-2.1-3.2-3.4-3.2a4.8,4.8,0,0,0-3.3,2,17.9,17.9,0,0,0-1.8,3.4,21.9,21.9,0,0,0-.7,2.3l-2-1.9Z"/><path class="cls-5" d="M350.1,445l-.8.4-1.1.7a.7.7,0,0,1,1.2.7l-.4.9a6.5,6.5,0,0,0-.4,1.3,4.8,4.8,0,0,0,.1,2.4c.9,2.7,3.7,4.5,6.9,5H357c.3,0,.9.1,1.2-.1s.6-.3.8-.4l.8-.4a10.8,10.8,0,0,1-7.6-2.3,6.4,6.4,0,0,1-2-3.2,3.8,3.8,0,0,1,0-2.1,8,8,0,0,1,.7-2C351.1,445.4,350.8,444.9,350.1,445Z"/><polygon class="cls-17" points="362.8 456.4 357.8 461.9 359.4 461 364.3 455.5 362.8 456.4"/><polygon class="cls-15" points="358.5 452.5 362.8 456.4 364.3 455.5 360 451.6 358.5 452.5"/><path class="cls-16" d="M356.2,456.4a11.3,11.3,0,0,1-3.7-1,8,8,0,0,1-3.5-3.3,5.8,5.8,0,0,1,.3-5.1.8.8,0,0,0-.2-1h-.2a1,1,0,0,0-1.2.6,7.2,7.2,0,0,0-.4,6.5,8.7,8.7,0,0,0,4,3.8,14.3,14.3,0,0,0,4.3,1.2h2.5l-.3,3.8,5-5.5-4.3-3.9-.3,4Z"/><polyline class="cls-10" points="189.3 462.8 189.2 430.7 138.9 377.8 88.5 430.9 88.6 462.6 189.3 463"/><path d="M139.2,408.4v-3.5h.7v3.5Zm-1.4,0v-3.5h.7v3.5Z"/><line class="cls-11" x1="139.5" y1="408.4" x2="189.1" y2="430.4"/><line class="cls-11" x1="138.1" y1="408.4" x2="88.8" y2="430.8"/><line class="cls-12" x1="138.8" y1="462.6" x2="138.8" y2="378.1"/><line class="cls-11" x1="154.6" y1="415.1" x2="164.8" y2="405.1"/><line class="cls-11" x1="123" y1="415.2" x2="113" y2="405.4"/><line class="cls-11" x1="164.5" y1="404.8" x2="113.1" y2="405.1"/><path class="cls-14" d="M178.8,397.1c-2.5-2.3-6.8-2.1-9.7-1a4.7,4.7,0,0,0-2.3,1.6c-.6.8-1.6,1-1.7.5s.3,2.7,1.4,2.6.9-.8,1.3-1.1c3-2.6,8.7-3,11.6-.2Z"/><polygon class="cls-18" points="183.1 394.5 181 398.9 181.7 401.2 183.7 396.8 183.1 394.5"/><polygon class="cls-14" points="181 398.9 175.6 399 176.2 401.4 181.7 401.2 181 398.9"/><path class="cls-5" d="M180.1,396.3a5.1,5.1,0,0,0-1.3-.9,10.4,10.4,0,0,0-3.1-1.1,11.5,11.5,0,0,0-5.2.3,9.2,9.2,0,0,0-5.2,3.1c-.3.3-.2.6.1.7a.1.1,0,0,1,.1.1,1.1,1.1,0,0,0,.9-.4,8.2,8.2,0,0,1,4.1-2.5,11.4,11.4,0,0,1,4.5-.1,6.2,6.2,0,0,1,2.7.9,4.1,4.1,0,0,1,1.1.7l-3.2,1.9H181l2.1-4.4Z"/><path class="cls-14" d="M99,396.5c2.5-2.3,6.7-2.1,9.7-1a4.7,4.7,0,0,1,2.3,1.6c.6.8,1.5,1,1.6.4-.1,1-.3,2.8-1.3,2.7s-1-.8-1.3-1.1c-3-2.6-8.7-3-11.6-.2Z"/><polygon class="cls-18" points="94.7 393.9 96.7 398.3 96.1 400.6 94 396.2 94.7 393.9"/><polygon class="cls-14" points="96.7 398.3 102.1 398.4 101.5 400.8 96.1 400.6 96.7 398.3"/><path class="cls-5" d="M97.7,395.7a3.8,3.8,0,0,1,1.3-.9,9.5,9.5,0,0,1,3.1-1.1,11.5,11.5,0,0,1,5.2.3,9.9,9.9,0,0,1,5.2,3.1c.2.3.2.6-.1.7h-.1a1,1,0,0,1-1-.3,8.2,8.2,0,0,0-4.1-2.5,10.9,10.9,0,0,0-4.4-.1,5.8,5.8,0,0,0-2.7.9,4.1,4.1,0,0,0-1.1.7l3.1,1.9H96.7l-2-4.4Z"/></g></g></svg>