<svg xmlns="http://www.w3.org/2000/svg" xmlns:xlink="http://www.w3.org/1999/xlink" viewBox="0 0 503 659"><defs><style>.cls-1,.cls-9{fill:none;}.cls-2{fill:#59aabd;}.cls-3{clip-path:url(#clip-path);}.cls-10,.cls-4,.cls-5,.cls-6,.cls-8{fill:#fff;}.cls-5{font-size:67px;font-family:Raleway-Medium, Raleway;}.cls-6{font-size:15px;font-family:Raleway-SemiBold, Raleway;font-weight:700;letter-spacing:0em;}.cls-7{fill:#353847;opacity:0.48;}.cls-8,.cls-9{stroke:#000;}.cls-10,.cls-8,.cls-9{stroke-linejoin:round;stroke-width:0.72px;}.cls-10{stroke:#99c;stroke-dasharray:2.88 2.16;}.cls-11{fill:#b4daf6;}.cls-12{fill:#e6ffff;}.cls-13{fill:#b2d8f5;}.cls-14{fill:#a7cfee;}.cls-15{fill:#d1f3ff;}.cls-16{fill:#accaf1;}.cls-17{fill:#bed9fa;}.cls-18{fill:#d3ebff;}</style><clipPath id="clip-path"><rect class="cls-1" x="356.5" y="58.7" width="131.9" height="28.83"/></clipPath></defs><title>React-projects-cover</title><g id="Layer_2" data-name="Layer 2"><g id="Layer_1-2" data-name="Layer 1"><rect class="cls-2" width="503" height="659"/><g class="cls-3"><path class="cls-4" d="M390.3,76.6a3,3,0,0,0,.8.8,3.4,3.4,0,0,0,1.2.4l1.3.2h1.1l1.1-.3a1.2,1.2,0,0,0,.8-.6,1.3,1.3,0,0,0,.4-1,1.6,1.6,0,0,0-.7-1.3,4.4,4.4,0,0,0-1.7-.7l-2.1-.5-2.2-.6a5.2,5.2,0,0,1-1.7-1.2,2.8,2.8,0,0,1-.7-2,3.1,3.1,0,0,1,.5-1.7,3.4,3.4,0,0,1,1.2-1.2l1.7-.7,1.8-.2,2.2.2a5.1,5.1,0,0,1,1.7.7,3,3,0,0,1,1.2,1.3,3.9,3.9,0,0,1,.5,2h-2.2a3.6,3.6,0,0,0-.4-1.1c-.2-.2-.4-.5-.7-.6l-1-.4h-2.1l-1,.3a1.8,1.8,0,0,0-.7.5,1.2,1.2,0,0,0-.3.9,1.2,1.2,0,0,0,.5.9,1.7,1.7,0,0,0,1,.6l1.5.4,1.6.4,1.6.4,1.5.7a5.2,5.2,0,0,1,1,1.1,3.4,3.4,0,0,1,.4,1.6,3.2,3.2,0,0,1-.6,2,4,4,0,0,1-1.3,1.3l-1.9.7-2.1.2a7.8,7.8,0,0,1-2.2-.3,4.8,4.8,0,0,1-1.8-.7,3.5,3.5,0,0,1-1.3-1.4,6.5,6.5,0,0,1-.6-2.1h2.3a1.6,1.6,0,0,0,.4,1.2"/><rect class="cls-4" x="402" y="66.2" width="2.3" height="13.35"/><path class="cls-4" d="M413.7,66.2v2h-2.8v8.3c0,.2.1.4.1.6s.1.3.3.3l.5.2h1.9v2h-3.3l-1-.5a2.2,2.2,0,0,1-.5-.8,3.4,3.4,0,0,1-.2-1.5V68.2h-2.4v-2h2.4v-4h2.2v4Z"/><path class="cls-4" d="M426,78.7a6.5,6.5,0,0,1-3.9,1.2,8.4,8.4,0,0,1-2.9-.5,6.2,6.2,0,0,1-2-1.5,6.1,6.1,0,0,1-1.3-2.2,8.6,8.6,0,0,1-.4-2.8,8.2,8.2,0,0,1,.4-2.8,6.9,6.9,0,0,1,1.4-2.2,5.7,5.7,0,0,1,4.6-2,5.7,5.7,0,0,1,3.1.8,4.7,4.7,0,0,1,1.9,1.8A8,8,0,0,1,428,71a24.6,24.6,0,0,1,.2,2.6H417.9a2.9,2.9,0,0,0,.2,1.6,3.1,3.1,0,0,0,.7,1.4,4.5,4.5,0,0,0,1.4,1,5.9,5.9,0,0,0,2,.4,4.2,4.2,0,0,0,2.3-.7,3.1,3.1,0,0,0,1.2-2H428a5.3,5.3,0,0,1-2,3.4m-.6-8.5a3.6,3.6,0,0,0-.8-1.2,4.2,4.2,0,0,0-4.4-.8,2.5,2.5,0,0,0-1.2.8,3.6,3.6,0,0,0-.8,1.2,3.2,3.2,0,0,0-.3,1.4h7.9a5.7,5.7,0,0,0-.4-1.4"/><path class="cls-4" d="M432.9,66.2V68h0a4,4,0,0,1,1.8-1.6,7.5,7.5,0,0,1,2.6-.5,6.1,6.1,0,0,1,2.8.6,6.2,6.2,0,0,1,2,1.5,8.4,8.4,0,0,1,1.2,2.3,7.5,7.5,0,0,1,.4,2.6,7.7,7.7,0,0,1-.4,2.7,5.2,5.2,0,0,1-1.2,2.2,4.5,4.5,0,0,1-1.9,1.5,6.4,6.4,0,0,1-2.8.6h-1.1l-1.3-.4a2.4,2.4,0,0,1-1.1-.6l-1-1h0v6.9h-2.3V66.2ZM441,71a3.9,3.9,0,0,0-.7-1.6,3,3,0,0,0-1.4-1.1,4.7,4.7,0,0,0-3.8,0,3.6,3.6,0,0,0-1.3,1.1,5.3,5.3,0,0,0-.8,1.7,8.7,8.7,0,0,0,0,3.7,8,8,0,0,0,.8,1.6,3.5,3.5,0,0,0,1.3,1.1,4.6,4.6,0,0,0,2,.5,3.9,3.9,0,0,0,2-.5,4.7,4.7,0,0,0,1.3-1.1,8.7,8.7,0,0,0,.7-1.7,12.3,12.3,0,0,0,.2-1.9A5.7,5.7,0,0,0,441,71"/><path class="cls-4" d="M446,70.2a5.4,5.4,0,0,1,1.3-2.2,5.1,5.1,0,0,1,2.1-1.5,6.8,6.8,0,0,1,2.9-.6,6.5,6.5,0,0,1,2.9.6,5.1,5.1,0,0,1,2.1,1.5,5.4,5.4,0,0,1,1.3,2.2,7.7,7.7,0,0,1,.4,2.7,8.6,8.6,0,0,1-.4,2.8,7.1,7.1,0,0,1-1.3,2.2,6,6,0,0,1-2.1,1.4,6.5,6.5,0,0,1-2.9.6,6.8,6.8,0,0,1-2.9-.6,6,6,0,0,1-2.1-1.4,7.1,7.1,0,0,1-1.3-2.2,12.6,12.6,0,0,1-.4-2.8,11,11,0,0,1,.4-2.7m2.3,4.9a8.6,8.6,0,0,0,1,1.6,3.8,3.8,0,0,0,1.3.9,3.8,3.8,0,0,0,3.4,0,3,3,0,0,0,1.3-.9,8.6,8.6,0,0,0,1-1.6,7.3,7.3,0,0,0,.3-2.2,6.6,6.6,0,0,0-.3-2.1,4.9,4.9,0,0,0-1-1.6,2.6,2.6,0,0,0-1.3-1,5,5,0,0,0-3.4,0,3.1,3.1,0,0,0-1.3,1,4.9,4.9,0,0,0-1,1.6,6.6,6.6,0,0,0-.3,2.1,7.3,7.3,0,0,0,.3,2.2"/><rect class="cls-4" x="461.8" y="66.2" width="2.3" height="13.35"/><path class="cls-4" d="M469.7,66.2v2.2h.1a4.7,4.7,0,0,1,4.5-2.5,4.8,4.8,0,0,1,2.2.4,4,4,0,0,1,1.5,1,3.6,3.6,0,0,1,.8,1.5,12.3,12.3,0,0,1,.2,2v8.8h-2.2V70.5a2.6,2.6,0,0,0-.8-1.9,2.8,2.8,0,0,0-2.1-.7,5.7,5.7,0,0,0-1.8.3,3.6,3.6,0,0,0-1.2.8,3.9,3.9,0,0,0-.8,1.4,4.1,4.1,0,0,0-.2,1.6v7.6h-2.3V66.2Z"/><path class="cls-4" d="M488.3,66.2v2h-2.7v8.3a1.3,1.3,0,0,0,.1.6c0,.1.1.3.2.3l.5.2h1.9v2h-3.2a2.3,2.3,0,0,1-1-.5,1.6,1.6,0,0,1-.6-.8,6.1,6.1,0,0,1-.2-1.5V68.2H481v-2h2.3v-4h2.3v4Z"/><path class="cls-4" d="M357.2,71.4l2.1,2,6.6,6.2,2.9-2.8a.9.9,0,0,0-.1-1.2l-2.6-2.3h0l-2.8-2.7a.9.9,0,0,1,.1-1.3l7.5-7.3-3.4-3.3-8.2,7.9-2.1,2a2.1,2.1,0,0,0,0,2.8"/><path class="cls-4" d="M379.8,74.9l-2.1-2.1-6.6-6.1-2.9,2.7a.9.9,0,0,0,.1,1.2l2.6,2.3h0l2.8,2.7a.9.9,0,0,1-.1,1.3l-7.5,7.3,3.4,3.3,8.2-7.8,2.1-2.1a2,2,0,0,0,0-2.7"/><path class="cls-4" d="M404.5,63.5a1.3,1.3,0,0,1-1.4,1.3,1.3,1.3,0,0,1,0-2.6,1.3,1.3,0,0,1,1.4,1.3"/><path class="cls-4" d="M464.3,63.5a1.3,1.3,0,0,1-1.4,1.3,1.3,1.3,0,1,1,0-2.6,1.3,1.3,0,0,1,1.4,1.3"/></g><text class="cls-5" transform="translate(68.6 200.6)">5 PRACTICAL<tspan x="202.7" y="56">REACT</tspan><tspan x="82.3" y="112">PROJECTS</tspan></text><text class="cls-6" transform="translate(184.4 607.3)">5 WAYS TO REACT</text><ellipse class="cls-7" cx="137.6" cy="530.1" rx="43.9" ry="5.3"/><ellipse class="cls-7" cx="253.5" cy="530.1" rx="43.9" ry="5.3"/><ellipse class="cls-7" cx="368.4" cy="530.1" rx="43.9" ry="5.3"/><polyline class="cls-8" points="93.3 462.5 138.4 414.7 183.5 462.5 183.7 462.6 183.9 491.6 93 491.4 93.1 491.7 92.9 462.7"/><path d="M138.6,462.8V415.2h.6v47.6Zm-1.2,0V415.2h.6v47.6Z"/><line class="cls-9" x1="138.3" y1="442.4" x2="183.6" y2="462.4"/><line class="cls-9" x1="138.4" y1="442.3" x2="93.1" y2="462.7"/><line class="cls-10" x1="138.3" y1="491.3" x2="138" y2="462.7"/><line class="cls-9" x1="138.3" y1="462.9" x2="153.1" y2="448.9"/><line class="cls-9" x1="138.3" y1="463" x2="123.1" y2="449.3"/><polygon class="cls-8" points="367.7 414.7 413 462.6 413.2 491.5 413.2 491.6 322.3 491.4 322.4 491.7 322.2 462.7 367.7 414.7"/><path d="M367.8,462.8l.2-47.6h.6l-.2,47.6Zm-1.2,0,.2-47.6h.6l-.2,47.6Z"/><line class="cls-10" x1="381.8" y1="448.7" x2="413" y2="462.6"/><line class="cls-10" x1="353" y1="448.7" x2="322.4" y2="462.6"/><line class="cls-10" x1="367.4" y1="491.2" x2="367.3" y2="462.6"/><line class="cls-9" x1="367.4" y1="462.9" x2="390.9" y2="439.5"/><line class="cls-9" x1="367.4" y1="462.9" x2="344.2" y2="439.6"/><line class="cls-9" x1="413" y1="462.6" x2="322.4" y2="463"/><path class="cls-11" d="M166.9,426.6h-3.1a.5.5,0,0,0,.4-.2l.4-1a4.3,4.3,0,0,1,1.1-1.2,4.2,4.2,0,0,1,2.7-.4H170a2.6,2.6,0,0,0-2.2,1.4c-.3.3-.4.8-.7,1.2A.2.2,0,0,1,166.9,426.6Z"/><path class="cls-11" d="M175.7,429.5h-2.9c-.2-.1-.3-.8-.4-1.1a5.8,5.8,0,0,0-.5-1.4,11.4,11.4,0,0,0-1.6-3.1,4.9,4.9,0,0,0-3.3-2.1h3c2.2.1,3.7,2.4,4.5,4.2A14.5,14.5,0,0,1,175.7,429.5Z"/><polygon class="cls-11" points="173.1 434.4 174.7 427.5 177.7 427.6 176.1 434.5 173.1 434.4"/><path class="cls-12" d="M173.1,434.4l-3.3-2.3,2.1-1.9-.6-1.9a12.1,12.1,0,0,0-1.6-2.8,4.1,4.1,0,0,0-2.8-1.8c-1.1,0-2,.8-2.7,2.5s-.4.4-.6.2h-.1a3.3,3.3,0,0,1,0-1.4c.9-2.1,2.1-3.2,3.5-3.2a4.6,4.6,0,0,1,3.2,2,12,12,0,0,1,1.8,3.4,10.5,10.5,0,0,1,.7,2.3l2-1.9Z"/><polygon class="cls-13" points="388.6 423.5 390.9 424 390.9 420.1 388.5 419.6 388.6 423.5"/><polygon class="cls-13" points="388.7 429.3 391 429.7 391 425.7 388.6 425.2 388.7 429.3"/><path class="cls-14" d="M391,425.7h1.7l-2.3-.5h-1.8Z"/><path class="cls-13" d="M392.8,424.4c3.1,2.2,3.8,6.4,3,9.9-.1.3-.2,1.3-.8,1.2l1.3.2a4.2,4.2,0,0,0,1.2.3,1.5,1.5,0,0,0,.5-.6,6.7,6.7,0,0,0,.4-2.4c.3-3.4-1-7.3-4.3-8.7a18.7,18.7,0,0,0-3.4-.8A6.7,6.7,0,0,1,392.8,424.4Z"/><path class="cls-15" d="M385.8,425.4l2.9,3.9v-4.1h1.3a4,4,0,0,1,2.3.8,6.8,6.8,0,0,1,2.3,3.2,9.1,9.1,0,0,1,.2,5.2c-.1.5,0,.9.2,1a.1.1,0,0,0,.1.1c.2.1.6-.2.7-.7a11.3,11.3,0,0,0-.2-6.6,7.6,7.6,0,0,0-2.7-3.8,6.3,6.3,0,0,0-2.7-1h-1.5v-3.9Z"/><path class="cls-11" d="M107.9,426.2h3c-.1,0-.2-.2-.3-.3l-.5-.9a3.2,3.2,0,0,0-1-1.3,5.2,5.2,0,0,0-2.8-.3h-1.5a3,3,0,0,1,2.2,1.4,13.4,13.4,0,0,0,.6,1.2Z"/><path class="cls-11" d="M99,429h2.4c.1,0,.5.1.6,0s.3-.8.3-1l.6-1.5a10.8,10.8,0,0,1,1.6-3c.8-1,1.9-2.1,3.2-2.1h-2.9c-2.2.1-3.7,2.4-4.5,4.1A14.8,14.8,0,0,0,99,429Z"/><polygon class="cls-11" points="101.7 433.9 100.1 427 97 427.1 98.7 434 101.7 433.9"/><path class="cls-12" d="M101.7,433.9l3.3-2.2-2.1-2c.2-.6.4-1.3.6-1.8a11.5,11.5,0,0,1,1.6-2.9,4.3,4.3,0,0,1,2.8-1.8c1,0,2,.9,2.7,2.5s.4.5.6.2h0a1.7,1.7,0,0,0,0-1.4c-.9-2.1-2.1-3.1-3.4-3.1a4.3,4.3,0,0,0-3.2,2,12.9,12.9,0,0,0-1.8,3.3,12.5,12.5,0,0,0-.7,2.3l-2-1.9Z"/><polygon class="cls-13" points="344.9 423.2 342.5 423.7 342.6 419.8 344.9 419.3 344.9 423.2"/><polygon class="cls-13" points="344.7 428.9 342.4 429.4 342.5 425.4 344.8 424.9 344.7 428.9"/><path class="cls-14" d="M342.5,425.4h-1.8l2.4-.5h1.7Z"/><path class="cls-13" d="M340.6,424.1c-3.1,2.2-3.7,6.4-3,9.9.1.3.3,1.3.8,1.2l-1.3.2-1.1.3a1.2,1.2,0,0,1-.6-.6,24,24,0,0,1-.4-2.4c-.2-3.4,1.1-7.3,4.3-8.7a20.9,20.9,0,0,1,3.4-.8A6.4,6.4,0,0,0,340.6,424.1Z"/><path class="cls-15" d="M347.6,425.1l-2.9,3.8v-4h-1.2a5.9,5.9,0,0,0-2.4.9,7.5,7.5,0,0,0-2.3,3.2,8.4,8.4,0,0,0-.1,5.2c.1.5,0,.9-.2,1h-.1c-.3.1-.6-.3-.8-.7a11.3,11.3,0,0,1,.2-6.6,8.3,8.3,0,0,1,2.7-3.8,6.3,6.3,0,0,1,2.7-1h1.6v-3.9Z"/><path class="cls-16" d="M292.7,384.2c-2.4-1.9-6.7-1.8-9.7-.8a4.8,4.8,0,0,0-2.3,1.4c-.6.6-1.5.8-1.6.3s.3,2.4,1.4,2.3.9-.7,1.3-1c2.9-2.2,8.6-2.5,11.6-.2Z"/><polygon class="cls-17" points="297.1 382 295 385.7 295.6 387.7 297.7 384 297.1 382"/><polygon class="cls-16" points="295 385.7 289.6 385.9 290.2 387.9 295.6 387.7 295 385.7"/><path class="cls-18" d="M294.1,383.5l-1.4-.8a8.8,8.8,0,0,0-3.1-.8,15.2,15.2,0,0,0-5.2.1,10.8,10.8,0,0,0-5.2,2.7c-.2.3-.2.5.2.6h.1a1.4,1.4,0,0,0,.9-.3,7,7,0,0,1,4.1-2.1,13.5,13.5,0,0,1,4.5-.2,10.7,10.7,0,0,1,2.7.8l1,.6-3.1,1.7,5.4-.2,2.1-3.7Z"/><polygon class="cls-8" points="300.1 412.3 300 412.2 300 412.1 299.9 412.1 254.2 363.7 209.2 412.1 209.1 412.1 209.1 491.7 300 491.7 300 412.3 300.1 412.3"/><line class="cls-10" x1="254.9" y1="490.8" x2="254.2" y2="364.8"/><line class="cls-10" x1="231.1" y1="388.1" x2="300" y2="459.5"/><line class="cls-10" x1="277.2" y1="388" x2="209.4" y2="459.7"/><line class="cls-10" x1="279.2" y1="411.9" x2="299.9" y2="459.2"/><line class="cls-10" x1="229.2" y1="412.1" x2="209.4" y2="459.5"/><line class="cls-10" x1="299.7" y1="411.9" x2="209.2" y2="412.1"/><line class="cls-10" x1="222.6" y1="398" x2="229" y2="412.2"/><line class="cls-10" x1="285.7" y1="397.1" x2="279.1" y2="411.5"/><path class="cls-16" d="M215,383.7c2.4-1.9,6.7-1.8,9.6-.8a5.4,5.4,0,0,1,2.4,1.3c.5.7,1.5.9,1.6.4s-.3,2.4-1.4,2.2-.9-.6-1.3-.9c-3-2.2-8.6-2.5-11.6-.2Z"/><polygon class="cls-17" points="210.6 381.5 212.7 385.2 212 387.2 210 383.5 210.6 381.5"/><polygon class="cls-16" points="212.7 385.2 218.1 385.4 217.5 387.4 212 387.2 212.7 385.2"/><path class="cls-18" d="M213.6,383l1.3-.8a13.5,13.5,0,0,1,3.2-.9,18.3,18.3,0,0,1,5.2.2,10.8,10.8,0,0,1,5.2,2.7c.2.2.2.5-.2.6h-.1a1.1,1.1,0,0,1-.9-.4,7.6,7.6,0,0,0-4.1-2,11.3,11.3,0,0,0-4.5-.2,7.7,7.7,0,0,0-2.7.8l-1,.6,3.1,1.7-5.4-.2-2.1-3.7Z"/></g></g></svg>