<svg xmlns="http://www.w3.org/2000/svg" xmlns:xlink="http://www.w3.org/1999/xlink" viewBox="0 0 503 659"><defs><style>.cls-1,.cls-18{fill:none;}.cls-2{fill:#59aabd;}.cls-3{clip-path:url(#clip-path);}.cls-14,.cls-15,.cls-16,.cls-17,.cls-4,.cls-5,.cls-7{fill:#fff;}.cls-5{font-size:36px;font-family:Raleway-Medium, Raleway;}.cls-6{font-size:100px;}.cls-7{font-size:15px;font-family:Raleway-SemiBold, Raleway;font-weight:700;letter-spacing:0em;}.cls-8{fill:#353847;opacity:0.48;}.cls-9{fill:#b4daf6;}.cls-10{fill:#e6ffff;}.cls-11{fill:#b2d8f5;}.cls-12{fill:#a7cfee;}.cls-13{fill:#d1f3ff;}.cls-14,.cls-16{stroke:#000;}.cls-14{stroke-miterlimit:10;}.cls-15{font-size:10.71px;font-family:ArialMT, Arial;}.cls-16,.cls-17,.cls-18{stroke-linejoin:round;stroke-width:0.72px;}.cls-17,.cls-18{stroke:#99c;stroke-dasharray:2.88 2.16;}</style><clipPath id="clip-path"><rect class="cls-1" x="357.7" y="53.7" width="131.9" height="28.83"/></clipPath></defs><title>React-101-cover</title><g id="Layer_2" data-name="Layer 2"><g id="Layer_1-2" data-name="Layer 1"><rect class="cls-2" width="503" height="659"/><g class="cls-3"><path class="cls-4" d="M391.5,71.6a1.8,1.8,0,0,0,.9.8l1.1.5H396a2.3,2.3,0,0,0,1.1-.3,1.6,1.6,0,0,0,.8-.6,1.5,1.5,0,0,0,.3-1,1.4,1.4,0,0,0-.7-1.3,5.9,5.9,0,0,0-1.6-.7l-2.2-.5a7.9,7.9,0,0,1-2.2-.6,4.6,4.6,0,0,1-1.6-1.1,3.3,3.3,0,0,1-.2-3.8,4.6,4.6,0,0,1,1.2-1.2,3.8,3.8,0,0,1,1.6-.6,5.5,5.5,0,0,1,1.8-.2,7.8,7.8,0,0,1,2.2.2,5.5,5.5,0,0,1,1.8.6,3.7,3.7,0,0,1,1.2,1.3,5.9,5.9,0,0,1,.5,2h-2.3a1.7,1.7,0,0,0-.3-1,2.7,2.7,0,0,0-.8-.7l-1-.4h-2.1l-.9.2c-.3.2-.6.3-.7.6a1.1,1.1,0,0,0-.3.8,1,1,0,0,0,.4.9,3,3,0,0,0,1.1.7l1.4.4,1.6.3,1.7.5a5.9,5.9,0,0,1,1.4.6,3.5,3.5,0,0,1,1,1.1,2.9,2.9,0,0,1,.4,1.6,3.9,3.9,0,0,1-.5,2,3.5,3.5,0,0,1-1.4,1.3,4,4,0,0,1-1.9.7l-2.1.2-2.1-.2a5.4,5.4,0,0,1-1.9-.8,4.4,4.4,0,0,1-1.3-1.4,4.6,4.6,0,0,1-.5-2.1h2.3a2.1,2.1,0,0,0,.3,1.2"/><rect class="cls-4" x="403.3" y="61.3" width="2.3" height="13.35"/><path class="cls-4" d="M414.9,61.3v1.9h-2.7v8.3c0,.3,0,.5.1.6a.5.5,0,0,0,.2.4h2.4v1.9h-3.2a2.3,2.3,0,0,1-1-.4,1.5,1.5,0,0,1-.6-.9,6.1,6.1,0,0,1-.2-1.5V63.2h-2.3V61.3h2.3v-4h2.3v4Z"/><path class="cls-4" d="M427.2,73.8a6.7,6.7,0,0,1-3.9,1.1,7.8,7.8,0,0,1-2.8-.5,5.4,5.4,0,0,1-2.1-1.5,5.2,5.2,0,0,1-1.2-2.2,8.2,8.2,0,0,1-.5-2.8,8.7,8.7,0,0,1,.5-2.8,8,8,0,0,1,1.3-2.2,6,6,0,0,1,2.1-1.4,5.5,5.5,0,0,1,2.6-.5,5.6,5.6,0,0,1,3,.7,5.2,5.2,0,0,1,2,1.9,7.2,7.2,0,0,1,1,2.4,7.8,7.8,0,0,1,.2,2.6H419.1a9.9,9.9,0,0,0,.2,1.7,3.9,3.9,0,0,0,.8,1.4,2.8,2.8,0,0,0,1.4.9,4.6,4.6,0,0,0,4.3-.3,2.9,2.9,0,0,0,1.2-1.9h2.2a5.6,5.6,0,0,1-2,3.4m-.5-8.6a2.7,2.7,0,0,0-.9-1.2,3.6,3.6,0,0,0-1.2-.8,4,4,0,0,0-1.5-.3,3.8,3.8,0,0,0-1.6.3,3.6,3.6,0,0,0-1.2.8,2.8,2.8,0,0,0-.8,1.2,4.2,4.2,0,0,0-.4,1.5H427a4,4,0,0,0-.3-1.5"/><path class="cls-4" d="M434.1,61.3v1.8h.1a3,3,0,0,1,1.7-1.6,5.9,5.9,0,0,1,2.7-.5,6.1,6.1,0,0,1,2.8.5,4.9,4.9,0,0,1,1.9,1.6,4.8,4.8,0,0,1,1.2,2.2,7.7,7.7,0,0,1,.4,2.7,12.4,12.4,0,0,1-.3,2.7,7.8,7.8,0,0,1-1.2,2.2,6.2,6.2,0,0,1-2,1.5,7.8,7.8,0,0,1-2.8.5h-1.1l-1.2-.3-1.2-.7a2.2,2.2,0,0,1-.9-1h-.1v6.9h-2.2V61.3Zm8.2,4.7a4.8,4.8,0,0,0-.8-1.6,4.7,4.7,0,0,0-1.3-1.1,4.1,4.1,0,0,0-1.9-.4,4.2,4.2,0,0,0-2,.4,3.7,3.7,0,0,0-1.3,1.2,4.6,4.6,0,0,0-.7,1.6,5.7,5.7,0,0,0-.3,1.8,5.8,5.8,0,0,0,.3,1.9,4.9,4.9,0,0,0,2.1,2.8,4,4,0,0,0,2,.4,5.9,5.9,0,0,0,2-.4,3.4,3.4,0,0,0,1.2-1.2,4.4,4.4,0,0,0,.7-1.7,5.8,5.8,0,0,0,.2-1.9,5.5,5.5,0,0,0-.2-1.8"/><path class="cls-4" d="M447.3,65.2a6.1,6.1,0,0,1,1.3-2.2,5.7,5.7,0,0,1,2.1-1.5,6.5,6.5,0,0,1,2.9-.5,6.8,6.8,0,0,1,2.9.5,6.2,6.2,0,0,1,2,1.5,6.1,6.1,0,0,1,1.3,2.2,8.7,8.7,0,0,1,.5,2.8,8.1,8.1,0,0,1-.5,2.7,6.1,6.1,0,0,1-1.3,2.2,6.2,6.2,0,0,1-2,1.5,8.8,8.8,0,0,1-2.9.5,8.4,8.4,0,0,1-2.9-.5,5.7,5.7,0,0,1-2.1-1.5,6.1,6.1,0,0,1-1.3-2.2,8,8,0,0,1-.4-2.7,8.6,8.6,0,0,1,.4-2.8m2.3,4.9a4.2,4.2,0,0,0,.9,1.6,7.1,7.1,0,0,0,1.4,1,4.7,4.7,0,0,0,1.7.3,4.5,4.5,0,0,0,1.6-.3,7.1,7.1,0,0,0,1.4-1,4.2,4.2,0,0,0,.9-1.6,6.5,6.5,0,0,0,.4-2.1,6.7,6.7,0,0,0-.4-2.2,4.2,4.2,0,0,0-.9-1.6,7.1,7.1,0,0,0-1.4-1,4.5,4.5,0,0,0-1.6-.3,4.7,4.7,0,0,0-1.7.3,7.1,7.1,0,0,0-1.4,1,4.2,4.2,0,0,0-.9,1.6,6.9,6.9,0,0,0-.3,2.2,6.6,6.6,0,0,0,.3,2.1"/><rect class="cls-4" x="463.1" y="61.3" width="2.3" height="13.35"/><path class="cls-4" d="M471,61.3v2.1h0a5,5,0,0,1,4.5-2.4,7.5,7.5,0,0,1,2.3.3,5.6,5.6,0,0,1,1.5,1,4.6,4.6,0,0,1,.7,1.6,5.8,5.8,0,0,1,.3,1.9v8.8H478v-9a2.7,2.7,0,0,0-.7-2,2.8,2.8,0,0,0-2.1-.7,4.8,4.8,0,0,0-1.8.3,3.8,3.8,0,0,0-1.3.9,3.3,3.3,0,0,0-.7,1.3,4.7,4.7,0,0,0-.3,1.7v7.5h-2.3V61.3Z"/><path class="cls-4" d="M489.6,61.3v1.9h-2.8v8.3a3.5,3.5,0,0,0,.1.6c0,.2.1.3.3.4h2.4v1.9h-3.3l-1-.4a1.9,1.9,0,0,1-.5-.9,3.4,3.4,0,0,1-.2-1.5V63.2h-2.4V61.3h2.4v-4h2.2v4Z"/><path class="cls-4" d="M358.5,66.4l2.1,2,6.6,6.2,2.8-2.8a.8.8,0,0,0,0-1.1l-2.6-2.3h0l-2.8-2.7a1,1,0,0,1,0-1.3l7.6-7.3-3.5-3.4-8.1,7.9-2.1,2a1.9,1.9,0,0,0,0,2.8"/><path class="cls-4" d="M381,69.9l-2.1-2-6.6-6.2-2.8,2.8a.8.8,0,0,0,0,1.1l2.6,2.3h0l2.8,2.8a.9.9,0,0,1,0,1.2l-7.6,7.3,3.5,3.4,8.1-7.9,2.1-2a1.9,1.9,0,0,0,0-2.8"/><path class="cls-4" d="M405.7,58.5a1.3,1.3,0,1,1-2.6,0,1.3,1.3,0,0,1,2.6,0"/><path class="cls-4" d="M465.5,58.5a1.3,1.3,0,0,1-2.6,0,1.3,1.3,0,0,1,2.6,0"/></g><text class="cls-5" transform="translate(60.8 181.2)">YOUR FIRST WEEK WITH<tspan class="cls-6"><tspan x="102.4" y="90">REACT</tspan></tspan></text><text class="cls-7" transform="translate(47 609.3)">THE PERFECT INTRODUCTION TO THE POWER OF REACT</text><ellipse class="cls-8" cx="135.9" cy="529.7" rx="43.9" ry="5.3"/><ellipse class="cls-8" cx="252.8" cy="529.7" rx="43.9" ry="5.3"/><ellipse class="cls-8" cx="369.7" cy="529.7" rx="43.9" ry="5.3"/><path class="cls-9" d="M417.5,394.7a7.5,7.5,0,0,1-1.5,0h-1.5c.1,0,.3-.1.3-.2s.3-.7.5-1a4.1,4.1,0,0,1,1.1-1.2,3.6,3.6,0,0,1,2.7-.3h1.5a2.6,2.6,0,0,0-2.1,1.4c-.3.4-.4.8-.7,1.2S417.7,394.7,417.5,394.7Z"/><path class="cls-9" d="M426.4,397.6h-2.3c-.2,0-.5.1-.7,0s-.2-.8-.3-1a8.8,8.8,0,0,0-.5-1.5,13.4,13.4,0,0,0-1.7-3.1,4.9,4.9,0,0,0-3.2-2.1h3c2.1.2,3.6,2.5,4.5,4.2A20.6,20.6,0,0,1,426.4,397.6Z"/><polygon class="cls-9" points="423.8 402.5 425.4 395.6 428.4 395.7 426.8 402.6 423.8 402.5"/><path class="cls-10" d="M423.8,402.5l-3.4-2.2,2.1-2a18.9,18.9,0,0,0-.6-1.8,8.8,8.8,0,0,0-1.6-2.9,3.7,3.7,0,0,0-2.7-1.8c-1.1,0-2,.8-2.7,2.5s-.4.4-.6.2h-.1a1.7,1.7,0,0,1,0-1.4c.9-2.1,2.1-3.2,3.4-3.2a4.8,4.8,0,0,1,3.2,2.1,11.5,11.5,0,0,1,1.9,3.3,21.9,21.9,0,0,1,.7,2.3l2-1.9Z"/><polygon class="cls-11" points="287.5 372.3 289.8 372.8 289.8 368.9 287.4 368.4 287.5 372.3"/><polygon class="cls-11" points="287.6 378 289.9 378.5 289.9 374.4 287.5 374 287.6 378"/><path class="cls-12" d="M289.9,374.4h1.7l-2.3-.5h-1.8Z"/><path class="cls-11" d="M291.7,373.2c3.1,2.2,3.8,6.4,3,9.9-.1.3-.2,1.3-.8,1.1l1.3.3a2.3,2.3,0,0,0,1.2.2c.2,0,.4-.3.5-.5a7.3,7.3,0,0,0,.4-2.5c.3-3.3-1-7.2-4.3-8.6a13,13,0,0,0-3.4-.8A4,4,0,0,1,291.7,373.2Z"/><path class="cls-13" d="M284.7,374.2l2.9,3.8v-4h1.3a5,5,0,0,1,2.3.9,6.3,6.3,0,0,1,2.3,3.2,8.3,8.3,0,0,1,.2,5.2,1.1,1.1,0,0,0,.2,1h.1c.3.1.6-.2.7-.6a11.6,11.6,0,0,0-.2-6.7,6.9,6.9,0,0,0-2.7-3.7,5.2,5.2,0,0,0-2.7-1,2.6,2.6,0,0,0-1.5.1v-3.9Z"/><g id="planes"><polygon class="cls-14" points="299.6 402.7 255.7 356.2 211.1 403.4 211.1 403.5 211.4 478.5 299.9 478.7 299.6 402.5 299.6 402.7"/><text class="cls-15" transform="translate(308.4 355.4)"> </text><text class="cls-15" transform="translate(308.4 367.7)"> </text><text class="cls-15" transform="translate(308.4 380)"> </text><text class="cls-15" transform="translate(409.1 392.4)"> </text><rect class="cls-14" x="326.6" y="403.2" width="89.2" height="76.36"/><polygon class="cls-16" points="327.6 404.1 371.2 451.4 414.9 404.1 327.6 404.1"/><line class="cls-17" x1="371.4" y1="479.6" x2="371.3" y2="451.4"/><line class="cls-17" x1="371.4" y1="404.1" x2="416.1" y2="451.2"/><line class="cls-17" x1="371.1" y1="404.2" x2="326.6" y2="450.7"/><rect class="cls-14" x="92.1" y="356" width="89.4" height="123.06"/><line class="cls-17" x1="137.1" y1="478.9" x2="137.1" y2="356"/><line class="cls-17" x1="255.8" y1="479.6" x2="255.5" y2="403.6"/><line class="cls-17" x1="298.8" y1="403.6" x2="212.3" y2="403.8"/><line class="cls-18" x1="254" y1="360.9" x2="254" y2="404.2"/><line class="cls-17" x1="136.9" y1="356" x2="181.5" y2="403.2"/><line class="cls-17" x1="136.5" y1="356.1" x2="92.1" y2="402.6"/><line class="cls-18" x1="256.9" y1="360.9" x2="256.9" y2="403.9"/><line class="cls-18" x1="369.7" y1="405.8" x2="369.7" y2="449.1"/><line class="cls-18" x1="372.5" y1="405.8" x2="372.5" y2="448.8"/></g><path class="cls-9" d="M324.4,394.4a7.5,7.5,0,0,0,1.5,0h1.5l-.3-.2c-.2-.3-.3-.7-.5-1a3.8,3.8,0,0,0-1-1.2,4.4,4.4,0,0,0-2.8-.3h-1.5a2.7,2.7,0,0,1,2.2,1.4l.6,1.2Z"/><path class="cls-9" d="M315.5,397.3h2.4c.1,0,.5.1.6,0s.3-.8.3-1l.6-1.5a10.8,10.8,0,0,1,1.6-3,4.3,4.3,0,0,1,3.2-2.1h-2.9c-2.2.2-3.7,2.5-4.5,4.2A14.8,14.8,0,0,0,315.5,397.3Z"/><polygon class="cls-9" points="318.2 402.2 316.6 395.3 313.5 395.4 315.2 402.3 318.2 402.2"/><path class="cls-10" d="M318.2,402.2l3.3-2.2-2.1-2,.6-1.8a8.8,8.8,0,0,1,1.6-2.9c.9-1.1,1.8-1.8,2.8-1.8s1.9.8,2.7,2.5.4.4.6.2h0a1.7,1.7,0,0,0,0-1.4c-.9-2.1-2.1-3.2-3.4-3.2a4.8,4.8,0,0,0-3.2,2.1,11.4,11.4,0,0,0-1.8,3.3c-.3.7-.5,1.4-.8,2.3l-1.9-1.9Z"/><polygon class="cls-11" points="222.9 372.6 220.6 373.1 220.6 369.2 223 368.7 222.9 372.6"/><polygon class="cls-11" points="222.8 378.4 220.4 378.8 220.5 374.8 222.9 374.3 222.8 378.4"/><path class="cls-12" d="M220.5,374.8h-1.7l2.3-.5h1.8Z"/><path class="cls-11" d="M218.7,373.5c-3.1,2.2-3.8,6.4-3,9.9.1.3.2,1.3.8,1.2l-1.3.2a5.3,5.3,0,0,1-1.2.3c-.3-.1-.4-.4-.5-.6a7.1,7.1,0,0,1-.4-2.4c-.3-3.4,1-7.3,4.3-8.7a18.7,18.7,0,0,1,3.4-.8A6.7,6.7,0,0,0,218.7,373.5Z"/><path class="cls-13" d="M225.7,374.5l-2.9,3.8v-4h-1.3a5,5,0,0,0-2.3.9,6.8,6.8,0,0,0-2.3,3.2,8.4,8.4,0,0,0-.2,5.2c.1.5,0,.9-.2,1h-.1c-.3.1-.6-.2-.7-.7a11.3,11.3,0,0,1,.2-6.6,7.6,7.6,0,0,1,2.7-3.8,6.4,6.4,0,0,1,2.6-1h1.6v-3.9Z"/></g></g></svg>