<svg xmlns="http://www.w3.org/2000/svg" fill="none" viewBox="0 0 1021 1278">

<defs>
    <linearGradient id="paint2_linear" x1="621.9" x2="604.2" y1="873.4" y2="843.3" gradientUnits="userSpaceOnUse">
      <stop stop-color="#fff"/>
      <stop offset=".4" stop-color="#E6E7E8"/>
      <stop offset=".7" stop-color="#9C9FA1"/>
      <stop offset="1" stop-color="#7D7F82"/>
    </linearGradient>
    <linearGradient id="paint3_linear" x1="332.6" x2="332.6" y1="730" y2="1069.5" gradientUnits="userSpaceOnUse">
      <stop stop-color="#FCFCFC"/>
      <stop offset="1" stop-color="#ABABAB"/>
    </linearGradient>
    <linearGradient id="paint4_linear" x1="332.6" x2="332.6" y1="730" y2="1069.5" gradientUnits="userSpaceOnUse">
      <stop stop-color="#FCFCFC"/>
      <stop offset="1" stop-color="#ABABAB"/>
    </linearGradient>
    <linearGradient id="paint6_linear" x1="320.1" x2="284.9" y1="900.5" y2="892.3" gradientUnits="userSpaceOnUse">
      <stop stop-color="#7B7B7B" stop-opacity=".5"/>
      <stop offset="1" stop-color="#fff" stop-opacity="0"/>
    </linearGradient>
    <linearGradient id="paint7_linear" x1="364.9" x2="364.9" y1="733.9" y2="1036.2" gradientUnits="userSpaceOnUse">
      <stop stop-color="#fff"/>
      <stop offset=".8" stop-color="#9F9F9F"/>
      <stop offset="1" stop-color="#8C8C8C"/>
    </linearGradient>
    <linearGradient id="paint8_linear" x1="418" x2="401.3" y1="948.3" y2="948.9" gradientUnits="userSpaceOnUse">
      <stop stop-color="#7B7B7B" stop-opacity=".5"/>
      <stop offset="1" stop-color="#fff" stop-opacity="0"/>
    </linearGradient>
    <linearGradient id="paint9_linear" x1="364.9" x2="364.9" y1="733.9" y2="1036.2" gradientUnits="userSpaceOnUse">
      <stop stop-color="#fff"/>
      <stop offset=".8" stop-color="#9F9F9F"/>
      <stop offset="1" stop-color="#8C8C8C"/>
    </linearGradient>
    <linearGradient id="paint10_linear" x1="418" x2="401.3" y1="948.3" y2="948.9" gradientUnits="userSpaceOnUse">
      <stop stop-color="#7B7B7B" stop-opacity=".5"/>
      <stop offset="1" stop-color="#fff" stop-opacity="0"/>
    </linearGradient>
    <linearGradient id="paint11_linear" x1="333.1" x2="333.1" y1="731.9" y2="1071.4" gradientUnits="userSpaceOnUse">
      <stop stop-color="#FCFCFC"/>
      <stop offset="1" stop-color="#C1C1C1"/>
    </linearGradient>
    <linearGradient id="paint13_linear" x1="580.9" x2="474.2" y1="879.7" y2="880.3" gradientUnits="userSpaceOnUse">
      <stop stop-color="#fff"/>
      <stop offset=".5" stop-color="#E6E7E8"/>
      <stop offset=".8" stop-color="#9C9FA1"/>
      <stop offset="1" stop-color="#7D7F82"/>
    </linearGradient>
    <linearGradient id="paint14_linear" x1="590.6" x2="544.8" y1="898" y2="898.5" gradientUnits="userSpaceOnUse">
      <stop stop-color="#7D7F82"/>
      <stop offset=".5" stop-color="#fff" stop-opacity="0"/>
    </linearGradient>
    <linearGradient id="paint17_linear" x1="702.3" x2="446.3" y1="948.2" y2="802.3" gradientUnits="userSpaceOnUse">
      <stop stop-color="#fff"/>
      <stop offset=".1" stop-color="#E6E7E8"/>
      <stop offset=".7" stop-color="#9C9FA1"/>
      <stop offset="1" stop-color="#7D7F82"/>
    </linearGradient>
    <linearGradient id="paint19_linear" x1="539" x2="449.1" y1="918.3" y2="887.1" gradientUnits="userSpaceOnUse">
      <stop stop-color="#fff"/>
      <stop offset=".1" stop-color="#E6E7E8"/>
      <stop offset=".5" stop-color="#9C9FA1"/>
      <stop offset=".9" stop-color="#7D7F82"/>
    </linearGradient>
    <linearGradient id="paint20_linear" x1="501" x2="489.1" y1="909.7" y2="928.3" gradientUnits="userSpaceOnUse">
      <stop stop-opacity=".5"/>
      <stop offset="1" stop-opacity="0"/>
    </linearGradient>
    <linearGradient id="paint21_linear" x1="599.2" x2="607.9" y1="905.8" y2="871.3" gradientUnits="userSpaceOnUse">
      <stop offset=".1" stop-color="#fff"/>
      <stop offset=".4" stop-color="#E6E7E8"/>
      <stop offset=".8" stop-color="#9C9FA1"/>
      <stop offset="1" stop-color="#7D7F82"/>
    </linearGradient>
    <linearGradient id="paint22_linear" x1="590.1" x2="484.5" y1="886.5" y2="896.4" gradientUnits="userSpaceOnUse">
      <stop stop-color="#fff"/>
      <stop offset=".3" stop-color="#E6E7E8"/>
      <stop offset=".7" stop-color="#9C9FA1"/>
      <stop offset="1" stop-color="#7D7F82"/>
    </linearGradient>
    <linearGradient id="paint23_linear" x1="607" x2="487.1" y1="898" y2="854.4" gradientUnits="userSpaceOnUse">
      <stop stop-color="#fff"/>
      <stop offset=".1" stop-color="#E6E7E8"/>
      <stop offset=".5" stop-color="#9C9FA1"/>
      <stop offset=".9" stop-color="#7D7F82"/>
    </linearGradient>
    <linearGradient id="paint24_linear" x1="555.9" x2="540.9" y1="886.9" y2="911.5" gradientUnits="userSpaceOnUse">
      <stop stop-opacity=".5"/>
      <stop offset="1" stop-opacity="0"/>
    </linearGradient>
    <linearGradient id="paint25_linear" x1="555.4" x2="547.6" y1="894.7" y2="904.3" gradientUnits="userSpaceOnUse">
      <stop/>
      <stop offset="1" stop-opacity="0"/>
    </linearGradient>
    <linearGradient id="paint26_linear" x1="562.1" x2="548" y1="914.5" y2="875.6" gradientUnits="userSpaceOnUse">
      <stop stop-color="#fff"/>
      <stop offset=".6" stop-color="#E6E7E8"/>
      <stop offset=".8" stop-color="#7D7F82" stop-opacity="0"/>
    </linearGradient>
    <linearGradient id="paint27_linear" x1="377" x2="453.7" y1="904.8" y2="953.5" gradientUnits="userSpaceOnUse">
      <stop stop-color="#fff"/>
      <stop offset=".4" stop-color="#E6E7E8"/>
      <stop offset=".9" stop-color="#9C9FA1"/>
      <stop offset="1" stop-color="#7D7F82"/>
    </linearGradient>
    <linearGradient id="paint28_linear" x1="509.6" x2="417.3" y1="977.7" y2="829.6" gradientUnits="userSpaceOnUse">
      <stop offset=".2" stop-color="#fff"/>
      <stop offset=".5" stop-color="#E6E7E8"/>
      <stop offset=".9" stop-color="#9C9FA1"/>
      <stop offset="1" stop-color="#7D7F82"/>
    </linearGradient>
    <linearGradient id="paint30_linear" x1="531.7" x2="531.7" y1="808.7" y2="865.7" gradientUnits="userSpaceOnUse">
      <stop stop-color="#fff" stop-opacity="0"/>
      <stop offset=".5" stop-color="#fff"/>
      <stop offset=".9" stop-color="#fff" stop-opacity="0"/>
    </linearGradient>
    <linearGradient id="paint31_linear" x1="585.7" x2="527.1" y1="826.6" y2="853.9" gradientUnits="userSpaceOnUse">
      <stop stop-color="#fff"/>
      <stop offset=".4" stop-color="#E6E7E8"/>
      <stop offset=".7" stop-color="#9C9FA1"/>
      <stop offset=".9" stop-color="#7D7F82"/>
    </linearGradient>
    <linearGradient id="paint32_linear" x1="541.4" x2="558.3" y1="838.7" y2="856.2" gradientUnits="userSpaceOnUse">
      <stop stop-opacity=".5"/>
      <stop offset="1" stop-opacity="0"/>
    </linearGradient>
    <linearGradient id="paint33_linear" x1="558.7" x2="585.8" y1="956" y2="944.4" gradientUnits="userSpaceOnUse">
      <stop stop-color="#fff"/>
      <stop offset=".4" stop-color="#fff" stop-opacity="0"/>
    </linearGradient>
    <linearGradient id="paint37_linear" x1="580" x2="560.4" y1="881.3" y2="855.1" gradientUnits="userSpaceOnUse">
      <stop offset=".2" stop-color="#fff"/>
      <stop offset=".5" stop-color="#E6E7E8"/>
      <stop offset=".9" stop-color="#9C9FA1"/>
      <stop offset="1" stop-color="#7D7F82"/>
    </linearGradient>
    <radialGradient id="paint0_radial" cx="0" cy="0" r="1" gradientTransform="matrix(-631.4993 -12.50029 8.60112 -434.51788 324 886)" gradientUnits="userSpaceOnUse">
      <stop stop-color="#5431B9"/>
      <stop offset=".8" stop-color="#322162"/>
    </radialGradient>
    <radialGradient id="paint1_radial" cx="0" cy="0" r="1" gradientTransform="rotate(-90.3 673 339.2) scale(261.253 447.259)" gradientUnits="userSpaceOnUse">
      <stop offset=".1" stop-color="#767676"/>
      <stop offset=".5" stop-color="#9C9FA1"/>
      <stop offset=".6" stop-color="#E5E3E2"/>
      <stop offset="1" stop-color="#fff"/>
    </radialGradient>
    <radialGradient id="paint5_radial" cx="0" cy="0" r="1" gradientTransform="matrix(-8.19555 137.6262 -189.19784 -11.2666 269 787.5)" gradientUnits="userSpaceOnUse">
      <stop stop-color="#fff" stop-opacity="0"/>
      <stop offset=".4" stop-color="#D1D1D1" stop-opacity=".5"/>
      <stop offset="1" stop-color="#A3A3A3"/>
    </radialGradient>
    <radialGradient id="paint12_radial" cx="0" cy="0" r="1" gradientTransform="matrix(-1.4462 176.25807 -65.3687 -.53635 493.7 902)" gradientUnits="userSpaceOnUse">
      <stop offset=".1" stop-opacity=".2"/>
      <stop offset=".7" stop-opacity="0"/>
    </radialGradient>
    <radialGradient id="paint15_radial" cx="0" cy="0" r="1" gradientTransform="rotate(118.4 9.8 559.3) scale(141.041 190.608)" gradientUnits="userSpaceOnUse">
      <stop stop-color="#fff"/>
      <stop offset=".3" stop-color="#E6E7E8"/>
      <stop offset=".7" stop-color="#9C9FA1"/>
      <stop offset="1" stop-color="#7D7F82"/>
    </radialGradient>
    <radialGradient id="paint16_radial" cx="0" cy="0" r="1" gradientTransform="matrix(-30.85397 -30.9057 30.37373 -30.32288 527.9 856.5)" gradientUnits="userSpaceOnUse">
      <stop stop-opacity=".2"/>
      <stop offset="1" stop-opacity="0"/>
    </radialGradient>
    <radialGradient id="paint18_radial" cx="0" cy="0" r="1" gradientTransform="rotate(23.8 -1874.5 1667.5) scale(133.865 198.706)" gradientUnits="userSpaceOnUse">
      <stop stop-opacity=".5"/>
      <stop offset=".8" stop-opacity="0"/>
    </radialGradient>
    <radialGradient id="paint29_radial" cx="0" cy="0" r="1" gradientTransform="matrix(-4.82095 54.08486 -72.2842 -6.44318 534.6 819.8)" gradientUnits="userSpaceOnUse">
      <stop stop-opacity=".6"/>
      <stop offset="1" stop-color="#fff" stop-opacity="0"/>
    </radialGradient>
    <radialGradient id="paint34_radial" cx="0" cy="0" r="1" gradientTransform="matrix(41.4602 0 0 57.109 474.4 915.4)" gradientUnits="userSpaceOnUse">
      <stop offset="0" stop-color="#626973"/>
      <stop offset="1" stop-color="#656B75" stop-opacity="0"/>
    </radialGradient>
    <radialGradient id="paint35_radial" cx="0" cy="0" r="1" gradientTransform="rotate(89.2 -270.2 509.3) scale(62.4868 62.4866)" gradientUnits="userSpaceOnUse">
      <stop stop-color="#fff" stop-opacity="0"/>
      <stop offset=".7" stop-color="#D1D1D1" stop-opacity=".3"/>
      <stop offset="1" stop-color="#A3A3A3" stop-opacity=".4"/>
    </radialGradient>
    <radialGradient id="paint36_radial" cx="0" cy="0" r="1" gradientTransform="rotate(102.9 -202 456.4) scale(6.01879 30.3406)" gradientUnits="userSpaceOnUse">
      <stop stop-color="#fff" stop-opacity="0"/>
      <stop offset=".4" stop-color="#D1D1D1" stop-opacity=".3"/>
      <stop offset="1" stop-color="#A3A3A3" stop-opacity=".4"/>
    </radialGradient>
    <radialGradient id="paint38_radial" cx="0" cy="0" r="1" gradientTransform="rotate(56.6 -512.8 1026.4) scale(35.876 46.3305)" gradientUnits="userSpaceOnUse">
      <stop offset=".3" stop-color="#C4C4C4" stop-opacity="0"/>
      <stop offset="1" stop-color="#5A5A5A" stop-opacity=".4"/>
    </radialGradient>
    <filter id="filter0_f" width="117.9" height="17.7" x="183" y="1053.4" color-interpolation-filters="sRGB" filterUnits="userSpaceOnUse">
      <feFlood flood-opacity="0" result="BackgroundImageFix"/>
      <feBlend in="SourceGraphic" in2="BackgroundImageFix" result="shape"/>
      <feGaussianBlur result="effect1_foregroundBlur" stdDeviation="2"/>
    </filter>
    <filter id="filter1_f" width="60.1" height="17.7" x="234.6" y="1029.7" color-interpolation-filters="sRGB" filterUnits="userSpaceOnUse">
      <feFlood flood-opacity="0" result="BackgroundImageFix"/>
      <feBlend in="SourceGraphic" in2="BackgroundImageFix" result="shape"/>
      <feGaussianBlur result="effect1_foregroundBlur" stdDeviation="2"/>
    </filter>
    <filter id="filter2_f" width="53.3" height="12.8" x="377.8" y="1026.8" color-interpolation-filters="sRGB" filterUnits="userSpaceOnUse">
      <feFlood flood-opacity="0" result="BackgroundImageFix"/>
      <feBlend in="SourceGraphic" in2="BackgroundImageFix" result="shape"/>
      <feGaussianBlur result="effect1_foregroundBlur" stdDeviation="2"/>
    </filter>
    <filter id="filter3_f" width="95.3" height="18.1" x="401.4" y="1055.3" color-interpolation-filters="sRGB" filterUnits="userSpaceOnUse">
      <feFlood flood-opacity="0" result="BackgroundImageFix"/>
      <feBlend in="SourceGraphic" in2="BackgroundImageFix" result="shape"/>
      <feGaussianBlur result="effect1_foregroundBlur" stdDeviation="2"/>
    </filter>
    <filter id="filter4_i" width="28" height="136.2" x="121" y="827.5" color-interpolation-filters="sRGB" filterUnits="userSpaceOnUse">
      <feFlood flood-opacity="0" result="BackgroundImageFix"/>
      <feBlend in="SourceGraphic" in2="BackgroundImageFix" result="shape"/>
      <feColorMatrix in="SourceAlpha" result="hardAlpha" values="0 0 0 0 0 0 0 0 0 0 0 0 0 0 0 0 0 0 127 0"/>
      <feOffset dx="-2" dy="-1"/>
      <feComposite in2="hardAlpha" k2="-1" k3="1" operator="arithmetic"/>
      <feColorMatrix values="0 0 0 0 0 0 0 0 0 0 0 0 0 0 0 0 0 0 0.25 0"/>
      <feBlend in2="shape" result="effect1_innerShadow"/>
    </filter>
    <clipPath id="clip0">
      <rect width="1021" height="1278" fill="#fff"/>
    </clipPath>
  </defs>
  <g clip-path="url(#clip0)">
    <rect width="1021" height="1278" fill="#fff"/>
    <g fill="#fff">
      <path d="M740.5 134c.4.7 1 1.3 1.8 1.6l2.3 1h5c.9 0 1.6-.2 2.3-.6.7-.2 1.2-.6 1.6-1.2a3 3 0 00.7-2 2.8 2.8 0 00-1.5-2.6c-1-.6-2-1.1-3.2-1.4l-4.5-1c-1.6-.2-3-.6-4.5-1.2a9.4 9.4 0 01-3.3-2.2 6.5 6.5 0 01-.4-7.6c.7-1 1.5-1.8 2.5-2.4 1-.7 2-1 3.2-1.2 1.2-.4 2.5-.5 3.7-.4 1.5-.1 3 0 4.5.4 1.3.2 2.5.6 3.7 1.2 1 .6 1.8 1.5 2.4 2.6.6 1.2 1 2.6 1 4h-4.7c0-.7-.2-1.4-.6-2-.4-.6-1-1-1.6-1.4l-2-.8h-4.3l-1.9.4c-.6.4-1.2.6-1.4 1.2a2.2 2.2 0 00-.6 1.6 2 2 0 00.8 1.8c.6.6 1.4 1 2.2 1.4l2.9.8 3.3.6 3.4 1c1 .3 2 .7 2.9 1.2a7 7 0 012 2.2c.6 1 .9 2 .9 3.2 0 1.4-.4 2.8-1 4a7 7 0 01-3 2.6 8.3 8.3 0 01-3.8 1.4l-4.3.4-4.3-.4c-1.4-.3-2.7-.8-3.8-1.6-1.1-.7-2-1.7-2.7-2.8a9 9 0 01-1-4.2h4.7c0 .8.1 1.7.6 2.4zM769.3 113.4h-4.7V140h4.7v-26.7zM788.2 113.4v3.8h-5.5v16.6c0 .6 0 1 .2 1.2a1 1 0 00.4.8h5v3.8h-6.6c-.7-.1-1.4-.4-2-.8a3 3 0 01-1.3-1.8c-.2-1-.4-2-.4-3v-16.8h-4.7v-3.8h4.7v-8h4.7v8h5.5zM813.3 138.4a16.2 16.2 0 01-13.7 1.2 11 11 0 01-4.2-3c-1.2-1.2-2-2.8-2.5-4.4a16.1 16.1 0 010-11.2 16 16 0 012.7-4.4c1.2-1.2 2.6-2.2 4.3-2.8 1.6-.8 3.4-1.1 5.3-1a11.6 11.6 0 0110.2 5.2c1 1.4 1.6 3 2 4.8.4 1.7.6 3.4.4 5.2h-21c0 1.1.2 2.3.4 3.4.3 1 .9 2 1.6 2.8.8.9 1.8 1.5 2.9 1.8a9.5 9.5 0 008.8-.6 5.8 5.8 0 002.4-3.8h4.5c-.4 2.7-1.9 5.2-4 6.8zm-1-17.2c-.4-1-1-1.8-1.8-2.4a7.4 7.4 0 00-2.5-1.6c-1-.4-2-.6-3-.6a7.9 7.9 0 00-5.8 2.2c-.7.6-1.3 1.5-1.6 2.4-.4 1-.7 2-.8 3h16.1c0-1-.2-2-.6-3zM827.4 113.4v3.6h.2a6 6 0 013.5-3.2c1.7-.8 3.6-1.1 5.5-1 2-.1 4 .2 5.7 1a10 10 0 013.9 3.2c1.2 1.2 2 2.7 2.4 4.4.6 1.7.9 3.6.8 5.4 0 1.8-.2 3.6-.6 5.4-.5 1.6-1.4 3-2.4 4.4a12.6 12.6 0 01-4.1 3c-1.8.7-3.8 1-5.7 1h-2.3l-2.4-.6-2.5-1.4a4.4 4.4 0 01-1.8-2h-.2v13.8H823v-37h4.5zm16.7 9.4a9.5 9.5 0 00-1.6-3.2 9.5 9.5 0 00-2.6-2.2 8.5 8.5 0 00-4-.8c-1.3 0-2.7.2-4 .8-1 .6-2 1.4-2.7 2.4-.6 1-1.1 2-1.4 3.2a11.2 11.2 0 000 7.4 9.8 9.8 0 004.3 5.6c1.3.6 2.7.9 4 .8 1.5 0 2.9-.3 4.2-.8 1-.6 1.8-1.4 2.4-2.4.7-1 1.2-2.2 1.4-3.4.4-1.2.5-2.5.4-3.8.1-1.2 0-2.4-.4-3.6zM854.3 121.2c.6-1.7 1.5-3.2 2.7-4.4 1.2-1.3 2.6-2.4 4.3-3 1.8-.8 3.9-1.1 5.9-1 2-.1 4 .2 6 1 1.5.7 2.9 1.7 4 3 1.2 1.2 2 2.7 2.6 4.4a16 16 0 010 11 12.6 12.6 0 01-6.7 7.4 18.3 18.3 0 01-11.8 0 12.2 12.2 0 01-7-7.4c-.5-1.7-.8-3.6-.8-5.4 0-2 .3-3.8.8-5.6zm4.7 9.8c.4 1.2 1 2.3 1.9 3.2.8.8 1.8 1.5 2.8 2a9.7 9.7 0 006.8 0c1-.5 2-1.2 2.8-2 .9-1 1.5-2 1.9-3.2.5-1.4.7-2.8.8-4.2 0-1.5-.3-3-.8-4.4-.4-1.2-1-2.3-1.9-3.2-.8-.8-1.8-1.5-2.8-2a9.8 9.8 0 00-6.7 0c-1.1.5-2 1.2-3 2-.8.9-1.4 2-1.8 3.2-.4 1.4-.6 2.9-.6 4.4 0 1.4.2 2.8.6 4.2zM891.3 113.4h-4.7V140h4.7v-26.7zM902.7 113.4v4.2a10.1 10.1 0 019.2-4.8c1.6 0 3.2.1 4.7.6 1.1.5 2.1 1.1 3 2 .7 1 1.2 2 1.5 3.2.4 1.2.6 2.5.6 3.8V140H917v-18a5.3 5.3 0 00-1.4-4 5.7 5.7 0 00-4.3-1.4 10 10 0 00-3.7.6 6.6 6.6 0 00-4 4.4c-.5 1-.7 2.2-.7 3.4v15h-4.7v-26.6h4.5zM940.7 113.4v3.8h-5.8v16.6l.2 1.2c0 .4.2.6.7.8h4.9v3.8h-6.8l-2-.8c-.5-.5-.9-1.1-1-1.8-.4-1-.5-2-.4-3v-16.8h-5v-3.8h5v-8h4.4v8h5.8zM673.1 123.6l4.3 4L691 140l5.7-5.6a1.6 1.6 0 000-2.2l-5.3-4.6-5.7-5.4a2 2 0 010-2.6l15.5-14.6L694 98 677.4 114l-4.3 4a3.8 3.8 0 00-.9 4.3c.2.5.6 1 1 1.3z"/>
      <path d="M719 130.6l-4.2-4-13.5-12.4-5.7 5.6a1.6 1.6 0 000 2.2l5.3 4.6 5.7 5.6a1.8 1.8 0 010 2.4l-15.5 14.6 7.1 6.8 16.6-15.8 4.3-4a3.8 3.8 0 001.2-2.8 3.7 3.7 0 00-1.2-2.8zM769.5 107.8a2.7 2.7 0 01-4.5 1.8 2.6 2.6 0 010-3.7 2.7 2.7 0 013.7 0c.5.5.8 1.2.8 1.9zM891.5 107.8c0 .7-.3 1.3-.8 1.8a2.7 2.7 0 01-3.8 0 2.6 2.6 0 010-3.7 2.7 2.7 0 013.8 0c.5.5.8 1.2.8 1.9z"/>
    </g>
    <path fill="#fff" d="M691 349.8a57 57 0 004 21 56.9 56.9 0 0027.6 31.1 49.2 49.2 0 0034.6 3.3 54.3 54.3 0 0023.9-13c3.1-3 5.6-6.8 7.5-11l-14.5-8.3a32.3 32.3 0 01-29.5 18.3c-5.3 0-10-1.1-14.4-3.3a35.7 35.7 0 01-11.3-9c-3.2-3.8-5.7-8-7.4-13a46.5 46.5 0 016.2-42.7c3-3.8 6.8-6.9 11.1-9.2 4.4-2.4 9.4-3.6 15.3-3.6a38.1 38.1 0 0116.2 3.7c2.5 1.4 5 3.3 7.2 5.5a33 33 0 015.6 8.4l13.8-9.2a44.7 44.7 0 00-42.2-24.2 52.4 52.4 0 00-50 35.4 55.5 55.5 0 00-3.6 19.8zm179.3-28.5l8-14.4a80.4 80.4 0 00-16.8-8.9 59.7 59.7 0 00-36.6-1.4c-5 1.6-9.2 3.8-12.8 6.6a30.8 30.8 0 00-11.5 25c0 4.3.6 8 2 11.2 1.4 3.1 3.4 5.8 6.2 8 2.7 2.3 6 4.3 10.1 5.9 4.1 1.5 9 3 14.6 4.5l12.7 3.6a63 63 0 019.6 3.9c2.5 1.4 4.5 3 5.9 4.8 1.4 1.9 2.2 4.2 2.2 7 0 4.7-1.9 8.3-5.6 10.6-3.8 2.5-9 3.6-16 3.6-4.3 0-8.4-.4-12.3-1.4a71 71 0 01-20-8.2 27.5 27.5 0 01-5.7-4.6l-8 15a66 66 0 0021.2 11.2 80.4 80.4 0 0040.3 2c4.8-1.2 9-3 12.8-5.5a27 27 0 008.7-10c2.2-4 3.3-9 3.3-14.5a26.2 26.2 0 00-9.8-21.5c-3.2-2.4-7-4.4-11.6-6.1-4.5-1.6-9.5-3.2-15.1-4.6-4.7-1-8.6-2.2-12-3-3.5-1-6.4-2.3-8.6-3.5-2.3-1.3-4-2.8-5.2-4.5-1-1.8-1.5-4-1.5-6.8 0-4.6 1.7-8.4 5.1-11.2 3.5-2.6 9-4 16.4-4a49.6 49.6 0 0125.4 7.6c2 1.3 3.5 2.5 4.6 3.6zm95.3 0l8-14.4a80.4 80.4 0 00-16.7-8.9 59.7 59.7 0 00-36.7-1.4c-5 1.6-9.2 3.8-12.8 6.6a30.8 30.8 0 00-11.5 25c0 4.3.6 8 2 11.2 1.4 3.1 3.5 5.8 6.3 8 2.6 2.3 6 4.3 10.1 5.9 4 1.5 8.9 3 14.5 4.5 4.7 1.2 9 2.5 12.8 3.6a63 63 0 019.5 3.9c2.5 1.4 4.5 3 6 4.8 1.4 1.9 2.1 4.2 2.1 7 0 4.7-1.8 8.3-5.6 10.6-3.7 2.5-9 3.6-15.9 3.6-4.4 0-8.4-.4-12.3-1.4a71 71 0 01-20-8.2 27.5 27.5 0 01-5.8-4.6l-8 15a66 66 0 0021.3 11.2 80.4 80.4 0 0040.3 2c4.8-1.2 9-3 12.7-5.5a27 27 0 008.8-10c2.2-4 3.3-9 3.3-14.5a26.2 26.2 0 00-9.8-21.5c-3.2-2.4-7-4.4-11.6-6.1-4.5-1.6-9.5-3.2-15.1-4.6-4.7-1-8.6-2.2-12-3-3.5-1-6.5-2.3-8.6-3.5-2.4-1.3-4.1-2.8-5.2-4.5-1-1.8-1.5-4-1.5-6.8 0-4.6 1.7-8.4 5.1-11.2 3.4-2.6 8.9-4 16.4-4a49.6 49.6 0 0125.4 7.6c1.9 1.3 3.4 2.5 4.5 3.6zM461.4 541H479V430.2h-18.7L423.7 498 387 430.2h-18.7V541h17.5v-79.7l33 60.4h9.7l33-60.4V541zm75.2-110.8l-44 110.8h18.6l11.5-30.1h42.8l11.7 30.1h18.4l-43.7-110.8h-15.3zm25.5 67.7h-36.2l18.4-47.5 17.8 47.5zm111-41.6l8-14.4a80.4 80.4 0 00-16.7-8.9 59.7 59.7 0 00-36.7-1.4c-5 1.6-9.2 3.8-12.8 6.6a30.8 30.8 0 00-11.5 25c0 4.3.6 8 2 11.2 1.4 3.1 3.5 5.8 6.3 8 2.6 2.3 6 4.3 10.1 5.9 4 1.5 8.9 3 14.5 4.5 4.7 1.2 9 2.5 12.8 3.6a63 63 0 019.5 3.9c2.5 1.4 4.5 3 6 4.8 1.4 1.9 2.1 4.2 2.1 7 0 4.7-1.8 8.3-5.6 10.6-3.7 2.5-9 3.6-15.9 3.6-4.4 0-8.4-.4-12.3-1.4a71 71 0 01-20-8.2 27.5 27.5 0 01-5.8-4.6l-8 15a66 66 0 0021.3 11.2 80.4 80.4 0 0040.3 2c4.8-1.2 9-3 12.7-5.5a27 27 0 008.8-10c2.2-4 3.3-9 3.3-14.5a26.2 26.2 0 00-9.8-21.5c-3.2-2.4-7-4.4-11.6-6.1-4.5-1.6-9.5-3.2-15.1-4.6-4.7-1-8.6-2.2-12-3-3.5-1-6.5-2.3-8.6-3.5-2.4-1.3-4.1-2.8-5.2-4.5-1-1.8-1.5-4-1.5-6.8 0-4.6 1.7-8.4 5.1-11.2 3.4-2.6 8.9-4 16.4-4a49.6 49.6 0 0125.4 7.6c1.9 1.3 3.4 2.5 4.5 3.6zm110.4-10.6v-15.5H692v15.5h37V541h17.6v-95.3h36.8zm90.8 79.9h-58.5v-33.9h49.5v-14.5h-49.5v-31.5H873v-15.5h-74.6V541h76v-15.4zm18 15.4h17.5v-38.5h25.6l24 38.5h19.8l-26-42.1c3.1-1 6-2.5 8.9-4.7 2.6-2.2 5-4.7 6.8-7.6a37.9 37.9 0 006-20.3 39.5 39.5 0 00-9.7-24.6c-3.1-3.5-6.7-6.2-11-8.3-4.1-2-8.7-3.2-13.7-3.2h-48.2V541zm17.5-54v-41.3h29.7a17 17 0 0112.2 6 22.8 22.8 0 014.1 22.5 18.2 18.2 0 01-8.7 11.2c-2 1.2-4.2 1.6-6.7 1.6h-30.6zM651 569.2l2.2-3.9c-1.3-.9-2.8-1.7-4.5-2.4a16 16 0 00-9.9-.3c-1.3.4-2.4 1-3.4 1.7a8.3 8.3 0 00-3.1 6.7c0 1.2.2 2.2.5 3 .4 1 1 1.6 1.7 2.2a9 9 0 002.8 1.6l3.9 1.2 3.4 1 2.6 1a5 5 0 011.6 1.3c.3.5.5 1.2.5 2 0 1.2-.5 2.2-1.5 2.8-1 .7-2.4 1-4.2 1a14 14 0 01-3.4-.4 19.1 19.1 0 01-5.3-2.3c-.7-.4-1.3-.8-1.6-1.2l-2.1 4c1.6 1.4 3.6 2.4 5.7 3a21.6 21.6 0 0010.8.6c1.3-.3 2.4-.8 3.5-1.5 1-.7 1.7-1.6 2.3-2.7.6-1 .9-2.4.9-3.9 0-1.3-.3-2.5-.7-3.4a7 7 0 00-2-2.4c-.8-.6-1.8-1.1-3-1.6l-4.1-1.2-3.3-.9c-.9-.2-1.7-.6-2.3-.9-.6-.3-1-.7-1.4-1.2-.3-.5-.4-1-.4-1.8 0-1.3.5-2.3 1.4-3 1-.8 2.4-1.1 4.4-1.1a13.4 13.4 0 016.9 2l1.2 1zm28.6 18.6h-15.8v-9h13.3v-4h-13.3v-8.5h15.4v-4.1h-20V592h20.4v-4.2zm2.3-11a15.3 15.3 0 008.5 14 13.2 13.2 0 009.3.9 14.6 14.6 0 006.4-3.4c.9-.8 1.6-1.8 2-3l-3.8-2.2a8.7 8.7 0 01-8 5 9.6 9.6 0 01-7-3.3 11 11 0 01-1.9-3.6 12.5 12.5 0 011.7-11.5c.8-1 1.8-1.9 3-2.5 1.1-.6 2.5-1 4-1a10.3 10.3 0 014.5 1 9 9 0 011.9 1.5 9 9 0 011.5 2.3l3.7-2.5a12 12 0 00-11.3-6.5 14.1 14.1 0 00-13.5 9.5 15 15 0 00-1 5.4zm42.7 15.4c2 0 4-.4 5.7-1.2a15 15 0 007.6-19.4 15.5 15.5 0 00-7.4-8.3c-1.8-.9-3.7-1.3-5.8-1.3-2.1 0-4 .4-5.8 1.2a14.4 14.4 0 00-7.5 8.2 15.8 15.8 0 002.9 16.2 13.4 13.4 0 0010.3 4.7zm-9.5-15.1c0-1.4.2-2.7.6-4a10.4 10.4 0 015-5.9 8.5 8.5 0 017.9 0c1 .6 2 1.4 2.9 2.4a11 11 0 012 3.4 13.1 13.1 0 010 8 11 11 0 01-1.9 3.5c-.8 1-1.8 2-3 2.5-1.1.7-2.4 1-4 1a8.7 8.7 0 01-7-3.4 12 12 0 01-2.6-7.6zm33.4-6.1l16.9 21h3.9v-29.8h-4.7v21.5l-17.1-21.5h-3.7V592h4.7v-21zm27.5 21h10.6c2.2 0 4.2-.3 6-1 1.8-.8 3.3-1.8 4.6-3a13 13 0 002.9-4.8 18 18 0 000-12c-.5-1.7-1.5-3.3-2.7-4.7a13.2 13.2 0 00-4.5-3.1c-1.8-.8-4-1.2-6.3-1.2H776V592zm20.3-15c0 1.6-.2 3-.6 4.3-.4 1.4-1 2.5-1.9 3.5-.8 1-1.8 1.7-3 2.2a10 10 0 01-4.2.8h-5.9v-21.5h5.9c1.5 0 2.9.3 4.1.8 1.2.6 2.2 1.3 3 2.3a9 9 0 012 3.3c.4 1.4.6 2.8.6 4.3zm40.6 10.8h-15.8v-9h13.4v-4H821v-8.5h15.4v-4.1h-20V592h20.4v-4.2zm4.8 4.2h10.6c2.2 0 4.2-.3 6-1 1.8-.8 3.4-1.8 4.6-3a13 13 0 003-4.8 18 18 0 000-12c-.6-1.7-1.5-3.3-2.7-4.7a13.2 13.2 0 00-4.6-3.1c-1.8-.8-3.9-1.2-6.3-1.2h-10.6V592zm20.4-15c0 1.6-.2 3-.7 4.3-.4 1.4-1 2.5-1.8 3.5-.9 1-1.9 1.7-3.1 2.2a10 10 0 01-4.2.8h-5.8v-21.5h5.8c1.5 0 3 .3 4.1.8a9 9 0 015 5.6c.4 1.4.7 2.8.7 4.3zm9.7 15h4.7v-29.8h-4.7V592zm33.3-25.7v-4.1h-24.6v4.1h10V592h4.7v-25.7h10zm4 25.7h4.7v-29.8h-4.7V592zm23.9.2c2 0 3.9-.4 5.6-1.2a15 15 0 007.6-19.4 15.5 15.5 0 00-7.3-8.3c-1.8-.9-3.7-1.3-5.8-1.3-2.1 0-4 .4-5.8 1.2a14.4 14.4 0 00-7.5 8.2 15.8 15.8 0 002.9 16.2 13.4 13.4 0 0010.3 4.7zm-9.5-15.1c0-1.4.2-2.7.6-4a10.4 10.4 0 014.9-5.9 8.5 8.5 0 017.9 0c1.2.6 2.1 1.4 3 2.4a11 11 0 011.9 3.4 13.1 13.1 0 010 8 11 11 0 01-1.8 3.5c-.9 1-1.8 2-3 2.5-1.2.7-2.5 1-4 1a8.7 8.7 0 01-7-3.4 12 12 0 01-2.6-7.6zm33.4-6.1l16.9 21h3.9v-29.8h-4.8v21.5l-17-21.5h-3.7V592h4.7v-21zM772.4 612.3V610h-14.1v2.3h5.7V627h2.7v-14.7h5.7zm2.3 14.7h2.6v-17h-2.6v17zm6.5 0h2.7v-7.3h7.2v-2.3H784v-5h8.6V610h-11.3v17zm13.9 0h2.7v-7.3h7.2v-2.3h-7.2v-5h8.6V610h-11.3v17zm17-17l-6.7 17h2.8l1.8-4.6h6.6l1.8 4.6h2.8l-6.7-17H812zm4 10.4h-5.6l2.8-7.3 2.7 7.3zm9.9-5.4l9.6 12h2.3v-17h-2.7v12.2l-9.8-12.2h-2v17h2.6v-12zm17-5h-3l6.3 10.9v6.1h2.7v-6.1l6.4-11h-3l-4.7 8.6-4.7-8.5zm33 12.6c0-1-.3-2-.9-2.8a4.4 4.4 0 00-2.3-1.5c.8-.4 1.4-1 1.8-1.6a4.5 4.5 0 00.4-4l-.8-1.3c-.3-.5-.7-.8-1.2-1-.5-.3-1-.4-1.6-.4h-8.8v17h8.1c.7 0 1.4-.1 2-.3a5 5 0 001.7-.9c.5-.3.9-.8 1.2-1.3.2-.6.4-1.2.4-1.9zm-2.8-.5c0 .4 0 .7-.2 1l-.5.8a2.3 2.3 0 01-1.8.7h-5.4v-5.1h5.6c.3 0 .6 0 1 .2l.7.6.4.8c.2.3.2.7.2 1zm-8-9.8h5.2a2 2 0 011.6.7c.4.5.6 1 .6 1.8a2.6 2.6 0 01-.7 1.8l-.8.5a2 2 0 01-.9.2h-5v-5zm13.1 14.7h2.2v-3h-2.2v3zm25-4.4c0-1-.4-2-1-2.8a4.4 4.4 0 00-2.3-1.5c.8-.4 1.4-1 1.9-1.6a4.5 4.5 0 00.3-4c-.2-.5-.4-1-.8-1.3-.3-.5-.7-.8-1.2-1-.5-.3-1-.4-1.6-.4h-8.8v17h8.2c.7 0 1.4-.1 2-.3a5 5 0 001.7-.9c.4-.3.8-.8 1-1.3.4-.6.5-1.2.5-1.9zm-2.8-.5l-.2 1c-.2.3-.3.6-.6.8a2.3 2.3 0 01-1.8.7h-5.4v-5.1h5.6c.4 0 .7 0 1 .2.3.1.5.3.7.6l.5.8.2 1zm-8-9.8h5.1a2 2 0 011.6.7c.4.5.6 1 .6 1.8a2.6 2.6 0 01-.7 1.8l-.7.5a2 2 0 01-1 .2h-4.9v-5zM906 627h2.7v-6h4l3.6 6h3l-4-6.5c.6-.1 1-.4 1.5-.7a5 5 0 001-1.2 5.8 5.8 0 001-3.1c0-.7-.2-1.3-.5-2a6 6 0 00-1-1.8c-.5-.5-1.1-1-1.8-1.3-.6-.3-1.3-.4-2-.4H906v17zm2.7-8.3v-6.4h4.6l1 .3.8.7a3.5 3.5 0 01.7 3.4l-.5 1c-.3.3-.5.6-.9.8l-1 .2h-4.7zm20.3 8.4c1.1 0 2.2-.2 3.2-.7a8.6 8.6 0 004.4-11 8.8 8.8 0 00-4.3-4.8 7.5 7.5 0 00-6.6 0 8.2 8.2 0 00-4.3 4.6 9 9 0 001.6 9.2 7.6 7.6 0 005.9 2.7zm-5.5-8.6c0-.8.2-1.5.4-2.3a6 6 0 012.8-3.4c.7-.3 1.4-.5 2.3-.5.8 0 1.5.2 2.2.5.7.4 1.2.8 1.7 1.4.5.6.8 1.2 1.1 2a7.5 7.5 0 010 4.5 5.5 5.5 0 01-2.8 3.4c-.6.4-1.3.6-2.2.6a5 5 0 01-4-1.9c-.5-.6-.8-1.2-1-2-.3-.7-.5-1.5-.5-2.3zm21.9-8.5l2.9 7.6-2.6 6.3-5.3-14h-3l7.1 17.1h2.3l3.2-7.6 3.2 7.6h2.3l7-17h-3l-5.2 13.9-2.6-6.3 3-7.6H952l-2.1 5.8-2.1-5.8h-2.5zm21.8 5l9.7 12h2.2v-17h-2.7v12.2l-9.8-12.2h-2v17h2.6v-12zM201 1196.1c1.4 0 2.7-.2 3.9-.8 1.2-.5 2.2-1.3 3-2.2a10.3 10.3 0 002-10.7c-.4-1.2-1-2.3-1.9-3.2-.8-1-1.8-1.7-3-2.3a8.7 8.7 0 00-7.7 0 9.7 9.7 0 00-5 5.3 10.5 10.5 0 001.9 10.8 9 9 0 006.9 3.1zm-6.2-10c0-1 .1-1.8.4-2.7a7 7 0 011.2-2.3c.6-.7 1.3-1.2 2-1.6a5.7 5.7 0 015.3 0c.8.3 1.4.9 2 1.5.5.7 1 1.5 1.3 2.3a8.8 8.8 0 010 5.4c-.3.9-.7 1.6-1.2 2.3-.6.7-1.2 1.3-2 1.7-.8.4-1.7.6-2.7.6-1 0-1.8-.2-2.6-.6a6.7 6.7 0 01-3.3-4 8 8 0 01-.4-2.6zm19 9.9h3.2v-7h4.6l4.3 7h3.6l-4.7-7.6a5 5 0 001.6-.8c.5-.4.9-.8 1.2-1.4a6.8 6.8 0 001.1-3.6 7.1 7.1 0 00-1.7-4.4c-.6-.7-1.2-1.1-2-1.5-.8-.4-1.6-.6-2.5-.6H214v19.9zm3.2-9.7v-7.4h5.3l1.2.3 1 .8a4.1 4.1 0 01.8 4 5 5 0 01-.6 1.2c-.3.4-.6.6-1 .8-.3.2-.7.3-1.2.3H217zm29.3 7.2v2.5h2.6v-10h-6.8v2.3h4.2v2.1c-.8 1-1.7 1.8-2.6 2.2a6.1 6.1 0 01-7.5-1.4 7.4 7.4 0 01-1.8-5.1c0-1 .1-1.9.4-2.8a6.8 6.8 0 013.2-3.9c.8-.4 1.6-.6 2.5-.6 1.2 0 2.2.3 3.2.8 1 .6 1.7 1.4 2.2 2.5l2.4-1.8a7.9 7.9 0 00-2.9-3.1 9.1 9.1 0 00-4.8-1.2 9.2 9.2 0 00-6.8 3 10.4 10.4 0 00-2 10.8 10.4 10.4 0 005 5.5 8.1 8.1 0 009.5-1.8zm12-17.4l-7.8 19.9h3.3l2-5.4h7.8l2 5.4h3.4l-7.9-19.9h-2.7zm4.6 12.2h-6.5l3.3-8.6 3.2 8.6zm11.7-6.3l11.2 14h2.6v-19.8h-3.1v14.3l-11.4-14.4h-2.5v19.9h3.2v-14zm18.3 14h3.1v-19.9H293v19.9zm6.2-2.4v2.4H315v-2.8h-11.8l11.8-14.7v-2.4h-15.5v2.8h11.8l-12 14.7zm32.7-.4h-10.5v-6h8.8v-2.7h-8.8v-5.6h10.2v-2.8h-13.4v19.9h13.7v-2.8zm3.2 2.8h7c1.5 0 2.9-.2 4-.7a8.6 8.6 0 005-5.1 12 12 0 00.1-8c-.4-1.2-1-2.3-1.8-3.2a9 9 0 00-3-2.1c-1.3-.5-2.7-.8-4.3-.8h-7v19.9zm13.5-10c0 1 0 2-.4 2.9-.3.9-.7 1.6-1.2 2.3-.6.6-1.3 1.1-2 1.5-.9.4-1.8.5-2.8.5h-4V1179h4c1 0 1.9.2 2.7.5a6 6 0 013.3 3.7c.3 1 .4 1.9.4 3zm5.8 12.7h1.5l1-2.9v-3.4H354v3.4h1l-.7 3zm13.3-2.7h3.2v-8.6h8.4v-2.6h-8.4v-6h10v-2.7h-13.2v19.9zm20-19.9l-8 19.9h3.4l2-5.4h7.7l2.1 5.4h3.3l-7.8-19.9h-2.8zm4.5 12.2h-6.5l3.3-8.6 3.2 8.6zm20-7.5l1.4-2.6-3-1.6a10.7 10.7 0 00-6.6-.2 7 7 0 00-2.3 1.1c-.7.5-1.2 1.2-1.5 2-.4.7-.6 1.6-.6 2.5 0 .8.1 1.5.4 2 .2.6.6 1 1 1.5.6.4 1.2.8 2 1 .6.3 1.5.6 2.5.8l2.3.7 1.7.7c.5.2.8.5 1 .9.3.3.5.7.5 1.2 0 .9-.4 1.5-1 2-.7.4-1.7.6-2.9.6a9.8 9.8 0 01-4.2-1 8.3 8.3 0 01-2.6-1.6l-1.4 2.7c1 .9 2.4 1.6 3.8 2a14.4 14.4 0 007.2.4c.9-.2 1.6-.6 2.3-1 .7-.5 1.2-1 1.5-1.8.4-.7.6-1.6.6-2.6a4.7 4.7 0 00-1.8-3.9c-.5-.4-1.2-.8-2-1l-2.7-.9-2.2-.5a7 7 0 01-1.5-.7l-1-.8-.2-1.2c0-.8.3-1.5 1-2 .5-.5 1.5-.7 2.8-.7a8.3 8.3 0 015.4 2zm19.7-2v-2.7h-16.4v2.8h6.7v17.1h3.1v-17.1h6.6zm.5 20h1.4l1-3v-3.4H432v3.4h1l-.6 3zm27-5.6h-10.6v-6h8.9v-2.7h-8.9v-5.6H459v-2.8h-13.4v19.9h13.6v-2.8zm3.1 2.8h3.2v-8.6h8.4v-2.6h-8.4v-6h10v-2.7h-13.2v19.9zm16.3 0h3v-8.6h8.6v-2.6h-8.5v-6h10.1v-2.7h-13.2v19.9zm16.2 0h3.1v-19.9H495v19.9zm6.3-10c0 1.2.3 2.4.7 3.7a10.2 10.2 0 005 5.6 9 9 0 006.2.6 9.6 9.6 0 004.3-2.4c.6-.5 1-1.2 1.3-2l-2.6-1.4c-.2.6-.6 1-1 1.5a5.8 5.8 0 01-4.3 1.7c-1 0-1.7-.2-2.5-.5-.8-.4-1.5-1-2-1.7a7.6 7.6 0 01-1.8-5.1 8.3 8.3 0 011.5-4.9c.6-.6 1.2-1.2 2-1.6.8-.4 1.7-.7 2.8-.7a7 7 0 012.9.7l1.3 1c.4.4.7 1 1 1.5l2.4-1.7a8 8 0 00-7.5-4.3 9.4 9.4 0 00-9 6.4 10 10 0 00-.7 3.5zm20.4 10h3.2v-19.9h-3.2v19.9zm21.3-2.8h-10.5v-6h8.9v-2.7h-8.9v-5.6h10.3v-2.8h-13.4v19.9h13.6v-2.8zm6.4-11.2l11.2 14h2.6v-19.8H560v14.3l-11.4-14.4h-2.5v19.9h3.2v-14zm32.9-3.1v-2.8h-16.4v2.8h6.6v17.1h3.2v-17.1h6.6zm.1 17.1h2.6v-3.6h-2.6v3.6zm12.2-10c0 1.2.2 2.4.7 3.7a10.2 10.2 0 005 5.6 9 9 0 006.2.6 9.6 9.6 0 004.2-2.4c.6-.5 1-1.2 1.4-2l-2.6-1.4-1 1.5a5.8 5.8 0 01-4.3 1.7c-1 0-1.8-.2-2.6-.5-.8-.4-1.5-1-2-1.7a7.6 7.6 0 01-1.8-5.1 8.3 8.3 0 011.5-4.9c.6-.6 1.2-1.2 2-1.6.8-.4 1.7-.7 2.8-.7a7 7 0 012.9.7l1.3 1c.4.4.7 1 1 1.5l2.4-1.7a8 8 0 00-7.5-4.3 9.4 9.4 0 00-9 6.4 10 10 0 00-.6 3.5zm32.1-5.2l1.4-2.6c-.8-.6-1.8-1.1-3-1.6a10.7 10.7 0 00-6.5-.2 7 7 0 00-2.3 1.1c-.7.5-1.2 1.2-1.5 2-.4.7-.6 1.6-.6 2.5 0 .8.1 1.5.4 2 .2.6.6 1 1 1.5.6.4 1.2.8 1.9 1 .7.3 1.6.6 2.6.8l2.3.7 1.7.7c.5.2.8.5 1 .9.3.3.5.7.5 1.2 0 .9-.4 1.5-1 2-.7.4-1.7.6-2.9.6a9.8 9.8 0 01-4.2-1 8.3 8.3 0 01-2.6-1.6l-1.5 2.7a14.4 14.4 0 0011 2.4c1-.2 1.7-.6 2.4-1a5.4 5.4 0 002.2-4.4 4.7 4.7 0 00-1.8-3.9c-.6-.4-1.3-.8-2.1-1l-2.7-.9-2.2-.5a7 7 0 01-1.5-.7l-1-.8-.2-1.2c0-.8.3-1.5.9-2 .6-.5 1.6-.7 3-.7a8.3 8.3 0 015.3 2zm17.1 0l1.5-2.6-3-1.6a10.7 10.7 0 00-6.6-.2 7 7 0 00-2.3 1.1c-.7.5-1.2 1.2-1.5 2-.4.7-.6 1.6-.6 2.5 0 .8.1 1.5.4 2 .2.6.6 1 1.1 1.5.5.4 1 .8 1.8 1 .8.3 1.6.6 2.6.8l2.3.7c.7.2 1.3.4 1.7.7.5.2.8.5 1 .9.3.3.5.7.5 1.2 0 .9-.4 1.5-1 2-.7.4-1.6.6-2.9.6a9.8 9.8 0 01-4.2-1 8.3 8.3 0 01-2.6-1.6l-1.4 2.7c1 .9 2.4 1.6 3.8 2a14.4 14.4 0 007.2.4c.9-.2 1.6-.6 2.3-1 .7-.5 1.2-1 1.6-1.8.4-.7.5-1.6.5-2.6a4.7 4.7 0 00-1.8-3.9c-.5-.4-1.2-.8-2-1l-2.7-.9-2.2-.5a7 7 0 01-1.5-.7l-1-.8-.2-1.2c0-.8.3-1.5 1-2 .5-.5 1.5-.7 2.9-.7a8.3 8.3 0 015.3 2zM656 1196h7c1.5 0 2.9-.2 4-.7a8.6 8.6 0 005-5.1 12 12 0 00.1-8c-.4-1.2-1-2.3-1.8-3.2a9 9 0 00-3-2.1c-1.2-.5-2.6-.8-4.2-.8h-7v19.9zm13.6-10c0 1-.2 2-.5 2.9a5.8 5.8 0 01-3.3 3.8c-.8.4-1.7.5-2.7.5h-4V1179h4c1 0 1.9.2 2.7.5a6 6 0 013.3 3.7c.3 1 .5 1.9.5 3zm14.7 10.1c1.4 0 2.6-.2 3.8-.8 1.2-.5 2.2-1.3 3-2.2a10.3 10.3 0 002-10.7c-.4-1.2-1-2.3-1.9-3.2-.8-1-1.8-1.7-3-2.3a8.7 8.7 0 00-7.7 0 9.7 9.7 0 00-5 5.3 10.5 10.5 0 001.9 10.8 9 9 0 006.9 3.1zm-6.3-10c0-1 .1-1.8.4-2.7a7 7 0 011.3-2.3c.5-.7 1.2-1.2 2-1.6.7-.4 1.6-.7 2.6-.7s1.8.3 2.6.7c.8.3 1.4.9 2 1.5.6.7 1 1.5 1.3 2.3a8.8 8.8 0 010 5.4c-.3.9-.7 1.6-1.2 2.3-.6.7-1.2 1.3-2 1.7-.8.4-1.7.6-2.7.6-1 0-1.8-.2-2.6-.6-.8-.4-1.4-1-2-1.6a8 8 0 01-1.7-5zm22.2-4.1l11.3 14h2.6v-19.8h-3.2v14.3l-11.3-14.4H697v19.9h3.1v-14zm32 11.2h-10.5v-6h8.9v-2.7h-8.9v-5.6H732v-2.8h-13.4v19.9h13.6v-2.8zm10.2 2.8h3.1v-7h4.6l4.3 7h3.6l-4.7-7.6a5 5 0 001.6-.8c.5-.4.9-.8 1.2-1.4a6.8 6.8 0 001-3.6c0-.8-.1-1.6-.4-2.4-.3-.8-.7-1.4-1.3-2-.5-.7-1.2-1.1-2-1.5-.7-.4-1.5-.6-2.4-.6h-8.6v19.9zm3.1-9.7v-7.4h5.3l1.2.3 1 .8a4.1 4.1 0 01.8 4 5 5 0 01-.7 1.2c-.2.4-.5.6-1 .8-.3.2-.7.3-1.1.3h-5.5zm15.4 9.7h3.1v-19.9H761v19.9zm21.5-2.5v2.5h2.6v-10h-6.8v2.3h4.2v2.1c-.8 1-1.7 1.8-2.6 2.2a6.1 6.1 0 01-7.5-1.4 7.4 7.4 0 01-1.8-5.1c0-1 .1-1.9.4-2.8a6.8 6.8 0 013.2-3.9c.8-.4 1.6-.6 2.5-.6 1.2 0 2.2.3 3.2.8 1 .6 1.7 1.4 2.2 2.5l2.4-1.8a7.9 7.9 0 00-2.9-3.1 9.1 9.1 0 00-4.8-1.2 9.2 9.2 0 00-6.8 3 10.4 10.4 0 00-2 10.8 10.4 10.4 0 005 5.5 8.1 8.1 0 009.5-1.8zm22.6-17.4h-3.2v8.3h-10v-8.3h-3.2v19.9h3.2v-8.8h10v8.8h3.2v-19.9zm19 2.8v-2.8h-16.4v2.8h6.7v17.1h3.1v-17.1h6.6zm2.9 10h3v-13h-3v13zm0 7.1h3v-3.8h-3v3.8z"/>
    <g>
      <path fill="url(#paint0_radial)" d="M1021 0h-2112v1278h2112V0z"/>
    </g>
    <g>
      <g fill="#fff">
        <path d="M740.5 140.9c.4.7 1 1.2 1.8 1.6l2.3 1h5c.9 0 1.6-.3 2.3-.6.7-.3 1.2-.7 1.6-1.2a3 3 0 00.7-2 2.8 2.8 0 00-1.5-2.7c-1-.6-2-1-3.2-1.4l-4.5-1c-1.6-.1-3-.5-4.5-1.2a9.4 9.4 0 01-3.3-2.2 6.5 6.5 0 01-.4-7.6c.7-1 1.5-1.7 2.5-2.4 1-.6 2-1 3.2-1.2 1.2-.3 2.5-.4 3.7-.4 1.5 0 3 0 4.5.4 1.3.2 2.5.6 3.7 1.2 1 .7 1.8 1.6 2.4 2.6.6 1.3 1 2.7 1 4h-4.7c0-.7-.2-1.4-.6-2-.4-.5-1-1-1.6-1.4l-2-.8h-4.3l-1.9.4c-.6.4-1.2.6-1.4 1.2a2.2 2.2 0 00-.6 1.6 2 2 0 00.8 1.8c.6.7 1.4 1.1 2.2 1.4l2.9.8 3.3.6 3.4 1c1 .3 2 .7 2.9 1.2a7 7 0 012 2.2c.6 1 .9 2.1.9 3.3 0 1.4-.4 2.7-1 4a7 7 0 01-3 2.6 8.3 8.3 0 01-3.8 1.4l-4.3.4-4.3-.4c-1.4-.3-2.7-.9-3.8-1.6-1.1-.8-2-1.7-2.7-2.8a9 9 0 01-1-4.2h4.7c0 .8.1 1.6.6 2.4zM769.3 120.2h-4.7V147h4.7v-26.8zM788.2 120.2v3.8h-5.5v16.7c0 .6 0 1 .2 1.2a1 1 0 00.4.8h5v3.8h-6.6c-.7-.1-1.4-.4-2-.8a3 3 0 01-1.3-1.8c-.2-1-.4-2-.4-3V124h-4.7v-3.8h4.7v-8h4.7v8h5.5zM813.3 145.3a16.2 16.2 0 01-13.7 1.2 11 11 0 01-4.2-3 16.1 16.1 0 01-2.4-15.6 16 16 0 012.6-4.5c1.2-1.2 2.6-2.2 4.3-2.8 1.6-.7 3.4-1 5.3-1a11.6 11.6 0 0110.2 5.2c1 1.5 1.6 3.1 2 4.8.4 1.7.6 3.5.4 5.2h-21c0 1.2.2 2.3.4 3.4.3 1 .9 2 1.6 2.9.8.8 1.8 1.5 2.9 1.8a9.5 9.5 0 008.8-.6 5.9 5.9 0 002.4-3.8h4.5c-.4 2.7-1.9 5.1-4 6.8zm-1-17.3c-.4-1-1-1.8-1.8-2.4a7.3 7.3 0 00-2.5-1.6c-1-.4-2-.6-3-.6a7.9 7.9 0 00-5.8 2.2c-.7.7-1.3 1.5-1.6 2.4-.4 1-.7 2-.8 3h16.1c0-1-.2-2-.6-3zM827.4 120.2v3.6h.2a6 6 0 013.5-3.2c1.7-.7 3.6-1 5.5-1 2 0 4 .3 5.7 1a10 10 0 013.9 3.2c1.2 1.3 2 2.8 2.4 4.4.6 1.8.9 3.6.8 5.4 0 1.9-.2 3.7-.6 5.5-.5 1.5-1.4 3-2.4 4.4a12.6 12.6 0 01-4.1 3c-1.8.6-3.8 1-5.7 1h-2.3l-2.4-.6-2.5-1.4a4.4 4.4 0 01-1.8-2h-.2v13.8H823v-37h4.5zm16.7 9.4a9.5 9.5 0 00-1.6-3.2 9.6 9.6 0 00-2.6-2.2 8.5 8.5 0 00-4-.8c-1.3 0-2.7.2-4 .8-1 .6-2 1.4-2.7 2.4-.6 1-1.1 2-1.4 3.2a11.2 11.2 0 000 7.4 9.8 9.8 0 004.3 5.7c1.3.6 2.7.8 4 .8 1.5 0 2.9-.3 4.2-.8 1-.6 1.8-1.5 2.4-2.4.7-1 1.2-2.2 1.4-3.5.4-1.2.5-2.5.4-3.8.1-1.2 0-2.4-.4-3.6zM854.3 128a12.2 12.2 0 017-7.4c1.8-.8 3.9-1 5.9-1 2 0 4 .3 6 1a12.6 12.6 0 016.6 7.4 16 16 0 010 11 12.6 12.6 0 01-6.7 7.4 18.3 18.3 0 01-11.8 0c-1.7-.6-3.1-1.6-4.3-3a12.2 12.2 0 01-2.7-4.3c-.5-1.8-.8-3.6-.8-5.5s.3-3.8.8-5.6zm4.7 9.8c.4 1.2 1 2.3 1.9 3.3.8.7 1.8 1.4 2.8 2a9.8 9.8 0 006.8 0c1-.6 2-1.3 2.8-2a12.8 12.8 0 002.7-7.4c0-1.6-.3-3-.8-4.5-.4-1.2-1-2.2-1.9-3.2-.8-.7-1.8-1.4-2.8-2a9.7 9.7 0 00-6.7 0c-1.1.6-2 1.3-3 2-.8 1-1.4 2-1.8 3.2-.4 1.5-.6 3-.6 4.4 0 1.5.2 2.9.6 4.3zM891.3 120.2h-4.7V147h4.7v-26.8zM902.7 120.2v4.2a10.1 10.1 0 019.2-4.8c1.6 0 3.2.2 4.7.6 1.1.5 2.1 1.2 3 2 .7 1 1.2 2 1.5 3.2.4 1.3.6 2.5.6 3.8V147H917v-18a5.3 5.3 0 00-1.4-4 5.7 5.7 0 00-4.3-1.5 10 10 0 00-3.7.6 6.6 6.6 0 00-4 4.4c-.5 1.1-.7 2.3-.7 3.4v15h-4.7v-26.6h4.5zM940.7 120.2v3.8h-5.8v16.7l.2 1.2c0 .4.2.6.7.8h4.9v3.8h-6.8l-2-.8c-.5-.5-.9-1.2-1-1.8-.4-1-.5-2-.4-3V124h-5v-3.8h5v-8h4.4v8h5.8zM673.1 130.4l4.3 4L691 147l5.7-5.6a1.6 1.6 0 000-2.2l-5.3-4.7-5.7-5.4a2 2 0 010-2.6l15.5-14.6-7.1-6.8-16.6 15.8-4.3 4a3.8 3.8 0 00-1.2 2.8 3.7 3.7 0 001.2 2.8z"/>
        <path d="M719 137.4l-4.2-4-13.5-12.4-5.7 5.6a1.6 1.6 0 000 2.2l5.3 4.6 5.7 5.7a1.8 1.8 0 010 2.4L691.1 156l7.1 6.8 16.6-15.8 4.3-4a3.8 3.8 0 001.2-2.8 3.7 3.7 0 00-1.2-2.9zM769.5 114.6a2.7 2.7 0 01-4.5 1.8 2.6 2.6 0 010-3.6 2.7 2.7 0 013.7 0c.5.5.8 1.1.8 1.8zM891.5 114.6a2.7 2.7 0 01-4.5 1.8 2.6 2.6 0 010-3.6 2.7 2.7 0 013.7 0c.5.5.8 1.1.8 1.8z"/>
      </g>
      <path fill="#fff" d="M108.5 411h15v-33.1h25.7c4.3 0 8.2-.8 11.7-2.5a29 29 0 0014.8-17 30.7 30.7 0 00-.1-23 34 34 0 00-6-9.8c-2.7-3-5.8-5.2-9.4-7a26.7 26.7 0 00-11.8-2.7h-40V411zm15-46.4v-35.5h24c1.8 0 3.7.6 5.6 1.4 1.9.8 3.5 2 5 3.6 1.3 1.6 2.5 3.3 3.3 5.5a23.3 23.3 0 01.1 14.3c-.8 2.2-1.7 4-3 5.6-1.3 1.7-2.7 3-4.5 3.8-1.7 1-3.6 1.3-5.7 1.3h-24.8zM270 316h-15.2v39.8h-48v-39.8h-15V411h15v-42h48v42h15.2v-95.1zm21.4 95.1h15v-33.1h25.8c4.3 0 8.1-.8 11.6-2.5a29 29 0 0014.9-17 30.7 30.7 0 00-.1-23 34 34 0 00-6-9.8c-2.7-3-5.8-5.2-9.4-7a26.7 26.7 0 00-11.8-2.7h-40V411zm15-46.4v-35.5h24c1.9 0 3.8.6 5.7 1.4 1.8.8 3.4 2 5 3.6 1.2 1.6 2.5 3.3 3.3 5.5a23.3 23.3 0 01.1 14.3c-.8 2.2-1.7 4-3 5.6-1.3 1.7-2.8 3-4.5 3.8-1.8 1-3.6 1.3-5.8 1.3h-24.8zM467.2 411h19.4l-19-19.8c2.5-4 4.5-8.7 6-13.8 1.3-5.1 2.1-10.8 2.3-17h-12a53.5 53.5 0 01-4.9 21.8l-21.4-22.5a67.5 67.5 0 0012.7-11 26 26 0 003.7-6.4c1-2.2 1.5-4.7 1.5-7.4 0-3.2-.7-6-2-8.6-1.3-2.5-3-4.7-5.2-6.4a28.1 28.1 0 00-17-5.2c-3.7 0-7 .5-10 1.6A23.1 23.1 0 00408 328a19.4 19.4 0 00-2 8.8 20 20 0 002.5 9.7c.8 1.7 2 3.4 3.3 5.3 1.4 1.8 3.1 4 5.3 6.1a64 64 0 00-6.7 5.3 31.5 31.5 0 00-9.5 13.4c-1 2.6-1.4 5.5-1.4 8.4 0 3.8.7 7.4 2.3 10.7 1.5 3.4 3.6 6.3 6.4 8.7a34.8 34.8 0 0022.6 8 42 42 0 0027.6-10.5l8.8 9.1zm-34.7-10.3a20.5 20.5 0 01-13.3-4.3 13.9 13.9 0 01-5.5-11.3c0-3.4 1-6.7 3.4-9.6 2.1-2.8 5-5.5 8.8-8.2l24.7 26.1a27.8 27.8 0 01-18.1 7.3zm-12.9-64.3c0-3 1-5.4 3.2-7.5 2.2-2.2 5-3.3 8.5-3.3 3 0 5.6 1 7.6 2.7 2 1.8 3 4 3 6.9 0 2.9-1.1 5.4-3.5 7.9a56.3 56.3 0 01-9.7 7.3c-1.9-1.8-3.3-3.6-4.5-5a27 27 0 01-2.9-3.5L420 339c-.3-.8-.4-1.7-.4-2.6zM610.9 411H626v-95.1h-16L578.3 374 547 316h-16.1V411h15v-68.5l28.4 51.9h8.3l28.3-51.9V411zm43.5-95.1H638l35.2 60.8V411h15v-34l35.5-61.1h-16.5l-26.5 47.7-26.3-47.7zm135 22.3l6.8-12.3a69 69 0 00-14.4-7.6 51.3 51.3 0 00-31.5-1.2 34 34 0 00-11 5.6 26.5 26.5 0 00-10 21.4c.1 3.8.7 7 1.9 9.7 1.2 2.7 3 5 5.3 6.8 2.3 2 5.3 3.8 8.7 5.1 3.5 1.3 7.7 2.7 12.5 3.9l11 3a54 54 0 018.2 3.4 16 16 0 015 4.2 9.8 9.8 0 012 6c0 4-1.7 7.1-4.9 9.1-3.2 2.2-7.8 3.1-13.7 3.1a45 45 0 01-10.5-1.2 61 61 0 01-17.2-7.1 23.6 23.6 0 01-5-3.9l-6.8 12.9a56.7 56.7 0 0018.2 9.6 69 69 0 0034.6 1.8c4.2-1.1 7.8-2.7 11-4.9 3.2-2.1 5.6-5 7.5-8.5a26 26 0 002.8-12.5 22.5 22.5 0 00-8.4-18.5c-2.7-2-6-3.7-10-5.2-3.8-1.4-8.1-2.7-13-3.9l-10.3-2.7c-3-.8-5.5-1.9-7.3-3-2-1-3.5-2.3-4.5-3.8-.9-1.5-1.3-3.4-1.3-5.8 0-4 1.5-7.2 4.4-9.6 3-2.3 7.7-3.5 14.1-3.5a42.6 42.6 0 0121.8 6.6c1.6 1 3 2.1 4 3zm89.9 65.8l6.2 7h14.4l-12.4-14.2a50.4 50.4 0 0012.7-33.2 50.3 50.3 0 00-27-44.1 40.8 40.8 0 00-18.4-4.3c-6.7 0-12.8 1.3-18.4 4a46 46 0 00-24 26 50.5 50.5 0 009.1 51.5 44.2 44.2 0 0046.1 13c4.2-1.4 8-3.3 11.7-5.7zm-24.7-5.9a27.6 27.6 0 01-22.2-10.6 38.3 38.3 0 01-8.2-24.1c0-4.3.7-8.4 2-12.6a33.1 33.1 0 0115.6-19c3.7-2 8-3 12.8-3 4.6 0 8.6 1 12.4 2.9 3.7 1.8 6.8 4.4 9.5 7.6a36 36 0 016.1 11.1 42 42 0 01.4 25c-1.2 3.8-3 7.3-5.2 10.4L871 378h-14.5l13.5 15.7a26.6 26.6 0 01-15.4 4.5zm60.9 12.9h66v-13.3h-51V316h-15V411zM386 453l29 36h6.7v-51h-8.2v36.7L384.3 438H378V489h8v-36zm68.4 36.4c3.4 0 6.7-.7 9.7-2.1a25.8 25.8 0 0013-33.2 26.5 26.5 0 00-12.6-14.3 22 22 0 00-10-2.3 24.7 24.7 0 00-22.8 16.1 27.1 27.1 0 004.9 27.7 22.9 22.9 0 0017.7 8zm-16.3-26c0-2.3.4-4.5 1.1-6.7a17.8 17.8 0 018.4-10.2c2-1 4.3-1.6 6.9-1.6 2.4 0 4.6.5 6.6 1.5s3.7 2.4 5.1 4.2a19 19 0 013.3 5.9 22.5 22.5 0 010 13.7 19 19 0 01-3 6 16.4 16.4 0 01-5.2 4.3c-2 1-4.2 1.6-6.8 1.6a14.9 14.9 0 01-12-5.7 20.6 20.6 0 01-4.4-13zm50.5-25.5h-8.5l20.5 51.1h6.9l20.4-51.1h-8.5l-15.4 41-15.4-41zm45.6 51.1h8v-51.1h-8V489zm16.4-26c0 3.4.5 6.6 1.8 9.7a26.2 26.2 0 0012.7 14.4 22.7 22.7 0 0016 1.5 25 25 0 0011-6c1.5-1.4 2.6-3.1 3.5-5l-6.7-3.9a15 15 0 01-13.6 8.4c-2.5 0-4.6-.4-6.7-1.5-2-1-3.8-2.4-5.2-4.1a18.7 18.7 0 01-3.4-6 21.5 21.5 0 012.9-19.7 14.6 14.6 0 0112.2-5.9 17.6 17.6 0 017.4 1.7c1.2.6 2.3 1.5 3.3 2.5s2 2.4 2.6 3.9l6.4-4.2a20.6 20.6 0 00-19.5-11.2 24.2 24.2 0 00-23 16.3c-1.2 3-1.7 6.2-1.7 9.2zM638 482h-27v-15.7h22.8v-6.6h-22.8V445h26.3V438H603V489h35v-7.1zm61.6-36.9V438h-42.2v7.1h17v44h8.2v-44h17zm25.7 44.4c3.4 0 6.7-.7 9.7-2.1a25.8 25.8 0 0013-33.2 26.5 26.5 0 00-12.6-14.3 22 22 0 00-10-2.3 24.7 24.7 0 00-22.8 16.1 27.1 27.1 0 004.9 27.7 22.9 22.9 0 0017.7 8zm-16.3-26c0-2.3.4-4.5 1-6.7a17.8 17.8 0 018.4-10.2c2-1 4.4-1.6 7-1.6 2.4 0 4.6.5 6.6 1.5s3.6 2.4 5 4.2a19 19 0 013.4 5.9 22.5 22.5 0 010 13.7 19 19 0 01-3.1 6 16.4 16.4 0 01-5.1 4.3c-2 1-4.3 1.6-6.9 1.6a14.9 14.9 0 01-11.9-5.7 20.6 20.6 0 01-4.4-13zm75-10.4l29 36h6.7v-51h-8.2v36.7L782.4 438h-6.3V489h8v-36zm47.2 36h8v-51.1h-8V489zm27.6-36l29 36h6.7v-51h-8.2v36.7L857.2 438H851V489h8v-36zm44 27l-1.9 6.6c3 2.2 6.8 3.2 11.1 3.2 4 0 7.2-.6 9.7-1.9 2.3-1.2 4.1-3 5.4-5.2 1.3-2.3 2-5 2.5-8.2.3-3.1.6-6.7.6-10.6v-26H922v26c0 3-.1 5.8-.3 8.1-.2 2.3-.7 4.3-1.4 5.8a7.7 7.7 0 01-3 3.6c-1.3.8-3.1 1.1-5.3 1.1a16.4 16.4 0 01-9.1-2.5zm52.3-42.1L935 489h8.6l5.3-13.9h19.7L974 489h8.5l-20.1-51.1h-7zM967 469h-16.7l8.5-22 8.2 22zM754 588.3c0-1.4-.3-2.5-1-3.5-.8-1-1.8-1.7-3-2a5 5 0 002.3-2.2 5.8 5.8 0 00.4-5 5.4 5.4 0 00-2.6-3.1c-.5-.3-1.3-.5-2-.5h-11.4v22h10.6c.9 0 1.8-.1 2.6-.4.8-.2 1.5-.6 2.1-1 .7-.6 1.1-1.2 1.5-1.9a5 5 0 00.5-2.4zm-3.5-.6c0 .4-.1.9-.3 1.3l-.6 1-1 .7a3 3 0 01-1.3.3h-7v-6.7h7.2c.4 0 .8 0 1.2.2l1 .8.5 1 .3 1.4zM740.2 575h6.6c.8 0 1.5.3 2 1 .6.5.8 1.3.8 2.3a3.4 3.4 0 01-.9 2.3 3 3 0 01-1 .6c-.3.2-.7.3-1 .3h-6.5V575zm18.2-3h-3.8l8.1 14v8h3.5v-7.9l8.2-14.1h-3.8l-6.2 11-6-11zm40.6 3v-3h-18.2v3h7.4v19h3.5v-19h7.3zm11 19.2a11.1 11.1 0 009.8-15.2 11.4 11.4 0 00-5.4-6.2c-1.3-.6-2.7-1-4.3-1-1.5 0-3 .3-4.2 1a10.6 10.6 0 00-5.6 6 11.7 11.7 0 002.1 12c1 1 2 1.8 3.4 2.4 1.3.6 2.7 1 4.3 1zm-7-11.2c0-1 .2-2 .5-3a7.7 7.7 0 013.6-4.3c.9-.5 1.9-.7 3-.7a6.8 6.8 0 015 2.4c.7.8 1.1 1.6 1.5 2.6a9.7 9.7 0 010 6c-.3.9-.8 1.7-1.4 2.5a7 7 0 01-2.2 1.8 6 6 0 01-2.9.7 6.4 6.4 0 01-5.1-2.4c-.7-.8-1.1-1.6-1.4-2.6-.4-1-.5-2-.5-3zm39.7 11h3.5v-22h-3.7l-7.3 13.4L828 572h-3.8v22h3.5v-15.8l6.6 12h1.9l6.5-12V594zm33.5-5.7c0-1.4-.4-2.5-1.1-3.5-.8-1-1.8-1.7-3-2a5 5 0 002.3-2.2 5.8 5.8 0 00.5-5 5.4 5.4 0 00-2.6-3.1c-.6-.3-1.3-.5-2-.5h-11.4v22h10.5c1 0 1.8-.1 2.6-.4.8-.2 1.5-.6 2.2-1 .6-.6 1-1.2 1.4-1.9a5 5 0 00.6-2.4zm-3.6-.6c0 .4 0 .9-.2 1.3l-.7 1-1 .7a3 3 0 01-1.3.3h-7v-6.7h7.2c.4 0 .8 0 1.2.2l1 .8.6 1 .2 1.4zM862.3 575h6.6c.8 0 1.5.3 2 1 .6.5.9 1.3.9 2.3a3.4 3.4 0 01-1 2.3 3 3 0 01-.9.6c-.4.2-.7.3-1.2.3h-6.4V575zm26.7 16c-1.2 0-2.1-.2-3-.6a5 5 0 01-1.8-1.8c-.4-.7-.8-1.6-1-2.5-.2-1-.2-2-.2-3V572h-3.5V583c0 1.5.1 2.9.5 4.2.3 1.3.8 2.5 1.6 3.5a8 8 0 002.9 2.5c1.2.6 2.7.9 4.5.9 1.6 0 3.1-.3 4.3-1a8 8 0 003-2.3c.7-1 1.3-2.1 1.7-3.5.3-1.3.5-2.7.5-4.3V572H895V583l-.3 3c-.2.9-.6 1.7-1 2.5a5.5 5.5 0 01-4.7 2.4zm30.3-16v-3H901v3h7.3v19h3.5v-19h7.4zm2.9 19h15.3v-3h-11.8v-19h-3.5v22zm33.2-3h-11.6v-6.8h9.8v-2.9h-9.8v-6.2H955V572h-14.8v22h15.1v-3zm3.6 3h3.5v-7.7h5l4.8 7.7h4l-5.2-8.4c.6-.2 1.2-.5 1.7-.9.6-.4 1-1 1.4-1.5a7.5 7.5 0 001.2-4c0-1-.2-1.8-.5-2.7-.4-.8-.8-1.6-1.4-2.2a7.6 7.6 0 00-2.2-1.7c-.8-.4-1.7-.6-2.7-.6H959v22zm3.5-10.7V575h5.8c.5 0 1 0 1.3.3.5.2.9.5 1.2.9a4.5 4.5 0 01.8 4.4l-.7 1.4-1 .9c-.4.2-.9.3-1.4.3h-6zM222.1 1200.5v2.5h2.7v-10H218v2.3h4.1v2.1c-.8 1-1.7 1.8-2.6 2.2a6.1 6.1 0 01-7.5-1.4 7.4 7.4 0 01-1.8-5.1c0-1 .1-1.9.4-2.8a6.8 6.8 0 013.2-3.9c.8-.4 1.6-.6 2.6-.6s2.1.3 3 .8c1 .6 1.8 1.4 2.3 2.5l2.4-1.8a7.9 7.9 0 00-2.9-3.1 9.1 9.1 0 00-4.8-1.2 9.2 9.2 0 00-6.8 3 10.4 10.4 0 00-2 10.8 10.4 10.4 0 005 5.5 8.1 8.1 0 009.5-1.8zm19.9-.3h-10.5v-6h8.8v-2.7h-8.8v-5.6h10.2v-2.8h-13.4v19.9H242v-2.8zm17.8-14.3v-2.8h-16.4v2.8h6.6v17.1h3.2v-17.1h6.6zm17 14.4c-1 0-1.8-.2-2.5-.6-.7-.4-1.3-.9-1.7-1.6-.4-.6-.7-1.4-1-2.2l-.2-2.7v-10h-3v10c0 1.3 0 2.5.4 3.7.2 1.2.7 2.3 1.4 3.2.7 1 1.6 1.7 2.6 2.2 1.1.6 2.5.8 4 .8a9 9 0 004-.7c1-.6 2-1.3 2.7-2.2.7-.9 1.2-2 1.5-3.1.3-1.2.5-2.5.5-3.9v-10h-3.2v10c0 .9-.1 1.8-.3 2.6-.1.9-.4 1.6-.9 2.3-.4.7-1 1.2-1.6 1.6a5 5 0 01-2.6.6zm12.8 2.7h3.2v-7h5.4c.8 0 1.7 0 2.4-.5a6 6 0 003.1-3.5c.3-.8.4-1.6.4-2.4 0-.8-.1-1.6-.4-2.4-.3-.8-.8-1.4-1.3-2-.6-.7-1.2-1.1-2-1.5-.7-.4-1.5-.6-2.4-.6h-8.4v19.9zm3.2-9.7v-7.4h5l1.2.3c.4.1.7.4 1 .7a3.8 3.8 0 011 2.7c0 .6-.1 1-.3 1.5l-.6 1.2c-.3.3-.6.6-1 .7-.3.2-.7.3-1.1.3h-5.2zm34.2-7.4v-2.8h-16.4v2.8h6.7v17.1h3.1v-17.1h6.6zm10 17.2c1.4 0 2.6-.2 3.8-.8 1.2-.5 2.2-1.3 3-2.2a10.3 10.3 0 002-10.7c-.4-1.2-1-2.3-1.9-3.2-.8-1-1.8-1.7-3-2.3a8.7 8.7 0 00-7.7 0 9.7 9.7 0 00-5 5.3 10.5 10.5 0 001.9 10.8 9 9 0 006.9 3.1zm-6.3-10c0-1 .1-1.8.4-2.7a7 7 0 011.3-2.3c.5-.7 1.2-1.2 2-1.6a5.7 5.7 0 015.3 0c.7.3 1.4.9 2 1.5a8.8 8.8 0 011.3 7.6c-.3 1-.8 1.7-1.3 2.4-.6.7-1.2 1.3-2 1.7-.8.4-1.6.6-2.6.6s-1.9-.2-2.7-.6c-.8-.4-1.4-1-2-1.6a8 8 0 01-1.7-5zm37.8-5.3l1.4-2.6c-.8-.6-1.8-1.1-3-1.6a10.7 10.7 0 00-6.5-.2 7 7 0 00-2.3 1.1c-.7.5-1.2 1.2-1.6 2-.3.7-.5 1.6-.5 2.5 0 .8.1 1.5.4 2 .2.6.6 1 1 1.5.5.4 1.2.8 1.9 1 .7.3 1.6.6 2.6.8l2.3.7 1.7.7c.4.2.8.5 1 .9.3.3.5.7.5 1.2 0 .9-.4 1.5-1 2-.7.4-1.7.6-3 .6a9.8 9.8 0 01-4.1-1 8.3 8.3 0 01-2.6-1.6l-1.5 2.7c1.2.9 2.4 1.6 3.8 2a14.4 14.4 0 007.3.4c.8-.2 1.6-.6 2.3-1a5.4 5.4 0 002.2-4.4 4.7 4.7 0 00-1.8-3.9c-.6-.4-1.3-.8-2.1-1l-2.7-.9-2.2-.5a7 7 0 01-1.5-.7c-.5-.2-.8-.5-1-.8-.2-.3-.2-.7-.2-1.2 0-.8.3-1.5.9-2 .6-.5 1.6-.7 3-.7a8.3 8.3 0 015.3 2zm5.4 15.2h3.1v-7h5.4c.9 0 1.7 0 2.4-.5a6 6 0 003.1-3.5c.3-.8.5-1.6.5-2.4a7.1 7.1 0 00-1.7-4.4c-.6-.7-1.3-1.1-2-1.5-.8-.4-1.6-.6-2.5-.6h-8.3v19.9zm3.1-9.7v-7.4h5l1.2.3c.4.1.7.4 1 .7a3.8 3.8 0 011 2.7c0 .6-.1 1-.3 1.5l-.6 1.2c-.2.3-.6.6-1 .7-.3.2-.7.3-1.1.3H377zm28 7h-10.6v-6.1h9v-2.7h-9v-5.6h10.3v-2.8h-13.4v19.9h13.6v-2.8zm16.8 0h-10.5v-6.1h8.9v-2.7h-8.9v-5.6h10.3v-2.8h-13.4v19.9h13.6v-2.8zm3.2 2.7h7.1c1.5 0 2.8-.2 4-.7a8.6 8.6 0 005-5.1 12 12 0 000-8c-.3-1.2-1-2.3-1.8-3.2a9 9 0 00-3-2.1c-1.2-.5-2.6-.8-4.2-.8h-7v19.9zm13.6-10c0 1-.1 2-.4 2.9-.3.9-.7 1.6-1.3 2.3-.5.6-1.2 1.1-2 1.5-.8.4-1.8.5-2.8.5h-4V1186h4c1 0 2 .2 2.7.5a6 6 0 013.3 3.7c.3 1 .5 1.9.5 3zm19.5-9.8l3.4 8.8-3 7.4-6.2-16.3H449l8.2 19.9h2.7l3.7-8.9 3.7 8.9h2.7l8.2-19.9h-3.4l-6.2 16.3-3-7.4 3.4-8.8h-3l-2.4 6.8-2.4-6.8h-3zm22.4 19.8h3.1v-19.9h-3.1v19.9zm22.2-17.1v-2.8h-16.4v2.8h6.6v17.1h3.2v-17.1h6.6zm19-2.8h-3.2v8.3h-10v-8.3h-3.1v19.9h3v-8.8h10.1v8.8h3.2v-19.9zM533 1203h3.1v-7h5.4c.9 0 1.7 0 2.4-.5a6 6 0 003.1-3.5c.3-.8.5-1.6.5-2.4a7.1 7.1 0 00-1.7-4.4c-.6-.7-1.3-1.1-2-1.5-.8-.4-1.6-.6-2.5-.6h-8.3v19.9zm3.1-9.7v-7.4h5l1.2.3c.4.1.7.4 1 .7a3.8 3.8 0 011 2.7c0 .6 0 1-.2 1.5l-.6 1.2c-.3.3-.6.6-1 .7l-1.2.3h-5.2zm30.7-10.2h-3.2v8.3h-10v-8.3h-3.2v19.9h3.2v-8.8h10v8.8h3.2v-19.9zm4.4 19.9h3.2v-7h5.3c1 0 1.8 0 2.5-.5a6 6 0 003-3.5c.4-.8.5-1.6.5-2.4 0-.8-.1-1.6-.4-2.4-.3-.8-.8-1.4-1.3-2-.6-.7-1.2-1.1-2-1.5-.7-.4-1.5-.6-2.4-.6h-8.4v19.9zm3.2-9.7v-7.4h5l1.2.3c.4.1.7.4 1 .7a3.8 3.8 0 011 2.7c0 .6-.1 1-.3 1.5l-.6 1.2c-.3.3-.6.6-1 .7-.3.2-.7.3-1.1.3h-5.2zm34.2-7.4v-2.8h-16.4v2.8h6.7v17.1h3.1v-17.1h6.6zm19-2.8h-3.1v8.3h-10v-8.3h-3.2v19.9h3.1v-8.8h10v8.8h3.2v-19.9zm18.1 17.1h-10.5v-6h9v-2.7h-9v-5.6h10.3v-2.8h-13.4v19.9h13.6v-2.8zm23.8 0h-10.5v-6h8.9v-2.7h-8.9v-5.6h10.3v-2.8H656v19.9h13.6v-2.8zm9.1-17l-7.9 19.8h3.4l2-5.4h7.7l2.1 5.4h3.3l-7.8-19.9h-2.8zm4.6 12h-6.5l3.3-8.5 3.2 8.6zm20-7.4l1.3-2.6c-.8-.6-1.8-1.1-3-1.6a10.7 10.7 0 00-6.5-.2 7 7 0 00-2.3 1.1c-.7.5-1.2 1.2-1.5 2-.4.7-.6 1.6-.6 2.5 0 .8.1 1.5.4 2 .2.6.6 1 1 1.5.6.4 1.2.8 1.9 1 .7.3 1.6.6 2.6.8l2.3.7 1.7.7c.5.2.8.5 1 .9.3.3.5.7.5 1.2 0 .9-.4 1.5-1 2-.7.4-1.7.6-2.9.6a9.8 9.8 0 01-4.2-1 8.3 8.3 0 01-2.6-1.6l-1.5 2.7a14.4 14.4 0 0011 2.4c1-.2 1.7-.6 2.4-1a5.4 5.4 0 002.2-4.4 4.7 4.7 0 00-1.8-3.9c-.6-.4-1.3-.8-2.1-1l-2.7-.9-2.2-.5a7 7 0 01-1.5-.7l-1-.8-.2-1.2c0-.8.3-1.5.9-2 .6-.5 1.6-.7 3-.7a8.3 8.3 0 015.3 2zm6.3-4.7h-3.4l7.3 12.7v7.2h3.2v-7.1l7.4-12.8h-3.4l-5.6 10-5.5-10zm29 .1l3.4 8.8-3 7.4-6.1-16.3h-3.5l8.2 19.9h2.7l3.8-8.9 3.7 8.9h2.6l8.2-19.9h-3.4l-6.2 16.3-3-7.4 3.4-8.8h-3l-2.4 6.8-2.4-6.8h-3zm26.5 0l-7.8 19.8h3.3l2-5.4h7.7l2.1 5.4h3.3l-7.8-19.9H765zm4.6 12h-6.5l3.3-8.5 3.2 8.6zm7.6-12H774l7.3 12.6v7.2h3.2v-7.1l7.4-12.8h-3.4l-5.6 10-5.5-10z"/>
      <g>
        <rect width="351" height="44" x="632" y="509" fill="#6842CF"/>
        <path fill="#fff" d="M666 524.5l1.8-3.4c-1.2-.8-2.4-1.4-3.9-2a13.8 13.8 0 00-8.4-.3c-1.2.3-2.2.8-3 1.5-.8.6-1.5 1.5-2 2.4-.5 1-.7 2.1-.7 3.3 0 1 .2 2 .5 2.6.3.7.8 1.4 1.4 1.9.7.5 1.4 1 2.4 1.3a132 132 0 018.5 2.8c.6.3 1 .7 1.3 1.1.4.5.6 1 .6 1.6 0 1.1-.5 2-1.3 2.5-1 .6-2.1.8-3.7.8-1 0-2 0-2.9-.3a16.4 16.4 0 01-4.6-2c-.5-.3-1-.6-1.3-1l-1.8 3.5c1.4 1.1 3 2 4.9 2.6a18.5 18.5 0 009.2.5c1.2-.3 2.1-.8 3-1.3.9-.6 1.5-1.4 2-2.3.5-1 .8-2.1.8-3.4 0-1.1-.2-2.1-.6-3a6 6 0 00-1.7-2c-.7-.5-1.6-1-2.7-1.4l-3.5-1-2.7-.7c-.8-.2-1.5-.5-2-.8-.5-.3-1-.7-1.2-1-.2-.5-.4-1-.4-1.6 0-1 .4-2 1.2-2.6.8-.6 2-1 3.8-1a11.5 11.5 0 015.9 1.8l1 .9zm24.3 16h-13.5v-7.9h11.5v-3.3h-11.5V522H690v-3.6h-17.2V544h17.5v-3.6zm5.8-22h-4.3l10.3 25.5h3.5l10.2-25.6h-4.3l-7.7 20.5-7.7-20.5zm40.3 22H723v-7.9h11.4v-3.3H723V522h13.2v-3.6H719V544h17.5v-3.6zm8.2-14.5l14.5 18h3.3v-25.5h-4v18.4l-14.6-18.5h-3.2V544h4v-18zm42.3-4v-3.6h-21v3.6h8.5v22h4v-22h8.5zm24.5-3.6h-4.1v10.7h-12.9v-10.7h-4V544h4v-11.3h12.9V544h4v-25.6zm32.2 22H830v-7.8h11.4v-3.3H830V522h13.1v-3.6H826V544h17.6v-3.6zm4.1 3.6h9a14 14 0 005.2-.9c1.5-.6 2.9-1.5 4-2.6 1-1.1 1.9-2.4 2.4-4a15.4 15.4 0 00.2-10.2 11.3 11.3 0 00-6.3-6.8c-1.6-.7-3.4-1-5.4-1h-9V544zm17.4-12.8a12 12 0 01-.5 3.7 8.1 8.1 0 01-1.6 3c-.7.7-1.6 1.4-2.6 1.9-1 .4-2.3.6-3.6.6h-5V522h5c1.3 0 2.5.3 3.5.7a7.8 7.8 0 014.2 4.8c.4 1.1.6 2.4.6 3.7zm8.4 12.8h4v-25.6h-4V544zm28.5-22v-3.6h-21v3.6h8.5v22h4v-22h8.5zm3.5 22h4v-25.6h-4V544zm20.4.2c1.7 0 3.4-.3 4.9-1a13 13 0 006.5-16.7 13.3 13.3 0 00-6.4-7 11 11 0 00-5-1.2c-1.7 0-3.3.3-4.9 1a12.3 12.3 0 00-6.4 7 13.6 13.6 0 002.4 13.9c1.1 1.2 2.4 2.2 3.9 2.9 1.5.7 3.2 1 5 1zm-8.1-13c0-1.1.2-2.2.5-3.4a8.9 8.9 0 014.2-5c1-.6 2.1-.9 3.4-.9a7.9 7.9 0 015.9 2.8c.7 1 1.3 2 1.7 3a11.3 11.3 0 010 6.9 9.5 9.5 0 01-1.6 3c-.7.9-1.5 1.6-2.5 2.2a7 7 0 01-3.5.7 7.4 7.4 0 01-6-2.8 10.3 10.3 0 01-2.2-6.5zm28.6-5.2l14.5 18h3.3v-25.5h-4v18.4l-14.7-18.5h-3.1V544h4v-18z"/>
      </g>
    </g>
    <g>
      <ellipse cx="386.6" cy="1057.9" fill="#000" fill-opacity=".3" rx="244.4" ry="30.9"/>
      <g filter="url(#filter0_f)">
        <path fill="#000" d="M242 1061.8l-53-4.4h-1l-1 1a940 940 0 0055 7.7c5.4 0 38.9.6 55 1l-4.4-1-50.6-4.3z"/>
      </g>
      <g filter="url(#filter1_f)">
        <path fill="#000" d="M277.7 1038l-5.8 2-33.3 3.4s22-3.2 39.1-5.3l13-4.4v3l-13 1.4z"/>
      </g>
      <g filter="url(#filter2_f)">
        <path fill="#000" d="M381.8 1034.2l1.5 1.5H427s-9.1-4.9-20.7-4.9l-24.6 3.4z"/>
      </g>
      <g filter="url(#filter3_f)">
        <path fill="#000" d="M450.3 1065.1l-27-1-15 3-2.9 2.4c16 0 39.5-1 44.9-1 11 0 28-4.3 42.4-9.2h-3.9l-38.5 5.8z"/>
      </g>
      <g filter="url(#filter4_i)">
        <path fill="#E6E6E6" d="M132.6 896.1c.7-4.6.1-26.7-3-39.6l12.6-29L149 845l-6.8 51.2L136 942l6.3 15.4-3.4 4-3.8-13.1 1 15.4h-3.4l-1.5-16.4-1.4 16.4h-3l1-15.4-3.3 13H121l5.8-19.3c1.6-13.4 5-41.2 5.8-45.9z"/>
      </g>
      <path fill="url(#paint1_radial)" d="M331 961.8c5.9.8 50-14.2 71.4-21.7l-18.8 95.6h25.6l-2.9 32.8c8.5-.8 27.2-2.4 33.7-2.4 6.6 0 33.3-5.8 45.8-8.7a439.5 439.5 0 01-8.6-50.2c0-8.1 12.2-22 18.3-28v-7.3l28.4-24.1c11 12.2 34.2 37 39.6 38.1a1184 1184 0 0063.6 4.4l15-54.1-5.8-3.9 5.7-4.3c3.3-6.6 11.2-22.4 17.4-32.8 7.7-13 4.3-25.6 0-25.6s-7.7 15.4-13 20.7A82.1 82.1 0 01627 902l-13-11.6v-42l-26 21.3-6.3-4.4 6.2-13c-1.9-4.9-5.8-17-6.2-26.6-.4-9.6 2.7-17 4.9-18.8-13.6 0-14.2 21.9-16 30.4a17 17 0 01-7.2 11.1l-50.2-40c-1.1-6.7-3.5-20.7-4.3-24.2-1-4.4-51.1-50.2-54-50.2-2.3 0-31.5-2.6-45.8-3.9l-6.8 3.9c-67.3 4-203.7 12.5-210.6 14.5-8.7 2.4-59.3 85.4-60.8 94.1-1.4 8.7 5.8 49.8 10.1 59.4 4.4 9.7 32.3 45.9 32.3 52.6v44c4.7 19 14.9 57.4 18.4 59 4.3 1.8 89.1 11 93.5 8.6 3.5-2-5.3-18.5-10.1-26.6l15-3.8-24.7-81.2h46.8v7.3c3.8-.3 13-.8 18.8 0z"/>
      <path fill="url(#paint2_linear)" d="M599.2 868.1c-1.1.4-5 .2-6.7 0l20.2-16v27.1a17 17 0 00-3.8-2.4 16 16 0 01-5.8-6.8c-.4-1.5 2.4-4.5 3.9-5.8-2.1 1.2-6.6 3.5-7.8 4z"/>
      <g>
        <path fill="url(#paint3_linear)" d="M417.5 967.6l-7.7 101.9c12.2-1.2 38.6-3.5 46.7-3.9 8.1-.4 24.6-5 31.9-7.2-3.7-12.4-10.7-40.6-9.2-54.1 2-17 17.4-27 21.7-33.8 3.5-5.4 16.9-15.5 25-20.8l-40.4-52.6 29.4-87c-.5-5.4-2-18.3-3.9-26-2-7.7-34.9-36.4-51-49.8l-47.3-4.3-3 4.3c2.6 12.3 7.8 38.2 7.8 44V967.6z"/>
        <path fill="url(#paint4_linear)" d="M234.8 922.2c-1.2-2.3-25.3-113.3-37.1-168.5h-7.8c-2 5.6-21.6 28-41.9 56.5-29 40.5-17.4 60.3-17.4 71 0 10.6 42.5 54 43.4 66.6 1 12.5 4.9 33.8 3.4 50.7-1.2 13.5 9.6 45.5 16.9 59.9 12.4 2.4 42 7.2 47.7 7.2h49.2c-18.3-46.8-55.3-141-56.4-143.4z"/>
      </g>
      <g>
        <path fill="url(#paint5_radial)" d="M312 954.5h-64.2l-28-78.7-24.6-112.5 15-5.8c22.5 9.4 70.5 20.7 76.6 26.1 6.2 5.4 25 41 38.6 59.9l-13.5 111z"/>
        <path fill="url(#paint6_linear)" d="M312 954.5h-64.2l-28-78.7-24.6-112.5 15-5.8c22.5 9.4 70.5 20.7 76.6 26.1 6.2 5.4 25 41 38.6 59.9l-13.5 111z"/>
      </g>
      <path fill="#C4C4C4" d="M231.4 1028l48.2 25 5.8 12.1h4.8l-54.5-145.8-4.3 4.3 9.2 32.9-18.4 39.1 9.2 32.4z"/>
      <g>
        <path fill="url(#paint7_linear)" d="M416 789.4c-.7-1.5-7.7-37.7-11-55.5v16.4c2.4 15 11 60 5.3 65.7-5.3 5.3-52.1 6.2-84.4 27l-14 117.8h21.7c13 0 29.9-7.7 39-11l28.5-9.7c-1.1 10.4-3.7 32-4.8 34.2a1330 1330 0 00-12.6 61.9h23.7l10.6-92.3c-.4-50.8-1.2-153-2-154.5z"/>
        <path fill="url(#paint8_linear)" d="M416 789.4c-.7-1.5-7.7-37.7-11-55.5v16.4c2.4 15 11 60 5.3 65.7-5.3 5.3-52.1 6.2-84.4 27l-14 117.8h21.7c13 0 29.9-7.7 39-11l28.5-9.7c-1.1 10.4-3.7 32-4.8 34.2a1330 1330 0 00-12.6 61.9h23.7l10.6-92.3c-.4-50.8-1.2-153-2-154.5z"/>
        <path fill="url(#paint9_linear)" d="M493.2 980.6l31.3-30-31.3-44.8v74.8z"/>
        <path fill="url(#paint10_linear)" d="M493.2 980.6l31.3-30-31.3-44.8v74.8z"/>
      </g>
      <g>
        <path fill="url(#paint11_linear)" d="M418 969.5l-8.7 99.5c12.2-1.1 39.6-1 47.7-1.5 8.1-.3 24.6-5 31.8-7.2-3.7-12.4-10.7-40.6-9.1-54 2-17 16.2-28 21.7-33.9 6.2-6.7 17.8-16.4 24-22.7L486 899l29.5-87c-.5-5.4-2-18.3-3.9-26-2-7.7-34.9-36.4-51.1-49.7l-47.3-4.4-2.8 4.4c2.5 12.2 7.7 38.1 7.7 44v189.2z"/>
        <path fill="url(#paint12_radial)" d="M418 969.5l-8.7 99.5c12.2-1.1 39.6-1 47.7-1.5 8.1-.3 24.6-5 31.8-7.2-3.7-12.4-10.7-40.6-9.1-54 2-17 16.2-28 21.7-33.9 6.2-6.7 17.8-16.4 24-22.7L486 899l29.5-87c-.5-5.4-2-18.3-3.9-26-2-7.7-34.9-36.4-51.1-49.7l-47.3-4.4-2.8 4.4c2.5 12.2 7.7 38.1 7.7 44v189.2z"/>
      </g>
      <g>
        <path fill="url(#paint13_linear)" d="M576.1 922.2a35 35 0 01-5.3 2 510 510 0 00-16.9-5.9c-2.7-.7-51-7.7-70.4-14l37.2-25-6.3-9.3 11-15.9 8.8-11.6 18.8 7.7 4.3 5.8 23.1 23.2-4.3 43z"/>
        <path fill="url(#paint14_linear)" d="M576.1 922.2a35 35 0 01-5.3 2 510 510 0 00-16.9-5.9c-2.7-.7-51-7.7-70.4-14l37.2-25-6.3-9.3 11-15.9 8.8-11.6 18.8 7.7 4.3 5.8 23.1 23.2-4.3 43z"/>
      </g>
      <g fill="#C4C4C4">
        <path d="M441.6 954c.5 1.5 8.2 27.1 6.3 31h-11.1a56 56 0 01-19.3-10.7v-88.8l2.9 8.7c1.3 6.6 4 20.7 4.8 24.1 1 4.4 16 34.3 16.4 35.8zM446 1068l31.8-4.3 11.5-3.9v-.1c-.9-3.7-4.1-17.4-5.3-19.7-1.1-2.3-3.4-24.1-4.3-34.8-9.8 9-30 27-31.8 28.5-2 1.6-26.2 18-38.1 26.1v8.2h36.1z"/>
      </g>
      <g>
        <path fill="url(#paint15_radial)" d="M493.2 899l70.8-48.3-30.3-30.4-29.4-16c-12.2 24.5-36.9 76.2-37.6 87-.8 10.8 17.3 65.7 26.5 90.3l32.8-31-32.8-51.6z"/>
        <path fill="url(#paint16_radial)" d="M493.2 899l70.8-48.3-30.3-30.4-29.4-16c-12.2 24.5-36.9 76.2-37.6 87-.8 10.8 17.3 65.7 26.5 90.3l32.8-31-32.8-51.6z"/>
      </g>
      <g>
        <path fill="url(#paint17_linear)" d="M659 898.5c3.9-7 4.2-18.3 3.9-23.1l-1.5-2c-7.7 8.4-24.8 26-31.8 29.5-8.7 4.3-29.4 10.1-35.2 14-4.6 3-14.4 8.4-18.8 10.6L492.2 900c8.7 12.7 30.7 45.3 33.8 50.7 3 5.4 23.7 23.3 35.6 35.2l41.5 2.5c6.4.3 20 .7 22.7 0 3.3-1 14-46.4 14.9-51.7.8-4.3-3.9-6.3-6.3-6.8 6.6-7.5 20.8-24.4 24.6-31.4z"/>
        <path fill="url(#paint18_radial)" d="M659 898.5c3.9-7 4.2-18.3 3.9-23.1l-1.5-2c-7.7 8.4-24.8 26-31.8 29.5-8.7 4.3-29.4 10.1-35.2 14-4.6 3-14.4 8.4-18.8 10.6L492.2 900c8.7 12.7 30.7 45.3 33.8 50.7 3 5.4 23.7 23.3 35.6 35.2l41.5 2.5c6.4.3 20 .7 22.7 0 3.3-1 14-46.4 14.9-51.7.8-4.3-3.9-6.3-6.3-6.8 6.6-7.5 20.8-24.4 24.6-31.4z"/>
      </g>
      <g opacity=".5">
        <path fill="url(#paint19_linear)" d="M481.1 901l-11.5-3 18.8 22.3c6 7.5 19 13.5 27 18.3l-8.2-14-15.5-18.3c-.5.4-1.6 1.5-2.4 1.9-.8.4-1 4.3-1 6.3-1-.7-3.8-2.6-5.7-5.3-2-2.7-1.8-6.6-1.5-8.3z"/>
        <path fill="url(#paint20_linear)" d="M481.1 901l-11.5-3 18.8 22.3c6 7.5 19 13.5 27 18.3l-8.2-14-15.5-18.3c-.5.4-1.6 1.5-2.4 1.9-.8.4-1 4.3-1 6.3-1-.7-3.8-2.6-5.7-5.3-2-2.7-1.8-6.6-1.5-8.3z"/>
      </g>
      <path fill="url(#paint21_linear)" d="M579.5 926l47.7-23.6-13-15v-4.8c-.2-.8-1-2.7-3-3.9-1.8-1.1-20-1.7-28.8-1.9-1 14.5-3.5 44-5.8 46.4-2.3 2.3-4.2 2.9-4.8 2.9h7.7z"/>
      <path fill="url(#paint22_linear)" d="M571.8 922.2a6 6 0 003.8 1.4c-.5.5-2 1.5-3.8 1.5-2.5 0-5.8-3-8.2-5.3-2-2-31.7-27.2-45.8-38.7l40-26.5-.5 33.3c-.2 5-.4 15.3 0 16.4a235 235 0 0014.5 17.9z"/>
      <g>
        <path fill="url(#paint23_linear)" d="M571.3 921.7l3.8 2.4h-4.8c-.8 0-11.6-10.6-16.9-16L523.5 887l-10-10.6 2.3-4.3c3.6 3.2 11 9.8 12.6 10.6 1.9 1 28.4 4.8 28.4 5.3v16c0 1.9 12 16.4 14.5 17.8z"/>
        <path fill="url(#paint24_linear)" d="M571.3 921.7l3.8 2.4h-4.8c-.8 0-11.6-10.6-16.9-16L523.5 887l-10-10.6 2.3-4.3c3.6 3.2 11 9.8 12.6 10.6 1.9 1 28.4 4.8 28.4 5.3v16c0 1.9 12 16.4 14.5 17.8z"/>
      </g>
      <path fill="#C4C4C4" d="M577.5 937.6c-3.3-2.9-10.6-8.2-11.5-8.6l-15.5-8.7a1046 1046 0 0021.3 8.2c2.9 1 6.2.5 9.1.5 3 0 9.2-4.4 9.7-4.9.3-.4 21.3-10.8 31.8-16-6 5-19.6 16.2-26.5 20.9l-3 1.7c16.9-.4 41.1-1 43.5-1.7 2.7-.8 6.5-6.5 8.2-9.2-1.3 3-4.4 9.3-6.3 10.1-2.4 1-3 2.1-1.5 2.4 4.9 1 4.5 5.2 4.9 6.8-.7-1.1-5-5-7.8-5.8-3.3-1-10 2-15.4 1-4.2-.8-21.4-1-29.4-1 2 1.5 6 4.6 6.8 5.8.7 1.2 2.9 14.3 3.8 20.8l4.4 28a2242.5 2242.5 0 0018.7 1.9c-1.2 0-19.7-.5-20.2 0s-4.8-27-4.3-29c.5-1.9-4.4-14.5-6.8-16.9-2.4-2.4-10.6-3.4-14-6.3z"/>
      <path fill="#fff" d="M580.4 937.2c-2.4-1.6 1-5.5-6.7-6.8l11-1.4 7.3-4 19.3-10c-4.8 3.3-14.5 9.1-16.9 10.6-1.3.7-6 3-8.5 3.9l4.7-.5c1.9-.4 13-9.2 19.2-11.6a227.2 227.2 0 01-17.8 13c-2.1 1.3-5 1-7.2.5 2.3 1.6 4.5 3.9 7.2 5.8 2.7 2 5 9.3 4.3 10.6-.3-1.1-2.9-7-4.3-8.7a23.6 23.6 0 00-7.2-5.8c-1.6-.8-3-1-4.8-2 .3.4 2 2 2.4 4 .4 2.4 3.3 1.9 6.2 2.8 2.3.8 4.4 4 5.8 6.8l3.4 10.1c-2.9-5.3-4.3-11.3-7.7-14-4.4-3.3-4.6 0-9.7-3.3z"/>
      <path fill="url(#paint25_linear)" d="M543.3 898.5c.5-.5 3.4-6.2 5.3-5.3 2 1 5.3 2 4.8 3-.4.9-1.9 3.8-1 5.2.8 1.2 5.5 7 7.8 9.7a249.3 249.3 0 005.5 7.4c-3.2-3-15.7-14.1-22.4-20z"/>
      <path fill="url(#paint26_linear)" d="M552.5 904.8l15.4 15.5.5-.5-12.5-15-1.5-5.3-2-12.6-9-1.4-3 3.4c-.4.4 2.3 9 3.4 10.6l2-3.9c1-.4 3.7-1.2 5.2-.4 2 1 .5 4.3 0 6.2-.4 1.6.8 3 1.5 3.4z"/>
      <path fill="url(#paint27_linear)" d="M485 900l-18.3-4.4v-28.5c0-6.1 29.4-60.3 37.6-61.8-6 13.9-22.2 49-22.2 59.4 0 10.5 2.9 24 2.9 35.3z"/>
      <g>
        <path fill="url(#paint28_linear)" d="M492.2 900l66.5-45.9-8.6-3.9-10.2-6.2c0-3.4 3-9 3-19.4 0-10.4-4.9-20.9-4.9-22.2-4 3.4-11.4 13.5-18.3 18.9-7 5.4-3.9 13.8-1 19.3 0 0 5.3 9.2 4.8 12.5-.4 3.4-16.8 9.2-20.7 14.5-3.8 5.3-18.3 32.4-18.3 32.4h7.7z"/>
        <path fill="url(#paint29_radial)" d="M492.2 900l66.5-45.9-8.6-3.9-10.2-6.2c0-3.4 3-9 3-19.4 0-10.4-4.9-20.9-4.9-22.2-4 3.4-11.4 13.5-18.3 18.9-7 5.4-3.9 13.8-1 19.3 0 0 5.3 9.2 4.8 12.5-.4 3.4-16.8 9.2-20.7 14.5-3.8 5.3-18.3 32.4-18.3 32.4h7.7z"/>
      </g>
      <path fill="#fff" d="M529.3 809.7l7.7-9.2c1.7 4.8 5 15.5 5.8 19.3.8 3.9-1 13.5-1.9 17.9.3-3 .8-10.5 0-17.9-.8-7.3-2.9-14-3.9-16.4a87 87 0 01-6.2 8.2c-2 2-12.6 11.1-13.5 16-1 4.8 2.4 13 4.3 16.4 2 3.3 4.8 7.7 3 11-1.6 2.8-18.2 8-22.7 14 3.5-6 18.2-12.2 19.7-14.9 2-3.4-1-7.7-2-10.1-.7-2-3.1-7.6-4.2-10.2-.5-2.9-1.2-9.2 0-11 1.1-2 9.8-9.6 14-13.1z"/>
      <path fill="url(#paint30_linear)" d="M524.5 845.9a169 169 0 01-4.3-8.2c0-2 .3-6.4 1.4-8.7l11.1-20.3c1 4.2 3.3 14 4.8 19.3 1.6 5.4-.6 13.2-1.9 16.4l9.2 7.8-12-7.8c.6-1.9 2-6.6 2.8-10a83 83 0 00-2.9-20.9c-3.8 5.8-11.5 18.3-11 21.8.4 4.3 3.8 8.7 5.2 10.6 1.5 2 2.4 6.3 1 9.7a46.3 46.3 0 01-9.2 10.1c1.6-2.1 5.2-7 6.8-10.1 2-4 .5-7.3-1-9.7z"/>
      <path fill="#E3E4E5" d="M611.8 887h-6.3l9.6 19.3c.4.3 6-2.8 8.7-4.4l-12-15z"/>
      <g>
        <path fill="url(#paint31_linear)" d="M581.4 875.4l3.9-2-13-19.8c3.3-2 10-6.4 10-8.7 0-2.3-6.7-12.8-10-17.8-.2 2.5-1 9-3 14.4-1.9 5.5-5.9 7.5-7.2 7.3l-19.3-16-1.9 8.3 16.9 13.5 22.6 24.6 1-3.8z"/>
        <path fill="url(#paint32_linear)" d="M581.4 875.4l3.9-2-13-19.8c3.3-2 10-6.4 10-8.7 0-2.3-6.7-12.8-10-17.8-.2 2.5-1 9-3 14.4-1.9 5.5-5.9 7.5-7.2 7.3l-19.3-16-1.9 8.3 16.9 13.5 22.6 24.6 1-3.8z"/>
      </g>
      <path fill="#fff" d="M560.7 850.7l-16.4-12.5-.5 1.4c5.6 4 16.7 12 17.8 13.5 1.2 1.6 14.3 16.1 20.8 23.2l-.5 1-21.2-23.2a649 649 0 00-18.3-14.5l1.4-2.9c6.6 4.4 16.9 12.8 17.8 13.5 2.4 2 5.7 0 6.8.5-.2-.8-.3-2.7.5-3.8.7-1.2 3.3 0 4.8.4 2.6-.8 8.2-2.8 8.2-2.4 0 .5-5.3 3.9-6.3 4.4-1 .5-2.9 1-3.4 1-.3 0-1 1.9 0 5.3H569l14 17.3-16.4-18.3 4.3.5-1-5.8c.5-.5 2.8-.5 4.4-.5 1.5 0 4.8-2.3 6.2-3.4-1.2.5-4.3 2-6.2 2.4-2.4.5-3.9-1.4-4.9-.5-.7.8-.3 3.6 0 4.9 0 0-6.7 0-8.6-1.5z"/>
      <path fill="url(#paint33_linear)" d="M563 954.5c-2.6-6.1-4.3-20.6-4.7-27l4.8-2 12.5 8.8c4.7 2.7 14.9 8.9 18.3 11.6 3.5 2.7 6.6 28.4 7.7 41H581a516.6 516.6 0 01-17.8-32.4z"/>
      <path fill="url(#paint34_radial)" d="M497 931.4l-14.4-14-12-12.1 24 73.4 2.4-47.3z"/>
      <path fill="url(#paint35_radial)" d="M219.3 784.6v-16.3s3.5-2.7 8.3-3.4c4.8-.7 11.6 1.4 11.6 1.4l27.4 8.8c0 3.9-4.1 17.7-6.9 22.5-4 7-11.6 10.2-20.5 11.5-8.9 1.4-19.9-14.3-19.9-24.5z"/>
      <path fill="url(#paint36_radial)" d="M192.8 756c-2.4.6-6.7 5.9-7.2 6.4h4.3a20 20 0 014.4-3 163 163 0 014.8-1.4l-3.4 3.9 11.6-6.3-7.2-2a56 56 0 01-7.3 2.5z"/>
      <path fill="url(#paint37_linear)" d="M583.3 866.2l-7.7-11.1c2 .8 4.8 1 6.8 1 1.9 0 3.5-6 3.3-9.7l1.5 6.3c1 3.3-2.5 4.6-3 7.7-.3 3-1.2 5-.9 5.8z"/>
      <path fill="url(#paint38_radial)" d="M661.4 883.6c0-2 1-3.9-3.8-2.4-4.4 6.4-14.6 20-20.8 22.7-6.1 2.7-6.9 2.2-8.2 1.9l-29.8 23.6c10.9-.3 31.2-.3 36.6-1.9 5.4-1.5 11-13 11-13s8.2-9 11.2-16c2.4-5.5 3.8-13 3.8-15z"/>
    </g>
  </g>
  
</svg>