<svg width="674" height="526" viewBox="0 0 674 526" fill="none" xmlns="http://www.w3.org/2000/svg">
<ellipse cx="337" cy="263" rx="337" ry="263" fill="url(#paint0_radial)"/>
<ellipse cx="363.145" cy="430.96" rx="243.972" ry="30.8181" fill="black" fill-opacity="0.33"/>
<g filter="url(#filter0_f)">
<path d="M218.783 434.813L165.85 430.479H164.888L163.925 431.442C179.966 434.01 213.394 439.146 218.783 439.146C224.173 439.146 257.6 439.788 273.641 440.109L269.31 439.146L218.783 434.813Z" fill="black"/>
</g>
<g filter="url(#filter1_f)">
<path d="M254.428 411.206L248.618 413.144L215.415 416.514C215.415 416.514 237.252 413.309 254.428 411.206L267.385 406.884V409.773C263.858 410.094 259.333 410.605 254.428 411.206Z" fill="black"/>
</g>
<g filter="url(#filter2_f)">
<path d="M358.333 407.365L359.777 408.81H403.567C403.567 408.81 394.424 403.995 382.875 403.995L358.333 407.365Z" fill="black"/>
</g>
<g filter="url(#filter3_f)">
<path d="M426.665 438.183L399.717 437.22L384.8 440.109L381.912 442.517C397.792 442.517 421.275 441.554 426.665 441.554C437.732 441.554 454.575 437.22 469.011 432.405H465.161L426.665 438.183Z" fill="black"/>
</g>
<g filter="url(#filter4_i)">
<path d="M109.549 269.647C110.319 265.024 109.709 243.002 106.662 230.161L119.173 201.27L125.91 218.605L119.173 269.647L112.917 315.393L119.173 330.802L115.805 334.654L111.955 321.653L112.917 337.062H109.549L108.105 320.689L106.662 337.062H103.774L104.737 321.653L101.368 334.654H98L103.774 315.393C105.379 302.07 108.779 274.27 109.549 269.647Z" fill="#E6E6E6"/>
</g>
<path d="M307.701 335.135C313.475 335.906 357.586 321.01 378.92 313.466L360.153 408.81H385.657L382.77 441.554C391.271 440.751 409.91 439.146 416.454 439.146C422.999 439.146 449.657 433.368 462.169 430.479C459.282 417.156 453.507 388.489 453.507 380.399C453.507 372.31 465.698 358.409 471.793 352.471V345.248L500.184 321.171C511.092 333.37 534.254 358.056 539.643 359.212C545.033 360.368 584.235 362.583 603.163 363.546L618.08 309.614L612.305 305.762L618.08 301.428C621.288 294.847 629.244 279.085 635.403 268.684C643.103 255.683 639.734 243.163 635.403 243.163C631.073 243.163 627.704 258.572 622.411 263.869C618.176 268.106 607.814 273.339 603.163 275.425L590.17 263.869V248.941V221.975L564.185 243.163L557.929 238.829L564.185 225.828C562.26 221.012 558.314 208.974 557.929 199.343C557.544 189.713 560.601 182.329 562.846 180.564C549.309 180.564 548.668 202.389 546.967 210.9C545.812 216.679 541.889 220.852 539.643 221.975L489.598 182.008C488.475 175.427 486.037 161.399 485.267 157.932C484.304 153.598 434.259 107.852 431.371 107.852C429.062 107.852 399.933 105.284 385.657 104L378.92 107.852C311.711 111.865 175.562 120.372 168.632 122.298C159.97 124.706 109.444 207.529 108 216.197C106.556 224.865 113.774 265.795 118.105 275.425C122.436 285.056 150.346 321.171 150.346 327.912V371.732C154.998 390.672 165.167 428.938 168.632 430.479C172.963 432.405 257.655 441.554 261.986 439.146C265.451 437.22 256.693 420.688 251.881 412.662L266.798 408.81L242.257 327.912H288.934V335.135C292.784 334.814 301.926 334.365 307.701 335.135Z" fill="url(#paint1_radial)"/>
<path d="M575.358 241.718C574.203 242.103 570.385 241.879 568.621 241.718L588.832 225.828V252.793C588.03 252.151 586.137 250.771 584.982 250.386C583.538 249.904 579.689 245.57 579.207 243.644C578.822 242.103 581.613 239.15 583.057 237.866C580.972 238.99 576.513 241.333 575.358 241.718Z" fill="url(#paint2_linear)"/>
<path d="M393.942 340.914L386.243 442.517C398.434 441.394 424.836 439.05 432.92 438.665C441.005 438.28 457.462 433.689 464.68 431.442C460.991 419.083 453.997 390.993 455.537 377.51C457.462 360.657 472.86 350.544 477.191 343.803C480.656 338.41 494.034 328.394 502.214 323.097L461.793 270.61L491.146 183.934C490.665 178.477 489.222 165.636 487.297 157.932C485.372 150.227 452.489 121.656 436.289 108.334L389.13 104L386.243 108.334C388.81 120.533 393.942 146.375 393.942 152.153V174.785V340.914Z" fill="url(#paint3_linear)"/>
<path d="M211.565 295.65C210.41 293.338 186.382 182.65 174.512 127.595H166.813C164.727 133.213 145.211 155.546 124.948 183.934C96.0753 224.383 107.624 244.126 107.624 254.72C107.624 265.313 149.97 308.651 150.933 321.171C151.895 333.691 155.745 354.878 154.301 371.732C153.146 385.215 163.925 417.156 171.144 431.442C183.494 433.85 213.008 438.665 218.783 438.665H267.866C249.58 391.956 212.72 297.961 211.565 295.65Z" fill="url(#paint4_linear)"/>
<path d="M288.558 327.913H224.558L196.648 249.423L172.106 137.226L187.023 131.447C209.48 140.757 257.376 152.057 263.535 157.45C269.695 162.843 288.398 198.38 302.032 217.16L288.558 327.913Z" fill="url(#paint5_radial)"/>
<path d="M288.558 327.913H224.558L196.648 249.423L172.106 137.226L187.023 131.447C209.48 140.757 257.376 152.057 263.535 157.45C269.695 162.843 288.398 198.38 302.032 217.16L288.558 327.913Z" fill="url(#paint6_linear)"/>
<path d="M208.197 401.105L256.317 426.145L262.092 438.183H266.904L212.527 292.761L208.197 297.094L217.339 329.839L199.054 368.843L208.197 401.105Z" fill="#C4C4C4"/>
<path d="M392.499 163.228C391.729 161.688 384.8 125.669 381.431 107.852V124.224C383.837 139.152 392.447 183.986 386.724 189.713C381.431 195.01 334.754 195.973 302.513 216.679L288.558 334.172C294.012 334.012 297.22 334.172 310.212 334.172C323.205 334.172 340.047 326.468 349.19 323.097L377.581 313.467C376.459 323.9 373.924 345.344 372.769 347.655C371.615 349.967 363.947 389.709 360.258 409.291H383.837L394.424 317.319C394.103 266.597 393.269 164.769 392.499 163.228Z" fill="url(#paint7_linear)"/>
<path d="M392.499 163.228C391.729 161.688 384.8 125.669 381.431 107.852V124.224C383.837 139.152 392.447 183.986 386.724 189.713C381.431 195.01 334.754 195.973 302.513 216.679L288.558 334.172C294.012 334.012 297.22 334.172 310.212 334.172C323.205 334.172 340.047 326.468 349.19 323.097L377.581 313.467C376.459 323.9 373.924 345.344 372.769 347.655C371.615 349.967 363.947 389.709 360.258 409.291H383.837L394.424 317.319C394.103 266.597 393.269 164.769 392.499 163.228Z" fill="url(#paint8_linear)"/>
<path d="M469.492 353.915L500.771 324.06L469.492 279.278V353.915Z" fill="url(#paint9_linear)"/>
<path d="M469.492 353.915L500.771 324.06L469.492 279.278V353.915Z" fill="url(#paint10_linear)"/>
<path d="M394.424 342.84L385.762 442.036C397.953 440.912 425.317 440.976 433.402 440.591C441.486 440.206 457.943 435.615 465.161 433.368C461.472 421.009 454.479 392.919 456.018 379.436C457.943 362.583 472.223 351.602 477.673 345.729C483.928 338.988 495.477 329.357 501.733 323.097L462.274 272.536L491.628 185.86C491.147 180.403 489.703 167.562 487.778 159.858C485.853 152.153 452.971 123.582 436.77 110.26L389.612 105.926L386.724 110.26C389.291 122.459 394.424 148.301 394.424 154.079V176.711V342.84Z" fill="url(#paint11_linear)"/>
<path d="M394.424 342.84L385.762 442.036C397.953 440.912 425.317 440.976 433.402 440.591C441.486 440.206 457.943 435.615 465.161 433.368C461.472 421.009 454.479 392.919 456.018 379.436C457.943 362.583 472.223 351.602 477.673 345.729C483.928 338.988 495.477 329.357 501.733 323.097L462.274 272.536L491.628 185.86C491.147 180.403 489.703 167.562 487.778 159.858C485.853 152.153 452.971 123.582 436.77 110.26L389.612 105.926L386.724 110.26C389.291 122.459 394.424 148.301 394.424 154.079V176.711V342.84Z" fill="url(#paint12_radial)"/>
<path d="M552.26 295.65C551.618 295.971 549.661 296.805 546.967 297.576C542.475 295.971 532.819 292.568 530.124 291.798C527.43 291.027 479.277 284.093 459.868 277.833L496.921 252.793L490.665 243.644L501.733 227.754L510.395 216.197L529.162 223.902L533.493 229.68L556.591 252.793L552.26 295.65Z" fill="url(#paint13_linear)"/>
<path d="M552.26 295.65C551.618 295.971 549.661 296.805 546.967 297.576C542.475 295.971 532.819 292.568 530.124 291.798C527.43 291.027 479.277 284.093 459.868 277.833L496.921 252.793L490.665 243.644L501.733 227.754L510.395 216.197L529.162 223.902L533.493 229.68L556.591 252.793L552.26 295.65Z" fill="url(#paint14_linear)"/>
<path d="M418.003 327.431C418.484 328.876 426.183 354.397 424.259 358.249H413.191C409.822 358.249 393.943 349.1 393.943 347.655V338.988V259.053L396.83 267.721C398.113 274.302 400.872 288.33 401.642 291.798C402.604 296.131 417.522 325.986 418.003 327.431Z" fill="#C4C4C4"/>
<path d="M422.334 441.072L454.094 436.739L465.642 432.886L465.607 432.738C464.747 429.122 461.488 415.422 460.349 413.144C459.194 410.832 456.981 389.067 456.018 378.473C446.234 387.301 426.183 405.343 424.259 406.884C422.334 408.425 398.113 424.861 386.243 432.886V441.072H422.334Z" fill="#C4C4C4"/>
<path d="M469.492 272.536L540.23 224.383L509.914 194.047L480.56 178.156C468.369 202.554 443.796 254.045 443.026 264.832C442.256 275.618 460.349 330.32 469.492 354.878L502.214 324.06L469.492 272.536Z" fill="url(#paint15_radial)"/>
<path d="M469.492 272.536L540.23 224.383L509.914 194.047L480.56 178.156C468.369 202.554 443.796 254.045 443.026 264.832C442.256 275.618 460.349 330.32 469.492 354.878L502.214 324.06L469.492 272.536Z" fill="url(#paint16_radial)"/>
<path d="M635.028 272.055C638.877 265.121 639.198 253.756 638.877 248.941L637.434 247.015C629.734 255.362 612.603 272.921 605.674 276.388C597.012 280.722 576.32 286.501 570.546 290.353C565.926 293.435 556.11 298.699 551.779 300.947L468.53 273.499C477.192 286.18 499.135 318.667 502.214 324.06C505.294 329.453 525.954 347.334 537.824 359.212L579.207 361.62C585.624 361.941 599.129 362.39 601.824 361.62C605.193 360.657 615.779 315.393 616.742 310.096C617.512 305.858 612.892 303.836 610.486 303.354C617.062 295.81 631.178 278.989 635.028 272.055Z" fill="url(#paint17_linear)"/>
<path d="M635.028 272.055C638.877 265.121 639.198 253.756 638.877 248.941L637.434 247.015C629.734 255.362 612.603 272.921 605.674 276.388C597.012 280.722 576.32 286.501 570.546 290.353C565.926 293.435 556.11 298.699 551.779 300.947L468.53 273.499C477.192 286.18 499.135 318.667 502.214 324.06C505.294 329.453 525.954 347.334 537.824 359.212L579.207 361.62C585.624 361.941 599.129 362.39 601.824 361.62C605.193 360.657 615.779 315.393 616.742 310.096C617.512 305.858 612.892 303.836 610.486 303.354C617.062 295.81 631.178 278.989 635.028 272.055Z" fill="url(#paint18_radial)"/>
<g opacity="0.5">
<path d="M457.462 274.462L445.913 271.573C451.527 278.154 463.14 291.798 464.68 293.724C470.665 301.21 483.607 307.206 491.628 312.022L483.447 298.058L468.049 279.759C467.567 280.241 466.412 281.3 465.642 281.685C464.873 282.071 464.68 286.019 464.68 287.945C463.557 287.303 460.83 285.345 458.906 282.648C456.981 279.952 457.141 276.068 457.462 274.462Z" fill="url(#paint19_linear)"/>
<path d="M457.462 274.462L445.913 271.573C451.527 278.154 463.14 291.798 464.68 293.724C470.665 301.21 483.607 307.206 491.628 312.022L483.447 298.058L468.049 279.759C467.567 280.241 466.412 281.3 465.642 281.685C464.873 282.071 464.68 286.019 464.68 287.945C463.557 287.303 460.83 285.345 458.906 282.648C456.981 279.952 457.141 276.068 457.462 274.462Z" fill="url(#paint20_linear)"/>
</g>
<path d="M555.628 299.502L603.268 275.907L590.275 260.979V256.164C590.115 255.362 589.313 253.468 587.388 252.312C585.463 251.156 567.338 250.546 558.516 250.386C557.553 264.832 555.051 294.301 552.741 296.613C550.431 298.924 548.571 299.502 547.929 299.502H555.628Z" fill="url(#paint21_linear)"/>
<path d="M547.929 295.65C549.084 296.806 550.977 297.094 551.779 297.094C551.297 297.576 549.854 298.539 547.929 298.539C545.523 298.539 542.154 295.65 539.748 293.242C537.823 291.316 508.149 266.116 494.034 254.72L533.974 228.235L533.493 261.461C533.332 266.437 533.108 276.677 533.493 277.833C533.974 279.278 546.485 294.205 547.929 295.65Z" fill="url(#paint22_linear)"/>
<path d="M547.448 295.168C549.373 296.324 550.816 297.255 551.297 297.576H546.485C545.715 297.576 534.936 286.982 529.643 281.685L499.808 260.498L489.703 249.904L492.109 245.57C495.638 248.781 503.08 255.394 504.62 256.164C506.545 257.127 533.012 260.979 533.012 261.461V277.352C533.012 279.278 545.042 293.724 547.448 295.168Z" fill="url(#paint23_linear)"/>
<path d="M547.448 295.168C549.373 296.324 550.816 297.255 551.297 297.576H546.485C545.715 297.576 534.936 286.982 529.643 281.685L499.808 260.498L489.703 249.904L492.109 245.57C495.638 248.781 503.08 255.394 504.62 256.164C506.545 257.127 533.012 260.979 533.012 261.461V277.352C533.012 279.278 545.042 293.724 547.448 295.168Z" fill="url(#paint24_linear)"/>
<path d="M553.703 311.059C550.335 308.17 543.117 302.873 542.154 302.391L526.756 293.724C532.851 296.131 545.619 301.139 547.929 301.91C550.816 302.873 554.185 302.391 557.072 302.391C559.959 302.391 566.215 298.057 566.696 297.576C567.081 297.191 588.03 286.822 598.456 281.685C592.521 286.661 578.919 297.768 571.989 302.391C570.897 303.12 569.901 303.699 568.997 304.152C585.856 303.762 610.097 303.053 612.411 302.391C615.106 301.621 618.987 295.971 620.591 293.242C619.308 296.292 616.26 302.584 614.336 303.354C611.93 304.317 611.4 305.463 612.892 305.762C617.704 306.725 617.383 310.898 617.704 312.503C617.062 311.38 612.699 307.495 610.005 306.725C606.636 305.762 599.899 308.651 594.606 307.688C590.371 306.918 573.273 306.725 565.252 306.725C567.177 308.17 571.219 311.348 571.989 312.503C572.759 313.659 574.877 326.789 575.839 333.209L580.17 361.138C586.1 361.763 597.89 362.995 598.88 363.061C598.938 363.063 598.959 363.064 598.937 363.064C598.927 363.064 598.907 363.063 598.88 363.061C597.637 363.023 579.186 362.604 578.726 363.064C578.245 363.546 573.914 336.098 574.395 334.172C574.877 332.246 570.065 319.726 567.658 317.319C565.252 314.911 557.072 313.948 553.703 311.059Z" fill="#C4C4C4"/>
<path d="M556.591 310.577C554.185 308.972 557.553 305.102 549.854 303.836L560.922 302.391L568.14 298.539L587.388 288.427C582.576 291.797 572.952 297.576 570.546 299.02C569.274 299.784 564.515 301.98 562.008 302.939C563.346 302.792 565.273 302.676 566.696 302.391C568.621 302.006 579.689 293.294 585.944 290.834C582.095 294.205 571.219 301.91 568.14 303.836C565.994 305.177 563.18 304.806 560.965 304.348C563.196 305.951 565.462 308.182 568.14 310.096C570.834 312.022 573.112 319.405 572.471 320.689C572.15 319.566 569.577 313.747 568.14 312.022C565.734 309.133 562.846 307.207 560.922 306.243C559.382 305.473 557.874 305.28 556.109 304.317C556.43 304.638 558.131 306.243 558.515 308.17C558.997 310.577 561.884 310.096 564.771 311.059C567.081 311.829 569.102 314.911 570.546 317.8L573.914 327.912C571.027 322.616 569.68 316.645 566.215 313.948C561.884 310.577 561.643 313.948 556.591 310.577Z" fill="white"/>
<path d="M519.538 272.055C520.019 271.573 522.906 265.795 524.831 266.758C526.756 267.721 530.124 268.684 529.643 269.647C529.162 270.61 527.718 273.499 528.681 274.944C529.451 276.1 534.134 281.846 536.38 284.575C537.914 286.7 540.576 290.337 541.877 291.958C542.365 292.426 542.636 292.71 542.636 292.761C542.636 292.863 542.344 292.54 541.877 291.958C538.686 288.893 526.216 277.902 519.538 272.055Z" fill="url(#paint25_linear)"/>
<path d="M528.681 278.315L544.079 293.724L544.56 293.242L532.049 278.315L530.605 273.018C530.285 270.61 528.681 260.498 528.681 260.498L519.538 259.053C519.538 259.053 517.132 261.943 516.65 262.424C516.265 262.809 518.896 271.413 520.019 273.018L521.944 269.166C523.067 268.684 525.697 267.914 527.237 268.684C529.162 269.647 527.718 273.018 527.237 274.944C526.852 276.485 528.039 277.833 528.681 278.315Z" fill="url(#paint26_linear)"/>
<path d="M461.312 273.499L443.026 269.166V240.755C443.026 234.592 472.379 180.564 480.56 179.119C474.625 192.923 458.424 227.946 458.424 238.347C458.424 248.749 461.312 262.264 461.312 273.499Z" fill="url(#paint27_linear)"/>
<path d="M468.53 273.499L534.936 227.754L526.275 223.902L516.169 217.642C516.169 214.271 519.057 208.781 519.057 198.38C519.057 187.979 514.244 177.514 514.244 176.23C510.234 179.601 502.888 189.616 495.959 195.01C489.029 200.403 492.109 208.814 494.996 214.271C494.996 214.271 500.289 223.42 499.808 226.791C499.327 230.161 482.966 235.94 479.116 241.237C475.267 246.534 460.83 273.499 460.83 273.499H468.53Z" fill="url(#paint28_linear)"/>
<path d="M468.53 273.499L534.936 227.754L526.275 223.902L516.169 217.642C516.169 214.271 519.057 208.781 519.057 198.38C519.057 187.979 514.244 177.514 514.244 176.23C510.234 179.601 502.888 189.616 495.959 195.01C489.029 200.403 492.109 208.814 494.996 214.271C494.996 214.271 500.289 223.42 499.808 226.791C499.327 230.161 482.966 235.94 479.116 241.237C475.267 246.534 460.83 273.499 460.83 273.499H468.53Z" fill="url(#paint29_radial)"/>
<path d="M505.583 183.453L513.282 174.304C514.886 179.119 518.287 189.713 519.056 193.565C519.826 197.417 518.094 207.048 517.132 211.382C517.452 208.492 517.902 200.884 517.132 193.565C516.362 186.246 514.244 179.601 513.282 177.193C511.838 179.28 508.566 183.838 507.026 185.379C505.101 187.305 494.515 196.454 493.552 201.27C492.59 206.085 495.959 214.271 497.883 217.642C499.808 221.012 502.695 225.346 500.771 228.717C499.231 231.413 482.645 236.582 478.154 242.681C481.683 236.582 496.343 230.45 497.883 227.754C499.808 224.383 496.921 220.049 495.959 217.642C495.189 215.715 492.75 210.098 491.628 207.529C491.146 204.64 490.473 198.38 491.628 196.454C492.783 194.528 501.412 186.984 505.583 183.453Z" fill="white"/>
<path d="M500.771 219.568C499.616 217.642 497.402 213.308 496.44 211.382C496.44 209.456 496.728 205.025 497.883 202.714C499.038 200.403 505.743 188.268 508.951 182.49C509.914 186.663 512.223 196.358 513.763 201.751C515.303 207.144 513.122 214.913 511.838 218.123L520.981 225.828L508.951 218.123C509.593 216.197 511.068 211.478 511.838 208.011C512.608 204.544 510.234 192.762 508.951 187.305C505.101 193.083 497.498 205.507 497.883 208.974C498.365 213.308 501.733 217.642 503.177 219.568C504.62 221.494 505.583 225.828 504.139 229.198C502.984 231.895 497.563 237.063 494.996 239.311C496.6 237.224 500.193 232.28 501.733 229.198C503.658 225.346 502.214 221.975 500.771 219.568Z" fill="url(#paint30_linear)"/>
<path d="M587.869 260.498H581.614C584.661 266.758 590.853 279.374 591.238 279.759C591.623 280.144 597.173 277.031 599.899 275.425L587.869 260.498Z" fill="#E3E4E5"/>
<path d="M557.553 248.941L561.403 247.015L548.41 227.272C551.779 225.346 558.516 220.916 558.516 218.605C558.516 216.293 551.779 205.764 548.41 200.788C548.25 203.356 547.448 209.841 545.523 215.234C543.598 220.627 539.588 222.617 538.305 222.457L519.057 206.566L517.132 214.752L533.974 228.235L556.591 252.793L557.553 248.941Z" fill="url(#paint31_linear)"/>
<path d="M557.553 248.941L561.403 247.015L548.41 227.272C551.779 225.346 558.516 220.916 558.516 218.605C558.516 216.293 551.779 205.764 548.41 200.788C548.25 203.356 547.448 209.841 545.523 215.234C543.598 220.627 539.588 222.617 538.305 222.457L519.057 206.566L517.132 214.752L533.974 228.235L556.591 252.793L557.553 248.941Z" fill="url(#paint32_linear)"/>
<path d="M536.861 224.383C534.936 222.938 520.5 211.863 520.5 211.863L520.019 213.308C525.633 217.321 536.669 225.25 537.824 226.791C538.979 228.332 552.099 242.842 558.516 249.904L558.034 250.867C551.458 243.644 538.016 228.909 536.861 227.754C535.706 226.598 524.189 217.642 518.575 213.308L520.019 210.419C526.595 214.752 536.873 223.14 537.824 223.901C540.23 225.828 543.438 223.901 544.561 224.383C544.4 223.58 544.272 221.686 545.042 220.531C545.812 219.375 548.41 220.531 549.854 221.012C552.42 220.21 558.034 218.219 558.034 218.605C558.034 219.086 552.741 222.457 551.779 222.938C550.816 223.42 548.891 223.901 548.41 223.901C548.025 223.901 547.448 225.828 548.41 229.198H545.042L558.997 246.533L542.636 228.235L546.967 228.717L546.004 222.938C546.485 222.457 548.795 222.457 550.335 222.457C551.875 222.457 555.147 220.21 556.591 219.086C555.307 219.568 552.26 221.109 550.335 221.494C547.929 221.975 546.485 220.049 545.523 221.012C544.753 221.783 545.202 224.544 545.523 225.828C545.523 225.828 538.786 225.828 536.861 224.383Z" fill="white"/>
<path d="M539.267 327.912C536.572 321.749 534.936 307.367 534.455 300.947L539.267 299.021L551.779 307.688C556.43 310.417 566.6 316.548 570.064 319.245C573.529 321.941 576.641 347.655 577.764 360.175H557.072C552.26 351.989 541.962 334.076 539.267 327.912Z" fill="url(#paint33_linear)"/>
<path d="M473.342 304.799L458.906 290.834L446.875 278.796L470.936 351.989L473.342 304.799Z" fill="url(#paint34_radial)"/>
<path d="M196.166 158.475V142.199C196.166 142.199 199.584 139.487 204.368 138.809C209.152 138.131 215.986 140.165 215.986 140.165L243.325 148.981C243.325 152.823 239.224 166.613 236.49 171.36C232.421 178.425 224.871 181.532 215.986 182.888C207.102 184.245 196.166 168.647 196.166 158.475Z" fill="url(#paint35_radial)"/>
<path d="M169.7 130.003C167.294 130.484 162.963 135.781 162.482 136.263H166.813C167.775 135.46 169.989 133.759 171.144 133.373C172.298 132.988 174.833 132.25 175.956 131.929L172.587 135.781L184.136 129.521L176.918 127.595C175.314 128.237 171.625 129.618 169.7 130.003Z" fill="url(#paint36_radial)"/>
<path d="M559.478 239.792L551.779 228.717C553.703 229.519 556.591 229.68 558.515 229.68C560.44 229.68 562.044 223.741 561.884 220.049L563.328 226.309C564.29 229.68 560.825 230.932 560.44 234.014C560.055 237.095 559.157 238.989 559.478 239.792Z" fill="url(#paint37_linear)"/>
<path d="M637.434 257.15C637.434 255.224 638.396 253.298 633.584 254.742C629.253 261.163 619.051 274.678 612.892 277.374C606.733 280.071 605.995 279.599 604.711 279.278L574.877 302.873C585.784 302.552 606.059 302.488 611.448 300.947C616.838 299.406 622.516 287.968 622.516 287.968C622.516 287.968 630.57 279.014 633.584 272.078C635.983 266.556 637.434 259.076 637.434 257.15Z" fill="url(#paint38_radial)"/>
<defs>
<filter id="filter0_f" x="159.925" y="426.479" width="117.715" height="17.6306" filterUnits="userSpaceOnUse" color-interpolation-filters="sRGB">
<feFlood flood-opacity="0" result="BackgroundImageFix"/>
<feBlend mode="normal" in="SourceGraphic" in2="BackgroundImageFix" result="shape"/>
<feGaussianBlur stdDeviation="2" result="effect1_foregroundBlur"/>
</filter>
<filter id="filter1_f" x="211.415" y="402.884" width="59.9704" height="17.6306" filterUnits="userSpaceOnUse" color-interpolation-filters="sRGB">
<feFlood flood-opacity="0" result="BackgroundImageFix"/>
<feBlend mode="normal" in="SourceGraphic" in2="BackgroundImageFix" result="shape"/>
<feGaussianBlur stdDeviation="2" result="effect1_foregroundBlur"/>
</filter>
<filter id="filter2_f" x="354.333" y="399.995" width="53.2335" height="12.8153" filterUnits="userSpaceOnUse" color-interpolation-filters="sRGB">
<feFlood flood-opacity="0" result="BackgroundImageFix"/>
<feBlend mode="normal" in="SourceGraphic" in2="BackgroundImageFix" result="shape"/>
<feGaussianBlur stdDeviation="2" result="effect1_foregroundBlur"/>
</filter>
<filter id="filter3_f" x="377.912" y="428.405" width="95.0985" height="18.1122" filterUnits="userSpaceOnUse" color-interpolation-filters="sRGB">
<feFlood flood-opacity="0" result="BackgroundImageFix"/>
<feBlend mode="normal" in="SourceGraphic" in2="BackgroundImageFix" result="shape"/>
<feGaussianBlur stdDeviation="2" result="effect1_foregroundBlur"/>
</filter>
<filter id="filter4_i" x="98" y="201.27" width="27.91" height="135.792" filterUnits="userSpaceOnUse" color-interpolation-filters="sRGB">
<feFlood flood-opacity="0" result="BackgroundImageFix"/>
<feBlend mode="normal" in="SourceGraphic" in2="BackgroundImageFix" result="shape"/>
<feColorMatrix in="SourceAlpha" type="matrix" values="0 0 0 0 0 0 0 0 0 0 0 0 0 0 0 0 0 0 127 0" result="hardAlpha"/>
<feOffset dx="-2" dy="-1"/>
<feComposite in2="hardAlpha" operator="arithmetic" k2="-1" k3="1"/>
<feColorMatrix type="matrix" values="0 0 0 0 0 0 0 0 0 0 0 0 0 0 0 0 0 0 0.25 0"/>
<feBlend mode="normal" in2="shape" result="effect1_innerShadow"/>
</filter>
<radialGradient id="paint0_radial" cx="0" cy="0" r="1" gradientUnits="userSpaceOnUse" gradientTransform="translate(337 263) rotate(90) scale(263 337)">
<stop stop-color="white" stop-opacity="0.34"/>
<stop offset="1" stop-color="white" stop-opacity="0"/>
</radialGradient>
<radialGradient id="paint1_radial" cx="0" cy="0" r="1" gradientUnits="userSpaceOnUse" gradientTransform="translate(314.062 387.141) rotate(-90.3175) scale(260.513 446.435)">
<stop offset="0.0971419" stop-color="#767676"/>
<stop offset="0.460693" stop-color="#9C9FA1"/>
<stop offset="0.607849" stop-color="#E5E3E2"/>
<stop offset="1" stop-color="white"/>
</radialGradient>
<linearGradient id="paint2_linear" x1="597.974" y1="247.015" x2="580.351" y2="216.971" gradientUnits="userSpaceOnUse">
<stop stop-color="white"/>
<stop offset="0.3545" stop-color="#E6E7E8"/>
<stop offset="0.7292" stop-color="#9C9FA1"/>
<stop offset="0.9958" stop-color="#7D7F82"/>
</linearGradient>
<linearGradient id="paint3_linear" x1="309.25" y1="104" x2="309.25" y2="442.517" gradientUnits="userSpaceOnUse">
<stop stop-color="#FCFCFC"/>
<stop offset="1" stop-color="#ABABAB"/>
</linearGradient>
<linearGradient id="paint4_linear" x1="309.25" y1="104" x2="309.25" y2="442.517" gradientUnits="userSpaceOnUse">
<stop stop-color="#FCFCFC"/>
<stop offset="1" stop-color="#ABABAB"/>
</linearGradient>
<radialGradient id="paint5_radial" cx="0" cy="0" r="1" gradientUnits="userSpaceOnUse" gradientTransform="translate(245.731 161.302) rotate(93.4113) scale(137.48 189.183)">
<stop stop-color="white" stop-opacity="0.01"/>
<stop offset="0.355609" stop-color="#D1D1D1" stop-opacity="0.506008"/>
<stop offset="1" stop-color="#A3A3A3"/>
</radialGradient>
<linearGradient id="paint6_linear" x1="296.739" y1="273.981" x2="261.608" y2="265.805" gradientUnits="userSpaceOnUse">
<stop stop-color="#7B7B7B" stop-opacity="0.49"/>
<stop offset="1" stop-color="white" stop-opacity="0"/>
</linearGradient>
<linearGradient id="paint7_linear" x1="341.491" y1="107.852" x2="341.491" y2="409.291" gradientUnits="userSpaceOnUse">
<stop stop-color="white"/>
<stop offset="0.78125" stop-color="#9F9F9F"/>
<stop offset="1" stop-color="#8C8C8C"/>
</linearGradient>
<linearGradient id="paint8_linear" x1="394.424" y1="321.653" x2="377.773" y2="322.294" gradientUnits="userSpaceOnUse">
<stop stop-color="#7B7B7B" stop-opacity="0.49"/>
<stop offset="1" stop-color="white" stop-opacity="0"/>
</linearGradient>
<linearGradient id="paint9_linear" x1="341.491" y1="107.852" x2="341.491" y2="409.291" gradientUnits="userSpaceOnUse">
<stop stop-color="white"/>
<stop offset="0.78125" stop-color="#9F9F9F"/>
<stop offset="1" stop-color="#8C8C8C"/>
</linearGradient>
<linearGradient id="paint10_linear" x1="394.424" y1="321.653" x2="377.773" y2="322.294" gradientUnits="userSpaceOnUse">
<stop stop-color="#7B7B7B" stop-opacity="0.49"/>
<stop offset="1" stop-color="white" stop-opacity="0"/>
</linearGradient>
<linearGradient id="paint11_linear" x1="309.731" y1="105.926" x2="309.731" y2="444.443" gradientUnits="userSpaceOnUse">
<stop stop-color="#FCFCFC"/>
<stop offset="1" stop-color="#C1C1C1"/>
</linearGradient>
<radialGradient id="paint12_radial" cx="0" cy="0" r="1" gradientUnits="userSpaceOnUse" gradientTransform="translate(469.973 275.425) rotate(90.4706) scale(175.765 65.2505)">
<stop offset="0.119792" stop-opacity="0.2"/>
<stop offset="0.659246" stop-opacity="0"/>
</radialGradient>
<linearGradient id="paint13_linear" x1="557.072" y1="253.275" x2="450.586" y2="253.883" gradientUnits="userSpaceOnUse">
<stop stop-color="white"/>
<stop offset="0.463015" stop-color="#E6E7E8"/>
<stop offset="0.817856" stop-color="#9C9FA1"/>
<stop offset="0.9958" stop-color="#7D7F82"/>
</linearGradient>
<linearGradient id="paint14_linear" x1="566.696" y1="271.573" x2="520.981" y2="272.054" gradientUnits="userSpaceOnUse">
<stop stop-color="#7D7F82"/>
<stop offset="0.511277" stop-color="white" stop-opacity="0"/>
</linearGradient>
<radialGradient id="paint15_radial" cx="0" cy="0" r="1" gradientUnits="userSpaceOnUse" gradientTransform="translate(482.966 190.194) rotate(118.391) scale(140.673 190.214)">
<stop stop-color="white"/>
<stop offset="0.319374" stop-color="#E6E7E8"/>
<stop offset="0.684709" stop-color="#9C9FA1"/>
<stop offset="0.9958" stop-color="#7D7F82"/>
</radialGradient>
<radialGradient id="paint16_radial" cx="0" cy="0" r="1" gradientUnits="userSpaceOnUse" gradientTransform="translate(504.139 230.161) rotate(-134.981) scale(43.5686 42.8187)">
<stop stop-opacity="0.22"/>
<stop offset="1" stop-opacity="0"/>
</radialGradient>
<linearGradient id="paint17_linear" x1="678.238" y1="321.63" x2="422.801" y2="175.885" gradientUnits="userSpaceOnUse">
<stop stop-color="white"/>
<stop offset="0.139436" stop-color="#E6E7E8"/>
<stop offset="0.681302" stop-color="#9C9FA1"/>
<stop offset="0.9958" stop-color="#7D7F82"/>
</linearGradient>
<radialGradient id="paint18_radial" cx="0" cy="0" r="1" gradientUnits="userSpaceOnUse" gradientTransform="translate(490.184 273.018) rotate(23.8091) scale(133.596 198.175)">
<stop stop-opacity="0.53"/>
<stop offset="0.755208" stop-opacity="0"/>
</radialGradient>
<linearGradient id="paint19_linear" x1="515.199" y1="291.798" x2="425.503" y2="260.599" gradientUnits="userSpaceOnUse">
<stop stop-color="white"/>
<stop offset="0.117453" stop-color="#E6E7E8"/>
<stop offset="0.548341" stop-color="#9C9FA1"/>
<stop offset="0.914415" stop-color="#7D7F82"/>
</linearGradient>
<linearGradient id="paint20_linear" x1="477.342" y1="283.184" x2="465.485" y2="301.784" gradientUnits="userSpaceOnUse">
<stop stop-opacity="0.5"/>
<stop offset="1" stop-opacity="0"/>
</linearGradient>
<linearGradient id="paint21_linear" x1="575.358" y1="279.278" x2="584.023" y2="244.863" gradientUnits="userSpaceOnUse">
<stop offset="0.0889824" stop-color="white"/>
<stop offset="0.448235" stop-color="#E6E7E8"/>
<stop offset="0.837612" stop-color="#9C9FA1"/>
<stop offset="0.987938" stop-color="#7D7F82"/>
</linearGradient>
<linearGradient id="paint22_linear" x1="566.215" y1="260.016" x2="460.823" y2="269.946" gradientUnits="userSpaceOnUse">
<stop stop-color="white"/>
<stop offset="0.286029" stop-color="#E6E7E8"/>
<stop offset="0.7292" stop-color="#9C9FA1"/>
<stop offset="0.9958" stop-color="#7D7F82"/>
</linearGradient>
<linearGradient id="paint23_linear" x1="583.057" y1="271.573" x2="463.471" y2="227.983" gradientUnits="userSpaceOnUse">
<stop stop-color="white"/>
<stop offset="0.117453" stop-color="#E6E7E8"/>
<stop offset="0.548341" stop-color="#9C9FA1"/>
<stop offset="0.914415" stop-color="#7D7F82"/>
</linearGradient>
<linearGradient id="paint24_linear" x1="532.049" y1="260.498" x2="517.117" y2="285.047" gradientUnits="userSpaceOnUse">
<stop stop-opacity="0.5"/>
<stop offset="1" stop-opacity="0"/>
</linearGradient>
<linearGradient id="paint25_linear" x1="531.568" y1="268.203" x2="523.862" y2="277.828" gradientUnits="userSpaceOnUse">
<stop/>
<stop offset="1" stop-opacity="0"/>
</linearGradient>
<linearGradient id="paint26_linear" x1="538.305" y1="287.945" x2="524.271" y2="249.155" gradientUnits="userSpaceOnUse">
<stop stop-color="white"/>
<stop offset="0.576553" stop-color="#E6E7E8"/>
<stop offset="0.818241" stop-color="#7D7F82" stop-opacity="0"/>
</linearGradient>
<linearGradient id="paint27_linear" x1="353.521" y1="278.315" x2="430.019" y2="326.926" gradientUnits="userSpaceOnUse">
<stop stop-color="white"/>
<stop offset="0.3545" stop-color="#E6E7E8"/>
<stop offset="0.882054" stop-color="#9C9FA1"/>
<stop offset="1" stop-color="#7D7F82"/>
</linearGradient>
<linearGradient id="paint28_linear" x1="485.853" y1="351.026" x2="393.853" y2="203.251" gradientUnits="userSpaceOnUse">
<stop offset="0.150995" stop-color="white"/>
<stop offset="0.464012" stop-color="#E6E7E8"/>
<stop offset="0.851129" stop-color="#9C9FA1"/>
<stop offset="1" stop-color="#7D7F82"/>
</linearGradient>
<radialGradient id="paint29_radial" cx="0" cy="0" r="1" gradientUnits="userSpaceOnUse" gradientTransform="translate(510.876 193.565) rotate(95.0987) scale(54.1459 72.4366)">
<stop stop-opacity="0.61"/>
<stop offset="1" stop-color="white" stop-opacity="0"/>
</radialGradient>
<linearGradient id="paint30_linear" x1="507.989" y1="182.49" x2="507.989" y2="239.311" gradientUnits="userSpaceOnUse">
<stop stop-color="white" stop-opacity="0"/>
<stop offset="0.49136" stop-color="white"/>
<stop offset="0.890625" stop-color="white" stop-opacity="0"/>
</linearGradient>
<linearGradient id="paint31_linear" x1="561.884" y1="200.306" x2="503.382" y2="227.568" gradientUnits="userSpaceOnUse">
<stop stop-color="white"/>
<stop offset="0.361841" stop-color="#E6E7E8"/>
<stop offset="0.701984" stop-color="#9C9FA1"/>
<stop offset="0.914415" stop-color="#7D7F82"/>
</linearGradient>
<linearGradient id="paint32_linear" x1="517.613" y1="212.345" x2="534.52" y2="229.9" gradientUnits="userSpaceOnUse">
<stop stop-opacity="0.5"/>
<stop offset="1" stop-opacity="0"/>
</linearGradient>
<linearGradient id="paint33_linear" x1="534.936" y1="329.357" x2="561.89" y2="317.813" gradientUnits="userSpaceOnUse">
<stop stop-color="white"/>
<stop offset="0.440982" stop-color="white" stop-opacity="0"/>
</linearGradient>
<radialGradient id="paint34_radial" cx="0" cy="0" r="1" gradientUnits="userSpaceOnUse" gradientTransform="translate(450.725 288.908) scale(41.3839 56.9472)">
<stop offset="0.0364583" stop-color="#626973"/>
<stop offset="1" stop-color="#656B75" stop-opacity="0"/>
</radialGradient>
<radialGradient id="paint35_radial" cx="0" cy="0" r="1" gradientUnits="userSpaceOnUse" gradientTransform="translate(219.404 146.67) rotate(89.2433) scale(62.3098 62.3715)">
<stop stop-color="white" stop-opacity="0.01"/>
<stop offset="0.671442" stop-color="#D1D1D1" stop-opacity="0.31"/>
<stop offset="1" stop-color="#A3A3A3" stop-opacity="0.38"/>
</radialGradient>
<radialGradient id="paint36_radial" cx="0" cy="0" r="1" gradientUnits="userSpaceOnUse" gradientTransform="translate(174.551 129.16) rotate(102.911) scale(6.00204 30.2832)">
<stop stop-color="white" stop-opacity="0.01"/>
<stop offset="0.355609" stop-color="#D1D1D1" stop-opacity="0.31"/>
<stop offset="1" stop-color="#A3A3A3" stop-opacity="0.38"/>
</radialGradient>
<linearGradient id="paint37_linear" x1="556.162" y1="254.843" x2="536.582" y2="228.678" gradientUnits="userSpaceOnUse">
<stop offset="0.150995" stop-color="white"/>
<stop offset="0.464012" stop-color="#E6E7E8"/>
<stop offset="0.851129" stop-color="#9C9FA1"/>
<stop offset="1" stop-color="#7D7F82"/>
</linearGradient>
<radialGradient id="paint38_radial" cx="0" cy="0" r="1" gradientUnits="userSpaceOnUse" gradientTransform="translate(602.305 262.424) rotate(56.5415) scale(35.7851 46.2312)">
<stop offset="0.317708" stop-color="#C4C4C4" stop-opacity="0"/>
<stop offset="0.994792" stop-color="#5A5A5A" stop-opacity="0.42"/>
</radialGradient>
</defs>
</svg>
