<svg width="862" height="381" viewBox="0 0 862 381" fill="none" xmlns="http://www.w3.org/2000/svg">
<mask id="path-1-outside-1" maskUnits="userSpaceOnUse" x="0.507416" y="39.4435" width="350.374" height="341.986" fill="black">
<rect fill="white" x="0.507416" y="39.4435" width="350.374" height="341.986"/>
<path d="M142.815 148.442L140.274 96.2319L151.004 104.62L152.903 82.9235L194.881 148.442L181.331 181.405L292.578 285.731L141.729 285.172L94.7987 208.631L89.6241 99.5201L142.815 148.442Z"/>
</mask>
<path d="M142.815 148.442L140.274 96.2319L151.004 104.62L152.903 82.9235L194.881 148.442L181.331 181.405L292.578 285.731L141.729 285.172L94.7987 208.631L89.6241 99.5201L142.815 148.442Z" fill="white"/>
<path d="M292.578 285.731L298.05 279.896L312.884 293.806L292.548 293.731L292.578 285.731ZM89.6241 99.5201L81.6331 99.8991L80.7108 80.4529L95.0397 93.6319L89.6241 99.5201ZM142.815 148.442L150.805 148.053L151.753 167.533L137.399 154.33L142.815 148.442ZM94.7987 208.631L87.9786 212.812L86.905 211.061L86.8077 209.01L94.7987 208.631ZM141.729 285.172L141.7 293.172L137.24 293.156L134.909 289.354L141.729 285.172ZM181.331 181.405L175.858 187.24L171.834 183.466L173.932 178.363L181.331 181.405ZM152.903 82.9235L144.934 82.2259C145.232 78.8156 147.668 75.9731 150.992 75.1552C154.316 74.3373 157.792 75.7252 159.639 78.6077L152.903 82.9235ZM151.004 104.62L158.974 105.318L157.688 120L146.077 110.923L151.004 104.62ZM140.274 96.2319L132.283 96.6208C132.131 93.4952 133.816 90.5678 136.594 89.1284C139.373 87.6891 142.736 88.002 145.201 89.9293L140.274 96.2319ZM194.881 148.442L201.617 144.126C203.025 146.324 203.272 149.07 202.28 151.484L194.881 148.442ZM95.0397 93.6319L148.231 142.554L137.399 154.33L84.2084 105.408L95.0397 93.6319ZM86.8077 209.01L81.6331 99.8991L97.6151 99.1411L102.79 208.252L86.8077 209.01ZM101.619 204.449L148.549 280.991L134.909 289.354L87.9786 212.812L101.619 204.449ZM141.759 277.172L292.607 277.731L292.548 293.731L141.7 293.172L141.759 277.172ZM287.105 291.567L175.858 187.24L186.803 175.569L298.05 279.896L287.105 291.567ZM160.873 83.6211L158.974 105.318L143.035 103.923L144.934 82.2259L160.873 83.6211ZM146.077 110.923L135.347 102.535L145.201 89.9293L155.931 98.3175L146.077 110.923ZM148.264 95.8431L150.805 148.053L134.824 148.831L132.283 96.6208L148.264 95.8431ZM173.932 178.363L187.482 145.401L202.28 151.484L188.73 184.446L173.932 178.363ZM188.145 152.758L146.167 87.2393L159.639 78.6077L201.617 144.126L188.145 152.758Z" fill="black" mask="url(#path-1-outside-1)"/>
<path d="M146.298 150.374L292.578 285.731L94.9071 209.109L92.4231 107.915L146.298 150.374Z" fill="#F2F2F2"/>
<path d="M90.3506 101.613L184.557 185.276L94.2221 209.15L90.3506 101.613Z" fill="url(#paint0_linear)"/>
<g filter="url(#filter0_d)">
<path d="M292.577 285.731L182.079 186.771L93.4594 209.561L292.577 285.731Z" fill="url(#paint1_linear)"/>
</g>
<g filter="url(#filter1_d)">
<path d="M293.695 286.322L140.487 286.322L93.4597 209.561L182.793 182.05L293.695 286.322Z" fill="url(#paint2_linear)"/>
<path d="M94.9903 210.132L141.055 285.321L291.158 285.321L182.519 183.176L94.9903 210.132Z" stroke="black" stroke-width="2"/>
</g>
<path fill-rule="evenodd" clip-rule="evenodd" d="M119.615 313.116L131.229 307.496L120.555 300.248L120.167 305.557C105.023 304.295 86.5948 302.21 72.497 299.357C65.2539 297.892 59.2429 296.24 55.4111 294.432C53.4757 293.519 52.241 292.631 51.6381 291.824C51.3505 291.439 51.2373 291.114 51.2194 290.837C51.2019 290.566 51.2688 290.242 51.5166 289.84C52.865 287.654 56.0684 285.588 60.7187 283.733C65.3064 281.904 71.0725 280.368 77.2481 279.104C89.5937 276.578 103.424 275.171 112.386 274.652L112.257 272.421C103.222 272.944 89.28 274.361 76.8001 276.914C70.5629 278.191 64.6527 279.759 59.8909 281.658C55.1916 283.531 51.3721 285.817 49.6145 288.667C49.1667 289.393 48.9369 290.172 48.9892 290.981C49.0412 291.785 49.3644 292.515 49.8478 293.162C50.7868 294.419 52.4319 295.498 54.4575 296.454C58.5477 298.383 64.7826 300.076 72.0538 301.548C86.2841 304.427 104.824 306.522 120.004 307.786L119.615 313.116Z" fill="black"/>
<path fill-rule="evenodd" clip-rule="evenodd" d="M108.283 70.1699L119.541 76.4732L108.453 83.0713L108.383 77.75C93.1556 78.1304 74.5708 79.2303 60.2354 81.526C52.8706 82.7055 46.7232 84.1865 42.7342 86.0022C40.7281 86.9153 39.396 87.8572 38.6939 88.7785C38.0527 89.62 37.9288 90.4375 38.3432 91.3955C39.4981 94.0651 42.5109 96.682 46.9494 99.1465C51.3427 101.586 56.9398 103.772 62.9752 105.673C75.0409 109.474 88.6959 112.086 97.5818 113.324L97.2732 115.538C88.3034 114.287 74.5204 111.653 62.3037 107.805C56.1979 105.881 50.4426 103.642 45.8646 101.1C41.3318 98.5835 37.7543 95.6627 36.2921 92.2828C35.5342 90.5307 35.8209 88.8616 36.9164 87.424C37.9512 86.0661 39.682 84.9361 41.8084 83.9682C46.0843 82.0219 52.4799 80.5048 59.8821 79.3194C74.3705 76.9991 93.0834 75.8959 108.354 75.5153L108.283 70.1699Z" fill="black"/>
<g filter="url(#filter2_d)">
<path d="M151.649 80.1008L195.525 148.497L140.42 287.068L151.649 80.1008Z" fill="url(#paint3_linear)"/>
<path d="M141.75 281.018L152.48 83.2478L194.406 148.605L141.75 281.018Z" stroke="black" stroke-width="2"/>
</g>
<path fill-rule="evenodd" clip-rule="evenodd" d="M464.733 77.5817L455.853 139.657L464.6 151.202L486.811 177.283L528.609 220.559L587.775 280.742H430.759L432.059 277.357L431.961 272.141L421.848 271.564L428.664 164H369.448L382.166 147.712L428.664 104.189V14.682L440.406 44.9614L442.13 13.7109L464.733 77.5817ZM435.5 13.7109L437 4.10962H447.5L473.333 74.1784C473.333 74.1784 474.046 77.3988 473.812 79.0341L463 138L470.5 147.712L491.5 174L536.5 220.559L593 276C595.7 278.746 597.692 280.696 596.292 284.371C594.892 288.046 591.521 290.452 587.775 290.452H430.759C427.703 290.452 424.848 288.845 423.142 286.165C422.203 284.69 421.679 282.997 421.59 281.274L421.353 281.26C416.319 280.973 414.269 276.89 414.5 271.564L419.481 172H362C358.242 172 355.84 171.691 354.448 168C353.056 164.309 359 159 359 159L422.5 101L419.481 14.682C419.481 12.5788 419.481 7 419.481 7L426.888 5.15501L435.5 13.7109Z" fill="black"/>
<path d="M525.009 221.485L528.522 231.437L533.207 248.852L496.899 265.024L537.892 282.44L529.694 281.196L420.769 274.976L425.454 166.75H389.145L379.775 148.09L425.454 104.551L427.796 107.303V10.0093L452.392 73.4519L446.976 129.83L525.009 221.485Z" fill="white"/>
<path d="M528.522 231.437L525.009 221.485L425.454 104.551L379.775 148.09L389.145 166.75H425.454L420.769 274.976L529.694 281.196L537.892 282.44L496.899 265.024L533.207 248.852L528.522 231.437ZM427.796 10.0093V119.479L446.536 134.407L452.392 73.4519L427.796 10.0093Z" stroke="black" stroke-width="3"/>
<path d="M434.69 135.797L441.682 9.00781L464.988 74.8886L454.5 148.228L434.69 135.797Z" fill="white" stroke="black" stroke-width="3"/>
<path d="M591.86 284.443L530.853 222.365L475.712 165.254L429.956 284.443H591.86Z" fill="white" stroke="black" stroke-width="3"/>
<path d="M431.343 283.441L429.009 158.973L460.518 155.239L479.19 168.93L431.343 283.441Z" fill="white" stroke="black" stroke-width="3"/>
<path d="M359.892 167.258L379.851 147.226L427.987 102.155L477.296 167.258H359.892Z" fill="white" stroke="black" stroke-width="3"/>
<line y1="-1.5" x2="67.1465" y2="-1.5" transform="matrix(0.524791 0.851231 -0.823117 0.567871 377.074 125.807)" stroke="#878787" stroke-width="3" stroke-dasharray="3 3"/>
<path fill-rule="evenodd" clip-rule="evenodd" d="M357.711 105.161C353.81 116.028 354.244 128.044 358.795 137.64C363.358 147.264 372.025 154.381 384.453 155.5L382.979 151.733L390.553 155.5L382.124 159.909L383.772 156.79C370.904 155.67 362.03 148.34 357.385 138.544C352.751 128.77 352.289 116.469 356.353 105.248L357.711 105.161Z" fill="black"/>
<path fill-rule="evenodd" clip-rule="evenodd" d="M582.18 217.498C586.769 225.193 587.849 235.961 585.174 246.56C582.492 257.19 576.055 267.57 565.731 274.468L564.028 272.575L560.616 278.013L568.222 277.234L566.46 275.278C577.154 268.169 583.739 257.504 586.469 246.683C589.193 235.888 588.102 224.856 583.333 216.929L582.18 217.498Z" fill="black"/>
<path fill-rule="evenodd" clip-rule="evenodd" d="M536.835 320.5L536.835 318.997L539.675 318.997L539.675 320.5L536.835 320.5ZM536.835 315.993L536.835 312.988L539.675 312.988L539.675 315.993L536.835 315.993ZM536.835 309.983L536.835 306.979L539.675 306.979L539.675 309.983L536.835 309.983ZM536.835 303.974L536.835 300.969L539.675 300.969L539.675 303.974L536.835 303.974ZM536.835 297.964L536.835 294.96L539.675 294.96L539.675 297.964L536.835 297.964ZM536.835 291.955L536.835 288.95L539.675 288.95L539.675 291.955L536.835 291.955ZM536.835 285.945L536.835 282.941L539.675 282.941L539.675 285.945L536.835 285.945ZM536.835 279.936L536.835 276.931L539.675 276.931L539.675 279.936L536.835 279.936ZM536.835 273.926L536.835 270.922L539.675 270.922L539.675 273.926L536.835 273.926ZM536.835 267.917L536.835 264.912L539.675 264.912L539.675 267.917L536.835 267.917ZM536.835 261.907L536.835 258.903L539.675 258.903L539.675 261.907L536.835 261.907ZM536.835 255.898L536.835 252.893L539.675 252.893L539.675 255.898L536.835 255.898ZM536.835 249.888L536.835 246.884L539.675 246.884L539.675 249.888L536.835 249.888ZM536.835 243.879L536.835 240.874L539.675 240.874L539.675 243.879L536.835 243.879ZM536.835 237.869L536.835 234.865L539.675 234.865L539.675 237.869L536.835 237.869ZM536.835 231.86L536.835 228.855L539.675 228.855L539.675 231.86L536.835 231.86ZM536.835 225.85L536.835 222.846L539.675 222.846L539.675 225.85L536.835 225.85ZM536.835 219.841L536.835 216.836L539.675 216.836L539.675 219.841L536.835 219.841ZM536.835 213.831L536.835 210.827L539.675 210.827L539.675 213.831L536.835 213.831ZM536.835 207.822L536.835 204.817L539.675 204.817L539.675 207.822L536.835 207.822ZM536.835 201.812L536.835 200.31L539.675 200.31L539.675 201.812L536.835 201.812Z" fill="#878787"/>
<path fill-rule="evenodd" clip-rule="evenodd" d="M561.847 220.273L562.276 218.876L564.977 219.804L564.548 221.201L561.847 220.273ZM560.131 225.862L560.989 223.067L563.69 223.995L562.833 226.79L560.131 225.862ZM558.415 231.45L559.273 228.656L561.975 229.584L561.117 232.378L558.415 231.45ZM556.7 237.039L557.558 234.245L560.259 235.173L559.401 237.967L556.7 237.039ZM554.984 242.628L555.842 239.833L558.544 240.761L557.686 243.556L554.984 242.628ZM553.269 248.216L554.126 245.422L556.828 246.35L555.97 249.144L553.269 248.216ZM551.553 253.805L552.411 251.011L555.112 251.939L554.255 254.733L551.553 253.805ZM549.837 259.394L550.695 256.599L553.397 257.527L552.539 260.322L549.837 259.394ZM548.122 264.982L548.98 262.188L551.681 263.116L550.823 265.91L548.122 264.982ZM546.406 270.571L547.264 267.777L549.965 268.705L549.108 271.499L546.406 270.571ZM544.691 276.16L545.548 273.365L548.25 274.293L547.392 277.088L544.691 276.16ZM542.975 281.748L543.833 278.954L546.534 279.882L545.676 282.676L542.975 281.748ZM541.259 287.337L542.117 284.543L544.819 285.471L543.961 288.265L541.259 287.337ZM539.544 292.926L540.402 290.131L543.103 291.059L542.245 293.854L539.544 292.926ZM537.828 298.514L538.686 295.72L541.387 296.648L540.53 299.442L537.828 298.514ZM536.541 302.706L536.97 301.309L539.672 302.237L539.243 303.634L536.541 302.706Z" fill="#878787"/>
<path fill-rule="evenodd" clip-rule="evenodd" d="M727.025 1.55874L737.059 0L763.939 69.6525L753.651 135.6L763.842 148.172L786.534 173.312L835.491 221.051V241.236L835.646 241.778L861.51 221.048L841.715 291.36L835.491 290.469V292.846H711.371L715.239 283.361L703.688 282.738L708.714 173.228L679.544 174.492L676.763 170.733H671.21L657.527 145.03L657.664 144.908L657 144.011L711.649 96.204V2.90996L721.651 0.934698L726.371 12.4195L727.025 1.55874ZM725.739 282.454H825.099V278.484L834.179 279.783L842.727 249.421L829.942 259.668L825.099 242.689V225.432L779.042 180.521L755.944 154.93L742.672 138.559L753.243 70.799L735.964 26.0254L735.381 35.7024L725.389 37.3657L722.041 29.2202V100.92L671.048 145.529L671.634 146.322L670.521 147.323L677.451 160.341H682.003L684.613 163.871L719.616 162.355L714.542 272.916L725.561 273.51L725.739 282.454Z" fill="black"/>
<path d="M823.775 223.367L827.64 233.692L832.793 251.762L852.118 236.274L837.947 286.611L828.929 285.32L709.115 278.867L714.268 166.576H674.33L664.024 147.216L714.268 102.042L716.845 104.896V3.94922L743.899 69.7745L737.942 128.27L823.775 223.367Z" fill="white"/>
<path d="M827.64 233.692L823.775 223.367L714.268 102.042L664.024 147.216L674.33 166.576H714.268L709.115 278.867L828.929 285.32L837.947 286.611L852.118 236.274L832.793 251.762L827.64 233.692ZM716.845 3.94922V117.53L737.458 133.018L743.899 69.7745L716.845 3.94922Z" stroke="black" stroke-width="3"/>
<path d="M724.297 134.461L732.211 2.90991L758.591 71.2649L746.72 147.358L724.297 134.461Z" fill="white" stroke="black" stroke-width="3"/>
<path d="M830.295 288.689V224.28L769.527 165.024L719.101 288.689H830.295Z" fill="white" stroke="black" stroke-width="3"/>
<path d="M720.624 287.65L718.062 158.507L752.646 154.633L773.139 168.838L720.624 287.65Z" fill="white" stroke="black" stroke-width="3"/>
<path d="M682.078 170.221L664.024 145.809L716.898 99.5552L771.061 166.366L682.078 170.221Z" fill="white" stroke="black" stroke-width="3"/>
<path d="M197 342.596V341.676H201.351V342.278L200.068 345.334C199.446 346.713 199.049 348.023 198.875 349.266H197.761C197.913 348.061 198.28 346.804 198.863 345.494L200.136 342.596H197Z" fill="black"/>
<path d="M203.229 348.755C203.229 348.511 203.118 348.337 202.896 348.234C202.822 348.197 202.745 348.178 202.663 348.178C202.419 348.178 202.249 348.289 202.153 348.511C202.116 348.593 202.097 348.674 202.097 348.755C202.097 348.992 202.205 349.162 202.419 349.266C202.501 349.303 202.582 349.321 202.663 349.321C202.9 349.321 203.07 349.214 203.174 348.999C203.211 348.918 203.229 348.837 203.229 348.755Z" fill="black"/>
<path d="M446.829 348.43C447.613 348.43 448.242 348.212 448.715 347.775C449.07 347.442 449.248 347.054 449.248 346.61C449.248 346.048 448.93 345.556 448.294 345.135C448.146 345.038 447.968 344.931 447.761 344.813C448.397 344.495 448.76 344.025 448.848 343.404C448.863 343.322 448.871 343.241 448.871 343.16C448.871 342.509 448.567 342.043 447.961 341.762C447.658 341.621 447.328 341.551 446.973 341.551C446.211 341.551 445.638 341.784 445.254 342.25C445.017 342.538 444.899 342.882 444.899 343.282C444.899 343.836 445.246 344.328 445.941 344.757C446.03 344.809 446.119 344.861 446.208 344.913C445.424 345.127 444.936 345.556 444.743 346.2C444.691 346.362 444.666 346.525 444.666 346.688C444.666 347.383 444.995 347.886 445.653 348.197C445.993 348.352 446.385 348.43 446.829 348.43ZM445.764 342.882C445.764 342.394 446.019 342.076 446.53 341.928C446.692 341.884 446.87 341.861 447.062 341.861C447.558 341.861 447.946 342.035 448.227 342.383C448.405 342.612 448.493 342.875 448.493 343.171C448.493 343.681 448.279 344.095 447.85 344.413C447.724 344.51 447.591 344.587 447.45 344.646C446.77 344.291 446.322 343.992 446.108 343.748C445.879 343.481 445.764 343.193 445.764 342.882ZM445.043 346.666C445.043 346.185 445.261 345.789 445.697 345.479C445.949 345.301 446.241 345.179 446.574 345.112C447.262 345.467 447.713 345.745 447.928 345.945C448.231 346.218 448.382 346.529 448.382 346.877C448.382 347.461 448.072 347.846 447.45 348.03C447.236 348.09 447.003 348.119 446.751 348.119C446.138 348.119 445.668 347.923 445.342 347.531C445.143 347.287 445.043 346.999 445.043 346.666Z" fill="black"/>
<path d="M451.656 347.809C451.656 347.564 451.545 347.391 451.323 347.287C451.249 347.25 451.171 347.232 451.09 347.232C450.846 347.232 450.676 347.343 450.579 347.564C450.542 347.646 450.524 347.727 450.524 347.809C450.524 348.045 450.631 348.215 450.846 348.319C450.927 348.356 451.008 348.374 451.09 348.374C451.326 348.374 451.497 348.267 451.6 348.053C451.637 347.971 451.656 347.89 451.656 347.809Z" fill="black"/>
<path d="M789.954 345.6C789.954 344.269 789.606 343.326 788.911 342.771C788.534 342.475 788.082 342.327 787.557 342.327C786.766 342.327 786.163 342.597 785.749 343.137C785.482 343.492 785.349 343.903 785.349 344.369C785.349 345.138 785.652 345.7 786.259 346.055C786.599 346.255 786.98 346.355 787.402 346.355C788.001 346.347 788.519 346.162 788.955 345.8C788.903 347.871 788.363 348.91 787.335 348.918C786.914 348.918 786.658 348.755 786.57 348.43C786.555 348.37 786.54 348.274 786.525 348.141C786.488 347.845 786.411 347.66 786.292 347.586C786.203 347.535 786.096 347.509 785.97 347.509C785.682 347.509 785.512 347.642 785.46 347.908C785.453 347.953 785.449 347.997 785.449 348.041C785.449 348.448 785.678 348.762 786.137 348.984C786.448 349.132 786.803 349.206 787.202 349.206C788.467 349.206 789.303 348.585 789.71 347.342C789.872 346.832 789.954 346.251 789.954 345.6ZM786.292 344.224C786.292 343.233 786.658 342.701 787.391 342.627C787.45 342.619 787.505 342.616 787.557 342.616C788.215 342.616 788.641 342.952 788.833 343.625C788.892 343.847 788.922 344.088 788.922 344.347C788.922 345.256 788.596 345.8 787.945 345.978C787.82 346.007 787.683 346.022 787.535 346.022C786.714 346.007 786.3 345.408 786.292 344.224Z" fill="black"/>
<path d="M792.195 347.808C792.195 347.564 792.084 347.39 791.862 347.287C791.788 347.25 791.71 347.231 791.629 347.231C791.385 347.231 791.215 347.342 791.119 347.564C791.082 347.646 791.063 347.727 791.063 347.808C791.063 348.045 791.171 348.215 791.385 348.319C791.466 348.356 791.548 348.374 791.629 348.374C791.866 348.374 792.036 348.267 792.14 348.052C792.176 347.971 792.195 347.89 792.195 347.808Z" fill="black"/>
<defs>
<filter id="filter0_d" x="89.4595" y="178.771" width="207.118" height="106.96" filterUnits="userSpaceOnUse" color-interpolation-filters="sRGB">
<feFlood flood-opacity="0" result="BackgroundImageFix"/>
<feColorMatrix in="SourceAlpha" type="matrix" values="0 0 0 0 0 0 0 0 0 0 0 0 0 0 0 0 0 0 127 0"/>
<feOffset dy="-4"/>
<feGaussianBlur stdDeviation="2"/>
<feColorMatrix type="matrix" values="0 0 0 0 0 0 0 0 0 0 0 0 0 0 0 0 0 0 0.05 0"/>
<feBlend mode="normal" in2="BackgroundImageFix" result="effect1_dropShadow"/>
<feBlend mode="normal" in="SourceGraphic" in2="effect1_dropShadow" result="shape"/>
</filter>
<filter id="filter1_d" x="89.4597" y="174.05" width="208.235" height="112.272" filterUnits="userSpaceOnUse" color-interpolation-filters="sRGB">
<feFlood flood-opacity="0" result="BackgroundImageFix"/>
<feColorMatrix in="SourceAlpha" type="matrix" values="0 0 0 0 0 0 0 0 0 0 0 0 0 0 0 0 0 0 127 0"/>
<feOffset dy="-4"/>
<feGaussianBlur stdDeviation="2"/>
<feColorMatrix type="matrix" values="0 0 0 0 0 0 0 0 0 0 0 0 0 0 0 0 0 0 0.05 0"/>
<feBlend mode="normal" in2="BackgroundImageFix" result="effect1_dropShadow"/>
<feBlend mode="normal" in="SourceGraphic" in2="effect1_dropShadow" result="shape"/>
</filter>
<filter id="filter2_d" x="38.4656" y="72.1008" width="215.138" height="214.967" filterUnits="userSpaceOnUse" color-interpolation-filters="sRGB">
<feFlood flood-opacity="0" result="BackgroundImageFix"/>
<feColorMatrix in="SourceAlpha" type="matrix" values="0 0 0 0 0 0 0 0 0 0 0 0 0 0 0 0 0 0 127 0"/>
<feOffset dy="-4"/>
<feGaussianBlur stdDeviation="2"/>
<feColorMatrix type="matrix" values="0 0 0 0 0 0 0 0 0 0 0 0 0 0 0 0 0 0 0.05 0"/>
<feBlend mode="normal" in2="BackgroundImageFix" result="effect1_dropShadow"/>
<feBlend mode="normal" in="SourceGraphic" in2="effect1_dropShadow" result="shape"/>
</filter>
<linearGradient id="paint0_linear" x1="267.679" y1="269.828" x2="72.7299" y2="277.92" gradientUnits="userSpaceOnUse">
<stop offset="0.0113715" stop-color="#E1E1E1"/>
<stop offset="0.258671" stop-color="#F2F2F2"/>
<stop offset="0.854061" stop-color="white"/>
</linearGradient>
<linearGradient id="paint1_linear" x1="287.769" y1="304.518" x2="103.081" y2="234.227" gradientUnits="userSpaceOnUse">
<stop offset="0.0113715" stop-color="#E1E1E1"/>
<stop offset="0.231124" stop-color="#F2F2F2"/>
<stop offset="0.854061" stop-color="white"/>
</linearGradient>
<linearGradient id="paint2_linear" x1="287.769" y1="304.518" x2="68.5398" y2="313.487" gradientUnits="userSpaceOnUse">
<stop offset="0.0113715" stop-color="#E1E1E1"/>
<stop offset="0.258671" stop-color="#F2F2F2"/>
<stop offset="0.854061" stop-color="white"/>
</linearGradient>
<linearGradient id="paint3_linear" x1="202.951" y1="80.3358" x2="46.5604" y2="231.601" gradientUnits="userSpaceOnUse">
<stop offset="0.0113715" stop-color="#E1E1E1"/>
<stop offset="0.258671" stop-color="#F2F2F2"/>
<stop offset="0.854061" stop-color="white"/>
</linearGradient>
</defs>
</svg>
