<svg width="791" height="311" viewBox="0 0 791 311" fill="none" xmlns="http://www.w3.org/2000/svg">
<path d="M244.676 158.685L247.507 155.856L244.676 153.027L129.768 38.1851L126.94 35.3591L124.113 38.1851L9.20438 153.027L6.37348 155.856L9.20438 158.685L124.112 273.526L126.94 276.352L129.768 273.526L244.676 158.685Z" fill="url(#paint0_linear)" stroke="black" stroke-width="8"/>
<path d="M241.848 154.842L126.94 40L12.0315 154.842H241.848Z" fill="url(#paint1_linear)"/>
<g filter="url(#filter0_d)">
<path d="M12.0312 154.841L126.939 269.683L241.848 154.841L12.0312 154.841Z" fill="url(#paint2_linear)"/>
</g>
<path fill-rule="evenodd" clip-rule="evenodd" d="M10.5035 154.842H10.0001V154.334H10.5035V154.842ZM15.5376 154.842H14.5308V154.334H15.5376V154.842ZM20.5718 154.842H19.5649V154.334H20.5718V154.842ZM25.6059 154.842H24.5991V154.334H25.6059V154.842ZM30.64 154.842H29.6332V154.334H30.64V154.842ZM35.6741 154.842H34.6673V154.334H35.6741V154.842ZM40.7082 154.842H39.7014V154.334H40.7082V154.842ZM45.7423 154.842H44.7355V154.334H45.7423V154.842ZM50.7765 154.842H49.7696V154.334H50.7765V154.842ZM55.8106 154.842H54.8038V154.334H55.8106V154.842ZM60.8447 154.842H59.8379V154.334H60.8447V154.842ZM65.8788 154.842H64.872V154.334H65.8788V154.842ZM70.9129 154.842H69.9061V154.334H70.9129V154.842ZM75.947 154.842H74.9402V154.334H75.947V154.842ZM80.9812 154.842H79.9743V154.334H80.9812V154.842ZM86.0153 154.842H85.0085V154.334H86.0153V154.842ZM91.0494 154.842H90.0426V154.334H91.0494V154.842ZM96.0835 154.842H95.0767V154.334H96.0835V154.842ZM101.118 154.842H100.111V154.334H101.118V154.842ZM106.152 154.842H105.145V154.334H106.152V154.842ZM111.186 154.842H110.179V154.334H111.186V154.842ZM116.22 154.842H115.213V154.334H116.22V154.842ZM121.254 154.842H120.247V154.334H121.254V154.842ZM126.288 154.842H125.281V154.334H126.288V154.842ZM131.322 154.842H130.316V154.334H131.322V154.842ZM136.356 154.842H135.35V154.334H136.356V154.842ZM141.391 154.842H140.384V154.334H141.391V154.842ZM146.425 154.842H145.418V154.334H146.425V154.842ZM151.459 154.842H150.452V154.334H151.459V154.842ZM156.493 154.842H155.486V154.334H156.493V154.842ZM161.527 154.842H160.52V154.334H161.527V154.842ZM166.561 154.842H165.554V154.334H166.561V154.842ZM171.595 154.842H170.588V154.334H171.595V154.842ZM176.629 154.842H175.623V154.334H176.629V154.842ZM181.663 154.842H180.657V154.334H181.663V154.842ZM186.698 154.842H185.691V154.334H186.698V154.842ZM191.732 154.842H190.725V154.334H191.732V154.842ZM196.766 154.842H195.759V154.334H196.766V154.842ZM201.8 154.842H200.793V154.334H201.8V154.842ZM206.834 154.842H205.827V154.334H206.834V154.842ZM211.868 154.842H210.861V154.334H211.868V154.842ZM216.902 154.842H215.895V154.334H216.902V154.842ZM221.936 154.842H220.93V154.334H221.936V154.842ZM226.971 154.842H225.964V154.334H226.971V154.842ZM232.005 154.842H230.998V154.334H232.005V154.842ZM237.039 154.842H236.032V154.334H237.039V154.842ZM241.569 154.842H241.066V154.334H241.569V154.842Z" fill="black"/>
<path fill-rule="evenodd" clip-rule="evenodd" d="M120.465 73.6492C113.453 89.7497 103.091 120.447 103.091 149.004C103.091 178.062 113.818 213.96 120.837 232.861L123.617 231.814L122.481 238.83L116.872 234.354L119.669 233.301C112.635 214.365 101.84 178.29 101.84 149.004C101.84 120.194 112.284 89.3026 119.327 73.1383L120.465 73.6492Z" fill="black"/>
<path d="M695.387 265.428L698.215 268.2L701.015 265.399L782.536 183.859L785.34 181.054L782.559 178.227L701.038 95.3392L698.192 92.4451L695.34 95.3336L612.832 178.899L610.012 181.756L612.879 184.566L695.387 265.428Z" fill="white" stroke="black" stroke-width="8"/>
<path d="M615.001 181.031L698.187 264.022L779.707 181.031L698.371 98.3387L615.001 181.031Z" fill="#D4D4D4"/>
<path d="M697.692 263.046L697.692 98.3389L615 180.353L697.692 263.046Z" fill="url(#paint3_linear)"/>
<path fill-rule="evenodd" clip-rule="evenodd" d="M697.611 275.134L697.114 273.801L699.776 272.809L700.273 274.142L697.611 275.134ZM696.121 271.134L695.127 268.467L697.789 267.475L698.782 270.142L696.121 271.134ZM694.134 265.8L693.14 263.133L695.802 262.142L696.795 264.808L694.134 265.8ZM692.146 260.466L691.153 257.8L693.814 256.808L694.808 259.475L692.146 260.466ZM690.159 255.133L689.166 252.466L691.827 251.474L692.821 254.141L690.159 255.133ZM688.172 249.799L687.178 247.132L689.84 246.141L690.834 248.807L688.172 249.799ZM686.185 244.465L685.191 241.799L687.853 240.807L688.846 243.474L686.185 244.465ZM684.198 239.132L683.204 236.465L685.866 235.473L686.859 238.14L684.198 239.132ZM682.21 233.798L681.217 231.131L683.878 230.14L684.872 232.806L682.21 233.798ZM680.223 228.464L679.23 225.798L681.891 224.806L682.885 227.473L680.223 228.464ZM678.236 223.131L677.242 220.464L679.904 219.472L680.898 222.139L678.236 223.131ZM676.249 217.797L675.255 215.13L677.917 214.139L678.91 216.805L676.249 217.797ZM674.262 212.463L673.268 209.797L675.93 208.805L676.923 211.472L674.262 212.463ZM672.274 207.13L671.281 204.463L673.943 203.471L674.936 206.138L672.274 207.13ZM670.287 201.796L669.294 199.129L671.955 198.138L672.949 200.804L670.287 201.796ZM668.3 196.462L667.306 193.796L669.968 192.804L670.962 195.471L668.3 196.462ZM666.313 191.129L665.319 188.462L667.981 187.47L668.975 190.137L666.313 191.129ZM664.326 185.795L663.332 183.128L665.994 182.137L666.987 184.803L664.326 185.795ZM662.338 180.461L661.345 177.795L664.007 176.803L665 179.47L662.338 180.461ZM660.351 175.128L659.358 172.461L662.019 171.469L663.013 174.136L660.351 175.128ZM658.364 169.794L657.37 167.127L660.032 166.136L661.026 168.802L658.364 169.794ZM656.377 164.46L655.383 161.794L658.045 160.802L659.039 163.469L656.377 164.46ZM654.39 159.127L653.396 156.46L656.058 155.468L657.051 158.135L654.39 159.127ZM652.402 153.793L651.409 151.126L654.071 150.135L655.064 152.801L652.402 153.793ZM650.415 148.459L649.422 145.793L652.083 144.801L653.077 147.468L650.415 148.459ZM648.428 143.126L647.434 140.459L650.096 139.467L651.09 142.134L648.428 143.126ZM646.441 137.792L645.447 135.125L648.109 134.134L649.103 136.8L646.441 137.792ZM644.454 132.458L643.46 129.792L646.122 128.8L647.115 131.467L644.454 132.458ZM642.466 127.125L641.473 124.458L644.135 123.466L645.128 126.133L642.466 127.125ZM640.479 121.791L639.486 119.124L642.147 118.133L643.141 120.799L640.479 121.791ZM638.492 116.457L637.995 115.124L640.657 114.132L641.154 115.466L638.492 116.457Z" fill="#878787"/>
<path d="M699.048 98.339L699.048 263.046L779.707 181.031L699.048 98.339Z" fill="url(#paint4_linear)"/>
<path fill-rule="evenodd" clip-rule="evenodd" d="M694.373 274.548L694.848 273.207L697.525 274.156L697.049 275.498L694.373 274.548ZM695.8 270.525L696.751 267.843L699.428 268.792L698.477 271.474L695.8 270.525ZM697.703 265.16L698.654 262.478L701.331 263.428L700.38 266.11L697.703 265.16ZM699.605 259.796L700.557 257.114L703.234 258.064L702.282 260.746L699.605 259.796ZM701.508 254.432L702.46 251.75L705.137 252.7L704.185 255.382L701.508 254.432ZM703.411 249.068L704.363 246.386L707.04 247.335L706.088 250.017L703.411 249.068ZM705.314 243.704L706.266 241.021L708.943 241.971L707.991 244.653L705.314 243.704ZM707.217 238.339L708.168 235.657L710.845 236.607L709.894 239.289L707.217 238.339ZM709.12 232.975L710.071 230.293L712.748 231.243L711.797 233.925L709.12 232.975ZM711.023 227.611L711.974 224.929L714.651 225.878L713.7 228.561L711.023 227.611ZM712.926 222.247L713.877 219.565L716.554 220.514L715.603 223.196L712.926 222.247ZM714.829 216.882L715.78 214.2L718.457 215.15L717.506 217.832L714.829 216.882ZM716.731 211.518L717.683 208.836L720.36 209.786L719.408 212.468L716.731 211.518ZM718.634 206.154L719.586 203.472L722.263 204.421L721.311 207.104L718.634 206.154ZM720.537 200.79L721.489 198.108L724.166 199.057L723.214 201.739L720.537 200.79ZM722.44 195.425L723.392 192.743L726.069 193.693L725.117 196.375L722.44 195.425ZM724.343 190.061L725.294 187.379L727.971 188.329L727.02 191.011L724.343 190.061ZM726.246 184.697L727.197 182.015L729.874 182.965L728.923 185.647L726.246 184.697ZM728.149 179.333L729.1 176.651L731.777 177.6L730.826 180.282L728.149 179.333ZM730.052 173.969L731.003 171.286L733.68 172.236L732.729 174.918L730.052 173.969ZM731.955 168.604L732.906 165.922L735.583 166.872L734.632 169.554L731.955 168.604ZM733.857 163.24L734.809 160.558L737.486 161.508L736.534 164.19L733.857 163.24ZM735.76 157.876L736.712 155.194L739.389 156.143L738.437 158.825L735.76 157.876ZM737.663 152.512L738.615 149.829L741.292 150.779L740.34 153.461L737.663 152.512ZM739.566 147.147L740.518 144.465L743.195 145.415L742.243 148.097L739.566 147.147ZM741.469 141.783L742.42 139.101L745.097 140.051L744.146 142.733L741.469 141.783ZM743.372 136.419L744.323 133.737L747 134.686L746.049 137.369L743.372 136.419ZM745.275 131.055L746.226 128.373L748.903 129.322L747.952 132.004L745.275 131.055ZM747.178 125.69L748.129 123.008L750.806 123.958L749.855 126.64L747.178 125.69ZM749.081 120.326L750.032 117.644L752.709 118.594L751.758 121.276L749.081 120.326ZM750.983 114.962L751.459 113.621L754.136 114.571L753.66 115.912L750.983 114.962Z" fill="#878787"/>
<path fill-rule="evenodd" clip-rule="evenodd" d="M740.927 140.407L739.529 140.407L739.529 137.566L740.927 137.566L740.927 140.407ZM736.733 140.407L733.937 140.407L733.937 137.566L736.733 137.566L736.733 140.407ZM731.141 140.407L728.345 140.407L728.345 137.566L731.141 137.566L731.141 140.407ZM725.549 140.407L722.752 140.407L722.752 137.566L725.549 137.566L725.549 140.407ZM719.956 140.407L717.16 140.407L717.16 137.566L719.956 137.566L719.956 140.407ZM714.364 140.407L711.568 140.407L711.568 137.566L714.364 137.566L714.364 140.407ZM708.772 140.407L705.976 140.407L705.976 137.566L708.772 137.566L708.772 140.407ZM703.18 140.407L700.384 140.407L700.384 137.566L703.18 137.566L703.18 140.407ZM697.588 140.407L694.792 140.407L694.792 137.566L697.588 137.566L697.588 140.407ZM691.996 140.407L689.2 140.407L689.2 137.566L691.996 137.566L691.996 140.407ZM686.404 140.407L683.608 140.407L683.608 137.566L686.404 137.566L686.404 140.407ZM680.812 140.407L678.016 140.407L678.016 137.566L680.812 137.566L680.812 140.407ZM675.22 140.407L672.424 140.407L672.424 137.566L675.22 137.566L675.22 140.407ZM669.628 140.407L666.832 140.407L666.832 137.566L669.628 137.566L669.628 140.407ZM664.036 140.407L661.24 140.407L661.24 137.566L664.036 137.566L664.036 140.407ZM658.444 140.407L655.648 140.407L655.648 137.566L658.444 137.566L658.444 140.407ZM652.852 140.407L651.454 140.407L651.454 137.566L652.852 137.566L652.852 140.407Z" fill="#878787"/>
<path fill-rule="evenodd" clip-rule="evenodd" d="M768.578 180.478C759.141 172.315 751.208 165.744 741.461 161.185C731.171 156.372 718.213 154.409 710.682 152.978L709.882 156.519L702.626 150.373L712.088 147.728L711.255 151.464C718.356 152.473 732.412 155.353 742.572 160.091C752.573 164.754 760.353 171.237 769.671 179.236C771.42 180.738 773.177 182.732 773.177 182.732L771.94 183.861C771.94 183.861 770.183 181.866 768.578 180.478Z" fill="black"/>
<path fill-rule="evenodd" clip-rule="evenodd" d="M628.806 180.595C638.637 172.629 646.874 166.207 656.668 161.626C667.009 156.79 679.651 154.56 687.025 152.991L687.466 156.302L695.013 150.3L686.16 148.087L686.615 151.581C679.693 152.741 665.91 155.867 655.701 160.628C645.653 165.315 637.571 171.649 627.87 179.458C626.049 180.924 624.175 182.853 624.175 182.853L625.26 183.88C625.26 183.88 627.134 181.95 628.806 180.595Z" fill="black"/>
<path d="M130.348 304.63L128.118 306.105L128.318 306.427L130.049 305.318V310.122L128.529 310.222V310.51H132.368C132.368 310.348 132.301 310.251 132.168 310.222C132.138 310.214 132.109 310.211 132.079 310.211L130.936 310.122V304.63H130.348Z" fill="black"/>
<path d="M134.221 310C134.221 309.756 134.11 309.582 133.888 309.478C133.814 309.441 133.736 309.423 133.655 309.423C133.411 309.423 133.241 309.534 133.144 309.756C133.107 309.837 133.089 309.919 133.089 310C133.089 310.237 133.196 310.407 133.411 310.51C133.492 310.547 133.573 310.566 133.655 310.566C133.891 310.566 134.062 310.459 134.165 310.244C134.202 310.163 134.221 310.081 134.221 310Z" fill="black"/>
<path d="M436.555 309.215C436.555 309 436.821 308.723 437.354 308.383C437.45 308.324 437.601 308.227 437.809 308.094C438.637 307.599 439.203 307.184 439.506 306.852C439.883 306.445 440.072 306.023 440.072 305.587C440.072 304.899 439.728 304.425 439.04 304.166C438.737 304.055 438.397 304 438.019 304C437.339 304 436.803 304.181 436.411 304.544C436.144 304.795 436.011 305.091 436.011 305.431C436.011 305.735 436.122 305.923 436.344 305.997C436.396 306.012 436.444 306.019 436.488 306.019C436.777 306.019 436.954 305.871 437.021 305.576C437.036 305.502 437.05 305.391 437.065 305.243C437.11 304.843 437.206 304.581 437.354 304.455C437.487 304.344 437.675 304.288 437.92 304.288C438.578 304.288 438.97 304.592 439.096 305.198C439.118 305.317 439.129 305.442 439.129 305.576C439.129 306.263 438.815 306.859 438.186 307.362C438.119 307.414 437.786 307.643 437.187 308.05C436.625 308.427 436.27 308.793 436.122 309.148C436.041 309.348 436 309.555 436 309.77V309.992H440.227L440.25 308.127H440.039L439.861 308.727C439.78 308.986 439.636 309.141 439.428 309.193C439.34 309.207 439.218 309.215 439.062 309.215H436.555Z" fill="black"/>
<path d="M442.546 309.481C442.546 309.237 442.435 309.063 442.213 308.96C442.139 308.923 442.062 308.904 441.98 308.904C441.736 308.904 441.566 309.015 441.47 309.237C441.433 309.318 441.415 309.4 441.415 309.481C441.415 309.718 441.522 309.888 441.736 309.992C441.818 310.029 441.899 310.047 441.98 310.047C442.217 310.047 442.387 309.94 442.491 309.725C442.528 309.644 442.546 309.562 442.546 309.481Z" fill="black"/>
<path d="M702.294 300.222V300H698.166L698.144 301.831H698.399L698.599 301.209C698.681 300.965 698.836 300.825 699.065 300.788C699.117 300.78 699.172 300.773 699.232 300.766L701.218 300.777L699.209 303.096L699.453 303.295C699.72 303.184 699.982 303.129 700.241 303.129C700.759 303.129 701.133 303.38 701.362 303.883C701.488 304.15 701.551 304.453 701.551 304.793C701.551 305.844 701.073 306.406 700.119 306.48C700.045 306.487 699.971 306.491 699.897 306.491C699.498 306.491 699.254 306.31 699.165 305.947C699.143 305.873 699.124 305.759 699.11 305.603C699.065 305.248 698.98 305.023 698.854 304.926C698.766 304.867 698.651 304.838 698.51 304.838C698.244 304.838 698.081 304.963 698.022 305.215C698.007 305.274 698 305.329 698 305.381C698 305.877 698.277 306.258 698.832 306.524C699.187 306.687 699.594 306.768 700.053 306.768C700.933 306.768 701.602 306.465 702.061 305.858C702.342 305.489 702.483 305.082 702.483 304.638C702.483 304.054 702.272 303.584 701.85 303.229C701.502 302.94 701.081 302.796 700.585 302.796C700.349 302.796 700.097 302.826 699.831 302.885L702.294 300.222Z" fill="black"/>
<path d="M704.768 305.37C704.768 305.126 704.657 304.952 704.435 304.849C704.361 304.812 704.284 304.793 704.202 304.793C703.958 304.793 703.788 304.904 703.692 305.126C703.655 305.207 703.636 305.289 703.636 305.37C703.636 305.607 703.744 305.777 703.958 305.881C704.04 305.918 704.121 305.936 704.202 305.936C704.439 305.936 704.609 305.829 704.713 305.614C704.75 305.533 704.768 305.452 704.768 305.37Z" fill="black"/>
<path d="M440.081 175.426L442.908 178.252L445.736 175.426L560.644 60.5845L567.477 53.7553L557.816 53.7553L328 53.7553L318.339 53.7553L325.172 60.5845L440.081 175.426Z" fill="white" stroke="black" stroke-width="8"/>
<path d="M328 57.8228L442.908 172.664L557.817 57.8228L328 57.8228Z" fill="url(#paint5_linear)"/>
<path d="M442.345 57.9459L328.346 57.9459L384.681 114.974L442.345 57.9459Z" fill="url(#paint6_linear)"/>
<path d="M558.068 58.049L441.97 58.049L499.342 116.127L558.068 58.049Z" fill="url(#paint7_linear)"/>
<path fill-rule="evenodd" clip-rule="evenodd" d="M362.408 137.533L362.055 137.885L361.138 136.968L361.491 136.616L362.408 137.533ZM365.934 134.006L365.229 134.711L364.312 133.795L365.017 133.089L365.934 134.006ZM369.461 130.48L368.755 131.185L367.839 130.268L368.544 129.563L369.461 130.48ZM372.987 126.953L372.282 127.659L371.365 126.742L372.07 126.037L372.987 126.953ZM376.513 123.427L375.808 124.132L374.891 123.216L375.597 122.51L376.513 123.427ZM380.04 119.901L379.334 120.606L378.418 119.689L379.123 118.984L380.04 119.901ZM383.566 116.374L382.861 117.079L381.944 116.163L382.649 115.458L383.566 116.374ZM387.092 112.848L386.387 113.553L385.47 112.636L386.176 111.931L387.092 112.848ZM390.619 109.321L389.914 110.027L388.997 109.11L389.702 108.405L390.619 109.321ZM394.145 105.795L393.44 106.5L392.523 105.584L393.229 104.878L394.145 105.795ZM397.672 102.269L396.966 102.974L396.05 102.057L396.755 101.352L397.672 102.269ZM401.198 98.7423L400.493 99.4476L399.576 98.5309L400.281 97.8256L401.198 98.7423ZM404.724 95.2159L404.019 95.9212L403.102 95.0045L403.808 94.2992L404.724 95.2159ZM408.251 91.6895L407.545 92.3948L406.629 91.4781L407.334 90.7728L408.251 91.6895ZM411.777 88.1631L411.072 88.8684L410.155 87.9517L410.86 87.2465L411.777 88.1631ZM415.304 84.6368L414.598 85.342L413.682 84.4253L414.387 83.7201L415.304 84.6368ZM418.83 81.1104L418.125 81.8156L417.208 80.899L417.913 80.1937L418.83 81.1104ZM422.356 77.584L421.651 78.2893L420.734 77.3726L421.44 76.6673L422.356 77.584ZM425.883 74.0576L425.177 74.7629L424.261 73.8462L424.966 73.1409L425.883 74.0576ZM429.409 70.5312L428.704 71.2365L427.787 70.3198L428.492 69.6145L429.409 70.5312ZM432.935 67.0048L432.23 67.7101L431.313 66.7934L432.019 66.0881L432.935 67.0048ZM436.462 63.4784L435.757 64.1837L434.84 63.267L435.545 62.5618L436.462 63.4784ZM439.988 59.9521L439.283 60.6573L438.366 59.7407L439.072 59.0354L439.988 59.9521ZM443.162 56.7783L442.809 57.131L441.893 56.2143L442.245 55.8616L443.162 56.7783Z" fill="black"/>
<path fill-rule="evenodd" clip-rule="evenodd" d="M517.607 132.829L517.96 133.181L517.043 134.098L516.69 133.745L517.607 132.829ZM514.081 129.302L514.786 130.007L513.869 130.924L513.164 130.219L514.081 129.302ZM510.554 125.776L511.26 126.481L510.343 127.398L509.638 126.693L510.554 125.776ZM507.028 122.249L507.733 122.955L506.816 123.871L506.111 123.166L507.028 122.249ZM503.501 118.723L504.207 119.428L503.29 120.345L502.585 119.64L503.501 118.723ZM499.975 115.197L500.68 115.902L499.764 116.819L499.058 116.113L499.975 115.197ZM496.449 111.67L497.154 112.376L496.237 113.292L495.532 112.587L496.449 111.67ZM492.922 108.144L493.628 108.849L492.711 109.766L492.006 109.061L492.922 108.144ZM489.396 104.618L490.101 105.323L489.185 106.239L488.479 105.534L489.396 104.618ZM485.87 101.091L486.575 101.796L485.658 102.713L484.953 102.008L485.87 101.091ZM482.343 97.5648L483.048 98.27L482.132 99.1867L481.426 98.4814L482.343 97.5648ZM478.817 94.0384L479.522 94.7437L478.605 95.6603L477.9 94.9551L478.817 94.0384ZM475.29 90.512L475.996 91.2173L475.079 92.134L474.374 91.4287L475.29 90.512ZM471.764 86.9856L472.469 87.6909L471.553 88.6076L470.847 87.9023L471.764 86.9856ZM468.238 83.4592L468.943 84.1645L468.026 85.0812L467.321 84.3759L468.238 83.4592ZM464.711 79.9328L465.417 80.6381L464.5 81.5548L463.795 80.8495L464.711 79.9328ZM461.185 76.4065L461.89 77.1117L460.973 78.0284L460.268 77.3231L461.185 76.4065ZM457.658 72.8801L458.364 73.5853L457.447 74.502L456.742 73.7968L457.658 72.8801ZM454.132 69.3537L454.837 70.059L453.921 70.9756L453.215 70.2704L454.132 69.3537ZM450.606 65.8273L451.311 66.5326L450.394 67.4493L449.689 66.744L450.606 65.8273ZM447.079 62.3009L447.785 63.0062L446.868 63.9229L446.163 63.2176L447.079 62.3009ZM443.553 58.7745L444.258 59.4798L443.342 60.3965L442.636 59.6912L443.553 58.7745ZM440.027 55.2481L440.732 55.9534L439.815 56.8701L439.11 56.1648L440.027 55.2481ZM436.853 52.0744L437.205 52.427L436.289 53.3437L435.936 52.9911L436.853 52.0744Z" fill="black"/>
<path fill-rule="evenodd" clip-rule="evenodd" d="M540.723 63.1593C527.335 68.4239 503.55 80.2033 487.008 96.7453C470.176 113.578 455.595 140.586 448.712 155.601L450.929 156.605L446.206 160.01L445.551 154.169L447.78 155.179C454.675 140.136 469.319 112.986 486.284 96.0207C502.972 79.332 526.916 67.4875 540.359 62.2039L540.723 63.1593Z" fill="black"/>
<path fill-rule="evenodd" clip-rule="evenodd" d="M342.508 65.4415C356.25 70.1689 380.638 81.0698 397.522 97.263C414.702 113.741 429.467 140.832 436.415 155.956L434.122 157.108L438.955 160.372L439.686 154.313L437.379 155.472C430.419 140.318 415.591 113.085 398.275 96.4776C381.242 80.1408 356.689 69.1811 342.891 64.4371L342.508 65.4415Z" fill="black"/>
<defs>
<filter id="filter0_d" x="8.03113" y="154.841" width="237.816" height="122.842" filterUnits="userSpaceOnUse" color-interpolation-filters="sRGB">
<feFlood flood-opacity="0" result="BackgroundImageFix"/>
<feColorMatrix in="SourceAlpha" type="matrix" values="0 0 0 0 0 0 0 0 0 0 0 0 0 0 0 0 0 0 127 0"/>
<feOffset dy="4"/>
<feGaussianBlur stdDeviation="2"/>
<feColorMatrix type="matrix" values="0 0 0 0 0 0 0 0 0 0 0 0 0 0 0 0 0 0 0.25 0"/>
<feBlend mode="normal" in2="BackgroundImageFix" result="effect1_dropShadow"/>
<feBlend mode="normal" in="SourceGraphic" in2="effect1_dropShadow" result="shape"/>
</filter>
<linearGradient id="paint0_linear" x1="-5098.59" y1="21554.4" x2="-5098.59" y2="21294.2" gradientUnits="userSpaceOnUse">
<stop stop-color="#E1E1E1"/>
<stop offset="0.491713" stop-color="#F2F2F2"/>
<stop offset="1" stop-color="white"/>
</linearGradient>
<linearGradient id="paint1_linear" x1="126.94" y1="40" x2="126.94" y2="154.842" gradientUnits="userSpaceOnUse">
<stop stop-color="white"/>
<stop offset="0.729282" stop-color="#F2F2F2"/>
<stop offset="1" stop-color="#E1E1E1"/>
</linearGradient>
<linearGradient id="paint2_linear" x1="126.939" y1="269.683" x2="126.939" y2="154.841" gradientUnits="userSpaceOnUse">
<stop stop-color="#E1E1E1"/>
<stop offset="0.491713" stop-color="#F2F2F2"/>
<stop offset="1" stop-color="white"/>
</linearGradient>
<linearGradient id="paint3_linear" x1="697.039" y1="30.8065" x2="580.771" y2="147.074" gradientUnits="userSpaceOnUse">
<stop stop-color="white"/>
<stop offset="0.729282" stop-color="#F2F2F2"/>
<stop offset="1" stop-color="#E1E1E1"/>
</linearGradient>
<linearGradient id="paint4_linear" x1="707.246" y1="266.585" x2="798.75" y2="176.437" gradientUnits="userSpaceOnUse">
<stop offset="0.0113715" stop-color="#E1E1E1"/>
<stop offset="0.258671" stop-color="#F2F2F2"/>
<stop offset="0.854061" stop-color="white"/>
</linearGradient>
<linearGradient id="paint5_linear" x1="442.908" y1="172.664" x2="442.908" y2="57.8228" gradientUnits="userSpaceOnUse">
<stop offset="0.00552486" stop-color="#F2F2F2"/>
<stop offset="0.723757" stop-color="white"/>
<stop offset="1" stop-color="#E1E1E1"/>
</linearGradient>
<linearGradient id="paint6_linear" x1="279.886" y1="57.9922" x2="361.091" y2="139.197" gradientUnits="userSpaceOnUse">
<stop stop-color="white"/>
<stop offset="0.729282" stop-color="#F2F2F2"/>
<stop offset="1" stop-color="#E1E1E1"/>
</linearGradient>
<linearGradient id="paint7_linear" x1="392.617" y1="58.0962" x2="475.318" y2="140.797" gradientUnits="userSpaceOnUse">
<stop stop-color="white"/>
<stop offset="0.729282" stop-color="#F2F2F2"/>
<stop offset="1" stop-color="#E1E1E1"/>
</linearGradient>
</defs>
</svg>
