<svg width="781" height="291" viewBox="0 0 781 291" fill="none" xmlns="http://www.w3.org/2000/svg">
<path d="M103.686 238.872L106.099 244.96L110.413 240.034L184.494 155.467L185.918 153.841L185.339 151.759L167.823 88.7962L167.542 87.7877L166.804 87.0459L110.239 30.2375L107.451 27.4376L104.617 30.1909L46.1449 86.9993L44.2298 88.8599L45.2136 91.3421L103.686 238.872Z" fill="white" stroke="black" stroke-width="8"/>
<path d="M52.7191 89.3948L107.405 239.202L163.022 90.3416L107.634 33.3019L52.7191 89.3948Z" fill="#F2F2F2"/>
<path d="M106.791 97.4426L106.791 33.3021L48.9318 89.8682L106.791 97.4426Z" fill="url(#paint0_linear)"/>
<path d="M108.396 33.4884L108.396 142.889L163.969 89.8681L108.396 33.4884Z" fill="url(#paint1_linear)"/>
<g filter="url(#filter0_d)">
<path d="M105.267 89.3948L107.16 237.487L48.9316 89.3948L105.267 89.3948Z" fill="url(#paint2_linear)"/>
</g>
<g filter="url(#filter1_d)">
<path d="M108.58 237.487L108.58 126.32L163.969 89.7847L108.58 237.487Z" fill="url(#paint3_linear)"/>
</g>
<g filter="url(#filter2_d)">
<path d="M108.58 237.487L179.591 153.778L163.969 89.7847L108.58 237.487Z" fill="url(#paint4_linear)"/>
</g>
<ellipse cx="144.855" cy="141.393" rx="36.4521" ry="5.68085" transform="rotate(19.3536 144.855 141.393)" fill="url(#paint5_radial)"/>
<g filter="url(#filter3_d)">
<path d="M144.559 140.996L108.581 126.32L163.969 89.7847L144.559 140.996Z" fill="url(#paint6_linear)"/>
</g>
<g filter="url(#filter4_d)">
<path d="M144.559 140.996L180.538 153.304L163.969 89.7847L144.559 140.996Z" fill="url(#paint7_linear)"/>
</g>
<path fill-rule="evenodd" clip-rule="evenodd" d="M106.714 129.652L105.494 128.852L107.051 126.477L108.271 127.277L106.714 129.652ZM103.054 127.252L100.614 125.653L102.172 123.277L104.611 124.877L103.054 127.252ZM98.1742 124.053L95.7344 122.453L97.2919 120.078L99.7318 121.677L98.1742 124.053ZM93.2946 120.853L90.8548 119.253L92.4123 116.878L94.8521 118.478L93.2946 120.853ZM88.415 117.653L85.9751 116.054L87.5327 113.678L89.9725 115.278L88.415 117.653ZM83.5353 114.454L81.0955 112.854L82.653 110.479L85.0929 112.078L83.5353 114.454ZM78.6557 111.254L76.2159 109.654L77.7734 107.279L80.2132 108.879L78.6557 111.254ZM73.7761 108.054L71.3362 106.455L72.8938 104.079L75.3336 105.679L73.7761 108.054ZM68.8964 104.855L66.4566 103.255L68.0142 100.88L70.454 102.479L68.8964 104.855ZM64.0168 101.655L61.577 100.055L63.1345 97.68L65.5743 99.2798L64.0168 101.655ZM59.1372 98.4555L56.6974 96.8556L58.2549 94.4803L60.6947 96.0801L59.1372 98.4555ZM54.2576 95.2558L51.8177 93.656L53.3753 91.2807L55.8151 92.8805L54.2576 95.2558ZM49.3779 92.0561L46.9381 90.4563L48.4956 88.081L50.9355 89.6808L49.3779 92.0561ZM44.4983 88.8565L42.0585 87.2566L43.616 84.8813L46.0558 86.4812L44.4983 88.8565ZM39.6187 85.6568L37.1789 84.057L38.7364 81.6817L41.1762 83.2815L39.6187 85.6568ZM34.739 82.4571L33.5191 81.6572L35.0767 79.2819L36.2966 80.0818L34.739 82.4571Z" fill="#878787"/>
<path fill-rule="evenodd" clip-rule="evenodd" d="M105.846 266.044L105.846 264.61L108.686 264.61L108.686 266.044L105.846 266.044ZM105.846 261.743L105.846 258.877L108.686 258.877L108.686 261.743L105.846 261.743ZM105.846 256.01L105.846 253.143L108.686 253.143L108.686 256.01L105.846 256.01ZM105.846 250.277L105.846 247.41L108.686 247.41L108.686 250.277L105.846 250.277ZM105.846 244.543L105.846 241.676L108.686 241.676L108.686 244.543L105.846 244.543ZM105.846 238.81L105.846 235.943L108.686 235.943L108.686 238.81L105.846 238.81ZM105.846 233.076L105.846 230.21L108.686 230.21L108.686 233.076L105.846 233.076ZM105.846 227.343L105.846 224.476L108.686 224.476L108.686 227.343L105.846 227.343ZM105.846 221.609L105.846 218.743L108.686 218.743L108.686 221.609L105.846 221.609ZM105.846 215.876L105.846 213.009L108.686 213.009L108.686 215.876L105.846 215.876ZM105.846 210.143L105.846 207.276L108.686 207.276L108.686 210.143L105.846 210.143ZM105.846 204.409L105.846 201.542L108.686 201.542L108.686 204.409L105.846 204.409ZM105.846 198.676L105.846 195.809L108.686 195.809L108.686 198.676L105.846 198.676ZM105.846 192.942L105.846 190.076L108.686 190.076L108.686 192.942L105.846 192.942ZM105.846 187.209L105.846 184.342L108.686 184.342L108.686 187.209L105.846 187.209ZM105.846 181.475L105.846 178.609L108.686 178.609L108.686 181.475L105.846 181.475ZM105.846 175.742L105.846 172.875L108.686 172.875L108.686 175.742L105.846 175.742ZM105.846 170.009L105.846 167.142L108.686 167.142L108.686 170.009L105.846 170.009ZM105.846 164.275L105.846 161.408L108.686 161.408L108.686 164.275L105.846 164.275ZM105.846 158.542L105.846 155.675L108.686 155.675L108.686 158.542L105.846 158.542ZM105.846 152.808L105.846 149.942L108.686 149.942L108.686 152.808L105.846 152.808ZM105.846 147.075L105.846 144.208L108.686 144.208L108.686 147.075L105.846 147.075ZM105.846 141.341L105.846 138.475L108.686 138.475L108.686 141.341L105.846 141.341ZM105.846 135.608L105.846 132.741L108.686 132.741L108.686 135.608L105.846 135.608ZM105.846 129.874L105.846 127.008L108.686 127.008L108.686 129.875L105.846 129.874ZM105.846 124.141L105.846 121.274L108.686 121.274L108.686 124.141L105.846 124.141ZM105.846 118.408L105.846 115.541L108.686 115.541L108.686 118.408L105.846 118.408ZM105.846 112.674L105.846 109.807L108.686 109.807L108.686 112.674L105.846 112.674ZM105.846 106.941L105.846 104.074L108.686 104.074L108.686 106.941L105.846 106.941ZM105.846 101.207L105.846 98.3405L108.686 98.3405L108.686 101.207L105.846 101.207ZM105.846 95.4738L105.846 92.6071L108.686 92.6071L108.686 95.4738L105.846 95.4738ZM105.846 89.7404L105.846 86.8736L108.686 86.8736L108.686 89.7404L105.846 89.7404ZM105.846 84.0069L105.846 81.1402L108.686 81.1402L108.686 84.0069L105.846 84.0069ZM105.846 78.2735L105.846 75.4067L108.686 75.4067L108.686 78.2735L105.846 78.2735ZM105.846 72.54L105.846 69.6733L108.686 69.6733L108.686 72.54L105.846 72.54ZM105.846 66.8066L105.846 63.9399L108.686 63.9399L108.686 66.8066L105.846 66.8066ZM105.846 61.0731L105.846 58.2064L108.686 58.2064L108.686 61.0731L105.846 61.0731ZM105.846 55.3397L105.846 52.473L108.686 52.473L108.686 55.3397L105.846 55.3397ZM105.846 49.6062L105.846 46.7395L108.686 46.7395L108.686 49.6062L105.846 49.6062ZM105.846 43.8728L105.846 41.0061L108.686 41.0061L108.686 43.8728L105.846 43.8728ZM105.846 38.1393L105.846 35.2726L108.686 35.2726L108.686 38.1393L105.846 38.1393ZM105.846 32.4059L105.846 29.5392L108.686 29.5392L108.686 32.4059L105.846 32.4059ZM105.846 26.6724L105.846 23.8057L108.686 23.8057L108.686 26.6724L105.846 26.6724ZM105.846 20.939L105.846 18.0723L108.686 18.0723L108.686 20.939L105.846 20.939ZM105.846 15.2056L105.846 12.3388L108.686 12.3388L108.686 15.2056L105.846 15.2056ZM105.846 9.47211L105.846 8.03874L108.686 8.03874L108.686 9.47211L105.846 9.47211Z" fill="#878787"/>
<path fill-rule="evenodd" clip-rule="evenodd" d="M105.56 126.141L106.806 125.383L108.282 127.811L107.035 128.568L105.56 126.141ZM109.299 123.868L111.792 122.352L113.268 124.78L110.775 126.295L109.299 123.868ZM114.285 120.837L116.778 119.321L118.254 121.749L115.761 123.264L114.285 120.837ZM119.272 117.806L121.765 116.29L123.24 118.718L120.747 120.233L119.272 117.806ZM124.258 114.775L126.751 113.259L128.226 115.687L125.733 117.202L124.258 114.775ZM129.244 111.744L131.737 110.228L133.212 112.656L130.719 114.171L129.244 111.744ZM134.23 108.713L136.723 107.197L138.199 109.625L135.705 111.14L134.23 108.713ZM139.216 105.682L141.709 104.166L143.185 106.594L140.692 108.109L139.216 105.682ZM144.202 102.651L146.695 101.135L148.171 103.563L145.678 105.078L144.202 102.651ZM149.188 99.6199L151.682 98.1044L153.157 100.532L150.664 102.047L149.188 99.6199ZM154.175 96.5889L156.668 95.0734L158.143 97.5005L155.65 99.016L154.175 96.5889ZM159.161 93.5579L161.654 92.0424L163.129 94.4695L160.636 95.985L159.161 93.5579ZM164.147 90.5269L166.64 89.0114L168.115 91.4385L165.622 92.954L164.147 90.5269ZM169.133 87.4959L171.626 85.9804L173.102 88.4075L170.608 89.923L169.133 87.4959ZM174.119 84.4649L176.612 82.9494L178.088 85.3765L175.595 86.892L174.119 84.4649ZM179.105 81.4339L180.352 80.6761L181.827 83.1033L180.581 83.861L179.105 81.4339Z" fill="#878787"/>
<path fill-rule="evenodd" clip-rule="evenodd" d="M50.6421 164.663L43.3492 156.518L54.0494 154.275L52.6847 158.435C58.8705 159.46 66.7443 159.154 74.1084 154.885C80.2596 151.319 84.2233 147.116 86.675 143.366L82.6417 141.85L91.0899 134.911L92.8754 145.697L88.4884 144.048C85.896 148.132 81.6608 152.695 75.0581 156.523C67.0917 161.142 58.6112 161.385 52.0879 160.255L50.6421 164.663Z" fill="black"/>
<path fill-rule="evenodd" clip-rule="evenodd" d="M120.488 146.273L121.176 135.362L130.281 141.414L126.359 143.36C129.968 148.487 135.709 153.884 143.918 156.137C150.775 158.019 156.55 157.895 160.943 157.012L159.194 153.074L170.065 154.227L163.631 163.066L161.729 158.782C157 159.8 150.777 159.983 143.417 157.963C134.537 155.526 128.414 149.653 124.643 144.211L120.488 146.273Z" fill="black"/>
<path d="M427.919 228.857L428.529 238.188L421.36 232.185L333.155 158.334L331.141 156.648L331.888 154.129L352.818 83.5923L353.143 82.4958L353.999 81.7371L421.274 22.0883L429.819 14.5119L427.869 25.7643L418.269 81.157L427.919 228.857Z" fill="white" stroke="black" stroke-width="8"/>
<ellipse rx="38.1656" ry="5.71447" transform="matrix(-0.948586 0.316519 0.346798 0.93794 374.823 132.468)" fill="url(#paint8_radial)"/>
<g filter="url(#filter5_d)">
<path d="M375.135 132.071L413.008 117.395L358.148 84.2567L375.135 132.071Z" fill="url(#paint9_linear)"/>
</g>
<g filter="url(#filter6_d)">
<path d="M377.583 141.065L336.221 153.847L356.653 85.2035L377.583 141.065Z" fill="url(#paint10_linear)"/>
</g>
<path d="M431.951 228.473L431.951 238.712L425.01 231.185L347.028 146.617L345.494 144.953L346.13 142.782L364.568 79.8188L364.87 78.7893L365.646 78.0488L425.189 21.2404L431.951 14.7898L431.951 24.1345L431.951 80.9429L431.951 228.473Z" fill="white" stroke="black" stroke-width="8"/>
<path d="M428.662 79.9961L427.951 230.276L369.404 81.4164L427.709 24.3766L428.662 79.9961Z" fill="#F2F2F2"/>
<path d="M427.915 23.6611L426.908 133.964L368.408 80.9428L427.915 23.6611Z" fill="url(#paint11_linear)"/>
<g filter="url(#filter7_d)">
<path d="M426.713 228.561L426.713 117.395L368.408 80.8594L426.713 228.561Z" fill="url(#paint12_linear)"/>
</g>
<g filter="url(#filter8_d)">
<path d="M427.915 229.592L349.676 144.379L368.408 80.8594L427.915 229.592Z" fill="url(#paint13_linear)"/>
</g>
<ellipse rx="38.1656" ry="5.71447" transform="matrix(-0.948586 0.316519 0.346798 0.93794 388.528 132.468)" fill="url(#paint14_radial)"/>
<g filter="url(#filter9_d)">
<path d="M388.839 132.071L426.713 117.395L368.407 80.8594L388.839 132.071Z" fill="url(#paint15_linear)"/>
</g>
<g filter="url(#filter10_d)">
<path d="M388.839 132.071L350.966 144.379L368.407 80.8594L388.839 132.071Z" fill="url(#paint16_linear)"/>
</g>
<path fill-rule="evenodd" clip-rule="evenodd" d="M410.266 10.2736L400.254 14.6664L409.064 21.1401L409.56 16.6568C422.343 18.2024 437.882 20.5492 449.729 23.409C455.816 24.8783 460.854 26.466 464.041 28.1176C465.651 28.9518 466.669 29.7427 467.154 30.4449C467.385 30.78 467.471 31.0593 467.477 31.2941C467.484 31.5239 467.417 31.7967 467.194 32.129C465.983 33.9376 463.206 35.5862 459.21 37.0097C455.268 38.4141 450.337 39.5333 445.068 40.4087C434.534 42.1586 422.78 42.9136 415.175 43.0708L415.214 44.964C422.88 44.8056 434.73 44.0457 445.378 42.2767C450.7 41.3926 455.753 40.2512 459.845 38.7935C463.884 37.355 467.19 35.5398 468.768 33.1824C469.17 32.5818 469.389 31.9292 469.37 31.2423C469.352 30.5605 469.101 29.9318 468.712 29.3688C467.957 28.275 466.597 27.3093 464.912 26.4363C461.51 24.6733 456.284 23.0433 450.173 21.5683C438.215 18.6816 422.582 16.3234 409.768 14.7745L410.266 10.2736Z" fill="black"/>
<g filter="url(#filter11_d)">
<path d="M369.441 82.0904L426.2 225.876L426.2 117.657L369.441 82.0904Z" stroke="black"/>
</g>
<path fill-rule="evenodd" clip-rule="evenodd" d="M69.6674 93.4313L70.2126 104.35L60.4837 99.3631L64.2802 96.9109L57.6617 86.664L59.2524 85.6366L65.8709 95.8835L69.6674 93.4313Z" fill="black"/>
<path d="M106.567 288.046H105.283V290.205H104.272V288.046H101V287.387L104.124 282.706H105.283V287.296H106.567V288.046ZM104.272 287.296V284.183L102.182 287.296H104.272Z" fill="black"/>
<path d="M108.56 289.694C108.56 289.45 108.449 289.276 108.228 289.173C108.154 289.136 108.076 289.117 107.995 289.117C107.75 289.117 107.58 289.228 107.484 289.45C107.447 289.532 107.429 289.613 107.429 289.694C107.429 289.931 107.536 290.101 107.75 290.205C107.832 290.242 107.913 290.26 107.995 290.26C108.231 290.26 108.401 290.153 108.505 289.938C108.542 289.857 108.56 289.776 108.56 289.694Z" fill="black"/>
<path d="M402.307 287.982C402.307 287.316 402.067 286.787 401.586 286.395C401.202 286.085 400.732 285.929 400.177 285.929C399.622 285.937 399.141 286.077 398.735 286.351V284.209C399.326 284.269 399.826 284.298 400.233 284.298C400.994 284.298 401.475 284.198 401.675 283.999C401.845 283.829 401.93 283.473 401.93 282.933H401.664C401.605 283.178 401.464 283.329 401.242 283.388C401.065 283.44 400.776 283.466 400.377 283.466C400.318 283.466 399.648 283.44 398.368 283.388V286.462L398.735 286.739C399.082 286.458 399.478 286.318 399.922 286.318C400.639 286.318 401.098 286.669 401.298 287.372C401.357 287.579 401.386 287.804 401.386 288.048C401.386 288.87 401.113 289.421 400.565 289.702C400.343 289.813 400.088 289.868 399.8 289.868C399.4 289.868 399.16 289.691 399.079 289.336C399.056 289.262 399.038 289.143 399.023 288.98C398.986 288.625 398.905 288.4 398.779 288.304C398.69 288.244 398.576 288.215 398.435 288.215C398.124 288.274 397.951 288.455 397.914 288.759C397.914 289.173 398.128 289.52 398.557 289.802C398.927 290.031 399.367 290.145 399.877 290.145C400.817 290.145 401.508 289.82 401.952 289.169C402.189 288.814 402.307 288.418 402.307 287.982Z" fill="black"/>
<path d="M404.382 288.747C404.382 288.503 404.271 288.33 404.049 288.226C403.975 288.189 403.898 288.171 403.816 288.171C403.572 288.171 403.402 288.281 403.306 288.503C403.269 288.585 403.25 288.666 403.25 288.747C403.25 288.984 403.358 289.154 403.572 289.258C403.654 289.295 403.735 289.313 403.816 289.313C404.053 289.313 404.223 289.206 404.327 288.992C404.364 288.91 404.382 288.829 404.382 288.747Z" fill="black"/>
<mask id="path-33-outside-1" maskUnits="userSpaceOnUse" x="606.123" y="-0.260877" width="163" height="246" fill="black">
<rect fill="white" x="606.123" y="-0.260877" width="163" height="246"/>
<path d="M690.451 72.4216L749.324 72.4216L730.861 80.4695L726.601 86.1503L760.686 82.3631L690.451 110.294L690.451 223.739L615.123 139.172L632.934 76.2088L690.451 19.4004L690.451 72.4216Z"/>
</mask>
<path d="M690.451 72.4216L749.324 72.4216L730.861 80.4695L726.601 86.1503L760.686 82.3631L690.451 110.294L690.451 223.739L615.123 139.172L632.934 76.2088L690.451 19.4004L690.451 72.4216Z" fill="white"/>
<path d="M690.451 223.739L698.451 223.739L698.451 244.748L684.477 229.06L690.451 223.739ZM690.451 19.4004L684.829 13.7086L698.451 0.25474L698.451 19.4004L690.451 19.4004ZM690.451 72.4216L690.451 80.4216L682.451 80.4216L682.451 72.4216L690.451 72.4216ZM632.934 76.2088L625.236 74.0312L625.811 72.0002L627.312 70.517L632.934 76.2088ZM615.123 139.172L609.149 144.493L606.231 141.216L607.425 136.994L615.123 139.172ZM690.451 110.294L682.451 110.294L682.451 104.866L687.495 102.86L690.451 110.294ZM726.601 86.1503L727.484 94.1014C724.313 94.4537 721.236 92.8884 719.654 90.1183C718.072 87.3481 718.286 83.9025 720.201 81.3503L726.601 86.1503ZM730.861 80.4695L724.461 75.6695L725.728 73.9798L727.665 73.1359L730.861 80.4695ZM749.324 72.4216L749.324 64.4216C753.113 64.4216 756.382 67.0796 757.156 70.7889C757.929 74.4981 755.994 78.2411 752.521 79.7552L749.324 72.4216ZM760.686 82.3631L759.802 74.412C763.783 73.9697 767.478 76.5397 768.448 80.4259C769.418 84.3121 767.364 88.3167 763.642 89.7968L760.686 82.3631ZM698.451 19.4004L698.451 72.4216L682.451 72.4216L682.451 19.4004L698.451 19.4004ZM627.312 70.517L684.829 13.7086L696.073 25.0922L638.556 81.9006L627.312 70.517ZM640.632 78.3864L622.821 141.349L607.425 136.994L625.236 74.0312L640.632 78.3864ZM621.097 133.85L696.425 218.418L684.477 229.06L609.149 144.493L621.097 133.85ZM682.451 223.739L682.451 110.294L698.451 110.294L698.451 223.739L682.451 223.739ZM720.201 81.3503L724.461 75.6695L737.261 85.2695L733.001 90.9503L720.201 81.3503ZM727.665 73.1359L746.127 65.088L752.521 79.7552L734.058 87.803L727.665 73.1359ZM749.324 80.4216L690.451 80.4216L690.451 64.4216L749.324 64.4216L749.324 80.4216ZM687.495 102.86L757.729 74.9293L763.642 89.7968L693.407 117.728L687.495 102.86ZM761.569 90.3142L727.484 94.1014L725.717 78.1993L759.802 74.412L761.569 90.3142Z" fill="black" mask="url(#path-33-outside-1)"/>
<path d="M691.138 75.262L690.451 225.542L633.896 76.6822L687.308 25.0812L691.138 75.262Z" fill="#F2F2F2"/>
<g filter="url(#filter12_d)">
<path d="M689.255 223.827V112.661L632.934 76.1254L689.255 223.827Z" fill="url(#paint17_linear)"/>
</g>
<g filter="url(#filter13_d)">
<path d="M690.416 224.858L614.84 139.645L632.934 76.1254L690.416 224.858Z" fill="url(#paint18_linear)"/>
</g>
<ellipse rx="36.9991" ry="5.69143" transform="matrix(-0.945198 0.326498 0.336353 0.941736 652.369 127.734)" fill="url(#paint19_radial)"/>
<g filter="url(#filter14_d)">
<path d="M761.15 82.1058L632.393 76.6823L614.404 140.592L761.15 82.1058Z" fill="url(#paint20_linear)"/>
<path d="M761.15 82.1058L632.393 76.6823L614.404 140.592L761.15 82.1058Z" stroke="black"/>
</g>
<path d="M768.509 173.734L687.781 109.821L614.403 138.999L768.509 173.734Z" fill="url(#paint21_linear)"/>
<path fill-rule="evenodd" clip-rule="evenodd" d="M769.39 172.62L768.196 175.119L766.82 174.809L766.935 174.299L766.506 173.959L767.213 173.066L767.445 172.038L767.939 172.149L768.269 171.732L769.39 172.62ZM764.622 171.73L766.026 169.957L763.784 168.182L762.021 170.409L762.739 170.977L761.941 170.798L761.316 173.568L764.068 174.189L764.622 171.73ZM756.437 169.557L759.189 170.177L758.565 172.948L755.813 172.328L756.437 169.557ZM759.778 168.633L757.536 166.858L759.299 164.631L761.541 166.406L759.778 168.633ZM750.933 168.316L753.685 168.937L753.061 171.708L750.309 171.087L750.933 168.316ZM755.293 165.083L753.051 163.307L754.814 161.08L757.057 162.856L755.293 165.083ZM745.43 167.076L748.182 167.696L747.557 170.467L744.805 169.847L745.43 167.076ZM750.809 161.532L748.566 159.757L750.329 157.53L752.572 159.305L750.809 161.532ZM739.926 165.835L742.678 166.456L742.053 169.227L739.301 168.606L739.926 165.835ZM746.324 157.981L744.081 156.206L745.844 153.979L748.087 155.754L746.324 157.981ZM734.422 164.595L737.174 165.215L736.549 167.986L733.798 167.366L734.422 164.595ZM741.839 154.43L739.596 152.655L741.359 150.428L743.602 152.203L741.839 154.43ZM728.918 163.354L731.67 163.975L731.046 166.745L728.294 166.125L728.918 163.354ZM737.354 150.88L735.111 149.104L736.875 146.877L739.117 148.653L737.354 150.88ZM723.415 162.114L726.167 162.734L725.542 165.505L722.79 164.885L723.415 162.114ZM717.911 160.873L720.663 161.493L720.038 164.264L717.286 163.644L717.911 160.873ZM732.869 147.329L730.627 145.554L732.39 143.327L734.632 145.102L732.869 147.329ZM712.407 159.633L715.159 160.253L714.534 163.024L711.783 162.404L712.407 159.633ZM728.384 143.778L726.142 142.003L727.905 139.776L730.147 141.551L728.384 143.778ZM706.903 158.392L709.655 159.012L709.031 161.783L706.279 161.163L706.903 158.392ZM723.899 140.228L721.657 138.452L723.42 136.225L725.662 138.001L723.899 140.228ZM701.4 157.152L704.151 157.772L703.527 160.543L700.775 159.922L701.4 157.152ZM719.414 136.677L717.172 134.901L718.935 132.674L721.177 134.45L719.414 136.677ZM695.896 155.911L698.648 156.531L698.023 159.302L695.271 158.682L695.896 155.911ZM714.929 133.126L712.687 131.351L714.45 129.124L716.693 130.899L714.929 133.126ZM690.392 154.67L693.144 155.291L692.519 158.062L689.768 157.441L690.392 154.67ZM710.445 129.575L708.202 127.8L709.965 125.573L712.208 127.348L710.445 129.575ZM684.888 153.43L687.64 154.05L687.016 156.821L684.264 156.201L684.888 153.43ZM705.96 126.025L703.717 124.249L705.48 122.022L707.723 123.798L705.96 126.025ZM679.385 152.189L682.136 152.81L681.512 155.581L678.76 154.96L679.385 152.189ZM701.475 122.474L699.232 120.699L700.996 118.472L703.238 120.247L701.475 122.474ZM673.881 150.949L676.633 151.569L676.008 154.34L673.256 153.72L673.881 150.949ZM696.99 118.923L694.748 117.148L696.511 114.921L698.753 116.696L696.99 118.923ZM668.377 149.708L671.129 150.329L670.504 153.099L667.752 152.479L668.377 149.708ZM662.873 148.468L665.625 149.088L665.001 151.859L662.249 151.239L662.873 148.468ZM692.505 115.372L690.263 113.597L692.026 111.37L694.268 113.145L692.505 115.372ZM657.37 147.227L660.121 147.847L659.497 150.618L656.745 149.998L657.37 147.227ZM687.543 111.444L688.02 111.822L689.783 109.595L688.019 108.198L685.945 109.022L686.995 111.661L687.543 111.444ZM684.374 112.703L681.754 113.745L680.704 111.106L683.325 110.064L684.374 112.703ZM651.866 145.987L654.618 146.607L653.993 149.378L651.241 148.758L651.866 145.987ZM679.133 114.787L676.513 115.83L675.463 113.19L678.084 112.148L679.133 114.787ZM673.892 116.872L671.271 117.914L670.222 115.274L672.842 114.232L673.892 116.872ZM646.362 144.746L649.114 145.366L648.489 148.137L645.737 147.517L646.362 144.746ZM668.651 118.956L666.03 119.998L664.98 117.358L667.601 116.316L668.651 118.956ZM663.409 121.04L660.789 122.082L659.739 119.443L662.36 118.4L663.409 121.04ZM640.858 143.506L643.61 144.126L642.986 146.897L640.234 146.276L640.858 143.506ZM658.168 123.124L655.548 124.166L654.498 121.527L657.119 120.485L658.168 123.124ZM635.354 142.265L638.106 142.885L637.482 145.656L634.73 145.036L635.354 142.265ZM652.927 125.208L650.306 126.25L649.257 123.611L651.877 122.569L652.927 125.208ZM647.686 127.292L645.065 128.334L644.015 125.695L646.636 124.653L647.686 127.292ZM629.851 141.025L632.603 141.645L631.978 144.416L629.226 143.795L629.851 141.025ZM642.444 129.376L639.824 130.419L638.774 127.779L641.395 126.737L642.444 129.376ZM637.203 131.461L634.583 132.503L633.533 129.863L636.154 128.821L637.203 131.461ZM624.347 139.784L627.099 140.404L626.474 143.175L623.722 142.555L624.347 139.784ZM631.962 133.545L629.341 134.587L628.292 131.947L630.912 130.905L631.962 133.545ZM626.721 135.629L624.1 136.671L623.051 134.032L625.671 132.989L626.721 135.629ZM619.193 138.622L621.595 139.164L620.971 141.935L618.219 141.314L618.818 138.653L617.809 136.116L620.43 135.074L621.479 137.713L619.193 138.622ZM615.434 137.775L615.189 137.158L609.613 139.375L615.467 140.694L615.613 140.046L616.238 139.797L615.875 138.883L616.091 137.923L615.434 137.775Z" fill="#878787"/>
<g filter="url(#filter15_d)">
<path d="M652.276 125.916L690.622 110.294L632.393 77.6291L652.276 125.916Z" fill="url(#paint22_linear)"/>
<path d="M633.405 78.7682L652.552 125.267L689.479 110.223L633.405 78.7682Z" stroke="black"/>
</g>
<g filter="url(#filter16_d)">
<path d="M653.222 125.443L613.93 140.592L632.866 76.6823L653.222 125.443Z" fill="url(#paint23_linear)"/>
<path d="M632.947 78.1816L614.701 139.762L652.561 125.165L632.947 78.1816Z" stroke="black"/>
</g>
<path fill-rule="evenodd" clip-rule="evenodd" d="M764.634 110.32L763.999 99.4056L773.769 104.313L769.938 106.832C778.4 122.169 786.409 149.165 773.375 176.505C765.512 192.997 752.227 205.268 738.867 213.901C725.507 222.533 712.01 227.569 703.623 229.566L703.184 227.724C711.367 225.776 724.664 220.823 737.839 212.31C751.012 203.798 764.001 191.767 771.666 175.69C784.304 149.18 776.619 122.93 768.35 107.876L764.634 110.32Z" fill="black"/>
<path d="M682.966 287.216C682.966 286.417 682.651 285.829 682.022 285.452C681.667 285.245 681.272 285.141 680.835 285.141C680.295 285.149 679.818 285.308 679.404 285.619C679.478 284.339 679.7 283.507 680.07 283.122C680.299 282.893 680.591 282.778 680.946 282.778C681.383 282.778 681.649 282.945 681.745 283.277C681.76 283.344 681.778 283.444 681.801 283.577C681.838 283.873 681.919 284.058 682.045 284.132C682.126 284.176 682.222 284.198 682.333 284.198C682.629 284.198 682.803 284.058 682.855 283.777C682.862 283.732 682.866 283.688 682.866 283.644C682.866 283.237 682.622 282.922 682.133 282.7C681.815 282.56 681.457 282.49 681.057 282.49C680.044 282.49 679.304 282.967 678.838 283.921C678.542 284.527 678.394 285.256 678.394 286.107C678.394 287.534 678.764 288.503 679.504 289.014C679.837 289.25 680.24 289.369 680.713 289.369C681.46 289.369 682.048 289.117 682.477 288.614C682.803 288.23 682.966 287.764 682.966 287.216ZM679.337 287.327C679.337 286.403 679.626 285.815 680.203 285.563C680.366 285.496 680.536 285.463 680.713 285.463C681.283 285.463 681.671 285.741 681.878 286.295C681.967 286.547 682.011 286.839 682.011 287.172C682.011 288.274 681.671 288.899 680.991 289.047C680.894 289.069 680.795 289.08 680.691 289.08C680.084 289.08 679.674 288.773 679.459 288.159C679.378 287.908 679.337 287.63 679.337 287.327Z" fill="black"/>
<path d="M685.14 288.747C685.14 288.503 685.029 288.33 684.807 288.226C684.733 288.189 684.656 288.17 684.574 288.17C684.33 288.17 684.16 288.281 684.064 288.503C684.027 288.585 684.009 288.666 684.009 288.747C684.009 288.984 684.116 289.154 684.33 289.258C684.412 289.295 684.493 289.313 684.574 289.313C684.811 289.313 684.981 289.206 685.085 288.992C685.122 288.91 685.14 288.829 685.14 288.747Z" fill="black"/>
<defs>
<filter id="filter0_d" x="0" y="53.2273" width="184.259" height="184.259" filterUnits="userSpaceOnUse" color-interpolation-filters="sRGB">
<feFlood flood-opacity="0" result="BackgroundImageFix"/>
<feColorMatrix in="SourceAlpha" type="matrix" values="0 0 0 0 0 0 0 0 0 0 0 0 0 0 0 0 0 0 127 0"/>
<feOffset dy="-4"/>
<feGaussianBlur stdDeviation="2"/>
<feColorMatrix type="matrix" values="0 0 0 0 0 0 0 0 0 0 0 0 0 0 0 0 0 0 0.05 0"/>
<feBlend mode="normal" in2="BackgroundImageFix" result="effect1_dropShadow"/>
<feBlend mode="normal" in="SourceGraphic" in2="effect1_dropShadow" result="shape"/>
</filter>
<filter id="filter1_d" x="48.9973" y="72.3584" width="165.128" height="165.128" filterUnits="userSpaceOnUse" color-interpolation-filters="sRGB">
<feFlood flood-opacity="0" result="BackgroundImageFix"/>
<feColorMatrix in="SourceAlpha" type="matrix" values="0 0 0 0 0 0 0 0 0 0 0 0 0 0 0 0 0 0 127 0"/>
<feOffset dy="-4"/>
<feGaussianBlur stdDeviation="2"/>
<feColorMatrix type="matrix" values="0 0 0 0 0 0 0 0 0 0 0 0 0 0 0 0 0 0 0.05 0"/>
<feBlend mode="normal" in2="BackgroundImageFix" result="effect1_dropShadow"/>
<feBlend mode="normal" in="SourceGraphic" in2="effect1_dropShadow" result="shape"/>
</filter>
<filter id="filter2_d" x="58.4236" y="81.7847" width="155.702" height="155.702" filterUnits="userSpaceOnUse" color-interpolation-filters="sRGB">
<feFlood flood-opacity="0" result="BackgroundImageFix"/>
<feColorMatrix in="SourceAlpha" type="matrix" values="0 0 0 0 0 0 0 0 0 0 0 0 0 0 0 0 0 0 127 0"/>
<feOffset dy="-4"/>
<feGaussianBlur stdDeviation="2"/>
<feColorMatrix type="matrix" values="0 0 0 0 0 0 0 0 0 0 0 0 0 0 0 0 0 0 0.05 0"/>
<feBlend mode="normal" in2="BackgroundImageFix" result="effect1_dropShadow"/>
<feBlend mode="normal" in="SourceGraphic" in2="effect1_dropShadow" result="shape"/>
</filter>
<filter id="filter3_d" x="104.581" y="78.3584" width="79.289" height="79.289" filterUnits="userSpaceOnUse" color-interpolation-filters="sRGB">
<feFlood flood-opacity="0" result="BackgroundImageFix"/>
<feColorMatrix in="SourceAlpha" type="matrix" values="0 0 0 0 0 0 0 0 0 0 0 0 0 0 0 0 0 0 127 0"/>
<feOffset dy="2"/>
<feGaussianBlur stdDeviation="2"/>
<feColorMatrix type="matrix" values="0 0 0 0 0 0 0 0 0 0 0 0 0 0 0 0 0 0 0.05 0"/>
<feBlend mode="normal" in2="BackgroundImageFix" result="effect1_dropShadow"/>
<feBlend mode="normal" in="SourceGraphic" in2="effect1_dropShadow" result="shape"/>
</filter>
<filter id="filter4_d" x="124.658" y="87.7847" width="83.3549" height="83.3549" filterUnits="userSpaceOnUse" color-interpolation-filters="sRGB">
<feFlood flood-opacity="0" result="BackgroundImageFix"/>
<feColorMatrix in="SourceAlpha" type="matrix" values="0 0 0 0 0 0 0 0 0 0 0 0 0 0 0 0 0 0 127 0"/>
<feOffset dy="2"/>
<feGaussianBlur stdDeviation="2"/>
<feColorMatrix type="matrix" values="0 0 0 0 0 0 0 0 0 0 0 0 0 0 0 0 0 0 0.05 0"/>
<feBlend mode="normal" in2="BackgroundImageFix" result="effect1_dropShadow"/>
<feBlend mode="normal" in="SourceGraphic" in2="effect1_dropShadow" result="shape"/>
</filter>
<filter id="filter5_d" x="354.148" y="82.2567" width="62.8607" height="55.8138" filterUnits="userSpaceOnUse" color-interpolation-filters="sRGB">
<feFlood flood-opacity="0" result="BackgroundImageFix"/>
<feColorMatrix in="SourceAlpha" type="matrix" values="0 0 0 0 0 0 0 0 0 0 0 0 0 0 0 0 0 0 127 0"/>
<feOffset dy="2"/>
<feGaussianBlur stdDeviation="2"/>
<feColorMatrix type="matrix" values="0 0 0 0 0 0 0 0 0 0 0 0 0 0 0 0 0 0 0.05 0"/>
<feBlend mode="normal" in2="BackgroundImageFix" result="effect1_dropShadow"/>
<feBlend mode="normal" in="SourceGraphic" in2="effect1_dropShadow" result="shape"/>
</filter>
<filter id="filter6_d" x="332.221" y="83.2035" width="49.3617" height="76.6436" filterUnits="userSpaceOnUse" color-interpolation-filters="sRGB">
<feFlood flood-opacity="0" result="BackgroundImageFix"/>
<feColorMatrix in="SourceAlpha" type="matrix" values="0 0 0 0 0 0 0 0 0 0 0 0 0 0 0 0 0 0 127 0"/>
<feOffset dy="2"/>
<feGaussianBlur stdDeviation="2"/>
<feColorMatrix type="matrix" values="0 0 0 0 0 0 0 0 0 0 0 0 0 0 0 0 0 0 0.05 0"/>
<feBlend mode="normal" in2="BackgroundImageFix" result="effect1_dropShadow"/>
<feBlend mode="normal" in="SourceGraphic" in2="effect1_dropShadow" result="shape"/>
</filter>
<filter id="filter7_d" x="364.407" y="72.8594" width="66.3051" height="155.702" filterUnits="userSpaceOnUse" color-interpolation-filters="sRGB">
<feFlood flood-opacity="0" result="BackgroundImageFix"/>
<feColorMatrix in="SourceAlpha" type="matrix" values="0 0 0 0 0 0 0 0 0 0 0 0 0 0 0 0 0 0 127 0"/>
<feOffset dy="-4"/>
<feGaussianBlur stdDeviation="2"/>
<feColorMatrix type="matrix" values="0 0 0 0 0 0 0 0 0 0 0 0 0 0 0 0 0 0 0.05 0"/>
<feBlend mode="normal" in2="BackgroundImageFix" result="effect1_dropShadow"/>
<feBlend mode="normal" in="SourceGraphic" in2="effect1_dropShadow" result="shape"/>
</filter>
<filter id="filter8_d" x="345.676" y="72.8594" width="86.2385" height="156.732" filterUnits="userSpaceOnUse" color-interpolation-filters="sRGB">
<feFlood flood-opacity="0" result="BackgroundImageFix"/>
<feColorMatrix in="SourceAlpha" type="matrix" values="0 0 0 0 0 0 0 0 0 0 0 0 0 0 0 0 0 0 127 0"/>
<feOffset dy="-4"/>
<feGaussianBlur stdDeviation="2"/>
<feColorMatrix type="matrix" values="0 0 0 0 0 0 0 0 0 0 0 0 0 0 0 0 0 0 0.05 0"/>
<feBlend mode="normal" in2="BackgroundImageFix" result="effect1_dropShadow"/>
<feBlend mode="normal" in="SourceGraphic" in2="effect1_dropShadow" result="shape"/>
</filter>
<filter id="filter9_d" x="364.407" y="78.8594" width="66.3051" height="59.2112" filterUnits="userSpaceOnUse" color-interpolation-filters="sRGB">
<feFlood flood-opacity="0" result="BackgroundImageFix"/>
<feColorMatrix in="SourceAlpha" type="matrix" values="0 0 0 0 0 0 0 0 0 0 0 0 0 0 0 0 0 0 127 0"/>
<feOffset dy="2"/>
<feGaussianBlur stdDeviation="2"/>
<feColorMatrix type="matrix" values="0 0 0 0 0 0 0 0 0 0 0 0 0 0 0 0 0 0 0.05 0"/>
<feBlend mode="normal" in2="BackgroundImageFix" result="effect1_dropShadow"/>
<feBlend mode="normal" in="SourceGraphic" in2="effect1_dropShadow" result="shape"/>
</filter>
<filter id="filter10_d" x="346.966" y="78.8594" width="45.8734" height="71.5198" filterUnits="userSpaceOnUse" color-interpolation-filters="sRGB">
<feFlood flood-opacity="0" result="BackgroundImageFix"/>
<feColorMatrix in="SourceAlpha" type="matrix" values="0 0 0 0 0 0 0 0 0 0 0 0 0 0 0 0 0 0 127 0"/>
<feOffset dy="2"/>
<feGaussianBlur stdDeviation="2"/>
<feColorMatrix type="matrix" values="0 0 0 0 0 0 0 0 0 0 0 0 0 0 0 0 0 0 0.05 0"/>
<feBlend mode="normal" in2="BackgroundImageFix" result="effect1_dropShadow"/>
<feBlend mode="normal" in="SourceGraphic" in2="effect1_dropShadow" result="shape"/>
</filter>
<filter id="filter11_d" x="364.408" y="72.8594" width="66.3051" height="155.702" filterUnits="userSpaceOnUse" color-interpolation-filters="sRGB">
<feFlood flood-opacity="0" result="BackgroundImageFix"/>
<feColorMatrix in="SourceAlpha" type="matrix" values="0 0 0 0 0 0 0 0 0 0 0 0 0 0 0 0 0 0 127 0"/>
<feOffset dy="-4"/>
<feGaussianBlur stdDeviation="2"/>
<feColorMatrix type="matrix" values="0 0 0 0 0 0 0 0 0 0 0 0 0 0 0 0 0 0 0.05 0"/>
<feBlend mode="normal" in2="BackgroundImageFix" result="effect1_dropShadow"/>
<feBlend mode="normal" in="SourceGraphic" in2="effect1_dropShadow" result="shape"/>
</filter>
<filter id="filter12_d" x="628.934" y="68.1254" width="64.3211" height="155.702" filterUnits="userSpaceOnUse" color-interpolation-filters="sRGB">
<feFlood flood-opacity="0" result="BackgroundImageFix"/>
<feColorMatrix in="SourceAlpha" type="matrix" values="0 0 0 0 0 0 0 0 0 0 0 0 0 0 0 0 0 0 127 0"/>
<feOffset dy="-4"/>
<feGaussianBlur stdDeviation="2"/>
<feColorMatrix type="matrix" values="0 0 0 0 0 0 0 0 0 0 0 0 0 0 0 0 0 0 0.05 0"/>
<feBlend mode="normal" in2="BackgroundImageFix" result="effect1_dropShadow"/>
<feBlend mode="normal" in="SourceGraphic" in2="effect1_dropShadow" result="shape"/>
</filter>
<filter id="filter13_d" x="610.84" y="68.1254" width="83.5762" height="156.732" filterUnits="userSpaceOnUse" color-interpolation-filters="sRGB">
<feFlood flood-opacity="0" result="BackgroundImageFix"/>
<feColorMatrix in="SourceAlpha" type="matrix" values="0 0 0 0 0 0 0 0 0 0 0 0 0 0 0 0 0 0 127 0"/>
<feOffset dy="-4"/>
<feGaussianBlur stdDeviation="2"/>
<feColorMatrix type="matrix" values="0 0 0 0 0 0 0 0 0 0 0 0 0 0 0 0 0 0 0.05 0"/>
<feBlend mode="normal" in2="BackgroundImageFix" result="effect1_dropShadow"/>
<feBlend mode="normal" in="SourceGraphic" in2="effect1_dropShadow" result="shape"/>
</filter>
<filter id="filter14_d" x="609.648" y="66.2546" width="155.735" height="82.539" filterUnits="userSpaceOnUse" color-interpolation-filters="sRGB">
<feFlood flood-opacity="0" result="BackgroundImageFix"/>
<feColorMatrix in="SourceAlpha" type="matrix" values="0 0 0 0 0 0 0 0 0 0 0 0 0 0 0 0 0 0 127 0"/>
<feOffset dy="-4"/>
<feGaussianBlur stdDeviation="2"/>
<feColorMatrix type="matrix" values="0 0 0 0 0 0 0 0 0 0 0 0 0 0 0 0 0 0 0.05 0"/>
<feBlend mode="normal" in2="BackgroundImageFix" result="effect1_dropShadow"/>
<feBlend mode="normal" in="SourceGraphic" in2="effect1_dropShadow" result="shape"/>
</filter>
<filter id="filter15_d" x="628.393" y="75.6292" width="66.2297" height="56.2872" filterUnits="userSpaceOnUse" color-interpolation-filters="sRGB">
<feFlood flood-opacity="0" result="BackgroundImageFix"/>
<feColorMatrix in="SourceAlpha" type="matrix" values="0 0 0 0 0 0 0 0 0 0 0 0 0 0 0 0 0 0 127 0"/>
<feOffset dy="2"/>
<feGaussianBlur stdDeviation="2"/>
<feColorMatrix type="matrix" values="0 0 0 0 0 0 0 0 0 0 0 0 0 0 0 0 0 0 0.05 0"/>
<feBlend mode="normal" in2="BackgroundImageFix" result="effect1_dropShadow"/>
<feBlend mode="normal" in="SourceGraphic" in2="effect1_dropShadow" result="shape"/>
</filter>
<filter id="filter16_d" x="609.93" y="74.6824" width="47.2916" height="71.9095" filterUnits="userSpaceOnUse" color-interpolation-filters="sRGB">
<feFlood flood-opacity="0" result="BackgroundImageFix"/>
<feColorMatrix in="SourceAlpha" type="matrix" values="0 0 0 0 0 0 0 0 0 0 0 0 0 0 0 0 0 0 127 0"/>
<feOffset dy="2"/>
<feGaussianBlur stdDeviation="2"/>
<feColorMatrix type="matrix" values="0 0 0 0 0 0 0 0 0 0 0 0 0 0 0 0 0 0 0.05 0"/>
<feBlend mode="normal" in2="BackgroundImageFix" result="effect1_dropShadow"/>
<feBlend mode="normal" in="SourceGraphic" in2="effect1_dropShadow" result="shape"/>
</filter>
<linearGradient id="paint0_linear" x1="105.978" y1="-50.6227" x2="-38.5109" y2="93.8665" gradientUnits="userSpaceOnUse">
<stop stop-color="white"/>
<stop offset="0.729282" stop-color="#F2F2F2"/>
<stop offset="1" stop-color="#E1E1E1"/>
</linearGradient>
<linearGradient id="paint1_linear" x1="118.663" y1="242.387" x2="232.378" y2="130.357" gradientUnits="userSpaceOnUse">
<stop offset="0.0113715" stop-color="#E1E1E1"/>
<stop offset="0.258671" stop-color="#F2F2F2"/>
<stop offset="0.854061" stop-color="white"/>
</linearGradient>
<linearGradient id="paint2_linear" x1="106.515" y1="-47.1614" x2="-37.9739" y2="97.3278" gradientUnits="userSpaceOnUse">
<stop stop-color="white"/>
<stop offset="0.729282" stop-color="#F2F2F2"/>
<stop offset="1" stop-color="#E1E1E1"/>
</linearGradient>
<linearGradient id="paint3_linear" x1="119.488" y1="241.875" x2="173.91" y2="107.858" gradientUnits="userSpaceOnUse">
<stop offset="0.0113715" stop-color="#E1E1E1"/>
<stop offset="0.231124" stop-color="#F2F2F2"/>
<stop offset="0.854061" stop-color="white"/>
</linearGradient>
<linearGradient id="paint4_linear" x1="119.488" y1="241.875" x2="233.203" y2="129.844" gradientUnits="userSpaceOnUse">
<stop offset="0.0113715" stop-color="#E1E1E1"/>
<stop offset="0.258671" stop-color="#F2F2F2"/>
<stop offset="0.854061" stop-color="white"/>
</linearGradient>
<radialGradient id="paint5_radial" cx="0" cy="0" r="1" gradientUnits="userSpaceOnUse" gradientTransform="translate(144.855 141.393) rotate(90) scale(5.68085 36.4521)">
<stop stop-color="#C4C4C4"/>
<stop offset="1" stop-color="#C4C4C4" stop-opacity="0"/>
</radialGradient>
<linearGradient id="paint6_linear" x1="119.488" y1="241.874" x2="233.203" y2="129.844" gradientUnits="userSpaceOnUse">
<stop offset="0.0113715" stop-color="#E1E1E1"/>
<stop offset="0.360385" stop-color="#F2F2F2"/>
<stop offset="0.854061" stop-color="white"/>
</linearGradient>
<linearGradient id="paint7_linear" x1="119.488" y1="241.875" x2="233.203" y2="129.844" gradientUnits="userSpaceOnUse">
<stop offset="0.0113715" stop-color="#E1E1E1"/>
<stop offset="0.748787" stop-color="#F2F2F2"/>
<stop offset="0.854061" stop-color="white"/>
</linearGradient>
<radialGradient id="paint8_radial" cx="0" cy="0" r="1" gradientUnits="userSpaceOnUse" gradientTransform="translate(38.1656 5.71447) rotate(90) scale(5.71447 38.1656)">
<stop stop-color="#C4C4C4"/>
<stop offset="1" stop-color="#C4C4C4" stop-opacity="0"/>
</radialGradient>
<linearGradient id="paint9_linear" x1="401.526" y1="232.949" x2="287.874" y2="115.084" gradientUnits="userSpaceOnUse">
<stop offset="0.0113715" stop-color="#E1E1E1"/>
<stop offset="0.360385" stop-color="#F2F2F2"/>
<stop offset="0.854061" stop-color="white"/>
</linearGradient>
<linearGradient id="paint10_linear" x1="401.526" y1="232.949" x2="287.874" y2="115.084" gradientUnits="userSpaceOnUse">
<stop offset="0.0113715" stop-color="#E1E1E1"/>
<stop offset="0.748787" stop-color="#F2F2F2"/>
<stop offset="0.854061" stop-color="white"/>
</linearGradient>
<linearGradient id="paint11_linear" x1="416.099" y1="233.462" x2="302.447" y2="115.597" gradientUnits="userSpaceOnUse">
<stop offset="0.0113715" stop-color="#E1E1E1"/>
<stop offset="0.258671" stop-color="#F2F2F2"/>
<stop offset="0.854061" stop-color="white"/>
</linearGradient>
<linearGradient id="paint12_linear" x1="415.231" y1="232.949" x2="362.807" y2="97.0557" gradientUnits="userSpaceOnUse">
<stop offset="0.0113715" stop-color="#E1E1E1"/>
<stop offset="0.231124" stop-color="#F2F2F2"/>
<stop offset="0.854061" stop-color="white"/>
</linearGradient>
<linearGradient id="paint13_linear" x1="415.231" y1="232.949" x2="301.579" y2="115.084" gradientUnits="userSpaceOnUse">
<stop offset="0.0113715" stop-color="#E1E1E1"/>
<stop offset="0.258671" stop-color="#F2F2F2"/>
<stop offset="0.854061" stop-color="white"/>
</linearGradient>
<radialGradient id="paint14_radial" cx="0" cy="0" r="1" gradientUnits="userSpaceOnUse" gradientTransform="translate(38.1656 5.71447) rotate(90) scale(5.71447 38.1656)">
<stop stop-color="#C4C4C4"/>
<stop offset="1" stop-color="#C4C4C4" stop-opacity="0"/>
</radialGradient>
<linearGradient id="paint15_linear" x1="415.231" y1="232.949" x2="301.578" y2="115.084" gradientUnits="userSpaceOnUse">
<stop offset="0.0113715" stop-color="#E1E1E1"/>
<stop offset="0.360385" stop-color="#F2F2F2"/>
<stop offset="0.854061" stop-color="white"/>
</linearGradient>
<linearGradient id="paint16_linear" x1="415.23" y1="232.949" x2="301.578" y2="115.084" gradientUnits="userSpaceOnUse">
<stop offset="0.0113715" stop-color="#E1E1E1"/>
<stop offset="0.748787" stop-color="#F2F2F2"/>
<stop offset="0.854061" stop-color="white"/>
</linearGradient>
<linearGradient id="paint17_linear" x1="678.164" y1="228.215" x2="624.393" y2="93.5721" gradientUnits="userSpaceOnUse">
<stop offset="0.0113715" stop-color="#E1E1E1"/>
<stop offset="0.231124" stop-color="#F2F2F2"/>
<stop offset="0.854061" stop-color="white"/>
</linearGradient>
<linearGradient id="paint18_linear" x1="678.164" y1="228.215" x2="564.437" y2="114.286" gradientUnits="userSpaceOnUse">
<stop offset="0.0113715" stop-color="#E1E1E1"/>
<stop offset="0.258671" stop-color="#F2F2F2"/>
<stop offset="0.854061" stop-color="white"/>
</linearGradient>
<radialGradient id="paint19_radial" cx="0" cy="0" r="1" gradientUnits="userSpaceOnUse" gradientTransform="translate(36.9991 5.69143) rotate(90) scale(5.69143 36.9991)">
<stop stop-color="#C4C4C4"/>
<stop offset="1" stop-color="#C4C4C4" stop-opacity="0"/>
</radialGradient>
<linearGradient id="paint20_linear" x1="757.097" y1="71.0694" x2="597.739" y2="61.7463" gradientUnits="userSpaceOnUse">
<stop offset="0.0113715" stop-color="#E1E1E1"/>
<stop offset="0.258671" stop-color="#F2F2F2"/>
<stop offset="0.854061" stop-color="white"/>
</linearGradient>
<linearGradient id="paint21_linear" x1="766.366" y1="171.363" x2="634.945" y2="112.085" gradientUnits="userSpaceOnUse">
<stop stop-color="white" stop-opacity="0.66"/>
<stop offset="1" stop-color="white" stop-opacity="0"/>
</linearGradient>
<linearGradient id="paint22_linear" x1="678.164" y1="228.215" x2="564.437" y2="114.286" gradientUnits="userSpaceOnUse">
<stop offset="0.0113715" stop-color="#E1E1E1"/>
<stop offset="0.360385" stop-color="#F2F2F2"/>
<stop offset="0.854061" stop-color="white"/>
</linearGradient>
<linearGradient id="paint23_linear" x1="678.164" y1="228.215" x2="564.436" y2="114.286" gradientUnits="userSpaceOnUse">
<stop offset="0.0113715" stop-color="#E1E1E1"/>
<stop offset="0.748787" stop-color="#F2F2F2"/>
<stop offset="0.854061" stop-color="white"/>
</linearGradient>
</defs>
</svg>
