<svg xmlns="http://www.w3.org/2000/svg" width="778" height="232" viewBox="0 0 778 232">
  <path fill="#fff" d="M255.307 100.076h10.014v-42.05c0-13.927 5.75-20.907 17.25-20.907 7.86 0 11.8 3.52 11.8 10.58 0 .62-.09 1.86-.28 3.67l-.3 1.73h10.13l.47-4.87c0-13.4-6.52-20.12-19.54-20.12-9.43 0-16.19 3.4-20.29 10.21l-.22-.22 1.01-8h-10.02v69.95zM325.4 48.002c0-7.245 6.37-10.883 19.12-10.883 7.51 0 12.377 1.2 14.598 3.6 2.222 2.4 3.333 7.65 3.333 15.77v8.43l-.21.06c-2.47-4.59-9.89-6.89-22.26-6.89-10.42 0-17.63 1.59-21.6 4.76-3.99 3.18-5.97 8.91-5.97 17.22 0 13.99 8.89 20.98 26.69 20.98 12.03 0 20.01-2.84 23.96-8.56l.21.07-.78 7.48h10.01v-45.8c0-9.78-2.05-16.41-6.13-19.89-4.1-3.49-11.95-5.23-23.59-5.23-10.7 0-17.9 1.43-21.57 4.27-3.68 2.85-5.51 8.43-5.51 16.7h10.2c-.31-1.05-.45-1.75-.45-2.11zm33.78 20.83c2.85 1.827 4.272 5.37 4.272 10.65 0 8.4-7.338 12.6-21.998 12.6-7.29 0-12.11-.874-14.488-2.623-2.378-1.75-3.567-5.33-3.567-10.76 0-5.22 1.18-8.62 3.59-10.22 2.41-1.59 7.59-2.39 15.57-2.39 8.23 0 13.77.92 16.61 2.73zM439.555.144v38.693l-.22.14c-2.44-6.558-10.03-9.853-22.733-9.853-10.186 0-17.258 2.56-21.2 7.65-3.943 5.092-5.915 14.195-5.915 27.296 0 14.24 1.956 23.968 5.883 29.183 3.912 5.215 11.234 7.823 21.967 7.823 11.735 0 19.213-3.373 22.437-10.15l.28.078-.5 9.072h10.014V.144h-10.013zm-4.194 43.11c2.79 3.42 4.2 10.026 4.2 19.832 0 12.117-1.27 19.97-3.78 23.578-2.52 3.622-7.98 5.418-16.36 5.418-7.71 0-12.8-1.796-15.24-5.418-2.44-3.607-3.66-11.15-3.66-22.64 0-10.432 1.24-17.35 3.71-20.77 2.48-3.418 7.47-5.136 14.99-5.136 7.98 0 13.38 1.718 16.16 5.137zM466.59.144v10.992h10.014V.144H466.59zm0 29.98v69.953h10.014V30.123H466.59zm31.84 5.73c-3.88 4.497-5.804 14.24-5.804 29.246 0 15.02 1.924 24.765 5.804 29.246 3.865 4.497 12.267 6.73 25.206 6.73 12.97 0 21.388-2.233 25.268-6.73 3.865-4.48 5.805-14.225 5.805-29.246 0-15.005-1.94-24.75-5.81-29.246-3.88-4.48-12.3-6.73-25.27-6.73-12.94 0-21.34 2.25-25.21 6.73zm42.026 6.605c2.16 2.9 3.238 10.44 3.238 22.64 0 12.21-1.08 19.75-3.238 22.64-2.16 2.9-7.777 4.34-16.82 4.34-9.012 0-14.598-1.44-16.757-4.34-2.16-2.89-3.24-10.43-3.24-22.64 0-12.2 1.08-19.74 3.24-22.64 2.15-2.89 7.74-4.35 16.75-4.35 9.04 0 14.66 1.45 16.82 4.34zm-286.15 189.29h10.013v-38.26h.21c3.71 6.18 11.33 9.27 22.84 9.27 10.09 0 17.11-2.55 21.07-7.64 3.94-5.09 5.93-14.2 5.93-27.31 0-14.13-1.96-23.83-5.87-29.11-3.92-5.27-11.05-7.9-21.44-7.9-11.77 0-19.42 3.35-22.99 10.07l-.28-.22.5-8.85h-10v99.93zm45.483-86.77c2.37 3.45 3.58 11 3.58 22.67 0 10.62-1.24 17.63-3.7 21.03s-7.53 5.09-15.21 5.09c-8.09 0-13.47-1.75-16.15-5.28-2.68-3.52-4.01-10.56-4.01-21.13 0-11.43 1.23-18.89 3.72-22.36 2.47-3.47 7.8-5.2 15.99-5.2 8.12 0 13.37 1.73 15.75 5.16zm41.63 4.71c0-7.25 6.37-10.89 19.12-10.89 7.51 0 12.37 1.2 14.59 3.6 2.22 2.4 3.33 7.65 3.33 15.77v8.43l-.22.06c-2.48-4.59-9.89-6.89-22.27-6.89-10.42 0-17.64 1.59-21.61 4.76-3.99 3.18-5.98 8.91-5.98 17.22 0 13.99 8.88 20.98 26.69 20.98 12.03 0 20.01-2.84 23.95-8.56l.2.08-.78 7.48h10.01V155.9c0-9.77-2.05-16.41-6.14-19.89-4.1-3.48-11.96-5.23-23.6-5.23-10.7 0-17.9 1.436-21.58 4.28-3.68 2.856-5.51 8.43-5.51 16.706h10.2c-.32-1.046-.46-1.75-.46-2.107zm33.78 20.83c2.84 1.82 4.27 5.37 4.27 10.65 0 8.4-7.34 12.6-22 12.6-7.29 0-12.11-.88-14.49-2.62-2.38-1.75-3.57-5.33-3.57-10.76 0-5.22 1.19-8.62 3.6-10.21 2.4-1.59 7.58-2.39 15.56-2.39 8.23 0 13.77.92 16.61 2.73zm32.31 31.24h10.01v-42.05c0-13.93 5.74-20.91 17.24-20.91 7.85 0 11.79 3.53 11.79 10.59 0 .62-.1 1.85-.28 3.66l-.3 1.73h10.13l.47-4.87c0-13.4-6.53-20.12-19.55-20.12-9.44 0-16.2 3.4-20.29 10.21l-.22-.22 1-7.99H407.5v69.95zm70.09-52.08c0-7.25 6.36-10.89 19.12-10.89 7.51 0 12.37 1.2 14.59 3.6 2.22 2.4 3.33 7.65 3.33 15.77v8.43l-.22.06c-2.47-4.59-9.89-6.89-22.27-6.89-10.42 0-17.64 1.59-21.61 4.76-3.99 3.18-5.98 8.91-5.98 17.22 0 13.99 8.88 20.99 26.69 20.99 12.03 0 20.01-2.85 23.95-8.56l.2.08-.79 7.48h10.01V155.9c0-9.774-2.05-16.41-6.14-19.89-4.1-3.484-11.95-5.233-23.6-5.233-10.7 0-17.9 1.44-21.58 4.28-3.68 2.86-5.51 8.43-5.51 16.71H478c-.313-1.048-.453-1.75-.453-2.11zm33.78 20.83c2.84 1.82 4.27 5.37 4.27 10.65 0 8.4-7.34 12.6-22 12.6-7.29 0-12.11-.88-14.49-2.62-2.38-1.75-3.57-5.33-3.57-10.76 0-5.22 1.19-8.62 3.59-10.21 2.41-1.6 7.59-2.39 15.57-2.39 8.23 0 13.77.92 16.61 2.73zm80.37-68.69v38.69l-.22.14c-2.44-6.56-10.03-9.86-22.74-9.86-10.19 0-17.26 2.56-21.2 7.65-3.95 5.09-5.92 14.19-5.92 27.29 0 14.24 1.95 23.96 5.88 29.18 3.91 5.21 11.23 7.82 21.96 7.82 11.73 0 19.21-3.38 22.44-10.15l.28.08-.5 9.07h10.01V101.8h-10.01zm-4.2 43.11c2.78 3.41 4.19 10.02 4.19 19.83 0 12.11-1.27 19.97-3.79 23.57-2.52 3.62-7.98 5.42-16.37 5.42-7.72 0-12.8-1.8-15.24-5.42-2.44-3.61-3.66-11.15-3.66-22.64 0-10.43 1.23-17.35 3.7-20.77 2.47-3.42 7.46-5.14 14.99-5.14 7.98 0 13.37 1.71 16.16 5.13zm31.23-43.12v10.99h10.02v-10.99h-10.01zm0 29.98v69.95h10.02V131.8h-10.01zm82.11 15.47c0-10.98-9.33-16.48-27.95-16.48-11.64 0-19.4 1.29-23.3 3.89-3.9 2.59-5.84 7.78-5.84 15.55 0 8.23 2.44 13.64 7.35 16.25 4.9 2.6 15.13 3.9 30.68 3.9 6.68 0 10.03 3.66 10.03 10.96 0 5.08-1.3 8.42-3.9 10.01-2.6 1.6-8.01 2.39-16.24 2.39-6.71 0-11.2-.72-13.49-2.17s-3.43-4.35-3.43-8.69l-.52-3.13h-10.64l.14 3.76c0 7.32 2.14 12.35 6.43 15.1 4.28 2.74 12.12 4.12 23.51 4.12 11.07 0 18.71-1.44 22.87-4.34 4.16-2.91 6.25-8.25 6.25-16.04 0-12.52-6.35-19.1-19.028-19.74l-10.45-.5-8.275-.44c-6.88-.345-10.31-4.06-10.31-11.18 0-4.685 1.03-7.64 3.1-8.87 2.063-1.234 6.93-1.86 14.61-1.86 8.26 0 13.37.55 15.38 1.626 1.98 1.09 2.983 3.87 2.983 8.37h10.26l-.28-2.517zm65.8 35.68c0 4.49-1.24 7.43-3.71 8.77-2.48 1.36-7.84 2.03-16.1 2.03-8.7 0-14.24-1.47-16.62-4.42-2.38-2.95-3.56-9.81-3.56-20.57h50.46v-5.5c0-13.34-2.01-22.1-6.01-26.25-4.01-4.16-12.47-6.23-25.37-6.23-11.83 0-19.76 2.39-23.81 7.16-4.07 4.78-6.09 14.15-6.09 28.08 0 15.07 2 24.95 6.02 29.65 4 4.72 12.43 7.06 25.28 7.06 11.04 0 18.76-1.438 23.17-4.31 4.4-2.87 6.6-7.918 6.6-15.13l.182-2.547H766.7v2.187zm-39.83-22.18c0-8.78 1.23-14.48 3.7-17.09 2.47-2.59 7.85-3.9 16.18-3.9 8.26 0 13.62 1.12 16.13 3.34 2.48 2.22 3.74 7.02 3.74 14.43l.07 3.21h-39.83zm-582.23-34.73c4.48 16.77 17.62 27.8 29.35 24.64s17.6-19.32 13.12-36.09c-4.49-16.77-17.63-27.81-29.36-24.64-11.73 3.16-17.6 19.31-13.12 36.08zM2.99 161.18c15.618 50.74 79.64 76.06 143.655 57.48L112.462 90.82 133.7 85.1l2.872 10.748c4.692-10.276 13.053-18.14 23.865-21.053 21.06-5.674 43.438 9.577 49.986 34.066 6.547 24.49-5.216 48.94-26.275 54.62-10.812 2.92-21.97.31-31.158-6.22l14.38 53.79c53.763-24.27 84.763-75.71 70.732-121.93-15.564-51.27-80.698-76.94-145.66-57.19-26.904 8.17-49.54 22.84-65.732 40.88l31.474-10.5 10.166 38.02c-.028-14.13 1.54-25.27 4.67-33.4 3.127-8.13 8.343-13.18 15.644-15.14 4.946-1.33 9.357-.75 13.2 1.75 3.842 2.5 6.5 6.51 7.977 12.03 1.2 4.48.95 8.26-.71 11.37-1.65 3.12-4.26 5.12-7.75 6.06-3.43.93-6.54.5-9.26-1.33-2.71-1.79-4.62-4.74-5.71-8.81-.69-2.59-.61-5.24.25-7.96.84-2.42 1.22-3.83 1.12-4.2-.28-1.04-1.02-1.42-2.17-1.11-2.49.67-4.86 3.15-7.1 7.43-3.08 6.03-4.69 13.61-4.78 22.72-.14 14.18.85 25.17 2.96 33.04l5.83 21.81c.67 2.49 2.01 4.15 4.04 4.97 2.04.86 5.07.73 9.17-.37l12.52-3.37 2.3 8.62-62.45 16.82-2.3-8.61 9.59-2.58c3.23-.87 5.49-2.13 6.81-3.815 1.32-1.69 1.75-3.43 1.29-5.18L47.37 90.9c-1.216-4.54-3.08-7.61-5.567-9.212-2.51-1.592-5.56-1.926-9.16-.956l-8.18 2.198-1.53-5.713c-20.33 24.9-28.723 55.42-19.94 83.966z"/>
</svg>
