<?xml version="1.0" encoding="utf-8"?>
<!-- Generator: Adobe Illustrator 24.1.2, SVG Export Plug-In . SVG Version: 6.00 Build 0)  -->
<svg version="1.1" id="Layer_1" xmlns="http://www.w3.org/2000/svg" xmlns:xlink="http://www.w3.org/1999/xlink" x="0px" y="0px"
	 viewBox="0 0 478 542" style="enable-background:new 0 0 478 542;" xml:space="preserve">
<style type="text/css">
	.st0{opacity:0.19;}
	.st1{opacity:0.3;enable-background:new    ;}
	.st2{opacity:0.1;fill-opacity:0.78;enable-background:new    ;}
	.st3{fill:#EAEAEA;}
	.st4{fill:#CDCDCD;}
	.st5{fill:#EBEBEB;}
	.st6{fill:#FFFFFF;}
	.st7{fill:#BFBFBF;}
	.st8{fill:#C4C4C4;}
	.st9{fill:#B6B6B6;}
	.st10{fill:#AAAAAA;}
	.st11{fill:#D5D5D5;}
	.st12{fill:#9E9E9E;}
	.st13{fill:#ECECEC;}
	.st14{fill:#D3D3D3;}
	.st15{fill:#EDEDED;}
	.st16{fill:#CACACA;}
	.st17{fill:#C8C7C7;}
	.st18{fill:url(#SVGID_1_);}
	.st19{fill:url(#SVGID_2_);}
	.st20{fill:url(#SVGID_3_);}
	.st21{fill:url(#SVGID_4_);}
	.st22{fill:url(#SVGID_5_);}
	.st23{fill:url(#SVGID_6_);}
	.st24{fill:#BCBEC0;}
	.st25{fill:url(#SVGID_7_);}
	.st26{fill:url(#SVGID_8_);}
	.st27{fill:url(#SVGID_9_);}
	.st28{fill:url(#SVGID_10_);}
	.st29{fill:url(#SVGID_11_);}
	.st30{fill:url(#SVGID_12_);}
	.st31{opacity:0.15;enable-background:new    ;}
	.st32{fill:url(#SVGID_13_);}
	.st33{fill:url(#SVGID_14_);}
	.st34{fill:url(#SVGID_15_);}
	.st35{fill:url(#SVGID_16_);}
	.st36{fill:url(#SVGID_17_);}
	.st37{fill:#F6F7F8;}
	.st38{fill:url(#SVGID_18_);}
	.st39{fill:url(#SVGID_19_);}
	.st40{fill:#F1F2F2;}
	.st41{fill:url(#SVGID_20_);}
	.st42{opacity:0.34;}
	.st43{fill:#D8D9D9;}
	.st44{fill:#C9CBCC;}
	.st45{fill:#BDBFC0;}
	.st46{fill:#FEFEFF;}
	.st47{fill:url(#SVGID_21_);}
	.st48{fill:#D1D3D4;}
	.st49{fill:url(#SVGID_22_);}
	.st50{fill:url(#SVGID_23_);}
</style>
<g class="st0">
	<path class="st1" d="M401.4,499.7L401.4,499.7c0.2-0.2,0.2-0.2,0.3-0.4c0,0,0,0,0-0.1c0.1-0.2,0.2-0.2,0.2-0.4
		c2.6-4,5.7-15.6,5-18.2c-0.7-2.5-3.7-10-4.8-12.7c0.2-0.6,0.3-1.1,0.4-1.6c-0.2-0.4-3.1-4.2-5.5-6.9c0.1-1,0-2-0.3-2.8
		c-0.6-1.5-7.3-6.2-10.7-8.5c-1.5-4-6.1-7.2-10.2-9.8c-0.1-0.6-0.2-1.2-0.5-1.8c-1.4-1.9-10-4.4-11.9-4.9c-0.9-0.2-4.8,2.4-8.6,5.3
		l-10,2.8l-0.8-3.4l0.1-0.7l0.5-2.1l-2-4.4h13.5l21.9-18.9l-0.2,0.1l4.2-2.1l8.2-12.7l-0.1-0.6l0.1-0.2l-1-7.9h-9.5l-27.1,21.7
		l32-34l-2.3-23.8l-0.8-1l-0.2-1.3L367.5,332l-35.6,80.7l-2-1.8l-9.5-1.2c0,0-3.2-6-3.1-5.6c0.1,0.5-5,4.3-7.6,4.9
		c-0.5,0.1-1.1,0.2-2,0.3c0.4-1.4,0.8-2.4,1-3.1c2.7-7.7,6.4-10.7,6.6-11.4c0.6,0,1,0,1,0s-4.2-1.6-6,0.3c-1.1,1.1-3.5,8.5-5.3,14.4
		c-3,0.4-6.1,0.7-6.1,0.7s-2.5,4.7-3.6,7.2c-0.1,0.2-0.2,0.5-0.3,0.8c-5.8,0.5-13.1,1.1-14.7,1.6c-2.8,1-7.4,5.7-7.7,6.9
		c-0.5,1.6,0,2.4,0,2.4s0.2-0.5,0.6-1.1c0.5,1.2,2.7,0.7,2.8-1.2c0.1-1.9,3.2-3.1,5.2-3.5c1.6-0.4,10.1-0.4,12.5-0.5
		c-0.2,0.7-0.3,1.1-0.3,1.1l5.4,16l0.1-0.1c-0.1,0.1-0.2,0.2-0.3,0.2c1.1-0.4,5.9-0.9,8.9-1.1c0.1,0,0.1,0,0.2,0.1l-17.5,9.3
		l-42.1,19.6L214,495.9l2.1,1.4l-1.1,0.9l9.5,6.2l25.8-0.7l68.2-60.7c0.2,0.1,0.4,0.2,0.6,0.2c0.2,0.2,0.5,0.4,0.8,0.5
		c-4.4,3.9-56.5,50.4-56.2,51.3c0,0.1,0.1,0.3,0.1,0.6c-0.1,0.1-0.1,0.2-0.1,0.2c0.1,0.2,0.1,0.5,0.1,1c0,2.7-0.4,7.7-0.4,7.7h0.1
		c0,0.5-0.1,0.8-0.1,0.8l8.5,0.7l30.1-15l3.9-7.4l17.4-18.1l5-18.4c3.9,1.7,7.1,3.2,8,4c2.8,2.3,2.8,13.9,2.8,13.9l1.5-2.2
		c0,0.5,0,0.8,0,1.1c-0.6,1.2-1.2,2.4-1.8,3.4c-0.1,0.2-0.1,0.3,0,0.5c-0.3,0.5-0.5,1.1-0.8,1.5c-0.6,1.7,6.6,9.7,7.9,10.1
		c0.5,0.2,1.8-0.3,3.2-1.1c2.1,2.3,4.5,4,7.6,6.3c0.7,0.2,1.4,0.2,2.1,0.1c1.5,1.8,3.7,4.4,6.2,6.4c2.1,1.8,4.4,3.4,6.3,4h0.1
		c0.3,0.1,0.5,0.2,0.8,0.2c0,0,0.6-0.2,1.5-0.5c2.1,1.2,8,4.6,9.6,4.7c0.5-0.1,1.1-0.5,1.5-0.7c2.9,0.7,10.6,2.4,14.4,2.1
		c0.1,0,0.2,0,0.2,0c0.1,0,0.1,0,0.2,0c0.1,0,0.2,0,0.3-0.1c0.1,0,0.1,0,0.2,0c0.1,0,0.2-0.1,0.3-0.1h0.1c0.1,0,0.2-0.1,0.2-0.1h0.1
		c0.1-0.1,0.2-0.1,0.2-0.2c0.1-0.1,0.2-0.2,0.3-0.2C401.2,499.8,401.3,499.7,401.4,499.7z M314.3,407.6c0.6-0.4,1.1-0.8,1.6-1.1
		C315.4,406.9,314.9,407.2,314.3,407.6z M310.4,397.5c-1.1,2.1-2.4,5.6-3.3,8c0.2-0.8,0.4-1.3,0.5-1.5
		C308.2,402.5,309.3,399.5,310.4,397.5z"/>
	<path class="st1" d="M354.5,381.7c0,0,0.1-0.1,0.3-0.2C354.6,381.6,354.5,381.7,354.5,381.7z"/>
</g>
<path class="st2" d="M239.3,450.3l-0.9-35.1l-33.1-20.3l-6.1,2.5l3.1-6.9v-32.6l-31.7-19.1l-32.7,12.4l-4.7,10.7l0.5-11.2
	l-31.4-19.2l-34.1,12.4l-12.7,11.1L53.3,376l-29,17.3l-12.1,11.5L7,437l38.6,30.6l-0.9,4.8l-5,29.3l40,32.2l37.6-16.6l37.4,23.9
	l40.2-16.7l7.6-17.2v-27l29.2-12.9L239.3,450.3z M166.4,522.8L132,500.4l1.1-22.8l27.5-11.6l33.3,21.1v23.3L166.4,522.8z M23.3,409
	l29.4-11l31.5,19.8l-1.5,19.7l-29.2,11.9l-32.5-21.1L23.3,409z M193.7,392.9l-24.8,10l-31.7-19.7l0.7-17.1l24.9-9.4l30.9,18.6V392.9
	z M165.6,419.5l1.9-0.7l-2,4.3L165.6,419.5z M91.6,415.8l0.2-2.6l1.1-0.5L91.6,415.8z M89,441.8l-2.1,0.9l2.5-5.7L89,441.8z
	 M98.3,415.6l27.1-10.7l31.9,19.8l-0.5,20l-27.1,11.4l-32.7-20.9L98.3,415.6z M163.9,444.7l-0.1,4.8l-2.5,1.1L163.9,444.7z
	 M124.2,385.5l-26.8,10.4L66.1,376l1.6-16.9l26.9-9.8l30.6,18.7L124.2,385.5z M55.5,470.7l29.7-12.1l33,21.1l-1.2,22.9l-29.7,13.1
	l-34-22.6L55.5,470.7z M124.1,469.1l4.7,2.3l-4.7,3.8V469.1z M172.6,423.4l25.1-10.3l32.2,19.7l0.5,20.4l-25,11l-33.2-20.8
	L172.6,423.4z"/>
<path class="st3" d="M197.9,348l-7.6,17.4L159,346.6l7.8-17.4L197.9,348z"/>
<path class="st4" d="M166.8,329.2l-7.8,17.4l-32,12.1l7.7-17.4L166.8,329.2z"/>
<path class="st5" d="M128.6,340.7l-7.8,17.4l-30.7-18.9l7.7-17.4L128.6,340.7z"/>
<path class="st6" d="M197.8,379.8l-7.6,17.4l0.1-31.8l7.6-17.4L197.8,379.8z"/>
<path class="st5" d="M234.2,405.8l-7.7,17.4l-32.5-19.9l7.6-17.4L234.2,405.8z"/>
<path class="st7" d="M97.8,321.9l-7.7,17.4l-33.4,12.1l7.7-17.4L97.8,321.9z"/>
<path class="st8" d="M132.2,373.7l-7.6,17.4l1.5-33l7.8-17.4L132.2,373.7z"/>
<path class="st6" d="M127,372.7l-7.8,17.4l1.6-32l7.8-17.4L127,372.7z"/>
<path class="st6" d="M198.8,380.5l-33.6,13.6l-33-20.4l1.5-32.8l33-12.5l32,19.2L198.8,380.5z M134.7,341.4l-1.5,32l32,19.7
	l32.6-13.2V348l-31.1-18.7L134.7,341.4z"/>
<path class="st9" d="M165.1,394.1l-7.7,17.4l-33-20.4l7.6-17.4L165.1,394.1z"/>
<path class="st10" d="M198.8,380.5l-7.7,17.4l-33.6,13.6l7.7-17.4L198.8,380.5z"/>
<path class="st4" d="M201.8,385.9l-7.6,17.4l-32.7,13.4l7.6-17.4L201.8,385.9z"/>
<path class="st5" d="M161.1,397.7l-7.8,17.4l-32.1-20l7.7-17.4L161.1,397.7z"/>
<path class="st6" d="M235,440.1l-7.6,17.4l-0.8-34.3l7.7-17.4L235,440.1z"/>
<path class="st6" d="M60.3,366.5l-7.7,17.4l3.3-33l7.7-17.4L60.3,366.5z"/>
<path class="st11" d="M93,386.9l-7.8,17.4l-32.6-20.5l7.7-17.4L93,386.9z"/>
<path class="st12" d="M127.9,373.3l-7.7,17.4l-35,13.6l7.8-17.4L127.9,373.3z"/>
<path class="st6" d="M127.9,373.3L93,386.9l-32.6-20.5l3.1-33L97.9,321l31.7,19.4L127.9,373.3z M64.4,334l-3,32l31.6,20l33.9-13.2
	l1.6-32l-30.7-18.9L64.4,334z"/>
<path class="st4" d="M128.9,377.7l-7.7,17.4l-34,13.4l7.8-17.4L128.9,377.7z"/>
<path class="st13" d="M87.4,390.7l-7.8,17.4l-31.7-20l7.7-17.4L87.4,390.7z"/>
<path class="st7" d="M167.4,434.2l-7.8,17.4l0.9-35.5l7.6-17.4L167.4,434.2z"/>
<path class="st6" d="M160.1,432l-7.7,17.4l0.9-34.3l7.8-17.4L160.1,432z"/>
<path class="st7" d="M236,440.8l-7.6,17.4l-34.2,15.1l7.6-17.4L236,440.8z"/>
<path class="st12" d="M201.8,455.9l-7.6,17.4l-34.5-21.7l7.8-17.4L201.8,455.9z"/>
<path class="st6" d="M236,440.8l-34.2,15.1l-34.5-21.7l0.8-35.5l33.6-13.7l33.4,20.5L236,440.8z M169,399.3l-0.8,34.5l33.5,21
	l33.2-14.6l-0.8-34.3l-32.5-19.9L169,399.3z"/>
<path class="st13" d="M197.9,460.4l-7.8,17.4l-33.5-21.1l7.6-17.4L197.9,460.4z"/>
<path class="st7" d="M55.5,370.7l-7.7,17.4l-35.4,13.4l7.7-17.4L55.5,370.7z"/>
<path class="st14" d="M91.4,426l-7.7,17.4l2.6-35.6l7.7-17.4L91.4,426z"/>
<path class="st6" d="M84.6,425.3L77,442.6l2.6-34.6l7.8-17.4L84.6,425.3z"/>
<path class="st9" d="M125.5,447.8l-7.7,17.4l-34.1-21.7l7.7-17.4L125.5,447.8z"/>
<path class="st6" d="M161.1,432.7l-35.6,15.1L91.4,426l2.6-35.6l35-13.7l33,20.5L161.1,432.7z M95,391.1l-2.5,34.5l33.1,21.1
	l34.5-14.6l0.9-34.5l-32.1-20L95,391.1z"/>
<path class="st12" d="M161.1,432.7l-7.6,17.4l-35.6,15.1l7.7-17.4L161.1,432.7z"/>
<path class="st4" d="M164.3,439.3l-7.6,17.4l-34.7,14.7l7.7-17.4L164.3,439.3z"/>
<path class="st13" d="M121.6,453l-7.8,17.4l-33.1-21.2l7.7-17.4L121.6,453z"/>
<path class="st6" d="M197.8,497.6l-7.6,17.4v-37.2l7.8-17.4L197.8,497.6z"/>
<path class="st6" d="M14.8,419l-7.7,17.4l4.5-35.6l7.7-17.4L14.8,419z"/>
<path class="st15" d="M48.5,440.9l-7.8,17.4L7.1,436.4l7.7-17.4L48.5,440.9z"/>
<path class="st6" d="M88.4,390.3l-2.8,35.6l-37.1,15L14.8,419l4.5-35.6l36.4-13.7L88.4,390.3z M48.6,439.9l36.1-14.6l2.6-34.6
	l-31.7-20l-35.5,13.4l-4.3,34.6L48.6,439.9z"/>
<path class="st9" d="M85.6,425.9L78,443.3l-37.2,15l7.8-17.4L85.6,425.9z"/>
<path class="st4" d="M88.4,431.8l-7.7,17.4l-36.2,14.7l7.8-17.4L88.4,431.8z"/>
<path class="st16" d="M126.8,491.9l-7.7,17.4l1.8-38.5l7.8-17.4L126.8,491.9z"/>
<path class="st6" d="M119.6,490.4l-7.6,17.4l1.9-37.3l7.8-17.4L119.6,490.4z"/>
<path class="st6" d="M198.8,498.4l-36.4,16.7l-35.6-23.2l1.9-38.5l35.7-15.2l34.6,21.7L198.8,498.4z M129.5,454l-1.8,37.3l34.6,22.5
	l35.4-16.2v-37.2l-33.6-21.2L129.5,454z"/>
<path class="st17" d="M198.8,498.4l-7.7,17.4l-36.4,16.7l7.6-17.4L198.8,498.4z"/>
<path class="st15" d="M162.4,515.1l-7.7,17.4l-35.6-23.2l7.7-17.4L162.4,515.1z"/>
<path class="st6" d="M47.5,484.5l-7.8,17.4l3.9-38.6l7.7-17.4L47.5,484.5z"/>
<path class="st6" d="M120.6,491l-38,16.7l-35.2-23.4l3.8-38.6l37.2-15.2l34.1,21.9L120.6,491z M52.3,446.5L48.6,484l34.2,22.6
	l36.9-16.2l1.9-37.3l-33.2-21.2L52.3,446.5z"/>
<path class="st15" d="M82.6,507.8L75,525.2l-35.2-23.4l7.8-17.4L82.6,507.8z"/>
<path class="st17" d="M120.6,491l-7.7,17.4l-38,16.9l7.7-17.4L120.6,491z"/>
<linearGradient id="SVGID_1_" gradientUnits="userSpaceOnUse" x1="344.6299" y1="278.0388" x2="313.4368" y2="268.9306" gradientTransform="matrix(1 0 0 -1 0 544)">
	<stop  offset="0" style="stop-color:#FFFFFF"/>
	<stop  offset="0.3545" style="stop-color:#E6E7E7"/>
	<stop  offset="0.7292" style="stop-color:#9C9FA1"/>
	<stop  offset="0.9958" style="stop-color:#7D8083"/>
</linearGradient>
<path class="st18" d="M346.5,296.2l0.7,7.5l-5.7-9.4c0,0-18.6-28.4-20.4-31.6c-1.9-3.3-9.9-23.7-9.9-23.7l3.4-2.7
	c0,0,9.2,12.8,14.1,21.3c4.9,8.5,16.6,33.6,16.6,33.6s9.2,8.5,8.6,8.5C353.3,299.8,346.5,296.2,346.5,296.2z"/>
<linearGradient id="SVGID_2_" gradientUnits="userSpaceOnUse" x1="334.2154" y1="325.6504" x2="313.7352" y2="334.3494" gradientTransform="matrix(1 0 0 -1 0 544)">
	<stop  offset="0" style="stop-color:#FFFFFF"/>
	<stop  offset="0.3545" style="stop-color:#E6E7E7"/>
	<stop  offset="0.4517" style="stop-color:#D4D4D6"/>
	<stop  offset="0.7292" style="stop-color:#9C9FA1"/>
	<stop  offset="1" style="stop-color:#7D8083"/>
</linearGradient>
<path class="st19" d="M330.3,192.9c-0.3,0.8-4.9,25.7-4.9,25.7l-8.9,10.9l1.1,7.9l-3.3,0.8l-4.2,3.4l-1.5-9.3l15.2-40
	c0,0,6.9-9.4,7.1-8.6C331.2,184.4,330.3,192.9,330.3,192.9z"/>
<linearGradient id="SVGID_3_" gradientUnits="userSpaceOnUse" x1="441.7606" y1="364.1889" x2="431.0202" y2="346.7518" gradientTransform="matrix(1 0 0 -1 0 544)">
	<stop  offset="8.443031e-02" style="stop-color:#FFFFFF"/>
	<stop  offset="0.3545" style="stop-color:#E6E7E7"/>
	<stop  offset="0.7292" style="stop-color:#9C9FA1"/>
	<stop  offset="0.9958" style="stop-color:#7D8083"/>
</linearGradient>
<path class="st20" d="M425.5,173l21.9,17.5l4.5,6.1l-9.5-3.4l-18.5-11.5L425.5,173z"/>
<radialGradient id="SVGID_4_" cx="-64.6041" cy="659.859" r="1.0544" gradientTransform="matrix(51.856 4.3659 1.3124 -15.5876 2878.0522 10742.498)" gradientUnits="userSpaceOnUse">
	<stop  offset="0" style="stop-color:#7D8083"/>
	<stop  offset="0.8086" style="stop-color:#E6E7E7"/>
</radialGradient>
<path class="st21" d="M368,163.9c3.4,0.8,37.4-5.9,37.4-5.9l23.8,14.1l0.3,16l-18.8-17.5l-34,1.6l-6.3,4.2l-8.9,1.8L368,163.9z"/>
<linearGradient id="SVGID_5_" gradientUnits="userSpaceOnUse" x1="464.2404" y1="355.1933" x2="455.7818" y2="334.5318" gradientTransform="matrix(1 0 0 -1 0 544)">
	<stop  offset="8.443031e-02" style="stop-color:#FFFFFF"/>
	<stop  offset="0.3545" style="stop-color:#E6E7E7"/>
	<stop  offset="0.7292" style="stop-color:#9C9FA1"/>
	<stop  offset="0.9958" style="stop-color:#7D8083"/>
</linearGradient>
<path class="st22" d="M471.7,206.8l-25.3-9.8c0,0-2-2.4-1.6-4c0.4-1.6,3.2-4.8,3.2-4.8l14,8.8l15.2,3.6l-7.8,1.3L471.7,206.8z"/>
<linearGradient id="SVGID_6_" gradientUnits="userSpaceOnUse" x1="286.4455" y1="372.1409" x2="377.4533" y2="371.8973" gradientTransform="matrix(1 0 0 -1 0 544)">
	<stop  offset="3.555710e-03" style="stop-color:#FFFFFF"/>
	<stop  offset="0.1259" style="stop-color:#E6E7E7"/>
	<stop  offset="0.2297" style="stop-color:#D4D4D6"/>
	<stop  offset="0.5586" style="stop-color:#9C9FA1"/>
	<stop  offset="0.9371" style="stop-color:#7D8083"/>
</linearGradient>
<path class="st23" d="M311.9,126.5l-9.2,11.8l-16.4,18.1l11.7,18.5c0,0,39.8,15.6,44.6,19.4c4.8,3.8,4.5,23.1,4.5,23.1l30.3-46.9
	l-22.8,6.4l-7.5-31.8l-16.9-16.1L311.9,126.5z"/>
<path class="st24" d="M314.3,125.3l-9.2,11.8l-16.4,18.1l11.7,18.5c0,0,39.8,15.6,44.6,19.4c4.8,3.8,4.5,23.1,4.5,23.1l30.3-46.9
	l-22.8,6.4l-7.5-31.8l-17.1-16.1L314.3,125.3z"/>
<linearGradient id="SVGID_7_" gradientUnits="userSpaceOnUse" x1="393.8889" y1="342.8354" x2="351.5788" y2="338.1959" gradientTransform="matrix(1 0 0 -1 0 544)">
	<stop  offset="0.1601" style="stop-color:#E6E7E7"/>
	<stop  offset="0.9327" style="stop-color:#A3A5A8"/>
</linearGradient>
<path class="st25" d="M348.9,179.6c1.3,0.5,8.2,5.2,9.9,4.7c1.5-0.5,24.5-19.5,27.7-18.7c3.2,0.9,17.5,5,19.7,8.2
	c6.2,14.3-22.9,49.6-31.5,58c-3,2.9-14.1,10.4-16.4,9.6c-2.3-0.8-14.2-14-13.1-16.9c4.3-7.8,11.8-21.5,5.5-31.3
	C341.7,183.1,338.9,187.9,348.9,179.6z"/>
<linearGradient id="SVGID_8_" gradientUnits="userSpaceOnUse" x1="421.114" y1="295.0665" x2="460.0929" y2="294.962" gradientTransform="matrix(1 0 0 -1 0 544)">
	<stop  offset="0.1601" style="stop-color:#E6E7E7"/>
	<stop  offset="0.9327" style="stop-color:#A3A5A8"/>
</linearGradient>
<path class="st26" d="M451.2,221.1c0,0,7.2,17.6,8.6,22.7c1.4,5.1-5.7,29.3-10.1,32.3c-4.4,3-29.5-3.2-28.8-3.2
	C437.3,265.5,447.6,231.2,451.2,221.1z"/>
<g>
	
		<linearGradient id="SVGID_9_" gradientUnits="userSpaceOnUse" x1="412.9705" y1="309.5366" x2="450.7011" y2="298.5462" gradientTransform="matrix(1 0 0 -1 0 544)">
		<stop  offset="0.6562" style="stop-color:#FFFFFF"/>
		<stop  offset="1" style="stop-color:#E6E7E7"/>
	</linearGradient>
	<path class="st27" d="M402.2,265.3c1,0.5,14.6,8.5,17.6,8.9c22.3-3.2,30.5-45.8,32.8-54c-0.4-1-12-15.6-13.4-15.9
		c0,0.8-9,33.7-11.3,39.4C425.7,249.4,402.2,265.3,402.2,265.3z"/>
</g>
<g>
	
		<linearGradient id="SVGID_10_" gradientUnits="userSpaceOnUse" x1="377.6579" y1="316.5132" x2="443.4473" y2="316.3373" gradientTransform="matrix(1 0 0 -1 0 544)">
		<stop  offset="0.1601" style="stop-color:#E6E7E7"/>
		<stop  offset="0.9327" style="stop-color:#A3A5A8"/>
	</linearGradient>
	<path class="st28" d="M422,187.5c0,0,19.7,13,21,16.4c1.3,3.4-0.1,8.6-0.5,10.1c-1.5,5.2-18.7,41.1-24.5,45.6
		c-5.7,4.4-16.1,7.9-16.1,7.9c-8.6-1.2-21-15.5-24.3-20.6c0,0,18.2-19.6,22.6-24.8C404.7,217,422,187.5,422,187.5z"/>
</g>
<g>
	
		<linearGradient id="SVGID_11_" gradientUnits="userSpaceOnUse" x1="374.4123" y1="344.075" x2="417.644" y2="316.1326" gradientTransform="matrix(1 0 0 -1 0 544)">
		<stop  offset="0.4473" style="stop-color:#FFFFFF"/>
		<stop  offset="0.9896" style="stop-color:#E6E7E7"/>
	</linearGradient>
	<path class="st29" d="M398.3,166.6c6.6,5.7,25.9,13.9,27.7,25.7c-3.8,10.1-30.5,61.4-49.7,57.7c-9.2-6.7-14.8-10.8-19.6-22.1
		C361.5,219.6,392.5,174.5,398.3,166.6z"/>
</g>
<g>
	
		<linearGradient id="SVGID_12_" gradientUnits="userSpaceOnUse" x1="343.8971" y1="343.8358" x2="408.377" y2="343.664" gradientTransform="matrix(1 0 0 -1 0 544)">
		<stop  offset="0.1601" style="stop-color:#E6E7E7"/>
		<stop  offset="0.9327" style="stop-color:#A3A5A8"/>
	</linearGradient>
	<path class="st30" d="M350.3,176.3c1.3,0.5,8.2,5.2,9.9,4.7c1.6-0.5,24.5-19.5,27.7-18.7c3.2,0.9,17.5,5,19.7,8.2
		c6.2,14.3-22.9,49.6-31.5,58c-3,2.9-14.1,10.4-16.4,9.6c-2.3-0.8-14.2-14-13.1-16.9c4.3-7.8,11.8-21.5,5.5-31.3
		C343.1,179.8,340.3,184.6,350.3,176.3z"/>
</g>
<path class="st31" d="M447.4,271.6c-2.9,1.3-11.2-0.2-17.5-2.1c0.1-0.1,0.6-0.6,0.8-0.6c-3-0.9-5.2-1.5-7.2-2.3
	c-1.4-0.5-4.4-1.5-8.6-4c-0.1-0.1,1.1-1.3,0.9-1.4c0,0-0.8,0.5-0.8,0.4c-6.7-3.8-16.5-9.2-24.9-15.1c-0.3-0.1,1.9-2.9,1.9-2.9
	l-1.9,1.6c-7.5-5.2-13.5-8.5-17.6-12.6c0.3-0.3,2.7-3.2,3.1-3.4c0.4-0.3-1.9,1.4-1.7,1.1c-1.8-1.8-4.2-4.4-4.9-5.3
	c-10.4-12.8-10-17.9-11.1-19.9c-1.1-2-1.8-6.5-3.1-8.8c0.6,10.1-5.4,20-7.9,24.8c-1,2.8,10.9,16.1,13.1,16.9c0,0,2.5-0.4,2.7-0.4
	c3.8,5.2,7.4,7.7,13.7,12.3c1,0.3,2.6,0.1,3.6,0c4.9,6.2,14.9,16.8,22.1,17.7c0,0,1-0.4,2.5-0.9c3.4,2,13.3,7.6,15.9,7.8
	c0.9-0.1,1.9-1,2.8-1.3c5.6,1.4,22.9,5.4,26.6,2.9c1.4-1,2.9-3.9,4.6-8C452.1,270.1,449.7,270.5,447.4,271.6z"/>
<linearGradient id="SVGID_13_" gradientUnits="userSpaceOnUse" x1="358.9473" y1="325.604" x2="339.7272" y2="325.9467" gradientTransform="matrix(1 0 0 -1 0 544)">
	<stop  offset="0" style="stop-color:#FFFFFF"/>
	<stop  offset="0.1742" style="stop-color:#E6E7E7"/>
	<stop  offset="0.4517" style="stop-color:#D4D4D6"/>
	<stop  offset="0.7292" style="stop-color:#9C9FA1"/>
	<stop  offset="1" style="stop-color:#7D8083"/>
</linearGradient>
<path class="st32" d="M342.6,203.2l-0.1,35.5l9-1.2l1.2-17l-1.1-4.8l9.5,5.2l-5.7-12.4l-3.5-10.7L342.6,203.2z"/>
<linearGradient id="SVGID_14_" gradientUnits="userSpaceOnUse" x1="402.232" y1="262.1301" x2="387.3888" y2="240.5913" gradientTransform="matrix(1 0 0 -1 0 544)">
	<stop  offset="0" style="stop-color:#FFFFFF"/>
	<stop  offset="0.2935" style="stop-color:#E6E7E7"/>
	<stop  offset="0.7292" style="stop-color:#9C9FA1"/>
	<stop  offset="0.9958" style="stop-color:#7D8083"/>
</linearGradient>
<path class="st33" d="M423.6,307.4l-7.6-3.1c0,0-18.2-15.8-18.7-15.5c-0.5,0.3-2.9,0-2.9,0l0.4-4.4c0,0-15-17.2-15.7-17.3
	c-0.6-0.1-4.8-1.4-4.8-1.4l-1.4,7.5l17.1,17.5l3.4,1.4l0.2,3.7l19.4,10.6l5.6,7.6l-1.1-6.5l6.2,0V307.4z"/>
<g>
	
		<linearGradient id="SVGID_15_" gradientUnits="userSpaceOnUse" x1="366.7505" y1="292.3849" x2="354.8544" y2="284.5252" gradientTransform="matrix(1 0 0 -1 0 544)">
		<stop  offset="8.443031e-02" style="stop-color:#FFFFFF"/>
		<stop  offset="0.3545" style="stop-color:#E6E7E7"/>
		<stop  offset="0.7292" style="stop-color:#9C9FA1"/>
		<stop  offset="0.9958" style="stop-color:#7D8083"/>
	</linearGradient>
	<path class="st34" d="M355,235.8l0,9l17.4,17.2l11.1,2.7l-8.4,3l-0.8,10.4l-22.9-23l-11.4-17.3l12.8-6.3L355,235.8z"/>
</g>
<linearGradient id="SVGID_16_" gradientUnits="userSpaceOnUse" x1="256.6866" y1="374.0115" x2="269.3893" y2="343.7462" gradientTransform="matrix(1 0 0 -1 0 544)">
	<stop  offset="0.1632" style="stop-color:#FFFFFF"/>
	<stop  offset="0.3545" style="stop-color:#E6E7E7"/>
	<stop  offset="0.4517" style="stop-color:#D4D4D6"/>
	<stop  offset="0.7292" style="stop-color:#9C9FA1"/>
	<stop  offset="0.8357" style="stop-color:#7D8083"/>
</linearGradient>
<path class="st35" d="M235.3,190.1l8,5.2l30.4-4.2l17.8-19l5.8,0.9l-13.1,21l-35.2,3.2l-18.5,4.3l7.6-4.3L235.3,190.1z"/>
<linearGradient id="SVGID_17_" gradientUnits="userSpaceOnUse" x1="303.6841" y1="379.3788" x2="268.3459" y2="421.6404" gradientTransform="matrix(1 0 0 -1 0 544)">
	<stop  offset="0.1178" style="stop-color:#FFFFFF"/>
	<stop  offset="0.3545" style="stop-color:#E6E7E7"/>
	<stop  offset="0.4517" style="stop-color:#D4D4D6"/>
	<stop  offset="0.7292" style="stop-color:#9C9FA1"/>
	<stop  offset="0.9109" style="stop-color:#7D8083"/>
</linearGradient>
<path class="st36" d="M273.2,146.8c-0.4,0.5-18.5,0.3-21.7,1.1c-3.4,0.8-8.5,2.6-8.6,5.8c-0.1,3.2-3.9,4.2-4.7,1.9
	c-0.8-2.3,9.4-10.9,10.6-11.9c1.1-0.9,21-2.7,23.7-3.4c2.8-0.5,15.6,0.9,15.6,0.9s4.2-16.6,5-18.9c0.8-2.3,7.4-20,9.1-20.8
	c1.7-0.8,5.7-1.9,6.1-1.1c0.4,0.8-6.2,5.4-11,19c-1.7,4.8-7.8,26.3-7.8,26.3L273.2,146.8z"/>
<path class="st37" d="M286.9,138.6c-0.5,0.4-32.5,1.9-36.9,3.7c-4.4,1.8-12.3,9.5-12.8,11.5c-0.8,2.7,0,3.9,0,3.9s4.2-8.9,10-12
	c5.8-3.2,41.3-2.6,41.3-2.6s5.9-25.1,6.9-27.1c1.7-3.8,5.1-14.1,8.3-14.7c3.2-0.5,6.2-0.4,6.2-0.4s-7-2.7-10,0.5
	C296.9,104.7,286.9,138.6,286.9,138.6z"/>
<linearGradient id="SVGID_18_" gradientUnits="userSpaceOnUse" x1="324.8342" y1="397.0995" x2="279.6351" y2="395.9111" gradientTransform="matrix(1 0 0 -1 0 544)">
	<stop  offset="3.555710e-03" style="stop-color:#FFFFFF"/>
	<stop  offset="0.1259" style="stop-color:#E6E7E7"/>
	<stop  offset="0.2297" style="stop-color:#D4D4D6"/>
	<stop  offset="0.5586" style="stop-color:#9C9FA1"/>
	<stop  offset="0.9371" style="stop-color:#7D8083"/>
</linearGradient>
<path class="st38" d="M281.3,127.7c-0.1,0.8-8.7,21.5-8.7,21.5s6.5,21.3,7.5,21.4c0.9,0.1,11.4,1.4,18.9,4.6s25.6-2.7,26.6-7.4
	c0.9-4.7-6.6-28.5-5.7-32.2c0.9-3.5-8.4-18-8.8-17.1c-0.4,0.9-5.5,4.5-10.7,6.4C295.1,127,281.3,127.7,281.3,127.7z"/>
<linearGradient id="SVGID_19_" gradientUnits="userSpaceOnUse" x1="269.3516" y1="392.8542" x2="284.4078" y2="392.3681" gradientTransform="matrix(1 0 0 -1 0 544)">
	<stop  offset="0.1601" style="stop-color:#E6E7E7"/>
	<stop  offset="0.9327" style="stop-color:#A3A5A8"/>
</linearGradient>
<path class="st39" d="M281.6,128c0,0,7.2,18.9,7.2,19.5c0,0.5-3.4,5.8-5.1,10.8c-1.3,3.9-2.3,16.8-2.3,16.8s-8.5-25.8-8.5-26.3
	c0-0.5,3.4-9.4,4.2-12.2C277.7,133.7,281.6,128,281.6,128z"/>
<path class="st40" d="M316.6,125.5c0,0-5.3-10-5-9.3c0.1,0.8-8.3,7.1-12.7,8.1c-4.3,0.9-18.1,2.2-18.1,2.2s-4.2,7.8-6,11.9
	c-0.9,2.2-3.2,10.5-3.2,10.5l8.9,26.6l1.4-0.8c0,0-8.8-24.5-8.8-25.5c0-1.8,1.9-7,3.5-10.9c1.5-3.9,5.1-10,5.1-10s15.6-2,18.3-2.6
	c2.7-0.5,11.2-7.3,11.2-6.4c0,0.9,9.7,16,9.7,16s2-3.2,1.5-3.2C321.8,132.3,316.6,125.5,316.6,125.5z"/>
<radialGradient id="SVGID_20_" cx="-64.2708" cy="664.0652" r="1.0544" gradientTransform="matrix(33.3289 8.922639e-02 8.922639e-02 -33.3289 2391.0828 22280.2715)" gradientUnits="userSpaceOnUse">
	<stop  offset="0.2857" style="stop-color:#E6E7E7"/>
	<stop  offset="0.9368" style="stop-color:#6F7173"/>
</radialGradient>
<path class="st41" d="M328.9,130.2c-1.3-0.8-13.8-4-18.7-2.7c-12.4,3.3-21.2,11.1-22.6,13.2c-1.4,2.2-4.8,10.4-4.9,13.7
	c0,2.8-1.3,20.5-1.3,20.5s-1.3,1.3-1.3,1.1c0-1,19-2.5,19-2.5s-6.9-11,0.4-13.8c7.4-2.8,20.9-11.4,22.1-15.9
	C322.8,139.4,328.9,130.2,328.9,130.2z"/>
<g class="st42">
	<path d="M312.2,126.8c0,0-12.6,2.5-17.8,6.5c-4.2,3.3-12.3-4.5-12.3-4.5s0.5,11.4,0,15c-0.5,3.5-0.4,11.7-0.5,15.1s0.3,16,0.3,15.1
		c0-0.9,2.3-13.8,3.6-18c1.3-4.3,6.2-8.5,8.9-11.9c2.7-3.4,22-16.8,22-16.8L312.2,126.8z"/>
</g>
<path class="st43" d="M342.9,157.8l32.8,0.1l36.5-31.2l-85,33.6L284.6,256l36.5-37.7l14.7-53.4L342.9,157.8z"/>
<path class="st44" d="M416.7,92.2L345.5,149l-27.7,37.3c0,0-94.5,83.8-94,85.4c0.5,1.6-0.5,15.7-0.5,15.7l14.1,1.2l50-24.8
	l50.2-95.7l83-41.6l13.6-21.1l-1.6-13.1L416.7,92.2z"/>
<path class="st6" d="M415.1,89l-71.1,56.7l-27.7,37.3c0,0-94.5,83.8-94,85.4c0.5,1.6-0.5,15.7-0.5,15.7l14.1,1.2l50-24.8l50.2-95.7
	l83-41.6l13.6-21.1l-1.6-13.1L415.1,89z"/>
<path class="st45" d="M423.2,67.4l-94.6,100.1l-128.8,114l-42.8,1l-15.7-10.3l56.5-46.5l104.8-55.6l34.7-35.6L396.9,0.7l22.6,27.2
	L423.2,67.4z"/>
<path class="st46" d="M421.6,63.6L327,163.7l-128.8,114l-42.8,1l-15.7-10.3l56.5-46.5l113.3-52.5l26.2-38.7L391,6.2
	c0,0,1.7-3.8,4.9-4.4c3.2-0.6,6.4,3.5,6.4,3.5L417.9,24L421.6,63.6z"/>
<linearGradient id="SVGID_21_" gradientUnits="userSpaceOnUse" x1="245.4451" y1="432.274" x2="298.0622" y2="384.2912" gradientTransform="matrix(1 0 0 -1 0 544)">
	<stop  offset="0.2" style="stop-color:#FFFFFF"/>
	<stop  offset="0.8361" style="stop-color:#E6E7E7"/>
</linearGradient>
<path class="st47" d="M308.5,173.2l-161.3,93.6l79.4-42l-28.1,49.4l39.1-56.5l89.5-53.9l8.2-20l42-67.3l36.8-13l-35,8.8l17.9-66.9
	l-20.2,65l-48.1,81.6L308.5,173.2z"/>
<g>
	<path class="st48" d="M339,140.9l-9-10.4c0,0-18-2.2-18.2-1.4c-0.3,0.8-20.5,22-20.5,22l-1.1,3l6.2,17.1c0,0,11.4,5.7,12.2,6.2
		c0.8,0.5,14,9.3,14,9.3l32.1-0.7l1.4-18.5c0,0-7-19.3-8.3-19.3C346.5,148.3,339,140.9,339,140.9z"/>
</g>
<linearGradient id="SVGID_22_" gradientUnits="userSpaceOnUse" x1="291.238" y1="388.4137" x2="356.6559" y2="388.2387" gradientTransform="matrix(1 0 0 -1 0 544)">
	<stop  offset="0.2" style="stop-color:#FFFFFF"/>
	<stop  offset="0.8361" style="stop-color:#E6E7E7"/>
</linearGradient>
<path class="st49" d="M332.5,129.5l-20.3-2.7l-21,24.2l6.2,18.5l14.9,6.6l8.1,7.9l30.9,0.6l-24.8-21.9c0,0-13.3,12.8-13.7,12.4
	c-0.4-0.4,12.7-13.4,12.7-13.4s-23-20.3-22.5-20c0.5,0.4,23.4,19.1,23.4,19.1l14.2-16.8l-13,17.6l24.5,21.2l4.5-17.7l-7.4-16.6
	L332.5,129.5z"/>
<linearGradient id="SVGID_23_" gradientUnits="userSpaceOnUse" x1="292.5688" y1="390.7233" x2="369.52" y2="395.715" gradientTransform="matrix(1 0 0 -1 0 544)">
	<stop  offset="0.2" style="stop-color:#FFFFFF"/>
	<stop  offset="0.8361" style="stop-color:#E6E7E7"/>
</linearGradient>
<path class="st50" d="M341.5,141.1l-15,19L303,142l21.7,19.8l-11.9,13.4l-15.4-5.7c0,0-5-19.4-4.9-18.9c0.1,0.5,9.7-11.3,9.7-11.3
	l9.5-10.5l20.7,0.6L341.5,141.1z"/>
</svg>
