<svg width="858" height="178" viewBox="0 0 858 178" fill="none" xmlns="http://www.w3.org/2000/svg">
<rect width="858" height="178" fill="white"/>
<path d="M148.34 82V66.707H145.51V62.9805H148.34V61.3633C148.34 59.2305 148.949 57.5781 150.168 56.4062C151.398 55.2227 153.115 54.6309 155.318 54.6309C156.021 54.6309 156.883 54.748 157.902 54.9824L157.85 58.9199C157.428 58.8145 156.912 58.7617 156.303 58.7617C154.393 58.7617 153.438 59.6582 153.438 61.4512V62.9805H157.217V66.707H153.438V82H148.34Z" fill="black"/>
<path d="M165.215 82H160.117V62.9805H165.215V82ZM159.818 58.0586C159.818 57.2969 160.07 56.6699 160.574 56.1777C161.09 55.6855 161.787 55.4395 162.666 55.4395C163.533 55.4395 164.225 55.6855 164.74 56.1777C165.256 56.6699 165.514 57.2969 165.514 58.0586C165.514 58.832 165.25 59.4648 164.723 59.957C164.207 60.4492 163.521 60.6953 162.666 60.6953C161.811 60.6953 161.119 60.4492 160.592 59.957C160.076 59.4648 159.818 58.832 159.818 58.0586Z" fill="black"/>
<path d="M179.717 76.7441C179.717 76.123 179.406 75.6367 178.785 75.2852C178.176 74.9219 177.191 74.5996 175.832 74.3184C171.309 73.3691 169.047 71.4473 169.047 68.5527C169.047 66.8652 169.744 65.459 171.139 64.334C172.545 63.1973 174.379 62.6289 176.641 62.6289C179.055 62.6289 180.982 63.1973 182.424 64.334C183.877 65.4707 184.604 66.9473 184.604 68.7637H179.523C179.523 68.0371 179.289 67.4395 178.82 66.9707C178.352 66.4902 177.619 66.25 176.623 66.25C175.768 66.25 175.105 66.4434 174.637 66.8301C174.168 67.2168 173.934 67.709 173.934 68.3066C173.934 68.8691 174.197 69.3262 174.725 69.6777C175.264 70.0176 176.166 70.3164 177.432 70.5742C178.697 70.8203 179.764 71.1016 180.631 71.418C183.314 72.4023 184.656 74.1074 184.656 76.5332C184.656 78.2676 183.912 79.6738 182.424 80.752C180.936 81.8184 179.014 82.3516 176.658 82.3516C175.064 82.3516 173.646 82.0703 172.404 81.5078C171.174 80.9336 170.207 80.1543 169.504 79.1699C168.801 78.1738 168.449 77.1016 168.449 75.9531H173.266C173.312 76.8555 173.646 77.5469 174.268 78.0273C174.889 78.5078 175.721 78.748 176.764 78.748C177.736 78.748 178.469 78.5664 178.961 78.2031C179.465 77.8281 179.717 77.3418 179.717 76.7441Z" fill="black"/>
<path d="M194.025 58.3047V62.9805H197.277V66.707H194.025V76.1992C194.025 76.9023 194.16 77.4062 194.43 77.7109C194.699 78.0156 195.215 78.168 195.977 78.168C196.539 78.168 197.037 78.127 197.471 78.0449V81.8945C196.475 82.1992 195.449 82.3516 194.395 82.3516C190.832 82.3516 189.016 80.5527 188.945 76.9551V66.707H186.168V62.9805H188.945V58.3047H194.025Z" fill="black"/>
<path d="M205.469 82H200.371V62.9805H205.469V82ZM200.072 58.0586C200.072 57.2969 200.324 56.6699 200.828 56.1777C201.344 55.6855 202.041 55.4395 202.92 55.4395C203.787 55.4395 204.479 55.6855 204.994 56.1777C205.51 56.6699 205.768 57.2969 205.768 58.0586C205.768 58.832 205.504 59.4648 204.977 59.957C204.461 60.4492 203.775 60.6953 202.92 60.6953C202.064 60.6953 201.373 60.4492 200.846 59.957C200.33 59.4648 200.072 58.832 200.072 58.0586Z" fill="black"/>
<path d="M217.58 78.2559C218.518 78.2559 219.279 77.998 219.865 77.4824C220.451 76.9668 220.756 76.2812 220.779 75.4258H225.543C225.531 76.7148 225.18 77.8984 224.488 78.9766C223.797 80.043 222.848 80.875 221.641 81.4727C220.445 82.0586 219.121 82.3516 217.668 82.3516C214.949 82.3516 212.805 81.4902 211.234 79.7676C209.664 78.0332 208.879 75.6426 208.879 72.5957V72.2617C208.879 69.332 209.658 66.9941 211.217 65.248C212.775 63.502 214.914 62.6289 217.633 62.6289C220.012 62.6289 221.916 63.3086 223.346 64.668C224.787 66.0156 225.52 67.8145 225.543 70.0645H220.779C220.756 69.0801 220.451 68.2832 219.865 67.6738C219.279 67.0527 218.506 66.7422 217.545 66.7422C216.361 66.7422 215.465 67.1758 214.855 68.043C214.258 68.8984 213.959 70.293 213.959 72.2266V72.7539C213.959 74.7109 214.258 76.1172 214.855 76.9727C215.453 77.8281 216.361 78.2559 217.58 78.2559Z" fill="black"/>
<path d="M239.834 80.0664C238.58 81.5898 236.846 82.3516 234.631 82.3516C232.592 82.3516 231.033 81.7656 229.955 80.5938C228.889 79.4219 228.344 77.7051 228.32 75.4434V62.9805H233.4V75.2676C233.4 77.248 234.303 78.2383 236.107 78.2383C237.83 78.2383 239.014 77.6406 239.658 76.4453V62.9805H244.756V82H239.975L239.834 80.0664Z" fill="black"/>
<path d="M249.977 82V66.707H247.146V62.9805H249.977V61.3633C249.977 59.2305 250.586 57.5781 251.805 56.4062C253.035 55.2227 254.752 54.6309 256.955 54.6309C257.658 54.6309 258.52 54.748 259.539 54.9824L259.486 58.9199C259.064 58.8145 258.549 58.7617 257.939 58.7617C256.029 58.7617 255.074 59.6582 255.074 61.4512V62.9805H258.854V66.707H255.074V82H249.977Z" fill="black"/>
<path d="M262.879 82V66.707H260.049V62.9805H262.879V61.3633C262.879 59.2305 263.488 57.5781 264.707 56.4062C265.938 55.2227 267.654 54.6309 269.857 54.6309C270.561 54.6309 271.422 54.748 272.441 54.9824L272.389 58.9199C271.967 58.8145 271.451 58.7617 270.842 58.7617C268.932 58.7617 267.977 59.6582 267.977 61.4512V62.9805H271.756V66.707H267.977V82H262.879Z" fill="black"/>
<path d="M284.693 76.7441C284.693 76.123 284.383 75.6367 283.762 75.2852C283.152 74.9219 282.168 74.5996 280.809 74.3184C276.285 73.3691 274.023 71.4473 274.023 68.5527C274.023 66.8652 274.721 65.459 276.115 64.334C277.521 63.1973 279.355 62.6289 281.617 62.6289C284.031 62.6289 285.959 63.1973 287.4 64.334C288.854 65.4707 289.58 66.9473 289.58 68.7637H284.5C284.5 68.0371 284.266 67.4395 283.797 66.9707C283.328 66.4902 282.596 66.25 281.6 66.25C280.744 66.25 280.082 66.4434 279.613 66.8301C279.145 67.2168 278.91 67.709 278.91 68.3066C278.91 68.8691 279.174 69.3262 279.701 69.6777C280.24 70.0176 281.143 70.3164 282.408 70.5742C283.674 70.8203 284.74 71.1016 285.607 71.418C288.291 72.4023 289.633 74.1074 289.633 76.5332C289.633 78.2676 288.889 79.6738 287.4 80.752C285.912 81.8184 283.99 82.3516 281.635 82.3516C280.041 82.3516 278.623 82.0703 277.381 81.5078C276.15 80.9336 275.184 80.1543 274.48 79.1699C273.777 78.1738 273.426 77.1016 273.426 75.9531H278.242C278.289 76.8555 278.623 77.5469 279.244 78.0273C279.865 78.5078 280.697 78.748 281.74 78.748C282.713 78.748 283.445 78.5664 283.938 78.2031C284.441 77.8281 284.693 77.3418 284.693 76.7441Z" fill="black"/>
<path d="M380.248 78.56C380.941 78.56 381.592 78.4266 382.2 78.16C382.819 77.8826 383.432 77.5306 384.04 77.104L386.296 80.304C385.549 80.944 384.637 81.4773 383.56 81.904C382.493 82.3306 381.299 82.544 379.976 82.544C378.152 82.544 376.584 82.1706 375.272 81.424C373.96 80.6666 372.952 79.6213 372.248 78.288C371.544 76.944 371.192 75.3866 371.192 73.616C371.192 71.8453 371.549 70.272 372.264 68.896C372.989 67.5093 374.013 66.4213 375.336 65.632C376.669 64.8426 378.248 64.448 380.072 64.448C381.363 64.448 382.509 64.6293 383.512 64.992C384.525 65.344 385.453 65.872 386.296 66.576L384.104 69.616C383.528 69.2106 382.92 68.896 382.28 68.672C381.64 68.448 380.973 68.336 380.28 68.336C379.139 68.336 378.216 68.7413 377.512 69.552C376.819 70.352 376.472 71.7066 376.472 73.616C376.472 74.864 376.637 75.8506 376.968 76.576C377.299 77.2906 377.747 77.8026 378.312 78.112C378.888 78.4106 379.533 78.56 380.248 78.56Z" fill="black"/>
<path d="M397.787 64.448C399.537 64.448 401.025 64.8213 402.251 65.568C403.478 66.3146 404.417 67.3653 405.067 68.72C405.718 70.064 406.043 71.6426 406.043 73.456C406.043 76.2933 405.318 78.5173 403.867 80.128C402.417 81.7386 400.39 82.544 397.787 82.544C395.185 82.544 393.158 81.7493 391.707 80.16C390.257 78.5706 389.531 76.3466 389.531 73.488C389.531 71.6853 389.857 70.1066 390.507 68.752C391.169 67.3973 392.113 66.3413 393.339 65.584C394.577 64.8266 396.059 64.448 397.787 64.448ZM397.787 68.176C396.753 68.176 395.985 68.6026 395.483 69.456C394.993 70.2986 394.747 71.6426 394.747 73.488C394.747 75.3653 394.993 76.7253 395.483 77.568C395.985 78.4106 396.753 78.832 397.787 78.832C398.822 78.832 399.585 78.4106 400.075 77.568C400.577 76.7253 400.827 75.3546 400.827 73.456C400.827 71.6213 400.577 70.2826 400.075 69.44C399.585 68.5973 398.822 68.176 397.787 68.176Z" fill="black"/>
<path d="M419.279 57.728L424.335 58.256V82H419.855L419.599 80.128C419.13 80.7893 418.506 81.36 417.727 81.84C416.948 82.3093 416.004 82.544 414.895 82.544C413.487 82.544 412.319 82.1653 411.391 81.408C410.474 80.6506 409.786 79.5946 409.327 78.24C408.879 76.8746 408.655 75.28 408.655 73.456C408.655 71.7066 408.927 70.1546 409.471 68.8C410.015 67.4453 410.794 66.384 411.807 65.616C412.82 64.8373 414.026 64.448 415.423 64.448C416.948 64.448 418.234 64.9706 419.279 66.016V57.728ZM416.783 68.144C415.908 68.144 415.204 68.56 414.671 69.392C414.138 70.2133 413.871 71.5786 413.871 73.488C413.871 74.8853 413.983 75.9733 414.207 76.752C414.431 77.52 414.74 78.0586 415.135 78.368C415.53 78.6773 415.983 78.832 416.495 78.832C417.06 78.832 417.572 78.656 418.031 78.304C418.5 77.952 418.916 77.472 419.279 76.864V69.536C418.927 69.0986 418.554 68.7573 418.159 68.512C417.764 68.2666 417.306 68.144 416.783 68.144Z" fill="black"/>
<path d="M433.186 74.976C433.357 76.3626 433.81 77.36 434.546 77.968C435.282 78.5653 436.189 78.864 437.266 78.864C438.045 78.864 438.797 78.736 439.522 78.48C440.248 78.224 440.946 77.8826 441.618 77.456L443.65 80.208C442.85 80.8906 441.88 81.4506 440.738 81.888C439.608 82.3253 438.317 82.544 436.866 82.544C434.925 82.544 433.298 82.16 431.986 81.392C430.674 80.6133 429.688 79.5466 429.026 78.192C428.365 76.8373 428.034 75.28 428.034 73.52C428.034 71.8453 428.354 70.3253 428.994 68.96C429.634 67.584 430.568 66.4906 431.794 65.68C433.032 64.8586 434.541 64.448 436.322 64.448C437.944 64.448 439.346 64.7946 440.53 65.488C441.725 66.1813 442.648 67.1786 443.298 68.48C443.96 69.7813 444.29 71.344 444.29 73.168C444.29 73.456 444.28 73.7653 444.258 74.096C444.248 74.4266 444.226 74.72 444.194 74.976H433.186ZM436.322 67.84C435.416 67.84 434.685 68.1653 434.13 68.816C433.576 69.4666 433.24 70.5066 433.122 71.936H439.362C439.352 70.6986 439.112 69.7066 438.642 68.96C438.173 68.2133 437.4 67.84 436.322 67.84Z" fill="black"/>
<path d="M467.609 73.952V70.016H481.465V73.952H467.609Z" fill="black"/>
<path d="M486.797 73.952V70.016H500.653V73.952H486.797Z" fill="black"/>
<path d="M507.776 62.4L520.288 70.144V73.76L507.824 81.504L505.536 78.064L515.936 71.952L505.536 66.032L507.776 62.4Z" fill="black"/>
<path d="M537.268 62.4L539.476 65.888L529.092 71.952L539.476 77.904L537.188 81.504L524.724 73.76V70.176L537.268 62.4Z" fill="black"/>
<path d="M558.551 66.704V70.656H544.023V66.704H558.551ZM558.551 73.44V77.36H544.023V73.44H558.551Z" fill="black"/>
<path d="M586.286 68.112C586.286 67.2053 586.612 66.4213 587.262 65.76C587.924 65.088 588.724 64.752 589.662 64.752C590.601 64.752 591.39 65.088 592.03 65.76C592.681 66.4213 593.006 67.2053 593.006 68.112C593.006 69.0186 592.681 69.8026 592.03 70.464C591.39 71.1253 590.601 71.456 589.662 71.456C588.724 71.456 587.924 71.1253 587.262 70.464C586.612 69.8026 586.286 69.0186 586.286 68.112ZM586.286 79.168C586.286 78.2613 586.612 77.4826 587.262 76.832C587.924 76.1813 588.724 75.856 589.662 75.856C590.601 75.856 591.39 76.1813 592.03 76.832C592.681 77.4826 593.006 78.2613 593.006 79.168C593.006 80.0853 592.681 80.88 592.03 81.552C591.39 82.2133 590.601 82.544 589.662 82.544C588.724 82.544 587.924 82.2133 587.262 81.552C586.612 80.88 586.286 80.0853 586.286 79.168Z" fill="black"/>
<path d="M616.114 66.704V70.656H601.586V66.704H616.114ZM616.114 73.44V77.36H601.586V73.44H616.114Z" fill="black"/>
<path d="M642.489 85.584L638.537 83.776L651.993 55.856L655.913 57.664L642.489 85.584Z" fill="black"/>
<path d="M673.676 66.704V70.656H659.148V66.704H673.676ZM673.676 73.44V77.36H659.148V73.44H673.676Z" fill="black"/>
<path d="M380.248 144.56C380.941 144.56 381.592 144.427 382.2 144.16C382.819 143.883 383.432 143.531 384.04 143.104L386.296 146.304C385.549 146.944 384.637 147.477 383.56 147.904C382.493 148.331 381.299 148.544 379.976 148.544C378.152 148.544 376.584 148.171 375.272 147.424C373.96 146.667 372.952 145.621 372.248 144.288C371.544 142.944 371.192 141.387 371.192 139.616C371.192 137.845 371.549 136.272 372.264 134.896C372.989 133.509 374.013 132.421 375.336 131.632C376.669 130.843 378.248 130.448 380.072 130.448C381.363 130.448 382.509 130.629 383.512 130.992C384.525 131.344 385.453 131.872 386.296 132.576L384.104 135.616C383.528 135.211 382.92 134.896 382.28 134.672C381.64 134.448 380.973 134.336 380.28 134.336C379.139 134.336 378.216 134.741 377.512 135.552C376.819 136.352 376.472 137.707 376.472 139.616C376.472 140.864 376.637 141.851 376.968 142.576C377.299 143.291 377.747 143.803 378.312 144.112C378.888 144.411 379.533 144.56 380.248 144.56Z" fill="black"/>
<path d="M397.787 130.448C399.537 130.448 401.025 130.821 402.251 131.568C403.478 132.315 404.417 133.365 405.067 134.72C405.718 136.064 406.043 137.643 406.043 139.456C406.043 142.293 405.318 144.517 403.867 146.128C402.417 147.739 400.39 148.544 397.787 148.544C395.185 148.544 393.158 147.749 391.707 146.16C390.257 144.571 389.531 142.347 389.531 139.488C389.531 137.685 389.857 136.107 390.507 134.752C391.169 133.397 392.113 132.341 393.339 131.584C394.577 130.827 396.059 130.448 397.787 130.448ZM397.787 134.176C396.753 134.176 395.985 134.603 395.483 135.456C394.993 136.299 394.747 137.643 394.747 139.488C394.747 141.365 394.993 142.725 395.483 143.568C395.985 144.411 396.753 144.832 397.787 144.832C398.822 144.832 399.585 144.411 400.075 143.568C400.577 142.725 400.827 141.355 400.827 139.456C400.827 137.621 400.577 136.283 400.075 135.44C399.585 134.597 398.822 134.176 397.787 134.176Z" fill="black"/>
<path d="M419.279 123.728L424.335 124.256V148H419.855L419.599 146.128C419.13 146.789 418.506 147.36 417.727 147.84C416.948 148.309 416.004 148.544 414.895 148.544C413.487 148.544 412.319 148.165 411.391 147.408C410.474 146.651 409.786 145.595 409.327 144.24C408.879 142.875 408.655 141.28 408.655 139.456C408.655 137.707 408.927 136.155 409.471 134.8C410.015 133.445 410.794 132.384 411.807 131.616C412.82 130.837 414.026 130.448 415.423 130.448C416.948 130.448 418.234 130.971 419.279 132.016V123.728ZM416.783 134.144C415.908 134.144 415.204 134.56 414.671 135.392C414.138 136.213 413.871 137.579 413.871 139.488C413.871 140.885 413.983 141.973 414.207 142.752C414.431 143.52 414.74 144.059 415.135 144.368C415.53 144.677 415.983 144.832 416.495 144.832C417.06 144.832 417.572 144.656 418.031 144.304C418.5 143.952 418.916 143.472 419.279 142.864V135.536C418.927 135.099 418.554 134.757 418.159 134.512C417.764 134.267 417.306 134.144 416.783 134.144Z" fill="black"/>
<path d="M433.186 140.976C433.357 142.363 433.81 143.36 434.546 143.968C435.282 144.565 436.189 144.864 437.266 144.864C438.045 144.864 438.797 144.736 439.522 144.48C440.248 144.224 440.946 143.883 441.618 143.456L443.65 146.208C442.85 146.891 441.88 147.451 440.738 147.888C439.608 148.325 438.317 148.544 436.866 148.544C434.925 148.544 433.298 148.16 431.986 147.392C430.674 146.613 429.688 145.547 429.026 144.192C428.365 142.837 428.034 141.28 428.034 139.52C428.034 137.845 428.354 136.325 428.994 134.96C429.634 133.584 430.568 132.491 431.794 131.68C433.032 130.859 434.541 130.448 436.322 130.448C437.944 130.448 439.346 130.795 440.53 131.488C441.725 132.181 442.648 133.179 443.298 134.48C443.96 135.781 444.29 137.344 444.29 139.168C444.29 139.456 444.28 139.765 444.258 140.096C444.248 140.427 444.226 140.72 444.194 140.976H433.186ZM436.322 133.84C435.416 133.84 434.685 134.165 434.13 134.816C433.576 135.467 433.24 136.507 433.122 137.936H439.362C439.352 136.699 439.112 135.707 438.642 134.96C438.173 134.213 437.4 133.84 436.322 133.84Z" fill="black"/>
<path d="M509.68 127.232L519.36 137.984L509.68 148.736L506.368 145.888L508.608 143.456C509.248 142.741 509.878 142.107 510.496 141.552C511.115 140.987 511.75 140.485 512.4 140.048H468.384V135.92H512.448C511.766 135.493 511.12 134.997 510.512 134.432C509.904 133.867 509.27 133.227 508.608 132.512L506.368 130.08L509.68 127.232Z" fill="black"/>
<path d="M551.335 140.576L537.671 134.56L551.335 128.56L549.719 124.88L532.007 132.752V136.384L549.719 144.24L551.335 140.576ZM550.295 148.896L532.599 141.104L530.951 144.672L548.679 152.576L550.295 148.896Z" fill="black"/>
<path d="M586.962 134.112C586.962 133.205 587.293 132.416 587.954 131.744C588.605 131.072 589.399 130.736 590.338 130.736C591.277 130.736 592.066 131.072 592.706 131.744C593.346 132.416 593.666 133.205 593.666 134.112C593.666 135.019 593.346 135.803 592.706 136.464C592.066 137.125 591.277 137.456 590.338 137.456C589.399 137.456 588.605 137.125 587.954 136.464C587.293 135.803 586.962 135.019 586.962 134.112ZM616.114 132.704V136.656H597.362V132.704H616.114ZM586.962 141.984C586.962 141.077 587.293 140.299 587.954 139.648C588.605 138.997 589.399 138.672 590.338 138.672C591.277 138.672 592.066 138.997 592.706 139.648C593.346 140.299 593.666 141.077 593.666 141.984C593.666 142.901 593.346 143.696 592.706 144.368C592.066 145.029 591.277 145.36 590.338 145.36C589.399 145.36 588.605 145.029 587.954 144.368C587.293 143.696 586.962 142.901 586.962 141.984ZM616.114 139.44V143.36H597.362V139.44H616.114Z" fill="black"/>
<path d="M644.076 151.584L640.124 149.776L653.58 121.856L657.5 123.664L644.076 151.584ZM672.076 132.704V136.656H654.092L655.996 132.704H672.076ZM672.076 139.44V143.36H650.908L652.764 139.44H672.076Z" fill="black"/>
<path d="M153.632 22.5586C154.27 22.5586 154.773 22.431 155.143 22.1758C155.516 21.9206 155.703 21.4603 155.703 20.7949C155.703 20.0794 155.443 19.5918 154.924 19.332C154.646 19.1953 154.274 19.127 153.81 19.127H150.487V22.5586H153.632ZM149.127 17.958H153.775C154.541 17.958 155.172 18.0697 155.669 18.293C156.612 18.7214 157.084 19.512 157.084 20.665C157.084 21.2666 156.959 21.7588 156.708 22.1416C156.462 22.5244 156.116 22.832 155.669 23.0645C156.061 23.224 156.355 23.4336 156.551 23.6934C156.751 23.9531 156.863 24.3747 156.886 24.958L156.934 26.3047C156.947 26.6875 156.979 26.9723 157.029 27.1592C157.111 27.4782 157.257 27.6833 157.467 27.7744V28H155.799C155.753 27.9134 155.717 27.8018 155.689 27.665C155.662 27.5283 155.639 27.264 155.621 26.8721L155.539 25.1973C155.507 24.541 155.263 24.1012 154.808 23.8779C154.548 23.7549 154.14 23.6934 153.584 23.6934H150.487V28H149.127V17.958ZM161.821 27.207C162.637 27.207 163.195 26.8994 163.496 26.2842C163.801 25.6644 163.954 24.9762 163.954 24.2197C163.954 23.5361 163.845 22.9801 163.626 22.5518C163.28 21.8773 162.683 21.54 161.835 21.54C161.083 21.54 160.536 21.8271 160.194 22.4014C159.853 22.9756 159.682 23.6683 159.682 24.4795C159.682 25.2588 159.853 25.9082 160.194 26.4277C160.536 26.9473 161.078 27.207 161.821 27.207ZM161.869 20.4668C162.812 20.4668 163.61 20.7812 164.262 21.4102C164.913 22.0391 165.239 22.9642 165.239 24.1855C165.239 25.3659 164.952 26.3411 164.378 27.1113C163.804 27.8815 162.913 28.2666 161.705 28.2666C160.698 28.2666 159.898 27.9271 159.306 27.248C158.713 26.5645 158.417 25.6484 158.417 24.5C158.417 23.2695 158.729 22.2897 159.354 21.5605C159.978 20.8314 160.816 20.4668 161.869 20.4668ZM166.613 17.9238H167.81V21.5674C168.078 21.2165 168.4 20.9499 168.773 20.7676C169.147 20.5807 169.553 20.4873 169.99 20.4873C170.902 20.4873 171.64 20.8018 172.205 21.4307C172.775 22.055 173.06 22.9779 173.06 24.1992C173.06 25.3568 172.779 26.3184 172.219 27.084C171.658 27.8496 170.881 28.2324 169.888 28.2324C169.332 28.2324 168.862 28.098 168.479 27.8291C168.252 27.6696 168.008 27.4144 167.748 27.0635V28H166.613V17.9238ZM169.812 27.1455C170.478 27.1455 170.975 26.8812 171.303 26.3525C171.635 25.8239 171.802 25.1266 171.802 24.2607C171.802 23.4906 171.635 22.8525 171.303 22.3467C170.975 21.8408 170.489 21.5879 169.847 21.5879C169.286 21.5879 168.794 21.7952 168.37 22.21C167.951 22.6247 167.741 23.3083 167.741 24.2607C167.741 24.9489 167.828 25.5072 168.001 25.9355C168.325 26.7422 168.928 27.1455 169.812 27.1455ZM177.407 27.207C178.223 27.207 178.781 26.8994 179.082 26.2842C179.387 25.6644 179.54 24.9762 179.54 24.2197C179.54 23.5361 179.431 22.9801 179.212 22.5518C178.866 21.8773 178.269 21.54 177.421 21.54C176.669 21.54 176.122 21.8271 175.78 22.4014C175.438 22.9756 175.268 23.6683 175.268 24.4795C175.268 25.2588 175.438 25.9082 175.78 26.4277C176.122 26.9473 176.664 27.207 177.407 27.207ZM177.455 20.4668C178.398 20.4668 179.196 20.7812 179.848 21.4102C180.499 22.0391 180.825 22.9642 180.825 24.1855C180.825 25.3659 180.538 26.3411 179.964 27.1113C179.39 27.8815 178.499 28.2666 177.291 28.2666C176.284 28.2666 175.484 27.9271 174.892 27.248C174.299 26.5645 174.003 25.6484 174.003 24.5C174.003 23.2695 174.315 22.2897 174.939 21.5605C175.564 20.8314 176.402 20.4668 177.455 20.4668ZM182.541 18.6348H183.785V20.6787H184.954V21.6836H183.785V26.4619C183.785 26.7171 183.872 26.888 184.045 26.9746C184.141 27.0247 184.3 27.0498 184.523 27.0498C184.583 27.0498 184.646 27.0498 184.715 27.0498C184.783 27.0452 184.863 27.0384 184.954 27.0293V28C184.813 28.041 184.665 28.0706 184.51 28.0889C184.359 28.1071 184.195 28.1162 184.018 28.1162C183.443 28.1162 183.054 27.9704 182.849 27.6787C182.644 27.3825 182.541 26.9997 182.541 26.5303V21.6836H181.55V20.6787H182.541V18.6348ZM189.097 27.207C189.912 27.207 190.471 26.8994 190.771 26.2842C191.077 25.6644 191.229 24.9762 191.229 24.2197C191.229 23.5361 191.12 22.9801 190.901 22.5518C190.555 21.8773 189.958 21.54 189.11 21.54C188.358 21.54 187.812 21.8271 187.47 22.4014C187.128 22.9756 186.957 23.6683 186.957 24.4795C186.957 25.2588 187.128 25.9082 187.47 26.4277C187.812 26.9473 188.354 27.207 189.097 27.207ZM189.145 20.4668C190.088 20.4668 190.885 20.7812 191.537 21.4102C192.189 22.0391 192.515 22.9642 192.515 24.1855C192.515 25.3659 192.228 26.3411 191.653 27.1113C191.079 27.8815 190.188 28.2666 188.98 28.2666C187.973 28.2666 187.174 27.9271 186.581 27.248C185.989 26.5645 185.692 25.6484 185.692 24.5C185.692 23.2695 186.005 22.2897 186.629 21.5605C187.253 20.8314 188.092 20.4668 189.145 20.4668ZM201.121 17.7939C200.406 19.1839 199.941 20.207 199.727 20.8633C199.403 21.8613 199.241 23.0143 199.241 24.3223C199.241 25.6439 199.426 26.8516 199.795 27.9453C200.023 28.6198 200.472 29.5905 201.142 30.8574H200.314C199.649 29.8184 199.237 29.1553 199.077 28.8682C198.918 28.5811 198.744 28.1914 198.558 27.6992C198.302 27.0247 198.125 26.3047 198.024 25.5391C197.974 25.1426 197.949 24.7643 197.949 24.4043C197.949 23.0553 198.161 21.8545 198.585 20.8018C198.854 20.1318 199.414 19.1292 200.267 17.7939H201.121ZM203.274 25.7031C203.311 26.1133 203.413 26.4277 203.582 26.6465C203.892 27.043 204.43 27.2412 205.195 27.2412C205.651 27.2412 206.052 27.1432 206.398 26.9473C206.745 26.7467 206.918 26.4391 206.918 26.0244C206.918 25.71 206.779 25.4707 206.501 25.3066C206.323 25.2064 205.972 25.0902 205.448 24.958L204.471 24.7119C203.846 24.557 203.386 24.3838 203.09 24.1924C202.561 23.8597 202.297 23.3994 202.297 22.8115C202.297 22.1188 202.545 21.5583 203.042 21.1299C203.543 20.7015 204.215 20.4873 205.059 20.4873C206.161 20.4873 206.957 20.8109 207.444 21.458C207.75 21.8682 207.898 22.3102 207.889 22.7842H206.727C206.704 22.5062 206.606 22.2533 206.433 22.0254C206.15 21.7018 205.66 21.54 204.963 21.54C204.498 21.54 204.145 21.6289 203.903 21.8066C203.666 21.9844 203.548 22.2191 203.548 22.5107C203.548 22.8298 203.705 23.085 204.02 23.2764C204.202 23.3903 204.471 23.4906 204.826 23.5771L205.64 23.7754C206.524 23.9896 207.116 24.1969 207.417 24.3975C207.896 24.7119 208.135 25.2064 208.135 25.8809C208.135 26.5326 207.886 27.0954 207.39 27.5693C206.897 28.0433 206.146 28.2803 205.134 28.2803C204.045 28.2803 203.272 28.0342 202.816 27.542C202.365 27.0452 202.124 26.4323 202.092 25.7031H203.274ZM210.486 26.0518C210.486 26.4072 210.616 26.6875 210.876 26.8926C211.136 27.0977 211.443 27.2002 211.799 27.2002C212.232 27.2002 212.651 27.0999 213.057 26.8994C213.74 26.5667 214.082 26.0221 214.082 25.2656V24.2744C213.932 24.3701 213.738 24.4499 213.501 24.5137C213.264 24.5775 213.032 24.623 212.804 24.6504L212.059 24.7461C211.612 24.8053 211.277 24.8988 211.054 25.0264C210.675 25.2406 210.486 25.5824 210.486 26.0518ZM213.467 23.5635C213.749 23.527 213.938 23.4085 214.034 23.208C214.089 23.0986 214.116 22.9414 214.116 22.7363C214.116 22.3171 213.966 22.014 213.665 21.8271C213.369 21.6357 212.943 21.54 212.387 21.54C211.744 21.54 211.288 21.7132 211.02 22.0596C210.869 22.251 210.771 22.5358 210.726 22.9141H209.577C209.6 22.0117 209.892 21.3851 210.452 21.0342C211.017 20.6787 211.671 20.501 212.414 20.501C213.275 20.501 213.975 20.665 214.513 20.9932C215.046 21.3213 215.312 21.8317 215.312 22.5244V26.7422C215.312 26.8698 215.338 26.9723 215.388 27.0498C215.442 27.1273 215.554 27.166 215.723 27.166C215.777 27.166 215.839 27.1637 215.907 27.1592C215.976 27.1501 216.049 27.1387 216.126 27.125V28.0342C215.935 28.0889 215.789 28.123 215.688 28.1367C215.588 28.1504 215.451 28.1572 215.278 28.1572C214.854 28.1572 214.547 28.0068 214.355 27.7061C214.255 27.5465 214.185 27.321 214.144 27.0293C213.893 27.3574 213.533 27.6423 213.063 27.8838C212.594 28.1253 212.077 28.2461 211.512 28.2461C210.833 28.2461 210.277 28.041 209.844 27.6309C209.415 27.2161 209.201 26.6989 209.201 26.0791C209.201 25.4001 209.413 24.8737 209.837 24.5C210.261 24.1263 210.817 23.8962 211.505 23.8096L213.467 23.5635ZM217.336 20.6787H218.505V21.7178C218.851 21.2894 219.218 20.9818 219.605 20.7949C219.993 20.6081 220.424 20.5146 220.897 20.5146C221.937 20.5146 222.638 20.877 223.003 21.6016C223.203 21.998 223.304 22.5654 223.304 23.3037V28H222.053V23.3857C222.053 22.9391 221.987 22.5791 221.854 22.3057C221.636 21.8499 221.239 21.6221 220.665 21.6221C220.373 21.6221 220.134 21.6517 219.947 21.7109C219.61 21.8112 219.314 22.0117 219.059 22.3125C218.854 22.554 218.719 22.8047 218.655 23.0645C218.596 23.3197 218.566 23.6865 218.566 24.165V28H217.336V20.6787ZM225.86 25.7031C225.897 26.1133 225.999 26.4277 226.168 26.6465C226.478 27.043 227.016 27.2412 227.781 27.2412C228.237 27.2412 228.638 27.1432 228.984 26.9473C229.331 26.7467 229.504 26.4391 229.504 26.0244C229.504 25.71 229.365 25.4707 229.087 25.3066C228.909 25.2064 228.558 25.0902 228.034 24.958L227.057 24.7119C226.432 24.557 225.972 24.3838 225.676 24.1924C225.147 23.8597 224.883 23.3994 224.883 22.8115C224.883 22.1188 225.131 21.5583 225.628 21.1299C226.129 20.7015 226.801 20.4873 227.645 20.4873C228.747 20.4873 229.543 20.8109 230.03 21.458C230.336 21.8682 230.484 22.3102 230.475 22.7842H229.312C229.29 22.5062 229.192 22.2533 229.019 22.0254C228.736 21.7018 228.246 21.54 227.549 21.54C227.084 21.54 226.731 21.6289 226.489 21.8066C226.252 21.9844 226.134 22.2191 226.134 22.5107C226.134 22.8298 226.291 23.085 226.605 23.2764C226.788 23.3903 227.057 23.4906 227.412 23.5771L228.226 23.7754C229.11 23.9896 229.702 24.1969 230.003 24.3975C230.481 24.7119 230.721 25.2064 230.721 25.8809C230.721 26.5326 230.472 27.0954 229.976 27.5693C229.483 28.0433 228.731 28.2803 227.72 28.2803C226.631 28.2803 225.858 28.0342 225.402 27.542C224.951 27.0452 224.71 26.4323 224.678 25.7031H225.86ZM231.808 23.4678H235.239V24.7324H231.808V23.4678ZM237.522 25.7031C237.559 26.1133 237.661 26.4277 237.83 26.6465C238.14 27.043 238.678 27.2412 239.443 27.2412C239.899 27.2412 240.3 27.1432 240.646 26.9473C240.993 26.7467 241.166 26.4391 241.166 26.0244C241.166 25.71 241.027 25.4707 240.749 25.3066C240.571 25.2064 240.22 25.0902 239.696 24.958L238.719 24.7119C238.094 24.557 237.634 24.3838 237.338 24.1924C236.809 23.8597 236.545 23.3994 236.545 22.8115C236.545 22.1188 236.793 21.5583 237.29 21.1299C237.791 20.7015 238.464 20.4873 239.307 20.4873C240.41 20.4873 241.205 20.8109 241.692 21.458C241.998 21.8682 242.146 22.3102 242.137 22.7842H240.975C240.952 22.5062 240.854 22.2533 240.681 22.0254C240.398 21.7018 239.908 21.54 239.211 21.54C238.746 21.54 238.393 21.6289 238.151 21.8066C237.914 21.9844 237.796 22.2191 237.796 22.5107C237.796 22.8298 237.953 23.085 238.268 23.2764C238.45 23.3903 238.719 23.4906 239.074 23.5771L239.888 23.7754C240.772 23.9896 241.364 24.1969 241.665 24.3975C242.144 24.7119 242.383 25.2064 242.383 25.8809C242.383 26.5326 242.134 27.0954 241.638 27.5693C241.146 28.0433 240.394 28.2803 239.382 28.2803C238.293 28.2803 237.52 28.0342 237.064 27.542C236.613 27.0452 236.372 26.4323 236.34 25.7031H237.522ZM246.84 20.5146C247.359 20.5146 247.863 20.6377 248.351 20.8838C248.838 21.1253 249.21 21.4398 249.465 21.8271C249.711 22.1963 249.875 22.627 249.957 23.1191C250.03 23.4564 250.066 23.9941 250.066 24.7324H244.7C244.723 25.4753 244.898 26.0723 245.227 26.5234C245.555 26.9701 246.063 27.1934 246.751 27.1934C247.394 27.1934 247.906 26.9814 248.289 26.5576C248.508 26.3115 248.663 26.0267 248.754 25.7031H249.964C249.932 25.972 249.825 26.2728 249.643 26.6055C249.465 26.9336 249.264 27.2025 249.041 27.4121C248.667 27.7767 248.205 28.0228 247.653 28.1504C247.357 28.2233 247.022 28.2598 246.648 28.2598C245.737 28.2598 244.965 27.9294 244.331 27.2686C243.698 26.6032 243.381 25.6735 243.381 24.4795C243.381 23.3037 243.7 22.349 244.338 21.6152C244.976 20.8815 245.81 20.5146 246.84 20.5146ZM248.802 23.7549C248.752 23.2217 248.635 22.7956 248.453 22.4766C248.116 21.8841 247.553 21.5879 246.765 21.5879C246.2 21.5879 245.726 21.793 245.343 22.2031C244.96 22.6087 244.757 23.126 244.734 23.7549H248.802ZM251.618 20.6787H252.787V21.9434C252.883 21.6973 253.118 21.3988 253.491 21.0479C253.865 20.6924 254.296 20.5146 254.783 20.5146C254.806 20.5146 254.845 20.5169 254.899 20.5215C254.954 20.526 255.048 20.5352 255.18 20.5488V21.8477C255.107 21.834 255.038 21.8249 254.975 21.8203C254.915 21.8158 254.849 21.8135 254.776 21.8135C254.157 21.8135 253.68 22.014 253.348 22.415C253.015 22.8115 252.849 23.2695 252.849 23.7891V28H251.618V20.6787ZM256.246 20.7129H257.497V28H256.246V20.7129ZM256.246 17.958H257.497V19.3525H256.246V17.958ZM259.671 19.5645C259.689 19.054 259.778 18.6803 259.938 18.4434C260.225 18.0241 260.778 17.8145 261.599 17.8145C261.676 17.8145 261.756 17.8167 261.838 17.8213C261.92 17.8258 262.013 17.8327 262.118 17.8418V18.9629C261.991 18.9538 261.897 18.9492 261.838 18.9492C261.783 18.9447 261.731 18.9424 261.681 18.9424C261.307 18.9424 261.084 19.0404 261.011 19.2363C260.938 19.4277 260.901 19.9199 260.901 20.7129H262.118V21.6836H260.888V28H259.671V21.6836H258.652V20.7129H259.671V19.5645ZM262.843 30.8574C263.567 29.4447 264.035 28.4147 264.244 27.7676C264.563 26.7878 264.723 25.6393 264.723 24.3223C264.723 23.0052 264.538 21.7998 264.169 20.7061C263.941 20.0316 263.492 19.0609 262.822 17.7939H263.649C264.351 18.915 264.775 19.6077 264.921 19.8721C265.071 20.1318 265.233 20.4919 265.406 20.9521C265.625 21.5218 265.78 22.0846 265.871 22.6406C265.967 23.1966 266.015 23.7321 266.015 24.2471C266.015 25.596 265.8 26.7992 265.372 27.8564C265.103 28.5355 264.545 29.5358 263.697 30.8574H262.843Z" fill="#979797"/>
<path d="M14.0664 66.958H15.6729L20.7451 75.0928V66.958H22.0371V77H20.5127L15.3652 68.8721V77H14.0664V66.958ZM26.9248 76.207C27.7406 76.207 28.2988 75.8994 28.5996 75.2842C28.9049 74.6644 29.0576 73.9762 29.0576 73.2197C29.0576 72.5361 28.9482 71.9801 28.7295 71.5518C28.3831 70.8773 27.7861 70.54 26.9385 70.54C26.1865 70.54 25.6396 70.8271 25.2979 71.4014C24.9561 71.9756 24.7852 72.6683 24.7852 73.4795C24.7852 74.2588 24.9561 74.9082 25.2979 75.4277C25.6396 75.9473 26.182 76.207 26.9248 76.207ZM26.9727 69.4668C27.916 69.4668 28.7135 69.7812 29.3652 70.4102C30.0169 71.0391 30.3428 71.9642 30.3428 73.1855C30.3428 74.3659 30.0557 75.3411 29.4814 76.1113C28.9072 76.8815 28.0163 77.2666 26.8086 77.2666C25.8014 77.2666 25.0016 76.9271 24.4092 76.248C23.8167 75.5645 23.5205 74.6484 23.5205 73.5C23.5205 72.2695 23.8327 71.2897 24.457 70.5605C25.0814 69.8314 25.9199 69.4668 26.9727 69.4668ZM35.7432 66.958H36.9736V77H35.7432V66.958ZM38.8262 69.7129H40.0771V77H38.8262V69.7129ZM38.8262 66.958H40.0771V68.3525H38.8262V66.958ZM44.5273 69.5488C45.1016 69.5488 45.6029 69.6901 46.0312 69.9727C46.2637 70.1322 46.5007 70.3646 46.7422 70.6699V69.7471H47.877V76.4053C47.877 77.335 47.7402 78.0687 47.4668 78.6064C46.9564 79.5999 45.9925 80.0967 44.5752 80.0967C43.7868 80.0967 43.1237 79.9189 42.5859 79.5635C42.0482 79.2126 41.7474 78.6611 41.6836 77.9092H42.9346C42.9938 78.2373 43.1123 78.4902 43.29 78.668C43.568 78.9414 44.0055 79.0781 44.6025 79.0781C45.5459 79.0781 46.1634 78.7454 46.4551 78.0801C46.6283 77.6882 46.708 76.9886 46.6943 75.9814C46.4482 76.3551 46.152 76.6331 45.8057 76.8154C45.4593 76.9977 45.0013 77.0889 44.4316 77.0889C43.6387 77.0889 42.9437 76.8086 42.3467 76.248C41.7542 75.6829 41.458 74.751 41.458 73.4521C41.458 72.2262 41.7565 71.2692 42.3535 70.5811C42.9551 69.8929 43.6797 69.5488 44.5273 69.5488ZM46.7422 73.3086C46.7422 72.4017 46.5553 71.7295 46.1816 71.292C45.8079 70.8545 45.3317 70.6357 44.7529 70.6357C43.887 70.6357 43.2946 71.0413 42.9756 71.8525C42.807 72.2855 42.7227 72.8529 42.7227 73.5547C42.7227 74.3796 42.889 75.0085 43.2217 75.4414C43.5589 75.8698 44.0101 76.084 44.5752 76.084C45.4593 76.084 46.0814 75.6852 46.4414 74.8877C46.6419 74.4365 46.7422 73.9102 46.7422 73.3086ZM50.6797 75.0518C50.6797 75.4072 50.8096 75.6875 51.0693 75.8926C51.3291 76.0977 51.6367 76.2002 51.9922 76.2002C52.4251 76.2002 52.8444 76.0999 53.25 75.8994C53.9336 75.5667 54.2754 75.0221 54.2754 74.2656V73.2744C54.125 73.3701 53.9313 73.4499 53.6943 73.5137C53.4574 73.5775 53.2249 73.623 52.9971 73.6504L52.252 73.7461C51.8053 73.8053 51.4704 73.8988 51.2471 74.0264C50.8688 74.2406 50.6797 74.5824 50.6797 75.0518ZM53.6602 72.5635C53.9427 72.527 54.1318 72.4085 54.2275 72.208C54.2822 72.0986 54.3096 71.9414 54.3096 71.7363C54.3096 71.3171 54.1592 71.014 53.8584 70.8271C53.5622 70.6357 53.1361 70.54 52.5801 70.54C51.9375 70.54 51.4818 70.7132 51.2129 71.0596C51.0625 71.251 50.9645 71.5358 50.9189 71.9141H49.7705C49.7933 71.0117 50.085 70.3851 50.6455 70.0342C51.2106 69.6787 51.8646 69.501 52.6074 69.501C53.4688 69.501 54.1683 69.665 54.7061 69.9932C55.2393 70.3213 55.5059 70.8317 55.5059 71.5244V75.7422C55.5059 75.8698 55.5309 75.9723 55.5811 76.0498C55.6357 76.1273 55.7474 76.166 55.916 76.166C55.9707 76.166 56.0322 76.1637 56.1006 76.1592C56.1689 76.1501 56.2419 76.1387 56.3193 76.125V77.0342C56.1279 77.0889 55.9821 77.123 55.8818 77.1367C55.7816 77.1504 55.6449 77.1572 55.4717 77.1572C55.0479 77.1572 54.7402 77.0068 54.5488 76.7061C54.4486 76.5465 54.3779 76.321 54.3369 76.0293C54.0863 76.3574 53.7262 76.6423 53.2568 76.8838C52.7874 77.1253 52.2702 77.2461 51.7051 77.2461C51.026 77.2461 50.4701 77.041 50.0371 76.6309C49.6087 76.2161 49.3945 75.6989 49.3945 75.0791C49.3945 74.4001 49.6064 73.8737 50.0303 73.5C50.4541 73.1263 51.0101 72.8962 51.6982 72.8096L53.6602 72.5635ZM57.7754 67.6348H59.0195V69.6787H60.1885V70.6836H59.0195V75.4619C59.0195 75.7171 59.1061 75.888 59.2793 75.9746C59.375 76.0247 59.5345 76.0498 59.7578 76.0498C59.8171 76.0498 59.8809 76.0498 59.9492 76.0498C60.0176 76.0452 60.0973 76.0384 60.1885 76.0293V77C60.0472 77.041 59.8991 77.0706 59.7441 77.0889C59.5938 77.1071 59.4297 77.1162 59.252 77.1162C58.6777 77.1162 58.2881 76.9704 58.083 76.6787C57.8779 76.3825 57.7754 75.9997 57.7754 75.5303V70.6836H56.7842V69.6787H57.7754V67.6348ZM62.6562 69.6787V74.5391C62.6562 74.9128 62.7155 75.2181 62.834 75.4551C63.0527 75.8926 63.4606 76.1113 64.0576 76.1113C64.9144 76.1113 65.4977 75.7285 65.8076 74.9629C65.9762 74.5527 66.0605 73.9899 66.0605 73.2744V69.6787H67.291V77H66.1289L66.1426 75.9199C65.9831 76.1979 65.7848 76.4326 65.5479 76.624C65.0785 77.0068 64.5088 77.1982 63.8389 77.1982C62.7952 77.1982 62.0843 76.8496 61.7061 76.1523C61.501 75.7786 61.3984 75.2796 61.3984 74.6553V69.6787H62.6562ZM69.2529 69.6787H70.4219V70.9434C70.5176 70.6973 70.7523 70.3988 71.126 70.0479C71.4997 69.6924 71.9303 69.5146 72.418 69.5146C72.4408 69.5146 72.4795 69.5169 72.5342 69.5215C72.5889 69.526 72.6823 69.5352 72.8145 69.5488V70.8477C72.7415 70.834 72.6732 70.8249 72.6094 70.8203C72.5501 70.8158 72.484 70.8135 72.4111 70.8135C71.7913 70.8135 71.3151 71.014 70.9824 71.415C70.6497 71.8115 70.4834 72.2695 70.4834 72.7891V77H69.2529V69.6787ZM76.9297 69.5146C77.4492 69.5146 77.9528 69.6377 78.4404 69.8838C78.9281 70.1253 79.2995 70.4398 79.5547 70.8271C79.8008 71.1963 79.9648 71.627 80.0469 72.1191C80.1198 72.4564 80.1562 72.9941 80.1562 73.7324H74.79C74.8128 74.4753 74.9883 75.0723 75.3164 75.5234C75.6445 75.9701 76.1527 76.1934 76.8408 76.1934C77.4834 76.1934 77.9961 75.9814 78.3789 75.5576C78.5977 75.3115 78.7526 75.0267 78.8438 74.7031H80.0537C80.0218 74.972 79.9147 75.2728 79.7324 75.6055C79.5547 75.9336 79.3542 76.2025 79.1309 76.4121C78.7572 76.7767 78.2946 77.0228 77.7432 77.1504C77.4469 77.2233 77.112 77.2598 76.7383 77.2598C75.8268 77.2598 75.0544 76.9294 74.4209 76.2686C73.7874 75.6032 73.4707 74.6735 73.4707 73.4795C73.4707 72.3037 73.7897 71.349 74.4277 70.6152C75.0658 69.8815 75.8997 69.5146 76.9297 69.5146ZM78.8916 72.7549C78.8415 72.2217 78.7253 71.7956 78.543 71.4766C78.2057 70.8841 77.6429 70.5879 76.8545 70.5879C76.2894 70.5879 75.8154 70.793 75.4326 71.2031C75.0498 71.6087 74.847 72.126 74.8242 72.7549H78.8916ZM82.4053 74.7031C82.4417 75.1133 82.5443 75.4277 82.7129 75.6465C83.0228 76.043 83.5605 76.2412 84.3262 76.2412C84.7819 76.2412 85.1829 76.1432 85.5293 75.9473C85.8757 75.7467 86.0488 75.4391 86.0488 75.0244C86.0488 74.71 85.9098 74.4707 85.6318 74.3066C85.4541 74.2064 85.1032 74.0902 84.5791 73.958L83.6016 73.7119C82.9772 73.557 82.5169 73.3838 82.2207 73.1924C81.6921 72.8597 81.4277 72.3994 81.4277 71.8115C81.4277 71.1188 81.6761 70.5583 82.1729 70.1299C82.6742 69.7015 83.3464 69.4873 84.1895 69.4873C85.2923 69.4873 86.0876 69.8109 86.5752 70.458C86.8805 70.8682 87.0286 71.3102 87.0195 71.7842H85.8574C85.8346 71.5062 85.7367 71.2533 85.5635 71.0254C85.2809 70.7018 84.791 70.54 84.0938 70.54C83.6289 70.54 83.2757 70.6289 83.0342 70.8066C82.7972 70.9844 82.6787 71.2191 82.6787 71.5107C82.6787 71.8298 82.8359 72.085 83.1504 72.2764C83.3327 72.3903 83.6016 72.4906 83.957 72.5771L84.7705 72.7754C85.6546 72.9896 86.2471 73.1969 86.5479 73.3975C87.0264 73.7119 87.2656 74.2064 87.2656 74.8809C87.2656 75.5326 87.0173 76.0954 86.5205 76.5693C86.0283 77.0433 85.2764 77.2803 84.2646 77.2803C83.1755 77.2803 82.403 77.0342 81.9473 76.542C81.4961 76.0452 81.2546 75.4323 81.2227 74.7031H82.4053Z" fill="#979797"/>
<path d="M14.0664 126.958H15.4268V135.804H20.5127V137H14.0664V126.958ZM21.6953 129.713H22.9463V137H21.6953V129.713ZM21.6953 126.958H22.9463V128.353H21.6953V126.958ZM27.3965 129.549C27.9707 129.549 28.472 129.69 28.9004 129.973C29.1328 130.132 29.3698 130.365 29.6113 130.67V129.747H30.7461V136.405C30.7461 137.335 30.6094 138.069 30.3359 138.606C29.8255 139.6 28.8617 140.097 27.4443 140.097C26.6559 140.097 25.9928 139.919 25.4551 139.563C24.9173 139.213 24.6165 138.661 24.5527 137.909H25.8037C25.863 138.237 25.9814 138.49 26.1592 138.668C26.4372 138.941 26.8747 139.078 27.4717 139.078C28.415 139.078 29.0326 138.745 29.3242 138.08C29.4974 137.688 29.5771 136.989 29.5635 135.981C29.3174 136.355 29.0212 136.633 28.6748 136.815C28.3285 136.998 27.8704 137.089 27.3008 137.089C26.5078 137.089 25.8128 136.809 25.2158 136.248C24.6234 135.683 24.3271 134.751 24.3271 133.452C24.3271 132.226 24.6257 131.269 25.2227 130.581C25.8242 129.893 26.5488 129.549 27.3965 129.549ZM29.6113 133.309C29.6113 132.402 29.4245 131.729 29.0508 131.292C28.6771 130.854 28.2008 130.636 27.6221 130.636C26.7562 130.636 26.1637 131.041 25.8447 131.853C25.6761 132.285 25.5918 132.853 25.5918 133.555C25.5918 134.38 25.7581 135.008 26.0908 135.441C26.4281 135.87 26.8792 136.084 27.4443 136.084C28.3285 136.084 28.9505 135.685 29.3105 134.888C29.5111 134.437 29.6113 133.91 29.6113 133.309ZM33.5488 135.052C33.5488 135.407 33.6787 135.688 33.9385 135.893C34.1982 136.098 34.5059 136.2 34.8613 136.2C35.2943 136.2 35.7135 136.1 36.1191 135.899C36.8027 135.567 37.1445 135.022 37.1445 134.266V133.274C36.9941 133.37 36.8005 133.45 36.5635 133.514C36.3265 133.577 36.0941 133.623 35.8662 133.65L35.1211 133.746C34.6745 133.805 34.3395 133.899 34.1162 134.026C33.738 134.241 33.5488 134.582 33.5488 135.052ZM36.5293 132.563C36.8118 132.527 37.001 132.409 37.0967 132.208C37.1514 132.099 37.1787 131.941 37.1787 131.736C37.1787 131.317 37.0283 131.014 36.7275 130.827C36.4313 130.636 36.0052 130.54 35.4492 130.54C34.8066 130.54 34.3509 130.713 34.082 131.06C33.9316 131.251 33.8337 131.536 33.7881 131.914H32.6396C32.6624 131.012 32.9541 130.385 33.5146 130.034C34.0798 129.679 34.7337 129.501 35.4766 129.501C36.3379 129.501 37.0374 129.665 37.5752 129.993C38.1084 130.321 38.375 130.832 38.375 131.524V135.742C38.375 135.87 38.4001 135.972 38.4502 136.05C38.5049 136.127 38.6165 136.166 38.7852 136.166C38.8398 136.166 38.9014 136.164 38.9697 136.159C39.0381 136.15 39.111 136.139 39.1885 136.125V137.034C38.9971 137.089 38.8512 137.123 38.751 137.137C38.6507 137.15 38.514 137.157 38.3408 137.157C37.917 137.157 37.6094 137.007 37.418 136.706C37.3177 136.547 37.2471 136.321 37.2061 136.029C36.9554 136.357 36.5954 136.642 36.126 136.884C35.6566 137.125 35.1393 137.246 34.5742 137.246C33.8952 137.246 33.3392 137.041 32.9062 136.631C32.4779 136.216 32.2637 135.699 32.2637 135.079C32.2637 134.4 32.4756 133.874 32.8994 133.5C33.3232 133.126 33.8792 132.896 34.5674 132.81L36.5293 132.563ZM40.6445 127.635H41.8887V129.679H43.0576V130.684H41.8887V135.462C41.8887 135.717 41.9753 135.888 42.1484 135.975C42.2441 136.025 42.4036 136.05 42.627 136.05C42.6862 136.05 42.75 136.05 42.8184 136.05C42.8867 136.045 42.9665 136.038 43.0576 136.029V137C42.9163 137.041 42.7682 137.071 42.6133 137.089C42.4629 137.107 42.2988 137.116 42.1211 137.116C41.5469 137.116 41.1572 136.97 40.9521 136.679C40.7471 136.382 40.6445 136 40.6445 135.53V130.684H39.6533V129.679H40.6445V127.635ZM45.5254 129.679V134.539C45.5254 134.913 45.5846 135.218 45.7031 135.455C45.9219 135.893 46.3298 136.111 46.9268 136.111C47.7835 136.111 48.3669 135.729 48.6768 134.963C48.8454 134.553 48.9297 133.99 48.9297 133.274V129.679H50.1602V137H48.998L49.0117 135.92C48.8522 136.198 48.654 136.433 48.417 136.624C47.9476 137.007 47.3779 137.198 46.708 137.198C45.6644 137.198 44.9535 136.85 44.5752 136.152C44.3701 135.779 44.2676 135.28 44.2676 134.655V129.679H45.5254ZM52.1221 129.679H53.291V130.943C53.3867 130.697 53.6214 130.399 53.9951 130.048C54.3688 129.692 54.7995 129.515 55.2871 129.515C55.3099 129.515 55.3486 129.517 55.4033 129.521C55.458 129.526 55.5514 129.535 55.6836 129.549V130.848C55.6107 130.834 55.5423 130.825 55.4785 130.82C55.4193 130.816 55.3532 130.813 55.2803 130.813C54.6605 130.813 54.1842 131.014 53.8516 131.415C53.5189 131.812 53.3525 132.27 53.3525 132.789V137H52.1221V129.679ZM59.7988 129.515C60.3184 129.515 60.8219 129.638 61.3096 129.884C61.7972 130.125 62.1686 130.44 62.4238 130.827C62.6699 131.196 62.834 131.627 62.916 132.119C62.9889 132.456 63.0254 132.994 63.0254 133.732H57.6592C57.682 134.475 57.8574 135.072 58.1855 135.523C58.5137 135.97 59.0218 136.193 59.71 136.193C60.3525 136.193 60.8652 135.981 61.248 135.558C61.4668 135.312 61.6217 135.027 61.7129 134.703H62.9229C62.891 134.972 62.7839 135.273 62.6016 135.605C62.4238 135.934 62.2233 136.202 62 136.412C61.6263 136.777 61.1637 137.023 60.6123 137.15C60.3161 137.223 59.9811 137.26 59.6074 137.26C58.696 137.26 57.9235 136.929 57.29 136.269C56.6566 135.603 56.3398 134.674 56.3398 133.479C56.3398 132.304 56.6589 131.349 57.2969 130.615C57.9349 129.882 58.7689 129.515 59.7988 129.515ZM61.7607 132.755C61.7106 132.222 61.5944 131.796 61.4121 131.477C61.0749 130.884 60.512 130.588 59.7236 130.588C59.1585 130.588 58.6846 130.793 58.3018 131.203C57.9189 131.609 57.7161 132.126 57.6934 132.755H61.7607ZM65.2744 134.703C65.3109 135.113 65.4134 135.428 65.582 135.646C65.8919 136.043 66.4297 136.241 67.1953 136.241C67.651 136.241 68.0521 136.143 68.3984 135.947C68.7448 135.747 68.918 135.439 68.918 135.024C68.918 134.71 68.779 134.471 68.501 134.307C68.3232 134.206 67.9723 134.09 67.4482 133.958L66.4707 133.712C65.8464 133.557 65.3861 133.384 65.0898 133.192C64.5612 132.86 64.2969 132.399 64.2969 131.812C64.2969 131.119 64.5452 130.558 65.042 130.13C65.5433 129.701 66.2155 129.487 67.0586 129.487C68.1615 129.487 68.9567 129.811 69.4443 130.458C69.7497 130.868 69.8978 131.31 69.8887 131.784H68.7266C68.7038 131.506 68.6058 131.253 68.4326 131.025C68.1501 130.702 67.6602 130.54 66.9629 130.54C66.498 130.54 66.1449 130.629 65.9033 130.807C65.6663 130.984 65.5479 131.219 65.5479 131.511C65.5479 131.83 65.7051 132.085 66.0195 132.276C66.2018 132.39 66.4707 132.491 66.8262 132.577L67.6396 132.775C68.5238 132.99 69.1162 133.197 69.417 133.397C69.8955 133.712 70.1348 134.206 70.1348 134.881C70.1348 135.533 69.8864 136.095 69.3896 136.569C68.8975 137.043 68.1455 137.28 67.1338 137.28C66.0446 137.28 65.2721 137.034 64.8164 136.542C64.3652 136.045 64.1237 135.432 64.0918 134.703H65.2744Z" fill="#979797"/>
<path d="M370.196 17.958H377.162V19.1885H371.557V22.2373H376.485V23.4336H371.557V28H370.196V17.958ZM378.461 20.7129H379.712V28H378.461V20.7129ZM378.461 17.958H379.712V19.3525H378.461V17.958ZM381.612 20.6787H382.781V21.9434C382.877 21.6973 383.112 21.3988 383.485 21.0479C383.859 20.6924 384.29 20.5146 384.777 20.5146C384.8 20.5146 384.839 20.5169 384.894 20.5215C384.948 20.526 385.042 20.5352 385.174 20.5488V21.8477C385.101 21.834 385.033 21.8249 384.969 21.8203C384.91 21.8158 384.843 21.8135 384.771 21.8135C384.151 21.8135 383.674 22.014 383.342 22.415C383.009 22.8115 382.843 23.2695 382.843 23.7891V28H381.612V20.6787ZM387.184 26.0518C387.184 26.4072 387.313 26.6875 387.573 26.8926C387.833 27.0977 388.141 27.2002 388.496 27.2002C388.929 27.2002 389.348 27.0999 389.754 26.8994C390.438 26.5667 390.779 26.0221 390.779 25.2656V24.2744C390.629 24.3701 390.435 24.4499 390.198 24.5137C389.961 24.5775 389.729 24.623 389.501 24.6504L388.756 24.7461C388.309 24.8053 387.974 24.8988 387.751 25.0264C387.373 25.2406 387.184 25.5824 387.184 26.0518ZM390.164 23.5635C390.447 23.527 390.636 23.4085 390.731 23.208C390.786 23.0986 390.813 22.9414 390.813 22.7363C390.813 22.3171 390.663 22.014 390.362 21.8271C390.066 21.6357 389.64 21.54 389.084 21.54C388.441 21.54 387.986 21.7132 387.717 22.0596C387.566 22.251 387.468 22.5358 387.423 22.9141H386.274C386.297 22.0117 386.589 21.3851 387.149 21.0342C387.715 20.6787 388.368 20.501 389.111 20.501C389.973 20.501 390.672 20.665 391.21 20.9932C391.743 21.3213 392.01 21.8317 392.01 22.5244V26.7422C392.01 26.8698 392.035 26.9723 392.085 27.0498C392.14 27.1273 392.251 27.166 392.42 27.166C392.475 27.166 392.536 27.1637 392.604 27.1592C392.673 27.1501 392.746 27.1387 392.823 27.125V28.0342C392.632 28.0889 392.486 28.123 392.386 28.1367C392.285 28.1504 392.149 28.1572 391.976 28.1572C391.552 28.1572 391.244 28.0068 391.053 27.7061C390.952 27.5465 390.882 27.321 390.841 27.0293C390.59 27.3574 390.23 27.6423 389.761 27.8838C389.291 28.1253 388.774 28.2461 388.209 28.2461C387.53 28.2461 386.974 28.041 386.541 27.6309C386.113 27.2161 385.898 26.6989 385.898 26.0791C385.898 25.4001 386.11 24.8737 386.534 24.5C386.958 24.1263 387.514 23.8962 388.202 23.8096L390.164 23.5635ZM402.325 17.6846C403.597 17.6846 404.583 18.0195 405.285 18.6895C405.987 19.3594 406.377 20.1204 406.454 20.9727H405.128C404.978 20.3255 404.677 19.8128 404.226 19.4346C403.779 19.0563 403.15 18.8672 402.339 18.8672C401.35 18.8672 400.55 19.2158 399.939 19.9131C399.333 20.6058 399.03 21.6699 399.03 23.1055C399.03 24.2812 399.304 25.236 399.851 25.9697C400.402 26.6989 401.222 27.0635 402.312 27.0635C403.314 27.0635 404.077 26.6784 404.602 25.9082C404.88 25.5026 405.087 24.9694 405.224 24.3086H406.55C406.431 25.3659 406.039 26.2523 405.374 26.9678C404.576 27.8291 403.501 28.2598 402.147 28.2598C400.981 28.2598 400.001 27.9066 399.208 27.2002C398.164 26.266 397.643 24.8236 397.643 22.873C397.643 21.3919 398.035 20.1774 398.818 19.2295C399.666 18.1995 400.835 17.6846 402.325 17.6846ZM410.952 27.207C411.768 27.207 412.326 26.8994 412.627 26.2842C412.932 25.6644 413.085 24.9762 413.085 24.2197C413.085 23.5361 412.976 22.9801 412.757 22.5518C412.41 21.8773 411.813 21.54 410.966 21.54C410.214 21.54 409.667 21.8271 409.325 22.4014C408.983 22.9756 408.812 23.6683 408.812 24.4795C408.812 25.2588 408.983 25.9082 409.325 26.4277C409.667 26.9473 410.209 27.207 410.952 27.207ZM411 20.4668C411.943 20.4668 412.741 20.7812 413.393 21.4102C414.044 22.0391 414.37 22.9642 414.37 24.1855C414.37 25.3659 414.083 26.3411 413.509 27.1113C412.935 27.8815 412.044 28.2666 410.836 28.2666C409.829 28.2666 409.029 27.9271 408.437 27.248C407.844 26.5645 407.548 25.6484 407.548 24.5C407.548 23.2695 407.86 22.2897 408.484 21.5605C409.109 20.8314 409.947 20.4668 411 20.4668ZM416.619 24.4248C416.619 25.2087 416.785 25.8649 417.118 26.3936C417.451 26.9222 417.984 27.1865 418.718 27.1865C419.287 27.1865 419.755 26.9427 420.119 26.4551C420.488 25.9629 420.673 25.2588 420.673 24.3428C420.673 23.4176 420.484 22.734 420.105 22.292C419.727 21.8454 419.26 21.6221 418.704 21.6221C418.084 21.6221 417.581 21.859 417.193 22.333C416.811 22.807 416.619 23.5042 416.619 24.4248ZM418.472 20.5488C419.032 20.5488 419.502 20.6673 419.88 20.9043C420.099 21.041 420.347 21.2803 420.625 21.6221V17.9238H421.808V28H420.7V26.9814C420.413 27.4326 420.074 27.7585 419.682 27.959C419.29 28.1595 418.841 28.2598 418.335 28.2598C417.519 28.2598 416.813 27.918 416.216 27.2344C415.619 26.5462 415.32 25.6325 415.32 24.4932C415.32 23.4268 415.591 22.5039 416.134 21.7246C416.681 20.9408 417.46 20.5488 418.472 20.5488ZM426.682 20.5146C427.201 20.5146 427.705 20.6377 428.192 20.8838C428.68 21.1253 429.051 21.4398 429.307 21.8271C429.553 22.1963 429.717 22.627 429.799 23.1191C429.872 23.4564 429.908 23.9941 429.908 24.7324H424.542C424.565 25.4753 424.74 26.0723 425.068 26.5234C425.396 26.9701 425.905 27.1934 426.593 27.1934C427.235 27.1934 427.748 26.9814 428.131 26.5576C428.35 26.3115 428.505 26.0267 428.596 25.7031H429.806C429.774 25.972 429.667 26.2728 429.484 26.6055C429.307 26.9336 429.106 27.2025 428.883 27.4121C428.509 27.7767 428.047 28.0228 427.495 28.1504C427.199 28.2233 426.864 28.2598 426.49 28.2598C425.579 28.2598 424.806 27.9294 424.173 27.2686C423.539 26.6032 423.223 25.6735 423.223 24.4795C423.223 23.3037 423.542 22.349 424.18 21.6152C424.818 20.8815 425.652 20.5146 426.682 20.5146ZM428.644 23.7549C428.593 23.2217 428.477 22.7956 428.295 22.4766C427.958 21.8841 427.395 21.5879 426.606 21.5879C426.041 21.5879 425.567 21.793 425.185 22.2031C424.802 22.6087 424.599 23.126 424.576 23.7549H428.644ZM438.562 17.7939C437.847 19.1839 437.382 20.207 437.168 20.8633C436.844 21.8613 436.683 23.0143 436.683 24.3223C436.683 25.6439 436.867 26.8516 437.236 27.9453C437.464 28.6198 437.913 29.5905 438.583 30.8574H437.756C437.09 29.8184 436.678 29.1553 436.519 28.8682C436.359 28.5811 436.186 28.1914 435.999 27.6992C435.744 27.0247 435.566 26.3047 435.466 25.5391C435.416 25.1426 435.391 24.7643 435.391 24.4043C435.391 23.0553 435.603 21.8545 436.026 20.8018C436.295 20.1318 436.856 19.1292 437.708 17.7939H438.562ZM439.984 20.6787H441.201V21.7178C441.493 21.3577 441.757 21.0957 441.994 20.9316C442.4 20.6536 442.86 20.5146 443.375 20.5146C443.958 20.5146 444.428 20.6582 444.783 20.9453C444.984 21.1094 445.166 21.3509 445.33 21.6699C445.604 21.278 445.925 20.9886 446.294 20.8018C446.663 20.6104 447.078 20.5146 447.538 20.5146C448.522 20.5146 449.192 20.8701 449.548 21.5811C449.739 21.9639 449.835 22.4788 449.835 23.126V28H448.557V22.9141C448.557 22.4264 448.434 22.0915 448.188 21.9092C447.946 21.7269 447.65 21.6357 447.299 21.6357C446.816 21.6357 446.399 21.7975 446.048 22.1211C445.701 22.4447 445.528 22.9847 445.528 23.7412V28H444.277V23.2217C444.277 22.7249 444.218 22.3626 444.1 22.1348C443.913 21.793 443.564 21.6221 443.054 21.6221C442.589 21.6221 442.165 21.8021 441.782 22.1621C441.404 22.5221 441.215 23.1738 441.215 24.1172V28H439.984V20.6787ZM454.552 27.207C455.368 27.207 455.926 26.8994 456.227 26.2842C456.532 25.6644 456.685 24.9762 456.685 24.2197C456.685 23.5361 456.575 22.9801 456.356 22.5518C456.01 21.8773 455.413 21.54 454.565 21.54C453.813 21.54 453.267 21.8271 452.925 22.4014C452.583 22.9756 452.412 23.6683 452.412 24.4795C452.412 25.2588 452.583 25.9082 452.925 26.4277C453.267 26.9473 453.809 27.207 454.552 27.207ZM454.6 20.4668C455.543 20.4668 456.34 20.7812 456.992 21.4102C457.644 22.0391 457.97 22.9642 457.97 24.1855C457.97 25.3659 457.683 26.3411 457.108 27.1113C456.534 27.8815 455.643 28.2666 454.436 28.2666C453.428 28.2666 452.629 27.9271 452.036 27.248C451.444 26.5645 451.147 25.6484 451.147 24.5C451.147 23.2695 451.46 22.2897 452.084 21.5605C452.708 20.8314 453.547 20.4668 454.6 20.4668ZM459.439 20.6787H460.608V21.7178C460.955 21.2894 461.322 20.9818 461.709 20.7949C462.096 20.6081 462.527 20.5146 463.001 20.5146C464.04 20.5146 464.742 20.877 465.106 21.6016C465.307 21.998 465.407 22.5654 465.407 23.3037V28H464.156V23.3857C464.156 22.9391 464.09 22.5791 463.958 22.3057C463.739 21.8499 463.343 21.6221 462.769 21.6221C462.477 21.6221 462.238 21.6517 462.051 21.7109C461.714 21.8112 461.417 22.0117 461.162 22.3125C460.957 22.554 460.823 22.8047 460.759 23.0645C460.7 23.3197 460.67 23.6865 460.67 24.165V28H459.439V20.6787ZM470.138 27.207C470.953 27.207 471.512 26.8994 471.812 26.2842C472.118 25.6644 472.271 24.9762 472.271 24.2197C472.271 23.5361 472.161 22.9801 471.942 22.5518C471.596 21.8773 470.999 21.54 470.151 21.54C469.399 21.54 468.853 21.8271 468.511 22.4014C468.169 22.9756 467.998 23.6683 467.998 24.4795C467.998 25.2588 468.169 25.9082 468.511 26.4277C468.853 26.9473 469.395 27.207 470.138 27.207ZM470.186 20.4668C471.129 20.4668 471.926 20.7812 472.578 21.4102C473.23 22.0391 473.556 22.9642 473.556 24.1855C473.556 25.3659 473.269 26.3411 472.694 27.1113C472.12 27.8815 471.229 28.2666 470.021 28.2666C469.014 28.2666 468.215 27.9271 467.622 27.248C467.03 26.5645 466.733 25.6484 466.733 24.5C466.733 23.2695 467.046 22.2897 467.67 21.5605C468.294 20.8314 469.133 20.4668 470.186 20.4668ZM475.757 25.7031C475.793 26.1133 475.896 26.4277 476.064 26.6465C476.374 27.043 476.912 27.2412 477.678 27.2412C478.133 27.2412 478.535 27.1432 478.881 26.9473C479.227 26.7467 479.4 26.4391 479.4 26.0244C479.4 25.71 479.261 25.4707 478.983 25.3066C478.806 25.2064 478.455 25.0902 477.931 24.958L476.953 24.7119C476.329 24.557 475.868 24.3838 475.572 24.1924C475.044 23.8597 474.779 23.3994 474.779 22.8115C474.779 22.1188 475.028 21.5583 475.524 21.1299C476.026 20.7015 476.698 20.4873 477.541 20.4873C478.644 20.4873 479.439 20.8109 479.927 21.458C480.232 21.8682 480.38 22.3102 480.371 22.7842H479.209C479.186 22.5062 479.088 22.2533 478.915 22.0254C478.632 21.7018 478.143 21.54 477.445 21.54C476.98 21.54 476.627 21.6289 476.386 21.8066C476.149 21.9844 476.03 22.2191 476.03 22.5107C476.03 22.8298 476.188 23.085 476.502 23.2764C476.684 23.3903 476.953 23.4906 477.309 23.5771L478.122 23.7754C479.006 23.9896 479.599 24.1969 479.899 24.3975C480.378 24.7119 480.617 25.2064 480.617 25.8809C480.617 26.5326 480.369 27.0954 479.872 27.5693C479.38 28.0433 478.628 28.2803 477.616 28.2803C476.527 28.2803 475.755 28.0342 475.299 27.542C474.848 27.0452 474.606 26.4323 474.574 25.7031H475.757ZM485.115 27.1729C485.689 27.1729 486.166 26.9336 486.544 26.4551C486.927 25.972 487.118 25.252 487.118 24.2949C487.118 23.7116 487.034 23.2103 486.865 22.791C486.546 21.9844 485.963 21.5811 485.115 21.5811C484.263 21.5811 483.68 22.0072 483.365 22.8594C483.197 23.3151 483.112 23.8939 483.112 24.5957C483.112 25.1608 483.197 25.6416 483.365 26.0381C483.684 26.7946 484.268 27.1729 485.115 27.1729ZM481.93 20.7129H483.126V21.6836C483.372 21.3509 483.641 21.0934 483.933 20.9111C484.347 20.6377 484.835 20.501 485.396 20.501C486.225 20.501 486.929 20.82 487.508 21.458C488.087 22.0915 488.376 22.9984 488.376 24.1787C488.376 25.7738 487.959 26.9131 487.125 27.5967C486.596 28.0296 485.981 28.2461 485.279 28.2461C484.728 28.2461 484.265 28.1253 483.892 27.8838C483.673 27.7471 483.429 27.5124 483.16 27.1797V30.9189H481.93V20.7129ZM490.762 26.0518C490.762 26.4072 490.892 26.6875 491.151 26.8926C491.411 27.0977 491.719 27.2002 492.074 27.2002C492.507 27.2002 492.926 27.0999 493.332 26.8994C494.016 26.5667 494.357 26.0221 494.357 25.2656V24.2744C494.207 24.3701 494.013 24.4499 493.776 24.5137C493.539 24.5775 493.307 24.623 493.079 24.6504L492.334 24.7461C491.887 24.8053 491.552 24.8988 491.329 25.0264C490.951 25.2406 490.762 25.5824 490.762 26.0518ZM493.742 23.5635C494.025 23.527 494.214 23.4085 494.31 23.208C494.364 23.0986 494.392 22.9414 494.392 22.7363C494.392 22.3171 494.241 22.014 493.94 21.8271C493.644 21.6357 493.218 21.54 492.662 21.54C492.02 21.54 491.564 21.7132 491.295 22.0596C491.145 22.251 491.047 22.5358 491.001 22.9141H489.853C489.875 22.0117 490.167 21.3851 490.728 21.0342C491.293 20.6787 491.947 20.501 492.689 20.501C493.551 20.501 494.25 20.665 494.788 20.9932C495.321 21.3213 495.588 21.8317 495.588 22.5244V26.7422C495.588 26.8698 495.613 26.9723 495.663 27.0498C495.718 27.1273 495.829 27.166 495.998 27.166C496.053 27.166 496.114 27.1637 496.183 27.1592C496.251 27.1501 496.324 27.1387 496.401 27.125V28.0342C496.21 28.0889 496.064 28.123 495.964 28.1367C495.864 28.1504 495.727 28.1572 495.554 28.1572C495.13 28.1572 494.822 28.0068 494.631 27.7061C494.531 27.5465 494.46 27.321 494.419 27.0293C494.168 27.3574 493.808 27.6423 493.339 27.8838C492.869 28.1253 492.352 28.2461 491.787 28.2461C491.108 28.2461 490.552 28.041 490.119 27.6309C489.691 27.2161 489.477 26.6989 489.477 26.0791C489.477 25.4001 489.688 24.8737 490.112 24.5C490.536 24.1263 491.092 23.8962 491.78 23.8096L493.742 23.5635ZM500.435 20.4668C501.259 20.4668 501.929 20.6673 502.444 21.0684C502.964 21.4694 503.276 22.1598 503.381 23.1396H502.185C502.112 22.6885 501.945 22.3148 501.686 22.0186C501.426 21.7178 501.009 21.5674 500.435 21.5674C499.651 21.5674 499.09 21.9502 498.753 22.7158C498.534 23.2126 498.425 23.8255 498.425 24.5547C498.425 25.2884 498.58 25.9059 498.89 26.4072C499.2 26.9085 499.687 27.1592 500.353 27.1592C500.863 27.1592 501.266 27.0042 501.562 26.6943C501.863 26.3799 502.071 25.9515 502.185 25.4092H503.381C503.244 26.3799 502.902 27.0908 502.355 27.542C501.809 27.9886 501.109 28.2119 500.257 28.2119C499.3 28.2119 498.536 27.8633 497.967 27.166C497.397 26.4642 497.112 25.5892 497.112 24.541C497.112 23.2559 497.424 22.2555 498.049 21.54C498.673 20.8245 499.468 20.4668 500.435 20.4668ZM507.66 20.5146C508.18 20.5146 508.683 20.6377 509.171 20.8838C509.659 21.1253 510.03 21.4398 510.285 21.8271C510.531 22.1963 510.695 22.627 510.777 23.1191C510.85 23.4564 510.887 23.9941 510.887 24.7324H505.521C505.543 25.4753 505.719 26.0723 506.047 26.5234C506.375 26.9701 506.883 27.1934 507.571 27.1934C508.214 27.1934 508.727 26.9814 509.109 26.5576C509.328 26.3115 509.483 26.0267 509.574 25.7031H510.784C510.752 25.972 510.645 26.2728 510.463 26.6055C510.285 26.9336 510.085 27.2025 509.861 27.4121C509.488 27.7767 509.025 28.0228 508.474 28.1504C508.177 28.2233 507.842 28.2598 507.469 28.2598C506.557 28.2598 505.785 27.9294 505.151 27.2686C504.518 26.6032 504.201 25.6735 504.201 24.4795C504.201 23.3037 504.52 22.349 505.158 21.6152C505.796 20.8815 506.63 20.5146 507.66 20.5146ZM509.622 23.7549C509.572 23.2217 509.456 22.7956 509.273 22.4766C508.936 21.8841 508.373 21.5879 507.585 21.5879C507.02 21.5879 506.546 21.793 506.163 22.2031C505.78 22.6087 505.577 23.126 505.555 23.7549H509.622ZM513.184 24.4248C513.184 25.2087 513.35 25.8649 513.683 26.3936C514.015 26.9222 514.549 27.1865 515.282 27.1865C515.852 27.1865 516.319 26.9427 516.684 26.4551C517.053 25.9629 517.237 25.2588 517.237 24.3428C517.237 23.4176 517.048 22.734 516.67 22.292C516.292 21.8454 515.825 21.6221 515.269 21.6221C514.649 21.6221 514.145 21.859 513.758 22.333C513.375 22.807 513.184 23.5042 513.184 24.4248ZM515.036 20.5488C515.597 20.5488 516.066 20.6673 516.444 20.9043C516.663 21.041 516.911 21.2803 517.189 21.6221V17.9238H518.372V28H517.265V26.9814C516.978 27.4326 516.638 27.7585 516.246 27.959C515.854 28.1595 515.405 28.2598 514.899 28.2598C514.084 28.2598 513.377 27.918 512.78 27.2344C512.183 26.5462 511.885 25.6325 511.885 24.4932C511.885 23.4268 512.156 22.5039 512.698 21.7246C513.245 20.9408 514.024 20.5488 515.036 20.5488ZM519.78 30.8574C520.505 29.4447 520.972 28.4147 521.182 27.7676C521.501 26.7878 521.66 25.6393 521.66 24.3223C521.66 23.0052 521.476 21.7998 521.106 20.7061C520.879 20.0316 520.43 19.0609 519.76 17.7939H520.587C521.289 18.915 521.713 19.6077 521.858 19.8721C522.009 20.1318 522.171 20.4919 522.344 20.9521C522.562 21.5218 522.717 22.0846 522.809 22.6406C522.904 23.1966 522.952 23.7321 522.952 24.2471C522.952 25.596 522.738 26.7992 522.31 27.8564C522.041 28.5355 521.482 29.5358 520.635 30.8574H519.78Z" fill="#979797"/>
<path d="M148.182 148V132.707H145.352V128.98H148.182V128.102C148.205 125.711 148.938 123.871 150.379 122.582C151.832 121.281 153.877 120.631 156.514 120.631C158.096 120.631 160.018 120.977 162.279 121.668L161.541 125.869C160.393 125.529 159.502 125.312 158.869 125.219C158.236 125.113 157.557 125.061 156.83 125.061C154.463 125.061 153.279 126.109 153.279 128.207V128.98H157.023V132.707H153.279V148H148.182ZM164.652 148H159.555V128.98H164.652V148Z" fill="black"/>
<path d="M196.645 132.707H193.393V142.059C193.393 142.867 193.551 143.424 193.867 143.729C194.195 144.021 194.688 144.168 195.344 144.168C195.93 144.168 196.428 144.127 196.838 144.045V147.895C195.842 148.199 194.816 148.352 193.762 148.352C190.129 148.352 188.312 146.236 188.312 142.006V132.707H185.588V128.98H188.312V127.416C188.312 126.432 188.043 125.67 187.504 125.131C186.977 124.58 186.244 124.305 185.307 124.305C184.451 124.305 183.783 124.545 183.303 125.025C182.822 125.494 182.582 126.139 182.582 126.959C182.582 127.65 182.658 128.283 182.811 128.857C182.963 129.432 183.127 130.012 183.303 130.598C183.49 131.184 183.66 131.811 183.812 132.479C183.965 133.135 184.041 133.896 184.041 134.764H178.961C178.961 134.037 178.727 133.439 178.258 132.971C177.789 132.49 177.057 132.25 176.061 132.25C175.205 132.25 174.543 132.443 174.074 132.83C173.605 133.217 173.371 133.709 173.371 134.307C173.371 134.869 173.635 135.326 174.162 135.678C174.701 136.018 175.604 136.316 176.869 136.574C178.135 136.82 179.201 137.102 180.068 137.418C182.752 138.402 184.094 140.107 184.094 142.533C184.094 144.268 183.35 145.674 181.861 146.752C180.373 147.818 178.451 148.352 176.096 148.352C174.502 148.352 173.084 148.07 171.842 147.508C170.611 146.934 169.645 146.154 168.941 145.17C168.238 144.174 167.887 143.102 167.887 141.953H172.703C172.75 142.855 173.084 143.547 173.705 144.027C174.326 144.508 175.158 144.748 176.201 144.748C177.174 144.748 177.906 144.566 178.398 144.203C178.902 143.828 179.154 143.342 179.154 142.744C179.154 142.123 178.844 141.637 178.223 141.285C177.613 140.922 176.629 140.6 175.27 140.318C170.746 139.369 168.484 137.447 168.484 134.553C168.484 132.865 169.182 131.459 170.576 130.334C171.982 129.197 173.816 128.629 176.078 128.629C177.051 128.629 177.994 128.74 178.908 128.963C178.381 127.756 178.117 126.695 178.117 125.781C178.117 124.211 178.785 122.951 180.121 122.002C181.457 121.053 183.227 120.578 185.43 120.578C187.973 120.578 189.936 121.17 191.318 122.354C192.701 123.525 193.393 125.248 193.393 127.521V128.98H196.645V132.707Z" fill="black"/>
<path d="M204.836 148H199.738V128.98H204.836V148ZM199.439 124.059C199.439 123.297 199.691 122.67 200.195 122.178C200.711 121.686 201.408 121.439 202.287 121.439C203.154 121.439 203.846 121.686 204.361 122.178C204.877 122.67 205.135 123.297 205.135 124.059C205.135 124.832 204.871 125.465 204.344 125.957C203.828 126.449 203.143 126.695 202.287 126.695C201.432 126.695 200.74 126.449 200.213 125.957C199.697 125.465 199.439 124.832 199.439 124.059Z" fill="black"/>
<path d="M216.947 144.256C217.885 144.256 218.646 143.998 219.232 143.482C219.818 142.967 220.123 142.281 220.146 141.426H224.91C224.898 142.715 224.547 143.898 223.855 144.977C223.164 146.043 222.215 146.875 221.008 147.473C219.812 148.059 218.488 148.352 217.035 148.352C214.316 148.352 212.172 147.49 210.602 145.768C209.031 144.033 208.246 141.643 208.246 138.596V138.262C208.246 135.332 209.025 132.994 210.584 131.248C212.143 129.502 214.281 128.629 217 128.629C219.379 128.629 221.283 129.309 222.713 130.668C224.154 132.016 224.887 133.814 224.91 136.064H220.146C220.123 135.08 219.818 134.283 219.232 133.674C218.646 133.053 217.873 132.742 216.912 132.742C215.729 132.742 214.832 133.176 214.223 134.043C213.625 134.898 213.326 136.293 213.326 138.227V138.754C213.326 140.711 213.625 142.117 214.223 142.973C214.82 143.828 215.729 144.256 216.947 144.256Z" fill="black"/>
<path d="M239.201 146.066C237.947 147.59 236.213 148.352 233.998 148.352C231.959 148.352 230.4 147.766 229.322 146.594C228.256 145.422 227.711 143.705 227.688 141.443V128.98H232.768V141.268C232.768 143.248 233.67 144.238 235.475 144.238C237.197 144.238 238.381 143.641 239.025 142.445V128.98H244.123V148H239.342L239.201 146.066Z" fill="black"/>
<path d="M249.344 148V132.707H246.514V128.98H249.344V127.363C249.344 125.23 249.953 123.578 251.172 122.406C252.402 121.223 254.119 120.631 256.322 120.631C257.025 120.631 257.887 120.748 258.906 120.982L258.854 124.92C258.432 124.814 257.916 124.762 257.307 124.762C255.396 124.762 254.441 125.658 254.441 127.451V128.98H258.221V132.707H254.441V148H249.344ZM259.961 148V132.707H257.131V128.98H259.961V127.363C259.961 125.23 260.57 123.578 261.789 122.406C263.02 121.223 264.736 120.631 266.939 120.631C267.643 120.631 268.504 120.748 269.523 120.982L269.471 124.92C269.049 124.814 268.533 124.762 267.924 124.762C266.014 124.762 265.059 125.658 265.059 127.451V128.98H268.838V132.707H265.059V148H259.961Z" fill="black"/>
<path d="M281.775 142.744C281.775 142.123 281.465 141.637 280.844 141.285C280.234 140.922 279.25 140.6 277.891 140.318C273.367 139.369 271.105 137.447 271.105 134.553C271.105 132.865 271.803 131.459 273.197 130.334C274.604 129.197 276.438 128.629 278.699 128.629C281.113 128.629 283.041 129.197 284.482 130.334C285.936 131.471 286.662 132.947 286.662 134.764H281.582C281.582 134.037 281.348 133.439 280.879 132.971C280.41 132.49 279.678 132.25 278.682 132.25C277.826 132.25 277.164 132.443 276.695 132.83C276.227 133.217 275.992 133.709 275.992 134.307C275.992 134.869 276.256 135.326 276.783 135.678C277.322 136.018 278.225 136.316 279.49 136.574C280.756 136.82 281.822 137.102 282.689 137.418C285.373 138.402 286.715 140.107 286.715 142.533C286.715 144.268 285.971 145.674 284.482 146.752C282.994 147.818 281.072 148.352 278.717 148.352C277.123 148.352 275.705 148.07 274.463 147.508C273.232 146.934 272.266 146.154 271.562 145.17C270.859 144.174 270.508 143.102 270.508 141.953H275.324C275.371 142.855 275.705 143.547 276.326 144.027C276.947 144.508 277.779 144.748 278.822 144.748C279.795 144.748 280.527 144.566 281.02 144.203C281.523 143.828 281.775 143.342 281.775 142.744Z" fill="black"/>
<circle cx="258" cy="130" r="7.5" stroke="#FF1515"/>
<circle cx="186" cy="122" r="7.5" stroke="#FF1515"/>
<circle cx="163" cy="126" r="7.5" stroke="#FF1515"/>
</svg>
