<svg width="744" height="535" viewBox="0 0 744 535" fill="none" xmlns="http://www.w3.org/2000/svg">
<path d="M162.572 3.04842V167.397H1.19203C-6.9015 16.7852 24.0011 -10.443 162.572 3.04842Z" transform="translate(298.647 43.0675)" fill="black" fill-opacity="0.13"/>
<path d="M10.0722 14.0849C13.0879 14.0849 16.0167 14.0849 18.9595 14.0849L19.2557 12.9351C18.6632 12.0728 18.367 10.923 17.7745 10.0606C17.0439 8.72419 17.7745 5.74882 16.2933 4.31158C12.6722 0.797722 7.40604 0 4.44362 1.91537e-08L0 5.7489C1.31987 5.80114 3.49455 6.74462 4.6318 7.39669C5.76906 8.04875 6.72215 8.96401 7.406 10.0606L9.18337 13.51L10.0722 14.0849Z" transform="translate(388.246 10.7279) scale(-0.999944 1.00006) rotate(28.8653)" fill="#99C6E8"/>
<path d="M0 22.4209H7.10987C7.40611 22.4209 8.59101 22.7084 8.88725 22.4209C9.18349 22.1335 9.77594 20.1213 9.77594 19.5464L11.5535 15.2347C12.6543 12.1354 15.7352 9.79983 17.7745 7.1862C18.767 5.53809 18.6581 3.56053 20.3028 2.51324C21.9475 1.46595 24.7086 0.227588 26.6617 0H17.7745C11.2572 0.574896 6.22104 7.76108 3.8511 12.6477C2.15783 15.7393 0.864374 19.0218 0 22.4209Z" transform="translate(402.514 2.86096) scale(-0.999944 1.00006) rotate(28.8653)" fill="#B4DAF6"/>
<path d="M13.9234 19.5465L8.88725 5.26419e-05L0 0L5.03614 19.8339L13.9234 19.5465Z" transform="translate(415.889 14.8528) scale(-0.999944 1.00006) rotate(28.8653)" fill="#99C6E8"/>
<path d="M5.03608 36.5059L14.812 30.182L8.59101 24.433C9.09385 22.6805 9.68701 20.9537 10.3684 19.259C11.3903 16.2143 12.9987 13.3854 15.1082 10.9229C17.7744 7.76099 20.7369 5.74896 23.6993 5.74896C26.6617 5.74896 29.0315 8.04848 31.4015 12.9351C32.2832 14.7531 32.5866 14.0849 33.179 13.51C33.4735 12.8777 33.6258 12.1917 33.6258 11.4979C33.6258 10.804 33.4735 10.118 33.179 9.48568C30.5129 3.44927 27.2542 0 23.4031 0C21.4808 0.321445 19.3509 1.31057 17.72 2.34904C16.0892 3.38752 14.6959 4.74054 13.627 6.32382C11.3208 9.17766 9.51892 12.3831 8.29466 15.8096C7.40594 17.8217 6.81349 19.8338 5.92477 22.4208L0 17.2469L5.03608 36.5059Z" transform="translate(399.92 4.29126) scale(-0.999944 1.00006) rotate(28.8653)" fill="white"/>
<path d="M3.0003 154.971C3.00654 132.686 3.14439 112.756 6.17653 95.3213C9.32962 77.1913 15.5739 62.0293 27.8676 49.975L27.9227 49.9209L27.975 49.864L55.3345 20.1246C64.566 11.8246 78.6571 7.44573 96.4815 5.22585C113.525 3.10325 133.47 3.00478 154.947 3.00022V154.971H3.0003Z" transform="translate(299.594 46.116)" fill="url(#paint0_linear)" stroke="black" stroke-width="6"/>
<path d="M0 29.6809L27.2237 0C24.212 8.23599 25.5053 15.1524 28.45 24.5297C19.0225 22.1243 10.3108 25.1072 0 29.6809Z" transform="translate(325.591 66.7209)" fill="white" stroke="black" stroke-width="5"/>
<path d="M0 0L257.382 1.3875" transform="translate(287.576 214.635) rotate(-45)" stroke="black" stroke-width="6" stroke-dasharray="4 2"/>
<path d="M9.63724 13.8668C12.5227 13.8668 15.3249 13.8668 18.1407 13.8668L18.4241 12.7349C17.8572 11.8859 17.5737 10.7539 17.0068 9.90488C16.3078 8.58912 17.0068 5.65982 15.5896 4.24483C12.1249 0.785372 7.08619 0 4.25171 1.88572e-08L0 5.6599C1.26286 5.71133 3.34363 6.64021 4.43176 7.28218C5.5199 7.92415 6.43183 8.82523 7.08614 9.90488L8.78676 13.3009L9.63724 13.8668Z" transform="translate(266.992 146.391) rotate(-66.8518)" fill="#99C6E8"/>
<path d="M0 22.0738H6.80281C7.08626 22.0738 8.21998 22.3568 8.50342 22.0738C8.78687 21.7908 9.35373 19.8098 9.35373 19.2438L11.0545 14.9989C12.1078 11.9476 15.0556 9.64811 17.0068 7.07495C17.9564 5.45235 17.8523 3.50541 19.4259 2.47433C20.9996 1.44325 23.6414 0.224064 25.5103 0H17.0068C10.771 0.565996 5.95236 7.64093 3.68478 12.4519C2.06464 15.4956 0.827043 18.7273 0 22.0738Z" transform="translate(260.864 160.726) rotate(-66.8518)" fill="#B4DAF6"/>
<path d="M13.3221 19.2439L8.50342 5.18269e-05L0 0L4.81864 19.5268L13.3221 19.2439Z" transform="translate(273.987 172.503) rotate(-66.8518)" fill="#99C6E8"/>
<path d="M4.81858 35.9407L14.1723 29.7147L8.21998 24.0548C8.7011 22.3294 9.26864 20.6293 9.9206 18.9608C10.8984 15.9633 12.4373 13.1782 14.4557 10.7538C17.0067 7.64084 19.8413 5.65996 22.6758 5.65996C25.5103 5.65996 27.7777 7.92388 30.0453 12.7348C30.8889 14.5247 31.1792 13.8669 31.7461 13.3009C32.0278 12.6783 32.1736 12.003 32.1736 11.3199C32.1736 10.6367 32.0278 9.96137 31.7461 9.33883C29.1951 3.39587 26.0772 0 22.3923 0C20.553 0.316469 18.5151 1.29028 16.9547 2.31268C15.3943 3.33507 14.0612 4.66715 13.0384 6.22592C10.8319 9.03558 9.10781 12.1914 7.93643 15.5648C7.08609 17.5458 6.51923 19.5268 5.66888 22.0737L0 16.9799L4.81858 35.9407Z" transform="translate(261.978 158.119) rotate(-66.8518)" fill="white"/>
<path d="M9.63601 13.8686C12.5211 13.8686 15.323 13.8686 18.1383 13.8686L18.4217 12.7365C17.8549 11.8874 17.5715 10.7552 17.0047 9.90614C16.3057 8.59022 17.0047 5.66054 15.5876 4.24537C12.1233 0.785473 7.08528 0 4.25117 1.88596e-08L0 5.66062C1.2627 5.71206 3.3432 6.64105 4.4312 7.28311C5.5192 7.92516 6.43101 8.82636 7.08524 9.90615L8.78564 13.3026L9.63601 13.8686Z" transform="translate(588.427 67.9504) rotate(9.05666)" fill="#99C6E8"/>
<path d="M0 22.0766H6.80194C7.08535 22.0766 8.21893 22.3597 8.50234 22.0766C8.78575 21.7936 9.35254 19.8124 9.35254 19.2463L11.0531 15.0008C12.1062 11.9491 15.0537 9.64934 17.0047 7.07585C17.9541 5.45305 17.85 3.50586 19.4235 2.47465C20.9969 1.44344 23.6384 0.224093 25.507 0H17.0047C10.7696 0.566068 5.9516 7.6419 3.68431 12.4535C2.06438 15.4976 0.826938 18.7297 0 22.0766Z" transform="translate(573.034 65.496) rotate(9.05666)" fill="#B4DAF6"/>
<path d="M13.3204 19.2464L8.50234 5.18335e-05L0 0L4.81803 19.5293L13.3204 19.2464Z" transform="translate(564.808 81.0944) rotate(9.05666)" fill="#99C6E8"/>
<path d="M4.81796 35.9453L14.1705 29.7185L8.21893 24.0578C8.69999 22.3323 9.26746 20.632 9.91933 18.9633C10.897 15.9653 12.4357 13.1799 14.4538 10.7552C17.0045 7.64182 19.8388 5.66068 22.6729 5.66068C25.507 5.66068 27.7742 7.92489 30.0415 12.7365C30.885 14.5265 31.1752 13.8686 31.742 13.3026C32.0237 12.68 32.1695 12.0045 32.1695 11.3213C32.1695 10.6381 32.0237 9.96264 31.742 9.34002C29.1913 3.39631 26.0738 0 22.3895 0C20.5504 0.316509 18.5128 1.29044 16.9525 2.31297C15.3923 3.3355 14.0594 4.66775 13.0368 6.22672C10.8305 9.03674 9.10665 12.193 7.93542 15.5668C7.08518 17.5481 6.51839 19.5293 5.66816 22.0766L0 16.9821L4.81796 35.9453Z" transform="translate(575.833 65.9424) rotate(9.05666)" fill="white"/>
<rect width="157.947" height="157.971" transform="translate(28.0923 52.4937)" fill="black" fill-opacity="0.13"/>
<rect x="3" y="3" width="151.947" height="151.971" transform="translate(22.6968 46.116)" fill="white" stroke="black" stroke-width="6"/>
<path d="M0 140.8L157.37 0V140.8H0Z" transform="translate(550.334 69.174)" fill="black" fill-opacity="0.13"/>
<path d="M154.64 110.241H7.24184L78.8017 38.6704L78.8095 38.6627L78.8171 38.6549C84.3553 33.0346 91.2056 25.0808 96.5964 17.862C99.2887 14.2567 101.666 10.7696 103.339 7.80726C103.824 6.94971 104.263 6.11277 104.638 5.31108L131.184 27.7935C133.849 31.6757 140.556 43.7161 146.17 59.3487C151.653 74.6178 155.968 92.9711 154.64 110.241Z" transform="translate(547.55 91.2507)" fill="url(#paint1_linear)" stroke="black" stroke-width="6"/>
<path d="M0.2678 22.5169L25.9713 4.14594e-06C17.6809 13.3316 12.602 41.1748 15.5471 50.5507C4.18208 47.0274 -1.31759 29.5585 0.2678 22.5169Z" transform="translate(677.448 91.0688) rotate(87.0963)" fill="white" stroke="black" stroke-width="6"/>
<path d="M0 0.867188L168.755 0" transform="translate(717.147 218.682) rotate(-135)" stroke="black" stroke-width="6" stroke-dasharray="4 2"/>
<path d="M54.6047 0L0 133.364L66.9556 139.742V131.157L108.895 135.817L54.6047 0Z" transform="translate(325.836 336.306)" fill="black" fill-opacity="0.13"/>
<path d="M31.8836 0L33.7114 2.69827L63.3101 118.358H0L31.8836 0Z" transform="translate(605.005 315.868)" fill="#EDEDEE"/>
<path d="M0 122.649L53.7117 138.838L0 0V122.649Z" transform="translate(380.774 332.549)" fill="white" stroke="black" stroke-width="5"/>
<path d="M11.9133 127.8L0 0V123.63L11.9133 127.8Z" transform="translate(380.634 331.077)" fill="black" fill-opacity="0.13"/>
<path d="M12.4038 92.2319L0 0V121.668L12.4038 92.2319Z" transform="translate(380.634 331.077)" fill="#EDEDEE" stroke="black" stroke-width="5"/>
<path d="M52.5899 0L0 134.668L64.7483 91.9864L52.5899 0Z" transform="translate(328.289 331.077)" fill="white" stroke="black" stroke-width="5"/>
<path d="M0 11.3692L6.13147 12.222V1.13697L0 0V11.3692Z" transform="translate(95.7577 324.988) scale(-0.999923 1.00008) rotate(-42.4747)" fill="#B2D8F5"/>
<path d="M0 11.3692L6.42347 12.2574V1.13691L0 0V11.3692Z" transform="translate(85.2021 336.519) scale(-0.999923 1.00008) rotate(-42.4747)" fill="#B2D8F5"/>
<path d="M6.42347 1.42115H11.3869L4.6715 0L0 0.284161L6.42347 1.42115Z" transform="translate(85.3943 336.309) scale(-0.999923 1.00008) rotate(-42.4747)" fill="#A7CFEE"/>
<path d="M9.09618 2.217C18.1474 8.47007 21.0335 20.1046 18.6977 30.0526C17.9397 32.516 16.6193 33.8584 15.6656 33.7476L19.0906 34.1456C20.9718 34.2403 21.036 34.3604 22.2351 34.2403C22.8191 34.2403 23.7623 33.8614 24.0543 33.2929C24.8657 31.0086 25.2609 28.6039 25.2221 26.1871C25.2221 15.7653 22.3023 5.72251 12.6671 1.74329C9.4782 0.554069 4.37964 0 0 0C2.77939 0 7.35129 0.802138 9.09618 2.217Z" transform="translate(86.0361 331.45) scale(-0.999923 1.00008) rotate(-42.4747)" fill="#B2D8F5"/>
<path d="M0 16.2011L8.75924 27.0019V15.6327L12.263 15.6326C14.686 15.9252 16.9949 16.3121 18.9785 17.698C22.1585 19.9527 24.0068 22.6479 25.1885 26.3007C27.0057 31.0391 27.7158 37.2058 26.2779 42.066C26.1323 42.5505 26.1093 43.0621 26.211 43.5571C26.3127 44.0521 26.4744 44.5863 26.7271 44.8326C26.9797 45.0789 27.2324 45.0789 27.2324 45.0789C28.4958 45.0789 29.411 44.3399 29.703 43.203C32.0332 36.4573 31.2344 30.3131 29.119 24.1595C27.7979 19.8824 24.4442 16.0777 20.6629 13.5483C18.3624 11.8974 15.9891 11.5755 13.1389 11.3692C11.6282 11.2599 10.2192 11.3692 8.75928 11.3692L8.75924 0L0 16.2011Z" transform="translate(102.218 330.903) scale(-0.999923 1.00008) rotate(-42.4747)" fill="white"/>
<path d="M98.2608 0L0 119.873L67.6914 125.76L125.958 118.401L188.64 123.307L98.2608 0Z" transform="translate(7.49048 345.549)" fill="black" fill-opacity="0.13"/>
<path d="M0 120.246L98.4533 0L189.83 104.528L125.413 120.105L73.5323 104.528L0 120.246Z" transform="translate(7 343.587)" fill="white" stroke="black" stroke-width="5"/>
<path d="M51.3803 115.848L0 100.113L23.8098 0.245297L24.5259 0L26.7332 2.20767L51.3803 115.848Z" transform="translate(81.0684 346.04)" fill="#EDEDEE"/>
<path d="M0 86.645L140.786 1.53228e-05" transform="translate(13.9519 409.101) scale(0.999395 1.0006) rotate(-45)" stroke="black" stroke-width="6" stroke-dasharray="4 2"/>
<path d="M0 145.465L92.7124 4.20425e-05" transform="translate(33.2087 375.088) scale(0.999395 1.0006) rotate(-45)" stroke="black" stroke-width="6" stroke-dasharray="4 2"/>
<path d="M123.501 -3.26109e-05L0 121.659L92.1866 126.251L123.501 -3.26109e-05Z" transform="translate(743.451 369.758) scale(-0.999942 1.00006) rotate(-29.9981)" fill="#EDEDEE"/>
<path d="M38.5056 0L0 165.085L70.3893 115.535L38.5056 0Z" transform="translate(601.326 316.85)" fill="black" fill-opacity="0.13"/>
<path d="M2.32784 125.764L34.8146 7.56711L80.0643 173.172L2.32784 125.764Z" transform="translate(675.821 303) scale(-1 1)" fill="white" stroke="black" stroke-width="4"/>
<path d="M82.9015 162.713L86.9398 164.785L85.7437 160.407L73.8942 117.031L74.7302 116.566L76.1135 115.797L75.6836 114.274L43.5547 0.456665L41.9488 -5.23215L39.7964 0.198082L39.2803 -0.870074L36.9942 -5.60177L35.5559 -0.547407L1.44795 119.31L0.984491 120.939L2.51438 121.665L7.4358 123.999L-1.92801 157.948L-3.2548 162.759L1.02703 160.196L36.5541 138.935L82.9015 162.713Z" transform="translate(598.628 313.642)" stroke="black" stroke-width="4"/>
<path d="M10.0725 14.0845C13.0883 14.0845 16.0171 14.0845 18.96 14.0845L19.2562 12.9347C18.6637 12.0724 18.3675 10.9227 17.775 10.0603C17.0443 8.72394 17.775 5.74866 16.2937 4.31146C12.6725 0.7977 7.40625 0 4.44375 1.91532e-08L0 5.74874C1.3199 5.80097 3.49465 6.74443 4.63193 7.39648C5.76922 8.04853 6.72234 8.96376 7.4062 10.0604L9.18363 13.5097L10.0725 14.0845Z" transform="translate(147.26 506.722) scale(0.999924 -1.00008) rotate(40.0743)" fill="#99C6E8"/>
<path d="M0 22.4203H7.11007C7.40632 22.4203 8.59125 22.7077 8.8875 22.4203C9.18375 22.1328 9.77621 20.1208 9.77621 19.5459L11.5538 15.2343C12.6547 12.1351 15.7357 9.79955 17.775 7.186C18.7675 5.53793 18.6586 3.56043 20.3034 2.51317C21.9481 1.46591 24.7092 0.227581 26.6625 0H17.775C11.2575 0.57488 6.22121 7.76086 3.85121 12.6473C2.15789 15.7388 0.864398 19.0213 0 22.4203Z" transform="translate(134.793 517.213) scale(0.999924 -1.00008) rotate(40.0743)" fill="#B4DAF6"/>
<path d="M13.9238 19.546L8.8875 5.26404e-05L0 0L5.03629 19.8333L13.9238 19.546Z" transform="translate(119.343 508.05) scale(0.999924 -1.00008) rotate(40.0743)" fill="#99C6E8"/>
<path d="M5.03622 36.5048L14.8124 30.1811L8.59126 24.4323C9.0941 22.6799 9.68728 20.9531 10.3687 19.2584C11.3907 16.2138 12.9991 13.3851 15.1086 10.9226C17.7749 7.76077 20.7375 5.7488 23.7 5.7488C26.6625 5.7488 29.0324 8.04825 31.4024 12.9347C32.2841 14.7526 32.5875 14.0845 33.18 13.5096C33.4744 12.8773 33.6268 12.1914 33.6268 11.4975C33.6268 10.8037 33.4744 10.1177 33.18 9.48541C30.5137 3.44918 27.255 0 23.4038 0C21.4814 0.321436 19.3514 1.31053 17.7205 2.34898C16.0896 3.38742 14.6963 4.74041 13.6274 6.32364C11.3211 9.1774 9.51919 12.3828 8.2949 15.8091C7.40615 17.8212 6.81368 19.8333 5.92493 22.4202L0 17.2464L5.03622 36.5048Z" transform="translate(137.06 515.306) scale(0.999924 -1.00008) rotate(40.0743)" fill="white"/>
<path d="M1.20079 12.5926H1.0242C1.04775 11.733 1.38326 9.89626 2.03074 7.08221C2.67823 4.25639 3.00197 2.56679 3.00197 2.0134C3.00197 1.74259 2.99608 1.57775 2.98431 1.51888C2.33683 1.87211 1.63048 2.43138 0.865273 3.19671C0.724004 3.12606 0.576849 3.00243 0.423807 2.82582C0.282538 2.63743 0.176586 2.47259 0.105952 2.3313L0 2.11937L2.94899 0.229597C3.82015 0.0765325 4.71485 0 5.6331 0C5.77437 0.235485 5.84501 0.612261 5.84501 1.13033C5.84501 1.63662 5.69785 2.53146 5.40354 3.81486C5.10923 5.08648 4.80315 6.51116 4.48529 8.08891C4.16744 9.65489 3.99085 11.0384 3.95553 12.2393C3.53173 12.4748 2.61348 12.5926 1.20079 12.5926Z" transform="translate(96.8389 236.532)" fill="white"/>
<path d="M8.07082 12.7515C7.65879 12.7515 7.34093 12.6279 7.11726 12.3806C6.89358 12.1334 6.78174 11.8037 6.78174 11.3916C6.78174 10.9795 6.93478 10.6263 7.24087 10.3319C7.54695 10.0258 7.90601 9.87271 8.31804 9.87271C8.74185 9.87271 9.06559 9.99634 9.28927 10.2436C9.51294 10.4791 9.62478 10.8029 9.62478 11.215C9.62478 11.6153 9.46585 11.9744 9.148 12.2923C8.84192 12.5985 8.48286 12.7515 8.07082 12.7515Z" transform="translate(96.8389 236.532)" fill="white"/>
<path d="M7.01048 12.8575C6.59844 12.8575 5.98039 12.622 5.15632 12.151C4.33225 11.6683 3.64945 11.3504 3.10792 11.1973C2.70766 11.6212 2.31917 11.9685 1.94245 12.2393C1.5775 12.4984 1.33028 12.6279 1.20079 12.6279C1.07129 12.6279 0.835842 12.4218 0.494442 12.0097C0.164814 11.5859 0 11.268 0 11.056C0 10.8323 0.194245 10.5203 0.582735 10.12C0.982997 9.70787 1.44212 9.50182 1.96011 9.50182C2.27796 9.50182 2.58993 9.53715 2.89602 9.60779C3.72009 8.94843 4.50295 7.99472 5.24461 6.74665C5.98628 5.4868 6.35711 4.38591 6.35711 3.44397C6.35711 2.91413 6.19818 2.50203 5.88032 2.20767C5.56247 1.90154 5.17398 1.74848 4.71485 1.74848C4.2675 1.74848 3.82604 1.89565 3.39046 2.19001C2.96665 2.48437 2.60171 2.89058 2.29562 3.40865L1.48333 3.05542C1.71877 2.31364 2.24853 1.61896 3.0726 0.971376C3.90844 0.323792 4.83258 0 5.84501 0C6.86921 0 7.66385 0.276695 8.22892 0.830085C8.80577 1.38347 9.09419 2.07816 9.09419 2.91413C9.09419 3.51461 8.91761 4.17397 8.56444 4.8922C8.22304 5.59866 7.78157 6.27568 7.24004 6.92326C6.22761 8.11246 5.21518 9.11327 4.20275 9.9257C5.67431 10.326 6.81035 10.5262 7.61087 10.5262C7.83455 10.5262 7.99936 10.4673 8.10531 10.3496C8.21126 10.2201 8.37608 9.93158 8.59975 9.48416L9.18249 9.60779C9.06476 11.7743 8.34076 12.8575 7.01048 12.8575Z" transform="translate(379.842 236.532)" fill="white"/>
<path d="M11.233 12.7515C10.8209 12.7515 10.5031 12.6279 10.2794 12.3806C10.0557 12.1334 9.94388 11.8037 9.94388 11.3916C9.94388 10.9795 10.0969 10.6263 10.403 10.3319C10.7091 10.0258 11.0681 9.87271 11.4802 9.87271C11.904 9.87271 12.2277 9.99634 12.4514 10.2436C12.6751 10.4791 12.7869 10.8029 12.7869 11.215C12.7869 11.6153 12.628 11.9744 12.3101 12.2923C12.0041 12.5985 11.645 12.7515 11.233 12.7515Z" transform="translate(379.842 236.532)" fill="white"/>
<path d="M1.30674 2.75518C1.54219 2.03695 2.01897 1.40114 2.73709 0.847746C3.45521 0.282582 4.28516 0 5.22696 0C6.18052 0 6.94573 0.259034 7.52258 0.777101C8.1112 1.28339 8.40551 1.90154 8.40551 2.63155C8.40551 3.36155 8.13474 4.00913 7.59321 4.5743C7.05168 5.12769 6.37477 5.51035 5.56247 5.72229C6.36299 5.86358 7.01636 6.20503 7.52258 6.74665C8.04056 7.28826 8.29956 7.98883 8.29956 8.84835C8.29956 9.93158 7.84632 10.8559 6.93984 11.6212C6.03337 12.3747 4.97385 12.7515 3.76129 12.7515C2.44278 12.7515 1.39503 12.363 0.618052 11.5859C0.206017 11.1855 0 10.7087 0 10.1553C0 9.97868 0.0470897 9.76674 0.141269 9.51948C0.235448 9.26045 0.353173 9.06029 0.494442 8.919C0.612166 8.89545 0.741663 8.88367 0.882932 8.88367C1.71877 8.88367 2.36037 9.10739 2.80772 9.55481L2.5605 11.4269C2.72532 11.5564 3.00197 11.6212 3.39046 11.6212C3.97908 11.6212 4.48529 11.3151 4.9091 10.7028C5.34468 10.0788 5.56247 9.34287 5.56247 8.49512C5.56247 7.64738 5.37411 7.07044 4.99739 6.76431C4.62068 6.4464 3.99674 6.28745 3.12558 6.28745L2.71943 6.30511L2.82538 5.40438C3.40223 5.34551 3.83192 5.25132 4.11446 5.1218C4.40877 4.98051 4.67954 4.81567 4.92676 4.62728C5.48006 4.22696 5.75671 3.63236 5.75671 2.84348C5.75671 2.34896 5.62133 1.98396 5.35057 1.74848C5.09157 1.50122 4.7796 1.37759 4.41466 1.37759C3.44932 1.37759 2.67234 1.94864 2.08372 3.09074L1.30674 2.75518Z" transform="translate(633.303 236.532)" fill="white"/>
<path d="M10.5521 12.7515C10.1401 12.7515 9.82225 12.6279 9.59857 12.3806C9.37489 12.1334 9.26306 11.8037 9.26306 11.3916C9.26306 10.9795 9.4161 10.6263 9.72218 10.3319C10.0283 10.0258 10.3873 9.87271 10.7994 9.87271C11.2232 9.87271 11.5469 9.99634 11.7706 10.2436C11.9943 10.4791 12.1061 10.8029 12.1061 11.215C12.1061 11.6153 11.9472 11.9744 11.6293 12.2923C11.3232 12.5985 10.9642 12.7515 10.5521 12.7515Z" transform="translate(633.303 236.532)" fill="white"/>
<path d="M9.42971 9.74908C9.18249 9.91392 8.88818 9.99634 8.54678 9.99634C8.20538 9.99634 7.89929 9.97279 7.62853 9.9257C7.51081 10.8088 7.45194 11.5859 7.45194 12.257C6.99282 12.4925 6.06868 12.6102 4.67954 12.6102H4.50295C4.50295 12.0922 4.66777 11.0266 4.99739 9.41352C4.25573 9.29577 3.59059 9.2369 3.00197 9.2369C2.42512 9.2369 1.90713 9.31343 1.44801 9.4665L0.759321 9.71376C0.759321 9.71376 0.753435 9.71376 0.741663 9.71376C0.623938 9.71376 0.476783 9.58424 0.300197 9.32521C0.111838 9.06618 0.0117724 8.8248 0 8.60109C0 8.51867 0.105952 8.37149 0.317855 8.15956C2.16613 5.5339 4.03794 2.91413 5.9333 0.300243C6.68674 0.135403 7.73448 0.0353223 9.07654 0C9.22958 0.235485 9.3061 0.571051 9.3061 1.0067C9.3061 1.43057 9.23547 1.98396 9.0942 2.66687C8.9647 3.34978 8.77634 4.22107 8.52912 5.28075C8.2819 6.34043 8.09354 7.21173 7.96404 7.89464C8.4114 7.91819 8.75868 7.92996 9.0059 7.92996C9.2649 7.92996 9.45326 7.84165 9.57098 7.66504L9.85352 7.18818L10.4892 7.40012C10.3126 8.62464 9.95947 9.40763 9.42971 9.74908ZM5.38588 7.59439C6.13932 4.28583 6.52192 2.28421 6.53369 1.58952C5.45063 2.8376 4.12035 4.76857 2.54284 7.38246C3.3316 7.39423 4.27928 7.46488 5.38588 7.59439Z" transform="translate(95.8501 522)" fill="white"/>
<path d="M12.1465 12.7515C11.7345 12.7515 11.4166 12.6279 11.193 12.3806C10.9693 12.1334 10.8574 11.8037 10.8574 11.3916C10.8574 10.9795 11.0105 10.6263 11.3166 10.3319C11.6226 10.0258 11.9817 9.87271 12.3937 9.87271C12.8175 9.87271 13.1413 9.99634 13.365 10.2436C13.5886 10.4791 13.7005 10.8029 13.7005 11.215C13.7005 11.6153 13.5415 11.9744 13.2237 12.2923C12.9176 12.5985 12.5586 12.7515 12.1465 12.7515Z" transform="translate(95.8501 522)" fill="white"/>
<path d="M3.72597 0.158953L7.52258 0C7.96993 0 8.34665 0.0765327 8.65273 0.229598C8.72336 0.394438 8.75868 0.624036 8.75868 0.918392C8.75868 1.46001 8.65273 1.99574 8.44083 2.52558L8.35253 2.77284C7.79923 2.38429 7.12231 2.19001 6.32179 2.19001C4.89733 2.19001 3.8849 2.22533 3.28451 2.29598C3.14324 2.8376 3.00785 3.49695 2.87836 4.27405C4.29105 4.32115 5.48006 4.61551 6.4454 5.15712C6.96339 5.4397 7.36954 5.84592 7.66385 6.37576C7.95816 6.9056 8.10531 7.53552 8.10531 8.26553C8.10531 9.44295 7.65796 10.4673 6.76326 11.3386C5.86855 12.2099 4.80315 12.6455 3.56704 12.6455C2.67234 12.6455 1.85416 12.4101 1.11249 11.9391C0.370831 11.4563 0 10.8382 0 10.0846C0 9.53126 0.141269 9.09561 0.423807 8.77771C0.494442 8.76593 0.594507 8.76004 0.724004 8.76004C1.55985 8.76004 2.21322 9.0073 2.68411 9.50182L2.5605 11.3739C2.74886 11.5034 2.99019 11.5682 3.28451 11.5682C3.92022 11.5682 4.42643 11.2326 4.80315 10.5615C5.19164 9.89037 5.38588 9.04263 5.38588 8.01827C5.38588 6.98213 5.11512 6.25213 4.57359 5.82826C4.03205 5.39261 3.21387 5.17478 2.11904 5.17478H1.81884L1.46567 4.69793C1.58339 4.2976 1.7482 3.52639 1.96011 2.38429C2.17201 1.24218 2.3486 0.476857 2.48987 0.0883071C2.83127 0.135404 3.2433 0.158953 3.72597 0.158953Z" transform="translate(380.425 522)" fill="white"/>
<path d="M10.4088 12.6455C9.99676 12.6455 9.67891 12.5219 9.45523 12.2747C9.23156 12.0274 9.11972 11.6977 9.11972 11.2856C9.11972 10.8735 9.27276 10.5203 9.57884 10.2259C9.88492 9.91981 10.244 9.76674 10.656 9.76674C11.0798 9.76674 11.4036 9.89037 11.6272 10.1376C11.8509 10.3731 11.9628 10.6969 11.9628 11.109C11.9628 11.5093 11.8038 11.8684 11.486 12.1864C11.1799 12.4925 10.8208 12.6455 10.4088 12.6455Z" transform="translate(380.425 522)" fill="white"/>
<path d="M5.58013 1.09501C4.89733 1.09501 4.32636 1.53065 3.86724 2.40195C3.41989 3.26147 3.09615 4.39768 2.89602 5.81059C3.61413 5.3514 4.42643 5.1218 5.33291 5.1218C6.23938 5.1218 6.93396 5.42204 7.41662 6.02253C7.91107 6.61124 8.15829 7.44133 8.15829 8.51279C8.15829 9.57247 7.73448 10.5438 6.88687 11.4269C6.03925 12.31 4.98562 12.7515 3.72597 12.7515C1.24199 12.7515 0 11.1973 0 8.08891C0 6.64068 0.235448 5.29841 0.706345 4.06212C1.18901 2.82582 1.86593 1.84267 2.73709 1.11267C3.60825 0.370889 4.57947 0 5.65076 0C6.45129 0 7.16352 0.206049 7.78746 0.618148C8.41139 1.01847 8.72336 1.6013 8.72336 2.36663C8.72336 2.90824 8.58209 3.32623 8.29956 3.62058C8.20538 3.63236 8.07588 3.63824 7.91107 3.63824C7.05168 3.63824 6.41008 3.40865 5.98628 2.94945L6.25116 1.28928C6.0628 1.15976 5.83912 1.09501 5.58013 1.09501ZM4.27339 6.3581C3.84958 6.3581 3.34925 6.55826 2.77241 6.95858C2.72532 7.53552 2.70177 8.27141 2.70177 9.16626C2.70177 10.0493 2.78418 10.6851 2.94899 11.0737C3.11381 11.4622 3.39046 11.6565 3.77895 11.6565C4.33225 11.6565 4.74429 11.3209 5.01505 10.6498C5.28582 9.97868 5.4212 9.23101 5.4212 8.40682C5.4212 7.041 5.0386 6.3581 4.27339 6.3581Z" transform="translate(634.292 522)" fill="white"/>
<path d="M10.8049 12.7515C10.3928 12.7515 10.075 12.6279 9.85131 12.3806C9.62763 12.1334 9.51579 11.8037 9.51579 11.3916C9.51579 10.9795 9.66884 10.6263 9.97492 10.3319C10.281 10.0258 10.6401 9.87271 11.0521 9.87271C11.4759 9.87271 11.7996 9.99634 12.0233 10.2436C12.247 10.4791 12.3588 10.8029 12.3588 11.215C12.3588 11.6153 12.1999 11.9744 11.8821 12.2923C11.576 12.5985 11.2169 12.7515 10.8049 12.7515Z" transform="translate(634.292 522)" fill="white"/>
<path d="M2.02311 6.13218V0L0 4.16988L0.0609579 11.5285L2.02311 6.13218Z" transform="translate(372.706 316.125) rotate(149.291)" fill="#99C6E8"/>
<path d="M2.02311 6.13218V0L0 4.16988L0.0609579 11.5285L2.02311 6.13218Z" transform="translate(366.82 306.213) rotate(149.291)" fill="#99C6E8"/>
<path d="M2.94322 4.66045L8.09387 0L6.07076 4.16988L0 9.56619L2.94322 4.66045Z" transform="translate(377.925 313.025) rotate(149.291)" fill="#B4DAF6"/>
<path d="M38.2619 14.2946V3.40002C35.8698 5.6667 27.9348 12.8715 21.2436 12.8715C12.2219 12.8715 9.00227 9.62529 6.13172 7.35861L6.07073 0L0 5.39631L6.07073 18.6418V11.8661C9.35136 15.9947 13.6572 21.0947 23.4991 21.0947C31.7007 21.0947 35.8698 16.0756 38.2619 14.2946Z" transform="translate(375.796 309.439) rotate(149.291)" fill="white"/>
<path d="M0 8.58504C0 8.58504 0.490537 9.07562 1.22634 9.56619C1.96215 10.0568 6.13172 14.2266 14.9614 14.2266C21.5343 14.2266 29.5899 7.05487 32.1302 4.66045L29.9228 0C27.684 2.13069 21.9728 7.75001 15.0333 8.16753C8.09387 8.58504 1.96215 3.18873 1.96215 3.18873L0 8.58504Z" transform="translate(371.151 313.625) rotate(149.291)" fill="#B4DAF6"/>
<defs>
<linearGradient id="paint0_linear" x2="1" gradientUnits="userSpaceOnUse" gradientTransform="translate(93.9341 -45.8705) scale(191.139 191.169) rotate(45.9358)">
<stop offset="0.0225414" stop-color="white"/>
<stop offset="0.0889057" stop-color="#EDEDEE"/>
<stop offset="0.206594" stop-color="#EFEFEF"/>
<stop offset="0.332544" stop-color="white"/>
<stop offset="1" stop-color="white"/>
</linearGradient>
<linearGradient id="paint1_linear" x2="1" gradientUnits="userSpaceOnUse" gradientTransform="matrix(-109.631 143.008 -125.094 -130.95 181.743 35.7939)">
<stop offset="0.0363322" stop-color="white"/>
<stop offset="0.179295" stop-color="#EFEFEF"/>
<stop offset="0.319307" stop-color="#F5F5F5"/>
<stop offset="0.434307" stop-color="white"/>
<stop offset="1" stop-color="white"/>
</linearGradient>
</defs>
</svg>
