<svg width="363" height="410" viewBox="0 0 363 410" fill="none" xmlns="http://www.w3.org/2000/svg">
<path fill-rule="evenodd" clip-rule="evenodd" d="M253.032 113.777L249.202 70.2274L249.181 69.9944L210.431 88.706L216.606 37.681L175.593 0L132.477 38.2404L138.52 89.3025L98.8511 70.2508L95.4619 113.576L54.2607 82.7233L0.208984 100.159L12.6885 155.698L60.0298 176.012L23.9536 201.227L60.5503 224.764L13.1738 244.937L0 299.804L1.31201 300.238L54.7529 317.942L96.0518 287.193L99.3267 329.855L138.626 311.124L132.451 362.149L173.489 400.97L216.605 362.729L210.563 311.667L249.229 330.171L252.619 286.846L293.819 317.699L346.443 300.723L336.396 245.273L289.054 224.959L324.744 199.746L289.51 175.616L336.887 155.443L348.775 100.019L294.331 83.028L253.032 113.777ZM295 199.968L264.829 185.078L199.954 200.295L199.65 200.294L264.385 215.443L295 199.968ZM216.804 224.993L216.764 224.935L261.159 235.861L276.924 259.598L247.892 257.531L216.804 224.993ZM232.063 270.249L187.835 223.975L206.487 285.594L234.219 303.655L232.063 270.249ZM187.151 293.014L174.223 250.449L161.708 292.384L174.431 318.504L187.151 293.014ZM142.753 285.065L161.164 224.09L116.644 270.637L114.836 303.628L142.753 285.065ZM100.535 257.638L131.848 224.95L88.3579 235.34L72.0503 259.39L100.535 257.638ZM85.2324 215.302L147.784 200.291L84.6987 185.528L55.1587 200.46L85.2324 215.302ZM174.919 81.9278L161.931 107.956L174.655 150.06L187.35 107.445L174.919 81.9278ZM297.709 272.24L296.593 296.277L325.91 287.695L319.103 258.703L297.709 272.24ZM29.9814 142.268L22.9888 112.488L51.4878 104.145L50.6885 129.148L29.9814 142.268ZM87.9253 165.11L71.8267 140.871L100.188 142.891L131.2 175.386L87.9253 165.11ZM116.018 130.173L113.854 96.6582L142.596 115.376L161.819 178.886L116.018 130.173ZM50.6865 271.029L30.3809 258.045L23.1738 287.668L51.7407 296.284L50.6865 271.029ZM206.305 114.765L234.312 96.1408L232.439 130.333L186.927 178.695L206.305 114.765ZM319.68 142.334L298.364 129.149L297.342 104.686L326.686 113.537L319.68 142.334ZM173.853 342.783L152.431 353.836L174.54 374.877L196.301 354.501L173.853 342.783ZM152.782 46.4686L175.133 25.5389L196.626 45.9942L174.525 57.8028L152.782 46.4686ZM276.379 141.704L249.345 143.276L217.586 175.755L261.681 164.754L276.379 141.704Z" transform="translate(14.2251 9.03018)" fill="black" fill-opacity="0.13"/>
<path fill-rule="evenodd" clip-rule="evenodd" d="M253.032 113.777L249.202 70.2274L249.181 69.9943L210.431 88.7059L216.606 37.681L175.593 0L132.477 38.2404L138.52 89.3024L98.8511 70.2509L95.4619 113.576L54.2607 82.7233L0.208984 100.159L12.6885 155.698L60.0298 176.012L23.9536 201.227L60.5503 224.764L13.1738 244.937L0 299.804L1.31201 300.238L54.7529 317.942L96.0518 287.193L99.3267 329.855L138.626 311.124L132.451 362.149L173.489 400.97L216.605 362.729L210.563 311.667L249.229 330.171L252.619 286.846L293.819 317.699L346.443 300.723L336.396 245.273L289.054 224.959L324.744 199.746L289.51 175.616L336.887 155.443L348.775 100.019L294.331 83.028L253.032 113.777ZM295 199.968L264.829 185.078L199.954 200.295L199.65 200.294L264.385 215.443L295 199.968ZM216.804 224.993L216.764 224.935L261.159 235.861L276.924 259.598L247.892 257.531L216.804 224.993ZM232.063 270.249L187.835 223.975L206.487 285.594L234.219 303.655L232.063 270.249ZM187.151 293.014L174.223 250.449L161.708 292.384L174.431 318.504L187.151 293.014ZM142.753 285.065L161.164 224.09L116.644 270.637L114.836 303.628L142.753 285.065ZM100.535 257.638L131.848 224.95L88.3579 235.34L72.0503 259.39L100.535 257.638ZM85.2324 215.302L147.784 200.291L84.6987 185.528L55.1587 200.46L85.2324 215.302ZM174.919 81.9278L161.931 107.956L174.655 150.06L187.35 107.445L174.919 81.9278ZM297.709 272.24L296.593 296.277L325.91 287.695L319.103 258.703L297.709 272.24ZM29.9814 142.268L22.9888 112.488L51.4878 104.145L50.6885 129.148L29.9814 142.268ZM87.9253 165.11L71.8267 140.871L100.188 142.891L131.2 175.386L87.9253 165.11ZM116.018 130.173L113.854 96.6582L142.596 115.376L161.819 178.886L116.018 130.173ZM50.6865 271.029L30.3809 258.045L23.1738 287.668L51.7407 296.284L50.6865 271.029ZM206.305 114.765L234.312 96.1409L232.439 130.333L186.927 178.695L206.305 114.765ZM319.68 142.334L298.364 129.149L297.342 104.686L326.686 113.537L319.68 142.334ZM173.853 342.783L152.431 353.836L174.54 374.877L196.301 354.501L173.853 342.783ZM152.782 46.4686L175.133 25.5389L196.626 45.9942L174.525 57.8028L152.782 46.4686ZM276.379 141.704L249.345 143.276L217.586 175.755L261.681 164.754L276.379 141.704Z" transform="translate(3 3)" fill="white" stroke="black" stroke-width="4"/>
</svg>
