<svg width="773" height="555" viewBox="0 0 773 555" fill="none" xmlns="http://www.w3.org/2000/svg">
<path fill-rule="evenodd" clip-rule="evenodd" d="M90.1435 0L67.3172 18.6784L70.4178 44.9685L50.0631 35.1595L48.324 57.466L27.1828 41.5812L0.201346 50.3143L5.85104 79.1534L30.1431 89.6121L12.1975 102.198L30.41 114.713L6.09998 125.099L0.0135079 153.572L0 153.636L27.4352 162.687L48.6266 146.856L50.6024 169.398L70.4728 159.177L67.3039 185.448L88.8918 204.964L88.9393 205.007L88.9391 204.922L88.901 192.001L77.5564 181.168L88.5496 175.274L88.5483 175.477L88.845 162.977L82.3162 149.528L88.9443 128.355L88.956 128.331L88.96 76.2098L88.9598 76.2507L88.9443 76.2141L82.431 54.5726L89.0956 41.1716L88.893 28.7504L77.7361 22.9148L90.1435 13.0349V0ZM82.0374 114.366L81.9107 114.11L59.1931 138.331L58.2656 155.317L72.59 145.76L82.0374 114.366ZM66.9613 114.811L44.6788 120.158L36.311 132.541L50.9269 131.639L66.9613 114.811ZM75.1718 102.113L42.8012 94.5119L27.6434 102.2L43.0749 109.841L75.1718 102.113ZM14.7244 72.2385L11.1364 56.9058L25.7598 52.6106L25.3571 65.4878L14.7244 72.2385ZM44.4567 83.9993L36.1961 71.5194L50.7493 72.5595L66.6621 89.2901L44.4567 83.9993ZM58.8715 66.0112L57.7615 48.7558L72.5094 58.3928L82.296 90.9564L58.8715 66.0112ZM14.9294 131.849L11.2313 147.1L25.8896 151.536L25.3487 138.533L14.9294 131.849Z" transform="translate(633.298 319.295)" fill="black" fill-opacity="0.13"/>
<path fill-rule="evenodd" clip-rule="evenodd" d="M90.1435 0L67.3172 18.6784L70.4178 44.9685L50.0631 35.1595L48.324 57.466L27.1828 41.5812L0.201346 50.3143L5.85104 79.1534L30.1431 89.6121L12.1975 102.198L30.41 114.713L6.09998 125.099L0.0135079 153.572L0 153.636L27.4352 162.687L48.6266 146.856L50.6024 169.398L70.4728 159.177L67.3039 185.448L88.8918 204.964L88.9393 205.007L88.9391 204.922L88.901 192.001L77.5564 181.168L88.5496 175.274L88.5483 175.477L88.845 162.977L82.3162 149.528L88.9443 128.355L88.956 128.331L88.96 76.2098L88.9598 76.2507L88.9443 76.2141L82.431 54.5726L89.0956 41.1716L88.893 28.7504L77.7361 22.9148L90.1435 13.0349V0ZM82.0374 114.366L81.9107 114.11L59.1931 138.331L58.2656 155.317L72.59 145.76L82.0374 114.366ZM66.9613 114.811L44.6788 120.158L36.311 132.541L50.9269 131.639L66.9613 114.811ZM75.1718 102.113L42.8012 94.5119L27.6434 102.2L43.0749 109.841L75.1718 102.113ZM14.7244 72.2385L11.1364 56.9058L25.7598 52.6106L25.3571 65.4878L14.7244 72.2385ZM44.4567 83.9993L36.1961 71.5194L50.7493 72.5595L66.6621 89.2901L44.4567 83.9993ZM58.8715 66.0112L57.7615 48.7558L72.5094 58.3928L82.296 90.9564L58.8715 66.0112ZM14.9294 131.849L11.2313 147.1L25.8896 151.536L25.3487 138.533L14.9294 131.849Z" transform="translate(636.939 315.257)" fill="white" stroke="black" stroke-width="3"/>
<path fill-rule="evenodd" clip-rule="evenodd" d="M90.1435 0L67.3172 18.6784L70.4178 44.9685L50.0631 35.1595L48.324 57.466L27.1828 41.5812L0.201346 50.3143L5.85104 79.1534L30.1431 89.6121L12.1975 102.198L30.41 114.713L6.09998 125.099L0.0135079 153.572L0 153.636L27.4352 162.687L48.6266 146.856L50.6024 169.398L70.4728 159.177L67.3039 185.448L88.8918 204.964L88.9393 205.007L88.9391 204.922L88.901 192.001L77.5564 181.168L88.5496 175.274L88.5483 175.477L88.845 162.977L82.3162 149.528L88.9443 128.355L88.956 128.331L88.96 76.2098L88.9598 76.2507L88.9443 76.2141L82.431 54.5726L89.0956 41.1716L88.893 28.7504L77.7361 22.9148L90.1435 13.0349V0ZM82.0374 114.366L81.9107 114.11L59.1931 138.331L58.2656 155.317L72.59 145.76L82.0374 114.366ZM66.9613 114.811L44.6788 120.158L36.311 132.541L50.9269 131.639L66.9613 114.811ZM75.1718 102.113L42.8012 94.5119L27.6434 102.2L43.0749 109.841L75.1718 102.113ZM14.7244 72.2385L11.1364 56.9058L25.7598 52.6106L25.3571 65.4878L14.7244 72.2385ZM44.4567 83.9993L36.1961 71.5194L50.7493 72.5595L66.6621 89.2901L44.4567 83.9993ZM58.8715 66.0112L57.7615 48.7558L72.5094 58.3928L82.296 90.9564L58.8715 66.0112ZM14.9294 131.849L11.2313 147.1L25.8896 151.536L25.3487 138.533L14.9294 131.849Z" transform="translate(642.241 309.866)" fill="white" stroke="black" stroke-width="4"/>
<path d="M59.5581 0L0 53.0465L0.596602 99.9515" transform="translate(88.2251 63.5507) scale(1.02706 0.972183) rotate(-45)" stroke="black" stroke-width="4" stroke-dasharray="4 2"/>
<path d="M26.9337 0L1.95672 26.9676L0 87.1261L26.9337 0Z" transform="translate(66.4219 118.122) rotate(180)" fill="white"/>
<path d="M1.95672 26.9676L0.48939 25.6086C0.162192 25.9619 -0.0265675 26.4213 -0.0422212 26.9026L1.95672 26.9676ZM26.9337 0L28.8445 0.590689C29.1202 -0.301336 28.7421 -1.26547 27.9335 -1.73219C27.1248 -2.19892 26.1008 -2.04403 25.4664 -1.35902L26.9337 0ZM0 87.1261L-1.99894 87.0611C-2.0315 88.0621 -1.31858 88.9329 -0.330803 89.0985C0.65697 89.2642 1.61497 88.6737 1.91078 87.7168L0 87.1261ZM3.42405 28.3266L28.401 1.35902L25.4664 -1.35902L0.48939 25.6086L3.42405 28.3266ZM25.0229 -0.590689L-1.91078 86.5354L1.91078 87.7168L28.8445 0.590689L25.0229 -0.590689ZM1.99894 87.1911L3.95566 27.0326L-0.0422212 26.9026L-1.99894 87.0611L1.99894 87.1911Z" transform="translate(66.4219 118.122) rotate(180)" fill="black"/>
<path d="M19.5944 5.739L0 74.1288L4.06225 76.2809L26.5241 0L19.5944 5.739Z" transform="translate(49.7026 121.031)" fill="#EDEDEE"/>
<path d="M98.7311 72.2703L49.4136 97.3138L115.265 129.522L98.7311 72.2703Z" transform="translate(49.7026 121.031)" fill="#EDEDEE"/>
<path d="M0.963154 0L0 33.081L15.3117 49.8573L0.963154 0Z" transform="translate(145.339 60.4957)" fill="white"/>
<path d="M0.963154 0L2.88514 -0.553132C2.61256 -1.5003 1.69056 -2.10768 0.712701 -1.98426C-0.265157 -1.86083 -1.00731 -1.0434 -1.036 -0.0582053L0.963154 0ZM0 33.081L-1.99915 33.0228C-2.01426 33.5416 -1.8271 34.0459 -1.47723 34.4293L0 33.081ZM15.3117 49.8573L13.8344 51.2056C14.4607 51.8918 15.4772 52.0563 16.288 51.6028C17.0989 51.1492 17.4906 50.197 17.2336 49.3042L15.3117 49.8573ZM-1.036 -0.0582053L-1.99915 33.0228L1.99915 33.1392L2.96231 0.0582053L-1.036 -0.0582053ZM-1.47723 34.4293L13.8344 51.2056L16.7889 48.509L1.47723 31.7328L-1.47723 34.4293ZM17.2336 49.3042L2.88514 -0.553132L-0.958836 0.553132L13.3897 50.4104L17.2336 49.3042Z" transform="translate(145.339 60.4957)" fill="black"/>
<path d="M17.0654 15.7393L36.8009 15.8989L35.6673 14.6866C35.5829 14.5967 27.2521 5.92786 16.1046 14.2386L12.5678 8.71332C13.0167 8.31636 13.4037 7.82551 13.695 7.24348C14.8992 4.84291 14.0455 1.86166 11.7898 0.580909C9.5328 -0.699838 6.72858 0.208084 5.52695 2.60731C4.32279 5.00653 5.17516 7.98913 7.43216 9.26988C8.72205 10.0021 10.1897 10.0155 11.438 9.4469L14.5524 14.3124L9.22515 14.2695C9.04988 12.7272 8.19626 11.2976 6.80927 10.5104C4.55227 9.23098 1.74931 10.1376 0.546416 12.5381C-0.657737 14.9373 0.194627 17.9199 2.45163 19.1994C4.70737 20.4788 7.51285 19.5722 8.71575 17.173C8.9591 16.6902 9.11293 16.1846 9.19362 15.675L15.377 15.7246C15.227 19.2409 15.8234 22.0438 16.8019 24.2888L16.3239 24.6342L16.6416 25.7366L18.5179 25.6956V24.9929H18.6012C18.5722 24.9419 18.5469 24.8856 18.5179 24.8333V24.2888H18.2368C17.3856 22.5266 16.7905 20.35 16.6884 17.6477L20.9401 24.2888V25.6956H22.5389V24.2888L17.0654 15.738V15.7393ZM32.041 13.6539C32.5214 13.9275 32.9426 14.2038 33.3007 14.4653L18.3906 14.3432C24.3634 10.6445 29.2166 12.0527 32.041 13.6539ZM8.05378 8.02936C6.44614 7.11607 5.8346 4.98105 6.69201 3.27115C7.54942 1.56125 9.55676 0.909477 11.1669 1.82276C12.7746 2.73471 13.3861 4.86974 12.5274 6.58098C11.67 8.29222 9.66268 8.94131 8.05378 8.02802V8.02936ZM7.54816 16.5118C6.69075 18.2217 4.68341 18.8708 3.07325 17.9588C1.46309 17.0469 0.854074 14.9119 1.71148 13.2006C2.57015 11.4894 4.57623 10.839 6.18639 11.7522C7.79403 12.6642 8.40557 14.7992 7.54816 16.5118Z" transform="matrix(0.0328261 0.999461 -0.999575 0.0291484 156.142 12.6982)" fill="black"/>
<path d="M72.6817 0L11.5184 51.5797L0 134.44" transform="matrix(-0.994601 0.103776 -0.114806 -0.993388 99.7793 147.112)" stroke="black" stroke-width="4" stroke-dasharray="4 2"/>
<path d="M17.4558 15.4102L37.6428 15.5664L36.4833 14.3794C36.3969 14.2915 27.8756 5.8039 16.473 13.9409L12.8553 8.53111C13.3144 8.14245 13.7104 7.66187 14.0083 7.09201C15.24 4.74164 14.3669 1.82273 12.0595 0.568762C9.75088 -0.685203 6.8825 0.203733 5.65338 2.55278C4.42168 4.90183 5.29355 7.82206 7.60218 9.07603C8.92158 9.79296 10.4228 9.80609 11.6997 9.24935L14.8853 14.0131L9.43619 13.9711C9.25691 12.4611 8.38376 11.0614 6.96505 10.2906C4.65642 9.03795 1.78933 9.92557 0.558917 12.2759C-0.672784 14.625 0.199079 17.5452 2.50771 18.7979C4.81505 20.0505 7.68472 19.1629 8.91513 16.8138C9.16405 16.3411 9.3214 15.8461 9.40394 15.3472L15.7288 15.3957C15.5753 18.8386 16.1854 21.5829 17.1862 23.7809L16.6973 24.119L17.0223 25.1984L18.9416 25.1583V24.4703H19.0267C18.997 24.4204 18.9712 24.3652 18.9416 24.314V23.7809H18.6539C17.7834 22.0556 17.1746 19.9245 17.0701 17.2787L21.4191 23.7809V25.1583H23.0545V23.7809L17.4558 15.4089V15.4102ZM32.774 13.3684C33.2654 13.6363 33.6962 13.9067 34.0625 14.1628L18.8113 14.0433C24.9208 10.4219 29.885 11.8006 32.774 13.3684ZM8.23802 7.86145C6.5936 6.96727 5.96808 4.87689 6.8451 3.20274C7.72212 1.5286 9.77539 0.890459 11.4224 1.78465C13.0668 2.67752 13.6923 4.7679 12.814 6.44336C11.937 8.11881 9.88373 8.75433 8.23802 7.86014V7.86145ZM7.72083 16.1665C6.84381 17.8407 4.79055 18.4762 3.14355 17.5833C1.49656 16.6904 0.873613 14.6 1.75063 12.9246C2.62895 11.2491 4.68092 10.6123 6.32792 11.5065C7.97233 12.3994 8.59786 14.4897 7.72083 16.1665Z" transform="matrix(0.621534 -0.781196 0.816089 0.580794 0.942383 148.103)" fill="black"/>
<path d="M55.6747 0.121081L55.6394 0L55.5686 0.286995L55.6747 0.121081Z" transform="translate(49.6147 32.9963)" fill="black" fill-opacity="0.13"/>
<path d="M4.31464 208.034L96.9942 160.971L0 225.523L4.31464 208.034Z" transform="translate(49.6147 32.9963)" fill="black" fill-opacity="0.13"/>
<path d="M56.1568 79.3469L56.7209 78.7651V77.9548V34.067L66.6913 6.48222L78.5178 47.5929L77.3346 80.034L77.3032 80.8952L77.9077 81.5096L92.8472 96.6933L113.269 166.826L3.23306 222.111L40.9663 95.0159L56.1568 79.3469Z" transform="translate(36.7993 23.7072)" fill="white" stroke="black" stroke-width="4"/>
<path d="M122.029 219.347L126.082 221.363L124.843 217.009L108.945 161.127L110.096 160.379L109.69 158.958L89.1999 87.3229L89.0609 86.8368L88.7076 86.4752L73.7627 71.1777L75.1853 38.7006L75.1996 38.3758L75.1101 38.0631L64.0657 -0.550001L62.3499 -6.54867L60.2585 -0.670399L51.1703 24.8738L51.0546 25.199V25.5442V68.9589L27.4876 92.9263L27.1428 93.2769L26.9999 93.7474L6.44974 161.42L5.90159 163.225L7.67161 163.877L10.4942 164.918L-1.93029 210.737L-3.09914 215.048L0.894934 213.049L54.9626 185.996L122.029 219.347Z" transform="translate(41.3394 32.9198)" stroke="black" stroke-width="4"/>
<path d="M74.5524 96.2707L117.213 60.8148L107.27 96.9859L78.1262 129.208L75.4759 212.646L67.0723 242.766L50.4994 182.174L52.0841 126.479L27.3829 98.7826L19.526 70.4391L43.0912 48.9536L8.47536 30.5745L0 0L65.1848 32.3945L74.5524 96.2707Z" transform="matrix(-0.989619 -0.000649352 0.0579689 -1.00923 711.997 259.784)" fill="black" fill-opacity="0.13"/>
<path d="M75.8308 97.8089L113.598 66.4198L105.468 95.9971L76.6429 127.867L76.1505 128.411L76.1272 129.145L73.4846 212.341L67.0915 235.255L52.507 181.933L54.0833 126.535L54.1059 125.741L53.5767 125.147L29.1858 97.7992L21.7816 71.0891L44.4387 50.4315L46.5368 48.5185L44.0291 47.1871L10.1729 29.2114L3.12502 3.78638L63.3578 33.7199L72.5736 96.5609L73.0906 100.086L75.8308 97.8089Z" transform="matrix(-0.989619 -0.000649352 0.0579689 -1.00923 718.253 255.436)" fill="white" stroke="black" stroke-width="4"/>
<path d="M75.8308 97.8089L113.598 66.4198L105.468 95.9971L76.6429 127.867L76.1505 128.411L76.1272 129.145L73.4846 212.341L67.0915 235.255L52.507 181.933L54.0833 126.535L54.1059 125.741L53.5767 125.147L29.1858 97.7992L21.7816 71.0891L44.4387 50.4315L46.5368 48.5185L44.0291 47.1871L10.1729 29.2114L3.12502 3.78638L63.3578 33.7199L72.5736 96.5609L73.0906 100.086L75.8308 97.8089Z" transform="matrix(-0.989619 -0.000649324 0.0579689 -1.00923 725.555 250.568)" fill="white" stroke="black" stroke-width="4"/>
<path d="M75.8308 97.8089L113.598 66.4198L105.468 95.9971L76.6429 127.867L76.1505 128.411L76.1272 129.145L73.4846 212.341L67.0915 235.255L52.507 181.933L54.0833 126.535L54.1059 125.741L53.5767 125.147L29.1858 97.7992L21.7816 71.0891L44.4387 50.4315L46.5368 48.5185L44.0291 47.1871L10.1729 29.2114L3.12502 3.78638L63.3578 33.7199L72.5736 96.5609L73.0906 100.086L75.8308 97.8089Z" transform="matrix(-0.989619 -0.000649352 0.0579689 -1.00923 733.133 246.083)" fill="white" stroke="black" stroke-width="4"/>
<path fill-rule="evenodd" clip-rule="evenodd" d="M127.083 0L90.6068 21.0744L72.1977 43.6124L51.742 44.8741L35.9246 52.6675L37.1569 71.443L16.642 65.2381L0 73.978L39.32 87.0405L68.9783 64.8967L71.3301 95.6193L71.6589 95.4622L99.553 82.1302L95.1179 118.876L125.331 146.174L125.397 146.234L125.344 128.043L109.467 112.889L124.852 104.646L124.85 104.93L125.265 87.4451L116.128 68.6349L126.512 40.429L127.083 0ZM115.561 19.0935L102.516 63.3636L82.4684 76.7319L83.7665 52.9733L115.561 19.0935Z" transform="translate(10 361.777) rotate(-0.484979)" fill="black" fill-opacity="0.13"/>
<path fill-rule="evenodd" clip-rule="evenodd" d="M127.083 0L90.6068 21.0744L72.1977 43.6124L51.742 44.8741L35.9246 52.6675L37.1569 71.443L16.642 65.2381L0 73.978L39.32 87.0405L68.9783 64.8967L71.3301 95.6193L71.6589 95.4622L99.553 82.1302L95.1179 118.876L125.331 146.174L125.397 146.234L125.344 128.043L109.467 112.889L124.85 104.93L125.265 87.4451L116.128 68.6349L126.512 40.429L127.083 0ZM115.561 19.0935L102.516 63.3636L82.4684 76.7319L83.7665 52.9733L115.561 19.0935Z" transform="translate(13.7793 353.56) rotate(-0.484979)" fill="white" stroke="black" stroke-width="3"/>
<path fill-rule="evenodd" clip-rule="evenodd" d="M127.083 0L90.6068 21.0744L72.1977 43.6124L51.742 44.8741L35.9246 52.6675L37.1569 71.443L16.642 65.2381L0 73.978L39.32 87.0405L68.9783 64.8967L71.3301 95.6193L71.6589 95.4622L99.553 82.1302L95.1179 118.876L125.331 146.174L125.397 146.234L125.344 128.043L109.467 112.889L124.85 104.93L125.265 87.4451L116.128 68.6349L126.512 40.429L127.083 0ZM115.561 19.0935L102.516 63.3636L82.4684 76.7319L83.7665 52.9733L115.561 19.0935Z" transform="translate(21.1245 348.629) rotate(-0.484979)" fill="white" stroke="black" stroke-width="4"/>
<path d="M0 0H190.071" transform="matrix(-0.499735 0.866179 -0.865872 -0.500266 154.196 334)" stroke="black" stroke-width="4" stroke-dasharray="4 2"/>
<path fill-rule="evenodd" clip-rule="evenodd" d="M112.309 63.0065L80.1934 44.8509L55.0203 40.9956L47.2888 26.2496L32.0481 17.6337L18.4546 26.937L15.4255 8.23676L0 0L7.6696 35.5264L37.555 48.055L15.4614 63.5315L38.1889 78.8353L8.53627 91.8711L1.4287 126.866L35.7356 139.065L61.7871 119.768L64.0134 146.576L88.4855 134.998L84.4581 167.196L110.8 191.247L110.858 191.3L110.859 191.196L110.883 175.351L97.0433 162.004L110.545 154.837L110.542 155.086L110.974 139.759L103.05 123.232L111.287 97.3036L111.302 97.2738L112.309 63.0065ZM16.3281 118.404L33.9034 125.382L32.2801 108.111L19.4348 100.04L16.3281 118.404ZM46.824 99.7928L55.7345 85.3379L79.3268 83.3383L64.6893 101.121L46.824 99.7928ZM92.797 62.8173L92.6059 63.1114L53.6434 72.7048L34.6475 63.5226L53.1208 53.9087L92.797 62.8173ZM102.748 79.7961L102.902 80.1113L91.1535 118.556L73.5503 130.197L74.7802 109.373L102.748 79.7961Z" transform="translate(335.004 323.865)" fill="black" fill-opacity="0.13"/>
<path fill-rule="evenodd" clip-rule="evenodd" d="M112.309 63.0065L80.1934 44.8509L55.0203 40.9956L47.2888 26.2496L32.0481 17.6337L18.4546 26.937L15.4255 8.23676L0 0L7.6696 35.5264L37.555 48.055L15.4614 63.5315L38.1889 78.8353L8.53627 91.8711L1.4287 126.866L35.7356 139.065L61.7871 119.768L64.0134 146.576L88.4855 134.998L84.4581 167.196L110.8 191.247L110.858 191.3L110.859 191.196L110.883 175.351L97.0433 162.004L110.545 154.837L110.542 155.086L110.974 139.759L103.05 123.232L111.287 97.3036L111.302 97.2738L112.309 63.0065ZM16.3281 118.404L33.9034 125.382L32.2801 108.111L19.4348 100.04L16.3281 118.404ZM46.824 99.7928L55.7345 85.3379L79.3268 83.3383L64.6893 101.121L46.824 99.7928ZM92.797 62.8173L92.6059 63.1114L53.6434 72.7048L34.6475 63.5226L53.1208 53.9087L92.797 62.8173ZM102.748 79.7961L102.902 80.1113L91.1535 118.556L73.5503 130.197L74.7802 109.373L102.748 79.7961Z" transform="translate(337.306 319.561)" fill="white" stroke="black" stroke-width="3"/>
<path fill-rule="evenodd" clip-rule="evenodd" d="M112.309 63.0065L80.1934 44.8509L55.0203 40.9956L47.2888 26.2496L32.0481 17.6337L18.4546 26.937L15.4255 8.23676L0 0L7.6696 35.5264L37.555 48.055L15.4614 63.5315L38.1889 78.8353L8.53627 91.8711L1.4287 126.866L35.7356 139.065L61.7871 119.768L64.0134 146.576L88.4855 134.998L84.4581 167.196L110.8 191.247L110.858 191.3L110.859 191.196L110.883 175.351L97.0433 162.004L110.545 154.837L110.542 155.086L110.974 139.759L103.05 123.232L111.287 97.3036L111.302 97.2738L112.309 63.0065ZM16.3281 118.404L33.9034 125.382L32.2801 108.111L19.4348 100.04L16.3281 118.404ZM46.824 99.7928L55.7345 85.3379L79.3268 83.3383L64.6893 101.121L46.824 99.7928ZM92.797 62.8173L92.6059 63.1114L53.6434 72.7048L34.6475 63.5226L53.1208 53.9087L92.797 62.8173ZM102.748 79.7961L102.902 80.1113L91.1535 118.556L73.5503 130.197L74.7802 109.373L102.748 79.7961Z" transform="translate(345.084 315.17)" fill="white" stroke="black" stroke-width="4"/>
<path d="M0 0L200.681 2.0398" transform="matrix(0.864119 -0.503287 0.502755 0.864429 302.028 468.297)" stroke="black" stroke-width="4" stroke-dasharray="4 2"/>
<path d="M1.97138 5.97707V0L0 4.06441L0.0593994 11.2369L1.97138 5.97707Z" transform="matrix(0.865872 0.500266 -0.499735 0.866179 70.4282 455.959)" fill="#99C6E8"/>
<path d="M1.97138 5.97707V0L0 4.06441L0.0593994 11.2369L1.97138 5.97707Z" transform="matrix(0.865872 0.500266 -0.499735 0.866179 64.8125 465.693)" fill="#99C6E8"/>
<path d="M2.86798 4.54257L7.88694 0L5.91555 4.06441L0 9.32423L2.86798 4.54257Z" transform="matrix(0.865872 0.500266 -0.499735 0.866179 65.3062 453)" fill="#B4DAF6"/>
<path d="M37.2837 13.9331V3.31402C34.9527 5.52336 27.2207 12.5459 20.7005 12.5459C11.9094 12.5459 8.77212 9.38183 5.97495 7.17248L5.91552 0L0 5.25982L5.91552 18.1703V11.5659C9.11228 15.5901 13.308 20.5611 22.8983 20.5611C30.8902 20.5611 34.9527 15.669 37.2837 13.9331Z" transform="matrix(0.865872 0.500266 -0.499735 0.866179 63.2749 456.521)" fill="white"/>
<path d="M0 8.3679C0 8.3679 0.477996 8.84606 1.19499 9.32423C1.91198 9.80239 5.97495 13.8668 14.5789 13.8668C20.9838 13.8668 28.8334 6.87643 31.3087 4.54257L29.1577 0C26.9762 2.0768 21.4111 7.55399 14.649 7.96094C7.88694 8.3679 1.91198 3.10808 1.91198 3.10808L0 8.3679Z" transform="matrix(0.865872 0.500266 -0.499735 0.866179 69.0459 458.474)" fill="#B4DAF6"/>
<path d="M1.97194 5.97537V0L0 4.06325L0.0594163 11.2337L1.97194 5.97537Z" transform="matrix(0.59089 0.806752 -0.806353 0.591434 329.347 435.774)" fill="#99C6E8"/>
<path d="M1.97194 5.97537V0L0 4.06325L0.0594163 11.2337L1.97194 5.97537Z" transform="matrix(0.59089 0.806752 -0.806353 0.591434 320.289 442.418)" fill="#99C6E8"/>
<path d="M2.86879 4.54128L7.88917 0L5.91723 4.06325L0 9.32158L2.86879 4.54128Z" transform="matrix(0.59089 0.806752 -0.806353 0.591434 325.851 431)" fill="#B4DAF6"/>
<path d="M37.2943 13.9291V3.31308C34.9626 5.5218 27.2284 12.5424 20.7064 12.5424C11.9128 12.5424 8.7746 9.37917 5.97665 7.17045L5.9172 0L0 5.25833L5.9172 18.1651V11.5626C9.11486 15.5857 13.3118 20.5553 22.9048 20.5553C30.8989 20.5553 34.9626 15.6646 37.2943 13.9291Z" transform="matrix(0.59089 0.806752 -0.806353 0.591434 322.575 433.403)" fill="white"/>
<path d="M0 8.36552C0 8.36552 0.478132 8.84355 1.19533 9.32158C1.91253 9.79961 5.97665 13.8629 14.583 13.8629C20.9897 13.8629 28.8416 6.87448 31.3176 4.54128L29.166 0C26.9838 2.07621 21.4171 7.55184 14.6532 7.95868C7.88917 8.36552 1.91253 3.10719 1.91253 3.10719L0 8.36552Z" transform="matrix(0.59089 0.806752 -0.806353 0.591434 327.07 437.518)" fill="#B4DAF6"/>
<path d="M0 0L188.918 3.50824" transform="matrix(0.867614 0.497238 -0.496708 0.867918 608.743 338.865)" stroke="black" stroke-width="4" stroke-dasharray="4 2"/>
<path d="M1.97218 5.97467V0L0 4.06277L0.0594233 11.2324L1.97218 5.97467Z" transform="matrix(-0.426725 0.904381 -0.904148 -0.42722 642.39 339.386)" fill="#99C6E8"/>
<path d="M1.97218 5.97467V0L0 4.06277L0.0594233 11.2324L1.97218 5.97467Z" transform="matrix(-0.426725 0.904381 -0.904148 -0.42722 632.234 334.587)" fill="#99C6E8"/>
<path d="M2.86913 4.54075L7.89011 0L5.91793 4.06277L0 9.32048L2.86913 4.54075Z" transform="matrix(-0.426725 0.904381 -0.904148 -0.42722 644.915 334.034)" fill="#B4DAF6"/>
<path d="M37.2987 13.9275V3.31269C34.9668 5.52114 27.2316 12.5409 20.7088 12.5409C11.9142 12.5409 8.77564 9.37806 5.97735 7.1696L5.9179 0L0 5.25771L5.9179 18.163V11.5613C9.11594 15.5838 13.3134 20.5529 22.9075 20.5529C30.9026 20.5529 34.9668 15.6627 37.2987 13.9275Z" transform="matrix(-0.426725 0.904381 -0.904148 -0.42722 641.242 332.298)" fill="white"/>
<path d="M0 8.36453C0 8.36453 0.478188 8.84251 1.19547 9.32048C1.91275 9.79845 5.97735 13.8612 14.5847 13.8612C20.9922 13.8612 28.845 6.87367 31.3213 4.54075L29.1695 0C26.987 2.07596 21.4197 7.55095 14.6549 7.95774C7.89011 8.36453 1.91275 3.10683 1.91275 3.10683L0 8.36453Z" transform="matrix(-0.426725 0.904381 -0.904148 -0.42722 639.771 338.214)" fill="#B4DAF6"/>
<path d="M2.30545 2.13491C1.73195 2.13491 1.08964 2.37021 0.378506 2.84081C0.126169 2.25543 0 1.62414 0 0.946935C0 0.694419 0.0344097 0.464859 0.103229 0.258256C0.791422 0.0860854 1.39359 0 1.90973 0C2.42588 0 3.09113 0.0401731 3.90549 0.120519C4.73132 0.189387 5.37937 0.223821 5.84964 0.223821C6.33137 0.223821 6.85325 0.177909 7.41528 0.0860847L7.67335 0.68868C6.4346 2.53664 5.45966 4.44199 4.74853 6.40472C4.04887 8.35598 3.61875 10.1867 3.45817 11.8969C3.35494 11.9773 3.04525 12.0576 2.52911 12.138C2.02443 12.2069 1.57137 12.2413 1.16993 12.2413H0.808626C0.923325 11.2771 1.14125 10.313 1.46241 9.34883C2.00149 7.68452 3.19436 5.33153 5.04101 2.28986C4.15783 2.18656 3.24598 2.13491 2.30545 2.13491Z" transform="translate(96.5723 271.042)" fill="white"/>
<path d="M8.55026 12.379C8.14881 12.379 7.83912 12.2585 7.6212 12.0175C7.40327 11.7764 7.2943 11.455 7.2943 11.0533C7.2943 10.6516 7.44341 10.3072 7.74163 10.0203C8.03985 9.72187 8.38968 9.57265 8.79112 9.57265C9.20404 9.57265 9.51946 9.69317 9.73739 9.93421C9.95532 10.1638 10.0643 10.4794 10.0643 10.8811C10.0643 11.2714 9.90944 11.6215 9.59975 11.9314C9.30153 12.2298 8.9517 12.379 8.55026 12.379Z" transform="translate(96.5723 271.042)" fill="white"/>
<path d="M7.10559 8.86675C7.10559 9.92273 6.68694 10.7778 5.84964 11.4321C5.01234 12.0863 4.10048 12.4135 3.11407 12.4135C2.13913 12.4135 1.37639 12.1724 0.825831 11.6903C0.275277 11.2083 0 10.5827 0 9.81369C0 8.51668 0.91759 7.24836 2.75277 6.00873C1.85812 4.61989 1.4108 3.52375 1.4108 2.72029C1.4108 1.90535 1.77783 1.2511 2.5119 0.757548C3.25745 0.252516 4.10048 0 5.04101 0C5.99301 0 6.70988 0.206604 7.19161 0.619811C7.67335 1.03302 7.91422 1.53805 7.91422 2.13491C7.91422 3.13349 7.16867 4.29277 5.67759 5.61274C5.75788 5.75048 5.90699 5.98004 6.12491 6.30142C6.34284 6.62281 6.50916 6.8868 6.62385 7.0934C6.94501 7.64435 7.10559 8.23546 7.10559 8.86675ZM1.49682 9.72761C1.49682 10.1982 1.64593 10.5712 1.94414 10.8467C2.24236 11.1222 2.6266 11.2599 3.09687 11.2599C3.5786 11.2599 3.99725 11.1451 4.35282 10.9156C4.70839 10.6745 4.88617 10.3589 4.88617 9.96864C4.88617 9.521 4.63957 8.90693 4.14636 8.12642C3.97431 7.86243 3.72198 7.47792 3.38935 6.97289C2.12766 7.83374 1.49682 8.75198 1.49682 9.72761ZM6.46901 2.15213C6.46901 1.4864 6.08477 1.15354 5.31629 1.15354C4.90337 1.15354 4.54781 1.24536 4.24959 1.42901C3.96284 1.60118 3.81947 1.84796 3.81947 2.16934C3.81947 2.47925 3.96858 2.90393 4.26679 3.4434C4.57648 3.98287 4.83455 4.3846 5.04101 4.64859C5.38511 4.37312 5.70626 3.98287 6.00448 3.47783C6.31417 2.96132 6.46901 2.51942 6.46901 2.15213Z" transform="translate(387.122 270.99)" fill="white"/>
<path d="M9.90997 12.4307C9.50853 12.4307 9.19884 12.3102 8.98091 12.0691C8.76299 11.8281 8.65402 11.5067 8.65402 11.105C8.65402 10.7032 8.80313 10.3589 9.10135 10.0719C9.39956 9.77352 9.7494 9.6243 10.1508 9.6243C10.5638 9.6243 10.8792 9.74482 11.0971 9.98586C11.315 10.2154 11.424 10.5311 11.424 10.9328C11.424 11.323 11.2692 11.6731 10.9595 11.983C10.6613 12.2815 10.3114 12.4307 9.90997 12.4307Z" transform="translate(387.122 270.99)" fill="white"/>
<path d="M0.739807 9.91699C1.38212 10.686 2.07031 11.0705 2.80438 11.0705C4.31841 11.0705 5.27614 9.71613 5.67759 7.00732C5.06969 7.3287 4.39296 7.4894 3.64742 7.4894C2.68395 7.4894 1.92694 7.19671 1.37639 6.61133C0.837301 6.01447 0.567759 5.24545 0.567759 4.30425C0.567759 3.08758 0.992144 2.06604 1.84092 1.23962C2.68969 0.413208 3.71624 0 4.92058 0C6.13638 0 7.04824 0.378774 7.65614 1.13632C8.26405 1.88239 8.568 3.00724 8.568 4.51085C8.568 6.00299 8.37301 7.3287 7.98304 8.48798C7.59306 9.63578 6.99089 10.5827 6.17653 11.3288C5.36217 12.0634 4.41017 12.4307 3.32053 12.4307C2.47176 12.4307 1.7721 12.2355 1.22154 11.8453C0.670988 11.4436 0.263807 11.0017 0 10.5196L0.739807 9.91699ZM4.47325 6.2842C4.94352 6.2842 5.38511 6.15795 5.79802 5.90543C5.85537 5.25119 5.88405 4.52233 5.88405 3.71887C5.88405 2.90393 5.80949 2.26117 5.66039 1.79057C5.52275 1.31997 5.21306 1.08467 4.73132 1.08467C4.26106 1.08467 3.89402 1.40605 3.63022 2.04882C3.37788 2.68011 3.25171 3.42044 3.25171 4.26982C3.25171 5.61274 3.65889 6.2842 4.47325 6.2842Z" transform="translate(676.217 270.99)" fill="white"/>
<path d="M10.6553 12.4307C10.2538 12.4307 9.94416 12.3102 9.72623 12.0691C9.5083 11.8281 9.39934 11.5067 9.39934 11.105C9.39934 10.7032 9.54845 10.3589 9.84667 10.0719C10.1449 9.77352 10.4947 9.6243 10.8962 9.6243C11.3091 9.6243 11.6245 9.74482 11.8424 9.98586C12.0604 10.2154 12.1693 10.5311 12.1693 10.9328C12.1693 11.323 12.0145 11.6731 11.7048 11.983C11.4066 12.2815 11.0567 12.4307 10.6553 12.4307Z" transform="translate(676.217 270.99)" fill="white"/>
<path d="M1.16993 12.2757H0.99788C1.02082 11.4378 1.34771 9.64726 1.97855 6.90402C2.6094 4.1493 2.92482 2.5022 2.92482 1.96274C2.92482 1.69874 2.91908 1.53805 2.90761 1.48066C2.27677 1.825 1.58858 2.37021 0.843036 3.11628C0.705397 3.04741 0.562024 2.92689 0.412916 2.75472C0.275277 2.57107 0.172048 2.41038 0.103229 2.27264L0 2.06604L2.8732 0.22382C3.72198 0.0746068 4.59369 0 5.48834 0C5.62598 0.22956 5.69479 0.596856 5.69479 1.10189C5.69479 1.59544 5.55142 2.46777 5.26467 3.71887C4.97793 4.9585 4.67971 6.34733 4.37002 7.88539C4.06034 9.41196 3.88829 10.7606 3.85388 11.9314C3.44096 12.1609 2.54631 12.2757 1.16993 12.2757Z" transform="translate(97 541)" fill="white"/>
<path d="M15.5884 4.44199C15.5884 6.37029 15.1582 8.1379 14.298 9.74482C13.8736 10.5483 13.2944 11.1968 12.5603 11.6903C11.8377 12.1839 11.0176 12.4307 10.1 12.4307C8.98746 12.4307 8.15015 12.0232 7.58813 11.2083C7.02611 10.3819 6.74509 9.29144 6.74509 7.93704C6.74509 5.59552 7.2555 3.69018 8.27632 2.22099C9.29714 0.740331 10.6104 0 12.2162 0C13.3632 0 14.212 0.418947 14.7625 1.25684C15.3131 2.08326 15.5884 3.14497 15.5884 4.44199ZM10.2549 11.2771C10.771 11.2771 11.2183 10.9443 11.5969 10.2785C11.9868 9.60135 12.2678 8.78067 12.4399 7.81652C12.7725 5.93413 12.9388 4.52233 12.9388 3.58114C12.9388 2.62846 12.8585 1.99143 12.698 1.67005C12.5489 1.33719 12.2736 1.17076 11.8721 1.17076C11.4822 1.17076 11.1151 1.44049 10.771 1.97995C10.4384 2.51942 10.1746 3.21384 9.9796 4.06321C9.58962 5.739 9.39464 7.43774 9.39464 9.15944C9.39464 9.98586 9.46919 10.5483 9.6183 10.8467C9.76741 11.1337 9.9796 11.2771 10.2549 11.2771Z" transform="translate(97 541)" fill="white"/>
<path d="M17.6755 12.4307C17.2741 12.4307 16.9644 12.3102 16.7465 12.0691C16.5285 11.8281 16.4196 11.5067 16.4196 11.105C16.4196 10.7032 16.5687 10.3589 16.8669 10.0719C17.1651 9.77352 17.515 9.6243 17.9164 9.6243C18.3293 9.6243 18.6447 9.74482 18.8627 9.98586C19.0806 10.2154 19.1896 10.5311 19.1896 10.9328C19.1896 11.323 19.0347 11.6731 18.725 11.983C18.4268 12.2815 18.077 12.4307 17.6755 12.4307Z" transform="translate(97 541)" fill="white"/>
<path d="M1.16993 12.2757H0.997879C1.02082 11.4378 1.34771 9.64726 1.97855 6.90402C2.6094 4.1493 2.92482 2.5022 2.92482 1.96274C2.92482 1.69874 2.91908 1.53805 2.90761 1.48066C2.27677 1.825 1.58858 2.37021 0.843036 3.11628C0.705397 3.04741 0.562024 2.92689 0.412916 2.75472C0.275277 2.57107 0.172048 2.41038 0.103229 2.27264L0 2.06604L2.8732 0.22382C3.72198 0.0746068 4.59369 0 5.48834 0C5.62597 0.22956 5.69479 0.596856 5.69479 1.10189C5.69479 1.59544 5.55142 2.46777 5.26467 3.71887C4.97793 4.9585 4.67971 6.34733 4.37002 7.88539C4.06034 9.41196 3.88829 10.7606 3.85388 11.9314C3.44096 12.1609 2.54631 12.2757 1.16993 12.2757Z" transform="translate(387 541)" fill="white"/>
<path d="M7.58813 12.2757H7.41608C7.43902 11.4378 7.76591 9.64726 8.39676 6.90402C9.0276 4.1493 9.34302 2.5022 9.34302 1.96274C9.34302 1.69874 9.33729 1.53805 9.32582 1.48066C8.69497 1.825 8.00678 2.37021 7.26124 3.11628C7.1236 3.04741 6.98023 2.92689 6.83112 2.75472C6.69348 2.57107 6.59025 2.41038 6.52143 2.27264L6.4182 2.06604L9.29141 0.22382C10.1402 0.0746068 11.0119 0 11.9065 0C12.0442 0.22956 12.113 0.596856 12.113 1.10189C12.113 1.59544 11.9696 2.46777 11.6829 3.71887C11.3961 4.9585 11.0979 6.34733 10.7882 7.88539C10.4785 9.41196 10.3065 10.7606 10.2721 11.9314C9.85917 12.1609 8.96452 12.2757 7.58813 12.2757Z" transform="translate(387 541)" fill="white"/>
<path d="M14.2816 12.4307C13.8802 12.4307 13.5705 12.3102 13.3525 12.0691C13.1346 11.8281 13.0257 11.5067 13.0257 11.105C13.0257 10.7032 13.1748 10.3589 13.473 10.0719C13.7712 9.77352 14.121 9.6243 14.5225 9.6243C14.9354 9.6243 15.2508 9.74482 15.4687 9.98586C15.6867 10.2154 15.7956 10.5311 15.7956 10.9328C15.7956 11.323 15.6408 11.6731 15.3311 11.983C15.0329 12.2815 14.6831 12.4307 14.2816 12.4307Z" transform="translate(387 541)" fill="white"/>
<path d="M1.16993 12.2757H0.997879C1.02082 11.4378 1.34771 9.64726 1.97855 6.90402C2.6094 4.1493 2.92482 2.5022 2.92482 1.96274C2.92482 1.69874 2.91908 1.53805 2.90761 1.48066C2.27677 1.825 1.58858 2.37021 0.843036 3.11628C0.705397 3.04741 0.562024 2.92689 0.412916 2.75472C0.275277 2.57107 0.172048 2.41038 0.103229 2.27264L0 2.06604L2.8732 0.22382C3.72198 0.0746068 4.59369 0 5.48834 0C5.62597 0.22956 5.69479 0.596856 5.69479 1.10189C5.69479 1.59544 5.55142 2.46777 5.26467 3.71887C4.97793 4.9585 4.67971 6.34733 4.37002 7.88539C4.06034 9.41196 3.88829 10.7606 3.85388 11.9314C3.44096 12.1609 2.54631 12.2757 1.16993 12.2757Z" transform="translate(692.855 541)" fill="white"/>
<path d="M12.2678 12.534C11.8664 12.534 11.2642 12.3044 10.4613 11.8453C9.65844 11.3747 8.99319 11.0648 8.46558 10.9156C8.0756 11.3288 7.69709 11.6674 7.33006 11.9314C6.97449 12.1839 6.73362 12.3102 6.60746 12.3102C6.48129 12.3102 6.25189 12.1093 5.91926 11.7076C5.59811 11.2944 5.43753 10.9844 5.43753 10.7778C5.43753 10.5598 5.62678 10.2556 6.00529 9.86534C6.39526 9.46361 6.84259 9.26275 7.34726 9.26275C7.65695 9.26275 7.9609 9.29718 8.25912 9.36605C9.06201 8.72328 9.82476 7.79356 10.5474 6.57689C11.27 5.34875 11.6313 4.27556 11.6313 3.35732C11.6313 2.84081 11.4764 2.43907 11.1667 2.15213C10.857 1.8537 10.4785 1.70448 10.0312 1.70448C9.59536 1.70448 9.16524 1.84796 8.74085 2.13491C8.32794 2.42186 7.97237 2.81785 7.67415 3.32288L6.88273 2.97854C7.11213 2.25543 7.62827 1.57822 8.43117 0.946935C9.24553 0.315645 10.1459 0 11.1323 0C12.1302 0 12.9044 0.269733 13.455 0.809199C14.017 1.34866 14.298 2.02587 14.298 2.8408C14.298 3.42618 14.126 4.06895 13.7819 4.76911C13.4492 5.45779 13.0191 6.11777 12.4915 6.74906C11.5051 7.90834 10.5187 8.88397 9.53227 9.67595C10.966 10.0662 12.0729 10.2613 12.8528 10.2613C13.0707 10.2613 13.2313 10.2039 13.3345 10.0892C13.4378 9.9629 13.5983 9.68169 13.8163 9.24553L14.384 9.36605C14.2693 11.478 13.5639 12.534 12.2678 12.534Z" transform="translate(692.855 541)" fill="white"/>
<path d="M16.3818 12.4307C15.9804 12.4307 15.6707 12.3102 15.4527 12.0691C15.2348 11.8281 15.1259 11.5067 15.1259 11.105C15.1259 10.7032 15.275 10.3589 15.5732 10.0719C15.8714 9.77352 16.2212 9.6243 16.6227 9.6243C17.0356 9.6243 17.351 9.74482 17.5689 9.98586C17.7869 10.2154 17.8958 10.5311 17.8958 10.9328C17.8958 11.323 17.741 11.6731 17.4313 11.983C17.1331 12.2815 16.7833 12.4307 16.3818 12.4307Z" transform="translate(692.855 541)" fill="white"/>
<path d="M55.1089 12.6712L0 0L18.4435 54.2721" transform="translate(415.444 133.77) scale(1.02706 0.972183) rotate(-45)" stroke="black" stroke-width="4" stroke-dasharray="4 2"/>
<path d="M18.0387 15.6485L38.8998 15.8072L37.7016 14.6018C37.6123 14.5125 28.8065 5.89366 17.0231 14.1565L13.2846 8.66305C13.7591 8.26838 14.1682 7.78037 14.4761 7.20169C15.7489 4.81498 14.8466 1.85092 12.4622 0.577558C10.0765 -0.695801 7.11234 0.206883 5.84218 2.59227C4.56934 4.97765 5.47032 7.94304 7.85605 9.2164C9.21951 9.94441 10.7709 9.95775 12.0904 9.3924L15.3824 14.2298L9.75131 14.1872C9.56604 12.6538 8.66373 11.2324 7.19764 10.4498C4.81192 9.17773 1.84908 10.0791 0.577581 12.4658C-0.695251 14.8512 0.205728 17.8166 2.59146 19.0886C4.97585 20.3606 7.94135 19.4593 9.21285 17.0739C9.47008 16.5939 9.63268 16.0912 9.71798 15.5845L16.2541 15.6339C16.0955 19.1299 16.7259 21.9167 17.7602 24.1487L17.2549 24.4921L17.5907 25.5881L19.5741 25.5474V24.8487H19.6621C19.6314 24.798 19.6048 24.742 19.5741 24.69V24.1487H19.2769C18.3772 22.3967 17.7482 20.2326 17.6402 17.5459L22.1344 24.1487V25.5474H23.8244V24.1487L18.0387 15.6472V15.6485ZM33.8685 13.5752C34.3763 13.8472 34.8214 14.1218 35.2 14.3818L19.4395 14.2605C25.753 10.5831 30.883 11.9831 33.8685 13.5752ZM8.51313 7.98304C6.81379 7.07502 6.16738 4.95231 7.07369 3.25228C7.98 1.55224 10.1018 0.904231 11.8038 1.81225C13.5032 2.71893 14.1496 4.84164 13.2419 6.54301C12.3356 8.24438 10.2138 8.88973 8.51313 7.98171V7.98304ZM7.97867 16.4165C7.07236 18.1166 4.95053 18.7619 3.24853 17.8552C1.54653 16.9486 0.902787 14.8258 1.8091 13.1245C2.71674 11.4231 4.83724 10.7764 6.53924 11.6844C8.23857 12.5911 8.88498 14.7138 7.97867 16.4165Z" transform="matrix(-0.868536 0.495587 0.494957 0.86894 454.208 81.7092)" fill="black"/>
<path d="M140.745 50.3293L76.8026 86.0155L74.8682 46.5766L0 0" transform="matrix(-0.994601 0.103776 -0.114806 -0.993388 459.651 192.595)" stroke="black" stroke-width="4" stroke-dasharray="4 2"/>
<path d="M17.4526 15.413L37.636 15.5693L36.4767 14.3821C36.3903 14.2941 27.8705 5.80495 16.47 13.9434L12.853 8.53266C13.312 8.14392 13.7079 7.66326 14.0058 7.09329C15.2373 4.7425 14.3643 1.82306 12.0573 0.568865C9.74912 -0.685328 6.88126 0.203769 5.65236 2.55325C4.42089 4.90272 5.29259 7.82348 7.60081 9.07767C8.91997 9.79473 10.421 9.80786 11.6976 9.25103L14.8826 14.0156L9.43448 13.9736C9.25524 12.4633 8.38225 11.0634 6.96379 10.2925C4.65558 9.03959 1.789 9.92737 0.558816 12.2782C-0.672662 14.6276 0.199044 17.5484 2.50726 18.8013C4.81418 20.0542 7.68334 19.1664 8.91352 16.8169C9.1624 16.3441 9.31972 15.849 9.40225 15.3499L15.726 15.3985C15.5725 18.842 16.1825 21.5868 17.1831 23.7852L16.6943 24.1234L17.0192 25.203L18.9381 25.1629V24.4747H19.0232C18.9936 24.4248 18.9678 24.3696 18.9381 24.3184V23.7852H18.6506C17.7802 22.0595 17.1715 19.9281 17.0671 17.2818L21.4153 23.7852V25.1629H23.0504V23.7852L17.4526 15.4117V15.413ZM32.7681 13.3708C33.2594 13.6387 33.6901 13.9093 34.0563 14.1654L18.8079 14.0458C24.9163 10.4238 29.8796 11.8028 32.7681 13.3708ZM8.23653 7.86288C6.59241 6.96853 5.967 4.87777 6.84387 3.20332C7.72073 1.52888 9.77362 0.89062 11.4203 1.78497C13.0644 2.67801 13.6899 4.76877 12.8117 6.44453C11.9348 8.12028 9.88194 8.75592 8.23653 7.86157V7.86288ZM7.71944 16.1694C6.84258 17.8439 4.78968 18.4795 3.14299 17.5865C1.49629 16.6934 0.873455 14.6027 1.75032 12.9269C2.62847 11.2512 4.68008 10.6142 6.32677 11.5086C7.97089 12.4016 8.5963 14.4924 7.71944 16.1694Z" transform="matrix(0.801097 -0.595662 0.63983 0.770675 289.969 143.236)" fill="black"/>
<path d="M63.0486 66.9519L94.0811 45.1233L87.7169 64.7178L63.542 87.3392L62.8883 87.951L62.9091 88.846L63.9745 134.773L56.9052 161.184L43.614 126.14L41.4209 88.699L41.3791 87.9856L40.8946 87.4602L26.3375 71.6738L17.9743 47.7903L36.3354 37.0068L39.5793 35.1017L36.1857 33.4781L8.77425 20.3637L3.34521 3.78794L50.1584 25.8549L59.9556 65.7925L60.6533 68.6368L63.0486 66.9519Z" transform="matrix(-0.989619 -0.000649352 0.0579689 -1.00923 435.321 170.118)" fill="white" stroke="black" stroke-width="4"/>
<path d="M62.6782 53.4732L4.48337 25.0099L48.0669 2.87812L62.6782 53.4732Z" transform="translate(371.195 190.506)" fill="white" stroke="black" stroke-width="4"/>
<path d="M23.1787 0L0 13.6301L30.3474 26.0646L23.1787 0Z" transform="translate(439.693 119.423)" fill="white"/>
<path d="M23.1787 0L24.625 -0.397781C24.5012 -0.847772 24.1751 -1.21452 23.7426 -1.38997C23.3102 -1.56542 22.8207 -1.52958 22.4184 -1.29301L23.1787 0ZM0 13.6301L-0.760347 12.3371C-1.2517 12.6261 -1.53682 13.1685 -1.49618 13.7371C-1.45554 14.3056 -1.09617 14.802 -0.56872 15.0181L0 13.6301ZM30.3474 26.0646L29.7787 27.4526C30.3078 27.6695 30.9143 27.5665 31.3423 27.1872C31.7703 26.8079 31.9453 26.2183 31.7937 25.6668L30.3474 26.0646ZM22.4184 -1.29301L-0.760347 12.3371L0.760347 14.9231L23.9391 1.29301L22.4184 -1.29301ZM-0.56872 15.0181L29.7787 27.4526L30.9161 24.6766L0.56872 12.2421L-0.56872 15.0181ZM31.7937 25.6668L24.625 -0.397781L21.7324 0.397781L28.9011 26.4624L31.7937 25.6668Z" transform="translate(439.693 119.423)" fill="black"/>
<mask id="path-58-inside-1" fill="white">
<path fill-rule="evenodd" clip-rule="evenodd" d="M107.948 64.897L61.6504 41.8469L53.5259 0L28.519 17.3872L0 119.933L107.948 64.897Z"/>
</mask>
<path fill-rule="evenodd" clip-rule="evenodd" d="M107.948 64.897L61.6504 41.8469L53.5259 0L28.519 17.3872L0 119.933L107.948 64.897Z" transform="translate(315.048 127.075)" fill="white"/>
<path d="M107.948 64.897L109.765 68.4605L116.838 64.8545L109.731 61.3162L107.948 64.897ZM61.6504 41.8469L57.7237 42.6092L58.1 44.5476L59.8677 45.4276L61.6504 41.8469ZM53.5259 0L57.4526 -0.762359L56.2826 -6.78859L51.2424 -3.28417L53.5259 0ZM28.519 17.3872L26.2356 14.103L25.0517 14.9262L24.6653 16.3154L28.519 17.3872ZM0 119.933L-3.85374 118.862L-6.29274 127.632L1.81686 123.497L0 119.933ZM109.731 61.3162L63.4331 38.2661L59.8677 45.4276L106.166 68.4777L109.731 61.3162ZM65.5771 41.0845L57.4526 -0.762359L49.5992 0.762359L57.7237 42.6092L65.5771 41.0845ZM51.2424 -3.28417L26.2356 14.103L30.8025 20.6714L55.8094 3.28417L51.2424 -3.28417ZM24.6653 16.3154L-3.85374 118.862L3.85374 121.005L32.3728 18.459L24.6653 16.3154ZM1.81686 123.497L109.765 68.4605L106.131 61.3334L-1.81686 116.37L1.81686 123.497Z" transform="translate(315.048 127.075)" fill="black" mask="url(#path-58-inside-1)"/>
<path d="M55.6747 0.121081L55.6394 0L55.5686 0.286995L55.6747 0.121081Z" transform="translate(326.518 30.4681)" fill="black" fill-opacity="0.13"/>
<path d="M4.31464 208.034L96.9942 160.971L0 225.523L4.31464 208.034Z" transform="translate(326.518 30.4681)" fill="black" fill-opacity="0.13"/>
</svg>
