<svg width="560" height="350" viewBox="0 0 560 350" fill="none" xmlns="http://www.w3.org/2000/svg">
<rect width="560" height="350" fill="#EFEFEF"/>
<mask id="mask0" mask-type="alpha" maskUnits="userSpaceOnUse" x="0" y="0" width="560" height="350">
<rect width="560" height="350" fill="#EFEFEF"/>
</mask>
<g mask="url(#mask0)">
<path d="M56.5195 324.705C56.5195 325.077 56.4336 325.421 56.2617 325.736C56.1042 326.037 55.8607 326.316 55.5312 326.574C55.1302 326.889 54.5931 327.14 53.9199 327.326C53.2611 327.512 52.4876 327.605 51.5996 327.605C50.9408 327.605 50.2891 327.541 49.6445 327.412C49 327.269 48.4271 327.04 47.9258 326.725C47.4102 326.424 46.9805 326.03 46.6367 325.543C46.3073 325.042 46.1211 324.433 46.0781 323.717H41.0938C41.0938 324.676 41.3229 325.622 41.7812 326.553C42.2396 327.484 42.9128 328.307 43.8008 329.023C44.6745 329.754 45.7559 330.341 47.0449 330.785C48.3483 331.229 49.8379 331.451 51.5137 331.451C53.0176 331.451 54.3854 331.279 55.6172 330.936C56.849 330.592 57.9089 330.112 58.7969 329.496C59.6706 328.88 60.3438 328.143 60.8164 327.283C61.3034 326.424 61.5469 325.479 61.5469 324.447C61.5469 323.387 61.3177 322.471 60.8594 321.697C60.401 320.924 59.7565 320.251 58.9258 319.678C58.0951 319.133 57.0924 318.675 55.918 318.303C54.7435 317.93 53.4473 317.615 52.0293 317.357C51.0124 317.186 50.1673 316.992 49.4941 316.777C48.8353 316.562 48.3197 316.326 47.9473 316.068C47.5462 315.825 47.2669 315.546 47.1094 315.23C46.9518 314.901 46.873 314.536 46.873 314.135C46.873 313.748 46.9661 313.383 47.1523 313.039C47.3385 312.681 47.6178 312.373 47.9902 312.115C48.3626 311.829 48.8353 311.607 49.4082 311.449C49.9954 311.277 50.6758 311.191 51.4492 311.191C52.2943 311.191 53.0319 311.306 53.6621 311.535C54.2923 311.75 54.8079 312.044 55.209 312.416C55.5527 312.731 55.8105 313.089 55.9824 313.49C56.1686 313.877 56.2617 314.285 56.2617 314.715H61.3965C61.3965 313.669 61.1673 312.695 60.709 311.793C60.2507 310.891 59.599 310.11 58.7539 309.451C57.8945 308.792 56.849 308.277 55.6172 307.904C54.3854 307.518 52.9961 307.324 51.4492 307.324C50.0026 307.324 48.6849 307.51 47.4961 307.883C46.3216 308.255 45.319 308.764 44.4883 309.408C43.6432 310.053 42.9915 310.805 42.5332 311.664C42.0892 312.509 41.8672 313.404 41.8672 314.35C41.8672 315.338 42.0892 316.204 42.5332 316.949C42.9772 317.68 43.5931 318.324 44.3809 318.883C45.1829 319.456 46.1354 319.943 47.2383 320.344C48.3555 320.745 49.5872 321.081 50.9336 321.354C52.0078 321.554 52.903 321.769 53.6191 321.998C54.3353 322.227 54.9154 322.471 55.3594 322.729C55.7747 323.015 56.0684 323.316 56.2402 323.631C56.4264 323.946 56.5195 324.304 56.5195 324.705ZM78.315 327.305C77.2408 327.305 76.3456 327.09 75.6295 326.66C74.9133 326.23 74.3476 325.665 73.9322 324.963C73.5025 324.261 73.1946 323.459 73.0084 322.557C72.8365 321.64 72.7505 320.709 72.7505 319.764V319.012C72.7505 318.081 72.8365 317.164 73.0084 316.262C73.1946 315.359 73.5025 314.557 73.9322 313.855C74.3619 313.154 74.9276 312.588 75.6295 312.158C76.3456 311.714 77.2408 311.492 78.315 311.492C79.0168 311.492 79.6685 311.614 80.2701 311.857C80.886 312.101 81.4159 312.43 81.8599 312.846C82.2896 313.261 82.619 313.748 82.8482 314.307C83.0917 314.865 83.2134 315.46 83.2134 316.09H88.0474C88.0617 314.801 87.8254 313.619 87.3384 312.545C86.8658 311.471 86.1998 310.547 85.3404 309.773C84.481 309 83.4498 308.398 82.2466 307.969C81.0578 307.539 79.7616 307.324 78.358 307.324C76.5819 307.324 75.0207 307.639 73.6744 308.27C72.3423 308.885 71.2252 309.723 70.3228 310.783C69.4205 311.843 68.7401 313.082 68.2818 314.5C67.8378 315.918 67.6158 317.422 67.6158 319.012V319.764C67.6158 321.368 67.8449 322.879 68.3033 324.297C68.7616 325.701 69.4348 326.932 70.3228 327.992C71.2252 329.052 72.3423 329.897 73.6744 330.527C75.0207 331.143 76.5891 331.451 78.3795 331.451C79.6685 331.451 80.8931 331.243 82.0533 330.828C83.2278 330.398 84.2662 329.818 85.1685 329.088C86.0565 328.357 86.7584 327.498 87.274 326.51C87.8039 325.507 88.0617 324.44 88.0474 323.309H83.2134C83.2134 323.896 83.0774 324.433 82.8052 324.92C82.5474 325.407 82.1965 325.829 81.7525 326.188C81.2942 326.546 80.7642 326.825 80.1627 327.025C79.5754 327.212 78.9595 327.305 78.315 327.305ZM111.132 307.324C109.528 307.324 108.06 307.697 106.728 308.441C105.41 309.186 104.278 310.21 103.333 311.514L103.312 310.977L103.097 307.754H98.2843V331H103.419V316.648C103.691 315.961 104.028 315.352 104.429 314.822C104.83 314.292 105.317 313.855 105.89 313.512C106.42 313.154 107.028 312.889 107.716 312.717C108.403 312.545 109.177 312.459 110.036 312.459C110.795 312.459 111.554 312.502 112.314 312.588C113.087 312.674 113.868 312.803 114.655 312.975L115.386 307.904C114.942 307.747 114.326 307.611 113.538 307.496C112.765 307.382 111.963 307.324 111.132 307.324ZM120.982 319.162V319.613C120.982 321.318 121.226 322.886 121.713 324.318C122.2 325.751 122.909 326.997 123.84 328.057C124.756 329.117 125.888 329.947 127.234 330.549C128.58 331.15 130.106 331.451 131.81 331.451C133.5 331.451 135.011 331.15 136.343 330.549C137.69 329.947 138.821 329.117 139.738 328.057C140.655 326.997 141.356 325.751 141.843 324.318C142.33 322.886 142.574 321.318 142.574 319.613V319.162C142.574 317.472 142.33 315.911 141.843 314.479C141.356 313.032 140.655 311.779 139.738 310.719C138.807 309.659 137.668 308.828 136.322 308.227C134.99 307.625 133.472 307.324 131.767 307.324C130.063 307.324 128.545 307.625 127.213 308.227C125.881 308.828 124.756 309.659 123.84 310.719C122.909 311.779 122.2 313.032 121.713 314.479C121.226 315.911 120.982 317.472 120.982 319.162ZM126.117 319.613V319.162C126.117 318.145 126.224 317.171 126.439 316.24C126.668 315.309 127.012 314.493 127.47 313.791C127.943 313.089 128.53 312.531 129.232 312.115C129.948 311.7 130.793 311.492 131.767 311.492C132.756 311.492 133.601 311.7 134.302 312.115C135.019 312.531 135.606 313.089 136.064 313.791C136.522 314.493 136.866 315.309 137.095 316.24C137.325 317.171 137.439 318.145 137.439 319.162V319.613C137.439 320.659 137.325 321.647 137.095 322.578C136.881 323.509 136.544 324.326 136.086 325.027C135.627 325.729 135.04 326.288 134.324 326.703C133.608 327.104 132.77 327.305 131.81 327.305C130.822 327.305 129.97 327.104 129.254 326.703C128.537 326.288 127.943 325.729 127.47 325.027C127.012 324.326 126.668 323.509 126.439 322.578C126.224 321.647 126.117 320.659 126.117 319.613ZM149.781 298V302.275H157.129V326.746H149.781V331H169.354V326.746H162.307V298H149.781ZM176.647 298V302.275H183.995V326.746H176.647V331H196.22V326.746H189.173V298H176.647ZM221.968 319.334V315.166H204.673V319.334H221.968ZM244.58 324.705C244.58 325.077 244.494 325.421 244.322 325.736C244.165 326.037 243.921 326.316 243.592 326.574C243.191 326.889 242.654 327.14 241.98 327.326C241.322 327.512 240.548 327.605 239.66 327.605C239.001 327.605 238.35 327.541 237.705 327.412C237.06 327.269 236.488 327.04 235.986 326.725C235.471 326.424 235.041 326.03 234.697 325.543C234.368 325.042 234.182 324.433 234.139 323.717H229.154C229.154 324.676 229.383 325.622 229.842 326.553C230.3 327.484 230.973 328.307 231.861 329.023C232.735 329.754 233.816 330.341 235.105 330.785C236.409 331.229 237.898 331.451 239.574 331.451C241.078 331.451 242.446 331.279 243.678 330.936C244.909 330.592 245.969 330.112 246.857 329.496C247.731 328.88 248.404 328.143 248.877 327.283C249.364 326.424 249.607 325.479 249.607 324.447C249.607 323.387 249.378 322.471 248.92 321.697C248.462 320.924 247.817 320.251 246.986 319.678C246.156 319.133 245.153 318.675 243.978 318.303C242.804 317.93 241.508 317.615 240.09 317.357C239.073 317.186 238.228 316.992 237.555 316.777C236.896 316.562 236.38 316.326 236.008 316.068C235.607 315.825 235.327 315.546 235.17 315.23C235.012 314.901 234.934 314.536 234.934 314.135C234.934 313.748 235.027 313.383 235.213 313.039C235.399 312.681 235.678 312.373 236.051 312.115C236.423 311.829 236.896 311.607 237.469 311.449C238.056 311.277 238.736 311.191 239.51 311.191C240.355 311.191 241.092 311.306 241.723 311.535C242.353 311.75 242.868 312.044 243.269 312.416C243.613 312.731 243.871 313.089 244.043 313.49C244.229 313.877 244.322 314.285 244.322 314.715H249.457C249.457 313.669 249.228 312.695 248.769 311.793C248.311 310.891 247.659 310.11 246.814 309.451C245.955 308.792 244.909 308.277 243.678 307.904C242.446 307.518 241.057 307.324 239.51 307.324C238.063 307.324 236.745 307.51 235.557 307.883C234.382 308.255 233.379 308.764 232.549 309.408C231.704 310.053 231.052 310.805 230.594 311.664C230.15 312.509 229.928 313.404 229.928 314.35C229.928 315.338 230.15 316.204 230.594 316.949C231.038 317.68 231.654 318.324 232.441 318.883C233.243 319.456 234.196 319.943 235.299 320.344C236.416 320.745 237.648 321.081 238.994 321.354C240.068 321.554 240.963 321.769 241.68 321.998C242.396 322.227 242.976 322.471 243.42 322.729C243.835 323.015 244.129 323.316 244.301 323.631C244.487 323.946 244.58 324.304 244.58 324.705ZM256.256 331H261.391V314.414C261.62 314.027 261.885 313.669 262.186 313.34C262.487 313.01 262.809 312.731 263.153 312.502C263.597 312.201 264.091 311.972 264.635 311.814C265.18 311.643 265.767 311.557 266.397 311.557C267.156 311.557 267.829 311.643 268.416 311.814C269.004 311.972 269.505 312.244 269.92 312.631C270.336 313.018 270.651 313.533 270.866 314.178C271.081 314.822 271.188 315.624 271.188 316.584V331H276.323V316.498C276.323 314.865 276.129 313.476 275.743 312.33C275.356 311.17 274.812 310.217 274.11 309.473C273.408 308.728 272.563 308.184 271.575 307.84C270.586 307.496 269.498 307.324 268.309 307.324C267.407 307.324 266.547 307.453 265.731 307.711C264.915 307.969 264.163 308.334 263.475 308.807C263.045 309.107 262.637 309.451 262.25 309.838C261.878 310.21 261.534 310.618 261.219 311.062L260.897 307.754H256.256V331ZM297.968 331H303.21V330.635C302.924 330.033 302.702 329.317 302.544 328.486C302.401 327.641 302.329 326.696 302.329 325.65V315.316C302.329 313.999 302.086 312.839 301.599 311.836C301.112 310.819 300.439 309.981 299.579 309.322C298.72 308.663 297.696 308.169 296.507 307.84C295.332 307.496 294.065 307.324 292.704 307.324C291.186 307.324 289.832 307.525 288.644 307.926C287.469 308.312 286.474 308.842 285.657 309.516C284.841 310.174 284.218 310.934 283.788 311.793C283.358 312.652 283.136 313.548 283.122 314.479H288.278C288.278 314.035 288.357 313.619 288.515 313.232C288.687 312.831 288.944 312.495 289.288 312.223C289.632 311.922 290.062 311.686 290.577 311.514C291.107 311.342 291.723 311.256 292.425 311.256C293.198 311.256 293.879 311.356 294.466 311.557C295.067 311.743 295.576 312.015 295.991 312.373C296.378 312.731 296.672 313.154 296.872 313.641C297.087 314.128 297.194 314.672 297.194 315.273V316.842H293.456C291.78 316.842 290.276 316.999 288.944 317.314C287.627 317.63 286.517 318.088 285.614 318.689C284.64 319.334 283.896 320.15 283.38 321.139C282.879 322.113 282.628 323.237 282.628 324.512C282.628 325.5 282.821 326.424 283.208 327.283C283.609 328.128 284.161 328.852 284.862 329.453C285.578 330.069 286.431 330.556 287.419 330.914C288.422 331.258 289.524 331.43 290.728 331.43C291.472 331.43 292.167 331.358 292.812 331.215C293.456 331.072 294.058 330.871 294.616 330.613C295.175 330.37 295.676 330.083 296.12 329.754C296.578 329.41 296.987 329.052 297.345 328.68C297.416 329.124 297.495 329.553 297.581 329.969C297.681 330.37 297.81 330.714 297.968 331ZM291.716 327.305C291.057 327.305 290.484 327.226 289.997 327.068C289.51 326.896 289.102 326.667 288.773 326.381C288.443 326.094 288.192 325.751 288.021 325.35C287.849 324.934 287.763 324.49 287.763 324.018C287.763 323.445 287.863 322.929 288.064 322.471C288.278 322.012 288.601 321.618 289.03 321.289C289.517 320.902 290.169 320.609 290.985 320.408C291.802 320.193 292.769 320.086 293.886 320.086H297.194V324.383C297.008 324.755 296.743 325.113 296.399 325.457C296.056 325.801 295.648 326.109 295.175 326.381C294.702 326.653 294.172 326.875 293.585 327.047C293.012 327.219 292.389 327.305 291.716 327.305ZM310.031 339.938H315.166V328.895C315.438 329.195 315.731 329.475 316.046 329.732C316.362 329.976 316.691 330.205 317.035 330.42C317.622 330.749 318.259 331 318.947 331.172C319.649 331.344 320.415 331.43 321.246 331.43C322.707 331.43 324.003 331.129 325.134 330.527C326.266 329.926 327.218 329.095 327.992 328.035C328.765 326.99 329.345 325.743 329.732 324.297C330.133 322.85 330.334 321.289 330.334 319.613V319.162C330.334 317.415 330.133 315.818 329.732 314.371C329.345 312.91 328.765 311.657 327.992 310.611C327.218 309.566 326.259 308.757 325.113 308.184C323.981 307.611 322.671 307.324 321.181 307.324C320.422 307.324 319.706 307.41 319.033 307.582C318.36 307.74 317.744 307.969 317.185 308.27C316.755 308.499 316.354 308.771 315.982 309.086C315.61 309.401 315.266 309.752 314.951 310.139L314.757 307.754H310.031V339.938ZM325.199 319.162V319.613C325.199 320.645 325.099 321.626 324.898 322.557C324.698 323.473 324.375 324.29 323.931 325.006C323.502 325.708 322.943 326.266 322.255 326.682C321.582 327.083 320.766 327.283 319.806 327.283C319.219 327.283 318.682 327.219 318.195 327.09C317.708 326.947 317.271 326.76 316.884 326.531C316.512 326.288 316.183 326.001 315.896 325.672C315.61 325.342 315.366 324.977 315.166 324.576V314.242C315.395 313.812 315.66 313.426 315.961 313.082C316.276 312.738 316.641 312.452 317.056 312.223C317.414 312.008 317.823 311.843 318.281 311.729C318.739 311.614 319.233 311.557 319.763 311.557C320.723 311.557 321.546 311.757 322.234 312.158C322.921 312.559 323.487 313.104 323.931 313.791C324.361 314.479 324.676 315.288 324.877 316.219C325.091 317.135 325.199 318.117 325.199 319.162ZM356.297 319.334V315.166H339.002V319.334H356.297ZM374.032 302.082H368.876V307.754H363.247V311.6H368.876V323.029C368.876 324.519 369.069 325.794 369.456 326.854C369.857 327.913 370.408 328.787 371.11 329.475C371.812 330.148 372.65 330.649 373.624 330.979C374.612 331.294 375.693 331.451 376.868 331.451C377.512 331.451 378.157 331.415 378.801 331.344C379.46 331.286 380.091 331.201 380.692 331.086C381.294 330.971 381.852 330.835 382.368 330.678C382.898 330.506 383.349 330.305 383.721 330.076L383.163 326.531C382.905 326.589 382.583 326.66 382.196 326.746C381.824 326.818 381.415 326.882 380.971 326.939C380.542 327.011 380.091 327.068 379.618 327.111C379.145 327.154 378.687 327.176 378.243 327.176C377.627 327.176 377.061 327.104 376.546 326.961C376.03 326.818 375.586 326.574 375.214 326.23C374.841 325.901 374.548 325.45 374.333 324.877C374.132 324.29 374.032 323.566 374.032 322.707V311.6H382.776V307.754H374.032V302.082ZM393.507 340.389C394.639 340.389 395.627 340.188 396.472 339.787C397.317 339.4 398.047 338.913 398.663 338.326C399.279 337.753 399.788 337.123 400.189 336.436C400.604 335.762 400.948 335.125 401.22 334.523L413.015 307.754H407.322L401.714 322.02L400.747 324.512L399.952 321.955L394.173 307.754H388.523L398.427 329.969L396.966 332.74C396.809 333.055 396.637 333.356 396.45 333.643C396.279 333.929 396.049 334.258 395.763 334.631C395.462 335.003 395.111 335.333 394.71 335.619C394.309 335.92 393.858 336.07 393.357 336.07C393.128 336.07 392.827 336.056 392.454 336.027C392.096 336.013 391.774 335.999 391.488 335.984L390.779 340.002C391.194 340.102 391.631 340.188 392.089 340.26C392.547 340.346 393.02 340.389 393.507 340.389ZM417.494 339.938H422.629V328.895C422.901 329.195 423.195 329.475 423.51 329.732C423.825 329.976 424.154 330.205 424.498 330.42C425.085 330.749 425.723 331 426.41 331.172C427.112 331.344 427.878 331.43 428.709 331.43C430.17 331.43 431.466 331.129 432.598 330.527C433.729 329.926 434.681 329.095 435.455 328.035C436.228 326.99 436.808 325.743 437.195 324.297C437.596 322.85 437.797 321.289 437.797 319.613V319.162C437.797 317.415 437.596 315.818 437.195 314.371C436.808 312.91 436.228 311.657 435.455 310.611C434.681 309.566 433.722 308.757 432.576 308.184C431.445 307.611 430.134 307.324 428.644 307.324C427.885 307.324 427.169 307.41 426.496 307.582C425.823 307.74 425.207 307.969 424.648 308.27C424.219 308.499 423.818 308.771 423.445 309.086C423.073 309.401 422.729 309.752 422.414 310.139L422.221 307.754H417.494V339.938ZM432.662 319.162V319.613C432.662 320.645 432.562 321.626 432.361 322.557C432.161 323.473 431.838 324.29 431.394 325.006C430.965 325.708 430.406 326.266 429.719 326.682C429.045 327.083 428.229 327.283 427.269 327.283C426.682 327.283 426.145 327.219 425.658 327.09C425.171 326.947 424.734 326.76 424.348 326.531C423.975 326.288 423.646 326.001 423.359 325.672C423.073 325.342 422.829 324.977 422.629 324.576V314.242C422.858 313.812 423.123 313.426 423.424 313.082C423.739 312.738 424.104 312.452 424.519 312.223C424.877 312.008 425.286 311.843 425.744 311.729C426.202 311.614 426.696 311.557 427.226 311.557C428.186 311.557 429.01 311.757 429.697 312.158C430.385 312.559 430.95 313.104 431.394 313.791C431.824 314.479 432.139 315.288 432.34 316.219C432.555 317.135 432.662 318.117 432.662 319.162ZM455.166 331.43C457.429 331.43 459.356 330.986 460.946 330.098C462.55 329.21 463.739 328.207 464.512 327.09L461.762 324.426C461.046 325.342 460.136 326.051 459.034 326.553C457.931 327.04 456.742 327.283 455.467 327.283C454.536 327.283 453.677 327.126 452.889 326.811C452.116 326.495 451.442 326.051 450.87 325.479C450.297 324.934 449.845 324.318 449.516 323.631C449.187 322.943 448.943 322.091 448.786 321.074V320.967H464.899V318.754C464.899 317.092 464.677 315.56 464.233 314.156C463.789 312.753 463.13 311.542 462.256 310.525C461.383 309.523 460.301 308.742 459.012 308.184C457.723 307.611 456.241 307.324 454.565 307.324C453.061 307.324 451.643 307.611 450.311 308.184C448.993 308.742 447.833 309.544 446.83 310.59C445.828 311.635 445.04 312.896 444.467 314.371C443.894 315.846 443.608 317.493 443.608 319.312V320.193C443.608 321.783 443.88 323.266 444.424 324.641C444.983 326.001 445.771 327.183 446.788 328.186C447.804 329.202 449.022 329.997 450.44 330.57C451.872 331.143 453.448 331.43 455.166 331.43ZM454.543 311.492C455.403 311.492 456.155 311.643 456.799 311.943C457.458 312.23 458.002 312.617 458.432 313.104C458.876 313.605 459.22 314.192 459.463 314.865C459.707 315.524 459.829 316.19 459.829 316.863V317.207H448.893C449.051 316.319 449.294 315.524 449.623 314.822C449.953 314.12 450.361 313.519 450.848 313.018C451.335 312.531 451.886 312.158 452.502 311.9C453.133 311.628 453.813 311.492 454.543 311.492Z" fill="black"/>
<path d="M56.5195 254.705C56.5195 255.077 56.4336 255.421 56.2617 255.736C56.1042 256.037 55.8607 256.316 55.5312 256.574C55.1302 256.889 54.5931 257.14 53.9199 257.326C53.2611 257.512 52.4876 257.605 51.5996 257.605C50.9408 257.605 50.2891 257.541 49.6445 257.412C49 257.269 48.4271 257.04 47.9258 256.725C47.4102 256.424 46.9805 256.03 46.6367 255.543C46.3073 255.042 46.1211 254.433 46.0781 253.717H41.0938C41.0938 254.676 41.3229 255.622 41.7812 256.553C42.2396 257.484 42.9128 258.307 43.8008 259.023C44.6745 259.754 45.7559 260.341 47.0449 260.785C48.3483 261.229 49.8379 261.451 51.5137 261.451C53.0176 261.451 54.3854 261.279 55.6172 260.936C56.849 260.592 57.9089 260.112 58.7969 259.496C59.6706 258.88 60.3438 258.143 60.8164 257.283C61.3034 256.424 61.5469 255.479 61.5469 254.447C61.5469 253.387 61.3177 252.471 60.8594 251.697C60.401 250.924 59.7565 250.251 58.9258 249.678C58.0951 249.133 57.0924 248.675 55.918 248.303C54.7435 247.93 53.4473 247.615 52.0293 247.357C51.0124 247.186 50.1673 246.992 49.4941 246.777C48.8353 246.562 48.3197 246.326 47.9473 246.068C47.5462 245.825 47.2669 245.546 47.1094 245.23C46.9518 244.901 46.873 244.536 46.873 244.135C46.873 243.748 46.9661 243.383 47.1523 243.039C47.3385 242.681 47.6178 242.373 47.9902 242.115C48.3626 241.829 48.8353 241.607 49.4082 241.449C49.9954 241.277 50.6758 241.191 51.4492 241.191C52.2943 241.191 53.0319 241.306 53.6621 241.535C54.2923 241.75 54.8079 242.044 55.209 242.416C55.5527 242.731 55.8105 243.089 55.9824 243.49C56.1686 243.877 56.2617 244.285 56.2617 244.715H61.3965C61.3965 243.669 61.1673 242.695 60.709 241.793C60.2507 240.891 59.599 240.11 58.7539 239.451C57.8945 238.792 56.849 238.277 55.6172 237.904C54.3854 237.518 52.9961 237.324 51.4492 237.324C50.0026 237.324 48.6849 237.51 47.4961 237.883C46.3216 238.255 45.319 238.764 44.4883 239.408C43.6432 240.053 42.9915 240.805 42.5332 241.664C42.0892 242.509 41.8672 243.404 41.8672 244.35C41.8672 245.338 42.0892 246.204 42.5332 246.949C42.9772 247.68 43.5931 248.324 44.3809 248.883C45.1829 249.456 46.1354 249.943 47.2383 250.344C48.3555 250.745 49.5872 251.081 50.9336 251.354C52.0078 251.554 52.903 251.769 53.6191 251.998C54.3353 252.227 54.9154 252.471 55.3594 252.729C55.7747 253.015 56.0684 253.316 56.2402 253.631C56.4264 253.946 56.5195 254.304 56.5195 254.705ZM78.315 257.305C77.2408 257.305 76.3456 257.09 75.6295 256.66C74.9133 256.23 74.3476 255.665 73.9322 254.963C73.5025 254.261 73.1946 253.459 73.0084 252.557C72.8365 251.64 72.7505 250.709 72.7505 249.764V249.012C72.7505 248.081 72.8365 247.164 73.0084 246.262C73.1946 245.359 73.5025 244.557 73.9322 243.855C74.3619 243.154 74.9276 242.588 75.6295 242.158C76.3456 241.714 77.2408 241.492 78.315 241.492C79.0168 241.492 79.6685 241.614 80.2701 241.857C80.886 242.101 81.4159 242.43 81.8599 242.846C82.2896 243.261 82.619 243.748 82.8482 244.307C83.0917 244.865 83.2134 245.46 83.2134 246.09H88.0474C88.0617 244.801 87.8254 243.619 87.3384 242.545C86.8658 241.471 86.1998 240.547 85.3404 239.773C84.481 239 83.4498 238.398 82.2466 237.969C81.0578 237.539 79.7616 237.324 78.358 237.324C76.5819 237.324 75.0207 237.639 73.6744 238.27C72.3423 238.885 71.2252 239.723 70.3228 240.783C69.4205 241.843 68.7401 243.082 68.2818 244.5C67.8378 245.918 67.6158 247.422 67.6158 249.012V249.764C67.6158 251.368 67.8449 252.879 68.3033 254.297C68.7616 255.701 69.4348 256.932 70.3228 257.992C71.2252 259.052 72.3423 259.897 73.6744 260.527C75.0207 261.143 76.5891 261.451 78.3795 261.451C79.6685 261.451 80.8931 261.243 82.0533 260.828C83.2278 260.398 84.2662 259.818 85.1685 259.088C86.0565 258.357 86.7584 257.498 87.274 256.51C87.8039 255.507 88.0617 254.44 88.0474 253.309H83.2134C83.2134 253.896 83.0774 254.433 82.8052 254.92C82.5474 255.407 82.1965 255.829 81.7525 256.188C81.2942 256.546 80.7642 256.825 80.1627 257.025C79.5754 257.212 78.9595 257.305 78.315 257.305ZM111.132 237.324C109.528 237.324 108.06 237.697 106.728 238.441C105.41 239.186 104.278 240.21 103.333 241.514L103.312 240.977L103.097 237.754H98.2843V261H103.419V246.648C103.691 245.961 104.028 245.352 104.429 244.822C104.83 244.292 105.317 243.855 105.89 243.512C106.42 243.154 107.028 242.889 107.716 242.717C108.403 242.545 109.177 242.459 110.036 242.459C110.795 242.459 111.554 242.502 112.314 242.588C113.087 242.674 113.868 242.803 114.655 242.975L115.386 237.904C114.942 237.747 114.326 237.611 113.538 237.496C112.765 237.382 111.963 237.324 111.132 237.324ZM120.982 249.162V249.613C120.982 251.318 121.226 252.886 121.713 254.318C122.2 255.751 122.909 256.997 123.84 258.057C124.756 259.117 125.888 259.947 127.234 260.549C128.58 261.15 130.106 261.451 131.81 261.451C133.5 261.451 135.011 261.15 136.343 260.549C137.69 259.947 138.821 259.117 139.738 258.057C140.655 256.997 141.356 255.751 141.843 254.318C142.33 252.886 142.574 251.318 142.574 249.613V249.162C142.574 247.472 142.33 245.911 141.843 244.479C141.356 243.032 140.655 241.779 139.738 240.719C138.807 239.659 137.668 238.828 136.322 238.227C134.99 237.625 133.472 237.324 131.767 237.324C130.063 237.324 128.545 237.625 127.213 238.227C125.881 238.828 124.756 239.659 123.84 240.719C122.909 241.779 122.2 243.032 121.713 244.479C121.226 245.911 120.982 247.472 120.982 249.162ZM126.117 249.613V249.162C126.117 248.145 126.224 247.171 126.439 246.24C126.668 245.309 127.012 244.493 127.47 243.791C127.943 243.089 128.53 242.531 129.232 242.115C129.948 241.7 130.793 241.492 131.767 241.492C132.756 241.492 133.601 241.7 134.302 242.115C135.019 242.531 135.606 243.089 136.064 243.791C136.522 244.493 136.866 245.309 137.095 246.24C137.325 247.171 137.439 248.145 137.439 249.162V249.613C137.439 250.659 137.325 251.647 137.095 252.578C136.881 253.509 136.544 254.326 136.086 255.027C135.627 255.729 135.04 256.288 134.324 256.703C133.608 257.104 132.77 257.305 131.81 257.305C130.822 257.305 129.97 257.104 129.254 256.703C128.537 256.288 127.943 255.729 127.47 255.027C127.012 254.326 126.668 253.509 126.439 252.578C126.224 251.647 126.117 250.659 126.117 249.613ZM149.781 228V232.275H157.129V256.746H149.781V261H169.354V256.746H162.307V228H149.781ZM176.647 228V232.275H183.995V256.746H176.647V261H196.22V256.746H189.173V228H176.647ZM221.968 249.334V245.166H204.673V249.334H221.968ZM244.58 254.705C244.58 255.077 244.494 255.421 244.322 255.736C244.165 256.037 243.921 256.316 243.592 256.574C243.191 256.889 242.654 257.14 241.98 257.326C241.322 257.512 240.548 257.605 239.66 257.605C239.001 257.605 238.35 257.541 237.705 257.412C237.06 257.269 236.488 257.04 235.986 256.725C235.471 256.424 235.041 256.03 234.697 255.543C234.368 255.042 234.182 254.433 234.139 253.717H229.154C229.154 254.676 229.383 255.622 229.842 256.553C230.3 257.484 230.973 258.307 231.861 259.023C232.735 259.754 233.816 260.341 235.105 260.785C236.409 261.229 237.898 261.451 239.574 261.451C241.078 261.451 242.446 261.279 243.678 260.936C244.909 260.592 245.969 260.112 246.857 259.496C247.731 258.88 248.404 258.143 248.877 257.283C249.364 256.424 249.607 255.479 249.607 254.447C249.607 253.387 249.378 252.471 248.92 251.697C248.462 250.924 247.817 250.251 246.986 249.678C246.156 249.133 245.153 248.675 243.978 248.303C242.804 247.93 241.508 247.615 240.09 247.357C239.073 247.186 238.228 246.992 237.555 246.777C236.896 246.562 236.38 246.326 236.008 246.068C235.607 245.825 235.327 245.546 235.17 245.23C235.012 244.901 234.934 244.536 234.934 244.135C234.934 243.748 235.027 243.383 235.213 243.039C235.399 242.681 235.678 242.373 236.051 242.115C236.423 241.829 236.896 241.607 237.469 241.449C238.056 241.277 238.736 241.191 239.51 241.191C240.355 241.191 241.092 241.306 241.723 241.535C242.353 241.75 242.868 242.044 243.269 242.416C243.613 242.731 243.871 243.089 244.043 243.49C244.229 243.877 244.322 244.285 244.322 244.715H249.457C249.457 243.669 249.228 242.695 248.769 241.793C248.311 240.891 247.659 240.11 246.814 239.451C245.955 238.792 244.909 238.277 243.678 237.904C242.446 237.518 241.057 237.324 239.51 237.324C238.063 237.324 236.745 237.51 235.557 237.883C234.382 238.255 233.379 238.764 232.549 239.408C231.704 240.053 231.052 240.805 230.594 241.664C230.15 242.509 229.928 243.404 229.928 244.35C229.928 245.338 230.15 246.204 230.594 246.949C231.038 247.68 231.654 248.324 232.441 248.883C233.243 249.456 234.196 249.943 235.299 250.344C236.416 250.745 237.648 251.081 238.994 251.354C240.068 251.554 240.963 251.769 241.68 251.998C242.396 252.227 242.976 252.471 243.42 252.729C243.835 253.015 244.129 253.316 244.301 253.631C244.487 253.946 244.58 254.304 244.58 254.705ZM256.256 261H261.391V244.414C261.62 244.027 261.885 243.669 262.186 243.34C262.487 243.01 262.809 242.731 263.153 242.502C263.597 242.201 264.091 241.972 264.635 241.814C265.18 241.643 265.767 241.557 266.397 241.557C267.156 241.557 267.829 241.643 268.416 241.814C269.004 241.972 269.505 242.244 269.92 242.631C270.336 243.018 270.651 243.533 270.866 244.178C271.081 244.822 271.188 245.624 271.188 246.584V261H276.323V246.498C276.323 244.865 276.129 243.476 275.743 242.33C275.356 241.17 274.812 240.217 274.11 239.473C273.408 238.728 272.563 238.184 271.575 237.84C270.586 237.496 269.498 237.324 268.309 237.324C267.407 237.324 266.547 237.453 265.731 237.711C264.915 237.969 264.163 238.334 263.475 238.807C263.045 239.107 262.637 239.451 262.25 239.838C261.878 240.21 261.534 240.618 261.219 241.062L260.897 237.754H256.256V261ZM297.968 261H303.21V260.635C302.924 260.033 302.702 259.317 302.544 258.486C302.401 257.641 302.329 256.696 302.329 255.65V245.316C302.329 243.999 302.086 242.839 301.599 241.836C301.112 240.819 300.439 239.981 299.579 239.322C298.72 238.663 297.696 238.169 296.507 237.84C295.332 237.496 294.065 237.324 292.704 237.324C291.186 237.324 289.832 237.525 288.644 237.926C287.469 238.312 286.474 238.842 285.657 239.516C284.841 240.174 284.218 240.934 283.788 241.793C283.358 242.652 283.136 243.548 283.122 244.479H288.278C288.278 244.035 288.357 243.619 288.515 243.232C288.687 242.831 288.944 242.495 289.288 242.223C289.632 241.922 290.062 241.686 290.577 241.514C291.107 241.342 291.723 241.256 292.425 241.256C293.198 241.256 293.879 241.356 294.466 241.557C295.067 241.743 295.576 242.015 295.991 242.373C296.378 242.731 296.672 243.154 296.872 243.641C297.087 244.128 297.194 244.672 297.194 245.273V246.842H293.456C291.78 246.842 290.276 246.999 288.944 247.314C287.627 247.63 286.517 248.088 285.614 248.689C284.64 249.334 283.896 250.15 283.38 251.139C282.879 252.113 282.628 253.237 282.628 254.512C282.628 255.5 282.821 256.424 283.208 257.283C283.609 258.128 284.161 258.852 284.862 259.453C285.578 260.069 286.431 260.556 287.419 260.914C288.422 261.258 289.524 261.43 290.728 261.43C291.472 261.43 292.167 261.358 292.812 261.215C293.456 261.072 294.058 260.871 294.616 260.613C295.175 260.37 295.676 260.083 296.12 259.754C296.578 259.41 296.987 259.052 297.345 258.68C297.416 259.124 297.495 259.553 297.581 259.969C297.681 260.37 297.81 260.714 297.968 261ZM291.716 257.305C291.057 257.305 290.484 257.226 289.997 257.068C289.51 256.896 289.102 256.667 288.773 256.381C288.443 256.094 288.192 255.751 288.021 255.35C287.849 254.934 287.763 254.49 287.763 254.018C287.763 253.445 287.863 252.929 288.064 252.471C288.278 252.012 288.601 251.618 289.03 251.289C289.517 250.902 290.169 250.609 290.985 250.408C291.802 250.193 292.769 250.086 293.886 250.086H297.194V254.383C297.008 254.755 296.743 255.113 296.399 255.457C296.056 255.801 295.648 256.109 295.175 256.381C294.702 256.653 294.172 256.875 293.585 257.047C293.012 257.219 292.389 257.305 291.716 257.305ZM310.031 269.938H315.166V258.895C315.438 259.195 315.731 259.475 316.046 259.732C316.362 259.976 316.691 260.205 317.035 260.42C317.622 260.749 318.259 261 318.947 261.172C319.649 261.344 320.415 261.43 321.246 261.43C322.707 261.43 324.003 261.129 325.134 260.527C326.266 259.926 327.218 259.095 327.992 258.035C328.765 256.99 329.345 255.743 329.732 254.297C330.133 252.85 330.334 251.289 330.334 249.613V249.162C330.334 247.415 330.133 245.818 329.732 244.371C329.345 242.91 328.765 241.657 327.992 240.611C327.218 239.566 326.259 238.757 325.113 238.184C323.981 237.611 322.671 237.324 321.181 237.324C320.422 237.324 319.706 237.41 319.033 237.582C318.36 237.74 317.744 237.969 317.185 238.27C316.755 238.499 316.354 238.771 315.982 239.086C315.61 239.401 315.266 239.752 314.951 240.139L314.757 237.754H310.031V269.938ZM325.199 249.162V249.613C325.199 250.645 325.099 251.626 324.898 252.557C324.698 253.473 324.375 254.29 323.931 255.006C323.502 255.708 322.943 256.266 322.255 256.682C321.582 257.083 320.766 257.283 319.806 257.283C319.219 257.283 318.682 257.219 318.195 257.09C317.708 256.947 317.271 256.76 316.884 256.531C316.512 256.288 316.183 256.001 315.896 255.672C315.61 255.342 315.366 254.977 315.166 254.576V244.242C315.395 243.812 315.66 243.426 315.961 243.082C316.276 242.738 316.641 242.452 317.056 242.223C317.414 242.008 317.823 241.843 318.281 241.729C318.739 241.614 319.233 241.557 319.763 241.557C320.723 241.557 321.546 241.757 322.234 242.158C322.921 242.559 323.487 243.104 323.931 243.791C324.361 244.479 324.676 245.288 324.877 246.219C325.091 247.135 325.199 248.117 325.199 249.162ZM356.297 249.334V245.166H339.002V249.334H356.297ZM374.032 232.082H368.876V237.754H363.247V241.6H368.876V253.029C368.876 254.519 369.069 255.794 369.456 256.854C369.857 257.913 370.408 258.787 371.11 259.475C371.812 260.148 372.65 260.649 373.624 260.979C374.612 261.294 375.693 261.451 376.868 261.451C377.512 261.451 378.157 261.415 378.801 261.344C379.46 261.286 380.091 261.201 380.692 261.086C381.294 260.971 381.852 260.835 382.368 260.678C382.898 260.506 383.349 260.305 383.721 260.076L383.163 256.531C382.905 256.589 382.583 256.66 382.196 256.746C381.824 256.818 381.415 256.882 380.971 256.939C380.542 257.011 380.091 257.068 379.618 257.111C379.145 257.154 378.687 257.176 378.243 257.176C377.627 257.176 377.061 257.104 376.546 256.961C376.03 256.818 375.586 256.574 375.214 256.23C374.841 255.901 374.548 255.45 374.333 254.877C374.132 254.29 374.032 253.566 374.032 252.707V241.6H382.776V237.754H374.032V232.082ZM393.507 270.389C394.639 270.389 395.627 270.188 396.472 269.787C397.317 269.4 398.047 268.913 398.663 268.326C399.279 267.753 399.788 267.123 400.189 266.436C400.604 265.762 400.948 265.125 401.22 264.523L413.015 237.754H407.322L401.714 252.02L400.747 254.512L399.952 251.955L394.173 237.754H388.523L398.427 259.969L396.966 262.74C396.809 263.055 396.637 263.356 396.45 263.643C396.279 263.929 396.049 264.258 395.763 264.631C395.462 265.003 395.111 265.333 394.71 265.619C394.309 265.92 393.858 266.07 393.357 266.07C393.128 266.07 392.827 266.056 392.454 266.027C392.096 266.013 391.774 265.999 391.488 265.984L390.779 270.002C391.194 270.102 391.631 270.188 392.089 270.26C392.547 270.346 393.02 270.389 393.507 270.389ZM417.494 269.938H422.629V258.895C422.901 259.195 423.195 259.475 423.51 259.732C423.825 259.976 424.154 260.205 424.498 260.42C425.085 260.749 425.723 261 426.41 261.172C427.112 261.344 427.878 261.43 428.709 261.43C430.17 261.43 431.466 261.129 432.598 260.527C433.729 259.926 434.681 259.095 435.455 258.035C436.228 256.99 436.808 255.743 437.195 254.297C437.596 252.85 437.797 251.289 437.797 249.613V249.162C437.797 247.415 437.596 245.818 437.195 244.371C436.808 242.91 436.228 241.657 435.455 240.611C434.681 239.566 433.722 238.757 432.576 238.184C431.445 237.611 430.134 237.324 428.644 237.324C427.885 237.324 427.169 237.41 426.496 237.582C425.823 237.74 425.207 237.969 424.648 238.27C424.219 238.499 423.818 238.771 423.445 239.086C423.073 239.401 422.729 239.752 422.414 240.139L422.221 237.754H417.494V269.938ZM432.662 249.162V249.613C432.662 250.645 432.562 251.626 432.361 252.557C432.161 253.473 431.838 254.29 431.394 255.006C430.965 255.708 430.406 256.266 429.719 256.682C429.045 257.083 428.229 257.283 427.269 257.283C426.682 257.283 426.145 257.219 425.658 257.09C425.171 256.947 424.734 256.76 424.348 256.531C423.975 256.288 423.646 256.001 423.359 255.672C423.073 255.342 422.829 254.977 422.629 254.576V244.242C422.858 243.812 423.123 243.426 423.424 243.082C423.739 242.738 424.104 242.452 424.519 242.223C424.877 242.008 425.286 241.843 425.744 241.729C426.202 241.614 426.696 241.557 427.226 241.557C428.186 241.557 429.01 241.757 429.697 242.158C430.385 242.559 430.95 243.104 431.394 243.791C431.824 244.479 432.139 245.288 432.34 246.219C432.555 247.135 432.662 248.117 432.662 249.162ZM455.166 261.43C457.429 261.43 459.356 260.986 460.946 260.098C462.55 259.21 463.739 258.207 464.512 257.09L461.762 254.426C461.046 255.342 460.136 256.051 459.034 256.553C457.931 257.04 456.742 257.283 455.467 257.283C454.536 257.283 453.677 257.126 452.889 256.811C452.116 256.495 451.442 256.051 450.87 255.479C450.297 254.934 449.845 254.318 449.516 253.631C449.187 252.943 448.943 252.091 448.786 251.074V250.967H464.899V248.754C464.899 247.092 464.677 245.56 464.233 244.156C463.789 242.753 463.13 241.542 462.256 240.525C461.383 239.523 460.301 238.742 459.012 238.184C457.723 237.611 456.241 237.324 454.565 237.324C453.061 237.324 451.643 237.611 450.311 238.184C448.993 238.742 447.833 239.544 446.83 240.59C445.828 241.635 445.04 242.896 444.467 244.371C443.894 245.846 443.608 247.493 443.608 249.312V250.193C443.608 251.783 443.88 253.266 444.424 254.641C444.983 256.001 445.771 257.183 446.788 258.186C447.804 259.202 449.022 259.997 450.44 260.57C451.872 261.143 453.448 261.43 455.166 261.43ZM454.543 241.492C455.403 241.492 456.155 241.643 456.799 241.943C457.458 242.23 458.002 242.617 458.432 243.104C458.876 243.605 459.22 244.192 459.463 244.865C459.707 245.524 459.829 246.19 459.829 246.863V247.207H448.893C449.051 246.319 449.294 245.524 449.623 244.822C449.953 244.12 450.361 243.519 450.848 243.018C451.335 242.531 451.886 242.158 452.502 241.9C453.133 241.628 453.813 241.492 454.543 241.492Z" fill="black" fill-opacity="0.75"/>
<path d="M56.5195 184.705C56.5195 185.077 56.4336 185.421 56.2617 185.736C56.1042 186.037 55.8607 186.316 55.5312 186.574C55.1302 186.889 54.5931 187.14 53.9199 187.326C53.2611 187.512 52.4876 187.605 51.5996 187.605C50.9408 187.605 50.2891 187.541 49.6445 187.412C49 187.269 48.4271 187.04 47.9258 186.725C47.4102 186.424 46.9805 186.03 46.6367 185.543C46.3073 185.042 46.1211 184.433 46.0781 183.717H41.0938C41.0938 184.676 41.3229 185.622 41.7812 186.553C42.2396 187.484 42.9128 188.307 43.8008 189.023C44.6745 189.754 45.7559 190.341 47.0449 190.785C48.3483 191.229 49.8379 191.451 51.5137 191.451C53.0176 191.451 54.3854 191.279 55.6172 190.936C56.849 190.592 57.9089 190.112 58.7969 189.496C59.6706 188.88 60.3438 188.143 60.8164 187.283C61.3034 186.424 61.5469 185.479 61.5469 184.447C61.5469 183.387 61.3177 182.471 60.8594 181.697C60.401 180.924 59.7565 180.251 58.9258 179.678C58.0951 179.133 57.0924 178.675 55.918 178.303C54.7435 177.93 53.4473 177.615 52.0293 177.357C51.0124 177.186 50.1673 176.992 49.4941 176.777C48.8353 176.562 48.3197 176.326 47.9473 176.068C47.5462 175.825 47.2669 175.546 47.1094 175.23C46.9518 174.901 46.873 174.536 46.873 174.135C46.873 173.748 46.9661 173.383 47.1523 173.039C47.3385 172.681 47.6178 172.373 47.9902 172.115C48.3626 171.829 48.8353 171.607 49.4082 171.449C49.9954 171.277 50.6758 171.191 51.4492 171.191C52.2943 171.191 53.0319 171.306 53.6621 171.535C54.2923 171.75 54.8079 172.044 55.209 172.416C55.5527 172.731 55.8105 173.089 55.9824 173.49C56.1686 173.877 56.2617 174.285 56.2617 174.715H61.3965C61.3965 173.669 61.1673 172.695 60.709 171.793C60.2507 170.891 59.599 170.11 58.7539 169.451C57.8945 168.792 56.849 168.277 55.6172 167.904C54.3854 167.518 52.9961 167.324 51.4492 167.324C50.0026 167.324 48.6849 167.51 47.4961 167.883C46.3216 168.255 45.319 168.764 44.4883 169.408C43.6432 170.053 42.9915 170.805 42.5332 171.664C42.0892 172.509 41.8672 173.404 41.8672 174.35C41.8672 175.338 42.0892 176.204 42.5332 176.949C42.9772 177.68 43.5931 178.324 44.3809 178.883C45.1829 179.456 46.1354 179.943 47.2383 180.344C48.3555 180.745 49.5872 181.081 50.9336 181.354C52.0078 181.554 52.903 181.769 53.6191 181.998C54.3353 182.227 54.9154 182.471 55.3594 182.729C55.7747 183.015 56.0684 183.316 56.2402 183.631C56.4264 183.946 56.5195 184.304 56.5195 184.705ZM78.315 187.305C77.2408 187.305 76.3456 187.09 75.6295 186.66C74.9133 186.23 74.3476 185.665 73.9322 184.963C73.5025 184.261 73.1946 183.459 73.0084 182.557C72.8365 181.64 72.7505 180.709 72.7505 179.764V179.012C72.7505 178.081 72.8365 177.164 73.0084 176.262C73.1946 175.359 73.5025 174.557 73.9322 173.855C74.3619 173.154 74.9276 172.588 75.6295 172.158C76.3456 171.714 77.2408 171.492 78.315 171.492C79.0168 171.492 79.6685 171.614 80.2701 171.857C80.886 172.101 81.4159 172.43 81.8599 172.846C82.2896 173.261 82.619 173.748 82.8482 174.307C83.0917 174.865 83.2134 175.46 83.2134 176.09H88.0474C88.0617 174.801 87.8254 173.619 87.3384 172.545C86.8658 171.471 86.1998 170.547 85.3404 169.773C84.481 169 83.4498 168.398 82.2466 167.969C81.0578 167.539 79.7616 167.324 78.358 167.324C76.5819 167.324 75.0207 167.639 73.6744 168.27C72.3423 168.885 71.2252 169.723 70.3228 170.783C69.4205 171.843 68.7401 173.082 68.2818 174.5C67.8378 175.918 67.6158 177.422 67.6158 179.012V179.764C67.6158 181.368 67.8449 182.879 68.3033 184.297C68.7616 185.701 69.4348 186.932 70.3228 187.992C71.2252 189.052 72.3423 189.897 73.6744 190.527C75.0207 191.143 76.5891 191.451 78.3795 191.451C79.6685 191.451 80.8931 191.243 82.0533 190.828C83.2278 190.398 84.2662 189.818 85.1685 189.088C86.0565 188.357 86.7584 187.498 87.274 186.51C87.8039 185.507 88.0617 184.44 88.0474 183.309H83.2134C83.2134 183.896 83.0774 184.433 82.8052 184.92C82.5474 185.407 82.1965 185.829 81.7525 186.188C81.2942 186.546 80.7642 186.825 80.1627 187.025C79.5754 187.212 78.9595 187.305 78.315 187.305ZM111.132 167.324C109.528 167.324 108.06 167.697 106.728 168.441C105.41 169.186 104.278 170.21 103.333 171.514L103.312 170.977L103.097 167.754H98.2843V191H103.419V176.648C103.691 175.961 104.028 175.352 104.429 174.822C104.83 174.292 105.317 173.855 105.89 173.512C106.42 173.154 107.028 172.889 107.716 172.717C108.403 172.545 109.177 172.459 110.036 172.459C110.795 172.459 111.554 172.502 112.314 172.588C113.087 172.674 113.868 172.803 114.655 172.975L115.386 167.904C114.942 167.747 114.326 167.611 113.538 167.496C112.765 167.382 111.963 167.324 111.132 167.324ZM120.982 179.162V179.613C120.982 181.318 121.226 182.886 121.713 184.318C122.2 185.751 122.909 186.997 123.84 188.057C124.756 189.117 125.888 189.947 127.234 190.549C128.58 191.15 130.106 191.451 131.81 191.451C133.5 191.451 135.011 191.15 136.343 190.549C137.69 189.947 138.821 189.117 139.738 188.057C140.655 186.997 141.356 185.751 141.843 184.318C142.33 182.886 142.574 181.318 142.574 179.613V179.162C142.574 177.472 142.33 175.911 141.843 174.479C141.356 173.032 140.655 171.779 139.738 170.719C138.807 169.659 137.668 168.828 136.322 168.227C134.99 167.625 133.472 167.324 131.767 167.324C130.063 167.324 128.545 167.625 127.213 168.227C125.881 168.828 124.756 169.659 123.84 170.719C122.909 171.779 122.2 173.032 121.713 174.479C121.226 175.911 120.982 177.472 120.982 179.162ZM126.117 179.613V179.162C126.117 178.145 126.224 177.171 126.439 176.24C126.668 175.309 127.012 174.493 127.47 173.791C127.943 173.089 128.53 172.531 129.232 172.115C129.948 171.7 130.793 171.492 131.767 171.492C132.756 171.492 133.601 171.7 134.302 172.115C135.019 172.531 135.606 173.089 136.064 173.791C136.522 174.493 136.866 175.309 137.095 176.24C137.325 177.171 137.439 178.145 137.439 179.162V179.613C137.439 180.659 137.325 181.647 137.095 182.578C136.881 183.509 136.544 184.326 136.086 185.027C135.627 185.729 135.04 186.288 134.324 186.703C133.608 187.104 132.77 187.305 131.81 187.305C130.822 187.305 129.97 187.104 129.254 186.703C128.537 186.288 127.943 185.729 127.47 185.027C127.012 184.326 126.668 183.509 126.439 182.578C126.224 181.647 126.117 180.659 126.117 179.613ZM149.781 158V162.275H157.129V186.746H149.781V191H169.354V186.746H162.307V158H149.781ZM176.647 158V162.275H183.995V186.746H176.647V191H196.22V186.746H189.173V158H176.647ZM221.968 179.334V175.166H204.673V179.334H221.968ZM244.58 184.705C244.58 185.077 244.494 185.421 244.322 185.736C244.165 186.037 243.921 186.316 243.592 186.574C243.191 186.889 242.654 187.14 241.98 187.326C241.322 187.512 240.548 187.605 239.66 187.605C239.001 187.605 238.35 187.541 237.705 187.412C237.06 187.269 236.488 187.04 235.986 186.725C235.471 186.424 235.041 186.03 234.697 185.543C234.368 185.042 234.182 184.433 234.139 183.717H229.154C229.154 184.676 229.383 185.622 229.842 186.553C230.3 187.484 230.973 188.307 231.861 189.023C232.735 189.754 233.816 190.341 235.105 190.785C236.409 191.229 237.898 191.451 239.574 191.451C241.078 191.451 242.446 191.279 243.678 190.936C244.909 190.592 245.969 190.112 246.857 189.496C247.731 188.88 248.404 188.143 248.877 187.283C249.364 186.424 249.607 185.479 249.607 184.447C249.607 183.387 249.378 182.471 248.92 181.697C248.462 180.924 247.817 180.251 246.986 179.678C246.156 179.133 245.153 178.675 243.978 178.303C242.804 177.93 241.508 177.615 240.09 177.357C239.073 177.186 238.228 176.992 237.555 176.777C236.896 176.562 236.38 176.326 236.008 176.068C235.607 175.825 235.327 175.546 235.17 175.23C235.012 174.901 234.934 174.536 234.934 174.135C234.934 173.748 235.027 173.383 235.213 173.039C235.399 172.681 235.678 172.373 236.051 172.115C236.423 171.829 236.896 171.607 237.469 171.449C238.056 171.277 238.736 171.191 239.51 171.191C240.355 171.191 241.092 171.306 241.723 171.535C242.353 171.75 242.868 172.044 243.269 172.416C243.613 172.731 243.871 173.089 244.043 173.49C244.229 173.877 244.322 174.285 244.322 174.715H249.457C249.457 173.669 249.228 172.695 248.769 171.793C248.311 170.891 247.659 170.11 246.814 169.451C245.955 168.792 244.909 168.277 243.678 167.904C242.446 167.518 241.057 167.324 239.51 167.324C238.063 167.324 236.745 167.51 235.557 167.883C234.382 168.255 233.379 168.764 232.549 169.408C231.704 170.053 231.052 170.805 230.594 171.664C230.15 172.509 229.928 173.404 229.928 174.35C229.928 175.338 230.15 176.204 230.594 176.949C231.038 177.68 231.654 178.324 232.441 178.883C233.243 179.456 234.196 179.943 235.299 180.344C236.416 180.745 237.648 181.081 238.994 181.354C240.068 181.554 240.963 181.769 241.68 181.998C242.396 182.227 242.976 182.471 243.42 182.729C243.835 183.015 244.129 183.316 244.301 183.631C244.487 183.946 244.58 184.304 244.58 184.705ZM256.256 191H261.391V174.414C261.62 174.027 261.885 173.669 262.186 173.34C262.487 173.01 262.809 172.731 263.153 172.502C263.597 172.201 264.091 171.972 264.635 171.814C265.18 171.643 265.767 171.557 266.397 171.557C267.156 171.557 267.829 171.643 268.416 171.814C269.004 171.972 269.505 172.244 269.92 172.631C270.336 173.018 270.651 173.533 270.866 174.178C271.081 174.822 271.188 175.624 271.188 176.584V191H276.323V176.498C276.323 174.865 276.129 173.476 275.743 172.33C275.356 171.17 274.812 170.217 274.11 169.473C273.408 168.728 272.563 168.184 271.575 167.84C270.586 167.496 269.498 167.324 268.309 167.324C267.407 167.324 266.547 167.453 265.731 167.711C264.915 167.969 264.163 168.334 263.475 168.807C263.045 169.107 262.637 169.451 262.25 169.838C261.878 170.21 261.534 170.618 261.219 171.062L260.897 167.754H256.256V191ZM297.968 191H303.21V190.635C302.924 190.033 302.702 189.317 302.544 188.486C302.401 187.641 302.329 186.696 302.329 185.65V175.316C302.329 173.999 302.086 172.839 301.599 171.836C301.112 170.819 300.439 169.981 299.579 169.322C298.72 168.663 297.696 168.169 296.507 167.84C295.332 167.496 294.065 167.324 292.704 167.324C291.186 167.324 289.832 167.525 288.644 167.926C287.469 168.312 286.474 168.842 285.657 169.516C284.841 170.174 284.218 170.934 283.788 171.793C283.358 172.652 283.136 173.548 283.122 174.479H288.278C288.278 174.035 288.357 173.619 288.515 173.232C288.687 172.831 288.944 172.495 289.288 172.223C289.632 171.922 290.062 171.686 290.577 171.514C291.107 171.342 291.723 171.256 292.425 171.256C293.198 171.256 293.879 171.356 294.466 171.557C295.067 171.743 295.576 172.015 295.991 172.373C296.378 172.731 296.672 173.154 296.872 173.641C297.087 174.128 297.194 174.672 297.194 175.273V176.842H293.456C291.78 176.842 290.276 176.999 288.944 177.314C287.627 177.63 286.517 178.088 285.614 178.689C284.64 179.334 283.896 180.15 283.38 181.139C282.879 182.113 282.628 183.237 282.628 184.512C282.628 185.5 282.821 186.424 283.208 187.283C283.609 188.128 284.161 188.852 284.862 189.453C285.578 190.069 286.431 190.556 287.419 190.914C288.422 191.258 289.524 191.43 290.728 191.43C291.472 191.43 292.167 191.358 292.812 191.215C293.456 191.072 294.058 190.871 294.616 190.613C295.175 190.37 295.676 190.083 296.12 189.754C296.578 189.41 296.987 189.052 297.345 188.68C297.416 189.124 297.495 189.553 297.581 189.969C297.681 190.37 297.81 190.714 297.968 191ZM291.716 187.305C291.057 187.305 290.484 187.226 289.997 187.068C289.51 186.896 289.102 186.667 288.773 186.381C288.443 186.094 288.192 185.751 288.021 185.35C287.849 184.934 287.763 184.49 287.763 184.018C287.763 183.445 287.863 182.929 288.064 182.471C288.278 182.012 288.601 181.618 289.03 181.289C289.517 180.902 290.169 180.609 290.985 180.408C291.802 180.193 292.769 180.086 293.886 180.086H297.194V184.383C297.008 184.755 296.743 185.113 296.399 185.457C296.056 185.801 295.648 186.109 295.175 186.381C294.702 186.653 294.172 186.875 293.585 187.047C293.012 187.219 292.389 187.305 291.716 187.305ZM310.031 199.938H315.166V188.895C315.438 189.195 315.731 189.475 316.046 189.732C316.362 189.976 316.691 190.205 317.035 190.42C317.622 190.749 318.259 191 318.947 191.172C319.649 191.344 320.415 191.43 321.246 191.43C322.707 191.43 324.003 191.129 325.134 190.527C326.266 189.926 327.218 189.095 327.992 188.035C328.765 186.99 329.345 185.743 329.732 184.297C330.133 182.85 330.334 181.289 330.334 179.613V179.162C330.334 177.415 330.133 175.818 329.732 174.371C329.345 172.91 328.765 171.657 327.992 170.611C327.218 169.566 326.259 168.757 325.113 168.184C323.981 167.611 322.671 167.324 321.181 167.324C320.422 167.324 319.706 167.41 319.033 167.582C318.36 167.74 317.744 167.969 317.185 168.27C316.755 168.499 316.354 168.771 315.982 169.086C315.61 169.401 315.266 169.752 314.951 170.139L314.757 167.754H310.031V199.938ZM325.199 179.162V179.613C325.199 180.645 325.099 181.626 324.898 182.557C324.698 183.473 324.375 184.29 323.931 185.006C323.502 185.708 322.943 186.266 322.255 186.682C321.582 187.083 320.766 187.283 319.806 187.283C319.219 187.283 318.682 187.219 318.195 187.09C317.708 186.947 317.271 186.76 316.884 186.531C316.512 186.288 316.183 186.001 315.896 185.672C315.61 185.342 315.366 184.977 315.166 184.576V174.242C315.395 173.812 315.66 173.426 315.961 173.082C316.276 172.738 316.641 172.452 317.056 172.223C317.414 172.008 317.823 171.843 318.281 171.729C318.739 171.614 319.233 171.557 319.763 171.557C320.723 171.557 321.546 171.757 322.234 172.158C322.921 172.559 323.487 173.104 323.931 173.791C324.361 174.479 324.676 175.288 324.877 176.219C325.091 177.135 325.199 178.117 325.199 179.162ZM356.297 179.334V175.166H339.002V179.334H356.297ZM374.032 162.082H368.876V167.754H363.247V171.6H368.876V183.029C368.876 184.519 369.069 185.794 369.456 186.854C369.857 187.913 370.408 188.787 371.11 189.475C371.812 190.148 372.65 190.649 373.624 190.979C374.612 191.294 375.693 191.451 376.868 191.451C377.512 191.451 378.157 191.415 378.801 191.344C379.46 191.286 380.091 191.201 380.692 191.086C381.294 190.971 381.852 190.835 382.368 190.678C382.898 190.506 383.349 190.305 383.721 190.076L383.163 186.531C382.905 186.589 382.583 186.66 382.196 186.746C381.824 186.818 381.415 186.882 380.971 186.939C380.542 187.011 380.091 187.068 379.618 187.111C379.145 187.154 378.687 187.176 378.243 187.176C377.627 187.176 377.061 187.104 376.546 186.961C376.03 186.818 375.586 186.574 375.214 186.23C374.841 185.901 374.548 185.45 374.333 184.877C374.132 184.29 374.032 183.566 374.032 182.707V171.6H382.776V167.754H374.032V162.082ZM393.507 200.389C394.639 200.389 395.627 200.188 396.472 199.787C397.317 199.4 398.047 198.913 398.663 198.326C399.279 197.753 399.788 197.123 400.189 196.436C400.604 195.762 400.948 195.125 401.22 194.523L413.015 167.754H407.322L401.714 182.02L400.747 184.512L399.952 181.955L394.173 167.754H388.523L398.427 189.969L396.966 192.74C396.809 193.055 396.637 193.356 396.45 193.643C396.279 193.929 396.049 194.258 395.763 194.631C395.462 195.003 395.111 195.333 394.71 195.619C394.309 195.92 393.858 196.07 393.357 196.07C393.128 196.07 392.827 196.056 392.454 196.027C392.096 196.013 391.774 195.999 391.488 195.984L390.779 200.002C391.194 200.102 391.631 200.188 392.089 200.26C392.547 200.346 393.02 200.389 393.507 200.389ZM417.494 199.938H422.629V188.895C422.901 189.195 423.195 189.475 423.51 189.732C423.825 189.976 424.154 190.205 424.498 190.42C425.085 190.749 425.723 191 426.41 191.172C427.112 191.344 427.878 191.43 428.709 191.43C430.17 191.43 431.466 191.129 432.598 190.527C433.729 189.926 434.681 189.095 435.455 188.035C436.228 186.99 436.808 185.743 437.195 184.297C437.596 182.85 437.797 181.289 437.797 179.613V179.162C437.797 177.415 437.596 175.818 437.195 174.371C436.808 172.91 436.228 171.657 435.455 170.611C434.681 169.566 433.722 168.757 432.576 168.184C431.445 167.611 430.134 167.324 428.644 167.324C427.885 167.324 427.169 167.41 426.496 167.582C425.823 167.74 425.207 167.969 424.648 168.27C424.219 168.499 423.818 168.771 423.445 169.086C423.073 169.401 422.729 169.752 422.414 170.139L422.221 167.754H417.494V199.938ZM432.662 179.162V179.613C432.662 180.645 432.562 181.626 432.361 182.557C432.161 183.473 431.838 184.29 431.394 185.006C430.965 185.708 430.406 186.266 429.719 186.682C429.045 187.083 428.229 187.283 427.269 187.283C426.682 187.283 426.145 187.219 425.658 187.09C425.171 186.947 424.734 186.76 424.348 186.531C423.975 186.288 423.646 186.001 423.359 185.672C423.073 185.342 422.829 184.977 422.629 184.576V174.242C422.858 173.812 423.123 173.426 423.424 173.082C423.739 172.738 424.104 172.452 424.519 172.223C424.877 172.008 425.286 171.843 425.744 171.729C426.202 171.614 426.696 171.557 427.226 171.557C428.186 171.557 429.01 171.757 429.697 172.158C430.385 172.559 430.95 173.104 431.394 173.791C431.824 174.479 432.139 175.288 432.34 176.219C432.555 177.135 432.662 178.117 432.662 179.162ZM455.166 191.43C457.429 191.43 459.356 190.986 460.946 190.098C462.55 189.21 463.739 188.207 464.512 187.09L461.762 184.426C461.046 185.342 460.136 186.051 459.034 186.553C457.931 187.04 456.742 187.283 455.467 187.283C454.536 187.283 453.677 187.126 452.889 186.811C452.116 186.495 451.442 186.051 450.87 185.479C450.297 184.934 449.845 184.318 449.516 183.631C449.187 182.943 448.943 182.091 448.786 181.074V180.967H464.899V178.754C464.899 177.092 464.677 175.56 464.233 174.156C463.789 172.753 463.13 171.542 462.256 170.525C461.383 169.523 460.301 168.742 459.012 168.184C457.723 167.611 456.241 167.324 454.565 167.324C453.061 167.324 451.643 167.611 450.311 168.184C448.993 168.742 447.833 169.544 446.83 170.59C445.828 171.635 445.04 172.896 444.467 174.371C443.894 175.846 443.608 177.493 443.608 179.312V180.193C443.608 181.783 443.88 183.266 444.424 184.641C444.983 186.001 445.771 187.183 446.788 188.186C447.804 189.202 449.022 189.997 450.44 190.57C451.872 191.143 453.448 191.43 455.166 191.43ZM454.543 171.492C455.403 171.492 456.155 171.643 456.799 171.943C457.458 172.23 458.002 172.617 458.432 173.104C458.876 173.605 459.22 174.192 459.463 174.865C459.707 175.524 459.829 176.19 459.829 176.863V177.207H448.893C449.051 176.319 449.294 175.524 449.623 174.822C449.953 174.12 450.361 173.519 450.848 173.018C451.335 172.531 451.886 172.158 452.502 171.9C453.133 171.628 453.813 171.492 454.543 171.492Z" fill="black" fill-opacity="0.5"/>
<path d="M56.5195 114.705C56.5195 115.077 56.4336 115.421 56.2617 115.736C56.1042 116.037 55.8607 116.316 55.5312 116.574C55.1302 116.889 54.5931 117.14 53.9199 117.326C53.2611 117.512 52.4876 117.605 51.5996 117.605C50.9408 117.605 50.2891 117.541 49.6445 117.412C49 117.269 48.4271 117.04 47.9258 116.725C47.4102 116.424 46.9805 116.03 46.6367 115.543C46.3073 115.042 46.1211 114.433 46.0781 113.717H41.0938C41.0938 114.676 41.3229 115.622 41.7812 116.553C42.2396 117.484 42.9128 118.307 43.8008 119.023C44.6745 119.754 45.7559 120.341 47.0449 120.785C48.3483 121.229 49.8379 121.451 51.5137 121.451C53.0176 121.451 54.3854 121.279 55.6172 120.936C56.849 120.592 57.9089 120.112 58.7969 119.496C59.6706 118.88 60.3438 118.143 60.8164 117.283C61.3034 116.424 61.5469 115.479 61.5469 114.447C61.5469 113.387 61.3177 112.471 60.8594 111.697C60.401 110.924 59.7565 110.251 58.9258 109.678C58.0951 109.133 57.0924 108.675 55.918 108.303C54.7435 107.93 53.4473 107.615 52.0293 107.357C51.0124 107.186 50.1673 106.992 49.4941 106.777C48.8353 106.562 48.3197 106.326 47.9473 106.068C47.5462 105.825 47.2669 105.546 47.1094 105.23C46.9518 104.901 46.873 104.536 46.873 104.135C46.873 103.748 46.9661 103.383 47.1523 103.039C47.3385 102.681 47.6178 102.373 47.9902 102.115C48.3626 101.829 48.8353 101.607 49.4082 101.449C49.9954 101.277 50.6758 101.191 51.4492 101.191C52.2943 101.191 53.0319 101.306 53.6621 101.535C54.2923 101.75 54.8079 102.044 55.209 102.416C55.5527 102.731 55.8105 103.089 55.9824 103.49C56.1686 103.877 56.2617 104.285 56.2617 104.715H61.3965C61.3965 103.669 61.1673 102.695 60.709 101.793C60.2507 100.891 59.599 100.11 58.7539 99.4512C57.8945 98.7923 56.849 98.2767 55.6172 97.9043C54.3854 97.5176 52.9961 97.3242 51.4492 97.3242C50.0026 97.3242 48.6849 97.5104 47.4961 97.8828C46.3216 98.2552 45.319 98.7637 44.4883 99.4082C43.6432 100.053 42.9915 100.805 42.5332 101.664C42.0892 102.509 41.8672 103.404 41.8672 104.35C41.8672 105.338 42.0892 106.204 42.5332 106.949C42.9772 107.68 43.5931 108.324 44.3809 108.883C45.1829 109.456 46.1354 109.943 47.2383 110.344C48.3555 110.745 49.5872 111.081 50.9336 111.354C52.0078 111.554 52.903 111.769 53.6191 111.998C54.3353 112.227 54.9154 112.471 55.3594 112.729C55.7747 113.015 56.0684 113.316 56.2402 113.631C56.4264 113.946 56.5195 114.304 56.5195 114.705ZM78.315 117.305C77.2408 117.305 76.3456 117.09 75.6295 116.66C74.9133 116.23 74.3476 115.665 73.9322 114.963C73.5025 114.261 73.1946 113.459 73.0084 112.557C72.8365 111.64 72.7505 110.709 72.7505 109.764V109.012C72.7505 108.081 72.8365 107.164 73.0084 106.262C73.1946 105.359 73.5025 104.557 73.9322 103.855C74.3619 103.154 74.9276 102.588 75.6295 102.158C76.3456 101.714 77.2408 101.492 78.315 101.492C79.0168 101.492 79.6685 101.614 80.2701 101.857C80.886 102.101 81.4159 102.43 81.8599 102.846C82.2896 103.261 82.619 103.748 82.8482 104.307C83.0917 104.865 83.2134 105.46 83.2134 106.09H88.0474C88.0617 104.801 87.8254 103.619 87.3384 102.545C86.8658 101.471 86.1998 100.547 85.3404 99.7734C84.481 99 83.4498 98.3984 82.2466 97.9688C81.0578 97.5391 79.7616 97.3242 78.358 97.3242C76.5819 97.3242 75.0207 97.6393 73.6744 98.2695C72.3423 98.8854 71.2252 99.7233 70.3228 100.783C69.4205 101.843 68.7401 103.082 68.2818 104.5C67.8378 105.918 67.6158 107.422 67.6158 109.012V109.764C67.6158 111.368 67.8449 112.879 68.3033 114.297C68.7616 115.701 69.4348 116.932 70.3228 117.992C71.2252 119.052 72.3423 119.897 73.6744 120.527C75.0207 121.143 76.5891 121.451 78.3795 121.451C79.6685 121.451 80.8931 121.243 82.0533 120.828C83.2278 120.398 84.2662 119.818 85.1685 119.088C86.0565 118.357 86.7584 117.498 87.274 116.51C87.8039 115.507 88.0617 114.44 88.0474 113.309H83.2134C83.2134 113.896 83.0774 114.433 82.8052 114.92C82.5474 115.407 82.1965 115.829 81.7525 116.188C81.2942 116.546 80.7642 116.825 80.1627 117.025C79.5754 117.212 78.9595 117.305 78.315 117.305ZM111.132 97.3242C109.528 97.3242 108.06 97.6966 106.728 98.4414C105.41 99.1862 104.278 100.21 103.333 101.514L103.312 100.977L103.097 97.7539H98.2843V121H103.419V106.648C103.691 105.961 104.028 105.352 104.429 104.822C104.83 104.292 105.317 103.855 105.89 103.512C106.42 103.154 107.028 102.889 107.716 102.717C108.403 102.545 109.177 102.459 110.036 102.459C110.795 102.459 111.554 102.502 112.314 102.588C113.087 102.674 113.868 102.803 114.655 102.975L115.386 97.9043C114.942 97.7467 114.326 97.6107 113.538 97.4961C112.765 97.3815 111.963 97.3242 111.132 97.3242ZM120.982 109.162V109.613C120.982 111.318 121.226 112.886 121.713 114.318C122.2 115.751 122.909 116.997 123.84 118.057C124.756 119.117 125.888 119.947 127.234 120.549C128.58 121.15 130.106 121.451 131.81 121.451C133.5 121.451 135.011 121.15 136.343 120.549C137.69 119.947 138.821 119.117 139.738 118.057C140.655 116.997 141.356 115.751 141.843 114.318C142.33 112.886 142.574 111.318 142.574 109.613V109.162C142.574 107.472 142.33 105.911 141.843 104.479C141.356 103.032 140.655 101.779 139.738 100.719C138.807 99.6589 137.668 98.8281 136.322 98.2266C134.99 97.625 133.472 97.3242 131.767 97.3242C130.063 97.3242 128.545 97.625 127.213 98.2266C125.881 98.8281 124.756 99.6589 123.84 100.719C122.909 101.779 122.2 103.032 121.713 104.479C121.226 105.911 120.982 107.472 120.982 109.162ZM126.117 109.613V109.162C126.117 108.145 126.224 107.171 126.439 106.24C126.668 105.309 127.012 104.493 127.47 103.791C127.943 103.089 128.53 102.531 129.232 102.115C129.948 101.7 130.793 101.492 131.767 101.492C132.756 101.492 133.601 101.7 134.302 102.115C135.019 102.531 135.606 103.089 136.064 103.791C136.522 104.493 136.866 105.309 137.095 106.24C137.325 107.171 137.439 108.145 137.439 109.162V109.613C137.439 110.659 137.325 111.647 137.095 112.578C136.881 113.509 136.544 114.326 136.086 115.027C135.627 115.729 135.04 116.288 134.324 116.703C133.608 117.104 132.77 117.305 131.81 117.305C130.822 117.305 129.97 117.104 129.254 116.703C128.537 116.288 127.943 115.729 127.47 115.027C127.012 114.326 126.668 113.509 126.439 112.578C126.224 111.647 126.117 110.659 126.117 109.613ZM149.781 88V92.2754H157.129V116.746H149.781V121H169.354V116.746H162.307V88H149.781ZM176.647 88V92.2754H183.995V116.746H176.647V121H196.22V116.746H189.173V88H176.647ZM221.968 109.334V105.166H204.673V109.334H221.968ZM244.58 114.705C244.58 115.077 244.494 115.421 244.322 115.736C244.165 116.037 243.921 116.316 243.592 116.574C243.191 116.889 242.654 117.14 241.98 117.326C241.322 117.512 240.548 117.605 239.66 117.605C239.001 117.605 238.35 117.541 237.705 117.412C237.06 117.269 236.488 117.04 235.986 116.725C235.471 116.424 235.041 116.03 234.697 115.543C234.368 115.042 234.182 114.433 234.139 113.717H229.154C229.154 114.676 229.383 115.622 229.842 116.553C230.3 117.484 230.973 118.307 231.861 119.023C232.735 119.754 233.816 120.341 235.105 120.785C236.409 121.229 237.898 121.451 239.574 121.451C241.078 121.451 242.446 121.279 243.678 120.936C244.909 120.592 245.969 120.112 246.857 119.496C247.731 118.88 248.404 118.143 248.877 117.283C249.364 116.424 249.607 115.479 249.607 114.447C249.607 113.387 249.378 112.471 248.92 111.697C248.462 110.924 247.817 110.251 246.986 109.678C246.156 109.133 245.153 108.675 243.978 108.303C242.804 107.93 241.508 107.615 240.09 107.357C239.073 107.186 238.228 106.992 237.555 106.777C236.896 106.562 236.38 106.326 236.008 106.068C235.607 105.825 235.327 105.546 235.17 105.23C235.012 104.901 234.934 104.536 234.934 104.135C234.934 103.748 235.027 103.383 235.213 103.039C235.399 102.681 235.678 102.373 236.051 102.115C236.423 101.829 236.896 101.607 237.469 101.449C238.056 101.277 238.736 101.191 239.51 101.191C240.355 101.191 241.092 101.306 241.723 101.535C242.353 101.75 242.868 102.044 243.269 102.416C243.613 102.731 243.871 103.089 244.043 103.49C244.229 103.877 244.322 104.285 244.322 104.715H249.457C249.457 103.669 249.228 102.695 248.769 101.793C248.311 100.891 247.659 100.11 246.814 99.4512C245.955 98.7923 244.909 98.2767 243.678 97.9043C242.446 97.5176 241.057 97.3242 239.51 97.3242C238.063 97.3242 236.745 97.5104 235.557 97.8828C234.382 98.2552 233.379 98.7637 232.549 99.4082C231.704 100.053 231.052 100.805 230.594 101.664C230.15 102.509 229.928 103.404 229.928 104.35C229.928 105.338 230.15 106.204 230.594 106.949C231.038 107.68 231.654 108.324 232.441 108.883C233.243 109.456 234.196 109.943 235.299 110.344C236.416 110.745 237.648 111.081 238.994 111.354C240.068 111.554 240.963 111.769 241.68 111.998C242.396 112.227 242.976 112.471 243.42 112.729C243.835 113.015 244.129 113.316 244.301 113.631C244.487 113.946 244.58 114.304 244.58 114.705ZM256.256 121H261.391V104.414C261.62 104.027 261.885 103.669 262.186 103.34C262.487 103.01 262.809 102.731 263.153 102.502C263.597 102.201 264.091 101.972 264.635 101.814C265.18 101.643 265.767 101.557 266.397 101.557C267.156 101.557 267.829 101.643 268.416 101.814C269.004 101.972 269.505 102.244 269.92 102.631C270.336 103.018 270.651 103.533 270.866 104.178C271.081 104.822 271.188 105.624 271.188 106.584V121H276.323V106.498C276.323 104.865 276.129 103.476 275.743 102.33C275.356 101.17 274.812 100.217 274.11 99.4727C273.408 98.7279 272.563 98.1836 271.575 97.8398C270.586 97.4961 269.498 97.3242 268.309 97.3242C267.407 97.3242 266.547 97.4531 265.731 97.7109C264.915 97.9688 264.163 98.334 263.475 98.8066C263.045 99.1074 262.637 99.4512 262.25 99.8379C261.878 100.21 261.534 100.618 261.219 101.062L260.897 97.7539H256.256V121ZM297.968 121H303.21V120.635C302.924 120.033 302.702 119.317 302.544 118.486C302.401 117.641 302.329 116.696 302.329 115.65V105.316C302.329 103.999 302.086 102.839 301.599 101.836C301.112 100.819 300.439 99.9811 299.579 99.3223C298.72 98.6634 297.696 98.1693 296.507 97.8398C295.332 97.4961 294.065 97.3242 292.704 97.3242C291.186 97.3242 289.832 97.5247 288.644 97.9258C287.469 98.3125 286.474 98.8424 285.657 99.5156C284.841 100.174 284.218 100.934 283.788 101.793C283.358 102.652 283.136 103.548 283.122 104.479H288.278C288.278 104.035 288.357 103.619 288.515 103.232C288.687 102.831 288.944 102.495 289.288 102.223C289.632 101.922 290.062 101.686 290.577 101.514C291.107 101.342 291.723 101.256 292.425 101.256C293.198 101.256 293.879 101.356 294.466 101.557C295.067 101.743 295.576 102.015 295.991 102.373C296.378 102.731 296.672 103.154 296.872 103.641C297.087 104.128 297.194 104.672 297.194 105.273V106.842H293.456C291.78 106.842 290.276 106.999 288.944 107.314C287.627 107.63 286.517 108.088 285.614 108.689C284.64 109.334 283.896 110.15 283.38 111.139C282.879 112.113 282.628 113.237 282.628 114.512C282.628 115.5 282.821 116.424 283.208 117.283C283.609 118.128 284.161 118.852 284.862 119.453C285.578 120.069 286.431 120.556 287.419 120.914C288.422 121.258 289.524 121.43 290.728 121.43C291.472 121.43 292.167 121.358 292.812 121.215C293.456 121.072 294.058 120.871 294.616 120.613C295.175 120.37 295.676 120.083 296.12 119.754C296.578 119.41 296.987 119.052 297.345 118.68C297.416 119.124 297.495 119.553 297.581 119.969C297.681 120.37 297.81 120.714 297.968 121ZM291.716 117.305C291.057 117.305 290.484 117.226 289.997 117.068C289.51 116.896 289.102 116.667 288.773 116.381C288.443 116.094 288.192 115.751 288.021 115.35C287.849 114.934 287.763 114.49 287.763 114.018C287.763 113.445 287.863 112.929 288.064 112.471C288.278 112.012 288.601 111.618 289.03 111.289C289.517 110.902 290.169 110.609 290.985 110.408C291.802 110.193 292.769 110.086 293.886 110.086H297.194V114.383C297.008 114.755 296.743 115.113 296.399 115.457C296.056 115.801 295.648 116.109 295.175 116.381C294.702 116.653 294.172 116.875 293.585 117.047C293.012 117.219 292.389 117.305 291.716 117.305ZM310.031 129.938H315.166V118.895C315.438 119.195 315.731 119.475 316.046 119.732C316.362 119.976 316.691 120.205 317.035 120.42C317.622 120.749 318.259 121 318.947 121.172C319.649 121.344 320.415 121.43 321.246 121.43C322.707 121.43 324.003 121.129 325.134 120.527C326.266 119.926 327.218 119.095 327.992 118.035C328.765 116.99 329.345 115.743 329.732 114.297C330.133 112.85 330.334 111.289 330.334 109.613V109.162C330.334 107.415 330.133 105.818 329.732 104.371C329.345 102.91 328.765 101.657 327.992 100.611C327.218 99.5658 326.259 98.7565 325.113 98.1836C323.981 97.6107 322.671 97.3242 321.181 97.3242C320.422 97.3242 319.706 97.4102 319.033 97.582C318.36 97.7396 317.744 97.9688 317.185 98.2695C316.755 98.4987 316.354 98.7708 315.982 99.0859C315.61 99.401 315.266 99.752 314.951 100.139L314.757 97.7539H310.031V129.938ZM325.199 109.162V109.613C325.199 110.645 325.099 111.626 324.898 112.557C324.698 113.473 324.375 114.29 323.931 115.006C323.502 115.708 322.943 116.266 322.255 116.682C321.582 117.083 320.766 117.283 319.806 117.283C319.219 117.283 318.682 117.219 318.195 117.09C317.708 116.947 317.271 116.76 316.884 116.531C316.512 116.288 316.183 116.001 315.896 115.672C315.61 115.342 315.366 114.977 315.166 114.576V104.242C315.395 103.812 315.66 103.426 315.961 103.082C316.276 102.738 316.641 102.452 317.056 102.223C317.414 102.008 317.823 101.843 318.281 101.729C318.739 101.614 319.233 101.557 319.763 101.557C320.723 101.557 321.546 101.757 322.234 102.158C322.921 102.559 323.487 103.104 323.931 103.791C324.361 104.479 324.676 105.288 324.877 106.219C325.091 107.135 325.199 108.117 325.199 109.162ZM356.297 109.334V105.166H339.002V109.334H356.297ZM374.032 92.082H368.876V97.7539H363.247V101.6H368.876V113.029C368.876 114.519 369.069 115.794 369.456 116.854C369.857 117.913 370.408 118.787 371.11 119.475C371.812 120.148 372.65 120.649 373.624 120.979C374.612 121.294 375.693 121.451 376.868 121.451C377.512 121.451 378.157 121.415 378.801 121.344C379.46 121.286 380.091 121.201 380.692 121.086C381.294 120.971 381.852 120.835 382.368 120.678C382.898 120.506 383.349 120.305 383.721 120.076L383.163 116.531C382.905 116.589 382.583 116.66 382.196 116.746C381.824 116.818 381.415 116.882 380.971 116.939C380.542 117.011 380.091 117.068 379.618 117.111C379.145 117.154 378.687 117.176 378.243 117.176C377.627 117.176 377.061 117.104 376.546 116.961C376.03 116.818 375.586 116.574 375.214 116.23C374.841 115.901 374.548 115.45 374.333 114.877C374.132 114.29 374.032 113.566 374.032 112.707V101.6H382.776V97.7539H374.032V92.082ZM393.507 130.389C394.639 130.389 395.627 130.188 396.472 129.787C397.317 129.4 398.047 128.913 398.663 128.326C399.279 127.753 399.788 127.123 400.189 126.436C400.604 125.762 400.948 125.125 401.22 124.523L413.015 97.7539H407.322L401.714 112.02L400.747 114.512L399.952 111.955L394.173 97.7539H388.523L398.427 119.969L396.966 122.74C396.809 123.055 396.637 123.356 396.45 123.643C396.279 123.929 396.049 124.258 395.763 124.631C395.462 125.003 395.111 125.333 394.71 125.619C394.309 125.92 393.858 126.07 393.357 126.07C393.128 126.07 392.827 126.056 392.454 126.027C392.096 126.013 391.774 125.999 391.488 125.984L390.779 130.002C391.194 130.102 391.631 130.188 392.089 130.26C392.547 130.346 393.02 130.389 393.507 130.389ZM417.494 129.938H422.629V118.895C422.901 119.195 423.195 119.475 423.51 119.732C423.825 119.976 424.154 120.205 424.498 120.42C425.085 120.749 425.723 121 426.41 121.172C427.112 121.344 427.878 121.43 428.709 121.43C430.17 121.43 431.466 121.129 432.598 120.527C433.729 119.926 434.681 119.095 435.455 118.035C436.228 116.99 436.808 115.743 437.195 114.297C437.596 112.85 437.797 111.289 437.797 109.613V109.162C437.797 107.415 437.596 105.818 437.195 104.371C436.808 102.91 436.228 101.657 435.455 100.611C434.681 99.5658 433.722 98.7565 432.576 98.1836C431.445 97.6107 430.134 97.3242 428.644 97.3242C427.885 97.3242 427.169 97.4102 426.496 97.582C425.823 97.7396 425.207 97.9688 424.648 98.2695C424.219 98.4987 423.818 98.7708 423.445 99.0859C423.073 99.401 422.729 99.752 422.414 100.139L422.221 97.7539H417.494V129.938ZM432.662 109.162V109.613C432.662 110.645 432.562 111.626 432.361 112.557C432.161 113.473 431.838 114.29 431.394 115.006C430.965 115.708 430.406 116.266 429.719 116.682C429.045 117.083 428.229 117.283 427.269 117.283C426.682 117.283 426.145 117.219 425.658 117.09C425.171 116.947 424.734 116.76 424.348 116.531C423.975 116.288 423.646 116.001 423.359 115.672C423.073 115.342 422.829 114.977 422.629 114.576V104.242C422.858 103.812 423.123 103.426 423.424 103.082C423.739 102.738 424.104 102.452 424.519 102.223C424.877 102.008 425.286 101.843 425.744 101.729C426.202 101.614 426.696 101.557 427.226 101.557C428.186 101.557 429.01 101.757 429.697 102.158C430.385 102.559 430.95 103.104 431.394 103.791C431.824 104.479 432.139 105.288 432.34 106.219C432.555 107.135 432.662 108.117 432.662 109.162ZM455.166 121.43C457.429 121.43 459.356 120.986 460.946 120.098C462.55 119.21 463.739 118.207 464.512 117.09L461.762 114.426C461.046 115.342 460.136 116.051 459.034 116.553C457.931 117.04 456.742 117.283 455.467 117.283C454.536 117.283 453.677 117.126 452.889 116.811C452.116 116.495 451.442 116.051 450.87 115.479C450.297 114.934 449.845 114.318 449.516 113.631C449.187 112.943 448.943 112.091 448.786 111.074V110.967H464.899V108.754C464.899 107.092 464.677 105.56 464.233 104.156C463.789 102.753 463.13 101.542 462.256 100.525C461.383 99.5228 460.301 98.7422 459.012 98.1836C457.723 97.6107 456.241 97.3242 454.565 97.3242C453.061 97.3242 451.643 97.6107 450.311 98.1836C448.993 98.7422 447.833 99.5443 446.83 100.59C445.828 101.635 445.04 102.896 444.467 104.371C443.894 105.846 443.608 107.493 443.608 109.312V110.193C443.608 111.783 443.88 113.266 444.424 114.641C444.983 116.001 445.771 117.183 446.788 118.186C447.804 119.202 449.022 119.997 450.44 120.57C451.872 121.143 453.448 121.43 455.166 121.43ZM454.543 101.492C455.403 101.492 456.155 101.643 456.799 101.943C457.458 102.23 458.002 102.617 458.432 103.104C458.876 103.605 459.22 104.192 459.463 104.865C459.707 105.524 459.829 106.19 459.829 106.863V107.207H448.893C449.051 106.319 449.294 105.524 449.623 104.822C449.953 104.12 450.361 103.519 450.848 103.018C451.335 102.531 451.886 102.158 452.502 101.9C453.133 101.628 453.813 101.492 454.543 101.492Z" fill="black" fill-opacity="0.25"/>
<path d="M56.5195 44.7051C56.5195 45.0775 56.4336 45.4212 56.2617 45.7363C56.1042 46.0371 55.8607 46.3164 55.5312 46.5742C55.1302 46.8893 54.5931 47.14 53.9199 47.3262C53.2611 47.5124 52.4876 47.6055 51.5996 47.6055C50.9408 47.6055 50.2891 47.541 49.6445 47.4121C49 47.2689 48.4271 47.0397 47.9258 46.7246C47.4102 46.4238 46.9805 46.0299 46.6367 45.543C46.3073 45.0417 46.1211 44.4329 46.0781 43.7168H41.0938C41.0938 44.6764 41.3229 45.6217 41.7812 46.5527C42.2396 47.4837 42.9128 48.3073 43.8008 49.0234C44.6745 49.7539 45.7559 50.3411 47.0449 50.7852C48.3483 51.2292 49.8379 51.4512 51.5137 51.4512C53.0176 51.4512 54.3854 51.2793 55.6172 50.9355C56.849 50.5918 57.9089 50.112 58.7969 49.4961C59.6706 48.8802 60.3438 48.1426 60.8164 47.2832C61.3034 46.4238 61.5469 45.4785 61.5469 44.4473C61.5469 43.3874 61.3177 42.4707 60.8594 41.6973C60.401 40.9238 59.7565 40.2507 58.9258 39.6777C58.0951 39.1335 57.0924 38.6751 55.918 38.3027C54.7435 37.9303 53.4473 37.6152 52.0293 37.3574C51.0124 37.1855 50.1673 36.9922 49.4941 36.7773C48.8353 36.5625 48.3197 36.3262 47.9473 36.0684C47.5462 35.8249 47.2669 35.5456 47.1094 35.2305C46.9518 34.901 46.873 34.5358 46.873 34.1348C46.873 33.748 46.9661 33.3828 47.1523 33.0391C47.3385 32.681 47.6178 32.373 47.9902 32.1152C48.3626 31.8288 48.8353 31.6068 49.4082 31.4492C49.9954 31.2773 50.6758 31.1914 51.4492 31.1914C52.2943 31.1914 53.0319 31.306 53.6621 31.5352C54.2923 31.75 54.8079 32.0436 55.209 32.416C55.5527 32.7311 55.8105 33.0892 55.9824 33.4902C56.1686 33.877 56.2617 34.2852 56.2617 34.7148H61.3965C61.3965 33.6693 61.1673 32.6953 60.709 31.793C60.2507 30.8906 59.599 30.11 58.7539 29.4512C57.8945 28.7923 56.849 28.2767 55.6172 27.9043C54.3854 27.5176 52.9961 27.3242 51.4492 27.3242C50.0026 27.3242 48.6849 27.5104 47.4961 27.8828C46.3216 28.2552 45.319 28.7637 44.4883 29.4082C43.6432 30.0527 42.9915 30.8047 42.5332 31.6641C42.0892 32.5091 41.8672 33.4043 41.8672 34.3496C41.8672 35.3379 42.0892 36.2044 42.5332 36.9492C42.9772 37.6797 43.5931 38.3242 44.3809 38.8828C45.1829 39.4557 46.1354 39.9427 47.2383 40.3438C48.3555 40.7448 49.5872 41.0814 50.9336 41.3535C52.0078 41.554 52.903 41.7689 53.6191 41.998C54.3353 42.2272 54.9154 42.4707 55.3594 42.7285C55.7747 43.015 56.0684 43.3158 56.2402 43.6309C56.4264 43.946 56.5195 44.304 56.5195 44.7051ZM78.315 47.3047C77.2408 47.3047 76.3456 47.0898 75.6295 46.6602C74.9133 46.2305 74.3476 45.6647 73.9322 44.9629C73.5025 44.2611 73.1946 43.459 73.0084 42.5566C72.8365 41.64 72.7505 40.709 72.7505 39.7637V39.0117C72.7505 38.0807 72.8365 37.1641 73.0084 36.2617C73.1946 35.3594 73.5025 34.5573 73.9322 33.8555C74.3619 33.1536 74.9276 32.5879 75.6295 32.1582C76.3456 31.7142 77.2408 31.4922 78.315 31.4922C79.0168 31.4922 79.6685 31.6139 80.2701 31.8574C80.886 32.1009 81.4159 32.4303 81.8599 32.8457C82.2896 33.2611 82.619 33.748 82.8482 34.3066C83.0917 34.8652 83.2134 35.4596 83.2134 36.0898H88.0474C88.0617 34.8008 87.8254 33.6191 87.3384 32.5449C86.8658 31.4707 86.1998 30.5469 85.3404 29.7734C84.481 29 83.4498 28.3984 82.2466 27.9688C81.0578 27.5391 79.7616 27.3242 78.358 27.3242C76.5819 27.3242 75.0207 27.6393 73.6744 28.2695C72.3423 28.8854 71.2252 29.7233 70.3228 30.7832C69.4205 31.8431 68.7401 33.082 68.2818 34.5C67.8378 35.918 67.6158 37.4219 67.6158 39.0117V39.7637C67.6158 41.3678 67.8449 42.8789 68.3033 44.2969C68.7616 45.7005 69.4348 46.9323 70.3228 47.9922C71.2252 49.0521 72.3423 49.8971 73.6744 50.5273C75.0207 51.1432 76.5891 51.4512 78.3795 51.4512C79.6685 51.4512 80.8931 51.2435 82.0533 50.8281C83.2278 50.3984 84.2662 49.8184 85.1685 49.0879C86.0565 48.3574 86.7584 47.498 87.274 46.5098C87.8039 45.5072 88.0617 44.4401 88.0474 43.3086H83.2134C83.2134 43.8958 83.0774 44.4329 82.8052 44.9199C82.5474 45.4069 82.1965 45.8294 81.7525 46.1875C81.2942 46.5456 80.7642 46.8249 80.1627 47.0254C79.5754 47.2116 78.9595 47.3047 78.315 47.3047ZM111.132 27.3242C109.528 27.3242 108.06 27.6966 106.728 28.4414C105.41 29.1862 104.278 30.2103 103.333 31.5137L103.312 30.9766L103.097 27.7539H98.2843V51H103.419V36.6484C103.691 35.9609 104.028 35.3522 104.429 34.8223C104.83 34.2923 105.317 33.8555 105.89 33.5117C106.42 33.1536 107.028 32.8887 107.716 32.7168C108.403 32.5449 109.177 32.459 110.036 32.459C110.795 32.459 111.554 32.502 112.314 32.5879C113.087 32.6738 113.868 32.8027 114.655 32.9746L115.386 27.9043C114.942 27.7467 114.326 27.6107 113.538 27.4961C112.765 27.3815 111.963 27.3242 111.132 27.3242ZM120.982 39.1621V39.6133C120.982 41.3177 121.226 42.8861 121.713 44.3184C122.2 45.7507 122.909 46.9967 123.84 48.0566C124.756 49.1165 125.888 49.9473 127.234 50.5488C128.58 51.1504 130.106 51.4512 131.81 51.4512C133.5 51.4512 135.011 51.1504 136.343 50.5488C137.69 49.9473 138.821 49.1165 139.738 48.0566C140.655 46.9967 141.356 45.7507 141.843 44.3184C142.33 42.8861 142.574 41.3177 142.574 39.6133V39.1621C142.574 37.472 142.33 35.9108 141.843 34.4785C141.356 33.0319 140.655 31.7786 139.738 30.7188C138.807 29.6589 137.668 28.8281 136.322 28.2266C134.99 27.625 133.472 27.3242 131.767 27.3242C130.063 27.3242 128.545 27.625 127.213 28.2266C125.881 28.8281 124.756 29.6589 123.84 30.7188C122.909 31.7786 122.2 33.0319 121.713 34.4785C121.226 35.9108 120.982 37.472 120.982 39.1621ZM126.117 39.6133V39.1621C126.117 38.1452 126.224 37.1712 126.439 36.2402C126.668 35.3092 127.012 34.4928 127.47 33.791C127.943 33.0892 128.53 32.5306 129.232 32.1152C129.948 31.6999 130.793 31.4922 131.767 31.4922C132.756 31.4922 133.601 31.6999 134.302 32.1152C135.019 32.5306 135.606 33.0892 136.064 33.791C136.522 34.4928 136.866 35.3092 137.095 36.2402C137.325 37.1712 137.439 38.1452 137.439 39.1621V39.6133C137.439 40.6589 137.325 41.6471 137.095 42.5781C136.881 43.5091 136.544 44.3255 136.086 45.0273C135.627 45.7292 135.04 46.2878 134.324 46.7031C133.608 47.1042 132.77 47.3047 131.81 47.3047C130.822 47.3047 129.97 47.1042 129.254 46.7031C128.537 46.2878 127.943 45.7292 127.47 45.0273C127.012 44.3255 126.668 43.5091 126.439 42.5781C126.224 41.6471 126.117 40.6589 126.117 39.6133ZM149.781 18V22.2754H157.129V46.7461H149.781V51H169.354V46.7461H162.307V18H149.781ZM176.647 18V22.2754H183.995V46.7461H176.647V51H196.22V46.7461H189.173V18H176.647ZM221.968 39.334V35.166H204.673V39.334H221.968ZM244.58 44.7051C244.58 45.0775 244.494 45.4212 244.322 45.7363C244.165 46.0371 243.921 46.3164 243.592 46.5742C243.191 46.8893 242.654 47.14 241.98 47.3262C241.322 47.5124 240.548 47.6055 239.66 47.6055C239.001 47.6055 238.35 47.541 237.705 47.4121C237.06 47.2689 236.488 47.0397 235.986 46.7246C235.471 46.4238 235.041 46.0299 234.697 45.543C234.368 45.0417 234.182 44.4329 234.139 43.7168H229.154C229.154 44.6764 229.383 45.6217 229.842 46.5527C230.3 47.4837 230.973 48.3073 231.861 49.0234C232.735 49.7539 233.816 50.3411 235.105 50.7852C236.409 51.2292 237.898 51.4512 239.574 51.4512C241.078 51.4512 242.446 51.2793 243.678 50.9355C244.909 50.5918 245.969 50.112 246.857 49.4961C247.731 48.8802 248.404 48.1426 248.877 47.2832C249.364 46.4238 249.607 45.4785 249.607 44.4473C249.607 43.3874 249.378 42.4707 248.92 41.6973C248.462 40.9238 247.817 40.2507 246.986 39.6777C246.156 39.1335 245.153 38.6751 243.978 38.3027C242.804 37.9303 241.508 37.6152 240.09 37.3574C239.073 37.1855 238.228 36.9922 237.555 36.7773C236.896 36.5625 236.38 36.3262 236.008 36.0684C235.607 35.8249 235.327 35.5456 235.17 35.2305C235.012 34.901 234.934 34.5358 234.934 34.1348C234.934 33.748 235.027 33.3828 235.213 33.0391C235.399 32.681 235.678 32.373 236.051 32.1152C236.423 31.8288 236.896 31.6068 237.469 31.4492C238.056 31.2773 238.736 31.1914 239.51 31.1914C240.355 31.1914 241.092 31.306 241.723 31.5352C242.353 31.75 242.868 32.0436 243.269 32.416C243.613 32.7311 243.871 33.0892 244.043 33.4902C244.229 33.877 244.322 34.2852 244.322 34.7148H249.457C249.457 33.6693 249.228 32.6953 248.769 31.793C248.311 30.8906 247.659 30.11 246.814 29.4512C245.955 28.7923 244.909 28.2767 243.678 27.9043C242.446 27.5176 241.057 27.3242 239.51 27.3242C238.063 27.3242 236.745 27.5104 235.557 27.8828C234.382 28.2552 233.379 28.7637 232.549 29.4082C231.704 30.0527 231.052 30.8047 230.594 31.6641C230.15 32.5091 229.928 33.4043 229.928 34.3496C229.928 35.3379 230.15 36.2044 230.594 36.9492C231.038 37.6797 231.654 38.3242 232.441 38.8828C233.243 39.4557 234.196 39.9427 235.299 40.3438C236.416 40.7448 237.648 41.0814 238.994 41.3535C240.068 41.554 240.963 41.7689 241.68 41.998C242.396 42.2272 242.976 42.4707 243.42 42.7285C243.835 43.015 244.129 43.3158 244.301 43.6309C244.487 43.946 244.58 44.304 244.58 44.7051ZM256.256 51H261.391V34.4141C261.62 34.0273 261.885 33.6693 262.186 33.3398C262.487 33.0104 262.809 32.7311 263.153 32.502C263.597 32.2012 264.091 31.972 264.635 31.8145C265.18 31.6426 265.767 31.5566 266.397 31.5566C267.156 31.5566 267.829 31.6426 268.416 31.8145C269.004 31.972 269.505 32.2441 269.92 32.6309C270.336 33.0176 270.651 33.5332 270.866 34.1777C271.081 34.8223 271.188 35.6243 271.188 36.584V51H276.323V36.498C276.323 34.8652 276.129 33.4759 275.743 32.3301C275.356 31.1699 274.812 30.2174 274.11 29.4727C273.408 28.7279 272.563 28.1836 271.575 27.8398C270.586 27.4961 269.498 27.3242 268.309 27.3242C267.407 27.3242 266.547 27.4531 265.731 27.7109C264.915 27.9688 264.163 28.334 263.475 28.8066C263.045 29.1074 262.637 29.4512 262.25 29.8379C261.878 30.2103 261.534 30.6185 261.219 31.0625L260.897 27.7539H256.256V51ZM297.968 51H303.21V50.6348C302.924 50.0332 302.702 49.3171 302.544 48.4863C302.401 47.6413 302.329 46.696 302.329 45.6504V35.3164C302.329 33.9987 302.086 32.8385 301.599 31.8359C301.112 30.819 300.439 29.9811 299.579 29.3223C298.72 28.6634 297.696 28.1693 296.507 27.8398C295.332 27.4961 294.065 27.3242 292.704 27.3242C291.186 27.3242 289.832 27.5247 288.644 27.9258C287.469 28.3125 286.474 28.8424 285.657 29.5156C284.841 30.1745 284.218 30.9336 283.788 31.793C283.358 32.6523 283.136 33.5475 283.122 34.4785H288.278C288.278 34.0345 288.357 33.6191 288.515 33.2324C288.687 32.8314 288.944 32.4948 289.288 32.2227C289.632 31.9219 290.062 31.6855 290.577 31.5137C291.107 31.3418 291.723 31.2559 292.425 31.2559C293.198 31.2559 293.879 31.3561 294.466 31.5566C295.067 31.7428 295.576 32.015 295.991 32.373C296.378 32.7311 296.672 33.1536 296.872 33.6406C297.087 34.1276 297.194 34.6719 297.194 35.2734V36.8418H293.456C291.78 36.8418 290.276 36.9993 288.944 37.3145C287.627 37.6296 286.517 38.0879 285.614 38.6895C284.64 39.334 283.896 40.1504 283.38 41.1387C282.879 42.1126 282.628 43.237 282.628 44.5117C282.628 45.5 282.821 46.4238 283.208 47.2832C283.609 48.1283 284.161 48.8516 284.862 49.4531C285.578 50.069 286.431 50.556 287.419 50.9141C288.422 51.2578 289.524 51.4297 290.728 51.4297C291.472 51.4297 292.167 51.3581 292.812 51.2148C293.456 51.0716 294.058 50.8711 294.616 50.6133C295.175 50.3698 295.676 50.0833 296.12 49.7539C296.578 49.4102 296.987 49.0521 297.345 48.6797C297.416 49.1237 297.495 49.5534 297.581 49.9688C297.681 50.3698 297.81 50.7135 297.968 51ZM291.716 47.3047C291.057 47.3047 290.484 47.2259 289.997 47.0684C289.51 46.8965 289.102 46.6673 288.773 46.3809C288.443 46.0944 288.192 45.7507 288.021 45.3496C287.849 44.9342 287.763 44.4902 287.763 44.0176C287.763 43.4447 287.863 42.929 288.064 42.4707C288.278 42.0124 288.601 41.6185 289.03 41.2891C289.517 40.9023 290.169 40.6087 290.985 40.4082C291.802 40.1934 292.769 40.0859 293.886 40.0859H297.194V44.3828C297.008 44.7552 296.743 45.1133 296.399 45.457C296.056 45.8008 295.648 46.1087 295.175 46.3809C294.702 46.653 294.172 46.875 293.585 47.0469C293.012 47.2188 292.389 47.3047 291.716 47.3047ZM310.031 59.9375H315.166V48.8945C315.438 49.1953 315.731 49.4746 316.046 49.7324C316.362 49.9759 316.691 50.2051 317.035 50.4199C317.622 50.7493 318.259 51 318.947 51.1719C319.649 51.3438 320.415 51.4297 321.246 51.4297C322.707 51.4297 324.003 51.1289 325.134 50.5273C326.266 49.9258 327.218 49.0951 327.992 48.0352C328.765 46.9896 329.345 45.7435 329.732 44.2969C330.133 42.8503 330.334 41.2891 330.334 39.6133V39.1621C330.334 37.4147 330.133 35.8177 329.732 34.3711C329.345 32.9102 328.765 31.6569 327.992 30.6113C327.218 29.5658 326.259 28.7565 325.113 28.1836C323.981 27.6107 322.671 27.3242 321.181 27.3242C320.422 27.3242 319.706 27.4102 319.033 27.582C318.36 27.7396 317.744 27.9688 317.185 28.2695C316.755 28.4987 316.354 28.7708 315.982 29.0859C315.61 29.401 315.266 29.752 314.951 30.1387L314.757 27.7539H310.031V59.9375ZM325.199 39.1621V39.6133C325.199 40.6445 325.099 41.6257 324.898 42.5566C324.698 43.4733 324.375 44.2897 323.931 45.0059C323.502 45.7077 322.943 46.2663 322.255 46.6816C321.582 47.0827 320.766 47.2832 319.806 47.2832C319.219 47.2832 318.682 47.2188 318.195 47.0898C317.708 46.9466 317.271 46.7604 316.884 46.5312C316.512 46.2878 316.183 46.0013 315.896 45.6719C315.61 45.3424 315.366 44.9772 315.166 44.5762V34.2422C315.395 33.8125 315.66 33.4258 315.961 33.082C316.276 32.7383 316.641 32.4518 317.056 32.2227C317.414 32.0078 317.823 31.8431 318.281 31.7285C318.739 31.6139 319.233 31.5566 319.763 31.5566C320.723 31.5566 321.546 31.7572 322.234 32.1582C322.921 32.5592 323.487 33.1035 323.931 33.791C324.361 34.4785 324.676 35.2878 324.877 36.2188C325.091 37.1354 325.199 38.1165 325.199 39.1621ZM356.297 39.334V35.166H339.002V39.334H356.297ZM374.032 22.082H368.876V27.7539H363.247V31.5996H368.876V43.0293C368.876 44.5189 369.069 45.7936 369.456 46.8535C369.857 47.9134 370.408 48.7871 371.11 49.4746C371.812 50.1478 372.65 50.6491 373.624 50.9785C374.612 51.2936 375.693 51.4512 376.868 51.4512C377.512 51.4512 378.157 51.4154 378.801 51.3438C379.46 51.2865 380.091 51.2005 380.692 51.0859C381.294 50.9714 381.852 50.8353 382.368 50.6777C382.898 50.5059 383.349 50.3053 383.721 50.0762L383.163 46.5312C382.905 46.5885 382.583 46.6602 382.196 46.7461C381.824 46.8177 381.415 46.8822 380.971 46.9395C380.542 47.0111 380.091 47.0684 379.618 47.1113C379.145 47.1543 378.687 47.1758 378.243 47.1758C377.627 47.1758 377.061 47.1042 376.546 46.9609C376.03 46.8177 375.586 46.5742 375.214 46.2305C374.841 45.901 374.548 45.4499 374.333 44.877C374.132 44.2897 374.032 43.5664 374.032 42.707V31.5996H382.776V27.7539H374.032V22.082ZM393.507 60.3887C394.639 60.3887 395.627 60.1882 396.472 59.7871C397.317 59.4004 398.047 58.9134 398.663 58.3262C399.279 57.7533 399.788 57.123 400.189 56.4355C400.604 55.7624 400.948 55.125 401.22 54.5234L413.015 27.7539H407.322L401.714 42.0195L400.747 44.5117L399.952 41.9551L394.173 27.7539H388.523L398.427 49.9688L396.966 52.7402C396.809 53.0553 396.637 53.3561 396.45 53.6426C396.279 53.929 396.049 54.2585 395.763 54.6309C395.462 55.0033 395.111 55.3327 394.71 55.6191C394.309 55.9199 393.858 56.0703 393.357 56.0703C393.128 56.0703 392.827 56.056 392.454 56.0273C392.096 56.013 391.774 55.9987 391.488 55.9844L390.779 60.002C391.194 60.1022 391.631 60.1882 392.089 60.2598C392.547 60.3457 393.02 60.3887 393.507 60.3887ZM417.494 59.9375H422.629V48.8945C422.901 49.1953 423.195 49.4746 423.51 49.7324C423.825 49.9759 424.154 50.2051 424.498 50.4199C425.085 50.7493 425.723 51 426.41 51.1719C427.112 51.3438 427.878 51.4297 428.709 51.4297C430.17 51.4297 431.466 51.1289 432.598 50.5273C433.729 49.9258 434.681 49.0951 435.455 48.0352C436.228 46.9896 436.808 45.7435 437.195 44.2969C437.596 42.8503 437.797 41.2891 437.797 39.6133V39.1621C437.797 37.4147 437.596 35.8177 437.195 34.3711C436.808 32.9102 436.228 31.6569 435.455 30.6113C434.681 29.5658 433.722 28.7565 432.576 28.1836C431.445 27.6107 430.134 27.3242 428.644 27.3242C427.885 27.3242 427.169 27.4102 426.496 27.582C425.823 27.7396 425.207 27.9688 424.648 28.2695C424.219 28.4987 423.818 28.7708 423.445 29.0859C423.073 29.401 422.729 29.752 422.414 30.1387L422.221 27.7539H417.494V59.9375ZM432.662 39.1621V39.6133C432.662 40.6445 432.562 41.6257 432.361 42.5566C432.161 43.4733 431.838 44.2897 431.394 45.0059C430.965 45.7077 430.406 46.2663 429.719 46.6816C429.045 47.0827 428.229 47.2832 427.269 47.2832C426.682 47.2832 426.145 47.2188 425.658 47.0898C425.171 46.9466 424.734 46.7604 424.348 46.5312C423.975 46.2878 423.646 46.0013 423.359 45.6719C423.073 45.3424 422.829 44.9772 422.629 44.5762V34.2422C422.858 33.8125 423.123 33.4258 423.424 33.082C423.739 32.7383 424.104 32.4518 424.519 32.2227C424.877 32.0078 425.286 31.8431 425.744 31.7285C426.202 31.6139 426.696 31.5566 427.226 31.5566C428.186 31.5566 429.01 31.7572 429.697 32.1582C430.385 32.5592 430.95 33.1035 431.394 33.791C431.824 34.4785 432.139 35.2878 432.34 36.2188C432.555 37.1354 432.662 38.1165 432.662 39.1621ZM455.166 51.4297C457.429 51.4297 459.356 50.9857 460.946 50.0977C462.55 49.2096 463.739 48.207 464.512 47.0898L461.762 44.4258C461.046 45.3424 460.136 46.0514 459.034 46.5527C457.931 47.0397 456.742 47.2832 455.467 47.2832C454.536 47.2832 453.677 47.1257 452.889 46.8105C452.116 46.4954 451.442 46.0514 450.87 45.4785C450.297 44.9342 449.845 44.3184 449.516 43.6309C449.187 42.9434 448.943 42.0911 448.786 41.0742V40.9668H464.899V38.7539C464.899 37.0924 464.677 35.5599 464.233 34.1562C463.789 32.7526 463.13 31.5423 462.256 30.5254C461.383 29.5228 460.301 28.7422 459.012 28.1836C457.723 27.6107 456.241 27.3242 454.565 27.3242C453.061 27.3242 451.643 27.6107 450.311 28.1836C448.993 28.7422 447.833 29.5443 446.83 30.5898C445.828 31.6354 445.04 32.8958 444.467 34.3711C443.894 35.8464 443.608 37.4935 443.608 39.3125V40.1934C443.608 41.7832 443.88 43.2656 444.424 44.6406C444.983 46.0013 445.771 47.1829 446.788 48.1855C447.804 49.2025 449.022 49.9974 450.44 50.5703C451.872 51.1432 453.448 51.4297 455.166 51.4297ZM454.543 31.4922C455.403 31.4922 456.155 31.6426 456.799 31.9434C457.458 32.2298 458.002 32.6165 458.432 33.1035C458.876 33.6048 459.22 34.1921 459.463 34.8652C459.707 35.5241 459.829 36.1901 459.829 36.8633V37.207H448.893C449.051 36.319 449.294 35.5241 449.623 34.8223C449.953 34.1204 450.361 33.5189 450.848 33.0176C451.335 32.5306 451.886 32.1582 452.502 31.9004C453.133 31.6283 453.813 31.4922 454.543 31.4922Z" fill="black" fill-opacity="0.05"/>
<rect x="520" y="8" width="27" height="335" fill="#C4C4C4" fill-opacity="0.3"/>
<rect x="523" y="232" width="21" height="108" rx="10.5" fill="#585661"/>
</g>
</svg>
