<svg width="560" height="350" viewBox="0 0 560 350" fill="none" xmlns="http://www.w3.org/2000/svg">
<rect width="560" height="350" fill="#EFEFEF"/>
<mask id="mask0" mask-type="alpha" maskUnits="userSpaceOnUse" x="0" y="0" width="560" height="350">
<rect width="560" height="350" fill="#EFEFEF"/>
</mask>
<g mask="url(#mask0)">
<rect x="57" y="16" width="315.738" height="127.211" fill="white" stroke="black" stroke-width="4" stroke-dasharray="4 8"/>
<path d="M104.706 55.9212H101.185V100.329H104.706V79.1319H128.422V100.329H131.943V55.9212H128.422V75.554H104.706V55.9212Z" fill="black"/>
<path fill-rule="evenodd" clip-rule="evenodd" d="M68.7373 77.9476L92.7769 36.2633L140.856 36.2633L164.896 77.9476L140.856 119.632H92.7769L68.7373 77.9476ZM94.0795 50.237H110.895V69.6581H122.501V50.237L139.316 50.237V105.895H122.501V84.8161H110.895V105.895H94.0795V50.237Z" fill="black"/>
<path d="M199.427 84.816H192.525V72.7925H182.301V84.816H175.36V56.023H182.301V67.4532H192.525V56.023H199.427V84.816Z" fill="black"/>
<path d="M221.694 72.6146H210.778V79.4766H223.671V84.816H203.837V56.023H223.711V61.3821H210.778V67.4532H221.694V72.6146Z" fill="black"/>
<path d="M237.237 65.5943L241.944 56.023H249.874L241.825 70.3008L250.091 84.816H242.082L237.237 75.0667L232.392 84.816H224.403L232.649 70.3008L224.621 56.023L232.531 56.023L237.237 65.5943Z" fill="black"/>
<path d="M268.72 79.4371H259.208L257.547 84.816H250.131L260.691 56.023H267.217L277.856 84.816H270.401L268.72 79.4371ZM260.869 74.0779H267.059L263.954 64.0913L260.869 74.0779Z" fill="black"/>
<path d="M303.109 81.2564C302.041 82.443 300.479 83.3988 298.423 84.1239C296.366 84.849 294.112 85.2115 291.659 85.2115C287.889 85.2115 284.876 84.058 282.622 81.7508C280.368 79.4437 279.161 76.2335 279.003 72.1202L278.983 69.6285C278.983 66.794 279.484 64.3221 280.486 62.2127C281.488 60.0901 282.919 58.4619 284.777 57.3281C286.65 56.1812 288.812 55.6077 291.264 55.6077C294.85 55.6077 297.632 56.4316 299.609 58.0796C301.6 59.7144 302.76 62.1599 303.09 65.4163L296.405 65.4163C296.168 63.8079 295.654 62.6609 294.863 61.9754C294.072 61.2898 292.951 60.947 291.501 60.947C289.761 60.947 288.416 61.6853 287.467 63.1619C286.518 64.6385 286.037 66.7478 286.023 69.49V71.2303C286.023 74.1043 286.511 76.2664 287.487 77.7166C288.476 79.1536 290.025 79.8722 292.134 79.8722C293.94 79.8722 295.285 79.4701 296.168 78.6658V74.1966H291.343V69.4307L303.109 69.4307V81.2564Z" fill="black"/>
<path d="M331.527 71.0127C331.527 73.8209 331.006 76.306 329.964 78.4681C328.923 80.6302 327.44 82.2979 325.515 83.4713C323.603 84.6314 321.421 85.2115 318.969 85.2115C316.517 85.2115 314.342 84.6512 312.443 83.5306C310.545 82.3968 309.062 80.7818 307.994 78.6856C306.939 76.5894 306.385 74.1834 306.333 71.4676V69.846C306.333 67.0247 306.847 64.5396 307.875 62.3906C308.917 60.2285 310.4 58.5608 312.325 57.3875C314.263 56.2141 316.464 55.6274 318.93 55.6274C321.369 55.6274 323.544 56.2075 325.456 57.3677C327.367 58.5278 328.85 60.1824 329.905 62.3313C330.973 64.4671 331.513 66.9192 331.527 69.6878V71.0127ZM324.467 69.8064C324.467 66.9456 323.986 64.7769 323.023 63.3003C322.074 61.8106 320.71 61.0657 318.93 61.0657C315.449 61.0657 313.61 63.6761 313.412 68.8968L313.393 71.0127C313.393 73.834 313.861 76.0028 314.797 77.5189C315.733 79.035 317.124 79.7931 318.969 79.7931C320.723 79.7931 322.074 79.0482 323.023 77.5584C323.972 76.0687 324.454 73.9263 324.467 71.1314V69.8064Z" fill="black"/>
<path d="M359.153 84.816H352.251L342.047 66.8995V84.816H335.106V56.023H342.047L352.232 73.9395V56.023H359.153V84.816Z" fill="black"/>
<path d="M181.913 96.2206L182.995 90.3078H185.248L183.247 99.7372H180.89L179.627 94.3619L178.39 99.7372H176.039L174.031 90.3078H176.292L177.373 96.2206L178.668 90.3078H180.598L181.913 96.2206Z" fill="black"/>
<path d="M191.983 95.7414H188.409V97.9886H192.631V99.7372H186.135V90.3078H192.644V92.0629H188.409V94.0511H191.983V95.7414Z" fill="black"/>
<path d="M193.557 99.7372V90.3078H196.944C198.157 90.3078 199.079 90.5302 199.71 90.9749C200.344 91.4196 200.662 92.065 200.662 92.9113C200.662 93.3991 200.549 93.8158 200.325 94.1612C200.1 94.5066 199.77 94.7613 199.334 94.9254C199.826 95.0549 200.204 95.2967 200.467 95.6507C200.731 96.0047 200.862 96.4365 200.862 96.9459C200.862 97.8699 200.569 98.565 199.982 99.0312C199.399 99.4932 198.533 99.7285 197.385 99.7372H193.557ZM195.83 95.7284V97.9886H197.32C197.73 97.9886 198.045 97.8958 198.265 97.7101C198.486 97.5201 198.596 97.2546 198.596 96.9135C198.596 96.1278 198.205 95.7327 197.423 95.7284H195.83ZM195.83 94.2389H197.015C197.512 94.2346 197.866 94.1439 198.078 93.9669C198.289 93.7899 198.395 93.5287 198.395 93.1833C198.395 92.7861 198.28 92.5011 198.052 92.3284C197.823 92.1514 197.454 92.0629 196.944 92.0629H195.83V94.2389Z" fill="black"/>
<path d="M205.422 99.7372V90.3078H208.459C209.292 90.3078 210.041 90.4978 210.706 90.8777C211.371 91.2534 211.889 91.7866 212.26 92.4774C212.636 93.1638 212.826 93.9345 212.83 94.7894V95.2233C212.83 96.0868 212.647 96.8617 212.28 97.5482C211.917 98.2304 211.403 98.7657 210.738 99.1543C210.078 99.5386 209.34 99.7328 208.524 99.7372H205.422ZM207.695 92.0629V97.9886H208.485C209.137 97.9886 209.637 97.7576 209.987 97.2956C210.337 96.8294 210.512 96.1386 210.512 95.2233V94.8153C210.512 93.9043 210.337 93.2178 209.987 92.7558C209.637 92.2939 209.128 92.0629 208.459 92.0629H207.695Z" fill="black"/>
<path d="M219.844 95.7414H216.269V97.9886H220.492V99.7372H213.996V90.3078H220.505V92.0629H216.269V94.0511H219.844V95.7414Z" fill="black"/>
<path d="M226.281 97.2309C226.281 96.8984 226.163 96.6394 225.925 96.4537C225.692 96.2681 225.28 96.076 224.688 95.8774C224.097 95.6788 223.613 95.4866 223.237 95.301C222.016 94.7008 221.405 93.8762 221.405 92.8271C221.405 92.3047 221.556 91.8449 221.858 91.4477C222.165 91.0461 222.596 90.7353 223.153 90.5151C223.71 90.2906 224.336 90.1783 225.031 90.1783C225.709 90.1783 226.316 90.2992 226.851 90.541C227.391 90.7828 227.81 91.1282 228.108 91.5772C228.405 92.0219 228.554 92.5313 228.554 93.1056H226.288C226.288 92.7213 226.169 92.4234 225.932 92.2118C225.698 92.0003 225.381 91.8945 224.98 91.8945C224.574 91.8945 224.252 91.9852 224.015 92.1665C223.781 92.3435 223.665 92.5702 223.665 92.8465C223.665 93.0883 223.794 93.3085 224.053 93.5071C224.313 93.7014 224.768 93.9043 225.42 94.1158C226.072 94.3231 226.607 94.5476 227.026 94.7894C228.045 95.3765 228.554 96.1861 228.554 97.2179C228.554 98.0426 228.244 98.6902 227.622 99.1608C227 99.6314 226.147 99.8667 225.064 99.8667C224.3 99.8667 223.607 99.7307 222.985 99.4587C222.367 99.1824 221.901 98.8067 221.586 98.3318C221.275 97.8526 221.12 97.3021 221.12 96.6804H223.399C223.399 97.1855 223.529 97.559 223.788 97.8008C224.051 98.0382 224.477 98.157 225.064 98.157C225.439 98.157 225.735 98.0771 225.951 97.9173C226.171 97.7533 226.281 97.5245 226.281 97.2309Z" fill="black"/>
<path d="M232.142 99.7372H229.876V90.3078H232.142V99.7372Z" fill="black"/>
<path d="M241.442 98.5714C241.092 98.96 240.581 99.273 239.907 99.5105C239.234 99.7479 238.495 99.8667 237.692 99.8667C236.457 99.8667 235.471 99.4889 234.733 98.7333C233.994 97.9778 233.599 96.9265 233.548 95.5794L233.541 94.7635C233.541 93.8352 233.705 93.0257 234.033 92.3349C234.361 91.6398 234.83 91.1066 235.439 90.7353C236.052 90.3597 236.76 90.1718 237.563 90.1718C238.737 90.1718 239.648 90.4417 240.296 90.9814C240.948 91.5167 241.328 92.3176 241.436 93.384H239.247C239.169 92.8573 239 92.4817 238.741 92.2572C238.482 92.0327 238.115 91.9204 237.64 91.9204C237.071 91.9204 236.63 92.1622 236.319 92.6457C236.008 93.1293 235.851 93.8201 235.847 94.7181V95.288C235.847 96.2292 236.006 96.9373 236.326 97.4122C236.65 97.8828 237.157 98.1181 237.848 98.1181C238.439 98.1181 238.88 97.9864 239.169 97.7231V96.2594H237.589V94.6987H241.442V98.5714Z" fill="black"/>
<path d="M250.638 99.7372H248.378L245.036 93.8697V99.7372H242.763V90.3078H245.036L248.371 96.1753V90.3078H250.638V99.7372Z" fill="black"/>
<path d="M256.68 94.7699C256.426 94.4073 256.225 94.0619 256.078 93.7337C255.936 93.4056 255.864 93.0667 255.864 92.717C255.864 91.9571 256.111 91.344 256.603 90.8777C257.095 90.4071 257.738 90.1718 258.533 90.1718C259.245 90.1718 259.834 90.3899 260.301 90.8259C260.767 91.2577 261 91.7952 261 92.4385C261 93.2416 260.557 93.9539 259.672 94.5756L259.18 94.9189L260.631 96.5833C260.868 96.1083 260.987 95.5881 260.987 95.0225H262.82C262.82 96.2961 262.526 97.3172 261.939 98.0857L263.377 99.7372H260.942L260.501 99.2385C260.139 99.4544 259.767 99.6141 259.387 99.7177C259.012 99.8213 258.587 99.8732 258.112 99.8732C257.179 99.8732 256.432 99.6292 255.871 99.1413C255.31 98.6492 255.029 98.0037 255.029 97.205C255.029 96.7689 255.139 96.3739 255.359 96.0198C255.584 95.6658 256.018 95.2535 256.661 94.7829L256.68 94.7699ZM258.254 98.1893C258.634 98.1893 258.997 98.1008 259.342 97.9238L257.645 95.9939L257.587 96.0328C257.341 96.335 257.218 96.6761 257.218 97.056C257.218 97.3712 257.317 97.6389 257.516 97.8591C257.714 98.0793 257.961 98.1893 258.254 98.1893ZM257.749 92.6911C257.749 92.9933 257.913 93.3603 258.241 93.792L258.675 93.52C258.874 93.3905 259.018 93.2567 259.109 93.1185C259.2 92.9803 259.245 92.8055 259.245 92.5939C259.245 92.3953 259.176 92.2226 259.038 92.0758C258.9 91.929 258.729 91.8556 258.526 91.8556C258.284 91.8556 258.094 91.9334 257.956 92.0888C257.818 92.2399 257.749 92.4407 257.749 92.6911Z" fill="black"/>
<path d="M267.619 99.7372V90.3078H270.656C271.489 90.3078 272.238 90.4978 272.903 90.8777C273.568 91.2534 274.086 91.7866 274.458 92.4774C274.833 93.1638 275.023 93.9345 275.027 94.7894V95.2233C275.027 96.0868 274.844 96.8617 274.477 97.5482C274.114 98.2304 273.601 98.7657 272.936 99.1543C272.275 99.5386 271.537 99.7328 270.721 99.7372H267.619ZM269.892 92.0629V97.9886H270.682C271.334 97.9886 271.835 97.7576 272.184 97.2956C272.534 96.8294 272.709 96.1386 272.709 95.2233V94.8153C272.709 93.9043 272.534 93.2178 272.184 92.7558C271.835 92.2939 271.325 92.0629 270.656 92.0629H269.892Z" fill="black"/>
<path d="M282.041 95.7414H278.466V97.9886H282.689V99.7372H276.193V90.3078H282.702V92.0629H278.466V94.0511H282.041V95.7414Z" fill="black"/>
<path d="M287.274 97.1726L289.152 90.3078H291.691L288.517 99.7372H286.03L282.883 90.3078H285.402L287.274 97.1726Z" fill="black"/>
<path d="M298.232 95.7414H294.657V97.9886H298.879V99.7372H292.384V90.3078H298.892V92.0629H294.657V94.0511H298.232V95.7414Z" fill="black"/>
<path d="M302.078 97.9886H306.035V99.7372L299.805 99.7372V90.3078H302.078V97.9886Z" fill="black"/>
<path d="M314.564 95.2168C314.564 96.1364 314.394 96.9502 314.053 97.6583C313.712 98.3664 313.226 98.9125 312.596 99.2968C311.97 99.6767 311.255 99.8667 310.452 99.8667C309.649 99.8667 308.937 99.6832 308.315 99.3162C307.693 98.9449 307.208 98.416 306.858 97.7295C306.512 97.0431 306.331 96.2551 306.314 95.3657V94.8347C306.314 93.9108 306.482 93.0969 306.819 92.3932C307.16 91.6851 307.646 91.139 308.276 90.7547C308.911 90.3704 309.632 90.1783 310.439 90.1783C311.238 90.1783 311.95 90.3683 312.576 90.7482C313.202 91.1282 313.688 91.67 314.033 92.3737C314.383 93.0732 314.56 93.8762 314.564 94.7829V95.2168ZM312.252 94.8217C312.252 93.8849 312.095 93.1746 311.78 92.6911C311.469 92.2032 311.022 91.9593 310.439 91.9593C309.299 91.9593 308.697 92.8141 308.632 94.5238L308.626 95.2168C308.626 96.1407 308.779 96.8509 309.086 97.3474C309.392 97.844 309.848 98.0922 310.452 98.0922C311.026 98.0922 311.469 97.8483 311.78 97.3604C312.091 96.8725 312.248 96.1709 312.252 95.2556V94.8217Z" fill="black"/>
<path d="M318.01 96.5379V99.7372H315.737V90.3078H319.499C320.22 90.3078 320.857 90.4417 321.41 90.7094C321.967 90.9727 322.396 91.3505 322.699 91.8427C323.005 92.3306 323.158 92.8854 323.158 93.5071C323.158 94.4267 322.828 95.1628 322.167 95.7154C321.511 96.2638 320.609 96.5379 319.46 96.5379H318.01ZM318.01 94.7829H319.499C319.94 94.7829 320.274 94.6728 320.503 94.4526C320.736 94.2324 320.853 93.9215 320.853 93.52C320.853 93.0796 320.734 92.7278 320.497 92.4644C320.259 92.201 319.935 92.0672 319.525 92.0629H318.01V94.7829Z" fill="black"/>
<path d="M327.361 90.3078L329.466 96.8682L331.564 90.3078H334.556V99.7372H332.277V97.5353L332.497 93.0278L330.217 99.7372H328.715L326.429 93.0214L326.649 97.5353V99.7372H324.376V90.3078H327.361Z" fill="black"/>
<path d="M341.855 95.7414H338.28V97.9886H342.503V99.7372H336.007V90.3078H342.516V92.0629H338.28V94.0511H341.855V95.7414Z" fill="black"/>
<path d="M351.304 99.7372H349.044L345.702 93.8697V99.7372H343.429V90.3078H345.702L349.037 96.1753V90.3078H351.304V99.7372Z" fill="black"/>
<path d="M359.949 92.0629H357.119V99.7372H354.846V92.0629H352.068V90.3078H359.949V92.0629Z" fill="black"/>
<rect x="156.519" y="81.231" width="257.76" height="127.298" fill="white" stroke="black" stroke-width="4" stroke-dasharray="4 8"/>
<path d="M204.225 121.152H200.704V165.56H204.225V144.363H227.941V165.56H231.462V121.152H227.941V140.785H204.225V121.152Z" fill="black"/>
<path fill-rule="evenodd" clip-rule="evenodd" d="M168.256 143.179L192.296 101.494H240.375L264.415 143.179L240.375 184.863H192.296L168.256 143.179ZM193.599 115.468H210.414V134.889H222.02V115.468H238.836V171.126H222.02V150.047H210.414V171.126H193.599V115.468Z" fill="black"/>
<mask id="mask1" mask-type="alpha" maskUnits="userSpaceOnUse" x="267" y="111" width="146" height="63">
<rect x="267.419" y="111.847" width="145.515" height="61.8858" fill="#C4C4C4"/>
</mask>
<g mask="url(#mask1)">
<g opacity="0.25" filter="url(#filter0_f)">
<path d="M298.946 150.047H292.044V138.024H281.82V150.047H274.879V121.254H281.82V132.684H292.044V121.254H298.946V150.047Z" fill="black"/>
<path d="M321.213 137.846H310.297V144.708H323.19V150.047H303.356V121.254H323.23V126.613H310.297V132.684H321.213V137.846Z" fill="black"/>
<path d="M336.756 130.825L341.463 121.254H349.393L341.344 135.532L349.61 150.047H341.601L336.756 140.298L331.911 150.047H323.922L332.168 135.532L324.14 121.254H332.05L336.756 130.825Z" fill="black"/>
<path d="M368.239 144.668H358.727L357.066 150.047H349.65L360.21 121.254H366.736L377.375 150.047H369.92L368.239 144.668ZM360.388 139.309H366.578L363.473 129.322L360.388 139.309Z" fill="black"/>
<path d="M402.628 146.487C401.561 147.674 399.998 148.63 397.942 149.355C395.885 150.08 393.631 150.443 391.178 150.443C387.408 150.443 384.395 149.289 382.141 146.982C379.887 144.675 378.68 141.465 378.522 137.351L378.502 134.86C378.502 132.025 379.003 129.553 380.005 127.444C381.007 125.321 382.438 123.693 384.297 122.559C386.169 121.412 388.331 120.839 390.783 120.839C394.369 120.839 397.151 121.663 399.128 123.311C401.119 124.945 402.279 127.391 402.609 130.647H395.924C395.687 129.039 395.173 127.892 394.382 127.206C393.591 126.521 392.47 126.178 391.02 126.178C389.28 126.178 387.935 126.916 386.986 128.393C386.037 129.87 385.556 131.979 385.542 134.721V136.461C385.542 139.335 386.03 141.497 387.006 142.948C387.995 144.385 389.544 145.103 391.653 145.103C393.459 145.103 394.804 144.701 395.687 143.897V139.428H390.862V134.662H402.628V146.487Z" fill="black"/>
<path d="M431.046 136.244C431.046 139.052 430.525 141.537 429.483 143.699C428.442 145.861 426.959 147.529 425.034 148.702C423.122 149.862 420.94 150.443 418.488 150.443C416.036 150.443 413.861 149.882 411.962 148.762C410.064 147.628 408.581 146.013 407.513 143.917C406.458 141.82 405.905 139.414 405.852 136.699V135.077C405.852 132.256 406.366 129.771 407.394 127.622C408.436 125.46 409.919 123.792 411.844 122.619C413.782 121.445 415.983 120.858 418.449 120.858C420.888 120.858 423.063 121.439 424.975 122.599C426.886 123.759 428.369 125.413 429.424 127.562C430.492 129.698 431.033 132.15 431.046 134.919V136.244ZM423.986 135.037C423.986 132.177 423.505 130.008 422.542 128.531C421.593 127.042 420.229 126.297 418.449 126.297C414.968 126.297 413.129 128.907 412.931 134.128L412.912 136.244C412.912 139.065 413.38 141.234 414.316 142.75C415.252 144.266 416.643 145.024 418.488 145.024C420.242 145.024 421.593 144.279 422.542 142.789C423.492 141.3 423.973 139.157 423.986 136.362V135.037Z" fill="black"/>
<path d="M458.672 150.047H451.77L441.566 132.131V150.047H434.625V121.254H441.566L451.751 139.171V121.254H458.672V150.047Z" fill="black"/>
<path d="M281.432 161.452L282.514 155.539H284.767L282.766 164.968H280.409L279.146 159.593L277.909 164.968H275.558L273.551 155.539H275.811L276.892 161.452L278.187 155.539H280.117L281.432 161.452Z" fill="black"/>
<path d="M291.502 160.972H287.928V163.22H292.15V164.968H285.655V155.539H292.163V157.294H287.928V159.282H291.502V160.972Z" fill="black"/>
<path d="M293.076 164.968V155.539H296.463C297.676 155.539 298.598 155.761 299.229 156.206C299.863 156.651 300.181 157.296 300.181 158.142C300.181 158.63 300.068 159.047 299.844 159.392C299.619 159.738 299.289 159.992 298.853 160.156C299.345 160.286 299.723 160.528 299.986 160.882C300.25 161.236 300.381 161.668 300.381 162.177C300.381 163.101 300.088 163.796 299.501 164.262C298.918 164.724 298.052 164.96 296.904 164.968H293.076ZM295.349 160.959V163.22H296.839C297.249 163.22 297.564 163.127 297.784 162.941C298.005 162.751 298.115 162.486 298.115 162.145C298.115 161.359 297.724 160.964 296.942 160.959H295.349ZM295.349 159.47H296.534C297.031 159.466 297.385 159.375 297.597 159.198C297.808 159.021 297.914 158.76 297.914 158.414C297.914 158.017 297.799 157.732 297.571 157.559C297.342 157.382 296.973 157.294 296.463 157.294H295.349V159.47Z" fill="black"/>
<path d="M304.941 164.968V155.539H307.978C308.811 155.539 309.56 155.729 310.225 156.109C310.89 156.484 311.408 157.018 311.779 157.708C312.155 158.395 312.345 159.166 312.349 160.02V160.454C312.349 161.318 312.166 162.093 311.799 162.779C311.436 163.461 310.922 163.997 310.257 164.385C309.597 164.77 308.859 164.964 308.043 164.968H304.941ZM307.214 157.294V163.22H308.004C308.656 163.22 309.157 162.989 309.506 162.527C309.856 162.06 310.031 161.37 310.031 160.454V160.046C310.031 159.135 309.856 158.449 309.506 157.987C309.157 157.525 308.647 157.294 307.978 157.294H307.214Z" fill="black"/>
<path d="M319.363 160.972H315.788V163.22H320.011V164.968H313.515V155.539H320.024V157.294H315.788V159.282H319.363V160.972Z" fill="black"/>
<path d="M325.8 162.462C325.8 162.129 325.682 161.87 325.444 161.685C325.211 161.499 324.799 161.307 324.207 161.108C323.616 160.91 323.132 160.718 322.757 160.532C321.535 159.932 320.924 159.107 320.924 158.058C320.924 157.536 321.075 157.076 321.377 156.679C321.684 156.277 322.115 155.966 322.672 155.746C323.229 155.522 323.855 155.409 324.55 155.409C325.228 155.409 325.835 155.53 326.37 155.772C326.91 156.014 327.329 156.359 327.627 156.808C327.924 157.253 328.073 157.762 328.073 158.337H325.807C325.807 157.952 325.688 157.654 325.451 157.443C325.217 157.231 324.9 157.126 324.499 157.126C324.093 157.126 323.771 157.216 323.534 157.398C323.301 157.575 323.184 157.801 323.184 158.078C323.184 158.319 323.313 158.54 323.573 158.738C323.832 158.932 324.287 159.135 324.939 159.347C325.591 159.554 326.126 159.779 326.545 160.02C327.564 160.608 328.073 161.417 328.073 162.449C328.073 163.274 327.763 163.921 327.141 164.392C326.519 164.862 325.666 165.098 324.583 165.098C323.819 165.098 323.126 164.962 322.504 164.69C321.887 164.413 321.42 164.038 321.105 163.563C320.794 163.084 320.639 162.533 320.639 161.911H322.918C322.918 162.417 323.048 162.79 323.307 163.032C323.57 163.269 323.996 163.388 324.583 163.388C324.958 163.388 325.254 163.308 325.47 163.148C325.69 162.984 325.8 162.756 325.8 162.462Z" fill="black"/>
<path d="M331.661 164.968H329.395V155.539H331.661V164.968Z" fill="black"/>
<path d="M340.961 163.802C340.611 164.191 340.1 164.504 339.426 164.742C338.753 164.979 338.014 165.098 337.211 165.098C335.977 165.098 334.99 164.72 334.252 163.964C333.513 163.209 333.118 162.158 333.067 160.81L333.06 159.995C333.06 159.066 333.224 158.257 333.552 157.566C333.88 156.871 334.349 156.338 334.958 155.966C335.571 155.591 336.279 155.403 337.082 155.403C338.256 155.403 339.167 155.673 339.815 156.212C340.467 156.748 340.847 157.549 340.955 158.615H338.766C338.688 158.088 338.52 157.713 338.26 157.488C338.001 157.264 337.634 157.151 337.16 157.151C336.59 157.151 336.149 157.393 335.838 157.877C335.528 158.36 335.37 159.051 335.366 159.949V160.519C335.366 161.46 335.525 162.168 335.845 162.643C336.169 163.114 336.676 163.349 337.367 163.349C337.958 163.349 338.399 163.217 338.688 162.954V161.49H337.108V159.93H340.961V163.802Z" fill="black"/>
<path d="M350.157 164.968H347.897L344.555 159.101V164.968H342.282V155.539H344.555L347.891 161.406V155.539H350.157V164.968Z" fill="black"/>
<path d="M356.199 160.001C355.945 159.638 355.744 159.293 355.597 158.965C355.455 158.637 355.383 158.298 355.383 157.948C355.383 157.188 355.63 156.575 356.122 156.109C356.614 155.638 357.257 155.403 358.052 155.403C358.764 155.403 359.353 155.621 359.82 156.057C360.286 156.489 360.519 157.026 360.519 157.67C360.519 158.473 360.077 159.185 359.191 159.807L358.699 160.15L360.15 161.814C360.387 161.339 360.506 160.819 360.506 160.254H362.339C362.339 161.527 362.045 162.548 361.458 163.317L362.896 164.968H360.461L360.02 164.47C359.658 164.685 359.286 164.845 358.907 164.949C358.531 165.052 358.106 165.104 357.631 165.104C356.698 165.104 355.951 164.86 355.39 164.372C354.829 163.88 354.548 163.235 354.548 162.436C354.548 162 354.658 161.605 354.878 161.251C355.103 160.897 355.537 160.485 356.18 160.014L356.199 160.001ZM357.773 163.42C358.153 163.42 358.516 163.332 358.861 163.155L357.164 161.225L357.106 161.264C356.86 161.566 356.737 161.907 356.737 162.287C356.737 162.602 356.836 162.87 357.035 163.09C357.233 163.31 357.48 163.42 357.773 163.42ZM357.268 157.922C357.268 158.224 357.432 158.591 357.76 159.023L358.194 158.751C358.393 158.622 358.537 158.488 358.628 158.35C358.719 158.211 358.764 158.037 358.764 157.825C358.764 157.626 358.695 157.454 358.557 157.307C358.419 157.16 358.248 157.087 358.045 157.087C357.803 157.087 357.613 157.164 357.475 157.32C357.337 157.471 357.268 157.672 357.268 157.922Z" fill="black"/>
<path d="M367.138 164.968V155.539H370.175C371.008 155.539 371.757 155.729 372.422 156.109C373.087 156.484 373.605 157.018 373.977 157.708C374.352 158.395 374.542 159.166 374.546 160.02V160.454C374.546 161.318 374.363 162.093 373.996 162.779C373.633 163.461 373.12 163.997 372.455 164.385C371.794 164.77 371.056 164.964 370.24 164.968H367.138ZM369.411 157.294V163.22H370.201C370.853 163.22 371.354 162.989 371.703 162.527C372.053 162.06 372.228 161.37 372.228 160.454V160.046C372.228 159.135 372.053 158.449 371.703 157.987C371.354 157.525 370.844 157.294 370.175 157.294H369.411Z" fill="black"/>
<path d="M381.56 160.972H377.985V163.22H382.208V164.968H375.712V155.539H382.221V157.294H377.985V159.282H381.56V160.972Z" fill="black"/>
<path d="M386.793 162.404L388.671 155.539H391.21L388.036 164.968H385.549L382.402 155.539H384.921L386.793 162.404Z" fill="black"/>
<path d="M397.751 160.972H394.176V163.22H398.398V164.968H391.903V155.539H398.411V157.294H394.176V159.282H397.751V160.972Z" fill="black"/>
<path d="M401.597 163.22H405.554V164.968H399.324V155.539H401.597V163.22Z" fill="black"/>
<path d="M414.084 160.448C414.084 161.367 413.913 162.181 413.572 162.889C413.231 163.597 412.745 164.144 412.115 164.528C411.489 164.908 410.774 165.098 409.971 165.098C409.168 165.098 408.456 164.914 407.834 164.547C407.212 164.176 406.727 163.647 406.377 162.961C406.031 162.274 405.85 161.486 405.833 160.597V160.066C405.833 159.142 406.001 158.328 406.338 157.624C406.679 156.916 407.165 156.37 407.795 155.986C408.43 155.601 409.151 155.409 409.958 155.409C410.757 155.409 411.469 155.599 412.095 155.979C412.721 156.359 413.207 156.901 413.552 157.605C413.902 158.304 414.079 159.107 414.084 160.014V160.448ZM411.772 160.053C411.772 159.116 411.614 158.406 411.299 157.922C410.988 157.434 410.541 157.19 409.958 157.19C408.818 157.19 408.216 158.045 408.151 159.755L408.145 160.448C408.145 161.372 408.298 162.082 408.605 162.578C408.911 163.075 409.367 163.323 409.971 163.323C410.545 163.323 410.988 163.079 411.299 162.591C411.61 162.104 411.767 161.402 411.772 160.487V160.053Z" fill="black"/>
<path d="M417.529 161.769V164.968H415.256V155.539H419.018C419.739 155.539 420.376 155.673 420.929 155.94C421.486 156.204 421.915 156.582 422.218 157.074C422.524 157.562 422.677 158.116 422.677 158.738C422.677 159.658 422.347 160.394 421.687 160.946C421.03 161.495 420.128 161.769 418.979 161.769H417.529ZM417.529 160.014H419.018C419.459 160.014 419.793 159.904 420.022 159.684C420.255 159.463 420.372 159.153 420.372 158.751C420.372 158.311 420.253 157.959 420.016 157.695C419.778 157.432 419.454 157.298 419.044 157.294H417.529V160.014Z" fill="black"/>
<path d="M426.88 155.539L428.985 162.099L431.083 155.539H434.075V164.968H431.796V162.766L432.016 158.259L429.736 164.968H428.234L425.948 158.252L426.168 162.766V164.968H423.895V155.539H426.88Z" fill="black"/>
<path d="M441.374 160.972H437.799V163.22H442.022V164.968H435.526V155.539H442.035V157.294H437.799V159.282H441.374V160.972Z" fill="black"/>
<path d="M450.823 164.968H448.563L445.221 159.101V164.968H442.948V155.539H445.221L448.556 161.406V155.539H450.823V164.968Z" fill="black"/>
<path d="M459.469 157.294H456.638V164.968H454.365V157.294H451.587V155.539H459.469V157.294Z" fill="black"/>
</g>
</g>
<rect x="257.711" y="142.281" width="215.109" height="127.298" fill="white" stroke="black" stroke-width="4" stroke-dasharray="4 8"/>
<path d="M305.417 182.202H301.895V226.61H305.417V205.412H329.132V226.61H332.654V182.202H329.132V201.835H305.417V182.202Z" fill="black"/>
<path fill-rule="evenodd" clip-rule="evenodd" d="M269.448 204.228L293.487 162.544H341.566L365.606 204.228L341.566 245.913H293.487L269.448 204.228ZM294.79 176.518H311.606V195.939H323.211V176.518H340.027V232.176H323.211V211.097H311.606V232.176H294.79V176.518Z" fill="black"/>
<mask id="mask2" mask-type="alpha" maskUnits="userSpaceOnUse" x="368" y="172" width="104" height="63">
<rect x="368.61" y="172.896" width="102.864" height="61.8858" fill="#C4C4C4"/>
</mask>
<g mask="url(#mask2)">
<g opacity="0.25" filter="url(#filter1_f)">
<path d="M406.309 218.574H398.056V204.197H385.831V218.574H377.531V184.145H385.831V197.813H398.056V184.145H406.309V218.574Z" fill="black"/>
<path d="M432.935 203.984H419.882V212.19H435.299V218.574H411.582V184.145H435.346V190.553H419.882V197.813H432.935V203.984Z" fill="black"/>
<path d="M451.521 195.59L457.149 184.145H466.631L457.007 201.218L466.891 218.574H457.314L451.521 206.917L445.727 218.574H436.174L446.035 201.218L436.434 184.145H445.893L451.521 195.59Z" fill="black"/>
<path d="M489.166 212.143H477.792L475.806 218.574H466.938L479.565 184.145H487.369L500.091 218.574H491.176L489.166 212.143ZM479.778 205.734H487.18L483.467 193.793L479.778 205.734Z" fill="black"/>
<path d="M530.287 214.318C529.01 215.737 527.142 216.88 524.683 217.747C522.224 218.614 519.528 219.047 516.596 219.047C512.087 219.047 508.485 217.668 505.789 214.909C503.094 212.15 501.651 208.312 501.462 203.393L501.438 200.414C501.438 197.025 502.038 194.069 503.236 191.546C504.434 189.008 506.144 187.061 508.367 185.706C510.605 184.334 513.191 183.648 516.123 183.648C520.411 183.648 523.737 184.634 526.102 186.604C528.482 188.559 529.869 191.483 530.264 195.377H522.271C521.987 193.454 521.373 192.082 520.427 191.263C519.481 190.443 518.141 190.033 516.407 190.033C514.326 190.033 512.718 190.916 511.583 192.681C510.448 194.447 509.872 196.969 509.857 200.248V202.329C509.857 205.766 510.44 208.351 511.606 210.085C512.789 211.804 514.641 212.663 517.163 212.663C519.323 212.663 520.931 212.182 521.987 211.22V205.876H516.218V200.177H530.287V214.318Z" fill="black"/>
<path d="M564.267 202.069C564.267 205.427 563.645 208.398 562.399 210.984C561.154 213.569 559.38 215.563 557.079 216.966C554.793 218.354 552.184 219.047 549.252 219.047C546.32 219.047 543.718 218.377 541.448 217.037C539.178 215.682 537.405 213.75 536.128 211.244C534.867 208.737 534.205 205.86 534.142 202.613V200.674C534.142 197.3 534.756 194.329 535.986 191.759C537.231 189.174 539.005 187.18 541.307 185.777C543.624 184.374 546.257 183.672 549.204 183.672C552.121 183.672 554.722 184.366 557.008 185.753C559.294 187.14 561.067 189.119 562.328 191.688C563.605 194.242 564.252 197.174 564.267 200.485V202.069ZM555.825 200.627C555.825 197.206 555.25 194.613 554.099 192.847C552.964 191.066 551.333 190.175 549.204 190.175C545.043 190.175 542.844 193.296 542.607 199.539L542.583 202.069C542.583 205.443 543.143 208.036 544.262 209.849C545.382 211.662 547.045 212.568 549.252 212.568C551.348 212.568 552.964 211.677 554.099 209.896C555.234 208.115 555.81 205.553 555.825 202.211V200.627Z" fill="black"/>
<path d="M597.301 218.574H589.049L576.847 197.151V218.574H568.547V184.145H576.847L589.025 205.569V184.145H597.301V218.574Z" fill="black"/>
<path d="M385.367 232.211L386.66 225.141H389.355L386.962 236.416H384.143L382.633 229.989L381.154 236.416H378.343L375.942 225.141H378.645L379.938 232.211L381.487 225.141H383.795L385.367 232.211Z" fill="black"/>
<path d="M397.408 231.638H393.134V234.326H398.183V236.416H390.416V225.141H398.198V227.24H393.134V229.617H397.408V231.638Z" fill="black"/>
<path d="M399.29 236.416V225.141H403.34C404.791 225.141 405.893 225.407 406.647 225.939C407.406 226.471 407.785 227.242 407.785 228.254C407.785 228.838 407.651 229.336 407.383 229.749C407.114 230.162 406.719 230.466 406.198 230.663C406.786 230.818 407.238 231.107 407.553 231.53C407.868 231.953 408.025 232.47 408.025 233.079C408.025 234.184 407.674 235.015 406.972 235.572C406.275 236.125 405.24 236.406 403.867 236.416H399.29ZM402.008 231.623V234.326H403.789C404.28 234.326 404.657 234.215 404.92 233.993C405.183 233.765 405.315 233.448 405.315 233.04C405.315 232.1 404.848 231.628 403.913 231.623H402.008ZM402.008 229.842H403.425C404.019 229.837 404.442 229.728 404.695 229.517C404.948 229.305 405.075 228.993 405.075 228.58C405.075 228.105 404.938 227.764 404.664 227.557C404.391 227.346 403.949 227.24 403.34 227.24H402.008V229.842Z" fill="black"/>
<path d="M413.477 236.416V225.141H417.109C418.105 225.141 419.001 225.368 419.796 225.823C420.591 226.272 421.211 226.909 421.655 227.735C422.104 228.556 422.331 229.478 422.336 230.5V231.019C422.336 232.051 422.117 232.978 421.678 233.799C421.244 234.615 420.63 235.255 419.835 235.719C419.045 236.179 418.162 236.411 417.186 236.416H413.477ZM416.195 227.24V234.326H417.14C417.919 234.326 418.518 234.049 418.936 233.497C419.355 232.939 419.564 232.113 419.564 231.019V230.531C419.564 229.442 419.355 228.621 418.936 228.068C418.518 227.516 417.909 227.24 417.109 227.24H416.195Z" fill="black"/>
<path d="M430.723 231.638H426.448V234.326H431.497V236.416H423.73V225.141H431.513V227.24H426.448V229.617H430.723V231.638Z" fill="black"/>
<path d="M438.42 233.419C438.42 233.022 438.278 232.712 437.994 232.49C437.715 232.268 437.222 232.038 436.515 231.801C435.808 231.564 435.23 231.334 434.78 231.112C433.319 230.394 432.589 229.408 432.589 228.154C432.589 227.529 432.77 226.979 433.131 226.504C433.498 226.024 434.014 225.652 434.68 225.389C435.346 225.121 436.094 224.986 436.925 224.986C437.736 224.986 438.461 225.131 439.102 225.42C439.747 225.709 440.248 226.122 440.604 226.659C440.96 227.191 441.138 227.8 441.138 228.487H438.428C438.428 228.027 438.286 227.671 438.002 227.418C437.723 227.165 437.344 227.039 436.864 227.039C436.378 227.039 435.994 227.147 435.71 227.364C435.431 227.575 435.292 227.846 435.292 228.177C435.292 228.466 435.446 228.729 435.756 228.967C436.066 229.199 436.611 229.442 437.39 229.695C438.17 229.942 438.81 230.211 439.311 230.5C440.529 231.202 441.138 232.17 441.138 233.404C441.138 234.39 440.766 235.164 440.023 235.727C439.28 236.29 438.26 236.571 436.964 236.571C436.05 236.571 435.222 236.409 434.478 236.083C433.74 235.753 433.183 235.304 432.806 234.736C432.434 234.163 432.248 233.505 432.248 232.761H434.974C434.974 233.365 435.129 233.812 435.439 234.101C435.754 234.385 436.262 234.527 436.964 234.527C437.413 234.527 437.767 234.431 438.025 234.24C438.288 234.044 438.42 233.771 438.42 233.419Z" fill="black"/>
<path d="M445.428 236.416H442.718V225.141H445.428V236.416Z" fill="black"/>
<path d="M456.549 235.022C456.13 235.487 455.519 235.861 454.713 236.145C453.908 236.429 453.025 236.571 452.065 236.571C450.588 236.571 449.409 236.12 448.526 235.216C447.643 234.313 447.171 233.056 447.109 231.445L447.101 230.469C447.101 229.359 447.297 228.391 447.689 227.565C448.082 226.734 448.642 226.096 449.37 225.652C450.103 225.203 450.95 224.979 451.91 224.979C453.314 224.979 454.403 225.301 455.178 225.947C455.957 226.587 456.412 227.544 456.541 228.82H453.923C453.83 228.19 453.629 227.741 453.319 227.472C453.01 227.204 452.571 227.069 452.003 227.069C451.321 227.069 450.795 227.359 450.423 227.937C450.051 228.515 449.863 229.341 449.858 230.415V231.096C449.858 232.222 450.049 233.068 450.431 233.636C450.818 234.199 451.425 234.48 452.251 234.48C452.958 234.48 453.485 234.323 453.83 234.008V232.258H451.941V230.392H456.549V235.022Z" fill="black"/>
<path d="M467.545 236.416H464.842L460.846 229.4V236.416H458.128V225.141H460.846L464.834 232.157V225.141H467.545V236.416Z" fill="black"/>
<path d="M474.77 230.477C474.465 230.043 474.225 229.63 474.05 229.238C473.879 228.845 473.794 228.44 473.794 228.022C473.794 227.113 474.088 226.38 474.677 225.823C475.265 225.26 476.035 224.979 476.985 224.979C477.836 224.979 478.541 225.239 479.099 225.761C479.656 226.277 479.935 226.92 479.935 227.689C479.935 228.649 479.406 229.501 478.348 230.244L477.759 230.655L479.494 232.645C479.778 232.077 479.92 231.455 479.92 230.779H482.111C482.111 232.302 481.76 233.523 481.058 234.442L482.777 236.416H479.865L479.339 235.82C478.905 236.078 478.461 236.269 478.007 236.393C477.558 236.517 477.049 236.579 476.481 236.579C475.366 236.579 474.473 236.287 473.802 235.704C473.131 235.115 472.795 234.344 472.795 233.388C472.795 232.867 472.927 232.395 473.19 231.971C473.459 231.548 473.977 231.055 474.747 230.492L474.77 230.477ZM476.652 234.566C477.106 234.566 477.54 234.46 477.953 234.248L475.924 231.94L475.854 231.987C475.56 232.348 475.413 232.756 475.413 233.21C475.413 233.587 475.531 233.907 475.769 234.171C476.006 234.434 476.301 234.566 476.652 234.566ZM476.048 227.991C476.048 228.352 476.244 228.791 476.636 229.307L477.155 228.982C477.392 228.827 477.565 228.667 477.674 228.502C477.782 228.337 477.836 228.128 477.836 227.875C477.836 227.637 477.754 227.431 477.589 227.255C477.423 227.08 477.22 226.992 476.977 226.992C476.688 226.992 476.461 227.085 476.295 227.271C476.13 227.452 476.048 227.692 476.048 227.991Z" fill="black"/>
<path d="M487.849 236.416V225.141H491.481C492.478 225.141 493.373 225.368 494.168 225.823C494.963 226.272 495.583 226.909 496.027 227.735C496.476 228.556 496.703 229.478 496.708 230.5V231.019C496.708 232.051 496.489 232.978 496.05 233.799C495.616 234.615 495.002 235.255 494.207 235.719C493.417 236.179 492.534 236.411 491.559 236.416H487.849ZM490.567 227.24V234.326H491.512C492.292 234.326 492.891 234.049 493.309 233.497C493.727 232.939 493.936 232.113 493.936 231.019V230.531C493.936 229.442 493.727 228.621 493.309 228.068C492.891 227.516 492.281 227.24 491.481 227.24H490.567Z" fill="black"/>
<path d="M505.095 231.638H500.82V234.326H505.869V236.416H498.102V225.141H505.885V227.24H500.82V229.617H505.095V231.638Z" fill="black"/>
<path d="M511.352 233.35L513.598 225.141H516.633L512.839 236.416H509.865L506.102 225.141H509.114L511.352 233.35Z" fill="black"/>
<path d="M524.455 231.638H520.18V234.326H525.229V236.416H517.462V225.141H525.245V227.24H520.18V229.617H524.455V231.638Z" fill="black"/>
<path d="M529.055 234.326H533.786V236.416H526.336V225.141H529.055V234.326Z" fill="black"/>
<path d="M543.985 231.011C543.985 232.111 543.781 233.084 543.373 233.931C542.965 234.777 542.384 235.43 541.631 235.89C540.882 236.344 540.028 236.571 539.067 236.571C538.107 236.571 537.255 236.352 536.512 235.913C535.768 235.469 535.188 234.837 534.77 234.016C534.356 233.195 534.14 232.253 534.119 231.189V230.554C534.119 229.449 534.32 228.476 534.723 227.635C535.131 226.788 535.712 226.135 536.465 225.676C537.224 225.216 538.086 224.986 539.052 224.986C540.007 224.986 540.859 225.214 541.607 225.668C542.356 226.122 542.937 226.77 543.35 227.612C543.768 228.448 543.98 229.408 543.985 230.492V231.011ZM541.22 230.539C541.22 229.418 541.032 228.569 540.655 227.991C540.283 227.408 539.749 227.116 539.052 227.116C537.689 227.116 536.969 228.138 536.891 230.183L536.884 231.011C536.884 232.116 537.067 232.965 537.433 233.559C537.8 234.153 538.345 234.449 539.067 234.449C539.754 234.449 540.283 234.158 540.655 233.574C541.027 232.991 541.215 232.152 541.22 231.058V230.539Z" fill="black"/>
<path d="M548.104 232.591V236.416H545.386V225.141H549.886C550.748 225.141 551.509 225.301 552.17 225.621C552.836 225.936 553.35 226.388 553.711 226.977C554.078 227.56 554.261 228.223 554.261 228.967C554.261 230.066 553.866 230.947 553.076 231.607C552.291 232.263 551.212 232.591 549.839 232.591H548.104ZM548.104 230.492H549.886C550.412 230.492 550.812 230.361 551.086 230.097C551.365 229.834 551.504 229.462 551.504 228.982C551.504 228.456 551.362 228.035 551.078 227.72C550.794 227.405 550.407 227.245 549.917 227.24H548.104V230.492Z" fill="black"/>
<path d="M559.287 225.141L561.803 232.986L564.312 225.141H567.89V236.416H565.164V233.783L565.428 228.394L562.702 236.416H560.905L558.172 228.386L558.435 233.783V236.416H555.717V225.141H559.287Z" fill="black"/>
<path d="M576.617 231.638H572.343V234.326H577.392V236.416H569.625V225.141H577.407V227.24H572.343V229.617H576.617V231.638Z" fill="black"/>
<path d="M587.916 236.416H585.213L581.217 229.4V236.416H578.499V225.141H581.217L585.205 232.157V225.141H587.916V236.416Z" fill="black"/>
<path d="M598.254 227.24H594.87V236.416H592.152V227.24H588.83V225.141H598.254V227.24Z" fill="black"/>
</g>
</g>
<rect x="376.465" y="205.839" width="127.535" height="127.298" fill="white" stroke="black" stroke-width="4" stroke-dasharray="4 8"/>
<path d="M425.875 243.495H421.7V296.139H425.875V271.01H453.99V296.139H458.165V243.495H453.99V266.769H425.875V243.495Z" fill="black"/>
<path fill-rule="evenodd" clip-rule="evenodd" d="M383.233 269.607L411.733 220.192H468.731L497.231 269.607L468.731 319.021H411.733L383.233 269.607ZM413.277 236.757H433.213V259.78H446.971V236.757H466.906V302.737H446.971V277.749H433.213V302.737H413.277V236.757Z" fill="black"/>
<path d="M205.326 294.901C197.269 298.39 190.076 303.388 182.192 307.116C179.744 308.272 176.775 305.801 178.31 303.193C179.701 300.833 181.46 298.71 183.427 296.759C150.326 291.769 117.019 268.847 105.422 237.241C104.691 235.251 107.498 234.556 108.554 235.95C128.654 262.486 153.722 280.243 186.021 285.059C184.208 282.97 182.596 280.668 181.278 278.101C178.213 272.143 187.192 266.914 190.25 272.892C193.271 278.797 197.849 283.162 204.121 285.412C207.818 286.738 209.756 292.984 205.326 294.901Z" fill="#AC003E"/>
<path d="M205.326 294.901C197.269 298.39 190.076 303.388 182.192 307.116C179.744 308.272 176.775 305.801 178.31 303.193C179.701 300.833 181.46 298.71 183.427 296.759C150.326 291.769 117.019 268.847 105.422 237.241C104.691 235.251 107.498 234.556 108.554 235.95C128.654 262.486 153.722 280.243 186.021 285.059C184.208 282.97 182.596 280.668 181.278 278.101C178.213 272.143 187.192 266.914 190.25 272.892C193.271 278.797 197.849 283.162 204.121 285.412C207.818 286.738 209.756 292.984 205.326 294.901Z" fill="#AC003E"/>
<path d="M205.326 294.901C197.269 298.39 190.076 303.388 182.192 307.116C179.744 308.272 176.775 305.801 178.31 303.193C179.701 300.833 181.46 298.71 183.427 296.759C150.326 291.769 117.019 268.847 105.422 237.241C104.691 235.251 107.498 234.556 108.554 235.95C128.654 262.486 153.722 280.243 186.021 285.059C184.208 282.97 182.596 280.668 181.278 278.101C178.213 272.143 187.192 266.914 190.25 272.892C193.271 278.797 197.849 283.162 204.121 285.412C207.818 286.738 209.756 292.984 205.326 294.901Z" fill="#AC003E"/>
<path d="M481.533 99.8129C482.397 94.0173 484.383 88.5189 485.431 82.7934C485.756 81.0157 483.648 79.5268 482.229 80.9658C480.946 82.2689 479.878 83.7689 478.958 85.3728C470.031 64.8889 449.493 47.3591 427.09 45.323C425.679 45.1945 425.714 47.1239 426.796 47.5651C447.391 55.9562 463.175 69.0631 471.852 89.0601C470.191 88.2505 468.427 87.6077 466.543 87.1993C462.168 86.2493 460.34 92.9393 464.727 93.8819C469.059 94.8132 472.666 97.0132 475.199 100.67C476.693 102.826 481.059 103 481.533 99.8129Z" fill="#AC003E"/>
<path d="M481.533 99.8129C482.397 94.0173 484.383 88.5189 485.431 82.7934C485.756 81.0157 483.648 79.5268 482.229 80.9658C480.946 82.2689 479.878 83.7689 478.958 85.3728C470.031 64.8889 449.493 47.3591 427.09 45.323C425.679 45.1945 425.714 47.1239 426.796 47.5651C447.391 55.9562 463.175 69.0631 471.852 89.0601C470.191 88.2505 468.427 87.6077 466.543 87.1993C462.168 86.2493 460.34 92.9393 464.727 93.8819C469.059 94.8132 472.666 97.0132 475.199 100.67C476.693 102.826 481.059 103 481.533 99.8129Z" fill="#AC003E"/>
<path d="M481.533 99.8129C482.397 94.0173 484.383 88.5189 485.431 82.7934C485.756 81.0157 483.648 79.5268 482.229 80.9658C480.946 82.2689 479.878 83.7689 478.958 85.3728C470.031 64.8889 449.493 47.3591 427.09 45.323C425.679 45.1945 425.714 47.1239 426.796 47.5651C447.391 55.9562 463.175 69.0631 471.852 89.0601C470.191 88.2505 468.427 87.6077 466.543 87.1993C462.168 86.2493 460.34 92.9393 464.727 93.8819C469.059 94.8132 472.666 97.0132 475.199 100.67C476.693 102.826 481.059 103 481.533 99.8129Z" fill="#AC003E"/>
</g>
<defs>
<filter id="filter0_f" x="269.551" y="116.839" width="193.918" height="52.2655" filterUnits="userSpaceOnUse" color-interpolation-filters="sRGB">
<feFlood flood-opacity="0" result="BackgroundImageFix"/>
<feBlend mode="normal" in="SourceGraphic" in2="BackgroundImageFix" result="shape"/>
<feGaussianBlur stdDeviation="2" result="effect1_foregroundBlur"/>
</filter>
<filter id="filter1_f" x="371.942" y="179.648" width="230.312" height="60.9305" filterUnits="userSpaceOnUse" color-interpolation-filters="sRGB">
<feFlood flood-opacity="0" result="BackgroundImageFix"/>
<feBlend mode="normal" in="SourceGraphic" in2="BackgroundImageFix" result="shape"/>
<feGaussianBlur stdDeviation="2" result="effect1_foregroundBlur"/>
</filter>
</defs>
</svg>
