<svg width="560" height="356" viewBox="0 0 560 356" fill="none" xmlns="http://www.w3.org/2000/svg">
<rect width="560" height="356" fill="#232222"/>
<path d="M203 35H359C359 35 363 123.352 363 180C363 236.648 359 325 359 325H203C203 325 199 236.648 199 180C199 123.352 203 35 203 35Z" fill="white"/>
<path d="M366 35H522C522 35 529 123.308 529 180C529 236.692 522 325 522 325H366C366 325 370 236.648 370 180C370 123.352 366 35 366 35Z" fill="white"/>
<path d="M196 35H36.1718C36.1718 35 29 123.308 29 180C29 236.692 36.1718 325 36.1718 325H196C196 325 191.902 236.648 191.902 180C191.902 123.352 196 35 196 35Z" fill="white"/>
<mask id="mask0" mask-type="alpha" maskUnits="userSpaceOnUse" x="30" y="35" width="500" height="290">
<path d="M37.1718 35H197C197 35 192.902 123.352 192.902 180C192.902 236.648 197 325 197 325H37.1718C37.1718 325 30 236.692 30 180C30 123.308 37.1718 35 37.1718 35Z" fill="black"/>
<path d="M204 35H360C360 35 364 123.352 364 180C364 236.648 360 325 360 325H204C204 325 200 236.648 200 180C200 123.352 204 35 204 35Z" fill="black"/>
<path d="M367 35H523C523 35 530 123.308 530 180C530 236.692 523 325 523 325H367C367 325 371 236.648 371 180C371 123.352 367 35 367 35Z" fill="black"/>
</mask>
<g mask="url(#mask0)">
<path fill-rule="evenodd" clip-rule="evenodd" d="M465.492 331.442C486.977 319.038 493.363 298.962 484.608 283.798C475.854 268.635 455.274 264.127 433.789 276.532C413.998 287.958 400.342 309.749 405.153 324.966C403.407 326.903 402.733 329.105 403.635 330.668C404.543 332.241 406.812 332.754 409.384 332.192C420.246 343.791 445.795 342.814 465.492 331.442Z" fill="#F8D833"/>
<path fill-rule="evenodd" clip-rule="evenodd" d="M411.959 300.359C406.822 308.888 404.898 317.524 407.06 324.363L407.406 325.455L406.639 326.306C405.067 328.048 405.139 329.272 405.367 329.668C405.597 330.066 406.637 330.745 408.957 330.238L410.067 329.995L410.844 330.825C415.73 336.042 424.165 338.641 434.083 338.432C443.944 338.223 454.927 335.232 464.492 329.71C485.357 317.664 490.902 298.7 482.876 284.798C474.85 270.897 455.654 266.217 434.789 278.264C425.178 283.812 417.066 291.879 411.959 300.359ZM408.532 298.295C413.998 289.219 422.609 280.677 432.789 274.8C454.895 262.037 476.857 266.374 486.34 282.798C495.823 299.223 488.597 320.412 466.492 333.174C456.36 339.024 444.72 342.208 434.167 342.431C424.106 342.643 414.712 340.16 408.687 334.334C406.114 334.634 403.285 334.061 401.903 331.668C400.533 329.295 401.425 326.585 402.943 324.517C400.81 316.372 403.322 306.947 408.532 298.295Z" fill="black"/>
<path d="M416.6 307.746C425.585 295.875 436.758 288.427 443.66 285.131C449.542 282.322 457.582 279.418 465.084 278.875C467.797 278.546 468.666 278.206 466.085 276.375C463.505 274.544 458.584 274.875 454.584 275.375C450.584 275.875 446.113 277.025 438.462 281.027C428.898 286.029 421.577 293.368 419.085 296.375C416.6 299.375 414.09 303.833 414.087 305.375C414.083 307.141 415.585 308.375 416.6 307.746Z" fill="#FCE98A"/>
<path d="M465.241 317.372C463.308 323.927 453.721 331.885 451.5 331.892C461.614 333.238 484.481 334.315 492.014 318.666C499.547 303.017 490.128 291.519 486.634 288.582C481.62 289.478 469.973 287.566 465.167 294.049C459.447 301.765 467.173 310.817 465.241 317.372Z" fill="#108A41"/>
<path fill-rule="evenodd" clip-rule="evenodd" d="M457.322 330.597C461.371 327.295 465.519 322.994 467.021 317.897C467.988 314.618 467.058 311.198 466.17 307.936C465.966 307.185 465.764 306.442 465.588 305.712C464.634 301.75 464.326 298.301 466.658 295.155C468.569 292.578 471.978 291.5 476.021 291.066C477.657 290.891 479.301 290.852 480.944 290.813C481.699 290.795 482.453 290.778 483.206 290.747C480.53 301.556 476.688 314.225 475.703 316.195C479.788 310.398 483.564 301.95 486.429 290.926C490.078 294.644 496.709 304.634 490.342 317.861C486.94 324.928 480.026 328.363 472.376 329.83C467.174 330.827 461.795 330.876 457.322 330.597ZM487.425 286.822L487.829 287.161C491.634 290.36 501.75 302.722 493.687 319.471C489.555 328.054 481.27 331.904 473.075 333.475C464.868 335.048 457.267 333.842 455.077 333.441C452.888 333.04 449.648 331.772 449.648 331.772C451.334 329.617 453.435 328.033 455.509 326.47C458.831 323.966 462.085 321.514 463.46 316.847C464.128 314.583 463.435 312.056 462.813 309.784C462.736 309.503 462.66 309.225 462.587 308.953C461.156 303.552 460.074 297.802 463.676 292.944C466.572 289.038 471.39 287.83 475.625 287.375C477.145 287.212 478.689 287.19 480.233 287.168C481.525 287.15 482.817 287.132 484.096 287.031C484.192 286.614 484.285 286.204 484.375 285.799C484.759 284.074 485.415 280.146 485.588 278.875L489.088 279.375C488.937 280.194 488.368 282.681 487.942 284.544C487.77 285.298 487.62 285.95 487.532 286.347C487.497 286.506 487.461 286.664 487.425 286.822Z" fill="black"/>
<path d="M405.167 139.167C398.361 139.785 387.431 133.805 386.606 131.742C389.081 141.642 396.505 163.296 413.829 164.534C431.152 165.771 438.371 152.778 439.814 148.447C437.133 144.116 434.62 132.585 426.822 130.505C417.541 128.03 411.973 138.548 405.167 139.167Z" fill="#108A41"/>
<path fill-rule="evenodd" clip-rule="evenodd" d="M405.335 141.015C400.043 141.496 394.517 139.225 389.955 136.678C391.343 140.939 393.371 145.921 396.215 150.39C400.397 156.961 406.138 162.123 413.961 162.682C429.142 163.767 435.941 153.143 437.773 148.615C436.198 145.664 435.153 142.459 433.594 139.496C431.701 135.897 429.443 133.125 426.343 132.298C422.559 131.289 419.466 132.846 416.135 135.193C412.852 137.506 409.523 140.634 405.335 141.015ZM427.3 128.712C431.998 129.964 434.896 133.998 436.879 137.768C438.533 140.91 439.524 144.452 441.392 147.47L441.85 148.21L441.575 149.034C440.003 153.751 432.238 167.709 413.696 166.385C404.196 165.706 397.563 159.422 393.083 152.383C388.597 145.333 386.918 137.822 386.484 135.639C386.05 133.456 386.035 129.976 386.035 129.976C392.862 131.988 397.127 138.034 404.999 137.318C407.641 137.078 409.959 135.118 412.016 133.598C416.509 130.277 421.456 127.153 427.3 128.712Z" fill="black"/>
<path d="M449.37 139.714C449.37 139.714 449.37 139.714 450.077 139.82C450.473 139.662 452.347 138.92 452.345 138.914C453.677 142.242 455.162 145.515 456.712 148.745C459.368 154.281 462.884 160.868 466.426 165.404C470.25 170.302 476.302 175.624 481.481 179.77C484.056 181.83 486.386 183.578 488.072 184.81C488.915 185.426 489.596 185.912 490.065 186.243C490.3 186.409 490.481 186.536 490.603 186.621C490.665 186.664 490.711 186.696 490.741 186.717L490.785 186.748C490.785 186.748 490.786 186.748 489.802 188.179C488.818 189.609 488.818 189.609 488.818 189.609L488.804 189.6L488.765 189.573L488.705 189.531L488.618 189.471C488.49 189.381 488.302 189.25 488.061 189.079C487.578 188.738 486.883 188.241 486.024 187.614C484.306 186.359 481.934 184.58 479.311 182.481C474.096 178.306 467.776 172.776 463.689 167.542C459.904 162.694 456.256 155.823 453.581 150.247C453.007 149.051 452.475 147.908 451.994 146.851C451.864 148.096 451.734 149.467 451.615 150.921C451.115 157.04 450.827 164.501 451.596 170.205C452.426 176.363 454.966 184.012 457.346 190.204C458.528 193.282 459.659 195.967 460.493 197.881C460.91 198.838 461.252 199.602 461.49 200.125C461.609 200.386 461.701 200.587 461.764 200.723C461.795 200.79 461.819 200.841 461.835 200.875L461.852 200.912L461.857 200.923C461.857 200.923 461.857 200.923 460.286 201.662C458.715 202.401 458.715 202.401 458.715 202.401L458.707 202.386L458.688 202.343C458.67 202.306 458.645 202.252 458.612 202.181C458.547 202.039 458.451 201.831 458.328 201.562C458.084 201.024 457.734 200.244 457.309 199.268C456.46 197.319 455.309 194.586 454.104 191.45C451.707 185.214 449.042 177.25 448.154 170.669C447.332 164.574 447.65 156.801 448.154 150.638C448.251 149.453 448.355 148.323 448.46 147.27C446.753 147.657 444.686 148.066 442.222 148.458C428.781 150.602 417.935 150.344 410.116 148.458C412.658 148.68 429.96 147.173 441.568 145.321C444.88 144.793 447.221 144.179 448.86 143.609C449.015 142.309 449.177 141.009 449.37 139.714Z" fill="black"/>
<path d="M508.035 187.744C508.035 198.054 499.677 206.411 489.368 206.411C479.059 206.411 470.701 198.054 470.701 187.744C470.701 177.435 479.059 169.078 489.368 169.078C499.677 169.078 508.035 177.435 508.035 187.744Z" fill="#D91C1C"/>
<path fill-rule="evenodd" clip-rule="evenodd" d="M489.368 202.07C497.28 202.07 503.693 195.656 503.693 187.744C503.693 179.833 497.28 173.419 489.368 173.419C481.456 173.419 475.042 179.833 475.042 187.744C475.042 195.656 481.456 202.07 489.368 202.07ZM489.368 206.411C499.677 206.411 508.035 198.054 508.035 187.744C508.035 177.435 499.677 169.078 489.368 169.078C479.059 169.078 470.701 177.435 470.701 187.744C470.701 198.054 479.059 206.411 489.368 206.411Z" fill="black"/>
<path d="M481.438 179.582C481.438 179.582 483.75 177.909 484.996 178.628C486.242 179.347 486.669 180.94 485.949 182.186C485.23 183.432 484.329 183.256 483.461 184.76C482.593 186.263 482.752 186.856 482.476 188.201C482.201 189.546 480.164 189.874 478.918 189.155C477.673 188.435 477.965 185.597 477.965 185.597C477.965 185.597 478.081 183.659 478.95 182.155C479.818 180.651 481.438 179.582 481.438 179.582Z" fill="white"/>
<path d="M472.414 213.582C467.213 222.483 455.78 225.481 446.879 220.279C437.979 215.077 434.98 203.645 440.182 194.744C445.384 185.844 456.817 182.845 465.717 188.047C474.618 193.249 477.616 204.681 472.414 213.582Z" fill="#D91C1C"/>
<path fill-rule="evenodd" clip-rule="evenodd" d="M449.07 216.531C455.901 220.524 464.674 218.222 468.666 211.392C472.659 204.561 470.358 195.787 463.527 191.795C456.696 187.803 447.922 190.104 443.93 196.935C439.938 203.766 442.239 212.539 449.07 216.531ZM446.879 220.279C455.78 225.481 467.213 222.483 472.414 213.582C477.616 204.681 474.618 193.249 465.717 188.047C456.817 182.845 445.384 185.844 440.182 194.744C434.98 203.645 437.979 215.077 446.879 220.279Z" fill="black"/>
<path d="M449.045 194.893C449.045 194.893 451.358 193.22 452.603 193.939C453.849 194.659 454.276 196.252 453.557 197.497C452.837 198.743 451.937 198.567 451.068 200.071C450.2 201.575 450.359 202.168 450.084 203.513C449.809 204.858 447.772 205.185 446.526 204.466C445.28 203.747 445.572 200.908 445.572 200.908C445.572 200.908 445.689 198.97 446.557 197.466C447.425 195.963 449.045 194.893 449.045 194.893Z" fill="white"/>
<path fill-rule="evenodd" clip-rule="evenodd" d="M458.476 63.5336C480.033 51.1147 486.439 31.0151 477.656 15.8343C468.872 0.653424 448.225 -3.86 426.668 8.55898C406.812 19.9986 391.764 42.8332 397.938 57.0499C399.242 60.0536 400.197 61.6779 402.182 64.2842C411.568 76.6065 438.714 74.9187 458.476 63.5336Z" fill="#8933F8"/>
<path fill-rule="evenodd" clip-rule="evenodd" d="M404.766 32.4142C399.612 40.9535 397.682 49.5993 399.851 56.4462C400.529 58.5855 402.318 61.589 403.647 62.9154C408.55 68.1391 417.012 70.7409 426.963 70.531C436.857 70.3223 447.877 67.3282 457.473 61.7995C478.407 49.739 483.971 30.7533 475.918 16.8354C467.865 2.91755 448.606 -1.7675 427.672 10.293C418.029 15.8483 409.89 23.9245 404.766 32.4142ZM401.328 30.3482C406.812 21.2611 415.451 12.7093 425.665 6.82491C447.844 -5.95251 469.879 -1.6107 479.394 14.8331C488.908 31.2769 481.658 52.4903 459.48 65.2677C449.314 71.1241 437.636 74.3114 427.048 74.5348C416.954 74.7477 407.528 72.2616 401.483 66.4286C398.543 63.5914 396.781 60.0873 395.72 56.6002C393.58 48.4458 396.1 39.0101 401.328 30.3482Z" fill="black"/>
<path d="M409.408 39.8085C418.432 27.9299 429.648 20.4723 436.576 17.1708C442.48 14.3573 450.55 11.4478 458.077 10.8995C460.799 10.5682 461.671 10.2278 459.084 8.39833C456.496 6.56883 451.558 6.90338 447.544 7.40626C443.53 7.90913 439.043 9.0625 431.363 13.0703C421.763 18.0801 414.412 25.4251 411.91 28.4345C409.414 31.4368 406.892 35.8966 406.888 37.4396C406.883 39.206 408.39 40.439 409.408 39.8085Z" fill="#C49BFA"/>
<path d="M458.227 49.4548C456.284 56.0196 446.665 63.9945 444.437 64.0031C454.579 65.3444 477.509 66.4064 485.075 50.7317C492.64 35.0571 483.203 23.5512 479.701 20.612C474.672 21.5133 462.994 19.6065 458.169 26.1019C452.428 33.8317 460.169 42.89 458.227 49.4548Z" fill="#108A41"/>
<path fill-rule="evenodd" clip-rule="evenodd" d="M450.276 62.7046C454.338 59.3948 458.501 55.0851 460.011 49.9807C460.983 46.6966 460.053 43.2727 459.166 40.0072C458.961 39.2552 458.759 38.5116 458.583 37.7801C457.629 33.8141 457.323 30.3607 459.664 27.2088C461.582 24.6266 465.002 23.5452 469.057 23.1075C470.697 22.9304 472.346 22.8905 473.994 22.8505C474.748 22.8322 475.502 22.814 476.254 22.7826C473.564 33.6065 469.704 46.2969 468.714 48.2692C472.814 42.4614 476.606 33.9957 479.486 22.951C483.141 26.6639 489.798 36.6679 483.398 49.9271C479.981 57.0056 473.045 60.4507 465.372 61.9249C460.154 62.9273 454.761 62.9807 450.276 62.7046ZM480.487 18.8411L480.901 19.1884C484.714 22.389 494.849 34.7594 486.751 51.5369C482.601 60.1337 474.289 63.9959 466.07 65.575C457.839 67.1564 450.218 65.9536 448.022 65.5539C445.827 65.1542 442.579 63.8872 442.579 63.8872C444.271 61.7278 446.379 60.1406 448.461 58.5734C451.793 56.0642 455.058 53.6061 456.441 48.9323C457.113 46.6644 456.42 44.1341 455.797 41.8604C455.72 41.5786 455.644 41.3007 455.572 41.0277C454.14 35.6212 453.06 29.8645 456.676 24.9973C459.583 21.0838 464.415 19.8704 468.662 19.4119C470.187 19.2473 471.735 19.2243 473.283 19.2013C474.576 19.1821 475.869 19.1629 477.148 19.0614C477.244 18.6475 477.337 18.2392 477.427 17.8372C477.813 16.1102 478.473 12.1778 478.648 10.9055L482.155 11.4034C482.002 12.2233 481.431 14.7129 481.002 16.5779C480.829 17.3329 480.679 17.9856 480.59 18.3836C480.556 18.5365 480.521 18.689 480.487 18.8411Z" fill="black"/>
<path fill-rule="evenodd" clip-rule="evenodd" d="M297.492 331.442C318.977 319.038 325.363 298.962 316.608 283.798C307.854 268.635 287.274 264.127 265.789 276.532C245.998 287.958 232.342 309.749 237.153 324.966C235.407 326.903 234.733 329.105 235.635 330.668C236.543 332.241 238.812 332.754 241.384 332.192C252.246 343.791 277.795 342.814 297.492 331.442Z" fill="#F8D833"/>
<path fill-rule="evenodd" clip-rule="evenodd" d="M243.959 300.359C238.822 308.888 236.898 317.524 239.06 324.363L239.406 325.455L238.639 326.306C237.067 328.048 237.139 329.272 237.367 329.668C237.597 330.066 238.637 330.745 240.957 330.238L242.067 329.995L242.844 330.825C247.73 336.042 256.165 338.641 266.083 338.432C275.944 338.223 286.927 335.232 296.492 329.71C317.357 317.664 322.902 298.7 314.876 284.798C306.85 270.897 287.654 266.217 266.789 278.264C257.178 283.812 249.066 291.879 243.959 300.359ZM240.532 298.295C245.998 289.219 254.609 280.677 264.789 274.8C286.895 262.037 308.857 266.374 318.34 282.798C327.823 299.223 320.597 320.412 298.492 333.174C288.36 339.024 276.72 342.208 266.167 342.431C256.106 342.643 246.712 340.16 240.687 334.334C238.114 334.634 235.285 334.061 233.903 331.668C232.533 329.295 233.425 326.585 234.943 324.517C232.81 316.372 235.322 306.947 240.532 298.295Z" fill="black"/>
<path d="M248.6 307.746C257.585 295.875 268.758 288.427 275.66 285.131C281.542 282.322 289.582 279.418 297.084 278.875C299.797 278.546 300.666 278.206 298.085 276.375C295.505 274.544 290.584 274.875 286.584 275.375C282.584 275.875 278.113 277.025 270.462 281.027C260.898 286.029 253.577 293.368 251.085 296.375C248.6 299.375 246.09 303.833 246.087 305.375C246.083 307.141 247.585 308.375 248.6 307.746Z" fill="#FCE98A"/>
<path d="M297.241 317.372C295.308 323.927 285.721 331.885 283.5 331.892C293.614 333.238 316.481 334.315 324.014 318.666C331.547 303.017 322.128 291.519 318.634 288.582C313.62 289.478 301.973 287.566 297.167 294.049C291.447 301.765 299.173 310.817 297.241 317.372Z" fill="#108A41"/>
<path fill-rule="evenodd" clip-rule="evenodd" d="M289.322 330.597C293.371 327.295 297.519 322.994 299.021 317.897C299.988 314.618 299.058 311.198 298.17 307.936C297.966 307.185 297.764 306.442 297.588 305.712C296.634 301.75 296.326 298.301 298.658 295.155C300.569 292.578 303.978 291.5 308.021 291.066C309.657 290.891 311.301 290.852 312.944 290.813C313.699 290.795 314.453 290.778 315.206 290.747C312.53 301.556 308.688 314.225 307.703 316.195C311.788 310.398 315.564 301.95 318.429 290.926C322.078 294.644 328.709 304.634 322.342 317.861C318.94 324.928 312.026 328.363 304.376 329.83C299.174 330.827 293.795 330.876 289.322 330.597ZM319.425 286.822L319.829 287.161C323.634 290.36 333.75 302.722 325.687 319.471C321.555 328.054 313.27 331.904 305.075 333.475C296.868 335.048 289.267 333.842 287.077 333.441C284.888 333.04 281.648 331.772 281.648 331.772C283.334 329.617 285.435 328.033 287.509 326.47C290.831 323.966 294.085 321.514 295.46 316.847C296.128 314.583 295.435 312.056 294.813 309.784C294.736 309.503 294.66 309.225 294.587 308.953C293.156 303.552 292.074 297.802 295.676 292.944C298.572 289.038 303.39 287.83 307.625 287.375C309.145 287.212 310.689 287.19 312.233 287.168C313.525 287.15 314.817 287.132 316.096 287.031C316.192 286.614 316.285 286.204 316.375 285.799C316.759 284.074 317.415 280.146 317.588 278.875L321.088 279.375C320.937 280.194 320.368 282.681 319.942 284.544C319.77 285.298 319.62 285.95 319.532 286.347C319.497 286.506 319.461 286.664 319.425 286.822Z" fill="black"/>
<path d="M238.167 139.167C231.361 139.785 220.431 133.805 219.606 131.742C222.081 141.642 229.505 163.296 246.829 164.534C264.152 165.771 271.371 152.778 272.814 148.447C270.133 144.116 267.62 132.585 259.822 130.505C250.541 128.03 244.973 138.548 238.167 139.167Z" fill="#108A41"/>
<path fill-rule="evenodd" clip-rule="evenodd" d="M238.335 141.015C233.043 141.496 227.517 139.225 222.955 136.678C224.343 140.939 226.371 145.921 229.215 150.39C233.397 156.961 239.138 162.123 246.961 162.682C262.142 163.767 268.941 153.143 270.773 148.615C269.198 145.664 268.153 142.459 266.594 139.496C264.701 135.897 262.443 133.125 259.343 132.298C255.559 131.289 252.466 132.846 249.135 135.193C245.852 137.506 242.523 140.634 238.335 141.015ZM260.3 128.712C264.998 129.964 267.896 133.998 269.879 137.768C271.533 140.91 272.524 144.452 274.392 147.47L274.85 148.21L274.575 149.034C273.003 153.751 265.238 167.709 246.696 166.385C237.196 165.706 230.563 159.422 226.083 152.383C221.597 145.333 219.918 137.822 219.484 135.639C219.05 133.456 219.035 129.976 219.035 129.976C225.862 131.988 230.127 138.034 237.999 137.318C240.641 137.078 242.959 135.118 245.016 133.598C249.509 130.277 254.456 127.153 260.3 128.712Z" fill="black"/>
<path d="M282.37 139.714C282.37 139.714 282.37 139.714 283.077 139.82C283.473 139.662 285.347 138.92 285.345 138.914C286.677 142.242 288.162 145.515 289.712 148.745C292.368 154.281 295.884 160.868 299.426 165.404C303.25 170.302 309.302 175.624 314.481 179.77C317.056 181.83 319.386 183.578 321.072 184.81C321.915 185.426 322.596 185.912 323.065 186.243C323.3 186.409 323.481 186.536 323.603 186.621C323.665 186.664 323.711 186.696 323.741 186.717L323.785 186.748C323.785 186.748 323.786 186.748 322.802 188.179C321.818 189.609 321.818 189.609 321.818 189.609L321.804 189.6L321.765 189.573L321.705 189.531L321.618 189.471C321.49 189.381 321.302 189.25 321.061 189.079C320.578 188.738 319.883 188.241 319.024 187.614C317.306 186.359 314.934 184.58 312.311 182.481C307.096 178.306 300.776 172.776 296.689 167.542C292.904 162.694 289.256 155.823 286.581 150.247C286.007 149.051 285.475 147.908 284.994 146.851C284.864 148.096 284.734 149.467 284.615 150.921C284.115 157.04 283.827 164.501 284.596 170.205C285.426 176.363 287.966 184.012 290.346 190.204C291.528 193.282 292.659 195.967 293.493 197.881C293.91 198.838 294.252 199.602 294.49 200.125C294.609 200.386 294.701 200.587 294.764 200.723C294.795 200.79 294.819 200.841 294.835 200.875L294.852 200.912L294.857 200.923C294.857 200.923 294.857 200.923 293.286 201.662C291.715 202.401 291.715 202.401 291.715 202.401L291.707 202.386L291.688 202.343C291.67 202.306 291.645 202.252 291.612 202.181C291.547 202.039 291.451 201.831 291.328 201.562C291.084 201.024 290.734 200.244 290.309 199.268C289.46 197.319 288.309 194.586 287.104 191.45C284.707 185.214 282.042 177.25 281.154 170.669C280.332 164.574 280.65 156.801 281.154 150.638C281.251 149.453 281.355 148.323 281.46 147.27C279.753 147.657 277.686 148.066 275.222 148.458C261.781 150.602 250.935 150.344 243.116 148.458C245.658 148.68 262.96 147.173 274.568 145.321C277.88 144.793 280.221 144.179 281.86 143.609C282.015 142.309 282.177 141.009 282.37 139.714Z" fill="black"/>
<path d="M341.035 187.744C341.035 198.054 332.677 206.411 322.368 206.411C312.059 206.411 303.701 198.054 303.701 187.744C303.701 177.435 312.059 169.078 322.368 169.078C332.677 169.078 341.035 177.435 341.035 187.744Z" fill="#D91C1C"/>
<path fill-rule="evenodd" clip-rule="evenodd" d="M322.368 202.07C330.28 202.07 336.693 195.656 336.693 187.744C336.693 179.833 330.28 173.419 322.368 173.419C314.456 173.419 308.042 179.833 308.042 187.744C308.042 195.656 314.456 202.07 322.368 202.07ZM322.368 206.411C332.677 206.411 341.035 198.054 341.035 187.744C341.035 177.435 332.677 169.078 322.368 169.078C312.059 169.078 303.701 177.435 303.701 187.744C303.701 198.054 312.059 206.411 322.368 206.411Z" fill="black"/>
<path d="M314.438 179.582C314.438 179.582 316.75 177.909 317.996 178.628C319.242 179.347 319.669 180.94 318.949 182.186C318.23 183.432 317.329 183.256 316.461 184.76C315.593 186.263 315.752 186.856 315.476 188.201C315.201 189.546 313.164 189.874 311.918 189.155C310.673 188.435 310.965 185.597 310.965 185.597C310.965 185.597 311.081 183.659 311.95 182.155C312.818 180.651 314.438 179.582 314.438 179.582Z" fill="white"/>
<path d="M305.414 213.582C300.213 222.483 288.78 225.481 279.879 220.279C270.979 215.077 267.98 203.645 273.182 194.744C278.384 185.844 289.817 182.845 298.717 188.047C307.618 193.249 310.616 204.681 305.414 213.582Z" fill="#D91C1C"/>
<path fill-rule="evenodd" clip-rule="evenodd" d="M282.07 216.531C288.901 220.524 297.674 218.222 301.666 211.392C305.659 204.561 303.358 195.787 296.527 191.795C289.696 187.803 280.922 190.104 276.93 196.935C272.938 203.766 275.239 212.539 282.07 216.531ZM279.879 220.279C288.78 225.481 300.213 222.483 305.414 213.582C310.616 204.681 307.618 193.249 298.717 188.047C289.817 182.845 278.384 185.844 273.182 194.744C267.98 203.645 270.979 215.077 279.879 220.279Z" fill="black"/>
<path d="M282.045 194.893C282.045 194.893 284.358 193.22 285.603 193.939C286.849 194.659 287.276 196.252 286.557 197.497C285.837 198.743 284.937 198.567 284.068 200.071C283.2 201.575 283.359 202.168 283.084 203.513C282.809 204.858 280.772 205.185 279.526 204.466C278.28 203.747 278.572 200.908 278.572 200.908C278.572 200.908 278.689 198.97 279.557 197.466C280.425 195.963 282.045 194.893 282.045 194.893Z" fill="white"/>
<path fill-rule="evenodd" clip-rule="evenodd" d="M298.476 64.5336C320.033 52.1147 326.439 32.0151 317.656 16.8343C308.872 1.65342 288.225 -2.86 266.668 9.55898C246.812 20.9986 231.764 43.8332 237.938 58.0499C239.242 61.0536 240.197 62.6779 242.182 65.2842C251.568 77.6065 278.714 75.9187 298.476 64.5336Z" fill="#8933F8"/>
<path fill-rule="evenodd" clip-rule="evenodd" d="M244.766 33.4142C239.612 41.9535 237.682 50.5993 239.851 57.4462C240.529 59.5855 242.318 62.589 243.647 63.9154C248.55 69.1391 257.012 71.7409 266.963 71.531C276.857 71.3223 287.877 68.3282 297.473 62.7995C318.407 50.739 323.971 31.7533 315.918 17.8354C307.865 3.91755 288.606 -0.767498 267.672 11.293C258.029 16.8483 249.89 24.9245 244.766 33.4142ZM241.328 31.3482C246.812 22.2611 255.451 13.7093 265.665 7.82491C287.844 -4.95251 309.879 -0.6107 319.394 15.8331C328.908 32.2769 321.658 53.4903 299.48 66.2677C289.314 72.1241 277.636 75.3114 267.048 75.5348C256.954 75.7477 247.528 73.2616 241.483 67.4286C238.543 64.5914 236.781 61.0873 235.72 57.6002C233.58 49.4458 236.1 40.0101 241.328 31.3482Z" fill="black"/>
<path d="M249.408 40.8085C258.432 28.9299 269.648 21.4723 276.576 18.1708C282.48 15.3573 290.55 12.4478 298.077 11.8995C300.799 11.5682 301.671 11.2278 299.084 9.39833C296.496 7.56883 291.558 7.90338 287.544 8.40626C283.53 8.90913 279.043 10.0625 271.363 14.0703C261.763 19.0801 254.412 26.4251 251.91 29.4345C249.414 32.4368 246.892 36.8966 246.888 38.4396C246.883 40.206 248.39 41.439 249.408 40.8085Z" fill="#C49BFA"/>
<path d="M298.227 50.4548C296.284 57.0196 286.665 64.9945 284.437 65.0031C294.579 66.3444 317.509 67.4064 325.075 51.7317C332.64 36.0571 323.203 24.5512 319.701 21.612C314.672 22.5133 302.994 20.6065 298.169 27.1019C292.428 34.8317 300.169 43.89 298.227 50.4548Z" fill="#108A41"/>
<path fill-rule="evenodd" clip-rule="evenodd" d="M290.276 63.7046C294.338 60.3948 298.501 56.0851 300.011 50.9807C300.983 47.6966 300.053 44.2727 299.166 41.0072C298.961 40.2552 298.759 39.5116 298.583 38.7801C297.629 34.8141 297.323 31.3607 299.664 28.2088C301.582 25.6266 305.002 24.5452 309.057 24.1075C310.697 23.9304 312.346 23.8905 313.994 23.8505C314.748 23.8322 315.502 23.814 316.254 23.7826C313.564 34.6065 309.704 47.2969 308.714 49.2692C312.814 43.4614 316.606 34.9957 319.486 23.951C323.141 27.6639 329.798 37.6679 323.398 50.9271C319.981 58.0056 313.045 61.4507 305.372 62.9249C300.154 63.9273 294.761 63.9807 290.276 63.7046ZM320.487 19.8411L320.901 20.1884C324.714 23.389 334.849 35.7594 326.751 52.5369C322.601 61.1337 314.289 64.9959 306.07 66.575C297.839 68.1564 290.218 66.9536 288.022 66.5539C285.827 66.1542 282.579 64.8872 282.579 64.8872C284.271 62.7278 286.379 61.1406 288.461 59.5734C291.793 57.0642 295.058 54.6061 296.441 49.9323C297.113 47.6644 296.42 45.1341 295.797 42.8604C295.72 42.5786 295.644 42.3007 295.572 42.0277C294.14 36.6212 293.06 30.8645 296.676 25.9973C299.583 22.0838 304.415 20.8704 308.662 20.4119C310.187 20.2473 311.735 20.2243 313.283 20.2013C314.576 20.1821 315.869 20.1629 317.148 20.0614C317.244 19.6475 317.337 19.2392 317.427 18.8372C317.813 17.1102 318.473 13.1778 318.648 11.9055L322.155 12.4034C322.002 13.2233 321.431 15.7129 321.002 17.5779C320.829 18.3329 320.679 18.9856 320.59 19.3836C320.556 19.5365 320.521 19.689 320.487 19.8411Z" fill="black"/>
<g opacity="0.05">
<g filter="url(#filter0_b)">
<path d="M112.48 303.691C114.357 316.756 105.342 328.896 92.3446 330.808C79.3468 332.719 67.2881 323.678 65.4106 310.614C63.5332 297.55 72.548 285.409 85.5458 283.498C98.5435 281.586 110.602 290.627 112.48 303.691Z" fill="#F9B95F"/>
<path fill-rule="evenodd" clip-rule="evenodd" d="M91.8658 327.476C103.033 325.833 110.778 315.403 109.165 304.179C107.552 292.955 97.1916 285.187 86.0245 286.829C74.8575 288.472 67.1123 298.902 68.7254 310.126C70.3384 321.351 80.6987 329.118 91.8658 327.476ZM92.3446 330.808C105.342 328.896 114.357 316.756 112.48 303.691C110.602 290.627 98.5435 281.586 85.5458 283.498C72.548 285.409 63.5332 297.55 65.4106 310.614C67.2881 323.678 79.3468 332.719 92.3446 330.808Z" fill="black"/>
<path d="M92.1278 310.946C92.0272 310.245 91.7537 309.719 91.3075 309.366C90.8684 309.003 90.1648 308.715 89.1966 308.499C88.2284 308.284 87.3871 308.055 86.6728 307.811C85.9572 307.559 85.3275 307.246 84.7837 306.873C84.2471 306.489 83.8005 306.015 83.4439 305.448C83.0957 304.88 82.8615 304.178 82.7412 303.341C82.5338 301.898 82.8186 300.649 83.5955 299.593C84.3723 298.537 85.5034 297.821 86.9886 297.446L86.5947 294.705L88.6157 294.408L89.0152 297.187C90.5363 297.182 91.7934 297.642 92.7865 298.568C93.7783 299.486 94.3938 300.778 94.6332 302.443L90.9827 302.979C90.8355 301.955 90.5151 301.222 90.0217 300.78C89.5354 300.328 88.9428 300.154 88.2439 300.256C87.5534 300.358 87.0475 300.637 86.7262 301.094C86.4038 301.543 86.2928 302.117 86.3935 302.817C86.4868 303.466 86.7469 303.96 87.1739 304.298C87.6008 304.636 88.3448 304.937 89.4058 305.199C90.4752 305.46 91.3605 305.727 92.0617 305.999C92.7616 306.262 93.3679 306.591 93.8804 306.987C94.3918 307.374 94.8077 307.844 95.1282 308.399C95.4474 308.945 95.6629 309.606 95.7745 310.383C95.9832 311.835 95.7063 313.079 94.9437 314.115C94.1812 315.151 93.0285 315.866 91.4856 316.258L91.8519 318.807L89.8436 319.102L89.479 316.566C87.7258 316.632 86.2979 316.21 85.1954 315.3C84.1001 314.38 83.4266 313.045 83.175 311.294L86.8254 310.757C86.9715 311.774 87.3196 312.52 87.8697 312.997C88.427 313.465 89.1519 313.633 90.0445 313.501C90.7856 313.392 91.3426 313.11 91.7156 312.654C92.0874 312.19 92.2248 311.62 92.1278 310.946Z" fill="black"/>
<path d="M168.565 313.77C165.955 326.702 153.404 335.033 140.532 332.378C127.659 329.724 119.34 317.088 121.95 304.156C124.56 291.223 137.111 282.892 149.983 285.547C162.855 288.202 171.175 300.838 168.565 313.77Z" fill="#F9B95F"/>
<path fill-rule="evenodd" clip-rule="evenodd" d="M141.197 329.08C152.256 331.361 163.039 324.203 165.282 313.093C167.524 301.982 160.377 291.126 149.317 288.845C138.258 286.564 127.475 293.722 125.233 304.833C122.99 315.943 130.138 326.799 141.197 329.08ZM140.532 332.378C153.404 335.033 165.955 326.702 168.565 313.77C171.175 300.838 162.855 288.202 149.983 285.547C137.111 282.892 124.56 291.223 121.95 304.156C119.34 317.088 127.659 329.724 140.532 332.378Z" fill="black"/>
<path d="M146.982 313.621C147.122 312.928 147.041 312.339 146.739 311.854C146.448 311.363 145.882 310.85 145.043 310.316C144.204 309.782 143.489 309.278 142.898 308.804C142.31 308.321 141.822 307.811 141.435 307.274C141.058 306.73 140.797 306.13 140.652 305.475C140.514 304.821 140.529 304.08 140.696 303.252C140.985 301.823 141.671 300.746 142.756 300.018C143.841 299.291 145.146 299.006 146.669 299.161L147.217 296.448L149.219 296.861L148.663 299.612C150.097 300.128 151.126 300.991 151.75 302.203C152.376 303.406 152.522 304.832 152.19 306.48L148.574 305.735C148.779 304.72 148.723 303.921 148.407 303.336C148.101 302.745 147.601 302.378 146.909 302.235C146.225 302.094 145.655 302.183 145.2 302.503C144.746 302.815 144.449 303.317 144.309 304.01C144.18 304.653 144.259 305.206 144.547 305.671C144.836 306.135 145.435 306.672 146.346 307.283C147.265 307.895 148.009 308.449 148.578 308.945C149.148 309.432 149.609 309.95 149.958 310.497C150.31 311.037 150.544 311.622 150.659 312.253C150.777 312.876 150.758 313.572 150.603 314.341C150.313 315.778 149.635 316.854 148.57 317.567C147.505 318.281 146.181 318.558 144.597 318.399L144.088 320.922L142.099 320.512L142.606 318.001C140.933 317.463 139.731 316.577 138.998 315.343C138.276 314.102 138.089 312.615 138.439 310.882L142.055 311.628C141.852 312.634 141.929 313.455 142.287 314.093C142.655 314.723 143.281 315.13 144.165 315.312C144.899 315.463 145.518 315.388 146.022 315.087C146.527 314.778 146.847 314.289 146.982 313.621Z" fill="black"/>
<path d="M141.685 296.923C141.685 310.136 131.046 320.847 117.923 320.847C104.799 320.847 94.1602 310.136 94.1602 296.923C94.1602 283.711 104.799 273 117.923 273C131.046 273 141.685 283.711 141.685 296.923Z" fill="#F9B95F"/>
<path fill-rule="evenodd" clip-rule="evenodd" d="M117.923 317.477C129.198 317.477 138.338 308.275 138.338 296.923C138.338 285.572 129.198 276.369 117.923 276.369C106.647 276.369 97.507 285.572 97.507 296.923C97.507 308.275 106.647 317.477 117.923 317.477ZM117.923 320.847C131.046 320.847 141.685 310.136 141.685 296.923C141.685 283.711 131.046 273 117.923 273C104.799 273 94.1602 283.711 94.1602 296.923C94.1602 310.136 104.799 320.847 117.923 320.847Z" fill="black"/>
<path d="M120.529 301.142C120.529 300.434 120.333 299.873 119.943 299.459C119.56 299.036 118.906 298.648 117.98 298.294C117.054 297.94 116.255 297.59 115.584 297.245C114.912 296.891 114.334 296.49 113.85 296.041C113.374 295.583 113 295.048 112.728 294.435C112.465 293.822 112.333 293.093 112.333 292.247C112.333 290.788 112.792 289.593 113.71 288.66C114.628 287.728 115.847 287.184 117.368 287.029V284.258H119.407V287.068C120.911 287.284 122.088 287.922 122.938 288.984C123.788 290.037 124.212 291.405 124.212 293.089H120.529C120.529 292.053 120.316 291.28 119.892 290.771C119.475 290.253 118.914 289.994 118.209 289.994C117.512 289.994 116.973 290.197 116.59 290.603C116.208 291 116.017 291.552 116.017 292.26C116.017 292.916 116.204 293.442 116.578 293.84C116.952 294.237 117.644 294.642 118.655 295.057C119.675 295.471 120.512 295.864 121.166 296.235C121.82 296.597 122.373 297.012 122.823 297.478C123.274 297.935 123.618 298.462 123.856 299.058C124.093 299.644 124.212 300.331 124.212 301.116C124.212 302.584 123.762 303.775 122.861 304.69C121.961 305.605 120.72 306.144 119.14 306.308V308.885H117.113V306.321C115.371 306.131 114.02 305.506 113.06 304.444C112.108 303.373 111.632 301.954 111.632 300.184H115.316C115.316 301.211 115.554 302.001 116.03 302.553C116.514 303.097 117.206 303.369 118.107 303.369C118.855 303.369 119.446 303.171 119.879 302.774C120.312 302.368 120.529 301.824 120.529 301.142Z" fill="black"/>
</g>
<g filter="url(#filter1_b)">
<path fill-rule="evenodd" clip-rule="evenodd" d="M129.492 226.442C150.977 214.038 157.363 193.962 148.608 178.798C139.854 163.635 119.274 159.127 97.7892 171.532C77.9982 182.958 64.3418 204.749 69.1534 219.966C67.4067 221.903 66.7326 224.105 67.6349 225.668C68.5434 227.241 70.8116 227.754 73.3837 227.192C84.2462 238.791 109.795 237.814 129.492 226.442Z" fill="#F8D833"/>
<path fill-rule="evenodd" clip-rule="evenodd" d="M75.9587 195.359C70.8221 203.888 68.8981 212.524 71.0605 219.363L71.4057 220.455L70.6387 221.306C69.0674 223.048 69.1389 224.272 69.3671 224.668C69.597 225.066 70.6371 225.745 72.9565 225.238L74.0667 224.995L74.8436 225.825C79.73 231.042 88.1648 233.641 98.0829 233.432C107.944 233.223 118.927 230.232 128.492 224.71C149.357 212.664 154.902 193.7 146.876 179.798C138.85 165.897 119.654 161.217 98.7893 173.264C89.1785 178.812 81.0656 186.879 75.9587 195.359ZM72.5322 193.295C77.9984 184.219 86.6091 175.677 96.7893 169.8C118.895 157.037 140.857 161.374 150.34 177.798C159.823 194.223 152.597 215.412 130.492 228.174C120.36 234.024 108.72 237.208 98.1674 237.431C88.1064 237.643 78.7116 235.16 72.6867 229.334C70.1136 229.634 67.2847 229.061 65.903 226.668C64.5335 224.295 65.4251 221.585 66.9428 219.517C64.8102 211.372 67.3217 201.947 72.5322 193.295Z" fill="black"/>
<path d="M80.6 202.746C89.5853 190.875 100.758 183.427 107.66 180.131C113.542 177.322 121.582 174.418 129.084 173.875C131.797 173.546 132.666 173.206 130.085 171.375C127.505 169.544 122.584 169.875 118.584 170.375C114.584 170.875 110.113 172.025 102.462 176.027C92.8975 181.029 85.5767 188.368 83.0854 191.375C80.6 194.375 78.0895 198.833 78.0866 200.375C78.0833 202.141 79.5854 203.375 80.6 202.746Z" fill="#FCE98A"/>
<path d="M129.241 212.372C127.308 218.927 117.721 226.885 115.5 226.892C125.614 228.238 148.481 229.315 156.014 213.666C163.547 198.017 154.128 186.519 150.634 183.582C145.62 184.478 133.973 182.566 129.167 189.049C123.447 196.765 131.173 205.817 129.241 212.372Z" fill="#108A41"/>
<path fill-rule="evenodd" clip-rule="evenodd" d="M121.322 225.597C125.371 222.295 129.519 217.994 131.021 212.897C131.988 209.618 131.058 206.198 130.17 202.936C129.966 202.185 129.764 201.442 129.588 200.712C128.634 196.75 128.326 193.301 130.658 190.155C132.569 187.578 135.978 186.5 140.021 186.066C141.657 185.891 143.301 185.852 144.944 185.813C145.699 185.795 146.453 185.778 147.206 185.747C144.53 196.556 140.688 209.225 139.703 211.195C143.788 205.398 147.564 196.95 150.429 185.926C154.078 189.644 160.709 199.634 154.342 212.861C150.94 219.928 144.026 223.363 136.376 224.83C131.174 225.827 125.795 225.876 121.322 225.597ZM151.425 181.822L151.829 182.161C155.634 185.36 165.75 197.722 157.687 214.471C153.555 223.054 145.27 226.904 137.075 228.475C128.868 230.048 121.267 228.842 119.077 228.441C116.888 228.04 113.648 226.772 113.648 226.772C115.334 224.617 117.435 223.033 119.509 221.47C122.831 218.966 126.085 216.514 127.46 211.847C128.128 209.583 127.435 207.056 126.813 204.784C126.736 204.503 126.66 204.225 126.587 203.953C125.156 198.552 124.074 192.802 127.676 187.944C130.572 184.038 135.39 182.83 139.625 182.375C141.145 182.212 142.689 182.19 144.233 182.168C145.525 182.15 146.817 182.132 148.096 182.031C148.192 181.614 148.285 181.204 148.375 180.799C148.759 179.074 149.415 175.146 149.588 173.875L153.088 174.375C152.937 175.194 152.368 177.681 151.942 179.544C151.77 180.298 151.62 180.95 151.532 181.347C151.497 181.506 151.461 181.664 151.425 181.822Z" fill="black"/>
</g>
<g filter="url(#filter2_b)">
<path d="M72.167 39.1668C65.3613 39.7855 54.4309 33.8048 53.606 31.7424C56.0808 41.6416 63.5052 63.2962 80.8288 64.5336C98.1525 65.771 105.371 52.7783 106.814 48.4473C104.133 44.1164 101.62 32.5846 93.8216 30.505C84.541 28.0301 78.9727 38.5481 72.167 39.1668Z" fill="#108A41"/>
<path fill-rule="evenodd" clip-rule="evenodd" d="M72.3348 41.0153C67.0433 41.4964 61.5166 39.2247 56.955 36.6781C58.3435 40.9391 60.371 45.9208 63.2148 50.3897C67.3968 56.9614 73.138 62.1234 80.9608 62.6822C96.1423 63.7666 102.941 53.1429 104.773 48.6155C103.198 45.6644 102.153 42.4592 100.594 39.4961C98.7007 35.8971 96.4431 33.1251 93.3431 32.2984C89.5591 31.2893 86.4661 32.8462 83.135 35.1931C79.8525 37.5058 76.5234 40.6345 72.3348 41.0153ZM94.2996 28.7115C98.998 29.9645 101.896 33.9983 103.879 37.7678C105.533 40.9101 106.524 44.4518 108.392 47.4704L108.85 48.2095L108.575 49.0343C107.003 53.7506 99.238 67.7094 80.6964 66.385C71.1956 65.7063 64.5628 59.4224 60.0829 52.3827C55.5968 45.333 53.9181 37.8219 53.484 35.6388C53.0499 33.4557 53.0347 29.9764 53.0347 29.9764C59.8621 31.9879 64.1273 38.0339 71.9987 37.3183C74.6411 37.0781 76.9594 35.118 79.0163 33.5978C83.5094 30.2772 88.4564 27.1533 94.2996 28.7115Z" fill="black"/>
<path d="M116.37 39.7141C116.37 39.7141 116.37 39.7137 117.077 39.8198C117.473 39.662 119.347 38.9204 119.345 38.9145C120.677 42.2423 122.162 45.5146 123.712 48.7453C126.368 54.2811 129.884 60.8676 133.426 65.4045C137.25 70.3021 143.302 75.6242 148.481 79.7696C151.056 81.8301 153.386 83.5777 155.072 84.8098C155.915 85.4256 156.596 85.912 157.065 86.2435C157.3 86.4093 157.481 86.5363 157.603 86.6214C157.665 86.664 157.711 86.696 157.741 86.7172L157.785 86.7476C157.785 86.7476 157.786 86.7478 156.802 88.1786C155.818 89.6095 155.818 89.6092 155.818 89.6092L155.804 89.5996L155.765 89.573L155.705 89.5311L155.618 89.4709C155.49 89.3815 155.302 89.25 155.061 89.0795C154.578 88.7385 153.883 88.2415 153.024 87.614C151.306 86.3593 148.934 84.5803 146.311 82.4809C141.096 78.3064 134.776 72.7758 130.689 67.5418C126.904 62.6937 123.256 55.8228 120.581 50.2475C120.007 49.0509 119.475 47.9084 118.994 46.8514C118.864 48.0957 118.734 49.4666 118.615 50.9208C118.115 57.0404 117.827 64.5007 118.596 70.2052C119.426 76.3631 121.966 84.0118 124.346 90.204C125.528 93.282 126.659 95.9667 127.493 97.8813C127.91 98.8383 128.252 99.6018 128.49 100.125C128.609 100.386 128.701 100.587 128.764 100.723C128.795 100.79 128.819 100.841 128.835 100.875L128.852 100.912L128.857 100.923C128.857 100.923 128.857 100.924 127.286 101.662C125.715 102.401 125.715 102.401 125.715 102.401L125.707 102.386L125.688 102.343C125.67 102.306 125.645 102.252 125.612 102.181C125.547 102.039 125.451 101.831 125.328 101.562C125.084 101.024 124.734 100.244 124.309 99.2685C123.46 97.3188 122.309 94.5858 121.104 91.4498C118.707 85.2141 116.042 77.2502 115.154 70.6693C114.332 64.5735 114.65 56.801 115.154 50.6378C115.251 49.4533 115.355 48.3232 115.46 47.2701C113.753 47.6572 111.686 48.0655 109.222 48.4585C95.7805 50.6024 84.9352 50.344 77.1162 48.4585C79.6576 48.6797 96.9599 47.173 108.568 45.3215C111.88 44.7933 114.221 44.179 115.86 43.6093C116.015 42.309 116.177 41.0092 116.37 39.7141Z" fill="black"/>
<path d="M175.035 87.7445C175.035 98.0539 166.677 106.411 156.368 106.411C146.059 106.411 137.701 98.0539 137.701 87.7445C137.701 77.4352 146.059 69.0778 156.368 69.0778C166.677 69.0778 175.035 77.4352 175.035 87.7445Z" fill="#D91C1C"/>
<path fill-rule="evenodd" clip-rule="evenodd" d="M156.368 102.07C164.28 102.07 170.693 95.6563 170.693 87.7445C170.693 79.8327 164.28 73.4189 156.368 73.4189C148.456 73.4189 142.042 79.8327 142.042 87.7445C142.042 95.6563 148.456 102.07 156.368 102.07ZM156.368 106.411C166.677 106.411 175.035 98.0539 175.035 87.7445C175.035 77.4352 166.677 69.0778 156.368 69.0778C146.059 69.0778 137.701 77.4352 137.701 87.7445C137.701 98.0539 146.059 106.411 156.368 106.411Z" fill="black"/>
<path d="M148.438 79.5816C148.438 79.5816 150.75 77.909 151.996 78.6282C153.242 79.3475 153.669 80.9405 152.949 82.1862C152.23 83.432 151.329 83.2559 150.461 84.7597C149.593 86.2635 149.752 86.8565 149.476 88.2014C149.201 89.5463 147.164 89.8741 145.918 89.1548C144.673 88.4356 144.965 85.5968 144.965 85.5968C144.965 85.5968 145.081 83.6589 145.95 82.1551C146.818 80.6513 148.438 79.5816 148.438 79.5816Z" fill="white"/>
<path d="M139.414 113.582C134.213 122.483 122.78 125.481 113.879 120.279C104.979 115.078 101.98 103.645 107.182 94.7444C112.384 85.8437 123.817 82.8452 132.717 88.0472C141.618 93.2491 144.616 104.682 139.414 113.582Z" fill="#D91C1C"/>
<path fill-rule="evenodd" clip-rule="evenodd" d="M116.07 116.531C122.901 120.524 131.674 118.223 135.666 111.392C139.659 104.561 137.358 95.7873 130.527 91.7951C123.696 87.8029 114.922 90.104 110.93 96.9348C106.938 103.766 109.239 112.539 116.07 116.531ZM113.879 120.279C122.78 125.481 134.213 122.483 139.414 113.582C144.616 104.682 141.618 93.2491 132.717 88.0472C123.817 82.8452 112.384 85.8437 107.182 94.7444C101.98 103.645 104.979 115.078 113.879 120.279Z" fill="black"/>
<path d="M116.045 94.8929C116.045 94.8929 118.358 93.2202 119.603 93.9395C120.849 94.6588 121.276 96.2517 120.557 97.4975C119.837 98.7433 118.937 98.5672 118.068 100.071C117.2 101.575 117.359 102.168 117.084 103.513C116.809 104.858 114.772 105.185 113.526 104.466C112.28 103.747 112.572 100.908 112.572 100.908C112.572 100.908 112.689 98.9702 113.557 97.4664C114.425 95.9626 116.045 94.8929 116.045 94.8929Z" fill="white"/>
</g>
</g>
<g opacity="0.14">
<g filter="url(#filter3_b)">
<path d="M112.48 313.691C114.357 326.756 105.342 338.896 92.3446 340.808C79.3468 342.719 67.2881 333.678 65.4106 320.614C63.5332 307.55 72.548 295.409 85.5458 293.498C98.5435 291.586 110.602 300.627 112.48 313.691Z" fill="#F9B95F"/>
<path fill-rule="evenodd" clip-rule="evenodd" d="M91.8658 337.476C103.033 335.833 110.778 325.403 109.165 314.179C107.552 302.955 97.1916 295.187 86.0245 296.829C74.8575 298.472 67.1123 308.902 68.7254 320.126C70.3384 331.351 80.6987 339.118 91.8658 337.476ZM92.3446 340.808C105.342 338.896 114.357 326.756 112.48 313.691C110.602 300.627 98.5435 291.586 85.5458 293.498C72.548 295.409 63.5332 307.55 65.4106 320.614C67.2881 333.678 79.3468 342.719 92.3446 340.808Z" fill="black"/>
<path d="M92.1278 320.946C92.0272 320.245 91.7537 319.719 91.3075 319.366C90.8684 319.003 90.1648 318.715 89.1966 318.499C88.2284 318.284 87.3871 318.055 86.6728 317.811C85.9572 317.559 85.3275 317.246 84.7837 316.873C84.2471 316.489 83.8005 316.015 83.4439 315.448C83.0957 314.88 82.8615 314.178 82.7412 313.341C82.5338 311.898 82.8186 310.649 83.5955 309.593C84.3723 308.537 85.5034 307.821 86.9886 307.446L86.5947 304.705L88.6157 304.408L89.0152 307.187C90.5363 307.182 91.7934 307.642 92.7865 308.568C93.7783 309.486 94.3938 310.778 94.6332 312.443L90.9827 312.979C90.8355 311.955 90.5151 311.222 90.0217 310.78C89.5354 310.328 88.9428 310.154 88.2439 310.256C87.5534 310.358 87.0475 310.637 86.7262 311.094C86.4038 311.543 86.2928 312.117 86.3935 312.817C86.4868 313.466 86.7469 313.96 87.1739 314.298C87.6008 314.636 88.3448 314.937 89.4058 315.199C90.4752 315.46 91.3605 315.727 92.0617 315.999C92.7616 316.262 93.3679 316.591 93.8804 316.987C94.3918 317.374 94.8077 317.844 95.1282 318.399C95.4474 318.945 95.6629 319.606 95.7745 320.383C95.9832 321.835 95.7063 323.079 94.9437 324.115C94.1812 325.151 93.0285 325.866 91.4856 326.258L91.8519 328.807L89.8436 329.102L89.479 326.566C87.7258 326.632 86.2979 326.21 85.1954 325.3C84.1001 324.38 83.4266 323.045 83.175 321.294L86.8254 320.757C86.9715 321.774 87.3196 322.52 87.8697 322.997C88.427 323.465 89.1519 323.633 90.0445 323.501C90.7856 323.392 91.3426 323.11 91.7156 322.654C92.0874 322.19 92.2248 321.62 92.1278 320.946Z" fill="black"/>
<path d="M168.565 323.77C165.955 336.702 153.404 345.033 140.532 342.378C127.659 339.724 119.34 327.088 121.95 314.156C124.56 301.223 137.111 292.892 149.983 295.547C162.855 298.202 171.175 310.838 168.565 323.77Z" fill="#F9B95F"/>
<path fill-rule="evenodd" clip-rule="evenodd" d="M141.197 339.08C152.256 341.361 163.039 334.203 165.282 323.093C167.524 311.982 160.377 301.126 149.317 298.845C138.258 296.564 127.475 303.722 125.233 314.833C122.99 325.943 130.138 336.799 141.197 339.08ZM140.532 342.378C153.404 345.033 165.955 336.702 168.565 323.77C171.175 310.838 162.855 298.202 149.983 295.547C137.111 292.892 124.56 301.223 121.95 314.156C119.34 327.088 127.659 339.724 140.532 342.378Z" fill="black"/>
<path d="M146.982 323.621C147.122 322.928 147.041 322.339 146.739 321.854C146.448 321.363 145.882 320.85 145.043 320.316C144.204 319.782 143.489 319.278 142.898 318.804C142.31 318.321 141.822 317.811 141.435 317.274C141.058 316.73 140.797 316.13 140.652 315.475C140.514 314.821 140.529 314.08 140.696 313.252C140.985 311.823 141.671 310.746 142.756 310.018C143.841 309.291 145.146 309.006 146.669 309.161L147.217 306.448L149.219 306.861L148.663 309.612C150.097 310.128 151.126 310.991 151.75 312.203C152.376 313.406 152.522 314.832 152.19 316.48L148.574 315.735C148.779 314.72 148.723 313.921 148.407 313.336C148.101 312.745 147.601 312.378 146.909 312.235C146.225 312.094 145.655 312.183 145.2 312.503C144.746 312.815 144.449 313.317 144.309 314.01C144.18 314.653 144.259 315.206 144.547 315.671C144.836 316.135 145.435 316.672 146.346 317.283C147.265 317.895 148.009 318.449 148.578 318.945C149.148 319.432 149.609 319.95 149.958 320.497C150.31 321.037 150.544 321.622 150.659 322.253C150.777 322.876 150.758 323.572 150.603 324.341C150.313 325.778 149.635 326.854 148.57 327.567C147.505 328.281 146.181 328.558 144.597 328.399L144.088 330.922L142.099 330.512L142.606 328.001C140.933 327.463 139.731 326.577 138.998 325.343C138.276 324.102 138.089 322.615 138.439 320.882L142.055 321.628C141.852 322.634 141.929 323.455 142.287 324.093C142.655 324.723 143.281 325.13 144.165 325.312C144.899 325.463 145.518 325.388 146.022 325.087C146.527 324.778 146.847 324.289 146.982 323.621Z" fill="black"/>
<path d="M141.685 306.923C141.685 320.136 131.046 330.847 117.923 330.847C104.799 330.847 94.1602 320.136 94.1602 306.923C94.1602 293.711 104.799 283 117.923 283C131.046 283 141.685 293.711 141.685 306.923Z" fill="#F9B95F"/>
<path fill-rule="evenodd" clip-rule="evenodd" d="M117.923 327.477C129.198 327.477 138.338 318.275 138.338 306.923C138.338 295.572 129.198 286.369 117.923 286.369C106.647 286.369 97.507 295.572 97.507 306.923C97.507 318.275 106.647 327.477 117.923 327.477ZM117.923 330.847C131.046 330.847 141.685 320.136 141.685 306.923C141.685 293.711 131.046 283 117.923 283C104.799 283 94.1602 293.711 94.1602 306.923C94.1602 320.136 104.799 330.847 117.923 330.847Z" fill="black"/>
<path d="M120.529 311.142C120.529 310.434 120.333 309.873 119.943 309.459C119.56 309.036 118.906 308.648 117.98 308.294C117.054 307.94 116.255 307.59 115.584 307.245C114.912 306.891 114.334 306.49 113.85 306.041C113.374 305.583 113 305.048 112.728 304.435C112.465 303.822 112.333 303.093 112.333 302.247C112.333 300.788 112.792 299.593 113.71 298.66C114.628 297.728 115.847 297.184 117.368 297.029V294.258H119.407V297.068C120.911 297.284 122.088 297.922 122.938 298.984C123.788 300.037 124.212 301.405 124.212 303.089H120.529C120.529 302.053 120.316 301.28 119.892 300.771C119.475 300.253 118.914 299.994 118.209 299.994C117.512 299.994 116.973 300.197 116.59 300.603C116.208 301 116.017 301.552 116.017 302.26C116.017 302.916 116.204 303.442 116.578 303.84C116.952 304.237 117.644 304.642 118.655 305.057C119.675 305.471 120.512 305.864 121.166 306.235C121.82 306.597 122.373 307.012 122.823 307.478C123.274 307.935 123.618 308.462 123.856 309.058C124.093 309.644 124.212 310.331 124.212 311.116C124.212 312.584 123.762 313.775 122.861 314.69C121.961 315.605 120.72 316.144 119.14 316.308V318.885H117.113V316.321C115.371 316.131 114.02 315.506 113.06 314.444C112.108 313.373 111.632 311.954 111.632 310.184H115.316C115.316 311.211 115.554 312.001 116.03 312.553C116.514 313.097 117.206 313.369 118.107 313.369C118.855 313.369 119.446 313.171 119.879 312.774C120.312 312.368 120.529 311.824 120.529 311.142Z" fill="black"/>
</g>
<g filter="url(#filter4_b)">
<path fill-rule="evenodd" clip-rule="evenodd" d="M129.492 236.442C150.977 224.038 157.363 203.962 148.608 188.798C139.854 173.635 119.274 169.127 97.7892 181.532C77.9982 192.958 64.3418 214.749 69.1534 229.966C67.4067 231.903 66.7326 234.105 67.6349 235.668C68.5434 237.241 70.8116 237.754 73.3837 237.192C84.2462 248.791 109.795 247.814 129.492 236.442Z" fill="#F8D833"/>
<path fill-rule="evenodd" clip-rule="evenodd" d="M75.9587 205.359C70.8221 213.888 68.8981 222.524 71.0605 229.363L71.4057 230.455L70.6387 231.306C69.0674 233.048 69.1389 234.272 69.3671 234.668C69.597 235.066 70.6371 235.745 72.9565 235.238L74.0667 234.995L74.8436 235.825C79.73 241.042 88.1648 243.641 98.0829 243.432C107.944 243.223 118.927 240.232 128.492 234.71C149.357 222.664 154.902 203.7 146.876 189.798C138.85 175.897 119.654 171.217 98.7893 183.264C89.1785 188.812 81.0656 196.879 75.9587 205.359ZM72.5322 203.295C77.9984 194.219 86.6091 185.677 96.7893 179.8C118.895 167.037 140.857 171.374 150.34 187.798C159.823 204.223 152.597 225.412 130.492 238.174C120.36 244.024 108.72 247.208 98.1674 247.431C88.1064 247.643 78.7116 245.16 72.6867 239.334C70.1136 239.634 67.2847 239.061 65.903 236.668C64.5335 234.295 65.4251 231.585 66.9428 229.517C64.8102 221.372 67.3217 211.947 72.5322 203.295Z" fill="black"/>
<path d="M80.6 212.746C89.5853 200.875 100.758 193.427 107.66 190.131C113.542 187.322 121.582 184.418 129.084 183.875C131.797 183.546 132.666 183.206 130.085 181.375C127.505 179.544 122.584 179.875 118.584 180.375C114.584 180.875 110.113 182.025 102.462 186.027C92.8975 191.029 85.5767 198.368 83.0854 201.375C80.6 204.375 78.0895 208.833 78.0866 210.375C78.0833 212.141 79.5854 213.375 80.6 212.746Z" fill="#FCE98A"/>
<path d="M129.241 222.372C127.308 228.927 117.721 236.885 115.5 236.892C125.614 238.238 148.481 239.315 156.014 223.666C163.547 208.017 154.128 196.519 150.634 193.582C145.62 194.478 133.973 192.566 129.167 199.049C123.447 206.765 131.173 215.817 129.241 222.372Z" fill="#108A41"/>
<path fill-rule="evenodd" clip-rule="evenodd" d="M121.322 235.597C125.371 232.295 129.519 227.994 131.021 222.897C131.988 219.618 131.058 216.198 130.17 212.936C129.966 212.185 129.764 211.442 129.588 210.712C128.634 206.75 128.326 203.301 130.658 200.155C132.569 197.578 135.978 196.5 140.021 196.066C141.657 195.891 143.301 195.852 144.944 195.813C145.699 195.795 146.453 195.778 147.206 195.747C144.53 206.556 140.688 219.225 139.703 221.195C143.788 215.398 147.564 206.95 150.429 195.926C154.078 199.644 160.709 209.634 154.342 222.861C150.94 229.928 144.026 233.363 136.376 234.83C131.174 235.827 125.795 235.876 121.322 235.597ZM151.425 191.822L151.829 192.161C155.634 195.36 165.75 207.722 157.687 224.471C153.555 233.054 145.27 236.904 137.075 238.475C128.868 240.048 121.267 238.842 119.077 238.441C116.888 238.04 113.648 236.772 113.648 236.772C115.334 234.617 117.435 233.033 119.509 231.47C122.831 228.966 126.085 226.514 127.46 221.847C128.128 219.583 127.435 217.056 126.813 214.784C126.736 214.503 126.66 214.225 126.587 213.953C125.156 208.552 124.074 202.802 127.676 197.944C130.572 194.038 135.39 192.83 139.625 192.375C141.145 192.212 142.689 192.19 144.233 192.168C145.525 192.15 146.817 192.132 148.096 192.031C148.192 191.614 148.285 191.204 148.375 190.799C148.759 189.074 149.415 185.146 149.588 183.875L153.088 184.375C152.937 185.194 152.368 187.681 151.942 189.544C151.77 190.298 151.62 190.95 151.532 191.347C151.497 191.506 151.461 191.664 151.425 191.822Z" fill="black"/>
</g>
<g filter="url(#filter5_b)">
<path d="M72.167 49.1668C65.3613 49.7855 54.4309 43.8048 53.606 41.7424C56.0808 51.6416 63.5052 73.2962 80.8288 74.5336C98.1525 75.771 105.371 62.7783 106.814 58.4473C104.133 54.1164 101.62 42.5846 93.8216 40.505C84.541 38.0301 78.9727 48.5481 72.167 49.1668Z" fill="#108A41"/>
<path fill-rule="evenodd" clip-rule="evenodd" d="M72.3348 51.0153C67.0433 51.4964 61.5166 49.2247 56.955 46.6781C58.3435 50.9391 60.371 55.9208 63.2148 60.3897C67.3968 66.9614 73.138 72.1234 80.9608 72.6822C96.1423 73.7666 102.941 63.1429 104.773 58.6155C103.198 55.6644 102.153 52.4592 100.594 49.4961C98.7007 45.8971 96.4431 43.1251 93.3431 42.2984C89.5591 41.2893 86.4661 42.8462 83.135 45.1931C79.8525 47.5058 76.5234 50.6345 72.3348 51.0153ZM94.2996 38.7115C98.998 39.9645 101.896 43.9983 103.879 47.7678C105.533 50.9101 106.524 54.4518 108.392 57.4704L108.85 58.2095L108.575 59.0343C107.003 63.7506 99.238 77.7094 80.6964 76.385C71.1956 75.7063 64.5628 69.4224 60.0829 62.3827C55.5968 55.333 53.9181 47.8219 53.484 45.6388C53.0499 43.4557 53.0347 39.9764 53.0347 39.9764C59.8621 41.9879 64.1273 48.0339 71.9987 47.3183C74.6411 47.0781 76.9594 45.118 79.0163 43.5978C83.5094 40.2772 88.4564 37.1533 94.2996 38.7115Z" fill="black"/>
<path d="M116.37 49.7141C116.37 49.7141 116.37 49.7137 117.077 49.8198C117.473 49.662 119.347 48.9204 119.345 48.9145C120.677 52.2423 122.162 55.5146 123.712 58.7453C126.368 64.2811 129.884 70.8676 133.426 75.4045C137.25 80.3021 143.302 85.6242 148.481 89.7696C151.056 91.8301 153.386 93.5777 155.072 94.8098C155.915 95.4256 156.596 95.912 157.065 96.2435C157.3 96.4093 157.481 96.5363 157.603 96.6214C157.665 96.664 157.711 96.696 157.741 96.7172L157.785 96.7476C157.785 96.7476 157.786 96.7478 156.802 98.1786C155.818 99.6095 155.818 99.6092 155.818 99.6092L155.804 99.5996L155.765 99.573L155.705 99.5311L155.618 99.4709C155.49 99.3815 155.302 99.25 155.061 99.0795C154.578 98.7385 153.883 98.2415 153.024 97.614C151.306 96.3593 148.934 94.5803 146.311 92.4809C141.096 88.3064 134.776 82.7758 130.689 77.5418C126.904 72.6937 123.256 65.8228 120.581 60.2475C120.007 59.0509 119.475 57.9084 118.994 56.8514C118.864 58.0957 118.734 59.4666 118.615 60.9208C118.115 67.0404 117.827 74.5007 118.596 80.2052C119.426 86.3631 121.966 94.0118 124.346 100.204C125.528 103.282 126.659 105.967 127.493 107.881C127.91 108.838 128.252 109.602 128.49 110.125C128.609 110.386 128.701 110.587 128.764 110.723C128.795 110.79 128.819 110.841 128.835 110.875L128.852 110.912L128.857 110.923C128.857 110.923 128.857 110.924 127.286 111.662C125.715 112.401 125.715 112.401 125.715 112.401L125.707 112.386L125.688 112.343C125.67 112.306 125.645 112.252 125.612 112.181C125.547 112.039 125.451 111.831 125.328 111.562C125.084 111.024 124.734 110.244 124.309 109.269C123.46 107.319 122.309 104.586 121.104 101.45C118.707 95.2141 116.042 87.2502 115.154 80.6693C114.332 74.5735 114.65 66.801 115.154 60.6378C115.251 59.4533 115.355 58.3232 115.46 57.2701C113.753 57.6572 111.686 58.0655 109.222 58.4585C95.7805 60.6024 84.9352 60.344 77.1162 58.4585C79.6576 58.6797 96.9599 57.173 108.568 55.3215C111.88 54.7933 114.221 54.179 115.86 53.6093C116.015 52.309 116.177 51.0092 116.37 49.7141Z" fill="black"/>
<path d="M175.035 97.7445C175.035 108.054 166.677 116.411 156.368 116.411C146.059 116.411 137.701 108.054 137.701 97.7445C137.701 87.4352 146.059 79.0778 156.368 79.0778C166.677 79.0778 175.035 87.4352 175.035 97.7445Z" fill="#D91C1C"/>
<path fill-rule="evenodd" clip-rule="evenodd" d="M156.368 112.07C164.28 112.07 170.693 105.656 170.693 97.7445C170.693 89.8327 164.28 83.4189 156.368 83.4189C148.456 83.4189 142.042 89.8327 142.042 97.7445C142.042 105.656 148.456 112.07 156.368 112.07ZM156.368 116.411C166.677 116.411 175.035 108.054 175.035 97.7445C175.035 87.4352 166.677 79.0778 156.368 79.0778C146.059 79.0778 137.701 87.4352 137.701 97.7445C137.701 108.054 146.059 116.411 156.368 116.411Z" fill="black"/>
<path d="M148.438 89.5816C148.438 89.5816 150.75 87.909 151.996 88.6282C153.242 89.3475 153.669 90.9405 152.949 92.1862C152.23 93.432 151.329 93.2559 150.461 94.7597C149.593 96.2635 149.752 96.8565 149.476 98.2014C149.201 99.5463 147.164 99.8741 145.918 99.1548C144.673 98.4356 144.965 95.5968 144.965 95.5968C144.965 95.5968 145.081 93.6589 145.95 92.1551C146.818 90.6513 148.438 89.5816 148.438 89.5816Z" fill="white"/>
<path d="M139.414 123.582C134.213 132.483 122.78 135.481 113.879 130.279C104.979 125.078 101.98 113.645 107.182 104.744C112.384 95.8437 123.817 92.8452 132.717 98.0472C141.618 103.249 144.616 114.682 139.414 123.582Z" fill="#D91C1C"/>
<path fill-rule="evenodd" clip-rule="evenodd" d="M116.07 126.531C122.901 130.524 131.674 128.223 135.666 121.392C139.659 114.561 137.358 105.787 130.527 101.795C123.696 97.8029 114.922 100.104 110.93 106.935C106.938 113.766 109.239 122.539 116.07 126.531ZM113.879 130.279C122.78 135.481 134.213 132.483 139.414 123.582C144.616 114.682 141.618 103.249 132.717 98.0472C123.817 92.8452 112.384 95.8437 107.182 104.744C101.98 113.645 104.979 125.078 113.879 130.279Z" fill="black"/>
<path d="M116.045 104.893C116.045 104.893 118.358 103.22 119.603 103.94C120.849 104.659 121.276 106.252 120.557 107.498C119.837 108.743 118.937 108.567 118.068 110.071C117.2 111.575 117.359 112.168 117.084 113.513C116.809 114.858 114.772 115.185 113.526 114.466C112.28 113.747 112.572 110.908 112.572 110.908C112.572 110.908 112.689 108.97 113.557 107.466C114.425 105.963 116.045 104.893 116.045 104.893Z" fill="white"/>
</g>
</g>
<g filter="url(#filter6_b)">
<path d="M112.48 321.691C114.357 334.756 105.342 346.896 92.3446 348.808C79.3468 350.719 67.2881 341.678 65.4106 328.614C63.5332 315.55 72.548 303.409 85.5458 301.498C98.5435 299.586 110.602 308.627 112.48 321.691Z" fill="#F9B95F"/>
<path fill-rule="evenodd" clip-rule="evenodd" d="M91.8658 345.476C103.033 343.833 110.778 333.403 109.165 322.179C107.552 310.955 97.1916 303.187 86.0245 304.829C74.8575 306.472 67.1123 316.902 68.7254 328.126C70.3384 339.351 80.6987 347.118 91.8658 345.476ZM92.3446 348.808C105.342 346.896 114.357 334.756 112.48 321.691C110.602 308.627 98.5435 299.586 85.5458 301.498C72.548 303.409 63.5332 315.55 65.4106 328.614C67.2881 341.678 79.3468 350.719 92.3446 348.808Z" fill="black"/>
<path d="M92.1278 328.946C92.0272 328.245 91.7537 327.719 91.3075 327.366C90.8684 327.003 90.1648 326.715 89.1966 326.499C88.2284 326.284 87.3871 326.055 86.6728 325.811C85.9572 325.559 85.3275 325.246 84.7837 324.873C84.2471 324.489 83.8005 324.015 83.4439 323.448C83.0957 322.88 82.8615 322.178 82.7412 321.341C82.5338 319.898 82.8186 318.649 83.5955 317.593C84.3723 316.537 85.5034 315.821 86.9886 315.446L86.5947 312.705L88.6157 312.408L89.0152 315.187C90.5363 315.182 91.7934 315.642 92.7865 316.568C93.7783 317.486 94.3938 318.778 94.6332 320.443L90.9827 320.979C90.8355 319.955 90.5151 319.222 90.0217 318.78C89.5354 318.328 88.9428 318.154 88.2439 318.256C87.5534 318.358 87.0475 318.637 86.7262 319.094C86.4038 319.543 86.2928 320.117 86.3935 320.817C86.4868 321.466 86.7469 321.96 87.1739 322.298C87.6008 322.636 88.3448 322.937 89.4058 323.199C90.4752 323.46 91.3605 323.727 92.0617 323.999C92.7616 324.262 93.3679 324.591 93.8804 324.987C94.3918 325.374 94.8077 325.844 95.1282 326.399C95.4474 326.945 95.6629 327.606 95.7745 328.383C95.9832 329.835 95.7063 331.079 94.9437 332.115C94.1812 333.151 93.0285 333.866 91.4856 334.258L91.8519 336.807L89.8436 337.102L89.479 334.566C87.7258 334.632 86.2979 334.21 85.1954 333.3C84.1001 332.38 83.4266 331.045 83.175 329.294L86.8254 328.757C86.9715 329.774 87.3196 330.52 87.8697 330.997C88.427 331.465 89.1519 331.633 90.0445 331.501C90.7856 331.392 91.3426 331.11 91.7156 330.654C92.0874 330.19 92.2248 329.62 92.1278 328.946Z" fill="black"/>
<path d="M168.565 331.77C165.955 344.702 153.404 353.033 140.532 350.378C127.659 347.724 119.34 335.088 121.95 322.156C124.56 309.223 137.111 300.892 149.983 303.547C162.855 306.202 171.175 318.838 168.565 331.77Z" fill="#F9B95F"/>
<path fill-rule="evenodd" clip-rule="evenodd" d="M141.197 347.08C152.256 349.361 163.039 342.203 165.282 331.093C167.524 319.982 160.377 309.126 149.317 306.845C138.258 304.564 127.475 311.722 125.233 322.833C122.99 333.943 130.138 344.799 141.197 347.08ZM140.532 350.378C153.404 353.033 165.955 344.702 168.565 331.77C171.175 318.838 162.855 306.202 149.983 303.547C137.111 300.892 124.56 309.223 121.95 322.156C119.34 335.088 127.659 347.724 140.532 350.378Z" fill="black"/>
<path d="M146.982 331.621C147.122 330.928 147.041 330.339 146.739 329.854C146.448 329.363 145.882 328.85 145.043 328.316C144.204 327.782 143.489 327.278 142.898 326.804C142.31 326.321 141.822 325.811 141.435 325.274C141.058 324.73 140.797 324.13 140.652 323.475C140.514 322.821 140.529 322.08 140.696 321.252C140.985 319.823 141.671 318.746 142.756 318.018C143.841 317.291 145.146 317.006 146.669 317.161L147.217 314.448L149.219 314.861L148.663 317.612C150.097 318.128 151.126 318.991 151.75 320.203C152.376 321.406 152.522 322.832 152.19 324.48L148.574 323.735C148.779 322.72 148.723 321.921 148.407 321.336C148.101 320.745 147.601 320.378 146.909 320.235C146.225 320.094 145.655 320.183 145.2 320.503C144.746 320.815 144.449 321.317 144.309 322.01C144.18 322.653 144.259 323.206 144.547 323.671C144.836 324.135 145.435 324.672 146.346 325.283C147.265 325.895 148.009 326.449 148.578 326.945C149.148 327.432 149.609 327.95 149.958 328.497C150.31 329.037 150.544 329.622 150.659 330.253C150.777 330.876 150.758 331.572 150.603 332.341C150.313 333.778 149.635 334.854 148.57 335.567C147.505 336.281 146.181 336.558 144.597 336.399L144.088 338.922L142.099 338.512L142.606 336.001C140.933 335.463 139.731 334.577 138.998 333.343C138.276 332.102 138.089 330.615 138.439 328.882L142.055 329.628C141.852 330.634 141.929 331.455 142.287 332.093C142.655 332.723 143.281 333.13 144.165 333.312C144.899 333.463 145.518 333.388 146.022 333.087C146.527 332.778 146.847 332.289 146.982 331.621Z" fill="black"/>
<path d="M141.685 314.923C141.685 328.136 131.046 338.847 117.923 338.847C104.799 338.847 94.1602 328.136 94.1602 314.923C94.1602 301.711 104.799 291 117.923 291C131.046 291 141.685 301.711 141.685 314.923Z" fill="#F9B95F"/>
<path fill-rule="evenodd" clip-rule="evenodd" d="M117.923 335.477C129.198 335.477 138.338 326.275 138.338 314.923C138.338 303.572 129.198 294.369 117.923 294.369C106.647 294.369 97.507 303.572 97.507 314.923C97.507 326.275 106.647 335.477 117.923 335.477ZM117.923 338.847C131.046 338.847 141.685 328.136 141.685 314.923C141.685 301.711 131.046 291 117.923 291C104.799 291 94.1602 301.711 94.1602 314.923C94.1602 328.136 104.799 338.847 117.923 338.847Z" fill="black"/>
<path d="M120.529 319.142C120.529 318.434 120.333 317.873 119.943 317.459C119.56 317.036 118.906 316.648 117.98 316.294C117.054 315.94 116.255 315.59 115.584 315.245C114.912 314.891 114.334 314.49 113.85 314.041C113.374 313.583 113 313.048 112.728 312.435C112.465 311.822 112.333 311.093 112.333 310.247C112.333 308.788 112.792 307.593 113.71 306.66C114.628 305.728 115.847 305.184 117.368 305.029V302.258H119.407V305.068C120.911 305.284 122.088 305.922 122.938 306.984C123.788 308.037 124.212 309.405 124.212 311.089H120.529C120.529 310.053 120.316 309.28 119.892 308.771C119.475 308.253 118.914 307.994 118.209 307.994C117.512 307.994 116.973 308.197 116.59 308.603C116.208 309 116.017 309.552 116.017 310.26C116.017 310.916 116.204 311.442 116.578 311.84C116.952 312.237 117.644 312.642 118.655 313.057C119.675 313.471 120.512 313.864 121.166 314.235C121.82 314.597 122.373 315.012 122.823 315.478C123.274 315.935 123.618 316.462 123.856 317.058C124.093 317.644 124.212 318.331 124.212 319.116C124.212 320.584 123.762 321.775 122.861 322.69C121.961 323.605 120.72 324.144 119.14 324.308V326.885H117.113V324.321C115.371 324.131 114.02 323.506 113.06 322.444C112.108 321.373 111.632 319.954 111.632 318.184H115.316C115.316 319.211 115.554 320.001 116.03 320.553C116.514 321.097 117.206 321.369 118.107 321.369C118.855 321.369 119.446 321.171 119.879 320.774C120.312 320.368 120.529 319.824 120.529 319.142Z" fill="black"/>
</g>
<g filter="url(#filter7_b)">
<path fill-rule="evenodd" clip-rule="evenodd" d="M129.492 244.442C150.977 232.038 157.363 211.962 148.608 196.798C139.854 181.635 119.274 177.127 97.7892 189.532C77.9982 200.958 64.3418 222.749 69.1534 237.966C67.4067 239.903 66.7326 242.105 67.6349 243.668C68.5434 245.241 70.8116 245.754 73.3837 245.192C84.2462 256.791 109.795 255.814 129.492 244.442Z" fill="#F8D833"/>
<path fill-rule="evenodd" clip-rule="evenodd" d="M75.9587 213.359C70.8221 221.888 68.8981 230.524 71.0605 237.363L71.4057 238.455L70.6387 239.306C69.0674 241.048 69.1389 242.272 69.3671 242.668C69.597 243.066 70.6371 243.745 72.9565 243.238L74.0667 242.995L74.8436 243.825C79.73 249.042 88.1648 251.641 98.0829 251.432C107.944 251.223 118.927 248.232 128.492 242.71C149.357 230.664 154.902 211.7 146.876 197.798C138.85 183.897 119.654 179.217 98.7893 191.264C89.1785 196.812 81.0656 204.879 75.9587 213.359ZM72.5322 211.295C77.9984 202.219 86.6091 193.677 96.7893 187.8C118.895 175.037 140.857 179.374 150.34 195.798C159.823 212.223 152.597 233.412 130.492 246.174C120.36 252.024 108.72 255.208 98.1674 255.431C88.1064 255.643 78.7116 253.16 72.6867 247.334C70.1136 247.634 67.2847 247.061 65.903 244.668C64.5335 242.295 65.4251 239.585 66.9428 237.517C64.8102 229.372 67.3217 219.947 72.5322 211.295Z" fill="black"/>
<path d="M80.6 220.746C89.5853 208.875 100.758 201.427 107.66 198.131C113.542 195.322 121.582 192.418 129.084 191.875C131.797 191.546 132.666 191.206 130.085 189.375C127.505 187.544 122.584 187.875 118.584 188.375C114.584 188.875 110.113 190.025 102.462 194.027C92.8975 199.029 85.5767 206.368 83.0854 209.375C80.6 212.375 78.0895 216.833 78.0866 218.375C78.0833 220.141 79.5854 221.375 80.6 220.746Z" fill="#FCE98A"/>
<path d="M129.241 230.372C127.308 236.927 117.721 244.885 115.5 244.892C125.614 246.238 148.481 247.315 156.014 231.666C163.547 216.017 154.128 204.519 150.634 201.582C145.62 202.478 133.973 200.566 129.167 207.049C123.447 214.765 131.173 223.817 129.241 230.372Z" fill="#108A41"/>
<path fill-rule="evenodd" clip-rule="evenodd" d="M121.322 243.597C125.371 240.295 129.519 235.994 131.021 230.897C131.988 227.618 131.058 224.198 130.17 220.936C129.966 220.185 129.764 219.442 129.588 218.712C128.634 214.75 128.326 211.301 130.658 208.155C132.569 205.578 135.978 204.5 140.021 204.066C141.657 203.891 143.301 203.852 144.944 203.813C145.699 203.795 146.453 203.778 147.206 203.747C144.53 214.556 140.688 227.225 139.703 229.195C143.788 223.398 147.564 214.95 150.429 203.926C154.078 207.644 160.709 217.634 154.342 230.861C150.94 237.928 144.026 241.363 136.376 242.83C131.174 243.827 125.795 243.876 121.322 243.597ZM151.425 199.822L151.829 200.161C155.634 203.36 165.75 215.722 157.687 232.471C153.555 241.054 145.27 244.904 137.075 246.475C128.868 248.048 121.267 246.842 119.077 246.441C116.888 246.04 113.648 244.772 113.648 244.772C115.334 242.617 117.435 241.033 119.509 239.47C122.831 236.966 126.085 234.514 127.46 229.847C128.128 227.583 127.435 225.056 126.813 222.784C126.736 222.503 126.66 222.225 126.587 221.953C125.156 216.552 124.074 210.802 127.676 205.944C130.572 202.038 135.39 200.83 139.625 200.375C141.145 200.212 142.689 200.19 144.233 200.168C145.525 200.15 146.817 200.132 148.096 200.031C148.192 199.614 148.285 199.204 148.375 198.799C148.759 197.074 149.415 193.146 149.588 191.875L153.088 192.375C152.937 193.194 152.368 195.681 151.942 197.544C151.77 198.298 151.62 198.95 151.532 199.347C151.497 199.506 151.461 199.664 151.425 199.822Z" fill="black"/>
</g>
<g filter="url(#filter8_b)">
<path d="M72.167 57.1668C65.3613 57.7855 54.4309 51.8048 53.606 49.7424C56.0808 59.6416 63.5052 81.2962 80.8288 82.5336C98.1525 83.771 105.371 70.7783 106.814 66.4473C104.133 62.1164 101.62 50.5846 93.8216 48.505C84.541 46.0301 78.9727 56.5481 72.167 57.1668Z" fill="#108A41"/>
<path fill-rule="evenodd" clip-rule="evenodd" d="M72.3348 59.0153C67.0433 59.4964 61.5166 57.2247 56.955 54.6781C58.3435 58.9391 60.371 63.9208 63.2148 68.3897C67.3968 74.9614 73.138 80.1234 80.9608 80.6822C96.1423 81.7666 102.941 71.1429 104.773 66.6155C103.198 63.6644 102.153 60.4592 100.594 57.4961C98.7007 53.8971 96.4431 51.1251 93.3431 50.2984C89.5591 49.2893 86.4661 50.8462 83.135 53.1931C79.8525 55.5058 76.5234 58.6345 72.3348 59.0153ZM94.2996 46.7115C98.998 47.9645 101.896 51.9983 103.879 55.7678C105.533 58.9101 106.524 62.4518 108.392 65.4704L108.85 66.2095L108.575 67.0343C107.003 71.7506 99.238 85.7094 80.6964 84.385C71.1956 83.7063 64.5628 77.4224 60.0829 70.3827C55.5968 63.333 53.9181 55.8219 53.484 53.6388C53.0499 51.4557 53.0347 47.9764 53.0347 47.9764C59.8621 49.9879 64.1273 56.0339 71.9987 55.3183C74.6411 55.0781 76.9594 53.118 79.0163 51.5978C83.5094 48.2772 88.4564 45.1533 94.2996 46.7115Z" fill="black"/>
<path d="M116.37 57.7141C116.37 57.7141 116.37 57.7137 117.077 57.8198C117.473 57.662 119.347 56.9204 119.345 56.9145C120.677 60.2423 122.162 63.5146 123.712 66.7453C126.368 72.2811 129.884 78.8676 133.426 83.4045C137.25 88.3021 143.302 93.6242 148.481 97.7696C151.056 99.8301 153.386 101.578 155.072 102.81C155.915 103.426 156.596 103.912 157.065 104.244C157.3 104.409 157.481 104.536 157.603 104.621C157.665 104.664 157.711 104.696 157.741 104.717L157.785 104.748C157.785 104.748 157.786 104.748 156.802 106.179C155.818 107.609 155.818 107.609 155.818 107.609L155.804 107.6L155.765 107.573L155.705 107.531L155.618 107.471C155.49 107.382 155.302 107.25 155.061 107.079C154.578 106.739 153.883 106.242 153.024 105.614C151.306 104.359 148.934 102.58 146.311 100.481C141.096 96.3064 134.776 90.7758 130.689 85.5418C126.904 80.6937 123.256 73.8228 120.581 68.2475C120.007 67.0509 119.475 65.9084 118.994 64.8514C118.864 66.0957 118.734 67.4666 118.615 68.9208C118.115 75.0404 117.827 82.5007 118.596 88.2052C119.426 94.3631 121.966 102.012 124.346 108.204C125.528 111.282 126.659 113.967 127.493 115.881C127.91 116.838 128.252 117.602 128.49 118.125C128.609 118.386 128.701 118.587 128.764 118.723C128.795 118.79 128.819 118.841 128.835 118.875L128.852 118.912L128.857 118.923C128.857 118.923 128.857 118.924 127.286 119.662C125.715 120.401 125.715 120.401 125.715 120.401L125.707 120.386L125.688 120.343C125.67 120.306 125.645 120.252 125.612 120.181C125.547 120.039 125.451 119.831 125.328 119.562C125.084 119.024 124.734 118.244 124.309 117.269C123.46 115.319 122.309 112.586 121.104 109.45C118.707 103.214 116.042 95.2502 115.154 88.6693C114.332 82.5735 114.65 74.801 115.154 68.6378C115.251 67.4533 115.355 66.3232 115.46 65.2701C113.753 65.6572 111.686 66.0655 109.222 66.4585C95.7805 68.6024 84.9352 68.344 77.1162 66.4585C79.6576 66.6797 96.9599 65.173 108.568 63.3215C111.88 62.7933 114.221 62.179 115.86 61.6093C116.015 60.309 116.177 59.0092 116.37 57.7141Z" fill="black"/>
<path d="M175.035 105.745C175.035 116.054 166.677 124.411 156.368 124.411C146.059 124.411 137.701 116.054 137.701 105.745C137.701 95.4352 146.059 87.0778 156.368 87.0778C166.677 87.0778 175.035 95.4352 175.035 105.745Z" fill="#D91C1C"/>
<path fill-rule="evenodd" clip-rule="evenodd" d="M156.368 120.07C164.28 120.07 170.693 113.656 170.693 105.745C170.693 97.8327 164.28 91.4189 156.368 91.4189C148.456 91.4189 142.042 97.8327 142.042 105.745C142.042 113.656 148.456 120.07 156.368 120.07ZM156.368 124.411C166.677 124.411 175.035 116.054 175.035 105.745C175.035 95.4352 166.677 87.0778 156.368 87.0778C146.059 87.0778 137.701 95.4352 137.701 105.745C137.701 116.054 146.059 124.411 156.368 124.411Z" fill="black"/>
<path d="M148.438 97.5816C148.438 97.5816 150.75 95.909 151.996 96.6282C153.242 97.3475 153.669 98.9405 152.949 100.186C152.23 101.432 151.329 101.256 150.461 102.76C149.593 104.264 149.752 104.857 149.476 106.201C149.201 107.546 147.164 107.874 145.918 107.155C144.673 106.436 144.965 103.597 144.965 103.597C144.965 103.597 145.081 101.659 145.95 100.155C146.818 98.6513 148.438 97.5816 148.438 97.5816Z" fill="white"/>
<path d="M139.414 131.582C134.213 140.483 122.78 143.481 113.879 138.279C104.979 133.078 101.98 121.645 107.182 112.744C112.384 103.844 123.817 100.845 132.717 106.047C141.618 111.249 144.616 122.682 139.414 131.582Z" fill="#D91C1C"/>
<path fill-rule="evenodd" clip-rule="evenodd" d="M116.07 134.531C122.901 138.524 131.674 136.223 135.666 129.392C139.659 122.561 137.358 113.787 130.527 109.795C123.696 105.803 114.922 108.104 110.93 114.935C106.938 121.766 109.239 130.539 116.07 134.531ZM113.879 138.279C122.78 143.481 134.213 140.483 139.414 131.582C144.616 122.682 141.618 111.249 132.717 106.047C123.817 100.845 112.384 103.844 107.182 112.744C101.98 121.645 104.979 133.078 113.879 138.279Z" fill="black"/>
<path d="M116.045 112.893C116.045 112.893 118.358 111.22 119.603 111.94C120.849 112.659 121.276 114.252 120.557 115.498C119.837 116.743 118.937 116.567 118.068 118.071C117.2 119.575 117.359 120.168 117.084 121.513C116.809 122.858 114.772 123.185 113.526 122.466C112.28 121.747 112.572 118.908 112.572 118.908C112.572 118.908 112.689 116.97 113.557 115.466C114.425 113.963 116.045 112.893 116.045 112.893Z" fill="white"/>
</g>
</g>
<path fill-rule="evenodd" clip-rule="evenodd" d="M36.1718 35H196C196 35 191.902 123.352 191.902 180C191.902 236.648 196 325 196 325H36.1718C36.1718 325 29 236.692 29 180C29 123.308 36.1718 35 36.1718 35ZM203 35H359C359 35 363 123.352 363 180C363 236.648 359 325 359 325H203C203 325 199 236.648 199 180C199 123.352 203 35 203 35ZM366 35H522C522 35 529 123.308 529 180C529 236.692 522 325 522 325H366C366 325 370 236.648 370 180C370 123.352 366 35 366 35Z" fill="url(#paint0_linear)"/>
<g filter="url(#filter9_d)">
<path fill-rule="evenodd" clip-rule="evenodd" d="M14 122C14 117.582 17.5817 114 22 114H535C539.418 114 543 117.582 543 122V237C543 241.418 539.418 245 535 245H22C17.5817 245 14 241.418 14 237V122ZM22 120C20.8954 120 20 120.895 20 122V237C20 238.105 20.8954 239 22 239H535C536.105 239 537 238.105 537 237V122C537 120.895 536.105 120 535 120H22Z" fill="#929292"/>
</g>
<path d="M518 180.5L548.75 162.746L548.75 198.254L518 180.5Z" fill="#FFA800"/>
<path d="M39 178.5L8.25 196.254L8.25 160.746L39 178.5Z" fill="#FFA800"/>
<defs>
<filter id="filter0_b" x="61.1631" y="269" width="111.881" height="75" filterUnits="userSpaceOnUse" color-interpolation-filters="sRGB">
<feFlood flood-opacity="0" result="BackgroundImageFix"/>
<feGaussianBlur in="BackgroundImage" stdDeviation="2"/>
<feComposite in2="SourceAlpha" operator="in" result="effect1_backgroundBlur"/>
<feBlend mode="normal" in="SourceGraphic" in2="effect1_backgroundBlur" result="shape"/>
</filter>
<filter id="filter1_b" x="45" y="144" width="129.879" height="115.766" filterUnits="userSpaceOnUse" color-interpolation-filters="sRGB">
<feFlood flood-opacity="0" result="BackgroundImageFix"/>
<feGaussianBlur in="BackgroundImage" stdDeviation="2"/>
<feComposite in2="SourceAlpha" operator="in" result="effect1_backgroundBlur"/>
<feBlend mode="normal" in="SourceGraphic" in2="effect1_backgroundBlur" result="shape"/>
</filter>
<filter id="filter2_b" x="45" y="20" width="138.035" height="113.698" filterUnits="userSpaceOnUse" color-interpolation-filters="sRGB">
<feFlood flood-opacity="0" result="BackgroundImageFix"/>
<feGaussianBlur in="BackgroundImage" stdDeviation="2"/>
<feComposite in2="SourceAlpha" operator="in" result="effect1_backgroundBlur"/>
<feBlend mode="normal" in="SourceGraphic" in2="effect1_backgroundBlur" result="shape"/>
</filter>
<filter id="filter3_b" x="61.1631" y="279" width="111.881" height="75" filterUnits="userSpaceOnUse" color-interpolation-filters="sRGB">
<feFlood flood-opacity="0" result="BackgroundImageFix"/>
<feGaussianBlur in="BackgroundImage" stdDeviation="2"/>
<feComposite in2="SourceAlpha" operator="in" result="effect1_backgroundBlur"/>
<feBlend mode="normal" in="SourceGraphic" in2="effect1_backgroundBlur" result="shape"/>
</filter>
<filter id="filter4_b" x="45" y="154" width="129.879" height="115.766" filterUnits="userSpaceOnUse" color-interpolation-filters="sRGB">
<feFlood flood-opacity="0" result="BackgroundImageFix"/>
<feGaussianBlur in="BackgroundImage" stdDeviation="2"/>
<feComposite in2="SourceAlpha" operator="in" result="effect1_backgroundBlur"/>
<feBlend mode="normal" in="SourceGraphic" in2="effect1_backgroundBlur" result="shape"/>
</filter>
<filter id="filter5_b" x="45" y="30" width="138.035" height="113.698" filterUnits="userSpaceOnUse" color-interpolation-filters="sRGB">
<feFlood flood-opacity="0" result="BackgroundImageFix"/>
<feGaussianBlur in="BackgroundImage" stdDeviation="2"/>
<feComposite in2="SourceAlpha" operator="in" result="effect1_backgroundBlur"/>
<feBlend mode="normal" in="SourceGraphic" in2="effect1_backgroundBlur" result="shape"/>
</filter>
<filter id="filter6_b" x="61.1631" y="287" width="111.881" height="75" filterUnits="userSpaceOnUse" color-interpolation-filters="sRGB">
<feFlood flood-opacity="0" result="BackgroundImageFix"/>
<feGaussianBlur in="BackgroundImage" stdDeviation="2"/>
<feComposite in2="SourceAlpha" operator="in" result="effect1_backgroundBlur"/>
<feBlend mode="normal" in="SourceGraphic" in2="effect1_backgroundBlur" result="shape"/>
</filter>
<filter id="filter7_b" x="45" y="162" width="129.879" height="115.766" filterUnits="userSpaceOnUse" color-interpolation-filters="sRGB">
<feFlood flood-opacity="0" result="BackgroundImageFix"/>
<feGaussianBlur in="BackgroundImage" stdDeviation="2"/>
<feComposite in2="SourceAlpha" operator="in" result="effect1_backgroundBlur"/>
<feBlend mode="normal" in="SourceGraphic" in2="effect1_backgroundBlur" result="shape"/>
</filter>
<filter id="filter8_b" x="45" y="38" width="138.035" height="113.698" filterUnits="userSpaceOnUse" color-interpolation-filters="sRGB">
<feFlood flood-opacity="0" result="BackgroundImageFix"/>
<feGaussianBlur in="BackgroundImage" stdDeviation="2"/>
<feComposite in2="SourceAlpha" operator="in" result="effect1_backgroundBlur"/>
<feBlend mode="normal" in="SourceGraphic" in2="effect1_backgroundBlur" result="shape"/>
</filter>
<filter id="filter9_d" x="10" y="114" width="537" height="139" filterUnits="userSpaceOnUse" color-interpolation-filters="sRGB">
<feFlood flood-opacity="0" result="BackgroundImageFix"/>
<feColorMatrix in="SourceAlpha" type="matrix" values="0 0 0 0 0 0 0 0 0 0 0 0 0 0 0 0 0 0 127 0" result="hardAlpha"/>
<feOffset dy="4"/>
<feGaussianBlur stdDeviation="2"/>
<feComposite in2="hardAlpha" operator="out"/>
<feColorMatrix type="matrix" values="0 0 0 0 0 0 0 0 0 0 0 0 0 0 0 0 0 0 0.25 0"/>
<feBlend mode="normal" in2="BackgroundImageFix" result="effect1_dropShadow"/>
<feBlend mode="normal" in="SourceGraphic" in2="effect1_dropShadow" result="shape"/>
</filter>
<linearGradient id="paint0_linear" x1="280" y1="35" x2="280" y2="325" gradientUnits="userSpaceOnUse">
<stop stop-opacity="0.67"/>
<stop offset="0.0625" stop-opacity="0.344571"/>
<stop offset="0.182292" stop-opacity="0"/>
<stop offset="0.473958" stop-opacity="0.0157931"/>
<stop offset="0.721994" stop-opacity="0.17"/>
<stop offset="0.964555" stop-opacity="0.23"/>
<stop offset="1" stop-opacity="0.6"/>
</linearGradient>
</defs>
</svg>
