<svg width="561" height="351" viewBox="0 0 561 351" fill="none" xmlns="http://www.w3.org/2000/svg">
<rect x="0.709961" y="0.566284" width="560" height="350" fill="url(#paint0_linear)"/>
<mask id="mask0" mask-type="alpha" maskUnits="userSpaceOnUse" x="0" y="0" width="561" height="351">
<rect x="0.709961" y="0.566284" width="560" height="350" fill="#EFEFEF"/>
</mask>
<g mask="url(#mask0)">
<path d="M436.851 -19.3843C435.707 -18.7236 434.633 -18.455 433.629 -18.5784C432.625 -18.7017 431.863 -19.2137 431.343 -20.1142C430.813 -21.0334 430.685 -21.9238 430.959 -22.7854L427.339 -20.6952L426.591 -21.99L437.001 -28L437.684 -26.8172L436.886 -26.2727C437.839 -26.1199 438.586 -25.5746 439.128 -24.6367C439.653 -23.7269 439.728 -22.8117 439.351 -21.8913C438.977 -20.9662 438.183 -20.1532 436.97 -19.4525L436.851 -19.3843ZM436.25 -20.7633C437.098 -21.2528 437.662 -21.8213 437.943 -22.4687C438.224 -23.1162 438.181 -23.7572 437.815 -24.3918C437.362 -25.1757 436.678 -25.5643 435.761 -25.5577L432.168 -23.4835C431.706 -22.7004 431.706 -21.9099 432.166 -21.112C432.525 -20.4914 433.052 -20.1396 433.749 -20.0565C434.452 -19.9714 435.286 -20.207 436.25 -20.7633Z" fill="white" fill-opacity="0.71"/>
<path d="M434.819 -15.9713C435.042 -16.0997 435.265 -16.1414 435.488 -16.0963C435.715 -16.0466 435.905 -15.8887 436.058 -15.6228C436.212 -15.3568 436.253 -15.1134 436.183 -14.8925C436.116 -14.6669 435.971 -14.4899 435.749 -14.3615C435.536 -14.2385 435.317 -14.2055 435.092 -14.2626C434.871 -14.315 434.683 -14.4742 434.529 -14.7401C434.376 -15.0061 434.332 -15.2482 434.397 -15.4664C434.465 -15.68 434.606 -15.8483 434.819 -15.9713Z" fill="white" fill-opacity="0.71"/>
<path d="M440.851 -8.57277C441.199 -8.77337 441.391 -9.06149 441.427 -9.43711C441.471 -9.81075 441.372 -10.3666 441.131 -11.1048C440.893 -11.8383 440.759 -12.4548 440.73 -12.9544C440.704 -13.4494 440.771 -13.8677 440.932 -14.2095C441.096 -14.5466 441.363 -14.8221 441.734 -15.0361C442.35 -15.3919 443.022 -15.4315 443.75 -15.1549C444.48 -14.8738 445.082 -14.3249 445.553 -13.5083C446.049 -12.6498 446.23 -11.8275 446.097 -11.0415C445.967 -10.2508 445.559 -9.65755 444.873 -9.26169L444.121 -10.5635C444.474 -10.7668 444.689 -11.0936 444.769 -11.544C444.852 -11.9897 444.761 -12.4412 444.497 -12.8985C444.225 -13.3698 443.91 -13.6795 443.552 -13.8278C443.195 -13.9761 442.852 -13.9553 442.523 -13.7654C442.213 -13.5862 442.05 -13.3275 442.035 -12.9892C442.021 -12.651 442.127 -12.1185 442.355 -11.3916C442.586 -10.6601 442.718 -10.0363 442.75 -9.51997C442.783 -9.00368 442.713 -8.56831 442.541 -8.21385C442.376 -7.8574 442.092 -7.56282 441.689 -7.33012C441.017 -6.94229 440.321 -6.90131 439.601 -7.2072C438.886 -7.51575 438.279 -8.10164 437.78 -8.96485C437.43 -9.57143 437.227 -10.1695 437.171 -10.7592C437.114 -11.3488 437.199 -11.8863 437.426 -12.3715C437.659 -12.8548 437.999 -13.2249 438.443 -13.4816L439.191 -12.1868C438.773 -11.9148 438.53 -11.5442 438.461 -11.0751C438.4 -10.6041 438.523 -10.1026 438.83 -9.57067C439.113 -9.08074 439.436 -8.74496 439.8 -8.56334C440.172 -8.37972 440.522 -8.38287 440.851 -8.57277Z" fill="white" fill-opacity="0.71"/>
<path d="M448.8 -7.56295L447.987 -7.0465C448.956 -6.86571 449.712 -6.30405 450.257 -5.36152C450.868 -4.30233 450.881 -3.34874 450.296 -2.50074C450.803 -2.4574 451.283 -2.29928 451.737 -2.02639C452.194 -1.74884 452.581 -1.33476 452.899 -0.784176C453.858 0.876918 453.473 2.22564 451.742 3.262L446.704 6.17072L445.957 4.8759L450.918 2.01132C451.456 1.70105 451.785 1.34604 451.906 0.946285C452.032 0.543856 451.927 0.0510189 451.59 -0.53223C451.313 -1.01283 450.939 -1.32886 450.468 -1.48031C450.002 -1.63444 449.514 -1.59809 449.002 -1.37125L444.013 1.50939L443.261 0.207577L448.188 -2.63695C449.282 -3.26818 449.517 -4.12271 448.895 -5.20056C448.404 -6.04977 447.71 -6.4234 446.812 -6.32145L441.322 -3.15194L440.574 -4.44675L448.093 -8.78777L448.8 -7.56295Z" fill="white" fill-opacity="0.71"/>
<path d="M450.535 12.8058C450.64 12.6455 450.869 12.4324 451.222 12.1664C450.254 11.9229 449.529 11.3836 449.046 10.5483C448.615 9.80178 448.47 9.06784 448.609 8.34652C448.756 7.6272 449.151 7.08164 449.795 6.70986C450.578 6.25784 451.357 6.20608 452.133 6.55458C452.916 6.90507 453.621 7.6239 454.249 8.71108L454.976 9.9709L455.567 9.62988C456.016 9.37043 456.295 9.02917 456.403 8.60608C456.515 8.18032 456.419 7.70381 456.115 7.17656C455.848 6.71462 455.509 6.39422 455.097 6.21533C454.684 6.03644 454.314 6.04194 453.985 6.23185L453.233 4.93003C453.609 4.71338 454.047 4.63775 454.548 4.70311C455.056 4.77046 455.544 4.97392 456.012 5.3135C456.483 5.65775 456.877 6.10516 457.195 6.65575C457.698 7.52829 457.875 8.33758 457.725 9.08359C457.58 9.82693 457.133 10.4273 456.384 10.8846L452.923 12.8826C452.233 13.2811 451.735 13.6867 451.43 14.0994L451.319 14.1636L450.535 12.8058ZM450.274 10.0914C450.509 10.4973 450.835 10.8221 451.254 11.0657C451.672 11.3093 452.095 11.4164 452.523 11.3871L454.066 10.4965L453.48 9.48162C452.564 7.89519 451.645 7.36809 450.723 7.90036C450.32 8.13305 450.083 8.45025 450.013 8.85194C449.942 9.25363 450.029 9.66677 450.274 10.0914Z" fill="white" fill-opacity="0.71"/>
<path d="M453.149 17.3341L452.402 16.0393L463.076 9.87682L463.823 11.1716L453.149 17.3341Z" fill="white" fill-opacity="0.71"/>
<path d="M455.162 20.8196L454.414 19.5248L465.088 13.3623L465.835 14.6571L455.162 20.8196Z" fill="white" fill-opacity="0.71"/>
<path d="M457.012 22.4671C457.234 22.3388 457.457 22.2971 457.681 22.3422C457.907 22.3919 458.097 22.5497 458.251 22.8157C458.404 23.0816 458.446 23.3251 458.376 23.546C458.308 23.7716 458.163 23.9485 457.941 24.0769C457.728 24.2 457.509 24.2329 457.285 24.1759C457.063 24.1235 456.875 23.9643 456.722 23.6983C456.568 23.4324 456.524 23.1903 456.59 22.972C456.658 22.7585 456.799 22.5902 457.012 22.4671ZM463.152 18.9315C463.374 18.8031 463.597 18.7615 463.821 18.8065C464.047 18.8563 464.237 19.0141 464.391 19.2801C464.544 19.546 464.586 19.7895 464.516 20.0104C464.448 20.2359 464.304 20.4129 464.081 20.5413C463.868 20.6643 463.649 20.6973 463.425 20.6402C463.203 20.5878 463.015 20.4287 462.862 20.1627C462.708 19.8967 462.664 19.6546 462.73 19.4364C462.798 19.2229 462.939 19.0546 463.152 18.9315Z" fill="white" fill-opacity="0.71"/>
<path d="M473.459 31.6817L471.568 28.4061L462.548 33.6138L461.777 32.277L470.797 27.0693L468.909 23.8008L470.007 23.1669L474.557 31.0478L473.459 31.6817Z" fill="white" fill-opacity="0.71"/>
<path d="M472.551 35.6775C473.582 35.8475 474.363 36.3921 474.894 37.3113C475.818 38.9118 475.387 40.2365 473.603 41.2856L468.634 44.1543L467.886 42.8594L472.862 39.9868C473.401 39.6692 473.729 39.3119 473.846 38.9148C473.965 38.5224 473.875 38.0672 473.576 37.5493C473.334 37.1293 473.01 36.8249 472.604 36.636C472.199 36.4471 471.764 36.3683 471.301 36.3996L465.943 39.4929L465.195 38.1981L475.869 32.0356L476.617 33.3304L472.551 35.6775Z" fill="white" fill-opacity="0.71"/>
<path d="M471.429 49.3158C470.836 48.2892 470.687 47.2615 470.983 46.2324C471.283 45.2007 471.993 44.3611 473.114 43.7139L473.351 43.5775C474.096 43.1468 474.843 42.9053 475.591 42.8529C476.347 42.8025 477.037 42.939 477.662 43.2624C478.295 43.5877 478.785 44.0514 479.133 44.6533C479.701 45.6378 479.821 46.5889 479.492 47.5066C479.163 48.4243 478.399 49.2295 477.199 49.9223L476.664 50.2312L473.702 45.101C472.972 45.5476 472.497 46.1109 472.278 46.791C472.067 47.473 472.147 48.136 472.518 48.7799C472.782 49.2372 473.099 49.571 473.467 49.7813C473.836 49.9916 474.241 50.1275 474.685 50.1889L474.53 51.3328C473.195 51.2573 472.161 50.5849 471.429 49.3158ZM478.076 45.2631C477.775 44.7405 477.331 44.4116 476.747 44.2763C476.167 44.1383 475.512 44.2239 474.783 44.5331L476.973 48.3266L477.07 48.2704C477.702 47.8559 478.104 47.3871 478.278 46.8639C478.456 46.3379 478.389 45.8044 478.076 45.2631Z" fill="white" fill-opacity="0.71"/>
<path d="M479.835 54.7278C481.016 54.0457 482.107 53.7798 483.108 53.9298C484.113 54.0772 484.881 54.6105 485.412 55.5297C485.929 56.4256 486.039 57.305 485.74 58.168L486.53 57.7866L487.217 58.9765L476.807 64.9865L476.06 63.6917L479.645 61.6215C478.788 61.4198 478.108 60.8851 477.607 60.0172C477.079 59.1027 477.01 58.1692 477.399 57.2167C477.795 56.2662 478.577 55.454 479.744 54.7799L479.835 54.7278ZM480.436 56.1069C479.575 56.6043 479.003 57.1768 478.722 57.8243C478.444 58.4764 478.484 59.1128 478.842 59.7334C479.287 60.5032 479.964 60.8959 480.875 60.9113L484.558 58.785C484.984 57.9919 484.978 57.2174 484.542 56.4615C484.181 55.8363 483.646 55.4824 482.937 55.4C482.234 55.3149 481.4 55.5505 480.436 56.1069Z" fill="white" fill-opacity="0.71"/>
<path d="M484.341 69.6422C483.462 69.478 482.74 68.9083 482.177 67.9331C481.711 67.1259 481.587 66.3762 481.806 65.6841C482.031 64.9941 482.599 64.3832 483.509 63.8516L488.401 61.0272L489.148 62.322L484.291 65.1264C483.151 65.7844 482.851 66.58 483.39 67.5132C483.961 68.5023 484.707 68.9489 485.627 68.853L491.096 65.6955L491.844 66.9903L484.325 71.3313L483.613 70.0995L484.341 69.6422Z" fill="white" fill-opacity="0.71"/>
<path d="M486.276 74.7118L485.529 73.417L493.048 69.076L493.795 70.3708L486.276 74.7118ZM494.982 67.8196C495.19 67.6992 495.402 67.6606 495.619 67.7036C495.838 67.7514 496.02 67.9012 496.165 68.1532C496.311 68.4051 496.35 68.6379 496.281 68.8515C496.213 69.065 496.075 69.232 495.866 69.3524C495.658 69.4727 495.447 69.5077 495.232 69.4573C495.018 69.4069 494.838 69.2557 494.692 69.0037C494.547 68.7518 494.506 68.5203 494.569 68.3094C494.636 68.1032 494.773 67.9399 494.982 67.8196Z" fill="white" fill-opacity="0.71"/>
<path d="M490.141 79.3025C490.407 79.7645 490.779 80.0878 491.257 80.2726C491.734 80.4574 492.192 80.4481 492.63 80.2448L493.337 81.4696C492.893 81.695 492.397 81.7824 491.849 81.7318C491.301 81.6811 490.778 81.4917 490.279 81.1635C489.784 80.84 489.388 80.4216 489.091 79.9083C488.496 78.8772 488.362 77.8594 488.69 76.8549C489.026 75.8525 489.787 75.0089 490.973 74.3242L491.188 74.1998C491.92 73.7772 492.649 73.5368 493.375 73.4784C494.101 73.42 494.767 73.5519 495.373 73.8739C495.982 74.2006 496.485 74.7093 496.884 75.3998C497.374 76.2491 497.529 77.0994 497.347 77.9509C497.168 78.807 496.686 79.4864 495.902 79.9891L495.195 78.7643C495.659 78.4461 495.95 78.0295 496.067 77.5143C496.19 77.0011 496.111 76.4996 495.828 76.0097C495.448 75.3518 494.917 74.9773 494.234 74.8861C493.559 74.797 492.776 75.0092 491.887 75.5227L491.644 75.6631C490.777 76.1633 490.214 76.7281 489.953 77.3575C489.693 77.987 489.755 78.6353 490.141 79.3025Z" fill="white" fill-opacity="0.71"/>
<path d="M496.51 84.3971L495.201 84.0707L492.56 85.5953L491.812 84.3005L502.486 78.138L503.234 79.4328L496.778 83.16L498.005 83.3754L501.841 84.3058L502.75 85.8806L497.908 84.7475L495.429 90.5646L494.552 89.0458L496.51 84.3971Z" fill="white" fill-opacity="0.71"/>
<path d="M505.433 99.4026C504.284 100.066 503.206 100.334 502.2 100.206C501.198 100.075 500.438 99.5615 499.921 98.6656C499.369 97.7091 499.277 96.7756 499.648 95.8652L498.743 96.3037L498.056 95.1139L508.729 88.9514L509.477 90.2462L505.495 92.5451C506.441 92.6959 507.179 93.2309 507.71 94.1501C508.24 95.0693 508.311 95.9895 507.923 96.9106C507.537 97.8364 506.744 98.6457 505.544 99.3384L505.433 99.4026ZM504.831 98.0235C505.707 97.518 506.285 96.9572 506.566 96.3411C506.846 95.725 506.802 95.0973 506.433 94.4581C505.94 93.6042 505.192 93.218 504.189 93.2994L500.936 95.177C500.378 96.0283 500.341 96.8739 500.826 97.7138C501.184 98.3344 501.702 98.6796 502.378 98.7494C503.055 98.8191 503.872 98.5772 504.831 98.0235Z" fill="white" fill-opacity="0.71"/>
<path d="M511.181 103.148C511.101 102.933 510.994 102.712 510.862 102.483C510.372 101.634 509.68 101.265 508.787 101.376L503.45 104.458L502.703 103.163L510.221 98.8217L510.949 100.082L510.092 100.604C511.009 100.641 511.693 101.049 512.142 101.828C512.288 102.08 512.366 102.29 512.376 102.458L511.181 103.148Z" fill="white" fill-opacity="0.71"/>
<path d="M509.057 105.326C509.794 104.901 510.54 104.663 511.295 104.613C512.053 104.567 512.741 104.711 513.36 105.044C513.981 105.382 514.485 105.885 514.87 106.552C515.465 107.584 515.592 108.621 515.249 109.665C514.91 110.713 514.151 111.577 512.975 112.257L512.884 112.309C512.152 112.731 511.412 112.969 510.664 113.021C509.924 113.076 509.239 112.933 508.61 112.593C507.984 112.257 507.475 111.749 507.081 111.068C506.489 110.041 506.362 109.004 506.702 107.955C507.044 106.912 507.799 106.053 508.967 105.379L509.057 105.326ZM509.656 106.717C508.822 107.198 508.264 107.778 507.983 108.457C507.704 109.14 507.753 109.809 508.131 110.462C508.51 111.12 509.067 111.495 509.8 111.588C510.538 111.679 511.368 111.458 512.29 110.926C513.114 110.45 513.667 109.866 513.948 109.175C514.236 108.486 514.191 107.815 513.814 107.162C513.445 106.523 512.895 106.153 512.163 106.053C511.432 105.952 510.596 106.174 509.656 106.717Z" fill="white" fill-opacity="0.71"/>
<path d="M515.789 121.737L522.376 119.875L523.124 121.17L514.332 123.306L513.726 122.256L518.362 117.125L511.629 118.624L511.023 117.574L517.273 111.035L518.016 112.323L513.248 117.063L519.895 115.577L520.497 116.62L515.789 121.737Z" fill="white" fill-opacity="0.71"/>
<path d="M524.595 123.717L523.674 124.305C524.731 124.466 525.528 125.013 526.067 125.947C526.991 127.547 526.561 128.872 524.776 129.921L519.808 132.789L519.06 131.495L524.036 128.622C524.575 128.304 524.903 127.947 525.019 127.55C525.139 127.158 525.049 126.702 524.75 126.185C524.508 125.765 524.184 125.46 523.778 125.271C523.372 125.082 522.938 125.004 522.474 125.035L517.116 128.128L516.369 126.833L523.888 122.492L524.595 123.717Z" fill="white" fill-opacity="0.71"/>
<path d="M523.355 138.935L529.881 135.167L529.19 133.97L530.183 133.397L530.874 134.594L531.646 134.148C532.452 133.683 533.2 133.54 533.891 133.72C534.581 133.9 535.156 134.386 535.614 135.179C535.786 135.478 535.918 135.797 536.009 136.137L534.926 136.668C534.841 136.425 534.727 136.18 534.584 135.932C534.342 135.512 534.032 135.259 533.654 135.172C533.282 135.083 532.868 135.169 532.414 135.431L531.622 135.888L532.555 137.505L531.562 138.079L530.628 136.462L524.103 140.229L523.355 138.935Z" fill="white" fill-opacity="0.71"/>
<path d="M529.496 140.727C530.232 140.302 530.978 140.064 531.734 140.014C532.492 139.968 533.18 140.112 533.799 140.445C534.42 140.783 534.923 141.286 535.309 141.953C535.904 142.984 536.031 144.022 535.688 145.066C535.348 146.114 534.59 146.978 533.413 147.658L533.323 147.71C532.591 148.132 531.851 148.37 531.103 148.422C530.362 148.477 529.678 148.334 529.049 147.994C528.423 147.658 527.913 147.15 527.52 146.469C526.927 145.442 526.801 144.405 527.141 143.356C527.483 142.312 528.238 141.454 529.405 140.78L529.496 140.727ZM530.094 142.117C529.261 142.599 528.703 143.179 528.422 143.858C528.143 144.541 528.192 145.21 528.569 145.863C528.949 146.521 529.506 146.896 530.239 146.989C530.977 147.08 531.807 146.859 532.728 146.327C533.553 145.85 534.106 145.267 534.386 144.576C534.674 143.887 534.63 143.216 534.253 142.563C533.883 141.924 533.333 141.554 532.602 141.454C531.871 141.353 531.035 141.575 530.094 142.117Z" fill="white" fill-opacity="0.71"/>
<path d="M536.737 151.086L540.451 151.181L541.324 152.693L536.176 152.362L533.85 157.111L532.985 155.613L534.789 152.239L530.964 152.114L530.096 150.609L535.372 150.969L537.659 146.345L538.524 147.843L536.737 151.086Z" fill="white" fill-opacity="0.71"/>
<path d="M544.945 158.964L536.557 163.807C535.112 164.641 534.008 164.398 533.245 163.078C533.081 162.793 532.971 162.505 532.914 162.215L533.942 161.621C533.992 161.791 534.086 161.998 534.226 162.241C534.393 162.53 534.599 162.704 534.842 162.762C535.084 162.828 535.397 162.75 535.782 162.528L544.197 157.669L544.945 158.964ZM546.115 156.385C546.319 156.267 546.529 156.23 546.745 156.273C546.969 156.318 547.152 156.464 547.295 156.711C547.44 156.963 547.479 157.196 547.411 157.41C547.342 157.623 547.204 157.79 546.996 157.911C546.787 158.031 546.576 158.066 546.361 158.016C546.147 157.965 545.967 157.814 545.821 157.562C545.676 157.31 545.636 157.081 545.703 156.875C545.769 156.668 545.906 156.505 546.115 156.385Z" fill="white" fill-opacity="0.71"/>
<path d="M542.077 169.644C541.198 169.48 540.476 168.91 539.913 167.935C539.447 167.127 539.323 166.378 539.541 165.686C539.767 164.996 540.335 164.385 541.245 163.853L546.137 161.029L546.884 162.324L542.027 165.128C540.887 165.786 540.587 166.582 541.126 167.515C541.697 168.504 542.442 168.951 543.363 168.855L548.832 165.697L549.579 166.992L542.061 171.333L541.349 170.101L542.077 169.644Z" fill="white" fill-opacity="0.71"/>
<path d="M551.422 170.183L550.608 170.7C551.578 170.881 552.334 171.442 552.878 172.385C553.49 173.444 553.503 174.398 552.918 175.246C553.425 175.289 553.905 175.447 554.359 175.72C554.816 175.998 555.203 176.412 555.521 176.962C556.48 178.623 556.095 179.972 554.364 181.008L549.326 183.917L548.579 182.622L553.54 179.758C554.078 179.447 554.407 179.092 554.528 178.693C554.654 178.29 554.549 177.797 554.212 177.214C553.935 176.734 553.561 176.418 553.09 176.266C552.624 176.112 552.136 176.148 551.624 176.375L546.635 179.256L545.883 177.954L550.81 175.109C551.903 174.478 552.139 173.624 551.517 172.546C551.026 171.697 550.332 171.323 549.433 171.425L543.944 174.594L543.196 173.3L550.715 168.959L551.422 170.183Z" fill="white" fill-opacity="0.71"/>
<path d="M557.827 190.152C556.683 190.812 555.609 191.081 554.605 190.957C553.601 190.834 552.839 190.322 552.319 189.422C551.788 188.502 551.66 187.612 551.935 186.75L548.314 188.841L547.567 187.546L557.976 181.536L558.659 182.719L557.862 183.263C558.815 183.416 559.562 183.961 560.104 184.899C560.629 185.809 560.703 186.724 560.327 187.645C559.953 188.57 559.159 189.383 557.945 190.083L557.827 190.152ZM557.225 188.772C558.073 188.283 558.637 187.715 558.918 187.067C559.199 186.42 559.157 185.779 558.79 185.144C558.338 184.36 557.653 183.971 556.737 183.978L553.144 186.052C552.682 186.835 552.681 187.626 553.142 188.424C553.5 189.044 554.028 189.396 554.724 189.479C555.428 189.564 556.262 189.329 557.225 188.772Z" fill="white" fill-opacity="0.71"/>
<path d="M559.645 197.184C559.992 196.983 560.184 196.695 560.22 196.319C560.264 195.946 560.166 195.39 559.925 194.652C559.687 193.918 559.553 193.302 559.524 192.802C559.498 192.307 559.565 191.889 559.726 191.547C559.889 191.21 560.157 190.934 560.527 190.72C561.143 190.364 561.815 190.325 562.543 190.601C563.274 190.883 563.875 191.431 564.346 192.248C564.842 193.107 565.023 193.929 564.89 194.715C564.76 195.506 564.352 196.099 563.667 196.495L562.915 195.193C563.267 194.99 563.483 194.663 563.563 194.212C563.645 193.767 563.554 193.315 563.29 192.858C563.018 192.387 562.703 192.077 562.346 191.929C561.989 191.78 561.645 191.801 561.316 191.991C561.006 192.17 560.844 192.429 560.829 192.767C560.814 193.105 560.921 193.638 561.149 194.365C561.38 195.096 561.511 195.72 561.544 196.236C561.576 196.753 561.506 197.188 561.334 197.542C561.17 197.899 560.886 198.194 560.483 198.426C559.811 198.814 559.115 198.855 558.395 198.549C557.679 198.241 557.072 197.655 556.574 196.791C556.224 196.185 556.02 195.587 555.964 194.997C555.908 194.408 555.993 193.87 556.219 193.385C556.453 192.902 556.792 192.531 557.237 192.275L557.984 193.57C557.567 193.842 557.324 194.212 557.255 194.681C557.193 195.152 557.316 195.654 557.623 196.186C557.906 196.676 558.23 197.011 558.594 197.193C558.965 197.377 559.316 197.373 559.645 197.184Z" fill="white" fill-opacity="0.71"/>
<path d="M565.055 202.318C565.792 201.893 566.538 201.655 567.293 201.605C568.051 201.559 568.74 201.703 569.358 202.036C569.98 202.374 570.483 202.877 570.868 203.544C571.464 204.576 571.59 205.613 571.248 206.657C570.908 207.705 570.15 208.569 568.973 209.249L568.883 209.301C568.151 209.723 567.411 209.961 566.663 210.013C565.922 210.068 565.237 209.925 564.609 209.585C563.983 209.249 563.473 208.741 563.08 208.06C562.487 207.033 562.361 205.996 562.7 204.947C563.043 203.904 563.798 203.045 564.965 202.371L565.055 202.318ZM565.654 203.709C564.82 204.19 564.263 204.77 563.981 205.449C563.703 206.132 563.752 206.801 564.129 207.454C564.509 208.112 565.065 208.487 565.799 208.581C566.536 208.671 567.366 208.45 568.288 207.918C569.113 207.442 569.665 206.858 569.946 206.167C570.234 205.478 570.189 204.807 569.812 204.154C569.443 203.515 568.893 203.145 568.162 203.045C567.43 202.944 566.595 203.166 565.654 203.709Z" fill="white" fill-opacity="0.71"/>
<path d="M569.266 214.427L576.124 212.968L576.888 214.291L567.801 215.916L567.231 214.93L573.166 207.845L573.93 209.168L569.266 214.427Z" fill="white" fill-opacity="0.71"/>
<path d="M571.707 223.003C571.114 221.976 570.966 220.948 571.261 219.919C571.561 218.888 572.271 218.048 573.393 217.401L573.629 217.264C574.375 216.834 575.122 216.592 575.87 216.54C576.625 216.49 577.315 216.626 577.941 216.949C578.573 217.275 579.063 217.738 579.411 218.34C579.979 219.325 580.099 220.276 579.77 221.194C579.442 222.111 578.677 222.917 577.477 223.609L576.942 223.918L573.98 218.788C573.25 219.235 572.775 219.798 572.556 220.478C572.345 221.16 572.425 221.823 572.797 222.467C573.061 222.924 573.377 223.258 573.745 223.468C574.114 223.679 574.52 223.814 574.963 223.876L574.808 225.02C573.473 224.944 572.44 224.272 571.707 223.003ZM578.355 218.95C578.053 218.427 577.61 218.099 577.025 217.963C576.445 217.825 575.79 217.911 575.061 218.22L577.251 222.014L577.348 221.957C577.98 221.543 578.382 221.074 578.556 220.551C578.734 220.025 578.667 219.491 578.355 218.95Z" fill="white" fill-opacity="0.71"/>
<path d="M416.682 -5.16317C415.18 -4.29607 413.772 -3.94074 412.458 -4.09716C411.143 -4.25359 410.147 -4.91808 409.47 -6.09062C408.779 -7.28746 408.616 -8.44855 408.979 -9.57388L404.228 -6.8304L403.254 -8.51631L416.917 -16.4045L417.806 -14.8644L416.759 -14.1504C418.006 -13.9554 418.983 -13.2473 419.688 -12.0262C420.372 -10.8415 420.465 -9.64785 419.968 -8.44529C419.474 -7.23665 418.43 -6.17246 416.837 -5.2527L416.682 -5.16317ZM415.9 -6.95967C417.013 -7.60209 417.755 -8.3463 418.126 -9.1923C418.497 -10.0383 418.444 -10.8744 417.967 -11.7007C417.377 -12.7213 416.482 -13.2253 415.282 -13.2125L410.566 -10.4901C409.958 -9.46631 409.953 -8.43496 410.553 -7.39608C411.019 -6.58805 411.709 -6.13141 412.621 -6.02614C413.542 -5.91831 414.636 -6.22948 415.9 -6.95967Z" fill="white" fill-opacity="0.71"/>
<path d="M414.005 -0.701229C414.297 -0.869734 414.589 -0.925102 414.882 -0.867329C415.178 -0.80348 415.426 -0.598404 415.626 -0.25211C415.826 0.0941854 415.879 0.411593 415.787 0.700115C415.697 0.994713 415.507 1.22626 415.215 1.39476C414.935 1.55625 414.648 1.60028 414.355 1.52684C414.064 1.45949 413.819 1.25266 413.619 0.906361C413.42 0.560066 413.363 0.244412 413.45 -0.0405998C413.54 -0.319536 413.725 -0.539745 414.005 -0.701229Z" fill="white" fill-opacity="0.71"/>
<path d="M426.724 0.582211L425.656 1.25967C426.925 1.49116 427.913 2.22052 428.622 3.44774C429.418 4.82685 429.431 6.0709 428.661 7.17991C429.324 7.23416 429.953 7.43827 430.546 7.79225C431.143 8.1523 431.649 8.69077 432.063 9.40767C433.311 11.5705 432.8 13.3319 430.529 14.6918L423.916 18.5095L422.943 16.8236L429.455 13.0638C430.16 12.6566 430.593 12.1919 430.754 11.6698C430.921 11.1442 430.785 10.5017 430.347 9.74229C429.985 9.11653 429.497 8.70591 428.881 8.51044C428.272 8.31146 427.632 8.3611 426.961 8.65937L420.412 12.4402L419.434 10.7452L425.9 7.01174C427.335 6.18325 427.648 5.0673 426.837 3.6639C426.199 2.55818 425.291 2.07387 424.113 2.21096L416.908 6.37093L415.935 4.68502L425.803 -1.01256L426.724 0.582211Z" fill="white" fill-opacity="0.71"/>
<path d="M426.447 22.8928L425.474 21.2069L435.342 15.5093L436.316 17.1953L426.447 22.8928ZM437.881 13.8614C438.155 13.7034 438.433 13.652 438.716 13.7072C439.003 13.7685 439.241 13.9632 439.43 14.2912C439.62 14.6193 439.669 14.9228 439.579 15.2018C439.489 15.4807 439.307 15.6991 439.033 15.8571C438.76 16.0151 438.482 16.0617 438.202 15.9969C437.921 15.9321 437.686 15.7357 437.497 15.4076C437.307 15.0795 437.255 14.7778 437.339 14.5024C437.427 14.233 437.607 14.0193 437.881 13.8614Z" fill="white" fill-opacity="0.71"/>
<path d="M438.799 21.4966L437.59 22.2674C438.974 22.4731 440.016 23.1835 440.718 24.3986C441.921 26.4824 441.351 28.2128 439.008 29.5896L432.487 33.3546L431.514 31.6687L438.044 27.8984C438.752 27.4816 439.183 27.0139 439.338 26.4953C439.496 25.9828 439.38 25.3893 438.991 24.715C438.675 24.1682 438.252 23.7725 437.722 23.5279C437.192 23.2833 436.623 23.1824 436.015 23.2254L428.983 27.2853L428.01 25.5994L437.878 19.9018L438.799 21.4966Z" fill="white" fill-opacity="0.71"/>
<path d="M438.723 32.5491C439.69 31.991 440.668 31.6773 441.658 31.6081C442.651 31.545 443.552 31.7296 444.361 32.1617C445.173 32.5999 445.83 33.2534 446.332 34.1222C447.107 35.4648 447.268 36.8178 446.814 38.1812C446.365 39.5506 445.368 40.6812 443.823 41.5729L443.705 41.6413C442.744 42.196 441.774 42.5092 440.793 42.5809C439.823 42.6552 438.927 42.472 438.105 42.0312C437.286 41.5965 436.621 40.9356 436.109 40.0486C435.337 38.7121 435.176 37.359 435.626 35.9896C436.079 34.6263 437.072 33.5022 438.604 32.6176L438.723 32.5491ZM439.501 34.36C438.406 34.9919 437.673 35.7513 437.302 36.6382C436.933 37.5312 436.995 38.4029 437.486 39.2535C437.981 40.1101 438.708 40.5975 439.668 40.7156C440.634 40.8302 441.722 40.5381 442.932 39.8396C444.014 39.2147 444.741 38.451 445.111 37.5484C445.492 36.6484 445.436 35.7731 444.945 34.9226C444.465 34.0903 443.746 33.6103 442.788 33.4826C441.831 33.3549 440.735 33.6474 439.501 34.36Z" fill="white" fill-opacity="0.71"/>
<path d="M451.207 46.4838C451.102 46.2041 450.964 45.9153 450.792 45.6176C450.153 44.5119 449.249 44.0337 448.078 44.1829L441.074 48.2271L440.1 46.5411L449.969 40.8436L450.916 42.4839L449.792 43.1695C450.993 43.2133 451.886 43.7425 452.472 44.7571C452.661 45.0851 452.762 45.3588 452.775 45.5781L451.207 46.4838Z" fill="white" fill-opacity="0.71"/>
<path d="M444.605 52.3001C444.897 52.1316 445.189 52.0762 445.482 52.134C445.778 52.1979 446.026 52.4029 446.226 52.7492C446.426 53.0955 446.48 53.4129 446.387 53.7015C446.298 53.9961 446.107 54.2276 445.815 54.3961C445.535 54.5576 445.249 54.6016 444.955 54.5282C444.665 54.4608 444.42 54.254 444.22 53.9077C444.02 53.5614 443.963 53.2458 444.05 52.9608C444.14 52.6818 444.325 52.4616 444.605 52.3001ZM452.664 47.6595C452.956 47.491 453.248 47.4357 453.541 47.4934C453.837 47.5573 454.085 47.7624 454.285 48.1087C454.485 48.455 454.539 48.7724 454.446 49.0609C454.356 49.3555 454.166 49.587 453.874 49.7555C453.594 49.917 453.308 49.9611 453.014 49.8876C452.724 49.8203 452.478 49.6134 452.279 49.2671C452.079 48.9208 452.022 48.6052 452.109 48.3202C452.199 48.0412 452.384 47.821 452.664 47.6595Z" fill="white" fill-opacity="0.71"/>
<path d="M466.108 64.2475L463.646 59.9826L451.807 66.8176L450.802 65.077L462.641 58.242L460.184 53.9863L461.625 53.1543L467.549 63.4155L466.108 64.2475Z" fill="white" fill-opacity="0.71"/>
<path d="M464.9 69.4648C466.25 69.682 467.27 70.389 467.961 71.5858C469.164 73.6697 468.595 75.4 466.252 76.7768L459.731 80.5418L458.757 78.8559L465.288 75.0856C465.996 74.6688 466.427 74.2011 466.582 73.6825C466.74 73.17 466.624 72.5766 466.235 71.9022C465.919 71.3555 465.496 70.9598 464.966 70.7151C464.435 70.4705 463.866 70.3697 463.259 70.4126L456.227 74.4726L455.253 72.7867L469.263 64.6984L470.236 66.3843L464.9 69.4648Z" fill="white" fill-opacity="0.71"/>
<path d="M463.368 87.2632C462.596 85.9266 462.406 84.5864 462.798 83.2425C463.196 81.8951 464.13 80.7966 465.602 79.947L465.912 79.768C466.891 79.2028 467.87 78.8843 468.85 78.8126C469.84 78.7434 470.744 78.9184 471.561 79.3374C472.388 79.759 473.028 80.3617 473.48 81.1454C474.221 82.4273 474.373 83.6676 473.938 84.8664C473.504 86.0652 472.499 87.1192 470.924 88.0284L470.222 88.4339L466.365 81.754C465.406 82.34 464.782 83.0771 464.492 83.9654C464.212 84.8562 464.314 85.7208 464.798 86.5592C465.142 87.1546 465.554 87.5886 466.036 87.8613C466.518 88.134 467.049 88.3095 467.629 88.3876L467.421 89.8808C465.673 89.7882 464.322 88.9157 463.368 87.2632ZM472.094 81.9458C471.701 81.2654 471.122 80.8382 470.357 80.6643C469.598 80.487 468.74 80.6016 467.783 81.0083L470.635 85.9476L470.762 85.8739C471.592 85.3303 472.121 84.7168 472.351 84.0333C472.587 83.3464 472.501 82.6505 472.094 81.9458Z" fill="white" fill-opacity="0.71"/>
<path d="M474.354 94.286C475.905 93.3909 477.335 93.0389 478.646 93.2301C479.962 93.4179 480.966 94.1102 481.657 95.307C482.33 96.4735 482.469 97.6204 482.074 98.7476L483.111 98.2465L484.005 99.7957L470.342 107.684L469.369 105.998L474.075 103.281C472.953 103.022 472.065 102.327 471.413 101.197C470.725 100.006 470.639 98.7887 471.152 97.5443C471.676 96.3024 472.704 95.2391 474.236 94.3545L474.354 94.286ZM475.136 96.0825C474.005 96.7355 473.254 97.485 472.883 98.3309C472.516 99.183 472.566 100.013 473.032 100.821C473.611 101.824 474.497 102.333 475.69 102.349L480.523 99.5579C481.084 98.5213 481.081 97.5108 480.512 96.5266C480.042 95.7125 479.344 95.2533 478.416 95.149C477.494 95.0412 476.401 95.3523 475.136 96.0825Z" fill="white" fill-opacity="0.71"/>
<path d="M480.19 113.724C479.039 113.514 478.097 112.774 477.363 111.504C476.757 110.453 476.598 109.475 476.887 108.571C477.185 107.67 477.931 106.871 479.126 106.173L485.547 102.466L486.52 104.152L480.145 107.833C478.649 108.696 478.252 109.735 478.953 110.951C479.697 112.238 480.672 112.818 481.878 112.688L489.056 108.544L490.029 110.23L480.161 115.928L479.235 114.324L480.19 113.724Z" fill="white" fill-opacity="0.71"/>
<path d="M482.702 120.329L481.729 118.643L491.597 112.946L492.571 114.632L482.702 120.329ZM494.136 111.298C494.41 111.14 494.688 111.088 494.971 111.144C495.258 111.205 495.496 111.4 495.685 111.728C495.875 112.056 495.924 112.359 495.834 112.638C495.744 112.917 495.562 113.136 495.288 113.294C495.015 113.452 494.737 113.498 494.457 113.433C494.176 113.369 493.941 113.172 493.752 112.844C493.562 112.516 493.51 112.214 493.594 111.939C493.682 111.669 493.862 111.456 494.136 111.298Z" fill="white" fill-opacity="0.71"/>
<path d="M487.743 126.301C488.09 126.903 488.576 127.323 489.2 127.562C489.825 127.801 490.425 127.786 491 127.519L491.921 129.114C491.338 129.41 490.687 129.526 489.97 129.463C489.252 129.399 488.567 129.154 487.916 128.728C487.268 128.309 486.752 127.765 486.366 127.096C485.591 125.754 485.42 124.426 485.854 123.114C486.298 121.805 487.299 120.701 488.855 119.802L489.138 119.639C490.099 119.084 491.055 118.767 492.006 118.688C492.957 118.609 493.829 118.778 494.621 119.195C495.417 119.618 496.075 120.28 496.594 121.179C497.232 122.285 497.43 123.393 497.189 124.505C496.95 125.623 496.316 126.511 495.286 127.171L494.365 125.576C494.976 125.159 495.358 124.614 495.513 123.941C495.678 123.271 495.576 122.617 495.207 121.979C494.713 121.123 494.019 120.636 493.125 120.521C492.241 120.407 491.215 120.688 490.047 121.362L489.728 121.546C488.591 122.203 487.851 122.942 487.507 123.764C487.163 124.587 487.241 125.432 487.743 126.301Z" fill="white" fill-opacity="0.71"/>
<path d="M496.063 132.919L494.349 132.499L490.884 134.5L489.91 132.814L503.919 124.726L504.893 126.412L496.42 131.304L498.026 131.579L503.046 132.776L504.23 134.826L497.892 133.37L494.619 140.97L493.477 138.993L496.063 132.919Z" fill="white" fill-opacity="0.71"/>
<path d="M507.683 152.456C506.175 153.326 504.762 153.68 503.444 153.518C502.132 153.352 501.14 152.686 500.466 151.519C499.747 150.274 499.632 149.056 500.121 147.867L498.934 148.443L498.039 146.894L512.048 138.806L513.022 140.491L507.796 143.509C509.034 143.701 509.998 144.396 510.689 145.593C511.38 146.79 511.469 147.99 510.956 149.193C510.446 150.403 509.404 151.462 507.829 152.371L507.683 152.456ZM506.902 150.659C508.051 149.996 508.81 149.261 509.181 148.456C509.551 147.651 509.496 146.833 509.015 146C508.373 144.888 507.395 144.388 506.081 144.499L501.812 146.963C501.077 148.076 501.025 149.18 501.656 150.273C502.123 151.081 502.799 151.529 503.685 151.617C504.571 151.705 505.643 151.386 506.902 150.659Z" fill="white" fill-opacity="0.71"/>
<path d="M515.196 157.316C515.091 157.037 514.953 156.748 514.781 156.45C514.143 155.345 513.238 154.866 512.068 155.016L505.063 159.06L504.09 157.374L513.958 151.676L514.905 153.317L513.781 154.002C514.982 154.046 515.875 154.575 516.461 155.59C516.65 155.918 516.752 156.191 516.765 156.411L515.196 157.316Z" fill="white" fill-opacity="0.71"/>
<path d="M512.404 160.168C513.37 159.61 514.349 159.296 515.338 159.227C516.331 159.164 517.232 159.348 518.041 159.781C518.854 160.219 519.511 160.872 520.012 161.741C520.788 163.084 520.949 164.437 520.495 165.8C520.045 167.169 519.048 168.3 517.504 169.192L517.385 169.26C516.425 169.815 515.454 170.128 514.474 170.2C513.504 170.274 512.607 170.091 511.785 169.65C510.967 169.215 510.302 168.554 509.79 167.667C509.018 166.331 508.857 164.978 509.307 163.608C509.76 162.245 510.753 161.121 512.285 160.236L512.404 160.168ZM513.182 161.979C512.087 162.611 511.354 163.37 510.982 164.257C510.614 165.15 510.676 166.022 511.167 166.872C511.661 167.729 512.389 168.216 513.349 168.334C514.315 168.449 515.403 168.157 516.613 167.458C517.695 166.833 518.421 166.07 518.792 165.167C519.172 164.267 519.117 163.392 518.626 162.541C518.145 161.709 517.427 161.229 516.469 161.101C515.512 160.974 514.416 161.266 513.182 161.979Z" fill="white" fill-opacity="0.71"/>
<path d="M521.147 181.547L529.785 179.088L530.758 180.774L519.232 183.601L518.443 182.234L524.538 175.519L515.712 177.504L514.923 176.137L523.139 167.578L524.107 169.255L517.84 175.462L526.554 173.493L527.338 174.851L521.147 181.547Z" fill="white" fill-opacity="0.71"/>
<path d="M532.673 184.091L531.464 184.862C532.848 185.068 533.89 185.778 534.592 186.993C535.795 189.077 535.225 190.807 532.882 192.184L526.361 195.949L525.388 194.263L531.918 190.493C532.626 190.076 533.057 189.608 533.212 189.09C533.37 188.577 533.254 187.984 532.865 187.31C532.549 186.763 532.126 186.367 531.596 186.122C531.066 185.878 530.497 185.777 529.889 185.82L522.857 189.88L521.884 188.194L531.752 182.496L532.673 184.091Z" fill="white" fill-opacity="0.71"/>
<path d="M530.981 203.95L539.545 199.006L538.645 197.448L539.95 196.695L540.849 198.253L541.862 197.668C542.92 197.057 543.901 196.868 544.804 197.099C545.708 197.331 546.458 197.963 547.055 198.996C547.279 199.385 547.45 199.8 547.568 200.243L546.147 200.941C546.037 200.624 545.889 200.305 545.703 199.983C545.387 199.436 544.982 199.107 544.488 198.995C544 198.88 543.458 198.994 542.862 199.338L541.823 199.939L543.038 202.044L541.734 202.797L540.518 200.692L531.954 205.636L530.981 203.95Z" fill="white" fill-opacity="0.71"/>
<path d="M539.016 206.262C539.983 205.703 540.961 205.39 541.95 205.321C542.944 205.258 543.845 205.442 544.654 205.874C545.466 206.312 546.123 206.966 546.625 207.835C547.4 209.177 547.561 210.53 547.107 211.894C546.658 213.263 545.661 214.394 544.116 215.285L543.998 215.354C543.037 215.908 542.066 216.222 541.086 216.293C540.116 216.368 539.22 216.184 538.398 215.744C537.579 215.309 536.914 214.648 536.402 213.761C535.63 212.425 535.469 211.072 535.919 209.702C536.372 208.339 537.365 207.215 538.897 206.33L539.016 206.262ZM539.794 208.072C538.699 208.704 537.966 209.464 537.595 210.351C537.226 211.244 537.288 212.115 537.779 212.966C538.274 213.823 539.001 214.31 539.961 214.428C540.927 214.543 542.015 214.251 543.225 213.552C544.307 212.927 545.034 212.163 545.404 211.261C545.785 210.361 545.729 209.486 545.238 208.635C544.758 207.803 544.039 207.323 543.081 207.195C542.124 207.067 541.028 207.36 539.794 208.072Z" fill="white" fill-opacity="0.71"/>
<path d="M548.453 219.744L553.319 219.851L554.455 221.819L547.713 221.41L544.645 227.617L543.519 225.667L545.897 221.256L540.888 221.11L539.757 219.151L546.666 219.597L549.683 213.554L550.809 215.504L548.453 219.744Z" fill="white" fill-opacity="0.71"/>
<path d="M559.169 229.984L548.161 236.34C546.264 237.435 544.819 237.123 543.826 235.404C543.612 235.034 543.469 234.659 543.396 234.28L544.746 233.5C544.809 233.723 544.932 233.992 545.115 234.308C545.332 234.685 545.6 234.91 545.919 234.985C546.236 235.07 546.646 234.967 547.151 234.675L558.196 228.298L559.169 229.984ZM560.714 226.614C560.981 226.46 561.257 226.41 561.54 226.465C561.833 226.523 562.072 226.713 562.258 227.035C562.447 227.363 562.497 227.666 562.407 227.945C562.316 228.224 562.134 228.443 561.861 228.601C561.587 228.759 561.31 228.805 561.029 228.74C560.749 228.676 560.514 228.479 560.324 228.151C560.135 227.823 560.084 227.524 560.172 227.255C560.259 226.986 560.44 226.772 560.714 226.614Z" fill="white" fill-opacity="0.71"/>
<path d="M555.365 243.931C554.214 243.721 553.272 242.98 552.538 241.711C551.932 240.66 551.773 239.682 552.062 238.778C552.36 237.877 553.106 237.077 554.301 236.38L560.722 232.673L561.695 234.359L555.32 238.039C553.824 238.903 553.427 239.942 554.128 241.157C554.872 242.445 555.847 243.025 557.053 242.895L564.231 238.751L565.204 240.437L555.336 246.135L554.41 244.531L555.365 243.931Z" fill="white" fill-opacity="0.71"/>
<path d="M567.604 244.593L566.535 245.27C567.804 245.501 568.793 246.231 569.501 247.458C570.297 248.837 570.31 250.081 569.54 251.19C570.204 251.244 570.832 251.449 571.426 251.803C572.023 252.163 572.528 252.701 572.942 253.418C574.191 255.581 573.68 257.342 571.408 258.702L564.796 262.52L563.822 260.834L570.335 257.074C571.04 256.667 571.473 256.202 571.634 255.68C571.8 255.155 571.665 254.512 571.226 253.753C570.865 253.127 570.376 252.716 569.761 252.521C569.151 252.322 568.511 252.371 567.84 252.67L561.292 256.451L560.313 254.756L566.78 251.022C568.215 250.194 568.527 249.078 567.717 247.674C567.078 246.569 566.17 246.084 564.993 246.221L557.788 250.381L556.814 248.695L566.683 242.998L567.604 244.593Z" fill="white" fill-opacity="0.71"/>
<path d="M575.903 270.615C574.401 271.482 572.993 271.838 571.678 271.681C570.364 271.525 569.368 270.86 568.691 269.688C568 268.491 567.836 267.33 568.2 266.204L563.448 268.948L562.475 267.262L576.138 259.374L577.027 260.914L575.98 261.628C577.227 261.823 578.203 262.531 578.909 263.752C579.592 264.937 579.686 266.13 579.188 267.333C578.694 268.542 577.651 269.606 576.058 270.526L575.903 270.615ZM575.121 268.819C576.234 268.176 576.975 267.432 577.346 266.586C577.717 265.74 577.664 264.904 577.187 264.078C576.598 263.057 575.703 262.553 574.502 262.566L569.787 265.288C569.178 266.312 569.174 267.343 569.774 268.382C570.24 269.19 570.929 269.647 571.841 269.752C572.763 269.86 573.856 269.549 575.121 268.819Z" fill="white" fill-opacity="0.71"/>
<path d="M387.598 4.5472L381.161 8.26334L379.918 6.11126L396.36 -3.38121L399.835 2.63791C400.866 4.42384 401.214 6.08633 400.878 7.62538C400.546 9.1719 399.624 10.382 398.11 11.2556C396.514 12.177 394.997 12.3907 393.557 11.8967C392.13 11.4058 390.883 10.2375 389.817 8.39181L387.598 4.5472ZM389.37 3.52362L391.603 7.39066C392.267 8.54143 393.048 9.26672 393.943 9.56652C394.847 9.86199 395.814 9.712 396.845 9.11654C397.824 8.55151 398.43 7.79311 398.663 6.84135C398.897 5.88959 398.716 4.8729 398.122 3.79129L395.818 -0.199039L389.37 3.52362Z" fill="white" fill-opacity="0.71"/>
<path d="M389.148 19.5683C389.51 19.3597 389.871 19.2904 390.233 19.3606C390.599 19.4382 390.905 19.69 391.151 20.1159C391.397 20.5419 391.462 20.9327 391.346 21.2885C391.235 21.6518 390.998 21.9377 390.637 22.1463C390.29 22.3463 389.936 22.4015 389.573 22.3121C389.215 22.2301 388.912 21.9762 388.667 21.5502C388.421 21.1243 388.352 20.7356 388.46 20.3842C388.573 20.0402 388.802 19.7682 389.148 19.5683ZM399.126 13.8228C399.487 13.6141 399.849 13.5449 400.21 13.615C400.576 13.6927 400.882 13.9444 401.128 14.3704C401.374 14.7963 401.439 15.1872 401.323 15.5429C401.212 15.9062 400.976 16.1922 400.614 16.4008C400.268 16.6007 399.913 16.656 399.551 16.5665C399.192 16.4846 398.89 16.2306 398.644 15.8047C398.398 15.3787 398.329 14.99 398.438 14.6386C398.55 14.2946 398.78 14.0227 399.126 13.8228Z" fill="white" fill-opacity="0.71"/>
<path d="M418.973 39.906L415.944 34.6603L401.287 43.1227L400.051 40.9818L414.708 32.5194L411.686 27.2849L413.47 26.2548L420.757 38.8759L418.973 39.906Z" fill="white" fill-opacity="0.71"/>
<path d="M417.462 46.338C419.129 46.6008 420.388 47.4683 421.238 48.9403C422.718 51.5034 422.007 53.6372 419.107 55.3416L411.033 60.0031L409.836 57.9295L417.921 53.2615C418.797 52.7455 419.332 52.1678 419.525 51.5283C419.722 50.8964 419.581 50.1657 419.103 49.3362C418.714 48.6637 418.193 48.1777 417.538 47.8782C416.883 47.5787 416.18 47.4564 415.429 47.5115L406.723 52.5381L405.526 50.4644L422.871 40.4504L424.068 42.524L417.462 46.338Z" fill="white" fill-opacity="0.71"/>
<path d="M415.505 68.2711C414.556 66.6271 414.326 64.9766 414.815 63.3195C415.311 61.6581 416.47 60.3015 418.292 59.2496L418.676 59.028C419.888 58.3282 421.1 57.9324 422.311 57.8406C423.535 57.7519 424.651 57.9643 425.66 58.4776C426.681 58.9942 427.47 59.7344 428.026 60.6983C428.937 62.2751 429.121 63.8026 428.579 65.2811C428.038 66.7595 426.792 68.0616 424.842 69.1873L423.973 69.6893L419.229 61.4732C418.042 62.1985 417.268 63.1089 416.906 64.2042C416.557 65.3027 416.68 66.3675 417.275 67.3987C417.698 68.131 418.207 68.6643 418.801 68.9986C419.396 69.3329 420.051 69.5471 420.768 69.6414L420.506 71.4817C418.346 71.3738 416.679 70.3036 415.505 68.2711ZM426.31 61.6893C425.827 60.8524 425.113 60.3282 424.167 60.1167C423.23 59.9008 422.169 60.0451 420.984 60.5495L424.492 66.6247L424.65 66.5334C425.677 65.8608 426.334 65.1031 426.62 64.2603C426.914 63.4131 426.81 62.5561 426.31 61.6893Z" fill="white" fill-opacity="0.71"/>
<path d="M429.06 76.8846C430.98 75.7763 432.749 75.3376 434.368 75.5687C435.995 75.7953 437.233 76.6447 438.083 78.1168C438.911 79.5515 439.079 80.964 438.587 82.3541L439.87 81.7331L440.97 83.6386L424.054 93.4049L422.857 91.3313L428.684 87.9672C427.297 87.6519 426.203 86.7992 425.4 85.4093C424.554 83.9447 424.451 82.445 425.091 80.91C425.742 79.3782 427.017 78.0647 428.914 76.9694L429.06 76.8846ZM430.02 79.0952C428.62 79.9036 427.689 80.8296 427.228 81.8732C426.771 82.9242 426.829 83.9466 427.403 84.9405C428.115 86.1735 429.208 86.7977 430.682 86.8132L436.667 83.3579C437.364 82.0788 437.363 80.8339 436.664 79.6234C436.086 78.6221 435.224 78.0588 434.077 77.9335C432.939 77.8039 431.586 78.1911 430.02 79.0952Z" fill="white" fill-opacity="0.71"/>
<path d="M436.205 100.812C434.783 100.557 433.621 99.6482 432.719 98.0865C431.973 96.7937 431.78 95.59 432.14 94.4754C432.512 93.3639 433.437 92.3763 434.916 91.5126L442.866 86.9228L444.063 88.9964L436.17 93.5536C434.318 94.6228 433.823 95.9047 434.686 97.3992C435.601 98.9833 436.804 99.6936 438.295 99.53L447.182 94.3991L448.38 96.4727L436.161 103.527L435.022 101.554L436.205 100.812Z" fill="white" fill-opacity="0.71"/>
<path d="M439.287 108.941L438.09 106.867L450.308 99.8129L451.505 101.887L439.287 108.941ZM453.452 97.7737C453.791 97.5781 454.135 97.5138 454.485 97.5808C454.839 97.6553 455.132 97.8943 455.365 98.2978C455.598 98.7014 455.659 99.0751 455.546 99.4191C455.433 99.763 455.208 100.033 454.869 100.228C454.53 100.424 454.188 100.482 453.841 100.404C453.494 100.325 453.204 100.084 452.971 99.68C452.739 99.2765 452.675 98.9049 452.78 98.5653C452.889 98.2331 453.113 97.9693 453.452 97.7737Z" fill="white" fill-opacity="0.71"/>
<path d="M445.497 116.28C445.924 117.02 446.523 117.536 447.294 117.828C448.065 118.12 448.806 118.101 449.518 117.769L450.651 119.731C449.929 120.098 449.125 120.243 448.238 120.168C447.351 120.092 446.506 119.793 445.702 119.27C444.903 118.755 444.266 118.087 443.792 117.265C442.838 115.613 442.632 113.979 443.174 112.361C443.727 110.746 444.967 109.382 446.895 108.27L447.245 108.068C448.434 107.381 449.617 106.987 450.793 106.886C451.969 106.785 453.046 106.99 454.024 107.501C455.006 108.02 455.817 108.833 456.455 109.939C457.24 111.299 457.482 112.664 457.179 114.034C456.88 115.412 456.093 116.509 454.818 117.325L453.685 115.364C454.441 114.848 454.916 114.175 455.11 113.346C455.315 112.52 455.192 111.714 454.739 110.93C454.13 109.876 453.274 109.279 452.17 109.14C451.077 109.003 449.808 109.352 448.363 110.187L447.968 110.415C446.56 111.228 445.642 112.141 445.214 113.156C444.786 114.17 444.88 115.212 445.497 116.28Z" fill="white" fill-opacity="0.71"/>
<path d="M455.758 124.404L453.641 123.893L449.35 126.37L448.153 124.297L465.498 114.283L466.695 116.356L456.204 122.413L458.189 122.747L464.39 124.203L465.846 126.725L458.017 124.953L453.945 134.329L452.54 131.896L455.758 124.404Z" fill="white" fill-opacity="0.71"/>
<path d="M470.053 148.433C468.186 149.511 466.438 149.952 464.809 149.756C463.188 149.556 461.964 148.739 461.135 147.304C460.251 145.772 460.113 144.273 460.721 142.806L459.251 143.52L458.151 141.614L475.496 131.6L476.693 133.674L470.223 137.41C471.752 137.642 472.942 138.495 473.792 139.967C474.642 141.439 474.748 142.917 474.109 144.402C473.475 145.894 472.183 147.203 470.233 148.328L470.053 148.433ZM469.092 146.222C470.515 145.401 471.457 144.493 471.917 143.5C472.378 142.507 472.313 141.499 471.721 140.475C470.932 139.107 469.725 138.494 468.1 138.635L462.815 141.686C461.902 143.06 461.834 144.42 462.61 145.765C463.184 146.759 464.018 147.309 465.113 147.414C466.208 147.519 467.534 147.122 469.092 146.222Z" fill="white" fill-opacity="0.71"/>
<path d="M479.321 154.395C479.193 154.05 479.023 153.695 478.812 153.329C478.026 151.969 476.91 151.383 475.463 151.571L466.79 156.578L465.593 154.504L477.811 147.45L478.976 149.468L477.584 150.316C479.068 150.366 480.171 151.015 480.891 152.263C481.124 152.666 481.248 153.003 481.264 153.273L479.321 154.395Z" fill="white" fill-opacity="0.71"/>
<path d="M475.86 157.918C477.057 157.227 478.267 156.837 479.491 156.748C480.719 156.667 481.832 156.891 482.83 157.421C483.833 157.958 484.642 158.76 485.259 159.829C486.213 161.48 486.407 163.147 485.842 164.828C485.281 166.517 484.045 167.913 482.133 169.017L481.986 169.102C480.796 169.788 479.596 170.178 478.384 170.27C477.184 170.365 476.077 170.142 475.063 169.602C474.052 169.069 473.232 168.257 472.602 167.166C471.653 165.522 471.459 163.856 472.02 162.167C472.585 160.486 473.816 159.098 475.713 158.002L475.86 157.918ZM476.815 160.146C475.46 160.928 474.551 161.866 474.089 162.96C473.631 164.062 473.704 165.136 474.308 166.182C474.916 167.235 475.813 167.833 476.999 167.975C478.193 168.113 479.539 167.75 481.037 166.885C482.377 166.111 483.278 165.168 483.739 164.054C484.212 162.944 484.147 161.866 483.543 160.82C482.952 159.796 482.065 159.207 480.882 159.053C479.699 158.899 478.343 159.264 476.815 160.146Z" fill="white" fill-opacity="0.71"/>
<path d="M486.593 184.227L497.277 181.166L498.475 183.24L484.218 186.763L483.247 185.082L490.805 176.788L479.889 179.265L478.918 177.583L489.104 167.01L490.295 169.072L482.526 176.74L493.304 174.284L494.268 175.954L486.593 184.227Z" fill="white" fill-opacity="0.71"/>
<path d="M500.83 187.32L499.333 188.274C501.043 188.522 502.329 189.394 503.192 190.888C504.671 193.452 503.961 195.585 501.061 197.29L492.987 201.951L491.79 199.878L499.875 195.21C500.751 194.694 501.286 194.116 501.479 193.476C501.676 192.844 501.535 192.114 501.056 191.284C500.668 190.612 500.147 190.126 499.492 189.826C498.837 189.527 498.134 189.405 497.383 189.46L488.677 194.486L487.48 192.413L499.698 185.358L500.83 187.32Z" fill="white" fill-opacity="0.71"/>
<path d="M498.669 211.793L509.272 205.671L508.165 203.754L509.78 202.822L510.887 204.738L512.14 204.015C513.45 203.258 514.663 203.021 515.78 203.303C516.896 203.585 517.821 204.362 518.554 205.632C518.83 206.11 519.04 206.622 519.184 207.166L517.426 208.032C517.291 207.642 517.109 207.249 516.88 206.853C516.492 206.18 515.993 205.776 515.382 205.64C514.779 205.5 514.109 205.643 513.371 206.069L512.084 206.812L513.579 209.401L511.964 210.334L510.469 207.744L499.866 213.866L498.669 211.793Z" fill="white" fill-opacity="0.71"/>
<path d="M508.592 214.612C509.789 213.921 510.999 213.531 512.223 213.442C513.451 213.361 514.564 213.585 515.562 214.115C516.565 214.652 517.375 215.454 517.992 216.523C518.945 218.174 519.139 219.841 518.574 221.522C518.014 223.211 516.777 224.607 514.865 225.711L514.718 225.796C513.529 226.483 512.328 226.872 511.116 226.964C509.917 227.059 508.809 226.836 507.795 226.296C506.785 225.763 505.965 224.951 505.335 223.86C504.386 222.216 504.191 220.55 504.752 218.861C505.317 217.18 506.548 215.792 508.445 214.696L508.592 214.612ZM509.547 216.84C508.192 217.622 507.284 218.56 506.821 219.654C506.363 220.756 506.436 221.83 507.04 222.876C507.648 223.929 508.545 224.527 509.732 224.669C510.925 224.807 512.271 224.444 513.769 223.579C515.109 222.805 516.01 221.862 516.471 220.748C516.945 219.638 516.879 218.56 516.275 217.514C515.684 216.49 514.797 215.901 513.614 215.747C512.431 215.593 511.076 215.958 509.547 216.84Z" fill="white" fill-opacity="0.71"/>
<path d="M520.21 231.188L526.224 231.303L527.622 233.724L519.29 233.244L515.475 240.902L514.09 238.503L517.045 233.06L510.854 232.899L509.463 230.489L518.002 231.014L521.752 223.558L523.137 225.957L520.21 231.188Z" fill="white" fill-opacity="0.71"/>
<path d="M533.42 243.767L519.79 251.637C517.442 252.993 515.657 252.613 514.436 250.499C514.173 250.043 513.997 249.581 513.908 249.115L515.579 248.15C515.657 248.424 515.808 248.755 516.032 249.143C516.3 249.607 516.631 249.884 517.025 249.975C517.415 250.079 517.923 249.95 518.548 249.589L532.223 241.694L533.42 243.767ZM535.341 239.61C535.672 239.418 536.013 239.356 536.362 239.423C536.724 239.494 537.019 239.727 537.248 240.123C537.481 240.526 537.541 240.9 537.429 241.244C537.316 241.588 537.09 241.858 536.752 242.053C536.413 242.249 536.07 242.307 535.724 242.228C535.377 242.149 535.087 241.908 534.854 241.505C534.621 241.101 534.559 240.733 534.669 240.401C534.778 240.069 535.002 239.805 535.341 239.61Z" fill="white" fill-opacity="0.71"/>
<path d="M528.668 260.963C527.246 260.708 526.084 259.799 525.183 258.238C524.436 256.945 524.243 255.741 524.603 254.627C524.975 253.515 525.901 252.527 527.38 251.664L535.329 247.074L536.526 249.148L528.633 253.705C526.781 254.774 526.287 256.056 527.15 257.55C528.064 259.135 529.267 259.845 530.759 259.681L539.646 254.55L540.843 256.624L528.625 263.678L527.486 261.705L528.668 260.963Z" fill="white" fill-opacity="0.71"/>
<path d="M543.794 261.735L542.471 262.573C544.038 262.854 545.258 263.749 546.129 265.259C547.109 266.955 547.12 268.488 546.164 269.857C546.984 269.921 547.761 270.17 548.493 270.604C549.23 271.046 549.853 271.708 550.362 272.589C551.898 275.25 551.259 277.421 548.447 279.105L540.26 283.831L539.063 281.758L547.126 277.103C547.999 276.599 548.536 276.025 548.736 275.381C548.944 274.733 548.779 273.942 548.239 273.008C547.795 272.238 547.193 271.734 546.433 271.495C545.68 271.252 544.888 271.316 544.058 271.685L535.95 276.366L534.747 274.282L542.753 269.659C544.529 268.633 544.919 267.257 543.923 265.531C543.138 264.171 542.017 263.578 540.561 263.751L531.64 268.901L530.443 266.828L542.661 259.774L543.794 261.735Z" fill="white" fill-opacity="0.71"/>
<path d="M553.961 293.766C552.101 294.839 550.359 295.282 548.735 295.094C547.111 294.906 545.882 294.091 545.05 292.649C544.2 291.177 544.002 289.747 544.455 288.359L538.572 291.756L537.375 289.682L554.29 279.916L555.384 281.81L554.087 282.693C555.629 282.929 556.833 283.798 557.7 285.3C558.541 286.757 558.653 288.227 558.033 289.711C557.419 291.202 556.125 292.516 554.153 293.655L553.961 293.766ZM553.001 291.555C554.378 290.76 555.298 289.841 555.759 288.797C556.221 287.753 556.158 286.723 555.571 285.707C554.847 284.452 553.742 283.834 552.258 283.854L546.42 287.225C545.664 288.488 545.655 289.759 546.393 291.036C546.966 292.03 547.817 292.591 548.944 292.717C550.082 292.847 551.435 292.459 553.001 291.555Z" fill="white" fill-opacity="0.71"/>
<path d="M556.832 305.05C557.397 304.724 557.711 304.259 557.773 303.655C557.848 303.054 557.694 302.162 557.311 300.978C556.933 299.801 556.723 298.812 556.681 298.009C556.644 297.213 556.757 296.54 557.021 295.989C557.289 295.446 557.725 295 558.327 294.652C559.328 294.074 560.417 294.004 561.593 294.441C562.773 294.886 563.74 295.762 564.495 297.069C565.289 298.444 565.574 299.764 565.351 301.029C565.132 302.301 564.465 303.259 563.351 303.902L562.147 301.817C562.72 301.487 563.072 300.959 563.206 300.235C563.344 299.517 563.202 298.793 562.779 298.06C562.343 297.306 561.837 296.811 561.259 296.576C560.682 296.341 560.126 296.378 559.592 296.687C559.088 296.978 558.822 297.396 558.794 297.94C558.767 298.483 558.934 299.338 559.296 300.504C559.663 301.678 559.87 302.679 559.917 303.509C559.964 304.338 559.847 305.039 559.564 305.61C559.294 306.185 558.831 306.661 558.176 307.039C557.085 307.67 555.957 307.742 554.794 307.258C553.639 306.769 552.662 305.834 551.864 304.452C551.303 303.48 550.98 302.521 550.895 301.574C550.81 300.626 550.953 299.762 551.325 298.979C551.708 298.2 552.261 297.602 552.983 297.185L554.181 299.258C553.502 299.7 553.105 300.298 552.988 301.053C552.884 301.81 553.077 302.615 553.569 303.467C554.022 304.252 554.543 304.788 555.131 305.076C555.731 305.368 556.298 305.359 556.832 305.05Z" fill="white" fill-opacity="0.71"/>
<path d="M565.541 313.249C566.738 312.558 567.948 312.168 569.171 312.079C570.399 311.998 571.512 312.222 572.511 312.752C573.513 313.289 574.323 314.092 574.94 315.16C575.893 316.812 576.088 318.478 575.523 320.159C574.962 321.848 573.725 323.244 571.813 324.348L571.666 324.433C570.477 325.12 569.276 325.509 568.065 325.601C566.865 325.696 565.758 325.473 564.743 324.933C563.733 324.4 562.913 323.589 562.283 322.498C561.334 320.854 561.14 319.187 561.701 317.499C562.266 315.817 563.497 314.429 565.394 313.334L565.541 313.249ZM566.496 315.477C565.141 316.26 564.232 317.198 563.769 318.292C563.311 319.393 563.384 320.467 563.988 321.513C564.597 322.567 565.494 323.165 566.68 323.307C567.874 323.445 569.22 323.081 570.718 322.216C572.058 321.442 572.958 320.499 573.42 319.386C573.893 318.276 573.828 317.197 573.224 316.151C572.633 315.128 571.746 314.539 570.563 314.385C569.38 314.231 568.024 314.595 566.496 315.477Z" fill="white" fill-opacity="0.71"/>
<path d="M356.346 40.6524L354.783 37.9448L364.136 32.5446L358.191 22.2472L348.837 27.6474L347.282 24.9538L367.518 13.2707L369.073 15.9643L360.373 20.9874L366.318 31.2848L375.018 26.2617L376.581 28.9694L356.346 40.6524Z" fill="white" fill-opacity="0.71"/>
<path d="M369.553 40.0978L380.243 35.3105L386.285 45.7763L383.908 47.1484L379.138 38.8852L373.264 41.4535C374.425 42.1172 375.373 43.0851 376.108 44.3571C377.182 46.2183 377.424 48.0491 376.832 49.8494C376.251 51.6445 374.922 53.1411 372.846 54.3394C370.762 55.543 368.788 55.922 366.924 55.4764C365.076 55.0348 363.563 53.7945 362.386 51.7556C361.344 49.9505 360.989 48.1913 361.321 46.4779C361.654 44.7644 362.65 43.3227 364.309 42.1527L365.727 44.6078C364.66 45.4355 364.025 46.3572 363.821 47.3729C363.626 48.3833 363.847 49.4403 364.484 50.544C365.181 51.7505 366.134 52.4597 367.343 52.6718C368.558 52.8931 369.884 52.5892 371.32 51.7601C372.673 50.979 373.541 49.9791 373.924 48.7601C374.322 47.5451 374.165 46.3204 373.452 45.0858C372.799 43.9541 372.04 43.2074 371.177 42.8455L370.224 42.4791L369.553 40.0978Z" fill="white" fill-opacity="0.71"/>
<path d="M369.487 60.3005C369.932 60.0437 370.378 59.9607 370.826 60.0514C371.279 60.1514 371.659 60.468 371.967 61.0011C372.275 61.5342 372.359 62.022 372.219 62.4644C372.084 62.9162 371.795 63.2704 371.35 63.5272C370.924 63.7733 370.486 63.8389 370.037 63.7242C369.593 63.6188 369.217 63.2995 368.91 62.7664C368.602 62.2333 368.513 61.7482 368.644 61.3112C368.78 60.8835 369.061 60.5466 369.487 60.3005ZM381.767 53.2293C382.212 52.9725 382.658 52.8895 383.106 52.9802C383.559 53.0802 383.939 53.3968 384.247 53.9299C384.555 54.463 384.639 54.9508 384.499 55.3932C384.365 55.845 384.075 56.1992 383.63 56.456C383.204 56.702 382.766 56.7677 382.317 56.653C381.873 56.5476 381.497 56.2283 381.19 55.6952C380.882 55.1621 380.793 54.677 380.924 54.2399C381.06 53.8122 381.341 53.4753 381.767 53.2293Z" fill="white" fill-opacity="0.71"/>
<path d="M406.533 85.9188L402.743 79.3532L384.703 89.7684L383.156 87.0889L401.196 76.6736L397.413 70.122L399.609 68.8542L408.729 84.651L406.533 85.9188Z" fill="white" fill-opacity="0.71"/>
<path d="M404.724 93.922C406.787 94.2647 408.351 95.3572 409.414 97.1997C411.267 100.408 410.408 103.061 406.838 105.159L396.901 110.896L395.403 108.301L405.354 102.556C406.432 101.92 407.088 101.205 407.321 100.41C407.559 99.6241 407.378 98.712 406.779 97.6739C406.293 96.8321 405.644 96.2216 404.832 95.8424C404.02 95.4632 403.15 95.3045 402.222 95.3664L391.507 101.553L390.008 98.9575L411.356 86.6326L412.854 89.228L404.724 93.922Z" fill="white" fill-opacity="0.71"/>
<path d="M402.504 121.242C401.316 119.184 401.016 117.125 401.605 115.064C402.204 112.998 403.624 111.317 405.866 110.023L406.339 109.75C407.83 108.889 409.325 108.406 410.821 108.303C412.333 108.203 413.715 108.478 414.966 109.127C416.233 109.78 417.214 110.71 417.911 111.916C419.05 113.89 419.292 115.795 418.636 117.633C417.98 119.471 416.452 121.083 414.052 122.468L412.982 123.086L407.045 112.803C405.584 113.696 404.635 114.824 404.199 116.186C403.776 117.552 403.938 118.88 404.683 120.171C405.212 121.087 405.846 121.756 406.584 122.178C407.322 122.601 408.134 122.873 409.021 122.997L408.713 125.289C406.042 125.135 403.972 123.786 402.504 121.242ZM415.798 113.136C415.194 112.088 414.306 111.429 413.136 111.156C411.975 110.879 410.665 111.049 409.206 111.667L413.596 119.271L413.791 119.159C415.054 118.33 415.859 117.391 416.205 116.343C416.56 115.29 416.425 114.221 415.798 113.136Z" fill="white" fill-opacity="0.71"/>
<path d="M419.335 132.1C421.698 130.736 423.881 130.205 425.884 130.508C427.896 130.805 429.434 131.875 430.498 133.718C431.535 135.513 431.755 137.275 431.159 139.004L432.739 138.241L434.116 140.626L413.297 152.646L411.798 150.051L418.97 145.91C417.253 145.505 415.892 144.432 414.888 142.693C413.83 140.859 413.689 138.989 414.465 137.082C415.257 135.178 416.82 133.553 419.155 132.205L419.335 132.1ZM420.542 134.864C418.818 135.859 417.676 137.005 417.115 138.302C416.56 139.607 416.641 140.882 417.359 142.126C418.25 143.669 419.607 144.457 421.43 144.49L428.796 140.237C429.645 138.649 429.633 137.098 428.758 135.583C428.034 134.329 426.964 133.619 425.546 133.453C424.137 133.281 422.469 133.752 420.542 134.864Z" fill="white" fill-opacity="0.71"/>
<path d="M428.382 161.988C426.622 161.657 425.177 160.514 424.049 158.559C423.115 156.941 422.865 155.439 423.3 154.053C423.75 152.671 424.885 151.449 426.705 150.386L436.489 144.737L437.988 147.332L428.273 152.941C425.994 154.257 425.394 155.85 426.474 157.721C427.619 159.703 429.112 160.6 430.954 160.409L441.892 154.094L443.39 156.689L428.352 165.372L426.927 162.902L428.382 161.988Z" fill="white" fill-opacity="0.71"/>
<path d="M432.265 172.148L430.766 169.552L445.804 160.87L447.302 163.466L432.265 172.148ZM449.671 158.357C450.088 158.116 450.513 158.039 450.946 158.126C451.385 158.222 451.75 158.522 452.041 159.027C452.333 159.532 452.41 159.999 452.274 160.427C452.138 160.854 451.862 161.188 451.445 161.429C451.028 161.67 450.605 161.74 450.176 161.638C449.747 161.537 449.386 161.234 449.095 160.729C448.803 160.223 448.721 159.76 448.847 159.337C448.98 158.924 449.254 158.598 449.671 158.357Z" fill="white" fill-opacity="0.71"/>
<path d="M440.006 181.352C440.541 182.278 441.286 182.926 442.241 183.297C443.197 183.668 444.113 183.651 444.99 183.244L446.408 185.699C445.519 186.15 444.526 186.324 443.429 186.222C442.332 186.119 441.285 185.739 440.287 185.08C439.295 184.431 438.502 183.592 437.908 182.563C436.714 180.496 436.445 178.457 437.099 176.446C437.769 174.438 439.289 172.749 441.661 171.38L442.092 171.131C443.556 170.286 445.014 169.806 446.467 169.69C447.92 169.575 449.253 169.84 450.466 170.486C451.685 171.142 452.694 172.162 453.493 173.546C454.476 175.249 454.786 176.952 454.424 178.658C454.068 180.373 453.105 181.733 451.536 182.738L450.119 180.283C451.048 179.647 451.629 178.813 451.861 177.781C452.108 176.753 451.948 175.748 451.381 174.766C450.619 173.447 449.555 172.696 448.189 172.512C446.838 172.332 445.272 172.756 443.493 173.783L443.007 174.064C441.274 175.064 440.148 176.194 439.628 177.455C439.108 178.715 439.234 180.014 440.006 181.352Z" fill="white" fill-opacity="0.71"/>
<path d="M452.762 191.57L450.141 190.914L444.86 193.963L443.361 191.368L464.709 179.043L466.207 181.638L453.296 189.092L455.752 189.526L463.429 191.398L465.251 194.554L455.559 192.275L450.611 203.924L448.853 200.879L452.762 191.57Z" fill="white" fill-opacity="0.71"/>
<path d="M470.647 221.649C468.349 222.975 466.193 223.509 464.178 223.251C462.173 222.987 460.652 221.957 459.615 220.161C458.508 218.244 458.324 216.374 459.062 214.551L457.252 215.428L455.875 213.043L477.223 200.718L478.721 203.313L470.758 207.911C472.65 208.215 474.129 209.288 475.192 211.13C476.256 212.973 476.4 214.816 475.624 216.661C474.854 218.515 473.269 220.135 470.869 221.52L470.647 221.649ZM469.44 218.885C471.191 217.874 472.347 216.751 472.907 215.517C473.467 214.284 473.377 213.026 472.638 211.745C471.65 210.033 470.152 209.258 468.145 209.419L461.641 213.175C460.524 214.879 460.452 216.573 461.424 218.256C462.142 219.5 463.178 220.193 464.532 220.334C465.886 220.475 467.522 219.992 469.44 218.885Z" fill="white" fill-opacity="0.71"/>
<path d="M482.157 229.163C481.995 228.733 481.782 228.289 481.517 227.83C480.534 226.128 479.149 225.388 477.362 225.609L466.688 231.771L465.19 229.176L480.228 220.494L481.686 223.019L479.973 224.064C481.808 224.14 483.176 224.958 484.078 226.52C484.369 227.025 484.526 227.446 484.547 227.783L482.157 229.163Z" fill="white" fill-opacity="0.71"/>
<path d="M477.91 233.523C479.383 232.672 480.876 232.197 482.387 232.098C483.904 232.008 485.282 232.297 486.521 232.966C487.765 233.645 488.773 234.653 489.545 235.99C490.738 238.057 490.993 240.136 490.31 242.226C489.632 244.326 488.117 246.055 485.763 247.414L485.583 247.518C484.119 248.363 482.638 248.838 481.142 248.941C479.659 249.049 478.289 248.761 477.03 248.079C475.777 247.406 474.756 246.387 473.968 245.021C472.78 242.964 472.525 240.885 473.202 238.785C473.886 236.695 475.395 234.975 477.73 233.627L477.91 233.523ZM479.111 236.309C477.443 237.272 476.328 238.433 475.767 239.792C475.21 241.161 475.31 242.5 476.066 243.809C476.828 245.128 477.942 245.882 479.409 246.069C480.886 246.252 482.546 245.811 484.39 244.746C486.039 243.794 487.144 242.626 487.704 241.243C488.279 239.863 488.188 238.519 487.432 237.21C486.693 235.928 485.591 235.186 484.128 234.984C482.664 234.781 480.992 235.223 479.111 236.309Z" fill="white" fill-opacity="0.71"/>
<path d="M491.413 266.411L504.592 262.694L506.09 265.289L488.501 269.552L487.286 267.448L496.552 257.178L483.082 260.166L481.867 258.062L494.362 244.975L495.852 247.556L486.32 257.044L499.618 254.08L500.825 256.17L491.413 266.411Z" fill="white" fill-opacity="0.71"/>
<path d="M509.038 270.396L507.197 271.571C509.312 271.896 510.909 272.994 511.989 274.865C513.841 278.073 512.983 280.726 509.413 282.824L499.476 288.561L497.978 285.966L507.929 280.221C509.007 279.586 509.663 278.87 509.896 278.075C510.134 277.289 509.953 276.377 509.354 275.339C508.868 274.497 508.219 273.887 507.407 273.508C506.595 273.128 505.725 272.97 504.797 273.031L494.082 279.218L492.583 276.623L507.621 267.941L509.038 270.396Z" fill="white" fill-opacity="0.71"/>
<path d="M506.588 300.879L519.638 293.344L518.253 290.945L520.24 289.798L521.625 292.197L523.168 291.306C524.78 290.376 526.278 290.091 527.66 290.453C529.042 290.814 530.193 291.79 531.111 293.38C531.456 293.978 531.72 294.618 531.903 295.298L529.737 296.361C529.567 295.874 529.339 295.382 529.052 294.886C528.566 294.044 527.946 293.536 527.19 293.361C526.443 293.181 525.616 293.353 524.708 293.878L523.124 294.792L524.995 298.033L523.008 299.181L521.136 295.94L508.086 303.474L506.588 300.879Z" fill="white" fill-opacity="0.71"/>
<path d="M518.879 304.482C520.352 303.632 521.844 303.157 523.356 303.057C524.873 302.967 526.25 303.257 527.489 303.926C528.733 304.604 529.741 305.612 530.513 306.949C531.707 309.016 531.962 311.095 531.279 313.186C530.601 315.285 529.085 317.015 526.732 318.373L526.551 318.478C525.087 319.323 523.607 319.797 522.11 319.901C520.628 320.008 519.257 319.721 517.999 319.038C516.745 318.365 515.724 317.346 514.936 315.981C513.748 313.923 513.493 311.844 514.171 309.744C514.854 307.654 516.363 305.935 518.698 304.587L518.879 304.482ZM520.079 307.268C518.412 308.231 517.297 309.392 516.735 310.752C516.179 312.12 516.279 313.46 517.035 314.769C517.796 316.088 518.91 316.841 520.378 317.029C521.854 317.211 523.515 316.77 525.358 315.706C527.008 314.754 528.112 313.586 528.673 312.202C529.247 310.823 529.157 309.479 528.401 308.169C527.661 306.888 526.56 306.146 525.096 305.943C523.632 305.741 521.96 306.182 520.079 307.268Z" fill="white" fill-opacity="0.71"/>
<path d="M533.388 325.249L540.822 325.446L542.571 328.476L532.269 327.803L527.623 337.313L525.889 334.31L529.493 327.553L521.84 327.296L520.098 324.28L530.657 325.011L535.225 315.752L536.958 318.754L533.388 325.249Z" fill="white" fill-opacity="0.71"/>
<path d="M549.829 341.046L533.054 350.732C530.163 352.401 527.953 351.912 526.425 349.265C526.096 348.694 525.874 348.118 525.76 347.535L527.817 346.347C527.916 346.69 528.106 347.104 528.386 347.59C528.721 348.17 529.132 348.519 529.62 348.636C530.104 348.768 530.731 348.612 531.5 348.168L548.33 338.451L549.829 341.046ZM552.165 335.882C552.573 335.646 552.993 335.572 553.426 335.659C553.874 335.749 554.241 336.042 554.527 336.538C554.819 337.043 554.896 337.51 554.76 337.937C554.624 338.365 554.348 338.699 553.931 338.94C553.514 339.181 553.091 339.25 552.662 339.149C552.233 339.048 551.872 338.744 551.581 338.239C551.289 337.734 551.209 337.275 551.341 336.862C551.474 336.449 551.748 336.122 552.165 335.882Z" fill="white" fill-opacity="0.71"/>
<path d="M544.111 362.436C542.351 362.105 540.906 360.963 539.778 359.008C538.844 357.39 538.594 355.888 539.029 354.502C539.479 353.12 540.614 351.897 542.434 350.834L552.218 345.185L553.717 347.78L544.002 353.389C541.723 354.705 541.123 356.298 542.203 358.169C543.348 360.152 544.841 361.048 546.683 360.857L557.621 354.542L559.119 357.138L544.081 365.82L542.656 363.351L544.111 362.436Z" fill="white" fill-opacity="0.71"/>
<path d="M315.597 70.5664L313.643 67.1819L325.335 60.4317L317.903 47.5599L306.211 54.3102L304.267 50.9432L329.562 36.3394L331.506 39.7064L320.63 45.9852L328.062 58.8569L338.937 52.5781L340.891 55.9626L315.597 70.5664Z" fill="white" fill-opacity="0.71"/>
<path d="M334.966 84.4959L337.011 88.0382L334.388 89.5528L332.343 86.0104L326.471 89.4006L324.587 86.1388L330.459 82.7486L323.747 71.122L325.64 70.0287L349.771 71.3421L351.765 74.7968L334.966 84.4959ZM328.496 73.2901L333.083 81.2341L345.487 74.0726L344.569 74.088L328.496 73.2901Z" fill="white" fill-opacity="0.71"/>
<path d="M332.023 95.1266C332.579 94.8056 333.137 94.7018 333.697 94.8152C334.263 94.9402 334.739 95.336 335.123 96.0023C335.508 96.6687 335.613 97.2784 335.438 97.8315C335.27 98.3962 334.908 98.839 334.352 99.1599C333.819 99.4675 333.272 99.5496 332.711 99.4062C332.156 99.2744 331.686 98.8754 331.301 98.209C330.917 97.5426 330.806 96.9362 330.969 96.3899C331.139 95.8553 331.491 95.4342 332.023 95.1266ZM347.374 86.2876C347.93 85.9666 348.487 85.8628 349.047 85.9762C349.613 86.1012 350.089 86.4969 350.474 87.1633C350.858 87.8297 350.963 88.4394 350.788 88.9924C350.62 89.5571 350.258 90 349.702 90.3209C349.17 90.6285 348.622 90.7106 348.061 90.5672C347.506 90.4354 347.036 90.0363 346.652 89.3699C346.267 88.7036 346.156 88.0972 346.319 87.5509C346.489 87.0163 346.841 86.5951 347.374 86.2876Z" fill="white" fill-opacity="0.71"/>
<path d="M378.331 127.149L373.593 118.942L351.043 131.961L349.109 128.612L371.659 115.593L366.931 107.403L369.676 105.819L381.076 125.565L378.331 127.149Z" fill="white" fill-opacity="0.71"/>
<path d="M376.069 137.153C378.648 137.582 380.603 138.947 381.932 141.251C384.248 145.261 383.174 148.577 378.712 151.2L366.291 158.371L364.418 155.127L376.857 147.946C378.205 147.152 379.025 146.257 379.315 145.263C379.613 144.281 379.387 143.141 378.638 141.843C378.03 140.791 377.219 140.028 376.204 139.554C375.189 139.08 374.102 138.882 372.942 138.959L359.548 146.692L357.675 143.448L384.359 128.042L386.232 131.286L376.069 137.153Z" fill="white" fill-opacity="0.71"/>
<path d="M373.294 171.303C371.809 168.731 371.435 166.157 372.171 163.581C372.919 160.998 374.694 158.898 377.497 157.279L378.088 156.938C379.952 155.862 381.82 155.259 383.691 155.129C385.581 155.005 387.308 155.348 388.872 156.16C390.456 156.976 391.683 158.138 392.553 159.646C393.977 162.113 394.279 164.495 393.459 166.792C392.639 169.09 390.729 171.104 387.73 172.836L386.392 173.609L378.971 160.754C377.144 161.871 375.958 163.28 375.413 164.983C374.885 166.69 375.087 168.351 376.019 169.964C376.68 171.11 377.472 171.947 378.394 172.474C379.316 173.002 380.332 173.343 381.44 173.498L381.056 176.362C377.717 176.17 375.13 174.483 373.294 171.303ZM389.913 161.171C389.157 159.862 388.047 159.037 386.585 158.697C385.133 158.35 383.496 158.562 381.672 159.335L387.16 168.84L387.403 168.699C388.982 167.663 389.988 166.49 390.42 165.18C390.865 163.863 390.696 162.527 389.913 161.171Z" fill="white" fill-opacity="0.71"/>
<path d="M394.334 184.876C397.287 183.171 400.015 182.508 402.519 182.886C405.035 183.257 406.957 184.595 408.287 186.898C409.583 189.143 409.858 191.345 409.114 193.505L411.088 192.552L412.809 195.534L386.785 210.559L384.912 207.314L393.876 202.139C391.731 201.632 390.03 200.291 388.775 198.117C387.452 195.825 387.276 193.487 388.246 191.103C389.235 188.724 391.189 186.692 394.108 185.007L394.334 184.876ZM395.842 188.331C393.688 189.575 392.26 191.007 391.559 192.628C390.864 194.26 390.966 195.854 391.864 197.409C392.977 199.338 394.673 200.323 396.951 200.364L406.159 195.048C407.221 193.063 407.206 191.123 406.112 189.229C405.208 187.663 403.869 186.775 402.097 186.567C400.336 186.352 398.251 186.94 395.842 188.331Z" fill="white" fill-opacity="0.71"/>
<path d="M405.641 222.236C403.442 221.822 401.636 220.394 400.226 217.95C399.058 215.928 398.746 214.05 399.29 212.318C399.852 210.59 401.271 209.062 403.546 207.733L415.776 200.672L417.649 203.916L405.506 210.927C402.657 212.572 401.907 214.563 403.257 216.902C404.688 219.38 406.555 220.5 408.857 220.262L422.529 212.369L424.402 215.613L405.605 226.465L403.823 223.379L405.641 222.236Z" fill="white" fill-opacity="0.71"/>
<path d="M410.495 234.935L408.622 231.691L427.419 220.839L429.292 224.083L410.495 234.935ZM432.253 217.697C432.775 217.396 433.306 217.3 433.847 217.408C434.395 217.528 434.851 217.904 435.216 218.535C435.58 219.167 435.678 219.749 435.508 220.284C435.338 220.819 434.992 221.237 434.471 221.537C433.95 221.838 433.421 221.925 432.884 221.799C432.348 221.672 431.897 221.293 431.533 220.662C431.168 220.03 431.065 219.451 431.224 218.923C431.389 218.406 431.732 217.998 432.253 217.697Z" fill="white" fill-opacity="0.71"/>
<path d="M420.172 246.441C420.84 247.598 421.772 248.409 422.966 248.873C424.161 249.337 425.306 249.314 426.402 248.806L428.174 251.875C427.063 252.438 425.822 252.656 424.451 252.528C423.08 252.4 421.771 251.924 420.523 251.101C419.283 250.29 418.291 249.241 417.549 247.955C416.057 245.371 415.721 242.822 416.539 240.308C417.375 237.798 419.276 235.688 422.241 233.976L422.78 233.665C424.61 232.609 426.433 232.008 428.249 231.864C430.065 231.719 431.731 232.051 433.247 232.859C434.771 233.679 436.032 234.954 437.031 236.684C438.259 238.812 438.647 240.941 438.195 243.073C437.749 245.217 436.546 246.917 434.585 248.174L432.813 245.105C433.975 244.309 434.701 243.267 434.991 241.977C435.299 240.692 435.099 239.436 434.39 238.208C433.439 236.56 432.109 235.621 430.401 235.391C428.711 235.166 426.755 235.696 424.531 236.98L423.923 237.331C421.757 238.581 420.349 239.994 419.699 241.57C419.049 243.145 419.207 244.769 420.172 246.441Z" fill="white" fill-opacity="0.71"/>
<path d="M436.117 259.214L432.841 258.393L426.239 262.205L424.366 258.96L451.05 243.554L452.923 246.798L436.784 256.116L439.854 256.659L449.451 258.998L451.729 262.944L439.614 260.094L433.428 274.655L431.231 270.85L436.117 259.214Z" fill="white" fill-opacity="0.71"/>
<path d="M458.473 296.812C455.601 298.47 452.905 299.137 450.387 298.814C447.88 298.485 445.979 297.197 444.683 294.953C443.299 292.556 443.069 290.218 443.993 287.939L441.73 289.035L440.009 286.054L466.693 270.648L468.566 273.892L458.612 279.639C460.977 280.019 462.825 281.361 464.155 283.664C465.485 285.967 465.665 288.271 464.695 290.577C463.732 292.895 461.751 294.919 458.751 296.651L458.473 296.812ZM456.965 293.357C459.154 292.093 460.598 290.69 461.298 289.148C461.999 287.606 461.886 286.034 460.962 284.432C459.726 282.293 457.854 281.324 455.345 281.525L447.215 286.219C445.82 288.35 445.73 290.467 446.945 292.571C447.843 294.126 449.138 294.992 450.83 295.168C452.522 295.345 454.567 294.741 456.965 293.357Z" fill="white" fill-opacity="0.71"/>
<path d="M472.861 306.205C472.658 305.667 472.392 305.112 472.061 304.539C470.832 302.411 469.101 301.486 466.867 301.762L453.525 309.465L451.652 306.221L470.449 295.368L472.272 298.525L470.13 299.831C472.424 299.926 474.134 300.949 475.262 302.901C475.626 303.533 475.822 304.059 475.849 304.48L472.861 306.205Z" fill="white" fill-opacity="0.71"/>
<path d="M467.552 311.655C469.394 310.592 471.259 309.998 473.149 309.873C475.045 309.761 476.767 310.122 478.315 310.959C479.87 311.807 481.131 313.067 482.096 314.738C483.587 317.322 483.906 319.921 483.052 322.534C482.205 325.158 480.31 327.32 477.369 329.018L477.143 329.149C475.313 330.205 473.462 330.798 471.591 330.928C469.739 331.062 468.026 330.703 466.452 329.85C464.885 329.008 463.609 327.734 462.624 326.027C461.139 323.455 460.82 320.857 461.667 318.232C462.521 315.619 464.408 313.47 467.326 311.785L467.552 311.655ZM469.053 315.137C466.969 316.341 465.575 317.792 464.873 319.491C464.177 321.202 464.302 322.876 465.247 324.513C466.199 326.161 467.592 327.103 469.426 327.338C471.272 327.566 473.347 327.014 475.652 325.684C477.714 324.494 479.094 323.034 479.795 321.305C480.513 319.58 480.4 317.9 479.455 316.263C478.53 314.661 477.153 313.734 475.324 313.481C473.495 313.228 471.404 313.78 469.053 315.137Z" fill="white" fill-opacity="0.71"/>
<path d="M484.431 352.765L500.904 348.118L502.777 351.362L480.791 356.691L479.272 354.06L490.855 341.224L474.017 344.959L472.499 342.329L488.117 325.97L489.98 329.196L478.064 341.056L494.688 337.351L496.196 339.964L484.431 352.765Z" fill="white" fill-opacity="0.71"/>
<path d="M266.144 106.529L263.723 102.335L278.338 93.8971L269.129 77.9477L254.514 86.3855L252.106 82.2134L283.724 63.9587L286.133 68.1307L272.538 75.9793L281.747 91.9287L295.341 84.0802L297.762 88.274L266.144 106.529Z" fill="white" fill-opacity="0.71"/>
<path d="M290.958 108.485L292.702 111.505C293.827 113.386 295.188 114.59 296.785 115.117C298.382 115.643 300.006 115.43 301.656 114.477C305.362 112.337 306.149 109.42 304.016 105.726C303.013 103.988 301.71 102.886 300.109 102.419C298.531 101.959 296.924 102.201 295.288 103.146L292.967 99.1259C295.472 97.6799 298.076 97.3931 300.78 98.2655C303.507 99.1441 305.686 100.996 307.317 103.821C309.04 106.805 309.602 109.6 309.002 112.206C308.403 114.812 306.699 116.926 303.89 118.547C302.515 119.341 300.924 119.661 299.117 119.507C297.318 119.367 295.657 118.713 294.133 117.545C294.587 119.601 294.449 121.468 293.718 123.145C292.996 124.837 291.716 126.213 289.877 127.275C287.04 128.913 284.253 129.286 281.518 128.393C278.782 127.5 276.558 125.568 274.843 122.599C273.128 119.629 272.535 116.746 273.063 113.949C273.6 111.167 275.185 109.016 277.82 107.494L280.154 111.536C278.489 112.497 277.47 113.809 277.099 115.473C276.727 117.136 277.068 118.88 278.122 120.705C279.243 122.647 280.607 123.839 282.214 124.282C283.821 124.726 285.573 124.4 287.47 123.305C289.308 122.244 290.394 120.864 290.726 119.165C291.058 117.467 290.623 115.545 289.423 113.399L287.679 110.378L290.958 108.485Z" fill="white" fill-opacity="0.71"/>
<path d="M286.517 136.951C287.212 136.55 287.908 136.418 288.605 136.556C289.311 136.709 289.902 137.198 290.379 138.024C290.856 138.849 290.984 139.606 290.763 140.294C290.551 140.996 290.097 141.547 289.402 141.949C288.736 142.333 288.054 142.438 287.354 142.262C286.662 142.101 286.078 141.608 285.602 140.782C285.125 139.956 284.99 139.204 285.196 138.525C285.411 137.86 285.851 137.335 286.517 136.951ZM305.704 125.902C306.399 125.501 307.095 125.369 307.793 125.507C308.499 125.66 309.09 126.149 309.567 126.975C310.044 127.8 310.171 128.557 309.951 129.245C309.738 129.947 309.285 130.498 308.59 130.9C307.924 131.284 307.241 131.389 306.541 131.213C305.85 131.052 305.266 130.559 304.789 129.733C304.313 128.907 304.177 128.155 304.384 127.476C304.598 126.811 305.038 126.286 305.704 125.902Z" fill="white" fill-opacity="0.71"/>
<path d="M344.124 176.499L338.253 166.33L310.066 182.604L307.67 178.453L335.857 162.18L329.998 152.032L333.429 150.051L347.555 174.518L344.124 176.499Z" fill="white" fill-opacity="0.71"/>
<path d="M341.256 188.933C344.471 189.453 346.902 191.14 348.55 193.993C351.418 198.962 350.064 203.086 344.486 206.364L328.96 215.328L326.639 211.308L342.187 202.331C343.873 201.339 344.899 200.225 345.267 198.989C345.642 197.768 345.366 196.353 344.438 194.745C343.685 193.441 342.677 192.497 341.413 191.914C340.15 191.33 338.794 191.089 337.347 191.19L320.604 200.856L318.283 196.837L351.639 177.579L353.96 181.599L341.256 188.933Z" fill="white" fill-opacity="0.71"/>
<path d="M337.633 231.355C335.793 228.168 335.339 224.973 336.269 221.77C337.214 218.559 339.438 215.942 342.942 213.919L343.68 213.493C346.011 212.147 348.344 211.39 350.678 211.22C353.035 211.057 355.188 211.475 357.135 212.475C359.106 213.482 360.631 214.919 361.71 216.788C363.475 219.844 363.84 222.801 362.806 225.658C361.773 228.514 359.381 231.025 355.631 233.19L353.959 234.155L344.763 218.228C342.48 219.623 340.995 221.379 340.306 223.496C339.64 225.619 339.884 227.68 341.038 229.679C341.858 231.098 342.841 232.134 343.989 232.784C345.137 233.435 346.402 233.854 347.784 234.041L347.29 237.6C343.127 237.377 339.908 235.295 337.633 231.355ZM358.409 218.693C357.472 217.071 356.093 216.052 354.27 215.636C352.462 215.212 350.418 215.484 348.139 216.452L354.939 228.23L355.243 228.054C357.217 226.76 358.478 225.298 359.024 223.67C359.584 222.033 359.379 220.374 358.409 218.693Z" fill="white" fill-opacity="0.71"/>
<path d="M363.811 248.111C367.503 245.979 370.909 245.143 374.031 245.6C377.166 246.05 379.558 247.702 381.206 250.555C382.811 253.337 383.145 256.071 382.206 258.757L384.673 257.564L386.806 261.258L354.276 280.039L351.955 276.019L363.16 269.55C360.486 268.931 358.371 267.274 356.815 264.579C355.176 261.74 354.968 258.837 356.189 255.872C357.434 252.913 359.881 250.38 363.529 248.274L363.811 248.111ZM365.676 252.394C362.984 253.949 361.196 255.734 360.314 257.75C359.44 259.78 359.559 261.759 360.672 263.685C362.052 266.076 364.162 267.291 367.004 267.331L378.513 260.686C379.847 258.216 379.837 255.807 378.482 253.461C377.361 251.519 375.696 250.424 373.486 250.174C371.291 249.915 368.688 250.655 365.676 252.394Z" fill="white" fill-opacity="0.71"/>
<path d="M377.739 294.451C374.997 293.948 372.752 292.183 371.004 289.155C369.558 286.649 369.177 284.319 369.864 282.165C370.573 280.017 372.35 278.112 375.194 276.451L390.482 267.625L392.802 271.645L377.623 280.409C374.062 282.465 373.117 284.941 374.79 287.839C376.563 290.91 378.886 292.292 381.759 291.985L398.849 282.118L401.17 286.138L377.674 299.704L375.466 295.88L377.739 294.451Z" fill="white" fill-opacity="0.71"/>
<path d="M383.733 310.199L381.412 306.179L404.909 292.614L407.23 296.634L383.733 310.199ZM410.953 288.689C411.605 288.313 412.268 288.191 412.942 288.323C413.625 288.47 414.193 288.934 414.644 289.716C415.096 290.499 415.214 291.222 415 291.887C414.785 292.552 414.352 293.072 413.701 293.448C413.049 293.824 412.389 293.935 411.721 293.78C411.052 293.625 410.492 293.157 410.04 292.374C409.589 291.592 409.463 290.873 409.663 290.216C409.872 289.575 410.302 289.066 410.953 288.689Z" fill="white" fill-opacity="0.71"/>
<path d="M395.749 324.441C396.577 325.875 397.735 326.878 399.222 327.448C400.71 328.019 402.139 327.986 403.508 327.349L405.704 331.152C404.316 331.857 402.767 332.133 401.057 331.98C399.348 331.828 397.717 331.243 396.165 330.227C394.622 329.225 393.39 327.928 392.47 326.334C390.621 323.133 390.214 319.969 391.246 316.843C392.301 313.722 394.682 311.092 398.388 308.953L399.061 308.564C401.349 307.243 403.625 306.489 405.891 306.301C408.157 306.113 410.234 306.517 412.122 307.513C414.018 308.524 415.585 310.101 416.822 312.245C418.345 314.882 418.819 317.525 418.244 320.174C417.678 322.838 416.169 324.955 413.717 326.526L411.521 322.723C412.975 321.729 413.885 320.431 414.253 318.828C414.644 317.231 414.4 315.672 413.522 314.151C412.342 312.109 410.688 310.949 408.559 310.671C406.453 310.4 404.01 311.067 401.23 312.672L400.47 313.11C397.763 314.673 396 316.435 395.182 318.394C394.364 320.354 394.553 322.37 395.749 324.441Z" fill="white" fill-opacity="0.71"/>
<path d="M415.577 340.228L411.494 339.224L403.242 343.989L400.921 339.969L434.276 320.711L436.597 324.731L416.423 336.378L420.249 337.038L432.208 339.897L435.031 344.786L419.934 341.305L412.149 359.417L409.427 354.701L415.577 340.228Z" fill="white" fill-opacity="0.71"/>
<path d="M203.462 152.263L200.415 146.984L218.829 136.352L207.238 116.275L188.823 126.907L185.791 121.655L225.63 98.6539L228.662 103.906L211.533 113.795L223.125 133.872L240.253 123.983L243.301 129.262L203.462 152.263Z" fill="white" fill-opacity="0.71"/>
<path d="M223.155 186.372L208.09 160.277L211.729 158.176L235.011 163.116C238.506 163.82 241.196 164.14 243.079 164.074C244.991 164.015 246.722 163.538 248.273 162.643C250.352 161.443 251.695 159.829 252.3 157.802C252.905 155.775 252.602 153.713 251.392 151.616C249.939 149.099 248.086 147.555 245.835 146.983C243.612 146.418 241.223 146.873 238.67 148.348L235.748 143.287C239.415 141.171 243.058 140.635 246.678 141.682C250.308 142.746 253.266 145.257 255.551 149.214C257.688 152.916 258.402 156.406 257.692 159.685C257.001 162.953 255.041 165.519 251.812 167.383C247.89 169.648 241.778 169.845 233.476 167.977L215.743 163.992L227.287 183.986L223.155 186.372Z" fill="white" fill-opacity="0.71"/>
<path d="M229.11 190.556C229.986 190.051 230.863 189.885 231.741 190.058C232.63 190.25 233.375 190.866 233.975 191.905C234.575 192.945 234.736 193.897 234.457 194.763C234.19 195.647 233.618 196.342 232.742 196.847C231.903 197.332 231.043 197.464 230.162 197.243C229.291 197.041 228.555 196.42 227.955 195.381C227.355 194.341 227.185 193.394 227.445 192.539C227.716 191.702 228.271 191.041 229.11 190.556ZM253.286 176.635C254.162 176.129 255.039 175.963 255.917 176.137C256.807 176.328 257.551 176.944 258.151 177.984C258.751 179.023 258.912 179.976 258.634 180.841C258.366 181.725 257.794 182.42 256.919 182.926C256.079 183.41 255.219 183.542 254.338 183.322C253.467 183.119 252.732 182.498 252.132 181.459C251.531 180.42 251.361 179.472 251.622 178.617C251.892 177.78 252.447 177.119 253.286 176.635Z" fill="white" fill-opacity="0.71"/>
<path d="M301.657 240.322L294.267 227.52L258.751 248.025L255.735 242.801L291.25 222.296L283.875 209.522L288.199 207.026L305.981 237.826L301.657 240.322Z" fill="white" fill-opacity="0.71"/>
<path d="M298.038 255.979C302.087 256.631 305.149 258.754 307.223 262.346C310.834 268.601 309.126 273.793 302.098 277.924L282.534 289.219L279.613 284.159L299.204 272.848C301.327 271.597 302.621 270.194 303.084 268.638C303.558 267.1 303.211 265.319 302.043 263.294C301.095 261.653 299.826 260.465 298.234 259.731C296.643 258.997 294.935 258.693 293.112 258.822L272.016 271.002L269.095 265.942L311.123 241.677L314.044 246.737L298.038 255.979Z" fill="white" fill-opacity="0.71"/>
<path d="M293.452 309.393C291.136 305.381 290.565 301.359 291.738 297.326C292.931 293.282 295.734 289.986 300.148 287.438L301.078 286.9C304.015 285.205 306.954 284.25 309.895 284.035C312.864 283.828 315.575 284.354 318.029 285.612C320.511 286.878 322.431 288.687 323.789 291.039C326.01 294.887 326.469 298.609 325.165 302.207C323.862 305.804 320.847 308.967 316.123 311.694L314.016 312.911L302.44 292.861C299.564 294.619 297.691 296.831 296.822 299.497C295.982 302.17 296.289 304.765 297.742 307.281C298.773 309.068 300.012 310.371 301.458 311.19C302.903 312.009 304.496 312.535 306.237 312.77L305.614 317.251C300.37 316.972 296.316 314.353 293.452 309.393ZM319.63 293.44C318.451 291.398 316.713 290.116 314.417 289.593C312.139 289.061 309.565 289.404 306.694 290.624L315.254 305.449L315.637 305.228C318.124 303.597 319.713 301.756 320.401 299.706C321.108 297.644 320.851 295.556 319.63 293.44Z" fill="white" fill-opacity="0.71"/>
<path d="M328.767 335.869C325.374 337.828 323.121 340.076 322.009 342.615C320.907 345.172 321.056 347.663 322.456 350.088C324.194 353.097 326.852 354.626 330.431 354.675L344.933 346.302C346.615 343.192 346.603 340.159 344.897 337.205C343.487 334.762 341.389 333.383 338.606 333.069C335.841 332.745 332.561 333.678 328.767 335.869Z" fill="white" fill-opacity="0.71"/>
<path d="M125.794 208.725L121.965 202.092L145.056 188.76L130.492 163.535L107.401 176.866L103.591 170.268L153.548 141.425L157.358 148.024L135.879 160.424L150.443 185.65L171.922 173.249L175.751 179.882L125.794 208.725Z" fill="white" fill-opacity="0.71"/>
<path d="M143.672 239.69L139.982 233.298L182.287 208.873L170.185 198.767L175.949 195.439L193.294 209.712L193.869 210.709L143.672 239.69Z" fill="white" fill-opacity="0.71"/>
<path d="M158.013 256.842C159.111 256.209 160.211 256.001 161.313 256.22C162.429 256.462 163.364 257.236 164.118 258.542C164.872 259.848 165.074 261.044 164.726 262.131C164.391 263.241 163.674 264.113 162.576 264.747C161.524 265.354 160.445 265.519 159.339 265.241C158.246 264.986 157.323 264.206 156.569 262.9C155.815 261.594 155.601 260.404 155.926 259.33C156.265 258.279 156.961 257.45 158.013 256.842ZM188.329 239.385C189.427 238.751 190.527 238.544 191.63 238.763C192.745 239.004 193.68 239.778 194.434 241.084C195.188 242.39 195.391 243.587 195.042 244.674C194.707 245.784 193.991 246.656 192.893 247.29C191.841 247.897 190.761 248.062 189.656 247.784C188.563 247.529 187.64 246.748 186.886 245.442C186.132 244.136 185.917 242.947 186.243 241.873C186.581 240.822 187.277 239.993 188.329 239.385Z" fill="white" fill-opacity="0.71"/>
<path d="M249.083 319.417L239.797 303.333L195.262 329.045L191.472 322.481L236.007 296.769L226.741 280.719L232.162 277.589L254.504 316.287L249.083 319.417Z" fill="white" fill-opacity="0.71"/>
<path d="M244.559 339.075C249.64 339.899 253.483 342.568 256.089 347.082C260.626 354.94 258.489 361.46 249.676 366.639L225.144 380.803L221.473 374.445L246.04 360.261C248.703 358.693 250.324 356.932 250.904 354.978C251.497 353.048 251.059 350.81 249.591 348.267C248.401 346.205 246.807 344.712 244.809 343.788C242.812 342.864 240.669 342.482 238.383 342.641L211.929 357.914L208.258 351.556L260.96 321.129L264.63 327.487L244.559 339.075Z" fill="white" fill-opacity="0.71"/>
<path d="M28.6398 279.682L23.8726 271.425L52.8097 254.718L34.6796 223.316L5.74249 240.022L1 231.808L63.6039 195.664L68.3464 203.878L41.4302 219.418L59.5603 250.82L86.4766 235.28L91.2437 243.537L28.6398 279.682Z" fill="white" fill-opacity="0.71"/>
<path d="M50.8949 318.229L46.3006 310.271L99.3162 279.663L84.2123 267.106L91.4358 262.935L113.084 280.67L113.8 281.911L50.8949 318.229Z" fill="white" fill-opacity="0.71"/>
<path d="M69.0214 339.993C70.3973 339.198 71.7745 338.936 73.1528 339.205C74.5476 339.502 75.7143 340.464 76.653 342.09C77.5916 343.715 77.841 345.207 77.4013 346.563C76.978 347.949 76.0784 349.038 74.7025 349.833C73.3839 350.594 72.0333 350.803 70.6507 350.461C69.2846 350.147 68.1322 349.177 67.1936 347.551C66.255 345.925 65.9912 344.442 66.4022 343.102C66.8298 341.791 67.7028 340.754 69.0214 339.993Z" fill="white" fill-opacity="0.71"/>
</g>
<defs>
<linearGradient id="paint0_linear" x1="588" y1="1.00001" x2="0.999992" y2="351" gradientUnits="userSpaceOnUse">
<stop stop-color="#315C7D"/>
<stop offset="1" stop-color="#2F79B0"/>
</linearGradient>
</defs>
</svg>
