<?xml version="1.0" encoding="utf-8"?>
<!-- Generator: Adobe Illustrator 25.4.1, SVG Export Plug-In . SVG Version: 6.00 Build 0)  -->
<svg version="1.1" id="Layer_1" xmlns="http://www.w3.org/2000/svg" xmlns:xlink="http://www.w3.org/1999/xlink" x="0px" y="0px"
	 viewBox="0 0 793 512" style="enable-background:new 0 0 793 512;" xml:space="preserve">
<style type="text/css">
	.st0{fill:url(#SVGID_1_);}
	.st1{fill:url(#SVGID_00000100369538957084320750000014021733286177106878_);}
	.st2{fill:url(#SVGID_00000153702209448861098380000000262840975701957543_);}
	.st3{fill:url(#SVGID_00000013183904887136200590000010221951913709124247_);}
	.st4{fill:url(#SVGID_00000124852170227692079010000005431565181088929462_);}
	.st5{fill:url(#SVGID_00000088119755458119525040000016089819514385312953_);}
	.st6{fill:url(#SVGID_00000129898005645908307730000004182342908544330148_);}
	.st7{fill:url(#SVGID_00000071537885855448367230000004312906465828064427_);}
	.st8{fill:url(#SVGID_00000020380329175851515840000007499989077860065960_);}
	.st9{fill:url(#SVGID_00000029042263214444202320000013416455239943280538_);}
	.st10{fill:url(#SVGID_00000114765382402415119650000014813250970347394204_);}
	.st11{fill:url(#SVGID_00000148650763907440709220000000955200471107014536_);}
	.st12{fill:url(#SVGID_00000142896671638897916210000013227603983545081487_);}
	.st13{fill:url(#SVGID_00000075162452037784784150000017584487350925615007_);}
	.st14{fill:url(#SVGID_00000163754497571787258740000000970743056984427915_);}
	.st15{fill:url(#SVGID_00000086685574661215375070000005452777217650478491_);}
	.st16{fill:#262626;fill-opacity:5.000000e-02;}
	.st17{fill:#DADADA;}
	.st18{fill:url(#SVGID_00000134231978561444415450000009953992151261370811_);}
	.st19{fill:url(#SVGID_00000012436309967253458500000017600065895012035221_);}
	.st20{fill:url(#SVGID_00000047742906820352446160000010621603803830904991_);}
	.st21{fill:url(#SVGID_00000113328914421182552020000012553795054441287048_);}
	.st22{fill:url(#SVGID_00000045610325036799340870000012815886852324611740_);}
	.st23{fill:url(#SVGID_00000145019322453586296450000012774033213693803409_);stroke:#E6E6E6;}
	.st24{fill:url(#SVGID_00000021825690597474378280000017682303761647341755_);}
	.st25{fill:#B9B6B2;}
	.st26{fill:url(#SVGID_00000017477468811260999740000006774485903985183921_);}
	.st27{fill:url(#SVGID_00000011010464289138838290000009468615370541934507_);stroke:#E6E6E6;}
	.st28{fill:url(#SVGID_00000004539844978763988510000012410351472402941615_);}
	.st29{fill:url(#SVGID_00000070095924308259108990000012099113553747576208_);}
	.st30{fill:url(#SVGID_00000177451218887423608520000007890866412493329597_);}
	.st31{fill:url(#SVGID_00000098194528355147106660000013964337941593655713_);}
	.st32{fill:url(#SVGID_00000033337664452810133080000012635226622056760243_);}
	.st33{fill:url(#SVGID_00000035491492414785281110000013133051481114214295_);}
	.st34{fill:url(#SVGID_00000023240273420139449580000012621058852419779768_);}
	.st35{opacity:0.6;}
	.st36{fill:url(#SVGID_00000070805251572479960860000015390517085332717705_);}
	.st37{fill:url(#SVGID_00000061460302891646620150000002156015364478397066_);}
	.st38{fill:#545350;}
	.st39{fill:url(#SVGID_00000012430233386668019330000015460672574713814921_);}
	.st40{fill:url(#SVGID_00000007412177491159080430000000939731224873205672_);}
	.st41{fill:#969EA3;}
	.st42{fill:url(#SVGID_00000146460789888847935550000002322893163195668921_);}
	.st43{fill:url(#SVGID_00000072245666567247437410000004058808799550961034_);}
	.st44{fill:url(#SVGID_00000084499835940726075980000007255627402294442674_);}
	.st45{fill:url(#SVGID_00000103961620071543518340000000705238166184447409_);}
	.st46{fill:url(#SVGID_00000060027077252675353200000017801749585467682971_);}
	.st47{fill:#E6EAED;}
	.st48{fill:url(#SVGID_00000160899565281398099930000009593258383501152413_);}
	.st49{fill:url(#SVGID_00000114774853974509781690000002616251368174592403_);}
	.st50{fill:url(#SVGID_00000011032670816028628970000015172673701773608616_);}
	.st51{fill:url(#SVGID_00000088830716565921816750000010131940524689592466_);}
	.st52{fill:#51575B;}
	.st53{fill:url(#SVGID_00000111885283934122811280000003881790560175140247_);}
	.st54{fill:url(#SVGID_00000132796402741084803880000004916145751371086236_);}
	.st55{fill:url(#SVGID_00000025405980124795579090000009487589101189322903_);}
	.st56{fill:url(#SVGID_00000167381058419575189730000008487964953295644045_);}
	.st57{fill:url(#SVGID_00000042738624849014972830000002365117560311128233_);}
	.st58{opacity:0.51;fill:#E3EDF2;enable-background:new    ;}
	.st59{fill:url(#SVGID_00000060028837406602747220000010311848219475831168_);}
	.st60{fill:url(#SVGID_00000166674865282416266640000009534599841495573944_);}
	.st61{fill:url(#SVGID_00000047033324012149470460000016884881192710769855_);}
	.st62{fill:none;stroke:#FFFFFF;stroke-width:1.5;stroke-miterlimit:10;stroke-opacity:0.5;}
</style>
<radialGradient id="SVGID_1_" cx="343.6909" cy="-569.077" r="344.4321" gradientTransform="matrix(1.0837 3.760000e-03 7.100000e-04 -0.1452 6.8594 389.5605)" gradientUnits="userSpaceOnUse">
	<stop  offset="0.2121" style="stop-color:#000000;stop-opacity:0.5"/>
	<stop  offset="0.9424" style="stop-color:#000000;stop-opacity:0"/>
</radialGradient>
<ellipse class="st0" cx="378.9" cy="473.5" rx="409" ry="50.5"/>
<radialGradient id="SVGID_00000139987306058821886810000009113135914456138372_" cx="-240.8173" cy="612.4446" r="1" gradientTransform="matrix(114.9996 12 1.7594 -16.8608 26781.3672 13698.0752)" gradientUnits="userSpaceOnUse">
	<stop  offset="0" style="stop-color:#030110;stop-opacity:0.7"/>
	<stop  offset="0.79" style="stop-color:#030110;stop-opacity:0"/>
</radialGradient>
<path style="fill:url(#SVGID_00000139987306058821886810000009113135914456138372_);" d="M249.3,491.3c1-9.2-35.7-20.9-82.1-26.2
	c-46.4-5.3-84.8-2.1-85.8,7c-1,9.2,35.7,20.9,82.1,26.2C209.9,503.6,248.3,500.5,249.3,491.3z"/>
<radialGradient id="SVGID_00000145761775514671992140000001991627422792471728_" cx="-240.5348" cy="606.2474" r="1" gradientTransform="matrix(88.9237 -15.085 -2.2117 -13.0376 22905.1504 4730.6382)" gradientUnits="userSpaceOnUse">
	<stop  offset="0" style="stop-color:#030110"/>
	<stop  offset="0.9715" style="stop-color:#030110;stop-opacity:0"/>
</radialGradient>
<path style="fill:url(#SVGID_00000145761775514671992140000001991627422792471728_);" d="M259.1,443.5c-1.2-9.1-39.7-11.5-86-5.3
	c-46.2,6.2-82.7,18.6-81.5,27.8c1.2,9.1,39.7,11.5,86,5.4C223.9,465.1,260.4,452.7,259.1,443.5z"/>
<radialGradient id="SVGID_00000063609628427703515800000008206405287915808389_" cx="-245.21" cy="624.7076" r="1" gradientTransform="matrix(-103.5001 11.4997 1.8511 16.6606 -26050.166 -7098.1602)" gradientUnits="userSpaceOnUse">
	<stop  offset="0" style="stop-color:#030110;stop-opacity:0.7"/>
	<stop  offset="0.79" style="stop-color:#030110;stop-opacity:0"/>
</radialGradient>
<path style="fill:url(#SVGID_00000063609628427703515800000008206405287915808389_);" d="M478.6,506.2c51.7-6.5,93-16.7,92.3-22.6
	c-0.8-6-43.3-5.5-95,1c-51.7,6.5-93,16.7-92.3,22.6C384.3,513.2,426.8,512.7,478.6,506.2z"/>
<radialGradient id="SVGID_00000023246497523318542810000009368614288563928756_" cx="-245.353" cy="622.8505" r="1" gradientTransform="matrix(-104.1158 -2.1027 -0.3385 16.7597 -24898.418 -10506.8057)" gradientUnits="userSpaceOnUse">
	<stop  offset="0" style="stop-color:#030110;stop-opacity:0.7"/>
	<stop  offset="0.79" style="stop-color:#030110;stop-opacity:0"/>
</radialGradient>
<path style="fill:url(#SVGID_00000023246497523318542810000009368614288563928756_);" d="M426.9,463c52.1,0.3,94.4-4.4,94.4-10.4
	c0-6-42.2-11.1-94.3-11.4c-52.1-0.3-94.4,4.4-94.4,10.4C332.5,457.7,374.8,462.7,426.9,463z"/>
<radialGradient id="SVGID_00000065062076738771335500000002446603421636863900_" cx="-233.67" cy="643.8956" r="1" gradientTransform="matrix(3 15.5 7.9943 -1.5473 -4429.4531 4892.6831)" gradientUnits="userSpaceOnUse">
	<stop  offset="0" style="stop-color:#F2F2F2"/>
	<stop  offset="0.6302" style="stop-color:#D6D6D6"/>
	<stop  offset="0.96" style="stop-color:#939598"/>
</radialGradient>
<path style="fill:url(#SVGID_00000065062076738771335500000002446603421636863900_);" d="M9.4,279.9c-1.9-5.8-0.9-16.9,1.5-23
	c4.1,3.4,14.8,10.3,15,17.2c0.1,7.4-0.9,15.1-1.9,22.4C24.2,293.4,10.9,286.5,9.4,279.9z"/>
<radialGradient id="SVGID_00000047772003298989910530000017432547478211151536_" cx="-234.1236" cy="642.7263" r="1" gradientTransform="matrix(3.1375 16.2762 8.3631 -1.6121 -4624.5078 5051.2524)" gradientUnits="userSpaceOnUse">
	<stop  offset="0" style="stop-color:#F2F2F2"/>
	<stop  offset="0.6302" style="stop-color:#D6D6D6"/>
	<stop  offset="0.96" style="stop-color:#939598"/>
</radialGradient>
<path style="fill:url(#SVGID_00000047772003298989910530000017432547478211151536_);" d="M6,207.4c0-5.9,7.5-16.5,11.2-21.3
	c2.6,4.6,10.1,15,7.8,21.3c-2.7,6.9-5.9,13.7-9.5,20.2C16.8,224.8,6,213.3,6,207.4z"/>
<radialGradient id="SVGID_00000161604590698122444980000011765845455875638442_" cx="-233.9533" cy="645.3214" r="1" gradientTransform="matrix(2.8643 15.7496 7.6651 -1.394 -4265.6758 4810.3472)" gradientUnits="userSpaceOnUse">
	<stop  offset="0" style="stop-color:#F2F2F2"/>
	<stop  offset="0.6302" style="stop-color:#D6D6D6"/>
	<stop  offset="0.96" style="stop-color:#939598"/>
</radialGradient>
<path style="fill:url(#SVGID_00000161604590698122444980000011765845455875638442_);" d="M2.5,231.1c-1.5-5.1,0-16.6,2.6-22.8
	c4,3.5,14.2,11,14.1,17.8c-0.2,6.7-0.4,23-0.1,20C19.3,242.9,4.3,237.5,2.5,231.1z"/>
<radialGradient id="SVGID_00000150095451932617997960000007993736810272346287_" cx="-231.8834" cy="638.5522" r="1" gradientTransform="matrix(3.6299 13.994 9.4026 -2.439 -5147.8169 5052.9707)" gradientUnits="userSpaceOnUse">
	<stop  offset="0" style="stop-color:#F2F2F2"/>
	<stop  offset="0.6302" style="stop-color:#D6D6D6"/>
	<stop  offset="0.96" style="stop-color:#939598"/>
</radialGradient>
<path style="fill:url(#SVGID_00000150095451932617997960000007993736810272346287_);" d="M7.4,257.4c-0.6-4.3-3.7-16.7-3.2-22.7
	c4.7,2.5,16.7,7,18.2,13.6c1.4,7.3,2.4,14.6,2.9,22.1C25,267.4,8,262.8,7.4,257.4z"/>
<linearGradient id="SVGID_00000057861045995070981600000011182424611639139744_" gradientUnits="userSpaceOnUse" x1="-2.8944" y1="226.6479" x2="28.2231" y2="182.7779" gradientTransform="matrix(1 0 0 -1 0 514)">
	<stop  offset="0" style="stop-color:#F2F2F2"/>
	<stop  offset="0.6302" style="stop-color:#D6D6D6"/>
	<stop  offset="0.96" style="stop-color:#939598"/>
</linearGradient>
<path style="fill:url(#SVGID_00000057861045995070981600000011182424611639139744_);" d="M0.5,305.7c3.8-7.4,8.3-14.1,13.4-20.7
	c3.4,6.4,15.3,11.5,11.8,20.2s-17.1,33.5-15.1,29.7C12.6,331.1-3,312.3,0.5,305.7z"/>
<radialGradient id="SVGID_00000016782282964391996770000008258585896568770713_" cx="-240.3627" cy="634.6334" r="1" gradientTransform="matrix(-2.0633 33.2011 14.0892 0.8756 -9422.708 7717.4448)" gradientUnits="userSpaceOnUse">
	<stop  offset="3.650000e-02" style="stop-color:#939598"/>
	<stop  offset="0.6302" style="stop-color:#D6D6D6"/>
	<stop  offset="0.8958" style="stop-color:#F2F2F2"/>
</radialGradient>
<path style="fill:url(#SVGID_00000016782282964391996770000008258585896568770713_);" d="M5.4,302.8c2.6-6,5.7-11.6,9.1-16.8
	c2.2,5.3,9,10.8,5.4,21.3c-5.4,9.7-7.4,16.8-8.3,18.7C10,324.1,3.2,308.1,5.4,302.8z"/>
<radialGradient id="SVGID_00000008870928192442433030000001740608350366609795_" cx="-242.8066" cy="617.1629" r="1" gradientTransform="matrix(-38.8255 409.8149 1537.9833 145.7073 -958303.625 9649.8389)" gradientUnits="userSpaceOnUse">
	<stop  offset="0" style="stop-color:#FFFFFF"/>
	<stop  offset="0.24" style="stop-color:#D2D3D5"/>
	<stop  offset="0.6" style="stop-color:#C2C4C6"/>
	<stop  offset="1" style="stop-color:#393939"/>
</radialGradient>
<path style="fill:url(#SVGID_00000008870928192442433030000001740608350366609795_);" d="M408,304.5c-31.5,12-95.2,31.9-107,31.9
	l-24.5,0.4l1.5-10.6l-70-0.4l36.2,118.9l-20.2,5.1c4.5,11.5,15,39,15,39s-132.8-10-138-12.3c-5.2-2.3-17.2-42.9-24-70.7l-2.8-79.6
	c0-5.7-14-26.3-26.9-45.2c-9.1-13.3-17.6-25.8-20.2-31.7c-6.3-14.1-16.8-74.1-14.7-86.8C14.6,149.8,51.1,31.2,100,27.3
	c10.1-2.9,209.7-17.6,307.8-23.6l0.8-1.5c14.9-0.1,45.3,0.7,62.8,1.2c6.9,0.2,11.9,0.3,13,0.3c4.1,0,77.5,68.5,78.6,73.5
	c0.8,3.8,3.1,16.6,4.9,26.7l-7.4,18L534,206.4l26.5,117.5l4,9.8l-21.2,18v10.6c-8.9,8.7-26.6,28.9-26.6,40.9s20.5,57.8,24.8,77.4
	c-18.4,4.1-60,19.5-60,19.5s-37.7-3.8-60.5-1.5l7-51.5l-38,1.5v-5l-9,1L408,304.5z"/>
<radialGradient id="SVGID_00000155110988197845744000000003881184910070653062_" cx="-242.4711" cy="616.752" r="1" gradientTransform="matrix(459.417 0 0 -415.307 111574.2031 256374.0312)" gradientUnits="userSpaceOnUse">
	<stop  offset="0.59" style="stop-color:#73848F;stop-opacity:0"/>
	<stop  offset="0.97" style="stop-color:#292C30;stop-opacity:0.88"/>
</radialGradient>
<path style="fill:url(#SVGID_00000155110988197845744000000003881184910070653062_);" d="M409,304c-31.2,11-93.6,31.5-107.7,31.5
	l-1.2,0c-9.1-0.1-16.6-0.3-22,0.2l1.5-10.6l-70-0.4l36.2,118.9l-21.9,5.7c7,11.8,14.8,38.7,14.8,38.7s-131.1-10.3-136.3-12.6
	c-5.2-2.3-16.7-41.4-23.5-69.2L75.8,325c0-5.7-14-26.3-26.9-45.2c-9.1-13.3-17.6-25.8-20.2-31.7C22.4,234.1,11.8,174,14,161.3
	c2.1-12.7,38.7-131.4,87.6-135.2c10.1-2.9,209.7-17.6,307.8-23.6l0.8-1.5c15.3-0.1,45.6,0.7,63,1.2c6.8,0.2,11.7,0.3,12.8,0.3
	c4.1,0,77.5,68.5,78.6,73.5c0.8,3.8,3.1,16.6,4.9,26.7l-7.4,18l-26.5,84.5l26.5,117.5l4,9.8l-21.2,18V361
	c-8.9,8.7-26.6,28.9-26.6,40.9c0,6.4,6.5,22.8,13.1,39.6c5.7,14.4,11.5,29.1,13.5,38.2c-34.1,7.7-87.4,15-122.4,18.5l5.9-51.7
	L390,448l0.5-5l-9,1.5L409,304z"/>
<radialGradient id="SVGID_00000039124951031442812970000012120741205460544645_" cx="-242.4977" cy="616.7514" r="1" gradientTransform="matrix(465.3672 -35.6008 -37.2013 -486.2891 136135.3281 291325.1562)" gradientUnits="userSpaceOnUse">
	<stop  offset="2.600000e-02" style="stop-color:#7A7A7A;stop-opacity:0"/>
	<stop  offset="0.5887" style="stop-color:#7A7A7A;stop-opacity:0"/>
	<stop  offset="0.85" style="stop-color:#202020;stop-opacity:0.3"/>
	<stop  offset="0.97" style="stop-color:#2C2D2F;stop-opacity:0.88"/>
</radialGradient>
<path style="fill:url(#SVGID_00000039124951031442812970000012120741205460544645_);" d="M408,304.5c-31.2,11-83,27.7-95.1,30.4
	c-11.1,2.6-23.3,2-30.9,1.6c-2.2-0.1-4-0.2-5.3-0.2l1.4-10l-70-0.4l36.2,118.9l-21.9,5.7c7,11.8,14.8,38.7,14.8,38.7
	S106.2,479,101,476.7c-3.7-1.7-8.7-24.6-13.7-47.7c-1.9-9-3.9-18-5.8-25.8L77,319.5c0,0-16.8-19.5-29.7-38.4
	c-9.1-13.3-17.6-25.8-20.2-31.7c-6.3-14.1-16.8-74.1-14.7-86.8C14.6,149.9,51.1,31.3,100,27.4c10.1-2.9,209.7-17.6,307.8-23.6
	l0.8-1.5c14.9-0.1,45.3,0.7,62.8,1.2c6.9,0.2,11.9,0.3,13,0.3c4.1,0,77.5,68.5,78.6,73.5c0.8,3.8,3.1,16.6,4.9,26.7l-7.4,18
	L534,206.5L560.5,324l4,9.8l-21.2,18v10.6c-8.9,8.7-26.6,28.9-26.6,40.9c0,11.9,8.4,53.9,12.7,73.5c-18.4,4.1-57.3,12.6-66.8,12.6
	c-9.5,0-36.7,2.5-49.1,3.7l7.5-45h-30.5v-4.5h-9L408,304.5z"/>
<radialGradient id="SVGID_00000096778958478109533130000000130886287981453228_" cx="-242.3344" cy="617.4653" r="1" gradientTransform="matrix(66.9998 238.4998 426.4013 -119.7853 -246717.1719 131940.0156)" gradientUnits="userSpaceOnUse">
	<stop  offset="0.48" style="stop-color:#1E1F21;stop-opacity:0"/>
	<stop  offset="0.5491" style="stop-color:#171819;stop-opacity:0.3879"/>
	<stop  offset="0.5827" style="stop-color:#161718;stop-opacity:0.76"/>
	<stop  offset="1" style="stop-color:#141415;stop-opacity:0.55"/>
</radialGradient>
<path style="fill:url(#SVGID_00000096778958478109533130000000130886287981453228_);" d="M444.5,318.5c-0.5-74.7-5-269.6-5-271.2
	c0-1.5-0.3-6.3-9.2-19.9C426.2,21,413.8,8,408.3,2v0.9c0,0,9,10.9,17,21.4c5.5,7.2,10.4,14.4,11.3,17.6c2.3,7.7,4.6,76.6,4.6,88.8
	c0,12.3-77.8,30.8-134.6,38.3l-30.1,167.8c6,0.1,25.5,0.1,30.5-0.9c19.5-4,62-17.5,75.6-22.2l25.7-9.3c-7.8,48-25.8,129.5-27.3,140
	l10-1l-1,4.5l38.5-1.5L444.5,318.5z"/>
<linearGradient id="SVGID_00000130608298220951697090000016055849974410078629_" gradientUnits="userSpaceOnUse" x1="455.0768" y1="283.4596" x2="419.3228" y2="287.4606" gradientTransform="matrix(1 0 0 -1 0 514)">
	<stop  offset="0" style="stop-color:#030F16;stop-opacity:0.72"/>
	<stop  offset="0.77" style="stop-color:#24282F;stop-opacity:0"/>
</linearGradient>
<path style="fill:url(#SVGID_00000130608298220951697090000016055849974410078629_);" d="M445.5,316.1
	c-0.5-74.7-6.6-268.8-6.6-270.3c0-1.5-0.3-6.3-9.2-19.9c-4.1-6.4-16.7-18.8-22-25.4v0.9c0,0,9,10.9,17,21.4
	c5.5,7.2,10.4,14.4,11.3,17.6c2.3,7.7,4.6,76.6,4.6,88.8c0,12.3-75.4,33.2-132.1,40.7l-32.4,164.8c8-0.3,22.2,2.9,44-3.4
	c21.9-6.3,48.5-14.1,61.9-19.1l25.7-7.3c-5.4,49.2-17.1,90.8-26.2,139.5l10-1L390,448l37-1.5L445.5,316.1z"/>
<path class="st16" d="M446.7,316.5c-0.5-74.7-6.4-268.8-6.4-270.3c0-1.5-2-5.7-10.9-19.4c-4.3-6.4-15.8-18.2-21.1-24.8v1.7
	c0,0,8.7,10.1,16.7,20.7c5.5,7.2,11.2,13.3,12.1,16.5c2.3,7.7,4.6,76.6,4.6,88.8c0,12.3-77.8,34-134.6,41.3l-30.6,165.9
	c8-0.2,27.5-0.1,33-1.4c21-5,60.4-17.7,73.9-22.6l21.6-8.4c-5.4,49.2-14,91-23,139.5h8.5v4l39-4L446.7,316.5z"/>
<path class="st17" d="M173.7,277.7c-12.5-19.1-45.4-172.1-58.4-251.8L87.8,29c-27.5,10-72.5,93.6-76.5,135.5
	c-1.5,15.9,6.1,50.5,12.2,80.4s54,62.6,55.4,81.2c1.4,18.5,10.2,41.5,8.1,66.5c-1.7,19.9,14.2,83.6,14.2,83.6s51.4,4.6,72.5,4.6
	c8.6,0,35.6-10,56.3-10C203,401.7,175.9,280.9,173.7,277.7z"/>
<radialGradient id="SVGID_00000093172607842688191130000000953847335369436842_" cx="-242.6209" cy="618.1766" r="1" gradientTransform="matrix(55.0003 361.0002 188.8161 -28.7671 -103307.4922 105471.375)" gradientUnits="userSpaceOnUse">
	<stop  offset="0" style="stop-color:#FCFCFC"/>
	<stop  offset="0.2835" style="stop-color:#E9E9E9"/>
	<stop  offset="0.3775" style="stop-color:#D5D5D5"/>
	<stop  offset="0.6655" style="stop-color:#DFDFDF"/>
	<stop  offset="0.957" style="stop-color:#ABABAB"/>
</radialGradient>
<path style="fill:url(#SVGID_00000093172607842688191130000000953847335369436842_);" d="M173.7,277.7
	c-12.5-19.1-45.4-172.1-58.4-251.8L87.8,29c-27.5,10-72.5,93.6-76.5,135.5c-1.5,15.9,6.1,50.5,12.2,80.4S78,313,78.9,326
	c1.4,18.5,10.2,41.5,8.1,66.5c-1.7,19.9,14.2,83.6,14.2,83.6c44.8,4,93.5,13.4,138.2,13.4C212.4,420.4,175.9,280.9,173.7,277.7z"/>
<radialGradient id="SVGID_00000157276227773368074770000000947925907956935870_" cx="-242.6209" cy="618.1766" r="1" gradientTransform="matrix(55.0003 361.0002 188.8161 -28.7671 -103307.4922 105471.375)" gradientUnits="userSpaceOnUse">
	<stop  offset="0" style="stop-color:#FCFCFC"/>
	<stop  offset="0.2835" style="stop-color:#E9E9E9"/>
	<stop  offset="0.3775" style="stop-color:#D5D5D5"/>
	<stop  offset="0.6655" style="stop-color:#DFDFDF"/>
	<stop  offset="0.957" style="stop-color:#ABABAB"/>
</radialGradient>
<path style="fill:url(#SVGID_00000157276227773368074770000000947925907956935870_);" d="M173.7,277.7
	c-12.5-19.1-45.4-172.1-58.4-251.8L87.8,29c-27.5,10-72.5,93.6-76.5,135.5c-1.5,15.9,6.1,50.5,12.2,80.4S78,313,78.9,326
	c1.4,18.5,10.2,41.5,8.1,66.5c-1.7,19.9,14.2,83.6,14.2,83.6c44.8,4,93.5,13.4,138.2,13.4C212.4,420.4,175.9,280.9,173.7,277.7z"/>
<radialGradient id="SVGID_00000051382678841532634080000009264266627894506922_" cx="-242.6717" cy="617.3677" r="1" gradientTransform="matrix(-6.4029 297.7072 666.6648 14.3383 -412911.6875 63474.8867)" gradientUnits="userSpaceOnUse">
	<stop  offset="0" style="stop-color:#FFFFFF;stop-opacity:1.000000e-02"/>
	<stop  offset="0.24" style="stop-color:#D2D3D5"/>
	<stop  offset="0.678" style="stop-color:#C2C4C6"/>
	<stop  offset="0.9512" style="stop-color:#393939"/>
</radialGradient>
<path style="fill:url(#SVGID_00000051382678841532634080000009264266627894506922_);" d="M279,326h-91l-42.1-107.4L118.4,43.5H139
	c34.4,14.2,99.9,26.2,109.2,34.5c9.3,8.3,38.1,62.6,58.9,91.4L279,326z"/>
<radialGradient id="SVGID_00000116924551751577363650000014832116090403625914_" cx="-241.4421" cy="616.5453" r="1" gradientTransform="matrix(155.98 0 0 -226.519 37835.1367 139833.5938)" gradientUnits="userSpaceOnUse">
	<stop  offset="0.59" style="stop-color:#73848F;stop-opacity:0"/>
	<stop  offset="0.97" style="stop-color:#292C30;stop-opacity:0.88"/>
</radialGradient>
<path style="fill:url(#SVGID_00000116924551751577363650000014832116090403625914_);" d="M279,326h-91l-42.1-107.4L118.4,43.5H139
	c34.4,14.2,99.9,26.2,109.2,34.5c9.3,8.3,38.1,62.6,58.9,91.4L279,326z"/>
<radialGradient id="SVGID_00000176038620805465188620000017665508816660337042_" cx="-241.5707" cy="616.5888" r="1" gradientTransform="matrix(157.9996 -20.5 -41.7468 -321.756 64138.7148 193503.4844)" gradientUnits="userSpaceOnUse">
	<stop  offset="0.5887" style="stop-color:#7A7A7A;stop-opacity:4.000000e-02"/>
	<stop  offset="0.85" style="stop-color:#202020;stop-opacity:0.3"/>
	<stop  offset="0.97" style="stop-color:#2C2D2F;stop-opacity:0.88"/>
</radialGradient>
<path style="fill:url(#SVGID_00000176038620805465188620000017665508816660337042_);" d="M278.5,326H188l-42.1-107.4L118.4,43.5H139
	C178.3,58,238.9,69.7,248.2,78c9.3,8.3,38.1,62.6,58.9,91.4L278.5,326z"/>
<linearGradient id="SVGID_00000054236975262842362330000006674120094262114464_" gradientUnits="userSpaceOnUse" x1="251.7837" y1="544.6972" x2="252.6007" y2="459.4804" gradientTransform="matrix(1 0 0 -1 0 514)">
	<stop  offset="9.320000e-02" style="stop-color:#F0F0F0"/>
	<stop  offset="0.4931" style="stop-color:#FFFFFF"/>
	<stop  offset="0.6395" style="stop-color:#F4F4F4"/>
	<stop  offset="0.9703" style="stop-color:#E4E4E4"/>
</linearGradient>
<path style="fill:url(#SVGID_00000054236975262842362330000006674120094262114464_);stroke:#E6E6E6;" d="M415.2,4l28.6,32.1h-2.1h0
	l0,0l-13.2,0.6l0,0l-45.7,2c-37,1.5-84.4,3.4-126,4.1c-41.6,0.8-90.1,3.5-128,6.3c-6.8,0.5-12.3,0.9-17.1,1.2
	c-8.7,0.6-15.1,1-22.5,1.7c-2.2,0.2-4.3,0.4-6.5,0.6c-3.9,0.4-8.2,0.8-14.4,1.2l0,0l0,0l-4,0.4l-2.9-0.9c0.2-2.3,1.6-4.7,3.5-7
	c2-2.4,4.5-4.7,6.8-6.8l0.1-0.1c2.3-2,5.9-4.7,10.1-7c4.2-2.3,8.9-4.3,13.1-5L415.2,4z"/>
<linearGradient id="SVGID_00000168799092201672846700000010298960735852465552_" gradientUnits="userSpaceOnUse" x1="146.7627" y1="40.5734" x2="52.5056" y2="251.6454" gradientTransform="matrix(1 0 0 -1 0 514)">
	<stop  offset="0" style="stop-color:#FFFFFF"/>
	<stop  offset="0.1947" style="stop-color:#E6E7E8"/>
	<stop  offset="0.7292" style="stop-color:#9C9FA1"/>
	<stop  offset="0.9958" style="stop-color:#7D7F82"/>
</linearGradient>
<path style="fill:url(#SVGID_00000168799092201672846700000010298960735852465552_);" d="M154.2,386.2l4.3,100.3l-57.1-10.8
	c0,0-17.4-43.2-20.5-68.9C77.8,381,77,321,77,321L154.2,386.2z"/>
<path class="st25" d="M514.8,240.1c1.1-5.8,42.2-91.1,62.7-133.1V95.3l-5.8-7.2c0.8-4.4,0.8-8.8,0-13.2c-1.2-4.7-61.9-51-86.2-70.4
	l-76.8-2.1c0,0.6-0.2,0.6-0.2,1.4c5.7,11.3,26.5,35.5,26.5,39.8s4.3,60,7.6,85l3.1,176.1l-2.3,60.5l-10.2,82.7L422,499l122.5-18.5
	c-6.7-14.1-19.8-47.9-21-56c-1.2-8.1,16-36.6,24.8-51.3l4.4-19C539.5,318.7,513.5,246,514.8,240.1z"/>
<radialGradient id="SVGID_00000163046842390239823630000004657767144506534043_" cx="-242.7447" cy="617.329" r="1" gradientTransform="matrix(25.232 454.8257 719.0434 -39.8898 -437299.5312 135079.4062)" gradientUnits="userSpaceOnUse">
	<stop  offset="1.000000e-02" style="stop-color:#FFFFFF"/>
	<stop  offset="0.2037" style="stop-color:#E3E3E3"/>
	<stop  offset="0.2996" style="stop-color:#D5D5D5"/>
	<stop  offset="0.6475" style="stop-color:#D2D3D5"/>
	<stop  offset="0.82" style="stop-color:#D4D5D6"/>
</radialGradient>
<path style="fill:url(#SVGID_00000163046842390239823630000004657767144506534043_);" d="M597.5,222.5l5.5-115l-31.4-32.6
	c0,0-61.9-51-86.2-70.4l-76.8-2.1c-0.2,0.6-0.5,0.6-0.5,1.4C418.3,14.9,434.6,36,436.5,42c1.8,6,2.8,61.6,6.1,86.5l3.1,176.1
	l-2.3,60.5l-13.8,79.4L422,499l59.5,1.5l63-20c-6.7-14.1-19.8-45-21-53.1c-1.2-8.1,16.1-39.5,24.8-54.2c0,0-3.8,6.8,18.2-33.2
	S597.5,222.5,597.5,222.5z"/>
<linearGradient id="SVGID_00000100377956267938844820000000969010471414967226_" gradientUnits="userSpaceOnUse" x1="470.0801" y1="536.806" x2="471.5321" y2="472.7302" gradientTransform="matrix(1 0 0 -1 0 514)">
	<stop  offset="9.320000e-02" style="stop-color:#F0F0F0"/>
	<stop  offset="0.4931" style="stop-color:#EFEFEF"/>
	<stop  offset="0.6395" style="stop-color:#FFFFFF"/>
	<stop  offset="0.9703" style="stop-color:#E4E4E4"/>
</linearGradient>
<path style="fill:url(#SVGID_00000100377956267938844820000000969010471414967226_);stroke:#E6E6E6;" d="M435.7,33.9L435.7,33.9
	L435.7,33.9c-0.6-0.8-1.2-1.7-1.8-2.6c-2.9-4.1-6.2-8.9-9.7-13.6l0,0c-2.2-2.9-4.7-5.6-7-8.2c-0.6-0.7-1.2-1.3-1.8-1.9
	c-1.4-1.5-2.8-2.9-3.9-4.2h73.5l45.9,37.3l-2.5-0.4l0,0L512.1,38l0,0c-12.1-1.7-25.9-3.4-31.3-3.4c-5.4,0-16.5,0.3-26.2,0.8
	c0,0,0,0,0,0l-12.8,0.5h0l-4,0.2h-0.7C436.6,35.3,436.1,34.6,435.7,33.9z"/>
<linearGradient id="SVGID_00000163074945374708602050000017641394159963014528_" gradientUnits="userSpaceOnUse" x1="259.6025" y1="51.4236" x2="94.6435" y2="196.9065" gradientTransform="matrix(1 0 0 -1 0 514)">
	<stop  offset="0" style="stop-color:#FFFFFF"/>
	<stop  offset="0.3545" style="stop-color:#E6E7E8"/>
	<stop  offset="0.7292" style="stop-color:#9C9FA1"/>
	<stop  offset="0.9958" style="stop-color:#7D7F82"/>
</linearGradient>
<path style="fill:url(#SVGID_00000163074945374708602050000017641394159963014528_);" d="M158.5,486.5l80.7,2.6L225,449l-37.8-123.7
	l-21-58.2l14.2,69.7l-27.2,49L158.5,486.5z"/>
<linearGradient id="SVGID_00000124149312567581060130000009286574743722687390_" gradientUnits="userSpaceOnUse" x1="491.6509" y1="95.4846" x2="405.2599" y2="129.3646" gradientTransform="matrix(1 0 0 -1 0 514)">
	<stop  offset="0" style="stop-color:#FFFFFF;stop-opacity:0"/>
	<stop  offset="0.3812" style="stop-color:#E6E7E8;stop-opacity:0.71"/>
	<stop  offset="0.7292" style="stop-color:#9C9FA1"/>
	<stop  offset="0.9958" style="stop-color:#7D7F82"/>
</linearGradient>
<path style="fill:url(#SVGID_00000124149312567581060130000009286574743722687390_);" d="M481.4,368.9v131.6l-59.5-1.4l10.7-77.3
	L445.5,318v-25.5L481.4,368.9z"/>
<linearGradient id="SVGID_00000170964956340287292280000007655898909407095955_" gradientUnits="userSpaceOnUse" x1="475.8911" y1="-10.2584" x2="554.5591" y2="223.8996" gradientTransform="matrix(1 0 0 -1 0 514)">
	<stop  offset="0" style="stop-color:#FFFFFF"/>
	<stop  offset="0.1947" style="stop-color:#E6E7E8"/>
	<stop  offset="0.6095" style="stop-color:#9C9FA1"/>
	<stop  offset="0.9958" style="stop-color:#7D7F82"/>
</linearGradient>
<path style="fill:url(#SVGID_00000170964956340287292280000007655898909407095955_);" d="M481.6,500.5l62.7-19.8
	c0,0-11.8-42.2-12.8-59.2s18.9-51.8,18.9-51.8l30.1-49l-30.1-9.2l-35.9-62l3.8,39.1l-9.5,32.2l-27.2,49V500.5z"/>
<radialGradient id="SVGID_00000097480375336874914950000009535662946894347189_" cx="-240.0562" cy="616.2309" r="1" gradientTransform="matrix(82.547 0 0 -133.917 20385.4414 82760.0391)" gradientUnits="userSpaceOnUse">
	<stop  offset="0.44" style="stop-color:#303336"/>
	<stop  offset="0.99" style="stop-color:#282F33;stop-opacity:0"/>
</radialGradient>
<path style="fill:url(#SVGID_00000097480375336874914950000009535662946894347189_);" d="M567.5,73c0,0-67.7,37-81,107
	c-18.8,99.1,22.3,140.7,22.3,140.7s0,36.9,21.7,46.3c11.5,5,24.5-5,24.5-5l33-52.5c0,0,63.2-148.3,54-163.5
	C627.5,130.5,567.5,73,567.5,73z"/>
<radialGradient id="SVGID_00000038372478804913958200000007874806038605617318_" cx="-241.5548" cy="615.6012" r="1" gradientTransform="matrix(101.5003 -54.0002 -68.8564 -129.4243 67494.9609 66791.7344)" gradientUnits="userSpaceOnUse">
	<stop  offset="2.080000e-02" style="stop-color:#E9EEF2"/>
	<stop  offset="0.9788" style="stop-color:#717274"/>
</radialGradient>
<path style="fill:url(#SVGID_00000038372478804913958200000007874806038605617318_);" d="M543,114.5c0,0-34.5,107.8-34.5,118
	s8,55.1,8,55.1l46,62.4l21.5-34c16.1,17.8,44.7,54.8,52.5,56.5s71.1,4.7,98.6,6.1l21.9-79l-8.4-5.7l8.4-6.3
	c4.6-9.6,16.2-32.8,25.2-48.1c11.3-19,12.2-38.3,6-38.3c-4.4,0-14.2,11.5-22.2,21.1c-3.5,4.1-6.7,7.9-9,10.2
	c-6.7,6.7-12.9,9.3-18.9,11.8c-0.8,0.3-1.6,0.7-2.4,1l-0.3,0.3l-19.3-13.2v-61.4l-31.8,25l-7.5-6.3L673,174c-2.8-7-3.3-21.9-3.8-36
	c-0.5-14.1,3.8-25,7.2-27.6c-16.8,0-20.1,22.8-22.1,37.4c-0.4,2.7-0.7,5.1-1.1,7c-1.7,8.6,3,3.7-7.7,3.7L598,101.8
	C588.1,89,554,108.4,543,114.5z"/>
<radialGradient id="SVGID_00000015349953035874832890000009277993219054962103_" cx="-245.5388" cy="617.5502" r="1" gradientTransform="matrix(-95.5 0.5 0.9923 189.5054 -23475.7246 -116634.8203)" gradientUnits="userSpaceOnUse">
	<stop  offset="0.3854" style="stop-color:#2D333C;stop-opacity:0.23"/>
	<stop  offset="0.5573" style="stop-color:#858F9D;stop-opacity:0"/>
</radialGradient>
<path style="fill:url(#SVGID_00000015349953035874832890000009277993219054962103_);" d="M533,245.5l127-81.8l-31.8-30.5
	c0,0-7.4-26-32.5-30.5c-25.1-4.5-51.5,14-51.5,14s-30.3,70.5-32.9,108.8c-1.5,22.8-3.1,92.1,49.1,127L582,319L533,245.5z"/>
<linearGradient id="SVGID_00000086686172180872589680000012808553146451003558_" gradientUnits="userSpaceOnUse" x1="545.9171" y1="338.4209" x2="620.4171" y2="389.9209" gradientTransform="matrix(1 0 0 -1 0 514)">
	<stop  offset="0.2603" style="stop-color:#FFFFFF"/>
	<stop  offset="1" style="stop-color:#FFFFFF;stop-opacity:0"/>
</linearGradient>
<path style="fill:url(#SVGID_00000086686172180872589680000012808553146451003558_);" d="M573.5,145l40.1,46.6l34.9-28.6l-22.1-28
	c0,0,0.7-5.6,0-7.5L599,102c-4.1-2.8-3-4-14.5-4c-20,2-41,16.5-41,16.5C550,119,557.5,127.5,573.5,145z"/>
<g class="st35">
	
		<linearGradient id="SVGID_00000148624611589522100370000004241867047023835327_" gradientUnits="userSpaceOnUse" x1="556.2152" y1="228.0644" x2="534.2152" y2="286.0644" gradientTransform="matrix(1 0 0 -1 0 514)">
		<stop  offset="0.2" style="stop-color:#44484A;stop-opacity:0"/>
		<stop  offset="0.3455" style="stop-color:#404447;stop-opacity:0.2091"/>
		<stop  offset="0.8958" style="stop-color:#32363A"/>
	</linearGradient>
	<path style="fill:url(#SVGID_00000148624611589522100370000004241867047023835327_);" d="M532.8,237.7l-22.3-5.7l33.3,35.1
		c9.2,11.5,28.9,20.7,41.1,28l-36.1-49.3L532.8,237.7z"/>
	
		<linearGradient id="SVGID_00000172403138055467702660000017853705021724906158_" gradientUnits="userSpaceOnUse" x1="556.2152" y1="228.0644" x2="534.2152" y2="286.0644" gradientTransform="matrix(1 0 0 -1 0 514)">
		<stop  offset="0.2" style="stop-color:#44484A;stop-opacity:0"/>
		<stop  offset="0.3455" style="stop-color:#404447;stop-opacity:0.2091"/>
		<stop  offset="0.8958" style="stop-color:#32363A"/>
	</linearGradient>
	<path style="fill:url(#SVGID_00000172403138055467702660000017853705021724906158_);" d="M532.8,237.7l-22.3-5.7l33.3,35.1
		c9.2,11.5,28.9,20.7,41.1,28l-36.1-49.3L532.8,237.7z"/>
</g>
<path class="st38" d="M389.5,447.5L414,304l1-1l-24.5,145.5L389.5,447.5z"/>
<radialGradient id="SVGID_00000156569664940782282670000010294281344540712891_" cx="-245.4789" cy="621.0159" r="1" gradientTransform="matrix(-35.1717 30.6283 38.7987 44.5542 -32071.5625 -20013.6562)" gradientUnits="userSpaceOnUse">
	<stop  offset="0" style="stop-color:#FFFFFF"/>
	<stop  offset="0.42" style="stop-color:#D2D9DF"/>
	<stop  offset="0.79" style="stop-color:#7C8083"/>
	<stop  offset="1" style="stop-color:#2F3437"/>
</radialGradient>
<path style="fill:url(#SVGID_00000156569664940782282670000010294281344540712891_);" d="M670.7,200.6l5.8-2.9l-20-27
	c5.2-2.9,15.6-13,15.6-16.5c0-3.5-2.9-34.9,2.9-43.3c-16.1,0-19.7,29.9-22.6,38.1c-2.9,8.3-9.2,11.3-11.2,11l-29.4-24.3l-2.9,12.6
	l25.7,20.7l34.6,37.7L670.7,200.6z"/>
<radialGradient id="SVGID_00000157283642343180771480000018407018661729813134_" cx="-244.5892" cy="619.5024" r="1" gradientTransform="matrix(-42.5271 43.3849 70.0985 68.7127 -53188.9609 -31814.7598)" gradientUnits="userSpaceOnUse">
	<stop  offset="0" style="stop-color:#FFFFFF"/>
	<stop  offset="0.32" style="stop-color:#D9E2EB"/>
	<stop  offset="0.68" style="stop-color:#888D92"/>
	<stop  offset="1" style="stop-color:#5E6166"/>
</radialGradient>
<path style="fill:url(#SVGID_00000157283642343180771480000018407018661729813134_);" d="M640.6,161.4l-25.1-19.1l-0.6,2.3
	c8.6,6.1,25.4,18.2,27.2,20.7c1.8,2.5,21.7,24.5,31.5,35.4L673,202l-32.4-35.4c-1.8-1.7-19.4-15.5-28-22.1l2.3-4.4
	c9.9,6.6,25.7,19.4,27.2,20.7s8.6,0,10.2,0.6c-0.5-2-0.2-4,0.8-5.8c1.1-1.8,5,0,7.3,0.8c2.3,0.8,2.1-2.1,2.9-4.3
	c0.1-1.1,0.3-2.3,0.6-3.4l0.5-1.2c0.5-2.9,0.6-5.4,0.6-5.2s0,2.1-0.2,4.6c-0.2,4.9-0.5,11.9-1.5,12.4c-1.7,0.8-3.4,1.3-5.2,1.5
	c-0.5,0-1.4,2.9,0,8.1h-5l21.3,26.5l-24.9-28l6.6,0.8l-1.5-8.9c0.8-0.8,4.3-0.8,6.7-0.8c2.4,0,1.4-1.7,1.7-3.8
	c-0.3,1.2-0.8,2.1-1.7,2.5c-3.7,0.6-6-2.3-7.3-0.8c-1.4,1.5-0.6,5.4,0,7.4C654.5,165.7,643.5,163.7,640.6,161.4z"/>
<path class="st41" d="M606,101.3c5.2-5.7,15.4-15.3,15.4-15.3c2.4,7.2,8,25,9.2,30.8c1.2,5.8-4.1,22.6-5.6,29.2
	c0.9-9,3.4-20.2,2.5-29.2c-1-8.5-3-16.9-6.1-25c-2.4,3.2-7.6,10.1-10.1,12.6c-2.4,2.4-20,16.8-21.6,24.2c-1.5,7.4,4.7,18.9,7.7,23.9
	c3.1,5.1,7,12.7,3.9,17.9c-3.1,5.2-28.7,10.8-35.9,20.1c5.7-9.3,26.3-17.8,28.7-21.8c4.1-6.6-7.7-22.7-9.9-29.9
	c-1-6-1.4-11.4,1.2-16.9C590.1,111.3,598.2,110.1,606,101.3z"/>
<linearGradient id="SVGID_00000015349906650603406880000012206996948154116248_" gradientUnits="userSpaceOnUse" x1="671.262" y1="217.8424" x2="561.787" y2="376.3424" gradientTransform="matrix(1 0 0 -1 0 514)">
	<stop  offset="0.21" style="stop-color:#FFFFFF"/>
	<stop  offset="0.5429" style="stop-color:#DCE0E9"/>
	<stop  offset="0.85" style="stop-color:#636C75"/>
	<stop  offset="1" style="stop-color:#424951"/>
</linearGradient>
<path style="fill:url(#SVGID_00000015349906650603406880000012206996948154116248_);" d="M572,218l67.5-45l-9.5-15.5l-6-4.5
	c0-5.2,3.6-16.2,3.6-32.2c0-15.9-9.2-30.3-9.2-32.2c-6.1,5.1-14.4,18.8-25.1,27.1c-10.7,8.3-5.8,21.1-1.4,29.6
	c0,0,8.1,13.9,7.3,19.1c-0.8,5.2-20.2,16.5-30.8,22.5c-16,9-31,46.5-31,46.5L572,218z"/>
<linearGradient id="SVGID_00000133510363855649416760000005138637930050023563_" gradientUnits="userSpaceOnUse" x1="628.7869" y1="249.8419" x2="558.3049" y2="345.4819" gradientTransform="matrix(1 0 0 -1 0 514)">
	<stop  offset="0" style="stop-color:#F0F0F1"/>
	<stop  offset="0.4029" style="stop-color:#CBCFD5"/>
	<stop  offset="0.6757" style="stop-color:#EEF1F3"/>
	<stop  offset="0.9819" style="stop-color:#FFFFFF"/>
</linearGradient>
<path style="fill:url(#SVGID_00000133510363855649416760000005138637930050023563_);" d="M659.7,278.1c-6,0-5.7-1.1-9.8,0l-25.7-7.2
	c-4.1-1.2-61.8-15.8-91.4-25.3l3.8-10.7C542,222.6,547,210,555,199c8.5-11.6,22.6-18.6,34.5-26l21.3-16.9h17.6l39.8,49.8l-3.1,41.3
	L659.7,278.1z"/>
<linearGradient id="SVGID_00000038386149992846902660000007273224552695858310_" gradientUnits="userSpaceOnUse" x1="682.4924" y1="293.4245" x2="606.2075" y2="299.5735" gradientTransform="matrix(1 0 0 -1 0 514)">
	<stop  offset="5.000000e-02" style="stop-color:#9DA4A7"/>
	<stop  offset="0.33" style="stop-color:#D4DADE"/>
	<stop  offset="0.99" style="stop-color:#FFFFFF;stop-opacity:0"/>
</linearGradient>
<path style="fill:url(#SVGID_00000038386149992846902660000007273224552695858310_);" d="M659.7,278.1c-6,0-5.7-1.1-9.8,0
	c-6.9-2.4-21.6-7.7-25.7-8.7c-4.1-1.1-61.6-14.9-91.3-24.4l3.6-10.1c0,0-0.6-1.3,7.6-17.6S561,193.9,572,184s18.9-9.9,18.9-9.9
	l30.6-18.6l6.9,0.6l39.8,49.8l-3.1,41.3L659.7,278.1z"/>
<radialGradient id="SVGID_00000085963979535473018930000011606762882715968675_" cx="-242.147" cy="618.9941" r="1" gradientTransform="matrix(-7.5008 98.4842 125.0648 9.5253 -78616.1719 18061.1777)" gradientUnits="userSpaceOnUse">
	<stop  offset="7.810000e-02" style="stop-color:#454B53;stop-opacity:0.85"/>
	<stop  offset="0.49" style="stop-color:#E6E6E6"/>
	<stop  offset="0.99" style="stop-color:#FFFFFF;stop-opacity:0"/>
</radialGradient>
<path style="fill:url(#SVGID_00000085963979535473018930000011606762882715968675_);" d="M543.5,237l96-64.5L630,157l-6-4
	c0-5.2,3.6-16.2,3.6-32.2c0-15.9-9.2-30.3-9.2-32.2c-6.1,5.1-14.4,18.8-25.1,27.1c-10.7,8.3-5.8,21.1-1.4,29.6
	c0,0,8.1,13.9,7.3,19.1c-0.8,5.2-19.8,13.4-31.8,22.5c-20.5,15.5-33,54.5-33,54.5L543.5,237z"/>
<linearGradient id="SVGID_00000036953303342243441330000008024168976781207447_" gradientUnits="userSpaceOnUse" x1="614.3795" y1="419.2889" x2="614.3795" y2="332.275" gradientTransform="matrix(1 0 0 -1 0 514)">
	<stop  offset="0" style="stop-color:#DCE8EE;stop-opacity:0.5"/>
	<stop  offset="0.49" style="stop-color:#DAE2E9;stop-opacity:0.6"/>
	<stop  offset="1" style="stop-color:#FFFFFF;stop-opacity:0"/>
</linearGradient>
<path style="fill:url(#SVGID_00000036953303342243441330000008024168976781207447_);" d="M603.4,154.7c-1.8-2.9-5.2-9.5-6.7-12.6
	c-1.5-3.1,0.5-9.6,2.3-13.2c1.8-3.5,13.6-23,18.5-31.7c1.5,6.3,4.6,23.1,4.6,31.7c0,8.6,0.2,18.7-1.8,23.6l14.1,11.8l-18.3-11.8
	c0.9-3.1,0.3-11,1.5-16.2c1.2-5.2,0.3-22.7-1.5-30.9c-6,8.7-17.6,27.9-17,33.1c0.6,5.2,5.8,13.3,8.1,16.2c1.4,2.2,2.2,4.6,2.4,7.2
	c0.2,2.6-0.1,5.1-1,7.5c-1.7,4.1-9.9,12.1-13.9,15.6c3.8-4.9,7.2-10.2,10.2-15.6C607.8,163.6,605.5,158.4,603.4,154.7z"/>
<path class="st47" d="M607.6,99.5l12.9-17c2.4,7.3,7.7,24,7.7,32.5c1.2,5.8-2.4,21.4-3.7,28c0.8-9.1,1.6-18.9,0.8-28
	c-1.2-11.2-5.4-19.8-6.7-23.4c-2.7,3.8-5.6,7.4-8.7,10.9c-3.1,3.1-19.1,17-20.6,24.3c-1.5,7.4,7.2,21,10.1,26.2
	c2.9,5.2,3.8,10.7,0.9,15.9c-2.9,5.2-31.2,14.1-40.7,26.1c9-14,34-23.5,36.3-27.6c2.3-4.1-1.4-11.8-2.9-15.5l-6.6-15.5
	c-2.4-5.2-0.8-13.3,0.9-16.4C588.9,117,601.3,104.9,607.6,99.5z"/>
<radialGradient id="SVGID_00000042001451251488777400000011876580397987139984_" cx="-242.4363" cy="617.6753" r="1" gradientTransform="matrix(-16.4085 123.0478 373.5454 49.8124 -234030.6406 -707.9203)" gradientUnits="userSpaceOnUse">
	<stop  offset="0" style="stop-color:#D7DCDF"/>
	<stop  offset="0.3051" style="stop-color:#EDEDED"/>
	<stop  offset="1" style="stop-color:#868D92"/>
</radialGradient>
<path style="fill:url(#SVGID_00000042001451251488777400000011876580397987139984_);" d="M782.1,240.3c5.8-10.7,10.4-27.1,9.9-34.5
	l-3.7-5.1c-8.6,5.8-38.1,39.7-48.6,45c-13.3,6.6-44.8,15.5-53.7,21.3c-8.9,5.8-15.9,11.8-22.5,15.3l-130.7-36.6
	c13.3,19.3,44,64.6,48.6,72.9c4.6,8.3,36.4,35.7,54.6,53.9l63.2,3.7c9.9,0.5,30.6,1.2,34.7,0c4.1-1.2,21.3-70.8,22.8-78.9
	c1.5-8.1,3.7-9.8,0-10.4C766.8,275.4,774.4,254.1,782.1,240.3z"/>
<linearGradient id="SVGID_00000080900209624931127220000004852293670397536437_" gradientUnits="userSpaceOnUse" x1="619.7504" y1="170.1105" x2="665.7504" y2="278.6104" gradientTransform="matrix(1 0 0 -1 0 514)">
	<stop  offset="0" style="stop-color:#2F343C;stop-opacity:0.38"/>
	<stop  offset="1" style="stop-color:#FFFFFF;stop-opacity:0"/>
</linearGradient>
<path style="fill:url(#SVGID_00000080900209624931127220000004852293670397536437_);" d="M782.1,240.3c5.8-10.7,10.4-27.1,9.9-34.5
	l-3.7-5.1c-8.6,5.8-38.1,39.7-48.6,45c-13.3,6.6-44.8,15.5-53.7,21.3c-8.9,5.8-15.9,11.8-22.5,15.3l-130.7-36.6
	c13.3,19.3,44.1,64.9,48.7,73.2c4.6,8.3,44,43.5,54.5,53.6l63.2,3.7c9.9,0.5,30.6,1.2,34.7,0c4.1-1.2,21.3-70.8,22.8-78.9
	c1.5-8.1,3.7-9.8,0-10.4C766.8,275.4,774.4,254.1,782.1,240.3z"/>
<linearGradient id="SVGID_00000138557983445938304500000014755675610735054502_" gradientUnits="userSpaceOnUse" x1="629.2248" y1="248.4021" x2="573.2758" y2="323.6131" gradientTransform="matrix(1 0 0 -1 0 514)">
	<stop  offset="0.17" style="stop-color:#E0E3E4"/>
	<stop  offset="0.5866" style="stop-color:#FEFEFF"/>
	<stop  offset="1" style="stop-color:#D2D5DA"/>
</linearGradient>
<path style="fill:url(#SVGID_00000138557983445938304500000014755675610735054502_);" d="M651.2,275.8c1.6,1.3,3.7,2.2,5.8,2.2
	c-1.6,1.2-3.7,1.9-5.8,1.9c-3.7,0-10-0.9-13.7-4.2c-3.7-3.3-74.2-21.2-104-30.8l30-21l76.5-52l-15.8,54.2c-0.3,6.7,0,14.3,0,22
	c0.4,1,4.6,8.2,11.5,15.1C641.5,269.2,650.1,275,651.2,275.8z"/>
<linearGradient id="SVGID_00000147188064233432380900000015487494906085096863_" gradientUnits="userSpaceOnUse" x1="656.4912" y1="299.4615" x2="627.8202" y2="305.9814" gradientTransform="matrix(1 0 0 -1 0 514)">
	<stop  offset="0" style="stop-color:#777D80"/>
	<stop  offset="0.45" style="stop-color:#A3A09E"/>
	<stop  offset="1" style="stop-color:#CAD6DE"/>
</linearGradient>
<path style="fill:url(#SVGID_00000147188064233432380900000015487494906085096863_);" d="M639.8,172.9L624,245v-25L639.8,172.9z"/>
<path class="st52" d="M660.2,298.8c-5.6-4.7-11.5-9.1-17.6-13.2l-23.6-13.3l32.4,12.6c4.3,1.4,9.5,0.8,13.9,0.8s13.9-6.7,14.7-7.5
	c0.8-0.8,32.7-16.4,48.6-24.3c-9,7.7-29.8,24.7-40.5,31.9c-1.5,1-3,1.8-4.6,2.6c25.8-0.6,62.8-1.7,66.4-2.6
	c3.5-0.9,10.1-10,12.5-14.1c-2,4.7-6.6,14.2-9.5,15.5c-2.9,1.2-4.6,3.2-2.3,3.7c7.3,1.5,1.7,10.3,2.3,12.7c-1.1-1.8-2.6-10-6.7-11.2
	c-4.1-1.2-15.4,2.9-23.5,1.5c-8.1-1.4-32.6-1.5-44.8-1.5c2.9,2.1,9.2,7,10.2,8.9c1.1,1.8,4.4,21.9,6,31.7l9.4,41.7
	c9,0.9,24.3,3.9,25.8,3.9c-1.8,0-29.2-2.5-29.8-1.9c-0.6,0.6-8.4-39.3-7.7-42.3c0.8-3.1-6.6-22.1-10.2-25.7
	C677.9,304.8,665.4,303.2,660.2,298.8z"/>
<linearGradient id="SVGID_00000005950191846705692370000015811306548038873260_" gradientUnits="userSpaceOnUse" x1="613.8232" y1="271.8588" x2="622.3232" y2="294.8588" gradientTransform="matrix(1 0 0 -1 0 514)">
	<stop  offset="0.1719" style="stop-color:#86919B;stop-opacity:0.17"/>
	<stop  offset="0.91" style="stop-color:#32363C"/>
</linearGradient>
<path style="fill:url(#SVGID_00000005950191846705692370000015811306548038873260_);" d="M646.3,271.7l6,3.8h-7.3
	c-1.2,0-17.7-16.2-25.8-24.3L572,218l8.8-6c0,0,43.4,7.5,43.4,8.1v24.3C624.3,247.5,642.6,269.5,646.3,271.7z"/>
<linearGradient id="SVGID_00000164512445554297441700000014176814855859290512_" gradientUnits="userSpaceOnUse" x1="630.1497" y1="286.5308" x2="607.7687" y2="262.5938" gradientTransform="matrix(1 0 0 -1 0 514)">
	<stop  offset="0" style="stop-color:#1F252B"/>
	<stop  offset="1" style="stop-color:#18040D;stop-opacity:0"/>
</linearGradient>
<path style="fill:url(#SVGID_00000164512445554297441700000014176814855859290512_);" d="M646.3,271.7l6,3.8h-7.3
	c-1.2,0-17.7-16.2-25.8-24.3L572,218l8.8-6c0,0,43.4,7.5,43.4,8.1v24.3C624.3,247.5,642.6,269.5,646.3,271.7z"/>
<linearGradient id="SVGID_00000083088650330752092440000009744525060961271188_" gradientUnits="userSpaceOnUse" x1="615.3138" y1="269.1513" x2="621.8138" y2="277.1513" gradientTransform="matrix(1 0 0 -1 0 514)">
	<stop  offset="4.170000e-02" style="stop-color:#FFFFFF"/>
	<stop  offset="0.4487" style="stop-color:#D8DEE4"/>
	<stop  offset="0.7708" style="stop-color:#8B9096;stop-opacity:0.44"/>
	<stop  offset="1" style="stop-color:#62676B;stop-opacity:0"/>
</linearGradient>
<path style="fill:url(#SVGID_00000083088650330752092440000009744525060961271188_);" d="M614.8,245.2l25.1,23.6l0.6-0.8
	c0,0-17.3-19.1-20.6-22.8c-3.3-3.7-1.8-7.8-1.8-10.2s-3.2-17.1-3.2-17.1l-13.3-2.4l-5.5-1c-0.3,0.4,4,20.5,4,20.5s1.4,0.9,4.4,3.5
	c0,0-1.4-3-1.4-5c0-4.6,6.5-5,9.5-3c2.3,1.5,0.8,6.6,0,9.5C612.1,242,613.1,244.1,614.8,245.2z"/>
<radialGradient id="SVGID_00000119818924941393170300000001246803227230160000_" cx="-251.3221" cy="599.9233" r="1" gradientTransform="matrix(-3 -17 -12.7679 2.2532 7514.8008 -5388.709)" gradientUnits="userSpaceOnUse">
	<stop  offset="0.6198" style="stop-color:#FFFFFF"/>
	<stop  offset="1" style="stop-color:#FFFFFF;stop-opacity:0"/>
</radialGradient>
<path style="fill:url(#SVGID_00000119818924941393170300000001246803227230160000_);" d="M614.8,245.2l25.1,23.6l0.6-0.8
	c0,0-17.3-19.1-20.6-22.8c-3.3-3.7-1.8-7.8-1.8-10.2s-3.2-17.1-3.2-17.1l-13.3-2.4l-5.5-1c-0.3,0.4,4,20.5,4,20.5s1.4,0.9,4.4,3.5
	c0,0-1.4-3-1.4-5c0-4.6,6.5-5,9.5-3c2.3,1.5,0.8,6.6,0,9.5C612.1,242,613.1,244.1,614.8,245.2z"/>
<linearGradient id="SVGID_00000176765463578871953620000012421713986245331371_" gradientUnits="userSpaceOnUse" x1="635.193" y1="178.6425" x2="676.423" y2="196.2725" gradientTransform="matrix(1 0 0 -1 0 514)">
	<stop  offset="0" style="stop-color:#DFE4EB"/>
	<stop  offset="0.44" style="stop-color:#C7CDD5;stop-opacity:0.19"/>
</linearGradient>
<path style="fill:url(#SVGID_00000176765463578871953620000012421713986245331371_);" d="M638.2,324.7c-4.1-9.5-6.6-31.5-7.3-41.3
	l-9.8-9.8l23,13l18,14c8,3,15.2,4.7,22,11.5c5.4,4.1,13.3,44.9,15,64l-36-2C655.7,361.6,642.3,334,638.2,324.7z"/>
<path class="st58" d="M663.1,298.6c-3.7-2.4-3.3-9.3-15.1-11.1l11.5,0.9l10.3-2.3l11-5.8l29.4-15.5c-7.3,5.1-22,13.9-25.7,16.1
	c-4.2,2.3-8.6,4.3-13,6.1c2-0.3,4.9-0.5,7-0.9c2.1-0.5,19.9-13.9,29.5-17.6c-6,5.1-22.5,16.8-27.2,19.9c-4.7,3.1-7.6,1.4-11,0.8
	c3.4,2.5,8,6,12.2,8.9c4.1,2.9,8.1,14,7,16c-1.7-4.7-2.8-7.8-5.5-12c-3.1-3.6-9.5-7.8-13.7-10c-2.4-1.2-7.7-0.5-10.3-2
	c1.7,1.7,5.9,2.7,6.7,5c0.6,3.7,5,2.9,9.5,4.4c4.4,1.5,8.1,5.7,10.4,10.1l5.5,15.5c-4.4-8.1-5.5-16.4-10.7-20.5
	C675.6,300.4,670.9,303.8,663.1,298.6z"/>
<linearGradient id="SVGID_00000080193943453415071080000011211737784958272152_" gradientUnits="userSpaceOnUse" x1="726.093" y1="340.9807" x2="653.317" y2="265.8617" gradientTransform="matrix(1 0 0 -1 0 514)">
	<stop  offset="0.12" style="stop-color:#BFC8CD"/>
	<stop  offset="0.55" style="stop-color:#EDEDED"/>
	<stop  offset="0.61" style="stop-color:#C4CDD2"/>
	<stop  offset="0.97" style="stop-color:#E0E3E6"/>
</linearGradient>
<path style="fill:url(#SVGID_00000080193943453415071080000011211737784958272152_);" d="M665.5,282.4l69.7-37.5l-19.6-22.7
	c0,0-50.9-45.2-53.8-46.9c-2.9-1.7-5.7-4.6-17.4,0.6c8.7,27.1,18.4,96.6,14.8,100.2c-3.5,3.5-9.8,3.4-11,3.2L665.5,282.4z"/>
<radialGradient id="SVGID_00000016778183691744522070000009675344451119993003_" cx="-245.235" cy="609.6635" r="1" gradientTransform="matrix(3.8139 -33.1303 -34.2838 -3.9466 22544.9883 -5504.6479)" gradientUnits="userSpaceOnUse">
	<stop  offset="0.36" style="stop-color:#646B71"/>
	<stop  offset="1" style="stop-color:#B5BEC4"/>
</radialGradient>
<path style="fill:url(#SVGID_00000016778183691744522070000009675344451119993003_);" d="M687,196.5l27.4-20.5l-0.6,44.1l-12.2-8.7
	l-2.4-0.9l-7.3-5.5l-2.6-2.4C689.1,202.5,686.8,197.3,687,196.5z"/>
<radialGradient id="SVGID_00000171715795977383513670000008213317137589947801_" cx="-239.9012" cy="618.6536" r="1" gradientTransform="matrix(37.6511 59.1762 76.3939 -48.6059 -37508.9766 44487.4727)" gradientUnits="userSpaceOnUse">
	<stop  offset="0.75" style="stop-color:#6C757B;stop-opacity:0"/>
	<stop  offset="0.99" style="stop-color:#565A61"/>
</radialGradient>
<path style="fill:url(#SVGID_00000171715795977383513670000008213317137589947801_);" d="M790.3,217.3c0-2.9-1.2-5.5-8.4-3.4
	c-6.4,9.6-21.9,30-31.2,34c-9.3,4-10.4,3.5-12.2,2.9l-45,35.5c16.5-0.5,49.1-1.4,57.2-3.8c8.1-2.5,18.5-17.2,18.5-17.2
	c4.9-8.3,10.9-19.8,15-28.5C788.3,228.2,790.3,220.2,790.3,217.3z"/>
<path class="st62" d="M688.3,198.9l24.5-20.5v41.3c0,0-0.9,0.9-2.8-3.5c-1.8-4.4,0-30.5,0-30.5l-18,15.8l6,4.9l9.2-14.5l-2.3,19.9
	l2.3,1.8"/>
</svg>
