<svg width="752" height="575" viewBox="0 0 752 575" fill="none" xmlns="http://www.w3.org/2000/svg">
<path d="M292 183L318.5 165.5V246L389 287L360 304.5L292 265V183Z" fill="black" fill-opacity="0.15"/>
<path d="M361 147L387.5 129.5L453 169.5V243.5L424 261L426.5 188.5L361 147Z" fill="black" fill-opacity="0.16"/>
<path d="M319.919 167.193L388 127.887L456.081 167.193V245.807L388 285.113L319.919 245.807V167.193Z" stroke="#E9EAEF" stroke-width="5"/>
<path d="M365 308L391.5 290.5V371L462 412L433 429.5L365 390V308Z" fill="black" fill-opacity="0.15"/>
<path d="M434 272L460.5 254.5L526 294.5V368.5L497 386L499.5 313.5L434 272Z" fill="black" fill-opacity="0.16"/>
<path d="M392.919 292.193L461 252.887L529.081 292.193V370.807L461 410.113L392.919 370.807V292.193Z" stroke="#E9EAEF" stroke-width="5"/>
<path d="M219 58L245.5 40.5V121L316 162L287 179.5L219 140V58Z" fill="black" fill-opacity="0.15"/>
<path d="M288 22L314.5 4.5L380 44.5V118.5L351 136L353.5 63.5L288 22Z" fill="black" fill-opacity="0.16"/>
<path d="M246.919 42.1934L315 2.88675L383.081 42.1934V120.807L315 160.113L246.919 120.807V42.1934Z" stroke="#E9EAEF" stroke-width="5"/>
<path d="M146 183L172.5 165.5V246L243 287L214 304.5L146 265V183Z" fill="black" fill-opacity="0.15"/>
<path d="M215 147L241.5 129.5L307 169.5V243.5L278 261L280.5 188.5L215 147Z" fill="black" fill-opacity="0.16"/>
<path d="M173.919 167.193L242 127.887L310.081 167.193V245.807L242 285.113L173.919 245.807V167.193Z" stroke="#E9EAEF" stroke-width="5"/>
<path d="M73 58L99.5 40.5V121L170 162L141 179.5L73 140V58Z" fill="black" fill-opacity="0.15"/>
<path d="M142 22L168.5 4.5L234 44.5V118.5L205 136L207.5 63.5L142 22Z" fill="black" fill-opacity="0.16"/>
<path d="M100.919 42.1934L169 2.88675L237.081 42.1934V120.807L169 160.113L100.919 120.807V42.1934Z" stroke="#E9EAEF" stroke-width="5"/>
<path d="M218 309L244.5 291.5V372L315 413L286 430.5L218 391V309Z" fill="black" fill-opacity="0.15"/>
<path d="M287 273L313.5 255.5L379 295.5V369.5L350 387L352.5 314.5L287 273Z" fill="black" fill-opacity="0.16"/>
<path d="M245.919 293.193L314 253.887L382.081 293.193V371.807L314 411.113L245.919 371.807V293.193Z" stroke="#E9EAEF" stroke-width="5"/>
<path d="M72 309L98.5 291.5V372L169 413L140 430.5L72 391V309Z" fill="black" fill-opacity="0.15"/>
<path d="M141 273L167.5 255.5L233 295.5V369.5L204 387L206.5 314.5L141 273Z" fill="black" fill-opacity="0.16"/>
<path d="M99.9189 293.193L168 253.887L236.081 293.193V371.807L168 411.113L99.9189 371.807V293.193Z" stroke="#E9EAEF" stroke-width="5"/>
<path d="M0 183L26.5 165.5V246L97 287L68 304.5L0 265V183Z" fill="black" fill-opacity="0.15"/>
<path d="M69 147L95.5 129.5L161 169.5V243.5L132 261L134.5 188.5L69 147Z" fill="black" fill-opacity="0.16"/>
<path d="M27.9189 167.193L96 127.887L164.081 167.193V245.807L96 285.113L27.9189 245.807V167.193Z" stroke="#E9EAEF" stroke-width="5"/>
<path d="M330.848 97.1623L346.511 89.6199C343.72 89.6199 337.437 89.8354 334.628 90.6974C331.82 91.5594 330.938 95.3665 330.848 97.1623Z" fill="black"/>
<path d="M332.198 90.6974L335.708 98.2398L325.987 100.125V98.2398L332.198 90.6974Z" fill="black"/>
<path d="M329.227 100.934L326.257 94.4686L321.396 106.59L329.227 100.934Z" fill="black"/>
<path d="M324.636 106.59L322.746 100.125L313.294 112.247H316.535L324.636 106.59Z" fill="black"/>
<path d="M319.505 111.17L316.535 105.782L310.864 110.631C309.783 112.247 307.353 116.126 306.273 118.712C305.193 121.298 308.883 120.688 310.864 120.059L319.505 111.17Z" fill="black"/>
<path d="M250.642 109.823L244.7 123.292V156.694L265.765 175.011L286.829 138.376L285.208 135.413C287.909 133.887 294.822 130.457 300.872 128.948C306.921 127.44 314.914 118.084 318.155 113.594C317.345 112.786 313.564 111.924 304.922 114.941C296.281 117.958 286.379 126.793 282.508 130.834L277.377 123.292V142.417L265.765 165.852L249.291 148.074L250.102 116.557L263.874 101.203L278.187 87.7343L304.922 85.5793V81C297.901 81.6285 282.562 83.4244 277.377 85.5793C272.192 87.7343 260.904 100.125 250.642 109.823Z" fill="black"/>
<path d="M295.47 223.229C291.366 219.134 278.457 217.213 272.516 216.764H261.444L277.377 223.229C281.068 228.257 289.853 238.529 295.47 239.391C301.088 240.253 303.212 237.057 303.572 235.351C302.582 233.016 299.575 227.323 295.47 223.229Z" fill="black"/>
<path d="M303.572 368.151L317.075 373L314.914 354.144L303.572 368.151Z" fill="black"/>
<path d="M312.214 362.494C316.265 364.649 320.315 363.572 321.936 362.494C319.58 357.99 315.711 350.467 314.355 347.441C314.399 346.993 314.325 346.615 314.104 346.332C313.691 345.803 313.846 346.305 314.355 347.441C314.1 350.068 309.813 355.115 307.353 357.646C307.623 358.544 308.973 360.77 312.214 362.494Z" fill="black"/>
<path d="M305.193 351.45C308.523 352.348 316.103 353.605 319.775 351.45C316.805 345.165 311.026 333.241 311.674 335.827C312.322 338.412 307.623 347.32 305.193 351.45Z" fill="black"/>
<path d="M311.944 344.177C314.752 344.177 317.615 340.765 318.695 339.059C314.014 332.863 305.192 321.55 307.353 325.86C309.513 330.17 306.453 338.43 304.652 342.022C305.913 342.74 309.135 344.177 311.944 344.177Z" fill="black"/>
<path d="M310.864 331.517L318.425 333.671C315.634 327.207 310.864 309.105 310.864 304.579V285.454V246.125C310.864 240.091 301.322 235.171 296.551 233.465V287.878C296.551 293.535 299.521 302.963 302.762 314.815C305.354 324.297 303.752 335.108 300.602 338.79L310.864 331.517Z" fill="black"/>
<path d="M293.58 197.638L271.166 208.683L268.735 198.716L296.551 189.557L319.505 224.576L316.535 228.347C313.204 225.294 306.111 218.703 304.382 216.764C302.654 214.824 296.461 203.205 293.58 197.638Z" fill="black"/>
<path d="M378.107 246.125C378.102 246.127 378.096 246.128 378.091 246.129L355.152 251.244L383.508 255.284C382.968 254.296 380.077 254.388 378.107 251.244C376.763 249.098 376.846 246.418 378.091 246.129L378.107 246.125Z" fill="black"/>
<path d="M363.794 247.203C364.064 249.897 364.442 255.338 363.794 255.554L349.211 248.28L363.794 247.203Z" fill="black"/>
<path d="M356.233 253.937C357.313 253.937 356.683 248.55 356.233 245.856L334.898 247.472C341.56 249.627 355.152 253.937 356.233 253.937Z" fill="black"/>
<path d="M327.607 228.616C331.388 231.579 341.11 242.085 342.46 247.742C341.56 248.909 339.273 251.298 337.329 251.513C334.898 251.782 330.037 247.742 322.206 240.738C314.374 233.734 312.484 224.845 312.484 223.768C312.484 222.69 314.915 220.805 317.075 221.074C319.235 221.343 323.826 225.653 327.607 228.616Z" fill="black"/>
<path d="M148.292 97.1623L132.628 89.6199C135.419 89.6199 141.702 89.8354 144.511 90.6974C147.319 91.5594 148.202 95.3665 148.292 97.1623Z" fill="black"/>
<path d="M146.941 90.6974L143.431 98.2398L153.153 100.125V98.2398L146.941 90.6974Z" fill="black"/>
<path d="M149.912 100.934L152.882 94.4686L157.743 106.59L149.912 100.934Z" fill="black"/>
<path d="M154.503 106.59L156.393 100.125L165.845 112.247H162.604L154.503 106.59Z" fill="black"/>
<path d="M159.634 111.17L162.604 105.782L168.275 110.631C169.356 112.247 171.786 116.126 172.866 118.712C173.947 121.298 170.256 120.688 168.275 120.059L159.634 111.17Z" fill="black"/>
<path d="M228.498 109.823L234.439 123.292V156.694L213.375 175.011L192.31 138.376L193.931 135.413C191.23 133.887 184.317 130.457 178.268 128.948C172.218 127.44 164.225 118.084 160.984 113.594C161.794 112.786 165.575 111.924 174.217 114.941C182.858 117.958 192.76 126.793 196.631 130.834L201.762 123.292V142.417L213.375 165.852L229.848 148.074L229.038 116.557L215.265 101.203L200.952 87.7343L174.217 85.5793V81C181.238 81.6285 196.577 83.4244 201.762 85.5793C206.947 87.7343 218.235 100.125 228.498 109.823Z" fill="black"/>
<path d="M183.669 223.229C187.774 219.134 200.682 217.213 206.623 216.764H217.695L201.762 223.229C198.072 228.257 189.286 238.529 183.669 239.391C178.052 240.253 175.927 237.057 175.567 235.351C176.557 233.016 179.564 227.323 183.669 223.229Z" fill="black"/>
<path d="M175.567 368.151L162.064 373L164.225 354.144L175.567 368.151Z" fill="black"/>
<path d="M166.925 362.494C162.874 364.649 158.824 363.572 157.203 362.494C159.559 357.99 163.428 350.467 164.784 347.441C164.74 346.993 164.814 346.615 165.035 346.332C165.448 345.803 165.293 346.305 164.784 347.441C165.039 350.068 169.326 355.115 171.786 357.646C171.516 358.544 170.166 360.77 166.925 362.494Z" fill="black"/>
<path d="M173.947 351.45C170.616 352.348 163.036 353.605 159.364 351.45C162.334 345.165 168.114 333.241 167.465 335.827C166.817 338.412 171.516 347.32 173.947 351.45Z" fill="black"/>
<path d="M167.195 344.177C164.387 344.177 161.524 340.765 160.444 339.059C165.125 332.863 173.947 321.55 171.786 325.86C169.626 330.17 172.687 338.43 174.487 342.022C173.227 342.74 170.004 344.177 167.195 344.177Z" fill="black"/>
<path d="M168.276 331.517L160.714 333.671C163.505 327.207 168.276 309.105 168.276 304.579V285.454V246.125C168.276 240.091 177.817 235.171 182.588 233.465V287.878C182.588 293.535 179.618 302.963 176.377 314.815C173.785 324.297 175.387 335.108 178.538 338.79L168.276 331.517Z" fill="black"/>
<path d="M185.559 197.638L207.973 208.683L210.404 198.716L182.588 189.557L159.634 224.576L162.604 228.347C165.935 225.294 173.028 218.703 174.757 216.764C176.485 214.824 182.678 203.205 185.559 197.638Z" fill="black"/>
<path d="M101.032 246.125C101.038 246.127 101.043 246.128 101.048 246.129L123.987 251.244L95.6311 255.284C96.1712 254.296 99.0622 254.388 101.032 251.244C102.377 249.098 102.293 246.418 101.048 246.129L101.032 246.125Z" fill="black"/>
<path d="M115.345 247.203C115.075 249.897 114.697 255.338 115.345 255.554L129.928 248.28L115.345 247.203Z" fill="black"/>
<path d="M122.907 253.937C121.826 253.937 122.456 248.55 122.907 245.856L144.241 247.472C137.579 249.627 123.987 253.937 122.907 253.937Z" fill="black"/>
<path d="M151.532 228.616C147.751 231.579 138.029 242.085 136.679 247.742C137.579 248.909 139.866 251.298 141.81 251.513C144.241 251.782 149.102 247.742 156.933 240.738C164.765 233.734 166.655 224.845 166.655 223.768C166.655 222.69 164.225 220.805 162.064 221.074C159.904 221.343 155.313 225.653 151.532 228.616Z" fill="black"/>
<g opacity="0.8">
<path d="M176.107 165.314L217.965 173.395L214.724 193.059L168.815 217.841H112.914L75.3769 193.059V176.897L46.7512 155.616L38.9197 137.838L52.1523 129.756L74.2967 128.948L114.535 134.336L176.107 165.314Z" fill="white"/>
<path d="M146.671 180.129L113.454 217.303H168.815L146.671 180.129Z" fill="url(#paint0_linear_1082_1619)"/>
<path d="M146.671 180.399L169.085 217.303L214.454 193.328L173.406 184.978L146.671 180.399Z" fill="url(#paint1_linear_1082_1619)"/>
<path d="M146.671 180.399L112.374 217.303L76.187 193.598L109.134 159.926L146.671 180.399Z" fill="url(#paint2_linear_1082_1619)"/>
<path d="M74.8368 128.948L114.535 134.336L86.7192 149.69L75.917 176.897L46.4812 155.616L57.2833 137.568L74.8368 128.948Z" fill="url(#paint3_linear_1082_1619)"/>
<path d="M176.377 165.314L147.211 180.399L214.725 193.328L217.965 173.395L176.377 165.314Z" fill="url(#paint4_linear_1082_1619)"/>
<path d="M113.724 134.336L87.7993 149.151L147.211 180.668L175.837 164.775L113.724 134.336Z" fill="url(#paint5_linear_1082_1619)"/>
<path d="M108.593 160.465L75.647 193.328V176.897L108.593 160.465Z" fill="url(#paint6_linear_1082_1619)"/>
<path d="M108.593 160.465L86.4491 149.151L75.647 176.897L108.593 160.465Z" fill="url(#paint7_linear_1082_1619)"/>
<path d="M57.2833 137.568L46.4812 155.616L38.9197 137.838L57.2833 137.568Z" fill="url(#paint8_linear_1082_1619)"/>
</g>
<g opacity="0.8">
<path d="M305.817 165.857L263.321 174.051L266.611 193.988L313.22 219.115H369.974L408.084 193.988V177.601L437.146 156.025L445.097 137.999L431.662 129.805L409.18 128.986L368.329 134.448L305.817 165.857Z" fill="white"/>
<path d="M335.702 180.879L369.425 218.569H313.22L335.702 180.879Z" fill="url(#paint9_linear_1082_1619)"/>
<path d="M335.702 181.152L312.946 218.569L266.885 194.261L308.559 185.795L335.702 181.152Z" fill="url(#paint10_linear_1082_1619)"/>
<path d="M335.702 181.152L370.522 218.569L407.261 194.534L373.812 160.395L335.702 181.152Z" fill="url(#paint11_linear_1082_1619)"/>
<path d="M408.632 128.986L368.329 134.448L396.568 150.016L407.535 177.601L437.42 156.025L426.453 137.726L408.632 128.986Z" fill="url(#paint12_linear_1082_1619)"/>
<path d="M305.543 165.857L335.154 181.152L266.611 194.261L263.321 174.051L305.543 165.857Z" fill="url(#paint13_linear_1082_1619)"/>
<path d="M369.151 134.448L395.472 149.47L335.154 181.425L306.092 165.311L369.151 134.448Z" fill="url(#paint14_linear_1082_1619)"/>
<path d="M374.36 160.941L407.809 194.261V177.601L374.36 160.941Z" fill="url(#paint15_linear_1082_1619)"/>
<path d="M374.36 160.941L396.842 149.47L407.809 177.601L374.36 160.941Z" fill="url(#paint16_linear_1082_1619)"/>
<path d="M426.453 137.726L437.42 156.025L445.097 137.999L426.453 137.726Z" fill="url(#paint17_linear_1082_1619)"/>
</g>
<path d="M216.615 122.753L213.373 136.76L197.44 152.923L208.512 177.166L197.44 201.41L208.512 223.768L191.229 237.775L183.397 278.45L197.44 311.852L241.729 342.292V342.022L286.018 311.619L300.061 278.256L292.229 237.629L274.946 223.638L284.668 200.063L273.596 180.129L284.938 154.493L270.085 136.734L267.385 122.753L241.729 114.133L216.615 122.753Z" fill="#FCC04F"/>
<path d="M257.123 131.912L244.159 126.524L254.421 165.314L244.159 183.631L251.181 208.413L244.159 239.93L254.421 262.827V295.959L251.181 326.668L241.73 341.753L257.122 332.055L270.895 307.273L273.325 282.221V253.399L254.421 236.697L265.764 203.834L254.421 183.631L265.764 170.162L257.123 131.912Z" fill="white"/>
<path d="M223.635 125.447L241.189 116.288H249.29L241.189 113.864L217.695 122.483L212.563 135.683L197.44 153.461L208.782 177.166L197.44 202.487L208.782 224.037C205.002 226.461 196.684 231.903 193.659 234.273C189.879 237.236 185.558 257.439 185.558 273.063C185.558 285.562 193.479 303.771 197.44 311.314L241.189 342.022C233.447 333.582 217.37 315.624 214.994 311.314C212.023 305.926 202.841 283.299 200.951 273.063C199.439 264.874 223.186 258.786 228.497 254.476C224.806 253.399 207.702 246.503 208.782 240.469C209.863 234.435 213.914 234.991 217.695 235.889C217.695 235.889 233.627 239.122 238.758 239.122C243.89 239.122 263.874 232.388 263.874 232.388L238.758 234.273L223.635 227L217.695 210.03L220.125 182.015L232.818 173.126L217.695 169.624V148.613L223.635 135.683V125.447Z" fill="#F87A46"/>
<path d="M202.301 202.757L213.103 223.498L214.995 228.886L237.138 235.889C225.256 235.889 209.971 231.579 208.242 231.579C206.082 231.579 199.33 238.044 202.301 244.24C204.678 249.196 225.796 254.566 236.058 256.631C243.709 255.823 261.119 253.399 269.544 250.166C280.076 246.126 282.865 237.593 281.157 235.889C274.135 228.886 256.222 236.608 244.16 235.889C250.101 234.991 267.925 228.886 267.925 228.886L275.756 210.03C275.756 210.03 270.985 199.883 269.544 197.1C262.883 198.985 247.94 202.757 241.459 202.757C233.357 202.757 205.813 194.945 205.813 194.945C207.973 190.096 209.807 185.599 211.754 180.937C217.245 179.86 234.329 177.166 241.459 177.166C248.588 177.166 264.594 179.052 271.706 180.129L271.705 174.203C265.495 171.779 250.317 167.469 241.459 167.469C232.601 167.469 216.255 170.342 211.214 172.587L206.353 162.081L229.306 155.347H251.722L275.756 164.236L278.996 154L272.245 145.111L265.224 126.793L268.195 124.1L270.626 133.797L285.207 154V169.624L278.996 189.557L285.207 200.063L282.237 207.875V225.923C283.227 228.796 292.229 238.044 292.229 238.044L300.331 278.989C300.331 278.989 289.798 304.579 286.828 309.967C284.451 314.277 252.891 335.827 243.079 341.484L274.135 314.816L241.459 322.089C247.94 318.766 262.055 313.567 264.953 312.122C277.916 305.657 285.748 288.686 285.207 282.491C284.667 276.295 251.451 301.616 241.459 301.616C226.606 301.616 223.095 297.845 223.095 297.845C223.095 297.845 195.28 273.602 193.659 278.989C192.039 284.376 198.25 301.886 202.301 305.926C206.352 309.967 215.264 313.469 215.264 313.469L225.256 318.317L237.138 322.089L209.322 318.317L223.095 328.284L241.459 341.484L213.913 328.284L197.17 312.122C193.569 303.592 184.586 284.646 182.857 272.793C181.129 260.941 188.168 241.995 191.229 234.543L206.352 223.498L197.17 202.757L204.191 180.399L205.813 175.281L204.191 169.624L197.17 151.576L210.403 135.413L214.724 124.1L218.505 124.638L216.074 135.413L202.301 154L211.754 177.166L202.301 202.757Z" fill="black"/>
<path d="M260.762 133.258L269.005 124.417C269.005 124.417 262.467 115.085 256.782 113.12C251.097 111.156 242.853 113.12 242.853 113.12L245.241 129.487L260.762 133.258Z" fill="black" stroke="black"/>
<path d="M223.776 133.258L214.995 124.578C214.995 124.578 221.959 115.416 228.015 113.487C234.071 111.558 242.853 113.487 242.853 113.487L240.92 129.756L223.776 133.258Z" fill="black" stroke="black"/>
<path d="M251.992 155.347L256.043 156.963L263.334 159.657L266.012 169.893L264.414 171.779C260.779 170.71 256.602 169.649 252.532 168.816L254.669 165.044L251.992 155.347Z" fill="#777777"/>
<path d="M249.571 201.587L244.407 183.362L247.671 177.435C251.044 177.706 255.233 177.974 258.743 178.513L254.669 183.362L263.215 198.583C258.951 199.66 253.948 200.815 249.571 201.587Z" fill="#777777"/>
<path d="M245.299 235.658L245.344 235.455C247.958 234.944 252.023 233.785 256.003 232.564L255.233 234.796C251.757 235.332 248.361 235.737 245.299 235.658Z" fill="#777777"/>
<path d="M250.987 254.341L254.669 262.557V295.69L254.583 296.509C258.331 294.542 262.373 292.207 266.259 289.962C268.661 288.574 271.003 287.22 273.18 286.01L273.573 281.952V253.129L269.877 249.864C269.849 249.875 269.821 249.886 269.792 249.897C265.187 251.663 257.899 253.189 250.987 254.341Z" fill="#777777"/>
<path d="M270.216 308.67C268.646 309.891 266.972 310.97 265.201 311.852C264.085 312.409 261.307 313.522 257.941 314.87C256.205 315.566 254.312 316.324 252.41 317.101L252.158 319.493L265.902 316.434L270.216 308.67Z" fill="#777777"/>
<path d="M260.167 326.754L257.37 331.786L248.339 338.152C246.358 339.406 244.646 340.454 243.327 341.214L260.167 326.754Z" fill="#777777"/>
<path d="M241.01 340.713L241.707 341.214L240.92 340.837L241.01 340.713Z" fill="#777777"/>
<defs>
<linearGradient id="paint0_linear_1082_1619" x1="120.476" y1="189.557" x2="117.251" y2="218.113" gradientUnits="userSpaceOnUse">
<stop stop-color="#EEEEEE"/>
<stop offset="1" stop-color="white"/>
</linearGradient>
<linearGradient id="paint1_linear_1082_1619" x1="133.708" y1="177.435" x2="167.442" y2="190.693" gradientUnits="userSpaceOnUse">
<stop offset="0.0975774" stop-color="#EEEEEE"/>
<stop offset="1" stop-color="white"/>
</linearGradient>
<linearGradient id="paint2_linear_1082_1619" x1="123.176" y1="220.805" x2="96.0029" y2="174.682" gradientUnits="userSpaceOnUse">
<stop stop-color="#EEEEEE"/>
<stop offset="1" stop-color="white"/>
</linearGradient>
<linearGradient id="paint3_linear_1082_1619" x1="66.1951" y1="122.483" x2="51.945" y2="159.412" gradientUnits="userSpaceOnUse">
<stop stop-color="#EEEEEE"/>
<stop offset="0.437646" stop-color="white"/>
<stop offset="0.439718" stop-color="#F3F3F3"/>
<stop offset="1" stop-color="white"/>
</linearGradient>
<linearGradient id="paint4_linear_1082_1619" x1="182.318" y1="196.561" x2="187.961" y2="160.461" gradientUnits="userSpaceOnUse">
<stop stop-color="#EEEEEE"/>
<stop offset="1" stop-color="white"/>
</linearGradient>
<linearGradient id="paint5_linear_1082_1619" x1="136.409" y1="180.399" x2="154.169" y2="152.882" gradientUnits="userSpaceOnUse">
<stop stop-color="#EEEEEE"/>
<stop offset="1" stop-color="white"/>
</linearGradient>
<linearGradient id="paint6_linear_1082_1619" x1="82.6684" y1="165.583" x2="79.4438" y2="194.138" gradientUnits="userSpaceOnUse">
<stop stop-color="#EEEEEE"/>
<stop offset="1" stop-color="white"/>
</linearGradient>
<linearGradient id="paint7_linear_1082_1619" x1="88.0694" y1="142.148" x2="90.7565" y2="172.857" gradientUnits="userSpaceOnUse">
<stop stop-color="#EEEEEE"/>
<stop offset="1" stop-color="white"/>
</linearGradient>
<linearGradient id="paint8_linear_1082_1619" x1="41.8903" y1="144.303" x2="58.8984" y2="139.972" gradientUnits="userSpaceOnUse">
<stop offset="0.103456" stop-color="#EEEEEE"/>
<stop offset="1" stop-color="white"/>
</linearGradient>
<linearGradient id="paint9_linear_1082_1619" x1="362.297" y1="190.438" x2="365.562" y2="219.391" gradientUnits="userSpaceOnUse">
<stop stop-color="#EEEEEE"/>
<stop offset="1" stop-color="white"/>
</linearGradient>
<linearGradient id="paint10_linear_1082_1619" x1="348.862" y1="178.147" x2="314.626" y2="191.62" gradientUnits="userSpaceOnUse">
<stop offset="0.0975774" stop-color="#EEEEEE"/>
<stop offset="1" stop-color="white"/>
</linearGradient>
<linearGradient id="paint11_linear_1082_1619" x1="359.555" y1="222.12" x2="387.089" y2="175.323" gradientUnits="userSpaceOnUse">
<stop stop-color="#EEEEEE"/>
<stop offset="1" stop-color="white"/>
</linearGradient>
<linearGradient id="paint12_linear_1082_1619" x1="417.405" y1="122.431" x2="431.84" y2="159.886" gradientUnits="userSpaceOnUse">
<stop stop-color="#EEEEEE"/>
<stop offset="0.437646" stop-color="white"/>
<stop offset="0.439718" stop-color="#F3F3F3"/>
<stop offset="1" stop-color="white"/>
</linearGradient>
<linearGradient id="paint13_linear_1082_1619" x1="299.511" y1="197.539" x2="293.797" y2="160.934" gradientUnits="userSpaceOnUse">
<stop stop-color="#EEEEEE"/>
<stop offset="1" stop-color="white"/>
</linearGradient>
<linearGradient id="paint14_linear_1082_1619" x1="346.121" y1="181.152" x2="328.123" y2="153.23" gradientUnits="userSpaceOnUse">
<stop stop-color="#EEEEEE"/>
<stop offset="1" stop-color="white"/>
</linearGradient>
<linearGradient id="paint15_linear_1082_1619" x1="400.681" y1="166.13" x2="403.946" y2="195.084" gradientUnits="userSpaceOnUse">
<stop stop-color="#EEEEEE"/>
<stop offset="1" stop-color="white"/>
</linearGradient>
<linearGradient id="paint16_linear_1082_1619" x1="395.197" y1="142.369" x2="392.477" y2="173.506" gradientUnits="userSpaceOnUse">
<stop stop-color="#EEEEEE"/>
<stop offset="1" stop-color="white"/>
</linearGradient>
<linearGradient id="paint17_linear_1082_1619" x1="442.081" y1="144.554" x2="424.816" y2="140.152" gradientUnits="userSpaceOnUse">
<stop offset="0.103456" stop-color="#EEEEEE"/>
<stop offset="1" stop-color="white"/>
</linearGradient>
</defs>
</svg>
