<svg width="300" height="165" viewBox="0 0 300 165" fill="none" xmlns="http://www.w3.org/2000/svg">
<mask id="mask0" mask-type="alpha" maskUnits="userSpaceOnUse" x="0" y="0" width="300" height="165">
<rect width="300" height="165" fill="#C4C4C4"/>
</mask>
<g mask="url(#mask0)">
<rect y="1" width="300" height="164" fill="#F1F1F1"/>
<rect y="111" width="300" height="53" fill="url(#paint0_linear)"/>
<path d="M69 58L72 77H111L109 58H69Z" fill="url(#paint1_linear)"/>
<path d="M76.5 107.5L78.8182 135.5H118.5L113.5 107.5H76.5Z" fill="url(#paint2_linear)"/>
<path d="M220 58H179.048L177 77H216.929L220 58Z" fill="url(#paint3_linear)"/>
<path d="M212 108L209.627 136H169L174.119 108H212Z" fill="url(#paint4_linear)"/>
<path d="M111.5 67.5H177.5L174 86.5H114.5L111.5 67.5Z" fill="url(#paint5_linear)"/>
<path d="M119 117L121.318 145H167.295L170 117H119Z" fill="url(#paint6_linear)"/>
<path d="M113 79H69L72 108.5H116.5L113 79Z" fill="white"/>
<path d="M219.5 79H176.5L175.5 108.5H216.5L219.5 79Z" fill="white"/>
<path d="M177.5 87H112L115 116.5H174.5L177.5 87Z" fill="white"/>
<path d="M143.707 91L133 94.818L134.633 108.975L143.707 114L152.78 108.975L154.413 94.818L143.707 91Z" fill="#DD0031"/>
<path d="M143.707 91V93.553V93.5415V105.191V114L152.78 108.975L154.413 94.818L143.707 91Z" fill="#C3002F"/>
<path d="M143.706 93.5415L137.013 108.549H139.509L140.854 105.191H146.535L147.881 108.549H150.376L143.706 93.5415ZM145.661 103.121H141.751L143.706 98.4175L145.661 103.121Z" fill="white"/>
<path d="M101.707 82L91 85.818L92.633 99.9745L101.707 105L110.78 99.9745L112.413 85.818L101.707 82Z" fill="#DD0031"/>
<path d="M101.707 82V84.553V84.5415V96.191V105L110.78 99.9745L112.413 85.818L101.707 82Z" fill="#C3002F"/>
<path d="M101.706 84.5415L95.0135 99.549H97.509L98.8545 96.191H104.535L105.881 99.549H108.376L101.706 84.5415ZM103.661 94.121H99.7515L101.706 89.4175L103.661 94.121Z" fill="white"/>
<path d="M186.707 82L176 85.818L177.633 99.9745L186.707 105L195.78 99.9745L197.413 85.818L186.707 82Z" fill="#DD0031"/>
<path d="M186.707 82V84.553V84.5415V96.191V105L195.78 99.9745L197.413 85.818L186.707 82Z" fill="#C3002F"/>
<path d="M186.706 84.5415L180.013 99.549H182.509L183.854 96.191H189.535L190.881 99.549H193.376L186.706 84.5415ZM188.661 94.121H184.751L186.706 89.4175L188.661 94.121Z" fill="white"/>
<path d="M70 44.5L82 28H124L135 46H144V55.5H64V44.5H70Z" fill="#AD7E03"/>
<path d="M152 43.5L164 27H206L217 45H226V54.5H146V43.5H152Z" fill="#AD037E"/>
<path d="M111 54.5L123 38H165L176 56H185V65.5H105V54.5H111Z" fill="#03ADAD"/>
<path d="M225.468 41.8272H221.354L210.884 26.1217C210.323 25.5607 209.482 25 208.64 25H163.768C162.926 25 162.085 25.561 161.524 26.4024L154.898 36.2184H133.563L126.748 26.122C126.187 25.561 125.346 25.0003 124.504 25.0003H79.6317C78.7903 25.0003 77.9489 25.5613 77.1076 26.4027L66.8242 41.8276H62.8044C61.1217 41.8272 60 42.9489 60 44.6317V55.8497C60 57.5324 61.1217 58.6541 62.8044 58.6541H66.1663L68.4107 76.8325C68.1221 77.0234 67.8418 77.2285 67.5723 77.4444C66.4505 78.8468 65.6092 80.8099 65.8895 82.4926L68.1333 106.051C68.3742 108.941 70.4789 111.206 73.1998 111.789L76.2662 133.255C76.8272 137.181 80.1927 139.986 84.1188 139.986H118.094L118.334 141.668C118.895 145.595 122.26 148.399 126.187 148.399H162.085C166.011 148.399 169.377 145.595 170.218 141.668L170.458 139.986H204.153C208.079 139.986 211.445 137.181 212.566 132.694L215.571 111.661C218.038 110.913 219.858 108.707 219.858 105.77L222.102 82.2119C222.382 80.2489 221.541 78.5661 220.419 77.1638C220.398 77.1431 220.375 77.123 220.354 77.1026L222.632 58.6538H225.467C227.15 58.6538 228.272 57.5321 228.272 55.8494V44.6317C228.272 42.9489 227.151 41.8272 225.468 41.8272ZM156.476 41.8272H165.17L167.975 46.3144L172.518 53.0453H115.845L120.236 46.5408C120.35 46.4662 120.464 46.3906 120.578 46.3144L123.382 41.8272H132.076H156.476ZM116.932 114.745C116.371 114.745 116.091 114.465 116.091 113.904L115.53 108.855C115.472 108.565 115.376 108.288 115.251 108.03L113.566 90.3455C113.566 90.0652 113.847 89.7845 113.847 89.7845C114.051 89.703 114.241 89.6084 114.419 89.5042H173.864C174.144 89.5042 174.425 89.7845 174.425 89.7845C174.513 89.7845 174.571 89.8144 174.613 89.8611C174.669 89.9886 174.705 90.1487 174.705 90.3452L172.461 113.903C172.461 114.09 172.427 114.243 172.365 114.368C172.241 114.43 172.088 114.464 171.901 114.464H170.779C170.359 114.464 169.966 114.566 169.612 114.744H118.054L116.932 114.745ZM173.769 76.5627C173.548 76.91 173.387 77.3044 173.303 77.7251L172.543 83.6146H115.771L113.847 69.8725H174.706L173.769 76.5627ZM178.071 64.2633H177.791H110.482H107.677V58.6541H110.482H177.791H180.595V64.2633H178.071ZM222.663 53.0453H183.4H179.286L175.547 47.4368L219.859 47.4364H222.663V53.0453ZM165.17 30.6089H207.238L214.811 41.8269H171.901L168.816 37.3398C168.255 36.7787 167.414 36.218 166.572 36.218H161.524L165.17 30.6089ZM81.034 30.6089H123.102L126.748 36.218H121.7C120.858 36.218 120.017 36.7791 119.456 37.3398L119.437 37.37C119.35 37.4508 119.263 37.533 119.175 37.6201L116.371 41.8269H73.7421L81.034 30.6089ZM65.6092 47.4361H68.4136H112.632L108.892 53.0453H104.873H68.4136H65.6092V47.4361ZM102.068 58.6545V67.0681C102.068 68.7508 103.19 69.8725 104.873 69.8725H107.958L108.54 73.7566L108.783 75.4817H73.7421L71.4984 58.6545H102.068ZM71.7791 81.3712C71.7791 81.3712 72.0594 81.0909 72.3401 81.0909H109.573L110.166 85.2987C110.063 85.394 109.962 85.4919 109.868 85.5941C108.589 86.8013 107.885 88.3697 107.907 90.1464C107.902 90.4037 107.916 90.6581 107.958 90.9059C107.958 90.9056 107.958 90.9062 107.958 90.9059L109.36 106.331H75.7055H74.5838C74.0228 106.331 73.7425 106.051 73.7425 105.49L71.4987 81.9319C71.4987 81.6516 71.7791 81.3712 71.7791 81.3712ZM84.1191 134.377C82.9974 134.377 81.8754 133.536 81.5951 132.414L78.7903 111.941H109.921L110.201 114.465C110.201 114.466 110.201 114.467 110.201 114.468C110.444 117.357 112.547 119.62 115.267 120.203L117.212 134.377L84.1191 134.377ZM162.085 142.791H125.907C124.785 142.791 123.943 141.949 123.663 140.828L123.368 138.676C123.658 138.073 123.663 137.576 123.663 136.901L121.299 120.355H167.133L164.329 140.828C164.049 141.949 163.207 142.791 162.085 142.791ZM206.397 132.414C206.117 133.535 205.275 134.377 204.153 134.377H171.26L173.295 120.133C174.55 119.802 175.648 119.109 176.446 118.16C177.349 117.171 177.929 115.891 178.071 114.464L178.352 111.94H209.202L206.397 132.414ZM214.53 105.49C214.53 105.841 214.42 106.082 214.201 106.213C213.858 106.107 213.494 106.051 213.128 106.051H178.938L180.315 90.9066C180.586 89.0089 179.806 87.1129 178.234 85.722C178.182 85.6618 178.13 85.6024 178.075 85.5445L178.414 82.8357L178.66 81.0906H215.932C216.213 81.0906 216.213 81.3709 216.493 81.3709C216.774 81.3709 216.774 81.6512 216.774 81.9319L214.53 105.49ZM214.567 75.201H179.515L180.315 69.8725H183.4C185.083 69.8725 186.204 68.7508 186.204 67.0681V58.6545H216.774L214.567 75.201Z" fill="black"/>
</g>
<defs>
<linearGradient id="paint0_linear" x1="0" y1="137.5" x2="300" y2="137.5" gradientUnits="userSpaceOnUse">
<stop stop-color="#554023"/>
<stop offset="1" stop-color="#C99846"/>
</linearGradient>
<linearGradient id="paint1_linear" x1="119.386" y1="131" x2="169.614" y2="131" gradientUnits="userSpaceOnUse">
<stop stop-color="#B6A796"/>
<stop offset="0.604167" stop-color="#F3E5D5"/>
</linearGradient>
<linearGradient id="paint2_linear" x1="119.386" y1="131" x2="169.614" y2="131" gradientUnits="userSpaceOnUse">
<stop stop-color="#B6A796"/>
<stop offset="0.604167" stop-color="#F3E5D5"/>
</linearGradient>
<linearGradient id="paint3_linear" x1="119.386" y1="131" x2="169.614" y2="131" gradientUnits="userSpaceOnUse">
<stop stop-color="#B6A796"/>
<stop offset="0.604167" stop-color="#F3E5D5"/>
</linearGradient>
<linearGradient id="paint4_linear" x1="119.386" y1="131" x2="169.614" y2="131" gradientUnits="userSpaceOnUse">
<stop stop-color="#B6A796"/>
<stop offset="0.604167" stop-color="#F3E5D5"/>
</linearGradient>
<linearGradient id="paint5_linear" x1="119.386" y1="131" x2="169.614" y2="131" gradientUnits="userSpaceOnUse">
<stop stop-color="#B6A796"/>
<stop offset="0.604167" stop-color="#F3E5D5"/>
</linearGradient>
<linearGradient id="paint6_linear" x1="119.386" y1="131" x2="169.614" y2="131" gradientUnits="userSpaceOnUse">
<stop stop-color="#B6A796"/>
<stop offset="0.604167" stop-color="#F3E5D5"/>
</linearGradient>
</defs>
</svg>
