<svg width="300" height="165" viewBox="0 0 300 165" fill="none" xmlns="http://www.w3.org/2000/svg">
<mask id="mask0" mask-type="alpha" maskUnits="userSpaceOnUse" x="0" y="0" width="300" height="165">
<rect width="300" height="165" fill="#C4C4C4"/>
</mask>
<g mask="url(#mask0)">
<rect width="300" height="165" fill="#F6EEBA"/>
<path fill-rule="evenodd" clip-rule="evenodd" d="M220.049 37.1856L218.689 34.3528C225.905 30.9207 233.978 29 242.5 29C251.083 29 259.211 30.9484 266.466 34.4269L265.143 37.2775C258.29 33.9857 250.611 32.1415 242.5 32.1415C234.465 32.1415 226.853 33.9514 220.049 37.1856ZM226.248 50.0996L224.865 47.2186C230.332 44.5177 236.489 43 243 43C249.316 43 255.298 44.4281 260.642 46.979L259.297 49.8779C254.362 47.5169 248.835 46.1948 243 46.1948C236.984 46.1948 231.297 47.5998 226.248 50.0996ZM231.96 62L231.434 60.904C234.864 59.0531 238.806 58 243 58C247.068 58 250.9 58.991 254.257 60.7399L253.672 62H249.284C247.303 61.3929 245.193 61.0652 243 61.0652C240.807 61.0652 238.697 61.3929 236.716 62H231.96Z" fill="black" fill-opacity="0.5"/>
<path fill-rule="evenodd" clip-rule="evenodd" d="M113.36 37.1856L112 34.3528C119.215 30.9207 127.289 29 135.811 29C144.394 29 152.522 30.9484 159.777 34.4269L158.454 37.2775C151.601 33.9857 143.921 32.1415 135.811 32.1415C127.776 32.1415 120.164 33.9514 113.36 37.1856ZM119.558 50.0996L118.176 47.2186C123.643 44.5177 129.8 43 136.311 43C142.627 43 148.609 44.4281 153.952 46.979L152.607 49.8779C147.673 47.5169 142.146 46.1948 136.311 46.1948C130.295 46.1948 124.608 47.5998 119.558 50.0996ZM125.271 62L124.745 60.904C128.175 59.0531 132.117 58 136.311 58C140.379 58 144.21 58.991 147.567 60.7399L146.983 62H142.595C140.614 61.3929 138.503 61.0652 136.311 61.0652C134.118 61.0652 132.008 61.3929 130.026 62H125.271Z" fill="black" fill-opacity="0.5"/>
<rect y="124" width="300" height="41" fill="#860303"/>
<rect x="38" y="147" width="66" height="4" fill="black" fill-opacity="0.5"/>
<path d="M80.5799 144.965H43.8685L34.4197 106.273H90.0287L80.5799 144.965Z" fill="#734F42"/>
<path d="M62.2243 96.68C62.2243 96.68 52.5798 88.4484 36.9708 80.3664C21.3622 72.2841 19.0352 49.9218 19.0352 49.9218C19.0352 49.9218 28.6794 58.1534 44.2879 66.2356C59.897 74.3174 62.2243 96.68 62.2243 96.68Z" fill="#6CC04A"/>
<path d="M62.2242 96.68C62.2242 96.68 71.8685 88.4484 87.4773 80.3664C103.086 72.2839 105.413 49.9218 105.413 49.9218C105.413 49.9218 95.7687 58.1534 80.1606 66.2356C64.5518 74.3174 62.2242 96.68 62.2242 96.68Z" fill="#6CC04A"/>
<path d="M62.2243 76.8071C62.2243 76.8071 54.2198 66.9731 40.3211 56.2127C26.4229 45.4522 28.1606 23.0354 28.1606 23.0354C28.1606 23.0354 36.1651 32.8693 50.063 43.6301C63.9617 54.3908 62.2243 76.8071 62.2243 76.8071Z" fill="#4E9D2D"/>
<path d="M62.2243 76.8071C62.2243 76.8071 70.2285 66.9731 84.127 56.2127C98.0254 45.4522 96.288 23.0354 96.288 23.0354C96.288 23.0354 88.2835 32.8693 74.3856 43.6301C60.4866 54.3908 62.2243 76.8071 62.2243 76.8071Z" fill="#4E9D2D"/>
<path d="M94.2311 105.328C94.2311 106.233 93.4906 106.973 92.5857 106.973H31.8623C30.9574 106.973 30.2169 106.232 30.2169 105.328V100.779C30.2169 99.8744 30.9574 99.1342 31.8623 99.1342H92.5857C93.4906 99.1342 94.2311 99.8744 94.2311 100.779V105.328V105.328Z" fill="#B28978"/>
<path d="M106.361 48.1201C105.624 47.7325 104.726 47.8327 104.093 48.3726C103.998 48.4536 94.4172 56.5607 79.225 64.4276C72.8642 67.7211 67.6947 73.7442 64.1906 81.9111V77.6315C65.9381 75.5828 73.5191 67.0005 85.3737 57.8224C91.4567 53.1126 95.6225 45.5541 97.4203 35.964C98.7573 28.8324 98.336 23.1181 98.3175 22.8784C98.2533 22.0483 97.6897 21.3411 96.8953 21.0928C96.0997 20.8444 95.2349 21.1051 94.7093 21.7506C94.6305 21.8473 86.6955 31.5245 73.1391 42.0206C69.394 44.9201 66.3774 48.9007 64.1906 53.769V37.7022H60.1194V53.4638C57.9447 48.7344 54.9761 44.8591 51.3097 42.0206C37.7819 31.5466 29.818 21.8468 29.7398 21.7503C29.2144 21.1048 28.3486 20.8449 27.5537 21.0925C26.7591 21.3408 26.1958 22.0481 26.1315 22.8782C26.1131 23.1179 25.6915 28.8324 27.0288 35.9638C28.8265 45.5536 32.9927 53.1121 39.0754 57.8224C50.6482 66.7822 58.1435 75.1696 60.1197 77.4694V81.5912C56.6187 73.587 51.5017 67.6777 45.2246 64.4273C30.0317 56.5604 20.4517 48.4536 20.3572 48.3728C19.7237 47.8324 18.8255 47.732 18.0884 48.1194C17.3516 48.5067 16.9246 49.3038 17.011 50.1319C17.0356 50.3711 17.6504 56.068 20.2499 62.842C23.7452 71.9514 29.2038 78.6361 36.0356 82.1737C47.8883 88.3106 56.3242 94.5936 59.5059 97.0981H31.8623C29.8328 97.0981 28.1815 98.7492 28.1815 100.779V105.327C28.1815 107.357 29.8328 109.008 31.8623 109.008H32.9922L41.8907 145.447C42.1132 146.358 42.93 147 43.8683 147H80.5798C81.5181 147 82.3347 146.358 82.5574 145.447L91.4559 109.008H92.586C94.6155 109.008 96.2668 107.357 96.2668 105.328V100.779C96.2668 98.7494 94.6155 97.0984 92.586 97.0984H64.9431C68.1251 94.5936 76.5608 88.3108 88.4134 82.1739C95.2455 78.6363 100.704 71.9514 104.199 62.8422C106.799 56.068 107.413 50.3714 107.439 50.1322C107.524 49.3043 107.098 48.5077 106.361 48.1201ZM75.6313 45.2396C84.2286 38.5832 90.5594 32.327 94.223 28.4185C93.8157 35.4088 91.7766 47.7155 82.8807 54.6035C74.2783 61.2638 67.9445 67.5237 64.2819 71.4317C64.6813 64.448 66.7108 52.146 75.6313 45.2396ZM37.9072 78.5586C27.9162 73.3852 23.6942 61.6464 22.0353 54.8446C26.3429 58.0293 33.6967 63.0433 43.352 68.0429C53.343 73.2163 57.565 84.9541 59.2244 91.7566C54.9165 88.5719 47.5627 83.5582 37.9072 78.5586ZM41.5673 54.6035C32.6708 47.715 30.6321 35.4081 30.2251 28.4185C33.8889 32.327 40.22 38.5832 48.8168 45.2396C57.4515 51.925 59.626 63.7144 60.1189 70.7933V71.3807C56.4492 67.4698 50.1339 61.2357 41.5673 54.6035ZM78.9816 142.929H45.4667L37.1834 109.009H87.2649L78.9816 142.929ZM92.1954 101.17V104.937H32.2529V101.17H92.1954ZM86.5414 78.5586C76.88 83.5609 69.523 88.5778 65.2163 91.7625C66.8666 84.9651 71.0783 73.2301 81.0966 68.0429C90.7518 63.0433 98.1059 58.0293 102.413 54.8446C100.754 61.6474 96.5324 73.3852 86.5414 78.5586Z" fill="black"/>
<path d="M116 72H158.613V83.8182H224.387V72H267V142H224.387V136.545H212.344V142H203.08V136.545H176.215V142H167.877V136.545H158.613V142H116V72Z" fill="#656565"/>
<circle cx="137" cy="89" r="11" fill="#C4C4C4"/>
<circle cx="244" cy="89" r="11" fill="#C4C4C4"/>
<circle cx="137.5" cy="120.5" r="13.5" fill="#C4C4C4"/>
<circle cx="243.5" cy="120.5" r="13.5" fill="#C4C4C4"/>
<path fill-rule="evenodd" clip-rule="evenodd" d="M137.12 84.944C133.631 84.944 130.793 87.755 130.793 91.21C130.793 94.6651 133.631 97.476 137.12 97.476C140.608 97.476 143.446 94.6651 143.446 91.21C143.446 87.755 140.608 84.944 137.12 84.944ZM137.12 92.7767C136.248 92.7767 135.538 92.0739 135.538 91.2103C135.538 90.3465 136.248 89.644 137.12 89.644C137.992 89.644 138.701 90.3468 138.701 91.2103C138.702 92.0739 137.992 92.7767 137.12 92.7767Z" fill="black"/>
<path fill-rule="evenodd" clip-rule="evenodd" d="M123.676 91.21C123.676 83.8679 129.707 77.8948 137.12 77.8948C144.533 77.8948 150.564 83.8679 150.564 91.21C150.564 98.5522 144.533 104.525 137.12 104.525C129.707 104.525 123.676 98.5522 123.676 91.21ZM128.421 91.21C128.421 95.9607 132.323 99.8259 137.12 99.8259C141.917 99.8259 145.819 95.9607 145.819 91.21C145.819 86.4594 141.917 82.5942 137.12 82.5942C132.323 82.5942 128.421 86.4594 128.421 91.21Z" fill="black"/>
<path d="M123.281 80.6165C123.281 81.4815 122.572 82.1828 121.699 82.1828C120.826 82.1828 120.118 81.4815 120.118 80.6165C120.118 79.7514 120.826 79.0501 121.699 79.0501C122.572 79.0501 123.281 79.7514 123.281 80.6165Z" fill="black"/>
<path d="M152.541 82.1828C153.414 82.1828 154.122 81.4815 154.122 80.6165C154.122 79.7514 153.414 79.0501 152.541 79.0501C151.667 79.0501 150.959 79.7514 150.959 80.6165C150.959 81.4815 151.667 82.1828 152.541 82.1828Z" fill="black"/>
<path d="M123.281 136.384C123.281 137.249 122.572 137.95 121.699 137.95C120.826 137.95 120.118 137.249 120.118 136.384C120.118 135.519 120.826 134.818 121.699 134.818C122.572 134.818 123.281 135.519 123.281 136.384Z" fill="black"/>
<path d="M152.541 137.95C153.414 137.95 154.122 137.249 154.122 136.384C154.122 135.519 153.414 134.818 152.541 134.818C151.667 134.818 150.959 135.519 150.959 136.384C150.959 137.249 151.667 137.95 152.541 137.95Z" fill="black"/>
<path d="M123.281 108.5C123.281 109.365 122.572 110.067 121.699 110.067C120.826 110.067 120.118 109.365 120.118 108.5C120.118 107.635 120.826 106.934 121.699 106.934C122.572 106.934 123.281 107.635 123.281 108.5Z" fill="black"/>
<path d="M152.541 110.067C153.414 110.067 154.122 109.365 154.122 108.5C154.122 107.635 153.414 106.934 152.541 106.934C151.667 106.934 150.959 107.635 150.959 108.5C150.959 109.365 151.667 110.067 152.541 110.067Z" fill="black"/>
<path fill-rule="evenodd" clip-rule="evenodd" d="M137.12 114.668C132.672 114.668 129.053 118.253 129.053 122.658C129.053 127.063 132.672 130.647 137.12 130.647C141.567 130.647 145.186 127.063 145.186 122.658C145.186 118.253 141.568 114.668 137.12 114.668ZM137.12 125.947C135.288 125.947 133.798 124.471 133.798 122.658C133.798 120.844 135.288 119.368 137.12 119.368C138.951 119.368 140.441 120.844 140.441 122.658C140.441 124.472 138.951 125.947 137.12 125.947Z" fill="black"/>
<path fill-rule="evenodd" clip-rule="evenodd" d="M120.513 122.658C120.513 113.588 127.962 106.209 137.12 106.209C146.277 106.209 153.727 113.588 153.727 122.658C153.727 131.727 146.277 139.106 137.12 139.106C127.962 139.106 120.513 131.727 120.513 122.658ZM125.257 122.658C125.257 129.136 130.579 134.406 137.12 134.406C143.661 134.406 148.982 129.136 148.982 122.658C148.982 116.179 143.661 110.909 137.12 110.909C130.579 110.909 125.257 116.179 125.257 122.658Z" fill="black"/>
<path fill-rule="evenodd" clip-rule="evenodd" d="M208.176 117.115H178.866C177.549 116.227 175.959 115.707 174.249 115.707C169.714 115.707 166.024 119.361 166.024 123.852C166.024 128.344 169.714 131.998 174.249 131.998C175.961 131.998 177.552 131.477 178.87 130.587H208.177C209.996 130.587 211.705 129.885 212.983 128.614C214.267 127.342 214.975 125.651 214.975 123.851C214.974 120.137 211.924 117.115 208.176 117.115ZM174.249 127.299C172.33 127.299 170.769 125.753 170.769 123.852C170.769 121.952 172.33 120.406 174.249 120.406C176.167 120.406 177.728 121.952 177.728 123.852C177.728 125.753 176.167 127.299 174.249 127.299ZM209.624 125.294C209.239 125.677 208.725 125.887 208.176 125.887H182.214C182.383 125.237 182.474 124.555 182.474 123.852C182.474 123.149 182.383 122.466 182.213 121.814H208.177C209.309 121.814 210.229 122.728 210.229 123.851C210.229 124.395 210.015 124.907 209.624 125.294Z" fill="black"/>
<path d="M178.109 91.7386H173.365V99.571H178.109V91.7386Z" fill="black"/>
<path d="M170.73 94.8716H165.985V99.571H170.73V94.8716Z" fill="black"/>
<path d="M180.748 94.8716H185.493V99.571H180.748V94.8716Z" fill="black"/>
<path d="M192.872 91.7386H188.127V99.571H192.872V91.7386Z" fill="black"/>
<path d="M195.508 94.8716H200.252V99.571H195.508V94.8716Z" fill="black"/>
<path d="M207.635 91.7386H202.891V99.571H207.635V91.7386Z" fill="black"/>
<path d="M210.27 94.8716H215.015V99.571H210.27V94.8716Z" fill="black"/>
<path d="M228.459 82.1828C229.333 82.1828 230.041 81.4815 230.041 80.6165C230.041 79.7514 229.333 79.0501 228.459 79.0501C227.586 79.0501 226.878 79.7514 226.878 80.6165C226.878 81.4815 227.586 82.1828 228.459 82.1828Z" fill="black"/>
<path d="M260.882 80.6165C260.882 81.4815 260.174 82.1828 259.301 82.1828C258.428 82.1828 257.719 81.4815 257.719 80.6165C257.719 79.7514 258.428 79.0501 259.301 79.0501C260.174 79.0501 260.882 79.7514 260.882 80.6165Z" fill="black"/>
<path d="M228.459 137.95C229.333 137.95 230.041 137.249 230.041 136.384C230.041 135.519 229.333 134.818 228.459 134.818C227.586 134.818 226.878 135.519 226.878 136.384C226.878 137.249 227.586 137.95 228.459 137.95Z" fill="black"/>
<path d="M260.882 136.384C260.882 137.249 260.174 137.95 259.301 137.95C258.428 137.95 257.719 137.249 257.719 136.384C257.719 135.519 258.428 134.818 259.301 134.818C260.174 134.818 260.882 135.519 260.882 136.384Z" fill="black"/>
<path d="M228.459 110.067C229.333 110.067 230.041 109.365 230.041 108.5C230.041 107.635 229.333 106.934 228.459 106.934C227.586 106.934 226.878 107.635 226.878 108.5C226.878 109.365 227.586 110.067 228.459 110.067Z" fill="black"/>
<path d="M260.882 108.5C260.882 109.365 260.174 110.067 259.301 110.067C258.428 110.067 257.719 109.365 257.719 108.5C257.719 107.635 258.428 106.934 259.301 106.934C260.174 106.934 260.882 107.635 260.882 108.5Z" fill="black"/>
<path fill-rule="evenodd" clip-rule="evenodd" d="M235.814 122.658C235.814 118.253 239.433 114.668 243.88 114.668C248.328 114.668 251.946 118.253 251.947 122.658C251.947 127.063 248.328 130.647 243.88 130.647C239.433 130.647 235.814 127.063 235.814 122.658ZM240.559 122.658C240.559 124.471 242.049 125.947 243.88 125.947C245.712 125.947 247.202 124.472 247.202 122.658C247.202 120.844 245.712 119.368 243.88 119.368C242.049 119.368 240.559 120.844 240.559 122.658Z" fill="black"/>
<path fill-rule="evenodd" clip-rule="evenodd" d="M243.88 106.209C234.723 106.209 227.273 113.588 227.273 122.658C227.273 131.727 234.723 139.106 243.88 139.106C253.038 139.106 260.487 131.727 260.487 122.658C260.487 113.588 253.037 106.209 243.88 106.209ZM243.88 134.406C237.339 134.406 232.018 129.136 232.018 122.658C232.018 116.179 237.339 110.909 243.88 110.909C250.421 110.909 255.743 116.179 255.743 122.658C255.742 129.136 250.421 134.406 243.88 134.406Z" fill="black"/>
<path fill-rule="evenodd" clip-rule="evenodd" d="M237.554 91.21C237.554 87.755 240.392 84.944 243.88 84.944C247.369 84.944 250.207 87.755 250.207 91.21C250.207 94.6651 247.369 97.476 243.88 97.476C240.392 97.476 237.554 94.6651 237.554 91.21ZM242.299 91.2103C242.299 92.0739 243.008 92.7767 243.88 92.7767C244.752 92.7767 245.462 92.0739 245.462 91.2103C245.462 90.3468 244.752 89.644 243.88 89.644C243.008 89.644 242.299 90.3465 242.299 91.2103Z" fill="black"/>
<path fill-rule="evenodd" clip-rule="evenodd" d="M243.88 77.8948C236.467 77.8948 230.436 83.8679 230.436 91.21C230.436 98.5522 236.467 104.525 243.88 104.525C251.293 104.525 257.324 98.5522 257.324 91.21C257.324 83.8679 251.293 77.8948 243.88 77.8948ZM243.88 99.8259C239.083 99.8259 235.181 95.9607 235.181 91.21C235.181 86.4594 239.083 82.5942 243.88 82.5942C248.677 82.5942 252.579 86.4594 252.579 91.21C252.579 95.9607 248.677 99.8259 243.88 99.8259Z" fill="black"/>
<path fill-rule="evenodd" clip-rule="evenodd" d="M219.76 83.9066V72H268V145H219.76V138.734H215.015V145H200.78V138.734H180.219V145H165.985V138.734H161.24V145H113V72H161.24V83.9066H219.76ZM117.745 140.301H156.495V76.6997H117.745V140.301ZM165.985 107.404H161.24V108.971H165.985V107.404ZM170.73 140.301H175.474V138.734H170.73V140.301ZM205.525 140.301H210.27V138.734H205.525V140.301ZM161.24 134.035H219.76V113.67H161.24V134.035ZM170.73 107.404V108.971H175.474V107.404H170.73ZM180.219 107.404V108.971H200.781V107.404H180.219ZM205.526 107.404V108.971H210.271V107.404H205.526ZM215.015 108.971H219.76V107.404H215.015V108.971ZM161.24 102.705H219.76V88.6065H161.24V102.705ZM224.505 76.6997V140.301H263.255V76.6997H224.505Z" fill="black"/>
<rect x="110" y="145" width="161" height="4" fill="black" fill-opacity="0.5"/>
</g>
</svg>
