<svg width="300" height="165" viewBox="0 0 300 165" fill="none" xmlns="http://www.w3.org/2000/svg">
<mask id="mask0" mask-type="alpha" maskUnits="userSpaceOnUse" x="0" y="0" width="300" height="165">
<rect width="300" height="165" fill="#C4C4C4"/>
</mask>
<g mask="url(#mask0)">
<rect width="300" height="220" fill="#D4D4D4"/>
<rect y="132" width="300" height="33" fill="#6F7807"/>
<rect width="300" height="165" fill="url(#paint0_radial)"/>
<path d="M107.247 54.2337C107.247 43.8085 115.698 35.3571 126.123 35.3571H175.351C185.776 35.3571 194.227 43.8085 194.227 54.2337V81.6234C194.227 88.6865 190.348 94.8436 184.604 98.0803V100.5H202.74C206.011 100.5 208.662 103.151 208.662 106.422C208.662 109.693 206.011 112.344 202.74 112.344H184.604V145.286H171.08V172.305H176.703C182.293 172.305 186.825 176.779 186.825 182.299H157.584V145.286H142.409V182.299H113.539C113.539 176.779 118.013 172.305 123.533 172.305H129.084V145.286H115.39V112.344H97.2533C93.9826 112.344 91.3312 109.693 91.3312 106.422C91.3312 103.151 93.9826 100.5 97.2533 100.5H115.39V97.1688H115.412C110.479 93.7635 107.247 88.0709 107.247 81.6234V54.2337Z" fill="white"/>
<path d="M126.308 67.5584C127.841 67.5584 129.084 66.3155 129.084 64.7824V61.8214C129.084 60.2883 127.841 59.0454 126.308 59.0454C124.775 59.0454 123.532 60.2883 123.532 61.8214V64.7824C123.532 66.3155 124.775 67.5584 126.308 67.5584Z" fill="black"/>
<path d="M173.685 67.5584C175.218 67.5584 176.461 66.3155 176.461 64.7824V61.8214C176.461 60.2883 175.218 59.0454 173.685 59.0454C172.152 59.0454 170.909 60.2883 170.909 61.8214V64.7824C170.909 66.3155 172.152 67.5584 173.685 67.5584Z" fill="black"/>
<mask id="path-8-inside-1" fill="white">
<path fill-rule="evenodd" clip-rule="evenodd" d="M211.994 106.237C211.994 110.063 208.5 114.935 203.5 114.935H188.305V141.769C188.305 146.566 184.403 150.468 179.607 150.468H176.124C175.664 152.346 174.748 154.046 173.499 155.445C173.499 155.447 173.499 155.45 173.499 155.452C173.5 155.456 173.5 155.46 173.5 155.464V168.604H176.646C184.708 168.604 191.266 175.163 191.266 183.224C191.266 184.757 190.023 186 188.49 186H155.919C154.386 186 153.143 184.757 153.143 183.224V171.38C153.143 169.847 154.386 168.604 155.919 168.604H156.104V155.464C156.104 155.458 156.105 155.452 156.105 155.445C154.856 154.046 153.94 152.346 153.479 150.468H146.514C146.053 152.346 145.137 154.046 143.889 155.445C143.889 155.452 143.89 155.458 143.89 155.464V168.604H144.075C145.608 168.604 146.851 169.847 146.851 171.38V183.224C146.851 184.757 145.608 186 144.075 186H111.503C109.97 186 108.727 184.757 108.727 183.224C108.727 175.163 115.286 168.604 123.347 168.604H126.493V155.464C126.493 155.458 126.494 155.452 126.494 155.445C125.246 154.046 124.33 152.346 123.869 150.468H120.386C115.59 150.468 111.688 146.566 111.688 141.769V114.935H99.474V139.45C102.913 140.612 105.396 143.866 105.396 147.692V153.614C105.396 155.147 104.153 156.39 102.62 156.39C101.087 156.39 99.8442 155.147 99.8442 153.614V147.692C99.8442 145.957 98.4329 144.545 96.6981 144.545C94.9633 144.545 93.5519 145.957 93.5519 147.692V153.614C93.5519 155.147 92.3091 156.39 90.776 156.39C89.2429 156.39 88 155.147 88 153.614V147.692C88 143.866 90.4836 140.612 93.9221 139.45V114.478C90.4836 113.317 88 110.063 88 106.237C88 101.441 91.9019 97.539 96.6981 97.539H109.323C105.316 93.7877 102.805 88.4575 102.805 82.5487V52.9383C102.805 41.6112 112.02 32.3961 123.347 32.3961H132.416V24.9513C130.865 24.009 129.825 22.3093 129.825 20.3669C129.825 17.4077 132.232 15 135.192 15C138.151 15 140.558 17.4077 140.558 20.3669C140.558 22.3093 139.518 24.009 137.968 24.9513V32.3961H162.026V24.9513C160.476 24.009 159.435 22.3093 159.435 20.3669C159.435 17.4077 161.843 15 164.802 15C167.761 15 170.169 17.4077 170.169 20.3669C170.169 22.3093 169.128 24.009 167.578 24.9513V32.3961H176.646C187.973 32.3961 197.188 41.6112 197.188 52.9383V82.5487C197.188 88.4575 194.677 93.7877 190.67 97.539H203.295C204.396 97.539 205.449 97.7444 206.419 98.119L215.472 91.2399V65.0775C212.017 63.838 209.521 60.3652 209.521 56.2825V49.9625C209.521 48.3264 210.77 47 212.311 47C213.851 47 215.1 48.3264 215.1 49.9625V56.2825C215.1 58.1338 216.518 59.64 218.261 59.64C220.004 59.64 221.422 58.1338 221.422 56.2825V49.9625C221.422 48.3264 222.671 47 224.211 47C225.751 47 227 48.3264 227 49.9625V56.2825C227 60.3652 224.505 63.838 221.05 65.0775V94.5L211.203 102.614C211.71 103.718 211.994 104.945 211.994 106.237ZM200.149 106.237C200.149 107.972 201.561 109.383 203.295 109.383C205.03 109.383 206.442 107.972 206.442 106.237C206.442 104.502 205.03 103.091 203.295 103.091C201.561 103.091 200.149 104.502 200.149 106.237ZM123.347 37.9481C115.082 37.9481 108.357 44.6726 108.357 52.9383V70.7045C108.357 73.754 114.343 76.8313 119.468 78.5398C127.581 81.2444 138.424 82.7338 149.997 82.7338C161.57 82.7338 172.412 81.2444 180.525 78.5398C185.651 76.8313 191.636 73.754 191.636 70.7045V52.9383C191.636 44.6726 184.912 37.9481 176.646 37.9481H123.347ZM108.357 79.3959V82.5487C108.357 90.8144 115.082 97.539 123.347 97.5386H176.646C184.912 97.5386 191.636 90.8141 191.636 82.5483V79.3956C189.426 80.929 186.4 82.434 182.281 83.8068C173.617 86.6953 162.151 88.2857 149.997 88.2857C137.842 88.2857 126.377 86.6953 117.712 83.8071C113.594 82.434 110.567 80.9294 108.357 79.3959ZM99.8442 106.237C99.8442 104.502 98.4329 103.091 96.6981 103.091C94.9633 103.091 93.5519 104.502 93.5519 106.237C93.5519 107.972 94.9633 109.383 96.6981 109.383C98.4329 109.383 99.8442 107.972 99.8442 106.237ZM105.396 106.237C105.396 107.346 105.185 108.407 104.805 109.383H111.688V103.091H104.805C105.185 104.067 105.396 105.128 105.396 106.237ZM114.714 180.448H141.299V174.156H123.347C119.315 174.156 115.889 176.801 114.714 180.448ZM132.045 158.916V168.604H138.338V158.916C137.336 159.197 136.282 159.351 135.192 159.351C134.102 159.351 133.047 159.197 132.045 158.916ZM129.758 150.468C130.771 152.442 132.824 153.799 135.192 153.799C137.559 153.799 139.611 152.442 140.624 150.468H129.758ZM158.695 180.448H185.28C184.105 176.801 180.678 174.156 176.646 174.156H158.695V180.448ZM161.656 158.916V168.604H167.948V158.916C166.946 159.197 165.892 159.351 164.802 159.351C163.712 159.351 162.657 159.197 161.656 158.916ZM159.369 150.468C160.382 152.442 162.435 153.799 164.802 153.799C167.169 153.799 169.222 152.442 170.235 150.468H159.369ZM179.607 144.916C181.342 144.916 182.753 143.504 182.753 141.769V102.164C180.823 102.766 178.772 103.091 176.646 103.091H123.347C121.222 103.091 119.17 102.766 117.24 102.164V141.769C117.24 143.504 118.652 144.916 120.386 144.916H179.607ZM195.188 103.091H188.305V109.383H195.188C194.808 108.407 194.597 107.346 194.597 106.237C194.597 105.128 194.808 104.067 195.188 103.091Z"/>
</mask>
<path fill-rule="evenodd" clip-rule="evenodd" d="M211.994 106.237C211.994 110.063 208.5 114.935 203.5 114.935H188.305V141.769C188.305 146.566 184.403 150.468 179.607 150.468H176.124C175.664 152.346 174.748 154.046 173.499 155.445C173.499 155.447 173.499 155.45 173.499 155.452C173.5 155.456 173.5 155.46 173.5 155.464V168.604H176.646C184.708 168.604 191.266 175.163 191.266 183.224C191.266 184.757 190.023 186 188.49 186H155.919C154.386 186 153.143 184.757 153.143 183.224V171.38C153.143 169.847 154.386 168.604 155.919 168.604H156.104V155.464C156.104 155.458 156.105 155.452 156.105 155.445C154.856 154.046 153.94 152.346 153.479 150.468H146.514C146.053 152.346 145.137 154.046 143.889 155.445C143.889 155.452 143.89 155.458 143.89 155.464V168.604H144.075C145.608 168.604 146.851 169.847 146.851 171.38V183.224C146.851 184.757 145.608 186 144.075 186H111.503C109.97 186 108.727 184.757 108.727 183.224C108.727 175.163 115.286 168.604 123.347 168.604H126.493V155.464C126.493 155.458 126.494 155.452 126.494 155.445C125.246 154.046 124.33 152.346 123.869 150.468H120.386C115.59 150.468 111.688 146.566 111.688 141.769V114.935H99.474V139.45C102.913 140.612 105.396 143.866 105.396 147.692V153.614C105.396 155.147 104.153 156.39 102.62 156.39C101.087 156.39 99.8442 155.147 99.8442 153.614V147.692C99.8442 145.957 98.4329 144.545 96.6981 144.545C94.9633 144.545 93.5519 145.957 93.5519 147.692V153.614C93.5519 155.147 92.3091 156.39 90.776 156.39C89.2429 156.39 88 155.147 88 153.614V147.692C88 143.866 90.4836 140.612 93.9221 139.45V114.478C90.4836 113.317 88 110.063 88 106.237C88 101.441 91.9019 97.539 96.6981 97.539H109.323C105.316 93.7877 102.805 88.4575 102.805 82.5487V52.9383C102.805 41.6112 112.02 32.3961 123.347 32.3961H132.416V24.9513C130.865 24.009 129.825 22.3093 129.825 20.3669C129.825 17.4077 132.232 15 135.192 15C138.151 15 140.558 17.4077 140.558 20.3669C140.558 22.3093 139.518 24.009 137.968 24.9513V32.3961H162.026V24.9513C160.476 24.009 159.435 22.3093 159.435 20.3669C159.435 17.4077 161.843 15 164.802 15C167.761 15 170.169 17.4077 170.169 20.3669C170.169 22.3093 169.128 24.009 167.578 24.9513V32.3961H176.646C187.973 32.3961 197.188 41.6112 197.188 52.9383V82.5487C197.188 88.4575 194.677 93.7877 190.67 97.539H203.295C204.396 97.539 205.449 97.7444 206.419 98.119L215.472 91.2399V65.0775C212.017 63.838 209.521 60.3652 209.521 56.2825V49.9625C209.521 48.3264 210.77 47 212.311 47C213.851 47 215.1 48.3264 215.1 49.9625V56.2825C215.1 58.1338 216.518 59.64 218.261 59.64C220.004 59.64 221.422 58.1338 221.422 56.2825V49.9625C221.422 48.3264 222.671 47 224.211 47C225.751 47 227 48.3264 227 49.9625V56.2825C227 60.3652 224.505 63.838 221.05 65.0775V94.5L211.203 102.614C211.71 103.718 211.994 104.945 211.994 106.237ZM200.149 106.237C200.149 107.972 201.561 109.383 203.295 109.383C205.03 109.383 206.442 107.972 206.442 106.237C206.442 104.502 205.03 103.091 203.295 103.091C201.561 103.091 200.149 104.502 200.149 106.237ZM123.347 37.9481C115.082 37.9481 108.357 44.6726 108.357 52.9383V70.7045C108.357 73.754 114.343 76.8313 119.468 78.5398C127.581 81.2444 138.424 82.7338 149.997 82.7338C161.57 82.7338 172.412 81.2444 180.525 78.5398C185.651 76.8313 191.636 73.754 191.636 70.7045V52.9383C191.636 44.6726 184.912 37.9481 176.646 37.9481H123.347ZM108.357 79.3959V82.5487C108.357 90.8144 115.082 97.539 123.347 97.5386H176.646C184.912 97.5386 191.636 90.8141 191.636 82.5483V79.3956C189.426 80.929 186.4 82.434 182.281 83.8068C173.617 86.6953 162.151 88.2857 149.997 88.2857C137.842 88.2857 126.377 86.6953 117.712 83.8071C113.594 82.434 110.567 80.9294 108.357 79.3959ZM99.8442 106.237C99.8442 104.502 98.4329 103.091 96.6981 103.091C94.9633 103.091 93.5519 104.502 93.5519 106.237C93.5519 107.972 94.9633 109.383 96.6981 109.383C98.4329 109.383 99.8442 107.972 99.8442 106.237ZM105.396 106.237C105.396 107.346 105.185 108.407 104.805 109.383H111.688V103.091H104.805C105.185 104.067 105.396 105.128 105.396 106.237ZM114.714 180.448H141.299V174.156H123.347C119.315 174.156 115.889 176.801 114.714 180.448ZM132.045 158.916V168.604H138.338V158.916C137.336 159.197 136.282 159.351 135.192 159.351C134.102 159.351 133.047 159.197 132.045 158.916ZM129.758 150.468C130.771 152.442 132.824 153.799 135.192 153.799C137.559 153.799 139.611 152.442 140.624 150.468H129.758ZM158.695 180.448H185.28C184.105 176.801 180.678 174.156 176.646 174.156H158.695V180.448ZM161.656 158.916V168.604H167.948V158.916C166.946 159.197 165.892 159.351 164.802 159.351C163.712 159.351 162.657 159.197 161.656 158.916ZM159.369 150.468C160.382 152.442 162.435 153.799 164.802 153.799C167.169 153.799 169.222 152.442 170.235 150.468H159.369ZM179.607 144.916C181.342 144.916 182.753 143.504 182.753 141.769V102.164C180.823 102.766 178.772 103.091 176.646 103.091H123.347C121.222 103.091 119.17 102.766 117.24 102.164V141.769C117.24 143.504 118.652 144.916 120.386 144.916H179.607ZM195.188 103.091H188.305V109.383H195.188C194.808 108.407 194.597 107.346 194.597 106.237C194.597 105.128 194.808 104.067 195.188 103.091Z" fill="black" stroke="black" stroke-width="2" mask="url(#path-8-inside-1)"/>
<path d="M140.369 128.485C140.369 130.369 138.831 131.907 136.948 131.907C135.065 131.907 133.526 130.369 133.526 128.485C133.526 126.602 135.065 125.064 136.948 125.064H140.369V128.485Z" fill="#E01E5A"/>
<path d="M142.093 128.485C142.093 126.602 143.632 125.064 145.515 125.064C147.398 125.064 148.937 126.602 148.937 128.485V137.053C148.937 138.936 147.398 140.474 145.515 140.474C143.632 140.474 142.093 138.936 142.093 137.053V128.485Z" fill="#E01E5A"/>
<path d="M145.515 114.746C143.632 114.746 142.093 113.208 142.093 111.324C142.093 109.441 143.632 107.903 145.515 107.903C147.398 107.903 148.936 109.441 148.936 111.324V114.746H145.515Z" fill="#36C5F0"/>
<path d="M145.515 116.47C147.398 116.47 148.937 118.008 148.937 119.891C148.937 121.775 147.398 123.313 145.515 123.313H136.948C135.065 123.313 133.526 121.775 133.526 119.891C133.526 118.008 135.065 116.47 136.948 116.47H145.515Z" fill="#36C5F0"/>
<path d="M159.254 119.892C159.254 118.008 160.793 116.47 162.676 116.47C164.559 116.47 166.097 118.008 166.097 119.892C166.097 121.775 164.559 123.313 162.676 123.313H159.254V119.892Z" fill="#2EB67D"/>
<path d="M157.53 119.892C157.53 121.775 155.992 123.313 154.109 123.313C152.225 123.313 150.687 121.775 150.687 119.892V111.324C150.687 109.441 152.225 107.903 154.109 107.903C155.992 107.903 157.53 109.441 157.53 111.324V119.892Z" fill="#2EB67D"/>
<path d="M154.109 133.631C155.992 133.631 157.53 135.169 157.53 137.053C157.53 138.936 155.992 140.474 154.109 140.474C152.225 140.474 150.687 138.936 150.687 137.053V133.631H154.109Z" fill="#ECB22E"/>
<path d="M154.109 131.907C152.225 131.907 150.687 130.369 150.687 128.485C150.687 126.602 152.225 125.064 154.109 125.064H162.676C164.559 125.064 166.097 126.602 166.097 128.485C166.097 130.369 164.559 131.907 162.676 131.907H154.109Z" fill="#ECB22E"/>
</g>
<defs>
<radialGradient id="paint0_radial" cx="0" cy="0" r="1" gradientUnits="userSpaceOnUse" gradientTransform="translate(150 82.5) rotate(179.822) scale(160.501 108.572)">
<stop offset="0.478393" stop-color="#F6EEBA" stop-opacity="0"/>
<stop offset="1" stop-opacity="0.1"/>
</radialGradient>
</defs>
</svg>
