<svg width="300" height="165" viewBox="0 0 300 165" fill="none" xmlns="http://www.w3.org/2000/svg">
<mask id="mask0" mask-type="alpha" maskUnits="userSpaceOnUse" x="0" y="0" width="300" height="165">
<rect width="300" height="165" fill="#C4C4C4"/>
</mask>
<g mask="url(#mask0)">
<rect width="300" height="165" fill="url(#paint0_radial)"/>
<rect y="132" width="300" height="33" fill="url(#paint1_radial)"/>
<path d="M113.246 135.232C113.246 145.808 106.756 154.461 98.8246 154.461C90.8931 154.461 84.4035 145.808 84.4035 135.232C84.4035 124.657 90.8931 116.004 98.8246 116.004C106.756 116.004 113.246 124.657 113.246 135.232Z" fill="#FFDD09"/>
<path d="M98.8246 116.005C100.026 116.005 101.228 116.245 102.43 116.726C96.1807 118.889 91.6141 126.34 91.6141 135.232C91.6141 144.125 96.1807 151.576 102.43 153.739C101.228 154.22 100.026 154.46 98.8246 154.46C90.8931 154.46 84.4035 145.808 84.4035 135.232C84.4035 124.657 90.8929 116.005 98.8246 116.005Z" fill="white"/>
<path d="M194.965 116.005C200.253 116.005 204.579 124.657 204.579 135.233C204.579 145.808 200.253 154.461 194.965 154.461H98.8246C106.756 154.461 113.246 145.808 113.246 135.233C113.246 124.657 106.756 116.005 98.8246 116.005H194.965Z" fill="#934F00"/>
<path d="M194.965 116.005H187.754C193.042 116.005 197.368 124.657 197.368 135.233C197.368 145.808 193.042 154.461 187.754 154.461H194.965C200.253 154.461 204.579 145.808 204.579 135.233C204.579 124.657 200.253 116.005 194.965 116.005Z" fill="#934F00"/>
<path d="M113.726 92.4502C112.765 92.2098 111.804 91.9694 110.842 91.9694C102.91 91.9694 96.4208 100.622 96.4208 111.198C96.4208 112.88 96.6612 114.562 96.9016 116.245C97.6226 116.005 98.1034 116.005 98.8243 116.005H124.782C125.023 115.284 125.023 114.562 125.023 113.841C113.726 108.794 112.284 99.9009 113.726 92.4502Z" fill="#FFDD09"/>
<path d="M206.982 91.9694H198.33C198.811 111.678 185.591 115.524 183.188 116.005H194.965C199.532 116.005 203.137 122.254 204.339 130.426H206.982C212.27 130.426 216.597 121.773 216.597 111.198C216.597 100.622 212.27 91.9694 206.982 91.9694Z" fill="#FFDD09"/>
<path d="M206.982 91.9694H199.772C205.06 91.9694 209.386 100.622 209.386 111.198C209.386 118.889 207.223 125.378 203.858 128.503C203.858 129.224 204.098 129.704 204.098 130.425H206.983C212.271 130.425 216.597 121.773 216.597 111.197C216.597 100.622 212.27 91.9694 206.982 91.9694Z" fill="#FD9808"/>
<path d="M163.719 17.4606C163.719 17.4606 155.788 16.4992 148.577 21.7868C144.011 25.1517 141.848 30.9201 142.328 36.6884C142.569 39.092 143.049 41.9763 144.011 44.6199C144.491 46.3025 144.732 48.2252 144.011 49.6674C143.049 51.8305 141.367 53.5131 137.281 53.5131C137.281 53.5131 130.07 54.7148 130.07 43.899C130.07 43.899 112.765 56.3971 132.474 70.3377C132.474 70.3377 139.684 74.6639 139.684 79.9518C139.684 79.9518 140.886 89.5658 132.474 89.5658C132.474 89.5658 120.216 91.4886 118.053 79.9518C118.053 79.9518 100.507 109.275 132.474 116.005H182.948C182.948 116.005 203.377 112.88 197.369 82.3553C197.369 82.3553 177.66 92.4499 178.381 71.7799C178.381 69.1359 179.823 65.5307 182.707 62.1658C189.677 54.2343 189.437 41.9763 182.467 33.8044C181.025 32.6026 179.582 31.1605 178.14 29.4782C178.14 29.4782 176.698 33.3238 173.574 36.6887C168.046 42.6975 157.951 37.6501 159.153 29.7186C159.393 26.3534 160.835 22.508 163.719 17.4606Z" fill="#FFDD09"/>
<path d="M151.702 29.7185C150.74 36.6887 158.191 41.2553 163.719 38.6114C160.595 37.1692 158.191 33.8044 158.912 29.7185C159.393 26.5941 160.835 22.508 163.479 17.701C163.479 17.701 160.114 17.2201 155.788 18.4219C153.625 22.7481 152.183 26.5938 151.702 29.7185Z" fill="#FD9808"/>
<path d="M175.256 62.4062C172.372 65.5307 171.17 69.3764 170.93 72.0203C170.689 85.2397 178.621 85.9606 184.39 84.5184C180.784 83.3167 177.9 79.9518 178.14 72.0203C178.14 69.3764 179.583 65.7711 182.467 62.4062C189.437 54.4747 189.196 42.2167 182.226 34.0448C181.025 32.6027 179.582 31.1605 178.14 29.4782C178.14 29.4782 177.179 31.6413 175.256 34.2852C181.986 42.4572 182.226 54.4747 175.256 62.4062Z" fill="#FD9808"/>
<path d="M197.368 82.3552C197.368 82.3552 194.244 84.0378 190.639 84.5183C194.965 113.12 175.737 116.004 175.737 116.004H182.947C182.947 116.004 203.137 112.88 197.368 82.3552Z" fill="#FD9808"/>
<path d="M167.565 112.639C171.651 108.553 172.132 102.064 169.007 97.2569L158.913 82.3552L149.058 97.2569C145.934 102.064 146.414 108.553 150.5 112.639C150.5 112.639 153.385 116.004 159.153 116.004C158.912 116.004 163.479 116.485 167.565 112.639Z" fill="#FD9808"/>
<path d="M160.354 112.639C164.441 108.553 164.921 102.064 161.797 97.2569L155.547 87.8832L158.912 82.3552L168.767 97.2569C171.891 102.064 171.411 108.553 167.325 112.639C163.479 116.485 158.912 116.004 158.912 116.004C157.47 116.004 156.509 115.764 155.307 115.523C156.99 115.043 158.672 114.082 160.354 112.639Z" fill="#FD7308"/>
<path d="M125.263 24.671C125.263 26.1132 124.302 27.0746 122.86 27.0746C121.417 27.0746 120.456 26.1132 120.456 24.671C120.456 23.2289 121.417 22.2675 122.86 22.2675C124.302 22.2675 125.263 23.2289 125.263 24.671Z" fill="#FFDD09"/>
<path d="M214.193 55.9165C214.193 57.3586 213.232 58.32 211.789 58.32C210.347 58.32 209.386 57.3586 209.386 55.9165C209.386 54.4743 210.347 53.5129 211.789 53.5129C213.232 53.5129 214.193 54.4746 214.193 55.9165Z" fill="#FFDD09"/>
<path d="M94.0175 75.1447C94.0175 76.5869 93.0562 77.5482 91.614 77.5482C90.1719 77.5482 89.2105 76.5869 89.2105 75.1447C89.2105 73.7026 90.1719 72.7412 91.614 72.7412C93.0562 72.7412 94.0175 73.7026 94.0175 75.1447Z" fill="#FFDD09"/>
<path d="M122.86 24.6711C122.86 26.1133 121.898 27.0746 120.456 27.0746C119.014 27.0746 118.052 26.1133 118.052 24.6711C118.052 23.2289 119.014 22.2676 120.456 22.2676C121.898 22.2676 122.86 23.2289 122.86 24.6711Z" fill="black"/>
<path d="M211.789 55.9165C211.789 57.3587 210.828 58.32 209.386 58.32C207.944 58.32 206.982 57.3587 206.982 55.9165C206.982 54.4744 207.944 53.513 209.386 53.513C210.828 53.513 211.789 54.4746 211.789 55.9165Z" fill="black"/>
<path d="M91.6141 75.1447C91.6141 76.5869 90.6528 77.5482 89.2106 77.5482C87.7684 77.5482 86.8071 76.5869 86.8071 75.1447C86.8071 73.7026 87.7684 72.7412 89.2106 72.7412C90.6528 72.7412 91.6141 73.7026 91.6141 75.1447Z" fill="black"/>
<path fill-rule="evenodd" clip-rule="evenodd" d="M158.64 118.408H132.474H131.993L131.992 118.408H109.456C113.248 122.362 115.649 128.41 115.649 135.232C115.649 142.055 113.248 148.103 109.456 152.057H194.965C198.33 152.057 202.176 144.846 202.176 135.232C202.176 126.573 199.056 119.863 195.977 118.616C195.656 118.487 195.338 118.417 195.031 118.409L195.004 118.408C194.991 118.408 194.978 118.408 194.965 118.408H182.948V118.408H159.419C159.41 118.408 159.402 118.408 159.393 118.408H158.672C158.661 118.408 158.651 118.408 158.64 118.408ZM147.878 113.601H132.713C130.975 113.243 129.368 112.798 127.891 112.267L127.907 112.158L126.224 111.438C118.052 108.073 114.687 101.583 116.13 92.6902L116.37 90.5271L116.363 90.5255C116.763 88.7768 117.288 87.1436 117.812 85.7204C121.658 91.4888 128.628 92.2101 132.714 91.7292C136.319 91.7292 138.482 90.2871 139.684 88.8449C142.568 85.48 142.328 80.673 142.087 79.7116C142.087 73.3584 135.447 69.1472 134.097 68.2914L134.097 68.2914C134.017 68.2407 133.956 68.2018 133.916 68.1749C128.388 64.3292 125.503 60.2434 125.503 56.1573C125.503 53.2729 126.945 50.8694 128.388 48.9467C129.108 51.1098 130.07 52.7924 131.512 53.9942C133.722 55.9827 136.134 55.94 137.256 55.9202H137.256H137.256C137.355 55.9184 137.443 55.9169 137.521 55.9169C143.049 55.9169 145.453 52.7921 146.174 50.8694C147.135 48.7063 147.135 46.3028 146.174 43.8993C145.452 41.7362 144.972 39.3326 144.731 36.4483C144.251 31.4009 146.174 26.5941 150.019 23.7098C153.624 21.0658 157.23 20.1045 159.874 19.8641C158.191 23.229 157.23 26.3534 156.749 29.2378C156.028 34.0445 158.432 38.371 162.758 40.5341C167.084 42.4568 172.132 41.7359 175.256 38.1306C176.698 36.6884 177.9 35.0061 178.621 33.564C178.861 33.9244 179.162 34.2249 179.462 34.5253C179.763 34.8258 180.063 35.1262 180.304 35.4867C186.553 42.9376 186.553 53.7535 180.544 60.7236C177.66 64.0885 175.737 68.1746 175.737 71.7799C175.737 78.5096 177.419 83.0762 181.265 85.4798C185.832 88.3641 191.84 86.9219 195.446 85.7202C196.647 94.8534 195.686 102.064 192.081 107.111C188.76 112.092 183.802 113.328 182.747 113.591L182.708 113.601H169.892C174.112 108.563 174.597 101.315 170.93 95.8151L158.912 78.0291L146.895 95.8151C142.943 101.395 143.488 108.773 147.878 113.601ZM200.567 89.5656C200.403 87.1933 200.06 84.7061 199.531 82.1141C199.531 81.3928 199.05 80.6719 198.329 80.4315C197.608 80.1911 196.887 80.1911 196.166 80.4315C194.003 81.6332 187.514 84.0368 183.908 81.6332C181.745 80.1911 180.543 77.0666 180.784 72.0192C180.784 70.3369 181.745 66.972 184.389 64.0877C192.08 55.4352 191.84 41.7351 184.149 32.6018C183.305 31.4207 182.343 30.358 181.263 29.1645L181.263 29.1643C180.804 28.6576 180.324 28.1273 179.823 27.5543C179.342 26.8334 178.38 26.593 177.659 26.8334C176.938 27.0738 176.217 27.5546 175.977 28.2756C175.977 28.2756 174.535 31.8808 171.891 34.7652C169.728 37.1687 166.843 36.9283 164.921 35.9669C162.998 35.0056 161.075 32.8422 161.556 29.7177C162.036 26.3529 163.478 22.7476 165.882 18.4214C166.122 17.9408 166.122 16.9792 165.882 16.2583C165.401 15.5373 164.68 15.0565 163.959 15.0565C163.948 15.0565 163.916 15.0542 163.865 15.0506C162.86 14.9797 154.453 14.3862 147.135 20.1039C142.087 23.9496 139.203 30.4392 139.924 37.169C140.164 40.5338 140.645 43.4182 141.607 45.8217C141.847 46.7831 142.087 47.9848 141.607 49.1866L141.583 49.2346C141.319 49.7697 140.541 51.3497 137.28 51.3497H136.8C136.8 51.3497 135.598 51.5901 134.396 50.6287C133.194 49.427 132.473 47.2636 132.473 44.1391C132.473 43.1778 131.993 42.4568 131.272 41.976C130.551 41.7356 129.589 41.7356 128.868 42.2164C128.388 42.4568 120.696 48.2252 120.696 56.6375C120.696 62.4059 124.061 67.6935 131.272 72.7409C132.714 73.4622 137.28 76.827 137.28 80.1919V80.4323C137.521 81.3937 137.521 84.2777 136.079 85.9603C135.358 86.6813 134.156 87.1621 132.473 87.1621H131.993C131.963 87.1621 131.897 87.1677 131.8 87.176C130.341 87.301 121.793 88.0336 120.215 79.471C119.975 78.5096 119.254 77.7887 118.293 77.5483C117.331 77.5483 116.37 77.7887 115.889 78.75C115.866 78.8189 115.771 79.0082 115.622 79.3047L115.622 79.3048L115.622 79.3049L115.622 79.3051L115.622 79.3051L115.622 79.3053C114.9 80.74 112.917 84.6807 111.757 89.6123C102.192 88.8267 94.0173 98.7856 94.0173 111.197C94.0173 112.213 94.105 113.317 94.2274 114.403C87.1279 116.947 82 125.263 82 135.232C82 147.25 89.451 156.864 98.8246 156.864H194.965C201.935 156.864 206.983 147.49 206.983 135.232C206.983 134.418 206.96 133.616 206.917 132.829H206.982C213.953 132.829 219 123.455 219 111.197C219 98.9392 213.953 89.5656 206.982 89.5656H200.567ZM97.3825 118.648L96.364 118.75C90.8497 120.311 86.807 127.037 86.807 135.233C86.807 144.606 92.0949 152.057 98.8246 152.057L98.8246 152.057C104.713 152.057 109.498 146.353 110.602 138.647L110.842 135.233L110.842 135.232C110.842 134.647 110.822 134.068 110.781 133.499C110.678 132.045 110.446 130.648 110.102 129.332C108.422 122.917 104.06 118.408 98.8246 118.408C98.5897 118.408 98.3566 118.417 98.1254 118.435C97.8778 118.464 97.6302 118.524 97.3825 118.648ZM110.843 94.3728C110.362 100.862 111.804 108.313 119.735 113.601H99.065C98.8246 112.88 98.8246 111.918 98.8249 111.197C98.8249 101.824 104.113 94.3728 110.843 94.3728ZM206.357 128.022C204.809 119.521 200.525 113.654 195.039 113.601C195.015 113.601 194.99 113.601 194.965 113.601H192.802C196.647 110.236 200.493 104.227 200.733 94.3726H206.982C210.347 94.3726 214.193 101.583 214.193 111.197C214.193 120.811 210.347 128.022 206.982 128.022H206.357ZM98.8247 142.443C97.3825 142.443 96.4211 141.482 96.4211 140.039V130.425C96.4211 128.983 97.3825 128.022 98.8247 128.022C100.267 128.022 101.228 128.983 101.228 130.425V140.039C101.228 141.482 100.267 142.443 98.8247 142.443ZM150.981 98.4587L158.912 86.6816L166.363 98.4587C169.007 102.304 168.526 107.592 165.402 110.717C162.518 113.601 158.912 113.361 158.912 113.361H158.672C154.511 113.361 152.351 111.137 151.978 110.754C151.963 110.738 151.951 110.726 151.942 110.717C148.818 107.592 148.337 102.304 150.981 98.4587Z" fill="black"/>
<path d="M192.594 140.775C192.594 140.768 192.594 140.759 192.594 140.753C192.594 140.275 192.215 139.888 191.748 139.888C191.611 139.888 191.482 139.923 191.366 139.982L191.372 139.979C190.454 140.719 189.293 141.18 188.029 141.227H188.02C186.451 141.074 186.943 137.482 186.943 137.482C186.943 137.482 187.288 134.192 186.359 133.924C185.431 133.655 184.299 134.779 184.299 134.779C183.422 135.812 182.711 137.023 182.229 138.35L182.201 138.431L182.018 138.487C182.067 137.888 182.094 137.192 182.094 136.486C182.094 135.64 182.055 134.807 181.975 133.983L181.984 134.086C181.801 133.677 180.107 133.711 179.832 134.439C179.099 136.683 178.501 139.342 178.147 142.079L178.122 142.304C176.739 143.512 175.079 144.433 173.256 144.951L173.164 144.973C170.85 145.347 170.301 143.871 170.301 143.871C170.301 143.871 176.575 142.079 176.358 136.954C176.141 131.829 171.296 133.724 170.74 134.145C168.481 135.734 166.924 138.218 166.555 141.087L166.548 141.137C166.527 141.302 166.469 142.017 166.469 142.017C165.382 142.785 164.14 143.49 162.833 144.068L162.689 144.124C162.689 144.124 166.469 137.616 161.853 134.654C159.759 133.365 158.098 136.071 158.098 136.071C158.098 136.071 164.338 128.967 162.964 122.962C162.299 120.106 160.903 119.791 159.621 120.259C158.531 120.649 157.621 121.326 156.944 122.2L156.934 122.213C155.301 124.872 154.196 128.031 153.842 131.42L153.833 131.517C153.25 137.076 152.389 143.818 152.389 143.818C151.772 144.436 150.984 144.879 150.105 145.06L150.074 145.066C148.963 145.123 149.458 141.708 149.458 141.708C149.458 141.708 150.319 136.486 150.258 135.609C150.196 134.732 150.129 134.251 149.125 133.945C148.12 133.64 147.006 134.944 147.006 134.944C147.006 134.944 144.075 139.473 143.831 140.166L143.681 140.447L143.532 140.26C143.532 140.26 145.593 134.092 143.623 133.999C141.654 133.905 140.36 136.199 140.36 136.199C140.36 136.199 138.116 140.038 138.024 140.472L137.875 140.285C138.262 138.643 138.525 136.733 138.604 134.773L138.607 134.713C138.558 134.201 138.143 133.805 137.633 133.805C137.551 133.805 137.475 133.814 137.398 133.833H137.404C137.404 133.833 136.11 133.68 135.777 134.526C135.102 136.817 134.507 139.614 134.104 142.476L134.067 142.8C132.559 143.952 130.752 144.789 128.792 145.176L128.709 145.188C126.578 145.21 126.798 143.809 126.798 143.809C126.798 143.809 134.583 141.081 132.452 135.709C131.75 134.613 130.556 133.899 129.198 133.899C129.067 133.899 128.935 133.905 128.807 133.917H128.822C126.591 134.133 124.765 135.687 124.105 137.775L124.093 137.816C123.632 138.896 123.315 140.144 123.202 141.455L123.199 141.502C123.009 141.546 122.79 141.567 122.564 141.567C122.005 141.567 121.483 141.418 121.031 141.152L121.046 141.162C120.314 140.531 119.901 141.162 119.901 141.162C119.901 141.162 118.619 142.791 119.901 143.29C120.833 143.621 121.923 143.871 123.049 143.999L123.119 144.005C123.446 145.444 124.249 146.649 125.348 147.47L125.363 147.482C127.677 149.274 132.095 147.329 132.095 147.329L133.915 146.299C133.915 146.299 133.97 148.007 135.301 148.253C136.632 148.5 137.178 148.372 139.48 142.647C140.83 139.72 140.924 139.885 140.924 139.885L141.074 139.851C140.662 141.714 140.424 143.858 140.424 146.056C140.424 146.334 140.427 146.608 140.436 146.883V146.842C140.836 148.341 142.588 148.2 142.588 148.2C142.588 148.2 143.538 148.481 144.298 145.719C144.994 143.425 145.754 141.489 146.649 139.635L146.542 139.879H146.707C146.582 140.725 146.508 141.702 146.508 142.697C146.508 144.345 146.707 145.943 147.079 147.473L147.052 147.339C148.029 149.165 150.587 147.957 150.587 147.957C151.393 147.557 152.068 147.161 152.715 146.721L152.651 146.761C153.857 147.716 155.393 148.294 157.06 148.294C157.307 148.294 157.548 148.281 157.789 148.256L157.759 148.259C161.142 147.776 164.198 146.708 166.951 145.157L166.814 145.229C167.696 147.033 169.458 148.266 171.507 148.353H171.519C171.766 148.381 172.05 148.397 172.34 148.397C174.453 148.397 176.376 147.551 177.796 146.171L177.793 146.174C177.796 147.139 178.358 147.969 179.163 148.347L179.179 148.353C180.598 148.949 181.548 145.684 181.548 145.684L183.917 138.989H184.134C184.134 138.989 184.262 143.353 186.595 144.046C186.796 144.064 187.031 144.077 187.266 144.077C189.043 144.077 190.679 143.462 191.986 142.429L191.968 142.441C192.362 142.132 192.612 141.655 192.612 141.115C192.612 140.987 192.597 140.865 192.572 140.747L192.575 140.759L192.594 140.775ZM126.438 141.393C126.53 137.647 128.935 136.021 129.757 136.829C130.578 137.638 130.285 139.404 128.712 140.506C127.14 141.608 126.435 141.399 126.435 141.399L126.438 141.393ZM157.667 126.891C157.667 126.891 159.865 121.074 160.369 123.895C160.873 126.717 155.79 135.153 155.79 135.153C156.306 131.932 156.959 129.148 157.783 126.442L157.664 126.891H157.667ZM160.265 143.091C159.798 144.623 158.424 145.716 156.8 145.716C156.26 145.716 155.747 145.594 155.286 145.375L155.307 145.385C155.271 145.045 155.249 144.651 155.249 144.255C155.249 142.772 155.539 141.358 156.064 140.069L156.037 140.141C157.17 136.268 159.85 137.775 159.85 137.775C159.85 137.775 161.703 139.23 160.262 143.088L160.265 143.091ZM169.949 141.393C169.934 141.234 169.922 141.049 169.922 140.865C169.922 139.72 170.279 138.662 170.887 137.797L170.878 137.813C172.139 135.447 173.122 136.745 173.122 136.745C173.409 137.132 173.583 137.622 173.583 138.153C173.583 138.768 173.351 139.326 172.972 139.745C172.313 140.75 171.207 141.405 169.953 141.408L169.949 141.393Z" fill="white"/>
<rect width="300" height="165" fill="url(#paint2_radial)"/>
</g>
<defs>
<radialGradient id="paint0_radial" cx="0" cy="0" r="1" gradientUnits="userSpaceOnUse" gradientTransform="translate(150 82.5) rotate(90) scale(82.5 150)">
<stop stop-color="#FFC90C"/>
<stop offset="1" stop-color="#246B2B"/>
</radialGradient>
<radialGradient id="paint1_radial" cx="0" cy="0" r="1" gradientUnits="userSpaceOnUse" gradientTransform="translate(150 151.5) rotate(90) scale(13.5 122.727)">
<stop/>
<stop offset="0.765625" stop-color="#6A5317"/>
</radialGradient>
<radialGradient id="paint2_radial" cx="0" cy="0" r="1" gradientUnits="userSpaceOnUse" gradientTransform="translate(150 82.5) rotate(179.822) scale(160.501 108.572)">
<stop offset="0.478393" stop-color="#F6EEBA" stop-opacity="0"/>
<stop offset="1" stop-opacity="0.1"/>
</radialGradient>
</defs>
</svg>
