<svg width="300" height="165" viewBox="0 0 300 165" fill="none" xmlns="http://www.w3.org/2000/svg">
<mask id="mask0" mask-type="alpha" maskUnits="userSpaceOnUse" x="0" y="0" width="300" height="165">
<rect width="300" height="165" fill="#C4C4C4"/>
</mask>
<g mask="url(#mask0)">
<rect width="300" height="165" fill="url(#paint0_radial)"/>
<path d="M167.584 48.9736C171.006 40.0185 181.145 36.2167 190.09 32.8624C194.553 31.189 198.769 29.6085 201.367 27.6802L205.126 24.8911L206.947 29.2133C208.779 33.5619 212.498 44.9415 207.482 56.6592C203.501 65.958 195.014 73.1083 182.257 77.9109L167.584 48.9736Z" fill="#E78724" stroke="#211915" stroke-width="4"/>
<path d="M133.416 48.9733C129.994 40.0181 119.855 36.2164 110.91 32.8622C106.447 31.1885 102.232 29.608 99.633 27.68L95.8738 24.8911L94.0529 29.2135C92.2213 33.5621 88.5025 44.9417 93.5182 56.6593C97.4987 65.958 105.986 73.1083 118.743 77.9109L133.416 48.9733Z" fill="#E78724" stroke="#211915" stroke-width="4"/>
<path d="M129.881 56.3306C127.617 50.601 116.119 43.1358 108.154 40.2483C104.96 39.0903 101.879 37.9733 99.1647 36.6732C97.9975 40.9227 97.1355 47.4775 99.9908 53.9274C103.193 61.1613 110.374 66.8518 121.334 70.8415L129.881 56.3306Z" fill="#333333"/>
<path d="M171.119 56.3309C173.383 50.601 184.881 43.136 192.846 40.2483C196.04 39.0903 199.121 37.9733 201.835 36.6732C203.002 40.9225 203.865 47.4773 201.009 53.9274C197.806 61.1613 190.626 66.8518 179.667 70.8415L171.119 56.3309Z" fill="#262626"/>
<path d="M150.5 147.426C148.963 147.426 140.852 147.295 132.112 144.72C122.039 141.751 115.263 136.791 111.974 129.975C107.86 121.45 110.547 109.285 113.145 97.5206C114.538 91.212 115.854 85.2532 115.854 80.8034C115.854 63.4767 121.999 52.8446 127.155 46.9764C133.566 39.68 142.075 35.4951 150.5 35.4951C158.925 35.4951 167.434 39.6797 173.845 46.9761C179 52.8441 185.146 63.4762 185.146 80.8031C185.146 85.253 186.462 91.2115 187.855 97.5203C190.453 109.285 193.14 121.45 189.026 129.975C185.736 136.79 178.961 141.751 168.888 144.719C160.148 147.295 152.037 147.426 150.5 147.426Z" fill="#FBA919"/>
<path d="M133.502 71.5966C133.502 68.8876 135.673 66.6937 138.342 66.6937C141.014 66.6937 143.185 68.8876 143.185 71.5966C143.185 74.305 141.014 76.5008 138.342 76.5008C135.673 76.5008 133.502 74.3052 133.502 71.5966Z" fill="#211915"/>
<path d="M169.213 144.708C160.599 147.294 152.605 147.425 151.089 147.426C152.604 147.426 160.599 147.295 169.213 144.708ZM189.082 129.853C189.076 129.868 189.068 129.883 189.061 129.898C189.068 129.883 189.075 129.868 189.082 129.853ZM189.106 129.802C189.1 129.816 189.094 129.83 189.087 129.844C189.093 129.83 189.1 129.816 189.106 129.802ZM189.131 129.75C189.124 129.763 189.118 129.777 189.111 129.791C189.118 129.777 189.124 129.763 189.131 129.75ZM189.152 129.703C189.146 129.715 189.141 129.727 189.135 129.74C189.141 129.727 189.146 129.715 189.152 129.703ZM189.175 129.652C189.169 129.666 189.163 129.68 189.156 129.693C189.163 129.68 189.169 129.666 189.175 129.652ZM189.199 129.601C189.193 129.614 189.187 129.627 189.181 129.64C189.187 129.627 189.193 129.614 189.199 129.601ZM189.221 129.551C189.216 129.563 189.211 129.575 189.205 129.586C189.211 129.574 189.216 129.563 189.221 129.551ZM189.241 129.505C189.237 129.515 189.233 129.524 189.229 129.534C189.233 129.525 189.237 129.515 189.241 129.505ZM189.265 129.452C189.26 129.464 189.255 129.476 189.249 129.487C189.254 129.475 189.26 129.464 189.265 129.452ZM189.288 129.4C189.283 129.411 189.278 129.422 189.273 129.433C189.278 129.422 189.283 129.411 189.288 129.4ZM189.306 129.357C189.304 129.364 189.3 129.371 189.297 129.377C189.3 129.371 189.303 129.364 189.306 129.357ZM189.329 129.305C189.327 129.31 189.324 129.316 189.321 129.321C189.324 129.316 189.327 129.31 189.329 129.305ZM189.366 129.217C189.365 129.219 189.365 129.219 189.364 129.222C189.365 129.22 189.366 129.218 189.366 129.217ZM189.391 129.16C189.39 129.16 189.39 129.161 189.39 129.161C189.39 129.161 189.39 129.16 189.391 129.16ZM185.238 80.4261C185.238 80.4526 185.238 80.4806 185.238 80.5072C185.238 84.9768 186.535 90.9619 187.908 97.2987C187.916 97.3349 187.923 97.3705 187.931 97.4067C187.923 97.3708 187.916 97.3349 187.908 97.2987C186.535 90.9621 185.238 84.9768 185.238 80.5072C185.238 80.4801 185.238 80.4531 185.238 80.4261ZM207.061 57.5772C207.061 57.5784 207.061 57.5791 207.06 57.58C207.061 57.5791 207.061 57.5781 207.061 57.5772ZM207.084 57.5288L207.083 57.5291L207.084 57.5288ZM207.244 57.178C207.242 57.1823 207.24 57.1871 207.238 57.1916C207.24 57.1873 207.242 57.1823 207.244 57.178ZM207.267 57.1268C207.265 57.1325 207.262 57.138 207.26 57.1438C207.262 57.138 207.265 57.1323 207.267 57.1268ZM207.291 57.0739C207.288 57.0806 207.285 57.0878 207.282 57.0945C207.285 57.0875 207.288 57.0803 207.291 57.0739ZM207.314 57.0219C207.311 57.0294 207.307 57.0368 207.304 57.044C207.307 57.0368 207.311 57.0294 207.314 57.0219ZM207.338 56.9686C207.334 56.9769 207.331 56.9848 207.327 56.9932C207.331 56.9848 207.334 56.9769 207.338 56.9686ZM207.361 56.9164C207.357 56.9248 207.353 56.9334 207.35 56.942C207.353 56.9334 207.357 56.9248 207.361 56.9164ZM207.384 56.8628C207.38 56.8719 207.376 56.8812 207.372 56.8903C207.376 56.8812 207.38 56.8716 207.384 56.8628ZM207.407 56.8104C207.403 56.8195 207.399 56.8293 207.395 56.8384C207.399 56.8288 207.403 56.8197 207.407 56.8104ZM207.431 56.7558C207.426 56.7659 207.422 56.7759 207.418 56.7862C207.422 56.7764 207.426 56.7656 207.431 56.7558ZM207.454 56.7012C207.449 56.7125 207.445 56.7228 207.44 56.7343C207.445 56.7233 207.449 56.7125 207.454 56.7012ZM207.479 56.6445C207.473 56.657 207.468 56.6697 207.463 56.6819C207.468 56.6694 207.473 56.657 207.479 56.6445ZM207.508 56.5766C207.5 56.594 207.492 56.6117 207.485 56.6292C207.492 56.612 207.5 56.594 207.508 56.5766ZM152.129 35.0193C152.131 35.0193 152.133 35.0195 152.134 35.0195C152.133 35.0195 152.131 35.0195 152.129 35.0193ZM152.085 35.0176C152.088 35.0176 152.09 35.0179 152.093 35.0179C152.09 35.0179 152.088 35.0176 152.085 35.0176ZM152.041 35.016C152.044 35.016 152.048 35.0162 152.051 35.0164C152.047 35.0162 152.044 35.016 152.041 35.016ZM151.923 35.0114C151.924 35.0114 151.927 35.0116 151.929 35.0116C151.927 35.0116 151.924 35.0116 151.923 35.0114ZM151.876 35.01C151.883 35.0102 151.89 35.0105 151.897 35.0107C151.89 35.0105 151.883 35.0102 151.876 35.01ZM151.83 35.0088C151.838 35.009 151.846 35.0093 151.853 35.0095C151.846 35.009 151.838 35.0088 151.83 35.0088ZM151.784 35.0073C151.792 35.0076 151.8 35.0078 151.808 35.0081C151.8 35.0078 151.792 35.0076 151.784 35.0073ZM151.739 35.0059C151.747 35.0061 151.754 35.0064 151.762 35.0066C151.754 35.0066 151.746 35.0061 151.739 35.0059ZM151.68 35.0045C151.692 35.0047 151.705 35.0052 151.717 35.0054C151.705 35.0049 151.692 35.0047 151.68 35.0045ZM151.629 35.0033C151.642 35.0035 151.655 35.0038 151.668 35.0042C151.655 35.004 151.641 35.0035 151.629 35.0033ZM151.583 35.0023C151.591 35.0026 151.601 35.0028 151.61 35.0028C151.601 35.0028 151.591 35.0026 151.583 35.0023ZM151.536 35.0016C151.545 35.0018 151.555 35.0018 151.564 35.0021C151.555 35.0018 151.545 35.0016 151.536 35.0016ZM151.488 35.0006C151.498 35.0009 151.508 35.0009 151.518 35.0011C151.508 35.0011 151.498 35.0009 151.488 35.0006ZM151.44 34.9999C151.45 35.0002 151.462 35.0002 151.473 35.0004C151.462 35.0004 151.451 35.0002 151.44 34.9999ZM151.335 34.9987C151.365 34.999 151.396 34.9994 151.427 34.9997C151.396 34.9994 151.366 34.999 151.335 34.9987ZM151.288 34.9985C151.3 34.9985 151.312 34.9987 151.324 34.9987C151.312 34.9985 151.3 34.9985 151.288 34.9985ZM151.243 34.998C151.254 34.998 151.264 34.9982 151.275 34.9982C151.264 34.9982 151.253 34.998 151.243 34.998ZM151.196 34.9978C151.207 34.9978 151.216 34.9978 151.227 34.998C151.217 34.998 151.206 34.9978 151.196 34.9978ZM151.148 34.9978C151.159 34.9978 151.17 34.9978 151.181 34.9978C151.17 34.9978 151.159 34.9978 151.148 34.9978ZM151.089 34.9975C151.104 34.9975 151.119 34.9975 151.135 34.9975C151.12 34.9975 151.104 34.9975 151.089 34.9975ZM190.021 32.9451C190.014 32.9475 190.009 32.9494 190.002 32.952C190.008 32.9496 190.014 32.9475 190.021 32.9451ZM190.13 32.9037C190.103 32.914 190.076 32.924 190.049 32.9343C190.076 32.924 190.103 32.914 190.13 32.9037ZM190.212 32.8723C190.19 32.8809 190.168 32.8891 190.145 32.8977C190.168 32.8893 190.19 32.8807 190.212 32.8723ZM205.176 24.8911L201.456 27.6727C198.884 29.596 194.712 31.1724 190.294 32.8414C190.269 32.851 190.244 32.8604 190.219 32.8697C190.244 32.8604 190.27 32.8508 190.294 32.8414C194.712 31.1724 198.884 29.596 201.456 27.6727L205.176 24.8911L206.978 29.202C208.118 31.9296 209.998 37.4312 210 44.0457C209.997 37.4312 208.118 31.9296 206.978 29.202L205.176 24.8911Z" fill="#BDBDBF"/>
<path d="M190.67 112.242C185.303 116.666 178.533 119.658 171.55 120.058C170.682 123.356 168.628 126.353 165.558 128.729C161.656 131.748 156.518 133.41 151.089 133.41V147.426C152.605 147.426 160.598 147.295 169.211 144.72C179.139 141.751 185.816 136.79 189.058 129.975C189.065 129.96 189.072 129.945 189.079 129.931C189.08 129.928 189.081 129.925 189.083 129.922C189.089 129.908 189.095 129.894 189.102 129.88C189.104 129.876 189.106 129.873 189.107 129.869C189.114 129.856 189.12 129.842 189.127 129.828C189.128 129.825 189.129 129.821 189.131 129.818C189.137 129.806 189.142 129.794 189.148 129.781C189.15 129.779 189.151 129.775 189.153 129.772C189.159 129.758 189.165 129.745 189.171 129.731C189.173 129.727 189.175 129.723 189.177 129.719C189.183 129.706 189.189 129.693 189.195 129.68C189.197 129.675 189.199 129.67 189.201 129.665C189.207 129.654 189.212 129.642 189.217 129.63C189.22 129.624 189.222 129.619 189.225 129.613C189.229 129.603 189.233 129.594 189.238 129.584C189.24 129.578 189.243 129.573 189.245 129.567C189.251 129.555 189.256 129.543 189.261 129.532C189.264 129.526 189.267 129.519 189.269 129.513C189.274 129.502 189.279 129.491 189.284 129.48C189.287 129.472 189.291 129.465 189.294 129.457C189.297 129.45 189.3 129.444 189.303 129.437C189.308 129.425 189.313 129.413 189.318 129.402C189.321 129.396 189.323 129.39 189.325 129.385C189.337 129.357 189.349 129.33 189.361 129.302C189.362 129.3 189.362 129.3 189.363 129.297C189.371 129.279 189.379 129.261 189.386 129.242L189.387 129.241C191.418 124.422 191.464 118.529 190.67 112.242ZM151.089 35.4951V99.4491C156.518 99.4491 161.656 101.112 165.558 104.13C168.598 106.483 171.136 113.669 172.018 116.928C179 114.5 181.368 119.639 190 110C190 109.998 189.186 103.543 189.186 103.541C188.785 101.572 188.356 99.5947 187.928 97.6278C187.92 97.5918 187.912 97.5563 187.904 97.5204C186.532 91.2118 185.234 85.253 185.234 80.8031C185.234 80.7767 185.234 80.7488 185.234 80.7223C185.233 79.4588 185.196 78.2346 185.133 77.0416L185.137 77.0399C184.993 74.3134 184.694 71.7692 184.275 69.3987C182.771 60.9024 179.709 54.6341 176.591 50.1801C175.754 48.984 174.913 47.9185 174.096 46.9762C173.191 45.9304 172.244 44.9492 171.26 44.0345L171.258 44.0362C165.664 38.836 158.902 35.8017 152.135 35.517L152.13 35.5167C152.118 35.5163 152.105 35.5158 152.093 35.5153C152.091 35.5153 152.088 35.5151 152.085 35.5151C152.074 35.5146 152.062 35.5141 152.051 35.5136C152.048 35.5136 152.044 35.5134 152.041 35.5132C152.004 35.5117 151.967 35.5105 151.929 35.5094C151.929 35.5094 151.925 35.5091 151.923 35.5091C151.914 35.5089 151.905 35.5086 151.897 35.5084C151.89 35.5082 151.883 35.5079 151.876 35.5077C151.868 35.5074 151.861 35.5072 151.853 35.507C151.846 35.5067 151.838 35.5065 151.83 35.5063C151.823 35.506 151.815 35.5058 151.808 35.5055C151.799 35.5053 151.792 35.5051 151.784 35.5048C151.776 35.5046 151.769 35.5043 151.761 35.5041C151.753 35.5039 151.746 35.5036 151.738 35.5034C151.731 35.5032 151.724 35.5029 151.717 35.5029C151.704 35.5027 151.692 35.5022 151.679 35.502C151.676 35.502 151.672 35.5017 151.668 35.5017C151.655 35.5015 151.641 35.501 151.628 35.5008C151.621 35.5005 151.616 35.5005 151.609 35.5003C151.601 35.5001 151.591 35.4998 151.582 35.4998C151.576 35.4998 151.57 35.4996 151.563 35.4996C151.554 35.4993 151.545 35.4993 151.536 35.4991C151.53 35.4991 151.524 35.4989 151.518 35.4989C151.508 35.4986 151.498 35.4986 151.488 35.4984C151.483 35.4984 151.478 35.4982 151.473 35.4982C151.462 35.4979 151.451 35.4979 151.44 35.4977C151.436 35.4977 151.431 35.4974 151.427 35.4974C151.396 35.497 151.365 35.4967 151.335 35.4965C151.331 35.4965 151.327 35.4965 151.324 35.4965C151.312 35.4965 151.3 35.4962 151.289 35.4962C151.284 35.4962 151.279 35.4962 151.275 35.4962C151.264 35.4962 151.254 35.496 151.243 35.496C151.238 35.496 151.232 35.496 151.227 35.496C151.216 35.496 151.207 35.496 151.196 35.4958C151.191 35.4958 151.186 35.4958 151.181 35.4958C151.17 35.4958 151.159 35.4958 151.148 35.4958C151.144 35.4958 151.139 35.4958 151.135 35.4958C151.12 35.4951 151.104 35.4951 151.089 35.4951Z" fill="#E78724"/>
<path d="M150.5 148C148.931 148 140.65 147.867 131.727 145.244C121.443 142.221 114.525 137.168 111.167 130.227C106.967 121.544 109.71 109.154 112.362 97.1722C113.784 90.747 115.128 84.6781 115.128 80.146C115.128 62.499 121.402 51.6703 126.666 45.6936C133.211 38.2623 141.898 34 150.5 34C159.102 34 167.789 38.262 174.334 45.6933C179.597 51.6698 185.872 62.4985 185.872 80.1457C185.872 84.6778 187.215 90.7465 188.638 97.172C191.29 109.154 194.033 121.544 189.833 130.226C186.474 137.168 179.557 142.22 169.273 145.244C160.35 147.867 152.069 148 150.5 148Z" stroke="#211915" stroke-width="5"/>
<path d="M197.532 88C197.532 87.0562 196.872 86.2409 195.949 86.044C195.026 85.8471 194.091 86.3222 193.706 87.1838C192.41 90.0825 191.893 93.3394 191.455 96.1027C191.342 96.8138 191.234 97.4923 191.12 98.1236C190.51 101.487 189.743 103.469 188.051 104.467C180.037 109.198 168.379 110.088 149.996 110.088C131.612 110.088 119.954 109.198 111.94 104.467C110.352 103.53 109.777 101.694 109.436 98.2815C109.386 97.7741 109.341 97.2351 109.294 96.6719C109.056 93.802 108.766 90.3058 107.371 87.1838C106.985 86.3222 106.05 85.8471 105.127 86.044C104.204 86.2409 103.545 87.0562 103.545 88C103.545 88.6675 103.32 89.6491 102.863 90.9553C102.457 92.1132 101.931 93.358 101.378 94.666C101.322 94.7984 101.266 94.9314 101.21 95.0651C100.612 96.4802 99.9917 97.9739 99.5686 99.3413C99.1668 100.64 98.827 102.166 99.0977 103.53C100.789 112.059 104.935 118.583 113.18 122.862C121.248 127.049 133.084 129 149.996 129C166.912 129 178.92 127.047 187.194 122.872C195.633 118.614 200.053 112.115 201.886 103.56C202.18 102.191 201.854 100.658 201.462 99.3561C201.05 97.9854 200.438 96.4896 199.847 95.0733C199.782 94.9164 199.717 94.7604 199.652 94.6054C199.116 93.321 198.605 92.0993 198.209 90.9601C197.755 89.6532 197.532 88.6699 197.532 88Z" fill="#C4C4C4" stroke="#211915" stroke-width="4" stroke-linejoin="round"/>
<path d="M151.089 133.287C145.588 133.287 140.382 131.615 136.428 128.577C132.206 125.334 129.881 120.94 129.881 116.203C129.881 111.466 132.206 107.072 136.428 103.829C140.382 100.792 145.588 99.1188 151.089 99.1188C156.59 99.1188 161.796 100.792 165.75 103.829C169.972 107.072 172.297 111.466 172.297 116.203C172.297 120.94 169.972 125.334 165.75 128.577C161.796 131.615 156.59 133.287 151.089 133.287Z" fill="#D37B93"/>
<path d="M151 99V133.168C156.501 133.168 161.707 131.496 165.661 128.458C168.773 126.068 170.854 123.053 171.733 119.735C172.047 118.552 172.208 117.33 172.208 116.084C172.208 114.804 172.038 113.548 171.707 112.334C170.813 109.056 168.742 106.076 165.661 103.71C161.707 100.673 156.501 99 151 99Z" fill="#9D5B6E"/>
<path d="M141.805 116.291C141.805 114.665 143.109 113.348 144.711 113.348C146.315 113.348 147.618 114.665 147.618 116.291C147.618 117.917 146.315 119.236 144.711 119.236C143.109 119.236 141.805 117.917 141.805 116.291Z" fill="#211915"/>
<path d="M159.425 116.292C159.425 114.653 158.113 113.325 156.497 113.325C154.88 113.325 153.568 114.653 153.568 116.292C153.568 117.93 154.88 119.258 156.497 119.258C158.113 119.258 159.425 117.93 159.425 116.292Z" fill="#211915"/>
<path d="M169.093 72.2478C169.093 69.519 166.907 67.3069 164.216 67.3069C161.522 67.3069 159.337 69.519 159.337 72.2478C159.337 74.9766 161.522 77.1886 164.216 77.1886C166.907 77.1886 169.093 74.9766 169.093 72.2478Z" fill="#211915"/>
<path d="M151.089 133.287C145.588 133.287 140.382 131.615 136.428 128.577C132.206 125.334 129.881 120.94 129.881 116.203C129.881 111.466 132.206 107.072 136.428 103.829C140.382 100.792 145.588 99.1188 151.089 99.1188C156.59 99.1188 161.796 100.792 165.75 103.829C169.972 107.072 172.297 111.466 172.297 116.203C172.297 120.94 169.972 125.334 165.75 128.577C161.796 131.615 156.59 133.287 151.089 133.287Z" stroke="#211915" stroke-width="4"/>
<path d="M123.795 23.819V38.8942L150.761 47.3674V23.819H123.795Z" fill="#487ED2"/>
<path d="M177.728 23.819V38.8942L150.761 47.3674V23.819H177.728Z" fill="#1D54BD"/>
<path d="M150.385 18H102V26H150.385L153 22L150.385 18Z" fill="#12398F"/>
<path d="M151 18H200V26H151" fill="#071E61"/>
<path d="M195.004 17.9052H191.958V58.5264H195.004V17.9052Z" fill="#4B4B4B"/>
<path d="M193.548 56.1409C191.589 56.1409 190 57.7296 190 59.6892V73.4927H197.096V59.6892C197.096 57.7296 195.508 56.1409 193.548 56.1409Z" fill="#404040"/>
<path d="M193.548 51.4099C195.507 51.4099 197.096 52.9995 197.096 54.9581C197.096 56.9168 195.507 58.5064 193.548 58.5064C191.59 58.5064 190 56.9168 190 54.9581C190 52.9995 191.59 51.4099 193.548 51.4099Z" fill="black"/>
<rect width="300" height="165" fill="url(#paint1_radial)"/>
</g>
<defs>
<radialGradient id="paint0_radial" cx="0" cy="0" r="1" gradientUnits="userSpaceOnUse" gradientTransform="translate(150 82.5) rotate(150.191) scale(165.959 301.743)">
<stop stop-color="#FF290C"/>
<stop offset="1" stop-color="#6B2424"/>
</radialGradient>
<radialGradient id="paint1_radial" cx="0" cy="0" r="1" gradientUnits="userSpaceOnUse" gradientTransform="translate(150 82.5) rotate(179.822) scale(160.501 108.572)">
<stop offset="0.478393" stop-color="#F6EEBA" stop-opacity="0"/>
<stop offset="1" stop-opacity="0.1"/>
</radialGradient>
</defs>
</svg>
