<svg width="300" height="165" viewBox="0 0 300 165" fill="none" xmlns="http://www.w3.org/2000/svg">
<mask id="mask0" mask-type="alpha" maskUnits="userSpaceOnUse" x="0" y="0" width="300" height="165">
<rect width="300" height="165" fill="#C4C4C4"/>
</mask>
<g mask="url(#mask0)">
<rect width="300" height="165" fill="#BAE4F6"/>
<path fill-rule="evenodd" clip-rule="evenodd" d="M83.5 134C109.734 134 131 112.734 131 86.5C131 60.2665 109.734 39 83.5 39C57.2665 39 36 60.2665 36 86.5C36 112.734 57.2665 134 83.5 134ZM216.5 134C242.734 134 264 112.734 264 86.5C264 60.2665 242.734 39 216.5 39C190.266 39 169 60.2665 169 86.5C169 112.734 190.266 134 216.5 134Z" fill="white"/>
<path d="M217.018 35C193.759 35 174.075 50.5074 167.704 71.7177C163.5 66.7661 157.248 63.6114 150.259 63.6114C143.27 63.6114 137.014 66.7661 132.814 71.7177C126.443 50.5074 106.759 35 83.5 35C55.1026 35 32 58.1026 32 86.5C32 114.897 55.1026 138 83.5 138C111.897 138 135 114.897 135 86.5C135 78.0844 141.844 71.2409 150.259 71.2409C158.671 71.2409 165.518 78.0848 165.518 86.5C165.518 114.897 188.621 138 217.018 138C245.416 138 268.518 114.897 268.518 86.5C268.518 58.1026 245.416 35 217.018 35ZM83.5 130.37C59.3105 130.37 39.6295 110.69 39.6295 86.4995C39.6295 62.3095 59.31 42.6291 83.5 42.6291C107.69 42.6291 127.37 62.3095 127.37 86.4995C127.37 110.69 107.69 130.37 83.5 130.37ZM217.018 130.37C192.829 130.37 173.148 110.69 173.148 86.4995C173.148 62.3095 192.828 42.6291 217.018 42.6291C241.208 42.6291 260.889 62.3095 260.889 86.4995C260.889 110.69 241.208 130.37 217.018 130.37Z" fill="#010002"/>
<path d="M236.404 119.663L214.887 87.6905C214.603 87.2684 214.451 86.7712 214.451 86.2626V47.5769C194.35 48.9816 178.424 65.7817 178.424 86.234C178.424 107.603 195.809 124.988 217.178 124.988C224.216 124.988 230.821 123.102 236.516 119.809C236.479 119.761 236.439 119.715 236.404 119.663Z" fill="#0590BC"/>
<path d="M219.565 47.5752L219.489 47.554V86.2719L238.971 114.319L240.647 116.808C240.683 116.863 240.715 116.918 240.747 116.975C240.762 116.963 240.777 116.952 240.792 116.94L240.842 117.012L240.945 116.822C249.267 110.34 254.886 100.545 255.799 89.4357L255.86 89.3224V83.9253L255.832 83.8912C255.841 83.893 255.851 83.8948 255.86 83.8966C254.694 64.4017 239.053 48.7457 219.565 47.5554V47.5752Z" fill="#923DFF"/>
<path d="M85.3428 47.5555V83.8475H121.141C121.311 83.8475 121.477 83.8649 121.638 83.8967C120.472 64.4018 104.831 48.7458 85.3428 47.5555Z" fill="#E42121"/>
<path d="M121.142 88.9616H87.6841L106.425 116.808C106.461 116.863 106.493 116.919 106.525 116.975C115.086 110.395 120.832 100.327 121.616 88.9158C121.462 88.9445 121.304 88.9616 121.142 88.9616Z" fill="#FFD231"/>
<path d="M102.182 119.663L80.6645 87.6905C80.3805 87.2684 80.2288 86.7712 80.2288 86.2626V47.5769C60.1276 48.9816 44.202 65.7817 44.202 86.234C44.202 107.603 61.5873 124.988 82.9562 124.988C89.994 124.988 96.5993 123.102 102.294 119.809C102.257 119.761 102.217 119.715 102.182 119.663Z" fill="#05BC9B"/>
</g>
</svg>
