<svg width="300" height="165" viewBox="0 0 300 165" fill="none" xmlns="http://www.w3.org/2000/svg">
<mask id="mask0" mask-type="alpha" maskUnits="userSpaceOnUse" x="0" y="0" width="300" height="165">
<rect width="300" height="165" fill="#C4C4C4"/>
</mask>
<g mask="url(#mask0)">
<rect width="300" height="220" fill="url(#paint0_linear)"/>
<rect y="132" width="300" height="33" fill="url(#paint1_linear)"/>
<path d="M125.539 106.117H130.251V128.055H132.607L136.141 154.611H119.649L123.183 128.055H125.539V106.117Z" fill="white"/>
<path d="M179.726 106.117H184.438V128.055H186.794L190.328 154.611H173.836L177.37 128.055H179.726V106.117Z" fill="white"/>
<path d="M131.268 131.09H125.381V133.838H131.268V131.09Z" fill="black"/>
<path d="M124.547 135.761H132.102V138.509H124.547V135.761Z" fill="black"/>
<path fill-rule="evenodd" clip-rule="evenodd" d="M133.883 103H112V104.64H123.79V126.91C121.719 127.506 120.17 129.28 119.967 131.497L117.793 155.269H138.182L136.008 131.497C135.805 129.28 134.256 127.506 132.185 126.91V104.641L133.883 103ZM126.592 126.694H129.382V123.301H126.592V126.694ZM126.592 120.474H129.382V117.081H126.592V120.474ZM126.592 114.253H129.382V110.86H126.592V114.253ZM126.592 108.033H129.382V104.64H126.592V108.033ZM124.919 150.048L124.187 152.521H131.787L131.055 150.048H124.919ZM135.116 152.521L133.216 131.741C133.096 130.43 131.994 129.442 130.65 129.442H125.324C123.981 129.442 122.878 130.431 122.758 131.742L120.858 152.521H121.269L122.814 147.301H133.161L134.706 152.521H135.116Z" fill="black"/>
<path d="M185.639 131.09H179.752V133.838H185.639V131.09Z" fill="black"/>
<path d="M178.918 135.761H186.473V138.509H178.918V135.761Z" fill="black"/>
<path fill-rule="evenodd" clip-rule="evenodd" d="M188.254 103H166.371V104.64H178.16V126.91C176.09 127.506 174.541 129.28 174.337 131.497L172.164 155.269H192.553L190.379 131.497C190.176 129.28 188.627 127.506 186.556 126.91V104.641L188.254 103ZM180.963 126.694H183.753V123.301H180.963V126.694ZM180.963 120.474H183.753V117.081H180.963V120.474ZM180.963 114.253H183.753V110.86H180.963V114.253ZM180.963 108.033H183.753V104.64H180.963V108.033ZM179.29 150.048L178.558 152.521H186.158L185.426 150.048H179.29ZM189.487 152.521L187.587 131.741C187.467 130.43 186.364 129.442 185.021 129.442H179.695C178.352 129.442 177.249 130.431 177.129 131.742L175.229 152.521H175.64L177.184 147.301H187.532L189.076 152.521H189.487Z" fill="black"/>
<path d="M208.646 90.6992L207.473 83.146C212.121 82.4238 219.251 79.2928 222.928 75.3891C226.606 71.4854 229.257 62.5049 229.387 59.5095L236.72 60.7503C235.97 67.4123 233.567 74.9261 227.408 81.2386C223.915 84.8174 216.199 89.5256 208.646 90.6992Z" fill="white"/>
<path d="M262.796 58.3007C259.118 59.2539 255.204 58.41 252.163 56.1319L221.979 33.518C220.344 32.2932 219.042 30.6854 218.147 28.8492C217.557 27.6401 216.679 26.5492 215.529 25.6871C211.578 22.7274 205.945 23.6054 203.09 27.678L208.576 28.5633C210.689 28.9042 212.126 30.8939 211.785 33.0072C211.444 35.1206 209.455 36.5574 207.341 36.2164L201.918 35.3413C202.395 36.8628 203.285 38.2664 204.563 39.3581C206.853 41.3153 209.812 41.8793 212.475 41.1891C216.153 40.2359 220.067 41.0798 223.107 43.3579L253.292 65.9718C254.927 67.1966 256.229 68.8044 257.124 70.6406C257.714 71.8497 258.592 72.9406 259.742 73.8027C263.693 76.7624 269.325 75.8844 272.181 71.8118L266.695 70.9265C264.582 70.5856 263.145 68.5959 263.486 66.4826C263.827 64.3692 265.816 62.9324 267.93 63.2734L273.353 64.1485C272.876 62.627 271.986 61.2234 270.708 60.1317C268.418 58.1743 265.459 57.6105 262.796 58.3007Z" fill="white" stroke="black" stroke-width="2.5" stroke-miterlimit="10" stroke-linecap="round" stroke-linejoin="round"/>
<path d="M224.118 44.5366C222.799 46.8892 222.431 49.7654 223.335 52.5313C225.049 57.7789 230.693 60.6432 235.94 58.9288C241.188 57.2145 244.052 51.5708 242.338 46.3232C242.037 45.403 241.616 44.5562 241.097 43.7945L236.409 48.2115C236.46 48.3302 236.506 48.4522 236.547 48.5776C237.257 50.749 236.072 53.0843 233.9 53.7937C231.729 54.5031 229.393 53.3179 228.684 51.1465C228.228 49.7499 228.555 48.2856 229.425 47.2295L224.118 44.5366Z" fill="white"/>
<path fill-rule="evenodd" clip-rule="evenodd" d="M206.232 93.3912C207.681 93.3553 208.657 93.317 208.894 93.2762L209.026 93.2565L209.054 93.2473C210.194 93.0442 211.324 92.7857 212.413 92.4796C213.811 92.0905 215.187 91.6156 216.499 91.0701C217.587 90.6196 218.679 90.1021 219.743 89.5305C220.995 88.8579 222.226 88.0968 223.403 87.2687C224.379 86.5811 225.325 85.8398 226.211 85.0692C227.288 84.1384 228.317 83.1323 229.267 82.0807C230.061 81.2049 230.818 80.2802 231.515 79.3329C232.36 78.1866 233.136 76.9846 233.82 75.7642C234.404 74.7305 234.935 73.6598 235.396 72.5885C235.966 71.2772 236.451 69.9332 236.837 68.5993C237.135 67.583 237.39 66.5317 237.594 65.4747L237.622 65.318C237.624 65.3055 237.626 65.293 237.628 65.2805C237.636 65.2355 237.644 65.1902 237.652 65.1444C237.932 63.6116 238.099 62.0377 238.162 60.453C239.403 59.8983 240.565 59.1233 241.585 58.126C243.813 55.9482 245.039 53.0525 245.039 49.9728C245.039 46.893 243.813 43.9977 241.585 41.8195L240.436 40.6954L233.999 46.9897L235.149 48.1134C235.656 48.61 235.936 49.2702 235.936 49.9728C235.936 50.675 235.656 51.3356 235.148 51.8321C234.1 52.8573 232.394 52.8573 231.345 51.8321C230.837 51.3356 230.558 50.6753 230.558 49.9728C230.558 49.2702 230.837 48.61 231.345 48.1134L223.688 43.0474C222.696 44.2234 221.455 45.3478 221.455 49.9728C221.455 53.0525 222.681 55.9482 224.909 58.126C225.682 58.8817 226.537 59.5073 227.446 60.0089C227.396 61.3027 227.246 62.5902 226.99 63.8484L226.966 63.9603C225.046 73.1029 217.967 80.2983 208.776 82.5735V82.5677L206.232 77.4156V88.3673C207.266 88.2383 207.898 88.1086 207.939 87.9783L208.33 90.1444L208.239 90.1577L208.216 90.1653C208.147 90.1769 207.41 90.1882 206.232 90.1993V93.3912ZM210.37 85.4497L211.525 89.4221C212.796 89.0683 214.041 88.6385 215.23 88.1439L215.234 88.1423L213.59 84.3397C212.547 84.7691 211.474 85.143 210.37 85.4497ZM216.154 83.132L218.181 86.7436C219.316 86.1335 220.434 85.4424 221.502 84.69L219.044 81.3509C218.121 81.999 217.158 82.5954 216.154 83.132ZM221.271 79.6136L224.057 82.6885C225.038 81.841 225.971 80.9287 226.833 79.9741L223.688 77.251C222.932 78.0861 222.125 78.8745 221.271 79.6136ZM225.463 75.0731L228.878 77.4754C229.645 76.4337 230.35 75.3427 230.973 74.2323L230.974 74.2298L227.284 72.2496C226.736 73.23 226.125 74.1713 225.463 75.0731ZM233.712 67.7254L229.65 66.5966C229.336 67.6755 228.956 68.7252 228.517 69.7437L232.402 71.3494C232.921 70.1551 233.36 68.9391 233.711 67.7289L233.712 67.7254ZM226.167 45.2972C225.216 46.667 224.706 48.2816 224.706 49.9728C224.706 52.2037 225.594 54.3009 227.208 55.8779C230.538 59.1338 235.957 59.1338 239.287 55.8779C240.9 54.3005 241.789 52.2031 241.789 49.9725C241.789 48.281 241.278 46.6664 240.328 45.2969L238.439 47.1439C238.928 47.9987 239.188 48.9657 239.188 49.9721C239.188 51.5238 238.569 52.9826 237.447 54.0796C235.132 56.3439 231.363 56.3443 229.047 54.0796C227.925 52.9826 227.307 51.5241 227.307 49.9725C227.307 48.966 227.567 47.999 228.056 47.1442L226.167 45.2972ZM234.449 64.6005C234.642 63.5486 234.772 62.4735 234.852 61.3895C233.448 61.5768 232.015 61.5157 230.629 61.209C230.558 62.1083 230.442 63.0015 230.282 63.885L234.448 64.604L234.449 64.6005Z" fill="black"/>
<path d="M103.404 58.3739C108.246 54.1747 108.241 46.92 105.278 40.7321L97.6205 24.7365C97.3869 24.2486 96.8243 24.0296 96.3595 24.2464C95.3433 24.72 93.9474 23.916 93.2478 22.4546C92.5483 20.9934 92.7976 19.4018 93.8036 18.907C94.2636 18.6808 94.4459 18.1054 94.2124 17.6175L91.275 11.4818C91.0397 10.9904 90.4714 10.7727 90.0058 10.9956L77.3305 17.0637C76.8648 17.2867 76.678 17.8658 76.9133 18.3573L79.8507 24.493C80.0836 24.9795 80.6435 25.1985 81.1077 24.9851C82.1225 24.5178 83.5157 25.3231 84.2131 26.7798C84.9106 28.2368 84.6643 29.827 83.664 30.3242C83.2063 30.5518 83.0259 31.1255 83.2589 31.612L84.0848 33.3372L34.5313 57.6712C32.1782 58.7977 31.2311 61.7347 32.42 64.2181C33.6089 66.7015 36.4906 67.8055 38.8437 66.679L88.3972 42.345L89.2945 44.2193C89.5298 44.7108 90.098 44.9285 90.5637 44.7055L96.1594 42.6582C96.9557 43.7364 97.7967 45.176 98.5725 46.7965C100.31 50.4256 101.531 54.4907 101.839 57.6712C101.874 58.0369 102.104 58.3596 102.434 58.5083C102.763 58.6562 103.138 58.6046 103.404 58.3739Z" fill="white"/>
<path d="M102.744 58.9716C107.996 54.5396 109.555 47.0379 106.535 40.729L98.7276 24.421C98.4895 23.9236 97.8948 23.7103 97.3949 23.9438C96.3017 24.454 94.8321 23.6566 94.1188 22.1666C93.4056 20.6769 93.7062 19.0319 94.789 18.5001C95.284 18.257 95.491 17.6603 95.2529 17.1629L92.2581 10.9073C92.0182 10.4062 91.4175 10.1945 90.9165 10.4343L77.2778 16.9637C76.7768 17.2036 76.565 17.8043 76.8049 18.3053L79.7997 24.5609C80.0371 25.057 80.6288 25.2702 81.1281 25.0401C82.2197 24.5365 83.6864 25.3354 84.3974 26.8206C85.1085 28.306 84.8111 29.9495 83.7344 30.4836C83.2417 30.7281 83.0369 31.323 83.2744 31.819L84.1165 33.578L34.3378 57.409C31.8059 58.6211 30.7321 61.6673 31.9443 64.1992C33.1564 66.7311 36.2025 67.8049 38.7345 66.5928L88.5131 42.7618L89.428 44.6727C89.6678 45.1737 90.2685 45.3855 90.7696 45.1456L95.3712 42.9426C96.1959 44.0358 97.0604 45.5002 97.8513 47.1523C99.6227 50.8524 100.834 55.0129 101.093 58.2822C101.122 58.6581 101.36 58.9854 101.708 59.1313C102.056 59.2764 102.456 59.215 102.744 58.9716ZM90.8779 12.6832L93.004 17.1243L81.1798 22.785L79.0537 18.3439L90.8779 12.6832ZM86.2119 25.9519C85.7198 24.924 84.9923 24.1183 84.1606 23.5883L91.7696 19.9456C91.6527 20.9359 91.8162 22.016 92.3042 23.0353C92.8422 24.1589 93.6845 25.0217 94.6381 25.5424L86.724 29.3312C86.9076 28.2728 86.7548 27.0858 86.2119 25.9519ZM36.9296 58.3986L39.6061 57.1173L42.2653 62.672L39.5889 63.9533L36.9296 58.3986ZM46.7563 60.522L44.0799 61.8033L41.4206 56.2486L44.097 54.9673L46.7563 60.522ZM45.9116 54.0986L48.588 52.8173L51.2473 58.372L48.5708 59.6533L45.9116 54.0986ZM53.0616 57.5034L50.4023 51.9487L53.0787 50.6674L55.738 56.2221L53.0616 57.5034ZM57.5525 55.3534L54.8933 49.7987L57.5697 48.5174L60.229 54.0721L57.5525 55.3534ZM33.7586 63.3306C33.0402 61.83 33.6517 60.0337 35.1171 59.2719L37.7719 64.8174C36.2597 65.4813 34.477 64.8312 33.7586 63.3306ZM62.0437 53.2033L59.3844 47.6486L84.9852 35.3925L87.6444 40.9472L62.0437 53.2033ZM90.8082 42.8967L85.6319 32.0844L97.456 26.4237L102.632 37.2361L90.8082 42.8967ZM99.6659 46.2836C98.8843 44.651 98.0526 43.2172 97.223 42.0645L103.504 39.0574L104.72 41.5977C107.055 46.4738 106.248 52.1641 102.839 56.0657C102.319 52.9797 101.187 49.4616 99.6659 46.2836Z" fill="black" stroke="black"/>
<path d="M72.9771 36.387C71.9744 36.6657 71.0354 37.0974 70.1868 37.6554L72.9771 36.387Z" fill="white"/>
<path d="M68.9092 38.6529C66.9334 40.4716 65.6956 43.0797 65.6956 45.9768C65.6956 51.4732 70.1512 55.9289 75.6477 55.9289C81.1442 55.9289 85.5998 51.4732 85.5998 45.9768C85.5998 45.013 85.4629 44.0813 85.2074 43.2L79.4045 45.9308C79.4165 46.059 79.4226 46.1887 79.4226 46.3201C79.4226 48.5945 77.5789 50.4382 75.3045 50.4382C73.03 50.4382 71.1863 48.5945 71.1863 46.3201C71.1863 44.8573 71.9489 43.5726 73.0983 42.842L68.9092 38.6529Z" fill="white"/>
<path d="M72.7206 55.3435H80.331C80.331 60.0269 82.3215 67.5202 85.5998 71.7353C88.8782 75.9503 97.3082 79.9311 100.235 80.5166L97.8936 87.5416C91.454 85.7853 84.429 82.2728 79.1602 75.2478C76.1731 71.265 72.7206 62.954 72.7206 55.3435Z" fill="white"/>
<path fill-rule="evenodd" clip-rule="evenodd" d="M78.4453 45.8651C78.4855 46.0493 78.5061 46.2393 78.5061 46.4324C78.5061 47.1319 78.2361 47.7893 77.7458 48.2837C76.7332 49.3043 75.0863 49.3043 74.074 48.2837C73.5834 47.7893 73.3135 47.1316 73.3135 46.4324C73.3135 45.7329 73.5834 45.0756 74.0737 44.5812L74.6451 44.0052L68.9087 37.2565L67.8592 38.3147C65.7087 40.4834 64.5247 43.3661 64.5247 46.4324C64.5247 49.4987 65.7087 52.3818 67.8592 54.5501C68.844 55.543 69.9659 56.3146 71.164 56.8669C71.2252 58.4446 71.3865 60.0117 71.6568 61.5378L71.6707 61.622L71.686 61.7106L71.7127 61.8667C71.9098 62.919 72.1555 63.9657 72.443 64.9776C72.8159 66.3056 73.2846 67.6439 73.8351 68.9493C74.2799 70.016 74.7922 71.0819 75.3558 72.1113C76.0166 73.3263 76.7658 74.523 77.5816 75.6644C78.2549 76.6075 78.9856 77.5282 79.7518 78.4001C80.6689 79.4472 81.6624 80.4489 82.7029 81.3756C83.5583 82.1429 84.4716 82.8809 85.4139 83.5655C86.5499 84.3899 87.7383 85.1477 88.9467 85.8175C89.9746 86.3864 91.0283 86.9017 92.0792 87.3502C93.3461 87.8933 94.6741 88.3662 96.0241 88.7536C97.075 89.0584 98.1664 89.3157 99.2664 89.5179L99.2937 89.5271L99.4215 89.5468C99.6506 89.5874 100.592 89.6255 101.992 89.6613V86.4832C100.854 86.4722 100.142 86.461 100.076 86.4495L100.053 86.4419L99.9658 86.4286L100.343 84.2719C100.383 84.4016 100.993 84.5308 101.992 84.6593V73.7553L99.5359 78.885V78.8907C90.6614 76.6255 83.8276 69.4614 81.9738 60.3588L81.9508 60.2475C81.7029 58.9948 81.5588 57.7129 81.5105 56.4247C82.3875 55.9253 83.2136 55.3024 83.9601 54.5501C86.1108 52.3818 87.2946 49.4987 87.2946 46.4324C87.2946 45.0271 87.046 43.6605 86.5696 42.3833L83.6756 43.6236C83.9912 44.5129 84.1556 45.4599 84.1556 46.4324C84.1556 48.6536 83.298 50.7416 81.7399 52.3117C78.5245 55.5534 73.2933 55.5534 70.0779 52.3117C68.5205 50.7413 67.6629 48.653 67.6629 46.4321C67.6629 44.748 68.1557 43.1404 69.0732 41.7769L70.8969 43.6159C70.4251 44.4669 70.174 45.4298 70.174 46.4318C70.174 47.9767 70.771 49.4291 71.8542 50.5213C74.0894 52.7758 77.7283 52.7761 79.9646 50.5213C81.0481 49.4291 81.6445 47.977 81.6445 46.4321C81.6445 45.8058 81.5465 45.1949 81.3577 44.617L78.4453 45.8651ZM96.8816 85.7094L97.9968 81.7544C96.9309 81.449 95.8944 81.0768 94.8878 80.6493L93.3009 84.4352L93.3046 84.4368C94.4525 84.9293 95.6546 85.3572 96.8816 85.7094ZM90.4548 83.0426L92.4119 79.4469C91.4433 78.9126 90.5126 78.3188 89.6215 77.6735L87.2486 80.998C88.2802 81.7471 89.3595 82.4353 90.4548 83.0426ZM84.7825 79.0054L87.472 75.9438C86.6478 75.2079 85.8681 74.4229 85.1386 73.5915L82.1019 76.3027C82.9343 77.2531 83.8351 78.1615 84.7825 79.0054ZM80.1278 73.8149L83.4242 71.4232C82.7852 70.5252 82.1957 69.5881 81.6661 68.612L78.1036 70.5835L78.1049 70.586C78.7066 71.6916 79.387 72.7779 80.1278 73.8149ZM79.3823 62.9836L75.461 64.1075L75.4619 64.111C75.8001 65.3159 76.2241 66.5266 76.7254 67.7156L80.476 66.117C80.0519 65.1029 79.6852 64.0579 79.3823 62.9836ZM74.3597 57.7993C74.4374 58.8786 74.563 59.9489 74.7494 60.9963L74.7501 60.9997L78.7719 60.2838C78.6174 59.4042 78.5061 58.515 78.4376 57.6195C77.0985 57.925 75.7159 57.9857 74.3597 57.7993Z" fill="black"/>
<g filter="url(#filter0_d)">
<path d="M185.769 54.1195C184.626 31.1633 169.809 13 151.699 13C133.581 13 118.759 31.1791 117.627 54.1495C98.9358 67.5141 91.6604 89.7885 101.442 105.025C110.729 119.492 132.186 122.62 151.392 113.115C172.084 125.087 196.373 121.96 205.939 105.963C215.609 89.7933 206.579 66.5931 185.769 54.1195Z" fill="white"/>
<path d="M172.682 84.9997C176.196 84.6478 178.919 81.69 178.919 78.0957C178.919 77.9533 178.915 77.811 178.907 77.6686V77.6884C178.722 73.8805 175.625 70.8634 171.82 70.8239H171.564C167.755 70.9662 164.721 74.1019 164.721 77.9494C164.721 78.0363 164.721 78.1233 164.725 78.2143V78.2024C164.828 80.0728 165.591 81.7493 166.779 83.0147L166.775 83.0107C162.105 91.7653 154.967 98.6693 146.298 102.904L146.027 103.023C141.336 105.633 135.741 107.167 129.787 107.167C128.28 107.167 126.793 107.068 125.341 106.878L125.514 106.898C120.159 106.38 115.547 103.561 112.619 99.4483L112.584 99.393C110.471 96.4075 109.208 92.6906 109.208 88.6731C109.208 85.3635 110.066 82.2555 111.573 79.5587L111.525 79.6536C113.678 75.5571 116.613 72.1486 120.159 69.523L120.241 69.4676C119.568 67.6764 118.966 65.5174 118.541 63.2991L118.498 63.0381C100.071 76.2807 101.94 94.3948 107.535 102.956C112.427 109.227 119.966 113.221 128.434 113.221C128.819 113.221 129.201 113.213 129.583 113.197H129.528C129.665 113.201 129.831 113.201 129.996 113.201C132.542 113.201 135.017 112.904 137.393 112.347L137.173 112.39C152.944 109.488 165.859 99.2743 172.485 85.4465L172.611 85.1539L172.682 84.9997Z" fill="black"/>
<path d="M194.875 69.3965C185.419 58.562 171.619 51.7608 156.234 51.7608C155.766 51.7608 155.293 51.7687 154.829 51.7805H154.9H152.783C151.669 49.5385 149.399 48.024 146.778 48.024C146.7 48.024 146.625 48.024 146.546 48.028H146.558H146.404C142.603 48.0834 139.542 51.1914 139.542 55.019C139.542 55.1337 139.546 55.2444 139.55 55.3551V55.3393C139.727 59.1472 142.824 62.1722 146.633 62.2117H146.943C149.753 62.101 152.126 60.3453 153.149 57.8858L153.165 57.8384H155.466C165.516 57.8502 174.842 60.9503 182.554 66.2529L182.389 66.1461C188.413 70.0212 193.065 75.5887 195.736 82.1804L195.819 82.4097C196.842 84.5529 197.436 87.0678 197.436 89.721C197.436 92.5285 196.771 95.1778 195.587 97.5187L195.63 97.4198C192.573 103.691 186.269 107.93 178.981 107.93C178.714 107.93 178.45 107.926 178.187 107.914H178.226C173.752 107.819 169.53 106.831 165.701 105.119L165.906 105.202C164.414 106.451 161.928 108.507 160.121 109.761C164.898 112.118 170.502 113.553 176.424 113.691H176.471C176.703 113.699 176.975 113.703 177.246 113.703C187.288 113.703 196.083 108.345 200.958 100.322L201.029 100.2C202.375 96.9928 203.154 93.2679 203.154 89.3572C203.154 81.5279 200.021 74.4341 194.949 69.2739L194.953 69.2778L194.894 69.4044L194.875 69.3965Z" fill="black"/>
<path d="M130.594 87.2575C130.767 91.0693 133.872 94.1022 137.688 94.1299H137.94C141.749 93.9994 144.791 90.8597 144.791 87.0123C144.791 83.0976 141.647 79.9185 137.755 79.8908H137.492C137.452 79.8868 137.405 79.8868 137.362 79.8868C137.075 79.8868 136.799 79.9303 136.539 80.0173L136.559 80.0134C132.349 73.1291 129.858 64.7897 129.858 55.8651C129.858 54.4258 129.921 53.0023 130.051 51.5985L130.039 51.7804C130.397 44.2437 133.152 37.4148 137.543 31.9818L137.496 32.045C141.395 27.8101 146.888 25.1133 153.015 24.9156H153.05C166.476 24.6626 172.076 41.4758 172.508 48.1584L178.733 50.0287C177.285 29.542 164.607 18.7866 152.484 18.7866C140.16 19.4312 129.933 27.7626 126.427 39.0756L126.372 39.2812C124.648 44.2714 123.649 50.0208 123.649 56.0035C123.649 66.237 126.565 75.7863 131.601 83.8568L131.475 83.6394C130.913 84.4935 130.578 85.5413 130.578 86.6683C130.578 86.8779 130.59 87.0835 130.614 87.2851L130.61 87.2614L130.594 87.2575Z" fill="black"/>
</g>
<rect width="300" height="165" fill="url(#paint2_radial)"/>
</g>
<defs>
<filter id="filter0_d" x="93.0914" y="11" width="120.727" height="115.38" filterUnits="userSpaceOnUse" color-interpolation-filters="sRGB">
<feFlood flood-opacity="0" result="BackgroundImageFix"/>
<feColorMatrix in="SourceAlpha" type="matrix" values="0 0 0 0 0 0 0 0 0 0 0 0 0 0 0 0 0 0 127 0"/>
<feOffset dy="2"/>
<feGaussianBlur stdDeviation="2"/>
<feColorMatrix type="matrix" values="0 0 0 0 0 0 0 0 0 0 0 0 0 0 0 0 0 0 0.25 0"/>
<feBlend mode="normal" in2="BackgroundImageFix" result="effect1_dropShadow"/>
<feBlend mode="normal" in="SourceGraphic" in2="effect1_dropShadow" result="shape"/>
</filter>
<linearGradient id="paint0_linear" x1="0" y1="110" x2="300" y2="110" gradientUnits="userSpaceOnUse">
<stop stop-color="#D3CCE3"/>
<stop offset="1" stop-color="#E9E4F0"/>
</linearGradient>
<linearGradient id="paint1_linear" x1="0" y1="148.5" x2="300" y2="148.5" gradientUnits="userSpaceOnUse">
<stop stop-color="#4E54C8"/>
<stop offset="1" stop-color="#8F94FB"/>
</linearGradient>
<radialGradient id="paint2_radial" cx="0" cy="0" r="1" gradientUnits="userSpaceOnUse" gradientTransform="translate(150 82.5) rotate(179.822) scale(160.501 108.572)">
<stop offset="0.478393" stop-color="#F6EEBA" stop-opacity="0"/>
<stop offset="1" stop-opacity="0.1"/>
</radialGradient>
</defs>
</svg>
