<svg width="300" height="165" viewBox="0 0 300 165" fill="none" xmlns="http://www.w3.org/2000/svg">
<mask id="mask0" mask-type="alpha" maskUnits="userSpaceOnUse" x="0" y="0" width="300" height="165">
<rect width="300" height="165" fill="#C4C4C4"/>
</mask>
<g mask="url(#mask0)">
<rect width="300" height="165" fill="url(#paint0_radial)"/>
<rect width="300" height="165" fill="url(#paint1_radial)"/>
<path d="M202.144 78H88V143H202.144V118H211V101H202.144V78Z" fill="white"/>
<path d="M200 14H206V39H200V37H191V36.9883C185.433 36.7273 181 32.1313 181 26.5C181 20.8687 185.433 16.2727 191 16.0117V16H200V14Z" fill="white"/>
<path d="M173 102C174.019 104.913 176.768 107 180 107C183.232 107 185.981 104.913 187 102" stroke="black" stroke-width="4"/>
<rect x="176" y="123" width="13" height="11" fill="#2EB67D"/>
<rect x="100" y="123" width="13" height="11" fill="#FC0101"/>
<rect x="100" y="123" width="13" height="11" fill="#FC0101"/>
<rect x="136" y="123" width="13" height="11" fill="#FC0101"/>
<path d="M179.629 85.0305C171.226 85.0305 164.387 91.8678 164.387 100.272C164.387 108.677 171.226 115.514 179.629 115.514C188.032 115.514 194.871 108.677 194.871 100.272C194.871 91.8678 188.032 85.0305 179.629 85.0305ZM179.629 111.16C173.626 111.16 168.742 106.276 168.742 100.272C168.742 94.269 173.626 89.3852 179.629 89.3852C185.632 89.3852 190.516 94.269 190.516 100.272C190.516 106.276 185.632 111.16 179.629 111.16Z" fill="black"/>
<path d="M176.23 91.883L171.876 96.2372L174.955 99.3164L179.309 94.9622L176.23 91.883Z" fill="black"/>
<path d="M188.019 96.2364L183.665 91.8822L180.586 94.9614L184.94 99.3156L188.019 96.2364Z" fill="black"/>
<path d="M166.564 119.869L166.564 137.288L192.693 137.288L192.693 119.869L166.564 119.869ZM188.338 124.224L188.338 132.933L177.451 132.933L177.451 124.224L188.338 124.224ZM173.097 124.224L173.097 132.933L170.919 132.933L170.919 124.224L173.097 124.224Z" fill="black"/>
<path d="M198.746 13.1758L190.516 13.1758C184.056 13.1758 178.69 17.894 177.647 24.063L94.7097 24.063C89.9064 24.0626 86 27.969 86 32.7723L86 52.3689C86 57.1726 89.9064 61.0786 94.7097 61.0786L212.29 61.0786C214.692 61.0786 216.645 63.0316 216.645 65.4333L216.645 104.627C216.645 107.029 214.692 108.982 212.29 108.982L212.29 104.627C212.29 102.226 210.337 100.273 207.935 100.273L203.581 100.273L203.581 80.6761C203.581 78.2745 201.628 76.3215 199.226 76.3215L90.3546 76.3215C87.953 76.3215 86 78.2745 86 80.6761L86 141.643C86 144.045 87.953 145.998 90.3546 145.998L199.225 145.998C201.627 145.998 203.58 144.045 203.58 141.643L203.58 122.047L207.935 122.047C210.336 122.047 212.289 120.094 212.289 117.692L212.289 113.338C217.092 113.338 220.999 109.431 220.999 104.628L220.999 65.4342C220.999 60.6309 217.092 56.7244 212.289 56.7244L94.7097 56.7244C92.3081 56.7244 90.3551 54.7715 90.3551 52.3698L90.3551 32.7732C90.3551 30.3716 92.3081 28.4186 94.7097 28.4186L177.647 28.4186C178.688 34.5872 184.053 39.3059 190.516 39.3059L198.746 39.3059C199.942 40.632 201.658 41.4834 203.58 41.4834C207.182 41.4834 210.113 38.5526 210.113 34.9512L221 34.9512L221 30.5966L210.113 30.5966L210.113 21.8868L221 21.8868L221 17.5322L210.113 17.5322C210.113 13.9309 207.182 11 203.58 11C201.658 10.9982 199.944 11.8496 198.746 13.1758ZM199.225 122.046L199.225 141.643L90.3546 141.643L90.3546 80.6757L199.225 80.6734L199.225 100.272L199.225 122.046ZM207.935 117.692L203.581 117.692L203.581 104.627L207.935 104.627L207.935 117.692ZM181.806 26.2401C181.806 21.4368 185.713 17.5304 190.516 17.5304L197.048 17.5304L197.048 34.9499L190.516 34.9499C185.713 34.9499 181.806 31.0434 181.806 26.2401ZM205.758 17.5304L205.758 34.9499C205.758 36.1496 204.782 37.1274 203.58 37.1274C202.378 37.1274 201.403 36.1496 201.403 34.9499L201.403 17.5304C201.403 16.3307 202.378 15.3528 203.58 15.3528C204.782 15.3528 205.758 16.3307 205.758 17.5304Z" fill="black"/>
<path d="M160.032 100.272C160.032 91.8678 153.195 85.0305 144.79 85.0305C136.386 85.0305 129.548 91.8678 129.548 100.272C129.548 108.677 136.386 115.514 144.79 115.514C153.195 115.514 160.032 108.678 160.032 100.272ZM133.903 100.272C133.903 94.2695 138.787 89.3852 144.791 89.3852C150.794 89.3852 155.678 94.269 155.678 100.272C155.678 106.276 150.794 111.16 144.791 111.16C138.787 111.16 133.903 106.275 133.903 100.272Z" fill="black"/>
<path d="M144.471 94.9608L141.392 91.8816L137.038 96.2358L140.117 99.3149L144.471 94.9608Z" fill="black"/>
<path d="M153.18 96.2355L148.826 91.8813L145.747 94.9605L150.101 99.3147L153.18 96.2355Z" fill="black"/>
<path d="M147.286 104.309H142.931V108.663H147.286V104.309Z" fill="black"/>
<path d="M157.855 137.288L157.855 119.869L131.725 119.869L131.725 137.288L157.855 137.288ZM136.08 132.934L136.08 124.224L146.968 124.224L146.968 132.934L136.08 132.934ZM151.322 132.934L151.322 124.224L153.5 124.224L153.5 132.934L151.322 132.934Z" fill="black"/>
<path d="M125.194 100.272C125.194 91.8678 118.356 85.0305 109.952 85.0305C101.547 85.0305 94.7097 91.8678 94.7097 100.272C94.7097 108.677 101.547 115.514 109.952 115.514C118.357 115.514 125.194 108.678 125.194 100.272ZM99.0644 100.272C99.0644 94.2695 103.948 89.3852 109.952 89.3852C115.955 89.3852 120.839 94.269 120.839 100.272C120.839 106.276 115.955 111.16 109.952 111.16C103.949 111.16 99.0644 106.275 99.0644 100.272Z" fill="black"/>
<path d="M109.632 94.9617L106.553 91.8826L102.199 96.2367L105.278 99.3159L109.632 94.9617Z" fill="black"/>
<path d="M118.342 96.2363L113.987 91.8821L110.908 94.9612L115.262 99.3154L118.342 96.2363Z" fill="black"/>
<path d="M112.448 104.309H108.093V108.663H112.448V104.309Z" fill="black"/>
<path d="M123.016 137.288L123.016 119.869L96.8873 119.869L96.8873 137.288L123.016 137.288ZM101.242 132.934L101.242 124.224L112.129 124.224L112.129 132.934L101.242 132.934ZM116.484 132.934L116.484 124.224L118.661 124.224L118.661 132.934L116.484 132.934Z" fill="black"/>
</g>
<defs>
<radialGradient id="paint0_radial" cx="0" cy="0" r="1" gradientUnits="userSpaceOnUse" gradientTransform="translate(150 82.5) rotate(90) scale(108.5 150)">
<stop offset="0.307292" stop-color="#088CB4"/>
<stop offset="1" stop-color="#242B6B"/>
</radialGradient>
<radialGradient id="paint1_radial" cx="0" cy="0" r="1" gradientUnits="userSpaceOnUse" gradientTransform="translate(150 82.5) rotate(179.822) scale(160.501 108.572)">
<stop offset="0.478393" stop-color="#F6EEBA" stop-opacity="0"/>
<stop offset="1" stop-opacity="0.1"/>
</radialGradient>
</defs>
</svg>
