<svg width="300" height="165" viewBox="0 0 300 165" fill="none" xmlns="http://www.w3.org/2000/svg">
<mask id="mask0" mask-type="alpha" maskUnits="userSpaceOnUse" x="0" y="0" width="300" height="165">
<rect width="300" height="165" fill="#C4C4C4"/>
</mask>
<g mask="url(#mask0)">
<rect width="300" height="165" fill="url(#paint0_radial)"/>
<path d="M103.468 149.255C105.997 149.255 108.048 147.205 108.048 144.675C108.048 142.146 105.997 140.095 103.468 140.095C100.938 140.095 98.8878 142.146 98.8878 144.675C98.8878 147.205 100.938 149.255 103.468 149.255Z" fill="#CCCCCC"/>
<path d="M196.631 139.124C200.061 139.124 202.843 136.343 202.843 132.913C202.843 129.482 200.061 126.701 196.631 126.701C193.2 126.701 190.419 129.482 190.419 132.913C190.419 136.343 193.2 139.124 196.631 139.124Z" fill="#CCCCCC"/>
<path d="M157.801 128.861V145.326C160.195 146.005 161.952 148.208 161.952 150.822C161.952 150.847 161.948 150.872 161.948 150.897C162.322 150.851 162.701 150.822 163.084 150.822C167.552 150.822 171.295 153.883 172.357 158.017C172.998 157.921 173.647 157.871 174.309 157.871C176.391 157.871 178.361 158.346 180.118 159.191C183.257 156.318 187.437 154.565 192.026 154.565C194.774 154.565 197.372 155.194 199.691 156.314C201.023 146.888 209.118 139.635 218.91 139.635C229.632 139.635 238.326 148.328 238.326 159.05C238.326 164.471 236.102 169.371 232.517 172.894C233.704 174.684 234.537 176.724 234.936 178.919H163.259H132.148H60.4711C60.8708 176.724 61.7035 174.684 62.8901 172.894C59.3052 169.371 57.0818 164.47 57.0818 159.049C57.0818 148.328 65.7755 139.634 76.4969 139.634C86.2899 139.634 94.384 146.887 95.7164 156.314C98.0355 155.194 100.634 154.565 103.382 154.565C107.97 154.565 112.15 156.318 115.29 159.191C117.047 158.346 119.016 157.871 121.098 157.871C121.76 157.871 122.414 157.921 123.051 158.017C124.112 153.882 127.856 150.822 132.323 150.822C132.706 150.822 133.085 150.851 133.46 150.897C133.46 150.872 133.456 150.847 133.456 150.822C133.456 148.286 135.109 146.134 137.399 145.388V128.861H157.801V128.861Z" fill="#CCCCCC"/>
<path d="M180.177 100.512V128.862H166.437V90.519L180.177 100.512Z" fill="#E6E6E6"/>
<path d="M128.968 90.519V128.862H115.228V100.512L128.968 90.519Z" fill="#CCCCCC"/>
<path d="M166.437 46.2551V128.862H128.968V46.2551C128.968 44.1692 129.073 42.0957 129.281 40.0388H166.125C166.333 42.0957 166.437 44.1692 166.437 46.2551Z" fill="#E6E6E6"/>
<path d="M166.125 40.0387H129.281C130.742 25.6741 137.229 12.2089 147.705 2.08289C153.692 7.87036 158.376 14.7487 161.562 22.2641C163.947 27.8975 165.496 33.8848 166.125 40.0387Z" fill="#F24125"/>
<path opacity="0.25" d="M147.705 2.08289C147.705 2.08289 142.388 16.7514 142.388 40.0387C142.388 63.326 142.388 128.279 142.388 128.279L128.968 128.862V46.255C128.968 44.1691 129.073 42.0956 129.281 40.0387C130.742 25.6741 137.229 12.2089 147.705 2.08289Z" fill="black"/>
<path d="M168.519 90.5185H164.355V46.2547C164.355 44.2466 164.254 42.226 164.054 40.2478C163.449 34.3359 161.966 28.5575 159.645 23.0753C156.788 16.3351 152.776 10.2716 147.706 5.02625C138.485 14.5785 132.699 27.0078 131.352 40.2487C131.152 42.2256 131.051 44.2466 131.051 46.2543V90.5181H126.887V46.2543C126.887 44.1067 126.996 41.9449 127.21 39.8281C128.725 24.9302 135.49 10.9936 146.259 0.584889C147.065 -0.194963 148.345 -0.194963 149.152 0.584889C155.316 6.54266 160.136 13.563 163.479 21.4506C165.963 27.3159 167.55 33.4985 168.196 39.826C168.411 41.9445 168.519 44.1067 168.519 46.2539L168.519 90.5185Z" fill="#333333"/>
<path d="M166.437 126.78H128.968V130.944H166.437V126.78Z" fill="#333333"/>
<path d="M128.968 130.944H115.228C114.079 130.944 113.147 130.012 113.147 128.862V100.512C113.147 99.8455 113.466 99.2197 114.004 98.8283L127.744 88.8356C128.377 88.3747 129.215 88.3085 129.913 88.664C130.611 89.0196 131.05 89.7362 131.05 90.5193V128.862C131.05 130.012 130.118 130.944 128.968 130.944ZM117.31 126.78H126.887V94.6072L117.31 101.572V126.78Z" fill="#333333"/>
<path d="M180.177 130.944H166.437C165.288 130.944 164.355 130.012 164.355 128.862V119.119C164.355 117.969 165.288 117.037 166.437 117.037C167.587 117.037 168.519 117.969 168.519 119.119V126.78H178.095V101.572L168.519 94.6072V113.012C168.519 114.162 167.587 115.094 166.437 115.094C165.288 115.094 164.355 114.162 164.355 113.012V90.5189C164.355 89.7357 164.795 89.0192 165.492 88.6636C166.191 88.3084 167.028 88.3746 167.662 88.8351L181.402 98.8279C181.94 99.2193 182.259 99.8455 182.259 100.511V128.862C182.259 130.012 181.327 130.944 180.177 130.944Z" fill="#333333"/>
<path d="M158.184 33.6563C157.272 33.6563 156.435 33.0521 156.179 32.1303C155.164 28.4725 153.755 24.9122 151.99 21.548C151.456 20.5299 151.848 19.2713 152.866 18.7375C153.884 18.2037 155.142 18.5955 155.677 19.6139C157.578 23.2392 159.097 27.0756 160.191 31.0174C160.498 32.1253 159.849 33.2728 158.742 33.5801C158.556 33.6313 158.368 33.6563 158.184 33.6563Z" fill="white"/>
<path d="M150.372 16.9296C149.711 16.9296 149.061 16.6153 148.657 16.0299C147.851 14.8615 146.988 13.7124 146.091 12.6132C145.364 11.7226 145.497 10.411 146.388 9.68404C147.278 8.95665 148.59 9.08948 149.317 9.9805C150.284 11.1655 151.215 12.405 152.084 13.6649C152.737 14.6113 152.499 15.9079 151.553 16.5607C151.192 16.8101 150.78 16.9296 150.372 16.9296Z" fill="white"/>
<path d="M103.468 151.337C99.7946 151.337 96.806 148.349 96.806 144.676C96.806 141.002 99.7946 138.014 103.468 138.014C107.141 138.014 110.13 141.002 110.13 144.676C110.13 148.349 107.141 151.337 103.468 151.337ZM103.468 142.177C102.09 142.177 100.97 143.298 100.97 144.676C100.97 146.053 102.09 147.174 103.468 147.174C104.846 147.174 105.966 146.053 105.966 144.676C105.966 143.298 104.846 142.177 103.468 142.177Z" fill="#333333"/>
<path d="M196.631 141.206C192.058 141.206 188.337 137.486 188.337 132.913C188.337 128.34 192.058 124.619 196.631 124.619C201.204 124.619 204.924 128.34 204.924 132.913C204.924 137.486 201.204 141.206 196.631 141.206ZM196.631 128.783C194.353 128.783 192.501 130.636 192.501 132.913C192.501 135.19 194.354 137.043 196.631 137.043C198.908 137.043 200.761 135.19 200.761 132.913C200.761 130.635 198.908 128.783 196.631 128.783Z" fill="#333333"/>
<path d="M94.0845 166.578C93.7627 166.578 93.4358 166.503 93.1302 166.345C92.1089 165.817 91.7088 164.561 92.2367 163.54C93.4879 161.119 93.6703 157.547 93.6353 156.374C93.6007 155.225 94.5042 154.266 95.6534 154.231C96.8001 154.195 97.7623 155.1 97.7968 156.249C97.8035 156.465 97.9334 161.586 95.9357 165.452C95.5655 166.167 94.8382 166.578 94.0845 166.578Z" fill="#333333"/>
<path d="M123.425 165.716C122.569 165.716 121.767 165.184 121.464 164.332C120.258 160.944 120.944 157.866 121.026 157.527C121.295 156.409 122.42 155.723 123.538 155.992C124.652 156.261 125.339 157.38 125.076 158.494C125.061 158.56 124.597 160.715 125.387 162.936C125.772 164.019 125.207 165.209 124.123 165.595C123.892 165.677 123.657 165.716 123.425 165.716Z" fill="#333333"/>
<path d="M111.283 165.271C110.977 165.271 110.666 165.203 110.372 165.06C109.339 164.556 108.91 163.309 109.414 162.276C111.024 158.975 114.062 157.468 114.403 157.307C115.442 156.816 116.684 157.261 117.174 158.301C117.663 159.337 117.223 160.573 116.191 161.067C116.129 161.098 114.128 162.109 113.156 164.101C112.795 164.841 112.054 165.271 111.283 165.271Z" fill="#333333"/>
<path d="M115.29 161.273C114.78 161.273 114.276 161.085 113.884 160.726C111.009 158.096 107.28 156.647 103.382 156.647C101.014 156.647 98.7396 157.166 96.6215 158.188C96.0232 158.477 95.3225 158.463 94.7358 158.15C94.1496 157.837 93.7478 157.263 93.6549 156.605C92.8588 150.972 89.3355 146.085 84.2301 143.533C83.2017 143.02 82.7845 141.769 83.2987 140.74C83.8125 139.712 85.0628 139.295 86.0916 139.809C91.6314 142.578 95.6689 147.567 97.2527 153.453C99.2196 152.809 101.272 152.483 103.382 152.483C107.867 152.483 112.176 153.996 115.659 156.77C117.551 156.059 119.554 155.725 121.613 155.798C123.339 151.77 127.212 149.014 131.649 148.759C132.326 146.271 134.211 144.237 136.754 143.408C137.849 143.052 139.022 143.651 139.378 144.744C139.734 145.837 139.136 147.012 138.043 147.368C136.562 147.85 135.562 149.21 135.537 150.765C135.54 150.809 135.541 150.853 135.541 150.897C135.541 151.493 135.286 152.06 134.839 152.456C134.393 152.851 133.8 153.035 133.207 152.964C132.878 152.923 132.588 152.904 132.322 152.904C128.901 152.904 125.918 155.219 125.066 158.535C124.801 159.568 123.798 160.237 122.741 160.076C122.199 159.994 121.646 159.953 121.097 159.953C119.379 159.953 117.728 160.328 116.191 161.067C115.904 161.205 115.596 161.273 115.29 161.273Z" fill="#333333"/>
<path d="M78.8227 181H60.471C59.8536 181 59.2682 180.726 58.8726 180.252C58.4771 179.778 58.3126 179.153 58.4229 178.545C58.7685 176.648 59.3968 174.849 60.2966 173.177C56.8695 169.263 55 164.306 55 159.05C55 147.196 64.6434 137.553 76.4969 137.553C77.6465 137.553 78.5788 138.485 78.5788 139.635C78.5788 140.784 77.6465 141.716 76.4969 141.716C66.9393 141.716 59.1637 149.492 59.1637 159.05C59.1637 163.734 61.0052 168.123 64.3491 171.409C65.0602 172.108 65.176 173.213 64.6251 174.044C64.0422 174.923 63.565 175.857 63.1966 176.837H78.8227C79.9723 176.837 80.9046 177.769 80.9046 178.919C80.9046 180.068 79.9723 181 78.8227 181Z" fill="#333333"/>
<path d="M234.936 181H202.9C201.75 181 200.818 180.068 200.818 178.918C200.818 177.769 201.75 176.836 202.9 176.836H232.21C231.842 175.856 231.365 174.923 230.782 174.044C230.231 173.212 230.347 172.107 231.058 171.409C233.179 169.325 234.735 166.725 235.558 163.89C235.879 162.786 237.035 162.15 238.138 162.471C239.242 162.792 239.877 163.947 239.557 165.051C238.688 168.043 237.163 170.822 235.11 173.175C236.009 174.847 236.638 176.647 236.984 178.545C237.094 179.153 236.929 179.778 236.534 180.252C236.139 180.726 235.554 181 234.936 181Z" fill="#333333"/>
<path d="M238.326 161.132C237.176 161.132 236.244 160.199 236.244 159.05C236.244 157.872 236.125 156.696 235.891 155.555C235.661 154.429 236.387 153.328 237.514 153.098C238.637 152.867 239.74 153.593 239.971 154.72C240.26 156.136 240.407 157.592 240.407 159.05C240.407 160.199 239.475 161.132 238.326 161.132Z" fill="#333333"/>
<path d="M180.117 161.273C179.811 161.273 179.503 161.205 179.215 161.067C177.678 160.328 176.028 159.953 174.309 159.953C173.764 159.953 173.21 159.994 172.664 160.076C171.61 160.233 170.605 159.568 170.34 158.534C169.489 155.219 166.505 152.903 163.084 152.903C162.818 152.903 162.529 152.923 162.2 152.963C161.608 153.035 161.014 152.85 160.568 152.455C160.121 152.06 159.866 151.493 159.866 150.896C159.866 150.863 159.867 150.816 159.869 150.772C159.848 149.175 158.769 147.764 157.233 147.328C156.126 147.015 155.484 145.863 155.797 144.757C156.111 143.652 157.26 143.009 158.368 143.322C161.022 144.075 163.04 146.181 163.753 148.758C168.192 149.011 172.067 151.767 173.794 155.797C175.857 155.727 177.856 156.058 179.748 156.77C183.23 153.996 187.54 152.482 192.025 152.482C194.135 152.482 196.189 152.808 198.155 153.453C200.649 144.227 209.151 137.551 218.91 137.551C226.483 137.551 233.355 141.42 237.293 147.9C237.89 148.883 237.578 150.164 236.595 150.761C235.612 151.357 234.332 151.045 233.735 150.063C230.558 144.836 225.016 141.715 218.91 141.715C210.328 141.715 202.952 148.116 201.752 156.604C201.659 157.263 201.257 157.837 200.671 158.149C200.084 158.462 199.383 158.476 198.785 158.187C196.667 157.164 194.393 156.646 192.025 156.646C188.127 156.646 184.397 158.095 181.523 160.725C181.131 161.086 180.627 161.273 180.117 161.273Z" fill="#333333"/>
<path d="M201.323 166.578C200.569 166.578 199.841 166.167 199.472 165.451C197.474 161.586 197.604 156.465 197.61 156.249C197.645 155.1 198.612 154.188 199.754 154.231C200.902 154.266 201.805 155.223 201.772 156.372C201.771 156.414 201.675 160.645 203.171 163.54C203.699 164.561 203.298 165.818 202.277 166.345C201.971 166.503 201.645 166.578 201.323 166.578Z" fill="#333333"/>
<path d="M171.982 165.716C171.75 165.716 171.515 165.677 171.285 165.595C170.201 165.209 169.636 164.019 170.021 162.936C170.82 160.691 170.337 158.514 170.332 158.492C170.077 157.376 170.769 156.257 171.884 155.995C173 155.734 174.113 156.414 174.382 157.526C174.464 157.866 175.15 160.944 173.944 164.331C173.64 165.184 172.838 165.716 171.982 165.716Z" fill="#333333"/>
<path d="M184.124 165.271C183.353 165.271 182.613 164.841 182.252 164.101C181.264 162.077 179.248 161.082 179.228 161.072C178.188 160.581 177.743 159.341 178.234 158.301C178.725 157.261 179.965 156.815 181.005 157.307C181.346 157.468 184.385 158.976 185.994 162.276C186.498 163.309 186.069 164.556 185.036 165.06C184.741 165.203 184.43 165.271 184.124 165.271Z" fill="#333333"/>
<path d="M143.956 155.185C142.807 155.185 141.875 154.253 141.875 153.104V134.367C141.875 133.218 142.807 132.285 143.956 132.285C145.106 132.285 146.038 133.218 146.038 134.367V153.104C146.038 154.254 145.106 155.185 143.956 155.185Z" fill="white"/>
<path d="M151.451 155.185C150.301 155.185 149.369 154.253 149.369 153.104V134.367C149.369 133.218 150.301 132.285 151.451 132.285C152.6 132.285 153.533 133.218 153.533 134.367V153.104C153.533 154.254 152.6 155.185 151.451 155.185Z" fill="white"/>
<path d="M207.037 181C205.888 181 204.956 180.068 204.956 178.918C204.956 171.228 211.212 164.97 218.903 164.97C220.053 164.97 220.985 165.903 220.985 167.052C220.985 168.202 220.053 169.134 218.903 169.134C213.508 169.134 209.119 173.523 209.119 178.918C209.119 180.068 208.187 181 207.037 181Z" fill="#333333"/>
<path d="M217.177 131.037C217.039 131.037 216.906 131.021 216.769 130.996C216.635 130.971 216.506 130.929 216.381 130.875C216.257 130.825 216.136 130.759 216.019 130.684C215.907 130.609 215.803 130.521 215.703 130.425C215.316 130.038 215.095 129.505 215.095 128.956C215.095 128.818 215.107 128.681 215.136 128.548C215.161 128.414 215.203 128.285 215.253 128.16C215.307 128.031 215.37 127.911 215.445 127.798C215.52 127.686 215.607 127.577 215.703 127.482C215.803 127.386 215.907 127.299 216.019 127.224C216.136 127.149 216.257 127.086 216.381 127.032C216.506 126.982 216.635 126.94 216.769 126.915C217.039 126.861 217.314 126.861 217.585 126.915C217.718 126.94 217.847 126.982 217.972 127.032C218.097 127.086 218.218 127.149 218.334 127.224C218.447 127.299 218.555 127.386 218.651 127.482C218.746 127.577 218.834 127.686 218.909 127.798C218.984 127.911 219.046 128.031 219.1 128.16C219.15 128.285 219.192 128.414 219.217 128.548C219.246 128.681 219.258 128.818 219.258 128.956C219.258 129.501 219.038 130.038 218.651 130.425C218.555 130.521 218.447 130.609 218.334 130.684C218.218 130.759 218.097 130.825 217.972 130.875C217.847 130.929 217.718 130.971 217.585 130.996C217.447 131.021 217.314 131.037 217.177 131.037Z" fill="#333333"/>
<path d="M92.2672 134.368C91.7176 134.368 91.1805 134.143 90.7933 133.756C90.406 133.369 90.1854 132.832 90.1854 132.286C90.1854 132.149 90.1979 132.012 90.227 131.878C90.252 131.745 90.2936 131.616 90.3436 131.487C90.3977 131.362 90.4602 131.241 90.5351 131.129C90.6142 131.017 90.6975 130.908 90.7933 130.813C91.2762 130.33 91.9966 130.109 92.6752 130.246C92.8085 130.271 92.9375 130.313 93.0624 130.363C93.1874 130.417 93.3081 130.479 93.4247 130.554C93.5371 130.629 93.6412 130.717 93.7411 130.813C93.8369 130.908 93.9202 131.017 93.9993 131.129C94.0742 131.241 94.1367 131.362 94.1908 131.487C94.2408 131.616 94.2824 131.745 94.3074 131.878C94.3365 132.012 94.349 132.149 94.349 132.286C94.349 132.832 94.1283 133.369 93.7411 133.756C93.6412 133.852 93.5371 133.939 93.4247 134.014C93.3081 134.089 93.1874 134.156 93.0624 134.206C92.9375 134.26 92.8085 134.302 92.6752 134.327C92.542 134.352 92.4046 134.368 92.2672 134.368Z" fill="#333333"/>
<path d="M66.4526 127.707C66.3152 127.707 66.1819 127.69 66.0445 127.665C65.9113 127.64 65.7822 127.598 65.6573 127.544C65.5324 127.494 65.4116 127.428 65.2951 127.353C65.1826 127.278 65.0744 127.19 64.9786 127.094C64.5914 126.707 64.3707 126.17 64.3707 125.625C64.3707 125.487 64.3832 125.35 64.4124 125.217C64.4373 125.083 64.479 124.954 64.5289 124.829C64.5831 124.7 64.6455 124.58 64.7205 124.467C64.7954 124.355 64.8829 124.247 64.9786 124.151C65.0744 124.055 65.1826 123.968 65.2951 123.893C65.4116 123.818 65.5324 123.755 65.6573 123.701C65.7822 123.651 65.9113 123.609 66.0445 123.584C66.3152 123.526 66.59 123.526 66.8606 123.584C66.9938 123.609 67.1229 123.651 67.2478 123.701C67.3727 123.755 67.4976 123.818 67.61 123.893C67.7225 123.968 67.8307 124.055 67.9265 124.151C68.0222 124.247 68.1097 124.355 68.1846 124.467C68.2596 124.58 68.322 124.7 68.3762 124.829C68.4261 124.954 68.4678 125.083 68.4927 125.217C68.5219 125.35 68.5344 125.487 68.5344 125.625C68.5344 126.17 68.3137 126.707 67.9265 127.094C67.8307 127.19 67.7225 127.278 67.61 127.353C67.4976 127.428 67.3727 127.494 67.2478 127.544C67.1229 127.598 66.9938 127.64 66.8606 127.665C66.7274 127.69 66.59 127.707 66.4526 127.707Z" fill="#333333"/>
<path d="M144.184 168.825C143.217 168.825 142.349 168.147 142.147 167.161C141.751 165.231 140.098 163.793 138.127 163.663C136.98 163.588 136.111 162.596 136.187 161.449C136.262 160.302 137.253 159.436 138.401 159.508C142.236 159.761 145.454 162.563 146.226 166.324C146.457 167.45 145.731 168.551 144.605 168.782C144.464 168.811 144.323 168.825 144.184 168.825Z" fill="#333333"/>
<path d="M139.828 175.835C139.712 175.835 139.594 175.825 139.475 175.805C138.341 175.611 137.58 174.535 137.774 173.402C138.495 169.188 141.819 165.923 146.047 165.274C149.993 164.668 153.899 166.475 155.994 169.875C156.598 170.854 156.293 172.136 155.314 172.74C154.335 173.343 153.052 173.038 152.449 172.059C151.234 170.086 148.967 169.038 146.678 169.39C144.225 169.766 142.296 171.66 141.878 174.104C141.704 175.118 140.824 175.835 139.828 175.835Z" fill="#333333"/>
<path d="M166.117 42.1206H158.765C157.615 42.1206 156.683 41.1883 156.683 40.0387C156.683 38.8891 157.615 37.9569 158.765 37.9569H166.117C167.266 37.9569 168.198 38.8891 168.198 40.0387C168.198 41.1883 167.266 42.1206 166.117 42.1206Z" fill="#333333"/>
<path d="M152.658 42.1206H129.285C128.135 42.1206 127.203 41.1883 127.203 40.0387C127.203 38.8891 128.135 37.9569 129.285 37.9569H152.658C153.808 37.9569 154.74 38.8891 154.74 40.0387C154.74 41.1883 153.808 42.1206 152.658 42.1206Z" fill="#333333"/>
<path d="M147.703 62.6149C152.22 62.6149 155.883 58.9527 155.883 54.435C155.883 49.9174 152.22 46.2551 147.703 46.2551C143.185 46.2551 139.523 49.9174 139.523 54.435C139.523 58.9527 143.185 62.6149 147.703 62.6149Z" fill="#61CCF2"/>
<path d="M147.703 62.6149C152.22 62.6149 155.883 58.9526 155.883 54.435C155.883 49.9175 152.22 46.2551 147.703 46.2551" fill="white"/>
<path d="M147.703 64.6968C142.044 64.6968 137.441 60.0935 137.441 54.4351C137.441 48.7767 142.044 44.1733 147.703 44.1733C149.651 44.1733 151.547 44.7221 153.186 45.7601C154.158 46.3755 154.447 47.6612 153.832 48.6326C153.217 49.604 151.931 49.8934 150.959 49.278C149.987 48.6622 148.861 48.337 147.703 48.337C144.341 48.337 141.605 51.0725 141.605 54.4351C141.605 57.7976 144.341 60.5331 147.703 60.5331C151.066 60.5331 153.801 57.7976 153.801 54.4351C153.801 53.2855 154.734 52.3532 155.883 52.3532C157.033 52.3532 157.965 53.2855 157.965 54.4351C157.965 60.0935 153.361 64.6968 147.703 64.6968Z" fill="#333333"/>
<path d="M159.78 124.697C158.631 124.697 157.698 123.765 157.698 122.616V64.1589C157.698 63.0093 158.631 62.077 159.78 62.077C160.93 62.077 161.862 63.0093 161.862 64.1589V122.616C161.862 123.765 160.93 124.697 159.78 124.697Z" fill="white"/>
<path d="M159.78 57.4966C158.631 57.4966 157.698 56.5643 157.698 55.4147V50.002C157.698 48.8524 158.631 47.9202 159.78 47.9202C160.93 47.9202 161.862 48.8524 161.862 50.002V55.4147C161.862 56.5647 160.93 57.4966 159.78 57.4966Z" fill="white"/>
</g>
<defs>
<radialGradient id="paint0_radial" cx="0" cy="0" r="1" gradientUnits="userSpaceOnUse" gradientTransform="translate(150 156.5) rotate(90) scale(113 205.455)">
<stop stop-color="white"/>
<stop offset="0.109375" stop-color="#FFF4CB"/>
<stop offset="0.21875" stop-color="#FF6767"/>
<stop offset="0.505208" stop-color="#0676A6"/>
<stop offset="1" stop-color="#0676A6"/>
</radialGradient>
</defs>
</svg>
