<svg width="300" height="165" viewBox="0 0 300 165" fill="none" xmlns="http://www.w3.org/2000/svg">
<mask id="mask0" mask-type="alpha" maskUnits="userSpaceOnUse" x="0" y="0" width="300" height="165">
<rect width="300" height="165" fill="#C4C4C4"/>
</mask>
<g mask="url(#mask0)">
<rect width="300" height="165" fill="#BAE4F6"/>
<rect y="134" width="300" height="31" fill="#4FAF14"/>
<path d="M223.183 71.4613L205.362 73.9989L206.067 78.949L223.887 76.4114L223.183 71.4613Z" fill="#003A7F"/>
<path d="M233.361 79.1027L230.493 79.5112C227.156 79.9863 224.041 77.4905 223.535 73.9364C223.029 70.3826 225.323 67.1162 228.66 66.641L231.529 66.2325L233.361 79.1027Z" fill="#CE1128"/>
<path d="M191.486 86.5044L166.715 90.0317L167.847 97.9797L192.618 94.4523L191.486 86.5044Z" fill="#003A7F"/>
<path d="M164.264 137.51C165.373 145.294 172.582 150.706 180.366 149.598C188.15 148.489 193.562 141.28 192.453 133.496L164.264 137.51Z" fill="#003A7F"/>
<path d="M171.818 136.351C172.363 140.178 175.686 142.871 179.239 142.364C182.793 141.858 185.233 138.345 184.688 134.518L171.818 136.351Z" fill="white"/>
<path d="M220.328 129.443C221.418 137.097 228.507 142.419 236.162 141.329C243.817 140.239 249.139 133.15 248.049 125.495L220.328 129.443Z" fill="#003A7F"/>
<path d="M227.258 128.456C227.803 132.283 230.905 135.007 234.185 134.54C237.466 134.073 239.683 130.592 239.138 126.764L227.258 128.456Z" fill="white"/>
<path d="M216.156 130.121L158.24 138.368C150.275 139.502 143.959 124.599 155.814 111.077C167.67 97.5545 180.058 96.2399 192.646 94.4474C199.151 93.521 200.801 98.7985 201.284 102.19C201.767 105.581 202.854 113.216 203.189 115.565C204.318 123.493 215.983 124.415 222.507 110.267C229.03 96.1203 217.625 77.5636 217.625 77.5636L224.016 76.6532C224.016 76.6532 233.184 91.6295 238.021 109.815C221.288 115.909 216.156 130.121 216.156 130.121Z" fill="#CE1128"/>
<path d="M217.443 129.937L249.816 125.328C249.816 125.328 248.328 112.582 238.021 109.815C238.021 109.815 222.421 113.875 217.443 129.937Z" fill="#CE1128"/>
<path d="M239.833 108.359C236.729 97.1921 232.163 87.4169 229.093 81.5225C229.687 81.5655 230.295 81.5482 230.908 81.4608L233.855 81.0412C235.078 80.867 235.929 79.7353 235.755 78.5134L233.99 66.1191C233.816 64.8972 232.683 64.0479 231.46 64.2222L228.513 64.6417C225.785 65.0302 223.543 66.6794 222.29 68.9138L205.056 71.368C203.833 71.5422 202.982 72.6738 203.156 73.8957L203.976 79.6524C204.15 80.8743 205.282 81.7235 206.506 81.5493L216.292 80.1558C218.597 84.4211 225.424 98.6819 220.36 109.646C216.951 117.029 212.06 119.843 208.726 119.355C206.77 119.07 205.476 117.698 205.176 115.591L203.263 102.156C202.389 96.0184 199.154 92.552 194.259 92.3599L193.411 86.3997C193.237 85.1778 192.104 84.3286 190.881 84.5028L165.965 88.0508C164.742 88.225 163.891 89.3567 164.065 90.5786L165.202 98.5618C165.27 99.0394 165.486 99.4587 165.795 99.7838C161.693 102.145 157.625 105.383 153.631 109.933C149.902 114.181 147.523 118.97 146.75 123.785C146.065 128.048 146.662 132.194 148.431 135.458C150.588 139.437 154.278 141.574 158.063 141.035L162.061 140.466C164.283 148.295 172.028 153.492 180.315 152.312C188.602 151.132 194.588 143.98 194.537 135.841L216.316 132.74C216.537 132.708 216.748 132.642 216.944 132.551C217.16 132.585 217.384 132.588 217.611 132.555L217.655 132.549C219.877 140.379 227.622 145.576 235.908 144.396C244.195 143.216 250.181 136.063 250.13 127.925L250.172 127.919C251.374 127.748 252.22 126.651 252.08 125.446C252.014 124.884 250.399 112.104 239.833 108.359ZM247.19 123.829L219.903 127.715C222.442 123.446 227.939 116.391 238.074 112.483C243.966 114.443 246.328 120.548 247.19 123.829ZM237.205 129.765C236.641 130.934 235.524 131.811 234.144 132.007C232.765 132.203 231.448 131.673 230.58 130.709L237.205 129.765ZM229.143 69.0664L229.875 68.9623L231.009 76.9317L230.278 77.0359C228.078 77.3491 226.034 75.8164 225.721 73.6193C225.408 71.4222 226.943 69.3797 229.143 69.0664ZM207.901 75.4776L221.196 73.5844L221.386 74.9164L208.091 76.8096L207.901 75.4776V75.4776ZM169.317 95.7188L168.81 92.1603L189.296 89.2431L189.802 92.7999C189.239 92.8798 188.674 92.9606 188.109 93.043L169.317 95.719L169.317 95.7188ZM179.685 147.888C173.847 148.719 168.377 145.212 166.547 139.827L170.18 139.31C171.662 142.736 175.306 144.9 179.181 144.348C183.055 143.797 185.951 140.702 186.418 136.998L190.051 136.48C189.797 142.162 185.524 147.057 179.685 147.888ZM174.986 138.625L181.612 137.682C181.048 138.85 179.931 139.727 178.551 139.923C177.172 140.12 175.854 139.59 174.986 138.625ZM157.433 136.611C156.783 136.703 156.136 136.619 155.515 136.381C155.975 134.63 156.631 132.917 157.472 131.283C161.511 123.44 169.37 117.982 178.495 116.683C181.907 116.197 185.317 116.308 188.629 117.011C189.837 117.268 191.026 116.498 191.283 115.291C191.541 114.083 190.77 112.896 189.561 112.64C185.734 111.827 181.799 111.698 177.864 112.259C167.306 113.762 158.195 120.11 153.493 129.24C152.929 130.335 152.437 131.462 152.016 132.61C149.897 127.854 150.617 120.146 156.995 112.88C167.153 101.308 177.653 99.0868 188.709 97.4724L192.648 96.9116C192.648 96.9115 192.648 96.9115 192.648 96.9115L192.676 96.9076C195.103 96.5619 197.997 96.9177 198.833 102.787L200.746 116.224C201.328 120.309 204.137 123.204 208.078 123.779C210.905 124.192 214.007 123.321 216.812 121.327C219.814 119.194 222.446 115.802 224.424 111.519C229.877 99.7116 224.053 85.5256 221 79.4868L222.743 79.2386C224.902 83.0153 231.315 94.8535 235.303 108.78C221.87 114.404 216.098 124.85 214.432 128.495L157.434 136.612L157.433 136.611ZM235.279 139.971C229.44 140.803 223.97 137.296 222.14 131.911L225.773 131.393C227.256 134.82 230.9 136.983 234.774 136.432C238.649 135.88 241.544 132.785 242.011 129.081L245.644 128.564C245.391 134.246 241.117 139.14 235.279 139.971Z" fill="black"/>
<path d="M196.778 114.02C196.777 114.019 196.756 114.009 196.754 114.008C195.505 113.434 194.031 113.983 193.455 115.231C192.878 116.48 193.427 117.962 194.674 118.541C194.677 118.543 194.692 118.549 194.695 118.551C195.146 118.758 195.626 118.819 196.083 118.754C196.894 118.639 197.63 118.126 197.999 117.327C198.575 116.078 198.027 114.597 196.778 114.02Z" fill="black"/>
<path d="M70.7004 55H106.3C107.791 55 109 53.8808 109 52.5C109 51.1192 107.791 50 106.3 50H70.7004C69.209 50 68 51.1192 68 52.5C68 53.8808 69.2092 55 70.7004 55Z" fill="black"/>
<path d="M61.4851 55H61.5146C62.8873 55 64 53.8808 64 52.5C64 51.1192 62.8873 50 61.5146 50H61.4854C60.1127 50 59 51.1192 59 52.5C59 53.8808 60.1125 55 61.4851 55Z" fill="black"/>
<path d="M71.6203 67H110.63C111.939 67 113 65.8808 113 64.5C113 63.1192 111.939 62 110.63 62L71.6203 62C70.3112 62 69.25 63.1192 69.25 64.5C69.25 65.8808 70.3112 67 71.6203 67Z" fill="black"/>
<path d="M65.9286 64.5C65.9286 63.1192 64.8133 62 63.4375 62H48.4911C47.1153 62.0002 46 63.1195 46 64.5C46 65.8808 47.1153 67 48.4911 67H63.4375C64.8133 67 65.9286 65.8808 65.9286 64.5Z" fill="black"/>
<path d="M123.88 113.706H92.0003C90.6647 113.706 89.5821 114.891 89.5821 116.353C89.5821 117.815 90.6647 119 92.0003 119H123.88C125.216 119 126.298 117.815 126.298 116.353C126.298 114.891 125.216 113.706 123.88 113.706Z" fill="black"/>
<path d="M132.133 113.706H132.106C130.877 113.706 129.881 114.891 129.881 116.353C129.881 117.815 130.877 119 132.106 119H132.132C133.362 119 134.358 117.815 134.358 116.353C134.358 114.891 133.362 113.706 132.133 113.706Z" fill="black"/>
<path d="M123.056 101H88.1227C86.9503 101 86 102.185 86 103.647C86 105.109 86.9503 106.294 88.1227 106.294L123.056 106.294C124.229 106.294 125.179 105.109 125.179 103.647C125.179 102.185 124.229 101 123.056 101Z" fill="black"/>
<path d="M128.154 103.647C128.154 105.109 129.152 106.294 130.384 106.294H143.769C145.001 106.294 146 105.109 146 103.647C146 102.185 145.001 101 143.769 101H130.384C129.152 101 128.154 102.185 128.154 103.647Z" fill="black"/>
<path d="M119.74 54.3737L124.886 90.5092L161.022 85.3635L197.157 80.2178L192.011 44.0823L186.866 7.94684L150.73 13.0925L114.595 18.2382L119.74 54.3737Z" fill="#007ACC"/>
<path d="M135.756 52.3376L136.155 55.3005L140.858 54.6308L145.562 53.961L147.465 67.3254L149.368 80.6898L152.695 80.2161L156.021 79.7423L154.118 66.378L152.215 53.0136L156.918 52.3438L161.622 51.6741L161.209 48.7718C160.98 47.1657 160.754 45.8285 160.704 45.8006C160.663 45.7596 154.935 46.5518 147.996 47.5516L135.371 49.3845L135.756 52.3376Z" fill="white"/>
<path d="M177.658 43.2771C179.559 43.4746 181.075 44.0898 182.549 45.2375C183.316 45.854 184.487 47.0098 184.611 47.3081C184.647 47.3966 181.804 49.955 180.068 51.4078C180.006 51.4634 179.688 51.2044 179.313 50.7896C178.191 49.5683 177.133 49.1221 175.627 49.2312C173.415 49.3941 172.167 50.7422 172.451 52.6563C172.531 53.2184 172.659 53.5397 172.954 53.9658C173.578 54.8953 174.557 55.3644 177.541 56.1801C183.032 57.6689 185.455 58.822 187.129 60.7138C188.998 62.8236 189.871 66.4914 189.221 69.4047C188.502 72.5736 185.947 75.0207 182.04 76.2676C180.832 76.662 177.891 77.0458 176.526 76.9943C173.55 76.8914 170.592 75.8495 168.627 74.2099C167.857 73.5705 166.288 71.8393 166.348 71.6903C166.376 71.6395 166.648 71.4135 166.953 71.1711C167.248 70.9418 168.365 70.0689 169.417 69.2401L171.322 67.74L171.849 68.3203C172.59 69.1629 174.102 70.2468 174.965 70.5569C177.444 71.4445 180.586 70.8216 181.947 69.1999C182.525 68.4971 182.711 67.827 182.579 66.8978C182.459 66.0604 182.304 65.708 181.778 65.1391C181.102 64.4162 179.858 63.9027 176.399 62.9556C172.442 61.8805 170.694 61.1112 169 59.7372C168.021 58.9403 167.009 57.5863 166.501 56.4062C166.08 55.4245 165.647 52.8761 165.718 51.8126C165.974 48.1011 168.335 45.2017 172.152 43.8974C173.391 43.4751 176.364 43.1454 177.658 43.2771Z" fill="white"/>
</g>
</svg>
