<svg width="300" height="165" viewBox="0 0 300 165" fill="none" xmlns="http://www.w3.org/2000/svg">
<mask id="mask0" mask-type="alpha" maskUnits="userSpaceOnUse" x="0" y="0" width="300" height="165">
<rect width="300" height="165" fill="#C4C4C4"/>
</mask>
<g mask="url(#mask0)">
<rect width="300" height="165" fill="url(#paint0_linear)"/>
<rect y="122" width="300" height="42" fill="url(#paint1_linear)"/>
<path d="M232.559 82.5262C230.036 87.8538 224.2 91.5848 217.404 91.5848C210.422 91.5848 204.453 87.6473 202.05 82.0865C200.161 81.0108 198.652 79.2632 197.793 77.1379H197.008V89.3791C197.064 89.3765 197.121 89.3753 197.178 89.3753H197.518C199.583 89.3753 201.257 91.0494 201.257 93.1145V96.6837V100.253H204.656V110.111H206.526V125.577H204.656V131.016H214.174V125.577H211.965V110.111H223.012V125.577H221.143V131.016H230.661V125.577H228.451V110.111H230.321V100.253H233.55V96.6837V93.1145C233.55 91.0494 235.224 89.3753 237.289 89.3753H237.629C237.744 89.3753 237.857 89.3804 237.969 89.3905V77.1379H237.694C236.706 79.5837 234.856 81.5293 232.559 82.5262Z" fill="white"/>
<path d="M195.818 93.1995C195.818 94.6544 194.639 95.8339 193.184 95.8339C191.729 95.8339 190.549 94.6544 190.549 93.1995C190.549 91.7445 191.729 90.565 193.184 90.565C194.639 90.565 195.818 91.7445 195.818 93.1995Z" fill="white"/>
<path d="M241.793 95.8339C243.248 95.8339 244.428 94.6544 244.428 93.1995C244.428 91.7445 243.248 90.565 241.793 90.565C240.338 90.565 239.159 91.7445 239.159 93.1995C239.159 94.6544 240.338 95.8339 241.793 95.8339Z" fill="white"/>
<path d="M221.928 96.4419L213.09 96.4016C213.084 96.4016 213.078 96.4016 213.072 96.4016C210.925 96.4016 209.173 98.1436 209.163 100.293C209.154 102.449 210.899 104.21 213.055 104.22L221.893 104.26C221.899 104.26 221.905 104.26 221.911 104.26C224.058 104.26 225.81 102.518 225.82 100.369C225.829 98.2134 224.084 96.4518 221.928 96.4419ZM213.929 98.1052L215.175 98.1108L215.157 102.53L213.91 102.524L213.929 98.1052ZM216.875 98.1186L218.121 98.1242L218.102 102.543L216.856 102.538L216.875 98.1186ZM219.821 98.132L221.068 98.1376L221.048 102.557L219.802 102.551L219.821 98.132ZM210.863 100.301C210.867 99.3846 211.431 98.6001 212.229 98.2693L212.211 102.345C211.416 102.007 210.859 101.217 210.863 100.301ZM222.748 102.396L222.767 98.3149C223.564 98.6516 224.124 99.4428 224.12 100.361C224.115 101.278 223.546 102.066 222.748 102.396Z" fill="black"/>
<path d="M205.761 89.4363C204.168 89.4363 202.871 90.7324 202.871 92.3257C202.871 93.9189 204.168 95.215 205.761 95.215C207.354 95.215 208.65 93.9189 208.65 92.3257C208.65 90.7324 207.354 89.4363 205.761 89.4363ZM205.761 93.5154C205.105 93.5154 204.571 92.9817 204.571 92.3257C204.571 91.6696 205.105 91.1359 205.761 91.1359C206.417 91.1359 206.951 91.6696 206.951 92.3257C206.951 92.9817 206.417 93.5154 205.761 93.5154Z" fill="black"/>
<path d="M229.216 89.4364C227.623 89.4364 226.327 90.7325 226.327 92.3258C226.327 93.919 227.623 95.2151 229.216 95.2151C230.81 95.2151 232.106 93.919 232.106 92.3258C232.106 90.7325 230.81 89.4364 229.216 89.4364ZM229.216 93.5155C228.561 93.5155 228.027 92.9818 228.027 92.3258C228.027 91.6697 228.561 91.136 229.216 91.136C229.872 91.136 230.406 91.6697 230.406 92.3258C230.406 92.9818 229.872 93.5155 229.216 93.5155Z" fill="black"/>
<path d="M230.129 64.9052L230.416 65.3548L230.923 65.5222C232.003 65.8789 233.016 66.4849 233.873 67.3419C236.834 70.3029 236.822 75.1637 233.783 78.202C232.941 79.0446 231.733 79.5488 230.363 79.9705L229.867 80.1234L229.571 80.5508C229.075 81.2676 228.508 81.952 227.867 82.5927C222.191 88.2683 213.306 88.4483 207.789 82.9316C207.097 82.2391 206.493 81.4933 205.977 80.7077L205.658 80.2203L205.093 80.0767C203.817 79.752 202.616 79.098 201.626 78.1075C198.665 75.1464 198.677 70.2849 201.716 67.246C202.79 66.1722 204.093 65.4784 205.462 65.1592L206.015 65.0301L206.344 64.5666C206.816 63.9015 207.35 63.266 207.946 62.6701C213.599 57.0171 222.67 56.9762 228.207 62.5135C228.948 63.2542 229.586 64.055 230.129 64.9052Z" fill="white" stroke="black" stroke-width="3"/>
<path d="M227.675 72.1186C227.858 73.1716 227.707 74.294 227.218 75.4813C226.732 76.6717 225.914 77.8384 224.766 78.9866C223.389 80.3637 222.014 81.2602 220.639 81.6767C219.661 81.9661 218.684 82.0215 217.713 81.8442C216.742 81.6655 215.984 81.3044 215.44 80.7602C215.125 80.4456 214.974 80.0565 214.988 79.5949C214.999 79.1305 215.191 78.7155 215.558 78.3485C215.856 78.0502 216.196 77.8833 216.578 77.8545C216.959 77.8228 217.395 77.9055 217.885 78.1056C218.472 78.3375 219.006 78.4881 219.487 78.5545C219.966 78.6231 220.485 78.5596 221.036 78.364C221.588 78.1653 222.17 77.7629 222.779 77.1544C223.616 76.317 224.118 75.4576 224.283 74.5736C224.447 73.6927 224.261 72.9802 223.724 72.4433C223.298 72.018 222.809 71.8119 222.263 71.8304C221.715 71.8475 221.147 72.0091 220.56 72.3171C219.972 72.6228 219.225 73.0718 218.317 73.6647C217.1 74.4519 216.007 75.0374 215.044 75.4243C214.078 75.8098 213.147 75.9537 212.253 75.8511C211.355 75.7478 210.536 75.3254 209.796 74.5848C209.088 73.8774 208.67 73.0416 208.541 72.0735C208.411 71.1054 208.594 70.0791 209.093 68.9892C209.59 67.9008 210.377 66.8204 211.448 65.749C212.305 64.8925 213.144 64.2493 213.964 63.818C214.786 63.389 215.564 63.1313 216.3 63.0435C217.037 62.9549 217.678 62.9926 218.225 63.1594C218.77 63.3233 219.215 63.5781 219.552 63.9148C219.861 64.2242 220.023 64.623 220.033 65.1081C220.044 65.594 219.871 66.0156 219.516 66.3708C219.192 66.695 218.871 66.8655 218.554 66.8855C218.237 66.9048 217.811 66.8434 217.276 66.7002C216.537 66.4706 215.855 66.3959 215.228 66.4809C214.601 66.5651 213.895 66.9992 213.107 67.7864C212.379 68.5152 211.936 69.2507 211.784 69.9943C211.631 70.7357 211.762 71.316 212.176 71.7303C212.432 71.9858 212.732 72.1312 213.071 72.1666C213.41 72.2035 213.779 72.1526 214.18 72.0183C214.58 71.8876 214.955 71.7222 215.305 71.5272C215.653 71.3309 216.215 70.9896 216.99 70.5068C217.945 69.8902 218.845 69.3652 219.687 68.931C220.529 68.4983 221.321 68.2037 222.059 68.0463C222.798 67.892 223.518 67.9126 224.216 68.1098C224.913 68.3056 225.586 68.7264 226.234 69.3748C227.01 70.15 227.489 71.0663 227.675 72.1186Z" fill="black"/>
<path fill-rule="evenodd" clip-rule="evenodd" d="M238.008 76.1864C237.753 76.8698 237.425 77.5191 237.035 78.1255C237.09 78.355 237.119 78.5944 237.119 78.8406V88.332C234.617 88.7394 232.7 90.9163 232.7 93.5324V99.4811H228.824C228.404 96.0378 225.463 93.3624 221.908 93.3624H213.07C209.515 93.3624 206.573 96.0378 206.153 99.4811H202.277V93.5324C202.277 90.9163 200.361 88.7394 197.858 88.332V78.8406C197.858 78.3934 197.954 77.9684 198.127 77.5851C197.799 76.9987 197.528 76.3774 197.32 75.7283C196.596 76.5632 196.158 77.6516 196.158 78.8404V80.8652C194.033 81.2649 192.419 83.134 192.419 85.374V90.0748C190.955 90.4537 189.87 91.7817 189.87 93.3622C189.87 94.9427 190.955 96.2708 192.419 96.6497V101.589C191.335 101.764 190.335 102.272 189.543 103.064C188.548 104.059 188 105.382 188 106.789C188 108.197 188.548 109.52 189.543 110.515L190.745 109.313C190.071 108.639 189.7 107.743 189.7 106.789C189.7 105.836 190.071 104.94 190.745 104.266C191.419 103.591 192.316 103.22 193.269 103.22C194.222 103.22 195.119 103.591 195.793 104.266C197.184 105.657 197.184 107.922 195.793 109.313L196.994 110.515C199.049 108.461 199.049 105.118 196.994 103.064C196.203 102.272 195.203 101.764 194.119 101.589V96.6497C195.582 96.2708 196.668 94.9427 196.668 93.3622C196.668 91.7817 195.582 90.4537 194.119 90.0748V85.3741C194.119 84.0766 194.979 82.9765 196.158 82.6127V89.9631H197.008C198.976 89.9631 200.577 91.5644 200.577 93.5324V101.181H203.467V107.845C203.467 109.421 204.456 110.769 205.846 111.303V124.976H203.382V131.604H214.939V124.976H212.475V111.548H222.503V124.976H220.038V131.604H231.596V124.976H229.131V111.303C230.521 110.769 231.511 109.421 231.511 107.845V101.181H234.4V93.5324C234.4 91.5644 236.001 89.9631 237.969 89.9631H238.819V82.4934C240.333 82.5822 240.859 83.8384 240.859 85.3741V90.075C239.395 90.4538 238.309 91.7819 238.309 93.3624C238.309 94.9429 239.395 96.271 240.859 96.6498V101.59C239.774 101.765 238.774 102.272 237.983 103.064C235.928 105.118 235.928 108.461 237.983 110.515L239.184 109.313C237.793 107.922 237.793 105.657 239.184 104.266C239.859 103.591 240.755 103.22 241.708 103.22C242.662 103.22 243.558 103.591 244.232 104.266C245.624 105.657 245.624 107.922 244.232 109.313L245.434 110.515C247.488 108.461 247.488 105.118 245.434 103.064C244.642 102.272 243.643 101.765 242.558 101.59V96.6498C244.022 96.271 245.108 94.9429 245.108 93.3624C245.108 91.7819 244.022 90.4538 242.558 90.075V85.3741C242.558 82.9007 241.271 80.8793 238.819 80.7894V78.8404C238.819 77.8585 238.52 76.9451 238.008 76.1864ZM193.269 95.062C194.206 95.062 194.968 94.2996 194.968 93.3624C194.968 92.4252 194.206 91.6628 193.269 91.6628C192.332 91.6628 191.569 92.4252 191.569 93.3624C191.569 94.2996 192.332 95.062 193.269 95.062ZM213.24 129.904V126.675H205.081V129.904H213.24ZM207.546 121.154V124.976H210.775V121.154C210.297 121.422 209.747 121.576 209.16 121.576C208.574 121.576 208.024 121.422 207.546 121.154ZM209.16 116.647C208.27 116.647 207.546 117.372 207.546 118.262C207.546 119.152 208.27 119.877 209.16 119.877C210.051 119.877 210.775 119.152 210.775 118.262C210.775 117.372 210.051 116.647 209.16 116.647ZM209.16 114.948C209.747 114.948 210.297 115.102 210.775 115.37V111.548H207.546V115.37C208.024 115.102 208.574 114.948 209.16 114.948ZM225.817 114.948C226.403 114.948 226.953 115.102 227.431 115.37V111.548H224.202V115.37C224.68 115.102 225.231 114.948 225.817 114.948ZM225.817 119.877C226.707 119.877 227.431 119.152 227.431 118.262C227.431 117.372 226.707 116.647 225.817 116.647C224.927 116.647 224.202 117.372 224.202 118.262C224.202 119.152 224.927 119.877 225.817 119.877ZM229.896 129.904V126.675H221.738V129.904H229.896ZM224.202 121.154V124.976H227.431V121.154C226.953 121.422 226.403 121.576 225.817 121.576C225.231 121.576 224.68 121.422 224.202 121.154ZM227.807 109.849C228.912 109.849 229.811 108.95 229.811 107.845V101.181H228.824C228.404 104.624 225.463 107.299 221.908 107.299H213.07C209.515 107.299 206.573 104.624 206.153 101.181H205.166V107.845C205.166 108.95 206.065 109.849 207.17 109.849H227.807ZM213.07 105.6H221.908C224.813 105.6 227.177 103.236 227.177 100.331C227.177 97.4255 224.813 95.062 221.908 95.062H213.07C210.164 95.062 207.801 97.4255 207.801 100.331C207.801 103.236 210.164 105.6 213.07 105.6ZM241.708 91.6628C240.771 91.6628 240.009 92.4252 240.009 93.3624C240.009 94.2996 240.771 95.062 241.708 95.062C242.646 95.062 243.408 94.2996 243.408 93.3624C243.408 92.4252 242.646 91.6628 241.708 91.6628Z" fill="black"/>
<path d="M233.665 81.3983C232.928 81.8444 232.131 82.203 231.287 82.4595C228.615 87.3376 223.432 90.6529 217.489 90.6529C211.46 90.6529 206.214 87.2418 203.577 82.2485C202.702 81.9211 201.883 81.4814 201.138 80.9473C203.593 87.5977 209.996 92.3525 217.489 92.3525C224.811 92.3525 231.092 87.8117 233.665 81.3983Z" fill="black"/>
<path d="M207.748 52.5637C207.917 52.286 208.015 51.9601 208.015 51.6115C208.015 50.5965 207.187 49.7737 206.166 49.7737C205.144 49.7737 204.316 50.5965 204.316 51.6115C204.316 52.6265 205.144 53.4493 206.166 53.4493C206.463 53.4493 206.743 53.3798 206.992 53.2563L211.034 57.2734C211.287 57.0417 211.551 56.8224 211.826 56.6166L207.748 52.5637Z" fill="black"/>
<path d="M224.31 56.7499C224.58 56.961 224.839 57.1854 225.086 57.422L229.245 53.2891C229.476 53.392 229.732 53.4493 230.001 53.4493C231.023 53.4493 231.85 52.6265 231.85 51.6115C231.85 50.5965 231.023 49.7737 230.001 49.7737C228.98 49.7737 228.152 50.5965 228.152 51.6115C228.152 51.9866 228.265 52.3354 228.459 52.6262L224.31 56.7499Z" fill="black"/>
<path fill-rule="evenodd" clip-rule="evenodd" d="M218.556 44L219.916 48.3084L221.653 44.1365L222.843 48.4206L224.709 44.8856L225.761 48.7402L227.144 46.3496L228.745 49.8403L227.818 50.2654L227.039 48.5677L225.421 51.3654L224.405 47.6451L222.547 51.1662L221.46 47.2528L219.783 51.2785L218.556 47.3893L217.319 51.3104L215.86 47.6524L215.073 51.3551L213.436 47.9719L212.896 51.5634L211.066 48.4156L210.451 52.0609L208.787 49.3138L208.552 50.3237L207.559 50.0933L208.359 46.6412L209.902 49.1862L210.529 45.4641L212.319 48.5423L212.917 44.5588L214.695 48.2318L215.562 44.152L217.207 48.2764L218.556 44Z" fill="#FFC700"/>
<path d="M93.1709 80.2432C90.274 86.3614 83.5721 90.6461 75.767 90.6461C67.7489 90.6461 60.8949 86.1243 58.1344 79.7383C55.9662 78.503 54.2326 76.4961 53.2462 74.0554H52.3448V88.1131C52.4095 88.1102 52.4746 88.1087 52.54 88.1087H52.9303C55.3019 88.1087 57.2244 90.0313 57.2244 92.4028V96.5017V100.601H61.1281V111.921H63.2751V129.683H61.1281V135.929H72.0585V129.683H69.5211V111.921H82.2081V129.683H80.061V135.929H90.9914V129.683H88.454V111.921H90.601V100.601H94.3095V96.5017V92.4028C94.3095 90.0313 96.232 88.1087 98.6036 88.1087H98.994C99.1256 88.1087 99.2558 88.1146 99.3843 88.1262V74.0554H99.0685C97.9334 76.8641 95.8087 79.0984 93.1709 80.2432Z" fill="white"/>
<path d="M50.9785 92.5004C50.9785 94.1712 49.624 95.5257 47.9531 95.5257C46.2823 95.5257 44.9278 94.1712 44.9278 92.5004C44.9278 90.8295 46.2823 89.475 47.9531 89.475C49.624 89.475 50.9785 90.8295 50.9785 92.5004Z" fill="white"/>
<path d="M103.776 95.5257C105.447 95.5257 106.801 94.1712 106.801 92.5004C106.801 90.8295 105.447 89.475 103.776 89.475C102.105 89.475 100.751 90.8295 100.751 92.5004C100.751 94.1712 102.105 95.5257 103.776 95.5257Z" fill="white"/>
<path d="M80.963 96.2241L70.8136 96.1779C70.8066 96.1779 70.7997 96.1779 70.7929 96.1779C68.3271 96.1779 66.3154 98.1783 66.3038 100.647C66.2927 103.122 68.2973 105.145 70.7726 105.156L80.9222 105.203C80.929 105.203 80.9359 105.203 80.9429 105.203C83.4085 105.203 85.4202 103.202 85.4318 100.734C85.4431 98.2585 83.4381 96.2354 80.963 96.2241ZM71.777 98.1342L73.2079 98.1406L73.1868 103.215L71.7546 103.209L71.777 98.1342ZM75.1598 98.1496L76.5905 98.1561L76.5692 103.231L75.1385 103.224L75.1598 98.1496ZM78.5425 98.165L79.975 98.1715L79.9523 103.246L78.5214 103.24L78.5425 98.165ZM68.2557 100.656C68.2606 99.6035 68.9086 98.7026 69.8244 98.3227L69.8035 103.003C68.8908 102.615 68.2508 101.708 68.2557 100.656ZM81.905 103.061L81.9258 98.375C82.8418 98.7617 83.4846 99.6703 83.4799 100.725C83.4748 101.778 82.8214 102.683 81.905 103.061Z" fill="black"/>
<path d="M62.3964 88.1788C60.5668 88.1788 59.0783 89.6673 59.0783 91.497C59.0783 93.3266 60.5668 94.8151 62.3964 94.8151C64.2261 94.8151 65.7146 93.3266 65.7146 91.497C65.7146 89.6673 64.2261 88.1788 62.3964 88.1788ZM62.3964 92.8633C61.643 92.8633 61.0301 92.2504 61.0301 91.497C61.0301 90.7436 61.643 90.1307 62.3964 90.1307C63.1498 90.1307 63.7627 90.7436 63.7627 91.497C63.7627 92.2504 63.1498 92.8633 62.3964 92.8633Z" fill="black"/>
<path d="M89.3327 88.179C87.5031 88.179 86.0146 89.6674 86.0146 91.4971C86.0146 93.3268 87.5031 94.8152 89.3327 94.8152C91.1624 94.8152 92.6509 93.3268 92.6509 91.4971C92.6509 89.6674 91.1624 88.179 89.3327 88.179ZM89.3327 92.8634C88.5795 92.8634 87.9664 92.2505 87.9664 91.4971C87.9664 90.7437 88.5795 90.1308 89.3327 90.1308C90.0859 90.1308 90.699 90.7437 90.699 91.4971C90.699 92.2505 90.0861 92.8634 89.3327 92.8634Z" fill="black"/>
<path d="M90.5684 59.8876L90.8555 60.3373L91.3621 60.5046C92.6348 60.9249 93.8286 61.6389 94.8381 62.6484C98.3275 66.1378 98.3087 71.8608 94.7346 75.4348C93.7261 76.4434 92.2941 77.0351 90.7155 77.5211L90.2187 77.674L89.9231 78.1015C89.3463 78.9355 88.6858 79.7317 87.9405 80.477C81.3412 87.0763 70.9963 87.2941 64.5685 80.8663C63.7624 80.0602 63.059 79.1919 62.4589 78.277L62.1393 77.7897L61.5745 77.646C60.0715 77.2637 58.6572 76.4932 57.4903 75.3263C54.0008 71.8369 54.019 66.113 57.5938 62.5382C58.8571 61.2749 60.3913 60.4581 62.0023 60.0824L62.5559 59.9533L62.8849 59.4897C63.4341 58.716 64.0549 57.9766 64.7482 57.2833C71.3249 50.7065 81.8833 50.6554 88.3313 57.1035C89.1935 57.9656 89.9363 58.898 90.5684 59.8876Z" fill="white" stroke="black" stroke-width="3"/>
<path d="M87.562 68.2912C87.7723 69.5005 87.5993 70.7895 87.038 72.153C86.4799 73.5199 85.5404 74.8598 84.2218 76.1784C82.6403 77.7599 81.0613 78.7893 79.4823 79.2676C78.3596 79.6001 77.2377 79.6636 76.1217 79.4601C75.0074 79.2549 74.1366 78.8402 73.5116 78.2152C73.1504 77.8539 72.9766 77.407 72.9926 76.877C73.0053 76.3436 73.2258 75.8671 73.6473 75.4456C73.9899 75.103 74.3799 74.9114 74.8184 74.8783C75.2568 74.8419 75.7571 74.9368 76.3193 75.1666C76.9943 75.4329 77.6066 75.6059 78.1594 75.6822C78.7097 75.761 79.3051 75.688 79.9385 75.4634C80.572 75.2353 81.241 74.7731 81.9397 74.0743C82.9013 73.1127 83.4779 72.1257 83.667 71.1106C83.8561 70.099 83.6416 69.2807 83.025 68.6641C82.5366 68.1756 81.9743 67.939 81.3476 67.9603C80.7176 67.9798 80.0654 68.1655 79.3913 68.5192C78.7163 68.8702 77.8581 69.3858 76.8159 70.0667C75.4184 70.9707 74.1625 71.6432 73.0569 72.0875C71.9476 72.5301 70.8784 72.6955 69.8514 72.5776C68.8203 72.459 67.8807 71.9739 67.0302 71.1234C66.2178 70.3111 65.7378 69.3512 65.5894 68.2394C65.4394 67.1277 65.6497 65.949 66.2228 64.6974C66.7944 63.4475 67.6976 62.2068 68.928 60.9764C69.9116 59.9927 70.8758 59.2542 71.8171 58.7589C72.7609 58.2662 73.6538 57.9702 74.4993 57.8694C75.3456 57.7677 76.0824 57.8109 76.7099 58.0025C77.3358 58.1908 77.8471 58.4834 78.2338 58.87C78.589 59.2253 78.7756 59.6833 78.7867 60.2404C78.7986 60.7984 78.601 61.2826 78.1931 61.6905C77.8207 62.0628 77.4519 62.2586 77.0881 62.2816C76.7235 62.3037 76.2342 62.2332 75.6202 62.0687C74.7713 61.805 73.9887 61.7193 73.2688 61.8169C72.548 61.9136 71.7373 62.4122 70.8333 63.3162C69.9964 64.1531 69.4876 64.9978 69.3137 65.8517C69.1373 66.7031 69.2883 67.3695 69.764 67.8452C70.0574 68.1387 70.4025 68.3057 70.7908 68.3464C71.1809 68.3888 71.6041 68.3303 72.0654 68.176C72.5241 68.0259 72.955 67.836 73.3568 67.6121C73.7571 67.3866 74.4015 66.9947 75.292 66.4402C76.3884 65.7322 77.4221 65.1292 78.3889 64.6306C79.3556 64.1337 80.2655 63.7953 81.1126 63.6146C81.9615 63.4374 82.7891 63.4611 83.5904 63.6876C84.3901 63.9123 85.1634 64.3956 85.9081 65.1402C86.7988 66.0304 87.3493 67.0827 87.562 68.2912Z" fill="black"/>
<path fill-rule="evenodd" clip-rule="evenodd" d="M99.4294 72.9627C99.1356 73.7476 98.7596 74.4932 98.3115 75.1896C98.3748 75.4531 98.4084 75.7281 98.4084 76.0108V86.9107C95.5343 87.3786 93.3336 89.8785 93.3336 92.8828V99.7142H88.8826C88.3999 95.76 85.0219 92.6876 80.9394 92.6876H70.7898C66.7073 92.6876 63.329 95.76 62.8463 99.7142H58.3955V92.8828C58.3955 89.8785 56.1948 87.3786 53.3207 86.9107V76.0108C53.3207 75.4973 53.4315 75.0092 53.6303 74.569C53.2535 73.8956 52.9415 73.1821 52.7027 72.4366C51.8721 73.3955 51.3689 74.6454 51.3689 76.0106V78.3358C48.9279 78.7949 47.0748 80.9414 47.0748 83.5137V88.9121C45.3939 89.3472 44.147 90.8724 44.147 92.6874C44.147 94.5024 45.3939 96.0276 47.0748 96.4627V102.136C45.8295 102.336 44.6815 102.919 43.7723 103.829C42.6295 104.971 42 106.491 42 108.107C42 109.723 42.6295 111.243 43.7723 112.385L45.1524 111.005C44.3781 110.231 43.9518 109.202 43.9518 108.107C43.9518 107.012 44.3781 105.983 45.1524 105.209C45.9265 104.435 46.9559 104.008 48.0507 104.008C49.1455 104.008 50.1749 104.434 50.949 105.209C52.5472 106.807 52.5472 109.407 50.949 111.006L52.3292 112.386C54.6882 110.026 54.6882 106.188 52.3292 103.829C51.4198 102.919 50.2717 102.336 49.0267 102.136V96.4627C50.7076 96.0276 51.9544 94.5024 51.9544 92.6874C51.9544 90.8724 50.7076 89.3472 49.0267 88.9121V83.5139C49.0267 82.0239 50.0141 80.7604 51.3689 80.3427V88.7839H52.3448C54.605 88.7839 56.4437 90.6228 56.4437 92.8828V101.666H59.7618V109.319C59.7618 111.129 60.8982 112.677 62.4944 113.29V128.992H59.6642V136.604H72.9368V128.992H70.1066V113.572H81.6225V128.992H78.7923V136.604H92.0649V128.992H89.2347V113.29C90.8309 112.677 91.9673 111.129 91.9673 109.319V101.666H95.2855V92.8828C95.2855 90.6228 97.1243 88.7839 99.3843 88.7839H100.36V80.2057C102.099 80.3076 102.702 81.7502 102.702 83.5139V88.9123C101.022 89.3474 99.7747 90.8726 99.7747 92.6876C99.7747 94.5026 101.022 96.0278 102.702 96.4629V102.136C101.457 102.337 100.309 102.919 99.3999 103.829C97.0408 106.188 97.0408 110.027 99.3999 112.386L100.78 111.006C99.1817 109.407 99.1817 106.807 100.78 105.209C101.554 104.435 102.583 104.008 103.678 104.008C104.773 104.008 105.803 104.434 106.577 105.209C108.175 106.807 108.175 109.407 106.577 111.006L107.957 112.386C110.316 110.026 110.316 106.188 107.957 103.829C107.048 102.919 105.9 102.337 104.654 102.136V96.4629C106.335 96.0278 107.582 94.5026 107.582 92.6876C107.582 90.8726 106.335 89.3474 104.654 88.9123V83.5139C104.654 80.6734 103.176 78.352 100.36 78.2488V76.0106C100.36 74.883 100.017 73.834 99.4294 72.9627ZM48.0507 94.6394C49.127 94.6394 50.0026 93.7638 50.0026 92.6876C50.0026 91.6114 49.127 90.7357 48.0507 90.7357C46.9745 90.7357 46.0989 91.6114 46.0989 92.6876C46.0989 93.7638 46.9745 94.6394 48.0507 94.6394ZM70.9849 134.652V130.944H61.6161V134.652H70.9849ZM64.4463 124.603V128.992H68.1548V124.603C67.6055 124.911 66.9737 125.088 66.3005 125.088C65.6273 125.088 64.9955 124.911 64.4463 124.603ZM66.3005 119.428C65.2781 119.428 64.4463 120.26 64.4463 121.282C64.4463 122.305 65.2781 123.136 66.3005 123.136C67.3229 123.136 68.1548 122.305 68.1548 121.282C68.1548 120.26 67.3229 119.428 66.3005 119.428ZM66.3005 117.476C66.9737 117.476 67.6055 117.653 68.1548 117.961V113.572H64.4463V117.961C64.9955 117.653 65.6273 117.476 66.3005 117.476ZM85.4286 117.476C86.1018 117.476 86.7336 117.653 87.2829 117.961V113.572H83.5744V117.961C84.1236 117.653 84.7554 117.476 85.4286 117.476ZM85.4286 123.136C86.451 123.136 87.2829 122.305 87.2829 121.282C87.2829 120.26 86.451 119.428 85.4286 119.428C84.4062 119.428 83.5744 120.26 83.5744 121.282C83.5744 122.305 84.4062 123.136 85.4286 123.136ZM90.1131 134.652V130.944H80.7442V134.652H90.1131ZM83.5744 124.603V128.992H87.2829V124.603C86.7336 124.911 86.1018 125.088 85.4286 125.088C84.7554 125.088 84.1236 124.911 83.5744 124.603ZM87.714 111.621C88.9831 111.621 90.0155 110.588 90.0155 109.319V101.666H88.8826C88.4001 105.62 85.0219 108.693 80.9394 108.693H70.7898C66.7073 108.693 63.329 105.62 62.8463 101.666H61.7137V109.319C61.7137 110.588 62.7462 111.621 64.0151 111.621H87.714ZM70.7898 106.741H80.9394C84.2759 106.741 86.9901 104.027 86.9901 100.69C86.9901 97.3537 84.2759 94.6394 80.9394 94.6394H70.7898C67.4535 94.6394 64.739 97.3537 64.739 100.69C64.739 104.027 67.4535 106.741 70.7898 106.741ZM103.678 90.7357C102.602 90.7357 101.727 91.6114 101.727 92.6876C101.727 93.7638 102.602 94.6394 103.678 94.6394C104.755 94.6394 105.63 93.7638 105.63 92.6876C105.63 91.6114 104.755 90.7357 103.678 90.7357Z" fill="black"/>
<path d="M94.4419 78.9481C93.5954 79.4604 92.6794 79.8722 91.7109 80.1667C88.6426 85.7688 82.6902 89.576 75.8648 89.576C68.9413 89.576 62.9164 85.6587 59.8884 79.9244C58.8832 79.5485 57.9427 79.0435 57.0877 78.4301C59.9069 86.0675 67.2601 91.5278 75.8646 91.5278C84.2732 91.5278 91.4869 86.3132 94.4419 78.9481Z" fill="black"/>
<path d="M64.6782 45.8346C64.873 45.5157 64.9852 45.1414 64.9852 44.741C64.9852 43.5754 64.0344 42.6305 62.8615 42.6305C61.6886 42.6305 60.7377 43.5754 60.7377 44.741C60.7377 45.9066 61.6886 46.8515 62.8615 46.8515C63.2023 46.8515 63.5244 46.7717 63.8099 46.6299L68.4521 51.2431C68.7423 50.977 69.0458 50.7252 69.3617 50.4889L64.6782 45.8346Z" fill="black"/>
<path d="M83.6978 50.6419C84.0079 50.8844 84.3055 51.1421 84.5896 51.4138L89.3655 46.6676C89.6306 46.7858 89.9246 46.8515 90.234 46.8515C91.4069 46.8515 92.3577 45.9066 92.3577 44.741C92.3577 43.5754 91.4069 42.6305 90.234 42.6305C89.061 42.6305 88.1102 43.5754 88.1102 44.741C88.1102 45.1718 88.2401 45.5724 88.463 45.9063L83.6978 50.6419Z" fill="black"/>
<path fill-rule="evenodd" clip-rule="evenodd" d="M77.0908 36L78.6519 40.9477L80.6472 36.1568L82.0132 41.0766L84.1559 37.017L85.365 41.4437L86.9526 38.6983L88.791 42.7069L87.7265 43.1951L86.8324 41.2455L84.9745 44.4584L83.8075 40.186L81.6732 44.2296L80.4254 39.7354L78.5 44.3585L77.0908 39.8922L75.6701 44.3953L73.9948 40.1943L73.0904 44.4465L71.2105 40.5613L70.5909 44.6858L68.4885 41.0708L67.783 45.2571L65.8711 42.1023L65.6022 43.2621L64.4614 42.9975L65.3806 39.0332L67.1517 41.9558L67.872 37.6814L69.9279 41.2163L70.6151 36.6418L72.6559 40.8598L73.6525 36.1745L75.5414 40.911L77.0908 36Z" fill="#FFC700"/>
<rect width="300" height="165" fill="url(#paint2_radial)"/>
<path d="M171.421 75.4785C167.919 82.8737 159.818 88.0529 150.384 88.0529C140.692 88.0529 132.407 82.5872 129.071 74.8681C126.45 73.375 124.354 70.9492 123.162 67.999H122.072V84.991C122.151 84.9875 122.229 84.9858 122.308 84.9858H122.78C125.647 84.9858 127.971 87.3097 127.971 90.1762V95.1307V100.085H132.689V113.769H135.284V135.238H132.689V142.788H145.901V135.238H142.834V113.769H158.169V135.238H155.574V142.788H168.786V135.238H165.719V113.769H168.314V100.085H172.797V95.1307V90.1762C172.797 87.3097 175.121 84.9858 177.987 84.9858H178.459C178.618 84.9858 178.776 84.9929 178.931 85.0069V67.999H178.549C177.177 71.394 174.609 74.0947 171.421 75.4785Z" fill="white"/>
<path d="M120.421 90.2942C120.421 92.3138 118.784 93.951 116.764 93.951C114.744 93.951 113.107 92.3138 113.107 90.2942C113.107 88.2746 114.744 86.6373 116.764 86.6373C118.784 86.6373 120.421 88.2746 120.421 90.2942Z" fill="white"/>
<path d="M184.239 93.951C186.259 93.951 187.896 92.3138 187.896 90.2942C187.896 88.2746 186.259 86.6373 184.239 86.6373C182.22 86.6373 180.582 88.2746 180.582 90.2942C180.582 92.3138 182.22 93.951 184.239 93.951Z" fill="white"/>
<path d="M156.664 94.7952L144.396 94.7393C144.388 94.7393 144.38 94.7393 144.371 94.7393C141.391 94.7393 138.959 97.1573 138.945 100.141C138.932 103.133 141.355 105.578 144.347 105.592L156.615 105.648C156.623 105.648 156.632 105.648 156.64 105.648C159.62 105.648 162.052 103.23 162.066 100.246C162.08 97.2542 159.656 94.8089 156.664 94.7952ZM145.561 97.104L147.291 97.1117L147.265 103.246L145.534 103.238L145.561 97.104ZM149.65 97.1226L151.379 97.1304L151.353 103.264L149.624 103.257L149.65 97.1226ZM153.739 97.1412L155.47 97.149L155.443 103.283L153.713 103.275L153.739 97.1412ZM141.305 100.152C141.31 98.88 142.094 97.791 143.201 97.3319L143.175 102.989C142.072 102.52 141.299 101.424 141.305 100.152ZM157.803 103.059L157.828 97.3951C158.935 97.8625 159.712 98.9607 159.707 100.235C159.701 101.508 158.911 102.602 157.803 103.059Z" fill="black"/>
<path d="M134.222 85.0706C132.011 85.0706 130.212 86.8697 130.212 89.0813C130.212 91.2929 132.011 93.0921 134.222 93.0921C136.434 93.0921 138.233 91.2929 138.233 89.0813C138.233 86.8697 136.434 85.0706 134.222 85.0706ZM134.222 90.7328C133.312 90.7328 132.571 89.992 132.571 89.0813C132.571 88.1706 133.312 87.4298 134.222 87.4298C135.133 87.4298 135.874 88.1706 135.874 89.0813C135.874 89.992 135.133 90.7328 134.222 90.7328Z" fill="black"/>
<path d="M166.781 85.0707C164.57 85.0707 162.77 86.8699 162.77 89.0814C162.77 91.293 164.57 93.0922 166.781 93.0922C168.993 93.0922 170.792 91.293 170.792 89.0814C170.792 86.8699 168.993 85.0707 166.781 85.0707ZM166.781 90.7329C165.871 90.7329 165.13 89.9921 165.13 89.0814C165.13 88.1708 165.871 87.43 166.781 87.43C167.692 87.43 168.433 88.1708 168.433 89.0814C168.433 89.9921 167.692 90.7329 166.781 90.7329Z" fill="black"/>
<path d="M168.539 50.7054L168.826 51.155L169.332 51.3223C170.916 51.8453 172.402 52.7338 173.657 53.9895C178 58.3324 177.972 65.4484 173.532 69.8878C172.256 71.1643 170.461 71.8975 168.545 72.4874L168.048 72.6403L167.752 73.0677C167.045 74.0911 166.234 75.0681 165.32 75.9825C157.228 84.0738 144.526 84.3524 136.626 76.453C135.637 75.4635 134.773 74.3973 134.036 73.2736L133.716 72.7862L133.152 72.6426C131.283 72.1672 129.522 71.2085 128.071 69.7566C123.728 65.4136 123.755 58.2967 128.196 53.8563C129.765 52.2868 131.672 51.2714 133.675 50.8044L134.228 50.6753L134.557 50.2117C135.231 49.2623 135.993 48.3551 136.844 47.5045C144.912 39.4355 157.873 39.368 165.792 47.2872C166.851 48.3456 167.763 49.4903 168.539 50.7054Z" fill="white" stroke="black" stroke-width="3"/>
<path d="M164.641 61.0317C164.895 62.4934 164.686 64.0515 164.007 65.6996C163.333 67.3519 162.197 68.9714 160.603 70.5652C158.692 72.4768 156.783 73.7212 154.875 74.2994C153.518 74.7012 152.162 74.778 150.813 74.532C149.466 74.2839 148.413 73.7827 147.658 73.0272C147.221 72.5905 147.011 72.0503 147.03 71.4097C147.046 70.765 147.312 70.189 147.822 69.6795C148.236 69.2654 148.707 69.0338 149.237 68.9938C149.767 68.9498 150.372 69.0645 151.051 69.3423C151.867 69.6642 152.607 69.8732 153.276 69.9655C153.941 70.0607 154.66 69.9726 155.426 69.701C156.192 69.4252 157 68.8666 157.845 68.022C159.007 66.8596 159.704 65.6666 159.933 64.4396C160.161 63.2168 159.902 62.2277 159.157 61.4824C158.566 60.892 157.887 60.606 157.129 60.6317C156.368 60.6553 155.579 60.8797 154.765 61.3073C153.949 61.7316 152.911 62.3548 151.652 63.1779C149.962 64.2706 148.444 65.0834 147.108 65.6204C145.767 66.1555 144.475 66.3553 143.233 66.2129C141.987 66.0694 140.851 65.4832 139.823 64.4551C138.841 63.4732 138.261 62.3129 138.082 60.9691C137.9 59.6254 138.155 58.2006 138.847 56.6877C139.538 55.177 140.63 53.6772 142.117 52.19C143.306 51.001 144.472 50.1083 145.609 49.5096C146.75 48.9141 147.83 48.5563 148.851 48.4345C149.874 48.3116 150.765 48.3638 151.524 48.5954C152.28 48.8229 152.898 49.1766 153.365 49.644C153.795 50.0734 154.02 50.627 154.034 51.3004C154.048 51.9748 153.809 52.5601 153.316 53.0531C152.866 53.5032 152.42 53.7398 151.981 53.7676C151.54 53.7943 150.949 53.7092 150.206 53.5104C149.18 53.1916 148.234 53.088 147.364 53.2059C146.493 53.3228 145.513 53.9255 144.42 55.0182C143.409 56.0298 142.794 57.0508 142.583 58.083C142.37 59.112 142.553 59.9176 143.128 60.4927C143.482 60.8473 143.9 61.0492 144.369 61.0984C144.84 61.1496 145.352 61.0789 145.91 60.8925C146.464 60.7111 146.985 60.4815 147.47 60.2108C147.954 59.9382 148.733 59.4646 149.81 58.7943C151.135 57.9385 152.384 57.2097 153.553 56.607C154.722 56.0063 155.821 55.5974 156.845 55.3789C157.871 55.1647 158.872 55.1934 159.84 55.4671C160.807 55.7388 161.742 56.3229 162.642 57.223C163.718 58.299 164.384 59.571 164.641 61.0317Z" fill="black"/>
<path fill-rule="evenodd" clip-rule="evenodd" d="M178.985 66.6783C178.63 67.6269 178.176 68.5282 177.634 69.37C177.711 69.6885 177.751 70.0209 177.751 70.3626V83.5377C174.277 84.1033 171.617 87.125 171.617 90.7564V99.0139H166.237C165.654 94.2342 161.571 90.5205 156.636 90.5205H144.368C139.433 90.5205 135.35 94.2342 134.766 99.0139H129.386V90.7564C129.386 87.125 126.726 84.1033 123.252 83.5377V70.3626C123.252 69.7419 123.386 69.1519 123.626 68.6198C123.171 67.8058 122.794 66.9434 122.505 66.0424C121.501 67.2014 120.893 68.7122 120.893 70.3624V73.1729C117.942 73.7279 115.702 76.3224 115.702 79.4316V85.9569C113.671 86.4828 112.164 88.3263 112.164 90.5202C112.164 92.7141 113.671 94.5577 115.702 95.0836V101.941C114.197 102.183 112.81 102.888 111.711 103.987C110.329 105.368 109.568 107.205 109.568 109.159C109.568 111.112 110.329 112.949 111.711 114.33L113.379 112.662C112.443 111.726 111.928 110.482 111.928 109.159C111.928 107.835 112.443 106.591 113.379 105.655C114.314 104.72 115.559 104.204 116.882 104.204C118.205 104.204 119.45 104.719 120.385 105.655C122.317 107.587 122.317 110.73 120.385 112.662L122.054 114.33C124.905 111.479 124.905 106.839 122.054 103.987C120.954 102.888 119.567 102.183 118.062 101.941V95.0836C120.094 94.5577 121.601 92.7141 121.601 90.5202C121.601 88.3263 120.094 86.4828 118.062 85.9569V79.4319C118.062 77.6308 119.255 76.1037 120.893 75.5987V85.8019H122.072C124.805 85.8019 127.027 88.0246 127.027 90.7564V101.373H131.038V110.624C131.038 112.811 132.411 114.682 134.341 115.424V134.403H130.92V143.604H146.963V134.403H143.542V115.765H157.462V134.403H154.041V143.604H170.084V134.403H166.663V115.424C168.592 114.683 169.966 112.811 169.966 110.624V101.373H173.977V90.7564C173.977 88.0246 176.199 85.8019 178.931 85.8019H180.111V75.4331C182.212 75.5563 182.942 77.3001 182.942 79.4319V85.9571C180.91 86.483 179.403 88.3266 179.403 90.5205C179.403 92.7144 180.91 94.5579 182.942 95.0838V101.941C181.437 102.184 180.049 102.888 178.95 103.987C176.098 106.839 176.098 111.479 178.95 114.33L180.618 112.662C178.686 110.73 178.686 107.587 180.618 105.655C181.554 104.72 182.798 104.204 184.121 104.204C185.445 104.204 186.689 104.719 187.625 105.655C189.557 107.587 189.557 110.73 187.625 112.662L189.293 114.33C192.145 111.479 192.145 106.839 189.293 103.987C188.194 102.888 186.806 102.184 185.301 101.941V95.0838C187.333 94.5579 188.84 92.7144 188.84 90.5205C188.84 88.3266 187.333 86.483 185.301 85.9571V79.4319C185.301 75.9984 183.514 73.1925 180.111 73.0678V70.3624C180.111 68.9993 179.696 67.7314 178.985 66.6783ZM116.882 92.8797C118.183 92.8797 119.241 91.8214 119.241 90.5205C119.241 89.2196 118.183 88.1612 116.882 88.1612C115.581 88.1612 114.523 89.2196 114.523 90.5205C114.523 91.8214 115.581 92.8797 116.882 92.8797ZM144.604 141.245V136.762H133.279V141.245H144.604ZM136.7 129.098V134.403H141.183V129.098C140.519 129.47 139.755 129.684 138.941 129.684C138.128 129.684 137.364 129.47 136.7 129.098ZM138.941 122.843C137.705 122.843 136.7 123.848 136.7 125.084C136.7 126.32 137.705 127.325 138.941 127.325C140.177 127.325 141.183 126.32 141.183 125.084C141.183 123.848 140.177 122.843 138.941 122.843ZM138.941 120.483C139.755 120.483 140.519 120.697 141.183 121.07V115.765H136.7V121.07C137.364 120.698 138.128 120.483 138.941 120.483ZM162.062 120.483C162.876 120.483 163.64 120.697 164.303 121.07V115.765H159.821V121.07C160.485 120.697 161.248 120.483 162.062 120.483ZM162.062 127.325C163.298 127.325 164.303 126.32 164.303 125.084C164.303 123.848 163.298 122.843 162.062 122.843C160.826 122.843 159.821 123.848 159.821 125.084C159.821 126.32 160.826 127.325 162.062 127.325ZM167.724 141.245V136.762H156.4V141.245H167.724ZM159.821 129.098V134.403H164.303V129.098C163.64 129.47 162.876 129.684 162.062 129.684C161.248 129.684 160.485 129.47 159.821 129.098ZM164.825 113.405C166.359 113.405 167.606 112.157 167.606 110.624V101.373H166.237C165.654 106.153 161.571 109.867 156.636 109.867H144.368C139.433 109.867 135.35 106.153 134.766 101.373H133.397V110.624C133.397 112.157 134.645 113.405 136.179 113.405H164.825ZM144.368 107.507H156.636C160.669 107.507 163.95 104.226 163.95 100.193C163.95 96.1606 160.669 92.8797 156.636 92.8797H144.368C140.335 92.8797 137.054 96.1606 137.054 100.193C137.054 104.226 140.335 107.507 144.368 107.507ZM184.121 88.1612C182.82 88.1612 181.762 89.2196 181.762 90.5205C181.762 91.8214 182.82 92.8797 184.121 92.8797C185.422 92.8797 186.481 91.8214 186.481 90.5205C186.481 89.2196 185.422 88.1612 184.121 88.1612Z" fill="black"/>
<path d="M172.957 73.913C171.934 74.5322 170.826 75.03 169.656 75.386C165.947 82.1574 158.752 86.7593 150.502 86.7593C142.133 86.7593 134.851 82.0244 131.191 75.0931C129.976 74.6387 128.839 74.0283 127.805 73.2869C131.213 82.5185 140.101 89.1186 150.502 89.1186C160.666 89.1186 169.385 82.8155 172.957 73.913Z" fill="black"/>
<path d="M136.98 33.8874C137.216 33.502 137.351 33.0495 137.351 32.5656C137.351 31.1567 136.202 30.0145 134.784 30.0145C133.367 30.0145 132.217 31.1567 132.217 32.5656C132.217 33.9745 133.367 35.1166 134.784 35.1166C135.196 35.1166 135.586 35.0202 135.931 34.8487L141.542 40.425C141.893 40.1033 142.26 39.799 142.641 39.5133L136.98 33.8874Z" fill="black"/>
<path d="M159.97 39.6982C160.345 39.9914 160.705 40.3028 161.048 40.6313L166.821 34.8943C167.141 35.0372 167.497 35.1166 167.871 35.1166C169.288 35.1166 170.438 33.9745 170.438 32.5656C170.438 31.1567 169.288 30.0145 167.871 30.0145C166.453 30.0145 165.304 31.1567 165.304 32.5656C165.304 33.0863 165.461 33.5705 165.73 33.9742L159.97 39.6982Z" fill="black"/>
<path fill-rule="evenodd" clip-rule="evenodd" d="M151.984 22L153.871 27.9805L156.283 22.1895L157.934 28.1363L160.524 23.2293L161.985 28.58L163.904 25.2615L166.126 30.1069L164.84 30.6971L163.759 28.3405L161.513 32.224L160.103 27.0598L157.523 31.9475L156.015 26.5152L153.687 32.1033L151.984 26.7047L150.267 32.1477L148.242 27.0699L147.148 32.2096L144.876 27.5134L144.127 32.4988L141.586 28.1293L140.733 33.1895L138.422 29.3761L138.097 30.7779L136.718 30.4582L137.829 25.6663L139.97 29.199L140.841 24.0323L143.326 28.3052L144.157 22.7757L146.623 27.8742L147.828 22.2109L150.111 27.9361L151.984 22Z" fill="#FFC700"/>
</g>
<defs>
<linearGradient id="paint0_linear" x1="0" y1="82.5" x2="300" y2="82.5" gradientUnits="userSpaceOnUse">
<stop stop-color="#72C6EF"/>
<stop offset="1" stop-color="#004E8F"/>
</linearGradient>
<linearGradient id="paint1_linear" x1="0" y1="143" x2="300" y2="143" gradientUnits="userSpaceOnUse">
<stop stop-color="#2774AE"/>
<stop offset="0.5" stop-color="#002E5D"/>
<stop offset="1" stop-color="#002E5D"/>
</linearGradient>
<radialGradient id="paint2_radial" cx="0" cy="0" r="1" gradientUnits="userSpaceOnUse" gradientTransform="translate(150 82.5) rotate(179.822) scale(160.501 108.572)">
<stop offset="0.478393" stop-color="#F6EEBA" stop-opacity="0"/>
<stop offset="1" stop-opacity="0.1"/>
</radialGradient>
</defs>
</svg>
