<svg width="300" height="165" viewBox="0 0 300 165" fill="none" xmlns="http://www.w3.org/2000/svg">
<mask id="mask0" mask-type="alpha" maskUnits="userSpaceOnUse" x="0" y="0" width="300" height="165">
<rect width="300" height="165" fill="#C4C4C4"/>
</mask>
<g mask="url(#mask0)">
<rect width="300" height="165" fill="#BAE4F6"/>
<circle cx="205" cy="22" r="11" fill="white" fill-opacity="0.5"/>
<circle cx="199.903" cy="17.6487" r="2.65948" fill="white"/>
<circle cx="69" cy="104" r="11" fill="white" fill-opacity="0.5"/>
<circle cx="63.9033" cy="99.6487" r="2.65948" fill="white"/>
<path d="M95.6464 108.323L101.409 86.9207L215.006 90.2133L227.353 120.671L211.713 105.03L215.006 123.963L202.658 107.5L204.305 125.61L192.78 109.969L195.25 128.902L183.726 111.616L186.195 130.549L173.847 114.085V133.841L163.969 115.732L163.146 135.488L153.268 117.378L150.799 137.957L145.037 119.847L140.098 142.073L135.982 122.317L128.573 138.78L127.75 119.024L119.518 131.372V113.262L110.463 123.14L111.287 106.677L102.232 115.732L103.878 101.738L95.6464 108.323Z" fill="url(#paint0_linear)"/>
<path fill-rule="evenodd" clip-rule="evenodd" d="M99.8189 86.4928C100.017 85.7568 100.694 85.253 101.456 85.2751L215.054 88.5678C215.706 88.5867 216.286 88.9897 216.532 89.5949L228.879 120.052C229.173 120.778 228.916 121.61 228.263 122.043C227.61 122.476 226.743 122.389 226.189 121.835L214.226 109.872L216.628 123.681C216.758 124.431 216.358 125.173 215.659 125.475C214.96 125.777 214.146 125.56 213.689 124.951L204.823 113.131L205.944 125.461C206.011 126.196 205.58 126.887 204.889 127.149C204.198 127.411 203.418 127.181 202.979 126.586L195.238 116.08L196.882 128.689C196.981 129.448 196.545 130.175 195.828 130.444C195.112 130.713 194.305 130.452 193.88 129.816L186.271 118.402L187.828 130.336C187.924 131.078 187.509 131.791 186.816 132.074C186.123 132.356 185.327 132.135 184.878 131.537L175.494 119.024V133.841C175.494 134.594 174.984 135.251 174.254 135.437C173.525 135.623 172.763 135.29 172.402 134.63L165.367 121.732L164.791 135.556C164.76 136.295 164.24 136.923 163.52 137.091C162.799 137.259 162.055 136.926 161.701 136.276L154.289 122.688L152.433 138.153C152.341 138.923 151.725 139.523 150.954 139.596C150.183 139.669 149.465 139.195 149.23 138.456L145.319 126.165L141.705 142.43C141.536 143.187 140.862 143.725 140.087 143.719C139.311 143.714 138.644 143.168 138.486 142.409L135.404 127.614L130.075 139.456C129.761 140.152 129.011 140.542 128.261 140.397C127.512 140.252 126.96 139.612 126.928 138.849L126.316 124.144L120.888 132.285C120.486 132.889 119.736 133.158 119.041 132.948C118.347 132.737 117.872 132.097 117.872 131.372V117.495L111.677 124.253C111.208 124.764 110.469 124.927 109.829 124.659C109.188 124.391 108.785 123.751 108.819 123.058L109.429 110.863L103.396 116.896C102.9 117.392 102.145 117.519 101.514 117.213C100.883 116.907 100.515 116.236 100.597 115.539L101.774 105.529L96.6749 109.609C96.1191 110.053 95.3405 110.09 94.7449 109.701C94.1493 109.311 93.8717 108.582 94.0567 107.895L99.8189 86.4928ZM102.66 88.6041L98.5429 103.898L102.85 100.452C103.371 100.035 104.093 99.9742 104.677 100.298C105.261 100.622 105.591 101.267 105.513 101.93L104.421 111.214L110.123 105.513C110.604 105.031 111.332 104.896 111.954 105.172C112.577 105.448 112.965 106.079 112.931 106.759L112.336 118.661L118.305 112.15C118.764 111.649 119.482 111.482 120.115 111.728C120.748 111.974 121.165 112.583 121.165 113.262V125.934L126.38 118.111C126.776 117.518 127.508 117.247 128.194 117.439C128.881 117.631 129.365 118.244 129.395 118.956L129.928 131.757L134.48 121.641C134.773 120.991 135.451 120.603 136.16 120.68C136.869 120.758 137.448 121.283 137.593 121.981L140.149 134.25L143.429 119.49C143.591 118.764 144.22 118.236 144.963 118.203C145.706 118.17 146.38 118.639 146.605 119.348L150.068 130.23L151.634 117.182C151.719 116.471 152.254 115.897 152.957 115.761C153.661 115.626 154.371 115.961 154.714 116.59L161.749 129.487L162.325 115.663C162.355 114.924 162.875 114.296 163.596 114.128C164.317 113.96 165.061 114.294 165.415 114.943L172.201 127.385V114.085C172.201 113.377 172.655 112.748 173.327 112.523C173.999 112.299 174.739 112.531 175.165 113.098L183.752 124.547L182.093 111.829C181.994 111.07 182.431 110.343 183.147 110.074C183.864 109.806 184.671 110.066 185.095 110.703L192.704 122.116L191.148 110.182C191.051 109.438 191.47 108.722 192.166 108.442C192.863 108.162 193.66 108.388 194.106 108.993L202.131 119.884L201.019 107.649C200.952 106.916 201.38 106.228 202.068 105.963C202.755 105.699 203.534 105.923 203.975 106.512L212.209 117.49L210.091 105.313C209.968 104.605 210.318 103.9 210.955 103.569C211.592 103.239 212.37 103.359 212.877 103.866L222.778 113.767L213.884 91.8279L102.66 88.6041Z" fill="black"/>
<path d="M129.396 82.8048L98.9391 58.9329L193.604 42.4695L219.945 65.5182L129.396 82.8048Z" fill="#FFF9C0"/>
<path fill-rule="evenodd" clip-rule="evenodd" d="M193.18 40.0365C193.915 39.9087 194.668 40.1199 195.23 40.611L221.571 63.6598C222.282 64.2815 222.576 65.2541 222.328 66.1653C222.081 67.0765 221.335 67.7669 220.408 67.944L129.859 85.2305C129.159 85.3643 128.434 85.1885 127.873 84.7484L97.4157 60.8765C96.6478 60.2747 96.3062 59.2771 96.5441 58.3308C96.782 57.3846 97.5547 56.6671 98.516 56.4999L193.18 40.0365ZM104.833 60.4145L130.036 80.1686L214.508 64.0422L192.865 45.1046L104.833 60.4145Z" fill="black"/>
<path d="M129.396 82.8049V109.146L219.945 91.0365V65.5183L129.396 82.8049Z" fill="#FAEA5C"/>
<path fill-rule="evenodd" clip-rule="evenodd" d="M221.519 63.6155C222.086 64.0846 222.414 64.7823 222.414 65.5184V91.0366C222.414 92.2138 221.584 93.2273 220.429 93.4581L129.881 111.568C129.155 111.713 128.403 111.525 127.831 111.056C127.259 110.587 126.927 109.886 126.927 109.146V82.8049C126.927 81.6196 127.769 80.6015 128.933 80.3792L219.482 63.0927C220.205 62.9546 220.952 63.1463 221.519 63.6155ZM131.866 84.8476V106.134L217.475 89.0121V68.5039L131.866 84.8476Z" fill="black"/>
<path d="M129.396 82.8048L98.9391 58.9329V82.8048L129.396 109.146V82.8048Z" fill="#E2D55F"/>
<path fill-rule="evenodd" clip-rule="evenodd" d="M97.8583 56.7125C98.7078 56.299 99.7189 56.4064 100.463 56.9893L130.92 80.8612C131.517 81.3293 131.866 82.046 131.866 82.8048V109.146C131.866 110.113 131.302 110.99 130.423 111.392C129.544 111.794 128.512 111.646 127.781 111.014L97.3237 84.6726C96.7813 84.2036 96.4696 83.5219 96.4696 82.8048V58.9329C96.4696 57.9881 97.0087 57.126 97.8583 56.7125ZM101.409 64.0061V81.6756L126.927 103.745V84.0069L101.409 64.0061Z" fill="black"/>
<circle cx="38" cy="42" r="11" fill="white" fill-opacity="0.5"/>
<circle cx="32.9033" cy="37.6487" r="2.65948" fill="white"/>
<circle cx="216" cy="144" r="11" fill="white" fill-opacity="0.5"/>
<circle cx="210.903" cy="139.649" r="2.65948" fill="white"/>
<circle cx="102" cy="29" r="17" fill="white" fill-opacity="0.5"/>
<circle cx="94.1232" cy="22.2754" r="4.1101" fill="white"/>
<circle cx="253" cy="55" r="17" fill="white" fill-opacity="0.5"/>
<circle cx="245.123" cy="48.2754" r="4.1101" fill="white"/>
<circle cx="249.5" cy="98.5" r="8.5" fill="white" fill-opacity="0.5"/>
<circle cx="245.562" cy="95.1376" r="2.05505" fill="white"/>
<circle cx="61.5" cy="68.5" r="8.5" fill="white" fill-opacity="0.5"/>
<circle cx="57.5616" cy="65.1376" r="2.05505" fill="white"/>
<circle cx="69.5" cy="140.5" r="8.5" fill="white" fill-opacity="0.5"/>
<circle cx="65.5616" cy="137.138" r="2.05505" fill="white"/>
<circle cx="32.5" cy="113.5" r="8.5" fill="white" fill-opacity="0.5"/>
<circle cx="28.5616" cy="110.138" r="2.05505" fill="white"/>
<circle cx="113" cy="147" r="6" fill="white" fill-opacity="0.5"/>
<circle cx="110.22" cy="144.626" r="1.45062" fill="white"/>
<circle cx="160.5" cy="35.5" r="6.5" fill="white" fill-opacity="0.5"/>
<circle cx="157.488" cy="32.9287" r="1.57151" fill="white"/>
<circle cx="270.5" cy="121.5" r="6.5" fill="white" fill-opacity="0.5"/>
<circle cx="267.488" cy="118.929" r="1.57151" fill="white"/>
</g>
<defs>
<linearGradient id="paint0_linear" x1="102.232" y1="105.854" x2="225.707" y2="105.854" gradientUnits="userSpaceOnUse">
<stop offset="0.0104167" stop-color="#E4E3DB"/>
<stop offset="0.166667" stop-color="#EBE8CE"/>
<stop offset="0.322917" stop-color="white"/>
</linearGradient>
</defs>
</svg>
