<svg width="300" height="165" viewBox="0 0 300 165" fill="none" xmlns="http://www.w3.org/2000/svg">
<mask id="mask0" mask-type="alpha" maskUnits="userSpaceOnUse" x="0" y="0" width="300" height="165">
<rect width="300" height="165" fill="#C4C4C4"/>
</mask>
<g mask="url(#mask0)">
<rect width="300" height="165" fill="#361AA4"/>
<rect y="113" width="300" height="52" fill="#149DAF"/>
<rect width="300" height="165" fill="url(#paint0_radial)"/>
<path d="M99.5 145.5V80L152 97V162.5L99.5 145.5Z" fill="#CCAE0E"/>
<path d="M205 145.897V80L152 97.103V163L205 145.897Z" fill="#F8DA40"/>
<path d="M152 97L107 81.5C111.5 76.5 123.5 68.5 133 68.5H174C180.4 68.5 194 77.5 197 82.5L152 97Z" fill="#AA0000"/>
<path fill-rule="evenodd" clip-rule="evenodd" d="M96.8593 51.7889C102.995 48.619 107 43.4005 107 37.5C107 27.835 96.2548 20 83 20C69.7452 20 59 27.835 59 37.5C59 47.165 69.7452 55 83 55C83.66 55 84.3137 54.9806 84.9602 54.9425C88.1646 57.4163 92.1023 59.7573 95.5 60C101.1 60.4 105.5 60.1667 107 60C105 59.3333 100.6 57.4 99 55L96.8593 51.7889Z" fill="white"/>
<path d="M82.4375 43.1719L81.7083 43.7915L81.0625 43.3887L80.0208 32.9947L82.9167 32.1583H83.6667L83.6458 32.561L82.8333 39.1134C82.8889 38.9069 83.4514 38.3596 84.5208 37.4714C86.6042 35.7365 87.6458 34.1669 87.6458 32.7624C87.6458 31.5955 87.1493 30.6738 86.1563 29.9974C85.1632 29.321 83.8472 28.9828 82.2083 28.9828C80.7778 28.9828 79.6389 29.21 78.7917 29.6643C78.2639 30.2736 77.6667 31.0378 77 31.9569L76.75 32.0808L76.125 31.9879L76 31.771L77.5625 28.3012C79.2847 27.4338 81.2083 27 83.3333 27C85.6944 27 87.6423 27.4518 89.1771 28.3554C90.7118 29.259 91.4791 30.4802 91.4792 32.0189C91.4791 32.9483 91.1354 33.7822 90.4479 34.5205C89.7604 35.2589 88.1944 36.4646 85.75 38.1375C83.7778 39.48 82.7569 40.4198 82.6875 40.9568L82.4375 43.1719ZM81.9375 49.4609C81.2569 49.4609 80.6701 49.2802 80.1771 48.9188C79.684 48.5573 79.4375 48.1236 79.4375 47.6176C79.4375 47.1012 79.6806 46.6624 80.1667 46.3009C80.6528 45.9395 81.243 45.7588 81.9375 45.7588C82.6319 45.7588 83.2222 45.9395 83.7083 46.3009C84.1944 46.6624 84.4375 47.1012 84.4375 47.6176C84.4375 48.1339 84.1944 48.5702 83.7083 48.9265C83.2222 49.2828 82.6319 49.4609 81.9375 49.4609Z" fill="black"/>
<path d="M139 82.5C138 78.3333 135.9 69.9 135.5 69.5C136.667 70.5 141.6 72.5 152 72.5C162.4 72.5 168 69.8333 169.5 68.5L165 82.5L152 73.5L139 82.5Z" fill="white"/>
<path fill-rule="evenodd" clip-rule="evenodd" d="M178.846 58.4353C173.217 66.945 163.519 72.5636 152.5 72.5636C141.457 72.5636 131.74 66.9201 126.117 58.3787C125.751 58.4168 125.378 58.4364 125 58.4364C120.029 58.4364 116 55.048 116 50.8682C116 47.8565 118.092 45.2557 121.121 44.0373C121.041 43.1293 121 42.2103 121 41.2818C121 24.0053 135.103 10 152.5 10C169.897 10 184 24.0053 184 41.2818C184 42.3632 183.945 43.4317 183.837 44.4848C186.34 45.8288 188 48.1855 188 50.8682C188 55.048 183.971 58.4364 179 58.4364L178.927 58.4361C178.9 58.4359 178.873 58.4357 178.846 58.4353ZM110 108.891C110 115.021 105.299 119.991 99.5 119.991C93.701 119.991 89 115.021 89 108.891C89 102.761 93.701 97.7909 99.5 97.7909C105.299 97.7909 110 102.761 110 108.891ZM204.5 121C210.299 121 215 116.03 215 109.9C215 103.77 210.299 98.8 204.5 98.8C198.701 98.8 194 103.77 194 109.9C194 116.03 198.701 121 204.5 121Z" fill="#FCDEC8"/>
<path d="M141.5 36C134.7 44.4 124.667 45.5 120.5 45C119.667 40 119.4 28.3 125 21.5C132 13 141.5 8.5 151 8.5C160.5 8.5 168.5 10.5 177 21.5C183.8 30.3 183.167 40.8333 182 45C178.333 45 168.9 43.2 160.5 36C152.1 28.8 150.667 18.3333 151 14C150.667 17.8333 148.3 27.6 141.5 36Z" fill="#8C5D00"/>
<path d="M205.728 95.6888V78.3351C205.728 77.6002 205.373 76.9045 204.778 76.4738C204.184 76.045 203.406 75.9237 202.713 76.1513L196.833 78.0734C190.5 70.8147 181.796 66.4746 172.222 65.7861C174.708 63.741 176.886 61.3525 178.705 58.6749C179.206 58.7704 179.718 58.8185 180.227 58.8185C184.661 58.8185 188.268 55.2103 188.268 50.7751C188.268 47.9215 186.751 45.2831 184.295 43.8359C184.467 42.4724 184.554 41.0814 184.554 39.6976C184.554 21.1164 169.438 6 150.858 6C132.28 6 117.166 21.1167 117.166 39.6976C117.166 41.0631 117.253 42.454 117.424 43.8346C114.967 45.2818 113.45 47.9205 113.45 50.7751C113.45 55.2103 117.059 58.8185 121.494 58.8185C122 58.8185 122.508 58.7701 123.01 58.6749C124.864 61.3976 127.08 63.8162 129.607 65.8764C119.983 66.4952 111.216 70.7957 104.818 78.0531L99.0009 76.1516C98.3076 75.9233 97.5318 76.0443 96.9365 76.4748C96.3436 76.9065 95.9894 77.6021 95.9894 78.3351V95.6888C90.6191 96.0895 86.4569 100.546 86.4569 105.969V110.48C86.4569 115.906 90.6187 120.364 95.9894 120.763V144.321C95.9894 145.316 96.6249 146.194 97.5717 146.505L150.142 163.693L150.17 163.701C150.273 163.734 150.371 163.757 150.475 163.774L150.535 163.783C150.642 163.796 150.747 163.806 150.858 163.806C150.967 163.806 151.069 163.796 151.176 163.783L151.244 163.774C151.345 163.756 151.442 163.734 151.545 163.701L204.142 146.505C205.091 146.194 205.729 145.316 205.729 144.321V120.763C211.098 120.361 215.259 115.903 215.259 110.48V105.969C215.259 100.548 211.098 96.0911 205.728 95.6888ZM100.584 120.763C105.955 120.361 110.117 115.903 110.117 110.48V105.969C110.117 100.549 105.955 96.0918 100.584 95.6888V81.5026L148.557 97.19V158.341L100.584 142.654V120.763ZM105.52 105.969V110.48C105.52 113.635 102.954 116.201 99.8006 116.201H96.7688C93.6156 116.201 91.0505 113.634 91.0505 110.48V105.969C91.0505 102.818 93.6159 100.255 96.7688 100.255H99.8006C102.954 100.255 105.52 102.818 105.52 105.969ZM148.303 10.7047C148.418 11.7612 148.477 12.8283 148.477 13.8818C148.477 28.8853 136.847 41.5569 121.942 42.8694C121.821 41.7777 121.76 40.7121 121.76 39.6976C121.76 24.6813 133.393 12.0071 148.303 10.7047ZM139.006 77.5354L137.308 70.5825C139.843 71.6909 142.513 72.4804 145.265 72.9353L139.006 77.5354ZM156.448 72.936C159.197 72.4814 161.869 71.6922 164.409 70.5847L162.706 77.5357L156.448 72.936ZM131.979 70.3911H132.53L135.36 81.972C135.544 82.7186 136.085 83.3217 136.809 83.585C137.545 83.849 138.339 83.7266 138.953 83.2779L150.858 74.5274L162.762 83.2779C163.372 83.7253 164.186 83.8467 164.905 83.5847C165.629 83.3211 166.17 82.7183 166.351 81.972L169.211 70.2825H169.57C178.102 70.2825 186.056 73.6028 192.028 79.6449L150.858 93.1074L109.637 79.6276C115.596 73.667 123.509 70.3911 131.979 70.3911ZM180.227 54.2243C179.694 54.2243 179.19 54.1101 178.729 53.8854C178.413 53.731 178.074 53.6529 177.724 53.6529C176.914 53.6529 176.179 54.0669 175.758 54.7606C170.435 63.551 161.127 68.799 150.858 68.799C140.598 68.799 131.288 63.5507 125.955 54.76C125.535 54.0669 124.8 53.6529 123.989 53.6529C123.635 53.6529 123.297 53.732 122.983 53.8871C122.53 54.1078 122.016 54.2243 121.494 54.2243C119.593 54.2243 118.046 52.6769 118.046 50.7751C118.046 49.3697 118.919 48.085 120.221 47.5663C133.809 47.2288 146.006 38.5597 150.859 25.8868C155.709 38.5624 167.907 47.2291 181.501 47.5663C182.8 48.0876 183.67 49.3704 183.67 50.7751C183.669 52.6766 182.125 54.2243 180.227 54.2243ZM179.776 42.8697C164.87 41.5602 153.239 28.8879 153.239 13.8818C153.239 12.8519 153.296 11.7847 153.41 10.7051C168.325 12.0087 179.962 24.6826 179.962 39.6976C179.962 40.7049 179.899 41.7705 179.776 42.8697ZM210.665 105.969V110.48C210.665 113.635 208.099 116.201 204.945 116.201H201.912C198.762 116.201 196.199 113.634 196.199 110.48V105.969C196.199 102.818 198.762 100.255 201.912 100.255H204.945C208.099 100.255 210.665 102.818 210.665 105.969ZM201.131 95.6888C195.762 96.0895 191.601 100.546 191.601 105.969V110.48C191.601 115.905 195.762 120.364 201.131 120.763V142.654L153.156 158.341V97.1904L201.131 81.5026V95.6888Z" fill="black"/>
<path d="M173.301 112.904L163.631 115.906V122.762L174.979 119.238V123.474L158.595 128.562V102.968L174.946 97.8908V102.162L163.631 105.676V111.775L173.301 108.773V112.904Z" fill="black"/>
<path d="M190.952 111.8C190.952 110.803 190.617 110.146 189.945 109.827C189.274 109.497 188.065 109.309 186.319 109.266C184.573 109.21 183.191 109.053 182.172 108.795C179.397 108.087 178.009 106.403 178.009 103.742C178.009 102.36 178.378 101.014 179.117 99.7069C179.867 98.3842 180.936 97.2028 182.324 96.1625C183.723 95.1187 185.289 94.3275 187.024 93.7889C188.77 93.2467 190.326 93.0977 191.691 93.3417C193.056 93.574 194.114 94.1772 194.864 95.1514C195.625 96.1222 196.005 97.3751 196.005 98.9103L190.969 100.474C190.969 99.3022 190.617 98.5034 189.911 98.0778C189.206 97.6405 188.216 97.6199 186.94 98.0161C185.709 98.3984 184.752 98.9709 184.069 99.7336C183.387 100.485 183.045 101.306 183.045 102.196C183.045 103.028 183.443 103.602 184.237 103.918C185.043 104.23 186.224 104.391 187.779 104.4C190.645 104.413 192.732 104.884 194.041 105.813C195.351 106.742 196.005 108.203 196.005 110.195C196.005 112.41 195.205 114.399 193.605 116.162C192.004 117.912 189.85 119.208 187.142 120.049C185.261 120.633 183.549 120.807 182.005 120.572C180.46 120.325 179.279 119.701 178.462 118.701C177.657 117.698 177.254 116.369 177.254 114.717L182.307 113.148C182.307 115.972 183.918 116.884 187.142 115.883C188.339 115.511 189.274 114.969 189.945 114.257C190.617 113.533 190.952 112.714 190.952 111.8Z" fill="black"/>
<path d="M165.62 147.38L157.243 149.981V148.241L161.197 142.601C161.74 141.812 162.14 141.146 162.397 140.603C162.66 140.058 162.792 139.578 162.792 139.162C162.792 138.593 162.655 138.191 162.38 137.954C162.106 137.711 161.714 137.668 161.205 137.826C160.657 137.997 160.223 138.33 159.904 138.828C159.591 139.318 159.434 139.885 159.434 140.53L157 141.285C157 140.506 157.176 139.739 157.529 138.985C157.887 138.23 158.391 137.569 159.04 137.005C159.689 136.434 160.425 136.021 161.247 135.765C162.506 135.374 163.483 135.388 164.177 135.805C164.876 136.221 165.226 137.006 165.226 138.16C165.226 138.793 165.069 139.486 164.756 140.239C164.442 140.993 163.905 141.924 163.144 143.034L160.366 146.964L165.62 145.332V147.38Z" fill="black"/>
<path d="M175.512 139.018C175.512 140.787 175.162 142.249 174.463 143.404C173.764 144.559 172.739 145.345 171.391 145.764C170.059 146.178 169.041 146.034 168.336 145.333C167.63 144.632 167.27 143.426 167.253 141.714V139.359C167.253 137.572 167.605 136.106 168.31 134.961C169.021 133.814 170.042 133.034 171.374 132.621C172.706 132.207 173.724 132.351 174.429 133.052C175.134 133.747 175.495 134.951 175.512 136.662V139.018ZM173.086 137.187C173.086 136.126 172.947 135.399 172.667 135.006C172.393 134.605 171.962 134.495 171.374 134.678C170.803 134.855 170.381 135.217 170.107 135.765C169.838 136.306 169.695 137.068 169.679 138.052V141.163C169.679 142.206 169.813 142.941 170.081 143.367C170.356 143.786 170.792 143.902 171.391 143.716C171.984 143.532 172.412 143.156 172.675 142.588C172.938 142.02 173.075 141.233 173.086 140.228V137.187Z" fill="black"/>
<path d="M183.222 141.915L180.796 142.668V132.877L177.9 134.717V132.651L182.961 129.181L183.222 129.1V141.915Z" fill="black"/>
<path d="M187.733 134.221L188.438 127.498L195.287 125.371V127.49L190.428 128.999L190.125 131.843C190.702 131.342 191.314 130.991 191.964 130.789C193.128 130.428 194.04 130.523 194.7 131.073C195.36 131.624 195.69 132.579 195.69 133.939C195.69 134.765 195.523 135.558 195.187 136.319C194.857 137.072 194.381 137.726 193.76 138.282C193.139 138.833 192.406 139.239 191.561 139.501C190.822 139.731 190.137 139.788 189.504 139.674C188.872 139.554 188.371 139.267 188.002 138.813C187.638 138.358 187.445 137.77 187.423 137.051L189.823 136.305C189.874 136.823 190.05 137.184 190.352 137.389C190.66 137.587 191.06 137.609 191.552 137.456C192.101 137.286 192.523 136.95 192.82 136.447C193.116 135.939 193.265 135.307 193.265 134.551C193.265 133.825 193.094 133.321 192.753 133.04C192.411 132.76 191.927 132.717 191.3 132.911C190.724 133.09 190.257 133.393 189.899 133.821L189.664 134.123L187.733 134.221Z" fill="black"/>
<path d="M150.86 82.2996C152.133 82.2996 153.168 81.2651 153.168 79.9935C153.168 78.7209 152.133 77.6858 150.86 77.6858C149.585 77.6858 148.548 78.7209 148.548 79.9935C148.548 81.2651 149.585 82.2996 150.86 82.2996Z" fill="black"/>
<path d="M153.168 88.1877C153.168 86.9151 152.132 85.8796 150.859 85.8796C149.585 85.8796 148.548 86.9151 148.548 88.1877C148.548 89.4606 149.585 90.4961 150.859 90.4961C152.132 90.4961 153.168 89.4606 153.168 88.1877Z" fill="black"/>
<path d="M99.4294 61.9542C103.575 61.9542 106.634 61.0607 106.762 61.0224C107.731 60.7353 108.407 59.8293 108.405 58.819C108.405 57.8087 107.727 56.9034 106.758 56.6173C103.991 55.8006 101.562 54.1879 99.5357 51.8216C105.178 48.0908 108.405 42.7545 108.405 37.1311C108.405 31.7189 105.524 26.6851 100.293 22.9557C95.2973 19.394 88.6946 17.4326 81.7011 17.4326C74.7096 17.4326 68.1079 19.394 63.1117 22.9557C57.8807 26.6851 55 31.7192 55 37.1311C55 42.5429 57.8807 47.577 63.1117 51.3068C68.1076 54.8688 74.7096 56.8302 81.7011 56.8302C82.5603 56.8302 83.443 56.7968 84.3274 56.7314C89.3291 61.0447 95.2927 61.9542 99.4277 61.9545H99.4294V61.9542ZM95.0877 49.1168C94.512 49.4216 94.0908 49.9554 93.9312 50.582C93.7713 51.2116 93.8857 51.8824 94.2452 52.4227C95.5092 54.3262 96.98 55.9785 98.6261 57.346C95.1171 57.2259 90.4532 56.2703 86.7156 52.6955C86.2839 52.2844 85.7194 52.0581 85.1258 52.0581C85.0499 52.0581 84.9717 52.063 84.8936 52.0708C83.8165 52.1797 82.7425 52.2347 81.7011 52.2347C69.512 52.2347 59.5952 45.459 59.5952 37.1307C59.5952 28.8028 69.5116 22.0271 81.7011 22.0271C93.8913 22.0271 103.809 28.8028 103.809 37.1307C103.809 41.7691 100.549 46.2495 95.0877 49.1168Z" fill="black"/>
<path d="M159.612 17.0712C159.352 16.159 158.51 15.5222 157.564 15.5222C157.366 15.5222 157.168 15.55 156.977 15.6046C156.429 15.7603 155.975 16.1201 155.697 16.6188C155.42 17.117 155.355 17.6929 155.512 18.2398C158.08 27.2702 164.348 34.9041 172.71 39.184C173.015 39.339 173.342 39.4175 173.679 39.4175C174.487 39.4175 175.216 38.9727 175.583 38.2558C176.117 37.2085 175.701 35.9209 174.655 35.3858C167.348 31.6479 161.864 24.9726 159.612 17.0712Z" fill="black"/>
<path d="M128.036 39.4173C128.374 39.4173 128.701 39.3388 129.006 39.1831C137.366 34.9015 143.635 27.2677 146.204 18.2405C146.361 17.6936 146.296 17.118 146.019 16.6202C145.741 16.1208 145.286 15.7601 144.737 15.6047C144.546 15.5498 144.348 15.522 144.15 15.522C143.204 15.522 142.361 16.1591 142.101 17.0713C139.852 24.9671 134.37 31.6427 127.061 35.3859C126.014 35.921 125.598 37.2086 126.134 38.2568C126.501 38.9728 127.23 39.4173 128.036 39.4173Z" fill="black"/>
<path d="M166.115 45.7932C164.937 45.7932 163.979 46.7502 163.979 47.926C163.979 48.6684 163.372 49.2725 162.626 49.2725C161.88 49.2725 161.273 48.6684 161.273 47.926C161.273 46.7499 160.315 45.7932 159.138 45.7932C157.961 45.7932 157.003 46.7502 157.003 47.926C157.003 51.0216 159.525 53.5399 162.626 53.5399C165.725 53.5399 168.247 51.0216 168.247 47.926C168.247 46.7502 167.29 45.7932 166.115 45.7932Z" fill="black"/>
<path d="M142.563 45.7932C141.387 45.7932 140.43 46.7502 140.43 47.926C140.43 48.6684 139.825 49.2725 139.083 49.2725C138.34 49.2725 137.735 48.6684 137.735 47.926C137.735 46.7499 136.778 45.7932 135.601 45.7932C134.426 45.7932 133.469 46.7502 133.469 47.926C133.469 51.0216 135.987 53.5399 139.083 53.5399C142.179 53.5399 144.697 51.0216 144.697 47.926C144.697 46.7502 143.74 45.7932 142.563 45.7932Z" fill="black"/>
</g>
<defs>
<radialGradient id="paint0_radial" cx="0" cy="0" r="1" gradientUnits="userSpaceOnUse" gradientTransform="translate(150 82.5) rotate(179.822) scale(160.501 108.572)">
<stop offset="0.478393" stop-color="#F6EEBA" stop-opacity="0"/>
<stop offset="1" stop-opacity="0.1"/>
</radialGradient>
</defs>
</svg>
