<svg width="300" height="165" viewBox="0 0 300 165" fill="none" xmlns="http://www.w3.org/2000/svg">
<mask id="mask0" mask-type="alpha" maskUnits="userSpaceOnUse" x="0" y="0" width="300" height="165">
<rect width="300" height="165" fill="#C4C4C4"/>
</mask>
<g mask="url(#mask0)">
<rect width="300" height="165" fill="#253654"/>
<path fill-rule="evenodd" clip-rule="evenodd" d="M215.691 37.3406L183.882 69.6633L193.69 80.2478L179.617 89.332L175.327 93.3526L192.666 110.593L196.572 106.675L205.445 91.9642L214.076 101.213C214.468 101.658 215.484 102.487 216.408 102.243C217.332 101.998 218.71 101.083 219.284 100.657L248.807 70.5879L252.413 45.3259C252.756 44.5483 253.227 42.803 252.367 42.0423C252.073 41.7831 251.537 41.0681 250.863 40.1696C249.064 37.7715 246.284 34.0663 244.529 34.2314C242.6 34.413 224.5 36.3799 215.691 37.3406ZM226.5 67.5L221.5 72.5L229.5 80.5L234.5 75.5L226.5 67.5Z" fill="white"/>
<path d="M222 72L227 67L235 75L230 80L222 72Z" fill="#9DE2FF"/>
<path fill-rule="evenodd" clip-rule="evenodd" d="M184.539 16.5108C189.314 16.8867 193.577 18.301 196.188 20.774C197.438 21.9585 198.265 23.0888 198.686 24.2123C199.118 25.3644 199.102 26.4532 198.762 27.4789C198.432 28.4737 197.811 29.3687 197.102 30.1935C196.435 30.9709 195.636 31.7449 194.841 32.5153C194.792 32.562 194.744 32.6087 194.696 32.6554C192.973 34.3261 191.249 36.04 190.212 38.1784C189.204 40.2591 188.821 42.8012 189.949 46.1837C190.7 48.4362 192.376 51.2889 194.374 53.729C195.368 54.943 196.422 56.0314 197.453 56.8788C198.496 57.7349 199.462 58.3015 200.28 58.54L199.72 60.46C198.538 60.1152 197.329 59.3651 196.184 58.4243C195.028 57.4748 193.882 56.2861 192.826 54.9959C190.724 52.4277 188.9 49.3636 188.051 46.8162C186.762 42.9487 187.172 39.8658 188.413 37.3059C189.626 34.8036 191.61 32.8613 193.304 31.2195L193.424 31.1027C194.242 30.3101 194.979 29.5958 195.585 28.8904C196.22 28.1508 196.652 27.4871 196.863 26.8491C197.065 26.242 197.08 25.6238 196.814 24.9145C196.537 24.1767 195.937 23.2914 194.812 22.2259C192.673 20.1989 188.936 18.8632 184.382 18.5047C179.859 18.1486 174.671 18.7702 169.771 20.5051C159.984 23.9703 151.5 31.7919 151.5 44.9999C151.5 51.6925 153.176 56.5707 155.553 60.3765C157.941 64.2016 161.065 66.9919 164.06 69.4809C164.432 69.7903 164.805 70.0966 165.175 70.4011C167.722 72.4955 170.163 74.5026 171.642 76.8027C172.514 78.1572 173.079 79.6446 173.163 81.3453C173.246 83.0389 172.849 84.8718 171.909 86.9175C165.643 100.556 150.381 102.789 139.945 95.832C136.455 93.5053 134.508 90.207 133.2 86.5985C132.278 84.0524 131.648 81.2644 131.029 78.5252C130.783 77.437 130.539 76.3565 130.279 75.3019C129.348 71.5268 128.197 67.9831 126.052 65.0514C123.931 62.1524 120.789 59.7879 115.747 58.4674C111.088 57.2473 107.947 57.2825 105.791 57.9775C103.682 58.6573 102.398 60.0064 101.513 61.7181C100.606 63.4741 100.139 65.5676 99.6808 67.6979C99.6652 67.7702 99.6497 67.8427 99.6341 67.9153C99.2086 69.8979 98.7627 71.9758 97.8619 73.507L96.1381 72.493C96.871 71.2469 97.2593 69.4454 97.7255 67.2775C98.1737 65.1928 98.686 62.8324 99.7367 60.7997C100.81 58.7228 102.464 56.9483 105.178 56.0739C107.844 55.2145 111.412 55.2646 116.253 56.5326C121.711 57.962 125.256 60.5767 127.666 63.8704C130.053 67.1315 131.277 70.9941 132.221 74.8231C132.503 75.9662 132.759 77.0987 133.011 78.215C133.618 80.9025 134.203 83.496 135.081 85.9171C136.304 89.293 138.045 92.1613 141.055 94.168C150.619 100.544 164.412 98.4443 170.091 86.0825C170.932 84.2532 171.229 82.7423 171.165 81.4437C171.101 80.1523 170.677 78.999 169.96 77.8847C168.664 75.8694 166.5 74.0861 163.913 71.9546C163.544 71.6504 163.166 71.3391 162.781 71.019C159.761 68.508 156.424 65.5483 153.856 61.4359C151.276 57.3042 149.5 52.0574 149.5 44.9999C149.5 30.708 158.766 22.2796 169.104 18.6198C174.266 16.7921 179.735 16.1326 184.539 16.5108Z" fill="white"/>
<path d="M67.885 131.363L55.8114 140.295L48.9791 118.334C48.5017 118.482 47.2307 118.773 45.966 118.747C44.3852 118.715 40.9372 109.315 40.8205 107.257C40.7271 105.611 43.2501 104.407 44.5232 104.011L41.1071 93.0298L44.3606 91.2456C44.3796 90.3337 44.4378 89.4262 44.5341 88.5253L37.2739 65.1883C36.5408 62.832 37.8065 60.3433 40.1009 59.6295C35.7026 45.4918 43.7423 31.9917 57.5083 27.709C71.2743 23.4264 85.5537 29.9831 89.952 44.1207L90.7828 43.8623C93.0292 43.1634 93.5981 44.9948 94.3089 47.2833C94.3241 47.3321 94.3393 47.3812 94.3546 47.4304L100.969 68.6926L106.939 67.3129L111.841 83.0681C113.432 82.573 116.829 81.935 117.687 83.344C118.758 85.1052 120.445 95.5768 120.116 96.2027C119.853 96.7035 117.46 97.2035 116.297 97.391L121.644 114.578L107.875 116.378L121.644 141.5L100.5 148L89.5 130L93 150.5L72 157L67.885 131.363Z" fill="white"/>
<path d="M56.3636 81.4761L75.6305 82.813L90.1864 129.601L70.9195 128.264L56.3636 81.4761Z" fill="#EDEBEB"/>
<path d="M91.3964 69.5303L107.236 68.2679L112.064 83.7843C112.064 83.7843 107.183 86.6117 108.817 91.8635C110.451 97.1152 116.297 97.3911 116.297 97.3911L121.792 115.056L105.952 116.318L91.3964 69.5303Z" fill="#EDEBEB"/>
<path d="M84.9306 45.3804C88.3888 56.4962 82.0008 68.3668 70.6627 71.8941C59.3245 75.4214 47.3298 69.2697 43.8717 58.1539C39.8643 45.2727 48.3043 39.998 59.6424 36.4707C70.9805 32.9434 81.0485 32.9017 84.9306 45.3804Z" fill="#9DE2FF"/>
<circle cx="53.0585" cy="52.2052" r="3.79412" transform="rotate(-17.281 53.0585 52.2052)" fill="white"/>
<path d="M62.1105 114.611C61.9165 115.803 61.7871 116.597 61.8406 116.769C61.6578 117.392 61.2498 117.896 60.7348 118.056C60.5632 118.109 60.2199 118.216 59.9948 118.098C59.2012 117.967 58.5905 117.215 58.6663 116.248C58.6663 116.248 58.7422 115.282 59.1079 114.037C59.2372 113.242 60.1601 112.578 61.0072 112.88C61.7473 112.838 62.4115 113.763 62.1105 114.611ZM63.6739 104.508C64.521 104.81 64.8419 105.841 64.4874 106.517C64.3045 107.14 64.1217 107.763 63.7672 108.439C63.5309 108.889 63.2946 109.34 62.7796 109.5C62.4363 109.607 62.0395 109.542 61.8144 109.423C60.9674 109.121 60.5283 108.315 60.8293 107.467C61.1838 106.791 61.3131 105.996 61.6676 105.32C62.0221 104.644 62.8268 104.206 63.6739 104.508ZM71.26 100.451C71.9889 100.978 72.0847 101.891 71.5586 102.62C71.2688 102.899 71.1506 103.125 70.8073 103.231C70.2924 103.392 69.8956 103.326 69.3918 102.917L69.1667 102.799C68.4378 102.271 67.8693 102.26 67.526 102.366C67.3544 102.42 67.3544 102.42 67.1828 102.473C66.378 102.912 65.5309 102.61 65.0918 101.804C64.6528 100.998 64.9538 100.15 65.7585 99.7107C66.1018 99.6039 66.2735 99.5505 66.6168 99.4437C67.6467 99.1233 69.1268 99.0399 71.0349 100.332L71.26 100.451ZM78.8587 107.326C79.5876 107.854 79.5118 108.82 78.9856 109.55C78.8675 109.775 78.5242 109.882 78.1809 109.989C77.6659 110.149 77.0975 110.137 76.7654 109.675C75.7579 108.857 74.6968 107.867 73.6358 106.877C73.0786 106.296 72.9293 105.211 73.5089 104.654C74.0886 104.096 75.172 103.948 75.7292 104.529C77.0153 105.637 77.8512 106.508 78.8587 107.326ZM94.102 104.281C93.6181 105.752 92.9092 107.104 92.3183 108.23C92.082 108.681 91.7387 108.788 91.3954 108.895C91.0521 109.001 90.4837 108.99 90.2051 108.699C89.5296 108.344 89.2087 107.312 89.5632 106.636C90.0359 105.735 90.5732 104.436 91.1105 103.138C91.4115 102.29 92.2163 101.851 93.0633 102.153C93.9639 102.627 94.403 103.433 94.102 104.281ZM88.3368 111.166C88.6043 112.026 88.3033 112.874 87.445 113.141C87.2734 113.194 87.1017 113.248 86.9301 113.301C85.5569 113.728 84.0232 113.64 82.3826 113.207C81.5355 112.905 81.0965 112.099 81.3975 111.251C81.6985 110.403 82.5032 109.964 83.3503 110.266C84.4225 110.687 85.3342 110.592 86.1924 110.325C87.0507 110.058 88.1229 110.478 88.3368 111.166ZM96.3072 96.2411C96.1244 96.8637 95.995 97.6582 95.8122 98.2808C95.6293 98.9034 95.1679 99.2355 94.8246 99.3423C94.4813 99.4491 94.3096 99.5025 94.0845 99.384C93.2909 99.2537 92.7984 98.2756 92.9277 97.481C93.1106 96.8585 93.2399 96.064 93.4227 95.4414C93.5521 94.6469 94.475 93.9826 95.3221 94.2848C95.944 94.4684 96.4366 95.4466 96.3072 96.2411ZM71.0682 72.6022C82.912 68.9176 89.3575 56.3526 85.6669 44.4896C84.1157 39.5037 81.8333 37.0082 80.2038 36.0066C75.1127 31.7448 63.6769 34.9254 60.2439 35.9934C59.9006 36.1002 59.729 36.1536 59.729 36.1536C48.2285 39.7314 44.3738 44.8905 43.3104 46.9185L43.1922 47.1438C42.9559 47.5944 43.0094 47.7664 43.0094 47.7664C42.2892 49.6875 41.7718 52.8656 43.3764 58.0234C46.96 69.5425 59.396 76.2335 71.0682 72.6022ZM44.4249 48.0803C44.4249 48.0803 44.543 47.8549 44.6612 47.6296L44.7794 47.4043C45.66 45.9989 49.1713 40.9466 60.3285 37.4756C60.3285 37.4756 60.5002 37.4222 60.8435 37.3154C63.0749 36.6212 74.8006 33.1619 79.3879 37.0147C80.567 37.7792 82.7425 39.9309 84.2402 44.7449C87.6633 55.7483 81.6905 67.4119 70.705 70.8296C59.7729 74.4191 48.2375 68.2023 44.8143 57.1989C43.3167 52.385 43.8876 49.3788 44.4249 48.0803ZM115.196 81.3135C115.196 81.3135 113.941 81.5154 113.769 81.5688C113.426 81.6756 113.083 81.7824 112.911 81.8358C112.739 81.8892 112.739 81.8892 112.568 81.9426L107.968 67.1568C107.861 66.813 107.357 66.404 107.014 66.5108L101.887 66.9744L95.1474 45.3116C94.5591 43.4204 92.5328 42.3536 90.6447 42.941L89.9581 43.1546C85.2712 29.9045 70.7443 22.5441 56.8407 26.8695C43.1087 31.1415 35.1495 45.4974 38.9782 59.0145L38.2916 59.2281C36.4035 59.8155 35.34 61.8435 35.9284 63.7347L42.7747 85.7414C42.6876 87.2771 42.5471 88.6408 42.6852 90.2949L40.1416 92.4062C39.8517 92.6849 39.7871 93.0822 39.894 93.426L43.0498 103.57C42.7065 103.677 41.9017 104.116 41.9017 104.116C39.8954 104.928 38.9389 107.3 39.9241 109.256L43.6283 117.532C44.3883 119.37 46.361 120.265 48.2492 119.678L54.8281 140.825C54.9351 141.169 55.1602 141.287 55.3853 141.406C55.6105 141.524 55.7821 141.471 55.9538 141.417C56.1254 141.364 56.1254 141.364 56.2971 141.311L67.6196 132.32L70.9058 159L94.8246 151.45L90.5 131.5L100 149L124 141.5L108.925 116.829L122.193 115.907L122.365 115.854C122.536 115.801 122.708 115.747 122.826 115.522C122.944 115.297 123.062 115.071 122.955 114.727L117.767 98.0504C117.939 97.997 118.282 97.8902 118.679 97.9553C118.851 97.9019 119.022 97.8485 119.022 97.8485C120.91 97.2611 122.027 95.4051 121.782 93.4071L120.138 84.4903C119.443 82.2553 117.309 80.8447 115.196 81.3135ZM92.7443 46.0592L98.3605 64.1116C95.8951 62.2386 92.9684 60.6977 89.8053 59.6075C91.2568 55.1961 91.6361 50.3639 90.5353 45.615L91.3935 45.348C91.9085 45.1878 92.5839 45.5434 92.7443 46.0592ZM57.5895 29.2765C70.2916 25.3248 83.7462 32.2646 87.5973 44.6433C91.4484 57.0221 84.3051 70.3699 71.6031 74.3215C58.8475 78.1012 45.4463 71.3334 41.5953 58.9546C37.7442 46.5759 44.8874 33.2281 57.5895 29.2765ZM38.3315 62.9871C38.1175 62.2994 38.472 61.6234 39.1586 61.4098L40.0168 61.1428C41.8043 65.678 44.6863 69.4956 48.3843 72.3051C46.3979 74.9973 44.8618 77.9266 43.8941 80.8676L38.3315 62.9871ZM50.3458 73.7691C56.6385 77.6571 64.7458 78.9062 72.47 76.5032C80.1943 74.1002 85.9905 68.5256 88.9669 61.754C92.5268 62.9093 95.7322 64.7407 98.1329 67.0109L90.7855 67.5996L90.6139 67.653C90.4422 67.7064 90.2706 67.7598 90.2706 67.7598L74.8682 81.7913L56.0253 79.9221C55.8536 79.9755 55.8536 79.9755 55.682 80.0289C55.5103 80.0823 55.5103 80.0823 55.3387 80.1357L45.1107 88.4089C45.0397 83.3397 47.0174 78.1988 50.3458 73.7691ZM45.4095 116.601L41.7052 108.325C41.2661 107.519 41.6853 106.446 42.6617 105.953C42.6617 105.953 43.8098 105.408 43.9814 105.354C44.1531 105.301 44.4964 105.194 44.668 105.141C47.7577 104.179 50.8561 105.667 52.1622 108.655C53.4148 111.471 52.3824 114.809 49.85 116.351C49.5067 116.458 48.5303 116.95 47.7255 117.389C46.7491 117.881 45.6769 117.461 45.4095 116.601ZM92 149.5L74 155L73.6358 152.5L91.3954 147L92 149.5ZM73.2631 149.5C72.3874 144.87 75.5371 140.388 80 139C84.4629 137.612 89.0374 139.684 90.9964 144.166L73.2631 149.5ZM79.5 136.5C75.8954 137.621 73.204 140.108 72 143.5L70.2192 129.81L70.8611 129.425L88 131.5L89.5632 139C86.8193 136.837 83.2763 135.325 79.5 136.5ZM97.5 138.5L92.5 130L106.19 117.115L115 131.5C112.084 129.39 108.105 128.879 104.5 130C100 131 97.5 135 97.5 138.5ZM117.5 136.5L99.5 142C98.6243 137.37 100.742 133.708 105.205 132.32C109.721 131.103 115.594 132.19 117.5 136.5ZM120 140.5L101.5 146L100.5 144L118.5 138.5L120 140.5ZM120.468 113.993L105.72 114.998L105.548 115.052C105.376 115.105 105.376 115.105 105.205 115.158L89.7488 129.018L70.9058 127.149C70.7342 127.202 70.7342 127.202 70.5625 127.256C70.3909 127.309 70.3909 127.309 70.2192 127.362L56.0097 138.571L49.9122 118.972C50.717 118.533 51.0603 118.426 51.2319 118.373C54.6873 116.166 55.9671 111.808 54.3936 107.961C52.702 104.338 48.8747 102.323 44.9914 103.154L41.9961 93.5264L45.1729 91.0295L45.3445 90.9761L56.4955 82.0386L75.5101 83.8544C75.6817 83.801 75.6817 83.801 75.8534 83.7476C76.025 83.6942 76.1967 83.6408 76.1967 83.6408L91.8241 69.7278L106.744 68.669L111.237 83.1109C108.415 84.9318 106.814 88.2583 107.54 91.8037C108.256 95.9182 111.954 98.7277 116.051 98.5844L120.811 113.886L120.468 113.993ZM117.628 84.8941L119.272 93.8109C119.368 94.7239 118.842 95.4533 118.155 95.6669L117.984 95.7203C117.072 95.8154 115.988 95.9638 115.645 96.0706C112.631 96.0654 109.941 94.0739 109.375 91.0443C108.702 87.6709 110.871 84.3561 114.293 83.8573C114.465 83.8039 115.72 83.602 115.72 83.602C116.578 83.335 117.532 83.981 117.628 84.8941Z" fill="black"/>
<path d="M97.2209 86.569L93.794 83.9697L92.1814 85.5186L94.9823 87.7891L92.7118 90.59L94.7382 92.0541L97.0087 89.2532L97.7831 90.0596L100.913 91.7041L101.751 89.3488L99.0988 87.5557L101.518 85.2323L99.9688 83.6196L97.2209 86.569Z" fill="black"/>
<path d="M250.597 70.5877L253.898 43.7123C254.149 41.6695 253.461 39.6608 252.009 38.2014L251.288 37.4762L254.023 34.7564C255.879 35.6818 258.199 35.3768 259.749 33.8351C261.693 31.9023 261.702 28.7486 259.769 26.805C257.836 24.8614 254.683 24.8526 252.739 26.7854C251.189 28.3269 250.871 30.6448 251.786 32.5065L249.051 35.2262L248.33 34.501C246.878 33.0416 244.873 32.3419 242.829 32.5815L215.936 35.7323C215.21 35.8175 214.524 36.1484 214.006 36.6639L184.422 66.0832C182.478 68.016 182.469 71.1697 184.402 73.1133L191.39 80.1407L178.628 88.5971C178.625 88.599 178.623 88.6008 178.62 88.6027L178.617 88.6045C178.606 88.6119 178.596 88.6207 178.585 88.6283C178.554 88.6501 178.522 88.6718 178.492 88.6963C178.452 88.7295 178.412 88.7647 178.375 88.802L174.775 92.3818C174.154 92.9997 174.151 94.0042 174.769 94.6255L191.474 111.425C192.092 112.046 193.097 112.049 193.718 111.431L197.318 107.851C197.355 107.814 197.391 107.775 197.424 107.734C197.449 107.705 197.471 107.674 197.493 107.642C197.501 107.631 197.509 107.621 197.517 107.61L197.519 107.607C197.521 107.605 197.522 107.602 197.524 107.599L206.052 94.8849L213.04 101.912C214.973 103.856 218.127 103.865 220.071 101.932L249.654 72.5128C250.173 71.997 250.508 71.3131 250.597 70.5877ZM257.519 29.0424C258.218 29.7454 258.215 30.8861 257.512 31.5852C256.809 32.2843 255.668 32.2811 254.969 31.5781C254.27 30.8751 254.273 29.7344 254.976 29.0353C255.679 28.3362 256.82 28.3394 257.519 29.0424ZM215.537 39.6162C215.56 39.6428 215.582 39.6696 215.607 39.6949L246.633 70.8939C246.658 70.9192 246.685 70.9419 246.711 70.9652L245.357 72.3113L214.183 40.9624L215.537 39.6162ZM243.199 35.733C244.269 35.6075 245.319 35.9739 246.08 36.7384L249.759 40.4388C250.519 41.2031 250.88 42.2554 250.749 43.3254L247.774 67.5419L218.966 38.5722L243.199 35.733ZM207.133 47.9729L215.635 56.5226L198.686 73.3776L190.184 64.8279L207.133 47.9729ZM178.137 93.5132L179.487 92.1708L193.956 106.72L192.606 108.063L178.137 93.5132ZM195.96 104.236L181.983 90.1807L193.672 82.4353L203.77 92.5904L195.96 104.236ZM215.29 99.6749L206.937 91.2752L195.005 79.2756L186.652 70.8759C185.953 70.1729 185.956 69.0322 186.659 68.3331L187.934 67.0652L197.555 76.7399C198.172 77.3612 199.177 77.364 199.798 76.7462L218.998 57.6538C219.619 57.036 219.622 56.0314 219.004 55.4101L209.383 45.7355L211.933 43.1998L243.107 74.5487L228.558 89.0171L211.777 72.1427C211.16 71.5214 210.155 71.5186 209.534 72.1364C208.912 72.7543 208.91 73.7588 209.527 74.3801L226.308 91.2545L224.958 92.597L208.178 75.7225C207.56 75.1013 206.555 75.0985 205.934 75.7163C205.313 76.3341 205.31 77.3386 205.928 77.9599L222.708 94.8344L221.358 96.1768L204.578 79.3024C203.96 78.6811 202.955 78.6783 202.334 79.2961C201.713 79.9139 201.71 80.9185 202.328 81.5397L219.108 98.4142L217.833 99.682C217.13 100.381 215.989 100.378 215.29 99.6749Z" fill="black"/>
<path d="M220.599 73.5138L228.355 81.3135C229.136 82.0992 230.411 82.1028 231.197 81.3215L235.397 77.145C236.182 76.3637 236.186 75.0887 235.405 74.3031L227.648 66.5033C226.867 65.7176 225.592 65.7141 224.807 66.4954L220.607 70.6718C219.821 71.4531 219.817 72.7281 220.599 73.5138ZM226.219 69.5657L232.334 75.7155L229.785 78.2512L223.669 72.1014L226.219 69.5657Z" fill="black"/>
<circle cx="9.5" cy="15.5" r="1.5" fill="white"/>
<circle cx="130.5" cy="46.5" r="1.5" fill="white"/>
<circle cx="222.5" cy="19.5" r="1.5" fill="white"/>
<circle cx="170.5" cy="30.5" r="1.5" fill="white"/>
<circle cx="82.5" cy="12.5" r="1.5" fill="white"/>
<circle cx="17.5" cy="114.5" r="1.5" fill="white"/>
<circle cx="9.5" cy="99.5" r="1.5" fill="white"/>
<circle cx="187.5" cy="135.5" r="1.5" fill="white"/>
<circle cx="217.5" cy="120.5" r="1.5" fill="white"/>
<circle cx="277.5" cy="77.5" r="1.5" fill="white"/>
<circle cx="270.5" cy="65.5" r="1.5" fill="white"/>
<circle cx="259" cy="123" r="15" fill="url(#paint0_linear)" stroke="black" stroke-width="3"/>
<rect width="300" height="165" fill="url(#paint1_radial)"/>
</g>
<defs>
<linearGradient id="paint0_linear" x1="244" y1="123" x2="274" y2="123" gradientUnits="userSpaceOnUse">
<stop stop-color="#FF7E5F"/>
<stop offset="1" stop-color="#FEB47B"/>
</linearGradient>
<radialGradient id="paint1_radial" cx="0" cy="0" r="1" gradientUnits="userSpaceOnUse" gradientTransform="translate(150 82.5) rotate(179.822) scale(160.501 108.572)">
<stop offset="0.478393" stop-color="#F6EEBA" stop-opacity="0"/>
<stop offset="1" stop-opacity="0.1"/>
</radialGradient>
</defs>
</svg>
