<svg width="300" height="165" viewBox="0 0 300 165" fill="none" xmlns="http://www.w3.org/2000/svg">
<mask id="mask0" mask-type="alpha" maskUnits="userSpaceOnUse" x="0" y="0" width="300" height="165">
<rect width="300" height="165" fill="#C4C4C4"/>
</mask>
<g mask="url(#mask0)">
<rect width="300" height="165" fill="url(#paint0_radial)"/>
<path d="M145.545 83.9329L164.396 91.8198L150.705 83L145.545 83.9329ZM140.297 84.8818L158.945 92.909L145.545 83.9329L140.297 84.8818ZM134.958 85.8471L153.392 94.0184L140.297 84.8818L134.958 85.8471ZM164.396 91.8198L169.75 90.7502L150.705 83L164.396 91.8198ZM163.463 122.855L168.669 121.545L169.75 90.7502L163.463 122.855ZM129.527 86.8292L147.736 95.1484L134.958 85.8471L129.527 86.8292ZM158.945 92.909L164.396 91.8198L145.545 83.9329L158.945 92.909Z" fill="#DFC91B"/>
<path d="M141.973 96.2997L124 87.8284L124.247 117.965L141.973 96.2997Z" fill="#F8E01E"/>
<path d="M158.165 124.188L163.463 122.855L164.396 91.8198L158.165 124.188ZM164.396 91.8198L163.463 122.855L169.75 90.7502L164.396 91.8198ZM124 87.8284L141.973 96.2997L129.527 86.8292L124 87.8284ZM153.392 94.0184L158.945 92.909L140.297 84.8818L153.392 94.0184ZM152.772 125.544L158.165 124.188L158.945 92.909L152.772 125.544Z" fill="#DFC91B"/>
<path d="M124.247 117.965L141.689 128.332L141.973 96.2996L124.247 117.965Z" fill="#F8E01E"/>
<path fill-rule="evenodd" clip-rule="evenodd" d="M125.74 117.107L125.5 87.8162L122.5 87.8407L122.746 117.95C122.742 118.466 123.004 118.971 123.48 119.254L140.923 129.621C141.635 130.045 142.556 129.811 142.979 129.098C143.402 128.386 143.168 127.466 142.456 127.043L125.74 117.107Z" fill="black"/>
<path d="M158.945 92.9088L158.165 124.187L164.396 91.8196L158.945 92.9088ZM147.736 95.1482L153.392 94.0182L134.958 85.8469L147.736 95.1482ZM147.281 126.925L152.772 125.544L153.392 94.0182L147.281 126.925ZM153.392 94.0182L152.772 125.544L158.945 92.9088L153.392 94.0182ZM141.973 96.2996L147.736 95.1482L129.527 86.829L141.973 96.2996Z" fill="#DFC91B"/>
<path fill-rule="evenodd" clip-rule="evenodd" d="M150.416 81.5279C150.693 81.4731 150.989 81.4961 151.27 81.6105L170.315 89.3608C171.083 89.673 171.451 90.5482 171.139 91.3155C170.827 92.0829 169.952 92.4518 169.184 92.1395L150.543 84.5535L128.88 88.4703L142.613 94.9428L141.334 97.6565L123.36 89.1852L124 87.8284L123.733 86.3523L150.416 81.5279Z" fill="black"/>
<path d="M141.689 128.332L147.281 126.926L147.736 95.1484L141.689 128.332ZM147.736 95.1484L147.281 126.926L153.392 94.0183L147.736 95.1484ZM141.973 96.2997L141.689 128.332L147.736 95.1484L141.973 96.2997Z" fill="#DFC91B"/>
<path fill-rule="evenodd" clip-rule="evenodd" d="M168.184 92.5927L143.462 97.5319L143.207 126.404L167.209 120.366L168.184 92.5927ZM169.75 90.7502L169.456 89.2793L141.679 94.8288L141.973 96.2997L140.473 96.2865L140.189 128.319L141.689 128.332L142.055 129.787L169.035 123C169.709 122.83 170.161 122.229 170.169 121.565L171.249 90.8028L169.75 90.7502Z" fill="black"/>
<path d="M158.583 97.893V101.234L158.187 101.291C156.337 101.588 154.846 102.281 153.714 103.372C152.591 104.461 151.916 105.846 151.69 107.526C152.784 106.263 154.167 105.51 155.837 105.268C157.63 105.008 159.055 105.438 160.112 106.557C161.169 107.677 161.697 109.275 161.697 111.353C161.697 112.682 161.404 113.926 160.819 115.087C160.244 116.247 159.423 117.204 158.357 117.957C157.3 118.709 156.101 119.183 154.761 119.377C152.591 119.692 150.836 119.197 149.496 117.894C148.165 116.59 147.5 114.689 147.5 112.19V110.73C147.5 108.512 147.92 106.495 148.76 104.68C149.609 102.853 150.822 101.363 152.397 100.208C153.983 99.042 155.818 98.3033 157.904 97.9916L158.583 97.893ZM154.591 108.705C153.931 108.801 153.332 109.061 152.794 109.485C152.256 109.9 151.86 110.407 151.605 111.005V112.24C151.605 113.597 151.874 114.621 152.412 115.31C152.949 115.99 153.704 116.259 154.676 116.119C155.554 115.991 156.262 115.547 156.8 114.786C157.347 114.014 157.621 113.081 157.621 111.986C157.621 110.872 157.347 110.013 156.8 109.41C156.252 108.806 155.516 108.571 154.591 108.705Z" fill="black"/>
<path d="M136.18 110.5L131.459 108.197V113.7L137 117.1V120.5L129 116.044V95.5L136.984 98.93V102.359L131.459 99.9852V104.881L136.18 107.184V110.5Z" fill="black"/>
<circle cx="88" cy="120" r="19" fill="#18A5CF" stroke="black" stroke-width="3"/>
<path fill-rule="evenodd" clip-rule="evenodd" d="M78.2786 118.678C77.8287 119.145 77.6525 119.58 77.6525 119.97C77.6525 120.36 77.8287 120.795 78.2786 121.262C78.7324 121.734 79.4287 122.196 80.353 122.602C82.1993 123.413 84.8077 123.936 87.7326 123.936C90.6574 123.936 93.2659 123.413 95.1121 122.602C96.0364 122.196 96.7327 121.734 97.1865 121.262C97.6364 120.795 97.8126 120.36 97.8126 119.97C97.8126 119.58 97.6364 119.145 97.1865 118.678C96.7327 118.206 96.0364 117.744 95.1121 117.338C93.2659 116.527 90.6574 116.004 87.7326 116.004C84.8077 116.004 82.1993 116.527 80.353 117.338C79.4287 117.744 78.7324 118.206 78.2786 118.678ZM79.6883 115.825C81.7893 114.902 84.634 114.352 87.7326 114.352C90.8311 114.352 93.6758 114.902 95.7769 115.825C96.8262 116.286 97.7271 116.856 98.3771 117.532C99.031 118.211 99.4651 119.036 99.4651 119.97C99.4651 120.904 99.031 121.729 98.3771 122.408C97.7271 123.084 96.8262 123.654 95.7769 124.115C93.6758 125.038 90.8311 125.588 87.7326 125.588C84.634 125.588 81.7893 125.038 79.6883 124.115C78.6389 123.654 77.738 123.084 77.088 122.408C76.4342 121.729 76 120.904 76 119.97C76 119.036 76.4342 118.211 77.088 117.532C77.738 116.856 78.6389 116.286 79.6883 115.825Z" fill="white"/>
<path fill-rule="evenodd" clip-rule="evenodd" d="M81.8864 127.511C82.0662 128.134 82.3552 128.505 82.6925 128.699C83.0299 128.894 83.4951 128.959 84.1248 128.803C84.7599 128.646 85.5084 128.274 86.3223 127.677C87.948 126.483 89.7047 124.486 91.1672 121.953C92.6296 119.42 93.4813 116.9 93.7018 114.895C93.8123 113.891 93.7601 113.057 93.5787 112.429C93.3989 111.805 93.11 111.435 92.7726 111.24C92.4353 111.045 91.9701 110.98 91.3404 111.136C90.7052 111.294 89.9567 111.665 89.1428 112.263C87.5172 113.456 85.7604 115.454 84.298 117.987C82.8355 120.52 81.9839 123.04 81.7633 125.045C81.6529 126.048 81.705 126.882 81.8864 127.511ZM80.1207 124.864C80.3717 122.583 81.3176 119.844 82.8669 117.161C84.4161 114.477 86.315 112.289 88.165 110.931C89.089 110.252 90.0334 109.758 90.9432 109.532C91.8584 109.306 92.7902 109.342 93.5988 109.809C94.4075 110.276 94.9051 111.065 95.1665 111.971C95.4263 112.871 95.4698 113.936 95.3444 115.076C95.0934 117.357 94.1475 120.096 92.5982 122.779C91.049 125.462 89.1501 127.651 87.3001 129.009C86.3761 129.687 85.4317 130.182 84.522 130.407C83.6067 130.634 82.675 130.597 81.8663 130.13C81.0576 129.664 80.56 128.875 80.2987 127.969C80.0389 127.069 79.9954 126.003 80.1207 124.864Z" fill="white"/>
<path fill-rule="evenodd" clip-rule="evenodd" d="M91.3404 128.804C91.9701 128.96 92.4353 128.894 92.7726 128.7C93.11 128.505 93.3989 128.135 93.5787 127.511C93.7601 126.883 93.8123 126.048 93.7018 125.045C93.4813 123.04 92.6296 120.52 91.1672 117.987C89.7047 115.454 87.948 113.456 86.3223 112.263C85.5084 111.666 84.7599 111.294 84.1248 111.136C83.4951 110.981 83.0299 111.046 82.6925 111.24C82.3552 111.435 82.0662 111.806 81.8864 112.429C81.705 113.058 81.6528 113.892 81.7633 114.895C81.9839 116.9 82.8355 119.42 84.298 121.953C85.7604 124.486 87.5172 126.484 89.1428 127.677C89.9567 128.274 90.7052 128.646 91.3404 128.804ZM88.165 129.009C86.315 127.651 84.4161 125.463 82.8669 122.779C81.3176 120.096 80.3717 117.357 80.1207 115.076C79.9954 113.937 80.0389 112.871 80.2986 111.971C80.56 111.065 81.0576 110.276 81.8663 109.809C82.675 109.342 83.6067 109.306 84.522 109.532C85.4317 109.758 86.3761 110.253 87.3001 110.931C89.1501 112.289 91.049 114.477 92.5982 117.161C94.1475 119.844 95.0934 122.583 95.3444 124.864C95.4698 126.003 95.4262 127.069 95.1665 127.969C94.9051 128.875 94.4075 129.664 93.5988 130.131C92.7902 130.598 91.8584 130.634 90.9432 130.408C90.0334 130.182 89.089 129.687 88.165 129.009Z" fill="white"/>
<path d="M90.3765 119.805C90.3765 121.082 89.3407 122.118 88.0631 122.118C86.7854 122.118 85.7496 121.082 85.7496 119.805C85.7496 118.527 86.7854 117.491 88.0631 117.491C89.3407 117.491 90.3765 118.527 90.3765 119.805Z" fill="white"/>
<path d="M205 97.5774C205.619 97.2201 206.381 97.2201 207 97.5774L222.321 106.423C222.939 106.78 223.321 107.44 223.321 108.155V125.845C223.321 126.56 222.939 127.22 222.321 127.577L207 136.423C206.381 136.78 205.619 136.78 205 136.423L189.679 127.577C189.061 127.22 188.679 126.56 188.679 125.845V108.155C188.679 107.44 189.061 106.78 189.679 106.423L205 97.5774Z" fill="#8BC500" stroke="black" stroke-width="4"/>
<path d="M206.497 108H210.263V120.802C210.263 121.979 210.003 123.02 209.485 123.926C208.974 124.824 208.25 125.518 207.313 126.009C206.376 126.5 205.318 126.746 204.138 126.746C202.205 126.746 200.699 126.251 199.619 125.26C198.54 124.261 198 122.851 198 121.031H201.791C201.791 121.937 201.979 122.606 202.355 123.037C202.732 123.469 203.326 123.685 204.138 123.685C204.857 123.685 205.43 123.435 205.857 122.936C206.284 122.436 206.497 121.725 206.497 120.802V108Z" fill="black"/>
<path d="M75 50.5C75 43.0442 81.0442 37 88.5 37C88.5 37 113 29 148 29C183 29 207.5 37 207.5 37C214.956 37 221 43.0442 221 50.5C221 57.9558 214.956 64 207.5 64C207.5 64 171.236 56 148 56C124.764 56 88.5 64 88.5 64C81.0442 64 75 57.9558 75 50.5Z" fill="white"/>
<rect x="86" y="91" width="5" height="9" rx="2.5" fill="black"/>
<rect x="144" y="75" width="5" height="15" rx="2.5" fill="black"/>
<rect x="203" y="89" width="5" height="5" rx="2.5" fill="black"/>
<path fill-rule="evenodd" clip-rule="evenodd" d="M149 -13H144V25.532C116.163 26.0415 96.9174 32.5056 88.9943 35.167H88.9932L88.9706 35.1743C88.6254 35.2908 88.3018 35.3994 88 35.5C80.5 38 72 42.6633 72 51.5C72 59.6594 78.1074 66.3921 86 67.3762V85H86.05C86.0172 85.1616 86 85.3289 86 85.5C86 86.8806 87.1193 88 88.5 88C89.8807 88 91 86.8806 91 85.5C91 85.3289 90.9828 85.1616 90.95 85H91V66.7058C99.6138 64.4797 125.02 58.2939 144 57.5696V70H144.05C144.017 70.1616 144 70.3289 144 70.5C144 71.8806 145.119 73 146.5 73C147.881 73 149 71.8806 149 70.5C149 70.3289 148.983 70.1616 148.95 70H149V57.5107C167.482 57.7698 193.207 62.6602 203 64.6592V85.5C203 86.8806 204.119 88 205.5 88C206.881 88 208 86.8806 208 85.5V65.4692C216.371 64.9531 223 58.0007 223 49.5C223 40.6633 215.5 36 207 33.5C207 33.5 179.413 25.7563 149 25.5061V-13ZM77 51.5C77 45.4248 83.5 42 89.5 40C89.5 40 114 30.5 147.5 30.5C181 30.5 206 38 206 38C212.5 40 218 43.4248 218 49.5C218 55.5752 213.075 60.5 207 60.5C207 60.5 170.736 52.5 147.5 52.5C124.264 52.5 88 62.5 88 62.5C81.9249 62.5 77 57.5752 77 51.5Z" fill="black"/>
<rect width="300" height="165" fill="url(#paint1_radial)"/>
</g>
<defs>
<radialGradient id="paint0_radial" cx="0" cy="0" r="1" gradientUnits="userSpaceOnUse" gradientTransform="translate(150 82.5) rotate(90) scale(82.5 150)">
<stop stop-color="#FF0CE7"/>
<stop offset="1" stop-color="#B3009A"/>
</radialGradient>
<radialGradient id="paint1_radial" cx="0" cy="0" r="1" gradientUnits="userSpaceOnUse" gradientTransform="translate(150 82.5) rotate(179.822) scale(160.501 108.572)">
<stop offset="0.478393" stop-color="#F6EEBA" stop-opacity="0"/>
<stop offset="1" stop-opacity="0.1"/>
</radialGradient>
</defs>
</svg>
