<svg width="300" height="165" viewBox="0 0 300 165" fill="none" xmlns="http://www.w3.org/2000/svg">
<rect width="300" height="165" fill="url(#paint0_linear)"/>
<mask id="mask0" mask-type="alpha" maskUnits="userSpaceOnUse" x="0" y="0" width="300" height="165">
<rect width="300" height="165" fill="#C4C4C4"/>
</mask>
<g mask="url(#mask0)">
<rect width="300" height="165" fill="url(#paint1_linear)"/>
<path d="M57.9573 135.091L55.5911 128.308L53.6944 134.832L46.3081 137.409L53.4693 139.491L55.4089 146.692L58.1315 139.358L64.6919 137.591L57.9573 135.091Z" fill="white"/>
<path d="M243.283 30L246.501 39.2247L243.101 48.3839L240.618 39.1664L243.283 30Z" fill="white"/>
<path d="M234 39.1009L243.225 35.8828L252.384 39.283L243.166 41.7657L234 39.1009Z" fill="white"/>
<path d="M230.077 136.121L228.639 132L227.487 135.963L223 137.529L227.35 138.794L228.529 143.168L230.183 138.713L234.168 137.639L230.077 136.121Z" fill="white"/>
<path d="M133.077 23.1207L131.639 19L130.487 22.9635L126 24.5288L130.35 25.7936L131.529 30.1681L133.183 25.7129L137.168 24.6395L133.077 23.1207Z" fill="white"/>
<path d="M31.0769 65.1207L29.6394 61L28.4872 64.9635L24 66.5288L28.3505 67.7936L29.5288 72.1681L31.1827 67.7129L35.1681 66.6395L31.0769 65.1207Z" fill="white"/>
<path d="M56.3203 30.0979L55.2396 27L54.3734 29.9797L51.0001 31.1565L54.2707 32.1073L55.1564 35.3958L56.3997 32.0467L59.396 31.2397L56.3203 30.0979Z" fill="white"/>
<path d="M266.32 113.098L265.24 110L264.373 112.98L261 114.156L264.271 115.107L265.156 118.396L266.4 115.047L269.396 114.24L266.32 113.098Z" fill="white"/>
<path d="M273.32 55.0979L272.239 52L271.373 54.9797L268 56.1565L271.271 57.1073L272.156 60.3958L273.4 57.0467L276.396 56.2397L273.32 55.0979Z" fill="white"/>
<path d="M262.32 64.0979L261.239 61L260.373 63.9797L257 65.1565L260.271 66.1073L261.156 69.3958L262.4 66.0467L265.396 65.2397L262.32 64.0979Z" fill="white"/>
<path d="M223.146 71.5411C217.339 61.1121 207.824 53.5692 196.347 50.2989C194.996 49.914 190.893 48.7446 161.331 49.7623C146.916 50.2598 130.306 50.0455 130.17 50.0521C128.9 50.1255 127.815 51.0007 127.474 52.2237C127.131 53.4509 127.605 54.7565 128.651 55.4808L142 69.6043L89.3212 67.17C88.0384 67.222 86.9323 68.0863 86.5765 69.3189C86.2206 70.5514 86.6916 71.8761 87.7501 72.6043L131.46 97.5918L112.394 101.024C111.139 101.247 110.166 102.249 109.975 103.511C109.783 104.772 110.416 106.014 111.547 106.599C116.977 109.426 164.807 134.225 171.86 136.234C183.337 139.505 195.398 138.114 205.83 132.312C216.258 126.509 223.802 116.99 227.072 105.511C230.342 94.0351 228.949 81.9691 223.146 71.5411Z" fill="#FC6E51"/>
<path d="M209.885 100.614C205.828 114.853 190.996 123.104 176.758 119.047C162.521 114.99 154.265 100.161 158.323 85.9216C162.38 71.6839 177.212 63.4294 191.45 67.4863C205.688 71.5434 213.942 86.3764 209.885 100.614Z" fill="#F6BB42"/>
<path d="M212.747 101.429C216.745 87.3974 209.943 72.8014 197.294 66.561C197.287 66.5543 197.27 66.5495 197.258 66.5419C195.683 65.7662 194.015 65.1232 192.265 64.6246C182.614 61.8746 172.696 64.234 165.413 70.0893C165.353 70.1312 165.294 70.1732 165.235 70.2201C165.164 70.2771 165.097 70.3395 165.031 70.4024C160.581 74.1023 157.161 79.1299 155.459 85.1054C155.104 86.3518 154.834 87.6016 154.647 88.846C154.644 88.8632 154.642 88.8808 154.641 88.8896C152.466 103.459 161.405 117.775 175.94 121.917C183.166 123.976 190.547 123.166 196.853 120.172C197.027 120.104 197.199 120.026 197.363 119.928C204.602 116.319 210.361 109.803 212.747 101.429ZM207.023 99.7985C206.275 102.423 205.107 104.821 203.619 106.938C204.826 100.202 202.923 94.1115 198.038 89.2032C195.194 86.3512 193.783 83.3725 193.84 80.3536C193.899 77.2489 195.464 74.6055 196.669 73.0208C205.478 78.4885 210.003 89.3416 207.023 99.7985ZM186.964 98.9438C184.997 99.0184 183.181 98.0834 181.406 96.0806C173.265 86.8991 166.236 85.1049 161.652 85.2868C162.822 81.9951 164.658 79.1019 166.965 76.7198C170.577 80.0764 175.01 82.0517 179.084 83.2126C182.823 84.2779 186.258 84.6579 188.475 84.7906C189.333 87.8117 191.116 90.697 193.818 93.4088C194.178 93.77 194.516 94.1431 194.831 94.5186C192.981 96.4096 189.95 98.8324 186.964 98.9438ZM190.633 70.3522C190.805 70.4013 190.976 70.4546 191.152 70.5048C189.78 72.5502 188.362 75.3945 187.98 78.7743C184.028 78.442 176.812 77.239 171.683 72.9466C177.17 69.5968 183.979 68.456 190.633 70.3522ZM160.346 91.4134C162.789 90.8663 168.811 90.8582 176.948 100.037C178.642 101.944 180.373 103.145 182.003 103.872C181.689 105.053 181.018 106.55 179.607 107.745C177.05 109.902 172.646 110.552 166.818 109.654C162.267 104.846 159.815 98.2308 160.346 91.4134ZM175.916 115.649C178.966 115.103 181.515 113.96 183.548 112.207C186.241 109.889 187.391 107.014 187.881 104.849C191.837 104.47 195.284 102.149 197.652 100.047C198.209 102.393 198.109 104.941 197.348 107.673C196.391 111.112 194.647 113.873 193.876 114.987C188.92 117.222 183.193 117.786 177.574 116.185C177.011 116.024 176.456 115.839 175.916 115.649Z" fill="#FFCE54"/>
<path d="M114.161 50.5128C112.536 50.2577 111.012 51.37 110.757 52.9951C110.502 54.6203 111.612 56.1459 113.237 56.401C114.862 56.6561 116.386 55.5438 116.641 53.9186C116.896 52.2934 115.786 50.7678 114.161 50.5128Z" fill="#FC6E51"/>
<path d="M62.3938 76.9878C61.9418 78.5739 62.8602 80.2148 64.4425 80.6657C66.0243 81.1164 67.6718 80.2066 68.1238 78.6205C68.5734 77.0427 67.6552 75.3929 66.0734 74.9421C64.4911 74.4912 62.8434 75.41 62.3938 76.9878Z" fill="#FC6E51"/>
<path d="M73.8155 64.8618C73.3636 66.4479 74.2819 68.0888 75.8643 68.5397C77.4461 68.9904 79.0936 68.0806 79.5455 66.4945C79.9951 64.9167 79.077 63.2669 77.4952 62.8161C75.9128 62.3653 74.2651 63.284 73.8155 64.8618Z" fill="#FC6E51"/>
<path d="M79.942 56.0073L101.518 55.6462C103.143 55.9013 104.667 54.789 104.922 53.1638C105.177 51.5386 104.067 50.013 102.442 49.758L80.8661 50.1191C79.2412 49.864 77.7172 50.9763 77.4621 52.6014C77.2071 54.2266 78.3171 55.7523 79.942 56.0073Z" fill="#FC6E51"/>
<path d="M102.647 94.505L78.0215 81.9164C76.4565 81.4102 74.7772 82.2703 74.2696 83.8398C73.7648 85.4008 74.6222 87.081 76.1872 87.5871L100.813 100.176C102.378 100.682 104.057 99.8221 104.562 98.2611C105.07 96.6914 104.212 95.0111 102.647 94.505Z" fill="#FC6E51"/>
</g>
<defs>
<linearGradient id="paint0_linear" x1="0" y1="82.5" x2="300" y2="82.5" gradientUnits="userSpaceOnUse">
<stop stop-color="#000C40"/>
<stop offset="1" stop-color="#607D8B"/>
</linearGradient>
<linearGradient id="paint1_linear" x1="0" y1="82.5" x2="300" y2="82.5" gradientUnits="userSpaceOnUse">
<stop stop-color="#41295A"/>
<stop offset="1" stop-color="#2F0743"/>
</linearGradient>
</defs>
</svg>
