<svg width="300" height="165" viewBox="0 0 300 165" fill="none" xmlns="http://www.w3.org/2000/svg">
<rect width="300" height="165" fill="url(#paint0_linear)"/>
<mask id="mask0" mask-type="alpha" maskUnits="userSpaceOnUse" x="0" y="0" width="300" height="165">
<rect width="300" height="165" fill="#C4C4C4"/>
</mask>
<g mask="url(#mask0)">
<rect width="300" height="165" fill="url(#paint1_linear)"/>
<rect y="107" width="300" height="58" fill="url(#paint2_linear)"/>
<rect y="96" width="300" height="30" fill="url(#paint3_linear)"/>
<path d="M70.3077 88.8925V116.941C70.3077 118.471 71.7325 122.653 77.4315 127.141C83.1306 131.628 87.9476 132.41 89.6438 132.24H272.319V116.941C271.301 112.011 268.248 101.132 264.177 97.0521C260.107 92.9723 248.912 88.2125 243.824 86.3426C236.021 86.1726 219.704 85.9346 216.855 86.3426C214.005 86.7506 211.936 90.2524 211.258 91.9523L192.939 88.8925H109.998V77.673L100.33 81.7528H77.4315C71.8342 81.7528 70.3077 82.7728 70.3077 88.8925Z" fill="#FFDD09"/>
<path d="M77.4315 72.5733C67.6617 73.7972 66.5762 65.9436 67.2546 61.8638H86.5907C87.6084 64.9236 87.2013 71.3493 77.4315 72.5733Z" fill="#FFDD09"/>
<path d="M70.3077 88.8925V116.941C70.3077 118.471 71.7325 122.653 77.4315 127.141C83.1306 131.628 87.9476 132.41 89.6438 132.24H272.319V116.941C271.301 112.011 268.248 101.132 264.177 97.0521C260.107 92.9723 248.912 88.2125 243.824 86.3426C236.021 86.1726 219.704 85.9346 216.855 86.3426C214.005 86.7506 211.936 90.2524 211.258 91.9523L192.939 88.8925H109.998V77.673L100.33 81.7528H77.4315C71.8342 81.7528 70.3077 82.7728 70.3077 88.8925Z" stroke="black"/>
<path d="M77.4315 72.5733C67.6617 73.7972 66.5762 65.9436 67.2546 61.8638H86.5907C87.6084 64.9236 87.2013 71.3493 77.4315 72.5733Z" stroke="black"/>
<circle cx="100.07" cy="120.07" r="19.07" fill="#4E4D3F"/>
<circle cx="238.07" cy="119.07" r="19.07" fill="#4E4D3F"/>
<circle cx="100.224" cy="119.224" r="12.2243" fill="#C4C4C4"/>
<circle cx="238.713" cy="119.713" r="12.7133" fill="#C4C4C4"/>
<path d="M151.263 52.7754V40.5H161.038V79.8263H121.712V70.0509H133.987H136.487V67.5509V55.2754H148.763H151.263V52.7754ZM169.732 40.5735C190.841 41.8178 207.74 58.7174 208.985 79.8259H169.732V40.5735Z" fill="#D91B77" stroke="black" stroke-width="5"/>
<path d="M130.76 122.955H186.886C192.847 122.955 198.454 119.8 201.521 114.721L207.615 104.628C208.571 103.046 208.055 100.994 206.462 100.044C204.87 99.095 202.805 99.6079 201.849 101.19L195.754 111.284C193.896 114.361 190.498 116.273 186.885 116.273H130.76C128.903 116.273 127.398 117.769 127.398 119.614C127.398 121.459 128.903 122.955 130.76 122.955Z" fill="black"/>
<path d="M107.223 119.614C107.223 117.769 108.729 116.273 110.586 116.273C112.443 116.273 113.948 117.769 113.948 119.614C113.948 126.982 107.915 132.977 100.499 132.977C93.0823 132.977 87.0489 126.982 87.0489 119.614C87.0489 112.245 93.0823 106.25 100.499 106.25C102.355 106.25 103.861 107.746 103.861 109.591C103.861 111.436 102.355 112.932 100.499 112.932C96.7906 112.932 93.7737 115.929 93.7737 119.614C93.7737 123.298 96.7906 126.295 100.499 126.295C104.206 126.295 107.223 123.298 107.223 119.614Z" fill="black"/>
<path d="M248.444 116.273C246.587 116.273 245.081 117.769 245.081 119.614C245.081 123.298 242.064 126.295 238.357 126.295C234.649 126.295 231.632 123.298 231.632 119.614C231.632 115.929 234.649 112.932 238.357 112.932C240.213 112.932 241.719 111.436 241.719 109.591C241.719 107.746 240.213 106.25 238.357 106.25C230.94 106.25 224.907 112.245 224.907 119.614C224.907 126.982 230.94 132.977 238.357 132.977C245.773 132.977 251.806 126.982 251.806 119.614C251.806 117.769 250.301 116.273 248.444 116.273Z" fill="black"/>
<path fill-rule="evenodd" clip-rule="evenodd" d="M113.268 75.1363L113.324 75.1248L113.327 87.8801H195.485L208.753 89.2439C209.05 88.9131 209.402 88.5433 209.808 88.1531C211.204 86.8092 213.311 85.1512 216.078 84.0516C217.031 83.6731 218.195 83.4662 219.298 83.3338C220.457 83.1947 221.785 83.1124 223.182 83.0681C223.319 83.0638 223.456 83.0598 223.594 83.0562C226.143 82.7608 228.866 82.8241 231.646 82.8886C233.867 82.9402 236.124 82.9926 238.357 82.8637C258.751 82.8637 275.343 99.3498 275.343 119.614V129.665C277.001 129.871 278.285 131.274 278.285 132.977C278.285 134.822 276.779 136.318 274.923 136.318H254.806C250.559 140.448 244.753 143 238.356 143C231.959 143 226.153 140.448 221.906 136.318H116.948C112.701 140.448 106.895 143 100.499 143C92.4658 143 85.3631 138.978 81.1143 132.858C72.4637 130.511 66.8746 124.002 66.8746 116.273V88.7111C66.8746 83.6446 71.0229 79.5228 76.122 79.5228H78.9317L75.5693 76.1818H73.6183C68.046 76.1818 63.5122 71.677 63.5122 66.1403V62.8182C63.5122 60.9732 65.0177 59.4773 66.8746 59.4773H87.0489C88.9058 59.4773 90.4113 60.9732 90.4113 62.8182V66.1403C90.4113 70.2801 87.8765 73.8419 84.2687 75.3763L87.5352 78.622C87.8067 78.8922 88.019 79.1978 88.1783 79.5228H99.3015C104.085 79.5228 108.827 75.789 113.401 74.4091L113.268 75.1363ZM187.355 93.9484L211.137 96.2123C211.254 96.2235 211.372 96.2294 211.488 96.2294C212.72 96.2294 213.83 95.603 214.405 94.495C214.64 94.1029 217.53 89.5459 224.907 89.5459H238.357C238.415 89.5459 238.473 89.5461 238.532 89.5464C239.045 89.5783 239.53 89.6098 239.981 89.64C240.967 89.7061 241.789 89.7659 242.382 89.8108C257.172 91.7724 268.618 104.39 268.618 119.614V129.637H259.618C261.075 126.597 261.893 123.199 261.893 119.614C261.893 106.719 251.335 96.2277 238.357 96.2277C225.379 96.2277 214.82 106.719 214.82 119.614C214.82 123.199 215.638 126.597 217.095 129.637H121.76C123.217 126.597 124.035 123.199 124.035 119.614C124.035 106.719 113.477 96.2277 100.499 96.2277C87.5205 96.2277 76.9618 106.719 76.9618 119.614C76.9618 120.998 77.0904 122.351 77.3232 123.67C74.9515 121.747 73.5994 119.166 73.5994 116.273V88.7111C73.5994 87.3288 74.7308 86.2046 76.122 86.2046H99.3015C102.428 86.2046 105.54 82.9079 108.608 82.387L108.361 93.9484H187.355ZM83.6866 66.1591H70.237C70.2471 68.0033 71.7602 69.5 73.6183 69.5H80.3053C82.1634 69.5 83.6765 68.0033 83.6866 66.1591ZM100.499 102.909C91.2284 102.909 83.6866 110.403 83.6866 119.614C83.6866 128.825 91.2284 136.318 100.499 136.318C109.769 136.318 117.31 128.825 117.31 119.614C117.31 110.403 109.769 102.909 100.499 102.909ZM221.545 119.614C221.545 128.825 229.086 136.318 238.357 136.318C247.627 136.318 255.169 128.825 255.169 119.614C255.169 110.403 247.627 102.909 238.357 102.909C229.086 102.909 221.545 110.403 221.545 119.614Z" fill="black"/>
<path d="M24.7059 66.2787C28.4095 66.2787 31.4118 63.3061 31.4118 59.6393C31.4118 55.9726 28.4095 53 24.7059 53C21.0023 53 18 55.9726 18 59.6393C18 63.3061 21.0023 66.2787 24.7059 66.2787Z" fill="white"/>
<path d="M56 72.918C56 75.6313 54.3562 77.9644 52.0007 78.9944C54.4407 80.9555 56 83.9492 56 87.3033C56 93.2109 51.1629 98 45.1961 98C40.775 98 36.9742 95.3708 35.3016 91.6056C34.2046 92.3804 32.8619 92.8361 31.4118 92.8361C27.7082 92.8361 24.7059 89.8635 24.7059 86.1967C24.7059 83.3143 26.5612 80.8608 29.1541 79.9432C28.6898 78.9254 28.4314 77.7958 28.4314 76.6066C28.4314 72.1249 32.1009 68.4918 36.6275 68.4918C39.088 68.4918 41.2954 69.5652 42.7977 71.265C43.5397 68.398 46.1669 66.2787 49.2941 66.2787C52.9977 66.2787 56 69.2513 56 72.918Z" fill="white"/>
<rect width="300" height="165" fill="url(#paint4_radial)"/>
</g>
<defs>
<linearGradient id="paint0_linear" x1="0" y1="82.5" x2="300" y2="82.5" gradientUnits="userSpaceOnUse">
<stop stop-color="#00D2FF"/>
<stop offset="1" stop-color="#3A7BD5"/>
</linearGradient>
<linearGradient id="paint1_linear" x1="0" y1="82.5" x2="300" y2="82.5" gradientUnits="userSpaceOnUse">
<stop stop-color="#00D2FF"/>
<stop offset="1" stop-color="#0AC3F8"/>
</linearGradient>
<linearGradient id="paint2_linear" x1="0" y1="136" x2="300" y2="136" gradientUnits="userSpaceOnUse">
<stop stop-color="#8E9EAB"/>
<stop offset="1" stop-color="#EEF2F3"/>
</linearGradient>
<linearGradient id="paint3_linear" x1="0" y1="111" x2="300" y2="111" gradientUnits="userSpaceOnUse">
<stop stop-color="#4B79A1"/>
<stop offset="1" stop-color="#283E51"/>
</linearGradient>
<radialGradient id="paint4_radial" cx="0" cy="0" r="1" gradientUnits="userSpaceOnUse" gradientTransform="translate(150 82.5) rotate(179.822) scale(160.501 108.572)">
<stop offset="0.478393" stop-color="#F6EEBA" stop-opacity="0"/>
<stop offset="1" stop-opacity="0.1"/>
</radialGradient>
</defs>
</svg>
