<svg width="300" height="165" viewBox="0 0 300 165" fill="none" xmlns="http://www.w3.org/2000/svg">
<mask id="mask0" mask-type="alpha" maskUnits="userSpaceOnUse" x="0" y="0" width="300" height="165">
<rect width="300" height="165" fill="#C4C4C4"/>
</mask>
<g mask="url(#mask0)">
<rect width="300" height="165" fill="url(#paint0_linear)"/>
<rect y="113" width="300" height="52" fill="url(#paint1_linear)"/>
<path d="M94.7628 65.6152C94.7628 35.2227 124.636 20.9355 143.859 19.8965C170.614 19.8965 180.745 39.3789 181.784 40.1582C182.616 40.7816 197.543 76.7852 204.903 94.709L189.837 99.6445V121.205H161.523V144.324H111.128V119.127C111.128 119.127 94.7628 96.0078 94.7628 65.6152Z" fill="#F8E01E" stroke="black"/>
<path d="M192.56 54.6318C188.988 41.342 180.447 30.1853 168.479 23.1887C156.417 16.1371 142.378 14.1928 128.949 17.7126C115.52 21.2335 104.24 29.8151 97.1888 41.8778C90.1372 53.9401 88.1926 67.9791 91.7129 81.4082L91.7794 81.6625L106.633 120.004V149H165.775V126.252H195.693V101.966L210.705 98.2124L192.56 54.6318ZM186.415 94.7215V116.974H156.497V139.722H115.911V118.269L100.624 78.8077C97.8203 67.8513 99.4412 56.4091 105.199 46.5604C110.999 36.6376 120.27 29.58 131.301 26.6881C142.333 23.7961 153.874 25.3981 163.796 31.1989C173.719 36.9997 180.777 46.27 183.669 57.3017L183.75 57.6121L197.996 91.8264L186.415 94.7215Z" fill="black"/>
<path d="M170.216 88.8921C177.068 91.7028 179.378 94.7167 179.945 98.3039L179.796 98.0844C180.321 101.109 179.681 103.102 179.563 103.467C179.561 103.475 179.558 103.483 179.556 103.49C177.026 112.237 162.934 112.531 157.297 106.779C157.064 106.504 156.847 106.257 156.643 106.024C155.824 105.094 155.218 104.404 154.673 103.146L160.602 99.7028C162.205 102.16 163.66 103.49 166.287 104.079C169.837 104.522 173.433 103.293 172.656 99.4603C172.176 97.6323 169.795 96.6183 167.016 95.4352C165.01 94.5807 162.796 93.6381 160.942 92.2368C156.471 89.1902 155.405 81.8192 159.098 77.59C160.362 76.0175 162.448 74.8381 164.638 74.2976L166.922 74.006C171.344 73.9045 174.062 75.0838 176.103 77.3934C176.692 77.9798 177.126 78.5727 178.001 79.9487C175.666 81.4195 175.665 81.4196 172.316 83.6337C171.584 82.0612 170.417 81.0789 169.154 80.6857C167.21 80.0961 164.732 80.7316 164.246 82.8479C164.055 83.4867 164.1 84.0764 164.395 85.1574C165.025 86.6127 166.849 87.4069 168.774 88.2454C169.254 88.4546 169.741 88.6665 170.216 88.8921Z" fill="black"/>
<path d="M143.562 74.5695H150.844L150.831 74.753C150.831 77.0172 150.835 79.2759 150.84 81.5308C150.848 86.0294 150.857 90.513 150.831 94.9952C150.834 95.6059 150.843 96.2072 150.852 96.7981C150.907 100.252 150.956 103.355 149.545 105.957C148.402 108.315 146.215 109.839 143.678 110.579C139.781 111.463 136.059 110.923 133.289 109.252C131.43 108.122 129.988 106.346 129 104.283L134.912 100.597C134.953 100.597 135.048 100.762 135.178 100.988C135.222 101.066 135.271 101.151 135.324 101.239C136.078 102.514 136.73 103.398 138.012 104.04C139.263 104.437 142.016 104.725 143.085 102.468C143.606 101.556 143.58 99.0034 143.549 95.9531C143.541 95.1894 143.533 94.3946 143.533 93.5865C143.533 90.406 143.54 87.2377 143.547 84.0707C143.554 80.9061 143.562 77.7427 143.562 74.5695Z" fill="black"/>
<rect width="300" height="165" fill="url(#paint2_radial)"/>
</g>
<defs>
<linearGradient id="paint0_linear" x1="0" y1="82.5" x2="300" y2="82.5" gradientUnits="userSpaceOnUse">
<stop stop-color="#EC008C"/>
<stop offset="1" stop-color="#FC6767"/>
</linearGradient>
<linearGradient id="paint1_linear" x1="0" y1="139" x2="300" y2="139" gradientUnits="userSpaceOnUse">
<stop stop-color="#AA076B"/>
<stop offset="1" stop-color="#61045F"/>
</linearGradient>
<radialGradient id="paint2_radial" cx="0" cy="0" r="1" gradientUnits="userSpaceOnUse" gradientTransform="translate(150 82.5) rotate(179.822) scale(160.501 108.572)">
<stop offset="0.478393" stop-color="#F6EEBA" stop-opacity="0"/>
<stop offset="1" stop-opacity="0.1"/>
</radialGradient>
</defs>
</svg>
