<svg width="300" height="165" viewBox="0 0 300 165" fill="none" xmlns="http://www.w3.org/2000/svg">
<rect width="300" height="165" fill="url(#paint0_linear)"/>
<mask id="mask0" mask-type="alpha" maskUnits="userSpaceOnUse" x="0" y="0" width="300" height="165">
<rect width="300" height="165" fill="#C4C4C4"/>
</mask>
<g mask="url(#mask0)">
<path d="M0 0H300V165H0V0Z" fill="url(#paint1_linear)"/>
<rect y="107" width="300" height="58" fill="url(#paint2_linear)"/>
<rect width="300" height="165" fill="url(#paint3_radial)"/>
<ellipse cx="150.5" cy="153.5" rx="51.5" ry="4.5" fill="black" fill-opacity="0.34"/>
<path d="M97.9914 130.562L93.4711 126.971L92.6208 132.681L97.9914 130.562ZM79.571 111L77.1332 116.234L82.8846 115.728L79.571 111ZM93.671 129.417C87.0022 127.595 81.8725 122.148 80.4546 115.382L79.4759 115.587C80.9707 122.72 86.3767 128.461 93.4075 130.382L93.671 129.417Z" fill="black"/>
<path d="M226.87 124.435L221.156 125.264L224.731 129.798L226.87 124.435ZM223.074 126.795C215.951 131.151 206.518 130.246 200.354 124.081L199.646 124.789C206.145 131.287 216.087 132.24 223.596 127.649L223.074 126.795Z" fill="black"/>
<path d="M52.5 77.9546L53.1783 72.2211L47.8738 74.5004L52.5 77.9546ZM59.4545 52.0001L53.7209 52.6784L57.1751 57.3046L59.4545 52.0001ZM51.2025 73.6774C49.2457 67.047 51.1824 59.8192 56.1922 55.0555L55.5031 54.3308C50.2213 59.3532 48.1803 66.9701 50.2433 73.9605L51.2025 73.6774Z" fill="black"/>
<path d="M268 83L265.355 77.8679L262.233 82.7245L268 83ZM253.73 74.4206L263.944 80.9872L264.485 80.146L254.27 73.5794L253.73 74.4206Z" fill="black"/>
<path d="M97 28L98.4943 33.5768L102.577 29.4943L97 28ZM107.354 37.6464L100.536 30.8284L99.8284 31.5355L106.646 38.3536L107.354 37.6464Z" fill="black"/>
<path d="M257 49L252 46.1132V51.8868L257 49ZM241 49.5H252.5V48.5H241V49.5Z" fill="black"/>
<path d="M102.722 118.754L105.817 104.825L139.865 122.365V128.04L102.722 118.754Z" fill="url(#paint4_linear)"/>
<path d="M149.151 124.944L150.698 120.302L170.817 118.754L173.913 110.5L185.778 112.048L173.913 127.008L149.151 124.944Z" fill="url(#paint5_linear)"/>
<path d="M102.722 118.754L105.817 104.825L139.865 122.365V128.04L102.722 118.754Z" stroke="black"/>
<path d="M149.151 124.944L150.698 120.302L170.817 118.754L173.913 110.5L185.778 112.048L173.913 127.008L149.151 124.944Z" stroke="black"/>
<path d="M217.246 35.6985L245.103 66.6509C243.384 67.8546 239.532 70.262 237.881 70.262C236.23 70.262 231.003 67.8546 228.595 66.6509C227.392 67.3387 224.262 68.6112 221.373 68.1985C218.484 67.7858 217.418 66.9948 217.246 66.6509L192.484 100.698L205.381 105.341L206.929 112.564L175.976 140.937L170.302 139.905L193.516 112.564C191.624 112.564 186.603 112.357 181.651 111.532C176.698 110.706 169.958 109.812 167.206 109.468C162.392 110.5 151.421 112.564 146.056 112.564C140.69 112.564 132.815 110.5 129.548 109.468L122.325 126.492L146.056 140.937H138.317L108.913 130.619L109.944 121.333L112.524 107.921L105.817 103.794C103.238 100.698 98.0793 93.1667 98.0793 87.8017C98.0793 82.4366 101.175 76.2805 102.722 73.8731C101.347 74.389 95.5 75.5239 83.119 75.9366C70.7381 76.3493 65.9233 69.9181 65.0635 66.6509H169.786H171.849C173.741 63.7276 178.143 57.1588 180.619 54.2699C183.714 50.6588 188.357 48.0794 192.484 44.4683C195.786 41.5794 207.96 37.4181 213.635 35.6985V43.4366L217.246 41.889V35.6985Z" fill="url(#paint6_linear)"/>
<path d="M166.175 63.5557H123.873C123.873 71.1218 128.206 86.2541 145.54 86.2541C162.873 86.2541 166.518 71.1218 166.175 63.5557Z" fill="url(#paint7_linear)" stroke="black"/>
<path d="M149.151 82.643L139.865 100.699H145.54L163.079 81.0954L141.413 62.5239H122.841L149.151 82.643Z" fill="url(#paint8_linear)" stroke="black"/>
<circle cx="150.698" cy="24.3494" r="10.3175" fill="#F6D4D4"/>
<path d="M150.698 14.032C145 14.032 140.381 18.6513 140.381 24.3494H161.016C161.016 18.6513 156.397 14.032 150.698 14.032Z" fill="#EF0459"/>
<path d="M109.429 51.6907L125.421 35.6986H158.437L168.238 63.0399L153.278 43.9526L141.413 63.0399H122.841L138.317 42.405L125.421 43.9526L116.135 51.6907H109.429Z" fill="#EF0459"/>
<path d="M246.324 65.5312L217.914 34.0098C217.547 33.5947 216.946 33.4563 216.426 33.6527C215.911 33.8536 215.57 34.3579 215.57 34.9159L215.637 40.9997L214.992 41.3567V34.9025C214.992 34.474 214.79 34.0678 214.44 33.8179C214.091 33.5679 213.642 33.5009 213.226 33.6304C211.809 34.0991 178.957 45.1061 171.238 65.2053L160.852 35.2551C160.664 34.715 160.158 34.3535 159.584 34.3535L157.123 34.3446C159.315 32.6082 160.754 30.006 160.897 27.0467H161.475C162.219 27.0467 162.825 26.4486 162.825 25.7076C162.825 25.2791 162.592 24.9444 162.282 24.6989C162.309 24.6007 162.39 24.5337 162.39 24.4266C162.39 18.1241 157.253 13 150.919 13C144.585 13 139.449 18.1241 139.449 24.4266C139.449 24.5337 139.538 24.6007 139.561 24.6989C139.247 24.9444 139.018 25.2791 139.018 25.7076C139.018 26.4486 139.619 27.0467 140.363 27.0467H140.946C141.089 29.9837 142.506 32.5636 144.662 34.2999L126.1 34.2285C126.1 34.2285 126.1 34.2285 126.095 34.2285C125.737 34.2285 125.396 34.3669 125.145 34.6213L108.17 51.5246C107.784 51.904 107.668 52.4843 107.878 52.9842C108.085 53.4841 108.578 53.81 109.12 53.81H116.193C116.53 53.81 116.852 53.685 117.103 53.4573L126.642 44.7713L136.656 44.0839L121.774 61.4604C121.532 61.7416 121.42 62.1121 121.46 62.4781C121.474 62.6165 121.604 62.6968 121.658 62.8218C121.559 63.0093 121.416 63.1744 121.416 63.4021C121.416 64.0984 121.563 64.7545 121.622 65.4374L120.474 65.366C119.918 65.366 119.434 65.4419 118.901 65.4597H64.3447C63.6007 65.4597 63 66.0578 63 66.7988C63 68.5306 63.7575 70.1464 65.2502 71.5926C68.9796 75.2125 77.3529 77.547 86.3806 77.547C86.8288 77.547 87.2726 77.5425 87.7208 77.5291C91.5847 77.4264 96.1299 76.8685 100.07 76.0472C98.918 78.2254 98.0126 80.7071 97.403 83.5638C95.9237 90.5135 98.5415 99.1593 104.463 104.48C104.355 104.618 104.194 104.725 104.154 104.917L101.114 118.317C100.958 119.004 101.356 119.687 102.029 119.897L108.672 121.946L107.206 130.547C107.099 131.198 107.48 131.837 108.107 132.047L138.839 142.197C138.978 142.241 139.121 142.264 139.265 142.264H147.046C147.656 142.264 148.189 141.857 148.346 141.264C148.503 140.679 148.243 140.059 147.714 139.764L123.527 125.918C123.639 125.708 123.778 125.441 123.912 125.177L139.623 129.734C139.744 129.779 139.874 129.797 140 129.797C140.255 129.797 140.506 129.717 140.731 129.583C141.058 129.368 141.277 129.029 141.331 128.645L142.16 122.901C142.246 122.298 141.923 121.713 141.367 121.481L128.408 115.884C128.368 115.866 128.323 115.893 128.283 115.884C128.91 114.411 129.538 112.858 130.134 111.264C132.523 111.97 138.991 113.617 147.822 113.617C153.743 113.617 160.695 112.867 168.1 110.573C168.195 110.546 168.23 110.443 168.329 110.39C169.356 110.756 170.508 111.086 171.722 111.394L170.413 117.062L150.103 118.473C149.512 118.518 149.014 118.937 148.889 119.508L147.625 125.088C147.539 125.463 147.62 125.865 147.849 126.177C148.082 126.485 148.436 126.681 148.821 126.717L174.43 128.855C174.466 128.855 174.51 128.855 174.537 128.855C174.972 128.855 175.376 128.654 175.627 128.306L186.192 113.8C186.228 113.751 186.201 113.701 186.228 113.648C187.953 113.809 189.527 113.925 190.741 114.009L168.768 139.576C168.468 139.942 168.365 140.433 168.517 140.884C168.674 141.34 169.051 141.67 169.521 141.764L175.465 142.973C175.559 142.991 175.644 143 175.743 143C176.075 143 176.406 142.875 176.662 142.634L207.681 113.438C207.963 113.161 208.129 112.773 208.093 112.371L207.591 105.118C207.551 104.56 207.165 104.083 206.627 103.926L194.583 100.44L211.594 75.8374C219.918 74.7305 226.816 72.3291 231.16 69.1555C233.446 70.258 236.395 71.4989 238.229 71.4989C238.323 71.4989 238.404 71.4989 238.498 71.49C240.73 71.3248 245.221 68.1512 246.095 67.513C246.405 67.2898 246.602 66.9506 246.642 66.5712C246.683 66.1918 246.58 65.8124 246.324 65.5312ZM212.302 36.8039V42.852L174.802 63.719C182.512 48.7573 205.708 39.2544 212.302 36.8039ZM145.975 64.7411H165.828C165.541 69.4189 163.64 73.7619 160.512 77.2568L145.975 64.7411ZM143.725 62.063L154.142 45.7756L165.559 62.063H143.725ZM153.057 33.5188V27.0467H158.212C158.006 30.1131 155.908 32.6484 153.057 33.5188ZM150.924 15.6826C155.747 15.6826 159.664 19.5792 159.7 24.373H142.147C142.183 19.5748 146.101 15.6826 150.924 15.6826ZM143.64 27.0467H150.368V33.8134C146.755 33.5367 143.886 30.6577 143.64 27.0467ZM140.784 43.3966C141.134 42.9859 141.206 42.4057 140.964 41.9236C140.717 41.4415 140.206 41.1514 139.668 41.1871L125.997 42.1245C125.692 42.1468 125.405 42.2673 125.181 42.4726L115.678 51.1229H112.374L126.66 36.8977L158.625 37.0182L165.788 57.6888L155.204 42.5887C154.944 42.2227 154.46 42.0352 154.075 42.0173C153.627 42.0263 153.21 42.2584 152.968 42.6378L140.538 62.0719C140.179 62.6299 140.287 63.3708 140.793 63.8038L161.547 81.6712L144.42 99.7619H141.192L151.013 83.1888C151.363 82.5952 151.211 81.8409 150.664 81.4302L124.764 62.0987L140.784 43.3966ZM147.239 84.0637C146.477 84.1797 145.872 84.2869 144.993 84.2869C134.065 84.2869 125.167 75.8151 124.284 65.1071L148.077 82.8675L147.382 84.0548L147.239 84.0637ZM87.6581 74.851C78.9845 75.1188 70.5081 72.9451 67.1328 69.6733C66.6129 69.1734 66.2363 68.6556 65.9943 68.1334H107.811C105.61 69.3118 103.737 70.8695 102.186 72.8112C98.0036 73.9136 92.2167 74.7349 87.6581 74.851ZM104.019 117.701L106.641 106.122C107.977 107.028 109.398 107.823 110.989 108.372L109.134 119.267L104.019 117.701ZM127.35 118.335L139.368 123.521L138.906 126.73L125.149 122.731C125.786 121.432 126.503 119.924 127.261 118.232C127.297 118.263 127.306 118.312 127.35 118.335ZM133.653 92.3033C133.514 91.5803 132.819 91.1026 132.079 91.241C131.349 91.3794 130.869 92.0802 131.008 92.8122C132.936 103.002 120.685 125.574 120.559 125.802C120.21 126.445 120.438 127.239 121.07 127.605L142.012 139.585H139.489L110.057 129.864L113.836 107.667C113.952 106.997 113.531 106.332 112.863 106.149C102.603 103.368 98.4832 91.4508 100.043 84.1262C102.262 73.7128 108.282 68.6333 118.731 68.1379H120.107C120.196 68.1379 120.25 68.0575 120.335 68.0441C120.353 68.0441 120.371 68.0396 120.389 68.0396L121.868 68.1334C121.877 68.1334 121.886 68.1245 121.895 68.1245C124.087 78.8592 133.608 86.965 144.989 86.965C145.244 86.965 145.442 86.9382 145.666 86.9293L137.664 100.427C137.418 100.842 137.413 101.351 137.656 101.775C137.898 102.186 138.341 102.44 138.825 102.44H143.649V110.742C137.508 110.358 132.994 109.26 131.057 108.711C133.083 102.81 134.477 96.6731 133.653 92.3033ZM173.914 126.123L150.596 124.168L151.3 121.062L171.606 119.647C172.202 119.611 172.686 119.183 172.821 118.62L174.354 111.987C177.276 112.581 180.365 113.01 183.229 113.34L173.914 126.123ZM195.681 94.1378C196.452 90.393 196.497 85.8223 193.951 81.7248C193.565 81.091 192.736 80.8901 192.1 81.2829C191.468 81.6712 191.266 82.4925 191.66 83.1219C196.179 90.4331 190.679 100.253 190.629 100.351C190.428 100.708 190.396 101.141 190.553 101.516C190.706 101.9 191.028 102.181 191.423 102.302L204.973 106.23L205.372 111.916L175.331 140.197L172.305 139.581L194.565 113.697C194.897 113.304 194.986 112.764 194.776 112.291C194.574 111.827 194.121 111.51 193.597 111.483C193.453 111.483 182.238 110.983 173.851 109.153C173.771 109.117 173.744 109.037 173.659 109.019C173.574 108.997 173.52 109.055 173.43 109.055C170.893 108.479 168.625 107.774 167.056 106.917C161.951 104.109 158.997 101.887 156.979 97.5257C156.67 96.8561 155.872 96.5571 155.2 96.874C154.523 97.1775 154.227 97.972 154.541 98.6415C156.899 103.757 160.561 106.332 164.783 108.711C158.024 110.497 151.695 110.997 146.329 110.872V101.65L164.447 82.5059C164.703 82.2426 164.828 81.8855 164.815 81.5195C164.797 81.1535 164.627 80.8142 164.349 80.5777L162.52 79.0021C165.227 75.9624 167.105 72.3737 167.962 68.4637C172.247 73.8333 183.067 76.5025 201.029 76.5025C203.449 76.5025 205.794 76.4043 208.062 76.2124L195.681 94.1378ZM227.144 68.544C223.791 70.3562 219.219 71.8694 213.696 72.8067L216.856 68.236C220.77 70.0348 224.728 69.3296 227.144 68.544ZM238.314 68.8074C237.368 68.8431 235.423 68.1334 233.437 67.2318C235.208 65.3928 236.167 63.3619 236.167 61.2149C236.167 60.474 235.566 59.8759 234.822 59.8759C234.078 59.8759 233.477 60.474 233.477 61.2149C233.477 62.8173 232.549 64.451 230.86 65.9864C230.38 65.732 229.905 65.4865 229.479 65.25C229.071 65.0223 228.573 65.0223 228.161 65.25C227.771 65.4687 218.587 70.4589 212.728 60.7998C212.342 60.166 211.513 59.9607 210.881 60.3445C210.249 60.7284 210.038 61.5497 210.419 62.1835C211.679 64.2591 213.087 65.7499 214.53 66.839L210.065 73.3066C207.237 73.6324 204.225 73.8244 201.02 73.8244C185.699 73.8244 175.752 71.9051 171.252 68.1334H171.987H171.996C172.014 68.1334 172.023 68.1245 172.032 68.1245C172.256 68.12 172.466 68.0709 172.659 67.9638L217.623 42.9502C218.053 42.7136 218.318 42.2584 218.309 41.7674L218.273 38.4376L243.28 66.1873C241.308 67.5219 239.121 68.7494 238.314 68.8074ZM221.688 50.6766C221.975 50.0651 222.917 49.9803 223.795 50.4802C224.656 50.9845 225.126 51.8906 224.831 52.5021C224.535 53.1181 223.589 53.2029 222.715 52.6985C221.854 52.1986 221.397 51.2925 221.688 50.6766Z" fill="black"/>
</g>
<defs>
<linearGradient id="paint0_linear" x1="0" y1="82.5" x2="300" y2="82.5" gradientUnits="userSpaceOnUse">
<stop stop-color="#00D2FF"/>
<stop offset="1" stop-color="#3A7BD5"/>
</linearGradient>
<linearGradient id="paint1_linear" x1="0" y1="82.5" x2="300" y2="82.5" gradientUnits="userSpaceOnUse">
<stop stop-color="#00D2FF"/>
<stop offset="1" stop-color="#3A7BD5"/>
</linearGradient>
<linearGradient id="paint2_linear" x1="0" y1="136" x2="300" y2="136" gradientUnits="userSpaceOnUse">
<stop stop-color="#76B852"/>
<stop offset="1" stop-color="#8DC26F"/>
</linearGradient>
<radialGradient id="paint3_radial" cx="0" cy="0" r="1" gradientUnits="userSpaceOnUse" gradientTransform="translate(150 82.5) rotate(179.822) scale(160.501 108.572)">
<stop offset="0.478393" stop-color="#F6EEBA" stop-opacity="0"/>
<stop offset="1" stop-opacity="0.1"/>
</radialGradient>
<linearGradient id="paint4_linear" x1="102.722" y1="116.433" x2="185.778" y2="116.433" gradientUnits="userSpaceOnUse">
<stop stop-color="#3C3225"/>
<stop offset="1" stop-color="#583A0F"/>
</linearGradient>
<linearGradient id="paint5_linear" x1="102.722" y1="116.433" x2="185.778" y2="116.433" gradientUnits="userSpaceOnUse">
<stop stop-color="#3C3225"/>
<stop offset="1" stop-color="#583A0F"/>
</linearGradient>
<linearGradient id="paint6_linear" x1="65.0635" y1="88.3175" x2="245.103" y2="88.3175" gradientUnits="userSpaceOnUse">
<stop stop-color="#A1473D"/>
<stop offset="1" stop-color="#B4493E"/>
</linearGradient>
<linearGradient id="paint7_linear" x1="123.873" y1="74.9049" x2="166.196" y2="74.9049" gradientUnits="userSpaceOnUse">
<stop stop-color="#554023"/>
<stop offset="1" stop-color="#C99846"/>
</linearGradient>
<linearGradient id="paint8_linear" x1="122.841" y1="81.6112" x2="163.079" y2="81.6112" gradientUnits="userSpaceOnUse">
<stop stop-color="#152331"/>
<stop offset="1"/>
</linearGradient>
</defs>
</svg>
