<svg width="300" height="165" viewBox="0 0 300 165" fill="none" xmlns="http://www.w3.org/2000/svg">
<mask id="mask0" mask-type="alpha" maskUnits="userSpaceOnUse" x="0" y="0" width="300" height="165">
<rect width="300" height="165" fill="#C4C4C4"/>
</mask>
<g mask="url(#mask0)">
<rect width="300" height="165" fill="url(#paint0_linear)"/>
<rect y="112" width="300" height="53" fill="url(#paint1_linear)"/>
<rect x="101" y="117" width="98" height="40" fill="white"/>
<path fill-rule="evenodd" clip-rule="evenodd" d="M163.788 122.246H106.632C105.469 122.246 104.526 123.19 104.526 124.355V151.344C104.526 152.508 105.469 153.452 106.632 153.452H163.788C164.951 153.452 165.894 152.508 165.894 151.344V124.355C165.894 123.191 164.951 122.246 163.788 122.246ZM161.683 131.243H157.276V126.463H161.683V131.243ZM147.487 131.243V126.463H153.065V131.243H147.487ZM143.066 140.239V135.46H148.645V140.239H143.066ZM123.488 140.239V135.46H129.067V140.239H123.488ZM119.278 135.46V140.239H114.331V135.46H119.278ZM133.277 135.46H138.855V140.239H133.277V135.46ZM143.276 131.243H137.698V126.463H143.276V131.243ZM133.488 131.243H127.909V126.463H133.488V131.243ZM123.698 131.243H118.12V126.463H123.698V131.243ZM110.12 140.239H108.737V135.46H110.12V140.239ZM123.698 144.456V149.235H118.12V144.456H123.698ZM127.909 144.456H143.276V149.235H127.909V144.456ZM147.487 144.456H153.065V149.235H147.487V144.456ZM152.855 140.239V135.46H161.683V140.239H152.855ZM113.909 126.463V131.243H108.737V126.463H113.909ZM108.737 144.456H113.909V149.235H108.737V144.456ZM157.276 149.235V144.456H161.683V149.235H157.276Z" fill="black"/>
<path fill-rule="evenodd" clip-rule="evenodd" d="M195.329 115.71H114.015V112.726C114.015 111.273 115.195 110.091 116.646 110.091H173.801C177.574 110.091 180.643 107.017 180.643 103.238C180.643 96.6799 176.432 95.8404 176.432 103.238C176.432 104.692 175.252 105.874 173.801 105.874H116.646C112.874 105.874 109.804 108.948 109.804 112.726V115.71H104.17C100.768 115.71 98 118.482 98 121.89V153.809C98 157.217 100.768 159.989 104.17 159.989H195.33C198.732 159.989 201.5 157.217 201.5 153.809V121.89C201.5 118.482 198.732 115.71 195.329 115.71ZM197.289 153.809C197.289 154.891 196.41 155.772 195.329 155.772H104.17C103.09 155.772 102.211 154.891 102.211 153.809V121.89C102.211 120.807 103.09 119.927 104.17 119.927H195.33C196.41 119.927 197.289 120.808 197.289 121.89L197.289 153.809Z" fill="black"/>
<path fill-rule="evenodd" clip-rule="evenodd" d="M173.53 122H190.47C191.867 122 193 122.938 193 124.095V150.905C193 152.062 191.867 153 190.47 153H173.53C172.133 153 171 152.062 171 150.905V124.095C171 122.938 172.133 122 173.53 122ZM184.411 130.937H189V126.189H184.411V130.937ZM189 135.126H184.411V139.874H189V135.126ZM175 139.874H179.5V135.126H175V139.874ZM179.5 130.937V126.189H175V130.937H179.5ZM179.5 144.063H175V148.811H179.5V144.063ZM184.411 144.063V148.811H189V144.063H184.411Z" fill="black"/>
<path d="M103 76.0596V86.0743C103 95.4077 110.566 102.974 119.9 102.974H182.492C191.825 102.974 199.391 95.4077 199.391 86.0743V76.0596C199.391 85.3931 191.825 92.9593 182.492 92.9593H119.9C110.566 92.9593 103 85.3931 103 76.0596Z" fill="#115A91"/>
<path d="M108.425 23.8999C108.425 17.4471 113.656 12.2161 120.108 12.2161H182.7C189.153 12.2161 194.384 17.4471 194.384 23.8999V77.7288C194.384 84.1816 189.153 89.4126 182.7 89.4126H120.108C113.656 89.4126 108.425 84.1816 108.425 77.7288V23.8999Z" fill="white"/>
<path fill-rule="evenodd" clip-rule="evenodd" d="M103.209 23.8998C103.209 14.5663 110.775 7 120.108 7H182.7C192.034 7 199.6 14.5663 199.6 23.8998V77.7287C199.6 87.0622 192.034 94.6285 182.7 94.6285H120.108C110.775 94.6285 103.209 87.0622 103.209 77.7287V23.8998ZM120.108 17.432C116.536 17.432 113.641 20.3277 113.641 23.8998V77.7287C113.641 81.3008 116.536 84.1965 120.108 84.1965H182.7C186.272 84.1965 189.168 81.3008 189.168 77.7287V23.8998C189.168 20.3277 186.272 17.432 182.7 17.432H120.108Z" fill="url(#paint2_linear)"/>
<path d="M148.066 25.1519H121.36V76.0598H148.066V64.7933H133.044V36.4184H148.066V25.1519Z" fill="#4D4D4D"/>
<path d="M154.743 25.1519H181.031V76.0598H154.743V64.7933H169.53V36.4184H154.743V25.1519Z" fill="#4D4D4D"/>
<path d="M236 137C236 146.389 229.956 154 222.5 154C215.044 154 209 146.389 209 137C209 127.611 215.044 120 222.5 120C229.956 120 236 127.611 236 137Z" fill="white"/>
<path fill-rule="evenodd" clip-rule="evenodd" d="M222.5 150C226.936 150 232 145.089 232 137C232 128.911 226.936 124 222.5 124C218.064 124 213 128.911 213 137C213 145.089 218.064 150 222.5 150ZM222.5 154C229.956 154 236 146.389 236 137C236 127.611 229.956 120 222.5 120C215.044 120 209 127.611 209 137C209 146.389 215.044 154 222.5 154Z" fill="black"/>
<path fill-rule="evenodd" clip-rule="evenodd" d="M232 135H212V133H232V135Z" fill="black"/>
<path fill-rule="evenodd" clip-rule="evenodd" d="M221 134L221 123L223 123L223 134L221 134Z" fill="black"/>
<rect width="300" height="165" fill="url(#paint3_radial)"/>
</g>
<defs>
<linearGradient id="paint0_linear" x1="0" y1="82.5" x2="300" y2="82.5" gradientUnits="userSpaceOnUse">
<stop stop-color="#F09819"/>
<stop offset="1" stop-color="#EDDE5D"/>
</linearGradient>
<linearGradient id="paint1_linear" x1="0" y1="138.5" x2="300" y2="138.5" gradientUnits="userSpaceOnUse">
<stop stop-color="#4B79A1"/>
<stop offset="1" stop-color="#283E51"/>
</linearGradient>
<linearGradient id="paint2_linear" x1="154.534" y1="7.20864" x2="154.951" y2="94.8371" gradientUnits="userSpaceOnUse">
<stop offset="0.4288" stop-color="#29ABE2"/>
<stop offset="0.682831" stop-color="#23A2DC"/>
<stop offset="0.940955" stop-color="#097EC5"/>
</linearGradient>
<radialGradient id="paint3_radial" cx="0" cy="0" r="1" gradientUnits="userSpaceOnUse" gradientTransform="translate(150 82.5) rotate(179.822) scale(160.501 108.572)">
<stop offset="0.478393" stop-color="#F6EEBA" stop-opacity="0"/>
<stop offset="1" stop-opacity="0.1"/>
</radialGradient>
</defs>
</svg>
