<svg width="300" height="165" viewBox="0 0 300 165" fill="none" xmlns="http://www.w3.org/2000/svg">
<mask id="mask0" mask-type="alpha" maskUnits="userSpaceOnUse" x="0" y="0" width="300" height="165">
<rect width="300" height="165" fill="#C4C4C4"/>
</mask>
<g mask="url(#mask0)">
<rect width="300" height="165" fill="url(#paint0_linear)"/>
<path d="M212 88.5L241 60L280 93.5L245 127L238 120L190.5 112C190 112.833 188.6 115 187 117C185.4 119 181.333 119.833 179.5 120V97C181.167 97.1667 185 97.8 187 99C189 100.2 191.167 103.167 192 104.5H225.5L212 88.5Z" fill="#D6D6C7" stroke="black"/>
<path d="M281.117 89.2816L271.043 80.327C273.256 79.4354 275.289 78.1069 276.995 76.4012C283.94 69.4557 283.94 58.155 276.995 51.2092C270.049 44.2638 258.749 44.2634 251.802 51.2092C249.583 53.4283 248.014 56.1631 247.208 59.1404L242.931 55.3388C241.818 54.3495 240.126 54.3991 239.073 55.452L209.373 85.1521C208.32 86.205 208.271 87.8965 209.26 89.0096L219.634 100.68L191.932 99.3611C189.396 94.5671 184.271 91.4204 178.813 91.4204C177.259 91.4204 176 92.6795 176 94.2331V118.235C176 119.788 177.259 121.047 178.813 121.047C182.617 121.047 186.362 119.537 189.087 116.904C190.047 115.977 190.861 114.936 191.524 113.817L237.099 120.328L243.203 127.195C244.263 128.387 246.166 128.443 247.294 127.315L281.237 93.3716C282.365 92.2444 282.308 90.3413 281.117 89.2816ZM185.178 112.859C184.176 113.827 182.95 114.55 181.625 114.977V97.5153C184.108 98.3513 186.252 100.238 187.28 102.661C188.727 106.071 187.863 110.264 185.178 112.859ZM252.224 63.214C252.37 60.1844 253.633 57.3342 255.78 55.187C260.531 50.4348 268.264 50.4344 273.017 55.187C277.769 59.9392 277.769 67.6719 273.017 72.4234C271.105 74.3354 268.7 75.5245 266.041 75.8811L252.183 63.5629C252.203 63.4489 252.218 63.3329 252.224 63.214ZM215.226 87.2547L241.176 61.3053L250.442 69.5414L223.462 96.5204L215.226 87.2547ZM193.445 108.41C193.611 107.308 193.655 106.188 193.571 105.071L224.861 106.561L225.1 106.83L231.313 113.819L193.445 108.41ZM245.426 121.229L235.193 109.717L250.513 94.3972C251.612 93.2987 251.612 91.5177 250.513 90.4198C249.414 89.3213 247.634 89.3213 246.535 90.4198L231.449 105.506L227.206 100.733L254.653 73.286L259.426 77.5291L255.223 81.7323C254.124 82.8308 254.124 84.6118 255.223 85.7097C256.322 86.8082 258.102 86.8082 259.201 85.7097L263.638 81.272L275.15 91.5049L245.426 121.229Z" fill="black"/>
<path d="M163.739 96.3684C164.922 95.6772 166.499 95.9868 167.261 97.0608C168.023 98.135 167.681 99.5664 166.498 100.258C164.302 101.542 162.16 102.953 160.131 104.45C159.659 104.799 159.09 104.968 158.525 104.968C157.413 104.968 156.402 104.289 156.083 103.322C155.789 102.433 156.123 101.446 156.916 100.86C159.089 99.2554 161.385 97.7444 163.739 96.3684Z" fill="#36C5F0"/>
<path d="M154.282 105.983C153.279 105.087 151.666 105.098 150.679 106.009C148.712 107.823 146.836 109.754 145.105 111.75C144.234 112.754 144.424 114.208 145.53 114.999C146.621 115.78 148.25 115.603 149.109 114.613C150.724 112.751 152.475 110.948 154.311 109.254C155.298 108.344 155.285 106.879 154.282 105.983Z" fill="#36C5F0"/>
<path d="M169.501 108.212C168.65 107.194 167.053 106.994 165.931 107.767C163.684 109.313 161.528 111.01 159.524 112.809C158.523 113.708 158.514 115.173 159.503 116.081C160.002 116.538 160.658 116.768 161.315 116.768C161.963 116.768 162.611 116.545 163.107 116.099C164.954 114.441 166.939 112.878 169.009 111.454C170.131 110.682 170.351 109.23 169.501 108.212Z" fill="#36C5F0"/>
<path d="M153.897 118.57C154.759 117.56 156.361 117.377 157.472 118.16C158.584 118.944 158.786 120.397 157.923 121.406C156.33 123.271 154.858 125.248 153.549 127.284C152.803 128.444 151.069 128.781 149.865 127.998C148.808 127.312 148.492 125.97 149.147 124.952C150.568 122.741 152.166 120.594 153.897 118.57Z" fill="#36C5F0"/>
<path d="M166.621 119.452C167.62 118.552 169.233 118.557 170.225 119.465C171.216 120.372 171.21 121.837 170.211 122.736C168.38 124.385 166.68 126.178 165.158 128.065C164.262 129.174 162.441 129.322 161.343 128.371C160.429 127.579 160.299 126.256 161.046 125.331C162.725 123.249 164.601 121.271 166.621 119.452Z" fill="#36C5F0"/>
<path d="M140.262 118.016C141.005 116.932 142.576 116.599 143.771 117.273C144.966 117.949 145.333 119.375 144.59 120.46C143.208 122.477 141.938 124.585 140.813 126.725C140.215 127.863 138.67 128.36 137.416 127.817C136.146 127.267 135.607 125.886 136.213 124.733C137.419 122.438 138.781 120.179 140.262 118.016Z" fill="#36C5F0"/>
<path d="M135.63 131.493C134.308 131.123 132.862 131.82 132.398 133.05C131.475 135.503 130.69 138.022 130.065 140.538C129.751 141.802 130.603 143.015 131.968 143.247C133.315 143.476 134.697 142.624 135.007 141.377C135.59 139.031 136.322 136.681 137.184 134.393C137.647 133.162 136.951 131.864 135.63 131.493Z" fill="#36C5F0"/>
<path d="M144.561 132.597C145.159 131.41 146.671 130.852 147.937 131.348C149.203 131.844 149.745 133.207 149.147 134.393C148.044 136.583 147.085 138.854 146.298 141.143C145.85 142.447 144.246 143.188 142.89 142.714C141.701 142.299 141.075 141.071 141.468 139.926C142.321 137.441 143.362 134.975 144.561 132.597Z" fill="#36C5F0"/>
<path d="M156.083 133.05C156.679 131.845 158.181 131.255 159.437 131.733C160.693 132.21 161.228 133.574 160.632 134.778C159.538 136.987 158.62 139.28 157.901 141.595C157.478 142.957 155.84 143.767 154.468 143.288C153.326 142.889 152.718 141.707 153.071 140.571C153.863 138.017 154.877 135.487 156.083 133.05Z" fill="#36C5F0"/>
<path d="M130.5 147C129.119 147 128 148.119 128 149.5V155.5C128 156.881 129.119 158 130.5 158C131.881 158 133 156.881 133 155.5V149.5C133 148.119 131.881 147 130.5 147Z" fill="#36C5F0"/>
<path d="M140 149.5C140 148.119 141.119 147 142.5 147C143.881 147 145 148.119 145 149.5V155.5C145 156.881 143.881 158 142.5 158C141.119 158 140 156.881 140 155.5V149.5Z" fill="#36C5F0"/>
<path d="M154.5 147C153.119 147 152 148.119 152 149.5V155.5C152 156.881 153.119 158 154.5 158C155.881 158 157 156.881 157 155.5V149.5C157 148.119 155.881 147 154.5 147Z" fill="#36C5F0"/>
<path d="M102.144 79.4836C102.144 79.4836 88.5058 106.792 61.1979 79.4836C88.5058 52.2063 102.144 79.4836 102.144 79.4836Z" fill="#23A24D"/>
<path d="M102.144 95.2321C102.144 95.2321 115.783 67.9242 143.091 95.2321C115.783 122.54 102.144 95.2321 102.144 95.2321Z" fill="#23A24D"/>
<path d="M102.144 31.01C102.144 31.01 120.003 -4.67685 155.69 31.01C120.003 66.7277 102.144 31.01 102.144 31.01Z" fill="#43B05C"/>
<path d="M102.144 31.0101C102.144 31.0101 84.2858 66.7275 48.5989 31.0101C84.2858 -4.67642 102.144 31.0101 102.144 31.0101Z" fill="#43B05C"/>
<path d="M133.642 161.85H70.6471C70.6471 144.465 84.7595 130.353 102.144 130.353C119.529 130.353 133.642 144.465 133.642 161.85Z" fill="#A58763"/>
<path d="M91.1204 149.252H84.8209V155.551H91.1204V149.252Z" fill="#231F20"/>
<path d="M97.4198 139.802H91.1204V146.102H97.4198V139.802Z" fill="#231F20"/>
<path d="M106.869 149.252H100.57V155.551H106.869V149.252Z" fill="#231F20"/>
<path d="M113.169 139.802H106.869V146.102H113.169V139.802Z" fill="#231F20"/>
<path d="M119.468 149.252H113.169V155.551H119.468V149.252Z" fill="#231F20"/>
<path d="M136.647 158.701C135.144 142.105 121.89 128.851 105.294 127.348V104.338C108.758 107.538 113.752 110.519 120.339 110.519C128.248 110.519 136.653 106.125 145.319 97.4596C146.548 96.2296 146.548 94.2352 145.319 93.0049C136.653 84.3394 128.249 79.9455 120.339 79.9455C113.752 79.9455 108.759 82.9267 105.294 86.1275V40.6091C109.69 45.2108 116.54 50.0334 125.946 50.0346H125.95C136.026 50.0346 146.782 44.3831 157.918 33.2368C159.147 32.0065 159.147 30.013 157.917 28.7831C146.781 17.6465 136.024 12 125.947 12C113.871 12 106.009 19.938 102.144 25.1593C98.2791 19.938 90.4177 12 78.3419 12C68.2649 12 57.5083 17.6465 46.3718 28.7831C45.1421 30.0127 45.1418 32.0062 46.3708 33.2368C57.5073 44.3831 68.2643 50.0346 78.3419 50.0346C87.7489 50.0346 94.599 45.2118 98.9947 40.61V70.3857C95.5306 67.1887 90.537 64.2107 83.9503 64.2107C76.0413 64.2107 67.6372 68.5995 58.9716 77.255C58.3804 77.8455 58.0482 78.6468 58.0478 79.4825C58.0475 80.3181 58.3795 81.1197 58.9704 81.7106C67.6363 90.3761 76.0404 94.77 83.9503 94.77C90.5364 94.77 95.5303 91.7888 98.9947 88.588V127.348C82.3991 128.85 69.1447 142.105 67.6419 158.701H0V165H300V158.701L136.647 158.701ZM120.339 86.2453C125.867 86.2453 131.977 89.2662 138.533 95.2324C131.977 101.199 125.867 104.22 120.339 104.22C114.91 104.22 110.856 101.176 108.276 98.3821H130.966V92.0827H108.278C110.858 89.2879 114.912 86.2453 120.339 86.2453ZM125.947 18.2995C133.643 18.2995 142.115 22.5737 151.16 31.0112C142.114 39.4572 133.644 43.7352 125.95 43.7348H125.947C117.421 43.7336 111.396 38.2902 108.051 34.16H139.815V27.8605H108.054C111.401 23.7325 117.423 18.2995 125.947 18.2995ZM78.3419 43.7352C70.6461 43.7352 62.1746 39.4575 53.1292 31.0115C62.1743 22.5737 70.6461 18.2995 78.3419 18.2995C86.8676 18.2995 92.8902 23.734 96.2359 27.8605H64.4739V34.16H96.2626C92.9353 38.2912 86.9243 43.7352 78.3419 43.7352ZM83.9503 88.4709C78.4225 88.4709 72.3127 85.4506 65.7574 79.485C72.3124 73.5269 78.4222 70.5104 83.9503 70.5104C89.3751 70.5104 93.4272 73.5458 96.0069 76.334H73.3231V82.6335H96.0113C93.431 85.4282 89.377 88.4709 83.9503 88.4709ZM102.144 133.503C116.711 133.503 128.744 144.547 130.316 158.701H73.9729C75.5446 144.547 87.5782 133.503 102.144 133.503Z" fill="#231F20"/>
<rect width="300" height="165" fill="url(#paint1_radial)"/>
</g>
<defs>
<linearGradient id="paint0_linear" x1="0" y1="82.5" x2="300" y2="82.5" gradientUnits="userSpaceOnUse">
<stop stop-color="#0052D4"/>
<stop offset="0.5" stop-color="#4364F7"/>
<stop offset="1" stop-color="#6FB1FC"/>
</linearGradient>
<radialGradient id="paint1_radial" cx="0" cy="0" r="1" gradientUnits="userSpaceOnUse" gradientTransform="translate(150 82.5) rotate(179.822) scale(160.501 108.572)">
<stop offset="0.478393" stop-color="#F6EEBA" stop-opacity="0"/>
<stop offset="1" stop-opacity="0.1"/>
</radialGradient>
</defs>
</svg>
