<svg width="300" height="165" viewBox="0 0 300 165" fill="none" xmlns="http://www.w3.org/2000/svg">
<rect width="300" height="165" fill="url(#paint0_linear)"/>
<mask id="mask0" mask-type="alpha" maskUnits="userSpaceOnUse" x="0" y="0" width="300" height="165">
<rect width="300" height="165" fill="#C4C4C4"/>
</mask>
<g mask="url(#mask0)">
<rect width="300" height="165" fill="url(#paint1_linear)"/>
<path d="M229.233 39.6729H136C120.686 43.8015 89.7886 53.0948 88.7077 57.2385C87.3565 62.4181 87.8069 98.6754 101.769 98.6754C115.732 98.6754 126.091 109.26 133.072 116.241C138.657 121.826 141.855 135.233 142.756 141.238H216.171C218.648 140.413 224.008 138.356 225.63 136.734C227.251 135.113 228.707 131.705 229.233 130.203V39.6729Z" fill="url(#paint2_linear)" stroke="black"/>
<path d="M219.774 110.386V51.6086H139.378C139.978 53.9357 139.738 62.3732 133.973 77.5067C128.208 92.6402 108.901 97.9249 99.9677 98.6755C103.346 99.201 111.633 100.747 117.759 102.729C123.884 104.711 128.418 108.659 129.919 110.386H219.774Z" fill="url(#paint3_linear)" stroke="black"/>
<circle cx="98.1661" cy="57.0132" r="40.7613" fill="#F6D4D4"/>
<path d="M138.477 179.747H56.9544V135.608H57.0924C58.8096 114.677 76.3413 98.2249 97.7157 98.2249C119.09 98.2249 136.622 114.677 138.339 135.608H138.477V179.747Z" fill="url(#paint4_linear)"/>
<path d="M127.855 59.855C129.358 59.855 130.71 58.8231 131.11 57.3755C131.916 54.4538 128.601 52.0189 126.051 53.6273C124.805 54.4133 124.212 55.9595 124.602 57.3801C124.999 58.8263 126.355 59.855 127.855 59.855Z" fill="black"/>
<path fill-rule="evenodd" clip-rule="evenodd" d="M136.598 36.1975H224.413C229.611 36.1975 233.84 40.4264 233.839 45.6245V126.156C233.839 136.336 225.555 144.618 215.373 144.618H144.741V178.622C144.741 180.488 143.229 182 141.363 182H55.378C53.512 182 52 180.488 52 178.622V141.682C52 122.164 64.1221 105.425 81.2324 98.5952C65.4413 91.8983 54.3367 76.2387 54.3367 58.034C54.3367 33.7532 74.0904 14 98.3706 14C114.711 14 129 22.9463 136.598 36.1975ZM163.018 44.0256C162.901 43.6751 162.849 43.313 162.852 42.9535H139.744C140.329 44.5534 140.822 46.197 141.22 47.8765H218.783C220.649 47.8765 222.161 49.3889 222.161 51.2545V111.779C222.161 113.645 220.649 115.157 218.783 115.157H136.384C137.484 116.73 138.49 118.373 139.392 120.08H227.084V45.624C227.084 44.1512 225.886 42.9531 224.413 42.9531H169.594C169.594 43.0819 169.589 43.2122 169.575 43.344C169.557 43.516 169.526 43.6905 169.476 43.8674C169.071 45.311 167.73 46.3429 166.225 46.3429C164.779 46.3429 163.474 45.3952 163.018 44.0256ZM144.583 137.862H189.356C196.108 137.834 201.776 133.136 203.296 126.836H142.305C143.493 130.344 144.27 134.038 144.583 137.862ZM215.404 54.6325H142.274C142.36 55.7549 142.404 56.8895 142.404 58.0334C142.404 76.2378 131.3 91.8973 115.509 98.5948C121.183 100.86 126.308 104.216 130.625 108.401C159.01 108.401 187.118 108.401 215.404 108.401V54.6325ZM98.3706 20.7556C77.8156 20.7556 61.0927 37.4785 61.0927 58.0334C61.0927 78.5889 77.8156 95.3113 98.3706 95.3113C118.926 95.3113 135.648 78.5889 135.648 58.0334C135.648 37.478 118.926 20.7556 98.3706 20.7556ZM98.3706 102.067C76.5271 102.067 58.756 119.838 58.756 141.682V175.244H116.37V139.353C116.37 137.487 117.882 135.975 119.748 135.975C121.614 135.975 123.126 137.487 123.126 139.353V155.342H137.985V141.682C137.985 119.838 120.214 102.067 98.3706 102.067ZM123.126 162.098V175.244H137.985V162.098H123.126ZM204.778 137.862H215.374C221.603 137.862 226.711 132.976 227.065 126.836H210.183C209.503 131.058 207.569 134.863 204.778 137.862Z" fill="black"/>
<path d="M154.691 94.8468L152.439 63.9944H181.04L178.112 94.8468L165.951 97.9997L154.691 94.8468Z" fill="white"/>
<path d="M148.584 59.9409C148.194 59.9409 147.904 60.258 147.938 60.6455L151.225 97.4414C151.26 97.8289 151.595 98.2312 151.971 98.3353L165.92 102.2C166.296 102.305 166.91 102.305 167.286 102.201L181.277 98.3292C181.653 98.2252 181.989 97.823 182.023 97.4355L185.316 60.6455C185.351 60.258 185.06 59.9409 184.67 59.9409H148.584ZM178.316 68.3799C178.285 68.7255 178.231 69.3256 178.196 69.7132L178.11 70.6786C178.075 71.066 178.025 71.6202 177.999 71.9098C177.973 72.1996 177.948 72.4367 177.943 72.4367C177.939 72.4367 177.616 72.4367 177.227 72.4367H167.336C166.946 72.4367 166.624 72.4367 166.619 72.4367C166.615 72.4367 166.293 72.4367 165.903 72.4367H160.694C160.304 72.4367 160.013 72.7538 160.048 73.1413L160.352 76.5308C160.386 76.9182 160.734 77.2354 161.124 77.2354H165.903C166.293 77.2354 166.615 77.2354 166.62 77.2354C166.624 77.2354 166.946 77.2354 167.336 77.2354H175.551C175.941 77.2354 176.544 77.2354 176.891 77.2354C177.239 77.2354 177.497 77.5183 177.466 77.8639C177.434 78.2096 177.38 78.8098 177.346 79.1973L176.369 90.1249C176.334 90.5125 176.29 91.0076 176.271 91.2252C176.251 91.4427 175.928 91.7057 175.552 91.8097L167.31 94.0905C166.934 94.1944 166.622 94.2804 166.616 94.2817C166.611 94.283 166.299 94.1988 165.923 94.0948L157.672 91.8099C157.296 91.7059 156.96 91.3037 156.926 90.9161L156.395 84.9669C156.36 84.5793 156.651 84.2622 157.041 84.2622H157.794C158.184 84.2622 158.822 84.2622 159.211 84.2622H160.334C160.724 84.2622 161.071 84.5793 161.106 84.9669L161.315 87.2958C161.349 87.6834 161.685 88.0833 162.062 88.1848L165.921 89.225C166.298 89.3264 166.607 89.4095 166.609 89.4095C166.61 89.4095 166.92 89.3263 167.296 89.2248L171.162 88.1822C171.539 88.0807 171.875 87.6806 171.91 87.2931L172.329 82.6271C172.364 82.2395 172.074 81.9224 171.684 81.9224H167.336C166.946 81.9224 166.624 81.9224 166.62 81.9224C166.615 81.9224 166.293 81.9224 165.903 81.9224H156.83C156.441 81.9224 156.093 81.6052 156.059 81.2178L155.03 69.7133C154.995 69.3257 154.942 68.7258 154.911 68.38C154.88 68.0343 155.173 67.7514 155.563 67.7514H165.903C166.293 67.7514 166.615 67.7514 166.62 67.7514C166.624 67.7514 166.946 67.7514 167.336 67.7514H177.663C178.053 67.7513 178.347 68.0341 178.316 68.3799Z" fill="#DD512A"/>
<path fill-rule="evenodd" clip-rule="evenodd" d="M117.847 69.9112C119.305 69.2136 121.053 69.8305 121.751 71.2892C122.354 72.5508 124.831 76.1852 129.089 78.5507C130.503 79.336 131.012 81.1183 130.227 82.5317C129.441 83.9451 127.659 84.4543 126.246 83.6691C120.775 80.6299 117.517 76.0069 116.469 73.8154C115.771 72.3568 116.388 70.6088 117.847 69.9112Z" fill="black"/>
<path d="M61.3121 37.7181C68.7642 25.2978 82.2585 17 97.6684 17C111.266 17 123.372 23.4609 131.152 33.5141C122.707 39.2369 108.398 43 92.1684 43C80.3596 43 69.5681 41.0078 61.3121 37.7181Z" fill="#FF5555"/>
<path fill-rule="evenodd" clip-rule="evenodd" d="M54 40.1868L57.0246 35.1457C65.3328 21.2985 80.4118 12 97.6684 12C112.892 12 126.429 19.2408 135.106 30.4541L138.365 34.6657L133.956 37.6532C124.399 44.13 108.988 48 92.1684 48C79.8439 48 68.4067 45.9274 59.4613 42.363L54 40.1868ZM61.3121 37.7181C62.8399 38.3269 64.4545 38.8912 66.1464 39.4067C73.597 41.6769 82.5449 43 92.1684 43C105.863 43 118.19 40.3206 126.781 36.0452C128.371 35.2539 129.833 34.4079 131.152 33.5141C130.12 32.1815 129.013 30.912 127.837 29.7124C120.137 21.8616 109.464 17 97.6684 17C84.0868 17 71.9932 23.4456 64.2128 33.4784C63.1655 34.8289 62.1963 36.2445 61.3121 37.7181Z" fill="black"/>
<path d="M117 41.6157C120.666 43.1025 125.418 44 130.61 44C142.208 44 151.61 39.5229 151.61 34C151.61 28.4771 142.208 24 130.61 24C128.139 24 125.768 24.2031 123.566 24.5764C127.738 27.2319 131.422 30.6008 134.45 34.5142C130.043 37.5002 124.04 39.9529 117 41.6157Z" fill="#F6941E"/>
<path fill-rule="evenodd" clip-rule="evenodd" d="M130.987 36.58C128.965 37.6462 126.718 38.6205 124.279 39.4873C122.01 40.294 119.574 41.0077 117 41.6157C119.204 42.5099 121.802 43.1909 124.652 43.5917C126.541 43.8574 128.54 44 130.61 44C142.208 44 151.61 39.5229 151.61 34C151.61 28.4771 142.208 24 130.61 24C130.291 24 129.973 24.0034 129.657 24.0101C127.529 24.0554 125.483 24.2514 123.566 24.5764C125.222 25.6307 126.802 26.7975 128.294 28.0661C129.538 29.1244 130.722 30.2535 131.839 31.4474C132.755 32.4272 133.627 33.4506 134.45 34.5142C133.386 35.2351 132.229 35.9249 130.987 36.58ZM134.236 28.1635C135.431 29.4002 136.558 30.7031 137.613 32.0662L140.22 35.4356L136.694 37.8255C135.613 38.5575 134.457 39.2545 133.233 39.9151C137.463 39.6386 141.115 38.7094 143.74 37.4597C147.191 35.8161 147.61 34.3271 147.61 34C147.61 33.6729 147.191 32.1839 143.74 30.5403C141.325 29.3904 138.04 28.5119 134.236 28.1635Z" fill="black"/>
<path fill-rule="evenodd" clip-rule="evenodd" d="M115.867 42.6318C108.835 44.771 100.617 45.9999 91.8363 45.9999C86.2796 45.9999 80.9481 45.5078 76 44.6042C79.5021 29.0282 86.601 18.0871 94.9 17.0698C95.4532 17.0345 96.0092 17.0112 96.5678 17C104.88 17.3197 112.092 27.5843 115.867 42.6318Z" fill="#F6941E"/>
<path fill-rule="evenodd" clip-rule="evenodd" d="M96.5909 14.499L96.6639 14.5018C101.885 14.7026 106.385 18.0077 109.93 22.8077C113.497 27.6373 116.354 34.2966 118.292 42.0236L118.871 44.3311L116.595 45.0236C109.308 47.2404 100.843 48.4999 91.8363 48.4999C86.1336 48.4999 80.6516 47.995 75.5509 47.0636L72.9898 46.5959L73.5609 44.0558C75.3575 36.0653 78.1052 29.1198 81.5797 23.9778C85.0243 18.8802 89.4251 15.2222 94.5958 14.5884L94.6681 14.5795L94.7408 14.5749C95.3303 14.5373 95.9227 14.5124 96.5178 14.5005L96.5909 14.499ZM95.1356 19.5599C92.0278 19.9687 88.7555 22.2889 85.7226 26.7772C83.0467 30.7372 80.7404 36.1338 79.0632 42.577C83.1087 43.177 87.3951 43.4999 91.8363 43.4999C99.432 43.4999 106.568 42.5553 112.815 40.9006C111.028 34.6377 108.636 29.4722 105.908 25.7782C102.848 21.6352 99.6114 19.6468 96.5409 19.5011C96.0704 19.5115 95.6019 19.5312 95.1356 19.5599Z" fill="black"/>
</g>
<defs>
<linearGradient id="paint0_linear" x1="0" y1="82.5" x2="300" y2="82.5" gradientUnits="userSpaceOnUse">
<stop stop-color="#4B6CB7"/>
<stop offset="1" stop-color="#182848"/>
</linearGradient>
<linearGradient id="paint1_linear" x1="0" y1="82.5" x2="300" y2="82.5" gradientUnits="userSpaceOnUse">
<stop stop-color="#9796F0"/>
<stop offset="1" stop-color="#FBC7D4"/>
</linearGradient>
<linearGradient id="paint2_linear" x1="88.2021" y1="90.4556" x2="229.233" y2="90.4556" gradientUnits="userSpaceOnUse">
<stop stop-color="#E0EAFC"/>
<stop offset="1" stop-color="#CFDEF3"/>
</linearGradient>
<linearGradient id="paint3_linear" x1="99.9677" y1="80.9973" x2="219.774" y2="80.9973" gradientUnits="userSpaceOnUse">
<stop stop-color="#00FFF0"/>
<stop offset="1" stop-color="#0083FE"/>
</linearGradient>
<linearGradient id="paint4_linear" x1="56.9544" y1="138.986" x2="138.477" y2="138.986" gradientUnits="userSpaceOnUse">
<stop stop-color="#00B4DB"/>
<stop offset="1" stop-color="#0083B0"/>
</linearGradient>
</defs>
</svg>
