<svg width="300" height="165" viewBox="0 0 300 165" fill="none" xmlns="http://www.w3.org/2000/svg">
<mask id="mask0" mask-type="alpha" maskUnits="userSpaceOnUse" x="0" y="0" width="300" height="165">
<rect width="300" height="165" fill="#C4C4C4"/>
</mask>
<g mask="url(#mask0)">
<rect width="300" height="165" fill="url(#paint0_linear)"/>
<rect y="114" width="300" height="81" fill="url(#paint1_linear)"/>
<path d="M121.608 140.193L93.1 153.198L81.0841 132.671C96.6196 125.017 125.686 103.959 144.448 103.982C160.952 104.002 185.83 109.857 203.982 119.934C218.504 127.996 220.478 133.599 219.65 135.393L247.236 177.191L225.204 188.595L207.018 163.078L169.484 303.159C167.924 305.869 162.546 310.684 153.519 308.265C144.491 305.846 142.112 298.953 142.051 295.809L154.146 250.672C152.824 246.008 148.428 236.211 141.424 234.334C134.42 232.458 127.661 239.265 125.157 242.904L113.062 288.041C110.983 290.612 104.724 295.191 96.3191 292.939C87.9143 290.687 84.6532 283.557 84.0733 280.274L121.608 140.193Z" fill="#F4ABCE" stroke="black"/>
<path d="M249.237 175.978L220.904 130.307C219.932 128.623 218.628 126.85 217.234 125.409C214.78 122.616 211.904 120.066 208.761 118.512C204.931 116.58 201.22 114.827 197.572 113.236C197.246 112.575 196.644 112.062 195.949 111.876C182.868 106.236 170.251 102.855 156.435 101.288C155.757 101.107 155.15 101.279 154.538 101.663C150.731 101.257 146.797 100.972 142.685 100.807C139.186 100.581 135.51 101.02 131.567 102.454C129.64 103.005 128.045 103.646 126.361 104.618L78.6558 129.915C77.8136 130.401 77.3039 130.976 77.0369 131.972C76.77 132.969 76.924 133.722 77.4103 134.563L89.896 155.703C90.9571 157.055 92.9494 157.589 94.5447 156.949L115.815 146.633L81.7387 273.806C79.0695 283.768 85.1463 294.293 95.1076 296.962C105.069 299.631 115.594 293.555 118.263 283.593L128.495 245.408C130.007 239.763 135.48 236.604 141.125 238.116C146.77 239.629 149.93 245.102 148.418 250.746L138.186 288.931C135.517 298.893 141.594 309.418 151.555 312.087C161.516 314.756 172.041 308.679 174.71 298.718L208.786 171.546L222.203 191.867C223.264 193.219 225.256 193.753 226.941 192.781L247.992 180.627C248.834 180.141 249.344 179.566 249.611 178.57C249.878 177.574 249.724 176.82 249.237 175.978ZM189.278 116.85L178.811 129.348C175.929 132.135 172.253 132.574 169.596 131.862C165.943 130.883 163.732 128.511 163.205 125.167L160.39 109.11C170.375 110.362 179.672 112.853 189.278 116.85ZM226.574 184.853L210.46 161.317C209.642 160.386 208.402 159.699 206.896 160.007C205.39 160.315 204.459 161.133 204.103 162.461L168.07 296.939C166.379 303.248 159.643 307.137 153.334 305.447C147.025 303.756 143.136 297.02 144.826 290.711L155.058 252.526C157.549 243.229 152.202 233.966 142.904 231.475C133.607 228.984 124.345 234.331 122.186 243.718L112.043 281.571C110.353 287.879 103.617 291.769 97.3074 290.078C90.9983 288.388 87.1092 281.652 88.7998 275.343L124.833 140.865C125.189 139.537 124.792 138.363 123.641 137.343C122.402 136.655 121.074 136.299 119.811 137.028L94.4196 149.442L85.337 134.197L129.852 110.18C131.115 109.451 132.378 108.722 133.884 108.413C136.653 107.376 139.577 107.091 142.411 107.139C146.192 107.309 149.816 107.57 153.322 107.932L156.516 126.222C157.416 132.157 161.839 136.901 167.816 138.503C173.793 140.104 179.995 138.207 183.5 133.096L195.325 119.153C198.642 120.625 202.019 122.25 205.499 124.044C207.978 125.42 210.367 127.128 212.247 129.411C213.308 130.762 214.369 132.115 215.099 133.378L241.73 176.102L226.574 184.853Z" fill="black"/>
<path d="M191.473 169.753L131.705 153.738C129.713 153.204 128.029 154.177 127.495 156.169L120.377 182.733C118.865 188.377 122.024 193.851 127.669 195.363L174.156 207.819C179.8 209.332 185.273 206.172 186.786 200.527L193.904 173.963C194.437 171.971 193.465 170.287 191.473 169.753ZM180.145 198.747C179.611 200.74 177.927 201.712 175.935 201.178L129.449 188.722C127.456 188.188 126.484 186.504 127.018 184.512L133.246 161.269L186.373 175.504L180.145 198.747Z" fill="black"/>
<path d="M232.999 119.655C221.263 139.854 197.064 150.542 173.417 144.206C149.769 137.87 134.157 116.515 134.092 93.153C129.203 90.0244 126.672 83.986 128.254 78.0805C129.791 72.3437 134.754 68.4392 140.351 67.978C151.697 46.6936 176.575 35.2324 200.872 41.7427C225.168 48.2529 240.982 70.6175 240.166 94.7233C244.783 97.9216 247.128 103.784 245.591 109.521C244.009 115.426 238.797 119.39 232.999 119.655Z" fill="#F6D4D4"/>
<path d="M145.281 59.8454C157.954 43.3484 179.748 35.1971 201.093 40.9165C211.093 43.596 219.656 48.961 226.214 56.0278C213.077 71.5871 191.098 78.9781 169.424 73.1705C160.043 70.6569 151.85 65.974 145.281 59.8454Z" fill="url(#paint2_linear)"/>
<path d="M191.885 45.5342L216.817 25.2026L221.883 50.9154C223.848 51.2943 228.125 52.4107 229.512 53.8451C230.899 55.2795 230.837 59.3664 230.633 61.2306L254.234 70.6543L228.557 92.1148L224.236 65.2732C222.812 65.6297 219.413 65.7524 217.212 63.3912C215.011 61.03 214.997 57.3361 215.265 55.7843L191.885 45.5342Z" fill="url(#paint3_linear)" stroke="black"/>
<path d="M167.936 85.0873C162.419 83.609 156.728 86.8946 155.25 92.4117C154.909 93.6859 155.665 94.9959 156.939 95.3374C158.214 95.6789 159.524 94.9225 159.865 93.6482C160.661 90.6759 163.727 88.9058 166.7 89.7022C169.672 90.4987 171.442 93.5644 170.646 96.537C170.305 97.8113 171.061 99.1212 172.335 99.4627C173.61 99.8042 174.919 99.0478 175.261 97.7735C176.739 92.2564 173.453 86.5656 167.936 85.0873Z" fill="black"/>
<path d="M194.766 103C196.244 97.4827 201.935 94.1972 207.452 95.6755C212.969 97.1538 216.255 102.845 214.777 108.362C214.435 109.636 213.125 110.392 211.851 110.051C210.576 109.709 209.82 108.399 210.162 107.125C210.958 104.153 209.188 101.087 206.215 100.29C203.243 99.4939 200.177 101.264 199.38 104.236C199.039 105.511 197.729 106.267 196.455 105.926C195.18 105.584 194.424 104.274 194.766 103Z" fill="black"/>
<path d="M194.975 119.701C194.315 118.559 192.855 118.167 191.712 118.827C184.275 123.12 174.732 120.564 170.439 113.127C169.779 111.984 168.318 111.593 167.176 112.253C166.033 112.912 165.641 114.373 166.301 115.516C169.021 120.227 173.409 123.595 178.657 125.002C183.905 126.408 189.39 125.685 194.101 122.965C195.244 122.305 195.635 120.844 194.975 119.701Z" fill="black"/>
<path d="M181.04 102.899L187.198 104.549C188.473 104.891 189.229 106.201 188.887 107.475C188.546 108.749 187.236 109.506 185.961 109.164L179.803 107.514C178.529 107.173 177.773 105.863 178.114 104.588C178.456 103.314 179.765 102.558 181.04 102.899Z" fill="black"/>
<path fill-rule="evenodd" clip-rule="evenodd" d="M241.388 91.1867C241.313 89.1964 241.126 87.2056 240.83 85.218L256.741 72.3755C257.405 71.8395 257.733 70.99 257.6 70.1466C257.468 69.3035 256.896 68.5951 256.1 68.2878L233.037 59.3943C233.694 54.4205 230.573 49.5948 225.599 48.2621C225 48.1017 224.4 48.0019 223.803 47.9525L219.971 23.5331C219.839 22.69 219.267 21.9816 218.47 21.6744C217.671 21.3658 216.774 21.5084 216.11 22.0447L194.733 39.3039C175.644 36.5206 156.414 44.1017 144.324 59.2622C143.051 60.8589 141.878 62.5183 140.801 64.2319C133.489 64.4372 127.021 69.4629 125.098 76.6392C123.174 83.8188 126.267 91.4095 132.502 95.2411C133.383 118.486 149.223 139.495 172.84 145.823C196.457 152.151 220.679 141.877 233.065 122.186C240.38 121.987 246.854 116.961 248.778 109.779C250.701 102.603 247.614 95.0199 241.388 91.1867ZM129.713 77.8758C130.812 73.7729 133.989 70.6533 137.89 69.4942C136.414 72.5568 135.22 75.7671 134.324 79.1114C133.42 82.4846 132.86 85.8696 132.612 89.2313C129.808 86.277 128.612 81.9824 129.713 77.8758ZM231.319 63.8519L250.52 71.2563L230.048 87.7806L226.859 67.4462C228.64 66.7047 230.199 65.4656 231.319 63.8519ZM224.362 52.8769C227.226 53.6444 228.932 56.5992 228.165 59.4634C227.397 62.3276 224.443 64.0335 221.578 63.2659C218.714 62.4984 217.008 59.5437 217.775 56.6795C218.543 53.8153 221.497 52.1094 224.362 52.8769ZM215.892 28.3612L219.084 48.6952C217.302 49.4361 215.742 50.6758 214.622 52.2894L195.422 44.8881L215.892 28.3612ZM189.439 43.5781L189.201 43.7705C188.537 44.3068 188.21 45.1566 188.342 45.9995C188.474 46.8429 189.046 47.551 189.843 47.8582L212.903 56.7484C212.597 59.0646 213.11 61.3477 214.249 63.2619C211.163 65.1511 205.334 68.1608 197.371 69.8133C190.219 71.2972 182.811 71.3832 175.353 70.0688C166.872 68.5734 158.292 65.2447 149.811 60.175C159.862 48.8866 174.48 42.8129 189.439 43.5781ZM174.077 141.208C147.61 134.116 131.848 106.815 138.939 80.348C140.541 74.3697 143.176 68.8564 146.777 63.9269C153.994 68.3077 161.305 71.5024 168.602 73.4578C170.578 73.9871 172.553 74.4262 174.524 74.7732C182.58 76.1932 190.594 76.0986 198.341 74.4912C207.819 72.5251 214.523 68.7993 217.688 66.7441C218.495 67.236 219.383 67.6247 220.341 67.8815C220.94 68.042 221.541 68.1421 222.139 68.1914L225.968 92.6085C226.1 93.4518 226.673 94.16 227.469 94.4671C227.549 94.4981 227.629 94.524 227.711 94.5458C228.443 94.742 229.232 94.5796 229.829 94.0972L236.445 88.758C236.971 94.5508 236.468 100.357 234.937 106.071C227.845 132.537 200.543 148.299 174.077 141.208ZM235.974 116.928C237.441 113.892 238.648 110.68 239.551 107.307C240.448 103.961 241.022 100.586 241.275 97.1986C244.071 100.152 245.262 104.44 244.163 108.543C243.062 112.65 239.88 115.772 235.974 116.928Z" fill="black"/>
<rect x="43.6246" y="59.7114" width="67.5819" height="99.2342" rx="12" transform="rotate(-13.9257 43.6246 59.7114)" fill="url(#paint4_linear)"/>
<rect x="51.2625" y="79.8518" width="62.4491" height="54.7499" transform="rotate(-13.9257 51.2625 79.8518)" fill="url(#paint5_linear)"/>
<path d="M83.4291 76.2831L106.035 82.7969L111.696 105.631L94.7525 121.951L72.1469 115.437L66.4852 92.6033L83.4291 76.2831Z" fill="#8BC500"/>
<path fill-rule="evenodd" clip-rule="evenodd" d="M107.315 138.867C107.594 139.994 106.907 141.136 105.779 141.415L92.4364 144.724C91.3085 145.003 90.1674 144.315 89.8878 143.188L87.7273 134.474C87.4477 133.346 88.1353 132.205 89.2631 131.926L102.605 128.617C103.733 128.338 104.874 129.026 105.154 130.153L107.315 138.867ZM102.724 137.837L101.576 133.208L92.3181 135.504L93.4658 140.133L102.724 137.837Z" fill="black"/>
<path d="M71.7755 61.9803L85.3902 58.6045C86.518 58.3249 87.6591 59.0126 87.9387 60.1403C88.2184 61.2682 87.5307 62.4092 86.4029 62.6889L72.7882 66.0646C71.6604 66.3443 70.5194 65.6567 70.2397 64.5288C69.9601 63.4011 70.6477 62.26 71.7755 61.9803Z" fill="black"/>
<path d="M96.579 60.5993C97.9324 60.2637 98.7576 58.8945 98.422 57.541C98.0864 56.1877 96.7171 55.3624 95.3637 55.698C94.0103 56.0336 93.1851 57.4029 93.5207 58.7563C93.8563 60.1098 95.2255 60.9349 96.579 60.5993Z" fill="black"/>
<path fill-rule="evenodd" clip-rule="evenodd" d="M102.562 45.0976L50.2823 58.0606C46.1533 59.0844 43.6271 63.2762 44.6509 67.4054L65.1756 150.182C66.1994 154.311 70.3913 156.837 74.5203 155.814L126.8 142.851C130.929 141.827 133.456 137.635 132.432 133.506L111.907 50.7291C110.883 46.6 106.691 44.0738 102.562 45.0976ZM128.347 134.519C128.813 136.396 127.665 138.301 125.788 138.766L73.5076 151.729C71.6307 152.195 69.7254 151.046 69.26 149.169L65.8607 135.46L124.948 120.809L128.347 134.519ZM64.848 131.376L52.4934 81.5489L111.581 66.8981L123.935 116.725L64.848 131.376ZM110.568 62.8137L51.4806 77.4646L48.7353 66.3926C48.2699 64.5157 49.4181 62.6103 51.295 62.1449L103.575 49.1819C105.452 48.7166 107.357 49.8649 107.823 51.7418L110.568 62.8137Z" fill="black"/>
<path fill-rule="evenodd" clip-rule="evenodd" d="M95.5769 121.758L95.5826 121.757L95.5797 121.761L95.5931 121.758C96.2431 121.597 96.808 121.273 97.2396 120.853L111.65 107.018L111.665 107.005C112.558 106.129 112.978 104.822 112.659 103.525L107.868 84.2028C107.543 82.9093 106.563 81.9539 105.348 81.5944L86.1381 76.0883L86.1596 76.0931C85.5598 75.9327 84.9084 75.9164 84.2604 76.077C83.6123 76.2377 83.0455 76.5541 82.6054 76.9643L68.1911 90.8076L68.1763 90.8213C67.2845 91.6931 66.8628 92.996 67.1819 94.2909L71.9733 113.615C72.2953 114.913 73.2758 115.873 74.4935 116.233L79.4933 117.657C80.7582 118.061 82.1491 118.13 83.5351 117.786C83.5578 117.781 83.5805 117.775 83.6023 117.769C83.6227 117.763 83.6423 117.758 83.6608 117.753C86.8227 116.969 88.1663 114.613 87.3426 111.292L82.612 92.2129C82.5455 91.9445 82.2742 91.7834 82.0066 91.8498L82.0047 91.8503L79.8732 92.3788L79.8674 92.3802C79.5998 92.4465 79.4357 92.7176 79.5017 92.9841L84.2323 112.063C84.5972 113.534 83.4313 115.379 80.6241 114.754L75.3599 113.246L75.3575 113.245C75.1791 113.196 75.0329 113.057 74.9852 112.864L70.1947 93.5439C70.1484 93.3493 70.2116 93.1538 70.3471 93.0211L84.7541 79.1978L84.7527 79.2002C84.8202 79.137 84.9039 79.09 84.9976 79.0667C85.0913 79.0435 85.1873 79.046 85.2722 79.0694L104.472 84.5579L104.474 84.5593C104.652 84.6142 104.797 84.758 104.847 84.9498L109.636 104.266L109.637 104.27C109.685 104.461 109.625 104.653 109.494 104.787L95.0789 118.62L95.0822 118.617C95.0142 118.679 94.9305 118.726 94.8349 118.749C94.7393 118.773 94.6433 118.77 94.5589 118.749L89.6141 117.269L89.6165 117.271C89.5364 117.242 89.4476 117.236 89.3596 117.258C89.2986 117.273 89.2438 117.299 89.1981 117.333C89.2083 117.323 89.2185 117.313 89.2286 117.302L89.1894 117.34C89.1923 117.338 89.1952 117.336 89.1981 117.333C88.5489 117.995 87.8142 118.585 86.9358 119.12C86.6846 119.285 86.3161 119.55 87.2695 119.811L93.7039 121.725L93.6844 121.72C94.2799 121.896 94.9288 121.919 95.5769 121.758ZM86.8817 103.46C87.6089 106.392 90.0668 109.49 97.6576 107.608L97.6625 107.603C103.16 106.24 105.772 103.287 104.839 99.4898C103.908 95.7343 101.127 95.3636 95.6217 95.9772C90.0574 96.5991 89.4178 96.3672 89.1039 95.1015C88.8455 94.0593 88.9634 92.5501 92.9541 91.5606C96.5167 90.6772 98.0212 91.1208 99.159 93.3955L99.16 93.3995C99.2647 93.6108 99.5056 93.7295 99.7424 93.6708L101.977 93.1166C102.254 93.0481 102.423 92.7689 102.354 92.49C102.35 92.4762 102.347 92.4604 102.341 92.447C100.965 88.384 97.7357 87.1317 92.1767 88.51C87.2372 89.7348 84.8054 92.5608 85.6753 96.0692C86.6193 99.8762 89.8145 100.197 94.6784 99.4943C100.496 98.6438 101.142 99.3654 101.42 100.487C101.902 102.431 100.555 103.644 96.8995 104.551C92.3091 105.689 91.0127 104.784 90.1076 102.578L90.1071 102.576C90.0083 102.346 89.7556 102.214 89.505 102.276L89.5031 102.276L87.2602 102.833L87.2562 102.834C86.98 102.902 86.8125 103.181 86.8812 103.458L86.8817 103.46Z" fill="black"/>
<rect x="43.5293" y="109.092" width="24.8086" height="11.1211" rx="5.56054" transform="rotate(-13.9257 43.5293 109.092)" fill="#F6D4D4" stroke="black" stroke-width="4"/>
<rect x="46.8234" y="122.377" width="24.8086" height="11.1211" rx="5.56054" transform="rotate(-13.9257 46.8234 122.377)" fill="#F6D4D4" stroke="black" stroke-width="4"/>
<rect x="49.4998" y="133.171" width="24.8086" height="11.1211" rx="5.56054" transform="rotate(-13.9257 49.4998 133.171)" fill="#F6D4D4" stroke="black" stroke-width="4"/>
<rect x="113.875" y="109.277" width="24.8086" height="11.1211" rx="5.56054" transform="rotate(12.3856 113.875 109.277)" fill="#F6D4D4" stroke="black" stroke-width="4"/>
<rect width="300" height="165" fill="url(#paint6_radial)"/>
</g>
<defs>
<linearGradient id="paint0_linear" x1="0" y1="82.5" x2="300" y2="82.5" gradientUnits="userSpaceOnUse">
<stop stop-color="#D70652"/>
<stop offset="1" stop-color="#FF025E"/>
</linearGradient>
<linearGradient id="paint1_linear" x1="0" y1="154.5" x2="300" y2="154.5" gradientUnits="userSpaceOnUse">
<stop stop-color="#4B79A1"/>
<stop offset="1" stop-color="#283E51"/>
</linearGradient>
<linearGradient id="paint2_linear" x1="148.659" y1="47.2368" x2="223.217" y2="67.2143" gradientUnits="userSpaceOnUse">
<stop stop-color="#FFE259"/>
<stop offset="1" stop-color="#FFA751"/>
</linearGradient>
<linearGradient id="paint3_linear" x1="190.667" y1="50.079" x2="255.12" y2="67.3491" gradientUnits="userSpaceOnUse">
<stop stop-color="#5433FF"/>
<stop offset="0.5" stop-color="#20BDFF"/>
<stop offset="1" stop-color="#A5FECB"/>
</linearGradient>
<linearGradient id="paint4_linear" x1="43.6246" y1="109.329" x2="111.206" y2="109.329" gradientUnits="userSpaceOnUse">
<stop stop-color="#232526"/>
<stop offset="1" stop-color="#414345"/>
</linearGradient>
<linearGradient id="paint5_linear" x1="51.2625" y1="107.227" x2="113.712" y2="107.227" gradientUnits="userSpaceOnUse">
<stop stop-color="#ECE9E6"/>
<stop offset="1" stop-color="white"/>
</linearGradient>
<radialGradient id="paint6_radial" cx="0" cy="0" r="1" gradientUnits="userSpaceOnUse" gradientTransform="translate(150 82.5) rotate(179.822) scale(160.501 108.572)">
<stop offset="0.478393" stop-color="#F6EEBA" stop-opacity="0"/>
<stop offset="1" stop-opacity="0.1"/>
</radialGradient>
</defs>
</svg>
