<?xml version="1.0" encoding="utf-8"?>
<!-- Generator: Adobe Illustrator 22.0.1, SVG Export Plug-In . SVG Version: 6.00 Build 0)  -->
<svg version="1.1" id="Layer_1" xmlns="http://www.w3.org/2000/svg" xmlns:xlink="http://www.w3.org/1999/xlink" x="0px" y="0px"
	 viewBox="0 0 503 659" style="enable-background:new 0 0 503 659;" xml:space="preserve">
<style type="text/css">
	.st0{fill:#A7D01F;}
	.st1{fill:#DADBDC;}
	.st2{fill:#FFFFFF;}
	.st3{fill:#C3C5C6;}
	.st4{fill:#353847;}
	.st5{clip-path:url(#SVGID_2_);}
</style>
<symbol  id="BG-single" viewBox="-251.5 -329.5 503 659">
	<rect x="-251.5" y="-329.5" class="st0" width="503" height="659"/>
	
		<use xlink:href="#SitePoint_Logo_"  width="131.9" height="28.8" x="-65.9" y="-14.4" transform="matrix(1 0 0 1 161.25 -269.785)" style="overflow:visible;"/>
</symbol>
<symbol  id="Plane2" viewBox="-172.6 -123.6 345.1 247.1">
	<polygon class="st1" points="-53.8,78.8 -98.8,28.8 5.6,93.1 	"/>
	<polygon class="st1" points="-53.8,78.8 -69.6,74.9 -98.8,28.8 	"/>
	<polygon class="st2" points="-69.6,74.9 5.6,93.1 -93.6,123.6 -99.9,121.1 	"/>
	<polygon class="st2" points="-57.8,54.1 -38.2,25.1 -6.9,27.8 5.6,93.1 	"/>
	<polygon class="st2" points="-6.9,27.8 147.7,45.6 5.6,93.1 	"/>
	<polygon class="st2" points="-38.2,25.1 -9.2,-4.8 61.4,-4.8 -6.9,27.8 	"/>
	<polygon class="st2" points="-6.9,27.8 145.2,33.3 61.4,-4.8 	"/>
	<polygon class="st1" points="145.2,33.3 170.6,48.4 172.6,53.8 147.7,45.6 -40.4,28.2 -38.2,25.1 -36.6,23.3 	"/>
	<polygon class="st3" points="114.4,56.6 147.7,45.6 172.6,53.8 	"/>
	<polygon class="st1" points="6.1,-4.8 -28.1,-45.2 61.4,-4.8 	"/>
	<polygon class="st1" points="-28.1,-45.2 6.1,-4.8 -9.2,-4.8 	"/>
	<path class="st4" d="M-71.2,14.6l-1,2.4l3,1.4l3.2,1.2l0.9-2.5l-3.1-1.2L-71.2,14.6z"/>
	<path class="st4" d="M-79.7,10.1l-1.4,2.3l0.9,0.5l2,1.2l3,1.5l1.2-2.3l-2.9-1.5l-2-1.1L-79.7,10.1z"/>
	<path class="st4" d="M-87.6,4.6l-1.7,2l0.8,0.7l1.8,1.4l2.8,1.9l1.5-2.1L-85,6.6l-1.8-1.4L-87.6,4.6z"/>
	<path class="st4" d="M-94.4-2.1l-2.1,1.6l2.3,2.6c0.8,0.8,1.6,1.6,2.4,2.3l1.8-1.9l-2.3-2.2L-94.4-2.1z"/>
	<path class="st4" d="M-98.9-10.2l-2.5,0.8c0.4,1.1,0.8,2.2,1.3,3.2l1.1,2.1c0.2,0.3,0.4,0.6,0.6,0.9l2.2-1.4
		C-97.2-6.4-98.1-8.3-98.9-10.2z"/>
	<path class="st4" d="M-99.7-19.5l-2.6-0.4c-0.1,0-0.1,1.8-0.2,3.5c-0.1,0.8,0,1.6,0.2,2.4c0.1,0.4,0.1,0.7,0.1,1.1l2.6-0.4
		c0-0.3,0-0.7-0.1-1c-0.1-0.7-0.2-1.4-0.2-2.1C-99.8-17.4-99.8-18.4-99.7-19.5z"/>
	<path class="st4" d="M-96.4-28.1l-2.2-1.4l-0.6,0.9l-0.2,0.4c-0.1,0.2-0.2,0.4-0.3,0.6l-0.5,1.2c-0.5,1-0.9,2.1-1.3,3.2l2.5,0.8
		c0.3-1,0.7-2,1.2-2.9c0.1-0.4,0.3-0.8,0.4-1.1l0.2-0.4l0.3-0.4L-96.4-28.1z"/>
	<path class="st4" d="M-89.8-33.9l-0.8-2.5c-1.2,0.5-2.3,1-3.3,1.7c-0.9,0.8-1.8,1.6-2.6,2.5l1.9,1.7c0.7-0.7,1.5-1.4,2.3-2
		C-91.5-33-90.6-33.5-89.8-33.9z"/>
	<path class="st4" d="M-82.1-32.2l1.9-1.8c-0.9-0.9-1.9-1.7-3.1-2.2c-0.8-0.4-1.7-0.6-2.6-0.6H-87v2.6h0.8c0.6,0,1.2,0.2,1.8,0.5
		C-83.5-33.4-82.7-32.9-82.1-32.2z"/>
	<path class="st4" d="M-81.5-24.9l2.2,1.5c0.6-1.1,1.1-2.3,1.3-3.6c0.2-0.9,0.2-1.8,0-2.7c-0.1-0.4-0.2-0.8-0.3-1.2l-2.5,0.8
		c0.3,0.9,0.4,1.8,0.2,2.7C-80.7-26.5-81-25.6-81.5-24.9z"/>
	<path class="st4" d="M-88.7-19.6l1,2.4l1-0.4l2.1-1.1c1-0.6,2-1.3,2.9-2l-1.7-2c-0.8,0.7-1.6,1.3-2.5,1.8l-1.9,0.9L-88.7-19.6z"/>
	<path class="st4" d="M-97.9-17.2l0.4,2.7l3.3-0.7l2.3-0.5l1-0.3l-0.7-2.5l-1,0.2l-2.1,0.6L-97.9-17.2z"/>
	<path class="st4" d="M-107.5-17.1l-0.2,2.7h3.4c0.8,0.1,1.6,0.1,2.4,0h1v-2.7h-3.3H-107.5z"/>
	<path class="st4" d="M-117-18.5l-0.6,2.5l3.3,0.8l3.4,0.4l0.3-2.6l-3.2-0.4L-117-18.5z"/>
	<path class="st4" d="M-126.2-21.2l-0.9,2.5l1,0.3l2.2,0.7l3.2,1l0.7-2.5l-3.1-1l-2.1-0.7L-126.2-21.2z"/>
	<path class="st4" d="M-135.1-25.1l-1.2,2.4l3.1,1.4c1,0.5,2,0.9,3,1.3l1-2.4l-3-1.3L-135.1-25.1z"/>
	<path class="st4" d="M-143.6-29.9l-1.5,2.2l5.8,3.5l1.3-2.3C-138-26.5-143.7-29.8-143.6-29.9z"/>
	<path class="st4" d="M-151.4-35.7l-1.7,2c0,0,5.2,4.3,5.3,4.1l1.6-2.1C-146.2-31.6-151.4-35.7-151.4-35.7z"/>
	<path class="st4" d="M-158.2-42.4l-2,1.7c0,0,1.1,1.3,2.3,2.5l2.5,2.3l1.7-1.9l-2.3-2.2C-157.2-41.2-158.2-42.4-158.2-42.4z"/>
	<path class="st4" d="M-163.9-50.1l-2.3,1.3c0.2,0.3,0.4,0.6,0.6,0.9c0.4,0.7,0.8,1.3,1.3,1.9l2,2.8l2-1.6l-1.8-2.7l-1.3-1.8
		L-163.9-50.1z"/>
	<path class="st4" d="M-168.1-58.8l-2.5,0.8c0,0,2.5,6.4,2.7,6.3l2.4-1.2C-165.8-52.8-168.1-58.8-168.1-58.8z"/>
	<path class="st4" d="M-169.8-68.1l-2.7,0.2l0.4,3.3c0.1,0.8,0.2,1.6,0.4,2.4l0.3,1l2.5-0.6c0-0.3-0.1-0.7-0.2-1
		c-0.2-0.7-0.3-1.4-0.4-2.1C-169.7-66.5-169.8-68.1-169.8-68.1z"/>
	<path class="st4" d="M-169.6-77.7l-2.7-0.3c-0.1,1.1-0.2,2.3-0.2,3.4c0,0.8-0.1,1.7-0.1,2.3v1.1h2.7c-0.1-0.3-0.1-0.7-0.1-1
		c0.1-0.7,0.1-1.5,0.1-2.2C-169.8-76.1-169.6-77.7-169.6-77.7z"/>
	<path class="st4" d="M-167.9-87.2l-2.6-0.7l-0.8,3.3l-0.6,3.3l2.6,0.4l0.6-3.2L-167.9-87.2z"/>
	<path class="st4" d="M-164.9-96.5l-2.5-0.9c0,0-0.5,1.6-1.1,3.1c-0.3,0.7-0.5,1.4-0.7,2.2l-0.3,1l2.5,0.8l0.3-1l0.7-2.1
		L-164.9-96.5z"/>
	<path class="st4" d="M-161.1-105.4l-2.3-1.1c0,0-0.8,1.4-1.5,3s-1.3,3-1.3,3l2.4,1.1c0,0,0.6-1.5,1.3-3L-161.1-105.4z"/>
	<path class="st4" d="M-156.2-113.9l-2.3-1.4c0,0-0.8,1.5-1.7,2.9l-1.6,2.9l2.3,1.3l1.6-2.9L-156.2-113.9z"/>
	<path class="st4" d="M-150.9-122.1l-2.2-1.5l-1.8,2.8c-1,1.3-1.9,2.8-1.9,2.8l2.3,1.4l1.7-2.8L-150.9-122.1z"/>
</symbol>
<symbol  id="SitePoint_Logo_" viewBox="-65.9 -14.4 131.9 28.8">
	<g>
		<defs>
			<rect id="SVGID_1_" x="-65.9" y="-14.4" width="131.9" height="28.8"/>
		</defs>
		<clipPath id="SVGID_2_">
			<use xlink:href="#SVGID_1_"  style="overflow:visible;"/>
		</clipPath>
		<g class="st5">
			<path class="st2" d="M-32.1,3.5c0.2,0.3,0.5,0.6,0.9,0.8l1.1,0.4l1.4,0.2h1.1l1.1-0.3c0.3-0.1,0.6-0.3,0.8-0.6
				c0.2-0.3,0.3-0.6,0.3-1c0-0.5-0.2-1-0.7-1.3c-0.5-0.4-1-0.6-1.6-0.7l-2.2-0.6l-2.2-0.6c-0.6-0.3-1.2-0.7-1.6-1.2
				c-0.5-0.5-0.8-1.3-0.7-2c0-0.6,0.1-1.2,0.5-1.7c0.3-0.5,0.7-0.9,1.2-1.2c0.5-0.3,1-0.5,1.6-0.7l1.8-0.2l2.2,0.2
				c0.6,0.1,1.2,0.3,1.7,0.7c0.6,0.3,1,0.7,1.3,1.3c0.3,0.6,0.5,1.3,0.5,2h-2.3c0-0.4-0.1-0.8-0.3-1.1L-27-4.8l-1-0.3h-2.1L-31-4.8
				c-0.3,0.1-0.5,0.3-0.7,0.5C-32-4.1-32.1-3.7-32-3.4c0,0.3,0.1,0.7,0.4,0.9c0.3,0.3,0.7,0.5,1.1,0.6l1.4,0.4l1.6,0.4l1.7,0.4
				c0.5,0.2,1,0.4,1.4,0.7c0.4,0.3,0.7,0.7,1,1.1c0.3,0.5,0.5,1,0.4,1.6c0,0.7-0.2,1.4-0.5,2c-0.4,0.5-0.9,0.9-1.4,1.2
				c-0.6,0.3-1.2,0.5-1.9,0.7l-2.1,0.2c-0.7,0-1.4-0.1-2.1-0.3c-0.7-0.1-1.3-0.3-1.9-0.7c-0.5-0.4-1-0.8-1.3-1.4
				c-0.3-0.7-0.5-1.4-0.5-2.1h2.3C-32.5,2.7-32.4,3.1-32.1,3.5"/>
			<rect x="-20.3" y="-6.9" class="st2" width="2.3" height="13.4"/>
			<path class="st2" d="M-8.7-6.9v2h-2.7v8.3c0,0.2,0,0.4,0.1,0.6c0,0.1,0.1,0.3,0.2,0.3l0.5,0.2h1.9v2h-3.2l-1-0.5
				c-0.3-0.2-0.5-0.5-0.6-0.8c-0.1-0.5-0.2-1-0.2-1.5v-8.6H-16v-2h2.3v-4h2.3v4H-8.7z"/>
			<path class="st2" d="M3.6,5.6C2.4,6.4,1,6.8-0.3,6.8c-1,0-1.9-0.2-2.8-0.5c-0.8-0.4-1.5-0.9-2.1-1.5c-0.6-0.6-1-1.4-1.2-2.2
				c-0.3-0.9-0.5-1.8-0.5-2.8c0-1,0.2-1.9,0.5-2.8c0.3-0.8,0.7-1.6,1.3-2.2C-4.5-5.8-3.8-6.3-3-6.7C-2.2-7-1.3-7.2-0.4-7.2
				c1.1,0,2.1,0.3,3,0.8c0.8,0.4,1.5,1,2,1.8C5-3.8,5.4-3,5.6-2.1c0.2,0.8,0.3,1.7,0.2,2.6H-4.5c0,0.5,0.1,1.1,0.2,1.6
				c0.1,0.5,0.4,1,0.8,1.4c0.4,0.5,0.8,0.8,1.4,1c0.6,0.2,1.2,0.4,1.9,0.4c0.9,0,1.7-0.2,2.4-0.7c0.6-0.5,1.1-1.2,1.2-2h2.2
				C5.3,3.5,4.6,4.8,3.6,5.6 M3.1-2.9C2.9-3.4,2.6-3.8,2.2-4.1C1.8-4.5,1.4-4.8,1-4.9l-1.5-0.3c-0.5,0-1.1,0.1-1.6,0.3
				C-2.6-4.8-3-4.5-3.3-4.1c-0.4,0.3-0.7,0.7-0.9,1.2C-4.4-2.5-4.5-2-4.5-1.5h7.9C3.4-2,3.3-2.5,3.1-2.9"/>
			<path class="st2" d="M10.5-6.9v1.8h0.1c0.4-0.7,1-1.3,1.7-1.6C13.1-7,14-7.2,14.9-7.2c1,0,1.9,0.2,2.8,0.6
				c0.7,0.4,1.4,0.9,1.9,1.5c0.6,0.7,1,1.4,1.2,2.3c0.3,0.8,0.4,1.7,0.4,2.6c0,0.9-0.1,1.8-0.4,2.7c-0.2,0.8-0.6,1.6-1.1,2.2
				c-0.5,0.7-1.2,1.2-2,1.5c-0.9,0.4-1.8,0.6-2.8,0.6h-1.1l-1.2-0.4c-0.4-0.1-0.8-0.3-1.2-0.6c-0.4-0.3-0.7-0.6-0.9-1h-0.1v6.8H8.2
				V-6.9H10.5z M18.7-2.1c-0.1-0.6-0.4-1.1-0.8-1.6c-0.3-0.5-0.8-0.9-1.3-1.1c-0.6-0.3-1.2-0.4-1.9-0.4c-0.7,0-1.4,0.1-2,0.4
				c-0.5,0.3-0.9,0.7-1.3,1.1C11-3.2,10.8-2.6,10.6-2c-0.2,0.6-0.3,1.2-0.3,1.8c0,0.6,0.1,1.3,0.3,1.9c0.1,0.6,0.4,1.1,0.7,1.6
				c0.4,0.5,0.9,0.8,1.4,1.1c0.6,0.3,1.3,0.5,2,0.5c1.3,0,2.5-0.6,3.2-1.6c0.3-0.5,0.6-1.1,0.7-1.7c0.2-0.6,0.2-1.3,0.2-1.9
				C18.8-0.9,18.8-1.5,18.7-2.1"/>
			<path class="st2" d="M23.7-2.9c0.3-0.8,0.7-1.6,1.3-2.3c0.6-0.7,1.3-1.1,2.1-1.4C28-7,29-7.2,30-7.2c1,0,1.9,0.2,2.8,0.6
				c0.8,0.3,1.5,0.7,2.1,1.4c0.6,0.7,1,1.5,1.3,2.3c0.3,0.9,0.5,1.8,0.5,2.7c0,1-0.2,1.9-0.5,2.8c-0.3,0.8-0.7,1.6-1.3,2.2
				c-0.6,0.7-1.3,1.1-2.1,1.4c-0.9,0.4-1.8,0.6-2.8,0.6c-1,0-2-0.2-2.9-0.6c-0.8-0.3-1.5-0.7-2.1-1.4c-0.6-0.6-1-1.4-1.3-2.2
				c-0.3-0.9-0.4-1.9-0.4-2.8C23.2-1.1,23.4-2,23.7-2.9 M26,2c0.2,0.6,0.5,1.1,0.9,1.6c0.4,0.4,0.9,0.7,1.4,0.9c1,0.5,2.3,0.5,3.3,0
				c0.5-0.2,1-0.5,1.4-0.9c0.4-0.5,0.7-1,0.9-1.6c0.2-0.7,0.4-1.5,0.4-2.2c0-0.7-0.2-1.4-0.4-2.1c-0.2-0.6-0.5-1.2-0.9-1.6
				c-0.4-0.5-0.9-0.8-1.4-1C31-5.1,30.5-5.2,30-5.2c-0.6,0-1.2,0.1-1.7,0.3c-0.5,0.2-1,0.5-1.4,1c-0.4,0.4-0.7,1-0.9,1.6
				c-0.2,0.7-0.3,1.4-0.3,2.1C25.6,0.5,25.7,1.3,26,2"/>
			<rect x="39.5" y="-6.9" class="st2" width="2.3" height="13.4"/>
			<path class="st2" d="M47.4-6.9v2.2l0,0c0.9-1.6,2.6-2.6,4.5-2.5c0.8,0,1.6,0.1,2.3,0.4c0.6,0.2,1.1,0.6,1.5,1
				c0.3,0.4,0.6,1,0.7,1.5c0.2,0.6,0.3,1.3,0.3,2v8.8h-2.3v-9.1c0-0.7-0.2-1.4-0.7-1.9c-0.6-0.5-1.3-0.8-2.1-0.7
				c-0.6,0-1.2,0.1-1.8,0.3c-0.5,0.2-0.9,0.5-1.3,0.8c-0.3,0.4-0.6,0.9-0.7,1.4c-0.2,0.5-0.3,1.1-0.3,1.6v7.6h-2.3V-6.9H47.4z"/>
			<path class="st2" d="M65.9-6.9v2h-2.8v8.3c0,0.2,0.1,0.4,0.1,0.6c0,0.2,0.1,0.3,0.3,0.3l0,0l0.5,0.2h1.9v2h-3.3
				c-0.4-0.1-0.7-0.3-1-0.5c-0.2-0.2-0.4-0.5-0.5-0.8c-0.2-0.5-0.2-1-0.2-1.5v-8.6h-2.4v-2h2.4v-4h2.2v4H65.9z"/>
			<path class="st2" d="M-65.1-1.7l2.1,2l6.6,6.2l2.8-2.8c0.3-0.3,0.3-0.9,0-1.2l-2.6-2.3l0,0L-59-2.5c-0.3-0.4-0.3-0.9,0-1.3
				l7.6-7.3l-3.5-3.3L-63-6.5l-2.1,2c-0.8,0.7-0.8,1.9-0.1,2.7C-65.2-1.8-65.2-1.8-65.1-1.7"/>
			<path class="st2" d="M-42.6,1.8l-2.1-2.1l-6.6-6.1l-2.8,2.7c-0.3,0.3-0.3,0.9,0,1.2l2.6,2.3l0,0l2.8,2.7c0.3,0.4,0.3,0.9,0,1.3
				l-7.6,7.3l3.5,3.3l8.1-7.8l2.1-2.1c0.7-0.7,0.8-1.8,0.2-2.5C-42.5,1.9-42.6,1.8-42.6,1.8"/>
			<path class="st2" d="M-17.9-9.6c0,0.7-0.6,1.3-1.3,1.3c-0.7,0-1.3-0.6-1.3-1.3s0.6-1.3,1.3-1.3l0,0
				C-18.5-10.9-17.9-10.3-17.9-9.6"/>
			<path class="st2" d="M41.9-9.6c0,0.7-0.6,1.3-1.3,1.3c-0.7,0-1.3-0.6-1.3-1.3c0-0.7,0.6-1.3,1.3-1.3
				C41.3-10.9,41.9-10.3,41.9-9.6C41.9-9.6,41.9-9.6,41.9-9.6"/>
		</g>
	</g>
</symbol>
<symbol  id="Tagline_2" viewBox="-168.2 -8.1 336.5 16.2">
	<text transform="matrix(1 0 0 1 -168.2461 4.71)" class="st2" style="font-family:'Raleway-SemiBold'; font-size:15px;">BECAUSE EVERY SECOND COSTS REAL MONEY</text>
</symbol>
<symbol  id="Title_2" viewBox="-186.8 -60.2 373.6 120.3">
	<text transform="matrix(1 0 0 1 -186.7954 1.3789)" class="st2" style="font-family:'Raleway-Medium'; font-size:71.9761px;">BACK-END</text>
	<text transform="matrix(1 0 0 1 -172.6001 49.3633)" class="st2" style="font-family:'Raleway-Medium'; font-size:47.9841px;">PERFORMANCE</text>
</symbol>
<title>Backend-single</title>
<g id="Layer_2_1_">
	<g id="Book_2">
		<g id="Title-1">
			<g>
				<rect y="-83" class="st0" width="503" height="659"/>
				
					<use xlink:href="#SitePoint_Logo_"  width="131.9" height="28.8" x="-65.9" y="-14.4" transform="matrix(1 0 0 -1 412.75 516.285)" style="overflow:visible;"/>
			</g>
			
				<use xlink:href="#BG-single"  width="503" height="659" x="-251.5" y="-329.5" transform="matrix(1 0 0 -1 251.5 246.5)" style="overflow:visible;"/>
			
				<use xlink:href="#Tagline_2"  width="336.5" height="16.2" id="Tagline_2-3" x="-168.2" y="-8.1" transform="matrix(1 0 0 1 256.3997 610.715)" style="overflow:visible;"/>
			<g>
				
					<use xlink:href="#Plane2"  width="345.1" height="247.1" x="-172.6" y="-123.6" transform="matrix(1 0 0 1 231.45 227.065)" style="overflow:visible;"/>
			</g>
			
				<use xlink:href="#Title_2"  width="373.6" height="120.3" x="-186.8" y="-60.2" transform="matrix(1.0003 0 0 1.0003 288.1497 211.98)" style="overflow:visible;"/>
		</g>
	</g>
</g>
</svg>
