<?xml version="1.0" encoding="utf-8"?>
<!-- Generator: Adobe Illustrator 22.0.1, SVG Export Plug-In . SVG Version: 6.00 Build 0)  -->
<svg version="1.1" id="Layer_1" xmlns="http://www.w3.org/2000/svg" xmlns:xlink="http://www.w3.org/1999/xlink" x="0px" y="0px"
	 viewBox="0 0 503 659" style="enable-background:new 0 0 503 659;" xml:space="preserve">
<style type="text/css">
	.st0{fill:#A7D01F;}
	.st1{clip-path:url(#SVGID_2_);}
	.st2{fill:#FFFFFF;}
	.st3{fill:#E2E3E4;}
	.st4{fill:#EDEDEE;}
	.st5{fill:#353847;}
</style>
<symbol  id="BG-single" viewBox="-251.5 -329.5 503 659">
	<rect x="-251.5" y="-329.5" class="st0" width="503" height="659"/>
	
		<use xlink:href="#SitePoint_Logo_"  width="131.9" height="28.8" x="-65.9" y="-14.4" transform="matrix(1 0 0 1 161.25 -269.785)" style="overflow:visible;"/>
</symbol>
<symbol  id="SitePoint_Logo_" viewBox="-65.9 -14.4 131.9 28.8">
	<g>
		<defs>
			<rect id="SVGID_1_" x="-65.9" y="-14.4" width="131.9" height="28.8"/>
		</defs>
		<clipPath id="SVGID_2_">
			<use xlink:href="#SVGID_1_"  style="overflow:visible;"/>
		</clipPath>
		<g class="st1">
			<path class="st2" d="M-32.1,3.5c0.2,0.3,0.5,0.6,0.9,0.8l1.1,0.4l1.4,0.2h1.1l1.1-0.3c0.3-0.1,0.6-0.3,0.8-0.6
				c0.2-0.3,0.3-0.6,0.3-1c0-0.5-0.2-1-0.7-1.3c-0.5-0.4-1-0.6-1.6-0.7l-2.2-0.6l-2.2-0.6c-0.6-0.3-1.2-0.7-1.6-1.2
				c-0.5-0.5-0.8-1.3-0.7-2c0-0.6,0.1-1.2,0.5-1.7c0.3-0.5,0.7-0.9,1.2-1.2c0.5-0.3,1-0.5,1.6-0.7l1.8-0.2l2.2,0.2
				c0.6,0.1,1.2,0.3,1.7,0.7c0.6,0.3,1,0.7,1.3,1.3c0.3,0.6,0.5,1.3,0.5,2h-2.3c0-0.4-0.1-0.8-0.3-1.1L-27-4.8l-1-0.3h-2.1L-31-4.8
				c-0.3,0.1-0.5,0.3-0.7,0.5C-32-4.1-32.1-3.7-32-3.4c0,0.3,0.1,0.7,0.4,0.9c0.3,0.3,0.7,0.5,1.1,0.6l1.4,0.4l1.6,0.4l1.7,0.4
				c0.5,0.2,1,0.4,1.4,0.7c0.4,0.3,0.7,0.7,1,1.1c0.3,0.5,0.5,1,0.4,1.6c0,0.7-0.2,1.4-0.5,2c-0.4,0.5-0.9,0.9-1.4,1.2
				c-0.6,0.3-1.2,0.5-1.9,0.7l-2.1,0.2c-0.7,0-1.4-0.1-2.1-0.3c-0.7-0.1-1.3-0.3-1.9-0.7c-0.5-0.4-1-0.8-1.3-1.4
				c-0.3-0.7-0.5-1.4-0.5-2.1h2.3C-32.5,2.7-32.4,3.1-32.1,3.5"/>
			<rect x="-20.3" y="-6.9" class="st2" width="2.3" height="13.4"/>
			<path class="st2" d="M-8.7-6.9v2h-2.7v8.3c0,0.2,0,0.4,0.1,0.6c0,0.1,0.1,0.3,0.2,0.3l0.5,0.2h1.9v2h-3.2l-1-0.5
				c-0.3-0.2-0.5-0.5-0.6-0.8c-0.1-0.5-0.2-1-0.2-1.5v-8.6H-16v-2h2.3v-4h2.3v4H-8.7z"/>
			<path class="st2" d="M3.6,5.6C2.4,6.4,1,6.8-0.3,6.8c-1,0-1.9-0.2-2.8-0.5c-0.8-0.4-1.5-0.9-2.1-1.5c-0.6-0.6-1-1.4-1.2-2.2
				c-0.3-0.9-0.5-1.8-0.5-2.8c0-1,0.2-1.9,0.5-2.8c0.3-0.8,0.7-1.6,1.3-2.2C-4.5-5.8-3.8-6.3-3-6.7C-2.2-7-1.3-7.2-0.4-7.2
				c1.1,0,2.1,0.3,3,0.8c0.8,0.4,1.5,1,2,1.8C5-3.8,5.4-3,5.6-2.1c0.2,0.8,0.3,1.7,0.2,2.6H-4.5c0,0.5,0.1,1.1,0.2,1.6
				c0.1,0.5,0.4,1,0.8,1.4c0.4,0.5,0.8,0.8,1.4,1c0.6,0.2,1.2,0.4,1.9,0.4c0.9,0,1.7-0.2,2.4-0.7c0.6-0.5,1.1-1.2,1.2-2h2.2
				C5.3,3.5,4.6,4.8,3.6,5.6 M3.1-2.9C2.9-3.4,2.6-3.8,2.2-4.1C1.8-4.5,1.4-4.8,1-4.9l-1.5-0.3c-0.5,0-1.1,0.1-1.6,0.3
				C-2.6-4.8-3-4.5-3.3-4.1c-0.4,0.3-0.7,0.7-0.9,1.2C-4.4-2.5-4.5-2-4.5-1.5h7.9C3.4-2,3.3-2.5,3.1-2.9"/>
			<path class="st2" d="M10.5-6.9v1.8h0.1c0.4-0.7,1-1.3,1.7-1.6C13.1-7,14-7.2,14.9-7.2c1,0,1.9,0.2,2.8,0.6
				c0.7,0.4,1.4,0.9,1.9,1.5c0.6,0.7,1,1.4,1.2,2.3c0.3,0.8,0.4,1.7,0.4,2.6c0,0.9-0.1,1.8-0.4,2.7c-0.2,0.8-0.6,1.6-1.1,2.2
				c-0.5,0.7-1.2,1.2-2,1.5c-0.9,0.4-1.8,0.6-2.8,0.6h-1.1l-1.2-0.4c-0.4-0.1-0.8-0.3-1.2-0.6c-0.4-0.3-0.7-0.6-0.9-1h-0.1v6.8H8.2
				V-6.9H10.5z M18.7-2.1c-0.1-0.6-0.4-1.1-0.8-1.6c-0.3-0.5-0.8-0.9-1.3-1.1c-0.6-0.3-1.2-0.4-1.9-0.4c-0.7,0-1.4,0.1-2,0.4
				c-0.5,0.3-0.9,0.7-1.3,1.1C11-3.2,10.8-2.6,10.6-2c-0.2,0.6-0.3,1.2-0.3,1.8c0,0.6,0.1,1.3,0.3,1.9c0.1,0.6,0.4,1.1,0.7,1.6
				c0.4,0.5,0.9,0.8,1.4,1.1c0.6,0.3,1.3,0.5,2,0.5c1.3,0,2.5-0.6,3.2-1.6c0.3-0.5,0.6-1.1,0.7-1.7c0.2-0.6,0.2-1.3,0.2-1.9
				C18.8-0.9,18.8-1.5,18.7-2.1"/>
			<path class="st2" d="M23.7-2.9c0.3-0.8,0.7-1.6,1.3-2.3c0.6-0.7,1.3-1.1,2.1-1.4C28-7,29-7.2,30-7.2c1,0,1.9,0.2,2.8,0.6
				c0.8,0.3,1.5,0.7,2.1,1.4c0.6,0.7,1,1.5,1.3,2.3c0.3,0.9,0.5,1.8,0.5,2.7c0,1-0.2,1.9-0.5,2.8c-0.3,0.8-0.7,1.6-1.3,2.2
				c-0.6,0.7-1.3,1.1-2.1,1.4c-0.9,0.4-1.8,0.6-2.8,0.6c-1,0-2-0.2-2.9-0.6c-0.8-0.3-1.5-0.7-2.1-1.4c-0.6-0.6-1-1.4-1.3-2.2
				c-0.3-0.9-0.4-1.9-0.4-2.8C23.2-1.1,23.4-2,23.7-2.9 M26,2c0.2,0.6,0.5,1.1,0.9,1.6c0.4,0.4,0.9,0.7,1.4,0.9c1,0.5,2.3,0.5,3.3,0
				c0.5-0.2,1-0.5,1.4-0.9c0.4-0.5,0.7-1,0.9-1.6c0.2-0.7,0.4-1.5,0.4-2.2c0-0.7-0.2-1.4-0.4-2.1c-0.2-0.6-0.5-1.2-0.9-1.6
				c-0.4-0.5-0.9-0.8-1.4-1C31-5.1,30.5-5.2,30-5.2c-0.6,0-1.2,0.1-1.7,0.3c-0.5,0.2-1,0.5-1.4,1c-0.4,0.4-0.7,1-0.9,1.6
				c-0.2,0.7-0.3,1.4-0.3,2.1C25.6,0.5,25.7,1.3,26,2"/>
			<rect x="39.5" y="-6.9" class="st2" width="2.3" height="13.4"/>
			<path class="st2" d="M47.4-6.9v2.2l0,0c0.9-1.6,2.6-2.6,4.5-2.5c0.8,0,1.6,0.1,2.3,0.4c0.6,0.2,1.1,0.6,1.5,1
				c0.3,0.4,0.6,1,0.7,1.5c0.2,0.6,0.3,1.3,0.3,2v8.8h-2.3v-9.1c0-0.7-0.2-1.4-0.7-1.9c-0.6-0.5-1.3-0.8-2.1-0.7
				c-0.6,0-1.2,0.1-1.8,0.3c-0.5,0.2-0.9,0.5-1.3,0.8c-0.3,0.4-0.6,0.9-0.7,1.4c-0.2,0.5-0.3,1.1-0.3,1.6v7.6h-2.3V-6.9H47.4z"/>
			<path class="st2" d="M65.9-6.9v2h-2.8v8.3c0,0.2,0.1,0.4,0.1,0.6c0,0.2,0.1,0.3,0.3,0.3l0,0l0.5,0.2h1.9v2h-3.3
				c-0.4-0.1-0.7-0.3-1-0.5c-0.2-0.2-0.4-0.5-0.5-0.8c-0.2-0.5-0.2-1-0.2-1.5v-8.6h-2.4v-2h2.4v-4h2.2v4H65.9z"/>
			<path class="st2" d="M-65.1-1.7l2.1,2l6.6,6.2l2.8-2.8c0.3-0.3,0.3-0.9,0-1.2l-2.6-2.3l0,0L-59-2.5c-0.3-0.4-0.3-0.9,0-1.3
				l7.6-7.3l-3.5-3.3L-63-6.5l-2.1,2c-0.8,0.7-0.8,1.9-0.1,2.7C-65.2-1.8-65.2-1.8-65.1-1.7"/>
			<path class="st2" d="M-42.6,1.8l-2.1-2.1l-6.6-6.1l-2.8,2.7c-0.3,0.3-0.3,0.9,0,1.2l2.6,2.3l0,0l2.8,2.7c0.3,0.4,0.3,0.9,0,1.3
				l-7.6,7.3l3.5,3.3l8.1-7.8l2.1-2.1c0.7-0.7,0.8-1.8,0.2-2.5C-42.5,1.9-42.6,1.8-42.6,1.8"/>
			<path class="st2" d="M-17.9-9.6c0,0.7-0.6,1.3-1.3,1.3c-0.7,0-1.3-0.6-1.3-1.3s0.6-1.3,1.3-1.3l0,0
				C-18.5-10.9-17.9-10.3-17.9-9.6"/>
			<path class="st2" d="M41.9-9.6c0,0.7-0.6,1.3-1.3,1.3c-0.7,0-1.3-0.6-1.3-1.3c0-0.7,0.6-1.3,1.3-1.3
				C41.3-10.9,41.9-10.3,41.9-9.6C41.9-9.6,41.9-9.6,41.9-9.6"/>
		</g>
	</g>
</symbol>
<symbol  id="Title-1" viewBox="-212 -60.2 424 120.3">
	<text transform="matrix(1 0 0 1 -211.9873 1.3789)" class="st2" style="font-family:'Raleway-Medium'; font-size:71.9761px;">FRONT-END</text>
	<text transform="matrix(1 0 0 1 -147.4087 49.3633)" class="st2" style="font-family:'Raleway-Medium'; font-size:47.9841px;">PERFORMANCE</text>
</symbol>
<symbol  id="tagline" viewBox="-168.2 -8.1 336.5 16.2">
	<text transform="matrix(1 0 0 1 -168.2461 4.71)" class="st2" style="font-family:'Raleway-SemiBold'; font-size:15px;">BECAUSE EVERY SECOND COSTS REAL MONEY</text>
</symbol>
<title>Frontend-cover</title>
<g id="Layer_2_1_">
	<g id="Book_1">
		<g>
			
				<use xlink:href="#SitePoint_Logo_"  width="131.9" height="28.8" x="-65.9" y="-14.4" transform="matrix(1 0 0 -1 412.75 456.191)" style="overflow:visible;"/>
		</g>
		
			<use xlink:href="#BG-single"  width="503" height="659" x="-251.5" y="-329.5" transform="matrix(1 0 0 1 251.5 329.5)" style="overflow:visible;"/>
		
			<use xlink:href="#tagline"  width="336.5" height="16.2" id="tagline-3" x="-168.2" y="-8.1" transform="matrix(1 0 0 1 252.0998 607.115)" style="overflow:visible;"/>
		<g id="_Group_">
			<path class="st3" d="M208.6,511.6c0.9-0.6,1.8-1.3,2.7-2.1c49.1-17.9,92.2-43.3,130.3-79c-8.7,14.2-18.5,27.7-29.2,40.4
				c-28.2,18.6-58.5,33.7-90.3,45C216.7,514.3,214,513.4,208.6,511.6z"/>
			<path class="st3" d="M344.1,437.9c-39.7,33.1-83.5,56.1-132.8,71.6l-7-2.4c54.5-19.1,101.6-47.3,142.2-88.5
				C345.7,426.3,345.2,430.2,344.1,437.9z"/>
			<path class="st2" d="M204.3,507.1l-1.5-7c55.3-18.5,103.2-46.7,144.3-88.3c-0.2,2.7-0.3,4.1-0.6,6.8
				C305.9,459.8,258.8,488,204.3,507.1z"/>
			<path class="st4" d="M344.1,437.9c1.5-10.4,2.1-15.7,3-26.1c6.9-9.2,13.3-18.4,19.5-28.2l4,2.5
				C363.1,404,354.2,421.3,344.1,437.9z"/>
			<path class="st3" d="M344.1,437.9c15.8-12.9,30.3-27.4,43.2-43.2c-6.8-3.2-10.2-5-16.7-8.6C363.1,404,354.2,421.3,344.1,437.9z"
				/>
			<path class="st3" d="M387.3,394.7c3.5-8.7,5-13,7.7-21.7c-7.9,4.8-16,9.2-24.4,13.1C377.1,389.7,380.5,391.5,387.3,394.7z"/>
			<path class="st4" d="M347.1,411.8c6.9-9.2,13.3-18.4,19.5-28.2c-7.3-4.3-14.4-8.9-21.2-13.9C346.5,383.7,347.1,397.8,347.1,411.8
				z"/>
			<path class="st2" d="M297.1,454.1c-10.6-16.3-20.4-33.2-29.2-50.6c9.4-7.8,18.1-15.6,26.9-24.3c17.1-1.5,34.1-4.7,50.6-9.5
				c1.1,14,1.7,28.1,1.7,42.1C331.7,427.3,315,441.5,297.1,454.1z"/>
			<path class="st3" d="M267.9,403.5l-5.9-3.9c6.6-5.8,12.9-12,18.8-18.6c5.6-0.6,8.4-0.9,14-1.8C286,387.9,277.3,395.7,267.9,403.5
				z"/>
			<path class="st2" d="M294.8,379.2c-8.8,8.7-17.5,16.5-26.9,24.3l-5.9-3.9"/>
			<path class="st2" d="M208.6,511.6l2.6,6.6c35.3-11.8,68.8-28.3,99.6-49c-0.6-2-0.9-2.9-1.6-4.9
				C278,484.7,244.2,500.6,208.6,511.6z"/>
			<path class="st2" d="M310.8,469.2c19.7-12.7,38.4-27.1,55.7-42.9c-8.1,4.3-12.2,6.3-20.5,10.1c-11.8,9.9-24.1,19.2-36.8,27.9
				C309.9,466.3,310.2,467.2,310.8,469.2z"/>
			<path class="st3" d="M387.3,394.7l10.1,6.4c5.8-8,8.5-12,13.5-20.2C403.3,385.9,395.4,390.5,387.3,394.7z"/>
			<path class="st4" d="M346,436.4c9-3.8,13.5-5.9,22.3-10.3l0.2-0.2c17.9-3.5,35.5-8.1,52.7-14c-8.8-3.5-17.4-7.5-25.8-12l-2-1.2
				l-6.1-4C374.6,409.6,360.8,423.5,346,436.4z"/>
			<path class="st2" d="M310.8,469.2c19.7-12.7,38.4-27.1,55.7-42.9c18.5-3.6,36.8-8.4,54.7-14.4c3.4,24.6,5.4,49.3,6.1,74.1
				c-16.5,14.2-33.9,27.3-52,39.3C352.1,508.6,330.6,489.8,310.8,469.2z"/>
			<path class="st3" d="M427.3,486l-6.3,0.3c-16.9,15.1-34.7,29.1-53.5,41.8l8.9-0.7C394.3,514.7,411.3,500.9,427.3,486z"/>
			<path class="st5" d="M91,383.1l-2.5-1c0,0,0.3-1.3,0.7-2.7l0.8-2.7l2.4,1.2l-0.8,2.6L91,383.1z"/>
			<path class="st5" d="M89.8,391.2l-2.6-0.7v-0.9c0.1-0.5,0.2-1.3,0.3-2c0.1-0.9,0.2-1.9,0.4-2.8l2.5,0.9l-0.4,2.8
				c-0.1,0.7-0.1,1.4-0.2,1.9L89.8,391.2z"/>
			<path class="st5" d="M89.9,399.7l-2.6-0.4c0-0.3,0-0.6-0.1-0.9c-0.1-0.7-0.1-1.4-0.1-2.1c-0.1-1.5-0.1-3-0.1-3l2.6,0.7
				c0,0,0,1.4,0.1,2.8s0.1,1.5,0.1,2C89.9,399.1,89.9,399.4,89.9,399.7z"/>
			<path class="st5" d="M91.9,408.4h-2.5l-1-3.1c-0.4-1.6-0.7-3.1-0.7-3.1l2.6,0.3c0,0,0.3,1.4,0.7,2.9S91.9,408.4,91.9,408.4z"/>
			<path class="st5" d="M96.7,416.6l-2,1c-0.9-0.9-1.6-1.9-2.2-3c-0.5-0.7-0.9-1.5-1.3-2.1l-0.5-0.9l2.5-0.4
				C94.2,413.1,95.4,414.9,96.7,416.6z"/>
			<path class="st5" d="M104.5,423c-0.3,0.6-0.6,1.2-0.9,1.9c-1.2-0.6-2.3-1.3-3.4-2.1c-0.8-0.5-1.5-1.1-2.1-1.7l-0.9-0.8L99,419
				l0.8,0.7c0.5,0.5,1.1,1,1.8,1.4C102.5,421.8,103.5,422.4,104.5,423z"/>
			<path class="st5" d="M114.2,426.3c0,0.8,0.1,1.5,0.2,2.3l-1.1-0.2h-0.6l-0.7-0.2l-1.3-0.4c-1.3-0.3-2.5-0.8-3.7-1.3
				c0.2-0.7,0.4-1.3,0.6-2l3.3,1.1l1.2,0.3l0.4,0.2h0.6L114.2,426.3z"/>
			<path class="st5" d="M122.8,425.5l1.9,2c-1,0.5-2.1,0.9-3.2,1.1c-1.1,0.2-2.3,0.3-3.5,0.3c-0.3-0.8-0.5-1.5-0.7-2.3
				c1,0,2-0.1,3-0.2C121.2,426.2,122,425.9,122.8,425.5z"/>
			<path class="st5" d="M125,419.5l2.5-0.2c0.4,1,0.6,2.2,0.5,3.3c0,0.7-0.2,1.4-0.5,2.1l-0.5,0.8l-2.5-1.5c0.2-0.2,0.3-0.4,0.4-0.6
				c0.3-0.5,0.4-1,0.4-1.5C125.4,421.1,125.3,420.3,125,419.5z"/>
			<path class="st5" d="M118.6,414.8c-0.1-0.9-0.1-1.4-0.2-2.3c1.3,0.2,2.6,0.6,3.8,1.2c0.8,0.5,1.6,1,2.4,1.6l0.9,0.9l-1.9,1.2
				c-0.7-0.7-1.4-1.3-2.3-1.7C120.5,415.3,119.5,415,118.6,414.8z"/>
			<path class="st5" d="M110.3,416.2l-1.7-2.2l0.9-0.4l2.1-0.6c1.1-0.3,2.1-0.5,3.2-0.6c0.3,0.7,0.6,1.5,0.9,2.3l-2.8,0.5l-1.8,0.6
				L110.3,416.2z"/>
			<path class="st5" d="M103.4,420.4l-2.2-1.9l2.3-1.7l1.7-1l0.8-0.5l1.8,2.1l-0.7,0.4l-1.6,1L103.4,420.4z"/>
			<path class="st5" d="M98.2,426.3l-2.5-1.6l1.7-2.2c0.4-0.6,0.9-1,1.2-1.4l0.6-0.6l2.4,1.8c-0.2,0.2-0.4,0.4-0.6,0.6
				c-0.4,0.4-0.9,0.8-1.2,1.3L98.2,426.3z"/>
			<path class="st5" d="M94.6,433.2l-2.8-1.4l1.1-2.5l1.4-2.3l2.6,1.5l-1.3,2.3C95.2,431.6,94.9,432.4,94.6,433.2z"/>
			<path class="st5" d="M92.2,440.8l-2.9-1.1c0-0.3,0.1-0.6,0.2-0.9c0.1-0.6,0.3-1.2,0.5-1.8l0.8-2.7l2.8,1.3l-0.8,2.6
				c-0.1,0.6-0.3,1.3-0.4,1.8C92.3,440.3,92.2,440.5,92.2,440.8z"/>
			<path class="st5" d="M91.2,448.9l-3-0.9l0.2-2.8c0.1-0.9,0.2-1.9,0.4-2.8l2.9,1c-0.2,0.9-0.3,1.8-0.4,2.7
				C91.3,447.5,91.2,448.9,91.2,448.9z"/>
			<path class="st5" d="M91.6,457.5l-3.1-0.7c-0.1,0-0.4-5.9-0.4-5.9l3,0.8C91.1,451.7,91.4,457.4,91.6,457.5z"/>
			<path class="st5" d="M93.4,466.2l-3-0.2c0,0-1.6-6.2-1.4-6.2l3,0.5C91.8,460.3,93.4,466.2,93.4,466.2z"/>
			<path class="st5" d="M97,475.1h-2.9c0,0-0.8-1.5-1.5-3.1l-1.2-3l3,0.2l1.2,3C96,473.2,96.5,474.2,97,475.1z"/>
			<path class="st5" d="M102.5,483.9l-2.7,0.5l-0.7-0.9l-1.4-2.1l-2-3.1l2.8-0.2l2,2.9l1.3,2L102.5,483.9z"/>
			<path class="st5" d="M110.2,492l-2.2,1.1c0,0-6-5.6-5.7-5.7l2.5-0.8C104.6,486.7,110.2,492,110.2,492z"/>
			<path class="st5" d="M120.1,498.9l-1.5,1.6l-3.8-2.2l-2.4-1.8c-0.4-0.2-0.8-0.5-1.1-0.8l1.9-1.3l1,0.8l2.3,1.5L120.1,498.9z"/>
			<path class="st5" d="M131.4,504.3c-0.2,0.7-0.5,1.3-0.9,1.9c0,0-2-0.7-4.1-1.7l-2.8-1.3l-1.2-0.6l1.3-1.8l1.2,0.6l2.6,1.2
				L131.4,504.3z"/>
			<path class="st5" d="M143.5,508.3c-0.1,0.8-0.2,1.3-0.3,2.1l-4.3-1.2l-4.3-1.4c0.3-0.7,0.5-1.3,0.7-2l4.1,1.3L143.5,508.3z"/>
			<path class="st5" d="M155.9,510.9c0,0.9,0.1,1.3,0.1,2.2l-4.3-0.8l-3-0.6l-1.3-0.3c0.1-0.8,0.1-1.3,0.2-2.1l1.3,0.3l2.8,0.5
				L155.9,510.9z"/>
			<path class="st5" d="M168.3,512.2l0.5,2.2l-4.3-0.3l-4.3-0.4c-0.1-0.9-0.1-1.4-0.2-2.3l4.1,0.5L168.3,512.2z"/>
			<path class="st5" d="M180.5,512.4l0.8,2.2H173l-0.7-2.2H180.5z"/>
			<path class="st5" d="M192.4,511.7c0.4,0.7,0.8,1.4,1.1,2.1l-4,0.4c-2,0.2-4.1,0.2-4.1,0.2c-0.4-0.7-0.7-1.4-0.9-2.2
				c0,0,2,0,4-0.2L192.4,511.7z"/>
		</g>
		
			<use xlink:href="#Title-1"  width="424" height="120.3" x="-212" y="-60.2" transform="matrix(1.0003 0 0 1.0003 273.15 212.48)" style="overflow:visible;"/>
	</g>
</g>
</svg>
