<?xml version="1.0" encoding="utf-8"?>
<!-- Generator: Adobe Illustrator 22.1.0, SVG Export Plug-In . SVG Version: 6.00 Build 0)  -->
<svg version="1.1" id="Layer_1" xmlns="http://www.w3.org/2000/svg" xmlns:xlink="http://www.w3.org/1999/xlink" x="0px" y="0px"
	 viewBox="0 0 720 576" style="enable-background:new 0 0 720 576;" xml:space="preserve">
<style type="text/css">
	.st0{fill:#E0E1E2;}
	.st1{fill:#FFFFFF;}
	.st2{fill:#353847;}
	.st3{fill:#DADBDC;}
	.st4{fill:#C3C5C6;}
	.st5{fill:#93D000;stroke:#000000;stroke-miterlimit:10;}
</style>
<symbol  id="Plane" viewBox="-190.6 -103.5 381.1 207">
	<g id="_Group__1_">
		<path class="st0" d="M190.6-78.3C107.7-61.5,29.6-31.7-44.3,9.3c0.2,2.6,0.3,3.9,0.4,6.5C29.4-27.5,107.4-59.4,190.6-78.3z"/>
		<path class="st1" d="M73.2-46.2C32.8-30-6.4-10.7-44.1,11.3c-2.6-25-4.2-49.9-4.9-74.9c15.4-13.8,31-27,47.1-39.9
			c26,6.7,51.8,14.1,77.4,22.2C74.6-69.6,73.7-57.9,73.2-46.2z"/>
		<path class="st1" d="M190.6-78.3c-39.8,7.8-79,18.6-117.3,32.1c0.5-11.7,1.3-23.4,2.3-35.1C113.9-82.8,152.3-81.7,190.6-78.3z"/>
		<path class="st0" d="M-1.9-103.5c-13.7,1.3-27.4,3-41.1,5C-53.6-88.7-63.8-78.7-74-68.6c10.1,1.9,15.1,2.9,25.1,5
			C-33.6-77.4-17.9-90.6-1.9-103.5z"/>
		<path class="st1" d="M190.6-78.3C107.4-59.4,29.4-27.5-43.9,15.8c-11.4,24.5-21.7,49.3-31.2,74.6c15.6-1.8,31.3-3.2,47.1-4.2
			C-0.2,48.4,30.5,12.8,63.8-20.3C104.4-43.1,146.8-62.5,190.6-78.3z"/>
		<path class="st0" d="M190.6-78.3c-54.3,23.1-106,52-154.2,86.2c8.9-9.6,18.1-19,27.5-28.2C104.4-43.1,146.8-62.5,190.6-78.3z"/>
		<path class="st0" d="M-28.1,86.2c-15.8,0.5-31.6,1.4-47.3,2.7c-9.1,4.6-18,9.4-26.9,14.3l22.6,0.3C-62.7,97.3-45.5,91.5-28.1,86.2
			z"/>
		<path class="st2" d="M-82.5,23.5c0.3,1.6,0.4,2.4,0.6,3.9l3.1-0.9l3.2-0.6v-4l-3.5,0.6L-82.5,23.5z"/>
		<path class="st2" d="M-92.2,28.1l1,3.6c1-0.6,2-1.1,3.1-1.6l3.1-1.5c-0.3-1.5-0.4-2.2-0.7-3.8l-3.3,1.6L-92.2,28.1z"/>
		<path class="st2" d="M-101.5,33.8l1.2,3.5l3-2c1-0.7,2-1.3,3.1-1.8c-0.5-1.5-0.7-2.2-1.1-3.6l-3.1,1.9L-101.5,33.8z"/>
		<path class="st2" d="M-110.2,40.2c0.3,1.4,0.4,2.1,0.7,3.5s0.4,0,1-0.5l2.1-1.6l3.1-2.2c-0.4-1.4-0.7-2.1-1.2-3.5l-2.9,2.1
			L-110.2,40.2z"/>
		<path class="st2" d="M-118.4,47.2v2.2c0.9-0.9,1.9-1.7,2.9-2.5c1.4-1.1,2.8-2.3,2.9-2.1s-0.2-1.4-0.3-2.4l-2.8,2.4
			C-116.6,45.6-117.5,46.4-118.4,47.2z"/>
		<path class="st2" d="M-126.2,55c-0.1,1-0.2,1.5-0.3,2.5l2.7-2.8l2.7-2.7c0-0.8,0-1.5,0.1-2.3l-2.7,2.6
			C-124.9,53.7-126.2,55-126.2,55z"/>
		<path class="st2" d="M-132.5,64.6c-0.2,1.1-0.4,1.7-0.6,2.8s0.8-1.9,1.8-3.7l2.3-3.2c0.2-1.1,0.3-1.6,0.4-2.6l-2.2,3.1
			C-131.4,62.2-132,63.4-132.5,64.6z"/>
		<path class="st2" d="M-135.8,76.2c-0.3,1.3-0.4,1.9-0.7,3.3c-0.3,1.4,0.4-2.1,0.9-4.2s1.1-4,1.1-4s0.4-1.8,0.6-3s-0.6,1.9-1.1,3.9
			L-135.8,76.2z"/>
		<path class="st2" d="M-135.9,87.9c-0.3,1.6-0.4,2.3-0.7,3.8c-0.4-1.3-0.6-2.6-0.6-4c-0.1-1.4,0-2.8,0.1-4.2
			c0.3-1.1,0.6-2.3,0.8-3.4c-0.1,1.3-0.2,2.7-0.1,4C-136.3,85.4-136.2,86.7-135.9,87.9z"/>
		<path class="st2" d="M-127.9,89.5l-0.5,3.9c-1,0.7-2,1.2-3.1,1.6c-1.1,0.4-2.2,0.3-3.2-0.3c0.2-1.6,0.4-2.4,0.7-3.9
			c0.9,0.6,2.1,0.7,3.1,0.3C-129.8,90.7-128.8,90.2-127.9,89.5z"/>
		<path class="st2" d="M-120.5,81.1c0,1.4,0,2.1-0.1,3.6c-0.7,1.2-1.4,2.3-2.3,3.3c-0.5,0.8-1,1.5-1.7,2.1l-0.9,0.9
			c0.2-1.5,0.2-2.3,0.4-3.8s1.4-1.2,2.5-2.8C-121.8,83.4-121,82.3-120.5,81.1z"/>
		<path class="st2" d="M-117.5,69.4c0.1,1.3,0.1,1.9,0.1,3.1c0,1.4-0.2,2.9-0.4,4.3c-0.2,1-0.4,1.9-0.7,2.8
			c-0.1,0.4-0.2,0.9-0.4,1.3c0.1-1.3,0.1-2,0.1-3.4l0.3-1.2c0.3-0.9,0.5-1.9,0.7-2.8C-117.5,72.1-117.4,70.8-117.5,69.4z"/>
		<path class="st2" d="M-119.8,58.1c0,1.1-0.1,1.6-0.1,2.6c0.2,0.4,0.4,0.8,0.5,1.2l0.8,2.6c0.3,0.9,0.5,1.8,0.6,2.7l0.3,1.2
			c0-1.1,0-1.7-0.1-2.9c0-0.4-0.1-0.8-0.2-1.2c-0.1-0.9-0.3-1.8-0.6-2.6l-0.8-2.5C-119.5,58.8-119.6,58.5-119.8,58.1z"/>
		<path class="st2" d="M-125.2,48.9c0,0.7-0.1,1.5-0.2,2.2l2.2,3l1.8,3.2c0.1-0.8,0.1-1.7,0.1-2.5l-1.8-3.1L-125.2,48.9z"/>
		<path class="st2" d="M-132.4,41.7l-0.5,2l0.9,0.7l1.8,1.5l1.7,1.7l0.7,0.8c0.2-0.8,0.2-1.2,0.4-2.1l-0.8-0.8l-1.6-1.6
			C-130.6,43.1-131.4,42.4-132.4,41.7z"/>
		<path class="st2" d="M-141.1,36.9c-0.4,1.5-0.5,2.2-0.9,3.7l0.9,0.4c0.7,0.2,1.4,0.5,2,0.8l0.5,0.3l0.8-0.3
			c0.4-0.2,0.8-0.4,1.3-0.5l0.9,0.6c0.2-0.8,0.4-1.2,0.6-2l-0.8-0.6l-2-1c-0.7-0.4-1.5-0.8-2.3-1L-141.1,36.9z"/>
		<path class="st2" d="M-150.9,34.8c-0.2,1.5-0.3,2.3-0.4,3.8l3.1,0.4l2.1,0.5l1,0.2c0.4-1.5,0.6-2.2,0.9-3.7l-1-0.2l-2.3-0.5
			L-150.9,34.8z"/>
		<path class="st2" d="M-160.9,34.7c0,1.4,0,2.2-0.1,3.7h6.5c0.1-1.5,0.2-2.2,0.3-3.7H-160.9z"/>
		<path class="st2" d="M-170.9,35.8c0.1,1.4,0.1,2.1,0.2,3.6l3.3-0.5l3.2-0.3v-3.7l-3.3,0.4L-170.9,35.8z"/>
		<path class="st2" d="M-180.8,37.7c0.2,1.4,0.2,2.2,0.4,3.6l3.2-0.7l3.3-0.7c-0.1-1.4-0.1-2.1-0.2-3.6l-3.4,0.7L-180.8,37.7z"/>
		<path class="st2" d="M-190.6,40.3l0.5,3.5l3.3-0.9l3.2-0.9c-0.2-1.4-0.2-2.1-0.4-3.5l-3.3,0.9L-190.6,40.3z"/>
	</g>
</symbol>
<symbol  id="Plane2" viewBox="-172.6 -123.6 345.2 247.2">
	<polygon class="st3" points="-53.8,78.8 -98.8,28.8 5.6,93.1 	"/>
	<polygon class="st3" points="-53.8,78.8 -69.6,74.9 -98.8,28.8 	"/>
	<polygon class="st1" points="-69.6,74.9 5.6,93.1 -93.6,123.6 -99.9,121.1 	"/>
	<polygon class="st1" points="-57.8,54.1 -38.2,25.1 -6.9,27.8 5.6,93.1 	"/>
	<polygon class="st1" points="-6.9,27.8 147.7,45.6 5.6,93.1 	"/>
	<polygon class="st1" points="-38.2,25.1 -9.2,-4.8 61.4,-4.8 -6.9,27.8 	"/>
	<polygon class="st1" points="-6.9,27.8 145.2,33.3 61.4,-4.8 	"/>
	<polygon class="st3" points="145.2,33.3 170.6,48.4 172.6,53.8 147.7,45.6 -40.4,28.2 -38.2,25.1 -36.6,23.3 	"/>
	<polygon class="st4" points="114.4,56.6 147.7,45.6 172.6,53.8 	"/>
	<polygon class="st3" points="6.1,-4.8 -28.1,-45.2 61.4,-4.8 	"/>
	<polygon class="st3" points="-28.1,-45.2 6.1,-4.8 -9.2,-4.8 	"/>
	<path class="st2" d="M-71.2,14.6l-1,2.4l3,1.4l3.2,1.2l0.9-2.5l-3.1-1.2L-71.2,14.6z"/>
	<path class="st2" d="M-79.7,10.1l-1.4,2.3l0.9,0.5l2,1.2l3,1.5l1.2-2.3l-2.9-1.5l-2-1.1L-79.7,10.1z"/>
	<path class="st2" d="M-87.6,4.6l-1.7,2l0.8,0.7l1.8,1.4l2.8,1.9l1.5-2.1L-85,6.6l-1.8-1.4L-87.6,4.6z"/>
	<path class="st2" d="M-94.4-2.1l-2.1,1.6l2.3,2.6c0.8,0.8,1.6,1.6,2.4,2.3l1.8-1.9l-2.3-2.2L-94.4-2.1z"/>
	<path class="st2" d="M-98.9-10.2l-2.5,0.8c0.4,1.1,0.8,2.2,1.3,3.2l1.1,2.1c0.2,0.3,0.4,0.6,0.6,0.9l2.2-1.4
		C-97.2-6.4-98.1-8.3-98.9-10.2z"/>
	<path class="st2" d="M-99.7-19.5l-2.6-0.4c-0.1,0-0.1,1.8-0.2,3.5c-0.1,0.8,0,1.6,0.2,2.4c0.1,0.4,0.1,0.7,0.1,1.1l2.6-0.4
		c0-0.3,0-0.7-0.1-1c-0.1-0.7-0.2-1.4-0.2-2.1C-99.8-17.4-99.8-18.4-99.7-19.5z"/>
	<path class="st2" d="M-96.4-28.1l-2.2-1.4l-0.6,0.9l-0.2,0.4c-0.1,0.2-0.2,0.4-0.3,0.6l-0.5,1.2c-0.5,1-0.9,2.1-1.3,3.2l2.5,0.8
		c0.3-1,0.7-2,1.2-2.9c0.1-0.4,0.3-0.8,0.4-1.1l0.2-0.4l0.3-0.4L-96.4-28.1z"/>
	<path class="st2" d="M-89.8-33.9l-0.8-2.5c-1.2,0.5-2.3,1-3.3,1.7c-0.9,0.8-1.8,1.6-2.6,2.5l1.9,1.7c0.7-0.7,1.5-1.4,2.3-2
		C-91.5-33-90.6-33.5-89.8-33.9z"/>
	<path class="st2" d="M-82.1-32.2l1.9-1.8c-0.9-0.9-1.9-1.7-3.1-2.2c-0.8-0.4-1.7-0.6-2.6-0.6H-87v2.6h0.8c0.6,0,1.2,0.2,1.8,0.5
		C-83.5-33.4-82.7-32.9-82.1-32.2z"/>
	<path class="st2" d="M-81.5-24.9l2.2,1.5c0.6-1.1,1.1-2.3,1.3-3.6c0.2-0.9,0.2-1.8,0-2.7c-0.1-0.4-0.2-0.8-0.3-1.2l-2.5,0.8
		c0.3,0.9,0.4,1.8,0.2,2.7C-80.7-26.5-81-25.6-81.5-24.9z"/>
	<path class="st2" d="M-88.7-19.6l1,2.4l1-0.4l2.1-1.1c1-0.6,2-1.3,2.9-2l-1.7-2c-0.8,0.7-1.6,1.3-2.5,1.8l-1.9,0.9L-88.7-19.6z"/>
	<path class="st2" d="M-97.9-17.2l0.4,2.7l3.3-0.7l2.3-0.5l1-0.3l-0.7-2.5l-1,0.2l-2.1,0.6L-97.9-17.2z"/>
	<path class="st2" d="M-107.5-17.1l-0.2,2.7h3.4c0.8,0.1,1.6,0.1,2.4,0h1v-2.7h-3.3H-107.5z"/>
	<path class="st2" d="M-117-18.5l-0.6,2.5l3.3,0.8l3.4,0.4l0.3-2.6l-3.2-0.4L-117-18.5z"/>
	<path class="st2" d="M-126.2-21.2l-0.9,2.5l1,0.3l2.2,0.7l3.2,1l0.7-2.5l-3.1-1l-2.1-0.7L-126.2-21.2z"/>
	<path class="st2" d="M-135.1-25.1l-1.2,2.4l3.1,1.4c1,0.5,2,0.9,3,1.3l1-2.4l-3-1.3L-135.1-25.1z"/>
	<path class="st2" d="M-143.6-29.9l-1.5,2.2l5.8,3.5l1.3-2.3C-138-26.5-143.7-29.8-143.6-29.9z"/>
	<path class="st2" d="M-151.4-35.7l-1.7,2c0,0,5.2,4.3,5.3,4.1l1.6-2.1C-146.2-31.6-151.4-35.7-151.4-35.7z"/>
	<path class="st2" d="M-158.2-42.4l-2,1.7c0,0,1.1,1.3,2.3,2.5l2.5,2.3l1.7-1.9L-156-40C-157.2-41.2-158.2-42.4-158.2-42.4z"/>
	<path class="st2" d="M-163.9-50.1l-2.3,1.3c0.2,0.3,0.4,0.6,0.6,0.9c0.4,0.7,0.8,1.3,1.3,1.9l2,2.8l2-1.6l-1.8-2.7l-1.3-1.8
		L-163.9-50.1z"/>
	<path class="st2" d="M-168.1-58.8l-2.5,0.8c0,0,2.5,6.4,2.7,6.3l2.4-1.2C-165.8-52.8-168.1-58.8-168.1-58.8z"/>
	<path class="st2" d="M-169.8-68.1l-2.7,0.2l0.4,3.3c0.1,0.8,0.2,1.6,0.4,2.4l0.3,1l2.5-0.6c0-0.3-0.1-0.7-0.2-1
		c-0.2-0.7-0.3-1.4-0.4-2.1C-169.7-66.5-169.8-68.1-169.8-68.1z"/>
	<path class="st2" d="M-169.6-77.7l-2.7-0.3c-0.1,1.1-0.2,2.3-0.2,3.4c0,0.8-0.1,1.7-0.1,2.3v1.1h2.7c-0.1-0.3-0.1-0.7-0.1-1
		c0.1-0.7,0.1-1.5,0.1-2.2C-169.8-76.1-169.6-77.7-169.6-77.7z"/>
	<path class="st2" d="M-167.9-87.2l-2.6-0.7l-0.8,3.3l-0.6,3.3l2.6,0.4l0.6-3.2L-167.9-87.2z"/>
	<path class="st2" d="M-164.9-96.5l-2.5-0.9c0,0-0.5,1.6-1.1,3.1c-0.3,0.7-0.5,1.4-0.7,2.2l-0.3,1l2.5,0.8l0.3-1l0.7-2.1
		L-164.9-96.5z"/>
	<path class="st2" d="M-161.1-105.4l-2.3-1.1c0,0-0.8,1.4-1.5,3s-1.3,3-1.3,3l2.4,1.1c0,0,0.6-1.5,1.3-3L-161.1-105.4z"/>
	<path class="st2" d="M-156.2-113.9l-2.3-1.4c0,0-0.8,1.5-1.7,2.9l-1.6,2.9l2.3,1.3l1.6-2.9L-156.2-113.9z"/>
	<path class="st2" d="M-150.9-122.1l-2.2-1.5l-1.8,2.8c-1,1.3-1.9,2.8-1.9,2.8l2.3,1.4l1.7-2.8L-150.9-122.1z"/>
</symbol>
<rect x="50.3" y="86.2" class="st5" width="625" height="437.7"/>
<use xlink:href="#Plane"  width="381.1" height="207" x="-190.6" y="-103.5" transform="matrix(0.5489 0 0 0.5489 245.0461 374.6634)" style="overflow:visible;"/>
<g>
	
		<use xlink:href="#Plane2"  width="345.2" height="247.2" x="-172.6" y="-123.6" transform="matrix(0.5604 0 0 0.5604 483.2023 212.7325)" style="overflow:visible;"/>
</g>
<g>
	
		<use xlink:href="#Plane2"  width="345.2" height="247.2" x="-172.6" y="-123.6" transform="matrix(0.5604 0 0 0.5604 483.2023 213.7325)" style="overflow:visible;"/>
</g>
</svg>
