<?xml version="1.0" encoding="utf-8"?>
<!-- Generator: Adobe Illustrator 22.1.0, SVG Export Plug-In . SVG Version: 6.00 Build 0)  -->
<svg version="1.1" xmlns="http://www.w3.org/2000/svg" xmlns:xlink="http://www.w3.org/1999/xlink" x="0px" y="0px"
	 viewBox="0 0 503 659" style="enable-background:new 0 0 503 659;" xml:space="preserve">
<style type="text/css">
	.st0{fill:#E0E1E2;}
	.st1{fill:#FFFFFF;}
	.st2{fill:#353847;}
	.st3{fill:#DADBDC;}
	.st4{fill:#C3C5C6;}
	.st5{clip-path:url(#SVGID_3_);}
	.st6{fill:#A7D01F;}
	.st7{fill:url(#SVGID_4_);}
	.st8{fill:url(#SVGID_5_);}
	.st9{fill:url(#SVGID_6_);}
	.st10{fill:#E2E3E4;}
	.st11{fill:#EDEDEE;}
</style>
<symbol  id="Plane" viewBox="-190.6 -103.5 381.1 207">
	<g id="_Group__1_">
		<path class="st0" d="M190.6-78.3C107.7-61.5,29.6-31.7-44.3,9.3c0.2,2.6,0.3,3.9,0.4,6.5C29.4-27.5,107.4-59.4,190.6-78.3z"/>
		<path class="st1" d="M73.2-46.2C32.8-30-6.4-10.7-44.1,11.3c-2.6-25-4.2-49.9-4.9-74.9c15.4-13.8,31-27,47.1-39.9
			c26,6.7,51.8,14.1,77.4,22.2C74.6-69.6,73.7-57.9,73.2-46.2z"/>
		<path class="st1" d="M190.6-78.3c-39.8,7.8-79,18.6-117.3,32.1c0.5-11.7,1.3-23.4,2.3-35.1C113.9-82.8,152.3-81.7,190.6-78.3z"/>
		<path class="st0" d="M-1.9-103.5c-13.7,1.3-27.4,3-41.1,5C-53.6-88.7-63.8-78.7-74-68.6c10.1,1.9,15.1,2.9,25.1,5
			C-33.6-77.4-17.9-90.6-1.9-103.5z"/>
		<path class="st1" d="M190.6-78.3C107.4-59.4,29.4-27.5-43.9,15.8c-11.4,24.5-21.7,49.3-31.2,74.6c15.6-1.8,31.3-3.2,47.1-4.2
			C-0.2,48.4,30.5,12.8,63.8-20.3C104.4-43.1,146.8-62.5,190.6-78.3z"/>
		<path class="st0" d="M190.6-78.3c-54.3,23.1-106,52-154.2,86.2c8.9-9.6,18.1-19,27.5-28.2C104.4-43.1,146.8-62.5,190.6-78.3z"/>
		<path class="st0" d="M-28.1,86.2c-15.8,0.5-31.6,1.4-47.3,2.7c-9.1,4.6-18,9.4-26.9,14.3l22.6,0.3C-62.7,97.3-45.5,91.5-28.1,86.2
			z"/>
		<path class="st2" d="M-82.5,23.5c0.3,1.6,0.4,2.4,0.6,3.9l3.1-0.9l3.2-0.6v-4l-3.5,0.6L-82.5,23.5z"/>
		<path class="st2" d="M-92.2,28.1l1,3.6c1-0.6,2-1.1,3.1-1.6l3.1-1.5c-0.3-1.5-0.4-2.2-0.7-3.8l-3.3,1.6L-92.2,28.1z"/>
		<path class="st2" d="M-101.5,33.8l1.2,3.5l3-2c1-0.7,2-1.3,3.1-1.8c-0.5-1.5-0.7-2.2-1.1-3.6l-3.1,1.9L-101.5,33.8z"/>
		<path class="st2" d="M-110.2,40.2c0.3,1.4,0.4,2.1,0.7,3.5s0.4,0,1-0.5l2.1-1.6l3.1-2.2c-0.4-1.4-0.7-2.1-1.2-3.5l-2.9,2.1
			L-110.2,40.2z"/>
		<path class="st2" d="M-118.4,47.2v2.2c0.9-0.9,1.9-1.7,2.9-2.5c1.4-1.1,2.8-2.3,2.9-2.1s-0.2-1.4-0.3-2.4l-2.8,2.4
			C-116.6,45.6-117.5,46.4-118.4,47.2z"/>
		<path class="st2" d="M-126.2,55c-0.1,1-0.2,1.5-0.3,2.5l2.7-2.8l2.7-2.7c0-0.8,0-1.5,0.1-2.3l-2.7,2.6
			C-124.9,53.7-126.2,55-126.2,55z"/>
		<path class="st2" d="M-132.5,64.6c-0.2,1.1-0.4,1.7-0.6,2.8s0.8-1.9,1.8-3.7l2.3-3.2c0.2-1.1,0.3-1.6,0.4-2.6l-2.2,3.1
			C-131.4,62.2-132,63.4-132.5,64.6z"/>
		<path class="st2" d="M-135.8,76.2c-0.3,1.3-0.4,1.9-0.7,3.3c-0.3,1.4,0.4-2.1,0.9-4.2s1.1-4,1.1-4s0.4-1.8,0.6-3s-0.6,1.9-1.1,3.9
			L-135.8,76.2z"/>
		<path class="st2" d="M-135.9,87.9c-0.3,1.6-0.4,2.3-0.7,3.8c-0.4-1.3-0.6-2.6-0.6-4c-0.1-1.4,0-2.8,0.1-4.2
			c0.3-1.1,0.6-2.3,0.8-3.4c-0.1,1.3-0.2,2.7-0.1,4C-136.3,85.4-136.2,86.7-135.9,87.9z"/>
		<path class="st2" d="M-127.9,89.5l-0.5,3.9c-1,0.7-2,1.2-3.1,1.6c-1.1,0.4-2.2,0.3-3.2-0.3c0.2-1.6,0.4-2.4,0.7-3.9
			c0.9,0.6,2.1,0.7,3.1,0.3C-129.8,90.7-128.8,90.2-127.9,89.5z"/>
		<path class="st2" d="M-120.5,81.1c0,1.4,0,2.1-0.1,3.6c-0.7,1.2-1.4,2.3-2.3,3.3c-0.5,0.8-1,1.5-1.7,2.1l-0.9,0.9
			c0.2-1.5,0.2-2.3,0.4-3.8s1.4-1.2,2.5-2.8C-121.8,83.4-121,82.3-120.5,81.1z"/>
		<path class="st2" d="M-117.5,69.4c0.1,1.3,0.1,1.9,0.1,3.1c0,1.4-0.2,2.9-0.4,4.3c-0.2,1-0.4,1.9-0.7,2.8
			c-0.1,0.4-0.2,0.9-0.4,1.3c0.1-1.3,0.1-2,0.1-3.4l0.3-1.2c0.3-0.9,0.5-1.9,0.7-2.8C-117.5,72.1-117.4,70.8-117.5,69.4z"/>
		<path class="st2" d="M-119.8,58.1c0,1.1-0.1,1.6-0.1,2.6c0.2,0.4,0.4,0.8,0.5,1.2l0.8,2.6c0.3,0.9,0.5,1.8,0.6,2.7l0.3,1.2
			c0-1.1,0-1.7-0.1-2.9c0-0.4-0.1-0.8-0.2-1.2c-0.1-0.9-0.3-1.8-0.6-2.6l-0.8-2.5C-119.5,58.8-119.6,58.5-119.8,58.1z"/>
		<path class="st2" d="M-125.2,48.9c0,0.7-0.1,1.5-0.2,2.2l2.2,3l1.8,3.2c0.1-0.8,0.1-1.7,0.1-2.5l-1.8-3.1L-125.2,48.9z"/>
		<path class="st2" d="M-132.4,41.7l-0.5,2l0.9,0.7l1.8,1.5l1.7,1.7l0.7,0.8c0.2-0.8,0.2-1.2,0.4-2.1l-0.8-0.8l-1.6-1.6
			C-130.6,43.1-131.4,42.4-132.4,41.7z"/>
		<path class="st2" d="M-141.1,36.9c-0.4,1.5-0.5,2.2-0.9,3.7l0.9,0.4c0.7,0.2,1.4,0.5,2,0.8l0.5,0.3l0.8-0.3
			c0.4-0.2,0.8-0.4,1.3-0.5l0.9,0.6c0.2-0.8,0.4-1.2,0.6-2l-0.8-0.6l-2-1c-0.7-0.4-1.5-0.8-2.3-1L-141.1,36.9z"/>
		<path class="st2" d="M-150.9,34.8c-0.2,1.5-0.3,2.3-0.4,3.8l3.1,0.4l2.1,0.5l1,0.2c0.4-1.5,0.6-2.2,0.9-3.7l-1-0.2l-2.3-0.5
			L-150.9,34.8z"/>
		<path class="st2" d="M-160.9,34.7c0,1.4,0,2.2-0.1,3.7h6.5c0.1-1.5,0.2-2.2,0.3-3.7H-160.9z"/>
		<path class="st2" d="M-170.9,35.8c0.1,1.4,0.1,2.1,0.2,3.6l3.3-0.5l3.2-0.3v-3.7l-3.3,0.4L-170.9,35.8z"/>
		<path class="st2" d="M-180.8,37.7c0.2,1.4,0.2,2.2,0.4,3.6l3.2-0.7l3.3-0.7c-0.1-1.4-0.1-2.1-0.2-3.6l-3.4,0.7L-180.8,37.7z"/>
		<path class="st2" d="M-190.6,40.3l0.5,3.5l3.3-0.9l3.2-0.9c-0.2-1.4-0.2-2.1-0.4-3.5l-3.3,0.9L-190.6,40.3z"/>
	</g>
</symbol>
<symbol  id="Plane2" viewBox="-172.6 -123.6 345.2 247.2">
	<polygon class="st3" points="-53.8,78.8 -98.8,28.8 5.6,93.1 	"/>
	<polygon class="st3" points="-53.8,78.8 -69.6,74.9 -98.8,28.8 	"/>
	<polygon class="st1" points="-69.6,74.9 5.6,93.1 -93.6,123.6 -99.9,121.1 	"/>
	<polygon class="st1" points="-57.8,54.1 -38.2,25.1 -6.9,27.8 5.6,93.1 	"/>
	<polygon class="st1" points="-6.9,27.8 147.7,45.6 5.6,93.1 	"/>
	<polygon class="st1" points="-38.2,25.1 -9.2,-4.8 61.4,-4.8 -6.9,27.8 	"/>
	<polygon class="st1" points="-6.9,27.8 145.2,33.3 61.4,-4.8 	"/>
	<polygon class="st3" points="145.2,33.3 170.6,48.4 172.6,53.8 147.7,45.6 -40.4,28.2 -38.2,25.1 -36.6,23.3 	"/>
	<polygon class="st4" points="114.4,56.6 147.7,45.6 172.6,53.8 	"/>
	<polygon class="st3" points="6.1,-4.8 -28.1,-45.2 61.4,-4.8 	"/>
	<polygon class="st3" points="-28.1,-45.2 6.1,-4.8 -9.2,-4.8 	"/>
	<path class="st2" d="M-71.2,14.6l-1,2.4l3,1.4l3.2,1.2l0.9-2.5l-3.1-1.2L-71.2,14.6z"/>
	<path class="st2" d="M-79.7,10.1l-1.4,2.3l0.9,0.5l2,1.2l3,1.5l1.2-2.3l-2.9-1.5l-2-1.1L-79.7,10.1z"/>
	<path class="st2" d="M-87.6,4.6l-1.7,2l0.8,0.7l1.8,1.4l2.8,1.9l1.5-2.1L-85,6.6l-1.8-1.4L-87.6,4.6z"/>
	<path class="st2" d="M-94.4-2.1l-2.1,1.6l2.3,2.6c0.8,0.8,1.6,1.6,2.4,2.3l1.8-1.9l-2.3-2.2L-94.4-2.1z"/>
	<path class="st2" d="M-98.9-10.2l-2.5,0.8c0.4,1.1,0.8,2.2,1.3,3.2l1.1,2.1c0.2,0.3,0.4,0.6,0.6,0.9l2.2-1.4
		C-97.2-6.4-98.1-8.3-98.9-10.2z"/>
	<path class="st2" d="M-99.7-19.5l-2.6-0.4c-0.1,0-0.1,1.8-0.2,3.5c-0.1,0.8,0,1.6,0.2,2.4c0.1,0.4,0.1,0.7,0.1,1.1l2.6-0.4
		c0-0.3,0-0.7-0.1-1c-0.1-0.7-0.2-1.4-0.2-2.1C-99.8-17.4-99.8-18.4-99.7-19.5z"/>
	<path class="st2" d="M-96.4-28.1l-2.2-1.4l-0.6,0.9l-0.2,0.4c-0.1,0.2-0.2,0.4-0.3,0.6l-0.5,1.2c-0.5,1-0.9,2.1-1.3,3.2l2.5,0.8
		c0.3-1,0.7-2,1.2-2.9c0.1-0.4,0.3-0.8,0.4-1.1l0.2-0.4l0.3-0.4L-96.4-28.1z"/>
	<path class="st2" d="M-89.8-33.9l-0.8-2.5c-1.2,0.5-2.3,1-3.3,1.7c-0.9,0.8-1.8,1.6-2.6,2.5l1.9,1.7c0.7-0.7,1.5-1.4,2.3-2
		C-91.5-33-90.6-33.5-89.8-33.9z"/>
	<path class="st2" d="M-82.1-32.2l1.9-1.8c-0.9-0.9-1.9-1.7-3.1-2.2c-0.8-0.4-1.7-0.6-2.6-0.6H-87v2.6h0.8c0.6,0,1.2,0.2,1.8,0.5
		C-83.5-33.4-82.7-32.9-82.1-32.2z"/>
	<path class="st2" d="M-81.5-24.9l2.2,1.5c0.6-1.1,1.1-2.3,1.3-3.6c0.2-0.9,0.2-1.8,0-2.7c-0.1-0.4-0.2-0.8-0.3-1.2l-2.5,0.8
		c0.3,0.9,0.4,1.8,0.2,2.7C-80.7-26.5-81-25.6-81.5-24.9z"/>
	<path class="st2" d="M-88.7-19.6l1,2.4l1-0.4l2.1-1.1c1-0.6,2-1.3,2.9-2l-1.7-2c-0.8,0.7-1.6,1.3-2.5,1.8l-1.9,0.9L-88.7-19.6z"/>
	<path class="st2" d="M-97.9-17.2l0.4,2.7l3.3-0.7l2.3-0.5l1-0.3l-0.7-2.5l-1,0.2l-2.1,0.6L-97.9-17.2z"/>
	<path class="st2" d="M-107.5-17.1l-0.2,2.7h3.4c0.8,0.1,1.6,0.1,2.4,0h1v-2.7h-3.3H-107.5z"/>
	<path class="st2" d="M-117-18.5l-0.6,2.5l3.3,0.8l3.4,0.4l0.3-2.6l-3.2-0.4L-117-18.5z"/>
	<path class="st2" d="M-126.2-21.2l-0.9,2.5l1,0.3l2.2,0.7l3.2,1l0.7-2.5l-3.1-1l-2.1-0.7L-126.2-21.2z"/>
	<path class="st2" d="M-135.1-25.1l-1.2,2.4l3.1,1.4c1,0.5,2,0.9,3,1.3l1-2.4l-3-1.3L-135.1-25.1z"/>
	<path class="st2" d="M-143.6-29.9l-1.5,2.2l5.8,3.5l1.3-2.3C-138-26.5-143.7-29.8-143.6-29.9z"/>
	<path class="st2" d="M-151.4-35.7l-1.7,2c0,0,5.2,4.3,5.3,4.1l1.6-2.1C-146.2-31.6-151.4-35.7-151.4-35.7z"/>
	<path class="st2" d="M-158.2-42.4l-2,1.7c0,0,1.1,1.3,2.3,2.5l2.5,2.3l1.7-1.9L-156-40C-157.2-41.2-158.2-42.4-158.2-42.4z"/>
	<path class="st2" d="M-163.9-50.1l-2.3,1.3c0.2,0.3,0.4,0.6,0.6,0.9c0.4,0.7,0.8,1.3,1.3,1.9l2,2.8l2-1.6l-1.8-2.7l-1.3-1.8
		L-163.9-50.1z"/>
	<path class="st2" d="M-168.1-58.8l-2.5,0.8c0,0,2.5,6.4,2.7,6.3l2.4-1.2C-165.8-52.8-168.1-58.8-168.1-58.8z"/>
	<path class="st2" d="M-169.8-68.1l-2.7,0.2l0.4,3.3c0.1,0.8,0.2,1.6,0.4,2.4l0.3,1l2.5-0.6c0-0.3-0.1-0.7-0.2-1
		c-0.2-0.7-0.3-1.4-0.4-2.1C-169.7-66.5-169.8-68.1-169.8-68.1z"/>
	<path class="st2" d="M-169.6-77.7l-2.7-0.3c-0.1,1.1-0.2,2.3-0.2,3.4c0,0.8-0.1,1.7-0.1,2.3v1.1h2.7c-0.1-0.3-0.1-0.7-0.1-1
		c0.1-0.7,0.1-1.5,0.1-2.2C-169.8-76.1-169.6-77.7-169.6-77.7z"/>
	<path class="st2" d="M-167.9-87.2l-2.6-0.7l-0.8,3.3l-0.6,3.3l2.6,0.4l0.6-3.2L-167.9-87.2z"/>
	<path class="st2" d="M-164.9-96.5l-2.5-0.9c0,0-0.5,1.6-1.1,3.1c-0.3,0.7-0.5,1.4-0.7,2.2l-0.3,1l2.5,0.8l0.3-1l0.7-2.1
		L-164.9-96.5z"/>
	<path class="st2" d="M-161.1-105.4l-2.3-1.1c0,0-0.8,1.4-1.5,3s-1.3,3-1.3,3l2.4,1.1c0,0,0.6-1.5,1.3-3L-161.1-105.4z"/>
	<path class="st2" d="M-156.2-113.9l-2.3-1.4c0,0-0.8,1.5-1.7,2.9l-1.6,2.9l2.3,1.3l1.6-2.9L-156.2-113.9z"/>
	<path class="st2" d="M-150.9-122.1l-2.2-1.5l-1.8,2.8c-1,1.3-1.9,2.8-1.9,2.8l2.3,1.4l1.7-2.8L-150.9-122.1z"/>
</symbol>
<symbol  id="SitePoint_Logo_" viewBox="-65.9 -14.4 131.9 28.8">
	<g>
		<defs>
			<rect id="SVGID_2_" x="-65.9" y="-14.4" width="131.9" height="28.8"/>
		</defs>
		<clipPath id="SVGID_3_">
			<use xlink:href="#SVGID_2_"  style="overflow:visible;"/>
		</clipPath>
		<g class="st5">
			<path class="st1" d="M-32.1,3.5c0.2,0.3,0.5,0.6,0.9,0.8l1.1,0.4l1.4,0.2h1.1l1.1-0.3c0.3-0.1,0.6-0.3,0.8-0.6
				c0.2-0.3,0.3-0.6,0.3-1c0-0.5-0.2-1-0.7-1.3c-0.5-0.4-1-0.6-1.6-0.7l-2.2-0.6l-2.2-0.6c-0.6-0.3-1.2-0.7-1.6-1.2
				c-0.5-0.5-0.8-1.3-0.7-2c0-0.6,0.1-1.2,0.5-1.7c0.3-0.5,0.7-0.9,1.2-1.2c0.5-0.3,1-0.5,1.6-0.7l1.8-0.2l2.2,0.2
				c0.6,0.1,1.2,0.3,1.7,0.7c0.6,0.3,1,0.7,1.3,1.3c0.3,0.6,0.5,1.3,0.5,2h-2.3c0-0.4-0.1-0.8-0.3-1.1L-27-4.8l-1-0.3h-2.1L-31-4.8
				c-0.3,0.1-0.5,0.3-0.7,0.5C-32-4.1-32.1-3.7-32-3.4c0,0.3,0.1,0.7,0.4,0.9c0.3,0.3,0.7,0.5,1.1,0.6l1.4,0.4l1.6,0.4l1.7,0.4
				c0.5,0.2,1,0.4,1.4,0.7c0.4,0.3,0.7,0.7,1,1.1c0.3,0.5,0.5,1,0.4,1.6c0,0.7-0.2,1.4-0.5,2c-0.4,0.5-0.9,0.9-1.4,1.2
				c-0.6,0.3-1.2,0.5-1.9,0.7l-2.1,0.2c-0.7,0-1.4-0.1-2.1-0.3c-0.7-0.1-1.3-0.3-1.9-0.7c-0.5-0.4-1-0.8-1.3-1.4
				c-0.3-0.7-0.5-1.4-0.5-2.1h2.3C-32.5,2.7-32.4,3.1-32.1,3.5"/>
			<rect x="-20.3" y="-6.9" class="st1" width="2.3" height="13.4"/>
			<path class="st1" d="M-8.7-6.9v2h-2.7v8.3c0,0.2,0,0.4,0.1,0.6c0,0.1,0.1,0.3,0.2,0.3l0.5,0.2h1.9v2h-3.2l-1-0.5
				c-0.3-0.2-0.5-0.5-0.6-0.8c-0.1-0.5-0.2-1-0.2-1.5v-8.6H-16v-2h2.3v-4h2.3v4H-8.7z"/>
			<path class="st1" d="M3.6,5.6C2.4,6.4,1,6.8-0.3,6.8c-1,0-1.9-0.2-2.8-0.5c-0.8-0.4-1.5-0.9-2.1-1.5c-0.6-0.6-1-1.4-1.2-2.2
				c-0.3-0.9-0.5-1.8-0.5-2.8c0-1,0.2-1.9,0.5-2.8c0.3-0.8,0.7-1.6,1.3-2.2C-4.5-5.8-3.8-6.3-3-6.7C-2.2-7-1.3-7.2-0.4-7.2
				c1.1,0,2.1,0.3,3,0.8c0.8,0.4,1.5,1,2,1.8C5-3.8,5.4-3,5.6-2.1c0.2,0.8,0.3,1.7,0.2,2.6H-4.5c0,0.5,0.1,1.1,0.2,1.6
				c0.1,0.5,0.4,1,0.8,1.4c0.4,0.5,0.8,0.8,1.4,1c0.6,0.2,1.2,0.4,1.9,0.4c0.9,0,1.7-0.2,2.4-0.7c0.6-0.5,1.1-1.2,1.2-2h2.2
				C5.3,3.5,4.6,4.8,3.6,5.6 M3.1-2.9C2.9-3.4,2.6-3.8,2.2-4.1C1.8-4.5,1.4-4.8,1-4.9l-1.5-0.3c-0.5,0-1.1,0.1-1.6,0.3
				C-2.6-4.8-3-4.5-3.3-4.1c-0.4,0.3-0.7,0.7-0.9,1.2C-4.4-2.5-4.5-2-4.5-1.5h7.9C3.4-2,3.3-2.5,3.1-2.9"/>
			<path class="st1" d="M10.5-6.9v1.8h0.1c0.4-0.7,1-1.3,1.7-1.6C13.1-7,14-7.2,14.9-7.2c1,0,1.9,0.2,2.8,0.6
				c0.7,0.4,1.4,0.9,1.9,1.5c0.6,0.7,1,1.4,1.2,2.3c0.3,0.8,0.4,1.7,0.4,2.6c0,0.9-0.1,1.8-0.4,2.7c-0.2,0.8-0.6,1.6-1.1,2.2
				c-0.5,0.7-1.2,1.2-2,1.5c-0.9,0.4-1.8,0.6-2.8,0.6h-1.1l-1.2-0.4c-0.4-0.1-0.8-0.3-1.2-0.6c-0.4-0.3-0.7-0.6-0.9-1h-0.1v6.8H8.2
				V-6.9H10.5z M18.7-2.1c-0.1-0.6-0.4-1.1-0.8-1.6c-0.3-0.5-0.8-0.9-1.3-1.1c-0.6-0.3-1.2-0.4-1.9-0.4c-0.7,0-1.4,0.1-2,0.4
				c-0.5,0.3-0.9,0.7-1.3,1.1C11-3.2,10.8-2.6,10.6-2c-0.2,0.6-0.3,1.2-0.3,1.8c0,0.6,0.1,1.3,0.3,1.9c0.1,0.6,0.4,1.1,0.7,1.6
				c0.4,0.5,0.9,0.8,1.4,1.1c0.6,0.3,1.3,0.5,2,0.5c1.3,0,2.5-0.6,3.2-1.6c0.3-0.5,0.6-1.1,0.7-1.7c0.2-0.6,0.2-1.3,0.2-1.9
				C18.8-0.9,18.8-1.5,18.7-2.1"/>
			<path class="st1" d="M23.7-2.9c0.3-0.8,0.7-1.6,1.3-2.3c0.6-0.7,1.3-1.1,2.1-1.4C28-7,29-7.2,30-7.2c1,0,1.9,0.2,2.8,0.6
				c0.8,0.3,1.5,0.7,2.1,1.4c0.6,0.7,1,1.5,1.3,2.3c0.3,0.9,0.5,1.8,0.5,2.7c0,1-0.2,1.9-0.5,2.8c-0.3,0.8-0.7,1.6-1.3,2.2
				c-0.6,0.7-1.3,1.1-2.1,1.4c-0.9,0.4-1.8,0.6-2.8,0.6c-1,0-2-0.2-2.9-0.6c-0.8-0.3-1.5-0.7-2.1-1.4c-0.6-0.6-1-1.4-1.3-2.2
				c-0.3-0.9-0.4-1.9-0.4-2.8C23.2-1.1,23.4-2,23.7-2.9 M26,2c0.2,0.6,0.5,1.1,0.9,1.6c0.4,0.4,0.9,0.7,1.4,0.9c1,0.5,2.3,0.5,3.3,0
				c0.5-0.2,1-0.5,1.4-0.9c0.4-0.5,0.7-1,0.9-1.6c0.2-0.7,0.4-1.5,0.4-2.2c0-0.7-0.2-1.4-0.4-2.1c-0.2-0.6-0.5-1.2-0.9-1.6
				c-0.4-0.5-0.9-0.8-1.4-1C31-5.1,30.5-5.2,30-5.2c-0.6,0-1.2,0.1-1.7,0.3c-0.5,0.2-1,0.5-1.4,1c-0.4,0.4-0.7,1-0.9,1.6
				c-0.2,0.7-0.3,1.4-0.3,2.1C25.6,0.5,25.7,1.3,26,2"/>
			<rect x="39.5" y="-6.9" class="st1" width="2.3" height="13.4"/>
			<path class="st1" d="M47.4-6.9v2.2l0,0c0.9-1.6,2.6-2.6,4.5-2.5c0.8,0,1.6,0.1,2.3,0.4c0.6,0.2,1.1,0.6,1.5,1
				c0.3,0.4,0.6,1,0.7,1.5c0.2,0.6,0.3,1.3,0.3,2v8.8h-2.3v-9.1c0-0.7-0.2-1.4-0.7-1.9c-0.6-0.5-1.3-0.8-2.1-0.7
				c-0.6,0-1.2,0.1-1.8,0.3c-0.5,0.2-0.9,0.5-1.3,0.8c-0.3,0.4-0.6,0.9-0.7,1.4c-0.2,0.5-0.3,1.1-0.3,1.6v7.6h-2.3V-6.9H47.4z"/>
			<path class="st1" d="M65.9-6.9v2h-2.8v8.3c0,0.2,0.1,0.4,0.1,0.6c0,0.2,0.1,0.3,0.3,0.3l0,0l0.5,0.2h1.9v2h-3.3
				c-0.4-0.1-0.7-0.3-1-0.5c-0.2-0.2-0.4-0.5-0.5-0.8c-0.2-0.5-0.2-1-0.2-1.5v-8.6h-2.4v-2h2.4v-4h2.2v4H65.9z"/>
			<path class="st1" d="M-65.1-1.7l2.1,2l6.6,6.2l2.8-2.8c0.3-0.3,0.3-0.9,0-1.2l-2.6-2.3l0,0L-59-2.5c-0.3-0.4-0.3-0.9,0-1.3
				l7.6-7.3l-3.5-3.3L-63-6.5l-2.1,2c-0.8,0.7-0.8,1.9-0.1,2.7C-65.2-1.8-65.2-1.8-65.1-1.7"/>
			<path class="st1" d="M-42.6,1.8l-2.1-2.1l-6.6-6.1l-2.8,2.7c-0.3,0.3-0.3,0.9,0,1.2l2.6,2.3l0,0l2.8,2.7c0.3,0.4,0.3,0.9,0,1.3
				l-7.6,7.3l3.5,3.3l8.1-7.8l2.1-2.1c0.7-0.7,0.8-1.8,0.2-2.5C-42.5,1.9-42.6,1.8-42.6,1.8"/>
			<path class="st1" d="M-17.9-9.6c0,0.7-0.6,1.3-1.3,1.3c-0.7,0-1.3-0.6-1.3-1.3s0.6-1.3,1.3-1.3l0,0
				C-18.5-10.9-17.9-10.3-17.9-9.6"/>
			<path class="st1" d="M41.9-9.6c0,0.7-0.6,1.3-1.3,1.3c-0.7,0-1.3-0.6-1.3-1.3c0-0.7,0.6-1.3,1.3-1.3
				C41.3-10.9,41.9-10.3,41.9-9.6C41.9-9.6,41.9-9.6,41.9-9.6"/>
		</g>
	</g>
</symbol>
<g id="Layer_1">
	<g>
		<rect x="-1" class="st6" width="503" height="659"/>
	</g>
</g>
<g id="Layer_2">
	<g id="Layer_2_1_">
		<g id="Book_3">
			
				<linearGradient id="SVGID_4_" gradientUnits="userSpaceOnUse" x1="-7431.3721" y1="9057.7598" x2="-7418.9111" y2="9036.8125" gradientTransform="matrix(0.3729 0.7749 0.7749 -0.3729 -3909.7263 9551.1729)">
				<stop  offset="0" style="stop-color:#FFFFFF"/>
				<stop  offset="0.91" style="stop-color:#959394"/>
				<stop  offset="1" style="stop-color:#918F90"/>
			</linearGradient>
			<path class="st7" d="M283.2,371.1l-0.3,2.3c13.4,21.2,29.5,40.7,48.4,58.8c19.1,10.9,38.9,20.4,59.3,28.4l1.2-9.4
				c-26.2-15.8-49.3-33.6-69.9-54.2C308.4,389.2,295.5,380.5,283.2,371.1z"/>
			<path class="st1" d="M362,432.4c-11.8-8.1-23.1-16.9-33.9-26.3c21.1,2.4,42.2,3.3,63.4,2.8c2.5,2.6,3.9,3.9,6.6,6.4
				c-3.2,5.4-6.5,10.9-9.8,16.2c-4.2-2.3-6.3-3.5-10.4-5.9C372.6,428,367.3,430.2,362,432.4z"/>
			
				<linearGradient id="SVGID_5_" gradientUnits="userSpaceOnUse" x1="-7397.4336" y1="9089.6777" x2="-7353.9141" y2="9089.6777" gradientTransform="matrix(0.3729 0.7749 0.7749 -0.3729 -3909.7263 9551.1729)">
				<stop  offset="0" style="stop-color:#FFFFFF"/>
				<stop  offset="1" style="stop-color:#C5C4C5"/>
			</linearGradient>
			<path class="st8" d="M362,432.4c5.4-2.2,10.6-4.4,15.8-6.8c7.6,9.7,15.7,19,24.3,27.8l-2.4,2.4
				C386.8,448.6,374.2,440.8,362,432.4z"/>
			<path class="st0" d="M399.7,455.7c-3.7-0.1-5.5-0.2-9.2-0.4c-9.9-7.3-19.4-14.9-28.5-22.9C374.2,440.8,386.8,448.6,399.7,455.7z"
				/>
			<path class="st0" d="M402.1,453.4c2.4-1.8,3.5-2.7,5.8-4.5c-10.5-7.4-20.5-15.1-30.1-23.3C385.4,435.3,393.5,444.5,402.1,453.4z"
				/>
			<path class="st1" d="M377.8,425.6c14.6,7.9,29.7,14.9,45.1,21.1c-0.4,1.1-0.6,1.6-1,2.7c-5.6-0.1-8.3-0.2-13.9-0.5
				C397.4,441.5,387.4,433.8,377.8,425.6z"/>
			<path class="st1" d="M362.3,437.1c11,8,22.3,15.3,34.2,22.3l0.3,5.6c-11.3-4.5-22.3-9.2-33.1-14.4
				C363.1,445.2,362.8,442.5,362.3,437.1z"/>
			<path class="st0" d="M363.7,450.6c12.4,7.7,25.1,14.9,38.4,21.5c7.1,1.2,14.1,2.3,21.3,3.2l1.9-1.9
				C404.3,467.2,383.7,459.5,363.7,450.6z"/>
			
				<linearGradient id="SVGID_6_" gradientUnits="userSpaceOnUse" x1="-7377.4648" y1="9078.4902" x2="-7317.4702" y2="9078.4902" gradientTransform="matrix(0.3729 0.7749 0.7749 -0.3729 -3909.7263 9551.1729)">
				<stop  offset="0" style="stop-color:#FFFFFF"/>
				<stop  offset="1" style="stop-color:#DAD9DA"/>
			</linearGradient>
			<path class="st9" d="M363.7,450.6c0.5,1.8,0.8,2.7,1.4,4.5c10.6,12.6,22,24.5,34.1,35.6c-1.1-7.2-2.2-14.4-3.1-21.6"/>
			<path class="st0" d="M379.2,471.1l-0.9,6.6c6.9,4.5,13.8,8.8,21,13C392.3,484.4,385.7,477.9,379.2,471.1z"/>
			<path class="st1" d="M323.1,407.3c8.5,29.7,21.4,57.6,38.5,84.6c6.1,1,12.2,1.8,18.4,2.5c-0.4-7.7-0.7-15.5-0.8-23.3
				c-4.9-5.2-9.6-10.5-14.1-16c-0.5-1.4-0.7-2.1-1.1-3.4c-0.7-5.4-1-8.2-1.6-13.6C348.7,428.7,335.6,418.4,323.1,407.3z"/>
			<path class="st1" d="M338.4,407.2c-6.3-3.6-12.5-7.4-18.5-11.4c3.1,4.1,4.8,6.2,8.2,10.2L338.4,407.2z"/>
			<path class="st1" d="M283.2,371.1c14.1,12.8,29.1,24.5,44.9,35c-8.8-7.9-17-15.9-24.8-24.4C296.4,378.3,289.7,374.8,283.2,371.1z
				"/>
			<path class="st1" d="M283.2,371.1c12.4,13,25.8,25.1,40,36.2c-7.7-3.9-15.2-7.9-22.7-12.1C294.3,387.3,288.6,379.4,283.2,371.1z"
				/>
			<path class="st2" d="M466.9,414.6h1.3c0,0,0.1-0.7,0.1-1.4v-1.4H467v1.3C466.9,413.9,466.9,414.6,466.9,414.6z"/>
			<path class="st2" d="M466.3,418.6l1.4,0.2c0-0.2,0-0.3,0.1-0.5c0.1-0.2,0.1-0.6,0.2-1c0.1-0.4,0.2-1.4,0.2-1.4l-1.3-0.1
				c0,0.5-0.1,0.9-0.2,1.4c-0.1,0.3-0.1,0.6-0.1,0.9C466.4,418.3,466.3,418.5,466.3,418.6z"/>
			<path class="st2" d="M465,422.6l1.4,0.4l0.1-0.4c0.2-0.3,0.3-0.6,0.4-1c0.2-0.7,0.4-1.4,0.4-1.4L466,420c0,0-0.2,0.7-0.4,1.3
				l-0.4,0.9L465,422.6z"/>
			<path class="st2" d="M462.9,426.3l1.3,0.5l0.8-1.3c0.3-0.4,0.5-0.9,0.7-1.3l-1.3-0.4l-0.7,1.3L462.9,426.3z"/>
			<path class="st2" d="M459.6,429.3l0.9,0.8c0.5-0.3,0.9-0.6,1.4-1l0.9-0.7l0.3-0.4l-1.1-0.7C462.1,427.4,459.6,429.3,459.6,429.3z
				"/>
			<path class="st2" d="M455,430.8l0.3,1.1c0,0.1,0.9-0.2,1.9-0.4l1.2-0.4l0.5-0.2l-0.7-1l-0.5,0.2c-0.3,0.2-0.7,0.3-1.1,0.4
				C456.1,430.7,455.5,430.8,455,430.8z"/>
			<path class="st2" d="M449.9,430.7l-0.4,1.1h3.8c0-0.4,0-0.8-0.1-1.1h-2.8L449.9,430.7z"/>
			<path class="st2" d="M445.8,428.8l-1.1,0.7c0.4,0.4,0.9,0.8,1.4,1c0.5,0.3,1.1,0.6,1.7,0.8l0.6-1c-0.5-0.2-1-0.4-1.4-0.6
				C446.5,429.4,446.1,429.2,445.8,428.8z"/>
			<path class="st2" d="M445.3,425.5L444,425c-0.3,0.5-0.5,1-0.6,1.6c-0.1,0.4,0,0.7,0.1,1.1c0,0.2,0.1,0.3,0.1,0.5l1.4-0.3
				l-0.1-0.4c-0.1-0.3-0.1-0.6-0.1-0.8C444.9,426.2,445.1,425.8,445.3,425.5z"/>
			<path class="st2" d="M449,424.4l0.3-1.1c-0.7-0.1-1.3-0.2-2-0.1c-0.5,0.1-0.9,0.2-1.4,0.4c-0.2,0.1-0.4,0.2-0.5,0.3l0.8,0.9
				c0.4-0.2,0.9-0.4,1.3-0.4C448,424.2,448.5,424.3,449,424.4z"/>
			<path class="st2" d="M452.9,426.5l1.1-0.7l-0.4-0.4l-0.9-0.7c-0.5-0.3-1-0.6-1.6-0.9l-0.7,1c0.5,0.2,0.9,0.5,1.3,0.8
				c0.3,0.2,0.6,0.4,0.8,0.6L452.9,426.5z"/>
			<path class="st2" d="M455.8,429.8l1.3-0.5l-1-1.3l-0.7-0.8l-0.4-0.4l-1.1,0.7l0.3,0.4l0.7,0.8L455.8,429.8z"/>
			<path class="st2" d="M457.7,433.6l1.4-0.3l-0.5-1.4l-0.4-0.9c-0.1-0.1-0.2-0.3-0.2-0.4l-1.3,0.4l0.2,0.4c0.1,0.2,0.3,0.5,0.4,0.8
				C457.3,432.6,457.7,433.6,457.7,433.6z"/>
			<path class="st2" d="M458.7,437.6l1.5-0.1c0,0-0.1-0.7-0.3-1.4l-0.4-1.4l-1.4,0.2l0.4,1.4C458.6,436.7,458.7,437.1,458.7,437.6z"
				/>
			<path class="st2" d="M459.2,441.6h1.5c0-0.1,0-0.3-0.1-0.4c0-0.3,0-0.6-0.1-1c-0.1-0.7-0.1-1.4-0.1-1.4l-1.5,0.1
				c0,0,0.1,0.7,0.1,1.4c0,0.3,0.1,0.6,0.1,0.9C459.1,441.4,459.2,441.5,459.2,441.6z"/>
			<path class="st2" d="M458.8,445.7l1.5,0.1c0,0,0.1-0.7,0.2-1.4c0.1-0.5,0.1-1,0.1-1.4h-1.5c0,0.4,0,0.9-0.1,1.3
				C458.9,445.1,458.8,445.7,458.8,445.7z"/>
			<path class="st2" d="M457.8,449.8l1.5,0.2c0.3-0.9,0.5-1.8,0.7-2.8l-1.5-0.2C458.4,448,458.1,448.9,457.8,449.8z"/>
			<path class="st2" d="M456.2,453.7l1.4,0.4c0.5-0.9,0.9-1.8,1.2-2.7l-1.4-0.3C457.5,451.1,456.2,453.7,456.2,453.7z"/>
			<path class="st2" d="M453.8,457.3l1.4,0.5l1-1.2l0.8-1.3l-1.4-0.4l-0.8,1.2C454.4,456.6,454.1,457,453.8,457.3z"/>
			<path class="st2" d="M450.5,460.7c0.4,0.3,0.8,0.5,1.3,0.7l0.4-0.3l0.8-0.8l1.2-1.2l-1.4-0.6l-1.1,1.1l-0.8,0.7L450.5,460.7z"/>
			<path class="st2" d="M446.4,463.4l1,0.9c0,0,3.2-1.8,3.1-1.9l-1.1-0.7C448.3,462.3,447.3,462.9,446.4,463.4z"/>
			<path class="st2" d="M441.3,465.3l0.6,1l1.9-0.5c0.5-0.1,0.9-0.4,1.3-0.5l0.5-0.2l-0.8-0.9l-0.5,0.2l-1.1,0.4L441.3,465.3z"/>
			<path class="st2" d="M435.6,466.4c0.1,0.4,0.2,0.7,0.4,1.1l2-0.3l1.4-0.2l0.6-0.1l-0.5-1.1l-0.6,0.1l-1.3,0.2L435.6,466.4z"/>
			<path class="st2" d="M429.7,466.8c0.1,0.5,0.1,0.7,0.1,1.1h2.1l2.1-0.2c-0.1-0.4-0.1-0.7-0.2-1.1l-2,0.1L429.7,466.8z"/>
			<path class="st2" d="M423.7,466.5c-0.1,0.5-0.1,0.7-0.1,1.1l2.1,0.1h2.1v-1.1h-2L423.7,466.5z"/>
			<path class="st2" d="M417.8,465.8l-0.3,1.1l2.1,0.3l2.1,0.2c0.1-0.4,0.1-0.7,0.2-1.1l-2-0.2L417.8,465.8z"/>
			<path class="st2" d="M412,464.7l-0.5,1l2,0.4l2,0.4c0.1-0.4,0.3-0.7,0.4-1.1l-1.9-0.4L412,464.7z"/>
			<path class="st2" d="M406.3,463.1c-0.2,0.3-0.4,0.7-0.5,1l1.9,0.5l2,0.5c0.1-0.4,0.3-0.7,0.5-1l-1.9-0.5L406.3,463.1z"/>
		</g>
		
			<use xlink:href="#Plane"  width="381.1" height="207" x="-190.6" y="-103.5" transform="matrix(0.5489 0 0 0.5489 130.0461 411.6634)" style="overflow:visible;"/>
		<g id="Layer_2_2_">
			<g id="Book_1">
				<g id="_Group_">
					<path class="st10" d="M108.5,273.1c0.6-0.4,1.1-0.8,1.7-1.3c30.9-11.3,58-27.2,81.9-49.7c-5.5,8.9-11.6,17.4-18.4,25.4
						C156,259.2,137,268.7,117,275.8C113.6,274.8,111.9,274.3,108.5,273.1z"/>
					<path class="st10" d="M193.7,226.8c-25,20.8-52.5,35.3-83.5,45l-4.4-1.5c34.3-12,63.9-29.7,89.4-55.7
						C194.7,219.5,194.4,221.9,193.7,226.8z"/>
					<path class="st1" d="M105.8,270.3l-0.9-4.4c34.8-11.6,64.9-29.4,90.7-55.5c-0.1,1.7-0.2,2.6-0.4,4.3
						C169.7,240.5,140,258.3,105.8,270.3z"/>
					<path class="st11" d="M193.7,226.8c0.9-6.5,1.3-9.9,1.9-16.4c4.3-5.8,8.4-11.6,12.3-17.7l2.5,1.6
						C205.6,205.5,200,216.3,193.7,226.8z"/>
					<path class="st10" d="M193.7,226.8c9.9-8.1,19.1-17.2,27.2-27.2c-4.3-2-6.4-3.1-10.5-5.4C205.6,205.5,200,216.3,193.7,226.8z"
						/>
					<path class="st10" d="M220.8,199.6c2.2-5.5,3.1-8.2,4.8-13.6c-5,3-10.1,5.8-15.3,8.2C214.4,196.5,216.6,197.6,220.8,199.6z"/>
					<path class="st11" d="M195.6,210.4c4.3-5.8,8.4-11.6,12.3-17.7c-4.6-2.7-9.1-5.6-13.3-8.7C195.2,192.7,195.6,201.6,195.6,210.4
						z"/>
					<path class="st1" d="M164.1,237c-6.7-10.3-12.8-20.9-18.4-31.8c5.9-4.9,11.4-9.8,16.9-15.3c10.8-0.9,21.4-3,31.8-6
						c0.7,8.8,1.1,17.7,1.1,26.5C185.9,220.1,175.4,229,164.1,237z"/>
					<path class="st10" d="M145.8,205.1l-3.7-2.5c4.2-3.6,8.1-7.5,11.8-11.7c3.5-0.4,5.3-0.6,8.8-1.1
						C157.1,195.3,151.7,200.2,145.8,205.1z"/>
					<path class="st1" d="M162.7,189.9c-5.5,5.5-11,10.4-16.9,15.3l-3.7-2.5"/>
					<path class="st1" d="M108.5,273.1l1.6,4.2c22.2-7.4,43.3-17.8,62.6-30.8c-0.4-1.3-0.6-1.8-1-3.1
						C152.1,256.2,130.9,266.2,108.5,273.1z"/>
					<path class="st1" d="M172.7,246.5c12.4-8,24.1-17,35-27c-5.1,2.7-7.7,4-12.9,6.4c-7.4,6.2-15.2,12.1-23.1,17.5
						C172.2,244.6,172.4,245.2,172.7,246.5z"/>
					<path class="st10" d="M220.8,199.6l6.4,4c3.6-5,5.3-7.5,8.5-12.7C230.9,194.1,225.9,197,220.8,199.6z"/>
					<path class="st11" d="M194.9,225.8c5.7-2.4,8.5-3.7,14-6.5l0.1-0.1c11.3-2.2,22.3-5.1,33.1-8.8c-5.5-2.2-10.9-4.7-16.2-7.5
						l-1.3-0.8l-3.8-2.5C212.9,209,204.2,217.7,194.9,225.8z"/>
					<path class="st1" d="M172.7,246.5c12.4-8,24.1-17,35-27c11.6-2.3,23.1-5.3,34.4-9.1c2.1,15.5,3.4,31,3.8,46.6
						c-10.4,8.9-21.3,17.2-32.7,24.7C198.7,271.2,185.2,259.4,172.7,246.5z"/>
					<path class="st10" d="M246,257l-4,0.2c-10.6,9.5-21.8,18.3-33.6,26.3l5.6-0.4C225.2,275.1,235.9,266.4,246,257z"/>
					<path class="st2" d="M34.5,192.3l-1.6-0.6c0,0,0.2-0.8,0.4-1.7l0.5-1.7l1.5,0.8l-0.5,1.6L34.5,192.3z"/>
					<path class="st2" d="M33.8,197.4l-1.6-0.4v-0.6c0.1-0.3,0.1-0.8,0.2-1.3c0.1-0.6,0.1-1.2,0.3-1.8l1.6,0.6l-0.3,1.8
						c-0.1,0.4-0.1,0.9-0.1,1.2L33.8,197.4z"/>
					<path class="st2" d="M33.8,202.8l-1.6-0.3c0-0.2,0-0.4-0.1-0.6c-0.1-0.4-0.1-0.9-0.1-1.3c-0.1-0.9-0.1-1.9-0.1-1.9l1.6,0.4
						c0,0,0,0.9,0.1,1.8c0.1,0.9,0.1,0.9,0.1,1.3C33.8,202.4,33.8,202.6,33.8,202.8z"/>
					<path class="st2" d="M35.1,208.2h-1.6l-0.6-1.9c-0.3-1-0.4-1.9-0.4-1.9l1.6,0.2c0,0,0.2,0.9,0.4,1.8S35.1,208.2,35.1,208.2z"/>
					<path class="st2" d="M38.1,213.4l-1.3,0.6c-0.6-0.6-1-1.2-1.4-1.9c-0.3-0.4-0.6-0.9-0.8-1.3l-0.3-0.6l1.6-0.3
						C36.5,211.2,37.3,212.3,38.1,213.4z"/>
					<path class="st2" d="M43,217.4c-0.2,0.4-0.4,0.8-0.6,1.2c-0.8-0.4-1.4-0.8-2.1-1.3c-0.5-0.3-0.9-0.7-1.3-1.1l-0.6-0.5l1.1-0.8
						l0.5,0.4c0.3,0.3,0.7,0.6,1.1,0.9C41.7,216.6,42.4,217,43,217.4z"/>
					<path class="st2" d="M49.1,219.5c0,0.5,0.1,0.9,0.1,1.4l-0.7-0.1h-0.4l-0.4-0.1l-0.8-0.3c-0.8-0.2-1.6-0.5-2.3-0.8
						c0.1-0.4,0.3-0.8,0.4-1.3L47,219l0.8,0.2l0.3,0.1h0.4L49.1,219.5z"/>
					<path class="st2" d="M54.5,219l1.2,1.3c-0.6,0.3-1.3,0.6-2,0.7s-1.4,0.2-2.2,0.2c-0.2-0.5-0.3-0.9-0.4-1.4
						c0.6,0,1.3-0.1,1.9-0.1C53.5,219.4,54,219.2,54.5,219z"/>
					<path class="st2" d="M55.9,215.2l1.6-0.1c0.3,0.6,0.4,1.4,0.3,2.1c0,0.4-0.1,0.9-0.3,1.3l-0.3,0.5l-1.6-0.9
						c0.1-0.1,0.2-0.3,0.3-0.4c0.2-0.3,0.3-0.6,0.3-0.9C56.1,216.2,56.1,215.7,55.9,215.2z"/>
					<path class="st2" d="M51.9,212.2c-0.1-0.6-0.1-0.9-0.1-1.4c0.8,0.1,1.6,0.4,2.4,0.8c0.5,0.3,1,0.6,1.5,1l0.6,0.6l-1.2,0.8
						c-0.4-0.4-0.9-0.8-1.4-1.1C53.1,212.6,52.4,212.4,51.9,212.2z"/>
					<path class="st2" d="M46.7,213.1l-1.1-1.4l0.6-0.3l1.3-0.4c0.7-0.2,1.3-0.3,2-0.4c0.2,0.4,0.4,0.9,0.6,1.4l-1.8,0.3l-1.1,0.4
						L46.7,213.1z"/>
					<path class="st2" d="M42.3,215.8l-1.4-1.2l1.4-1.1l1.1-0.6l0.5-0.3l1.1,1.3l-0.4,0.3l-1,0.6L42.3,215.8z"/>
					<path class="st2" d="M39,219.5l-1.6-1l1.1-1.4c0.3-0.4,0.6-0.6,0.8-0.9l0.4-0.4l1.5,1.1c-0.1,0.1-0.3,0.3-0.4,0.4
						c-0.3,0.3-0.6,0.5-0.8,0.8L39,219.5z"/>
					<path class="st2" d="M36.8,223.8l-1.8-0.9l0.7-1.6l0.9-1.4l1.6,0.9l-0.8,1.4C37.2,222.8,37,223.3,36.8,223.8z"/>
					<path class="st2" d="M35.3,228.6l-1.8-0.7c0-0.2,0.1-0.4,0.1-0.6c0.1-0.4,0.2-0.8,0.3-1.1l0.5-1.7l1.8,0.8l-0.5,1.6
						c-0.1,0.4-0.2,0.8-0.3,1.1C35.3,228.3,35.3,228.4,35.3,228.6z"/>
					<path class="st2" d="M34.6,233.7l-1.9-0.6l0.1-1.8c0.1-0.6,0.1-1.2,0.3-1.8l1.8,0.6c-0.1,0.6-0.2,1.1-0.3,1.7
						C34.7,232.8,34.6,233.7,34.6,233.7z"/>
					<path class="st2" d="M34.9,239.1l-1.9-0.4c-0.1,0-0.3-3.7-0.3-3.7l1.9,0.5C34.6,235.5,34.8,239,34.9,239.1z"/>
					<path class="st2" d="M36,244.6l-1.9-0.1c0,0-1-3.9-0.9-3.9l1.9,0.3C35,240.9,36,244.6,36,244.6z"/>
					<path class="st2" d="M38.3,250.2h-1.8c0,0-0.5-0.9-0.9-1.9l-0.8-1.9l1.9,0.1l0.8,1.9C37.7,249,38,249.6,38.3,250.2z"/>
					<path class="st2" d="M41.7,255.7L40,256l-0.4-0.6l-0.9-1.3l-1.3-1.9l1.8-0.1l1.3,1.8l0.8,1.3L41.7,255.7z"/>
					<path class="st2" d="M46.6,260.8l-1.4,0.7c0,0-3.8-3.5-3.6-3.6l1.6-0.5C43.1,257.5,46.6,260.8,46.6,260.8z"/>
					<path class="st2" d="M52.8,265.1l-0.9,1l-2.4-1.4l-1.5-1.1c-0.3-0.1-0.5-0.3-0.7-0.5l1.2-0.8l0.6,0.5l1.4,0.9L52.8,265.1z"/>
					<path class="st2" d="M59.9,268.5c-0.1,0.4-0.3,0.8-0.6,1.2c0,0-1.3-0.4-2.6-1.1l-1.8-0.8l-0.8-0.4l0.8-1.1l0.8,0.4l1.6,0.8
						L59.9,268.5z"/>
					<path class="st2" d="M67.5,271c-0.1,0.5-0.1,0.8-0.2,1.3l-2.7-0.8l-2.7-0.9c0.2-0.4,0.3-0.8,0.4-1.3l2.6,0.8L67.5,271z"/>
					<path class="st2" d="M75.3,272.7c0,0.6,0.1,0.8,0.1,1.4l-2.7-0.5l-1.9-0.4L70,273c0.1-0.5,0.1-0.8,0.1-1.3l0.8,0.2l1.8,0.3
						L75.3,272.7z"/>
					<path class="st2" d="M83.1,273.5l0.3,1.4l-2.7-0.2l-2.7-0.3c-0.1-0.6-0.1-0.9-0.1-1.4l2.6,0.3L83.1,273.5z"/>
					<path class="st2" d="M90.8,273.6l0.5,1.4h-5.2l-0.4-1.4H90.8z"/>
					<path class="st2" d="M98.3,273.2c0.3,0.4,0.5,0.9,0.7,1.3l-2.5,0.3c-1.3,0.1-2.6,0.1-2.6,0.1c-0.3-0.4-0.4-0.9-0.6-1.4
						c0,0,1.3,0,2.5-0.1L98.3,273.2z"/>
				</g>
			</g>
		</g>
		<g>
			
				<use xlink:href="#Plane2"  width="345.2" height="247.2" x="-172.6" y="-123.6" transform="matrix(0.5604 0 0 0.5604 368.2023 249.7325)" style="overflow:visible;"/>
		</g>
	</g>
</g>
</svg>
