<?xml version="1.0" encoding="utf-8"?>
<!-- Generator: Adobe Illustrator 22.1.0, SVG Export Plug-In . SVG Version: 6.00 Build 0)  -->
<svg version="1.1" id="Layer_1" xmlns="http://www.w3.org/2000/svg" xmlns:xlink="http://www.w3.org/1999/xlink" x="0px" y="0px"
	 viewBox="0 0 720 576" style="enable-background:new 0 0 720 576;" xml:space="preserve">
<style type="text/css">
	.st0{fill:#93D000;}
	.st1{fill:#DADBDC;}
	.st2{fill:#FFFFFF;}
	.st3{fill:#C3C5C6;}
	.st4{fill:#353847;}
	.st5{fill:#E0E1E2;}
</style>
<rect x="50.3" y="86.2" class="st0" width="625" height="437.7"/>
<polygon class="st1" points="471.6,260.5 448.1,229.9 502.7,269.2 "/>
<polygon class="st1" points="471.6,260.5 463.4,258.1 448.1,229.9 "/>
<polygon class="st2" points="463.4,258.1 502.7,269.2 450.8,287.8 447.5,286.3 "/>
<polygon class="st2" points="469.5,245.4 479.8,227.7 496.1,229.3 502.7,269.2 "/>
<polygon class="st2" points="496.1,229.3 577,240.2 502.7,269.2 "/>
<polygon class="st2" points="479.8,227.7 494.9,209.4 531.9,209.4 496.1,229.3 "/>
<polygon class="st2" points="496.1,229.3 575.7,232.7 531.9,209.4 "/>
<polygon class="st1" points="575.7,232.7 589,241.9 590,245.2 577,240.2 478.6,229.5 479.8,227.7 480.6,226.6 "/>
<polygon class="st3" points="559.6,246.9 577,240.2 590,245.2 "/>
<polygon class="st1" points="502.9,209.4 485.1,184.7 531.9,209.4 "/>
<polygon class="st1" points="485.1,184.7 502.9,209.4 494.9,209.4 "/>
<path class="st4" d="M462.5,221.2l-0.5,1.5l1.6,0.9l1.7,0.7l0.5-1.5l-1.6-0.7L462.5,221.2z"/>
<path class="st4" d="M458.1,218.5l-0.7,1.4l0.5,0.3l1,0.7l1.6,0.9l0.6-1.4l-1.5-0.9l-1-0.7L458.1,218.5z"/>
<path class="st4" d="M453.9,215.1l-0.9,1.2l0.4,0.4l0.9,0.9l1.5,1.2l0.8-1.3l-1.4-1.2l-0.9-0.9L453.9,215.1z"/>
<path class="st4" d="M450.4,211l-1.1,1l1.2,1.6c0.4,0.5,0.8,1,1.3,1.4l0.9-1.2l-1.2-1.3L450.4,211z"/>
<path class="st4" d="M448,206.1l-1.3,0.5c0.2,0.7,0.4,1.3,0.7,2l0.6,1.3c0.1,0.2,0.2,0.4,0.3,0.5l1.2-0.9
	C448.9,208.4,448.5,207.2,448,206.1z"/>
<path class="st4" d="M447.6,200.4l-1.4-0.2c-0.1,0-0.1,1.1-0.1,2.1c-0.1,0.5,0,1,0.1,1.5c0.1,0.2,0.1,0.4,0.1,0.7l1.4-0.2
	c0-0.2,0-0.4-0.1-0.6c-0.1-0.4-0.1-0.9-0.1-1.3C447.6,201.7,447.6,201.1,447.6,200.4z"/>
<path class="st4" d="M449.3,195.2l-1.2-0.9l-0.3,0.5l-0.1,0.2c-0.1,0.1-0.1,0.2-0.2,0.4l-0.3,0.7c-0.3,0.6-0.5,1.3-0.7,2l1.3,0.5
	c0.2-0.6,0.4-1.2,0.6-1.8c0.1-0.2,0.2-0.5,0.2-0.7l0.1-0.2l0.2-0.2L449.3,195.2z"/>
<path class="st4" d="M452.8,191.6l-0.4-1.5c-0.6,0.3-1.2,0.6-1.7,1c-0.5,0.5-0.9,1-1.4,1.5l1,1c0.4-0.4,0.8-0.9,1.2-1.2
	C451.9,192.2,452.4,191.9,452.8,191.6z"/>
<path class="st4" d="M456.8,192.6l1-1.1c-0.5-0.5-1-1-1.6-1.3c-0.4-0.2-0.9-0.4-1.4-0.4h-0.6v1.6h0.4c0.3,0,0.6,0.1,0.9,0.3
	C456.1,191.9,456.5,192.2,456.8,192.6z"/>
<path class="st4" d="M457.1,197.1l1.2,0.9c0.3-0.7,0.6-1.4,0.7-2.2c0.1-0.5,0.1-1.1,0-1.6c-0.1-0.2-0.1-0.5-0.2-0.7l-1.3,0.5
	c0.2,0.5,0.2,1.1,0.1,1.6C457.6,196.1,457.4,196.7,457.1,197.1z"/>
<path class="st4" d="M453.4,200.3l0.5,1.5l0.5-0.2l1.1-0.7c0.5-0.4,1-0.8,1.5-1.2l-0.9-1.2c-0.4,0.4-0.8,0.8-1.3,1.1l-1,0.5
	L453.4,200.3z"/>
<path class="st4" d="M448.6,201.8l0.2,1.6l1.7-0.4l1.2-0.3l0.5-0.2l-0.4-1.5l-0.5,0.1l-1.1,0.4L448.6,201.8z"/>
<path class="st4" d="M443.5,201.9l-0.1,1.6h1.8c0.4,0.1,0.8,0.1,1.3,0h0.5v-1.6h-1.7H443.5z"/>
<path class="st4" d="M438.6,201l-0.3,1.5l1.7,0.5l1.8,0.2l0.2-1.6l-1.7-0.2L438.6,201z"/>
<path class="st4" d="M433.8,199.4l-0.5,1.5l0.5,0.2l1.2,0.4l1.7,0.6l0.4-1.5l-1.6-0.6l-1.1-0.4L433.8,199.4z"/>
<path class="st4" d="M429.1,197l-0.6,1.5l1.6,0.9c0.5,0.3,1,0.5,1.6,0.8l0.5-1.5l-1.6-0.8L429.1,197z"/>
<path class="st4" d="M424.7,194.1l-0.8,1.3l3,2.1l0.7-1.4C427.6,196.1,424.6,194.1,424.7,194.1z"/>
<path class="st4" d="M420.6,190.5l-0.9,1.2c0,0,2.7,2.6,2.8,2.5l0.8-1.3C423.3,193,420.6,190.5,420.6,190.5z"/>
<path class="st4" d="M417,186.4l-1,1c0,0,0.6,0.8,1.2,1.5l1.3,1.4l0.9-1.2l-1.2-1.3C417.6,187.1,417,186.4,417,186.4z"/>
<path class="st4" d="M414,181.7l-1.2,0.8c0.1,0.2,0.2,0.4,0.3,0.5c0.2,0.4,0.4,0.8,0.7,1.2l1,1.7l1-1l-0.9-1.6l-0.7-1.1L414,181.7z"
	/>
<path class="st4" d="M411.9,176.4l-1.3,0.5c0,0,1.3,3.9,1.4,3.8l1.3-0.7C413.1,180.1,411.9,176.4,411.9,176.4z"/>
<path class="st4" d="M411,170.7l-1.4,0.1l0.2,2c0.1,0.5,0.1,1,0.2,1.5l0.2,0.6l1.3-0.4c0-0.2-0.1-0.4-0.1-0.6
	c-0.1-0.4-0.2-0.9-0.2-1.3C411,171.7,411,170.7,411,170.7z"/>
<path class="st4" d="M411.1,164.8l-1.4-0.2c-0.1,0.7-0.1,1.4-0.1,2.1c0,0.5-0.1,1-0.1,1.4v0.7h1.4c-0.1-0.2-0.1-0.4-0.1-0.6
	c0.1-0.4,0.1-0.9,0.1-1.3C411,165.8,411.1,164.8,411.1,164.8z"/>
<path class="st4" d="M412,159l-1.4-0.4l-0.4,2l-0.3,2l1.4,0.2l0.3-2L412,159z"/>
<path class="st4" d="M413.5,153.4l-1.3-0.5c0,0-0.3,1-0.6,1.9c-0.2,0.4-0.3,0.9-0.4,1.3l-0.2,0.6l1.3,0.5l0.2-0.6l0.4-1.3
	L413.5,153.4z"/>
<path class="st4" d="M415.5,147.9l-1.2-0.7c0,0-0.4,0.9-0.8,1.8s-0.7,1.8-0.7,1.8l1.3,0.7c0,0,0.3-0.9,0.7-1.8L415.5,147.9z"/>
<path class="st4" d="M418.1,142.7l-1.2-0.9c0,0-0.4,0.9-0.9,1.8l-0.8,1.8l1.2,0.8l0.8-1.8L418.1,142.7z"/>
<path class="st4" d="M420.8,137.7l-1.2-0.9l-0.9,1.7c-0.5,0.8-1,1.7-1,1.7l1.2,0.9l0.9-1.7L420.8,137.7z"/>
<g id="_Group__1_">
	<path class="st5" d="M343.5,198.6c-43.4,9.2-84.3,25.4-123,47.7c0.1,1.4,0.2,2.1,0.2,3.5C259.2,226.3,300,208.9,343.5,198.6z"/>
	<path class="st2" d="M282.1,216.1c-21.2,8.9-41.7,19.3-61.4,31.3c-1.4-13.6-2.2-27.2-2.6-40.8c8.1-7.5,16.2-14.7,24.7-21.7
		c13.6,3.7,27.1,7.7,40.5,12.1C282.8,203.4,282.4,209.7,282.1,216.1z"/>
	<path class="st2" d="M343.5,198.6c-20.8,4.3-41.4,10.1-61.4,17.5c0.3-6.4,0.7-12.7,1.2-19.1C303.4,196.2,323.5,196.7,343.5,198.6z"
		/>
	<path class="st5" d="M242.8,184.9c-7.2,0.7-14.3,1.6-21.5,2.7c-5.5,5.3-10.9,10.8-16.3,16.3c5.3,1,7.9,1.6,13.1,2.7
		C226.2,199.1,234.4,191.9,242.8,184.9z"/>
	<path class="st2" d="M343.5,198.6c-43.5,10.3-84.3,27.7-122.8,51.3c-6,13.3-11.4,26.9-16.3,40.6c8.2-1,16.4-1.7,24.7-2.3
		c14.6-20.6,30.7-40,48.1-58C298.4,217.8,320.6,207.2,343.5,198.6z"/>
	<path class="st5" d="M343.5,198.6c-28.4,12.6-55.5,28.4-80.7,47c4.7-5.2,9.5-10.4,14.4-15.4C298.4,217.8,320.6,207.2,343.5,198.6z"
		/>
	<path class="st5" d="M229.1,288.2c-8.3,0.3-16.5,0.8-24.8,1.5c-4.8,2.5-9.4,5.1-14.1,7.8l11.8,0.2C211,294.3,220,291.1,229.1,288.2
		z"/>
	<path class="st4" d="M200.6,254.1c0.2,0.9,0.2,1.3,0.3,2.1l1.6-0.5l1.7-0.3v-2.2l-1.8,0.3L200.6,254.1z"/>
	<path class="st4" d="M195.5,256.6l0.5,2c0.5-0.3,1.1-0.6,1.6-0.9l1.6-0.8c-0.2-0.8-0.2-1.2-0.4-2.1l-1.7,0.9L195.5,256.6z"/>
	<path class="st4" d="M190.6,259.7l0.6,1.9l1.6-1.1c0.5-0.4,1.1-0.7,1.6-1c-0.3-0.8-0.4-1.2-0.6-2l-1.6,1L190.6,259.7z"/>
	<path class="st4" d="M186.1,263.2c0.2,0.8,0.2,1.1,0.4,1.9c0.2,0.8,0.2,0,0.5-0.3l1.1-0.9l1.6-1.2c-0.2-0.8-0.4-1.1-0.6-1.9
		l-1.5,1.1L186.1,263.2z"/>
	<path class="st4" d="M181.8,267v1.2c0.5-0.5,1-0.9,1.5-1.4c0.7-0.6,1.5-1.3,1.5-1.1c0.1,0.1-0.1-0.8-0.2-1.3l-1.5,1.3
		C182.7,266.1,182.2,266.5,181.8,267z"/>
	<path class="st4" d="M177.7,271.2c-0.1,0.5-0.1,0.8-0.2,1.4l1.4-1.5l1.4-1.5c0-0.4,0-0.8,0.1-1.3l-1.4,1.4
		C178.4,270.5,177.7,271.2,177.7,271.2z"/>
	<path class="st4" d="M174.4,276.5c-0.1,0.6-0.2,0.9-0.3,1.5c-0.1,0.6,0.4-1,0.9-2l1.2-1.7c0.1-0.6,0.2-0.9,0.2-1.4l-1.2,1.7
		C175,275.1,174.7,275.8,174.4,276.5z"/>
	<path class="st4" d="M172.7,282.8c-0.2,0.7-0.2,1-0.4,1.8c-0.2,0.8,0.2-1.1,0.5-2.3c0.3-1.1,0.6-2.2,0.6-2.2s0.2-1,0.3-1.6
		c0.1-0.7-0.3,1-0.6,2.1L172.7,282.8z"/>
	<path class="st4" d="M172.6,289.2c-0.2,0.9-0.2,1.3-0.4,2.1c-0.2-0.7-0.3-1.4-0.3-2.2c0-0.8,0-1.5,0.1-2.3c0.2-0.6,0.3-1.2,0.4-1.9
		c-0.1,0.7-0.1,1.5-0.1,2.2C172.4,287.8,172.5,288.5,172.6,289.2z"/>
	<path class="st4" d="M176.8,290l-0.3,2.1c-0.5,0.4-1,0.7-1.6,0.9c-0.6,0.2-1.2,0.2-1.7-0.2c0.1-0.9,0.2-1.3,0.4-2.1
		c0.5,0.3,1.1,0.4,1.6,0.2C175.8,290.7,176.3,290.4,176.8,290z"/>
	<path class="st4" d="M180.7,285.5c0,0.8,0,1.1-0.1,2c-0.3,0.6-0.7,1.2-1.2,1.8c-0.2,0.4-0.5,0.8-0.9,1.1l-0.5,0.5
		c0.1-0.8,0.1-1.3,0.2-2.1s0.7-0.7,1.3-1.5C180,286.7,180.4,286.1,180.7,285.5z"/>
	<path class="st4" d="M182.3,279.1c0.1,0.7,0.1,1,0.1,1.7c0,0.8-0.1,1.6-0.2,2.3c-0.1,0.5-0.2,1-0.4,1.5c-0.1,0.2-0.1,0.5-0.2,0.7
		c0.1-0.7,0.1-1.1,0.1-1.9l0.2-0.7c0.2-0.5,0.3-1,0.4-1.5C182.2,280.6,182.3,279.8,182.3,279.1z"/>
	<path class="st4" d="M181.1,272.9c0,0.6-0.1,0.9-0.1,1.4c0.1,0.2,0.2,0.4,0.3,0.7l0.4,1.4c0.2,0.5,0.3,1,0.3,1.5l0.2,0.7
		c0-0.6,0-0.9-0.1-1.6c0-0.2,0-0.4-0.1-0.7c-0.1-0.5-0.2-1-0.3-1.4l-0.4-1.4C181.2,273.3,181.1,273.1,181.1,272.9z"/>
	<path class="st4" d="M178.2,267.9c0,0.4,0,0.8-0.1,1.2l1.2,1.6l0.9,1.7c0-0.5,0.1-0.9,0.1-1.4l-0.9-1.7L178.2,267.9z"/>
	<path class="st4" d="M174.5,264l-0.3,1.1l0.5,0.4l0.9,0.8l0.9,0.9l0.4,0.4c0.1-0.4,0.1-0.7,0.2-1.1l-0.4-0.4l-0.8-0.9
		C175.4,264.8,174.9,264.4,174.5,264z"/>
	<path class="st4" d="M169.9,261.4c-0.2,0.8-0.3,1.2-0.5,2l0.5,0.2c0.4,0.1,0.7,0.3,1,0.4l0.3,0.2l0.4-0.2c0.2-0.1,0.4-0.2,0.7-0.3
		l0.5,0.3c0.1-0.4,0.2-0.7,0.3-1.1l-0.4-0.3l-1-0.5c-0.4-0.2-0.8-0.4-1.2-0.5L169.9,261.4z"/>
	<path class="st4" d="M164.8,260.2c-0.1,0.8-0.2,1.3-0.2,2.1l1.6,0.2l1.1,0.3l0.5,0.1c0.2-0.8,0.3-1.2,0.5-2l-0.5-0.1l-1.2-0.3
		L164.8,260.2z"/>
	<path class="st4" d="M159.5,260.2c0,0.8,0,1.2-0.1,2h3.4c0.1-0.8,0.1-1.2,0.2-2H159.5z"/>
	<path class="st4" d="M154.3,260.8c0.1,0.8,0.1,1.1,0.1,2l1.7-0.3l1.7-0.2v-2l-1.7,0.2L154.3,260.8z"/>
	<path class="st4" d="M149.1,261.8c0.1,0.8,0.1,1.2,0.2,2l1.7-0.4l1.7-0.4c-0.1-0.8-0.1-1.1-0.1-2l-1.8,0.4L149.1,261.8z"/>
	<path class="st4" d="M144,263.2l0.3,1.9l1.7-0.5l1.7-0.5c-0.1-0.8-0.1-1.1-0.2-1.9l-1.7,0.5L144,263.2z"/>
</g>
</svg>
