<svg xmlns="http://www.w3.org/2000/svg" xmlns:xlink="http://www.w3.org/1999/xlink" viewBox="0 0 503 659"><defs><style>.cls-1{fill:none;}.cls-2{fill:#a7d01f;}.cls-3{fill:#e0e1e2;}.cls-4,.cls-7,.cls-8{fill:#fff;}.cls-5{fill:#353847;}.cls-6{clip-path:url(#clip-path);}.cls-7{font-size:15px;font-family:Raleway-SemiBold, Raleway;font-weight:700;letter-spacing:0em;}.cls-8{font-size:81px;font-family:Raleway-Medium, Raleway;}.cls-9{font-size:48px;}</style><clipPath id="clip-path"><rect class="cls-1" width="131.9" height="28.83"/></clipPath><symbol id="SitePoint_Logo_" data-name="SitePoint Logo " viewBox="0 0 131.9 28.8"><g class="cls-6"><path class="cls-4" d="M33.8,17.9a2.4,2.4,0,0,0,.9.8l1.1.4,1.4.2h1.1l1.1-.3a1.6,1.6,0,0,0,.8-.6,1.7,1.7,0,0,0,.3-1,1.4,1.4,0,0,0-.7-1.3,3.9,3.9,0,0,0-1.6-.7L36,14.8l-2.2-.6A4.8,4.8,0,0,1,32.2,13a2.4,2.4,0,0,1-.7-2A2.5,2.5,0,0,1,32,9.3a3.4,3.4,0,0,1,1.2-1.2,5.9,5.9,0,0,1,1.6-.7l1.8-.2,2.2.2a4.4,4.4,0,0,1,1.7.7,2.7,2.7,0,0,1,1.3,1.3,5.3,5.3,0,0,1,.5,2H40a2,2,0,0,0-.3-1.1l-.8-.7-1-.3H35.8l-.9.3a1.3,1.3,0,0,0-.7.5,1.2,1.2,0,0,0-.3.9,1.1,1.1,0,0,0,.4.9,2,2,0,0,0,1.1.6l1.4.4,1.6.4,1.7.4a6.1,6.1,0,0,1,1.4.7,3.5,3.5,0,0,1,1,1.1,2.5,2.5,0,0,1,.4,1.6,3.9,3.9,0,0,1-.5,2A4.4,4.4,0,0,1,41,20.3a8.4,8.4,0,0,1-1.9.7l-2.1.2a7.1,7.1,0,0,1-2.1-.3,5.4,5.4,0,0,1-1.9-.7,4.4,4.4,0,0,1-1.3-1.4,4.6,4.6,0,0,1-.5-2.1h2.3a2.1,2.1,0,0,0,.3,1.2"/><rect class="cls-4" x="45.6" y="7.5" width="2.3" height="13.35"/><path class="cls-4" d="M57.2,7.5v2H54.5v8.3a1.3,1.3,0,0,0,.1.6c0,.1.1.3.2.3l.5.2h1.9v2H54l-1-.5a1.6,1.6,0,0,1-.6-.8,6.1,6.1,0,0,1-.2-1.5V9.5H49.9v-2h2.3v-4h2.3v4Z"/><path class="cls-4" d="M69.5,20a6.1,6.1,0,0,1-3.9,1.2,7.8,7.8,0,0,1-2.8-.5,6.6,6.6,0,0,1-2.1-1.5A5.9,5.9,0,0,1,59.5,17a8.7,8.7,0,0,1-.5-2.8,8.2,8.2,0,0,1,.5-2.8,6.7,6.7,0,0,1,1.3-2.2,8,8,0,0,1,2.1-1.5,7.1,7.1,0,0,1,2.6-.5,5.6,5.6,0,0,1,3,.8,5,5,0,0,1,2,1.8,7.7,7.7,0,0,1,1,2.5,7.8,7.8,0,0,1,.2,2.6H61.4a7.8,7.8,0,0,0,.2,1.6,3.2,3.2,0,0,0,.8,1.4,3,3,0,0,0,1.4,1,5.3,5.3,0,0,0,1.9.4,4.5,4.5,0,0,0,2.4-.7,3.1,3.1,0,0,0,1.2-2h2.2a5.3,5.3,0,0,1-2,3.4M69,11.5a2.7,2.7,0,0,0-.9-1.2,2.5,2.5,0,0,0-1.2-.8l-1.5-.3a3.8,3.8,0,0,0-1.6.3,2.5,2.5,0,0,0-1.2.8,2.7,2.7,0,0,0-.9,1.2,5.8,5.8,0,0,0-.3,1.4h7.9a3.2,3.2,0,0,0-.3-1.4"/><path class="cls-4" d="M76.4,7.5V9.3h.1a3.8,3.8,0,0,1,1.7-1.6,7.6,7.6,0,0,1,2.7-.5,6.1,6.1,0,0,1,2.8.6,5.8,5.8,0,0,1,1.9,1.5,5.1,5.1,0,0,1,1.2,2.3,7.5,7.5,0,0,1,.4,2.6,7.7,7.7,0,0,1-.4,2.7,5.1,5.1,0,0,1-1.1,2.2,4.8,4.8,0,0,1-2,1.5,6.1,6.1,0,0,1-2.8.6H79.8l-1.2-.4a3.4,3.4,0,0,1-1.2-.6,2.8,2.8,0,0,1-.9-1h-.1V26H74.2V7.5Zm8.2,4.8a4,4,0,0,0-.8-1.6,2.8,2.8,0,0,0-1.3-1.1,4.1,4.1,0,0,0-1.9-.4,4,4,0,0,0-2,.4,4.7,4.7,0,0,0-1.3,1.1,5.1,5.1,0,0,0-.7,1.7,5.7,5.7,0,0,0-.3,1.8,5.8,5.8,0,0,0,.3,1.9,4.6,4.6,0,0,0,.7,1.6,3.8,3.8,0,0,0,1.4,1.1,3.9,3.9,0,0,0,2,.5,3.8,3.8,0,0,0,3.2-1.6,5.1,5.1,0,0,0,.7-1.7,6.2,6.2,0,0,0,.2-1.9,11,11,0,0,0-.2-1.8"/><path class="cls-4" d="M89.6,11.5a6.5,6.5,0,0,1,1.3-2.3A4.6,4.6,0,0,1,93,7.8a6.5,6.5,0,0,1,2.9-.6,6.1,6.1,0,0,1,2.8.6,4.6,4.6,0,0,1,2.1,1.4,6.5,6.5,0,0,1,1.3,2.3,7.6,7.6,0,0,1,.5,2.7,8.7,8.7,0,0,1-.5,2.8,7.1,7.1,0,0,1-1.3,2.2,4.6,4.6,0,0,1-2.1,1.4,6.1,6.1,0,0,1-2.8.6,6.5,6.5,0,0,1-2.9-.6,4.6,4.6,0,0,1-2.1-1.4A7.1,7.1,0,0,1,89.6,17a8.6,8.6,0,0,1-.4-2.8,7.7,7.7,0,0,1,.4-2.7m2.3,4.9a5.1,5.1,0,0,0,.9,1.6,4.2,4.2,0,0,0,1.4.9,3.6,3.6,0,0,0,3.3,0,4.2,4.2,0,0,0,1.4-.9,5.1,5.1,0,0,0,.9-1.6,7.8,7.8,0,0,0,.4-2.2,6.5,6.5,0,0,0-.4-2.1,3.5,3.5,0,0,0-.9-1.6,3.3,3.3,0,0,0-1.4-1,4.5,4.5,0,0,0-1.6-.3,4.7,4.7,0,0,0-1.7.3,3.3,3.3,0,0,0-1.4,1,3.5,3.5,0,0,0-.9,1.6,6.6,6.6,0,0,0-.3,2.1,7.8,7.8,0,0,0,.3,2.2"/><rect class="cls-4" x="105.4" y="7.5" width="2.3" height="13.35"/><path class="cls-4" d="M113.3,7.5V9.7h0a4.8,4.8,0,0,1,4.5-2.5,5.3,5.3,0,0,1,2.3.4,4,4,0,0,1,1.5,1,3.5,3.5,0,0,1,.7,1.5,6.4,6.4,0,0,1,.3,2v8.8h-2.3V11.8a2.9,2.9,0,0,0-.7-1.9,2.8,2.8,0,0,0-2.1-.7,4.8,4.8,0,0,0-1.8.3,5.7,5.7,0,0,0-1.3.8,3.7,3.7,0,0,0-.7,1.4,4.1,4.1,0,0,0-.3,1.6v7.6h-2.3V7.5Z"/><path class="cls-4" d="M131.9,7.5v2h-2.8v8.3c0,.2.1.4.1.6a.3.3,0,0,0,.3.3l.5.2h1.9v2h-3.3a3.1,3.1,0,0,1-1-.5,2.2,2.2,0,0,1-.5-.8,3.4,3.4,0,0,1-.2-1.5V9.5h-2.4v-2h2.4v-4h2.2v4Z"/><path class="cls-4" d="M.8,12.7l2.1,2,6.6,6.2,2.8-2.8a.9.9,0,0,0,0-1.2L9.7,14.6h0L6.9,11.9a1.1,1.1,0,0,1,0-1.3l7.6-7.3L11,0,2.9,7.9.8,9.9a1.9,1.9,0,0,0,0,2.8"/><path class="cls-4" d="M23.3,16.2l-2.1-2.1L14.6,8l-2.8,2.7a.9.9,0,0,0,0,1.2l2.6,2.3h0l2.8,2.7a1.1,1.1,0,0,1,0,1.3L9.6,25.5l3.5,3.3L21.2,21l2.1-2.1a1.8,1.8,0,0,0,0-2.7"/><path class="cls-4" d="M48,4.8a1.3,1.3,0,1,1-1.3-1.3A1.3,1.3,0,0,1,48,4.8"/><path class="cls-4" d="M107.8,4.8a1.3,1.3,0,1,1-1.3-1.3,1.3,1.3,0,0,1,1.3,1.3"/></g></symbol><symbol id="BG-single" data-name="BG-single" viewBox="0 0 503 659"><rect class="cls-2" width="503" height="659"/><use width="131.9" height="28.83" transform="translate(346.8 45.3)" xlink:href="#SitePoint_Logo_"/></symbol><symbol id="Tagline_3" data-name="Tagline 3" viewBox="0 0 344.4 16.2"><text class="cls-7" transform="translate(0 12.8)">BECAUSE EVERY SECOND COSTS REAL MONEY </text></symbol><symbol id="Title4" data-name="Title4" viewBox="0 0 359.1 136.1"><text class="cls-8" transform="translate(0 69.3)">PROJECT<tspan class="cls-9"><tspan x="93.2" y="56">TUTORIALS</tspan></tspan></text></symbol><symbol id="Plane" data-name="Plane" viewBox="0 0 381.1 207"><g id="_Group_" data-name="&lt;Group&gt;"><path class="cls-3" d="M381.1,25.2c-82.9,16.8-161,46.6-234.9,87.6.2,2.6.3,3.9.4,6.5C220,76,298,44.1,381.1,25.2Z"/><path class="cls-4" d="M263.8,57.3a884.5,884.5,0,0,0-117.3,57.5c-2.6-25-4.2-49.9-4.9-74.9,15.4-13.8,31-27,47.1-39.9q39,10.1,77.4,22.2C265.1,33.9,264.3,45.6,263.8,57.3Z"/><path class="cls-4" d="M381.1,25.2A837.6,837.6,0,0,0,263.8,57.3c.5-11.7,1.3-23.4,2.3-35.1A901,901,0,0,1,381.1,25.2Z"/><path class="cls-3" d="M188.7,0C175,1.3,161.3,3,147.6,5c-10.6,9.8-20.9,19.8-31.1,29.9,10.1,1.9,15.1,2.9,25.1,5C157,26.1,172.6,12.9,188.7,0Z"/><path class="cls-4" d="M381.1,25.2C298,44.1,220,76,146.6,119.3c-11.4,24.5-21.7,49.3-31.2,74.6q23.4-2.7,47.1-4.2A913.1,913.1,0,0,1,254.4,83.2,832.6,832.6,0,0,1,381.1,25.2Z"/><path class="cls-3" d="M381.1,25.2a826.2,826.2,0,0,0-154.2,86.2c8.9-9.6,18.1-19,27.5-28.2A832.6,832.6,0,0,1,381.1,25.2Z"/><path class="cls-3" d="M162.5,189.7c-15.8.5-31.6,1.4-47.3,2.7-9.1,4.6-18,9.4-26.9,14.3l22.6.3Q136.4,197.7,162.5,189.7Z"/><path class="cls-5" d="M108.1,127c.3,1.6.4,2.4.6,3.9l3.1-.9,3.2-.6v-4l-3.5.6Z"/><path class="cls-5" d="M98.4,131.6l1,3.6a31.2,31.2,0,0,1,3.1-1.6l3.1-1.5c-.3-1.5-.4-2.2-.7-3.8l-3.3,1.6Z"/><path class="cls-5" d="M89.1,137.3l1.2,3.5,3-2a33,33,0,0,1,3.1-1.8c-.5-1.5-.7-2.2-1.1-3.6l-3.1,1.9Z"/><path class="cls-5" d="M80.4,143.7c.3,1.4.4,2.1.7,3.5s.4,0,1-.5l2.1-1.6,3.1-2.2c-.4-1.4-.7-2.1-1.2-3.5l-2.9,2.1Z"/><path class="cls-5" d="M72.2,150.7v2.2a29,29,0,0,1,2.9-2.5c1.4-1.1,2.8-2.3,2.9-2.1s-.2-1.4-.3-2.4l-2.8,2.4A34.8,34.8,0,0,0,72.2,150.7Z"/><path class="cls-5" d="M64.4,158.5c-.1,1-.2,1.5-.3,2.5l2.7-2.8,2.7-2.7a16.9,16.9,0,0,1,.1-2.3l-2.7,2.6C65.7,157.2,64.4,158.5,64.4,158.5Z"/><path class="cls-5" d="M58.1,168.1c-.2,1.1-.4,1.7-.6,2.8s.8-1.9,1.8-3.7l2.3-3.2c.2-1.1.3-1.6.4-2.6l-2.2,3.1A25.6,25.6,0,0,0,58.1,168.1Z"/><path class="cls-5" d="M54.8,179.7c-.3,1.3-.4,1.9-.7,3.3s.4-2.1.9-4.2,1.1-4,1.1-4,.4-1.8.6-3-.6,1.9-1.1,3.9Z"/><path class="cls-5" d="M54.7,191.4c-.3,1.6-.4,2.3-.7,3.8a15,15,0,0,1-.6-4,33.8,33.8,0,0,1,.1-4.2,33.8,33.8,0,0,0,.8-3.4,30.6,30.6,0,0,0-.1,4A16,16,0,0,0,54.7,191.4Z"/><path class="cls-5" d="M62.7,193l-.5,3.9a12.3,12.3,0,0,1-3.1,1.6,3.6,3.6,0,0,1-3.2-.3c.2-1.6.4-2.4.7-3.9a3.3,3.3,0,0,0,3.1.3A12.9,12.9,0,0,0,62.7,193Z"/><path class="cls-5" d="M70.1,184.6c0,1.4,0,2.1-.1,3.6a19.6,19.6,0,0,1-2.3,3.3,9.6,9.6,0,0,1-1.7,2.1l-.9.9c.2-1.5.2-2.3.4-3.8s1.4-1.2,2.5-2.8A21.4,21.4,0,0,0,70.1,184.6Z"/><path class="cls-5" d="M73.1,172.9c.1,1.3.1,1.9.1,3.1a27.2,27.2,0,0,1-.4,4.3,16.3,16.3,0,0,1-.7,2.8,11.1,11.1,0,0,1-.4,1.3c.1-1.3.1-2,.1-3.4l.3-1.2a19.1,19.1,0,0,0,.7-2.8A19.3,19.3,0,0,0,73.1,172.9Z"/><path class="cls-5" d="M70.8,161.6c0,1.1-.1,1.6-.1,2.6a3.6,3.6,0,0,1,.5,1.2L72,168a10.2,10.2,0,0,1,.6,2.7l.3,1.2c0-1.1,0-1.7-.1-2.9a4.8,4.8,0,0,0-.2-1.2,15.8,15.8,0,0,0-.6-2.6l-.8-2.5A7,7,0,0,0,70.8,161.6Z"/><path class="cls-5" d="M65.3,152.4a16.4,16.4,0,0,1-.2,2.2l2.2,3,1.8,3.2a20.9,20.9,0,0,0,.1-2.5l-1.8-3.1Z"/><path class="cls-5" d="M58.2,145.2l-.5,2,.9.7,1.8,1.5,1.7,1.7.7.8c.2-.8.2-1.2.4-2.1l-.8-.8-1.6-1.6A23.7,23.7,0,0,0,58.2,145.2Z"/><path class="cls-5" d="M49.5,140.4c-.4,1.5-.5,2.2-.9,3.7l.9.4a13.8,13.8,0,0,1,2,.8l.5.3.8-.3a4.3,4.3,0,0,1,1.3-.5l.9.6c.2-.8.4-1.2.6-2l-.8-.6-2-1a8.9,8.9,0,0,0-2.3-1Z"/><path class="cls-5" d="M39.7,138.3c-.2,1.5-.3,2.3-.4,3.8l3.1.4,2.1.5,1,.2c.4-1.5.6-2.2.9-3.7l-1-.2-2.3-.5Z"/><path class="cls-5" d="M29.7,138.2c0,1.4,0,2.2-.1,3.7h6.5c.1-1.5.2-2.2.3-3.7H29.7Z"/><path class="cls-5" d="M19.7,139.3c.1,1.4.1,2.1.2,3.6l3.3-.5,3.2-.3v-3.7l-3.3.4Z"/><path class="cls-5" d="M9.8,141.2c.2,1.4.2,2.2.4,3.6l3.2-.7,3.3-.7c-.1-1.4-.1-2.1-.2-3.6l-3.4.7Z"/><path class="cls-5" d="M0,143.8l.5,3.5,3.3-.9,3.2-.9c-.2-1.4-.2-2.1-.4-3.5l-3.3.9Z"/></g></symbol></defs><title>projects-single</title><g id="Layer_2" data-name="Layer 2"><g id="Book_3" data-name="Book 3"><use width="503" height="659" xlink:href="#BG-single"/><use width="344.4" height="16.23" transform="translate(81.2 603.6)" xlink:href="#Tagline_3"/><use width="359.1" height="136.06" transform="translate(117.3 146.7)" xlink:href="#Title4"/><use width="381.1" height="207.04" transform="translate(44.3 337.6)" xlink:href="#Plane"/></g></g></svg>