<svg xmlns="http://www.w3.org/2000/svg" xmlns:xlink="http://www.w3.org/1999/xlink" viewBox="0 0 503 659"><defs><style>.cls-1{fill:none;}.cls-2{fill:#a7d01f;}.cls-3{clip-path:url(#clip-path);}.cls-4,.cls-5,.cls-6{fill:#fff;}.cls-5{font-size:15px;font-family:Raleway-SemiBold, Raleway;font-weight:700;letter-spacing:0em;}.cls-6{font-size:48px;font-family:Raleway-Medium, Raleway;}.cls-7{font-size:81px;}.cls-8{fill:url(#linear-gradient);}.cls-9{fill:url(#linear-gradient-2);}.cls-10{fill:#e0e1e2;}.cls-11{fill:url(#linear-gradient-3);}.cls-12{fill:#353847;}</style><clipPath id="clip-path"><rect class="cls-1" width="131.9" height="28.83"/></clipPath><linearGradient id="linear-gradient" x1="-7400.18" y1="-8120.91" x2="-7379.55" y2="-8086.23" gradientTransform="translate(-3363.1 9195) rotate(64.3) scale(0.86)" gradientUnits="userSpaceOnUse"><stop offset="0" stop-color="#fff"/><stop offset="0.91" stop-color="#959394"/><stop offset="1" stop-color="#918f90"/></linearGradient><linearGradient id="linear-gradient-2" x1="-7346.93" y1="-8170.5" x2="-7274.88" y2="-8170.5" gradientTransform="translate(-3363.1 9195) rotate(64.3) scale(0.86)" gradientUnits="userSpaceOnUse"><stop offset="0" stop-color="#fff"/><stop offset="1" stop-color="#c5c4c5"/></linearGradient><linearGradient id="linear-gradient-3" x1="-7313.87" y1="-8151.99" x2="-7214.58" y2="-8151.99" gradientTransform="translate(-3363.1 9195) rotate(64.3) scale(0.86)" gradientUnits="userSpaceOnUse"><stop offset="0" stop-color="#fff"/><stop offset="1" stop-color="#dad9da"/></linearGradient><symbol id="SitePoint_Logo_" data-name="SitePoint Logo " viewBox="0 0 131.9 28.8"><g class="cls-3"><path class="cls-4" d="M33.8,17.9a2.4,2.4,0,0,0,.9.8l1.1.4,1.4.2h1.1l1.1-.3a1.6,1.6,0,0,0,.8-.6,1.7,1.7,0,0,0,.3-1,1.4,1.4,0,0,0-.7-1.3,3.9,3.9,0,0,0-1.6-.7L36,14.8l-2.2-.6A4.8,4.8,0,0,1,32.2,13a2.4,2.4,0,0,1-.7-2A2.5,2.5,0,0,1,32,9.3a3.4,3.4,0,0,1,1.2-1.2,5.9,5.9,0,0,1,1.6-.7l1.8-.2,2.2.2a4.4,4.4,0,0,1,1.7.7,2.7,2.7,0,0,1,1.3,1.3,5.3,5.3,0,0,1,.5,2H40a2,2,0,0,0-.3-1.1l-.8-.7-1-.3H35.8l-.9.3a1.3,1.3,0,0,0-.7.5,1.2,1.2,0,0,0-.3.9,1.1,1.1,0,0,0,.4.9,2,2,0,0,0,1.1.6l1.4.4,1.6.4,1.7.4a6.1,6.1,0,0,1,1.4.7,3.5,3.5,0,0,1,1,1.1,2.5,2.5,0,0,1,.4,1.6,3.9,3.9,0,0,1-.5,2A4.4,4.4,0,0,1,41,20.3a8.4,8.4,0,0,1-1.9.7l-2.1.2a7.1,7.1,0,0,1-2.1-.3,5.4,5.4,0,0,1-1.9-.7,4.4,4.4,0,0,1-1.3-1.4,4.6,4.6,0,0,1-.5-2.1h2.3a2.1,2.1,0,0,0,.3,1.2"/><rect class="cls-4" x="45.6" y="7.5" width="2.3" height="13.35"/><path class="cls-4" d="M57.2,7.5v2H54.5v8.3a1.3,1.3,0,0,0,.1.6c0,.1.1.3.2.3l.5.2h1.9v2H54l-1-.5a1.6,1.6,0,0,1-.6-.8,6.1,6.1,0,0,1-.2-1.5V9.5H49.9v-2h2.3v-4h2.3v4Z"/><path class="cls-4" d="M69.5,20a6.1,6.1,0,0,1-3.9,1.2,7.8,7.8,0,0,1-2.8-.5,6.6,6.6,0,0,1-2.1-1.5A5.9,5.9,0,0,1,59.5,17a8.7,8.7,0,0,1-.5-2.8,8.2,8.2,0,0,1,.5-2.8,6.7,6.7,0,0,1,1.3-2.2,8,8,0,0,1,2.1-1.5,7.1,7.1,0,0,1,2.6-.5,5.6,5.6,0,0,1,3,.8,5,5,0,0,1,2,1.8,7.7,7.7,0,0,1,1,2.5,7.8,7.8,0,0,1,.2,2.6H61.4a7.8,7.8,0,0,0,.2,1.6,3.2,3.2,0,0,0,.8,1.4,3,3,0,0,0,1.4,1,5.3,5.3,0,0,0,1.9.4,4.5,4.5,0,0,0,2.4-.7,3.1,3.1,0,0,0,1.2-2h2.2a5.3,5.3,0,0,1-2,3.4M69,11.5a2.7,2.7,0,0,0-.9-1.2,2.5,2.5,0,0,0-1.2-.8l-1.5-.3a3.8,3.8,0,0,0-1.6.3,2.5,2.5,0,0,0-1.2.8,2.7,2.7,0,0,0-.9,1.2,5.8,5.8,0,0,0-.3,1.4h7.9a3.2,3.2,0,0,0-.3-1.4"/><path class="cls-4" d="M76.4,7.5V9.3h.1a3.8,3.8,0,0,1,1.7-1.6,7.6,7.6,0,0,1,2.7-.5,6.1,6.1,0,0,1,2.8.6,5.8,5.8,0,0,1,1.9,1.5,5.1,5.1,0,0,1,1.2,2.3,7.5,7.5,0,0,1,.4,2.6,7.7,7.7,0,0,1-.4,2.7,5.1,5.1,0,0,1-1.1,2.2,4.8,4.8,0,0,1-2,1.5,6.1,6.1,0,0,1-2.8.6H79.8l-1.2-.4a3.4,3.4,0,0,1-1.2-.6,2.8,2.8,0,0,1-.9-1h-.1V26H74.2V7.5Zm8.2,4.8a4,4,0,0,0-.8-1.6,2.8,2.8,0,0,0-1.3-1.1,4.1,4.1,0,0,0-1.9-.4,4,4,0,0,0-2,.4,4.7,4.7,0,0,0-1.3,1.1,5.1,5.1,0,0,0-.7,1.7,5.7,5.7,0,0,0-.3,1.8,5.8,5.8,0,0,0,.3,1.9,4.6,4.6,0,0,0,.7,1.6,3.8,3.8,0,0,0,1.4,1.1,3.9,3.9,0,0,0,2,.5,3.8,3.8,0,0,0,3.2-1.6,5.1,5.1,0,0,0,.7-1.7,6.2,6.2,0,0,0,.2-1.9,11,11,0,0,0-.2-1.8"/><path class="cls-4" d="M89.6,11.5a6.5,6.5,0,0,1,1.3-2.3A4.6,4.6,0,0,1,93,7.8a6.5,6.5,0,0,1,2.9-.6,6.1,6.1,0,0,1,2.8.6,4.6,4.6,0,0,1,2.1,1.4,6.5,6.5,0,0,1,1.3,2.3,7.6,7.6,0,0,1,.5,2.7,8.7,8.7,0,0,1-.5,2.8,7.1,7.1,0,0,1-1.3,2.2,4.6,4.6,0,0,1-2.1,1.4,6.1,6.1,0,0,1-2.8.6,6.5,6.5,0,0,1-2.9-.6,4.6,4.6,0,0,1-2.1-1.4A7.1,7.1,0,0,1,89.6,17a8.6,8.6,0,0,1-.4-2.8,7.7,7.7,0,0,1,.4-2.7m2.3,4.9a5.1,5.1,0,0,0,.9,1.6,4.2,4.2,0,0,0,1.4.9,3.6,3.6,0,0,0,3.3,0,4.2,4.2,0,0,0,1.4-.9,5.1,5.1,0,0,0,.9-1.6,7.8,7.8,0,0,0,.4-2.2,6.5,6.5,0,0,0-.4-2.1,3.5,3.5,0,0,0-.9-1.6,3.3,3.3,0,0,0-1.4-1,4.5,4.5,0,0,0-1.6-.3,4.7,4.7,0,0,0-1.7.3,3.3,3.3,0,0,0-1.4,1,3.5,3.5,0,0,0-.9,1.6,6.6,6.6,0,0,0-.3,2.1,7.8,7.8,0,0,0,.3,2.2"/><rect class="cls-4" x="105.4" y="7.5" width="2.3" height="13.35"/><path class="cls-4" d="M113.3,7.5V9.7h0a4.8,4.8,0,0,1,4.5-2.5,5.3,5.3,0,0,1,2.3.4,4,4,0,0,1,1.5,1,3.5,3.5,0,0,1,.7,1.5,6.4,6.4,0,0,1,.3,2v8.8h-2.3V11.8a2.9,2.9,0,0,0-.7-1.9,2.8,2.8,0,0,0-2.1-.7,4.8,4.8,0,0,0-1.8.3,5.7,5.7,0,0,0-1.3.8,3.7,3.7,0,0,0-.7,1.4,4.1,4.1,0,0,0-.3,1.6v7.6h-2.3V7.5Z"/><path class="cls-4" d="M131.9,7.5v2h-2.8v8.3c0,.2.1.4.1.6a.3.3,0,0,0,.3.3l.5.2h1.9v2h-3.3a3.1,3.1,0,0,1-1-.5,2.2,2.2,0,0,1-.5-.8,3.4,3.4,0,0,1-.2-1.5V9.5h-2.4v-2h2.4v-4h2.2v4Z"/><path class="cls-4" d="M.8,12.7l2.1,2,6.6,6.2,2.8-2.8a.9.9,0,0,0,0-1.2L9.7,14.6h0L6.9,11.9a1.1,1.1,0,0,1,0-1.3l7.6-7.3L11,0,2.9,7.9.8,9.9a1.9,1.9,0,0,0,0,2.8"/><path class="cls-4" d="M23.3,16.2l-2.1-2.1L14.6,8l-2.8,2.7a.9.9,0,0,0,0,1.2l2.6,2.3h0l2.8,2.7a1.1,1.1,0,0,1,0,1.3L9.6,25.5l3.5,3.3L21.2,21l2.1-2.1a1.8,1.8,0,0,0,0-2.7"/><path class="cls-4" d="M48,4.8a1.3,1.3,0,1,1-1.3-1.3A1.3,1.3,0,0,1,48,4.8"/><path class="cls-4" d="M107.8,4.8a1.3,1.3,0,1,1-1.3-1.3,1.3,1.3,0,0,1,1.3,1.3"/></g></symbol><symbol id="BG-single" data-name="BG-single" viewBox="0 0 503 659"><rect class="cls-2" width="503" height="659"/><use width="131.9" height="28.83" transform="translate(346.8 45.3)" xlink:href="#SitePoint_Logo_"/></symbol><symbol id="Tagline_3" data-name="Tagline 3" viewBox="0 0 344.4 16.2"><text class="cls-5" transform="translate(0 12.8)">BECAUSE EVERY SECOND COSTS REAL MONEY </text></symbol><symbol id="Title_3" data-name="Title 3" viewBox="0 0 360.3 130.3"><text class="cls-6" transform="translate(0 41)">PERFORMANCE<tspan class="cls-7"><tspan x="91.3" y="71">TOOLS</tspan></tspan></text></symbol></defs><title>Tools-single</title><g id="Layer_2" data-name="Layer 2"><g id="Book_3" data-name="Book 3"><use width="503" height="659" xlink:href="#BG-single"/><use width="344.4" height="16.23" transform="translate(81.2 603.6)" xlink:href="#Tagline_3"/><use width="360.3" height="130.27" transform="translate(121.7 151.2)" xlink:href="#Title_3"/><path class="cls-8" d="M77.1,358.5l-.5,3.8c22.2,35.1,48.9,67.3,80.1,97.4a765.1,765.1,0,0,0,98.2,47.1l2-15.5c-43.3-26.1-81.7-55.6-115.8-89.7A681.4,681.4,0,0,1,77.1,358.5Z"/><path class="cls-4" d="M207.6,460a637.3,637.3,0,0,1-56.2-43.6,766.6,766.6,0,0,0,105,4.6c4.2,4.3,6.4,6.4,10.9,10.6-5.3,9-10.7,18-16.2,26.9-7-3.8-10.5-5.8-17.3-9.8C225.2,452.7,216.5,456.4,207.6,460Z"/><path class="cls-9" d="M207.6,460c8.9-3.6,17.6-7.3,26.2-11.3a562,562,0,0,0,40.3,46l-4,3.9A732.5,732.5,0,0,1,207.6,460Z"/><path class="cls-10" d="M270.1,498.6c-6.1-.2-9.1-.3-15.3-.7q-24.6-18.1-47.2-37.9A732.5,732.5,0,0,0,270.1,498.6Z"/><path class="cls-10" d="M274.1,494.7c3.9-2.9,5.8-4.4,9.6-7.4-17.4-12.2-34-25-49.9-38.6A562,562,0,0,0,274.1,494.7Z"/><path class="cls-4" d="M233.8,448.7a736.4,736.4,0,0,0,74.6,35c-.7,1.8-1,2.7-1.7,4.4-9.2-.1-13.8-.3-23-.8C266.3,475.1,249.7,462.3,233.8,448.7Z"/><path class="cls-4" d="M208.2,467.8c18.2,13.2,37,25.4,56.6,36.9l.5,9.2c-18.7-7.4-36.9-15.2-54.8-23.8C209.4,481.2,209,476.7,208.2,467.8Z"/><path class="cls-10" d="M210.5,490.1C231,502.9,252,514.7,274,525.7c11.7,2,23.4,3.8,35.2,5.3l3.2-3.1A815.9,815.9,0,0,1,210.5,490.1Z"/><path class="cls-11" d="M210.5,490.1c.9,3,1.3,4.5,2.3,7.5a627.2,627.2,0,0,0,56.5,59c-1.9-11.9-3.6-23.8-5.1-35.8"/><path class="cls-10" d="M236.1,524.1,234.6,535c11.4,7.4,22.9,14.6,34.7,21.6C257.8,546.1,246.8,535.3,236.1,524.1Z"/><path class="cls-4" d="M143.3,418.4c14,49.1,35.5,95.4,63.7,140.1,10.1,1.6,20.2,3,30.4,4.1-.7-12.8-1.1-25.6-1.3-38.5-8.1-8.6-15.9-17.4-23.3-26.5-.8-2.3-1.1-3.4-1.8-5.7-1.2-9-1.7-13.5-2.6-22.5A631.1,631.1,0,0,1,143.3,418.4Z"/><path class="cls-4" d="M168.6,418.3c-10.4-6-20.7-12.3-30.7-18.8,5.2,6.8,7.9,10.2,13.5,16.9Z"/><path class="cls-4" d="M77.1,358.5a625.2,625.2,0,0,0,74.3,57.9c-14.5-13-28.1-26.4-41.1-40.4C99,370.5,87.9,364.6,77.1,358.5Z"/><path class="cls-4" d="M77.1,358.5a593.2,593.2,0,0,0,66.2,59.9c-12.8-6.4-25.2-13-37.5-20C95.6,385.4,86.1,372.2,77.1,358.5Z"/><path class="cls-12" d="M381.3,430.5h2.2s.1-1.2.1-2.3v-2.4h-2.2v2.2C381.3,429.4,381.3,430.5,381.3,430.5Z"/><path class="cls-12" d="M380.3,437.2l2.3.4a4.5,4.5,0,0,1,.1-.8c.1-.4.2-1,.3-1.6s.3-2.3.3-2.3l-2.2-.2a14.7,14.7,0,0,1-.4,2.3,10.4,10.4,0,0,0-.2,1.5A3.1,3.1,0,0,1,380.3,437.2Z"/><path class="cls-12" d="M378.2,443.8l2.3.6.2-.7a7.6,7.6,0,0,0,.6-1.6c.4-1.1.7-2.3.7-2.3l-2.2-.4s-.4,1.1-.7,2.2l-.6,1.5Z"/><path class="cls-12" d="M374.7,449.9l2.1.9,1.4-2.1a20.3,20.3,0,0,0,1.2-2.2l-2.1-.7-1.2,2.1Z"/><path class="cls-12" d="M369.2,454.8l1.5,1.4a20.3,20.3,0,0,0,2.3-1.6l1.5-1.2.5-.6-1.9-1.2C373.3,451.8,369.3,454.9,369.2,454.8Z"/><path class="cls-12" d="M361.6,457.4l.5,1.8c0,.1,1.5-.3,3.1-.6l2-.7.9-.4-1.2-1.6-.8.3a4.8,4.8,0,0,1-1.8.6A10.7,10.7,0,0,1,361.6,457.4Z"/><path class="cls-12" d="M353.2,457.2l-.6,1.8h6.3a12.1,12.1,0,0,0-.1-1.9h-4.7Z"/><path class="cls-12" d="M346.3,454.1l-1.9,1.1a10.3,10.3,0,0,0,2.4,1.7,15.5,15.5,0,0,0,2.8,1.3l1-1.7a15,15,0,0,1-2.4-1A9.3,9.3,0,0,1,346.3,454.1Z"/><path class="cls-12" d="M345.5,448.6l-2.1-.9a7.1,7.1,0,0,0-1,2.6,3.6,3.6,0,0,0,.2,1.8,7.3,7.3,0,0,0,.2.8l2.3-.5-.2-.6a3.2,3.2,0,0,1-.1-1.4A4.8,4.8,0,0,1,345.5,448.6Z"/><path class="cls-12" d="M351.7,446.7l.5-1.8a10.4,10.4,0,0,0-3.3-.2,10.9,10.9,0,0,0-2.3.6,2.4,2.4,0,0,0-.9.5l1.3,1.5a5.7,5.7,0,0,1,2.2-.7A7.4,7.4,0,0,1,351.7,446.7Z"/><path class="cls-12" d="M358.2,450.2,360,449l-.7-.6-1.5-1.1a28.1,28.1,0,0,0-2.6-1.5l-1.2,1.6a20.2,20.2,0,0,1,2.2,1.3,5.6,5.6,0,0,1,1.4,1Z"/><path class="cls-12" d="M363,455.7l2.2-.8-1.6-2.1-1.1-1.3-.6-.7-1.9,1.1.5.6,1.1,1.3Z"/><path class="cls-12" d="M366.1,462l2.3-.5-.9-2.3-.7-1.5a2.8,2.8,0,0,1-.4-.7l-2.2.7.3.7c.2.4.5.9.7,1.4S366.1,462,366.1,462Z"/><path class="cls-12" d="M367.8,468.6l2.5-.2s-.2-1.2-.5-2.4l-.6-2.3-2.4.4.6,2.3A14.5,14.5,0,0,1,367.8,468.6Z"/><path class="cls-12" d="M368.5,475.3H371a3.2,3.2,0,0,0-.1-.7,9.7,9.7,0,0,0-.1-1.6c-.1-1.2-.1-2.4-.1-2.4l-2.5.2s.1,1.1.1,2.3a8.1,8.1,0,0,1,.1,1.5A4.2,4.2,0,0,1,368.5,475.3Z"/><path class="cls-12" d="M367.9,482.1l2.5.2s.2-1.2.3-2.3a16.7,16.7,0,0,0,.2-2.4h-2.5a14,14,0,0,1-.2,2.2C368.1,481,367.9,482.1,367.9,482.1Z"/><path class="cls-12" d="M366.3,488.8l2.5.4a39,39,0,0,0,1.2-4.6l-2.5-.3A37.4,37.4,0,0,1,366.3,488.8Z"/><path class="cls-12" d="M363.6,495.2l2.4.7a44.3,44.3,0,0,0,2-4.5l-2.4-.5C365.7,490.9,363.6,495.2,363.6,495.2Z"/><path class="cls-12" d="M359.6,501.3l2.3.9,1.6-2,1.3-2.2-2.4-.7-1.3,2A17.7,17.7,0,0,1,359.6,501.3Z"/><path class="cls-12" d="M354.2,506.8a14.3,14.3,0,0,0,2.1,1.2l.7-.5,1.3-1.3,2-2-2.3-1-1.8,1.9-1.3,1.2Z"/><path class="cls-12" d="M347.3,511.4l1.6,1.5s5.3-3,5.1-3.2l-1.9-1.2A55.5,55.5,0,0,1,347.3,511.4Z"/><path class="cls-12" d="M338.9,514.5l1,1.7,3.2-.9c.8-.2,1.5-.6,2.1-.8l.9-.4-1.4-1.5-.9.3-1.9.7Z"/><path class="cls-12" d="M329.5,516.3a12.7,12.7,0,0,0,.6,1.8l3.3-.5,2.3-.4,1-.2-.8-1.8-1,.2-2.2.4Z"/><path class="cls-12" d="M319.7,516.9c.1.8.1,1.1.2,1.9h3.4l3.4-.3a14.9,14.9,0,0,0-.4-1.8l-3.3.2Z"/><path class="cls-12" d="M309.8,516.5c-.1.8-.1,1.1-.2,1.9l3.4.2h3.5v-1.8h-3.3Z"/><path class="cls-12" d="M300,515.3l-.5,1.8,3.4.5,3.4.4c.1-.7.2-1.1.3-1.8l-3.3-.4Z"/><path class="cls-12" d="M290.4,513.4l-.8,1.7,3.3.7,3.3.7a12.7,12.7,0,0,0,.6-1.8l-3.2-.6Z"/><path class="cls-12" d="M281,510.8a14,14,0,0,0-.9,1.7l3.1.9,3.3.9a13,13,0,0,1,.8-1.7l-3.2-.9Z"/></g></g></svg>