<svg width="644" height="432" viewBox="0 0 644 432" fill="none" xmlns="http://www.w3.org/2000/svg">
<path d="M371.416 52.2566L415.281 98.2749V351.376L371.416 397.394L327.551 351.376V98.2749L371.416 52.2566Z" fill="black" fill-opacity="0.2"/>
<path d="M367.416 47.2566L411.281 93.2749V346.376L367.416 392.394L323.551 346.376V93.2749L367.416 47.2566Z" fill="white"/>
<path fill-rule="evenodd" clip-rule="evenodd" d="M367.416 46.2144L412 92.9871V346.663L367.416 393.436L322.832 346.663V92.9871L367.416 46.2144ZM324.27 93.5626V346.088L367.416 391.352L410.562 346.088V93.5626L367.416 48.2987L324.27 93.5626Z" fill="black" stroke="black" stroke-width="2"/>
<path fill-rule="evenodd" clip-rule="evenodd" d="M366.697 50.8428L366.697 48.6946L368.135 48.6946L368.135 50.8428L366.697 50.8428ZM366.697 59.4352L366.697 55.139L368.135 55.139L368.135 59.4352L366.697 59.4352ZM366.697 68.0277L366.697 63.7315L368.135 63.7315L368.135 68.0277L366.697 68.0277ZM366.697 76.6202L366.697 72.324L368.135 72.324L368.135 76.6202L366.697 76.6202ZM366.697 85.2127L366.697 80.9164L368.135 80.9164L368.135 85.2127L366.697 85.2127ZM366.697 93.8052L366.697 89.5089L368.135 89.5089L368.135 93.8052L366.697 93.8052ZM366.697 102.398L366.697 98.1014L368.135 98.1014L368.135 102.398L366.697 102.398ZM366.697 110.99L366.697 106.694L368.135 106.694L368.135 110.99L366.697 110.99ZM366.697 119.583L366.697 115.286L368.135 115.286L368.135 119.583L366.697 119.583ZM366.697 128.175L366.697 123.879L368.135 123.879L368.135 128.175L366.697 128.175ZM366.697 136.768L366.697 132.471L368.135 132.471L368.135 136.768L366.697 136.768ZM366.697 145.36L366.697 141.064L368.135 141.064L368.135 145.36L366.697 145.36ZM366.697 153.953L366.697 149.656L368.135 149.656L368.135 153.953L366.697 153.953ZM366.697 162.545L366.697 158.249L368.135 158.249L368.135 162.545L366.697 162.545ZM366.697 171.137L366.697 166.841L368.135 166.841L368.135 171.137L366.697 171.137ZM366.697 179.73L366.697 175.434L368.135 175.434L368.135 179.73L366.697 179.73ZM366.697 188.322L366.697 184.026L368.135 184.026L368.135 188.322L366.697 188.322ZM366.697 196.915L366.697 192.619L368.135 192.619L368.135 196.915L366.697 196.915ZM366.697 205.507L366.697 201.211L368.135 201.211L368.135 205.507L366.697 205.507ZM366.697 214.1L366.697 209.804L368.135 209.804L368.135 214.1L366.697 214.1ZM366.697 222.692L366.697 218.396L368.135 218.396L368.135 222.692L366.697 222.692ZM366.697 231.285L366.697 226.989L368.135 226.989L368.135 231.285L366.697 231.285ZM366.697 239.877L366.697 235.581L368.135 235.581L368.135 239.877L366.697 239.877ZM366.697 248.47L366.697 244.174L368.135 244.174L368.135 248.47L366.697 248.47ZM366.697 257.062L366.697 252.766L368.135 252.766L368.135 257.062L366.697 257.062ZM366.697 265.655L366.697 261.359L368.135 261.359L368.135 265.655L366.697 265.655ZM366.697 274.247L366.697 269.951L368.135 269.951L368.135 274.247L366.697 274.247ZM366.697 282.84L366.697 278.544L368.135 278.544L368.135 282.84L366.697 282.84ZM366.697 291.432L366.697 287.136L368.135 287.136L368.135 291.432L366.697 291.432ZM366.697 300.025L366.697 295.729L368.135 295.729L368.135 300.025L366.697 300.025ZM366.697 308.617L366.697 304.321L368.135 304.321L368.135 308.617L366.697 308.617ZM366.697 317.21L366.697 312.914L368.135 312.914L368.135 317.21L366.697 317.21ZM366.697 325.802L366.697 321.506L368.135 321.506L368.135 325.802L366.697 325.802ZM366.697 334.395L366.697 330.099L368.135 330.099L368.135 334.395L366.697 334.395ZM366.697 342.987L366.697 338.691L368.135 338.691L368.135 342.987L366.697 342.987ZM366.697 351.58L366.697 347.283L368.135 347.283L368.135 351.58L366.697 351.58ZM366.697 360.172L366.697 355.876L368.135 355.876L368.135 360.172L366.697 360.172ZM366.697 368.765L366.697 364.468L368.135 364.468L368.135 368.765L366.697 368.765ZM366.697 377.357L366.697 373.061L368.135 373.061L368.135 377.357L366.697 377.357ZM366.697 385.95L366.697 381.653L368.135 381.653L368.135 385.95L366.697 385.95ZM366.697 392.394L366.697 390.246L368.135 390.246L368.135 392.394L366.697 392.394Z" fill="black"/>
<path d="M367.416 98.3081L324.27 96.87L368.854 50.1327L410.562 97.5891L370.292 98.3081L368.854 52.2898L367.416 98.3081Z" fill="#EDEDEE"/>
<path d="M365.259 91.8368L323.551 93.2749L367.416 47.2566L411.281 93.2749L372.45 91.8368L367.416 49.4137L365.259 91.8368Z" fill="white"/>
<path fill-rule="evenodd" clip-rule="evenodd" d="M367.416 46.2144L411.802 92.7788C412.003 92.9905 412.057 93.3034 411.937 93.5702C411.817 93.8369 411.547 94.0042 411.254 93.9934L371.808 92.5326L367.703 57.9335L365.943 92.5326L323.575 93.9935C323.283 94.0035 323.014 93.8359 322.895 93.5693C322.775 93.3028 322.829 92.9903 323.03 92.7788L367.416 46.2144ZM325.287 92.4955L364.574 91.1409L366.698 49.3772L368.13 49.329L373.091 91.141L409.54 92.4909L367.416 48.2987L325.287 92.4955Z" fill="black"/>
<path d="M368.854 343.499L410.562 346.376L367.416 393.113L324.27 345.657L364.539 343.499L367.416 390.956L368.854 343.499Z" fill="#EDEDEE"/>
<path d="M371.011 348.533L411.281 347.095L367.416 393.113L323.55 347.095L363.82 348.533L367.416 390.956L371.011 348.533Z" fill="white"/>
<path fill-rule="evenodd" clip-rule="evenodd" d="M367.416 394.155L323.03 347.591C322.828 347.379 322.775 347.066 322.895 346.8C323.015 346.533 323.284 346.366 323.576 346.376L364.483 347.837L367.416 382.441L370.349 347.837L411.255 346.376C411.547 346.366 411.817 346.533 411.937 346.8C412.057 347.066 412.003 347.379 411.801 347.591L367.416 394.155ZM409.542 347.876L371.674 349.228L368.132 391.016L366.699 391.016L363.158 349.228L325.289 347.876L367.416 392.071L409.542 347.876Z" fill="black"/>
<path fill-rule="evenodd" clip-rule="evenodd" d="M367.416 45.1722L412.719 92.6993V346.951L367.416 394.478L322.112 346.951V92.6993L367.416 45.1722ZM324.989 93.8504V345.8L367.416 390.309L409.843 345.8V93.8504L367.416 49.3409L324.989 93.8504Z" fill="black"/>
<path d="M361.414 419.155L361.754 419.109C362.094 419.109 362.624 419.233 363.345 419.48C363.727 419.676 363.917 419.804 363.917 419.866C364.267 420.216 364.442 420.489 364.442 420.685L364.69 421.596C364.587 421.988 364.365 422.549 364.025 423.28C363.593 423.641 362.954 424.068 362.109 424.562C361.419 425.201 360.966 425.53 360.75 425.551L360.101 426.138C359.174 426.941 358.7 427.364 358.68 427.405C358.587 427.6 358.505 427.853 358.433 428.162V428.193C358.433 428.275 358.685 428.332 359.19 428.363V428.424L358.695 428.455V428.517C359.591 428.671 360.194 428.749 360.503 428.749C360.482 428.718 360.111 428.615 359.39 428.44V428.393H359.406C359.602 428.393 360.013 428.471 360.642 428.625L361.507 428.687L362.249 428.61H362.635C363.315 428.651 363.685 428.744 363.747 428.888L364.211 429.027L364.303 429.089V429.15L364.056 429.212V429.228L364.118 429.305H364.149L364.365 429.274V429.305C364.344 429.758 364.314 429.985 364.272 429.985L362.465 429.923H362.094C361.837 429.923 361.486 429.949 361.043 430C359.488 429.815 358.407 429.722 357.799 429.722C357.614 429.681 357.521 429.588 357.521 429.444C357.449 429.258 357.413 429.027 357.413 428.749V428.285C357.413 427.389 357.516 426.823 357.722 426.586L358.108 426.339C358.17 426.226 358.201 426.133 358.201 426.061C358.86 425.525 359.21 425.257 359.251 425.257C359.529 425.154 359.91 424.892 360.395 424.47H360.472C360.338 424.634 360.23 424.717 360.147 424.717V424.779H360.24C360.374 424.706 360.508 424.593 360.642 424.439V424.408H360.58V424.361L361.692 423.666C362.259 423.275 362.707 422.914 363.036 422.585C363.284 422.307 363.443 421.941 363.515 421.488C363.515 421.086 363.345 420.783 363.006 420.577C362.892 420.536 362.429 420.479 361.615 420.407C361.615 420.396 361.533 420.386 361.368 420.376C361.018 420.376 360.688 420.582 360.379 420.994C360.297 421.179 360.256 421.318 360.256 421.411V421.519H360.286C360.286 421.612 360.116 421.679 359.777 421.72L359.128 421.813V421.828L359.035 421.813H358.911L358.525 421.859L358.494 421.797C358.638 421.086 358.798 420.644 358.973 420.469C359.56 419.933 359.972 419.655 360.209 419.634C360.384 419.48 360.786 419.32 361.414 419.155ZM362.032 419.264H361.878V419.295L361.97 419.418H362.109L362.171 419.341V419.325C362.161 419.284 362.115 419.264 362.032 419.264ZM361.043 419.495V419.526H361.059C361.481 419.526 361.692 419.48 361.692 419.387L361.615 419.325H361.43C361.172 419.387 361.043 419.444 361.043 419.495ZM362.975 419.434H362.959V419.464C362.959 419.526 363.093 419.588 363.361 419.65V419.634C363.361 419.573 363.232 419.506 362.975 419.434ZM360.472 419.727V419.773H360.673L360.734 419.712V419.696L360.642 419.681C360.528 419.701 360.472 419.717 360.472 419.727ZM360.688 420.314L360.642 420.376V420.407H360.734L360.781 420.345V420.314H360.688ZM363.376 420.345L363.345 420.376V420.407C363.387 420.479 363.443 420.515 363.515 420.515H363.531C363.562 420.515 363.577 420.494 363.577 420.453C363.577 420.402 363.521 420.366 363.407 420.345H363.376ZM363.608 420.577V420.608C363.793 420.628 363.886 420.711 363.886 420.855L363.979 420.963V420.855C363.979 420.628 363.907 420.515 363.763 420.515C363.67 420.515 363.618 420.536 363.608 420.577ZM360.194 420.886L360.225 420.917H360.24C360.395 420.834 360.472 420.752 360.472 420.669V420.654H360.41C360.369 420.654 360.297 420.731 360.194 420.886ZM359.761 421.303H359.684V421.365L359.746 421.38H359.761V421.303ZM364.272 421.828L364.211 421.905V421.952H364.241L364.288 421.905V421.828H364.272ZM363.917 422.446H363.84V422.523C363.912 422.523 363.948 422.554 363.948 422.616H363.994V422.523L363.917 422.446ZM363.639 423.002L363.654 423.033V423.048C363.716 423.017 363.778 422.956 363.84 422.863V422.832H363.809C363.737 422.873 363.68 422.93 363.639 423.002ZM363.222 423.311H363.253L363.423 423.28C363.423 423.198 363.387 423.157 363.315 423.157C363.253 423.167 363.222 423.218 363.222 423.311ZM363.191 423.605V423.635C363.387 423.615 363.567 423.507 363.732 423.311L363.701 423.28C363.464 423.404 363.294 423.512 363.191 423.605ZM362.496 423.898L362.449 423.913V423.975H362.48L362.527 423.929L362.496 423.913V423.898ZM360.086 425.752V425.798H360.132C360.194 425.798 360.333 425.705 360.549 425.52C360.601 425.52 360.652 425.458 360.704 425.335L360.734 425.319V425.273H360.688C360.565 425.273 360.364 425.433 360.086 425.752ZM359.112 425.675V425.721H359.128C359.262 425.721 359.37 425.618 359.452 425.412H359.375C359.2 425.556 359.112 425.644 359.112 425.675ZM358.602 425.953H358.402L358.417 426.107C358.273 426.251 358.201 426.344 358.201 426.385H358.263C358.448 426.282 358.577 426.153 358.649 425.999V425.968L358.602 425.953ZM359.761 426.107L359.684 426.153V426.2H359.746L359.808 426.138V426.107H359.761ZM358.525 426.988V427.049H358.572C358.685 426.967 358.741 426.885 358.741 426.802V426.787H358.695C358.582 426.849 358.525 426.916 358.525 426.988ZM358.108 428.641L358.062 428.687V428.749L358.108 428.811L358.139 428.749V428.687L358.108 428.641ZM358.525 428.687L358.463 428.733L358.494 428.749H358.695V428.702L358.587 428.687H358.525ZM362.727 428.811L362.619 428.826V428.841L362.681 428.903H362.882L362.928 428.872V428.826L362.727 428.811ZM357.691 429.119L357.629 429.15V429.166L357.675 429.212H357.691L357.737 429.166L357.691 429.119ZM358.015 429.444V429.459L358.139 429.475C358.293 429.454 358.371 429.434 358.371 429.413L358.355 429.382H358.139C358.057 429.403 358.015 429.423 358.015 429.444ZM363.021 429.614H363.191C363.335 429.593 363.407 429.567 363.407 429.537L363.361 429.475H363.268C363.217 429.475 363.134 429.521 363.021 429.614ZM363.577 429.706L363.639 429.737H363.809C363.963 429.737 364.041 429.712 364.041 429.66V429.645C364.041 429.614 364.02 429.598 363.979 429.598C363.732 429.609 363.598 429.645 363.577 429.706Z" fill="white"/>
<path d="M366.652 427.636C366.971 427.678 367.192 427.755 367.316 427.868C367.357 427.951 367.378 428.043 367.378 428.146V428.363C367.378 428.785 367.136 429.192 366.652 429.583L366.451 429.645C366.255 429.645 366.054 429.351 365.848 428.764V428.702C365.848 428.249 365.915 427.971 366.049 427.868C366.348 427.714 366.549 427.636 366.652 427.636ZM366.157 428.316C366.178 428.584 366.214 428.718 366.265 428.718C366.286 428.697 366.332 428.517 366.404 428.177L366.451 428.069V428.023H366.435C366.25 428.084 366.157 428.182 366.157 428.316ZM366.574 428.409V428.44C366.574 428.543 366.595 428.599 366.636 428.61H366.652C366.693 428.61 366.755 428.502 366.837 428.285V428.193L366.791 428.177H366.744C366.631 428.177 366.574 428.254 366.574 428.409ZM367.022 428.61L367.038 428.641H367.115L367.131 428.532V428.486H367.115C367.084 428.486 367.053 428.527 367.022 428.61ZM366.806 428.919L366.234 428.98C366.234 429.063 366.265 429.109 366.327 429.119H366.497C366.621 429.119 366.724 429.063 366.806 428.95V428.919Z" fill="white"/>
<path d="M589.447 419.078L589.493 419.047C590.06 419.109 591.038 419.192 592.429 419.295C592.604 419.377 593.366 419.485 594.715 419.619C595.24 419.743 595.503 419.882 595.503 420.036C595.462 420.18 595.292 420.433 594.993 420.793C594.993 420.824 594.756 421.138 594.282 421.735C594.282 421.828 594.004 422.127 593.448 422.631L593.278 422.863V422.909C593.433 422.909 593.767 422.858 594.282 422.755C594.458 422.755 594.895 422.966 595.596 423.388C595.781 423.594 595.966 423.996 596.152 424.593V424.763C596.152 426.133 596.033 426.983 595.797 427.312C595.601 427.879 595.065 428.466 594.19 429.073C593.654 429.331 592.871 429.573 591.841 429.799C591.718 429.84 591.512 429.861 591.223 429.861H591.115L591.023 429.892C590.549 429.892 590.152 429.784 589.833 429.567V429.521C589.864 429.501 589.967 429.289 590.142 428.888H590.173H590.497H590.667C591.543 428.888 592.212 428.656 592.676 428.193L594.004 427.343C594.509 426.89 594.787 426.565 594.839 426.37C595.045 426.04 595.148 425.5 595.148 424.748C595.137 424.645 595.122 424.593 595.101 424.593L595.148 424.47C595.148 424.264 595.045 424.099 594.839 423.975C594.756 423.769 594.597 423.666 594.36 423.666H593.973C593.767 423.666 593.664 423.692 593.664 423.744V423.774C594.087 423.774 594.416 423.877 594.653 424.083V424.114L594.607 424.145C594.514 424.145 594.385 424.073 594.221 423.929L594.082 423.914C593.309 423.914 592.367 424.176 591.254 424.701L591.1 424.794L591.023 424.763V424.64C591.023 424.567 590.971 424.48 590.868 424.377V424.361C590.868 424.331 590.987 424.053 591.223 423.527C591.265 423.352 591.357 423.177 591.502 423.002L592.135 422.044C592.372 421.529 592.598 421.215 592.815 421.102C592.907 420.999 592.954 420.901 592.954 420.808V420.762C592.841 420.68 592.743 420.639 592.66 420.639L589.771 420.577C589.679 420.577 589.622 420.489 589.601 420.314V420.252L589.617 420.191V420.129C589.586 420.046 589.529 419.696 589.447 419.078ZM590.08 419.248L590.018 419.31V419.464H590.049H590.25H590.281L590.667 419.495L590.729 419.434C590.544 419.31 590.327 419.248 590.08 419.248ZM589.648 419.495C589.668 419.547 589.709 419.573 589.771 419.573L589.802 419.526V419.495L589.756 419.434H589.694C589.663 419.434 589.648 419.454 589.648 419.495ZM591.594 419.542H591.548V419.573H591.563L591.594 419.542ZM594.53 419.743H594.19C594.19 419.804 594.288 419.84 594.483 419.851H594.514L594.576 419.804V419.789L594.53 419.743ZM590.976 419.835C591.522 419.897 592.125 419.928 592.784 419.928H592.969C592.969 419.856 592.593 419.804 591.841 419.773H591.424C591.126 419.773 590.976 419.794 590.976 419.835ZM590.173 419.835L590.111 419.851C590.111 419.943 590.369 420.005 590.884 420.036L590.914 420.021V419.99C590.781 419.887 590.559 419.835 590.25 419.835H590.173ZM595.039 420.021V420.036C595.05 420.077 595.091 420.098 595.163 420.098H595.225C595.266 420.098 595.302 420.077 595.333 420.036C595.333 419.974 595.271 419.943 595.148 419.943C595.106 419.964 595.07 419.99 595.039 420.021ZM591.177 419.974L591.162 419.99V420.005C591.162 420.057 591.342 420.082 591.702 420.082H592.259C592.259 420.021 591.898 419.985 591.177 419.974ZM593.077 420.098H592.676V420.129L593.448 420.252L594.221 420.191V420.16C594.025 420.118 593.644 420.098 593.077 420.098ZM589.864 420.221V420.252C589.864 420.335 590.075 420.376 590.497 420.376H591.131V420.33C591.131 420.288 590.909 420.263 590.466 420.252C590.466 420.201 590.338 420.17 590.08 420.16H590.018C589.926 420.16 589.874 420.18 589.864 420.221ZM591.718 420.33H591.393C591.393 420.381 591.527 420.407 591.795 420.407H591.841C591.841 420.355 591.8 420.33 591.718 420.33ZM594.715 420.53L594.576 420.639C594.607 420.783 594.658 420.855 594.73 420.855C594.803 420.772 594.839 420.7 594.839 420.639V420.561L594.808 420.53H594.715ZM593.278 420.747L593.247 420.793V420.824H593.34L593.371 420.793V420.747H593.278ZM593.371 421.087V421.133H593.402C593.525 421.133 593.623 421.04 593.695 420.855L593.664 420.839H593.649C593.464 420.891 593.371 420.973 593.371 421.087ZM594.53 421.056H594.452V421.102H594.499L594.53 421.087V421.056ZM594.375 421.195H594.344V421.241H594.375V421.195ZM593.448 422.168L593.433 422.214L593.464 422.261C593.68 422.209 593.896 422.034 594.113 421.735L594.19 421.535L594.174 421.519H594.082C593.958 421.519 593.747 421.735 593.448 422.168ZM592.629 422.199H592.66C592.815 422.106 592.892 422.003 592.892 421.89V421.874H592.861C592.707 421.916 592.629 422.024 592.629 422.199ZM592.954 422.137V422.199H593C593.072 422.137 593.108 422.08 593.108 422.029L593.093 422.013C593.052 422.034 593.005 422.075 592.954 422.137ZM593.355 422.369L593.309 422.415V422.492H593.355L593.386 422.461V422.369H593.355ZM591.718 422.909V422.94L591.749 422.971H591.888L592.181 422.739L592.197 422.647V422.616L592.166 422.585H592.135C591.97 422.626 591.831 422.734 591.718 422.909ZM593.108 423.419V423.435H593.124L593.757 423.234C594.262 423.285 594.566 423.326 594.669 423.357C594.72 423.357 594.751 423.337 594.761 423.296H594.777C595.034 423.491 595.235 423.589 595.379 423.589H595.441L595.457 423.543V423.527C595.457 423.414 595.101 423.27 594.391 423.095C594.36 423.095 594.329 423.054 594.298 422.971L594.221 422.909H594.174C593.927 422.909 593.67 423.033 593.402 423.28C593.216 423.332 593.119 423.378 593.108 423.419ZM592.83 422.971H592.815V423.033L592.83 423.048H592.892V423.033L592.83 422.971ZM591.502 423.435V423.481H591.517C591.651 423.409 591.749 423.29 591.811 423.126H591.78C591.687 423.177 591.594 423.28 591.502 423.435ZM591.996 423.481V423.574H592.058C592.181 423.574 592.274 423.476 592.336 423.28L592.289 423.234C592.186 423.275 592.089 423.357 591.996 423.481ZM592.12 423.975V423.991H592.166C592.856 423.826 593.201 423.708 593.201 423.635V423.62H593.155C592.825 423.651 592.48 423.769 592.12 423.975ZM591.393 424.022V424.068L591.409 424.083V424.114C591.749 424.053 592.006 423.955 592.181 423.821V423.805L592.135 423.744C591.785 423.816 591.538 423.908 591.393 424.022ZM595.395 423.744H595.225V423.774C595.276 423.919 595.348 423.991 595.441 423.991H595.549C595.652 423.991 595.714 423.965 595.735 423.914C595.642 423.8 595.529 423.744 595.395 423.744ZM595.611 424.161L595.596 424.207V424.222C595.596 424.305 595.678 424.459 595.843 424.686L595.827 424.979V425.335C595.827 425.448 595.848 425.51 595.889 425.52H595.92L595.951 425.18V424.64C595.951 424.464 595.858 424.305 595.673 424.161H595.611ZM591.131 424.346V424.361L591.162 424.408H591.301C591.393 424.408 591.445 424.387 591.455 424.346V424.3C591.435 424.248 591.393 424.222 591.332 424.222H591.301C591.239 424.222 591.182 424.264 591.131 424.346ZM594.947 424.346V424.3L595.039 424.408H595.009L594.947 424.346ZM595.318 424.717H595.287V424.748L595.318 424.794H595.348V424.748L595.318 424.717ZM595.225 425.566V425.628L595.256 425.675C595.379 425.469 595.441 425.288 595.441 425.134V424.949H595.395C595.282 425.082 595.225 425.288 595.225 425.566ZM595.92 425.675L595.766 425.968C595.776 426.009 595.802 426.04 595.843 426.061H595.874C595.946 426.03 595.982 425.963 595.982 425.86C595.972 425.736 595.951 425.675 595.92 425.675ZM595.318 426.416V426.447H595.379L595.457 426.354V426.262H595.41C595.348 426.303 595.318 426.354 595.318 426.416ZM595.179 426.926L595.225 426.941L595.534 426.741V426.71L595.488 426.679H595.457C595.374 426.679 595.282 426.761 595.179 426.926ZM594.514 427.405H594.576C594.679 427.405 594.787 427.343 594.9 427.219V427.188L594.839 427.019L594.9 426.864C594.808 426.864 594.715 426.983 594.622 427.219C594.55 427.291 594.514 427.353 594.514 427.405ZM595.596 426.972L595.549 427.019V427.034H595.611V426.972H595.596ZM595.039 427.467V427.497L595.148 427.513H595.256C595.41 427.503 595.488 427.441 595.488 427.328C595.467 427.276 595.431 427.25 595.379 427.25C595.276 427.25 595.163 427.322 595.039 427.467ZM592.629 428.486H592.676C593.603 428.095 594.066 427.812 594.066 427.636H593.973C593.757 427.719 593.386 427.94 592.861 428.301C592.707 428.404 592.629 428.466 592.629 428.486ZM595.07 427.853V427.868H595.148C595.179 427.868 595.215 427.822 595.256 427.729L595.225 427.698C595.122 427.729 595.07 427.781 595.07 427.853ZM594.9 427.729L594.839 427.791V427.806H594.916L594.962 427.776L594.916 427.729H594.9ZM594.499 428.347H594.514C594.617 428.347 594.736 428.296 594.87 428.193C594.87 428.162 594.849 428.146 594.808 428.146C594.602 428.198 594.499 428.265 594.499 428.347ZM593.309 428.61V428.641H593.34C593.556 428.579 593.664 428.522 593.664 428.471V428.455H593.649C593.525 428.455 593.412 428.507 593.309 428.61ZM594.282 428.594L594.221 428.641V428.687H594.329L594.375 428.625V428.594H594.282ZM590.636 429.073L590.683 429.12H590.945L591.007 429.073C591.007 429.042 590.951 429.027 590.837 429.027C590.703 429.027 590.636 429.042 590.636 429.073ZM592.058 429.027L592.027 429.073V429.12C592.109 429.12 592.161 429.094 592.181 429.042V429.027H592.058ZM593.309 429.228L593.34 429.259H593.355C593.551 429.197 593.675 429.14 593.726 429.089L593.695 429.027H593.603C593.407 429.068 593.309 429.135 593.309 429.228ZM590.312 429.15L590.25 429.197V429.228H590.405L590.451 429.197L590.405 429.15H590.312ZM591.563 429.475L591.023 429.521L590.683 429.444H590.559C590.343 429.465 590.235 429.506 590.235 429.567V429.583C590.235 429.634 590.564 429.681 591.223 429.722C591.502 429.722 591.919 429.609 592.475 429.382L592.506 429.367V429.305H592.475C592.351 429.305 592.047 429.362 591.563 429.475Z" fill="white"/>
<path d="M598.068 427.636C598.387 427.678 598.608 427.755 598.732 427.868C598.773 427.951 598.794 428.043 598.794 428.146V428.363C598.794 428.785 598.552 429.192 598.068 429.583L597.867 429.645C597.671 429.645 597.47 429.351 597.264 428.764V428.702C597.264 428.249 597.331 427.971 597.465 427.868C597.764 427.714 597.965 427.636 598.068 427.636ZM597.573 428.316C597.594 428.584 597.63 428.718 597.681 428.718C597.702 428.697 597.748 428.517 597.82 428.177L597.867 428.069V428.023H597.851C597.666 428.084 597.573 428.182 597.573 428.316ZM597.99 428.409V428.44C597.99 428.543 598.011 428.599 598.052 428.61H598.068C598.109 428.61 598.171 428.502 598.253 428.285V428.193L598.207 428.177H598.16C598.047 428.177 597.99 428.254 597.99 428.409ZM598.438 428.61L598.454 428.641H598.531L598.547 428.532V428.486H598.531C598.5 428.486 598.469 428.527 598.438 428.61ZM598.222 428.919L597.65 428.98C597.65 429.063 597.681 429.109 597.743 429.12H597.913C598.037 429.12 598.14 429.063 598.222 428.95V428.919Z" fill="white"/>
<path d="M413.738 56.4515C412.778 54.3947 411.847 52.3971 410.911 50.39L411.601 49.8223C412.378 49.9522 413.256 49.7886 414.032 49.9185C415.176 49.9918 416.973 48.5472 418.424 49.1004C421.972 50.4527 424.191 53.7907 425.133 55.8112L422.626 60.6702C422.171 59.7866 420.836 58.6034 420.029 58.0351C419.223 57.4668 418.295 57.1079 417.33 56.9902L414.412 56.8749L413.738 56.4515Z" fill="#99C6E8"/>
<path d="M416.438 77.0848L414.177 72.2356C414.082 72.0336 413.51 71.3168 413.611 71.0234C413.713 70.7299 414.897 69.6859 415.289 69.5031L417.664 66.9196C419.428 65.1831 420.041 62.3391 421.175 60.1171C421.983 58.916 423.366 58.3614 423.557 56.9066C423.749 55.4518 423.715 53.1748 423.249 51.7703L426.076 57.8317C427.756 62.4596 424.457 68.1798 421.878 71.3502C420.308 73.4882 418.481 75.4143 416.438 77.0848Z" fill="#B4DAF6"/>
<path d="M404.289 76.1086L419.221 73.3274L422.047 79.3889L406.919 82.2615L404.289 76.1086Z" fill="#99C6E8"/>
<path d="M404.288 76.1087L405.492 67.43L411.391 69.8448C412.426 68.9445 413.415 67.9908 414.355 66.9871C416.106 65.3218 417.524 63.3253 418.532 61.1034C419.841 58.2794 420.271 55.619 419.328 53.5985C418.386 51.578 416.064 50.693 411.978 50.6306C410.458 50.6074 410.817 50.188 411.021 49.6011C411.358 49.1992 411.777 48.8771 412.251 48.6565C412.724 48.4358 413.24 48.3216 413.765 48.3213C418.73 48.2201 422.118 49.3457 423.343 51.9723C423.735 53.3856 423.738 55.1529 423.549 56.5954C423.359 58.038 422.88 59.4185 422.14 60.6511C420.927 63.1315 419.314 65.3799 417.366 67.3045C416.277 68.5506 415.093 69.5945 413.611 71.0234L419.024 73.4189L404.288 76.1087Z" fill="#E6FFFF"/>
<path d="M318.966 59.3654C319.917 57.3278 320.839 55.349 321.766 53.3607L321.06 52.7878C320.274 52.9085 319.381 52.7359 318.595 52.8566C317.436 52.917 315.597 51.4586 314.131 51.9934C310.547 53.3008 308.333 56.6002 307.4 58.6017L309.997 63.468C310.449 62.5931 311.79 61.4297 312.602 60.8727C313.414 60.3158 314.35 59.9686 315.328 59.8621L318.287 59.7795L318.966 59.3654Z" fill="#99C6E8"/>
<path d="M316.456 79.8818L318.696 75.0781C318.789 74.8779 319.362 74.1705 319.256 73.8772C319.149 73.5838 317.937 72.5312 317.537 72.3448L315.099 69.7459C313.291 67.9973 312.638 65.1584 311.463 62.9332C310.63 61.7283 309.221 61.1607 309.011 59.7099C308.801 58.2591 308.81 55.9921 309.267 54.5987L306.467 60.6033C304.813 65.1931 308.223 70.9256 310.874 74.1112C312.49 76.2576 314.365 78.1958 316.456 79.8818Z" fill="#B4DAF6"/>
<path d="M328.769 79.0442L313.592 76.1095L310.792 82.1142L326.168 85.142L328.769 79.0442Z" fill="#99C6E8"/>
<path d="M328.769 79.0442L327.452 70.3888L321.495 72.7281C320.435 71.8202 319.421 70.8596 318.457 69.8497C316.662 68.1721 315.202 66.1683 314.155 63.9446C312.796 61.1181 312.331 58.4641 313.264 56.4625C314.197 54.461 316.543 53.6054 320.687 53.5885C322.229 53.5822 321.86 53.1606 321.647 52.5739C321.3 52.1699 320.871 51.8446 320.388 51.6196C319.906 51.3946 319.381 51.2752 318.849 51.2691C313.812 51.1134 310.387 52.1968 309.173 54.7988C308.791 56.2018 308.808 57.9616 309.016 59.4001C309.224 60.8387 309.726 62.2187 310.49 63.4543C311.748 65.9377 313.409 68.1944 315.406 70.1325C316.525 71.3853 317.737 72.4379 319.256 73.8772L313.792 76.2027L328.769 79.0442Z" fill="#E6FFFF"/>
<path d="M325.444 387.046C326.431 389.162 327.389 391.217 328.352 393.281L327.642 393.865C326.843 393.732 325.94 393.9 325.141 393.766C323.964 393.691 322.116 395.177 320.623 394.608C316.974 393.217 314.691 389.783 313.722 387.705L316.301 382.707C316.77 383.616 318.143 384.833 318.973 385.417C319.802 386.002 320.756 386.371 321.749 386.492L324.75 386.611L325.444 387.046Z" fill="#99C6E8"/>
<path d="M322.667 365.822L324.992 370.81C325.089 371.018 325.679 371.755 325.574 372.057C325.469 372.359 324.251 373.433 323.848 373.621L321.405 376.279C319.591 378.065 318.96 380.99 317.794 383.276C316.963 384.511 315.54 385.082 315.343 386.578C315.147 388.074 315.181 390.417 315.66 391.861L312.753 385.626C311.024 380.866 314.418 374.982 317.07 371.721C318.685 369.522 320.565 367.541 322.667 365.822Z" fill="#B4DAF6"/>
<path d="M335.164 366.826L319.804 369.687L316.897 363.452L332.458 360.498L335.164 366.826Z" fill="#99C6E8"/>
<path d="M335.164 366.826L333.926 375.753L327.858 373.27C326.793 374.196 325.776 375.177 324.81 376.209C323.008 377.922 321.55 379.976 320.512 382.261C319.167 385.166 318.724 387.903 319.693 389.981C320.663 392.059 323.051 392.969 327.254 393.034C328.818 393.058 328.449 393.489 328.239 394.093C327.892 394.506 327.46 394.837 326.974 395.064C326.487 395.291 325.956 395.409 325.416 395.409C320.309 395.513 316.823 394.355 315.564 391.654C315.16 390.2 315.157 388.382 315.352 386.898C315.547 385.414 316.041 383.994 316.802 382.726C318.049 380.175 319.708 377.862 321.711 375.883C322.832 374.601 324.05 373.527 325.574 372.057L320.006 369.593L335.164 366.826Z" fill="#E6FFFF"/>
<path d="M408.554 387.014C407.576 389.11 406.627 391.146 405.673 393.191L406.4 393.78C407.209 393.656 408.127 393.834 408.936 393.709C410.128 393.647 412.019 395.147 413.527 394.597C417.214 393.253 419.491 389.859 420.451 387.8L417.78 382.794C417.314 383.694 415.935 384.891 415.1 385.464C414.265 386.037 413.302 386.394 412.296 386.503L409.253 386.588L408.554 387.014Z" fill="#99C6E8"/>
<path d="M411.136 365.911L408.832 370.852C408.736 371.058 408.146 371.786 408.256 372.087C408.365 372.389 409.612 373.472 410.024 373.664L412.531 376.337C414.391 378.135 415.063 381.056 416.271 383.344C417.128 384.584 418.578 385.168 418.794 386.66C419.01 388.152 419.001 390.484 418.531 391.918L421.411 385.741C423.112 381.02 419.604 375.123 416.878 371.847C415.215 369.639 413.287 367.645 411.136 365.911Z" fill="#B4DAF6"/>
<path d="M398.471 366.772L414.082 369.791L416.962 363.615L401.145 360.5L398.471 366.772Z" fill="#99C6E8"/>
<path d="M398.471 366.772L399.825 375.675L405.953 373.269C407.043 374.203 408.086 375.191 409.077 376.23C410.924 377.956 412.426 380.017 413.503 382.304C414.9 385.212 415.379 387.941 414.419 390C413.459 392.059 411.047 392.939 406.784 392.957C405.198 392.963 405.577 393.397 405.796 394C406.153 394.416 406.594 394.75 407.091 394.982C407.587 395.213 408.127 395.336 408.675 395.342C413.856 395.503 417.379 394.388 418.627 391.712C419.02 390.268 419.003 388.458 418.789 386.979C418.574 385.499 418.058 384.079 417.272 382.808C415.979 380.254 414.27 377.933 412.216 375.939C411.065 374.65 409.818 373.568 408.256 372.087L413.876 369.695L398.471 366.772Z" fill="#E6FFFF"/>
<path d="M8.71899 58L52.9437 63.7523L97.1684 58L141.393 63.7523L185.618 58V404.575H137.5L92.5 405.5L48.5 403.181L8.71899 404.575V58Z" fill="black" fill-opacity="0.2"/>
<path d="M2.21761 47L46.1632 52.774L90.1088 47L134.054 52.774L178 47V394.886L134.657 397L89.9414 392.483L44.7286 397L2 392.483L2.21761 47Z" fill="white" stroke="black"/>
<path fill-rule="evenodd" clip-rule="evenodd" d="M1 46L45.8589 51.8553L90 46.0937L134.141 51.8553L179 46V394.609L134.141 399L90 394.679L45.8589 399L1 394.609V46ZM2.43548 47.6399V393.302L45.8589 397.553L90 393.232L134.141 397.553L177.565 393.302V47.6399L134.141 53.3078L90 47.5462L45.8589 53.3078L2.43548 47.6399Z" fill="black" stroke="black" stroke-width="2"/>
<path d="M45.5001 397L45.5843 53.5709L2.43821 47.8186L2.354 392.686L45.5001 397Z" fill="#F6F6F6"/>
<path d="M134 397L134.034 53.5709L90.8877 47.8186L90.8539 392.686L134 397Z" fill="#F6F6F6"/>
<path fill-rule="evenodd" clip-rule="evenodd" d="M89.4495 392.956L89.4495 49.2567L90.8877 49.2567L90.8877 392.956L89.4495 392.956Z" fill="black"/>
<path fill-rule="evenodd" clip-rule="evenodd" d="M44.8653 57.1571L44.8653 55.009L46.3035 55.009L46.3035 57.1571L44.8653 57.1571ZM44.8653 65.7496L44.8653 61.4533L46.3035 61.4533L46.3035 65.7496L44.8653 65.7496ZM44.8653 74.3421L44.8653 70.0458L46.3035 70.0458L46.3035 74.3421L44.8653 74.3421ZM44.8653 82.9345L44.8653 78.6383L46.3035 78.6383L46.3035 82.9345L44.8653 82.9345ZM44.8653 91.527L44.8653 87.2308L46.3035 87.2308L46.3035 91.527L44.8653 91.527ZM44.8653 100.119L44.8653 95.8232L46.3035 95.8232L46.3035 100.119L44.8653 100.119ZM44.8653 108.712L44.8653 104.416L46.3035 104.416L46.3035 108.712L44.8653 108.712ZM44.8653 117.304L44.8653 113.008L46.3035 113.008L46.3035 117.304L44.8653 117.304ZM44.8653 125.897L44.8653 121.601L46.3035 121.601L46.3035 125.897L44.8653 125.897ZM44.8653 134.489L44.8653 130.193L46.3035 130.193L46.3035 134.489L44.8653 134.489ZM44.8653 143.082L44.8653 138.786L46.3035 138.786L46.3035 143.082L44.8653 143.082ZM44.8653 151.674L44.8653 147.378L46.3035 147.378L46.3035 151.674L44.8653 151.674ZM44.8653 160.267L44.8653 155.971L46.3035 155.971L46.3035 160.267L44.8653 160.267ZM44.8653 168.859L44.8653 164.563L46.3035 164.563L46.3035 168.859L44.8653 168.859ZM44.8653 177.452L44.8653 173.156L46.3035 173.156L46.3035 177.452L44.8653 177.452ZM44.8653 186.044L44.8653 181.748L46.3035 181.748L46.3035 186.044L44.8653 186.044ZM44.8653 194.637L44.8653 190.341L46.3035 190.341L46.3035 194.637L44.8653 194.637ZM44.8653 203.229L44.8653 198.933L46.3035 198.933L46.3035 203.229L44.8653 203.229ZM44.8653 211.822L44.8653 207.526L46.3035 207.526L46.3035 211.822L44.8653 211.822ZM44.8653 220.414L44.8653 216.118L46.3035 216.118L46.3035 220.414L44.8653 220.414ZM44.8653 229.007L44.8653 224.71L46.3035 224.71L46.3035 229.007L44.8653 229.007ZM44.8653 237.599L44.8653 233.303L46.3035 233.303L46.3035 237.599L44.8653 237.599ZM44.8653 246.192L44.8653 241.895L46.3035 241.895L46.3035 246.192L44.8653 246.192ZM44.8653 254.784L44.8653 250.488L46.3035 250.488L46.3035 254.784L44.8653 254.784ZM44.8653 263.377L44.8653 259.08L46.3035 259.08L46.3035 263.377L44.8653 263.377ZM44.8653 271.969L44.8653 267.673L46.3035 267.673L46.3035 271.969L44.8653 271.969ZM44.8653 280.562L44.8653 276.265L46.3035 276.265L46.3035 280.562L44.8653 280.562ZM44.8653 289.154L44.8653 284.858L46.3035 284.858L46.3035 289.154L44.8653 289.154ZM44.8653 297.747L44.8653 293.45L46.3035 293.45L46.3035 297.747L44.8653 297.747ZM44.8653 306.339L44.8653 302.043L46.3035 302.043L46.3035 306.339L44.8653 306.339ZM44.8653 314.932L44.8653 310.635L46.3035 310.635L46.3035 314.932L44.8653 314.932ZM44.8653 323.524L44.8653 319.228L46.3035 319.228L46.3035 323.524L44.8653 323.524ZM44.8653 332.117L44.8653 327.82L46.3035 327.82L46.3035 332.117L44.8653 332.117ZM44.8653 340.709L44.8653 336.413L46.3035 336.413L46.3035 340.709L44.8653 340.709ZM44.8653 349.302L44.8653 345.005L46.3035 345.005L46.3035 349.302L44.8653 349.302ZM44.8653 357.894L44.8653 353.598L46.3035 353.598L46.3035 357.894L44.8653 357.894ZM44.8653 366.487L44.8653 362.19L46.3035 362.19L46.3035 366.487L44.8653 366.487ZM44.8653 375.079L44.8653 370.783L46.3035 370.783L46.3035 375.079L44.8653 375.079ZM44.8653 383.672L44.8653 379.375L46.3035 379.375L46.3035 383.672L44.8653 383.672ZM44.8652 392.264L44.8653 387.968L46.3035 387.968L46.3035 392.264L44.8652 392.264ZM44.8652 398.708L44.8652 396.56L46.3035 396.56L46.3035 398.708L44.8652 398.708Z" fill="black"/>
<path fill-rule="evenodd" clip-rule="evenodd" d="M134.034 57.1571L134.034 55.009L135.472 55.009L135.472 57.1571L134.034 57.1571ZM134.034 65.7496L134.034 61.4533L135.472 61.4533L135.472 65.7496L134.034 65.7496ZM134.034 74.3421L134.034 70.0458L135.472 70.0458L135.472 74.3421L134.034 74.3421ZM134.034 82.9345L134.034 78.6383L135.472 78.6383L135.472 82.9345L134.034 82.9345ZM134.034 91.527L134.034 87.2308L135.472 87.2308L135.472 91.527L134.034 91.527ZM134.034 100.119L134.034 95.8232L135.472 95.8232L135.472 100.119L134.034 100.119ZM134.034 108.712L134.034 104.416L135.472 104.416L135.472 108.712L134.034 108.712ZM134.034 117.304L134.034 113.008L135.472 113.008L135.472 117.304L134.034 117.304ZM134.034 125.897L134.034 121.601L135.472 121.601L135.472 125.897L134.034 125.897ZM134.034 134.489L134.034 130.193L135.472 130.193L135.472 134.489L134.034 134.489ZM134.034 143.082L134.034 138.786L135.472 138.786L135.472 143.082L134.034 143.082ZM134.034 151.674L134.034 147.378L135.472 147.378L135.472 151.674L134.034 151.674ZM134.034 160.267L134.034 155.971L135.472 155.971L135.472 160.267L134.034 160.267ZM134.034 168.859L134.034 164.563L135.472 164.563L135.472 168.859L134.034 168.859ZM134.034 177.452L134.034 173.156L135.472 173.156L135.472 177.452L134.034 177.452ZM134.034 186.044L134.034 181.748L135.472 181.748L135.472 186.044L134.034 186.044ZM134.034 194.637L134.034 190.341L135.472 190.341L135.472 194.637L134.034 194.637ZM134.034 203.229L134.034 198.933L135.472 198.933L135.472 203.229L134.034 203.229ZM134.034 211.822L134.034 207.526L135.472 207.526L135.472 211.822L134.034 211.822ZM134.034 220.414L134.034 216.118L135.472 216.118L135.472 220.414L134.034 220.414ZM134.034 229.007L134.034 224.71L135.472 224.71L135.472 229.007L134.034 229.007ZM134.034 237.599L134.034 233.303L135.472 233.303L135.472 237.599L134.034 237.599ZM134.034 246.192L134.034 241.895L135.472 241.895L135.472 246.192L134.034 246.192ZM134.034 254.784L134.034 250.488L135.472 250.488L135.472 254.784L134.034 254.784ZM134.034 263.377L134.034 259.08L135.472 259.08L135.472 263.377L134.034 263.377ZM134.034 271.969L134.034 267.673L135.472 267.673L135.472 271.969L134.034 271.969ZM134.034 280.562L134.034 276.265L135.472 276.265L135.472 280.562L134.034 280.562ZM134.034 289.154L134.034 284.858L135.472 284.858L135.472 289.154L134.034 289.154ZM134.034 297.747L134.034 293.45L135.472 293.45L135.472 297.747L134.034 297.747ZM134.034 306.339L134.034 302.043L135.472 302.043L135.472 306.339L134.034 306.339ZM134.034 314.932L134.034 310.635L135.472 310.635L135.472 314.932L134.034 314.932ZM134.034 323.524L134.034 319.228L135.472 319.228L135.472 323.524L134.034 323.524ZM134.034 332.117L134.034 327.82L135.472 327.82L135.472 332.117L134.034 332.117ZM134.034 340.709L134.034 336.413L135.472 336.413L135.472 340.709L134.034 340.709ZM134.034 349.302L134.034 345.005L135.472 345.005L135.472 349.302L134.034 349.302ZM134.034 357.894L134.034 353.598L135.472 353.598L135.472 357.894L134.034 357.894ZM134.034 366.487L134.034 362.19L135.472 362.19L135.472 366.487L134.034 366.487ZM134.034 375.079L134.034 370.783L135.472 370.783L135.472 375.079L134.034 375.079ZM134.034 383.672L134.034 379.375L135.472 379.375L135.472 383.672L134.034 383.672ZM134.034 392.264L134.034 387.968L135.472 387.968L135.472 392.264L134.034 392.264ZM134.034 398.708L134.034 396.56L135.472 396.56L135.472 398.708L134.034 398.708Z" fill="black"/>
<path fill-rule="evenodd" clip-rule="evenodd" d="M1 44L46.7504 49.9624L91 44.1956L135.25 49.9624L181 44V394.528L135.25 399L91 394.675L46.7504 399L1 394.528V44ZM4.00169 47.4241V391.8L46.7504 395.978L91 391.653L135.25 395.978L177.998 391.8V47.4241L135.25 52.9954L91 47.2285L46.7504 52.9954L4.00169 47.4241Z" fill="black"/>
<path d="M84.0744 420.074C84.6614 420.136 84.955 420.223 84.955 420.337C84.955 420.44 84.991 420.491 85.0631 420.491L85.1095 420.538L84.9395 420.677V420.738H84.9859C85.0374 420.677 85.0786 420.646 85.1095 420.646C85.161 420.646 85.1867 420.707 85.1867 420.831L85.3258 425.064C85.2228 425.507 85.1713 426.382 85.1713 427.69V427.752C85.1713 428.545 85.1919 429.06 85.2331 429.297C85.1507 429.327 85.1095 429.394 85.1095 429.497C85.1095 429.631 85.1352 429.698 85.1867 429.698H85.2331V429.59H85.264C85.3155 429.59 85.367 429.832 85.4185 430.316L85.3876 430.332H85.3258C85.2434 430.239 85.1713 430.193 85.1095 430.193V430.223V430.285C85.1095 430.44 85.2434 430.517 85.5111 430.517C87.0458 430.435 87.8131 430.44 87.8131 430.532V430.548C87.8131 430.568 87.7359 430.604 87.5814 430.656L87.5659 430.687V430.702C87.5865 430.723 87.6792 430.759 87.844 430.81C87.8852 430.852 87.9058 430.908 87.9058 430.98C87.8028 431.547 87.6792 431.83 87.535 431.83L87.2415 431.861L86.4381 431.768L85.9437 431.799C83.1834 431.84 81.8033 431.809 81.8033 431.706C81.7209 431.593 81.6797 431.511 81.6797 431.459V431.444L81.8342 430.919L81.7724 430.81C81.7724 430.656 81.8805 430.553 82.0968 430.502L82.2822 430.455L83.7345 430.409C83.8581 430.409 83.9302 430.332 83.9508 430.177V430.023C83.9508 429.178 83.9199 428.468 83.8581 427.891C83.9508 424.842 84.0486 423.318 84.1516 423.318L84.167 423.117C84.1258 422.242 84.0538 421.804 83.9508 421.804C83.4976 422.103 83.1937 422.396 83.0392 422.685L82.9465 422.731C82.3595 422.515 81.9835 422.309 81.8187 422.113C81.7981 422.113 81.7775 422.041 81.7569 421.897L81.7878 421.851L81.896 421.866H82.0041C82.2101 421.866 82.653 421.511 83.3328 420.8C83.5388 420.615 83.7036 420.404 83.8272 420.167C83.9302 420.105 84.0126 420.074 84.0744 420.074ZM84.2597 420.599V420.615L84.2752 420.646H84.3061C84.3988 420.646 84.4503 420.63 84.4606 420.599V420.584L84.4142 420.538H84.3679C84.2958 420.548 84.2597 420.568 84.2597 420.599ZM83.7963 420.599L83.7345 420.646L83.7808 420.692H83.8272L83.9199 420.677V420.63L83.8735 420.599H83.7963ZM84.9859 420.924L84.955 420.97V421.016L84.9859 421.032L85.0322 421.016V420.97L84.9859 420.924ZM82.6994 422.206V422.252H82.7148C82.8693 422.252 83.0289 422.154 83.1937 421.959C83.7499 421.444 84.028 421.13 84.028 421.016H83.9817C83.4049 421.5 82.9774 421.897 82.6994 422.206ZM84.5687 421.449V421.464L84.646 421.526L84.6923 421.511V421.356L84.6769 421.325V421.31C84.6048 421.32 84.5687 421.367 84.5687 421.449ZM84.5069 421.449H84.4451L84.337 421.712V421.789L84.3988 421.851H84.4915C84.5533 421.851 84.5893 421.83 84.5996 421.789V421.742C84.5996 421.712 84.5481 421.676 84.4451 421.634H84.4142V421.573C84.476 421.521 84.5069 421.48 84.5069 421.449ZM82.3904 421.99V422.021H82.4522C82.5655 422.021 82.6633 421.943 82.7457 421.789L82.7302 421.758H82.7148C82.5706 421.82 82.4625 421.897 82.3904 421.99ZM84.6769 422.546L84.7232 423.612H84.7541C84.8159 423.437 84.8468 423.184 84.8468 422.855V422.407C84.8468 422.067 84.8262 421.897 84.785 421.897C84.7232 421.897 84.6872 422.113 84.6769 422.546ZM84.6769 424.878V425.048L84.7232 425.342H84.7541C84.8365 425.342 84.8777 425.043 84.8777 424.446V424.353L84.8314 424.307C84.7284 424.348 84.6769 424.539 84.6769 424.878ZM84.2288 427.705H84.1825V427.783H84.2288V427.705ZM84.7232 428.941V428.957V429.065L84.785 429.111H84.8159L84.8468 429.08V429.034C84.8262 429.034 84.785 429.003 84.7232 428.941ZM84.8314 429.42H84.8159C84.7541 429.595 84.7232 429.811 84.7232 430.069V430.193C84.7232 430.316 84.7747 430.399 84.8777 430.44H84.9086C84.9395 430.44 84.955 430.409 84.955 430.347C84.9447 429.729 84.9035 429.42 84.8314 429.42ZM84.1825 429.806L84.1207 429.899L84.1516 429.961H84.167L84.2288 429.899V429.868L84.1825 429.806ZM84.4451 430.069L84.3988 430.115V430.223L84.4451 430.27H84.4915V430.115L84.4451 430.069ZM82.4831 430.61H82.344V430.641L82.4058 430.702H82.4367L82.4831 430.641V430.61ZM82.4522 430.98L82.0196 431.027V431.089L82.0659 431.15H82.0968C82.1998 431.15 82.3183 431.094 82.4522 430.98ZM85.4494 430.919V430.98L86.4999 430.81H86.5926V430.749C86.3557 430.718 85.9746 430.774 85.4494 430.919ZM82.9465 431.089L82.6067 431.135V431.197H82.6994H82.8384C83.0959 431.197 83.2246 431.176 83.2246 431.135L83.1783 431.089H82.9465ZM84.167 431.058L84.1516 431.089V431.104C84.1928 431.145 84.234 431.166 84.2752 431.166V431.135C84.2546 431.083 84.2185 431.058 84.167 431.058ZM83.889 431.089L83.8581 431.135L83.889 431.166H83.9508L83.9971 431.135V431.089H83.889ZM84.4915 431.166L84.4142 431.212V431.243C84.4142 431.284 84.5739 431.305 84.8932 431.305H84.9086C84.991 431.305 85.0322 431.274 85.0322 431.212C84.991 431.181 84.9447 431.166 84.8932 431.166H84.4915ZM87.396 431.32V431.382L87.4578 431.444C87.5711 431.444 87.6277 431.361 87.6277 431.197V431.073L87.5968 431.027H87.535C87.4423 431.099 87.396 431.197 87.396 431.32ZM85.3258 431.336C85.264 431.439 85.1558 431.49 85.0013 431.49V431.521C85.0013 431.562 85.161 431.588 85.4802 431.598H85.5111C85.6965 431.454 85.8253 431.331 85.8974 431.228C85.8871 431.197 85.8407 431.192 85.7583 431.212C85.6759 431.222 85.5317 431.264 85.3258 431.336ZM86.4381 431.197L86.0982 431.228V431.258C86.0982 431.289 86.2476 431.305 86.5463 431.305L86.5617 431.289V431.274C86.5411 431.222 86.4999 431.197 86.4381 431.197ZM86.7935 431.197L86.7471 431.228L86.7626 431.289H86.7935L86.8398 431.258V431.228L86.7935 431.197ZM86.0673 431.413H86.0055V431.444H86.0673V431.413ZM87.1333 431.645V431.66C87.1333 431.681 87.1797 431.701 87.2724 431.722C87.3754 431.712 87.4269 431.686 87.4269 431.645V431.614L87.3651 431.567H87.3033C87.2106 431.567 87.1539 431.593 87.1333 431.645Z" fill="white"/>
<path d="M89.4044 429.636C89.7237 429.678 89.9451 429.755 90.0687 429.868C90.1099 429.951 90.1305 430.043 90.1305 430.146V430.362C90.1305 430.785 89.8885 431.192 89.4044 431.583L89.2036 431.645C89.0079 431.645 88.807 431.351 88.601 430.764V430.702C88.601 430.249 88.668 429.971 88.8019 429.868C89.1006 429.714 89.3014 429.636 89.4044 429.636ZM88.91 430.316C88.9306 430.584 88.9667 430.718 89.0182 430.718C89.0388 430.697 89.0851 430.517 89.1572 430.177L89.2036 430.069V430.023H89.1881C89.0027 430.084 88.91 430.182 88.91 430.316ZM89.3272 430.409V430.44C89.3272 430.543 89.3478 430.599 89.389 430.61H89.4044C89.4456 430.61 89.5074 430.502 89.5898 430.285V430.193L89.5435 430.177H89.4971C89.3838 430.177 89.3272 430.254 89.3272 430.409ZM89.7752 430.61L89.7906 430.641H89.8679L89.8833 430.532V430.486H89.8679C89.837 430.486 89.8061 430.527 89.7752 430.61ZM89.5589 430.919L88.9873 430.98C88.9873 431.063 89.0182 431.109 89.08 431.119H89.2499C89.3735 431.119 89.4765 431.063 89.5589 430.949V430.919Z" fill="white"/>
<path d="M59.042 21.9681L54.3818 18.7583L61.2239 11.2849L66.0596 14.3031L59.042 21.9681Z" fill="#B2D8F5"/>
<path d="M49.3926 32.5075L44.5136 29.1415L51.3777 21.6441L56.4102 24.8425L49.3926 32.5075Z" fill="#B2D8F5"/>
<path d="M51.3775 21.6441L48.0312 18.5804L53.4359 21.7674L56.4101 24.8425L51.3775 21.6441Z" fill="#A7CFEE"/>
<path d="M49.671 16.0897C39.709 14.7185 30.5819 20.781 26.0163 28.9296C25.0069 31.0583 25.0685 32.7784 25.7798 33.2923L23.2251 31.4465C21.8983 30.3493 21.7809 30.3906 21.0466 29.5695C20.6529 29.209 20.2508 28.3713 20.4049 27.8079C21.2677 25.7669 22.4856 23.9018 24.0035 22.2964C30.4363 15.2701 38.6037 10.3015 47.5559 13.5661C50.4399 14.7327 54.2194 17.5063 57.1721 20.2096C55.2983 18.494 51.7208 16.2128 49.671 16.0897Z" fill="#B2D8F5"/>
<path d="M61.9651 30.6324L49.3928 32.5076L56.4104 24.8425L54.0482 22.6798C52.234 21.3814 50.4386 20.2171 48.2458 19.9271C44.7101 19.4843 41.8004 20.1605 38.749 21.8938C34.5991 23.9667 30.314 27.686 28.2835 31.8503C28.0827 32.2667 27.7823 32.6258 27.4082 32.8968C27.0342 33.1677 26.5954 33.4281 26.273 33.4382C25.9506 33.4483 25.7803 33.2923 25.7803 33.2923C24.9285 32.5125 24.7676 31.4494 25.2725 30.5027C27.8653 24.5164 32.1962 20.8671 37.4207 18.0242C40.9514 15.956 45.5609 15.461 49.6715 16.0897C52.2415 16.3967 54.0403 17.6445 56.0892 19.2648C57.1753 20.1236 58.0577 21.067 59.042 21.9681L66.0596 14.3031L61.9651 30.6324Z" fill="#E6FFFF"/>
<path d="M118.6 22.0573L123.084 18.6146L116.319 11.8496L111.662 15.1188L118.6 22.0573Z" fill="#B2D8F5"/>
<path d="M128.14 31.5978L132.834 27.988L126.048 21.2013L121.202 24.6593L128.14 31.5978Z" fill="#B2D8F5"/>
<path d="M126.048 21.2013L129.256 17.9932L124.048 21.4664L121.202 24.6593L126.048 21.2013Z" fill="#A7CFEE"/>
<path d="M127.624 15.6932C137.291 13.6591 146.257 18.894 150.818 26.475C151.831 28.4683 151.797 30.141 151.113 30.6898L153.57 28.7189C154.843 27.5608 154.958 27.5926 155.66 26.7443C156.037 26.3668 156.416 25.5259 156.258 24.9903C155.388 23.0717 154.176 21.3487 152.676 19.8989C146.316 13.5386 138.299 9.29675 129.643 13.096C126.856 14.4314 123.223 17.3888 120.392 20.2196C122.188 18.4231 125.633 15.9576 127.624 15.6932Z" fill="#B2D8F5"/>
<path d="M115.888 30.6682L128.141 31.5983L121.203 24.6598L123.467 22.395C125.212 21.0075 126.94 19.7512 129.068 19.315C132.5 18.6356 135.339 19.0857 138.332 20.5512C142.399 22.2684 146.621 25.5729 148.658 29.4685C148.859 29.8583 149.157 30.1853 149.524 30.4217C149.892 30.658 150.323 30.8795 150.636 30.8666C150.95 30.8536 151.113 30.6903 151.113 30.6903C151.93 29.8737 152.071 28.8311 151.565 27.9486C148.955 22.3256 144.689 19.0921 139.566 16.704C136.102 14.9476 131.612 14.7934 127.624 15.6937C125.13 16.1732 123.4 17.5106 121.431 19.227C120.388 20.1368 119.544 21.1142 118.601 22.0578L111.662 15.1193L115.888 30.6682Z" fill="#E6FFFF"/>
<path d="M577.943 53.2566L621.808 99.2749V352.376L577.943 398.394V53.2566Z" fill="black" fill-opacity="0.2"/>
<path d="M572.943 47.2566L616.808 93.2749V346.376L572.943 392.394V47.2566Z" fill="white"/>
<path fill-rule="evenodd" clip-rule="evenodd" d="M572.443 46.0074L617.308 93.0748V346.576L572.443 393.643V46.0074ZM573.443 48.5058V391.145L616.308 346.175V93.475L573.443 48.5058Z" fill="black"/>
<path fill-rule="evenodd" clip-rule="evenodd" d="M641.065 68.967L643.197 66.8352L643.906 67.5402L641.775 69.6721L641.065 68.967ZM636.802 73.2308L638.934 71.0989L639.643 71.804L637.511 73.9358L636.802 73.2308ZM632.538 77.4945L634.67 75.3626L635.379 76.0677L633.247 78.1996L632.538 77.4945ZM628.274 81.7582L630.406 79.6264L631.115 80.3314L628.983 82.4633L628.274 81.7582ZM624.01 86.022L626.142 83.8901L626.852 84.5952L624.72 86.727L624.01 86.022ZM619.747 90.2857L621.879 88.1539L622.588 88.8589L620.456 90.9908L619.747 90.2857ZM615.483 94.5494L617.615 92.4176L618.324 93.1226L616.192 95.2545L615.483 94.5494ZM611.219 98.8132L613.351 96.6813L614.06 97.3864L611.928 99.5182L611.219 98.8132ZM606.956 103.077L609.087 100.945L609.797 101.65L607.665 103.782L606.956 103.077ZM602.692 107.341L604.824 105.209L605.533 105.914L603.401 108.046L602.692 107.341ZM598.428 111.604L600.56 109.473L601.269 110.178L599.137 112.309L598.428 111.604ZM594.164 115.868L596.296 113.736L597.005 114.441L594.874 116.573L594.164 115.868ZM589.901 120.132L592.032 118L592.742 118.705L590.61 120.837L589.901 120.132ZM585.637 124.396L587.769 122.264L588.478 122.969L586.346 125.101L585.637 124.396ZM581.373 128.659L583.505 126.527L584.214 127.233L582.082 129.364L581.373 128.659ZM577.109 132.923L579.241 130.791L579.95 131.496L577.819 133.628L577.109 132.923ZM572.846 137.187L574.977 135.055L575.687 135.76L573.555 137.892L572.846 137.187ZM568.582 141.451L570.714 139.319L571.423 140.024L569.291 142.156L568.582 141.451ZM564.318 145.714L566.45 143.582L567.159 144.288L565.027 146.419L564.318 145.714ZM560.054 149.978L562.186 147.846L562.895 148.551L560.764 150.683L560.054 149.978ZM555.791 154.242L557.923 152.11L558.632 152.815L556.5 154.947L555.791 154.242ZM551.527 158.506L553.659 156.374L554.368 157.079L552.236 159.211L551.527 158.506ZM547.263 162.769L549.395 160.637L550.104 161.343L547.972 163.474L547.263 162.769ZM542.999 167.033L545.131 164.901L545.84 165.606L543.709 167.738L542.999 167.033ZM538.736 171.297L540.868 169.165L541.577 169.87L539.445 172.002L538.736 171.297ZM534.472 175.561L536.604 173.429L537.313 174.134L535.181 176.266L534.472 175.561Z" fill="black"/>
<path d="M574.381 49.4137V96.8701L616.089 94.713L604.584 81.7703L574.381 49.4137Z" fill="#E5E5E5"/>
<path d="M578.696 91.8368L573.662 49.4137V47.2566L617.528 93.2749L578.696 91.8368Z" fill="white"/>
<path fill-rule="evenodd" clip-rule="evenodd" d="M573.162 46.0074L617.889 92.9299C618.03 93.0772 618.067 93.2948 617.983 93.4803C617.9 93.6657 617.712 93.7821 617.509 93.7746L578.25 92.3207L573.162 49.4433V46.0074ZM574.162 48.5058V49.3842L579.142 91.353L616.317 92.7298L574.162 48.5058Z" fill="black"/>
<path d="M574.381 342.061L616.09 346.377L572.944 393.115L572.944 390.958L574.381 342.061Z" fill="#E5E5E5"/>
<path d="M577.258 345.658L616.81 347.096L572.944 393.115L572.944 390.958L577.258 345.658Z" fill="white"/>
<path fill-rule="evenodd" clip-rule="evenodd" d="M572.444 394.364L572.444 390.934L576.805 345.141L616.828 346.597C617.024 346.604 617.199 346.726 617.273 346.908C617.347 347.09 617.307 347.299 617.171 347.441L572.444 394.364ZM615.681 347.556L577.711 346.175L573.444 390.981L573.444 391.865L615.681 347.556Z" fill="black"/>
<path fill-rule="evenodd" clip-rule="evenodd" d="M571.943 44.7582L617.808 92.8747V346.776L571.943 394.892V44.7582ZM573.943 49.7551V389.895L615.808 345.975V93.6752L573.943 49.7551Z" fill="black" stroke="black" stroke-width="2"/>
<path d="M545.219 163.003C543.509 164.592 541.848 166.135 540.18 167.686L539.406 167.19C539.287 166.389 538.849 165.581 538.731 164.78C538.441 163.637 536.459 162.336 536.541 160.74C536.743 156.84 539.308 153.612 540.988 152.051L546.537 152.968C545.816 153.694 545.08 155.375 544.779 156.344C544.478 157.313 544.42 158.334 544.61 159.316L545.42 162.208L545.219 163.003Z" fill="#99C6E8"/>
<path d="M564.56 153.834L560.529 157.581C560.361 157.737 559.841 158.524 559.521 158.517C559.202 158.511 557.806 157.682 557.503 157.356L554.223 155.848C551.965 154.671 548.988 154.971 546.454 154.564C545.023 154.152 544.043 152.974 542.558 153.247C541.074 153.52 538.856 154.273 537.628 155.173L542.667 150.49C546.666 147.381 553.308 148.801 557.227 150.322C559.816 151.183 562.279 152.362 564.56 153.834Z" fill="#B4DAF6"/>
<path d="M567.448 166.034L560.003 152.299L565.042 147.615L572.638 161.514L567.448 166.034Z" fill="#99C6E8"/>
<path d="M567.448 166.034L558.572 167.601L559.07 161.063C557.862 160.335 556.615 159.668 555.336 159.067C553.152 157.879 550.749 157.123 548.256 156.838C545.078 156.451 542.338 156.871 540.658 158.433C538.979 159.994 538.847 162.546 540.078 166.566C540.536 168.061 540.012 167.842 539.373 167.829C538.873 167.625 538.425 167.317 538.059 166.923C537.694 166.53 537.419 166.061 537.252 165.547C535.583 160.72 535.613 157.047 537.797 155.017C539.056 154.186 540.785 153.625 542.257 153.354C543.729 153.083 545.232 153.116 546.672 153.45C549.483 153.853 552.194 154.721 554.694 156.018C556.258 156.69 557.654 157.519 559.522 158.517L560.154 152.462L567.448 166.034Z" fill="#E6FFFF"/>
</svg>
