<svg width="621" height="298" viewBox="0 0 621 298" fill="none" xmlns="http://www.w3.org/2000/svg">
<path d="M79.2109 279.594V279.289V279.266C80.0703 279.359 80.5 279.492 80.5 279.664C80.3594 280.523 80.0859 282.758 79.6797 286.367C79.5859 287.148 79.4531 287.742 79.2812 288.148C78.8906 288.68 78.6484 289.352 78.5547 290.164C78.6641 290.242 79.2969 290.328 80.4531 290.422C80.8281 290.562 81.1172 290.633 81.3203 290.633H81.5781L82.7734 290.516H83.3125V290.492C83.2188 289.539 83.1406 287.719 83.0781 285.031C83.0156 284.688 82.9453 284.492 82.8672 284.445C82.8672 284.367 83.125 284.289 83.6406 284.211C83.6406 284.164 83.7109 284.133 83.8516 284.117C84.0547 284.117 84.1797 284.195 84.2266 284.352L84.0859 284.727C84.3672 285.18 84.5078 286.633 84.5078 289.086C84.5078 289.961 84.5703 290.398 84.6953 290.398H84.7656C85.375 290.398 85.7812 290.336 85.9844 290.211L86.1484 290.305L86.125 290.516V290.703L86.2188 290.867L86.1953 291.102C86.1953 291.57 86.0234 291.859 85.6797 291.969C85.3359 292.062 85.1641 292.156 85.1641 292.25H84.7656C84.7188 292.25 84.6953 292.273 84.6953 292.32C84.8203 293.398 84.8828 294.406 84.8828 295.344C84.9609 295.688 85 296.039 85 296.398L85.1875 296.492V296.539C85.1875 296.648 84.6953 296.859 83.7109 297.172C83.5859 297.062 83.4219 297.008 83.2188 297.008L83.1719 296.961C83.3438 295.805 83.4297 294.961 83.4297 294.43C83.4297 292.836 83.3281 292.039 83.125 292.039L82.1406 291.992H80.1484L79.4453 292.062C77.1953 292.031 76.0703 291.922 76.0703 291.734C76.0234 291.734 76 291.719 76 291.688C76.5 291.219 76.75 290.867 76.75 290.633C76.9844 290.086 77.1016 289.523 77.1016 288.945C77.5234 287.773 77.8281 286.148 78.0156 284.07C78.0156 283.805 78.1797 282.703 78.5078 280.766C78.5078 280.5 78.5859 280.133 78.7422 279.664H78.7656C78.8594 279.758 78.9453 279.805 79.0234 279.805H79.1406L79.2109 279.711V279.594ZM79.0469 280.672V280.719C79.0625 280.922 79.0938 281.023 79.1406 281.023H79.1875V280.93C79.1875 280.852 79.25 280.703 79.375 280.484L79.4453 280.109V280.086L79.4219 280.016H79.3281C79.1406 280.016 79.0469 280.234 79.0469 280.672ZM79.5625 281.797V281.867L79.6328 281.938C79.6953 281.891 79.7266 281.82 79.7266 281.727V281.539H79.7031C79.6562 281.539 79.6094 281.625 79.5625 281.797ZM78.2734 284.141V284.164L78.3672 284.234H78.3906L78.5547 284.211V284.07L78.4609 283.883L78.625 283.062H78.6016C78.3828 283.531 78.2734 283.891 78.2734 284.141ZM79.2109 286.25V286.391H79.2812C79.375 286.359 79.4219 286.289 79.4219 286.18V286.016H79.3281C79.25 286.062 79.2109 286.141 79.2109 286.25ZM78.2734 288.266V288.289C78.4609 288.289 78.5547 288.164 78.5547 287.914V287.797L78.5312 287.773V287.75C78.4219 287.75 78.3359 287.922 78.2734 288.266ZM83.6641 287.891L83.5938 287.844V287.867V288.031H83.6641V287.891ZM78.3203 288.383H78.1797V288.5H78.2734L78.3203 288.43V288.383ZM83.5938 288.523V288.852C83.5938 288.961 83.6172 289.016 83.6641 289.016L83.7109 288.945V288.781C83.7109 288.641 83.6719 288.555 83.5938 288.523ZM77.8516 289.672L77.7812 289.719V289.766H77.8516L77.9219 289.695V289.672H77.8516ZM77.5 290.633L77.5703 290.727H77.6406L77.9922 290.656V290.633C77.9609 290.555 77.8906 290.516 77.7812 290.516H77.6875C77.5938 290.516 77.5312 290.555 77.5 290.633ZM85.7266 290.633L85.0469 290.703V290.75C85.0938 290.812 85.2578 290.859 85.5391 290.891C85.6641 290.891 85.7578 290.836 85.8203 290.727V290.656C85.8203 290.641 85.7891 290.633 85.7266 290.633ZM78.7422 290.75L78.7891 290.82L79.3281 290.75V290.727C79.3281 290.664 79.2031 290.633 78.9531 290.633C78.8125 290.648 78.7422 290.688 78.7422 290.75ZM80.1719 291.383C80.5156 291.477 81.4219 291.523 82.8906 291.523C83.1406 291.523 83.3125 291.453 83.4062 291.312C83.4062 291.297 83.2734 291.273 83.0078 291.242C81.1172 291.258 80.1719 291.305 80.1719 291.383ZM84.6719 291.242L84.6016 291.289V291.336L84.7656 291.477L84.6484 291.664V291.688C84.6641 291.734 84.7422 291.758 84.8828 291.758H85.0938C85.3125 291.758 85.5312 291.734 85.75 291.688C85.75 291.656 85.5625 291.586 85.1875 291.477C85.125 291.32 84.9844 291.242 84.7656 291.242H84.6719ZM83.7578 292.648V292.742L83.8281 292.789L83.8516 292.742V292.484C83.7891 292.5 83.7578 292.555 83.7578 292.648ZM84.3438 295.461C84.3594 295.617 84.3984 295.695 84.4609 295.695L84.5078 295.672V295.391C84.5078 295.266 84.4844 295.188 84.4375 295.156C84.375 295.156 84.3438 295.258 84.3438 295.461ZM83.6875 296.328V296.375H83.7109C83.8047 296.328 83.8516 296.242 83.8516 296.117C83.7422 296.133 83.6875 296.203 83.6875 296.328Z" fill="white"/>
<path d="M89.8047 292.742C90.2891 292.805 90.625 292.922 90.8125 293.094C90.875 293.219 90.9062 293.359 90.9062 293.516V293.844C90.9062 294.484 90.5391 295.102 89.8047 295.695L89.5 295.789C89.2031 295.789 88.8984 295.344 88.5859 294.453V294.359C88.5859 293.672 88.6875 293.25 88.8906 293.094C89.3438 292.859 89.6484 292.742 89.8047 292.742ZM89.0547 293.773C89.0859 294.18 89.1406 294.383 89.2188 294.383C89.25 294.352 89.3203 294.078 89.4297 293.562L89.5 293.398V293.328H89.4766C89.1953 293.422 89.0547 293.57 89.0547 293.773ZM89.6875 293.914V293.961C89.6875 294.117 89.7188 294.203 89.7812 294.219H89.8047C89.8672 294.219 89.9609 294.055 90.0859 293.727V293.586L90.0156 293.562H89.9453C89.7734 293.562 89.6875 293.68 89.6875 293.914ZM90.3672 294.219L90.3906 294.266H90.5078L90.5312 294.102V294.031H90.5078C90.4609 294.031 90.4141 294.094 90.3672 294.219ZM90.0391 294.688L89.1719 294.781C89.1719 294.906 89.2188 294.977 89.3125 294.992H89.5703C89.7578 294.992 89.9141 294.906 90.0391 294.734V294.688Z" fill="white"/>
<path d="M331.953 281.211H332C334.422 281.242 335.633 281.297 335.633 281.375C335.617 281.438 335.531 281.508 335.375 281.586V281.703L335.469 281.961L335.375 282.289V282.336L335.398 282.383L335.328 282.453V282.477L335 282.242H334.93C334.93 282.461 334.664 282.57 334.133 282.57L333.547 282.477C331.469 282.633 330.219 282.75 329.797 282.828C329.641 282.984 329.484 283.695 329.328 284.961C329.172 285.43 329.094 285.844 329.094 286.203H329.164V286.227C329.586 286.211 329.797 286.133 329.797 285.992C329.656 285.945 329.562 285.875 329.516 285.781V285.734C329.516 285.422 330.078 285.227 331.203 285.148H331.367C332.195 285.148 332.789 285.406 333.148 285.922C333.805 286.328 334.305 286.695 334.648 287.023L334.93 287.328V287.352H334.906L334.391 287.023H334.32V287.047C334.461 287.406 334.609 287.594 334.766 287.609C334.766 287.656 334.828 287.68 334.953 287.68L335.188 287.656C335.297 287.75 335.352 287.836 335.352 287.914C335.195 287.93 335.117 287.969 335.117 288.031C335.133 288.141 335.289 288.281 335.586 288.453C335.695 288.453 335.75 288.758 335.75 289.367V290.234C336 290.844 335.992 291.414 335.727 291.945L335.68 291.969H335.609C335.5 291.922 335.422 291.789 335.375 291.57C335.406 291.398 335.461 291.281 335.539 291.219L335.445 291.148C335.242 291.148 335.062 291.414 334.906 291.945V291.992C334.906 292.055 334.992 292.086 335.164 292.086V292.109V292.18C334.805 292.961 334.367 293.562 333.852 293.984C333.711 294.047 333.547 294.32 333.359 294.805V294.852C333.5 294.852 333.898 294.492 334.555 293.773C334.836 293.289 335.148 292.836 335.492 292.414L335.539 292.438V292.508C335.195 293.117 334.844 293.641 334.484 294.078C333.344 295.109 332.336 295.758 331.461 296.023C329.773 296.195 328.672 296.281 328.156 296.281C328.016 296.219 327.477 296.164 326.539 296.117H326.516V296.07L326.797 294.945C326.797 294.555 327.016 294.359 327.453 294.359L327.57 294.336C327.867 294.508 328.023 294.594 328.039 294.594H328.156C328.312 294.594 328.57 294.57 328.93 294.523C329.289 294.477 329.5 294.453 329.562 294.453C330.062 294.625 330.961 294.305 332.258 293.492C333.18 292.758 333.758 292.172 333.992 291.734C334.352 291.266 334.398 290.734 334.133 290.141C334.133 289.047 333.898 288.297 333.43 287.891C333.289 287.625 332.883 287.367 332.211 287.117C331.852 286.898 331.484 286.789 331.109 286.789H331.016C330.484 286.789 329.57 287.023 328.273 287.492L327.875 287.562L327.781 287.469V287.375C327.859 287.375 327.93 286.898 327.992 285.945C328.18 285.633 328.336 284.547 328.461 282.688C328.477 282.031 328.539 281.703 328.648 281.703L328.695 281.656V281.609L328.648 281.375H328.695C328.773 281.438 328.93 281.469 329.164 281.469C329.398 281.469 330.328 281.383 331.953 281.211ZM334.555 281.609V281.656C334.586 281.734 334.68 281.773 334.836 281.773H334.93C335.086 281.773 335.164 281.703 335.164 281.562L335.07 281.516H334.766C334.672 281.516 334.602 281.547 334.555 281.609ZM328.93 282.055L328.859 282.172V282.195L328.93 282.289C330.836 282.07 331.789 281.898 331.789 281.773H331.742C329.867 281.914 328.93 282.008 328.93 282.055ZM333.148 281.961L332.469 282.008V282.102L333.008 282.125C333.242 282.125 333.359 282.094 333.359 282.031C333.328 281.984 333.258 281.961 333.148 281.961ZM329.023 282.711L328.977 282.781V283.461L329.023 283.508C329.07 283.398 329.094 283.242 329.094 283.039V282.781L329.047 282.711H329.023ZM328.93 284.258H328.859V284.305H328.93V284.258ZM331.367 285.781V285.828H331.414H332.047C332.578 285.828 332.844 285.805 332.844 285.758C332.844 285.68 332.539 285.625 331.93 285.594L331.367 285.781ZM330.406 285.781V285.828L330.523 285.922H330.641L330.945 285.828V285.758L330.523 285.711C330.445 285.742 330.406 285.766 330.406 285.781ZM331.531 286.32C331.578 286.461 331.742 286.531 332.023 286.531H332.164C332.242 286.531 332.32 286.484 332.398 286.391V286.25C332.383 286.203 332.305 286.18 332.164 286.18H331.812C331.672 286.18 331.578 286.227 331.531 286.32ZM329.469 286.602V286.625L329.562 286.695C329.688 286.695 329.781 286.641 329.844 286.531V286.508L329.727 286.461C329.555 286.492 329.469 286.539 329.469 286.602ZM328.273 286.648L328.156 286.766V287.023L328.25 287.094H328.508V287.023C328.508 286.852 328.445 286.727 328.32 286.648H328.273ZM332.703 286.742H332.68V286.836L332.797 286.93H332.844C332.859 286.93 332.867 286.898 332.867 286.836C332.867 286.773 332.812 286.742 332.703 286.742ZM334.602 287.797L334.391 287.562V287.609C334.391 287.734 334.445 287.828 334.555 287.891H334.602V287.797ZM334.156 287.961H334.133V288.031L334.227 288.102H334.25V288.078L334.156 287.961ZM334.391 288.359L334.32 288.289V288.359L334.367 288.43L334.391 288.383V288.359ZM334.461 288.664H334.414V288.781L334.484 288.828H334.531V288.734L334.461 288.664ZM334.648 289.18L334.555 289.25V289.297H334.695L334.742 289.25V289.18H334.648ZM334.648 289.625H334.555L334.531 289.836V289.977L334.648 289.859V289.625ZM335.211 291.898L335.258 291.852H335.375V291.898L335.258 291.969H335.211V291.898ZM335.492 292.25L335.586 292.156L335.68 292.18V292.203L335.586 292.32L335.492 292.273V292.25ZM330.359 294.945V294.992C330.766 294.852 331.234 294.734 331.766 294.641C332.094 294.453 332.258 294.297 332.258 294.172L332.188 294.078L333.406 293.586L333.383 293.445C333.773 292.992 333.969 292.703 333.969 292.578L333.945 292.555H333.898C333.758 292.555 333.047 293.078 331.766 294.125C331.516 294.125 331.047 294.398 330.359 294.945ZM329.047 295.695V295.766L329.141 295.789C329.266 295.789 329.938 295.75 331.156 295.672C331.297 295.672 331.695 295.461 332.352 295.039C332.555 294.883 332.656 294.75 332.656 294.641V294.617L332.633 294.547H332.539C332.305 294.547 331.938 294.766 331.438 295.203C330.5 295.406 329.844 295.516 329.469 295.531C329.188 295.594 329.047 295.648 329.047 295.695ZM329.141 294.875L328.859 294.945V295.016H329.141L329.281 294.969V294.875H329.141ZM332.633 295.133L332.586 295.203V295.273H332.633L332.703 295.203V295.133H332.633ZM327.289 295.508L327.219 295.555C327.234 295.617 327.289 295.648 327.383 295.648C327.539 295.648 327.625 295.617 327.641 295.555L327.57 295.508H327.289ZM327.805 295.836L327.875 295.883H327.922C328.047 295.883 328.234 295.836 328.484 295.742L328.742 295.766C328.898 295.719 328.977 295.641 328.977 295.531V295.508H328.859C328.156 295.617 327.805 295.727 327.805 295.836Z" fill="white"/>
<path d="M338.914 292.742C339.398 292.805 339.734 292.922 339.922 293.094C339.984 293.219 340.016 293.359 340.016 293.516V293.844C340.016 294.484 339.648 295.102 338.914 295.695L338.609 295.789C338.312 295.789 338.008 295.344 337.695 294.453V294.359C337.695 293.672 337.797 293.25 338 293.094C338.453 292.859 338.758 292.742 338.914 292.742ZM338.164 293.773C338.195 294.18 338.25 294.383 338.328 294.383C338.359 294.352 338.43 294.078 338.539 293.562L338.609 293.398V293.328H338.586C338.305 293.422 338.164 293.57 338.164 293.773ZM338.797 293.914V293.961C338.797 294.117 338.828 294.203 338.891 294.219H338.914C338.977 294.219 339.07 294.055 339.195 293.727V293.586L339.125 293.562H339.055C338.883 293.562 338.797 293.68 338.797 293.914ZM339.477 294.219L339.5 294.266H339.617L339.641 294.102V294.031H339.617C339.57 294.031 339.523 294.094 339.477 294.219ZM339.148 294.688L338.281 294.781C338.281 294.906 338.328 294.977 338.422 294.992H338.68C338.867 294.992 339.023 294.906 339.148 294.734V294.688Z" fill="white"/>
<path d="M548.406 280.812C549.422 280.812 550.008 280.891 550.164 281.047C550.039 281.141 549.977 281.227 549.977 281.305V281.352L550.07 281.844V281.867C550.07 282.352 549.977 282.594 549.789 282.594L549.438 282.477H549.344L548.289 282.617L547.938 282.594C547.734 282.609 547.188 283.031 546.297 283.859L546.156 284.07C545.828 284.258 545.586 284.508 545.43 284.82C545.227 285.023 544.961 285.445 544.633 286.086C544.586 286.086 544.523 286.219 544.445 286.484C544.055 286.75 543.805 287.055 543.695 287.398C543.586 287.508 543.336 287.898 542.945 288.57C542.727 288.852 542.57 289.109 542.477 289.344L542.383 289.438V289.461H542.5C542.562 289.461 542.695 289.297 542.898 288.969C542.961 288.969 543.344 288.734 544.047 288.266C545 287.734 545.641 287.469 545.969 287.469C546.578 287.469 547.328 287.688 548.219 288.125C549.031 288.891 549.484 289.414 549.578 289.695C549.828 289.867 550.008 290.312 550.117 291.031C549.867 292.328 549.594 293.234 549.297 293.75C548.469 294.844 548.055 295.422 548.055 295.484L548.102 295.625C547.711 295.953 547.414 296.148 547.211 296.211C545.742 296.133 544.906 296.078 544.703 296.047C544.406 295.859 544.031 295.703 543.578 295.578L542.57 294.852C541.898 294.023 541.562 293.102 541.562 292.086C541.5 292.023 541.445 291.484 541.398 290.469C541.398 290.125 541.586 289.477 541.961 288.523C541.961 288.227 542.148 287.695 542.523 286.93C542.711 285.93 543.367 284.773 544.492 283.461C545.977 281.961 546.797 281.211 546.953 281.211C547.578 280.945 548.062 280.812 548.406 280.812ZM549.742 281.141H549.602V281.188L549.719 281.281H549.742L549.789 281.211V281.188L549.742 281.141ZM543.109 286.086V286.18H543.18C543.227 286.18 543.25 286.117 543.25 285.992C543.688 285.555 544.109 284.93 544.516 284.117C545.828 282.711 546.68 281.969 547.07 281.891C547.648 281.609 547.938 281.383 547.938 281.211V281.164H547.867C547.352 281.258 546.844 281.523 546.344 281.961C545.281 283.023 544.555 283.789 544.164 284.258C543.492 285.18 543.141 285.789 543.109 286.086ZM548.547 281.492V281.539H548.922C549.078 281.539 549.227 281.492 549.367 281.398V281.258L549.297 281.164H549.086C548.945 281.164 548.766 281.273 548.547 281.492ZM549.484 281.352L549.438 281.422V281.445L549.484 281.539H549.578L549.648 281.445V281.422L549.578 281.352H549.484ZM546.438 282.617V282.711H546.484C546.797 282.586 547.188 282.391 547.656 282.125C547.875 282.125 548.055 282.039 548.195 281.867V281.844H548.125C547.906 281.844 547.344 282.102 546.438 282.617ZM548.336 282.289V282.383H548.477C549.039 282.211 549.32 282.109 549.32 282.078V282.008L549.156 281.984C548.906 281.984 548.633 282.086 548.336 282.289ZM543.344 286.391L543.25 286.438L543.297 286.531H543.32C543.414 286.531 543.617 286.281 543.93 285.781C544.305 285.297 544.695 284.828 545.102 284.375C545.195 284.234 545.758 283.734 546.789 282.875L546.93 282.711H546.883C546.383 282.711 545.727 283.102 544.914 283.883C544.195 284.93 543.672 285.766 543.344 286.391ZM542.711 287.539V287.68C542.898 287.633 542.992 287.516 542.992 287.328V287.305H542.852C542.758 287.352 542.711 287.43 542.711 287.539ZM545.148 288.148V288.219H545.312C545.531 288.094 546.055 288 546.883 287.938V287.914C546.773 287.805 546.594 287.75 546.344 287.75H546.109C545.781 287.75 545.461 287.883 545.148 288.148ZM544.469 288.57L543.977 288.945V289.016C544.102 289.016 544.297 288.883 544.562 288.617V288.57H544.469ZM548.57 288.805V288.898C548.742 289.336 548.992 289.633 549.32 289.789H549.484V289.719C549.078 289.125 548.773 288.82 548.57 288.805ZM546.133 288.852L546.062 288.898V288.945H546.203L546.273 288.898L546.203 288.852H546.133ZM547.797 289.039H547.586V289.109L547.656 289.203H547.703L547.797 289.109V289.039ZM542.852 290.797L542.805 290.867C542.805 291.68 543.125 292.797 543.766 294.219C544.594 294.75 545.18 295.016 545.523 295.016C546.664 295.016 547.547 294.375 548.172 293.094L548.266 292.508C548.266 291.117 548.047 290.211 547.609 289.789C547.016 289.398 546.289 289.203 545.43 289.203C545.195 289.281 544.664 289.586 543.836 290.117C543.414 290.227 543.086 290.453 542.852 290.797ZM548.477 289.836L548.102 289.906V289.977C548.305 290.164 548.406 290.344 548.406 290.516H548.477L548.523 290.023V290L548.477 289.836ZM542.031 290.469V290.562C542.031 290.609 542.062 290.633 542.125 290.633C542.25 290.633 542.43 290.508 542.664 290.258V290.211L542.57 290.117C542.352 290.117 542.172 290.234 542.031 290.469ZM549.391 290.797L549.344 290.844V291.289L549.484 291.406L549.555 291.336V291.055C549.555 290.914 549.516 290.828 549.438 290.797H549.391ZM548.758 290.984H548.664L548.617 291.102V291.266L548.664 291.312H548.688C548.75 291.312 548.781 291.219 548.781 291.031L548.758 290.984ZM542.148 291.289C542.148 291.414 542.336 291.945 542.711 292.883H542.734L542.781 292.836C542.766 292.383 542.633 291.781 542.383 291.031C542.227 291.031 542.148 291.117 542.148 291.289ZM541.844 291.852H541.75V292.086L541.797 292.156H541.891V291.992L541.844 291.852ZM549.156 291.969L549.062 292.086V292.156L549.086 292.32H549.109C549.203 292.273 549.25 292.18 549.25 292.039L549.156 291.969ZM548.547 292.156L548.477 292.25V292.273L548.57 292.344H548.641L548.711 292.273V292.25L548.664 292.156H548.547ZM541.891 292.32L541.797 292.414V292.578C541.891 293.156 542 293.445 542.125 293.445L542.148 293.375V293.117C542.148 292.586 542.062 292.32 541.891 292.32ZM548.781 292.742H548.711V292.789L548.805 292.883H548.852V292.836L548.781 292.742ZM542.734 293.445H542.641V293.539L542.758 293.656H542.805V293.539L542.734 293.445ZM548.758 293.586L548.289 294.219V294.266L548.383 294.336C548.695 293.93 548.852 293.68 548.852 293.586H548.758ZM542.312 293.82L542.289 293.938C542.336 294.016 542.367 294.055 542.383 294.055H542.43V294.031C542.43 293.922 542.391 293.852 542.312 293.82ZM542.992 294.055L542.945 294.125V294.195C543.102 294.445 543.266 294.57 543.438 294.57H543.461V294.523C543.461 294.461 543.312 294.305 543.016 294.055H542.992ZM547.703 294.617L546.883 295.203V295.227L546.953 295.273C547.219 295.273 547.5 295.078 547.797 294.688V294.617H547.703ZM544.164 295.016C544.195 295.109 544.234 295.172 544.281 295.203H544.398C544.539 295.203 544.625 295.156 544.656 295.062V295.039C544.656 294.977 544.555 294.938 544.352 294.922H544.211C544.18 294.922 544.164 294.953 544.164 295.016ZM544.984 295.156H544.914V295.227L544.984 295.273H545.031V295.227L544.984 295.156ZM545.102 295.391C545.227 295.469 545.367 295.508 545.523 295.508C545.758 295.508 545.938 295.453 546.062 295.344V295.297H545.43C545.211 295.297 545.102 295.328 545.102 295.391ZM547.633 295.344L546.93 295.695V295.742H547C547.266 295.742 547.5 295.617 547.703 295.367V295.344H547.633Z" fill="white"/>
<path d="M553.117 292.742C553.602 292.805 553.938 292.922 554.125 293.094C554.188 293.219 554.219 293.359 554.219 293.516V293.844C554.219 294.484 553.852 295.102 553.117 295.695L552.812 295.789C552.516 295.789 552.211 295.344 551.898 294.453V294.359C551.898 293.672 552 293.25 552.203 293.094C552.656 292.859 552.961 292.742 553.117 292.742ZM552.367 293.773C552.398 294.18 552.453 294.383 552.531 294.383C552.562 294.352 552.633 294.078 552.742 293.562L552.812 293.398V293.328H552.789C552.508 293.422 552.367 293.57 552.367 293.773ZM553 293.914V293.961C553 294.117 553.031 294.203 553.094 294.219H553.117C553.18 294.219 553.273 294.055 553.398 293.727V293.586L553.328 293.562H553.258C553.086 293.562 553 293.68 553 293.914ZM553.68 294.219L553.703 294.266H553.82L553.844 294.102V294.031H553.82C553.773 294.031 553.727 294.094 553.68 294.219ZM553.352 294.688L552.484 294.781C552.484 294.906 552.531 294.977 552.625 294.992H552.883C553.07 294.992 553.227 294.906 553.352 294.734V294.688Z" fill="white"/>
<path d="M620 46L572.101 91.7966V176.293L570.449 174.63V171.941L541.888 145.867L540.169 144.136V73.2599L536.441 77.1358L536.315 73.2599L473 140.864H475.15L474.101 141.955L505.483 145.771V168.124L572.652 239L620 126.144V46Z" fill="black" fill-opacity="0.2"/>
<path d="M612 121.446V43L564.943 89.6286V172.463L532.66 139.549V68.2343L467 137.354L498.189 141.194V163.686L564.943 235L612 121.446Z" fill="#E5E5E5"/>
<path fill-rule="evenodd" clip-rule="evenodd" d="M612 42V121.742L564.801 236L497.638 164.023V141.835L466 137.927L533.036 67.1365V139.483L564.077 171.231V89.6374L612 42ZM565.166 90.0948V173.907L531.946 139.931V69.875L468.282 137.105L498.727 140.866V163.589L564.442 234.014L610.911 121.524V44.6228L565.166 90.0948Z" fill="black"/>
<path d="M612 117.329V41L564 87.1272V231L612 117.329Z" fill="white"/>
<path fill-rule="evenodd" clip-rule="evenodd" d="M612 40V117.528L565.037 231L564 230.788V87.0628L612 40ZM565.079 87.5278V228.071L610.921 117.307V42.5802L565.079 87.5278Z" fill="black"/>
<path d="M563 230V168.09L527.885 135.766V127H501V163.707L563 230Z" fill="white"/>
<path fill-rule="evenodd" clip-rule="evenodd" d="M500 126H527.939V135.079L563 167.423V231L500 163.494V126ZM501.096 127.096V163.061L561.904 228.22V167.903L526.843 135.56V127.096H501.096Z" fill="black"/>
<path d="M531 136L528.815 69L466 136H531Z" fill="white"/>
<path fill-rule="evenodd" clip-rule="evenodd" d="M528.748 67L531 137H464L528.748 67ZM466.51 135.902H529.869L527.739 69.706L466.51 135.902Z" fill="black"/>
<path fill-rule="evenodd" clip-rule="evenodd" d="M501.513 162.866L531.469 135.326L532.21 136.133L502.254 163.672L501.513 162.866Z" fill="black"/>
<path fill-rule="evenodd" clip-rule="evenodd" d="M499.7 103.59L529.269 134.254L528.481 135.014L498.911 104.35L499.7 103.59Z" fill="#E5E5E5"/>
<path fill-rule="evenodd" clip-rule="evenodd" d="M530 141.011L531.11 141L531.653 192.688L561.288 168.369L562 169.205L530.567 195L530 141.011Z" fill="#E5E5E5"/>
<path fill-rule="evenodd" clip-rule="evenodd" d="M496.139 210.871L494.564 211.398L493.869 209.321L495.443 208.794L496.139 210.871ZM502.436 208.763L499.287 209.817L498.592 207.74L501.74 206.686L502.436 208.763ZM508.733 206.655L505.584 207.709L504.889 205.632L508.038 204.578L508.733 206.655ZM515.03 204.547L511.881 205.601L511.186 203.524L514.335 202.47L515.03 204.547ZM521.327 202.439L518.179 203.493L517.483 201.416L520.632 200.362L521.327 202.439ZM527.624 200.331L524.476 201.385L523.78 199.308L526.929 198.254L527.624 200.331ZM533.921 198.223L530.773 199.277L530.078 197.2L533.226 196.146L533.921 198.223ZM540.219 196.114L537.07 197.168L536.375 195.091L539.523 194.037L540.219 196.114ZM546.516 194.006L543.367 195.06L542.672 192.983L545.82 191.929L546.516 194.006ZM552.813 191.898L549.664 192.952L548.969 190.875L552.117 189.821L552.813 191.898ZM559.11 189.79L555.961 190.844L555.266 188.767L558.415 187.713L559.11 189.79ZM565.407 187.682L562.259 188.736L561.563 186.659L564.712 185.605L565.407 187.682ZM571.704 185.574L568.556 186.628L567.86 184.551L571.009 183.497L571.704 185.574ZM578.001 183.465L574.853 184.52L574.157 182.443L577.306 181.388L578.001 183.465ZM584.298 181.357L581.15 182.411L580.455 180.334L583.603 179.28L584.298 181.357ZM590.596 179.249L587.447 180.303L586.752 178.226L589.9 177.172L590.596 179.249ZM596.893 177.141L593.744 178.195L593.049 176.118L596.197 175.064L596.893 177.141ZM603.19 175.033L600.041 176.087L599.346 174.01L602.494 172.956L603.19 175.033ZM609.487 172.925L606.338 173.979L605.643 171.902L608.792 170.848L609.487 172.925ZM615.784 170.817L612.636 171.871L611.94 169.794L615.089 168.74L615.784 170.817ZM620.507 169.235L618.933 169.762L618.237 167.685L619.812 167.158L620.507 169.235Z" fill="black"/>
<path fill-rule="evenodd" clip-rule="evenodd" d="M468.031 90.9342L466.47 90.3775L467.206 88.3145L468.767 88.8712L468.031 90.9342ZM474.273 93.161L471.152 92.0476L471.888 89.9846L475.009 91.098L474.273 93.161ZM480.515 95.3878L477.394 94.2744L478.13 92.2114L481.251 93.3248L480.515 95.3878ZM486.758 97.6146L483.637 96.5012L484.373 94.4383L487.494 95.5517L486.758 97.6146ZM493 99.8414L489.879 98.728L490.615 96.6651L493.736 97.7785L493 99.8414ZM499.243 102.068L496.121 100.955L496.857 98.8919L499.978 100.005L499.243 102.068ZM505.485 104.295L502.364 103.182L503.1 101.119L506.221 102.232L505.485 104.295ZM511.727 106.522L508.606 105.408L509.342 103.345L512.463 104.459L511.727 106.522ZM517.97 108.749L514.848 107.635L515.584 105.572L518.706 106.686L517.97 108.749ZM524.212 110.975L521.091 109.862L521.827 107.799L524.948 108.912L524.212 110.975ZM530.454 113.202L527.333 112.089L528.069 110.026L531.19 111.139L530.454 113.202ZM536.697 115.429L533.576 114.316L534.311 112.253L537.433 113.366L536.697 115.429ZM542.939 117.656L539.818 116.542L540.554 114.48L543.675 115.593L542.939 117.656ZM549.181 119.883L546.06 118.769L546.796 116.706L549.917 117.82L549.181 119.883ZM555.424 122.109L552.303 120.996L553.039 118.933L556.16 120.047L555.424 122.109ZM560.106 123.78L558.545 123.223L559.281 121.16L560.841 121.717L560.106 123.78Z" fill="black"/>
<path fill-rule="evenodd" clip-rule="evenodd" d="M614 36V122.102L565.571 239L496.041 164.701V143.319L462.52 139.19L463.041 138.642H461L530.819 63.1458L530.948 67.1379L534.815 63.0661V138.841L535.855 139.902L562.12 164.184V86.2329L614 36ZM564.304 172.04L562.666 170.369V167.668L534.335 141.477L532.63 139.738V68.5427L528.933 72.4361L528.807 68.5427L466.005 136.452H468.138L467.097 137.547L498.225 141.381V163.834L564.85 235.029L611.816 121.665V41.1601L564.304 87.1629V172.04Z" fill="black"/>
<path d="M491.7 95.4451C493.374 95.9686 495 96.477 496.633 96.9879L496.999 96.394C496.822 95.8072 496.859 95.1104 496.682 94.5236C496.511 93.6467 497.439 92.1036 496.869 91.0398C495.476 88.4391 492.693 87.0772 491.049 86.563L487.574 89.0182C488.297 89.2766 489.338 90.1836 489.855 90.747C490.372 91.3104 490.74 91.9895 490.927 92.7237L491.308 94.9682L491.7 95.4451Z" fill="#99C6E8"/>
<path d="M475.604 95.5469L479.55 96.7811C479.714 96.8325 480.322 97.1995 480.536 97.0896C480.751 96.9797 481.433 95.9532 481.534 95.6306L483.278 93.5192C484.433 91.9709 486.553 91.1948 488.143 90.082C488.983 89.3292 489.27 88.2005 490.367 87.8982C491.463 87.5959 493.213 87.3802 494.337 87.5915L489.405 86.0487C485.687 85.2401 481.63 88.399 479.457 90.7302C477.975 92.1714 476.681 93.7892 475.604 95.5469Z" fill="#B4DAF6"/>
<path d="M477.571 104.84L478.207 92.9955L473.275 91.4528L472.588 103.459L477.571 104.84Z" fill="#99C6E8"/>
<path d="M477.571 104.84L484.107 102.988L481.663 98.6816C482.25 97.7853 482.882 96.9191 483.558 96.0863C484.66 94.5548 486.049 93.2464 487.652 92.2305C489.687 90.9187 491.684 90.3037 493.328 90.818C494.972 91.3322 495.884 93.0342 496.341 96.1882C496.512 97.3615 496.797 97.0392 497.227 96.8194C497.501 96.5156 497.706 96.1571 497.828 95.7677C497.95 95.3782 497.986 94.9668 497.933 94.5608C497.513 90.7101 496.31 88.2085 494.173 87.54C493.05 87.3867 491.694 87.5721 490.607 87.8718C489.519 88.1716 488.508 88.6891 487.637 89.3921C485.856 90.5935 484.294 92.0798 483.013 93.7903C482.166 94.7653 481.484 95.7918 480.537 97.0895L478.157 93.1571L477.571 104.84Z" fill="#E6FFFF"/>
<path d="M598.656 179.626C596.913 180.045 595.221 180.453 593.52 180.863L593.514 181.588C593.98 182.018 594.316 182.661 594.781 183.091C595.395 183.784 595.399 185.655 596.461 186.304C599.057 187.889 602.215 187.631 603.927 187.218L605.671 183.181C604.901 183.334 603.509 183.075 602.758 182.846C602.008 182.616 601.326 182.205 600.773 181.648L599.252 179.844L598.656 179.626Z" fill="#99C6E8"/>
<path d="M612.698 170.998L608.59 171.988C608.418 172.029 607.693 172.023 607.562 172.235C607.432 172.447 607.378 173.726 607.461 174.068L607.051 176.88C606.859 178.876 605.413 180.694 604.609 182.532C604.272 183.651 604.618 184.812 603.817 185.663C603.017 186.515 601.599 187.636 600.503 188.043L605.639 186.806C609.323 185.557 611.203 180.582 611.873 177.346C612.409 175.272 612.686 173.14 612.698 170.998Z" fill="#B4DAF6"/>
<path d="M606.058 163.735L611.769 174.658L616.905 173.421L611.153 162.327L606.058 163.735Z" fill="#99C6E8"/>
<path d="M606.058 163.735L601.315 168.857L605.733 171.41C605.694 172.522 605.598 173.631 605.447 174.734C605.293 176.687 604.769 178.593 603.902 180.351C602.815 182.603 601.391 184.212 599.679 184.624C597.967 185.037 596.268 183.999 594.198 181.423C593.428 180.464 593.349 180.904 593.089 181.328C593.009 181.745 593.019 182.175 593.119 182.587C593.218 183 593.404 183.387 593.665 183.722C596.071 186.94 598.448 188.538 600.674 188.002C601.738 187.543 602.828 186.658 603.621 185.814C604.415 184.969 605.026 183.971 605.417 182.88C606.341 180.862 606.923 178.705 607.14 176.497C607.365 175.176 607.419 173.897 607.562 172.235L611.728 174.487L606.058 163.735Z" fill="#E6FFFF"/>
<path fill-rule="evenodd" clip-rule="evenodd" d="M138.5 39C142.124 31.0518 144.09 22.2284 143.317 13.615L139.456 11C140.228 19.5452 139.04 28.2833 135.456 36.1633L138.5 39Z" fill="#99C6E8"/>
<path d="M132 67C144.505 63.4915 149.843 51.1695 148 36C147.918 35.322 147.5 32.5 147.5 32.5C147.5 32.5 144.692 31.7797 144 31C146.307 44.8305 143.367 59.8898 129 64.5L132 67Z" fill="url(#paint0_linear)"/>
<path fill-rule="evenodd" clip-rule="evenodd" d="M135.022 66.6423C152.196 64.0845 155.587 46.8953 152.834 31.1192C155.839 29.0623 158.794 29.6525 162 31.5128C155.788 25.3418 149.577 19.1709 143.365 13C143.987 22.0686 141.771 30.6542 138.782 39.0967C141.065 35.3763 143.533 32.8543 147.63 32.4607C149.812 47.3425 146.908 62.0454 132 67L135.022 66.6423Z" fill="#E6FFFF"/>
<path d="M135 215.273L90.6667 253V90.5429H43.2222L26.8889 69.7546L2 90.5429L6.66667 2L47.8889 47.4264H90.6667L135 89.0031V215.273Z" fill="#EDEDEE"/>
<path fill-rule="evenodd" clip-rule="evenodd" d="M6.81064 0L48.7596 46.5427H91.3985L136 88.6564V216.03L90.5161 255V91.1097H43.5164L27.4377 70.5058L2 91.8975L6.81064 0ZM7.9129 3.11228L3.41397 89.0552L27.6273 68.6931L44.1321 89.843H91.7796V252.251L134.737 215.446V89.2034L90.8972 47.8094H48.1984L7.9129 3.11228Z" fill="black"/>
<path d="M1 92V5L47 48.1217L1 92Z" fill="white"/>
<path fill-rule="evenodd" clip-rule="evenodd" d="M1 2L47 47.6L1 94V2ZM2.23581 5.00373V90.9599L45.2139 47.6081L2.23581 5.00373Z" fill="black"/>
<path fill-rule="evenodd" clip-rule="evenodd" d="M5.41119 0.95717L8.10424 0L48.5982 45.3116H90.4091L91.472 45.7373L135.517 87.6807L136 88.8084V217.745L135.442 218.94L89.851 257L87.3183 255.79L88.8491 91.9153H43.2727L42.0528 91.3156L26.8833 71.7109L3.40242 94.5758L2.63826 95.3439L0 94.2455V1.81485L2.62872 0.706888L5.28781 3.33369L5.41119 0.95717ZM3.09091 90.5534L25.9701 68.2744L28.2654 68.4365L44.0286 88.8084H90.4091L91.9545 90.3764L90.4403 252.469L132.909 217.016V89.4766L89.7933 48.4185H47.9091L46.7594 47.9032L8.30308 4.8717L8.19568 6.94065L5.56906 7.96766L3.09091 5.51961V90.5534Z" fill="black"/>
<path fill-rule="evenodd" clip-rule="evenodd" d="M146.5 135C140.893 131.012 134.915 127.376 128.101 126.52L125 129C131.761 129.845 137.94 132.552 143.5 136.5L146.5 135Z" fill="#99C6E8"/>
<path d="M166.4 144.579C165.774 133.97 157.187 127.947 144.938 126.883C144.39 126.835 142.553 126.168 142.553 126.168C142.553 126.168 141.231 128.576 140.5 129C151.775 129.469 161.825 134.214 163 146.5L166.4 144.579Z" fill="url(#paint1_linear)"/>
<path fill-rule="evenodd" clip-rule="evenodd" d="M166.597 142.339C167.63 128.041 155.274 122.543 142.924 122.24C141.893 119.48 142.846 117.186 144.799 114.891C139.084 118.925 133.368 122.958 127.653 126.992C134.587 127.943 140.668 131.112 146.509 134.882C144.102 132.439 142.628 130.039 143.037 126.663C154.616 127.285 165.184 131.99 166.346 144.84L166.597 142.339Z" fill="#E6FFFF"/>
<path d="M131 212.367L92 253V92H131V212.367Z" fill="white"/>
<path fill-rule="evenodd" clip-rule="evenodd" d="M90 92H131V213.105L90 255V92ZM91.2812 93.2563V251.876L129.719 212.6V93.2563H91.2812Z" fill="black"/>
<path d="M43.8088 91H135L89.7941 47H47.7059L29 67.8L43.8088 91Z" fill="white"/>
<path fill-rule="evenodd" clip-rule="evenodd" d="M47.7766 46.2116L48.2406 46H90.3437L90.7782 46.1805L136 90.8662L135.566 92H44.3421L43.814 91.7028L29 68.1412L29.0641 67.3358L47.7766 46.2116ZM48.5171 47.3143L30.3257 67.8501L44.6833 90.6857H133.984L90.0918 47.3143H48.5171Z" fill="black"/>
<path fill-rule="evenodd" clip-rule="evenodd" d="M49 47L87.75 87.8252V48.285H89V91L50.25 50.1748V90.219H49V47Z" fill="#E5E5E5"/>
<path fill-rule="evenodd" clip-rule="evenodd" d="M44 47H4V46H44V47Z" fill="#E5E5E5"/>
<path fill-rule="evenodd" clip-rule="evenodd" d="M151.193 249.026C154.108 247.008 156.709 244.605 159.207 242.079C149.73 251.52 137.064 252.13 128.796 240.747L126.198 243.499C132.296 251.89 142.143 255.183 151.193 249.026Z" fill="url(#paint2_linear)"/>
<path fill-rule="evenodd" clip-rule="evenodd" d="M163.107 248.39C162.9 245.609 161.898 243.379 159.169 242.039L156.434 244.698C158.754 245.904 160.133 248.24 160.334 251.01L163.107 248.39Z" fill="#648EAE"/>
<path fill-rule="evenodd" clip-rule="evenodd" d="M156.079 239.045C154.288 236.598 151.457 235.458 148.414 235.391L145.743 238.113C148.769 238.175 151.576 239.299 153.341 241.73L156.079 239.045Z" fill="#648EAE"/>
<path fill-rule="evenodd" clip-rule="evenodd" d="M164.912 229.689C160.081 233.256 154.296 234.613 148.433 235.466C151.687 235.692 154.281 236.498 156.141 239.056C147.989 246.737 137.57 248.45 128.756 240.77C137.064 252.19 149.533 251.719 159.196 242.067C161.566 243.201 162.945 245.563 163.096 248.344C163.706 242.133 164.309 235.911 164.912 229.689Z" fill="#E6FFFF"/>
<path fill-rule="evenodd" clip-rule="evenodd" d="M381 74.7895L334.333 34V173.5H289.304L245.912 125.368L241 219.184L262.283 200.422L277.019 220H380.181V216.78L381 217.553V74.7895ZM335.198 174.316L334.333 173.5V174.316H335.198Z" fill="black" fill-opacity="0.2"/>
<path d="M326.519 26L373 66.652V208.934L326.519 165.03V210.56H276.777L261.279 190.235L236 213L238.45 117.061L281.669 165.03H326.519V26Z" fill="#EDEDEE"/>
<path fill-rule="evenodd" clip-rule="evenodd" d="M324.971 24L373 65.8172V209.948L326.307 166.042V210.695H275.339L260.01 190.682L234 214L238.5 117.5L280.883 163.837H324.971V24ZM324.971 165.163H280.287L239.75 120.866L235.415 210.944L260.194 188.73L276.001 209.369H324.971V165.163ZM326.307 164.215L371.664 206.864V66.4181L326.307 26.9276V164.215Z" fill="black"/>
<path d="M233 212V118L279 164.591L233 212Z" fill="white"/>
<path fill-rule="evenodd" clip-rule="evenodd" d="M232 117L281 164.583L232 213V117ZM233.353 120.181V209.78L279.086 164.591L233.353 120.181Z" fill="black"/>
<path d="M374 71H327V212H374V71Z" fill="white"/>
<path fill-rule="evenodd" clip-rule="evenodd" d="M327 70H374V213H327V70ZM328.306 71.3364V211.664H372.694V71.3364H328.306Z" fill="black"/>
<path d="M277.507 212H373L325.662 165H281.588L262 187.218L277.507 212Z" fill="white"/>
<path fill-rule="evenodd" clip-rule="evenodd" d="M280.647 164.229L281.148 164H325.207L325.677 164.197L373 211.836L372.53 213H277.068L276.502 212.682L261 187.563L261.065 186.75L280.647 164.229ZM281.449 165.361L262.398 187.27L277.438 211.639H370.903L324.932 165.361H281.449Z" fill="black"/>
<path fill-rule="evenodd" clip-rule="evenodd" d="M322.688 205.947V167H324V209L283.312 170.114V208.267H282V167.06L322.688 205.947Z" fill="#E5E5E5"/>
<path fill-rule="evenodd" clip-rule="evenodd" d="M278 165H233V164H278V165Z" fill="#E5E5E5"/>
<path d="M329.8 67.1923L329 26L374 68L329.8 67.1923Z" fill="white"/>
<path fill-rule="evenodd" clip-rule="evenodd" d="M328 24L375 68L328.835 67.1539L328 24ZM329.372 27.0776L330.123 65.8717L371.624 66.6324L329.372 27.0776Z" fill="black"/>
<path fill-rule="evenodd" clip-rule="evenodd" d="M326.756 21L361.597 54.4892L373.587 65.2052L373.587 66.3269L376 68.4839L376 216.479L375.196 215.703L375.196 216.766L278.659 216.766L260.984 194.549L235.027 218L235.312 212.432L232 215.806L232 113.677L237.505 119.19L237.836 112.722L282.595 163.488L324.514 163.488L324.514 21.346L326.861 23.4435L326.756 21ZM327.732 28.5831L327.78 166.767L324.677 166.767L281.16 166.767L240.644 120.813L240.346 126.632L235.218 121.496L235.218 208.192L238.914 205.015L238.627 210.615L261.514 189.804L280.268 213.488L371.978 213.488L371.978 208.081L372.782 208.857L372.782 69.9692L370.369 67.8122L370.369 66.6905L359.431 56.9149L330.316 28.9292L329 27.5L327.732 28.5831Z" fill="black"/>
<path fill-rule="evenodd" clip-rule="evenodd" d="M308.797 66.8919L308 65.0602L310.436 64L311.233 65.8317L308.797 66.8919ZM311.986 74.2188L310.391 70.5554L312.828 69.4952L314.422 73.1586L311.986 74.2188ZM315.174 81.5457L313.58 77.8822L316.016 76.822L317.611 80.4855L315.174 81.5457ZM318.363 88.8725L316.769 85.2091L319.205 84.1489L320.799 87.8123L318.363 88.8725ZM321.551 96.1994L319.957 92.536L322.393 91.4758L323.988 95.1392L321.551 96.1994ZM324.74 103.526L323.146 99.8628L325.582 98.8027L327.176 102.466L324.74 103.526ZM327.929 110.853L326.334 107.19L328.77 106.13L330.365 109.793L327.929 110.853ZM331.117 118.18L329.523 114.517L331.959 113.456L333.553 117.12L331.117 118.18ZM334.306 125.507L332.711 121.843L335.148 120.783L336.742 124.447L334.306 125.507ZM337.494 132.834L335.9 129.17L338.336 128.11L339.93 131.774L337.494 132.834ZM340.683 140.161L339.088 136.497L341.525 135.437L343.119 139.1L340.683 140.161ZM343.871 147.488L342.277 143.824L344.713 142.764L346.307 146.427L343.871 147.488ZM347.06 154.814L345.466 151.151L347.902 150.091L349.496 153.754L347.06 154.814ZM350.248 162.141L348.654 158.478L351.09 157.418L352.685 161.081L350.248 162.141ZM353.437 169.468L351.843 165.805L354.279 164.745L355.873 168.408L353.437 169.468ZM356.625 176.795L355.031 173.132L357.467 172.071L359.062 175.735L356.625 176.795ZM359.814 184.122L358.22 180.458L360.656 179.398L362.25 183.062L359.814 184.122ZM363.003 191.449L361.408 187.785L363.844 186.725L365.439 190.389L363.003 191.449ZM366.191 198.776L364.597 195.112L367.033 194.052L368.627 197.716L366.191 198.776ZM369.38 206.103L367.785 202.439L370.222 201.379L371.816 205.042L369.38 206.103ZM372.568 213.429L370.974 209.766L373.41 208.706L375.004 212.369L372.568 213.429ZM375.757 220.756L374.162 217.093L376.599 216.033L378.193 219.696L375.757 220.756ZM378.945 228.083L377.351 224.42L379.787 223.36L381.381 227.023L378.945 228.083ZM382.134 235.41L380.54 231.747L382.976 230.686L384.57 234.35L382.134 235.41ZM384.525 240.905L383.728 239.074L386.164 238.013L386.961 239.845L384.525 240.905Z" fill="black"/>
<path fill-rule="evenodd" clip-rule="evenodd" d="M319.852 112.5C313.163 115.016 306.801 119.457 302.277 124.897L303 129C307.485 123.6 313.711 119.425 320.338 116.925L319.852 112.5Z" fill="#99C6E8"/>
<path d="M339.589 99.7647C330.313 94.5795 320.482 98.6469 312.794 108.507C312.45 108.947 310.869 110.152 310.869 110.152C310.869 110.152 311.549 114.648 311.5 115.5C318.147 106.149 328.035 99.8295 339.027 105.451L339.589 99.7647Z" fill="url(#paint3_linear)"/>
<path fill-rule="evenodd" clip-rule="evenodd" d="M338.187 98.7822C326.753 90.3506 314.863 98.3594 307.352 109.096C304.422 108.554 303.05 106.506 302.265 103.576C302.304 110.74 302.343 117.904 302.382 125.068C307.257 119.451 313.498 115.753 320.105 112.583C316.633 113.422 313.746 113.459 311.144 111.323C318.47 101.434 328.642 94.5858 340.146 100.319L338.187 98.7822Z" fill="#E6FFFF"/>
<defs>
<linearGradient id="paint0_linear" x1="135.357" y1="51.4935" x2="189.098" y2="31.9408" gradientUnits="userSpaceOnUse">
<stop stop-color="#99C6E8"/>
<stop offset="1" stop-color="#3B4E5C"/>
</linearGradient>
<linearGradient id="paint1_linear" x1="154.609" y1="140.06" x2="147.852" y2="93.7988" gradientUnits="userSpaceOnUse">
<stop stop-color="#99C6E8"/>
<stop offset="1" stop-color="#3B4E5C"/>
</linearGradient>
<linearGradient id="paint2_linear" x1="146.77" y1="246.496" x2="126.335" y2="229.611" gradientUnits="userSpaceOnUse">
<stop stop-color="#99C6E8"/>
<stop offset="1" stop-color="#3D6683"/>
</linearGradient>
<linearGradient id="paint3_linear" x1="329.248" y1="107.372" x2="286.8" y2="87.6843" gradientUnits="userSpaceOnUse">
<stop stop-color="#99C6E8"/>
<stop offset="1" stop-color="#3B4E5C"/>
</linearGradient>
</defs>
</svg>
