<svg width="666" height="254" viewBox="0 0 666 254" fill="none" xmlns="http://www.w3.org/2000/svg">
<path fill-rule="evenodd" clip-rule="evenodd" d="M315.49 199.812L315.211 199.366L312.866 198.782L312.059 202L268.137 158.918V121.99L240 118.57V106.945L272.273 74.7858C272.261 74.5303 272.255 74.3073 272.255 74.1203C272.255 71.8046 273.386 65.3838 274.314 60.86V56.3402L277.745 59.6352V56.3402L315.49 91.9003V102.842L308.752 114.592L355.294 160.969V62.4948L413.932 4.06384L414.314 3V3.68385L415 3V100.79L410.666 110.484L387.549 171.911L316.863 202L316.074 200.742L315.49 201.001V199.948V199.812Z" fill="black" fill-opacity="0.2"/>
<path d="M510 189H495L500.69 177L510 189Z" fill="white" stroke="black"/>
<path d="M663 51L632.169 140.023L580.416 199H549.747H504.438L493.427 173.406L491.775 146.699H478.562L493.427 110.534L467 98.8496L471.955 89.9474L517.652 68.2481L528.112 59.3459C536.371 70.4737 542.684 89.9474 544.079 100.519C544.96 107.195 528.846 115.541 522.607 119.992V135.015C526.828 139.281 540.115 148.702 544.079 152.263C548.043 155.824 549.768 167.1 551.236 173.406L550.818 180.596L591.427 85.4962L663 51Z" fill="black" fill-opacity="0.2"/>
<path d="M627.483 134.218L658 47L587.157 80.797L550.101 178.372L576.258 192L627.483 134.218Z" fill="#D5D5D5"/>
<path d="M547.376 166.925L542.472 186.004L501.056 192L490.157 166.925L488.522 140.759H475.444L490.157 105.327L464 93.8797L468.904 85.1579L514.135 63.8985L524.489 55.1767C532.663 66.0789 538.912 85.1579 540.292 95.515C541.164 102.056 525.215 110.233 519.039 114.594V129.312C523.217 133.491 536.369 142.722 540.292 146.211C544.216 149.699 545.923 160.747 547.376 166.925Z" fill="#D5D5D5"/>
<path d="M627.483 134.218L658 47L587.157 80.797L550.101 178.372L576.258 192L627.483 134.218Z" stroke="black"/>
<path d="M547.376 166.925L542.472 186.004L501.056 192L490.157 166.925L488.522 140.759H475.444L490.157 105.327L464 93.8797L468.904 85.1579L514.135 63.8985L524.489 55.1767C532.663 66.0789 538.912 85.1579 540.292 95.515C541.164 102.056 525.215 110.233 519.039 114.594V129.312C523.217 133.491 536.369 142.722 540.292 146.211C544.216 149.699 545.923 160.747 547.376 166.925Z" stroke="black"/>
<path d="M629.64 132.617L660 46L589.522 79.5639L549.947 180L575.969 193.534L629.64 132.617Z" fill="white"/>
<path d="M549.947 165.098L545.067 184.045L503.865 190L493.022 165.098L491.396 139.113H478.385L493.022 103.925L467 92.5564L471.879 83.8947L516.876 62.782L519.193 51.25C527.325 62.0771 537.72 85.9643 539.093 96.25C539.961 102.746 527.9 108.797 521.756 113.128V127.744C525.912 131.895 538.995 141.062 542.899 144.526C546.802 147.991 548.501 158.962 549.947 165.098Z" fill="white"/>
<path d="M629.64 132.617L660 46L589.522 79.5639L549.947 180L575.969 193.534L629.64 132.617Z" stroke="black"/>
<path d="M549.947 165.098L545.067 184.045L503.865 190L493.022 165.098L491.396 139.113H478.385L493.022 103.925L467 92.5564L471.879 83.8947L516.876 62.782L519.193 51.25C527.325 62.0771 537.72 85.9643 539.093 96.25C539.961 102.746 527.9 108.797 521.756 113.128V127.744C525.912 131.895 538.995 141.062 542.899 144.526C546.802 147.991 548.501 158.962 549.947 165.098Z" stroke="black"/>
<path d="M493.259 165.987L491 136.218V129.603L520.37 107C521.5 112.513 523.872 123.979 524.324 125.744C524.889 127.949 529.407 132.359 538.444 139.526C547.481 146.692 552 161.026 552 165.987C552 169.956 548.988 181.974 547.481 187.487L503.991 193L493.259 165.987Z" fill="white" stroke="black"/>
<path d="M502 192L518.124 162L577 192H502Z" fill="#D5D5D5" stroke="black"/>
<path d="M507 192L518.484 163L577 192H507Z" fill="white" stroke="black"/>
<path d="M507 192L538.231 171L577 192H507Z" fill="white" stroke="black"/>
<g filter="url(#filter0_d)">
<path d="M519 133.717V111L497.522 119.453L480 139L519 133.717Z" fill="white"/>
<path d="M519 133.717V111L497.522 119.453L480 139L519 133.717Z" stroke="black"/>
</g>
<path d="M494.909 100L478 140C483.818 137.719 497.418 130.526 500.909 128.421C504.4 126.316 512.364 117.895 520 110.526L494.909 100Z" fill="white" stroke="black"/>
<path d="M537 95.9896C537 93.0268 521.746 68.3854 516.843 59L467.813 83.8438L464 94.3333L519.567 112C524.652 106.847 537 101.51 537 95.9896Z" fill="white" stroke="black"/>
<path fill-rule="evenodd" clip-rule="evenodd" d="M666 41L633.27 134.543L579.715 195.007H510.819L503.001 196L502.571 194.915L500.107 195.273L498.689 191.992H490.586L494.922 183.28L488.234 167.813L486.729 143.605H472.194L487.404 106.784L467.363 97.9672L461.283 96.0722L461.532 95.402L461 95.1682L462.834 91.889L466.449 82.1438L506.289 62.3554C507.354 60.4769 509.165 57.8969 510.801 55.5669L510.946 55.3592L510.95 55.3543C510.953 55.3495 510.957 55.3446 510.96 55.3398C512.675 52.8968 514.212 50.7006 514.98 49.3355L515.291 48.7821L516.295 43.1574L522.268 49.7963C522.881 50.6144 523.502 51.4963 524.126 52.4307L525.571 51.2071L527.268 53.4821C531.562 59.2385 535.266 67.0222 538.061 74.5921C540.859 82.1718 542.824 89.7514 543.546 95.1944C543.828 97.3205 543.046 99.2749 541.994 100.89C540.808 103.508 538.481 105.781 536.117 107.677C533.641 109.662 530.763 111.508 528.268 113.108L528.254 113.118L528.251 113.12L528.207 113.148C527.183 113.804 526.232 114.415 525.373 114.989V116.4C526.295 120.83 527.156 124.898 527.392 125.824C527.387 125.801 527.406 125.885 527.525 126.095C527.639 126.298 527.817 126.568 528.081 126.911C528.612 127.602 529.405 128.477 530.508 129.557C532.713 131.713 535.977 134.513 540.417 138.041C542.036 139.329 543.502 140.808 544.819 142.39C544.886 142.446 544.952 142.501 545.016 142.556L545.02 142.559L545.133 142.655L545.221 142.729C545.385 142.869 545.54 143.004 545.686 143.134C547.484 144.733 548.725 147.225 549.643 149.676C551.339 152.875 552.612 156.124 553.469 158.98C553.76 159.949 554.009 160.893 554.21 161.79L585.555 78.8235L666 41ZM551.098 177.582L550.307 177.156C551.167 173.383 551.903 169.678 552.098 167.381C552.132 166.99 552.149 166.641 552.149 166.338C552.149 163.353 550.501 156.94 547.204 150.776C546.31 148.351 545.238 146.31 543.914 145.132C543.782 145.015 543.641 144.892 543.49 144.763L543.404 144.69L543.298 144.6C543.178 144.499 543.053 144.395 542.922 144.287C541.663 142.751 540.274 141.34 538.757 140.134C529.829 133.037 525.365 128.67 524.807 126.486C524.546 125.465 523.637 121.164 522.704 116.676V113.58C523.885 112.747 525.283 111.849 526.767 110.898L526.77 110.896C531.835 107.647 537.89 103.763 539.643 99.6034C540.585 98.2148 541.073 96.8482 540.9 95.5461C539.611 85.8209 534.065 68.43 526.67 57.2757C526.226 56.6053 525.775 55.9575 525.318 55.3351C525.255 55.2499 525.192 55.1651 525.13 55.0809L523.523 56.4412C523.501 56.4048 523.478 56.3684 523.456 56.3321C523.051 55.6759 522.648 55.0412 522.248 54.4308C522.19 54.3426 522.133 54.255 522.075 54.1678C521.857 53.839 521.641 53.5175 521.425 53.2038C521.02 52.6144 520.619 52.0525 520.224 51.5212C520.194 51.4807 520.164 51.4405 520.134 51.4004L519.58 54.1592C519.379 53.7696 519.182 53.3914 518.991 53.029C518.971 52.9916 518.951 52.9543 518.931 52.9171C518.91 52.8765 518.888 52.8361 518.867 52.7959C518.81 52.6888 518.754 52.5832 518.698 52.4793C518.696 52.4754 518.694 52.4716 518.692 52.4678C518.392 51.9098 518.11 51.3992 517.851 50.9546C517.849 50.9497 517.846 50.9449 517.843 50.94C517.784 50.8387 517.726 50.7409 517.67 50.6468C517.659 50.708 517.648 50.7702 517.636 50.8333C517.632 50.8541 517.629 50.8751 517.625 50.8962C517.537 51.3784 517.434 51.912 517.319 52.4861C517.317 52.2852 517.314 52.0875 517.312 51.8933C517.309 51.5383 517.306 51.195 517.306 50.8654C517.306 50.7918 517.306 50.7189 517.306 50.6468C517.245 50.7543 517.181 50.866 517.112 50.9816C516.881 51.3739 516.607 51.811 516.3 52.282C516.253 52.3544 516.205 52.4276 516.156 52.5016C516.124 52.5513 516.091 52.6013 516.057 52.6516C516.002 52.7352 515.946 52.8197 515.889 52.905C515.084 54.1124 514.115 55.4922 513.133 56.8907L513.132 56.8924L513.13 56.8954L513.125 56.9022C511.129 59.7461 509.08 62.6654 508.239 64.37L468.582 84.0668L465.264 93.0137L464.765 93.9056L464.91 93.9692L464.765 94.359L468.3 95.4605L490.869 105.389L476.186 140.933H489.237L490.869 167.181L497.864 183.359L494.898 189.32H500.442L501.745 192.335L504.274 191.967L504.719 193.088L510.65 192.335H578.515L630.925 133.164L661.379 46.1248L587.669 80.7818L551.098 177.582Z" fill="black"/>
<path d="M507.492 64.2042C508.889 61.1448 514.865 53.46 516.806 50C516.806 56.7379 517.515 69.488 516.224 71.3063C511.567 77.862 507.104 80.2684 504 83C505.164 78.0832 506.095 67.2635 507.492 64.2042Z" fill="url(#paint0_radial)" stroke="black" stroke-linejoin="bevel"/>
<path d="M524.623 64.2716C526.407 66.866 534.656 84.8112 538 94L504 83.1897C506.415 80.1267 511.469 73.2441 512.361 70.2172C513.252 67.1903 516.089 55.225 517.018 50C519.062 53.4233 522.839 61.6771 524.623 64.2716Z" fill="white" stroke="black"/>
<path d="M94.1484 235.031C96.8047 235.25 99.0703 235.391 100.945 235.453C101.258 235.578 101.578 235.688 101.906 235.781H102.047L102.07 235.758C102.18 235.773 102.234 235.805 102.234 235.852V235.922C101.969 236.141 101.836 236.695 101.836 237.586V237.727C101.836 237.836 101.914 237.945 102.07 238.055V238.078L101.461 240.094C100.477 241.469 99.5859 242.844 98.7891 244.219C97.9297 245.359 97.3516 246.266 97.0547 246.938L97.0312 247.242L97.1484 249.258L96.9141 251.766C96.9141 251.859 96.625 251.953 96.0469 252.047L95.8359 251.953H95.5781L95.7422 251.766V251.719L95.6953 251.672H95.625C95.4688 251.672 95.3281 251.703 95.2031 251.766C95.0625 251.766 94.9922 251.609 94.9922 251.297V250.523L95.0156 248.742L94.9922 247.898C95.1641 247.133 95.4141 246.5 95.7422 246C96.1328 245.594 96.3281 245.234 96.3281 244.922C96.3906 244.922 96.4531 244.805 96.5156 244.57L97.6406 242.906C98.2656 241.906 98.7891 240.883 99.2109 239.836L99.3281 239.672V239.602L99.2812 239.555L100.055 237.539V237.492C99.8516 237.492 99.3828 237.383 98.6484 237.164C98.1172 237.164 97.5859 237.117 97.0547 237.023L96.5625 237.188C95.4844 237.062 94.8203 237 94.5703 237H94.3828C94.1953 237 94.1016 237.016 94.1016 237.047C93.8359 237.047 93.6406 236.727 93.5156 236.086C93.4844 236.086 93.4688 236.031 93.4688 235.922C93.5469 235.609 93.6719 235.453 93.8438 235.453L94.1484 235.477V235.453L93.8906 235.195V235.172C93.8906 235.125 93.9766 235.078 94.1484 235.031ZM94.9219 235.594H94.5703V235.664L94.8047 235.922V235.945H94.3125L94.2422 236.016V236.062L94.3359 236.133H94.4766L94.8047 236.086C95.4766 236.211 96 236.273 96.375 236.273H97.0078C97.0078 236.195 96.7266 236.125 96.1641 236.062V235.992C98.0859 236.117 99.3828 236.258 100.055 236.414H100.219C100.25 236.414 100.266 236.375 100.266 236.297C100.266 236.078 99.6328 235.945 98.3672 235.898L94.9219 235.594ZM97.7578 236.18V236.297L98.0156 236.344H98.1797V236.297C98.1797 236.234 98.0391 236.195 97.7578 236.18ZM101.062 236.18C100.797 236.18 100.664 236.219 100.664 236.297C100.664 236.375 100.836 236.414 101.18 236.414H101.227L101.32 236.297V236.227L101.156 236.18H101.062ZM94.3594 236.508L94.3125 236.578C94.3125 236.672 94.5078 236.719 94.8984 236.719H95.2734C95.0859 236.578 94.7891 236.508 94.3828 236.508H94.3594ZM97.5234 236.531C97.5234 236.594 98.125 236.688 99.3281 236.812L99.8438 236.953H100.055L100.148 236.859C100.148 236.641 99.2734 236.531 97.5234 236.531ZM101.062 236.766L100.945 236.883V236.93H101.062L101.109 236.766H101.062ZM100.641 237.492C100.672 237.57 100.695 237.609 100.711 237.609H100.781L100.898 237.492V237.352L100.828 237.328H100.711C100.664 237.359 100.641 237.414 100.641 237.492ZM101.062 238.055V238.078C101.062 238.234 101.102 238.328 101.18 238.359H101.25C101.328 238.359 101.367 238.094 101.367 237.562L101.32 237.469C101.227 237.531 101.141 237.727 101.062 238.055ZM100.383 237.844H100.359L100.383 237.984H100.477V237.914L100.383 237.844ZM101.133 238.641H101.016V238.664L100.969 239.32L101.016 239.367H101.062C101.094 239.367 101.148 239.211 101.227 238.898V238.805L101.133 238.641ZM99.8672 238.828H99.75V238.898L99.4219 239.859V239.883H99.4688C99.75 239.461 99.8984 239.148 99.9141 238.945V238.875L99.8672 238.828ZM98.4375 242.367V242.414H98.5781C98.7344 242.414 98.9688 242.109 99.2812 241.5C99.9375 240.438 100.266 239.828 100.266 239.672V239.625L100.219 239.555H100.125C100.016 239.648 99.7188 240.102 99.2344 240.914C98.7031 241.742 98.4375 242.227 98.4375 242.367ZM100.219 240.727H100.195C99.7578 241.445 99.5391 241.867 99.5391 241.992H99.6094C100.031 241.508 100.242 241.086 100.242 240.727H100.219ZM99.1641 242.625V242.672C99.1797 242.672 99.2969 242.539 99.5156 242.273V242.203H99.4453C99.2578 242.359 99.1641 242.5 99.1641 242.625ZM98.6484 243.516H98.6953C98.9141 243.266 99.0234 243.062 99.0234 242.906V242.859H99C98.875 242.859 98.7578 243.078 98.6484 243.516ZM97.9219 244.359V244.453H98.0156L98.1562 244.125L98.1094 244.102C98.0156 244.102 97.9531 244.188 97.9219 244.359ZM96.8438 244.453V244.547H96.8906C97.125 244.391 97.2422 244.266 97.2422 244.172H97.1953C97.0859 244.203 96.9688 244.297 96.8438 244.453ZM96.9141 245.156H96.9609C97.0391 245.156 97.1016 245.102 97.1484 244.992L97.1016 244.945C96.9766 244.977 96.9141 245.047 96.9141 245.156ZM96.7266 245.367L96.6562 245.461V245.531H96.6797L96.7969 245.438V245.367H96.7266ZM95.8359 246.492H95.8594C96.1094 246.336 96.2344 246.211 96.2344 246.117H96.2109C95.9609 246.227 95.8359 246.352 95.8359 246.492ZM96.2344 246.82L96.1406 246.914V246.938H96.2578L96.2812 246.844L96.2578 246.82H96.2344ZM96.1406 247.406V247.805C96.2656 248.211 96.3281 248.453 96.3281 248.531L96.4219 248.578H96.4453C96.4922 248.578 96.5312 248.469 96.5625 248.25L96.4453 247.664L96.5156 247.172H96.4922L96.4688 247.148C96.25 247.227 96.1406 247.312 96.1406 247.406ZM95.7422 247.711H95.6484V247.805L95.7422 247.734V247.711ZM96.2812 249.773H96.2109V249.844C96.2109 249.984 96.25 250.07 96.3281 250.102H96.375L96.4453 250.031V250.008C96.4453 249.898 96.3906 249.82 96.2812 249.773ZM96.0469 250.852L96 250.945V250.992H96.0469L96.0938 250.945V250.852H96.0469ZM95.3906 251.109L95.2734 251.203V251.297C95.3203 251.406 95.4219 251.461 95.5781 251.461H95.8594C96 251.461 96.0781 251.43 96.0938 251.367C96.0938 251.195 95.9219 251.109 95.5781 251.109H95.3906ZM96.5156 251.438L96.4688 251.484L96.4922 251.531H96.5859V251.438H96.5156Z" fill="white"/>
<path d="M105.117 248.742C105.602 248.805 105.938 248.922 106.125 249.094C106.188 249.219 106.219 249.359 106.219 249.516V249.844C106.219 250.484 105.852 251.102 105.117 251.695L104.812 251.789C104.516 251.789 104.211 251.344 103.898 250.453V250.359C103.898 249.672 104 249.25 104.203 249.094C104.656 248.859 104.961 248.742 105.117 248.742ZM104.367 249.773C104.398 250.18 104.453 250.383 104.531 250.383C104.562 250.352 104.633 250.078 104.742 249.562L104.812 249.398V249.328H104.789C104.508 249.422 104.367 249.57 104.367 249.773ZM105 249.914V249.961C105 250.117 105.031 250.203 105.094 250.219H105.117C105.18 250.219 105.273 250.055 105.398 249.727V249.586L105.328 249.562H105.258C105.086 249.562 105 249.68 105 249.914ZM105.68 250.219L105.703 250.266H105.82L105.844 250.102V250.031H105.82C105.773 250.031 105.727 250.094 105.68 250.219ZM105.352 250.688L104.484 250.781C104.484 250.906 104.531 250.977 104.625 250.992H104.883C105.07 250.992 105.227 250.906 105.352 250.734V250.688Z" fill="white"/>
<path d="M325.766 235.43H325.953C326.125 235.43 326.406 235.555 326.797 235.805C327.469 236.055 327.805 236.328 327.805 236.625C328.305 237.703 328.555 238.508 328.555 239.039C328.523 239.18 328.469 239.602 328.391 240.305C328.125 241.008 327.789 241.617 327.383 242.133C328.695 243.227 329.43 244.055 329.586 244.617C329.586 244.711 329.789 245.078 330.195 245.719L330.125 247.266L330.102 247.359H330.031V247.125C330.031 246.969 330.008 246.891 329.961 246.891H329.891C329.797 246.891 329.727 247.078 329.68 247.453C329.727 247.656 329.773 247.758 329.82 247.758H329.867C329.961 247.758 330.016 247.656 330.031 247.453H330.102C330.102 247.953 329.961 248.414 329.68 248.836L329.586 248.672H329.492L329.398 248.742V248.859L329.516 248.977L329.492 249.141L329.586 249.375C329.586 249.5 329.422 249.672 329.094 249.891V249.844L329.164 249.75V249.727L329.094 249.656H328.953C328.688 249.797 328.484 250.07 328.344 250.477L328.461 250.523L329 250.102V250.125C328.641 250.672 328.273 251 327.898 251.109C327.68 251.312 327.367 251.508 326.961 251.695C326.68 251.93 326.117 252.141 325.273 252.328C325.273 252.359 325.18 252.375 324.992 252.375C324.633 252.375 323.992 252.188 323.07 251.812C322.508 251.812 321.805 250.875 320.961 249C320.914 249 320.852 248.727 320.773 248.18V247.758C320.773 246.805 320.93 246.016 321.242 245.391C321.414 244.594 321.617 244.195 321.852 244.195C321.852 244.023 322.062 243.688 322.484 243.188L322.742 242.883V242.812C322.586 242.812 322.086 242.312 321.242 241.312C320.773 239.953 320.539 239.141 320.539 238.875C320.664 238.781 320.727 238.633 320.727 238.43L320.891 238.5H320.914C320.992 238.469 321.031 238.398 321.031 238.289V238.148L320.938 238.031H320.891L320.82 238.219L320.727 238.195V238.148C320.883 237.617 321.188 237.211 321.641 236.93C321.797 236.492 322.125 236.18 322.625 235.992C323.562 235.617 324.609 235.43 325.766 235.43ZM321.852 237.258L321.898 237.281H321.922C322.047 237.281 322.516 236.883 323.328 236.086C323.391 236.086 323.422 236.055 323.422 235.992H323.375C323.062 235.992 322.633 236.25 322.086 236.766C321.977 236.906 321.898 237.07 321.852 237.258ZM324.852 236.273V236.344L326.211 236.719V236.297H326.281V236.273L326.797 236.438H326.867C326.867 236.234 326.5 236.133 325.766 236.133C325.641 236.102 325.477 236.086 325.273 236.086C325.117 236.086 324.977 236.148 324.852 236.273ZM322.953 236.906H323.023C323.398 236.719 323.586 236.57 323.586 236.461H323.492C323.242 236.555 323.062 236.703 322.953 236.906ZM322.484 239.344V239.461C322.516 240.039 323.008 240.898 323.961 242.039L324.266 242.25H324.289L324.57 242.18H324.781C325.281 242.18 325.875 241.992 326.562 241.617C326.812 241.477 327.086 241.102 327.383 240.492C327.492 240.258 327.609 240.141 327.734 240.141L327.688 239.906L327.828 239.391V239.25C327.828 239.234 327.766 239.211 327.641 239.18L327.055 237.633C326.961 237.461 326.719 237.344 326.328 237.281C326.172 237.094 325.586 236.859 324.57 236.578C324.242 236.578 323.609 236.977 322.672 237.773C322.547 238.102 322.484 238.625 322.484 239.344ZM327.078 236.672H326.867V236.695C326.914 236.805 327 236.859 327.125 236.859H327.148L327.219 236.812C327.172 236.75 327.125 236.703 327.078 236.672ZM327.523 237.094V237.141C327.633 237.422 327.75 237.562 327.875 237.562V237.445C327.781 237.211 327.664 237.094 327.523 237.094ZM321.008 237.773V237.914H321.031C321.25 237.836 321.359 237.68 321.359 237.445V237.328H321.266C321.188 237.328 321.102 237.477 321.008 237.773ZM321.148 238.898C321.148 239.195 321.172 239.344 321.219 239.344H321.242C321.398 239.344 321.5 239.242 321.547 239.039V238.734C321.547 238.234 321.641 237.867 321.828 237.633V237.445H321.617C321.523 237.445 321.453 237.688 321.406 238.172C321.344 238.172 321.258 238.414 321.148 238.898ZM327.711 237.773H327.594V237.867L327.523 238.125L327.734 238.5C327.734 238.641 327.766 238.742 327.828 238.805L327.805 238.969V238.992H327.828L327.898 238.898V238.5C327.898 238.016 327.836 237.773 327.711 237.773ZM322.086 238.945L322.156 238.992C322.203 238.914 322.227 238.836 322.227 238.758H322.203C322.125 238.789 322.086 238.852 322.086 238.945ZM321.852 239.531C321.945 240.266 322.18 240.867 322.555 241.336C323.023 241.836 323.336 242.117 323.492 242.18H323.586C323.586 242.148 323.359 241.812 322.906 241.172C322.422 240.312 322.164 239.742 322.133 239.461L321.992 239.344H321.969C321.891 239.375 321.852 239.438 321.852 239.531ZM328.227 239.414L328.133 239.344C328.023 239.656 327.969 239.906 327.969 240.094L327.992 240.117H328.062C328.172 240.102 328.227 240 328.227 239.812V239.414ZM321.055 239.766C321.133 240.25 321.359 240.812 321.734 241.453C321.781 241.453 321.922 241.633 322.156 241.992C322.484 242.383 322.789 242.578 323.07 242.578H323.234V242.531C323.234 242.484 322.852 242.125 322.086 241.453C321.773 241.094 321.617 240.852 321.617 240.727C321.508 240.586 321.406 240.195 321.312 239.555L321.266 239.531H321.148C321.086 239.547 321.055 239.625 321.055 239.766ZM326.727 241.922V241.945H326.773C327.023 241.945 327.352 241.625 327.758 240.984L327.828 240.68V240.516L327.758 240.398C327.648 240.43 327.469 240.742 327.219 241.336C327.109 241.508 326.945 241.703 326.727 241.922ZM325.695 242.297L325.742 242.344H325.859C325.953 242.344 326.07 242.297 326.211 242.203V242.133C325.992 242.133 325.82 242.188 325.695 242.297ZM327.055 242.367L326.961 242.414C327.164 242.523 327.352 242.578 327.523 242.578L327.547 242.531V242.438L327.477 242.367H327.055ZM326.633 242.672L326.352 242.766V242.812C326.383 242.875 326.727 243.023 327.383 243.258C327.695 243.492 327.891 243.609 327.969 243.609V243.469C327.594 242.938 327.148 242.672 326.633 242.672ZM323.609 242.766H323.469V242.836C323.469 242.898 323.594 242.938 323.844 242.953H324.055L324.102 242.883C324.102 242.805 323.938 242.766 323.609 242.766ZM324.852 242.766H324.547V242.836L324.594 242.883H324.688C324.938 242.883 325.164 242.859 325.367 242.812V242.766H324.852ZM321.641 244.781H321.734C321.844 244.781 322.297 244.367 323.094 243.539C323.172 243.539 323.281 243.445 323.422 243.258V243.234C323.391 243.141 323.305 243.094 323.164 243.094H323.07C322.82 243.094 322.477 243.406 322.039 244.031C322.023 244.031 321.977 244.141 321.898 244.359C321.727 244.531 321.641 244.672 321.641 244.781ZM322.672 245.25L322.719 245.297V245.32L322.859 245.297L322.906 245.367C322.453 246.32 322.227 246.914 322.227 247.148V247.219C322.227 248.812 322.492 249.805 323.023 250.195C323.664 250.805 324.203 251.109 324.641 251.109H324.852L324.922 251.039C324.906 251.008 324.617 250.867 324.055 250.617C323.57 250.32 323.25 250.078 323.094 249.891V249.844H323.141L324.359 250.547C325.328 250.875 325.945 251.039 326.211 251.039H326.281C326.406 251.039 326.664 250.852 327.055 250.477V250.617C327.492 250.461 327.852 250.117 328.133 249.586L328.227 249.258V249.211L327.898 249.375V249.352C328.273 248.82 328.461 248.453 328.461 248.25C328.461 247.609 328.383 247.047 328.227 246.562V246.305C328.227 246.117 328.164 245.688 328.039 245.016V244.992L328.109 244.945L328.32 245.086V245.039V244.945C328.32 244.773 328.258 244.648 328.133 244.57H328.062V244.805H327.992C327.93 244.789 327.828 244.562 327.688 244.125C327.219 243.484 326.57 243.164 325.742 243.164C324.133 243.445 323.328 243.797 323.328 244.219C323.328 244.703 323.109 245.047 322.672 245.25ZM322.039 245.133C322.148 245.133 322.258 245.055 322.367 244.898V244.852H322.32C322.148 244.852 322.055 244.945 322.039 245.133ZM321.547 246.492C321.547 246.57 321.641 246.625 321.828 246.656C321.984 246.656 322.109 246.5 322.203 246.188V246.047C322.203 246 322.109 245.977 321.922 245.977L321.898 245.953V245.906C321.898 245.859 321.977 245.836 322.133 245.836C322.195 245.836 322.273 245.734 322.367 245.531V245.484L322.32 245.438C322.211 245.438 322.102 245.469 321.992 245.531V245.484V245.461V245.438V245.297H321.828C321.641 245.297 321.547 245.695 321.547 246.492ZM329.07 245.602C329.102 245.977 329.148 246.172 329.211 246.188C329.258 246.188 329.289 246.094 329.305 245.906C329.258 245.656 329.203 245.531 329.141 245.531C329.094 245.531 329.07 245.555 329.07 245.602ZM328.719 246.727V246.82L328.766 247.078L328.695 247.172V247.289C328.695 247.414 328.734 247.477 328.812 247.477H328.93C329.039 247.43 329.094 247.352 329.094 247.242V247.148C329 246.586 328.922 246.305 328.859 246.305H328.812C328.75 246.305 328.719 246.445 328.719 246.727ZM321.055 248.484C321.445 249.328 321.734 249.859 321.922 250.078H321.969V250.031L321.453 247.828C321.391 247.594 321.359 247.336 321.359 247.055L321.406 246.586L321.383 246.562H321.266C321.172 246.562 321.102 247.203 321.055 248.484ZM329.68 248.156L329.727 248.18H329.75C329.828 248.148 329.867 248.086 329.867 247.992H329.82C329.773 247.992 329.727 248.047 329.68 248.156ZM329.141 249.094L329.047 249.164V249.305H329.07L329.164 249.211V249.094H329.141ZM327.453 249.891L327.547 249.773H327.594V249.844L327.477 249.961H327.453V249.891ZM327.266 250.195V250.125H327.359V250.195H327.266ZM322.438 250.359H322.367V250.688C322.367 250.969 322.586 251.164 323.023 251.273H323.07L323.141 251.227C323.016 250.945 322.781 250.656 322.438 250.359ZM325.367 251.133L325.156 251.156V251.227L325.18 251.273H325.438C325.531 251.273 325.586 251.25 325.602 251.203V251.156L325.461 251.133H325.367ZM323.539 251.391L323.469 251.438V251.484C323.703 251.781 324.172 251.93 324.875 251.93C325.078 251.914 325.18 251.891 325.18 251.859V251.789C324.992 251.789 324.477 251.656 323.633 251.391H323.539ZM325.531 251.742V251.812H325.555C325.773 251.812 326.016 251.711 326.281 251.508V251.461H326.258C325.773 251.57 325.531 251.664 325.531 251.742Z" fill="white"/>
<path d="M333.336 248.742C333.82 248.805 334.156 248.922 334.344 249.094C334.406 249.219 334.438 249.359 334.438 249.516V249.844C334.438 250.484 334.07 251.102 333.336 251.695L333.031 251.789C332.734 251.789 332.43 251.344 332.117 250.453V250.359C332.117 249.672 332.219 249.25 332.422 249.094C332.875 248.859 333.18 248.742 333.336 248.742ZM332.586 249.773C332.617 250.18 332.672 250.383 332.75 250.383C332.781 250.352 332.852 250.078 332.961 249.562L333.031 249.398V249.328H333.008C332.727 249.422 332.586 249.57 332.586 249.773ZM333.219 249.914V249.961C333.219 250.117 333.25 250.203 333.312 250.219H333.336C333.398 250.219 333.492 250.055 333.617 249.727V249.586L333.547 249.562H333.477C333.305 249.562 333.219 249.68 333.219 249.914ZM333.898 250.219L333.922 250.266H334.039L334.062 250.102V250.031H334.039C333.992 250.031 333.945 250.094 333.898 250.219ZM333.57 250.688L332.703 250.781C332.703 250.906 332.75 250.977 332.844 250.992H333.102C333.289 250.992 333.445 250.906 333.57 250.734V250.688Z" fill="white"/>
<path d="M552.688 236.719L552.992 236.695C554.977 236.711 555.969 236.82 555.969 237.023C556.594 237.414 556.906 237.703 556.906 237.891C556.562 237.641 556.336 237.516 556.227 237.516H556.109V237.539C556.125 237.664 556.43 237.953 557.023 238.406H557.094L557.023 238.148H557.07C557.414 238.539 557.664 239.164 557.82 240.023L558.312 242.273V242.625C558.141 244.25 558.023 245.062 557.961 245.062C557.883 245.375 557.742 245.867 557.539 246.539C557.539 246.93 557.43 247.25 557.211 247.5L557.164 247.477V247.359L557.234 247.242L557.211 246.984H557.164L556.508 247.828C556.164 247.984 555.992 248.141 555.992 248.297C555.992 248.359 556.039 248.414 556.133 248.461H556.203C556.375 248.461 556.672 248.195 557.094 247.664H557.141L557.164 247.688C557.164 248.125 556.539 248.852 555.289 249.867C554.93 250.117 554.289 250.586 553.367 251.273C553.273 251.352 553.18 251.5 553.086 251.719C552.18 252.484 551.68 252.867 551.586 252.867C551.305 252.867 551.023 252.93 550.742 253.055C550.539 253.055 550.289 252.531 549.992 251.484L550.203 251.25L550.062 251.062V251.039L550.32 250.664H550.648C550.914 250.43 551.094 250.312 551.188 250.312C551.109 250.391 551.07 250.461 551.07 250.523H551.094L551.117 250.547H551.164C551.227 250.531 551.273 250.492 551.305 250.43V250.312H551.234V250.289C551.562 250.258 552.211 249.844 553.18 249.047C554.289 248.25 554.906 247.789 555.031 247.664C555.219 247.414 555.445 247.211 555.711 247.055C555.961 246.789 556.086 246.594 556.086 246.469V246.445H555.992L555.828 246.469L555.711 246.445C556.133 245.523 556.344 245 556.344 244.875V244.758L556.273 244.688H556.227C556.148 244.688 555.648 245.109 554.727 245.953C554.398 246.109 553.734 246.188 552.734 246.188L552.078 245.953C551.297 245.812 550.781 245.594 550.531 245.297C549.328 243.875 548.727 242.914 548.727 242.414C548.445 241.852 548.305 241.352 548.305 240.914V240.703C548.305 240.25 548.578 239.633 549.125 238.852C549.125 238.742 549.344 238.352 549.781 237.68C550.609 237.039 551.578 236.719 552.688 236.719ZM552.289 237.023H551.867V237.094C551.867 237.156 552.164 237.203 552.758 237.234V237.188C552.758 237.109 552.602 237.055 552.289 237.023ZM554.961 237.023L554.891 237.094C554.969 237.312 555.18 237.422 555.523 237.422L555.594 237.328C555.484 237.125 555.305 237.023 555.055 237.023H554.961ZM553.039 237.117H552.945C553.18 237.305 553.773 237.523 554.727 237.773H554.867C554.867 237.633 554.391 237.422 553.438 237.141L553.039 237.117ZM550.578 237.773V237.82C550.578 237.867 550.602 237.891 550.648 237.891C550.758 237.828 550.898 237.711 551.07 237.539L551.047 237.516H551C550.766 237.609 550.625 237.695 550.578 237.773ZM555.852 237.586L555.805 237.656V237.68H555.852L555.898 237.609V237.586H555.852ZM551.398 237.867V237.891H551.422C551.719 237.891 552.008 237.852 552.289 237.773V237.68L552.055 237.656C551.727 237.656 551.508 237.727 551.398 237.867ZM550.297 239.32L549.852 241.688V241.969C549.867 242.031 549.969 242.102 550.156 242.18C550.328 242.82 550.5 243.203 550.672 243.328C551.938 244.078 552.727 244.453 553.039 244.453H553.109C553.984 244.203 554.625 243.859 555.031 243.422L555.711 242.273C556.242 241.883 556.508 241.492 556.508 241.102V241.055C556.508 239.992 556.016 239.18 555.031 238.617C554.5 238.195 554.086 237.984 553.789 237.984L553.438 237.914C553.25 238.008 552.797 238.125 552.078 238.266C550.891 238.703 550.297 239.055 550.297 239.32ZM550.133 238.383L550.203 238.477H550.227C550.43 238.367 550.531 238.25 550.531 238.125V238.055H550.414C550.227 238.102 550.133 238.211 550.133 238.383ZM555.078 238.055H555.008C555.008 238.258 555.234 238.445 555.688 238.617L555.711 238.57V238.547C555.711 238.422 555.5 238.258 555.078 238.055ZM549.992 238.688L549.945 238.734V238.781L549.992 238.828L550.086 238.734L549.992 238.688ZM549.219 239.883V240.094L549.266 240.141L549.172 240.328V240.539C549.203 240.664 549.234 240.727 549.266 240.727H549.312C549.406 240.727 549.469 240.336 549.5 239.555L549.477 239.461H549.406C549.281 239.586 549.219 239.727 549.219 239.883ZM556.977 239.461H556.906V239.555L557 239.836V240.141L557.141 240.539L557.07 240.703L557.258 241.078L557.234 241.195C557.312 241.273 557.383 241.594 557.445 242.156H557.656C557.734 242.109 557.773 242.031 557.773 241.922V241.875C557.773 240.938 557.648 240.469 557.398 240.469L557.164 240.094V240.023H557.211L557.305 240.07H557.375V240.023C557.375 239.914 557.242 239.727 556.977 239.461ZM548.633 240.539V240.656L548.727 240.727H548.75C548.844 240.711 548.891 240.625 548.891 240.469V240.281H548.797C548.766 240.281 548.711 240.367 548.633 240.539ZM549.148 241.219C549.148 241.578 549.188 241.758 549.266 241.758L549.406 241.195C549.375 241.023 549.344 240.938 549.312 240.938H549.266C549.188 240.969 549.148 241.062 549.148 241.219ZM557.211 242.789L557.258 243.609H557.375C557.438 243.375 557.477 243.062 557.492 242.672C557.477 242.375 557.422 242.227 557.328 242.227C557.25 242.227 557.211 242.414 557.211 242.789ZM549.266 242.672C549.266 242.859 549.391 243.172 549.641 243.609H549.734V243.562L549.711 243.352L549.734 243.328H549.922V243.281C549.703 242.828 549.508 242.602 549.336 242.602C549.289 242.602 549.266 242.625 549.266 242.672ZM549.945 243.773H549.898V243.867C550.07 244.086 550.242 244.195 550.414 244.195H550.438V244.172L549.945 243.773ZM550.531 244.641H550.438V244.758C550.641 244.867 550.789 244.922 550.883 244.922H551V244.875C550.891 244.719 550.734 244.641 550.531 244.641ZM554.258 245.742H554.141V245.812H554.211L554.258 245.789V245.742ZM557.141 246.727L557.164 246.75C557.273 246.75 557.383 246.555 557.492 246.164V246.141H557.445C557.352 246.141 557.25 246.336 557.141 246.727ZM556.508 246.562V246.633H556.531C556.688 246.633 556.766 246.555 556.766 246.398V246.375H556.719C556.609 246.391 556.539 246.453 556.508 246.562ZM555.477 246.914L555.711 246.633C555.633 246.867 555.594 247.008 555.594 247.055H555.477V246.914ZM554.445 249.797V249.82L554.492 249.844H554.539C554.914 249.672 555.383 249.328 555.945 248.812V248.742H555.898C555.586 248.805 555.117 249.148 554.492 249.773L554.445 249.797ZM553.531 249.352V249.398C553.641 249.398 553.742 249.328 553.836 249.188L553.812 249.164H553.789C553.633 249.227 553.547 249.289 553.531 249.352ZM552.406 251.32V251.414H552.43C552.773 251.273 552.945 251.117 552.945 250.945V250.898C552.648 250.992 552.469 251.133 552.406 251.32ZM550.625 251.109L550.578 251.18L550.625 251.25L550.719 251.133V251.109H550.625ZM551.258 251.859L551.328 251.906C551.609 251.906 551.891 251.727 552.172 251.367V251.273H552.125C551.891 251.273 551.602 251.469 551.258 251.859ZM550.648 252.375V252.633H550.742C550.914 252.508 551 252.398 551 252.305V252.281L550.883 252.141C550.727 252.141 550.648 252.219 550.648 252.375ZM551.188 252.539V252.586H551.258L551.586 252.516V252.422H551.469C551.281 252.453 551.188 252.492 551.188 252.539Z" fill="white"/>
<path d="M561.289 248.742C561.773 248.805 562.109 248.922 562.297 249.094C562.359 249.219 562.391 249.359 562.391 249.516V249.844C562.391 250.484 562.023 251.102 561.289 251.695L560.984 251.789C560.688 251.789 560.383 251.344 560.07 250.453V250.359C560.07 249.672 560.172 249.25 560.375 249.094C560.828 248.859 561.133 248.742 561.289 248.742ZM560.539 249.773C560.57 250.18 560.625 250.383 560.703 250.383C560.734 250.352 560.805 250.078 560.914 249.562L560.984 249.398V249.328H560.961C560.68 249.422 560.539 249.57 560.539 249.773ZM561.172 249.914V249.961C561.172 250.117 561.203 250.203 561.266 250.219H561.289C561.352 250.219 561.445 250.055 561.57 249.727V249.586L561.5 249.562H561.43C561.258 249.562 561.172 249.68 561.172 249.914ZM561.852 250.219L561.875 250.266H561.992L562.016 250.102V250.031H561.992C561.945 250.031 561.898 250.094 561.852 250.219ZM561.523 250.688L560.656 250.781C560.656 250.906 560.703 250.977 560.797 250.992H561.055C561.242 250.992 561.398 250.906 561.523 250.734V250.688Z" fill="white"/>
<path fill-rule="evenodd" clip-rule="evenodd" d="M58.5679 83.6618L62.4107 87.1201V82.7283L100.302 98.0297L100.951 127.228L129.001 159.546L131.946 160.616V74.0509L192 14V110.973L165.508 178.816L94.0611 207L51.0321 165.297V132.491L15 130.595V125.217L58.5679 83.6618ZM53.5607 126.299V164.226L94.0611 191.5L150 166L189.471 110.497V20.1042L134.475 75.0982V164.226L127.521 161.698L98.4429 128.196L97.8107 99.7507L64.9393 86.4763V92.7974L58.6179 87.1084L17.5286 126.299L22 125.217L53.5607 126.299Z" fill="black" fill-opacity="0.3"/>
<path fill-rule="evenodd" clip-rule="evenodd" d="M58.5679 80.6618L60.5143 80.3156L62.4107 79.7283L100.302 95.0297L100.951 124.228L129.001 156.546L131.946 157.616V71.0509L192 11V107.973L165.508 175.816L94.0611 204L51.0321 162.297V129.491L15 127.595V122.217L58.5679 80.6618ZM53.5607 127.092V161.226L94.65 201.05L163.554 173.869L189.471 107.497V17.1042L134.475 72.0982V161.226L127.521 158.698L98.4429 125.196L97.8107 96.7507L64.9393 83.4763V89.7974L58.6179 84.1084L17.5286 123.299V125.196L53.5607 127.092Z" fill="black"/>
<path d="M18 123.227L58.864 84.0241L65.1507 83.3918L97.8419 96.6701L98.4706 125.124L127.39 158.636L134.305 161.165V72.0103L189 17V107.419L163.224 173.811L94.6985 201L53.8346 161.165V127.021L18 125.124V123.227Z" fill="#EDEDEE"/>
<path fill-rule="evenodd" clip-rule="evenodd" d="M190 16V107.934L163.97 174.599L94.5135 202L52.9891 161.752V127.988L17 126.094V123.33L58.3928 83.8466L65.0775 83.1781L98.4395 96.6516L99.0751 125.253L127.862 158.422L133.807 160.583V72.1951L190 16ZM135.069 72.7181V162.386L127.123 159.497L97.8227 125.736L97.1955 97.5111L64.8933 84.4657L58.9503 85.06L18.2628 123.871V124.896L54.2518 126.79V161.217L94.8076 200.526L162.994 173.627L188.737 107.696V19.0487L135.069 72.7181Z" fill="black"/>
<path d="M91 123L55 159V99H91V123Z" fill="white"/>
<path fill-rule="evenodd" clip-rule="evenodd" d="M55 99H92V123.831L55 161V99ZM56.2542 100.26V157.958L90.7458 123.309V100.26H56.2542Z" fill="black"/>
<path d="M96 99V123H64L96 99Z" fill="white"/>
<path fill-rule="evenodd" clip-rule="evenodd" d="M97 97V124H62L97 97ZM65.7627 122.715H95.7262V99.6003L65.7627 122.715Z" fill="black"/>
<path d="M20 123H60V83L20 123Z" fill="white"/>
<path fill-rule="evenodd" clip-rule="evenodd" d="M61 81V123H19L61 81ZM22.0535 121.735H59.7352V84.0535L22.0535 121.735Z" fill="black"/>
<path d="M55 160.125L95 197V122L55 160.125Z" fill="white"/>
<path fill-rule="evenodd" clip-rule="evenodd" d="M95 120V199L55 160.158L95 120ZM56.7853 160.143L93.7585 196.046V123.024L56.7853 160.143Z" fill="black"/>
<path d="M189 106.204V17L134 72.0408V163.776L162.14 172L189 106.204Z" fill="white"/>
<path fill-rule="evenodd" clip-rule="evenodd" d="M189 16V106.688L162.492 173L134 164.496V72.2101L189 16ZM135.25 72.7289V163.552L161.758 171.464L187.75 106.443V19.0738L135.25 72.7289Z" fill="black"/>
<path d="M95 199V142L162 172.101L95 199Z" fill="white"/>
<path fill-rule="evenodd" clip-rule="evenodd" d="M94 141L163 172.157L94 200V141ZM95.2593 142.972V198.112L159.746 172.091L95.2593 142.972Z" fill="black"/>
<path fill-rule="evenodd" clip-rule="evenodd" d="M160.139 170L162 170L162 173L160.139 173L160.139 170ZM152.694 170L156.417 170L156.417 173L152.694 173L152.694 170ZM145.25 170L148.972 170L148.972 173L145.25 173L145.25 170ZM137.806 170L141.528 170L141.528 173L137.806 173L137.806 170ZM130.361 170L134.083 170L134.083 173L130.361 173L130.361 170ZM122.917 170L126.639 170L126.639 173L122.917 173L122.917 170ZM115.472 170L119.194 170L119.194 173L115.472 173L115.472 170ZM108.028 170L111.75 170L111.75 173L108.028 173L108.028 170ZM100.583 170L104.306 170L104.306 173L100.583 173L100.583 170ZM95 170L96.8611 170L96.8611 173L95 173L95 170Z" fill="black"/>
<path d="M108.715 168.824C107.059 168.843 105.451 168.862 103.835 168.881L103.664 168.18C103.983 167.649 104.137 166.943 104.456 166.412C104.848 165.59 104.425 163.775 105.228 162.886C107.192 160.713 110.077 160.191 111.704 160.172L114.185 163.66C113.461 163.7 112.274 164.291 111.654 164.698C111.034 165.104 110.517 165.67 110.15 166.345L109.199 168.466L108.715 168.824Z" fill="#99C6E8"/>
<path d="M123.252 173.752L119.348 173.798C119.185 173.8 118.536 173.984 118.372 173.81C118.207 173.636 117.867 172.409 117.863 172.057L116.856 169.432C116.229 167.543 114.521 166.134 113.382 164.549C112.825 163.547 112.871 162.337 111.96 161.707C111.05 161.077 109.525 160.337 108.45 160.211L113.33 160.153C116.913 160.463 119.73 164.826 121.067 167.799C122.019 169.679 122.753 171.679 123.252 173.752Z" fill="#B4DAF6"/>
<path d="M118.961 182.42L121.586 170.431L126.466 170.374L123.843 182.538L118.961 182.42Z" fill="#99C6E8"/>
<path d="M118.961 182.42L113.548 178.615L116.922 175.058C116.634 173.989 116.296 172.937 115.909 171.905C115.326 170.049 114.423 168.329 113.247 166.836C111.76 164.92 110.119 163.708 108.492 163.727C106.865 163.746 105.581 165.168 104.314 168.172C103.843 169.29 103.672 168.883 103.343 168.536C103.176 168.151 103.088 167.732 103.083 167.308C103.078 166.883 103.156 166.463 103.314 166.074C104.734 162.364 106.499 160.234 108.613 160.209C109.671 160.393 110.848 160.984 111.751 161.609C112.654 162.234 113.428 163.052 114.027 164.014C115.314 165.744 116.326 167.693 117.023 169.781C117.525 171.006 117.865 172.233 118.372 173.81L121.588 170.607L118.961 182.42Z" fill="#E6FFFF"/>
<path d="M60 82V133L97 97.7407L60 82Z" fill="white"/>
<path fill-rule="evenodd" clip-rule="evenodd" d="M59 81L98 97.358L59 134V81ZM60.2834 82.8983V131.058L95.7218 97.7624L60.2834 82.8983Z" fill="black"/>
<path fill-rule="evenodd" clip-rule="evenodd" d="M116.833 97L119 97L119 99L116.833 99L116.833 97ZM108.167 97L112.5 97L112.5 99L108.167 99L108.167 97ZM99.5 97L103.833 97L103.833 99L99.5 99L99.5 97ZM90.8333 97L95.1667 97L95.1667 99L90.8333 99L90.8333 97ZM82.1667 97L86.5 97L86.5 99L82.1667 99L82.1667 97ZM73.5 97L77.8333 97L77.8333 99L73.5 99L73.5 97ZM64.8333 97L69.1667 97L69.1667 99L64.8333 99L64.8333 97ZM56.1667 97L60.5 97L60.5 99L56.1667 99L56.1667 97ZM47.5 97L51.8333 97L51.8333 99L47.5 99L47.5 97ZM41 97L43.1667 97L43.1667 99L41 99L41 97Z" fill="black"/>
<path fill-rule="evenodd" clip-rule="evenodd" d="M33 146.833L33 149L31 149L31 146.833L33 146.833ZM33 138.167L33 142.5L31 142.5L31 138.167L33 138.167ZM33 129.5L33 133.833L31 133.833L31 129.5L33 129.5ZM33 120.833L33 125.167L31 125.167L31 120.833L33 120.833ZM33 112.167L33 116.5L31 116.5L31 112.167L33 112.167ZM33 103.5L33 107.833L31 107.833L31 103.5L33 103.5ZM33 94.8333L33 99.1667L31 99.1667L31 94.8333L33 94.8333ZM33 86.1667L33 90.5L31 90.5L31 86.1667L33 86.1667ZM33 77.5L33 81.8333L31 81.8333L31 77.5L33 77.5ZM33 71L33 73.1667L31 73.1667L31 71L33 71Z" fill="black"/>
<path fill-rule="evenodd" clip-rule="evenodd" d="M71.6594 90.378C72.7713 87.6707 74.2467 85.1477 75.8398 82.685C69.9113 92.0003 71.6387 102.317 82.2327 106.959L80.4759 109.541C72.6662 106.118 68.2959 98.7664 71.6594 90.378Z" fill="url(#paint1_linear)"/>
<path fill-rule="evenodd" clip-rule="evenodd" d="M70.0655 80.6868C72.3374 80.333 74.2993 80.7371 75.8363 82.7303L74.157 85.4828C72.7968 83.8005 70.686 83.1061 68.4245 83.4632L70.0655 80.6868Z" fill="#648EAE"/>
<path fill-rule="evenodd" clip-rule="evenodd" d="M78.8424 84.6655C81.0539 85.6551 82.4067 87.7351 82.9509 90.1879L81.243 92.864C80.7056 90.4248 79.3697 88.3617 77.1751 87.3888L78.8424 84.6655Z" fill="#648EAE"/>
<path fill-rule="evenodd" clip-rule="evenodd" d="M84.7368 76.0282C82.7212 80.5352 82.6521 85.4209 83.0026 90.28C82.2454 87.7054 81.1385 85.7633 78.7527 84.7186C74.0146 92.6154 74.4779 101.286 82.2138 107.017C71.5591 102.348 69.7342 92.2495 75.7906 82.7928C74.4598 81.0883 72.3162 80.3952 70.0525 80.7621C74.9404 79.182 79.8386 77.6051 84.7368 76.0282Z" fill="#E6FFFF"/>
<path d="M413 98.8247V3L356.11 162.485L308.591 114.907L316.622 100.835V90.1134L279.811 55.268V68L243 104.856V116.247L270.441 119.598V155.784L313.276 198L314.614 192.639L317.961 198L386.898 168.515L413 98.8247Z" fill="#EDEDEE"/>
<path fill-rule="evenodd" clip-rule="evenodd" d="M412.656 7.08308L356.494 163.502L307.678 114.944L315.906 100.621V90.3931L280.297 56.9046V68.3277L243.344 105.085V115.578L270.891 118.919V155.32L312.852 196.406L314.294 190.669L318.187 196.864L386.597 167.795L412.656 98.672V7.08308ZM355.943 161.063L412.695 3L414 3.22478V98.9144L387.653 168.8L317.657 198.543L314.831 194.045L313.585 199L269.547 155.88V120.103L242 116.761V104.531L278.953 67.7741V53.8014L317.25 89.8173V100.976L309.354 114.721L355.943 161.063Z" fill="black"/>
<path d="M383.786 166.514L414 98.8299V3L355.586 61.3021V157.802L309.929 112.233H273V154.451L313.286 194.66L318.657 196L383.786 166.514Z" fill="white"/>
<path fill-rule="evenodd" clip-rule="evenodd" d="M414 1V98.9277L383.697 167.21L318.281 197L312.516 195.553L272 154.877V111.561H309.787L354.387 156.337V60.8486L414 1ZM355.726 61.4057V159.584L309.232 112.906H273.34V154.32L313.201 194.339L318.153 195.582L382.68 166.196L412.66 98.6416V4.24691L355.726 61.4057Z" fill="black"/>
<path fill-rule="evenodd" clip-rule="evenodd" d="M317 166H382.733L383 167.275L317 197V166ZM318.315 167.332V194.95L379.636 167.332H318.315Z" fill="black"/>
<path fill-rule="evenodd" clip-rule="evenodd" d="M341.049 166.551L317.746 195.612L316.701 194.774L340.004 165.713L341.049 166.551Z" fill="black"/>
<path d="M312 193.651L317 195V166L312 193.651Z" fill="#E5E5E5"/>
<path fill-rule="evenodd" clip-rule="evenodd" d="M312.493 193.275L315.687 194.212V174.069L312.493 193.275ZM315.696 166L317 166.113V196L311 194.24L315.696 166Z" fill="black"/>
<path d="M314 91.3333L308 86.6667L280.667 68L244 104.667V116H305.333L314 100V91.3333Z" fill="white"/>
<path fill-rule="evenodd" clip-rule="evenodd" d="M280.601 67L308.668 86.1707L315 91.0966V100.345L305.98 117H243V104.607L280.601 67ZM280.764 68.741L244.346 105.165V115.654H305.179L313.654 100.004V91.7549L307.874 87.2587L280.764 68.741Z" fill="black"/>
<path d="M313 91H276V55L313 91Z" fill="white"/>
<path fill-rule="evenodd" clip-rule="evenodd" d="M276 53L315 91H276V53ZM277.334 56.1725V89.6513H311.694L277.334 56.1725Z" fill="black"/>
<path fill-rule="evenodd" clip-rule="evenodd" d="M298.655 126.786C296.041 130.944 293.111 135.044 290.585 137.261C285.713 141.538 276.809 150.198 272.96 154L272 153.052C275.846 149.253 284.777 140.566 289.683 136.259C292.046 134.184 294.887 130.237 297.501 126.079C300.103 121.941 302.435 117.667 303.785 115L305 115.6C303.634 118.298 301.282 122.608 298.655 126.786Z" fill="black"/>
<path fill-rule="evenodd" clip-rule="evenodd" d="M306 114.851C306.017 114.181 306.047 113.561 306.089 113L308.795 113.199C308.757 113.712 308.728 114.288 308.713 114.917L306 114.851ZM306.349 122.183C306.201 120.912 306.105 119.683 306.049 118.526L308.759 118.397C308.812 119.498 308.904 120.667 309.045 121.876L306.349 122.183ZM307.737 129.414C307.403 128.217 307.127 127.01 306.901 125.817L309.568 125.32C309.782 126.447 310.041 127.58 310.352 128.699L307.737 129.414ZM310.511 136.348C309.903 135.257 309.373 134.114 308.912 132.944L311.439 131.965C311.862 133.039 312.343 134.072 312.886 135.046L310.511 136.348ZM313.945 140.952C313.486 140.497 313.053 140.017 312.644 139.515L314.755 137.825C315.107 138.256 315.476 138.665 315.864 139.05C316.355 139.537 316.879 139.983 317.432 140.391L315.813 142.549C315.158 142.066 314.533 141.535 313.945 140.952ZM324.632 146.287C323.081 145.964 321.537 145.514 320.055 144.906L321.092 142.421C322.397 142.956 323.777 143.36 325.19 143.654L324.632 146.287ZM341 146.017C340.314 146.18 339.533 146.336 338.678 146.473L338.244 143.818C339.039 143.69 339.753 143.547 340.367 143.401L341 146.017ZM334.011 146.951C332.522 147.022 330.938 147.021 329.317 146.913L329.498 144.229C331.004 144.329 332.484 144.331 333.881 144.264L334.011 146.951Z" fill="black"/>
<path fill-rule="evenodd" clip-rule="evenodd" d="M308.2 136.158L307.741 136.392L307.245 135.344L306.731 134.905L306.923 134.663L306.575 133.927L308.395 133L310 135.105L308.776 136.649L308.2 136.158ZM304.072 138.261L300.462 140.1L299.296 137.634L302.935 135.781L304.095 138.232L304.283 137.995L306.327 139.739L303.879 142.829L301.835 141.084L304.072 138.261ZM296.823 141.953L293.183 143.807L292.017 141.342L295.656 139.488L296.823 141.953ZM289.544 145.661L285.904 147.514L284.738 145.049L288.378 143.195L289.544 145.661ZM296.938 147.263L299.386 144.174L301.431 145.918L298.982 149.008L296.938 147.263ZM282.265 149.368L278.626 151.222L277.459 148.757L281.099 146.903L282.265 149.368ZM292.041 153.442L294.49 150.353L296.534 152.097L294.086 155.187L292.041 153.442ZM274.986 153.076L273.166 154.002L272 151.537L273.82 150.61L274.986 153.076ZM287.144 159.622L289.593 156.532L291.637 158.276L289.189 161.366L287.144 159.622ZM283.472 164.256L284.696 162.711L286.741 164.455L285.516 166L283.472 164.256Z" fill="black"/>
<path fill-rule="evenodd" clip-rule="evenodd" d="M313.73 193.392L312.943 196.54L270.114 154.399V118.279L242.677 114.935V103.564L274.147 72.1076C274.136 71.8578 274.129 71.6396 274.129 71.4567C274.129 69.1917 275.232 62.9113 276.137 58.4865V54.0655L279.483 57.2885V54.0655L316.289 88.8479V99.5502L309.719 111.043L355.103 156.406V60.0855L412.282 2.93248L412.654 1.89191V2.5608L413.323 1.89191V97.5435L409.097 107.025L386.555 167.108L317.627 196.54L316.858 195.309L316.289 195.562V194.399L316.016 193.963L313.73 193.392ZM314.976 197.347L311.065 198.446L268.236 156.306L267.437 154.399V120.648L242.353 117.591L240 114.935V103.564L240.784 101.672L271.462 71.0079C271.517 69.5987 271.807 67.4873 272.151 65.355C272.531 63.0016 273.016 60.4047 273.46 58.2168V54.0655L274.798 50.8358L279.01 53.1168L279.483 51.5047L281.322 52.1213L318.128 86.9037L318.966 88.8479V99.5502L318.613 100.878L313.057 110.596L352.426 149.947V60.0855L353.21 58.1936L409.964 1.46595L410.133 0.991921L411.284 1.19114L410.761 0.668892L411.43 0L416 1.89191V97.5435L415.768 98.6324L411.575 108.04L389.061 168.048L387.607 169.569L318.679 199L315.357 197.958L314.976 197.347Z" fill="black"/>
<path d="M262 180L276.5 182L275.8 186L262 183.6V180Z" fill="#648EAE"/>
<path d="M262 180L268 177.5L263.231 173.316L268.769 171L273.5 175L278 173.316L276.5 182L262 180Z" fill="url(#paint2_linear)"/>
<path d="M262.333 156L256.5 158L267.074 167.536C267.074 167.536 268.259 169.357 268.259 170.571C268.259 171.786 267.074 173 267.074 173L272 170.5C272 170.5 273 170 273 168C273 166 271.222 164.5 271.222 164.5L262.333 156Z" fill="url(#paint3_linear)"/>
<path d="M256 161.706L256.5 158L267 167.5C267.5 168 268.5 169.024 268.5 171C268.5 173.471 264.5 173.212 264.5 173.911C264.5 174.911 267.4 176.882 268 177.5L264.5 179L263 177.5C262 176.5 261 175.258 261 173.5C261 171.66 264.4 172.206 264.4 170.971C264.4 170.353 263.8 169.735 263.8 169.735L256 161.706Z" fill="url(#paint4_linear)"/>
<path fill-rule="evenodd" clip-rule="evenodd" d="M9.80896 104.072C11.1684 106.623 12.8686 108.956 14.679 111.218C7.9273 102.651 8.63034 92.3353 18.6301 86.7144L16.6467 84.3506C9.27515 88.4961 5.67736 96.1601 9.80896 104.072Z" fill="url(#paint5_linear)"/>
<path fill-rule="evenodd" clip-rule="evenodd" d="M9.19896 113.781C11.471 113.876 13.3716 113.275 14.7151 111.191L12.8197 108.725C11.6236 110.49 9.60136 111.386 7.33935 111.287L9.19896 113.781Z" fill="#648EAE"/>
<path fill-rule="evenodd" clip-rule="evenodd" d="M17.4311 108.971C19.582 107.752 20.7729 105.567 21.1152 103.108L19.1627 100.689C18.8262 103.133 17.6509 105.3 15.5156 106.501L17.4311 108.971Z" fill="#648EAE"/>
<path fill-rule="evenodd" clip-rule="evenodd" d="M24.1743 117.009C21.7415 112.76 21.1889 107.946 21.0524 103.117C20.5617 105.731 19.6638 107.756 17.4169 109.02C11.9657 101.692 11.5624 93.0924 18.6155 86.6796C8.58146 92.3299 7.78493 102.472 14.6896 111.211C13.5475 113.023 11.5044 113.916 9.23777 113.776C14.21 114.857 19.1922 115.933 24.1743 117.009Z" fill="#E6FFFF"/>
<defs>
<filter id="filter0_d" x="476.721" y="110.266" width="44.7791" height="33.4119" filterUnits="userSpaceOnUse" color-interpolation-filters="sRGB">
<feFlood flood-opacity="0" result="BackgroundImageFix"/>
<feColorMatrix in="SourceAlpha" type="matrix" values="0 0 0 0 0 0 0 0 0 0 0 0 0 0 0 0 0 0 127 0"/>
<feOffset dy="2"/>
<feGaussianBlur stdDeviation="1"/>
<feColorMatrix type="matrix" values="0 0 0 0 0 0 0 0 0 0 0 0 0 0 0 0 0 0 0.25 0"/>
<feBlend mode="normal" in2="BackgroundImageFix" result="effect1_dropShadow"/>
<feBlend mode="normal" in="SourceGraphic" in2="effect1_dropShadow" result="shape"/>
</filter>
<radialGradient id="paint0_radial" cx="0" cy="0" r="1" gradientUnits="userSpaceOnUse" gradientTransform="translate(513.895 68.5747) rotate(104.344) scale(14.0973 5.55975)">
<stop stop-color="#959595"/>
<stop offset="1" stop-color="#E5E5E5"/>
</radialGradient>
<linearGradient id="paint1_linear" x1="74.467" y1="93.4937" x2="91.6496" y2="106.915" gradientUnits="userSpaceOnUse">
<stop stop-color="#99C6E8"/>
<stop offset="1" stop-color="#3D6683"/>
</linearGradient>
<linearGradient id="paint2_linear" x1="274.308" y1="179.105" x2="271.992" y2="171.725" gradientUnits="userSpaceOnUse">
<stop offset="0.574586" stop-color="#E6FFFF"/>
<stop offset="0.823204" stop-color="#C0E0E0"/>
<stop offset="1" stop-color="#83B0B0"/>
</linearGradient>
<linearGradient id="paint3_linear" x1="259.37" y1="156.607" x2="272.117" y2="169.048" gradientUnits="userSpaceOnUse">
<stop offset="0.574586" stop-color="#E6FFFF"/>
<stop offset="0.823204" stop-color="#C0E0E0"/>
<stop offset="1" stop-color="#83B0B0"/>
</linearGradient>
<linearGradient id="paint4_linear" x1="259.36" y1="167.304" x2="275.221" y2="172.404" gradientUnits="userSpaceOnUse">
<stop stop-color="#99C6E8"/>
<stop offset="1" stop-color="#3D6683"/>
</linearGradient>
<linearGradient id="paint5_linear" x1="12.2762" y1="100.728" x2="27.8814" y2="85.7734" gradientUnits="userSpaceOnUse">
<stop stop-color="#99C6E8"/>
<stop offset="1" stop-color="#3D6683"/>
</linearGradient>
</defs>
</svg>
