<svg width="24" height="24" viewBox="0 0 24 24" fill="none" xmlns="http://www.w3.org/2000/svg">
<rect width="24" height="24" fill="white"/>
<rect x="3" y="3" width="18" height="19" fill="#FFE34E"/>
<path d="M12.0001 13.8152C13.1814 13.8152 14.1391 12.8576 14.1391 11.6762C14.1391 10.4949 13.1814 9.53723 12.0001 9.53723C10.8187 9.53723 9.86108 10.4949 9.86108 11.6762C9.86108 12.8576 10.8187 13.8152 12.0001 13.8152Z" fill="#61DAFB"/>
<path d="M6.008 15.9313L5.536 15.8113C2.018 14.9223 0 13.4133 0 11.6723C0 9.93133 2.018 8.42233 5.536 7.53333L6.008 7.41433L6.141 7.88233C6.49738 9.11004 6.95322 10.3067 7.504 11.4603L7.605 11.6733L7.504 11.8863C6.95231 13.0396 6.49643 14.2363 6.141 15.4643L6.008 15.9313ZM5.317 8.62633C2.643 9.37733 1.002 10.5263 1.002 11.6723C1.002 12.8173 2.643 13.9663 5.317 14.7183C5.64402 13.6783 6.03887 12.6607 6.499 11.6723C6.03834 10.6841 5.64348 9.66659 5.317 8.62633ZM17.992 15.9313L17.859 15.4623C17.503 14.2347 17.0468 13.0383 16.495 11.8853L16.394 11.6723L16.495 11.4593C17.0466 10.3059 17.5028 9.10923 17.859 7.88133L17.992 7.41333L18.465 7.53233C21.982 8.42133 24 9.93033 24 11.6723C24 13.4143 21.982 14.9223 18.465 15.8113L17.992 15.9313ZM17.501 11.6723C17.981 12.7113 18.378 13.7323 18.683 14.7183C21.358 13.9663 22.998 12.8173 22.998 11.6723C22.998 10.5263 21.357 9.37833 18.683 8.62633C18.3564 9.66655 17.9616 10.6841 17.501 11.6723Z" fill="#61DAFB"/>
<path d="M5.31006 8.62128L5.17706 8.15428C4.18806 4.66828 4.48806 2.17029 6.00006 1.29829C7.48306 0.442285 9.86406 1.45329 12.3591 4.01429L12.6991 4.36329L12.3591 4.71229C11.4725 5.63389 10.6625 6.62617 9.93706 7.67929L9.80206 7.87229L9.56706 7.89228C8.29096 7.99288 7.02514 8.19689 5.78206 8.50229L5.31006 8.62128ZM7.20606 1.99129C6.93806 1.99129 6.70106 2.04929 6.50106 2.16429C5.50706 2.73729 5.33106 4.72929 6.01606 7.41729C7.08169 7.18022 8.16165 7.01286 9.24906 6.91629C9.87648 6.02417 10.562 5.17433 11.3011 4.37229C9.74106 2.85329 8.26406 1.99129 7.20606 1.99129ZM16.7951 22.3533C16.7941 22.3533 16.7941 22.3533 16.7951 22.3533C15.3701 22.3533 13.5401 21.2803 11.6411 19.3303L11.3011 18.9813L11.6411 18.6323C12.5274 17.7104 13.3371 16.7178 14.0621 15.6643L14.1971 15.4713L14.4311 15.4513C15.7078 15.3512 16.9743 15.1476 18.2181 14.8423L18.6901 14.7233L18.8241 15.1913C19.8111 18.6753 19.5121 21.1743 18.0001 22.0453C17.6328 22.2529 17.2169 22.3592 16.7951 22.3533ZM12.6991 18.9723C14.2591 20.4913 15.7361 21.3533 16.7941 21.3533C17.0611 21.3533 17.3001 21.2953 17.4991 21.1803C18.4931 20.6073 18.6701 18.6143 17.9841 15.9263C16.9181 16.1637 15.8378 16.331 14.7501 16.4273C14.1234 17.32 13.4382 18.1702 12.6991 18.9723Z" fill="#61DAFB"/>
<path d="M18.6901 8.62124L18.2181 8.50224C16.9745 8.19596 15.7079 7.99194 14.4311 7.89224L14.1971 7.87224L14.0621 7.67924C13.3374 6.62579 12.5277 5.63347 11.6411 4.71224L11.3011 4.36324L11.6411 4.01424C14.1351 1.45424 16.5151 0.443236 18.0001 1.29824C19.5121 2.17024 19.8121 4.66824 18.8241 8.15324L18.6901 8.62124ZM14.7501 6.91624C15.8921 7.02024 16.9771 7.18924 17.9841 7.41724C18.6701 4.72924 18.4931 2.73724 17.4991 2.16424C16.5111 1.59324 14.6541 2.46824 12.6991 4.37224C13.4378 5.17432 14.1229 6.02415 14.7501 6.91624ZM7.20606 22.3532C6.78385 22.3594 6.36762 22.2531 6.00006 22.0452C4.48806 21.1742 4.18806 18.6762 5.17706 15.1912L5.30906 14.7232L5.78106 14.8422C6.93606 15.1332 8.21006 15.3382 9.56606 15.4512L9.80106 15.4712L9.93506 15.6642C10.6606 16.7176 11.4706 17.7102 12.3571 18.6322L12.6971 18.9812L12.3571 19.3302C10.4591 21.2802 8.62906 22.3532 7.20606 22.3532ZM6.01606 15.9262C5.33006 18.6142 5.50706 20.6072 6.50106 21.1802C7.48806 21.7432 9.34406 20.8752 11.3011 18.9722C10.5623 18.1696 9.87679 17.3194 9.24906 16.4272C8.1616 16.3311 7.08161 16.1637 6.01606 15.9262Z" fill="#61DAFB"/>
<path d="M12 16.5543C11.177 16.5543 10.331 16.5183 9.48405 16.4483L9.24905 16.4283L9.11405 16.2353C8.63496 15.5469 8.18457 14.839 7.76405 14.1133C7.34477 13.3871 6.95577 12.6437 6.59805 11.8853L6.499 11.6723L6.59805 11.4593C6.95571 10.7008 7.34472 9.95751 7.76405 9.23129C8.17805 8.51529 8.63305 7.80129 9.11405 7.10929L9.24906 6.91629L9.48405 6.89629C11.1587 6.7543 12.8424 6.7543 14.517 6.89629L14.7501 6.91624L14.885 7.10929C15.8442 8.48636 16.6862 9.94146 17.402 11.4593L17.503 11.6723L17.402 11.8853C16.6879 13.404 15.8458 14.8593 14.885 16.2353L14.751 16.4283L14.517 16.4483C13.67 16.5183 12.823 16.5543 12 16.5543ZM9.80305 15.4703C11.283 15.5813 12.717 15.5813 14.198 15.4703C15.0249 14.2615 15.7589 12.992 16.394 11.6723C15.7601 10.3519 15.0256 9.08214 14.197 7.87429C12.7345 7.76329 11.2656 7.76329 9.80305 7.87429C8.97413 9.08191 8.23961 10.3517 7.60605 11.6723C8.2418 12.9918 8.97622 14.2614 9.80305 15.4703Z" fill="#61DAFB"/>
<path d="M10.2439 12.636H14.3779L12.3099 7.73096L10.2439 12.636Z" fill="#DD0031"/>
<path d="M12.31 0L1 3.979L2.725 18.739L12.31 23.982L21.898 18.744L23.622 3.981L12.31 0.001V0ZM19.368 18.297H16.732L15.312 14.796H9.309L7.889 18.297H5.251L12.311 2.649L19.368 18.297Z" fill="#DD0031"/>
<path d="M2 0H23L21.09 21.563L12.477 24L3.913 21.562L2 0ZM9.031 9.75L8.799 7.032L18.858 7.035L19.088 4.413L5.912 4.41L6.61 12.42H15.736L15.41 15.846L12.5 16.65L9.545 15.84L9.357 13.73H6.748L7.078 17.901L12.5 19.351L17.879 17.908L18.623 9.751H9.031V9.75Z" fill="#E34F26"/>
<path d="M10.3945 23.4531C9.87891 23.4531 9.41016 23.375 8.98828 23.2188C8.56641 23.0625 8.1875 22.8516 7.85156 22.5859C7.52344 22.3203 7.23828 22.0078 6.99609 21.6484C6.76172 21.2891 6.5625 20.9062 6.39844 20.5C6.24219 20.0938 6.125 19.6758 6.04688 19.2461C5.97656 18.8242 5.94141 18.4062 5.94141 17.9922V16.082C5.94141 15.043 5.69922 14.2969 5.21484 13.8438C4.73047 13.3906 3.99219 13.1641 3 13.1641V10.8203C3.99219 10.8203 4.73047 10.5938 5.21484 10.1406C5.69922 9.6875 5.94141 8.93359 5.94141 7.87891V5.96875C5.94141 5.5625 5.97266 5.14453 6.03516 4.71484C6.10547 4.28516 6.21484 3.86719 6.36328 3.46094C6.51172 3.05469 6.69922 2.67578 6.92578 2.32422C7.16016 1.96484 7.44141 1.65234 7.76953 1.38672C8.10547 1.12109 8.48828 0.910156 8.91797 0.753906C9.35547 0.597656 9.84766 0.519531 10.3945 0.519531L10.793 2.35938C10.3164 2.34375 9.94922 2.44531 9.69141 2.66406C9.43359 2.875 9.24609 3.15625 9.12891 3.50781C9.01172 3.85938 8.94141 4.25391 8.91797 4.69141C8.90234 5.12109 8.89453 5.54688 8.89453 5.96875V7.87891C8.89453 8.80859 8.66406 9.63281 8.20312 10.3516C7.75 11.0703 7.04297 11.6172 6.08203 11.9922C7.05078 12.3672 7.76172 12.9102 8.21484 13.6211C8.66797 14.332 8.89453 15.1523 8.89453 16.082V17.9922C8.89453 18.4141 8.91797 18.8398 8.96484 19.2695C9.01953 19.707 9.11719 20.1016 9.25781 20.4531C9.39844 20.8047 9.58984 21.0859 9.83203 21.2969C10.082 21.5156 10.4023 21.6172 10.793 21.6016L10.3945 23.4531Z" fill="#6A9955"/>
<path d="M13.3633 21.6016C13.7461 21.6172 14.0586 21.5156 14.3008 21.2969C14.5508 21.0859 14.7461 20.8047 14.8867 20.4531C15.0273 20.1016 15.125 19.707 15.1797 19.2695C15.2344 18.8398 15.2617 18.4141 15.2617 17.9922V16.082C15.2617 15.6289 15.3125 15.1992 15.4141 14.793C15.5234 14.3867 15.6875 14.0078 15.9062 13.6562C16.125 13.3047 16.3984 12.9922 16.7266 12.7188C17.0625 12.4375 17.4609 12.1992 17.9219 12.0039C17.0078 11.6133 16.3359 11.0547 15.9062 10.3281C15.4766 9.60156 15.2617 8.78516 15.2617 7.87891V5.96875C15.2617 5.54688 15.25 5.12109 15.2266 4.69141C15.2109 4.25391 15.1445 3.85938 15.0273 3.50781C14.9102 3.15625 14.7227 2.875 14.4648 2.66406C14.207 2.44531 13.8398 2.34375 13.3633 2.35938L13.7617 0.519531C14.3086 0.519531 14.7969 0.597656 15.2266 0.753906C15.6641 0.910156 16.0469 1.12109 16.375 1.38672C16.7031 1.65234 16.9844 1.96484 17.2188 2.32422C17.4531 2.67578 17.6445 3.05469 17.793 3.46094C17.9414 3.86719 18.0469 4.28516 18.1094 4.71484C18.1797 5.14453 18.2148 5.5625 18.2148 5.96875V7.87891C18.2148 8.93359 18.4531 9.6875 18.9297 10.1406C19.4141 10.5938 20.1562 10.8203 21.1562 10.8203V13.1641C20.1562 13.1641 19.4141 13.3906 18.9297 13.8438C18.4531 14.2969 18.2148 15.043 18.2148 16.082V17.9922C18.2148 18.3984 18.1758 18.8164 18.0977 19.2461C18.0195 19.6758 17.9023 20.0938 17.7461 20.5C17.5898 20.9062 17.3906 21.2891 17.1484 21.6484C16.9062 22.0078 16.6211 22.3203 16.293 22.5859C15.9648 22.8516 15.5898 23.0625 15.168 23.2188C14.7461 23.375 14.2773 23.4531 13.7617 23.4531L13.3633 21.6016Z" fill="#6A9955"/>
</svg>
