<svg width="1021" height="1278" viewBox="0 0 1021 1278" fill="none" xmlns="http://www.w3.org/2000/svg">
<g clip-path="url(#clip0)">
<rect width="1021" height="1278" fill="white"/>
<path d="M1021 0H-1091V1278H1021V0Z" fill="url(#paint0_radial)"/>
<path d="M740.484 134C740.89 134.725 741.539 135.291 742.32 135.602L744.565 136.604H749.666C750.454 136.592 751.226 136.385 751.91 136.003C752.571 135.784 753.144 135.363 753.543 134.801C753.985 134.227 754.202 133.516 754.155 132.798C754.188 132.277 754.071 131.756 753.819 131.296C753.567 130.836 753.188 130.454 752.727 130.194C751.715 129.57 750.615 129.098 749.462 128.792L744.973 127.79C743.425 127.605 741.913 127.2 740.484 126.589C739.248 126.091 738.135 125.339 737.219 124.385C736.359 123.313 735.858 122.006 735.785 120.643C735.712 119.28 736.07 117.929 736.811 116.774C737.468 115.83 738.299 115.015 739.26 114.37C740.241 113.731 741.357 113.32 742.524 113.168C743.718 112.836 744.959 112.701 746.197 112.768C747.705 112.692 749.217 112.826 750.686 113.168C751.972 113.357 753.215 113.764 754.359 114.37C755.378 115.031 756.218 115.925 756.808 116.974C757.385 118.24 757.73 119.596 757.828 120.98H753.135C753.15 120.266 752.936 119.565 752.523 118.977C752.079 118.408 751.524 117.932 750.89 117.575L748.85 116.774H744.565L742.728 117.174C742.116 117.575 741.504 117.775 741.3 118.376C741.094 118.59 740.934 118.842 740.829 119.117C740.724 119.392 740.676 119.685 740.688 119.979C740.654 120.323 740.711 120.67 740.854 120.985C740.997 121.301 741.221 121.576 741.504 121.781C742.139 122.405 742.905 122.883 743.749 123.184L746.605 123.985L749.87 124.586L753.339 125.587C754.34 125.865 755.3 126.269 756.195 126.789C757.029 127.372 757.724 128.123 758.236 128.992C758.818 129.961 759.102 131.074 759.052 132.197C759.084 133.598 758.732 134.982 758.032 136.203C757.344 137.314 756.355 138.216 755.175 138.807C754.027 139.593 752.692 140.076 751.298 140.209L747.013 140.61L742.728 140.209C741.343 139.925 740.027 139.38 738.852 138.607C737.769 137.874 736.863 136.917 736.199 135.803C735.524 134.5 735.174 133.058 735.179 131.596H739.872C739.825 132.44 740.039 133.277 740.484 134Z" fill="white"/>
<path d="M769.255 113.369H764.562V140.109H769.255V113.369Z" fill="white"/>
<path d="M788.231 113.369V117.174H782.722V133.8C782.722 134.4 782.722 134.801 782.926 135.001C782.926 135.157 782.963 135.31 783.033 135.449C783.104 135.588 783.207 135.709 783.334 135.803H788.231V139.608H781.701C780.966 139.504 780.267 139.229 779.661 138.807C779.039 138.377 778.602 137.734 778.437 137.004C778.174 136.023 778.037 135.014 778.029 134V117.174H773.335V113.369H778.029V105.356H782.722V113.369H788.231Z" fill="white"/>
<path d="M813.329 138.406C810.971 139.929 808.192 140.699 805.371 140.61C803.42 140.622 801.483 140.283 799.658 139.608C798.003 138.961 796.533 137.93 795.373 136.604C794.203 135.353 793.362 133.84 792.924 132.197C792.254 130.4 791.908 128.502 791.904 126.588C791.928 124.677 792.273 122.782 792.924 120.98C793.562 119.381 794.458 117.893 795.577 116.573C796.786 115.351 798.247 114.395 799.862 113.769C801.52 113.016 803.342 112.672 805.167 112.767C807.301 112.664 809.421 113.15 811.288 114.17C812.973 115.054 814.383 116.369 815.369 117.975C816.341 119.443 817.032 121.072 817.41 122.783C817.842 124.484 817.98 126.244 817.818 127.991H796.801C796.836 129.135 796.973 130.274 797.209 131.396C797.548 132.432 798.104 133.387 798.841 134.2C799.585 135.071 800.582 135.7 801.698 136.003C803.099 136.614 804.632 136.878 806.161 136.774C807.691 136.669 809.171 136.198 810.472 135.402C811.118 134.959 811.667 134.395 812.087 133.741C812.507 133.088 812.791 132.358 812.921 131.596H817.41C817.013 134.304 815.547 136.75 813.329 138.406ZM812.308 121.18C811.94 120.225 811.303 119.391 810.472 118.777C809.774 118.086 808.941 117.541 808.023 117.174C807.052 116.782 806.013 116.578 804.963 116.573C803.843 116.54 802.729 116.745 801.698 117.174C800.78 117.541 799.947 118.086 799.249 118.777C798.501 119.424 797.938 120.253 797.617 121.18C797.157 122.123 796.88 123.142 796.801 124.185H812.921C812.915 123.154 812.707 122.134 812.308 121.18Z" fill="white"/>
<path d="M827.408 113.368V116.974H827.612C827.943 116.239 828.42 115.577 829.016 115.027C829.612 114.476 830.314 114.049 831.081 113.769C832.811 113.015 834.699 112.671 836.59 112.768C838.548 112.655 840.506 112.998 842.303 113.769C843.855 114.493 845.19 115.596 846.18 116.974C847.379 118.204 848.224 119.725 848.629 121.381C849.227 123.121 849.503 124.953 849.445 126.789C849.443 128.608 849.238 130.422 848.833 132.197C848.264 133.786 847.437 135.274 846.384 136.604C845.246 137.867 843.857 138.889 842.303 139.608C840.478 140.283 838.541 140.622 836.59 140.61H834.345L831.897 140.009L829.448 138.607C828.638 138.144 827.996 137.443 827.612 136.604H827.408V150.425H822.919V113.368H827.408ZM844.14 122.783C843.805 121.623 843.251 120.536 842.507 119.578C841.767 118.691 840.868 117.944 839.855 117.375C838.646 116.807 837.317 116.532 835.978 116.573C834.571 116.507 833.169 116.782 831.897 117.375C830.828 117.953 829.918 118.778 829.244 119.778C828.564 120.747 828.079 121.835 827.816 122.983C827.416 124.145 827.209 125.362 827.204 126.588C827.191 127.882 827.398 129.168 827.816 130.394C828.492 132.718 830.018 134.715 832.101 136.003C833.368 136.612 834.774 136.888 836.182 136.804C837.579 136.771 838.96 136.5 840.263 136.003C841.273 135.418 842.115 134.591 842.711 133.599C843.426 132.575 843.913 131.415 844.14 130.194C844.489 128.956 844.627 127.67 844.548 126.388C844.616 125.172 844.478 123.954 844.14 122.783Z" fill="white"/>
<path d="M854.342 121.18C854.899 119.544 855.803 118.042 856.995 116.774C858.17 115.464 859.636 114.436 861.28 113.769C863.148 112.996 865.172 112.653 867.197 112.768C869.22 112.674 871.24 113.015 873.114 113.769C874.668 114.488 876.057 115.511 877.195 116.774C878.386 118.042 879.29 119.544 879.848 121.18C880.499 122.982 880.844 124.877 880.868 126.789C880.844 128.636 880.499 130.465 879.848 132.197C879.29 133.833 878.386 135.335 877.195 136.604C876.057 137.867 874.668 138.889 873.114 139.608C871.213 140.266 869.213 140.604 867.197 140.61C865.18 140.62 863.177 140.281 861.28 139.608C859.636 138.942 858.17 137.914 856.995 136.604C855.803 135.335 854.899 133.833 854.342 132.197C853.756 130.454 853.48 128.624 853.526 126.789C853.481 124.888 853.756 122.993 854.342 121.18ZM859.035 130.995C859.399 132.183 860.026 133.278 860.871 134.2C861.737 134.979 862.697 135.652 863.728 136.203C864.837 136.612 866.013 136.816 867.197 136.804C868.313 136.8 869.42 136.597 870.462 136.203C871.493 135.652 872.452 134.979 873.318 134.2C874.164 133.278 874.791 132.183 875.155 130.995C875.661 129.647 875.937 128.226 875.971 126.789C875.952 125.286 875.676 123.796 875.155 122.382C874.791 121.194 874.164 120.1 873.318 119.177C872.452 118.399 871.493 117.726 870.462 117.174C869.42 116.781 868.313 116.577 867.197 116.573C866.013 116.562 864.837 116.766 863.728 117.174C862.697 117.726 861.737 118.399 860.871 119.177C860.026 120.1 859.399 121.194 859.035 122.382C858.59 123.809 858.383 125.297 858.423 126.789C858.395 128.214 858.601 129.635 859.035 130.995Z" fill="white"/>
<path d="M891.274 113.369H886.581V140.109H891.274V113.369Z" fill="white"/>
<path d="M902.701 113.368V117.575C903.651 116.038 905.005 114.781 906.621 113.936C908.236 113.09 910.054 112.686 911.883 112.768C913.47 112.728 915.053 112.93 916.576 113.368C917.7 113.87 918.733 114.546 919.637 115.372C920.317 116.34 920.802 117.428 921.065 118.576C921.484 119.803 921.69 121.089 921.677 122.382V140.009H916.984V121.982C917.034 121.254 916.933 120.524 916.687 119.835C916.442 119.147 916.057 118.514 915.556 117.975C914.976 117.468 914.297 117.082 913.56 116.841C912.824 116.6 912.045 116.509 911.271 116.573C910.019 116.541 908.772 116.745 907.598 117.174C906.595 117.586 905.691 118.2 904.945 118.977C904.275 119.728 903.787 120.618 903.517 121.581C903.101 122.669 902.893 123.824 902.905 124.986V140.009H898.212V113.368H902.701Z" fill="white"/>
<path d="M940.654 113.369V117.174H934.94V133.8C934.973 134.205 935.041 134.607 935.144 135.001C935.144 135.402 935.348 135.602 935.757 135.803H940.654V139.608H933.92L931.88 138.807C931.377 138.31 931.024 137.686 930.859 137.004C930.495 136.046 930.356 135.019 930.451 134V117.174H925.554V113.369H930.451V105.356H934.94V113.369H940.654Z" fill="white"/>
<path d="M673.149 123.584L677.434 127.59L690.901 140.009L696.614 134.4C696.901 134.103 697.061 133.709 697.061 133.299C697.061 132.889 696.901 132.495 696.614 132.197L691.309 127.59L685.596 122.182C685.28 121.819 685.106 121.357 685.106 120.88C685.106 120.403 685.28 119.941 685.596 119.578L701.103 104.956L693.962 98.1455L677.434 113.969L673.149 117.976C672.753 118.332 672.437 118.765 672.221 119.248C672.005 119.731 671.893 120.252 671.893 120.78C671.893 121.307 672.005 121.829 672.221 122.311C672.437 122.794 672.753 123.228 673.149 123.584Z" fill="white"/>
<path d="M719.059 130.595L714.774 126.589L701.307 114.17L695.594 119.778C695.307 120.076 695.147 120.47 695.147 120.88C695.147 121.29 695.307 121.684 695.594 121.982L700.899 126.589L706.613 132.197C706.914 132.528 707.08 132.956 707.08 133.399C707.08 133.842 706.914 134.27 706.613 134.601L691.105 149.223L698.247 156.033L714.774 140.209L719.059 136.203C719.455 135.847 719.771 135.413 719.987 134.931C720.204 134.448 720.315 133.926 720.315 133.399C720.315 132.872 720.204 132.35 719.987 131.867C719.771 131.385 719.455 130.951 719.059 130.595Z" fill="white"/>
<path d="M769.459 107.76C769.459 108.451 769.179 109.113 768.682 109.601C768.184 110.09 767.51 110.364 766.806 110.364C766.103 110.364 765.428 110.09 764.93 109.601C764.433 109.113 764.153 108.451 764.153 107.76C764.153 107.07 764.433 106.407 764.93 105.919C765.428 105.431 766.103 105.156 766.806 105.156C767.51 105.156 768.184 105.431 768.682 105.919C769.179 106.407 769.459 107.07 769.459 107.76Z" fill="white"/>
<path d="M891.478 107.76C891.478 108.451 891.199 109.113 890.702 109.601C890.204 110.09 889.529 110.364 888.826 110.364C888.122 110.364 887.448 110.09 886.95 109.601C886.453 109.113 886.173 108.451 886.173 107.76C886.173 107.07 886.453 106.407 886.95 105.919C887.448 105.431 888.122 105.156 888.826 105.156C889.529 105.156 890.204 105.431 890.702 105.919C891.199 106.407 891.478 107.07 891.478 107.76Z" fill="white"/>
<path d="M407.178 406H424.806V295.24H406.086L369.426 362.944L332.766 295.24H314.046V406H331.518V326.284L364.59 386.656H374.262L407.178 326.284V406ZM495.805 406.78C503.293 406.78 510.313 405.376 516.865 402.256C523.417 399.136 529.033 395.08 533.869 389.932C538.549 384.784 542.293 378.856 544.945 371.992C547.597 365.284 549.001 358.264 549.001 350.776C549.001 343.912 547.597 337.048 545.101 330.34C542.605 323.632 539.017 317.548 534.337 312.244C529.657 306.94 524.197 302.728 517.645 299.452C511.093 296.176 503.917 294.46 496.117 294.46C488.317 294.46 481.297 296.02 474.745 299.14C468.193 302.26 462.577 306.316 457.897 311.464C453.217 316.768 449.473 322.696 446.821 329.404C444.013 336.268 442.765 343.288 442.765 350.62C442.765 357.796 444.013 364.66 446.509 371.368C449.005 378.232 452.749 384.16 457.429 389.464C462.109 394.768 467.569 398.98 474.121 402.1C480.673 405.22 487.849 406.78 495.805 406.78ZM460.549 350.62C460.549 345.628 461.329 340.792 462.889 335.956C464.449 331.12 466.789 326.752 469.909 323.008C472.873 319.264 476.617 316.3 480.985 313.96C485.353 311.62 490.345 310.372 495.961 310.372C501.265 310.372 505.945 311.62 510.313 313.804C514.681 315.988 518.269 318.952 521.389 322.696C524.509 326.44 526.849 330.652 528.565 335.488C530.125 340.324 531.061 345.316 531.061 350.62C531.061 355.612 530.281 360.604 528.721 365.284C527.161 370.12 524.821 374.488 521.857 378.232C518.737 382.132 515.149 385.252 510.781 387.592C506.413 389.932 501.577 391.024 495.961 391.024C490.501 391.024 485.665 389.932 481.297 387.748C476.929 385.564 473.185 382.444 470.065 378.7C466.945 374.956 464.605 370.744 463.045 365.752C461.329 360.916 460.549 355.924 460.549 350.62ZM567.089 406H606.401C614.513 406 622.001 404.752 628.709 402.1C635.261 399.448 641.033 395.704 645.713 390.868C650.393 386.032 653.981 380.26 656.477 373.396C658.973 366.532 660.377 358.888 660.377 350.464C660.377 342.976 659.129 335.8 656.945 329.092C654.605 322.384 651.173 316.456 646.649 311.464C642.125 306.472 636.509 302.572 629.801 299.608C623.093 296.8 615.293 295.24 606.401 295.24H567.089V406ZM642.593 350.464C642.593 356.236 641.813 361.54 640.253 366.376C638.693 371.368 636.353 375.58 633.233 379.168C630.113 382.756 626.369 385.564 621.845 387.592C617.321 389.62 612.173 390.556 606.401 390.556H584.561V310.684H606.401C612.017 310.684 617.165 311.776 621.689 313.648C626.057 315.676 629.957 318.484 633.077 321.916C636.197 325.348 638.537 329.56 640.097 334.396C641.657 339.388 642.593 344.692 642.593 350.464ZM754.729 390.556H696.229V356.704H745.681V342.196H696.229V310.684H753.325V295.24H678.757V406H754.729V390.556ZM772.753 406H790.225V367.468H815.809L839.833 406H859.645L833.593 363.88C836.713 362.944 839.677 361.384 842.485 359.2C845.137 357.016 847.477 354.52 849.349 351.556C851.221 348.748 852.625 345.472 853.717 342.04C854.653 338.608 855.277 335.02 855.277 331.276C855.277 326.908 854.341 322.54 852.625 318.172C850.909 313.804 848.569 310.06 845.605 306.628C842.485 303.196 838.897 300.544 834.685 298.36C830.473 296.332 825.949 295.24 820.957 295.24H772.753V406ZM790.225 352.024V310.684H819.865C822.049 310.684 824.233 311.308 826.417 312.4C828.601 313.492 830.473 314.896 832.033 316.768C833.593 318.64 834.997 320.824 835.933 323.32C836.869 325.816 837.493 328.468 837.493 331.276C837.493 334.084 837.025 336.736 836.245 339.232C835.309 341.728 834.217 344.068 832.813 345.94C831.253 347.812 829.537 349.372 827.509 350.464C825.481 351.556 823.297 352.024 820.801 352.024H790.225ZM893.362 328L956.074 406H970.582V295.396H952.954V375.112L889.618 295.24H875.89V406H893.362V328ZM691.085 484.84C691.085 492.016 692.333 498.88 694.985 505.744C697.481 512.608 701.225 518.692 705.905 523.996C710.585 529.3 716.045 533.668 722.597 536.944C728.993 540.376 736.169 541.936 743.969 541.936C748.337 541.936 752.705 541.468 757.229 540.22C761.753 539.128 766.121 537.412 770.177 535.228C774.233 533.044 777.821 530.392 781.097 527.272C784.217 524.152 786.713 520.408 788.585 516.196L774.077 507.928C772.517 511.204 770.645 514.012 768.461 516.196C766.277 518.536 763.781 520.408 761.129 521.968C758.477 523.528 755.669 524.62 752.861 525.244C750.053 525.868 747.245 526.18 744.593 526.18C739.289 526.18 734.609 525.088 730.241 522.904C725.873 520.72 721.973 517.6 718.853 513.856C715.733 510.112 713.237 505.9 711.521 500.908C709.649 496.072 708.869 490.924 708.869 485.464C708.869 480.784 709.493 475.948 711.053 471.112C712.613 466.432 714.797 462.064 717.761 458.164C720.725 454.42 724.469 451.3 728.837 448.96C733.205 446.62 738.197 445.372 744.125 445.372C746.621 445.372 749.429 445.684 752.237 446.308C755.045 446.932 757.697 447.868 760.349 449.116C762.845 450.52 765.341 452.392 767.525 454.576C769.709 456.916 771.581 459.724 773.141 463L786.869 453.796C783.125 446.62 777.821 440.848 770.645 436.324C763.469 431.956 754.733 429.616 744.749 429.616C736.325 429.616 728.681 431.332 722.129 434.452C715.421 437.728 709.805 441.94 705.125 447.244C700.445 452.548 697.013 458.476 694.673 465.028C692.177 471.58 691.085 478.288 691.085 484.84ZM870.266 456.292L878.222 441.94C873.386 438.508 867.77 435.544 861.53 433.048C855.134 430.708 848.27 429.46 840.782 429.46C835.01 429.46 829.706 430.24 824.87 431.644C819.878 433.204 815.666 435.388 812.078 438.196C808.49 441.004 805.682 444.592 803.654 448.804C801.47 453.016 800.534 457.852 800.534 463.156C800.534 467.524 801.158 471.268 802.562 474.388C803.966 477.508 805.994 480.16 808.802 482.344C811.454 484.684 814.886 486.712 818.942 488.272C822.998 489.832 827.834 491.392 833.45 492.796C838.13 494.044 842.498 495.292 846.242 496.384C849.986 497.632 853.106 498.88 855.758 500.284C858.254 501.688 860.282 503.248 861.686 505.12C863.09 506.992 863.87 509.332 863.87 512.14C863.87 516.82 861.998 520.408 858.254 522.748C854.51 525.244 849.206 526.336 842.342 526.336C837.974 526.336 833.918 525.868 830.018 524.932C825.962 523.996 822.374 522.748 818.942 521.344C815.51 519.94 812.546 518.38 810.05 516.664C807.554 515.104 805.526 513.544 804.278 512.14L796.322 527.116C802.562 532.108 809.738 535.852 817.538 538.348C825.338 540.844 833.606 542.092 842.03 542.092C847.646 542.092 852.794 541.624 857.786 540.376C862.622 539.128 866.834 537.256 870.578 534.76C874.322 532.264 877.13 528.832 879.314 524.776C881.498 520.72 882.59 515.884 882.59 510.268C882.59 505.276 881.654 501.064 879.938 497.632C878.222 494.2 875.882 491.236 872.762 488.74C869.642 486.4 865.742 484.372 861.218 482.656C856.694 481.096 851.702 479.536 846.086 478.132C841.406 477.04 837.506 475.948 834.074 475.012C830.642 474.076 827.678 472.828 825.494 471.58C823.154 470.332 821.438 468.772 820.346 467.056C819.254 465.34 818.786 463.156 818.786 460.348C818.786 455.668 820.502 451.924 823.934 449.116C827.366 446.464 832.826 445.06 840.314 445.06C843.59 445.06 846.866 445.528 849.986 446.152C853.106 446.932 856.07 447.868 858.722 448.96C861.374 450.208 863.714 451.456 865.742 452.704C867.614 453.952 869.174 455.2 870.266 456.292ZM965.633 456.292L973.589 441.94C968.753 438.508 963.137 435.544 956.897 433.048C950.501 430.708 943.637 429.46 936.149 429.46C930.377 429.46 925.073 430.24 920.237 431.644C915.245 433.204 911.033 435.388 907.445 438.196C903.857 441.004 901.049 444.592 899.021 448.804C896.837 453.016 895.901 457.852 895.901 463.156C895.901 467.524 896.525 471.268 897.929 474.388C899.333 477.508 901.361 480.16 904.169 482.344C906.821 484.684 910.253 486.712 914.309 488.272C918.365 489.832 923.201 491.392 928.817 492.796C933.497 494.044 937.865 495.292 941.609 496.384C945.353 497.632 948.473 498.88 951.125 500.284C953.621 501.688 955.649 503.248 957.053 505.12C958.457 506.992 959.237 509.332 959.237 512.14C959.237 516.82 957.365 520.408 953.621 522.748C949.877 525.244 944.573 526.336 937.709 526.336C933.341 526.336 929.285 525.868 925.385 524.932C921.329 523.996 917.741 522.748 914.309 521.344C910.877 519.94 907.913 518.38 905.417 516.664C902.921 515.104 900.893 513.544 899.645 512.14L891.689 527.116C897.929 532.108 905.105 535.852 912.905 538.348C920.705 540.844 928.973 542.092 937.397 542.092C943.013 542.092 948.161 541.624 953.153 540.376C957.989 539.128 962.201 537.256 965.945 534.76C969.689 532.264 972.497 528.832 974.681 524.776C976.865 520.72 977.957 515.884 977.957 510.268C977.957 505.276 977.021 501.064 975.305 497.632C973.589 494.2 971.249 491.236 968.129 488.74C965.009 486.4 961.109 484.372 956.585 482.656C952.061 481.096 947.069 479.536 941.453 478.132C936.773 477.04 932.873 475.948 929.441 475.012C926.009 474.076 923.045 472.828 920.861 471.58C918.521 470.332 916.805 468.772 915.713 467.056C914.621 465.34 914.153 463.156 914.153 460.348C914.153 455.668 915.869 451.924 919.301 449.116C922.733 446.464 928.193 445.06 935.681 445.06C938.957 445.06 942.233 445.528 945.353 446.152C948.473 446.932 951.437 447.868 954.089 448.96C956.741 450.208 959.081 451.456 961.109 452.704C962.981 453.952 964.541 455.2 965.633 456.292Z" fill="white"/>
<path d="M215.094 1196.14C216.438 1196.14 217.698 1195.89 218.874 1195.33C220.05 1194.77 221.058 1194.04 221.926 1193.12C222.766 1192.19 223.438 1191.13 223.914 1189.9C224.39 1188.69 224.642 1187.43 224.642 1186.09C224.642 1184.86 224.39 1183.62 223.942 1182.42C223.494 1181.22 222.85 1180.12 222.01 1179.17C221.17 1178.22 220.19 1177.46 219.014 1176.88C217.838 1176.29 216.55 1175.98 215.15 1175.98C213.75 1175.98 212.49 1176.26 211.314 1176.82C210.138 1177.38 209.13 1178.11 208.29 1179.03C207.45 1179.98 206.778 1181.05 206.302 1182.25C205.798 1183.48 205.574 1184.74 205.574 1186.06C205.574 1187.35 205.798 1188.58 206.246 1189.78C206.694 1191.02 207.366 1192.08 208.206 1193.03C209.046 1193.98 210.026 1194.74 211.202 1195.3C212.378 1195.86 213.666 1196.14 215.094 1196.14ZM208.766 1186.06C208.766 1185.16 208.906 1184.3 209.186 1183.43C209.466 1182.56 209.886 1181.78 210.446 1181.1C210.978 1180.43 211.65 1179.9 212.434 1179.48C213.218 1179.06 214.114 1178.84 215.122 1178.84C216.074 1178.84 216.914 1179.06 217.698 1179.45C218.482 1179.84 219.126 1180.38 219.686 1181.05C220.246 1181.72 220.666 1182.48 220.974 1183.34C221.254 1184.21 221.422 1185.11 221.422 1186.06C221.422 1186.96 221.282 1187.85 221.002 1188.69C220.722 1189.56 220.302 1190.34 219.77 1191.02C219.21 1191.72 218.566 1192.28 217.782 1192.7C216.998 1193.12 216.13 1193.31 215.122 1193.31C214.142 1193.31 213.274 1193.12 212.49 1192.72C211.706 1192.33 211.034 1191.77 210.474 1191.1C209.914 1190.43 209.494 1189.67 209.214 1188.78C208.906 1187.91 208.766 1187.01 208.766 1186.06ZM227.888 1196H231.024V1189.08H235.616L239.928 1196H243.484L238.808 1188.44C239.368 1188.27 239.9 1187.99 240.404 1187.6C240.88 1187.21 241.3 1186.76 241.636 1186.23C241.972 1185.72 242.224 1185.14 242.42 1184.52C242.588 1183.9 242.7 1183.26 242.7 1182.59C242.7 1181.8 242.532 1181.02 242.224 1180.24C241.916 1179.45 241.496 1178.78 240.964 1178.16C240.404 1177.55 239.76 1177.07 239.004 1176.68C238.248 1176.32 237.436 1176.12 236.54 1176.12H227.888V1196ZM231.024 1186.31V1178.89H236.344C236.736 1178.89 237.128 1179 237.52 1179.2C237.912 1179.4 238.248 1179.65 238.528 1179.98C238.808 1180.32 239.06 1180.71 239.228 1181.16C239.396 1181.61 239.508 1182.08 239.508 1182.59C239.508 1183.09 239.424 1183.57 239.284 1184.02C239.116 1184.46 238.92 1184.88 238.668 1185.22C238.388 1185.56 238.08 1185.84 237.716 1186.03C237.352 1186.23 236.96 1186.31 236.512 1186.31H231.024ZM260.316 1193.54V1196H262.948V1185.95H256.144V1188.27H260.316V1190.4C259.476 1191.41 258.58 1192.16 257.656 1192.61C256.732 1193.09 255.78 1193.31 254.772 1193.31C253.848 1193.31 253.008 1193.14 252.224 1192.75C251.44 1192.36 250.74 1191.86 250.18 1191.18C249.62 1190.54 249.172 1189.78 248.836 1188.89C248.5 1188.02 248.36 1187.07 248.36 1186.06C248.36 1185.11 248.5 1184.21 248.78 1183.32C249.06 1182.45 249.48 1181.69 250.04 1181.02C250.572 1180.35 251.216 1179.82 252 1179.42C252.756 1179.03 253.596 1178.81 254.548 1178.81C255.668 1178.81 256.732 1179.09 257.684 1179.62C258.636 1180.18 259.364 1180.99 259.924 1182.06L262.332 1180.32C261.66 1179.03 260.708 1177.97 259.42 1177.18C258.132 1176.4 256.536 1175.98 254.632 1175.98C253.26 1175.98 252 1176.26 250.852 1176.79C249.676 1177.32 248.696 1178.05 247.856 1178.95C247.016 1179.87 246.344 1180.94 245.868 1182.14C245.392 1183.37 245.168 1184.63 245.168 1185.98C245.168 1187.32 245.392 1188.61 245.868 1189.84C246.344 1191.07 247.016 1192.16 247.856 1193.09C248.696 1194.04 249.676 1194.77 250.824 1195.33C251.944 1195.89 253.176 1196.14 254.52 1196.14C256.704 1196.14 258.636 1195.27 260.316 1193.54ZM272.377 1176.12L264.481 1196H267.813L269.885 1190.6H277.557L279.657 1196H282.961L275.121 1176.12H272.377ZM276.941 1188.27H270.445L273.749 1179.73L276.941 1188.27ZM288.556 1182L299.812 1196H302.416V1176.15H299.252V1190.46L287.884 1176.12H285.42V1196H288.556V1182ZM306.885 1196H310.021V1176.12H306.885V1196ZM313.141 1193.59V1196H328.905V1193.23H317.089L328.877 1178.53V1176.12H313.421V1178.89H325.209L313.141 1193.59ZM345.759 1193.23H335.259V1187.15H344.135V1184.55H335.259V1178.89H345.507V1176.12H332.123V1196H345.759V1193.23ZM348.994 1196H356.05C357.506 1196 358.85 1195.78 360.054 1195.3C361.23 1194.82 362.266 1194.15 363.106 1193.28C363.946 1192.42 364.59 1191.38 365.038 1190.15C365.486 1188.92 365.738 1187.54 365.738 1186.03C365.738 1184.69 365.514 1183.4 365.122 1182.2C364.702 1180.99 364.086 1179.93 363.274 1179.03C362.462 1178.14 361.454 1177.44 360.25 1176.9C359.046 1176.4 357.646 1176.12 356.05 1176.12H348.994V1196ZM362.546 1186.03C362.546 1187.07 362.406 1188.02 362.126 1188.89C361.846 1189.78 361.426 1190.54 360.866 1191.18C360.306 1191.83 359.634 1192.33 358.822 1192.7C358.01 1193.06 357.086 1193.23 356.05 1193.23H352.13V1178.89H356.05C357.058 1178.89 357.982 1179.09 358.794 1179.42C359.578 1179.79 360.278 1180.29 360.838 1180.91C361.398 1181.52 361.818 1182.28 362.098 1183.15C362.378 1184.04 362.546 1185 362.546 1186.03ZM368.349 1198.72H369.805L370.785 1195.83V1192.42H368.013V1195.83H369.021L368.349 1198.72ZM381.642 1196H384.778V1187.43H393.234V1184.83H384.778V1178.89H394.886V1176.12H381.642V1196ZM401.522 1176.12L393.626 1196H396.958L399.03 1190.6H406.702L408.802 1196H412.106L404.266 1176.12H401.522ZM406.086 1188.27H399.59L402.894 1179.73L406.086 1188.27ZM426.023 1180.8L427.451 1178.22C426.583 1177.6 425.575 1177.07 424.455 1176.62C423.307 1176.2 422.075 1175.98 420.731 1175.98C419.695 1175.98 418.743 1176.12 417.875 1176.37C416.979 1176.65 416.223 1177.04 415.579 1177.55C414.935 1178.05 414.431 1178.7 414.067 1179.45C413.675 1180.21 413.507 1181.08 413.507 1182.03C413.507 1182.81 413.619 1183.48 413.871 1184.04C414.123 1184.6 414.487 1185.08 414.991 1185.47C415.467 1185.89 416.083 1186.26 416.811 1186.54C417.539 1186.82 418.407 1187.1 419.415 1187.35C420.255 1187.57 421.039 1187.8 421.711 1187.99C422.383 1188.22 422.943 1188.44 423.419 1188.69C423.867 1188.94 424.231 1189.22 424.483 1189.56C424.735 1189.9 424.875 1190.32 424.875 1190.82C424.875 1191.66 424.539 1192.3 423.867 1192.72C423.195 1193.17 422.243 1193.37 421.011 1193.37C420.227 1193.37 419.499 1193.28 418.799 1193.12C418.071 1192.95 417.427 1192.72 416.811 1192.47C416.195 1192.22 415.663 1191.94 415.215 1191.63C414.767 1191.35 414.403 1191.07 414.179 1190.82L412.751 1193.51C413.871 1194.4 415.159 1195.08 416.559 1195.52C417.959 1195.97 419.443 1196.2 420.955 1196.2C421.963 1196.2 422.887 1196.11 423.783 1195.89C424.651 1195.66 425.407 1195.33 426.079 1194.88C426.751 1194.43 427.255 1193.82 427.647 1193.09C428.039 1192.36 428.235 1191.49 428.235 1190.48C428.235 1189.59 428.067 1188.83 427.759 1188.22C427.451 1187.6 427.031 1187.07 426.471 1186.62C425.911 1186.2 425.211 1185.84 424.399 1185.53C423.587 1185.25 422.691 1184.97 421.683 1184.72C420.843 1184.52 420.143 1184.32 419.527 1184.16C418.911 1183.99 418.379 1183.76 417.987 1183.54C417.567 1183.32 417.259 1183.04 417.063 1182.73C416.867 1182.42 416.783 1182.03 416.783 1181.52C416.783 1180.68 417.091 1180.01 417.707 1179.51C418.323 1179.03 419.303 1178.78 420.647 1178.78C421.235 1178.78 421.823 1178.86 422.383 1178.98C422.943 1179.12 423.475 1179.28 423.951 1179.48C424.427 1179.7 424.847 1179.93 425.211 1180.15C425.547 1180.38 425.827 1180.6 426.023 1180.8ZM445.832 1178.89V1176.12H429.424V1178.89H436.06V1196H439.224V1178.89H445.832ZM446.278 1198.72H447.734L448.714 1195.83V1192.42H445.942V1195.83H446.95L446.278 1198.72ZM473.208 1193.23H462.708V1187.15H471.584V1184.55H462.708V1178.89H472.956V1176.12H459.572V1196H473.208V1193.23ZM476.443 1196H479.579V1187.43H488.035V1184.83H479.579V1178.89H489.687V1176.12H476.443V1196ZM492.658 1196H495.794V1187.43H504.25V1184.83H495.794V1178.89H505.902V1176.12H492.658V1196ZM508.873 1196H512.009V1176.12H508.873V1196ZM515.242 1185.92C515.242 1187.21 515.466 1188.44 515.942 1189.67C516.39 1190.9 517.062 1192 517.902 1192.95C518.742 1193.9 519.722 1194.68 520.898 1195.27C522.046 1195.89 523.334 1196.17 524.734 1196.17C525.518 1196.17 526.302 1196.08 527.114 1195.86C527.926 1195.66 528.71 1195.36 529.438 1194.96C530.166 1194.57 530.81 1194.1 531.398 1193.54C531.958 1192.98 532.406 1192.3 532.742 1191.55L530.138 1190.06C529.858 1190.65 529.522 1191.16 529.13 1191.55C528.738 1191.97 528.29 1192.3 527.814 1192.58C527.338 1192.86 526.834 1193.06 526.33 1193.17C525.826 1193.28 525.322 1193.34 524.846 1193.34C523.894 1193.34 523.054 1193.14 522.27 1192.75C521.486 1192.36 520.786 1191.8 520.226 1191.13C519.666 1190.46 519.218 1189.7 518.91 1188.8C518.574 1187.94 518.434 1187.01 518.434 1186.03C518.434 1185.19 518.546 1184.32 518.826 1183.46C519.106 1182.62 519.498 1181.83 520.03 1181.13C520.562 1180.46 521.234 1179.9 522.018 1179.48C522.802 1179.06 523.698 1178.84 524.762 1178.84C525.21 1178.84 525.714 1178.89 526.218 1179C526.722 1179.12 527.198 1179.28 527.674 1179.51C528.122 1179.76 528.57 1180.1 528.962 1180.49C529.354 1180.91 529.69 1181.41 529.97 1182L532.434 1180.35C531.762 1179.06 530.81 1178.02 529.522 1177.21C528.234 1176.43 526.666 1176.01 524.874 1176.01C523.362 1176.01 521.99 1176.32 520.814 1176.88C519.61 1177.46 518.602 1178.22 517.762 1179.17C516.922 1180.12 516.306 1181.19 515.886 1182.36C515.438 1183.54 515.242 1184.74 515.242 1185.92ZM535.642 1196H538.778V1176.12H535.642V1196ZM556.907 1193.23H546.407V1187.15H555.283V1184.55H546.407V1178.89H556.655V1176.12H543.271V1196H556.907V1193.23ZM563.278 1182L574.534 1196H577.138V1176.15H573.974V1190.46L562.606 1176.12H560.142V1196H563.278V1182ZM596.195 1178.89V1176.12H579.787V1178.89H586.423V1196H589.587V1178.89H596.195ZM596.306 1196H598.854V1192.42H596.306V1196ZM608.457 1185.92C608.457 1187.21 608.681 1188.44 609.157 1189.67C609.605 1190.9 610.277 1192 611.117 1192.95C611.957 1193.9 612.937 1194.68 614.113 1195.27C615.261 1195.89 616.549 1196.17 617.949 1196.17C618.733 1196.17 619.517 1196.08 620.329 1195.86C621.141 1195.66 621.925 1195.36 622.653 1194.96C623.381 1194.57 624.025 1194.1 624.613 1193.54C625.173 1192.98 625.621 1192.3 625.957 1191.55L623.353 1190.06C623.073 1190.65 622.737 1191.16 622.345 1191.55C621.953 1191.97 621.505 1192.3 621.029 1192.58C620.553 1192.86 620.049 1193.06 619.545 1193.17C619.041 1193.28 618.537 1193.34 618.061 1193.34C617.109 1193.34 616.269 1193.14 615.485 1192.75C614.701 1192.36 614.001 1191.8 613.441 1191.13C612.881 1190.46 612.433 1189.7 612.125 1188.8C611.789 1187.94 611.649 1187.01 611.649 1186.03C611.649 1185.19 611.761 1184.32 612.041 1183.46C612.321 1182.62 612.713 1181.83 613.245 1181.13C613.777 1180.46 614.449 1179.9 615.233 1179.48C616.017 1179.06 616.913 1178.84 617.977 1178.84C618.425 1178.84 618.929 1178.89 619.433 1179C619.937 1179.12 620.413 1179.28 620.889 1179.51C621.337 1179.76 621.785 1180.1 622.177 1180.49C622.569 1180.91 622.905 1181.41 623.185 1182L625.649 1180.35C624.977 1179.06 624.025 1178.02 622.737 1177.21C621.449 1176.43 619.881 1176.01 618.089 1176.01C616.577 1176.01 615.205 1176.32 614.029 1176.88C612.825 1177.46 611.817 1178.22 610.977 1179.17C610.137 1180.12 609.521 1181.19 609.101 1182.36C608.653 1183.54 608.457 1184.74 608.457 1185.92ZM640.617 1180.8L642.045 1178.22C641.177 1177.6 640.169 1177.07 639.049 1176.62C637.901 1176.2 636.669 1175.98 635.325 1175.98C634.289 1175.98 633.337 1176.12 632.469 1176.37C631.573 1176.65 630.817 1177.04 630.173 1177.55C629.529 1178.05 629.025 1178.7 628.661 1179.45C628.269 1180.21 628.101 1181.08 628.101 1182.03C628.101 1182.81 628.213 1183.48 628.465 1184.04C628.717 1184.6 629.081 1185.08 629.585 1185.47C630.061 1185.89 630.677 1186.26 631.405 1186.54C632.133 1186.82 633.001 1187.1 634.009 1187.35C634.849 1187.57 635.633 1187.8 636.305 1187.99C636.977 1188.22 637.537 1188.44 638.013 1188.69C638.461 1188.94 638.825 1189.22 639.077 1189.56C639.329 1189.9 639.469 1190.32 639.469 1190.82C639.469 1191.66 639.133 1192.3 638.461 1192.72C637.789 1193.17 636.837 1193.37 635.605 1193.37C634.821 1193.37 634.093 1193.28 633.393 1193.12C632.665 1192.95 632.021 1192.72 631.405 1192.47C630.789 1192.22 630.257 1191.94 629.809 1191.63C629.361 1191.35 628.997 1191.07 628.773 1190.82L627.345 1193.51C628.465 1194.4 629.753 1195.08 631.153 1195.52C632.553 1195.97 634.037 1196.2 635.549 1196.2C636.557 1196.2 637.481 1196.11 638.377 1195.89C639.245 1195.66 640.001 1195.33 640.673 1194.88C641.345 1194.43 641.849 1193.82 642.241 1193.09C642.633 1192.36 642.829 1191.49 642.829 1190.48C642.829 1189.59 642.661 1188.83 642.353 1188.22C642.045 1187.6 641.625 1187.07 641.065 1186.62C640.505 1186.2 639.805 1185.84 638.993 1185.53C638.181 1185.25 637.285 1184.97 636.277 1184.72C635.437 1184.52 634.737 1184.32 634.121 1184.16C633.505 1183.99 632.973 1183.76 632.581 1183.54C632.161 1183.32 631.853 1183.04 631.657 1182.73C631.461 1182.42 631.377 1182.03 631.377 1181.52C631.377 1180.68 631.685 1180.01 632.301 1179.51C632.917 1179.03 633.897 1178.78 635.241 1178.78C635.829 1178.78 636.417 1178.86 636.977 1178.98C637.537 1179.12 638.069 1179.28 638.545 1179.48C639.021 1179.7 639.441 1179.93 639.805 1180.15C640.141 1180.38 640.421 1180.6 640.617 1180.8ZM657.734 1180.8L659.162 1178.22C658.294 1177.6 657.286 1177.07 656.166 1176.62C655.018 1176.2 653.786 1175.98 652.442 1175.98C651.406 1175.98 650.454 1176.12 649.586 1176.37C648.69 1176.65 647.934 1177.04 647.29 1177.55C646.646 1178.05 646.142 1178.7 645.778 1179.45C645.386 1180.21 645.218 1181.08 645.218 1182.03C645.218 1182.81 645.33 1183.48 645.582 1184.04C645.834 1184.6 646.198 1185.08 646.702 1185.47C647.178 1185.89 647.794 1186.26 648.522 1186.54C649.25 1186.82 650.118 1187.1 651.126 1187.35C651.966 1187.57 652.75 1187.8 653.422 1187.99C654.094 1188.22 654.654 1188.44 655.13 1188.69C655.578 1188.94 655.942 1189.22 656.194 1189.56C656.446 1189.9 656.586 1190.32 656.586 1190.82C656.586 1191.66 656.25 1192.3 655.578 1192.72C654.906 1193.17 653.954 1193.37 652.722 1193.37C651.938 1193.37 651.21 1193.28 650.51 1193.12C649.782 1192.95 649.138 1192.72 648.522 1192.47C647.906 1192.22 647.374 1191.94 646.926 1191.63C646.478 1191.35 646.114 1191.07 645.89 1190.82L644.462 1193.51C645.582 1194.4 646.87 1195.08 648.27 1195.52C649.67 1195.97 651.154 1196.2 652.666 1196.2C653.674 1196.2 654.598 1196.11 655.494 1195.89C656.362 1195.66 657.118 1195.33 657.79 1194.88C658.462 1194.43 658.966 1193.82 659.358 1193.09C659.75 1192.36 659.946 1191.49 659.946 1190.48C659.946 1189.59 659.778 1188.83 659.47 1188.22C659.162 1187.6 658.742 1187.07 658.182 1186.62C657.622 1186.2 656.922 1185.84 656.11 1185.53C655.298 1185.25 654.402 1184.97 653.394 1184.72C652.554 1184.52 651.854 1184.32 651.238 1184.16C650.622 1183.99 650.09 1183.76 649.698 1183.54C649.278 1183.32 648.97 1183.04 648.774 1182.73C648.578 1182.42 648.494 1182.03 648.494 1181.52C648.494 1180.68 648.802 1180.01 649.418 1179.51C650.034 1179.03 651.014 1178.78 652.358 1178.78C652.946 1178.78 653.534 1178.86 654.094 1178.98C654.654 1179.12 655.186 1179.28 655.662 1179.48C656.138 1179.7 656.558 1179.93 656.922 1180.15C657.258 1180.38 657.538 1180.6 657.734 1180.8ZM670.01 1196H677.066C678.522 1196 679.866 1195.78 681.07 1195.3C682.246 1194.82 683.282 1194.15 684.122 1193.28C684.962 1192.42 685.606 1191.38 686.054 1190.15C686.502 1188.92 686.754 1187.54 686.754 1186.03C686.754 1184.69 686.53 1183.4 686.138 1182.2C685.718 1180.99 685.102 1179.93 684.29 1179.03C683.478 1178.14 682.47 1177.44 681.266 1176.9C680.062 1176.4 678.662 1176.12 677.066 1176.12H670.01V1196ZM683.562 1186.03C683.562 1187.07 683.422 1188.02 683.142 1188.89C682.862 1189.78 682.442 1190.54 681.882 1191.18C681.322 1191.83 680.65 1192.33 679.838 1192.7C679.026 1193.06 678.102 1193.23 677.066 1193.23H673.146V1178.89H677.066C678.074 1178.89 678.998 1179.09 679.81 1179.42C680.594 1179.79 681.294 1180.29 681.854 1180.91C682.414 1181.52 682.834 1182.28 683.114 1183.15C683.394 1184.04 683.562 1185 683.562 1186.03ZM698.313 1196.14C699.657 1196.14 700.917 1195.89 702.093 1195.33C703.269 1194.77 704.276 1194.04 705.145 1193.12C705.985 1192.19 706.657 1191.13 707.133 1189.9C707.609 1188.69 707.861 1187.43 707.861 1186.09C707.861 1184.86 707.609 1183.62 707.161 1182.42C706.713 1181.22 706.069 1180.12 705.229 1179.17C704.389 1178.22 703.409 1177.46 702.233 1176.88C701.057 1176.29 699.769 1175.98 698.369 1175.98C696.969 1175.98 695.709 1176.26 694.533 1176.82C693.357 1177.38 692.349 1178.11 691.508 1179.03C690.669 1179.98 689.997 1181.05 689.521 1182.25C689.017 1183.48 688.793 1184.74 688.793 1186.06C688.793 1187.35 689.017 1188.58 689.465 1189.78C689.913 1191.02 690.585 1192.08 691.425 1193.03C692.265 1193.98 693.245 1194.74 694.421 1195.3C695.597 1195.86 696.885 1196.14 698.313 1196.14ZM691.985 1186.06C691.985 1185.16 692.125 1184.3 692.405 1183.43C692.685 1182.56 693.105 1181.78 693.665 1181.1C694.197 1180.43 694.869 1179.9 695.653 1179.48C696.437 1179.06 697.333 1178.84 698.341 1178.84C699.293 1178.84 700.133 1179.06 700.917 1179.45C701.701 1179.84 702.345 1180.38 702.905 1181.05C703.465 1181.72 703.885 1182.48 704.193 1183.34C704.473 1184.21 704.641 1185.11 704.641 1186.06C704.641 1186.96 704.501 1187.85 704.221 1188.69C703.941 1189.56 703.521 1190.34 702.989 1191.02C702.429 1191.72 701.785 1192.28 701.001 1192.7C700.217 1193.12 699.349 1193.31 698.341 1193.31C697.361 1193.31 696.493 1193.12 695.709 1192.72C694.925 1192.33 694.253 1191.77 693.693 1191.1C693.133 1190.43 692.713 1189.67 692.433 1188.78C692.125 1187.91 691.985 1187.01 691.985 1186.06ZM714.243 1182L725.499 1196H728.103V1176.15H724.939V1190.46L713.571 1176.12H711.107V1196H714.243V1182ZM746.208 1193.23H735.708V1187.15H744.584V1184.55H735.708V1178.89H745.956V1176.12H732.572V1196H746.208V1193.23ZM756.361 1196H759.497V1189.08H764.089L768.401 1196H771.957L767.281 1188.44C767.841 1188.27 768.373 1187.99 768.877 1187.6C769.353 1187.21 769.773 1186.76 770.109 1186.23C770.445 1185.72 770.697 1185.14 770.893 1184.52C771.061 1183.9 771.173 1183.26 771.173 1182.59C771.173 1181.8 771.005 1181.02 770.697 1180.24C770.389 1179.45 769.969 1178.78 769.437 1178.16C768.877 1177.55 768.233 1177.07 767.477 1176.68C766.721 1176.32 765.909 1176.12 765.013 1176.12H756.361V1196ZM759.497 1186.31V1178.89H764.817C765.209 1178.89 765.601 1179 765.993 1179.2C766.385 1179.4 766.721 1179.65 767.001 1179.98C767.281 1180.32 767.533 1180.71 767.701 1181.16C767.869 1181.61 767.981 1182.08 767.981 1182.59C767.981 1183.09 767.897 1183.57 767.757 1184.02C767.589 1184.46 767.393 1184.88 767.141 1185.22C766.861 1185.56 766.553 1185.84 766.189 1186.03C765.825 1186.23 765.433 1186.31 764.985 1186.31H759.497ZM774.873 1196H778.009V1176.12H774.873V1196ZM796.418 1193.54V1196H799.05V1185.95H792.246V1188.27H796.418V1190.4C795.578 1191.41 794.682 1192.16 793.758 1192.61C792.834 1193.09 791.882 1193.31 790.874 1193.31C789.95 1193.31 789.11 1193.14 788.326 1192.75C787.542 1192.36 786.842 1191.86 786.282 1191.18C785.722 1190.54 785.274 1189.78 784.938 1188.89C784.602 1188.02 784.462 1187.07 784.462 1186.06C784.462 1185.11 784.602 1184.21 784.882 1183.32C785.162 1182.45 785.582 1181.69 786.142 1181.02C786.674 1180.35 787.318 1179.82 788.102 1179.42C788.858 1179.03 789.698 1178.81 790.65 1178.81C791.77 1178.81 792.834 1179.09 793.786 1179.62C794.738 1180.18 795.466 1180.99 796.026 1182.06L798.434 1180.32C797.762 1179.03 796.81 1177.97 795.522 1177.18C794.234 1176.4 792.638 1175.98 790.734 1175.98C789.362 1175.98 788.102 1176.26 786.954 1176.79C785.778 1177.32 784.798 1178.05 783.958 1178.95C783.118 1179.87 782.446 1180.94 781.97 1182.14C781.494 1183.37 781.27 1184.63 781.27 1185.98C781.27 1187.32 781.494 1188.61 781.97 1189.84C782.446 1191.07 783.118 1192.16 783.958 1193.09C784.798 1194.04 785.778 1194.77 786.926 1195.33C788.046 1195.89 789.278 1196.14 790.622 1196.14C792.806 1196.14 794.738 1195.27 796.418 1193.54ZM818.951 1176.12H815.787V1184.44H805.763V1176.12H802.627V1196H805.763V1187.24H815.787V1196H818.951V1176.12ZM838.023 1178.89V1176.12H821.615V1178.89H828.251V1196H831.415V1178.89H838.023ZM840.885 1188.92H843.965V1175.92H840.885V1188.92ZM840.885 1196H843.965V1192.16H840.885V1196Z" fill="white"/>
<path d="M578.128 697.558L623.745 745.489V1009.11L578.128 1057.04L532.512 1009.11V745.489L578.128 697.558Z" fill="black" fill-opacity="0.2"/>
<path d="M573.969 692.35L619.586 740.281V1003.9L573.969 1051.83L528.352 1003.9V740.281L573.969 692.35Z" fill="white"/>
<path fill-rule="evenodd" clip-rule="evenodd" d="M573.969 691.265L620.334 739.981V1004.2L573.969 1052.92L527.604 1004.2V739.981L573.969 691.265ZM529.1 740.581V1003.6L573.969 1050.75L618.838 1003.6V740.581L573.969 693.436L529.1 740.581Z" fill="black"/>
<path fill-rule="evenodd" clip-rule="evenodd" d="M573.221 696.086L573.221 693.848L574.717 693.848L574.717 696.086L573.221 696.086ZM573.221 705.035L573.221 700.56L574.717 700.56L574.717 705.035L573.221 705.035ZM573.221 713.985L573.221 709.51L574.717 709.51L574.717 713.985L573.221 713.985ZM573.221 722.934L573.221 718.459L574.717 718.459L574.717 722.934L573.221 722.934ZM573.221 731.884L573.221 727.409L574.717 727.409L574.717 731.884L573.221 731.884ZM573.221 740.833L573.221 736.359L574.717 736.359L574.717 740.833L573.221 740.833ZM573.221 749.783L573.221 745.308L574.717 745.308L574.717 749.783L573.221 749.783ZM573.221 758.733L573.221 754.258L574.717 754.258L574.717 758.733L573.221 758.733ZM573.221 767.682L573.221 763.207L574.717 763.207L574.717 767.682L573.221 767.682ZM573.221 776.632L573.221 772.157L574.717 772.157L574.717 776.632L573.221 776.632ZM573.221 785.581L573.221 781.106L574.717 781.106L574.717 785.581L573.221 785.581ZM573.221 794.531L573.221 790.056L574.717 790.056L574.717 794.531L573.221 794.531ZM573.221 803.48L573.221 799.006L574.717 799.006L574.717 803.48L573.221 803.48ZM573.221 812.43L573.221 807.955L574.717 807.955L574.717 812.43L573.221 812.43ZM573.221 821.38L573.221 816.905L574.717 816.905L574.717 821.38L573.221 821.38ZM573.221 830.329L573.221 825.854L574.717 825.854L574.717 830.329L573.221 830.329ZM573.221 839.279L573.221 834.804L574.717 834.804L574.717 839.279L573.221 839.279ZM573.221 848.228L573.221 843.754L574.717 843.754L574.717 848.228L573.221 848.228ZM573.221 857.178L573.221 852.703L574.717 852.703L574.717 857.178L573.221 857.178ZM573.221 866.127L573.221 861.653L574.717 861.653L574.717 866.127L573.221 866.127ZM573.221 875.077L573.221 870.602L574.717 870.602L574.717 875.077L573.221 875.077ZM573.221 884.027L573.221 879.552L574.717 879.552L574.717 884.027L573.221 884.027ZM573.221 892.976L573.221 888.501L574.717 888.501L574.717 892.976L573.221 892.976ZM573.221 901.926L573.221 897.451L574.717 897.451L574.717 901.926L573.221 901.926ZM573.221 910.875L573.221 906.401L574.717 906.401L574.717 910.875L573.221 910.875ZM573.221 919.825L573.221 915.35L574.717 915.35L574.717 919.825L573.221 919.825ZM573.221 928.774L573.221 924.3L574.717 924.3L574.717 928.774L573.221 928.774ZM573.221 937.724L573.221 933.249L574.717 933.249L574.717 937.724L573.221 937.724ZM573.221 946.674L573.221 942.199L574.717 942.199L574.717 946.674L573.221 946.674ZM573.221 955.623L573.221 951.148L574.717 951.148L574.717 955.623L573.221 955.623ZM573.221 964.573L573.221 960.098L574.717 960.098L574.717 964.573L573.221 964.573ZM573.221 973.522L573.221 969.048L574.717 969.048L574.717 973.522L573.221 973.522ZM573.221 982.472L573.221 977.997L574.717 977.997L574.717 982.472L573.221 982.472ZM573.221 991.422L573.221 986.947L574.717 986.947L574.717 991.422L573.221 991.422ZM573.221 1000.37L573.221 995.896L574.717 995.896L574.717 1000.37L573.221 1000.37ZM573.221 1009.32L573.221 1004.85L574.717 1004.85L574.717 1009.32L573.221 1009.32ZM573.221 1018.27L573.221 1013.8L574.717 1013.8L574.717 1018.27L573.221 1018.27ZM573.221 1027.22L573.221 1022.75L574.717 1022.75L574.717 1027.22L573.221 1027.22ZM573.221 1036.17L573.221 1031.69L574.717 1031.69L574.717 1036.17L573.221 1036.17ZM573.221 1045.12L573.221 1040.64L574.717 1040.64L574.717 1045.12L573.221 1045.12ZM573.221 1051.83L573.221 1049.59L574.717 1049.59L574.717 1051.83L573.221 1051.83Z" fill="black"/>
<path d="M573.969 745.524L529.1 744.026L575.465 695.346L618.838 744.775L576.96 745.524L575.465 697.593L573.969 745.524Z" fill="#EDEDEE"/>
<path d="M571.726 738.783L528.353 740.281L573.969 692.35L619.586 740.281L579.204 738.783L573.969 694.597L571.726 738.783Z" fill="white"/>
<path fill-rule="evenodd" clip-rule="evenodd" d="M573.969 691.265L620.127 739.764C620.337 739.985 620.393 740.311 620.268 740.589C620.143 740.866 619.862 741.041 619.558 741.029L578.537 739.508L574.267 703.471L572.438 739.508L528.378 741.03C528.074 741.04 527.795 740.865 527.67 740.588C527.546 740.31 527.601 739.985 527.811 739.764L573.969 691.265ZM530.158 739.469L571.014 738.058L573.222 694.559L574.712 694.509L579.871 738.059L617.776 739.465L573.969 693.436L530.158 739.469Z" fill="black"/>
<path d="M575.464 1000.9L618.837 1003.9L573.968 1052.58L529.1 1003.15L570.977 1000.9L573.968 1050.33L575.464 1000.9Z" fill="#EDEDEE"/>
<path d="M577.708 1006.15L619.585 1004.65L573.969 1052.58L528.352 1004.65L570.23 1006.15L573.969 1050.33L577.708 1006.15Z" fill="white"/>
<path fill-rule="evenodd" clip-rule="evenodd" d="M573.969 1053.67L527.811 1005.17C527.601 1004.95 527.545 1004.62 527.67 1004.34C527.795 1004.06 528.075 1003.89 528.379 1003.9L570.919 1005.42L573.969 1041.46L577.019 1005.42L619.559 1003.9C619.863 1003.89 620.143 1004.06 620.268 1004.34C620.392 1004.62 620.337 1004.95 620.127 1005.17L573.969 1053.67ZM617.778 1005.46L578.397 1006.87L574.714 1050.4L573.224 1050.4L569.541 1006.87L530.16 1005.46L573.969 1051.49L617.778 1005.46Z" fill="black"/>
<path fill-rule="evenodd" clip-rule="evenodd" d="M573.969 690.179L621.081 739.682L621.081 1004.5L573.969 1054L526.856 1004.5L526.856 739.682L573.969 690.179ZM529.848 740.881L529.848 1003.3L573.969 1049.66L618.09 1003.3L618.09 740.881L573.969 694.521L529.848 740.881Z" fill="black"/>
<path d="M567.728 1079.7L568.081 1079.66C568.435 1079.66 568.986 1079.79 569.736 1080.04C570.132 1080.25 570.33 1080.38 570.33 1080.44C570.695 1080.81 570.877 1081.09 570.877 1081.3L571.134 1082.25C571.027 1082.65 570.796 1083.24 570.443 1084C569.993 1084.38 569.329 1084.82 568.451 1085.34C567.733 1086 567.262 1086.34 567.037 1086.37L566.362 1086.98C565.398 1087.81 564.905 1088.25 564.884 1088.3C564.787 1088.5 564.702 1088.76 564.627 1089.09V1089.12C564.627 1089.2 564.889 1089.26 565.414 1089.29V1089.36L564.9 1089.39V1089.46C565.832 1089.62 566.458 1089.7 566.78 1089.7C566.758 1089.66 566.373 1089.56 565.623 1089.37V1089.33H565.639C565.842 1089.33 566.271 1089.41 566.924 1089.57L567.824 1089.63L568.595 1089.55H568.997C569.704 1089.59 570.089 1089.69 570.154 1089.84L570.636 1089.99L570.732 1090.05V1090.12L570.475 1090.18V1090.2L570.539 1090.28H570.571L570.796 1090.24V1090.28C570.775 1090.75 570.743 1090.98 570.7 1090.98L568.82 1090.92H568.435C568.167 1090.92 567.803 1090.95 567.342 1091C565.725 1090.81 564.6 1090.71 563.968 1090.71C563.775 1090.67 563.679 1090.57 563.679 1090.42C563.604 1090.23 563.566 1089.99 563.566 1089.7V1089.21C563.566 1088.28 563.674 1087.69 563.888 1087.44L564.289 1087.19C564.354 1087.07 564.386 1086.97 564.386 1086.9C565.071 1086.34 565.435 1086.06 565.478 1086.06C565.767 1085.95 566.164 1085.68 566.667 1085.24H566.748C566.608 1085.41 566.496 1085.5 566.41 1085.5V1085.56H566.507C566.646 1085.49 566.785 1085.37 566.924 1085.21V1085.18H566.86V1085.13L568.017 1084.4C568.606 1084 569.072 1083.62 569.415 1083.28C569.672 1082.99 569.838 1082.61 569.913 1082.13C569.913 1081.72 569.736 1081.4 569.382 1081.19C569.265 1081.14 568.783 1081.08 567.936 1081.01C567.936 1081 567.851 1080.99 567.679 1080.98C567.315 1080.98 566.972 1081.19 566.651 1081.62C566.565 1081.81 566.523 1081.96 566.523 1082.05V1082.17H566.555C566.555 1082.26 566.378 1082.33 566.025 1082.38L565.35 1082.47V1082.49L565.253 1082.47H565.125L564.723 1082.52L564.691 1082.46C564.841 1081.72 565.007 1081.25 565.189 1081.07C565.8 1080.51 566.228 1080.23 566.474 1080.2C566.657 1080.04 567.074 1079.88 567.728 1079.7ZM568.37 1079.82H568.21V1079.85L568.306 1079.98H568.451L568.515 1079.9V1079.88C568.504 1079.84 568.456 1079.82 568.37 1079.82ZM567.342 1080.06V1080.09H567.358C567.797 1080.09 568.017 1080.04 568.017 1079.95L567.936 1079.88H567.744C567.476 1079.95 567.342 1080.01 567.342 1080.06ZM569.35 1079.99H569.334V1080.03C569.334 1080.09 569.473 1080.16 569.752 1080.22V1080.2C569.752 1080.14 569.618 1080.07 569.35 1079.99ZM566.748 1080.3V1080.35H566.956L567.021 1080.28V1080.27L566.924 1080.25C566.806 1080.27 566.748 1080.29 566.748 1080.3ZM566.972 1080.91L566.924 1080.98V1081.01H567.021L567.069 1080.94V1080.91H566.972ZM569.768 1080.94L569.736 1080.98V1081.01C569.779 1081.08 569.838 1081.12 569.913 1081.12H569.929C569.961 1081.12 569.977 1081.1 569.977 1081.06C569.977 1081 569.918 1080.97 569.8 1080.94H569.768ZM570.009 1081.19V1081.22C570.202 1081.24 570.298 1081.32 570.298 1081.47L570.395 1081.59V1081.47C570.395 1081.24 570.32 1081.12 570.17 1081.12C570.073 1081.12 570.02 1081.14 570.009 1081.19ZM566.458 1081.51L566.49 1081.54H566.507C566.667 1081.45 566.748 1081.37 566.748 1081.28V1081.27H566.683C566.64 1081.27 566.565 1081.35 566.458 1081.51ZM566.008 1081.94H565.928V1082.01L565.992 1082.02H566.008V1081.94ZM570.7 1082.49L570.636 1082.57V1082.62H570.668L570.716 1082.57V1082.49H570.7ZM570.33 1083.13H570.25V1083.21C570.325 1083.21 570.362 1083.24 570.362 1083.31H570.411V1083.21L570.33 1083.13ZM570.041 1083.71L570.057 1083.74V1083.76C570.121 1083.73 570.186 1083.66 570.25 1083.57V1083.53H570.218C570.143 1083.58 570.084 1083.64 570.041 1083.71ZM569.607 1084.03H569.639L569.816 1084C569.816 1083.92 569.779 1083.87 569.704 1083.87C569.639 1083.88 569.607 1083.94 569.607 1084.03ZM569.575 1084.34V1084.37C569.779 1084.35 569.966 1084.24 570.138 1084.03L570.105 1084C569.859 1084.13 569.682 1084.24 569.575 1084.34ZM568.852 1084.64L568.804 1084.66V1084.72H568.836L568.884 1084.68L568.852 1084.66V1084.64ZM566.346 1086.58V1086.62H566.394C566.458 1086.62 566.603 1086.53 566.828 1086.33C566.881 1086.33 566.935 1086.27 566.989 1086.14L567.021 1086.12V1086.08H566.972C566.844 1086.08 566.635 1086.24 566.346 1086.58ZM565.334 1086.49V1086.54H565.35C565.489 1086.54 565.601 1086.44 565.687 1086.22H565.607C565.425 1086.37 565.334 1086.46 565.334 1086.49ZM564.804 1086.78H564.595L564.611 1086.95C564.461 1087.1 564.386 1087.19 564.386 1087.23H564.45C564.643 1087.13 564.777 1086.99 564.852 1086.83V1086.8L564.804 1086.78ZM566.008 1086.95L565.928 1086.99V1087.04H565.992L566.057 1086.98V1086.95H566.008ZM564.723 1087.86V1087.93H564.771C564.889 1087.84 564.948 1087.76 564.948 1087.67V1087.65H564.9C564.782 1087.72 564.723 1087.79 564.723 1087.86ZM564.289 1089.58L564.241 1089.63V1089.7L564.289 1089.76L564.322 1089.7V1089.63L564.289 1089.58ZM564.723 1089.63L564.659 1089.68L564.691 1089.7H564.9V1089.65L564.787 1089.63H564.723ZM569.093 1089.76L568.981 1089.78V1089.79L569.045 1089.86H569.254L569.302 1089.83V1089.78L569.093 1089.76ZM563.856 1090.08L563.791 1090.12V1090.13L563.84 1090.18H563.856L563.904 1090.13L563.856 1090.08ZM564.193 1090.42V1090.44L564.322 1090.45C564.482 1090.43 564.563 1090.41 564.563 1090.39L564.546 1090.36H564.322C564.236 1090.38 564.193 1090.4 564.193 1090.42ZM569.398 1090.6H569.575C569.725 1090.58 569.8 1090.55 569.8 1090.52L569.752 1090.45H569.656C569.602 1090.45 569.516 1090.5 569.398 1090.6ZM569.977 1090.69L570.041 1090.73H570.218C570.379 1090.73 570.459 1090.7 570.459 1090.65V1090.63C570.459 1090.6 570.437 1090.58 570.395 1090.58C570.138 1090.59 569.998 1090.63 569.977 1090.69Z" fill="white"/>
<path d="M573.174 1088.54C573.506 1088.58 573.736 1088.66 573.865 1088.78C573.908 1088.87 573.929 1088.96 573.929 1089.07V1089.29C573.929 1089.73 573.677 1090.16 573.174 1090.57L572.965 1090.63C572.762 1090.63 572.553 1090.32 572.339 1089.71V1089.65C572.339 1089.18 572.408 1088.89 572.547 1088.78C572.858 1088.62 573.067 1088.54 573.174 1088.54ZM572.66 1089.25C572.681 1089.53 572.719 1089.66 572.772 1089.66C572.794 1089.64 572.842 1089.46 572.917 1089.1L572.965 1088.99V1088.94H572.949C572.756 1089 572.66 1089.11 572.66 1089.25ZM573.094 1089.34V1089.37C573.094 1089.48 573.115 1089.54 573.158 1089.55H573.174C573.217 1089.55 573.281 1089.44 573.367 1089.21V1089.12L573.319 1089.1H573.27C573.153 1089.1 573.094 1089.18 573.094 1089.34ZM573.56 1089.55L573.576 1089.58H573.656L573.672 1089.47V1089.42H573.656C573.624 1089.42 573.592 1089.47 573.56 1089.55ZM573.335 1089.87L572.74 1089.94C572.74 1090.02 572.772 1090.07 572.837 1090.08H573.013C573.142 1090.08 573.249 1090.02 573.335 1089.91V1089.87Z" fill="white"/>
<path d="M804.866 1079.62L804.914 1079.59C805.503 1079.66 806.521 1079.74 807.967 1079.85C808.149 1079.94 808.941 1080.05 810.344 1080.19C810.891 1080.32 811.164 1080.46 811.164 1080.62C811.121 1080.77 810.944 1081.03 810.634 1081.41C810.634 1081.44 810.387 1081.77 809.894 1082.39C809.894 1082.49 809.605 1082.8 809.027 1083.33L808.85 1083.57V1083.61C809.011 1083.61 809.359 1083.56 809.894 1083.45C810.077 1083.45 810.532 1083.67 811.26 1084.11C811.453 1084.33 811.646 1084.75 811.839 1085.37V1085.55C811.839 1086.97 811.715 1087.86 811.469 1088.2C811.265 1088.79 810.709 1089.4 809.798 1090.03C809.241 1090.3 808.427 1090.55 807.356 1090.79C807.227 1090.83 807.013 1090.86 806.713 1090.86H806.601L806.504 1090.89C806.012 1090.89 805.599 1090.77 805.267 1090.55V1090.5C805.3 1090.48 805.407 1090.26 805.589 1089.84H805.621H805.958H806.135C807.045 1089.84 807.742 1089.6 808.224 1089.12L809.605 1088.23C810.13 1087.76 810.419 1087.42 810.473 1087.22C810.687 1086.88 810.794 1086.31 810.794 1085.53C810.784 1085.42 810.767 1085.37 810.746 1085.37L810.794 1085.24C810.794 1085.03 810.687 1084.85 810.473 1084.72C810.387 1084.51 810.221 1084.4 809.975 1084.4H809.573C809.359 1084.4 809.252 1084.43 809.252 1084.48V1084.52C809.691 1084.52 810.034 1084.62 810.28 1084.84V1084.87L810.232 1084.9C810.135 1084.9 810.002 1084.83 809.83 1084.68L809.686 1084.66C808.882 1084.66 807.902 1084.93 806.745 1085.48L806.585 1085.58L806.504 1085.55V1085.42C806.504 1085.34 806.451 1085.25 806.344 1085.14V1085.13C806.344 1085.09 806.467 1084.81 806.713 1084.26C806.756 1084.08 806.853 1083.89 807.003 1083.71L807.661 1082.71C807.908 1082.18 808.143 1081.85 808.368 1081.73C808.465 1081.62 808.513 1081.52 808.513 1081.43V1081.38C808.395 1081.29 808.293 1081.25 808.208 1081.25L805.203 1081.19C805.107 1081.19 805.048 1081.09 805.026 1080.91V1080.85L805.042 1080.78V1080.72C805.01 1080.63 804.951 1080.27 804.866 1079.62ZM805.524 1079.8L805.46 1079.87V1080.03H805.492H805.701H805.733L806.135 1080.06L806.199 1079.99C806.006 1079.87 805.782 1079.8 805.524 1079.8ZM805.075 1080.06C805.096 1080.11 805.139 1080.14 805.203 1080.14L805.235 1080.09V1080.06L805.187 1079.99H805.123C805.091 1079.99 805.075 1080.02 805.075 1080.06ZM807.099 1080.11H807.051V1080.14H807.067L807.099 1080.11ZM810.152 1080.32H809.798C809.798 1080.38 809.9 1080.42 810.103 1080.43H810.135L810.2 1080.38V1080.36L810.152 1080.32ZM806.456 1080.41C807.024 1080.48 807.651 1080.51 808.336 1080.51H808.529C808.529 1080.43 808.138 1080.38 807.356 1080.35H806.922C806.612 1080.35 806.456 1080.37 806.456 1080.41ZM805.621 1080.41L805.557 1080.43C805.557 1080.53 805.824 1080.59 806.36 1080.62L806.392 1080.61V1080.57C806.253 1080.47 806.023 1080.41 805.701 1080.41H805.621ZM810.682 1080.61V1080.62C810.692 1080.66 810.735 1080.69 810.81 1080.69H810.875C810.917 1080.69 810.955 1080.66 810.987 1080.62C810.987 1080.56 810.923 1080.53 810.794 1080.53C810.751 1080.55 810.714 1080.57 810.682 1080.61ZM806.665 1080.56L806.649 1080.57V1080.59C806.649 1080.64 806.837 1080.67 807.211 1080.67H807.79C807.79 1080.61 807.415 1080.57 806.665 1080.56ZM808.641 1080.69H808.224V1080.72L809.027 1080.85L809.83 1080.78V1080.75C809.627 1080.71 809.23 1080.69 808.641 1080.69ZM805.3 1080.82V1080.85C805.3 1080.93 805.519 1080.98 805.958 1080.98H806.617V1080.93C806.617 1080.88 806.387 1080.86 805.926 1080.85C805.926 1080.79 805.792 1080.76 805.524 1080.75H805.46C805.364 1080.75 805.31 1080.77 805.3 1080.82ZM807.227 1080.93H806.89C806.89 1080.98 807.029 1081.01 807.308 1081.01H807.356C807.356 1080.95 807.313 1080.93 807.227 1080.93ZM810.344 1081.14L810.2 1081.25C810.232 1081.4 810.285 1081.47 810.36 1081.47C810.435 1081.39 810.473 1081.31 810.473 1081.25V1081.17L810.441 1081.14H810.344ZM808.85 1081.36L808.818 1081.41V1081.44H808.914L808.947 1081.41V1081.36H808.85ZM808.947 1081.72V1081.76H808.979C809.107 1081.76 809.209 1081.67 809.284 1081.47L809.252 1081.46H809.236C809.043 1081.51 808.947 1081.6 808.947 1081.72ZM810.152 1081.68H810.071V1081.73H810.119L810.152 1081.72V1081.68ZM809.991 1081.83H809.959V1081.88H809.991V1081.83ZM809.027 1082.84L809.011 1082.89L809.043 1082.94C809.268 1082.89 809.493 1082.7 809.718 1082.39L809.798 1082.18L809.782 1082.17H809.686C809.557 1082.17 809.338 1082.39 809.027 1082.84ZM808.175 1082.87H808.208C808.368 1082.78 808.449 1082.67 808.449 1082.55V1082.54H808.416C808.256 1082.58 808.175 1082.69 808.175 1082.87ZM808.513 1082.81V1082.87H808.561C808.636 1082.81 808.673 1082.75 808.673 1082.7L808.657 1082.68C808.615 1082.7 808.566 1082.75 808.513 1082.81ZM808.931 1083.05L808.882 1083.1V1083.18H808.931L808.963 1083.15V1083.05H808.931ZM807.227 1083.61V1083.65L807.26 1083.68H807.404L807.709 1083.44L807.726 1083.34V1083.31L807.693 1083.28H807.661C807.49 1083.32 807.345 1083.43 807.227 1083.61ZM808.673 1084.15V1084.16H808.69L809.348 1083.95C809.873 1084.01 810.189 1084.05 810.296 1084.08C810.35 1084.08 810.382 1084.06 810.393 1084.02H810.409C810.676 1084.22 810.885 1084.32 811.035 1084.32H811.099L811.116 1084.27V1084.26C811.116 1084.14 810.746 1083.99 810.007 1083.81C809.975 1083.81 809.943 1083.76 809.911 1083.68L809.83 1083.61H809.782C809.525 1083.61 809.257 1083.74 808.979 1084C808.786 1084.05 808.684 1084.1 808.673 1084.15ZM808.384 1083.68H808.368V1083.74L808.384 1083.76H808.449V1083.74L808.384 1083.68ZM807.003 1084.16V1084.21H807.019C807.158 1084.13 807.26 1084.01 807.324 1083.84H807.292C807.195 1083.89 807.099 1084 807.003 1084.16ZM807.517 1084.21V1084.31H807.581C807.709 1084.31 807.806 1084.2 807.87 1084L807.822 1083.95C807.715 1084 807.613 1084.08 807.517 1084.21ZM807.645 1084.72V1084.74H807.693C808.411 1084.57 808.77 1084.45 808.77 1084.37V1084.35H808.722C808.379 1084.39 808.02 1084.51 807.645 1084.72ZM806.89 1084.77V1084.82L806.906 1084.84V1084.87C807.26 1084.81 807.527 1084.7 807.709 1084.56V1084.55L807.661 1084.48C807.297 1084.56 807.04 1084.66 806.89 1084.77ZM811.051 1084.48H810.875V1084.52C810.928 1084.67 811.003 1084.74 811.099 1084.74H811.212C811.319 1084.74 811.383 1084.71 811.405 1084.66C811.308 1084.54 811.191 1084.48 811.051 1084.48ZM811.276 1084.92L811.26 1084.97V1084.98C811.26 1085.07 811.346 1085.23 811.517 1085.47L811.501 1085.77V1086.14C811.501 1086.26 811.523 1086.32 811.565 1086.33H811.598L811.63 1085.98V1085.42C811.63 1085.23 811.533 1085.07 811.34 1084.92H811.276ZM806.617 1085.11V1085.13L806.649 1085.18H806.794C806.89 1085.18 806.944 1085.15 806.954 1085.11V1085.06C806.933 1085.01 806.89 1084.98 806.826 1084.98H806.794C806.729 1084.98 806.671 1085.03 806.617 1085.11ZM810.585 1085.11V1085.06L810.682 1085.18H810.65L810.585 1085.11ZM810.971 1085.5H810.939V1085.53L810.971 1085.58H811.003V1085.53L810.971 1085.5ZM810.875 1086.38V1086.45L810.907 1086.49C811.035 1086.28 811.099 1086.09 811.099 1085.93V1085.74H811.051C810.933 1085.88 810.875 1086.09 810.875 1086.38ZM811.598 1086.49L811.437 1086.8C811.448 1086.84 811.474 1086.88 811.517 1086.9H811.549C811.624 1086.86 811.662 1086.8 811.662 1086.69C811.651 1086.56 811.63 1086.49 811.598 1086.49ZM810.971 1087.27V1087.3H811.035L811.116 1087.2V1087.11H811.067C811.003 1087.15 810.971 1087.2 810.971 1087.27ZM810.826 1087.8L810.875 1087.81L811.196 1087.61V1087.57L811.148 1087.54H811.116C811.03 1087.54 810.933 1087.63 810.826 1087.8ZM810.135 1088.3H810.2C810.307 1088.3 810.419 1088.23 810.537 1088.1V1088.07L810.473 1087.89L810.537 1087.73C810.441 1087.73 810.344 1087.86 810.248 1088.1C810.173 1088.18 810.135 1088.24 810.135 1088.3ZM811.26 1087.85L811.212 1087.89V1087.91H811.276V1087.85H811.26ZM810.682 1088.36V1088.39L810.794 1088.41H810.907C811.067 1088.4 811.148 1088.33 811.148 1088.22C811.126 1088.16 811.089 1088.14 811.035 1088.14C810.928 1088.14 810.81 1088.21 810.682 1088.36ZM808.175 1089.42H808.224C809.188 1089.02 809.67 1088.72 809.67 1088.54H809.573C809.348 1088.62 808.963 1088.85 808.416 1089.23C808.256 1089.34 808.175 1089.4 808.175 1089.42ZM810.714 1088.76V1088.78H810.794C810.826 1088.78 810.864 1088.73 810.907 1088.63L810.875 1088.6C810.767 1088.63 810.714 1088.69 810.714 1088.76ZM810.537 1088.63L810.473 1088.7V1088.72H810.553L810.601 1088.68L810.553 1088.63H810.537ZM810.119 1089.28H810.135C810.243 1089.28 810.366 1089.22 810.505 1089.12C810.505 1089.09 810.484 1089.07 810.441 1089.07C810.227 1089.12 810.119 1089.19 810.119 1089.28ZM808.882 1089.55V1089.58H808.914C809.139 1089.52 809.252 1089.46 809.252 1089.41V1089.39H809.236C809.107 1089.39 808.989 1089.44 808.882 1089.55ZM809.894 1089.54L809.83 1089.58V1089.63H809.943L809.991 1089.57V1089.54H809.894ZM806.103 1090.03L806.151 1090.08H806.424L806.488 1090.03C806.488 1090 806.43 1089.99 806.312 1089.99C806.172 1089.99 806.103 1090 806.103 1090.03ZM807.581 1089.99L807.549 1090.03V1090.08C807.634 1090.08 807.688 1090.06 807.709 1090V1089.99H807.581ZM808.882 1090.2L808.914 1090.23H808.931C809.134 1090.16 809.263 1090.1 809.316 1090.05L809.284 1089.99H809.188C808.984 1090.03 808.882 1090.1 808.882 1090.2ZM805.765 1090.12L805.701 1090.16V1090.2H805.862L805.91 1090.16L805.862 1090.12H805.765ZM807.067 1090.45L806.504 1090.5L806.151 1090.42H806.023C805.798 1090.44 805.685 1090.49 805.685 1090.55V1090.57C805.685 1090.62 806.028 1090.67 806.713 1090.71C807.003 1090.71 807.436 1090.59 808.015 1090.36L808.047 1090.34V1090.28H808.015C807.886 1090.28 807.57 1090.33 807.067 1090.45Z" fill="white"/>
<path d="M813.831 1088.54C814.163 1088.58 814.393 1088.66 814.522 1088.78C814.564 1088.87 814.586 1088.96 814.586 1089.07V1089.29C814.586 1089.73 814.334 1090.16 813.831 1090.57L813.622 1090.63C813.418 1090.63 813.21 1090.32 812.995 1089.71V1089.65C812.995 1089.18 813.065 1088.89 813.204 1088.78C813.515 1088.62 813.724 1088.54 813.831 1088.54ZM813.317 1089.25C813.338 1089.53 813.376 1089.66 813.429 1089.66C813.451 1089.64 813.499 1089.46 813.574 1089.1L813.622 1088.99V1088.94H813.606C813.413 1089 813.317 1089.11 813.317 1089.25ZM813.75 1089.34V1089.37C813.75 1089.48 813.772 1089.54 813.815 1089.55H813.831C813.874 1089.55 813.938 1089.44 814.024 1089.21V1089.12L813.975 1089.1H813.927C813.809 1089.1 813.75 1089.18 813.75 1089.34ZM814.216 1089.55L814.232 1089.58H814.313L814.329 1089.47V1089.42H814.313C814.281 1089.42 814.248 1089.47 814.216 1089.55ZM813.991 1089.87L813.397 1089.94C813.397 1090.02 813.429 1090.07 813.493 1090.08H813.67C813.799 1090.08 813.906 1090.02 813.991 1089.91V1089.87Z" fill="white"/>
<path d="M622.139 701.929C621.142 699.788 620.174 697.707 619.201 695.617L619.919 695.026C620.727 695.161 621.64 694.99 622.448 695.125C623.638 695.201 625.507 693.696 627.016 694.271C630.706 695.678 633.013 699.154 633.992 701.258L631.382 706.319C630.909 705.399 629.521 704.168 628.682 703.576C627.844 702.985 626.879 702.611 625.875 702.489L622.84 702.37L622.139 701.929Z" fill="#99C6E8"/>
<path d="M624.943 723.418L622.593 718.369C622.495 718.159 621.899 717.412 622.005 717.107C622.111 716.801 623.343 715.713 623.751 715.523L626.222 712.831C628.057 711.022 628.696 708.06 629.876 705.745C630.718 704.494 632.157 703.916 632.356 702.401C632.555 700.886 632.521 698.514 632.037 697.052L634.975 703.363C636.721 708.182 633.287 714.141 630.604 717.444C628.97 719.671 627.069 721.678 624.943 723.418Z" fill="#B4DAF6"/>
<path d="M612.314 722.405L627.845 719.503L630.782 725.814L615.047 728.811L612.314 722.405Z" fill="#99C6E8"/>
<path d="M612.307 722.403L613.563 713.364L619.697 715.877C620.774 714.939 621.803 713.945 622.78 712.9C624.603 711.165 626.078 709.085 627.128 706.771C628.49 703.829 628.938 701.058 627.959 698.955C626.98 696.851 624.565 695.93 620.315 695.867C618.734 695.843 619.108 695.407 619.32 694.795C619.671 694.377 620.107 694.041 620.6 693.811C621.092 693.581 621.629 693.462 622.175 693.461C627.338 693.354 630.862 694.525 632.135 697.26C632.543 698.731 632.545 700.572 632.347 702.074C632.149 703.576 631.65 705.014 630.88 706.298C629.618 708.882 627.939 711.224 625.913 713.229C624.779 714.527 623.548 715.615 622.006 717.103L627.635 719.596L612.307 722.403Z" fill="#E6FFFF"/>
<path d="M523.587 704.964C524.575 702.843 525.534 700.782 526.497 698.712L525.762 698.115C524.945 698.24 524.016 698.06 523.198 698.185C521.992 698.248 520.079 696.728 518.555 697.285C514.827 698.645 512.526 702.08 511.556 704.164L514.259 709.233C514.729 708.322 516.124 707.111 516.968 706.532C517.812 705.952 518.786 705.591 519.803 705.48L522.88 705.395L523.587 704.964Z" fill="#99C6E8"/>
<path d="M520.98 726.331L523.308 721.329C523.405 721.121 524.001 720.385 523.89 720.079C523.779 719.774 522.517 718.677 522.102 718.482L519.565 715.775C517.684 713.953 517.003 710.996 515.78 708.678C514.913 707.423 513.447 706.832 513.228 705.321C513.009 703.81 513.018 701.449 513.492 699.998L510.583 706.25C508.864 711.029 512.413 717.001 515.172 720.319C516.853 722.555 518.804 724.575 520.98 726.331Z" fill="#B4DAF6"/>
<path d="M533.778 725.463L517.993 722.401L515.083 728.653L531.077 731.812L533.778 725.463Z" fill="#99C6E8"/>
<path d="M533.785 725.46L532.412 716.446L526.217 718.88C525.114 717.934 524.06 716.933 523.057 715.881C521.189 714.133 519.67 712.046 518.58 709.73C517.166 706.786 516.68 704.022 517.65 701.938C518.62 699.854 521.059 698.964 525.369 698.948C526.973 698.942 526.589 698.503 526.367 697.892C526.006 697.471 525.56 697.132 525.058 696.897C524.556 696.663 524.01 696.538 523.457 696.532C518.218 696.367 514.656 697.494 513.395 700.203C512.998 701.664 513.016 703.497 513.234 704.995C513.451 706.493 513.973 707.931 514.768 709.218C516.077 711.804 517.806 714.155 519.883 716.174C521.047 717.479 522.309 718.576 523.889 720.076L518.207 722.495L533.785 725.46Z" fill="#E6FFFF"/>
<path d="M530.323 1046.26C531.349 1048.46 532.344 1050.6 533.345 1052.75L532.607 1053.36C531.776 1053.22 530.836 1053.4 530.005 1053.26C528.781 1053.18 526.858 1054.73 525.306 1054.14C521.51 1052.69 519.138 1049.11 518.13 1046.95L520.815 1041.74C521.302 1042.69 522.73 1043.96 523.593 1044.57C524.455 1045.17 525.447 1045.56 526.48 1045.68L529.602 1045.81L530.323 1046.26Z" fill="#99C6E8"/>
<path d="M527.438 1024.16L529.856 1029.35C529.956 1029.57 530.569 1030.33 530.46 1030.65C530.351 1030.96 529.084 1032.08 528.664 1032.28L526.122 1035.05C524.235 1036.91 523.578 1039.95 522.364 1042.33C521.498 1043.62 520.018 1044.22 519.813 1045.77C519.608 1047.33 519.643 1049.77 520.141 1051.28L517.119 1044.78C515.323 1039.83 518.855 1033.7 521.615 1030.3C523.296 1028.01 525.252 1025.95 527.438 1024.16Z" fill="#B4DAF6"/>
<path d="M540.429 1025.2L524.454 1028.18L521.433 1021.69L537.617 1018.61L540.429 1025.2Z" fill="#99C6E8"/>
<path d="M540.436 1025.2L539.144 1034.5L532.834 1031.91C531.726 1032.88 530.668 1033.9 529.663 1034.97C527.788 1036.76 526.271 1038.9 525.191 1041.28C523.79 1044.3 523.329 1047.15 524.336 1049.32C525.343 1051.48 527.827 1052.43 532.199 1052.5C533.825 1052.52 533.441 1052.97 533.222 1053.6C532.861 1054.03 532.412 1054.37 531.906 1054.61C531.4 1054.85 530.847 1054.97 530.286 1054.97C524.974 1055.08 521.35 1053.88 520.04 1051.06C519.621 1049.55 519.619 1047.66 519.822 1046.11C520.026 1044.56 520.539 1043.09 521.331 1041.77C522.63 1039.11 524.356 1036.7 526.441 1034.64C527.607 1033.3 528.874 1032.18 530.459 1030.65L524.67 1028.09L540.436 1025.2Z" fill="#E6FFFF"/>
<path d="M616.748 1046.23C615.732 1048.41 614.746 1050.53 613.754 1052.66L614.51 1053.27C615.351 1053.14 616.306 1053.33 617.148 1053.2C618.388 1053.13 620.356 1054.7 621.924 1054.13C625.758 1052.73 628.125 1049.19 629.123 1047.05L626.342 1041.83C625.859 1042.77 624.424 1044.02 623.556 1044.61C622.688 1045.21 621.686 1045.58 620.64 1045.7L617.475 1045.78L616.748 1046.23Z" fill="#99C6E8"/>
<path d="M619.429 1024.25L617.035 1029.39C616.935 1029.61 616.322 1030.36 616.436 1030.68C616.55 1030.99 617.847 1032.12 618.275 1032.32L620.884 1035.11C622.82 1036.98 623.52 1040.02 624.777 1042.41C625.669 1043.7 627.177 1044.31 627.403 1045.86C627.628 1047.41 627.619 1049.84 627.131 1051.33L630.124 1044.9C631.891 1039.99 628.241 1033.85 625.403 1030.43C623.674 1028.13 621.667 1026.05 619.429 1024.25Z" fill="#B4DAF6"/>
<path d="M606.264 1025.14L622.501 1028.29L625.494 1021.86L609.043 1018.61L606.264 1025.14Z" fill="#99C6E8"/>
<path d="M606.257 1025.14L607.67 1034.42L614.042 1031.91C615.176 1032.89 616.261 1033.91 617.292 1035C619.213 1036.79 620.776 1038.94 621.898 1041.32C623.352 1044.35 623.852 1047.2 622.854 1049.34C621.856 1051.48 619.347 1052.4 614.914 1052.41C613.264 1052.42 613.659 1052.87 613.887 1053.5C614.259 1053.93 614.718 1054.28 615.234 1054.52C615.75 1054.77 616.312 1054.89 616.881 1054.9C622.27 1055.07 625.934 1053.91 627.231 1051.12C627.639 1049.62 627.62 1047.74 627.397 1046.19C627.174 1044.65 626.636 1043.17 625.818 1041.85C624.472 1039.19 622.694 1036.77 620.557 1034.7C619.359 1033.35 618.062 1032.22 616.437 1030.68L622.281 1028.19L606.257 1025.14Z" fill="#E6FFFF"/>
<path d="M200.949 703.54L246.94 709.532L292.93 703.54L338.921 709.532L384.912 703.54V1064.52H334.873L288.076 1065.48L242.319 1063.07L200.949 1064.52V703.54Z" fill="black" fill-opacity="0.2"/>
<path d="M194.188 692.083L239.889 698.097L285.589 692.083L331.289 698.097L376.99 692.083V1054.43L331.916 1056.63L285.415 1051.92L238.397 1056.63L193.962 1051.92L194.188 692.083Z" fill="white"/>
<path fill-rule="evenodd" clip-rule="evenodd" d="M192.922 691.042L239.572 697.14L285.476 691.139L331.379 697.14L378.03 691.042V1054.14L331.379 1058.71L285.476 1054.21L239.572 1058.71L192.922 1054.14V691.042ZM194.415 692.75V1052.78L239.572 1057.2L285.476 1052.7L331.379 1057.2L376.537 1052.78V692.75L331.379 698.653L285.476 692.652L239.572 698.653L194.415 692.75Z" fill="black"/>
<path d="M239.199 1056.63L239.287 698.927L194.418 692.936L194.33 1052.14L239.199 1056.63Z" fill="#F6F6F6"/>
<path d="M331.233 1056.63L331.268 698.927L286.399 692.936L286.364 1052.14L331.233 1056.63Z" fill="#F6F6F6"/>
<path fill-rule="evenodd" clip-rule="evenodd" d="M284.903 1052.42L284.903 694.434L286.399 694.434L286.399 1052.42L284.903 1052.42Z" fill="black"/>
<path fill-rule="evenodd" clip-rule="evenodd" d="M238.539 702.662L238.539 700.425L240.034 700.425L240.034 702.662L238.539 702.662ZM238.539 711.612L238.539 707.137L240.034 707.137L240.034 711.612L238.539 711.612ZM238.539 720.561L238.539 716.087L240.034 716.087L240.034 720.561L238.539 720.561ZM238.539 729.511L238.539 725.036L240.034 725.036L240.034 729.511L238.539 729.511ZM238.539 738.461L238.539 733.986L240.034 733.986L240.034 738.461L238.539 738.461ZM238.539 747.41L238.539 742.935L240.034 742.935L240.034 747.41L238.539 747.41ZM238.539 756.36L238.539 751.885L240.034 751.885L240.034 756.36L238.539 756.36ZM238.539 765.309L238.539 760.835L240.034 760.835L240.034 765.309L238.539 765.309ZM238.539 774.259L238.539 769.784L240.034 769.784L240.034 774.259L238.539 774.259ZM238.539 783.208L238.539 778.734L240.034 778.734L240.034 783.208L238.539 783.208ZM238.539 792.158L238.539 787.683L240.034 787.683L240.034 792.158L238.539 792.158ZM238.539 801.108L238.539 796.633L240.034 796.633L240.034 801.108L238.539 801.108ZM238.539 810.057L238.539 805.582L240.034 805.582L240.034 810.057L238.539 810.057ZM238.539 819.007L238.539 814.532L240.034 814.532L240.034 819.007L238.539 819.007ZM238.539 827.956L238.539 823.482L240.034 823.482L240.034 827.956L238.539 827.956ZM238.539 836.906L238.539 832.431L240.034 832.431L240.034 836.906L238.539 836.906ZM238.539 845.855L238.539 841.381L240.034 841.381L240.034 845.855L238.539 845.855ZM238.539 854.805L238.539 850.33L240.034 850.33L240.034 854.805L238.539 854.805ZM238.539 863.755L238.539 859.28L240.034 859.28L240.034 863.755L238.539 863.755ZM238.539 872.704L238.539 868.229L240.034 868.229L240.034 872.704L238.539 872.704ZM238.539 881.654L238.539 877.179L240.034 877.179L240.034 881.654L238.539 881.654ZM238.539 890.603L238.539 886.129L240.034 886.129L240.034 890.603L238.539 890.603ZM238.539 899.553L238.539 895.078L240.034 895.078L240.034 899.553L238.539 899.553ZM238.539 908.503L238.539 904.028L240.034 904.028L240.034 908.503L238.539 908.503ZM238.539 917.452L238.539 912.977L240.034 912.977L240.034 917.452L238.539 917.452ZM238.539 926.402L238.539 921.927L240.034 921.927L240.034 926.402L238.539 926.402ZM238.539 935.351L238.539 930.876L240.034 930.876L240.034 935.351L238.539 935.351ZM238.539 944.301L238.539 939.826L240.034 939.826L240.034 944.301L238.539 944.301ZM238.539 953.25L238.539 948.776L240.034 948.776L240.034 953.25L238.539 953.25ZM238.539 962.2L238.539 957.725L240.034 957.725L240.034 962.2L238.539 962.2ZM238.539 971.15L238.539 966.675L240.034 966.675L240.034 971.15L238.539 971.15ZM238.539 980.099L238.539 975.624L240.034 975.624L240.034 980.099L238.539 980.099ZM238.539 989.049L238.539 984.574L240.034 984.574L240.034 989.049L238.539 989.049ZM238.539 997.998L238.539 993.524L240.034 993.524L240.034 997.998L238.539 997.998ZM238.539 1006.95L238.539 1002.47L240.034 1002.47L240.034 1006.95L238.539 1006.95ZM238.539 1015.9L238.539 1011.42L240.034 1011.42L240.034 1015.9L238.539 1015.9ZM238.539 1024.85L238.539 1020.37L240.034 1020.37L240.034 1024.85L238.539 1024.85ZM238.539 1033.8L238.539 1029.32L240.034 1029.32L240.034 1033.8L238.539 1033.8ZM238.539 1042.75L238.539 1038.27L240.034 1038.27L240.034 1042.75L238.539 1042.75ZM238.539 1051.7L238.539 1047.22L240.034 1047.22L240.034 1051.7L238.539 1051.7ZM238.539 1058.41L238.539 1056.17L240.034 1056.17L240.034 1058.41L238.539 1058.41Z" fill="black"/>
<path fill-rule="evenodd" clip-rule="evenodd" d="M331.268 702.662L331.268 700.425L332.763 700.425L332.763 702.662L331.268 702.662ZM331.268 711.612L331.268 707.137L332.763 707.137L332.763 711.612L331.268 711.612ZM331.268 720.561L331.268 716.087L332.763 716.087L332.763 720.561L331.268 720.561ZM331.268 729.511L331.268 725.036L332.763 725.036L332.763 729.511L331.268 729.511ZM331.268 738.461L331.268 733.986L332.763 733.986L332.763 738.461L331.268 738.461ZM331.268 747.41L331.268 742.935L332.763 742.935L332.763 747.41L331.268 747.41ZM331.268 756.36L331.268 751.885L332.763 751.885L332.763 756.36L331.268 756.36ZM331.268 765.309L331.268 760.835L332.763 760.835L332.763 765.309L331.268 765.309ZM331.268 774.259L331.268 769.784L332.763 769.784L332.763 774.259L331.268 774.259ZM331.268 783.208L331.268 778.734L332.763 778.734L332.763 783.208L331.268 783.208ZM331.268 792.158L331.268 787.683L332.763 787.683L332.763 792.158L331.268 792.158ZM331.268 801.108L331.268 796.633L332.763 796.633L332.763 801.108L331.268 801.108ZM331.268 810.057L331.268 805.582L332.763 805.582L332.763 810.057L331.268 810.057ZM331.268 819.007L331.268 814.532L332.763 814.532L332.763 819.007L331.268 819.007ZM331.268 827.956L331.268 823.482L332.763 823.482L332.763 827.956L331.268 827.956ZM331.268 836.906L331.268 832.431L332.763 832.431L332.763 836.906L331.268 836.906ZM331.268 845.855L331.268 841.381L332.763 841.381L332.763 845.855L331.268 845.855ZM331.268 854.805L331.268 850.33L332.763 850.33L332.763 854.805L331.268 854.805ZM331.268 863.755L331.268 859.28L332.763 859.28L332.763 863.755L331.268 863.755ZM331.268 872.704L331.268 868.229L332.763 868.229L332.763 872.704L331.268 872.704ZM331.268 881.654L331.268 877.179L332.763 877.179L332.763 881.654L331.268 881.654ZM331.268 890.603L331.268 886.129L332.763 886.129L332.763 890.603L331.268 890.603ZM331.268 899.553L331.268 895.078L332.763 895.078L332.763 899.553L331.268 899.553ZM331.268 908.503L331.268 904.028L332.763 904.028L332.763 908.503L331.268 908.503ZM331.268 917.452L331.268 912.977L332.763 912.977L332.763 917.452L331.268 917.452ZM331.268 926.402L331.268 921.927L332.763 921.927L332.763 926.402L331.268 926.402ZM331.268 935.351L331.268 930.876L332.763 930.876L332.763 935.351L331.268 935.351ZM331.268 944.301L331.268 939.826L332.763 939.826L332.763 944.301L331.268 944.301ZM331.268 953.25L331.268 948.776L332.763 948.776L332.763 953.25L331.268 953.25ZM331.268 962.2L331.268 957.725L332.763 957.725L332.763 962.2L331.268 962.2ZM331.268 971.15L331.268 966.675L332.763 966.675L332.763 971.15L331.268 971.15ZM331.268 980.099L331.268 975.624L332.763 975.624L332.763 980.099L331.268 980.099ZM331.268 989.049L331.268 984.574L332.763 984.574L332.763 989.049L331.268 989.049ZM331.268 997.998L331.268 993.524L332.763 993.524L332.763 997.998L331.268 997.998ZM331.268 1006.95L331.268 1002.47L332.763 1002.47L332.763 1006.95L331.268 1006.95ZM331.268 1015.9L331.268 1011.42L332.763 1011.42L332.763 1015.9L331.268 1015.9ZM331.268 1024.85L331.268 1020.37L332.763 1020.37L332.763 1024.85L331.268 1024.85ZM331.268 1033.8L331.268 1029.32L332.763 1029.32L332.763 1033.8L331.268 1033.8ZM331.268 1042.75L331.268 1038.27L332.763 1038.27L332.763 1042.75L331.268 1042.75ZM331.268 1051.7L331.268 1047.22L332.763 1047.22L332.763 1051.7L331.268 1051.7ZM331.268 1058.41L331.268 1056.17L332.763 1056.17L332.763 1058.41L331.268 1058.41Z" fill="black"/>
<path fill-rule="evenodd" clip-rule="evenodd" d="M192.922 688.958L240.499 695.169L286.516 689.162L332.532 695.169L380.109 688.958V1054.05L332.532 1058.71L286.516 1054.21L240.499 1058.71L192.922 1054.05V688.958ZM196.043 692.525V1051.21L240.499 1055.56L286.516 1051.06L332.532 1055.56L376.988 1051.21V692.525L332.532 698.328L286.516 692.321L240.499 698.328L196.043 692.525Z" fill="black"/>
<path d="M279.314 1080.66C279.924 1080.73 280.229 1080.82 280.229 1080.94C280.229 1081.04 280.267 1081.1 280.342 1081.1L280.39 1081.14L280.213 1081.29V1081.35H280.261C280.315 1081.29 280.358 1081.26 280.39 1081.26C280.444 1081.26 280.47 1081.32 280.47 1081.45L280.615 1085.86C280.508 1086.32 280.454 1087.23 280.454 1088.59V1088.66C280.454 1089.48 280.476 1090.02 280.519 1090.27C280.433 1090.3 280.39 1090.37 280.39 1090.48C280.39 1090.62 280.417 1090.69 280.47 1090.69H280.519V1090.57H280.551C280.604 1090.57 280.658 1090.83 280.711 1091.33L280.679 1091.35H280.615C280.529 1091.25 280.454 1091.2 280.39 1091.2V1091.23V1091.3C280.39 1091.46 280.529 1091.54 280.808 1091.54C282.404 1091.45 283.202 1091.46 283.202 1091.55V1091.57C283.202 1091.59 283.121 1091.63 282.961 1091.68L282.945 1091.72V1091.73C282.966 1091.75 283.062 1091.79 283.234 1091.84C283.277 1091.89 283.298 1091.95 283.298 1092.02C283.191 1092.61 283.062 1092.91 282.912 1092.91L282.607 1092.94L281.772 1092.84L281.258 1092.87C278.387 1092.92 276.952 1092.88 276.952 1092.78C276.866 1092.66 276.823 1092.57 276.823 1092.52V1092.5L276.984 1091.96L276.92 1091.84C276.92 1091.68 277.032 1091.58 277.257 1091.52L277.45 1091.47L278.96 1091.43C279.089 1091.43 279.164 1091.35 279.185 1091.18V1091.02C279.185 1090.14 279.153 1089.4 279.089 1088.8C279.185 1085.63 279.287 1084.04 279.394 1084.04L279.41 1083.83C279.367 1082.92 279.292 1082.46 279.185 1082.46C278.714 1082.77 278.398 1083.08 278.237 1083.38L278.141 1083.43C277.53 1083.2 277.139 1082.99 276.968 1082.79C276.946 1082.79 276.925 1082.71 276.904 1082.56L276.936 1082.51L277.048 1082.53H277.161C277.375 1082.53 277.835 1082.16 278.542 1081.42C278.757 1081.22 278.928 1081 279.056 1080.76C279.164 1080.69 279.249 1080.66 279.314 1080.66ZM279.506 1081.21V1081.22L279.522 1081.26H279.555C279.651 1081.26 279.704 1081.24 279.715 1081.21V1081.19L279.667 1081.14H279.619C279.544 1081.16 279.506 1081.18 279.506 1081.21ZM279.024 1081.21L278.96 1081.26L279.008 1081.31H279.056L279.153 1081.29V1081.24L279.105 1081.21H279.024ZM280.261 1081.55L280.229 1081.59V1081.64L280.261 1081.66L280.31 1081.64V1081.59L280.261 1081.55ZM277.884 1082.88V1082.93H277.9C278.06 1082.93 278.226 1082.83 278.398 1082.62C278.976 1082.09 279.265 1081.76 279.265 1081.64H279.217C278.617 1082.15 278.173 1082.56 277.884 1082.88ZM279.828 1082.09V1082.11L279.908 1082.17L279.956 1082.16V1082L279.94 1081.96V1081.95C279.865 1081.96 279.828 1082.01 279.828 1082.09ZM279.763 1082.09H279.699L279.587 1082.37V1082.45L279.651 1082.51H279.747C279.812 1082.51 279.849 1082.49 279.86 1082.45V1082.4C279.86 1082.37 279.806 1082.33 279.699 1082.29H279.667V1082.22C279.731 1082.17 279.763 1082.13 279.763 1082.09ZM277.562 1082.66V1082.69H277.627C277.744 1082.69 277.846 1082.61 277.932 1082.45L277.916 1082.42H277.9C277.75 1082.48 277.637 1082.56 277.562 1082.66ZM279.94 1083.24L279.988 1084.35H280.02C280.085 1084.16 280.117 1083.9 280.117 1083.56V1083.09C280.117 1082.74 280.095 1082.56 280.053 1082.56C279.988 1082.56 279.951 1082.79 279.94 1083.24ZM279.94 1085.67V1085.84L279.988 1086.15H280.02C280.106 1086.15 280.149 1085.84 280.149 1085.22V1085.12L280.101 1085.07C279.994 1085.11 279.94 1085.31 279.94 1085.67ZM279.474 1088.61H279.426V1088.69H279.474V1088.61ZM279.988 1089.9V1089.91V1090.03L280.053 1090.07H280.085L280.117 1090.04V1089.99C280.095 1089.99 280.053 1089.96 279.988 1089.9ZM280.101 1090.4H280.085C280.02 1090.58 279.988 1090.8 279.988 1091.07V1091.2C279.988 1091.33 280.042 1091.42 280.149 1091.46H280.181C280.213 1091.46 280.229 1091.43 280.229 1091.36C280.219 1090.72 280.176 1090.4 280.101 1090.4ZM279.426 1090.8L279.362 1090.89L279.394 1090.96H279.41L279.474 1090.89V1090.86L279.426 1090.8ZM279.699 1091.07L279.651 1091.12V1091.23L279.699 1091.28H279.747V1091.12L279.699 1091.07ZM277.659 1091.63H277.514V1091.67L277.578 1091.73H277.61L277.659 1091.67V1091.63ZM277.627 1092.02L277.177 1092.07V1092.13L277.225 1092.2H277.257C277.364 1092.2 277.487 1092.14 277.627 1092.02ZM280.743 1091.96V1092.02L281.836 1091.84H281.932V1091.78C281.686 1091.75 281.29 1091.81 280.743 1091.96ZM278.141 1092.13L277.787 1092.18V1092.25H277.884H278.028C278.296 1092.25 278.43 1092.22 278.43 1092.18L278.382 1092.13H278.141ZM279.41 1092.1L279.394 1092.13V1092.15C279.437 1092.19 279.48 1092.21 279.522 1092.21V1092.18C279.501 1092.13 279.463 1092.1 279.41 1092.1ZM279.121 1092.13L279.089 1092.18L279.121 1092.21H279.185L279.233 1092.18V1092.13H279.121ZM279.747 1092.21L279.667 1092.26V1092.29C279.667 1092.34 279.833 1092.36 280.165 1092.36H280.181C280.267 1092.36 280.31 1092.33 280.31 1092.26C280.267 1092.23 280.219 1092.21 280.165 1092.21H279.747ZM282.768 1092.38V1092.44L282.832 1092.5C282.95 1092.5 283.009 1092.42 283.009 1092.25V1092.12L282.977 1092.07H282.912C282.816 1092.14 282.768 1092.25 282.768 1092.38ZM280.615 1092.39C280.551 1092.5 280.438 1092.55 280.278 1092.55V1092.58C280.278 1092.63 280.444 1092.65 280.776 1092.66H280.808C281 1092.51 281.134 1092.39 281.209 1092.28C281.199 1092.25 281.15 1092.24 281.065 1092.26C280.979 1092.27 280.829 1092.32 280.615 1092.39ZM281.772 1092.25L281.418 1092.28V1092.31C281.418 1092.34 281.574 1092.36 281.884 1092.36L281.9 1092.34V1092.33C281.879 1092.27 281.836 1092.25 281.772 1092.25ZM282.141 1092.25L282.093 1092.28L282.109 1092.34H282.141L282.189 1092.31V1092.28L282.141 1092.25ZM281.386 1092.47H281.322V1092.5H281.386V1092.47ZM282.495 1092.71V1092.73C282.495 1092.75 282.543 1092.77 282.639 1092.79C282.746 1092.78 282.8 1092.76 282.8 1092.71V1092.68L282.736 1092.63H282.671C282.575 1092.63 282.516 1092.66 282.495 1092.71Z" fill="white"/>
<path d="M284.856 1090.62C285.188 1090.66 285.419 1090.74 285.547 1090.86C285.59 1090.95 285.612 1091.05 285.612 1091.15V1091.38C285.612 1091.82 285.36 1092.24 284.856 1092.65L284.648 1092.71C284.444 1092.71 284.235 1092.41 284.021 1091.8V1091.73C284.021 1091.26 284.091 1090.97 284.23 1090.86C284.54 1090.7 284.749 1090.62 284.856 1090.62ZM284.342 1091.33C284.364 1091.61 284.401 1091.75 284.455 1091.75C284.476 1091.73 284.524 1091.54 284.599 1091.18L284.648 1091.07V1091.02H284.631C284.439 1091.09 284.342 1091.19 284.342 1091.33ZM284.776 1091.43V1091.46C284.776 1091.57 284.798 1091.62 284.84 1091.63H284.856C284.899 1091.63 284.964 1091.52 285.049 1091.3V1091.2L285.001 1091.18H284.953C284.835 1091.18 284.776 1091.26 284.776 1091.43ZM285.242 1091.63L285.258 1091.67H285.338L285.354 1091.55V1091.51H285.338C285.306 1091.51 285.274 1091.55 285.242 1091.63ZM285.017 1091.96L284.423 1092.02C284.423 1092.11 284.455 1092.16 284.519 1092.17H284.696C284.824 1092.17 284.931 1092.11 285.017 1091.99V1091.96Z" fill="white"/>
<path d="M253.279 666.011L248.435 662.669L255.551 654.884L260.579 658.026L253.279 666.011Z" fill="#B2D8F5"/>
<path d="M243.244 676.988L238.172 673.484L245.312 665.674L250.544 669.003L243.244 676.988Z" fill="#B2D8F5"/>
<path d="M245.31 665.674L241.831 662.483L247.451 665.802L250.544 669.004L245.31 665.674Z" fill="#A7CFEE"/>
<path d="M243.538 659.885C233.179 658.46 223.686 664.777 218.936 673.266C217.885 675.483 217.949 677.274 218.688 677.809L216.032 675.888C214.653 674.745 214.531 674.789 213.768 673.934C213.358 673.558 212.941 672.686 213.101 672.099C213.999 669.973 215.266 668.03 216.845 666.357C223.536 659.037 232.031 653.86 241.339 657.257C244.338 658.471 248.267 661.359 251.336 664.173C249.388 662.387 245.669 660.012 243.538 659.885Z" fill="#B2D8F5"/>
<path d="M256.318 675.03L243.244 676.988L250.544 669.002L248.088 666.75C246.202 665.399 244.336 664.186 242.056 663.885C238.379 663.425 235.353 664.13 232.18 665.937C227.864 668.097 223.407 671.972 221.294 676.31C221.085 676.744 220.772 677.118 220.383 677.4C219.994 677.682 219.538 677.954 219.203 677.964C218.867 677.975 218.69 677.813 218.69 677.813C217.805 677.001 217.638 675.893 218.163 674.907C220.861 668.672 225.366 664.869 230.8 661.907C234.472 659.752 239.265 659.235 243.539 659.888C246.212 660.207 248.082 661.506 250.212 663.193C251.341 664.087 252.258 665.069 253.281 666.007L260.581 658.022L256.318 675.03Z" fill="#E6FFFF"/>
<path d="M315.216 666.104L319.88 662.516L312.846 655.472L308.002 658.879L315.216 666.104Z" fill="#B2D8F5"/>
<path d="M325.137 676.041L330.02 672.279L322.964 665.212L317.923 668.816L325.137 676.041Z" fill="#B2D8F5"/>
<path d="M322.962 665.212L326.299 661.87L320.883 665.489L317.923 668.814L322.962 665.212Z" fill="#A7CFEE"/>
<path d="M324.604 659.479C334.658 657.357 343.98 662.806 348.721 670.701C349.774 672.777 349.738 674.519 349.027 675.091L351.582 673.038C352.907 671.831 353.027 671.864 353.757 670.98C354.149 670.587 354.543 669.711 354.379 669.153C353.475 667.155 352.215 665.361 350.656 663.851C344.043 657.228 335.708 652.813 326.705 656.773C323.806 658.165 320.026 661.246 317.081 664.196C318.95 662.324 322.533 659.755 324.604 659.479Z" fill="#B2D8F5"/>
<path d="M312.394 675.078L325.137 676.042L317.923 668.817L320.279 666.458C322.094 665.012 323.892 663.703 326.105 663.248C329.674 662.539 332.627 663.007 335.739 664.532C339.968 666.319 344.358 669.76 346.475 673.817C346.684 674.223 346.993 674.563 347.376 674.809C347.758 675.055 348.206 675.286 348.532 675.272C348.858 675.259 349.028 675.089 349.028 675.089C349.878 674.238 350.024 673.152 349.499 672.233C346.786 666.377 342.35 663.01 337.024 660.524C333.422 658.696 328.752 658.537 324.605 659.476C322.011 659.976 320.211 661.37 318.163 663.159C317.078 664.107 316.2 665.125 315.218 666.108L308.005 658.883L312.394 675.078Z" fill="#E6FFFF"/>
<path d="M792.903 698.6L838.52 746.531V1010.15L792.903 1058.08V698.6Z" fill="black" fill-opacity="0.2"/>
<path d="M787.703 692.35L833.32 740.281V1003.9L787.703 1051.83V692.35Z" fill="white"/>
<path fill-rule="evenodd" clip-rule="evenodd" d="M787.184 691.049L833.84 740.073V1004.11L787.184 1053.13V691.049ZM788.224 693.652V1050.53L832.8 1003.69V740.49L788.224 693.652Z" fill="black"/>
<path fill-rule="evenodd" clip-rule="evenodd" d="M858.546 714.963L860.763 712.743L861.5 713.477L859.283 715.697L858.546 714.963ZM854.112 719.404L856.329 717.184L857.066 717.918L854.849 720.138L854.112 719.404ZM849.678 723.845L851.895 721.624L852.632 722.359L850.415 724.579L849.678 723.845ZM845.244 728.286L847.461 726.065L848.198 726.8L845.981 729.02L845.244 728.286ZM840.81 732.727L843.027 730.506L843.764 731.241L841.547 733.461L840.81 732.727ZM836.376 737.168L838.593 734.947L839.33 735.682L837.113 737.902L836.376 737.168ZM831.942 741.609L834.159 739.388L834.896 740.123L832.679 742.343L831.942 741.609ZM827.508 746.05L829.725 743.829L830.462 744.563L828.245 746.784L827.508 746.05ZM823.074 750.491L825.291 748.27L826.028 749.004L823.811 751.225L823.074 750.491ZM818.64 754.931L820.857 752.711L821.594 753.445L819.377 755.666L818.64 754.931ZM814.206 759.372L816.423 757.152L817.16 757.886L814.943 760.107L814.206 759.372ZM809.772 763.813L811.989 761.593L812.726 762.327L810.509 764.548L809.772 763.813ZM805.338 768.254L807.555 766.034L808.292 766.768L806.075 768.989L805.338 768.254ZM800.904 772.695L803.121 770.475L803.858 771.209L801.641 773.43L800.904 772.695ZM796.47 777.136L798.687 774.916L799.424 775.65L797.207 777.87L796.47 777.136ZM792.036 781.577L794.253 779.357L794.99 780.091L792.773 782.311L792.036 781.577ZM787.602 786.018L789.819 783.798L790.556 784.532L788.339 786.752L787.602 786.018ZM783.168 790.459L785.385 788.238L786.122 788.973L783.905 791.193L783.168 790.459ZM778.734 794.9L780.951 792.679L781.688 793.414L779.471 795.634L778.734 794.9ZM774.3 799.341L776.517 797.12L777.254 797.855L775.037 800.075L774.3 799.341ZM769.866 803.782L772.083 801.561L772.82 802.296L770.603 804.516L769.866 803.782ZM765.432 808.223L767.649 806.002L768.386 806.737L766.169 808.957L765.432 808.223ZM760.998 812.664L763.215 810.443L763.952 811.178L761.735 813.398L760.998 812.664ZM756.564 817.105L758.781 814.884L759.518 815.618L757.301 817.839L756.564 817.105ZM752.13 821.546L754.347 819.325L755.084 820.059L752.867 822.28L752.13 821.546ZM747.696 825.986L749.913 823.766L750.65 824.5L748.433 826.721L747.696 825.986Z" fill="black"/>
<path d="M789.199 694.597V744.026L832.573 741.779L820.607 728.298L789.199 694.597Z" fill="#E5E5E5"/>
<path d="M793.686 738.783L788.451 694.597V692.35L834.068 740.281L793.686 738.783Z" fill="white"/>
<path fill-rule="evenodd" clip-rule="evenodd" d="M787.931 691.049L834.444 739.922C834.59 740.075 834.629 740.302 834.542 740.495C834.455 740.688 834.26 740.809 834.049 740.802L793.222 739.287L787.931 694.628V691.049ZM788.971 693.652V694.566L794.15 738.279L832.809 739.713L788.971 693.652Z" fill="black"/>
<path d="M789.199 999.407L832.574 1003.9L787.705 1052.58L787.705 1050.33L789.199 999.407Z" fill="#E5E5E5"/>
<path d="M792.19 1003.15L833.321 1004.65L787.705 1052.58L787.705 1050.33L792.19 1003.15Z" fill="white"/>
<path fill-rule="evenodd" clip-rule="evenodd" d="M787.185 1053.88L787.185 1050.31L791.719 1002.61L833.34 1004.13C833.545 1004.14 833.726 1004.26 833.803 1004.45C833.88 1004.64 833.839 1004.86 833.698 1005.01L787.185 1053.88ZM832.148 1005.13L792.662 1003.69L788.225 1050.36L788.225 1051.28L832.148 1005.13Z" fill="black"/>
<path fill-rule="evenodd" clip-rule="evenodd" d="M786.664 689.748L834.36 739.864V1004.32L786.664 1054.43V689.748ZM788.743 694.953V1049.23L832.28 1003.48V740.698L788.743 694.953Z" fill="black" stroke="black"/>
<path d="M758.871 812.906C757.093 814.562 755.366 816.169 753.631 817.785L752.826 817.269C752.703 816.434 752.247 815.593 752.124 814.758C751.823 813.568 749.762 812.212 749.847 810.55C750.057 806.488 752.725 803.126 754.472 801.5L760.242 802.455C759.493 803.211 758.728 804.961 758.414 805.971C758.101 806.98 758.04 808.044 758.238 809.067L759.08 812.079L758.871 812.906Z" fill="#99C6E8"/>
<path d="M778.986 803.356L774.793 807.259C774.619 807.421 774.077 808.242 773.745 808.234C773.413 808.227 771.961 807.364 771.646 807.025L768.235 805.455C765.888 804.229 762.791 804.541 760.157 804.117C758.668 803.689 757.649 802.462 756.105 802.746C754.562 803.03 752.255 803.815 750.978 804.753L756.219 799.874C760.377 796.636 767.284 798.115 771.359 799.699C774.052 800.595 776.613 801.823 778.986 803.356Z" fill="#B4DAF6"/>
<path d="M781.987 816.064L774.246 801.758L779.486 796.879L787.385 811.355L781.987 816.064Z" fill="#99C6E8"/>
<path d="M781.988 816.063L772.758 817.696L773.276 810.886C772.019 810.127 770.723 809.433 769.393 808.807C767.122 807.57 764.623 806.782 762.03 806.486C758.725 806.083 755.876 806.521 754.129 808.147C752.382 809.774 752.245 812.432 753.525 816.619C754.001 818.176 753.456 817.948 752.792 817.934C752.272 817.722 751.806 817.401 751.426 816.991C751.046 816.581 750.759 816.093 750.587 815.558C748.851 810.53 748.882 806.704 751.153 804.59C752.463 803.725 754.261 803.14 755.792 802.857C757.322 802.575 758.885 802.61 760.383 802.958C763.307 803.377 766.126 804.28 768.725 805.632C770.352 806.332 771.804 807.195 773.745 808.234L774.404 801.927L781.988 816.063Z" fill="#E6FFFF"/>
</g>
<defs>
<radialGradient id="paint0_radial" cx="0" cy="0" r="1" gradientUnits="userSpaceOnUse" gradientTransform="translate(482.5 883.5) rotate(-0.829458) scale(483.551 321.402)">
<stop stop-color="#64D362"/>
<stop offset="1" stop-color="#458644"/>
</radialGradient>
<clipPath id="clip0">
<rect width="1021" height="1278" fill="white"/>
</clipPath>
</defs>
</svg>
