<svg width="1021" height="1278" viewBox="0 0 1021 1278" fill="none" xmlns="http://www.w3.org/2000/svg">
<g clip-path="url(#clip0)">
<rect width="1021" height="1278" fill="white"/>
<path d="M1021 0H-1091V1278H1021V0Z" fill="url(#paint0_radial)"/>
<path d="M740.484 134C740.89 134.725 741.539 135.291 742.32 135.602L744.565 136.604H749.666C750.454 136.592 751.226 136.385 751.91 136.003C752.571 135.784 753.144 135.363 753.543 134.801C753.985 134.227 754.202 133.516 754.155 132.798C754.188 132.277 754.071 131.756 753.819 131.296C753.567 130.836 753.188 130.454 752.727 130.194C751.715 129.57 750.615 129.098 749.462 128.792L744.973 127.79C743.425 127.605 741.913 127.2 740.484 126.589C739.248 126.091 738.135 125.339 737.219 124.385C736.359 123.313 735.858 122.006 735.785 120.643C735.712 119.28 736.07 117.929 736.811 116.774C737.468 115.83 738.299 115.015 739.26 114.37C740.241 113.731 741.357 113.32 742.524 113.168C743.718 112.836 744.959 112.701 746.197 112.768C747.705 112.692 749.217 112.826 750.686 113.168C751.972 113.357 753.215 113.764 754.359 114.37C755.378 115.031 756.218 115.925 756.808 116.974C757.385 118.24 757.73 119.596 757.828 120.98H753.135C753.15 120.266 752.936 119.565 752.523 118.977C752.079 118.408 751.524 117.932 750.89 117.575L748.85 116.774H744.565L742.728 117.174C742.116 117.575 741.504 117.775 741.3 118.376C741.094 118.59 740.934 118.842 740.829 119.117C740.724 119.392 740.676 119.685 740.688 119.979C740.654 120.323 740.711 120.67 740.854 120.985C740.997 121.301 741.221 121.576 741.504 121.781C742.139 122.405 742.905 122.883 743.749 123.184L746.605 123.985L749.87 124.586L753.339 125.587C754.34 125.865 755.3 126.269 756.195 126.789C757.029 127.372 757.724 128.123 758.236 128.992C758.818 129.961 759.102 131.074 759.052 132.197C759.084 133.598 758.732 134.982 758.032 136.203C757.344 137.314 756.355 138.216 755.175 138.807C754.027 139.593 752.692 140.076 751.298 140.209L747.013 140.61L742.728 140.209C741.343 139.925 740.027 139.38 738.852 138.607C737.769 137.874 736.863 136.917 736.199 135.803C735.524 134.5 735.174 133.058 735.179 131.596H739.872C739.825 132.44 740.039 133.277 740.484 134Z" fill="white"/>
<path d="M769.255 113.369H764.562V140.109H769.255V113.369Z" fill="white"/>
<path d="M788.231 113.369V117.174H782.722V133.8C782.722 134.4 782.722 134.801 782.926 135.001C782.926 135.157 782.963 135.31 783.033 135.449C783.104 135.588 783.207 135.709 783.334 135.803H788.231V139.608H781.701C780.966 139.504 780.267 139.229 779.661 138.807C779.039 138.377 778.602 137.734 778.437 137.004C778.174 136.023 778.037 135.014 778.029 134V117.174H773.335V113.369H778.029V105.356H782.722V113.369H788.231Z" fill="white"/>
<path d="M813.329 138.406C810.971 139.929 808.192 140.699 805.371 140.61C803.42 140.622 801.483 140.283 799.658 139.608C798.003 138.961 796.533 137.93 795.373 136.604C794.203 135.353 793.362 133.84 792.924 132.197C792.254 130.4 791.908 128.502 791.904 126.588C791.928 124.677 792.273 122.782 792.924 120.98C793.562 119.381 794.458 117.893 795.577 116.573C796.786 115.351 798.247 114.395 799.862 113.769C801.52 113.016 803.342 112.672 805.167 112.767C807.301 112.664 809.421 113.15 811.288 114.17C812.973 115.054 814.383 116.369 815.369 117.975C816.341 119.443 817.032 121.072 817.41 122.783C817.842 124.484 817.98 126.244 817.818 127.991H796.801C796.836 129.135 796.973 130.274 797.209 131.396C797.548 132.432 798.104 133.387 798.841 134.2C799.585 135.071 800.582 135.7 801.698 136.003C803.099 136.614 804.632 136.878 806.161 136.774C807.691 136.669 809.171 136.198 810.472 135.402C811.118 134.959 811.667 134.395 812.087 133.741C812.507 133.088 812.791 132.358 812.921 131.596H817.41C817.013 134.304 815.547 136.75 813.329 138.406ZM812.308 121.18C811.94 120.225 811.303 119.391 810.472 118.777C809.774 118.086 808.941 117.541 808.023 117.174C807.052 116.782 806.013 116.578 804.963 116.573C803.843 116.54 802.729 116.745 801.698 117.174C800.78 117.541 799.947 118.086 799.249 118.777C798.501 119.424 797.938 120.253 797.617 121.18C797.157 122.123 796.88 123.142 796.801 124.185H812.921C812.915 123.154 812.707 122.134 812.308 121.18Z" fill="white"/>
<path d="M827.408 113.368V116.974H827.612C827.943 116.239 828.42 115.577 829.016 115.027C829.612 114.476 830.314 114.049 831.081 113.769C832.811 113.015 834.699 112.671 836.59 112.768C838.548 112.655 840.506 112.998 842.303 113.769C843.855 114.493 845.19 115.596 846.18 116.974C847.379 118.204 848.224 119.725 848.629 121.381C849.227 123.121 849.503 124.953 849.445 126.789C849.443 128.608 849.238 130.422 848.833 132.197C848.264 133.786 847.437 135.274 846.384 136.604C845.246 137.867 843.857 138.889 842.303 139.608C840.478 140.283 838.541 140.622 836.59 140.61H834.345L831.897 140.009L829.448 138.607C828.638 138.144 827.996 137.443 827.612 136.604H827.408V150.425H822.919V113.368H827.408ZM844.14 122.783C843.805 121.623 843.251 120.536 842.507 119.578C841.767 118.691 840.868 117.944 839.855 117.375C838.646 116.807 837.317 116.532 835.978 116.573C834.571 116.507 833.169 116.782 831.897 117.375C830.828 117.953 829.918 118.778 829.244 119.778C828.564 120.747 828.079 121.835 827.816 122.983C827.416 124.145 827.209 125.362 827.204 126.588C827.191 127.882 827.398 129.168 827.816 130.394C828.492 132.718 830.018 134.715 832.101 136.003C833.368 136.612 834.774 136.888 836.182 136.804C837.579 136.771 838.96 136.5 840.263 136.003C841.273 135.418 842.115 134.591 842.711 133.599C843.426 132.575 843.913 131.415 844.14 130.194C844.489 128.956 844.627 127.67 844.548 126.388C844.616 125.172 844.478 123.954 844.14 122.783" fill="white"/>
<path d="M854.342 121.18C854.899 119.544 855.803 118.042 856.995 116.774C858.17 115.464 859.636 114.436 861.28 113.769C863.148 112.996 865.172 112.653 867.197 112.768C869.22 112.674 871.24 113.015 873.114 113.769C874.668 114.488 876.057 115.511 877.195 116.774C878.386 118.042 879.29 119.544 879.848 121.18C880.499 122.982 880.844 124.877 880.868 126.789C880.844 128.636 880.499 130.465 879.848 132.197C879.29 133.833 878.386 135.335 877.195 136.604C876.057 137.867 874.668 138.889 873.114 139.608C871.213 140.266 869.213 140.604 867.197 140.61C865.18 140.62 863.177 140.281 861.28 139.608C859.636 138.942 858.17 137.914 856.995 136.604C855.803 135.335 854.899 133.833 854.342 132.197C853.756 130.454 853.48 128.624 853.526 126.789C853.481 124.888 853.756 122.993 854.342 121.18V121.18ZM859.035 130.995C859.399 132.183 860.026 133.278 860.871 134.2C861.737 134.979 862.697 135.652 863.728 136.203C864.837 136.612 866.013 136.816 867.197 136.804C868.313 136.8 869.42 136.597 870.462 136.203C871.493 135.652 872.452 134.979 873.318 134.2C874.164 133.278 874.791 132.183 875.155 130.995C875.661 129.647 875.937 128.226 875.971 126.789C875.952 125.286 875.676 123.796 875.155 122.382C874.791 121.194 874.164 120.1 873.318 119.177C872.452 118.399 871.493 117.726 870.462 117.174C869.42 116.781 868.313 116.577 867.197 116.573C866.013 116.562 864.837 116.766 863.728 117.174C862.697 117.726 861.737 118.399 860.871 119.177C860.026 120.1 859.399 121.194 859.035 122.382C858.59 123.809 858.383 125.297 858.423 126.789C858.395 128.214 858.601 129.635 859.035 130.995" fill="white"/>
<path d="M891.274 113.369H886.581V140.109H891.274V113.369Z" fill="white"/>
<path d="M902.701 113.368V117.575C903.651 116.038 905.005 114.781 906.621 113.936C908.236 113.09 910.054 112.686 911.883 112.768C913.47 112.728 915.053 112.93 916.576 113.368C917.7 113.87 918.733 114.546 919.637 115.372C920.317 116.34 920.802 117.428 921.065 118.576C921.484 119.803 921.69 121.089 921.677 122.382V140.009H916.984V121.982C917.034 121.254 916.933 120.524 916.687 119.835C916.442 119.147 916.057 118.514 915.556 117.975C914.976 117.468 914.297 117.082 913.56 116.841C912.824 116.6 912.045 116.509 911.271 116.573C910.019 116.541 908.772 116.745 907.598 117.174C906.595 117.586 905.691 118.2 904.945 118.977C904.275 119.728 903.787 120.618 903.517 121.581C903.101 122.669 902.893 123.824 902.905 124.986V140.009H898.212V113.368H902.701Z" fill="white"/>
<path d="M940.654 113.369V117.174H934.94V133.8C934.973 134.205 935.041 134.607 935.144 135.001C935.144 135.402 935.348 135.602 935.757 135.803H940.654V139.608H933.92L931.88 138.807C931.377 138.31 931.024 137.686 930.859 137.004C930.495 136.046 930.356 135.019 930.451 134V117.174H925.554V113.369H930.451V105.356H934.94V113.369H940.654Z" fill="white"/>
<path d="M673.149 123.584L677.434 127.59L690.901 140.009L696.614 134.4C696.901 134.103 697.061 133.709 697.061 133.299C697.061 132.889 696.901 132.495 696.614 132.197L691.309 127.59L685.596 122.182C685.28 121.819 685.106 121.357 685.106 120.88C685.106 120.403 685.28 119.941 685.596 119.578L701.103 104.956L693.962 98.1455L677.434 113.969L673.149 117.976C672.753 118.332 672.437 118.765 672.221 119.248C672.005 119.731 671.893 120.252 671.893 120.78C671.893 121.307 672.005 121.829 672.221 122.311C672.437 122.794 672.753 123.228 673.149 123.584" fill="white"/>
<path d="M719.059 130.595L714.774 126.589L701.307 114.17L695.594 119.778C695.307 120.076 695.147 120.47 695.147 120.88C695.147 121.29 695.307 121.684 695.594 121.982L700.899 126.589L706.613 132.197C706.914 132.528 707.08 132.956 707.08 133.399C707.08 133.842 706.914 134.27 706.613 134.601L691.105 149.223L698.247 156.033L714.774 140.209L719.059 136.203C719.455 135.847 719.771 135.413 719.987 134.931C720.204 134.448 720.315 133.926 720.315 133.399C720.315 132.872 720.204 132.35 719.987 131.867C719.771 131.385 719.455 130.951 719.059 130.595" fill="white"/>
<path d="M769.459 107.76C769.459 108.451 769.179 109.113 768.682 109.601C768.184 110.09 767.51 110.364 766.806 110.364C766.103 110.364 765.428 110.09 764.93 109.601C764.433 109.113 764.153 108.451 764.153 107.76C764.153 107.07 764.433 106.407 764.93 105.919C765.428 105.431 766.103 105.156 766.806 105.156C767.51 105.156 768.184 105.431 768.682 105.919C769.179 106.407 769.459 107.07 769.459 107.76" fill="white"/>
<path d="M891.478 107.76C891.478 108.451 891.199 109.113 890.702 109.601C890.204 110.09 889.529 110.364 888.826 110.364C888.122 110.364 887.448 110.09 886.95 109.601C886.453 109.113 886.173 108.451 886.173 107.76C886.173 107.07 886.453 106.407 886.95 105.919C887.448 105.431 888.122 105.156 888.826 105.156C889.529 105.156 890.204 105.431 890.702 105.919C891.199 106.407 891.478 107.07 891.478 107.76" fill="white"/>
<path d="M283.108 349.84C283.108 357.016 284.356 363.88 287.008 370.744C289.504 377.608 293.248 383.692 297.928 388.996C302.608 394.3 308.068 398.668 314.62 401.944C321.016 405.376 328.192 406.936 335.992 406.936C340.36 406.936 344.728 406.468 349.252 405.22C353.776 404.128 358.144 402.412 362.2 400.228C366.256 398.044 369.844 395.392 373.12 392.272C376.24 389.152 378.736 385.408 380.608 381.196L366.1 372.928C364.54 376.204 362.668 379.012 360.484 381.196C358.3 383.536 355.804 385.408 353.152 386.968C350.5 388.528 347.692 389.62 344.884 390.244C342.076 390.868 339.268 391.18 336.616 391.18C331.312 391.18 326.632 390.088 322.264 387.904C317.896 385.72 313.996 382.6 310.876 378.856C307.756 375.112 305.26 370.9 303.544 365.908C301.672 361.072 300.892 355.924 300.892 350.464C300.892 345.784 301.516 340.948 303.076 336.112C304.636 331.432 306.82 327.064 309.784 323.164C312.748 319.42 316.492 316.3 320.86 313.96C325.228 311.62 330.22 310.372 336.148 310.372C338.644 310.372 341.452 310.684 344.26 311.308C347.068 311.932 349.72 312.868 352.372 314.116C354.868 315.52 357.364 317.392 359.548 319.576C361.732 321.916 363.604 324.724 365.164 328L378.892 318.796C375.148 311.62 369.844 305.848 362.668 301.324C355.492 296.956 346.756 294.616 336.772 294.616C328.348 294.616 320.704 296.332 314.152 299.452C307.444 302.728 301.828 306.94 297.148 312.244C292.468 317.548 289.036 323.476 286.696 330.028C284.2 336.58 283.108 343.288 283.108 349.84ZM462.289 321.292L470.245 306.94C465.409 303.508 459.793 300.544 453.553 298.048C447.157 295.708 440.293 294.46 432.805 294.46C427.033 294.46 421.729 295.24 416.893 296.644C411.901 298.204 407.689 300.388 404.101 303.196C400.513 306.004 397.705 309.592 395.677 313.804C393.493 318.016 392.557 322.852 392.557 328.156C392.557 332.524 393.181 336.268 394.585 339.388C395.989 342.508 398.017 345.16 400.825 347.344C403.477 349.684 406.909 351.712 410.965 353.272C415.021 354.832 419.857 356.392 425.473 357.796C430.153 359.044 434.521 360.292 438.265 361.384C442.009 362.632 445.129 363.88 447.781 365.284C450.277 366.688 452.305 368.248 453.709 370.12C455.113 371.992 455.893 374.332 455.893 377.14C455.893 381.82 454.021 385.408 450.277 387.748C446.533 390.244 441.229 391.336 434.365 391.336C429.997 391.336 425.941 390.868 422.041 389.932C417.985 388.996 414.397 387.748 410.965 386.344C407.533 384.94 404.569 383.38 402.073 381.664C399.577 380.104 397.549 378.544 396.301 377.14L388.345 392.116C394.585 397.108 401.761 400.852 409.561 403.348C417.361 405.844 425.629 407.092 434.053 407.092C439.669 407.092 444.817 406.624 449.809 405.376C454.645 404.128 458.857 402.256 462.601 399.76C466.345 397.264 469.153 393.832 471.337 389.776C473.521 385.72 474.613 380.884 474.613 375.268C474.613 370.276 473.677 366.064 471.961 362.632C470.245 359.2 467.905 356.236 464.785 353.74C461.665 351.4 457.765 349.372 453.241 347.656C448.717 346.096 443.725 344.536 438.109 343.132C433.429 342.04 429.529 340.948 426.097 340.012C422.665 339.076 419.701 337.828 417.517 336.58C415.177 335.332 413.461 333.772 412.369 332.056C411.277 330.34 410.809 328.156 410.809 325.348C410.809 320.668 412.525 316.924 415.957 314.116C419.389 311.464 424.849 310.06 432.337 310.06C435.613 310.06 438.889 310.528 442.009 311.152C445.129 311.932 448.093 312.868 450.745 313.96C453.397 315.208 455.737 316.456 457.765 317.704C459.637 318.952 461.197 320.2 462.289 321.292ZM557.656 321.292L565.612 306.94C560.776 303.508 555.16 300.544 548.92 298.048C542.524 295.708 535.66 294.46 528.172 294.46C522.4 294.46 517.096 295.24 512.26 296.644C507.268 298.204 503.056 300.388 499.468 303.196C495.88 306.004 493.072 309.592 491.044 313.804C488.86 318.016 487.924 322.852 487.924 328.156C487.924 332.524 488.548 336.268 489.952 339.388C491.356 342.508 493.384 345.16 496.192 347.344C498.844 349.684 502.276 351.712 506.332 353.272C510.388 354.832 515.224 356.392 520.84 357.796C525.52 359.044 529.888 360.292 533.632 361.384C537.376 362.632 540.496 363.88 543.148 365.284C545.644 366.688 547.672 368.248 549.076 370.12C550.48 371.992 551.26 374.332 551.26 377.14C551.26 381.82 549.388 385.408 545.644 387.748C541.9 390.244 536.596 391.336 529.732 391.336C525.364 391.336 521.308 390.868 517.408 389.932C513.352 388.996 509.764 387.748 506.332 386.344C502.9 384.94 499.936 383.38 497.44 381.664C494.944 380.104 492.916 378.544 491.668 377.14L483.712 392.116C489.952 397.108 497.128 400.852 504.928 403.348C512.728 405.844 520.996 407.092 529.42 407.092C535.036 407.092 540.184 406.624 545.176 405.376C550.012 404.128 554.224 402.256 557.968 399.76C561.712 397.264 564.52 393.832 566.704 389.776C568.888 385.72 569.98 380.884 569.98 375.268C569.98 370.276 569.044 366.064 567.328 362.632C565.612 359.2 563.272 356.236 560.152 353.74C557.032 351.4 553.132 349.372 548.608 347.656C544.084 346.096 539.092 344.536 533.476 343.132C528.796 342.04 524.896 340.948 521.464 340.012C518.032 339.076 515.068 337.828 512.884 336.58C510.544 335.332 508.828 333.772 507.736 332.056C506.644 330.34 506.176 328.156 506.176 325.348C506.176 320.668 507.892 316.924 511.324 314.116C514.756 311.464 520.216 310.06 527.704 310.06C530.98 310.06 534.256 310.528 537.376 311.152C540.496 311.932 543.46 312.868 546.112 313.96C548.764 315.208 551.104 316.456 553.132 317.704C555.004 318.952 556.564 320.2 557.656 321.292ZM703.578 392.272V406H718.242V349.996H680.334V362.944H703.578V374.8C698.898 380.416 693.906 384.628 688.758 387.124C683.61 389.776 678.306 391.024 672.69 391.024C667.542 391.024 662.862 390.088 658.494 387.904C654.126 385.72 650.226 382.912 647.106 379.168C643.986 375.58 641.49 371.368 639.618 366.376C637.746 361.54 636.966 356.236 636.966 350.62C636.966 345.316 637.746 340.324 639.306 335.332C640.866 330.496 643.206 326.284 646.326 322.54C649.29 318.796 652.878 315.832 657.246 313.648C661.458 311.464 666.138 310.216 671.442 310.216C677.682 310.216 683.61 311.776 688.914 314.74C694.218 317.86 698.274 322.384 701.394 328.312L714.81 318.64C711.066 311.464 705.762 305.536 698.586 301.168C691.41 296.8 682.518 294.46 671.91 294.46C664.266 294.46 657.246 296.02 650.85 298.984C644.298 301.948 638.838 306.004 634.158 310.996C629.478 316.144 625.734 322.072 623.082 328.78C620.43 335.644 619.182 342.664 619.182 350.152C619.182 357.64 620.43 364.816 623.082 371.68C625.734 378.544 629.478 384.628 634.158 389.776C638.838 395.08 644.298 399.136 650.694 402.256C656.934 405.376 663.798 406.78 671.286 406.78C683.454 406.78 694.218 401.944 703.578 392.272ZM738.171 406H755.643V367.468H781.227L805.251 406H825.063L799.011 363.88C802.131 362.944 805.095 361.384 807.903 359.2C810.555 357.016 812.895 354.52 814.767 351.556C816.639 348.748 818.043 345.472 819.135 342.04C820.071 338.608 820.695 335.02 820.695 331.276C820.695 326.908 819.759 322.54 818.043 318.172C816.327 313.804 813.987 310.06 811.023 306.628C807.903 303.196 804.315 300.544 800.103 298.36C795.891 296.332 791.367 295.24 786.375 295.24H738.171V406ZM755.643 352.024V310.684H785.283C787.467 310.684 789.651 311.308 791.835 312.4C794.019 313.492 795.891 314.896 797.451 316.768C799.011 318.64 800.415 320.824 801.351 323.32C802.287 325.816 802.911 328.468 802.911 331.276C802.911 334.084 802.443 336.736 801.663 339.232C800.727 341.728 799.635 344.068 798.231 345.94C796.671 347.812 794.955 349.372 792.927 350.464C790.899 351.556 788.715 352.024 786.219 352.024H755.643ZM841.308 406H858.78V295.24H841.308V406ZM883.812 406H923.124C931.236 406 938.724 404.752 945.432 402.1C951.984 399.448 957.756 395.704 962.436 390.868C967.116 386.032 970.704 380.26 973.2 373.396C975.696 366.532 977.1 358.888 977.1 350.464C977.1 342.976 975.852 335.8 973.668 329.092C971.328 322.384 967.896 316.456 963.372 311.464C958.848 306.472 953.232 302.572 946.524 299.608C939.816 296.8 932.016 295.24 923.124 295.24H883.812V406ZM959.316 350.464C959.316 356.236 958.536 361.54 956.976 366.376C955.416 371.368 953.076 375.58 949.956 379.168C946.836 382.756 943.092 385.564 938.568 387.592C934.044 389.62 928.896 390.556 923.124 390.556H901.284V310.684H923.124C928.74 310.684 933.888 311.776 938.412 313.648C942.78 315.676 946.68 318.484 949.8 321.916C952.92 325.348 955.26 329.56 956.82 334.396C958.38 339.388 959.316 344.692 959.316 350.464ZM361.425 541H438.333V525.556H378.897V430.24H361.425V541ZM485.131 430.24L441.139 541H459.703L471.247 510.892H513.991L525.691 541H544.099L500.419 430.24H485.131ZM510.559 497.944H474.367L492.775 450.364L510.559 497.944ZM552.959 430.24H533.771L574.799 501.064V541H592.271V501.376L633.611 430.24H614.423L583.535 485.776L552.959 430.24ZM685.93 541.78C693.418 541.78 700.438 540.376 706.99 537.256C713.542 534.136 719.158 530.08 723.994 524.932C728.674 519.784 732.418 513.856 735.07 506.992C737.722 500.284 739.126 493.264 739.126 485.776C739.126 478.912 737.722 472.048 735.226 465.34C732.73 458.632 729.142 452.548 724.462 447.244C719.782 441.94 714.322 437.728 707.77 434.452C701.218 431.176 694.042 429.46 686.242 429.46C678.442 429.46 671.422 431.02 664.87 434.14C658.318 437.26 652.702 441.316 648.022 446.464C643.342 451.768 639.598 457.696 636.946 464.404C634.138 471.268 632.89 478.288 632.89 485.62C632.89 492.796 634.138 499.66 636.634 506.368C639.13 513.232 642.874 519.16 647.554 524.464C652.234 529.768 657.694 533.98 664.246 537.1C670.798 540.22 677.974 541.78 685.93 541.78ZM650.674 485.62C650.674 480.628 651.454 475.792 653.014 470.956C654.574 466.12 656.914 461.752 660.034 458.008C662.998 454.264 666.742 451.3 671.11 448.96C675.478 446.62 680.47 445.372 686.086 445.372C691.39 445.372 696.07 446.62 700.438 448.804C704.806 450.988 708.394 453.952 711.514 457.696C714.634 461.44 716.974 465.652 718.69 470.488C720.25 475.324 721.186 480.316 721.186 485.62C721.186 490.612 720.406 495.604 718.846 500.284C717.286 505.12 714.946 509.488 711.982 513.232C708.862 517.132 705.274 520.252 700.906 522.592C696.538 524.932 691.702 526.024 686.086 526.024C680.626 526.024 675.79 524.932 671.422 522.748C667.054 520.564 663.31 517.444 660.19 513.7C657.07 509.956 654.73 505.744 653.17 500.752C651.454 495.916 650.674 490.924 650.674 485.62ZM803.39 526.024C797.618 526.024 792.782 524.932 788.882 522.748C784.982 520.564 781.862 517.6 779.522 513.856C777.182 510.112 775.466 505.9 774.53 501.22C773.594 496.54 773.126 491.548 773.126 486.4V430.24H755.654V486.4C755.654 493.576 756.434 500.596 758.15 507.148C759.71 513.856 762.518 519.784 766.262 524.932C770.006 530.08 774.842 534.136 780.926 537.256C787.01 540.376 794.498 541.78 803.39 541.78C811.814 541.78 819.146 540.376 825.23 537.412C831.314 534.604 836.306 530.548 840.206 525.556C843.95 520.564 846.758 514.636 848.63 507.928C850.346 501.22 851.282 494.044 851.282 486.4V430.24H833.654V486.4C833.654 491.392 833.03 496.384 832.094 501.064C831.158 505.744 829.442 509.956 827.102 513.7C824.762 517.444 821.642 520.408 817.898 522.592C813.998 524.932 809.162 526.024 803.39 526.024ZM955.795 445.684V430.24H864.379V445.684H901.351V541H918.979V445.684H955.795ZM958.562 480.004H972.758V460.192H958.562V480.004ZM958.562 541H972.758V521.032H958.562V541ZM181.356 603.176C179.484 603.176 177.9 603.464 176.532 603.968C175.164 604.544 174.084 605.264 173.292 606.128L175.884 592.16H195.108V584.888H170.124C169.116 590.216 168.18 594.968 167.316 599.216C166.884 601.088 166.524 602.888 166.236 604.616C165.876 606.416 165.588 608 165.3 609.44C165.012 610.88 164.724 612.104 164.58 613.04C164.436 614.048 164.292 614.624 164.292 614.768H171.276C172.284 613.256 173.58 612.104 175.164 611.312C176.748 610.52 178.404 610.088 180.276 610.088C181.644 610.088 182.94 610.376 184.092 610.808C185.244 611.312 186.324 611.96 187.188 612.824C188.052 613.688 188.7 614.696 189.204 615.848C189.708 617 189.996 618.296 189.996 619.736C189.996 622.76 188.988 625.208 187.116 627.008C185.172 628.88 182.724 629.744 179.772 629.744C177.324 629.744 175.092 629.168 173.004 627.872C170.844 626.648 169.116 624.992 167.82 622.976L163.068 627.512C164.58 630.392 166.812 632.624 169.764 634.28C172.644 635.936 175.956 636.728 179.7 636.728C182.292 636.728 184.668 636.368 186.972 635.504C189.204 634.712 191.148 633.56 192.804 632.048C194.46 630.536 195.756 628.736 196.692 626.576C197.628 624.488 198.132 622.184 198.132 619.592C198.132 617.216 197.7 614.984 196.836 612.968C195.972 610.952 194.82 609.224 193.308 607.784C191.796 606.344 189.996 605.264 187.98 604.4C185.964 603.608 183.732 603.176 181.356 603.176ZM224.041 626H232.105V608.216H245.929C248.233 608.216 250.321 607.784 252.193 606.848C254.065 605.912 255.721 604.688 257.089 603.104C258.385 601.52 259.465 599.792 260.185 597.776C260.905 595.76 261.337 593.672 261.337 591.512C261.337 589.496 260.905 587.48 260.113 585.464C259.321 583.448 258.241 581.72 256.873 580.136C255.433 578.552 253.777 577.328 251.833 576.32C249.889 575.384 247.801 574.88 245.497 574.88H224.041V626ZM232.105 601.088V582.008H244.993C246.001 582.008 247.009 582.296 248.017 582.728C249.025 583.16 249.889 583.808 250.681 584.672C251.401 585.536 252.049 586.472 252.481 587.624C252.913 588.776 253.129 590.072 253.129 591.512C253.129 592.952 252.913 594.176 252.553 595.328C252.121 596.48 251.617 597.488 250.969 598.352C250.249 599.216 249.457 599.936 248.521 600.368C247.585 600.872 246.577 601.088 245.425 601.088H232.105ZM268.901 626H276.965V608.216H288.773L299.861 626H309.005L296.981 606.56C298.421 606.128 299.789 605.408 301.085 604.4C302.309 603.392 303.389 602.24 304.253 600.872C305.117 599.576 305.765 598.064 306.269 596.48C306.701 594.896 306.989 593.24 306.989 591.512C306.989 589.496 306.557 587.48 305.765 585.464C304.973 583.448 303.893 581.72 302.525 580.136C301.085 578.552 299.429 577.328 297.485 576.32C295.541 575.384 293.453 574.88 291.149 574.88H268.901V626ZM276.965 601.088V582.008H290.645C291.653 582.008 292.661 582.296 293.669 582.8C294.677 583.304 295.541 583.952 296.261 584.816C296.981 585.68 297.629 586.688 298.061 587.84C298.493 588.992 298.781 590.216 298.781 591.512C298.781 592.808 298.565 594.032 298.205 595.184C297.773 596.336 297.269 597.416 296.621 598.28C295.901 599.144 295.109 599.864 294.173 600.368C293.237 600.872 292.229 601.088 291.077 601.088H276.965ZM330.777 574.88L310.473 626H319.041L324.369 612.104H344.097L349.497 626H357.993L337.833 574.88H330.777ZM342.513 606.128H325.809L334.305 584.168L342.513 606.128ZM359.176 600.08C359.176 603.392 359.752 606.56 360.976 609.728C362.128 612.896 363.856 615.704 366.016 618.152C368.176 620.6 370.696 622.616 373.72 624.128C376.672 625.712 379.984 626.432 383.584 626.432C385.6 626.432 387.616 626.216 389.704 625.64C391.792 625.136 393.808 624.344 395.68 623.336C397.552 622.328 399.208 621.104 400.72 619.664C402.16 618.224 403.312 616.496 404.176 614.552L397.48 610.736C396.76 612.248 395.896 613.544 394.888 614.552C393.88 615.632 392.728 616.496 391.504 617.216C390.28 617.936 388.984 618.44 387.688 618.728C386.392 619.016 385.096 619.16 383.872 619.16C381.424 619.16 379.264 618.656 377.248 617.648C375.232 616.64 373.432 615.2 371.992 613.472C370.552 611.744 369.4 609.8 368.608 607.496C367.744 605.264 367.384 602.888 367.384 600.368C367.384 598.208 367.672 595.976 368.392 593.744C369.112 591.584 370.12 589.568 371.488 587.768C372.856 586.04 374.584 584.6 376.6 583.52C378.616 582.44 380.92 581.864 383.656 581.864C384.808 581.864 386.104 582.008 387.4 582.296C388.696 582.584 389.92 583.016 391.144 583.592C392.296 584.24 393.448 585.104 394.456 586.112C395.464 587.192 396.328 588.488 397.048 590L403.384 585.752C401.656 582.44 399.208 579.776 395.896 577.688C392.584 575.672 388.552 574.592 383.944 574.592C380.056 574.592 376.528 575.384 373.504 576.824C370.408 578.336 367.816 580.28 365.656 582.728C363.496 585.176 361.912 587.912 360.832 590.936C359.68 593.96 359.176 597.056 359.176 600.08ZM448.655 582.008V574.88H406.463V582.008H423.527V626H431.663V582.008H448.655ZM455.51 626H463.574V574.88H455.51V626ZM471.887 600.08C471.887 603.392 472.463 606.56 473.687 609.728C474.839 612.896 476.567 615.704 478.727 618.152C480.887 620.6 483.407 622.616 486.431 624.128C489.383 625.712 492.695 626.432 496.295 626.432C498.311 626.432 500.327 626.216 502.415 625.64C504.503 625.136 506.519 624.344 508.391 623.336C510.263 622.328 511.919 621.104 513.431 619.664C514.871 618.224 516.023 616.496 516.887 614.552L510.191 610.736C509.471 612.248 508.607 613.544 507.599 614.552C506.591 615.632 505.439 616.496 504.215 617.216C502.991 617.936 501.695 618.44 500.399 618.728C499.103 619.016 497.807 619.16 496.583 619.16C494.135 619.16 491.975 618.656 489.959 617.648C487.943 616.64 486.143 615.2 484.703 613.472C483.263 611.744 482.111 609.8 481.319 607.496C480.455 605.264 480.095 602.888 480.095 600.368C480.095 598.208 480.383 595.976 481.103 593.744C481.823 591.584 482.831 589.568 484.199 587.768C485.567 586.04 487.295 584.6 489.311 583.52C491.327 582.44 493.631 581.864 496.367 581.864C497.519 581.864 498.815 582.008 500.111 582.296C501.407 582.584 502.631 583.016 503.855 583.592C505.007 584.24 506.159 585.104 507.167 586.112C508.175 587.192 509.039 588.488 509.759 590L516.095 585.752C514.367 582.44 511.919 579.776 508.607 577.688C505.295 575.672 501.263 574.592 496.655 574.592C492.767 574.592 489.239 575.384 486.215 576.824C483.119 578.336 480.527 580.28 478.367 582.728C476.207 585.176 474.623 587.912 473.543 590.936C472.391 593.96 471.887 597.056 471.887 600.08ZM538.691 574.88L518.387 626H526.955L532.283 612.104H552.011L557.411 626H565.907L545.747 574.88H538.691ZM550.427 606.128H533.723L542.219 584.168L550.427 606.128ZM572.229 626H607.725V618.872H580.293V574.88H572.229V626ZM630.096 626H638.16V608.216H651.984C654.288 608.216 656.376 607.784 658.248 606.848C660.12 605.912 661.776 604.688 663.144 603.104C664.44 601.52 665.52 599.792 666.24 597.776C666.96 595.76 667.392 593.672 667.392 591.512C667.392 589.496 666.96 587.48 666.168 585.464C665.376 583.448 664.296 581.72 662.928 580.136C661.488 578.552 659.832 577.328 657.888 576.32C655.944 575.384 653.856 574.88 651.552 574.88H630.096V626ZM638.16 601.088V582.008H651.048C652.056 582.008 653.064 582.296 654.072 582.728C655.08 583.16 655.944 583.808 656.736 584.672C657.456 585.536 658.104 586.472 658.536 587.624C658.968 588.776 659.184 590.072 659.184 591.512C659.184 592.952 658.968 594.176 658.608 595.328C658.176 596.48 657.672 597.488 657.024 598.352C656.304 599.216 655.512 599.936 654.576 600.368C653.64 600.872 652.632 601.088 651.48 601.088H638.16ZM674.955 626H683.019V608.216H694.827L705.915 626H715.059L703.035 606.56C704.475 606.128 705.843 605.408 707.139 604.4C708.363 603.392 709.443 602.24 710.307 600.872C711.171 599.576 711.819 598.064 712.323 596.48C712.755 594.896 713.043 593.24 713.043 591.512C713.043 589.496 712.611 587.48 711.819 585.464C711.027 583.448 709.947 581.72 708.579 580.136C707.139 578.552 705.483 577.328 703.539 576.32C701.595 575.384 699.507 574.88 697.203 574.88H674.955V626ZM683.019 601.088V582.008H696.699C697.707 582.008 698.715 582.296 699.723 582.8C700.731 583.304 701.595 583.952 702.315 584.816C703.035 585.68 703.683 586.688 704.115 587.84C704.547 588.992 704.835 590.216 704.835 591.512C704.835 592.808 704.619 594.032 704.259 595.184C703.827 596.336 703.323 597.416 702.675 598.28C701.955 599.144 701.163 599.864 700.227 600.368C699.291 600.872 698.283 601.088 697.131 601.088H683.019ZM743.797 626.36C747.253 626.36 750.493 625.712 753.517 624.272C756.541 622.832 759.133 620.96 761.365 618.584C763.525 616.208 765.253 613.472 766.477 610.304C767.701 607.208 768.349 603.968 768.349 600.512C768.349 597.344 767.701 594.176 766.549 591.08C765.397 587.984 763.741 585.176 761.581 582.728C759.421 580.28 756.901 578.336 753.877 576.824C750.853 575.312 747.541 574.52 743.941 574.52C740.341 574.52 737.101 575.24 734.077 576.68C731.053 578.12 728.461 579.992 726.301 582.368C724.141 584.816 722.413 587.552 721.189 590.648C719.893 593.816 719.317 597.056 719.317 600.44C719.317 603.752 719.893 606.92 721.045 610.016C722.197 613.184 723.925 615.92 726.085 618.368C728.245 620.816 730.765 622.76 733.789 624.2C736.813 625.64 740.125 626.36 743.797 626.36ZM727.525 600.44C727.525 598.136 727.885 595.904 728.605 593.672C729.325 591.44 730.405 589.424 731.845 587.696C733.213 585.968 734.941 584.6 736.957 583.52C738.973 582.44 741.277 581.864 743.869 581.864C746.317 581.864 748.477 582.44 750.493 583.448C752.509 584.456 754.165 585.824 755.605 587.552C757.045 589.28 758.125 591.224 758.917 593.456C759.637 595.688 760.069 597.992 760.069 600.44C760.069 602.744 759.709 605.048 758.989 607.208C758.269 609.44 757.189 611.456 755.821 613.184C754.381 614.984 752.725 616.424 750.709 617.504C748.693 618.584 746.461 619.088 743.869 619.088C741.349 619.088 739.117 618.584 737.101 617.576C735.085 616.568 733.357 615.128 731.917 613.4C730.477 611.672 729.397 609.728 728.677 607.424C727.885 605.192 727.525 602.888 727.525 600.44ZM771.07 617L769.126 623.624C772.15 625.784 775.894 626.792 780.214 626.792C784.246 626.792 787.414 626.216 789.862 624.92C792.238 623.696 794.038 621.968 795.334 619.664C796.558 617.432 797.35 614.696 797.782 611.528C798.142 608.36 798.358 604.76 798.358 600.872V574.88H790.222V600.872C790.222 603.968 790.078 606.704 789.862 609.008C789.646 611.312 789.214 613.256 788.494 614.84C787.774 616.424 786.766 617.576 785.47 618.368C784.174 619.16 782.374 619.52 780.214 619.52C778.126 619.52 776.254 619.304 774.67 618.728C773.086 618.152 771.862 617.576 771.07 617ZM844.387 618.872H817.387V603.248H840.211V596.552H817.387V582.008H843.739V574.88H809.323V626H844.387V618.872ZM848.411 600.08C848.411 603.392 848.987 606.56 850.211 609.728C851.363 612.896 853.091 615.704 855.251 618.152C857.411 620.6 859.931 622.616 862.955 624.128C865.907 625.712 869.219 626.432 872.819 626.432C874.835 626.432 876.851 626.216 878.939 625.64C881.027 625.136 883.043 624.344 884.915 623.336C886.787 622.328 888.443 621.104 889.955 619.664C891.395 618.224 892.547 616.496 893.411 614.552L886.715 610.736C885.995 612.248 885.131 613.544 884.123 614.552C883.115 615.632 881.963 616.496 880.739 617.216C879.515 617.936 878.219 618.44 876.923 618.728C875.627 619.016 874.331 619.16 873.107 619.16C870.659 619.16 868.499 618.656 866.483 617.648C864.467 616.64 862.667 615.2 861.227 613.472C859.787 611.744 858.635 609.8 857.843 607.496C856.979 605.264 856.619 602.888 856.619 600.368C856.619 598.208 856.907 595.976 857.627 593.744C858.347 591.584 859.355 589.568 860.723 587.768C862.091 586.04 863.819 584.6 865.835 583.52C867.851 582.44 870.155 581.864 872.891 581.864C874.043 581.864 875.339 582.008 876.635 582.296C877.931 582.584 879.155 583.016 880.379 583.592C881.531 584.24 882.683 585.104 883.691 586.112C884.699 587.192 885.563 588.488 886.283 590L892.619 585.752C890.891 582.44 888.443 579.776 885.131 577.688C881.819 575.672 877.787 574.592 873.179 574.592C869.291 574.592 865.763 575.384 862.739 576.824C859.643 578.336 857.051 580.28 854.891 582.728C852.731 585.176 851.147 587.912 850.067 590.936C848.915 593.96 848.411 597.056 848.411 600.08ZM937.889 582.008V574.88H895.697V582.008H912.761V626H920.897V582.008H937.889ZM974.984 586.904L978.656 580.28C976.424 578.696 973.832 577.328 970.952 576.176C968 575.096 964.832 574.52 961.376 574.52C958.712 574.52 956.264 574.88 954.032 575.528C951.728 576.248 949.784 577.256 948.128 578.552C946.472 579.848 945.176 581.504 944.24 583.448C943.232 585.392 942.8 587.624 942.8 590.072C942.8 592.088 943.088 593.816 943.736 595.256C944.384 596.696 945.32 597.92 946.616 598.928C947.84 600.008 949.424 600.944 951.296 601.664C953.168 602.384 955.4 603.104 957.992 603.752C960.152 604.328 962.168 604.904 963.896 605.408C965.624 605.984 967.064 606.56 968.288 607.208C969.44 607.856 970.376 608.576 971.024 609.44C971.672 610.304 972.032 611.384 972.032 612.68C972.032 614.84 971.168 616.496 969.44 617.576C967.712 618.728 965.264 619.232 962.096 619.232C960.08 619.232 958.208 619.016 956.408 618.584C954.536 618.152 952.88 617.576 951.296 616.928C949.712 616.28 948.344 615.56 947.192 614.768C946.04 614.048 945.104 613.328 944.528 612.68L940.856 619.592C943.736 621.896 947.048 623.624 950.648 624.776C954.248 625.928 958.064 626.504 961.952 626.504C964.544 626.504 966.92 626.288 969.224 625.712C971.456 625.136 973.4 624.272 975.128 623.12C976.856 621.968 978.152 620.384 979.16 618.512C980.168 616.64 980.672 614.408 980.672 611.816C980.672 609.512 980.24 607.568 979.448 605.984C978.656 604.4 977.576 603.032 976.136 601.88C974.696 600.8 972.896 599.864 970.808 599.072C968.72 598.352 966.416 597.632 963.824 596.984C961.664 596.48 959.864 595.976 958.28 595.544C956.696 595.112 955.328 594.536 954.32 593.96C953.24 593.384 952.448 592.664 951.944 591.872C951.44 591.08 951.224 590.072 951.224 588.776C951.224 586.616 952.016 584.888 953.6 583.592C955.184 582.368 957.704 581.72 961.16 581.72C962.672 581.72 964.184 581.936 965.624 582.224C967.064 582.584 968.432 583.016 969.656 583.52C970.88 584.096 971.96 584.672 972.896 585.248C973.76 585.824 974.48 586.4 974.984 586.904Z" fill="white"/>
<path d="M215.094 1196.14C216.438 1196.14 217.698 1195.89 218.874 1195.33C220.05 1194.77 221.058 1194.04 221.926 1193.12C222.766 1192.19 223.438 1191.13 223.914 1189.9C224.39 1188.69 224.642 1187.43 224.642 1186.09C224.642 1184.86 224.39 1183.62 223.942 1182.42C223.494 1181.22 222.85 1180.12 222.01 1179.17C221.17 1178.22 220.19 1177.46 219.014 1176.88C217.838 1176.29 216.55 1175.98 215.15 1175.98C213.75 1175.98 212.49 1176.26 211.314 1176.82C210.138 1177.38 209.13 1178.11 208.29 1179.03C207.45 1179.98 206.778 1181.05 206.302 1182.25C205.798 1183.48 205.574 1184.74 205.574 1186.06C205.574 1187.35 205.798 1188.58 206.246 1189.78C206.694 1191.02 207.366 1192.08 208.206 1193.03C209.046 1193.98 210.026 1194.74 211.202 1195.3C212.378 1195.86 213.666 1196.14 215.094 1196.14ZM208.766 1186.06C208.766 1185.16 208.906 1184.3 209.186 1183.43C209.466 1182.56 209.886 1181.78 210.446 1181.1C210.978 1180.43 211.65 1179.9 212.434 1179.48C213.218 1179.06 214.114 1178.84 215.122 1178.84C216.074 1178.84 216.914 1179.06 217.698 1179.45C218.482 1179.84 219.126 1180.38 219.686 1181.05C220.246 1181.72 220.666 1182.48 220.974 1183.34C221.254 1184.21 221.422 1185.11 221.422 1186.06C221.422 1186.96 221.282 1187.85 221.002 1188.69C220.722 1189.56 220.302 1190.34 219.77 1191.02C219.21 1191.72 218.566 1192.28 217.782 1192.7C216.998 1193.12 216.13 1193.31 215.122 1193.31C214.142 1193.31 213.274 1193.12 212.49 1192.72C211.706 1192.33 211.034 1191.77 210.474 1191.1C209.914 1190.43 209.494 1189.67 209.214 1188.78C208.906 1187.91 208.766 1187.01 208.766 1186.06ZM227.888 1196H231.024V1189.08H235.616L239.928 1196H243.484L238.808 1188.44C239.368 1188.27 239.9 1187.99 240.404 1187.6C240.88 1187.21 241.3 1186.76 241.636 1186.23C241.972 1185.72 242.224 1185.14 242.42 1184.52C242.588 1183.9 242.7 1183.26 242.7 1182.59C242.7 1181.8 242.532 1181.02 242.224 1180.24C241.916 1179.45 241.496 1178.78 240.964 1178.16C240.404 1177.55 239.76 1177.07 239.004 1176.68C238.248 1176.32 237.436 1176.12 236.54 1176.12H227.888V1196ZM231.024 1186.31V1178.89H236.344C236.736 1178.89 237.128 1179 237.52 1179.2C237.912 1179.4 238.248 1179.65 238.528 1179.98C238.808 1180.32 239.06 1180.71 239.228 1181.16C239.396 1181.61 239.508 1182.08 239.508 1182.59C239.508 1183.09 239.424 1183.57 239.284 1184.02C239.116 1184.46 238.92 1184.88 238.668 1185.22C238.388 1185.56 238.08 1185.84 237.716 1186.03C237.352 1186.23 236.96 1186.31 236.512 1186.31H231.024ZM260.316 1193.54V1196H262.948V1185.95H256.144V1188.27H260.316V1190.4C259.476 1191.41 258.58 1192.16 257.656 1192.61C256.732 1193.09 255.78 1193.31 254.772 1193.31C253.848 1193.31 253.008 1193.14 252.224 1192.75C251.44 1192.36 250.74 1191.86 250.18 1191.18C249.62 1190.54 249.172 1189.78 248.836 1188.89C248.5 1188.02 248.36 1187.07 248.36 1186.06C248.36 1185.11 248.5 1184.21 248.78 1183.32C249.06 1182.45 249.48 1181.69 250.04 1181.02C250.572 1180.35 251.216 1179.82 252 1179.42C252.756 1179.03 253.596 1178.81 254.548 1178.81C255.668 1178.81 256.732 1179.09 257.684 1179.62C258.636 1180.18 259.364 1180.99 259.924 1182.06L262.332 1180.32C261.66 1179.03 260.708 1177.97 259.42 1177.18C258.132 1176.4 256.536 1175.98 254.632 1175.98C253.26 1175.98 252 1176.26 250.852 1176.79C249.676 1177.32 248.696 1178.05 247.856 1178.95C247.016 1179.87 246.344 1180.94 245.868 1182.14C245.392 1183.37 245.168 1184.63 245.168 1185.98C245.168 1187.32 245.392 1188.61 245.868 1189.84C246.344 1191.07 247.016 1192.16 247.856 1193.09C248.696 1194.04 249.676 1194.77 250.824 1195.33C251.944 1195.89 253.176 1196.14 254.52 1196.14C256.704 1196.14 258.636 1195.27 260.316 1193.54ZM272.377 1176.12L264.481 1196H267.813L269.885 1190.6H277.557L279.657 1196H282.961L275.121 1176.12H272.377ZM276.941 1188.27H270.445L273.749 1179.73L276.941 1188.27ZM288.556 1182L299.812 1196H302.416V1176.15H299.252V1190.46L287.884 1176.12H285.42V1196H288.556V1182ZM306.885 1196H310.021V1176.12H306.885V1196ZM313.141 1193.59V1196H328.905V1193.23H317.089L328.877 1178.53V1176.12H313.421V1178.89H325.209L313.141 1193.59ZM345.759 1193.23H335.259V1187.15H344.135V1184.55H335.259V1178.89H345.507V1176.12H332.123V1196H345.759V1193.23ZM348.994 1196H356.05C357.506 1196 358.85 1195.78 360.054 1195.3C361.23 1194.82 362.266 1194.15 363.106 1193.28C363.946 1192.42 364.59 1191.38 365.038 1190.15C365.486 1188.92 365.738 1187.54 365.738 1186.03C365.738 1184.69 365.514 1183.4 365.122 1182.2C364.702 1180.99 364.086 1179.93 363.274 1179.03C362.462 1178.14 361.454 1177.44 360.25 1176.9C359.046 1176.4 357.646 1176.12 356.05 1176.12H348.994V1196ZM362.546 1186.03C362.546 1187.07 362.406 1188.02 362.126 1188.89C361.846 1189.78 361.426 1190.54 360.866 1191.18C360.306 1191.83 359.634 1192.33 358.822 1192.7C358.01 1193.06 357.086 1193.23 356.05 1193.23H352.13V1178.89H356.05C357.058 1178.89 357.982 1179.09 358.794 1179.42C359.578 1179.79 360.278 1180.29 360.838 1180.91C361.398 1181.52 361.818 1182.28 362.098 1183.15C362.378 1184.04 362.546 1185 362.546 1186.03ZM368.349 1198.72H369.805L370.785 1195.83V1192.42H368.013V1195.83H369.021L368.349 1198.72ZM381.642 1196H384.778V1187.43H393.234V1184.83H384.778V1178.89H394.886V1176.12H381.642V1196ZM401.522 1176.12L393.626 1196H396.958L399.03 1190.6H406.702L408.802 1196H412.106L404.266 1176.12H401.522ZM406.086 1188.27H399.59L402.894 1179.73L406.086 1188.27ZM426.023 1180.8L427.451 1178.22C426.583 1177.6 425.575 1177.07 424.455 1176.62C423.307 1176.2 422.075 1175.98 420.731 1175.98C419.695 1175.98 418.743 1176.12 417.875 1176.37C416.979 1176.65 416.223 1177.04 415.579 1177.55C414.935 1178.05 414.431 1178.7 414.067 1179.45C413.675 1180.21 413.507 1181.08 413.507 1182.03C413.507 1182.81 413.619 1183.48 413.871 1184.04C414.123 1184.6 414.487 1185.08 414.991 1185.47C415.467 1185.89 416.083 1186.26 416.811 1186.54C417.539 1186.82 418.407 1187.1 419.415 1187.35C420.255 1187.57 421.039 1187.8 421.711 1187.99C422.383 1188.22 422.943 1188.44 423.419 1188.69C423.867 1188.94 424.231 1189.22 424.483 1189.56C424.735 1189.9 424.875 1190.32 424.875 1190.82C424.875 1191.66 424.539 1192.3 423.867 1192.72C423.195 1193.17 422.243 1193.37 421.011 1193.37C420.227 1193.37 419.499 1193.28 418.799 1193.12C418.071 1192.95 417.427 1192.72 416.811 1192.47C416.195 1192.22 415.663 1191.94 415.215 1191.63C414.767 1191.35 414.403 1191.07 414.179 1190.82L412.751 1193.51C413.871 1194.4 415.159 1195.08 416.559 1195.52C417.959 1195.97 419.443 1196.2 420.955 1196.2C421.963 1196.2 422.887 1196.11 423.783 1195.89C424.651 1195.66 425.407 1195.33 426.079 1194.88C426.751 1194.43 427.255 1193.82 427.647 1193.09C428.039 1192.36 428.235 1191.49 428.235 1190.48C428.235 1189.59 428.067 1188.83 427.759 1188.22C427.451 1187.6 427.031 1187.07 426.471 1186.62C425.911 1186.2 425.211 1185.84 424.399 1185.53C423.587 1185.25 422.691 1184.97 421.683 1184.72C420.843 1184.52 420.143 1184.32 419.527 1184.16C418.911 1183.99 418.379 1183.76 417.987 1183.54C417.567 1183.32 417.259 1183.04 417.063 1182.73C416.867 1182.42 416.783 1182.03 416.783 1181.52C416.783 1180.68 417.091 1180.01 417.707 1179.51C418.323 1179.03 419.303 1178.78 420.647 1178.78C421.235 1178.78 421.823 1178.86 422.383 1178.98C422.943 1179.12 423.475 1179.28 423.951 1179.48C424.427 1179.7 424.847 1179.93 425.211 1180.15C425.547 1180.38 425.827 1180.6 426.023 1180.8ZM445.832 1178.89V1176.12H429.424V1178.89H436.06V1196H439.224V1178.89H445.832ZM446.278 1198.72H447.734L448.714 1195.83V1192.42H445.942V1195.83H446.95L446.278 1198.72ZM473.208 1193.23H462.708V1187.15H471.584V1184.55H462.708V1178.89H472.956V1176.12H459.572V1196H473.208V1193.23ZM476.443 1196H479.579V1187.43H488.035V1184.83H479.579V1178.89H489.687V1176.12H476.443V1196ZM492.658 1196H495.794V1187.43H504.25V1184.83H495.794V1178.89H505.902V1176.12H492.658V1196ZM508.873 1196H512.009V1176.12H508.873V1196ZM515.242 1185.92C515.242 1187.21 515.466 1188.44 515.942 1189.67C516.39 1190.9 517.062 1192 517.902 1192.95C518.742 1193.9 519.722 1194.68 520.898 1195.27C522.046 1195.89 523.334 1196.17 524.734 1196.17C525.518 1196.17 526.302 1196.08 527.114 1195.86C527.926 1195.66 528.71 1195.36 529.438 1194.96C530.166 1194.57 530.81 1194.1 531.398 1193.54C531.958 1192.98 532.406 1192.3 532.742 1191.55L530.138 1190.06C529.858 1190.65 529.522 1191.16 529.13 1191.55C528.738 1191.97 528.29 1192.3 527.814 1192.58C527.338 1192.86 526.834 1193.06 526.33 1193.17C525.826 1193.28 525.322 1193.34 524.846 1193.34C523.894 1193.34 523.054 1193.14 522.27 1192.75C521.486 1192.36 520.786 1191.8 520.226 1191.13C519.666 1190.46 519.218 1189.7 518.91 1188.8C518.574 1187.94 518.434 1187.01 518.434 1186.03C518.434 1185.19 518.546 1184.32 518.826 1183.46C519.106 1182.62 519.498 1181.83 520.03 1181.13C520.562 1180.46 521.234 1179.9 522.018 1179.48C522.802 1179.06 523.698 1178.84 524.762 1178.84C525.21 1178.84 525.714 1178.89 526.218 1179C526.722 1179.12 527.198 1179.28 527.674 1179.51C528.122 1179.76 528.57 1180.1 528.962 1180.49C529.354 1180.91 529.69 1181.41 529.97 1182L532.434 1180.35C531.762 1179.06 530.81 1178.02 529.522 1177.21C528.234 1176.43 526.666 1176.01 524.874 1176.01C523.362 1176.01 521.99 1176.32 520.814 1176.88C519.61 1177.46 518.602 1178.22 517.762 1179.17C516.922 1180.12 516.306 1181.19 515.886 1182.36C515.438 1183.54 515.242 1184.74 515.242 1185.92ZM535.642 1196H538.778V1176.12H535.642V1196ZM556.907 1193.23H546.407V1187.15H555.283V1184.55H546.407V1178.89H556.655V1176.12H543.271V1196H556.907V1193.23ZM563.278 1182L574.534 1196H577.138V1176.15H573.974V1190.46L562.606 1176.12H560.142V1196H563.278V1182ZM596.195 1178.89V1176.12H579.787V1178.89H586.423V1196H589.587V1178.89H596.195ZM596.306 1196H598.854V1192.42H596.306V1196ZM608.457 1185.92C608.457 1187.21 608.681 1188.44 609.157 1189.67C609.605 1190.9 610.277 1192 611.117 1192.95C611.957 1193.9 612.937 1194.68 614.113 1195.27C615.261 1195.89 616.549 1196.17 617.949 1196.17C618.733 1196.17 619.517 1196.08 620.329 1195.86C621.141 1195.66 621.925 1195.36 622.653 1194.96C623.381 1194.57 624.025 1194.1 624.613 1193.54C625.173 1192.98 625.621 1192.3 625.957 1191.55L623.353 1190.06C623.073 1190.65 622.737 1191.16 622.345 1191.55C621.953 1191.97 621.505 1192.3 621.029 1192.58C620.553 1192.86 620.049 1193.06 619.545 1193.17C619.041 1193.28 618.537 1193.34 618.061 1193.34C617.109 1193.34 616.269 1193.14 615.485 1192.75C614.701 1192.36 614.001 1191.8 613.441 1191.13C612.881 1190.46 612.433 1189.7 612.125 1188.8C611.789 1187.94 611.649 1187.01 611.649 1186.03C611.649 1185.19 611.761 1184.32 612.041 1183.46C612.321 1182.62 612.713 1181.83 613.245 1181.13C613.777 1180.46 614.449 1179.9 615.233 1179.48C616.017 1179.06 616.913 1178.84 617.977 1178.84C618.425 1178.84 618.929 1178.89 619.433 1179C619.937 1179.12 620.413 1179.28 620.889 1179.51C621.337 1179.76 621.785 1180.1 622.177 1180.49C622.569 1180.91 622.905 1181.41 623.185 1182L625.649 1180.35C624.977 1179.06 624.025 1178.02 622.737 1177.21C621.449 1176.43 619.881 1176.01 618.089 1176.01C616.577 1176.01 615.205 1176.32 614.029 1176.88C612.825 1177.46 611.817 1178.22 610.977 1179.17C610.137 1180.12 609.521 1181.19 609.101 1182.36C608.653 1183.54 608.457 1184.74 608.457 1185.92ZM640.617 1180.8L642.045 1178.22C641.177 1177.6 640.169 1177.07 639.049 1176.62C637.901 1176.2 636.669 1175.98 635.325 1175.98C634.289 1175.98 633.337 1176.12 632.469 1176.37C631.573 1176.65 630.817 1177.04 630.173 1177.55C629.529 1178.05 629.025 1178.7 628.661 1179.45C628.269 1180.21 628.101 1181.08 628.101 1182.03C628.101 1182.81 628.213 1183.48 628.465 1184.04C628.717 1184.6 629.081 1185.08 629.585 1185.47C630.061 1185.89 630.677 1186.26 631.405 1186.54C632.133 1186.82 633.001 1187.1 634.009 1187.35C634.849 1187.57 635.633 1187.8 636.305 1187.99C636.977 1188.22 637.537 1188.44 638.013 1188.69C638.461 1188.94 638.825 1189.22 639.077 1189.56C639.329 1189.9 639.469 1190.32 639.469 1190.82C639.469 1191.66 639.133 1192.3 638.461 1192.72C637.789 1193.17 636.837 1193.37 635.605 1193.37C634.821 1193.37 634.093 1193.28 633.393 1193.12C632.665 1192.95 632.021 1192.72 631.405 1192.47C630.789 1192.22 630.257 1191.94 629.809 1191.63C629.361 1191.35 628.997 1191.07 628.773 1190.82L627.345 1193.51C628.465 1194.4 629.753 1195.08 631.153 1195.52C632.553 1195.97 634.037 1196.2 635.549 1196.2C636.557 1196.2 637.481 1196.11 638.377 1195.89C639.245 1195.66 640.001 1195.33 640.673 1194.88C641.345 1194.43 641.849 1193.82 642.241 1193.09C642.633 1192.36 642.829 1191.49 642.829 1190.48C642.829 1189.59 642.661 1188.83 642.353 1188.22C642.045 1187.6 641.625 1187.07 641.065 1186.62C640.505 1186.2 639.805 1185.84 638.993 1185.53C638.181 1185.25 637.285 1184.97 636.277 1184.72C635.437 1184.52 634.737 1184.32 634.121 1184.16C633.505 1183.99 632.973 1183.76 632.581 1183.54C632.161 1183.32 631.853 1183.04 631.657 1182.73C631.461 1182.42 631.377 1182.03 631.377 1181.52C631.377 1180.68 631.685 1180.01 632.301 1179.51C632.917 1179.03 633.897 1178.78 635.241 1178.78C635.829 1178.78 636.417 1178.86 636.977 1178.98C637.537 1179.12 638.069 1179.28 638.545 1179.48C639.021 1179.7 639.441 1179.93 639.805 1180.15C640.141 1180.38 640.421 1180.6 640.617 1180.8ZM657.734 1180.8L659.162 1178.22C658.294 1177.6 657.286 1177.07 656.166 1176.62C655.018 1176.2 653.786 1175.98 652.442 1175.98C651.406 1175.98 650.454 1176.12 649.586 1176.37C648.69 1176.65 647.934 1177.04 647.29 1177.55C646.646 1178.05 646.142 1178.7 645.778 1179.45C645.386 1180.21 645.218 1181.08 645.218 1182.03C645.218 1182.81 645.33 1183.48 645.582 1184.04C645.834 1184.6 646.198 1185.08 646.702 1185.47C647.178 1185.89 647.794 1186.26 648.522 1186.54C649.25 1186.82 650.118 1187.1 651.126 1187.35C651.966 1187.57 652.75 1187.8 653.422 1187.99C654.094 1188.22 654.654 1188.44 655.13 1188.69C655.578 1188.94 655.942 1189.22 656.194 1189.56C656.446 1189.9 656.586 1190.32 656.586 1190.82C656.586 1191.66 656.25 1192.3 655.578 1192.72C654.906 1193.17 653.954 1193.37 652.722 1193.37C651.938 1193.37 651.21 1193.28 650.51 1193.12C649.782 1192.95 649.138 1192.72 648.522 1192.47C647.906 1192.22 647.374 1191.94 646.926 1191.63C646.478 1191.35 646.114 1191.07 645.89 1190.82L644.462 1193.51C645.582 1194.4 646.87 1195.08 648.27 1195.52C649.67 1195.97 651.154 1196.2 652.666 1196.2C653.674 1196.2 654.598 1196.11 655.494 1195.89C656.362 1195.66 657.118 1195.33 657.79 1194.88C658.462 1194.43 658.966 1193.82 659.358 1193.09C659.75 1192.36 659.946 1191.49 659.946 1190.48C659.946 1189.59 659.778 1188.83 659.47 1188.22C659.162 1187.6 658.742 1187.07 658.182 1186.62C657.622 1186.2 656.922 1185.84 656.11 1185.53C655.298 1185.25 654.402 1184.97 653.394 1184.72C652.554 1184.52 651.854 1184.32 651.238 1184.16C650.622 1183.99 650.09 1183.76 649.698 1183.54C649.278 1183.32 648.97 1183.04 648.774 1182.73C648.578 1182.42 648.494 1182.03 648.494 1181.52C648.494 1180.68 648.802 1180.01 649.418 1179.51C650.034 1179.03 651.014 1178.78 652.358 1178.78C652.946 1178.78 653.534 1178.86 654.094 1178.98C654.654 1179.12 655.186 1179.28 655.662 1179.48C656.138 1179.7 656.558 1179.93 656.922 1180.15C657.258 1180.38 657.538 1180.6 657.734 1180.8ZM670.01 1196H677.066C678.522 1196 679.866 1195.78 681.07 1195.3C682.246 1194.82 683.282 1194.15 684.122 1193.28C684.962 1192.42 685.606 1191.38 686.054 1190.15C686.502 1188.92 686.754 1187.54 686.754 1186.03C686.754 1184.69 686.53 1183.4 686.138 1182.2C685.718 1180.99 685.102 1179.93 684.29 1179.03C683.478 1178.14 682.47 1177.44 681.266 1176.9C680.062 1176.4 678.662 1176.12 677.066 1176.12H670.01V1196ZM683.562 1186.03C683.562 1187.07 683.422 1188.02 683.142 1188.89C682.862 1189.78 682.442 1190.54 681.882 1191.18C681.322 1191.83 680.65 1192.33 679.838 1192.7C679.026 1193.06 678.102 1193.23 677.066 1193.23H673.146V1178.89H677.066C678.074 1178.89 678.998 1179.09 679.81 1179.42C680.594 1179.79 681.294 1180.29 681.854 1180.91C682.414 1181.52 682.834 1182.28 683.114 1183.15C683.394 1184.04 683.562 1185 683.562 1186.03ZM698.313 1196.14C699.657 1196.14 700.917 1195.89 702.093 1195.33C703.269 1194.77 704.276 1194.04 705.145 1193.12C705.985 1192.19 706.657 1191.13 707.133 1189.9C707.609 1188.69 707.861 1187.43 707.861 1186.09C707.861 1184.86 707.609 1183.62 707.161 1182.42C706.713 1181.22 706.069 1180.12 705.229 1179.17C704.389 1178.22 703.409 1177.46 702.233 1176.88C701.057 1176.29 699.769 1175.98 698.369 1175.98C696.969 1175.98 695.709 1176.26 694.533 1176.82C693.357 1177.38 692.349 1178.11 691.508 1179.03C690.669 1179.98 689.997 1181.05 689.521 1182.25C689.017 1183.48 688.793 1184.74 688.793 1186.06C688.793 1187.35 689.017 1188.58 689.465 1189.78C689.913 1191.02 690.585 1192.08 691.425 1193.03C692.265 1193.98 693.245 1194.74 694.421 1195.3C695.597 1195.86 696.885 1196.14 698.313 1196.14ZM691.985 1186.06C691.985 1185.16 692.125 1184.3 692.405 1183.43C692.685 1182.56 693.105 1181.78 693.665 1181.1C694.197 1180.43 694.869 1179.9 695.653 1179.48C696.437 1179.06 697.333 1178.84 698.341 1178.84C699.293 1178.84 700.133 1179.06 700.917 1179.45C701.701 1179.84 702.345 1180.38 702.905 1181.05C703.465 1181.72 703.885 1182.48 704.193 1183.34C704.473 1184.21 704.641 1185.11 704.641 1186.06C704.641 1186.96 704.501 1187.85 704.221 1188.69C703.941 1189.56 703.521 1190.34 702.989 1191.02C702.429 1191.72 701.785 1192.28 701.001 1192.7C700.217 1193.12 699.349 1193.31 698.341 1193.31C697.361 1193.31 696.493 1193.12 695.709 1192.72C694.925 1192.33 694.253 1191.77 693.693 1191.1C693.133 1190.43 692.713 1189.67 692.433 1188.78C692.125 1187.91 691.985 1187.01 691.985 1186.06ZM714.243 1182L725.499 1196H728.103V1176.15H724.939V1190.46L713.571 1176.12H711.107V1196H714.243V1182ZM746.208 1193.23H735.708V1187.15H744.584V1184.55H735.708V1178.89H745.956V1176.12H732.572V1196H746.208V1193.23ZM756.361 1196H759.497V1189.08H764.089L768.401 1196H771.957L767.281 1188.44C767.841 1188.27 768.373 1187.99 768.877 1187.6C769.353 1187.21 769.773 1186.76 770.109 1186.23C770.445 1185.72 770.697 1185.14 770.893 1184.52C771.061 1183.9 771.173 1183.26 771.173 1182.59C771.173 1181.8 771.005 1181.02 770.697 1180.24C770.389 1179.45 769.969 1178.78 769.437 1178.16C768.877 1177.55 768.233 1177.07 767.477 1176.68C766.721 1176.32 765.909 1176.12 765.013 1176.12H756.361V1196ZM759.497 1186.31V1178.89H764.817C765.209 1178.89 765.601 1179 765.993 1179.2C766.385 1179.4 766.721 1179.65 767.001 1179.98C767.281 1180.32 767.533 1180.71 767.701 1181.16C767.869 1181.61 767.981 1182.08 767.981 1182.59C767.981 1183.09 767.897 1183.57 767.757 1184.02C767.589 1184.46 767.393 1184.88 767.141 1185.22C766.861 1185.56 766.553 1185.84 766.189 1186.03C765.825 1186.23 765.433 1186.31 764.985 1186.31H759.497ZM774.873 1196H778.009V1176.12H774.873V1196ZM796.418 1193.54V1196H799.05V1185.95H792.246V1188.27H796.418V1190.4C795.578 1191.41 794.682 1192.16 793.758 1192.61C792.834 1193.09 791.882 1193.31 790.874 1193.31C789.95 1193.31 789.11 1193.14 788.326 1192.75C787.542 1192.36 786.842 1191.86 786.282 1191.18C785.722 1190.54 785.274 1189.78 784.938 1188.89C784.602 1188.02 784.462 1187.07 784.462 1186.06C784.462 1185.11 784.602 1184.21 784.882 1183.32C785.162 1182.45 785.582 1181.69 786.142 1181.02C786.674 1180.35 787.318 1179.82 788.102 1179.42C788.858 1179.03 789.698 1178.81 790.65 1178.81C791.77 1178.81 792.834 1179.09 793.786 1179.62C794.738 1180.18 795.466 1180.99 796.026 1182.06L798.434 1180.32C797.762 1179.03 796.81 1177.97 795.522 1177.18C794.234 1176.4 792.638 1175.98 790.734 1175.98C789.362 1175.98 788.102 1176.26 786.954 1176.79C785.778 1177.32 784.798 1178.05 783.958 1178.95C783.118 1179.87 782.446 1180.94 781.97 1182.14C781.494 1183.37 781.27 1184.63 781.27 1185.98C781.27 1187.32 781.494 1188.61 781.97 1189.84C782.446 1191.07 783.118 1192.16 783.958 1193.09C784.798 1194.04 785.778 1194.77 786.926 1195.33C788.046 1195.89 789.278 1196.14 790.622 1196.14C792.806 1196.14 794.738 1195.27 796.418 1193.54ZM818.951 1176.12H815.787V1184.44H805.763V1176.12H802.627V1196H805.763V1187.24H815.787V1196H818.951V1176.12ZM838.023 1178.89V1176.12H821.615V1178.89H828.251V1196H831.415V1178.89H838.023ZM840.885 1188.92H843.965V1175.92H840.885V1188.92ZM840.885 1196H843.965V1192.16H840.885V1196Z" fill="white"/>
<path d="M254.634 1069.89V1069.54V1069.51C255.618 1069.62 256.109 1069.77 256.109 1069.97C255.949 1070.95 255.636 1073.51 255.171 1077.64C255.064 1078.53 254.912 1079.21 254.715 1079.68C254.268 1080.28 253.991 1081.05 253.884 1081.98C254.009 1082.07 254.733 1082.17 256.056 1082.28C256.485 1082.44 256.816 1082.52 257.048 1082.52H257.343L258.711 1082.38H259.328V1082.36C259.22 1081.27 259.131 1079.18 259.059 1076.11C258.988 1075.72 258.907 1075.49 258.818 1075.44C258.818 1075.35 259.113 1075.26 259.703 1075.17C259.703 1075.12 259.783 1075.08 259.944 1075.06C260.177 1075.06 260.32 1075.15 260.373 1075.33L260.213 1075.76C260.534 1076.28 260.695 1077.94 260.695 1080.75C260.695 1081.75 260.767 1082.25 260.91 1082.25H260.99C261.687 1082.25 262.152 1082.18 262.385 1082.04L262.572 1082.14L262.546 1082.38V1082.6L262.653 1082.79L262.626 1083.05C262.626 1083.59 262.429 1083.92 262.036 1084.05C261.643 1084.15 261.446 1084.26 261.446 1084.37H260.99C260.937 1084.37 260.91 1084.4 260.91 1084.45C261.053 1085.68 261.124 1086.84 261.124 1087.91C261.214 1088.3 261.258 1088.7 261.258 1089.12L261.473 1089.22V1089.28C261.473 1089.4 260.91 1089.64 259.783 1090C259.64 1089.87 259.453 1089.81 259.22 1089.81L259.167 1089.76C259.363 1088.44 259.462 1087.47 259.462 1086.86C259.462 1085.04 259.345 1084.13 259.113 1084.13L257.987 1084.07H255.707L254.903 1084.15C252.328 1084.12 251.041 1083.99 251.041 1083.78C250.987 1083.78 250.96 1083.76 250.96 1083.73C251.533 1083.19 251.819 1082.79 251.819 1082.52C252.087 1081.89 252.221 1081.25 252.221 1080.59C252.704 1079.25 253.052 1077.39 253.267 1075.01C253.267 1074.71 253.454 1073.45 253.83 1071.23C253.83 1070.93 253.919 1070.51 254.098 1069.97H254.125C254.232 1070.08 254.331 1070.13 254.42 1070.13H254.554L254.634 1070.02V1069.89ZM254.447 1071.12V1071.18C254.465 1071.41 254.5 1071.52 254.554 1071.52H254.608V1071.42C254.608 1071.33 254.679 1071.16 254.822 1070.91L254.903 1070.48V1070.45L254.876 1070.37H254.769C254.554 1070.37 254.447 1070.62 254.447 1071.12ZM255.037 1072.41V1072.49L255.117 1072.57C255.189 1072.52 255.224 1072.44 255.224 1072.33V1072.11H255.198C255.144 1072.11 255.09 1072.21 255.037 1072.41ZM253.562 1075.09V1075.12L253.669 1075.2H253.696L253.884 1075.17V1075.01L253.776 1074.8L253.964 1073.86H253.937C253.687 1074.39 253.562 1074.8 253.562 1075.09ZM254.634 1077.5V1077.67H254.715C254.822 1077.63 254.876 1077.55 254.876 1077.42V1077.24H254.769C254.679 1077.29 254.634 1077.38 254.634 1077.5ZM253.562 1079.81V1079.84C253.776 1079.84 253.884 1079.69 253.884 1079.41V1079.27L253.857 1079.25V1079.22C253.732 1079.22 253.633 1079.42 253.562 1079.81ZM259.73 1079.38L259.649 1079.33V1079.35V1079.54H259.73V1079.38ZM253.615 1079.94H253.454V1080.08H253.562L253.615 1080V1079.94ZM259.649 1080.11V1080.48C259.649 1080.61 259.676 1080.67 259.73 1080.67L259.783 1080.59V1080.4C259.783 1080.24 259.739 1080.14 259.649 1080.11ZM253.079 1081.42L252.999 1081.47V1081.53H253.079L253.159 1081.45V1081.42H253.079ZM252.677 1082.52L252.757 1082.63H252.838L253.24 1082.55V1082.52C253.204 1082.43 253.124 1082.38 252.999 1082.38H252.891C252.784 1082.38 252.713 1082.43 252.677 1082.52ZM262.09 1082.52L261.312 1082.6V1082.65C261.366 1082.72 261.553 1082.78 261.875 1082.81C262.018 1082.81 262.126 1082.75 262.197 1082.63V1082.55C262.197 1082.53 262.161 1082.52 262.09 1082.52ZM254.098 1082.65L254.152 1082.73L254.769 1082.65V1082.63C254.769 1082.55 254.626 1082.52 254.339 1082.52C254.179 1082.54 254.098 1082.58 254.098 1082.65ZM255.734 1083.38C256.127 1083.48 257.164 1083.54 258.845 1083.54C259.131 1083.54 259.328 1083.46 259.435 1083.3C259.435 1083.28 259.283 1083.25 258.979 1083.22C256.816 1083.23 255.734 1083.29 255.734 1083.38ZM260.883 1083.22L260.803 1083.27V1083.32L260.99 1083.48L260.856 1083.7V1083.73C260.874 1083.78 260.963 1083.81 261.124 1083.81H261.366C261.616 1083.81 261.866 1083.78 262.117 1083.73C262.117 1083.69 261.902 1083.61 261.473 1083.48C261.401 1083.31 261.241 1083.22 260.99 1083.22H260.883ZM259.837 1084.82V1084.93L259.918 1084.99L259.944 1084.93V1084.64C259.873 1084.65 259.837 1084.72 259.837 1084.82ZM260.508 1088.04C260.525 1088.22 260.57 1088.31 260.642 1088.31L260.695 1088.28V1087.96C260.695 1087.82 260.668 1087.73 260.615 1087.69C260.543 1087.69 260.508 1087.81 260.508 1088.04ZM259.757 1089.03V1089.09H259.783C259.891 1089.03 259.944 1088.94 259.944 1088.79C259.819 1088.81 259.757 1088.89 259.757 1089.03Z" fill="white"/>
<path d="M266.756 1084.93C267.31 1085 267.695 1085.14 267.909 1085.33C267.981 1085.48 268.016 1085.64 268.016 1085.82V1086.19C268.016 1086.93 267.596 1087.63 266.756 1088.31L266.407 1088.42C266.068 1088.42 265.719 1087.91 265.361 1086.89V1086.78C265.361 1086 265.478 1085.51 265.71 1085.33C266.229 1085.07 266.577 1084.93 266.756 1084.93ZM265.898 1086.11C265.934 1086.58 265.996 1086.81 266.086 1086.81C266.121 1086.77 266.202 1086.46 266.327 1085.87L266.407 1085.68V1085.6H266.381C266.059 1085.71 265.898 1085.88 265.898 1086.11ZM266.622 1086.27V1086.33C266.622 1086.51 266.658 1086.6 266.729 1086.62H266.756C266.828 1086.62 266.935 1086.43 267.078 1086.06V1085.9L266.997 1085.87H266.917C266.72 1085.87 266.622 1086 266.622 1086.27ZM267.4 1086.62L267.426 1086.67H267.561L267.587 1086.49V1086.41H267.561C267.507 1086.41 267.453 1086.48 267.4 1086.62ZM267.024 1087.16L266.032 1087.26C266.032 1087.41 266.086 1087.49 266.193 1087.51H266.488C266.702 1087.51 266.881 1087.41 267.024 1087.21V1087.16Z" fill="white"/>
<path d="M543.827 1071.74H543.88C546.651 1071.77 548.037 1071.84 548.037 1071.93C548.019 1072 547.921 1072.08 547.742 1072.17V1072.3L547.849 1072.6L547.742 1072.97V1073.03L547.769 1073.08L547.688 1073.16V1073.19L547.313 1072.92H547.232C547.232 1073.17 546.929 1073.29 546.321 1073.29L545.65 1073.19C543.272 1073.37 541.842 1073.5 541.359 1073.59C541.181 1073.77 541.002 1074.58 540.823 1076.03C540.644 1076.57 540.555 1077.04 540.555 1077.45H540.635V1077.48C541.118 1077.46 541.359 1077.37 541.359 1077.21C541.199 1077.16 541.091 1077.08 541.038 1076.97V1076.91C541.038 1076.56 541.681 1076.33 542.968 1076.24H543.156C544.104 1076.24 544.783 1076.54 545.194 1077.13C545.945 1077.59 546.517 1078.01 546.911 1078.39L547.232 1078.74V1078.76H547.206L546.616 1078.39H546.535V1078.42C546.696 1078.83 546.866 1079.04 547.045 1079.06C547.045 1079.11 547.116 1079.14 547.259 1079.14L547.527 1079.11C547.653 1079.22 547.715 1079.32 547.715 1079.41C547.536 1079.43 547.447 1079.47 547.447 1079.54C547.465 1079.67 547.644 1079.83 547.983 1080.02C548.109 1080.02 548.171 1080.37 548.171 1081.07V1082.06C548.457 1082.76 548.448 1083.41 548.144 1084.02L548.091 1084.05H548.01C547.885 1083.99 547.796 1083.84 547.742 1083.59C547.778 1083.39 547.84 1083.26 547.93 1083.19L547.822 1083.11C547.59 1083.11 547.384 1083.41 547.206 1084.02V1084.07C547.206 1084.15 547.304 1084.18 547.501 1084.18V1084.21V1084.29C547.089 1085.18 546.589 1085.87 545.999 1086.35C545.838 1086.42 545.65 1086.74 545.436 1087.29V1087.35C545.597 1087.35 546.053 1086.93 546.803 1086.11C547.125 1085.56 547.483 1085.04 547.876 1084.56L547.93 1084.58V1084.66C547.536 1085.36 547.134 1085.96 546.723 1086.46C545.418 1087.64 544.265 1088.38 543.263 1088.69C541.333 1088.88 540.072 1088.98 539.482 1088.98C539.321 1088.91 538.705 1088.85 537.632 1088.79H537.605V1088.74L537.927 1087.45C537.927 1087.01 538.177 1086.78 538.678 1086.78L538.812 1086.76C539.151 1086.95 539.33 1087.05 539.348 1087.05H539.482C539.661 1087.05 539.956 1087.02 540.367 1086.97C540.778 1086.92 541.02 1086.89 541.091 1086.89C541.663 1087.09 542.691 1086.72 544.175 1085.79C545.23 1084.95 545.892 1084.28 546.16 1083.78C546.571 1083.24 546.625 1082.63 546.321 1081.96C546.321 1080.7 546.053 1079.85 545.516 1079.38C545.355 1079.08 544.89 1078.78 544.122 1078.5C543.71 1078.25 543.29 1078.12 542.861 1078.12H542.754C542.146 1078.12 541.1 1078.39 539.616 1078.93L539.16 1079.01L539.053 1078.9V1078.79C539.143 1078.79 539.223 1078.25 539.294 1077.16C539.509 1076.8 539.688 1075.56 539.831 1073.43C539.849 1072.68 539.92 1072.3 540.045 1072.3L540.099 1072.25V1072.19L540.045 1071.93H540.099C540.188 1072 540.367 1072.03 540.635 1072.03C540.904 1072.03 541.967 1071.94 543.827 1071.74ZM546.803 1072.19V1072.25C546.839 1072.34 546.946 1072.38 547.125 1072.38H547.232C547.411 1072.38 547.501 1072.3 547.501 1072.14L547.393 1072.09H547.045C546.938 1072.09 546.857 1072.12 546.803 1072.19ZM540.367 1072.7L540.287 1072.84V1072.87L540.367 1072.97C542.548 1072.72 543.639 1072.53 543.639 1072.38H543.585C541.44 1072.54 540.367 1072.65 540.367 1072.7ZM545.194 1072.6L544.417 1072.65V1072.76L545.033 1072.78C545.302 1072.78 545.436 1072.75 545.436 1072.68C545.4 1072.62 545.32 1072.6 545.194 1072.6ZM540.474 1073.45L540.421 1073.54V1074.31L540.474 1074.37C540.528 1074.24 540.555 1074.06 540.555 1073.83V1073.54L540.501 1073.45H540.474ZM540.367 1075.22H540.287V1075.28H540.367V1075.22ZM543.156 1076.97V1077.02H543.21H543.934C544.542 1077.02 544.846 1076.99 544.846 1076.94C544.846 1076.85 544.497 1076.79 543.8 1076.75L543.156 1076.97ZM542.057 1076.97V1077.02L542.191 1077.13H542.325L542.674 1077.02V1076.94L542.191 1076.89C542.101 1076.92 542.057 1076.95 542.057 1076.97ZM543.344 1077.58C543.398 1077.75 543.585 1077.83 543.907 1077.83H544.068C544.157 1077.83 544.247 1077.77 544.336 1077.66V1077.5C544.318 1077.45 544.229 1077.42 544.068 1077.42H543.666C543.505 1077.42 543.398 1077.48 543.344 1077.58ZM540.984 1077.91V1077.93L541.091 1078.01C541.234 1078.01 541.342 1077.95 541.413 1077.83V1077.8L541.279 1077.75C541.082 1077.78 540.984 1077.83 540.984 1077.91ZM539.616 1077.96L539.482 1078.09V1078.39L539.589 1078.47H539.884V1078.39C539.884 1078.19 539.813 1078.05 539.67 1077.96H539.616ZM544.685 1078.07H544.658V1078.17L544.792 1078.28H544.846C544.864 1078.28 544.873 1078.25 544.873 1078.17C544.873 1078.1 544.81 1078.07 544.685 1078.07ZM546.857 1079.27L546.616 1079.01V1079.06C546.616 1079.2 546.678 1079.31 546.803 1079.38H546.857V1079.27ZM546.348 1079.46H546.321V1079.54L546.428 1079.62H546.455V1079.6L546.348 1079.46ZM546.616 1079.92L546.535 1079.84V1079.92L546.589 1080L546.616 1079.94V1079.92ZM546.696 1080.27H546.643V1080.4L546.723 1080.45H546.777V1080.35L546.696 1080.27ZM546.911 1080.86L546.803 1080.94V1080.99H546.964L547.018 1080.94V1080.86H546.911ZM546.911 1081.37H546.803L546.777 1081.61V1081.77L546.911 1081.63V1081.37ZM547.554 1083.97L547.608 1083.91H547.742V1083.97L547.608 1084.05H547.554V1083.97ZM547.876 1084.37L547.983 1084.26L548.091 1084.29V1084.32L547.983 1084.45L547.876 1084.4V1084.37ZM542.003 1087.45V1087.51C542.468 1087.35 543.004 1087.21 543.612 1087.1C543.988 1086.89 544.175 1086.71 544.175 1086.57L544.095 1086.46L545.489 1085.9L545.463 1085.74C545.909 1085.22 546.133 1084.89 546.133 1084.74L546.106 1084.72H546.053C545.892 1084.72 545.078 1085.32 543.612 1086.51C543.326 1086.51 542.79 1086.83 542.003 1087.45ZM540.501 1088.31V1088.39L540.609 1088.42C540.752 1088.42 541.52 1088.37 542.915 1088.28C543.076 1088.28 543.532 1088.04 544.283 1087.56C544.515 1087.38 544.631 1087.23 544.631 1087.1V1087.08L544.604 1087H544.497C544.229 1087 543.809 1087.25 543.237 1087.75C542.164 1087.98 541.413 1088.11 540.984 1088.12C540.662 1088.19 540.501 1088.26 540.501 1088.31ZM540.609 1087.37L540.287 1087.45V1087.53H540.609L540.769 1087.48V1087.37H540.609ZM544.604 1087.67L544.551 1087.75V1087.83H544.604L544.685 1087.75V1087.67H544.604ZM538.49 1088.1L538.41 1088.15C538.427 1088.22 538.49 1088.26 538.597 1088.26C538.776 1088.26 538.874 1088.22 538.892 1088.15L538.812 1088.1H538.49ZM539.08 1088.47L539.16 1088.53H539.214C539.357 1088.53 539.572 1088.47 539.858 1088.36L540.153 1088.39C540.331 1088.34 540.421 1088.25 540.421 1088.12V1088.1H540.287C539.482 1088.22 539.08 1088.35 539.08 1088.47Z" fill="white"/>
<path d="M551.791 1084.93C552.346 1085 552.73 1085.14 552.945 1085.33C553.016 1085.48 553.052 1085.64 553.052 1085.82V1086.19C553.052 1086.93 552.632 1087.63 551.791 1088.31L551.443 1088.42C551.103 1088.42 550.755 1087.91 550.397 1086.89V1086.78C550.397 1086 550.513 1085.51 550.746 1085.33C551.264 1085.07 551.613 1084.93 551.791 1084.93ZM550.933 1086.11C550.969 1086.58 551.032 1086.81 551.121 1086.81C551.157 1086.77 551.237 1086.46 551.362 1085.87L551.443 1085.68V1085.6H551.416C551.094 1085.71 550.933 1085.88 550.933 1086.11ZM551.657 1086.27V1086.33C551.657 1086.51 551.693 1086.6 551.765 1086.62H551.791C551.863 1086.62 551.97 1086.43 552.113 1086.06V1085.9L552.033 1085.87H551.952C551.756 1085.87 551.657 1086 551.657 1086.27ZM552.435 1086.62L552.462 1086.67H552.596L552.623 1086.49V1086.41H552.596C552.542 1086.41 552.489 1086.48 552.435 1086.62ZM552.06 1087.16L551.067 1087.26C551.067 1087.41 551.121 1087.49 551.228 1087.51H551.523C551.738 1087.51 551.917 1087.41 552.06 1087.21V1087.16Z" fill="white"/>
<path d="M791.496 1071.28C792.658 1071.28 793.329 1071.37 793.507 1071.55C793.364 1071.66 793.293 1071.76 793.293 1071.85V1071.9L793.4 1072.46V1072.49C793.4 1073.04 793.293 1073.32 793.078 1073.32L792.676 1073.19H792.569L791.362 1073.35L790.96 1073.32C790.727 1073.34 790.101 1073.82 789.082 1074.77L788.921 1075.01C788.546 1075.22 788.269 1075.51 788.09 1075.87C787.858 1076.1 787.554 1076.58 787.178 1077.32C787.125 1077.32 787.053 1077.47 786.964 1077.77C786.517 1078.08 786.231 1078.42 786.106 1078.82C785.981 1078.94 785.694 1079.39 785.247 1080.16C784.997 1080.48 784.818 1080.78 784.711 1081.04L784.604 1081.15V1081.18H784.738C784.809 1081.18 784.961 1080.99 785.194 1080.61C785.265 1080.61 785.703 1080.35 786.508 1079.81C787.598 1079.2 788.332 1078.9 788.707 1078.9C789.404 1078.9 790.262 1079.15 791.281 1079.65C792.211 1080.53 792.73 1081.12 792.837 1081.45C793.123 1081.64 793.329 1082.15 793.454 1082.97C793.168 1084.46 792.855 1085.5 792.515 1086.08C791.567 1087.34 791.094 1088 791.094 1088.07L791.147 1088.23C790.7 1088.61 790.361 1088.83 790.128 1088.9C788.448 1088.81 787.491 1088.75 787.259 1088.71C786.919 1088.5 786.49 1088.32 785.972 1088.18L784.818 1087.35C784.05 1086.4 783.665 1085.34 783.665 1084.18C783.594 1084.11 783.531 1083.49 783.478 1082.33C783.478 1081.94 783.692 1081.2 784.121 1080.11C784.121 1079.77 784.336 1079.16 784.765 1078.28C784.979 1077.14 785.73 1075.81 787.017 1074.31C788.716 1072.6 789.655 1071.74 789.833 1071.74C790.548 1071.43 791.103 1071.28 791.496 1071.28ZM793.025 1071.66H792.864V1071.71L792.998 1071.82H793.025L793.078 1071.74V1071.71L793.025 1071.66ZM785.435 1077.32V1077.42H785.516C785.569 1077.42 785.596 1077.35 785.596 1077.21C786.097 1076.71 786.579 1075.99 787.044 1075.06C788.546 1073.45 789.52 1072.61 789.967 1072.52C790.629 1072.19 790.96 1071.94 790.96 1071.74V1071.69H790.879C790.289 1071.79 789.708 1072.1 789.136 1072.6C787.92 1073.81 787.089 1074.69 786.642 1075.22C785.873 1076.28 785.471 1076.98 785.435 1077.32ZM791.657 1072.06V1072.11H792.086C792.265 1072.11 792.435 1072.06 792.595 1071.95V1071.79L792.515 1071.69H792.274C792.113 1071.69 791.907 1071.81 791.657 1072.06ZM792.73 1071.9L792.676 1071.98V1072.01L792.73 1072.11H792.837L792.917 1072.01V1071.98L792.837 1071.9H792.73ZM789.243 1073.35V1073.45H789.297C789.655 1073.31 790.101 1073.09 790.638 1072.78C790.888 1072.78 791.094 1072.69 791.255 1072.49V1072.46H791.174C790.924 1072.46 790.28 1072.76 789.243 1073.35ZM791.416 1072.97V1073.08H791.576C792.22 1072.88 792.542 1072.77 792.542 1072.73V1072.65L792.354 1072.62C792.068 1072.62 791.755 1072.74 791.416 1072.97ZM785.703 1077.66L785.596 1077.72L785.65 1077.83H785.677C785.784 1077.83 786.016 1077.54 786.374 1076.97C786.803 1076.41 787.25 1075.88 787.715 1075.36C787.822 1075.2 788.466 1074.63 789.646 1073.64L789.806 1073.45H789.753C789.181 1073.45 788.43 1073.9 787.5 1074.8C786.678 1075.99 786.079 1076.95 785.703 1077.66ZM784.979 1078.98V1079.14C785.194 1079.09 785.301 1078.95 785.301 1078.74V1078.71H785.14C785.033 1078.76 784.979 1078.85 784.979 1078.98ZM787.768 1079.68V1079.76H787.956C788.206 1079.61 788.805 1079.51 789.753 1079.43V1079.41C789.628 1079.28 789.422 1079.22 789.136 1079.22H788.868C788.492 1079.22 788.126 1079.37 787.768 1079.68ZM786.991 1080.16L786.427 1080.59V1080.67C786.57 1080.67 786.794 1080.52 787.098 1080.21V1080.16H786.991ZM791.684 1080.43V1080.53C791.88 1081.03 792.166 1081.37 792.542 1081.55H792.73V1081.47C792.265 1080.79 791.916 1080.44 791.684 1080.43ZM788.895 1080.48L788.814 1080.53V1080.59H788.975L789.056 1080.53L788.975 1080.48H788.895ZM790.799 1080.7H790.557V1080.78L790.638 1080.88H790.691L790.799 1080.78V1080.7ZM785.14 1082.71L785.087 1082.79C785.087 1083.72 785.453 1084.99 786.186 1086.62C787.134 1087.23 787.804 1087.53 788.197 1087.53C789.503 1087.53 790.513 1086.8 791.228 1085.33L791.335 1084.66C791.335 1083.07 791.085 1082.04 790.584 1081.55C789.905 1081.11 789.073 1080.88 788.09 1080.88C787.822 1080.97 787.214 1081.32 786.267 1081.93C785.784 1082.05 785.408 1082.31 785.14 1082.71ZM791.576 1081.61L791.147 1081.69V1081.77C791.38 1081.98 791.496 1082.19 791.496 1082.38H791.576L791.63 1081.82V1081.79L791.576 1081.61ZM784.202 1082.33V1082.44C784.202 1082.49 784.237 1082.52 784.309 1082.52C784.452 1082.52 784.658 1082.38 784.926 1082.09V1082.04L784.818 1081.93C784.568 1081.93 784.363 1082.06 784.202 1082.33ZM792.622 1082.71L792.569 1082.76V1083.27L792.73 1083.4L792.81 1083.32V1083C792.81 1082.84 792.765 1082.74 792.676 1082.71H792.622ZM791.898 1082.92H791.791L791.737 1083.05V1083.24L791.791 1083.3H791.818C791.889 1083.3 791.925 1083.19 791.925 1082.97L791.898 1082.92ZM784.336 1083.27C784.336 1083.41 784.55 1084.02 784.979 1085.09H785.006L785.06 1085.04C785.042 1084.52 784.89 1083.83 784.604 1082.97C784.425 1082.97 784.336 1083.07 784.336 1083.27ZM783.987 1083.91H783.88V1084.18L783.933 1084.26H784.041V1084.07L783.987 1083.91ZM792.354 1084.05L792.247 1084.18V1084.26L792.274 1084.45H792.301C792.408 1084.4 792.461 1084.29 792.461 1084.13L792.354 1084.05ZM791.657 1084.26L791.576 1084.37V1084.4L791.684 1084.48H791.764L791.845 1084.4V1084.37L791.791 1084.26H791.657ZM784.041 1084.45L783.933 1084.56V1084.74C784.041 1085.41 784.166 1085.74 784.309 1085.74L784.336 1085.66V1085.36C784.336 1084.75 784.237 1084.45 784.041 1084.45ZM791.925 1084.93H791.845V1084.99L791.952 1085.09H792.006V1085.04L791.925 1084.93ZM785.006 1085.74H784.899V1085.84L785.033 1085.98H785.087V1085.84L785.006 1085.74ZM791.898 1085.9L791.362 1086.62V1086.67L791.469 1086.76C791.827 1086.29 792.006 1086 792.006 1085.9H791.898ZM784.523 1086.17L784.497 1086.3C784.55 1086.39 784.586 1086.43 784.604 1086.43H784.658V1086.41C784.658 1086.28 784.613 1086.2 784.523 1086.17ZM785.301 1086.43L785.247 1086.51V1086.59C785.426 1086.88 785.614 1087.02 785.811 1087.02H785.837V1086.97C785.837 1086.9 785.668 1086.72 785.328 1086.43H785.301ZM790.691 1087.08L789.753 1087.75V1087.77L789.833 1087.83C790.137 1087.83 790.459 1087.6 790.799 1087.16V1087.08H790.691ZM786.642 1087.53C786.678 1087.64 786.722 1087.71 786.776 1087.75H786.91C787.071 1087.75 787.169 1087.69 787.205 1087.59V1087.56C787.205 1087.49 787.089 1087.44 786.857 1087.43H786.696C786.66 1087.43 786.642 1087.46 786.642 1087.53ZM787.581 1087.69H787.5V1087.77L787.581 1087.83H787.634V1087.77L787.581 1087.69ZM787.715 1087.96C787.858 1088.05 788.019 1088.1 788.197 1088.1C788.466 1088.1 788.671 1088.03 788.814 1087.91V1087.85H788.09C787.84 1087.85 787.715 1087.89 787.715 1087.96ZM790.611 1087.91L789.806 1088.31V1088.36H789.887C790.191 1088.36 790.459 1088.22 790.691 1087.94V1087.91H790.611Z" fill="white"/>
<path d="M796.886 1084.93C797.441 1085 797.825 1085.14 798.039 1085.33C798.111 1085.48 798.147 1085.64 798.147 1085.82V1086.19C798.147 1086.93 797.727 1087.63 796.886 1088.31L796.538 1088.42C796.198 1088.42 795.849 1087.91 795.492 1086.89V1086.78C795.492 1086 795.608 1085.51 795.84 1085.33C796.359 1085.07 796.708 1084.93 796.886 1084.93ZM796.028 1086.11C796.064 1086.58 796.126 1086.81 796.216 1086.81C796.252 1086.77 796.332 1086.46 796.457 1085.87L796.538 1085.68V1085.6H796.511C796.189 1085.71 796.028 1085.88 796.028 1086.11ZM796.752 1086.27V1086.33C796.752 1086.51 796.788 1086.6 796.859 1086.62H796.886C796.958 1086.62 797.065 1086.43 797.208 1086.06V1085.9L797.128 1085.87H797.047C796.851 1085.87 796.752 1086 796.752 1086.27ZM797.53 1086.62L797.557 1086.67H797.691L797.718 1086.49V1086.41H797.691C797.637 1086.41 797.584 1086.48 797.53 1086.62ZM797.154 1087.16L796.162 1087.26C796.162 1087.41 796.216 1087.49 796.323 1087.51H796.618C796.833 1087.51 797.011 1087.41 797.154 1087.21V1087.16Z" fill="white"/>
<path d="M873.415 802.629L818.608 855.026V951.7L816.718 949.797V946.721L784.037 916.889L782.07 914.908V833.818L777.805 838.253L777.66 833.818L705.215 911.166H707.675L706.475 912.413L742.383 916.78V942.354L819.238 1023.44L873.415 894.324V802.629Z" fill="black" fill-opacity="0.2"/>
<path d="M864.261 888.948V799.197L810.418 852.546V947.318L773.479 909.66V828.068L698.35 907.15L734.036 911.543V937.276L810.418 1018.87L864.261 888.948Z" fill="#E5E5E5"/>
<path fill-rule="evenodd" clip-rule="evenodd" d="M864.261 798.053V889.287L810.255 1020.01L733.406 937.661V912.276L697.206 907.805L773.909 826.812V909.585L809.427 945.909V852.556L864.261 798.053ZM810.673 853.079V948.971L772.663 910.098V829.945L699.817 906.865L734.652 911.167V937.165L809.844 1017.74L863.015 889.037V801.054L810.673 853.079Z" fill="black"/>
<path d="M864.261 884.239V796.909L809.339 849.684V1014.29L864.261 884.239Z" fill="white"/>
<path fill-rule="evenodd" clip-rule="evenodd" d="M864.261 795.765V884.466L810.525 1014.29L809.339 1014.05V849.61L864.261 795.765ZM810.573 850.142V1010.94L863.027 884.213V798.717L810.573 850.142Z" fill="black"/>
<path d="M808.194 1013.15V942.315L768.015 905.332V895.303H737.253V937.301L808.194 1013.15Z" fill="white"/>
<path fill-rule="evenodd" clip-rule="evenodd" d="M736.109 894.159H768.077V904.547L808.195 941.552V1014.29L736.109 937.056V894.159ZM737.363 895.413V936.562L806.941 1011.11V942.101L766.824 905.096V895.413H737.363Z" fill="black"/>
<path d="M771.58 905.6L769.08 828.944L697.206 905.6H771.58Z" fill="white"/>
<path fill-rule="evenodd" clip-rule="evenodd" d="M769.003 826.656L771.58 906.744H694.917L769.003 826.656ZM697.789 905.488H770.285L767.848 829.752L697.789 905.488Z" fill="black"/>
<path fill-rule="evenodd" clip-rule="evenodd" d="M737.839 936.338L772.116 904.829L772.964 905.752L738.687 937.26L737.839 936.338Z" fill="black"/>
<path fill-rule="evenodd" clip-rule="evenodd" d="M735.765 868.519L769.599 903.603L768.697 904.473L734.863 869.389L735.765 868.519Z" fill="#E5E5E5"/>
<path fill-rule="evenodd" clip-rule="evenodd" d="M770.436 911.334L771.706 911.321L772.327 970.458L806.235 942.634L807.05 943.59L771.085 973.103L770.436 911.334Z" fill="#E5E5E5"/>
<path fill-rule="evenodd" clip-rule="evenodd" d="M731.691 991.262L729.889 991.865L729.094 989.489L730.895 988.886L731.691 991.262ZM738.896 988.85L735.293 990.056L734.498 987.68L738.1 986.474L738.896 988.85ZM746.101 986.438L742.498 987.644L741.703 985.268L745.305 984.062L746.101 986.438ZM753.306 984.026L749.704 985.232L748.908 982.856L752.511 981.65L753.306 984.026ZM760.512 981.614L756.909 982.82L756.113 980.444L759.716 979.238L760.512 981.614ZM767.717 979.202L764.114 980.408L763.319 978.032L766.921 976.826L767.717 979.202ZM774.922 976.79L771.32 977.996L770.524 975.62L774.127 974.414L774.922 976.79ZM782.127 974.378L778.525 975.584L777.729 973.208L781.332 972.002L782.127 974.378ZM789.333 971.966L785.73 973.172L784.935 970.796L788.537 969.59L789.333 971.966ZM796.538 969.554L792.935 970.76L792.14 968.384L795.742 967.178L796.538 969.554ZM803.743 967.142L800.141 968.348L799.345 965.972L802.948 964.766L803.743 967.142ZM810.949 964.73L807.346 965.936L806.55 963.56L810.153 962.354L810.949 964.73ZM818.154 962.318L814.551 963.524L813.756 961.148L817.358 959.942L818.154 962.318ZM825.359 959.906L821.757 961.112L820.961 958.736L824.564 957.53L825.359 959.906ZM832.564 957.494L828.962 958.7L828.166 956.324L831.769 955.118L832.564 957.494ZM839.77 955.082L836.167 956.288L835.372 953.912L838.974 952.706L839.77 955.082ZM846.975 952.67L843.372 953.876L842.577 951.5L846.179 950.294L846.975 952.67ZM854.18 950.258L850.578 951.464L849.782 949.088L853.385 947.882L854.18 950.258ZM861.386 947.846L857.783 949.052L856.987 946.676L860.59 945.47L861.386 947.846ZM868.591 945.434L864.988 946.64L864.193 944.264L867.795 943.058L868.591 945.434ZM873.995 943.625L872.194 944.228L871.398 941.852L873.199 941.249L873.995 943.625Z" fill="black"/>
<path fill-rule="evenodd" clip-rule="evenodd" d="M699.529 854.04L697.744 853.403L698.586 851.042L700.371 851.679L699.529 854.04ZM706.672 856.587L703.101 855.313L703.943 852.953L707.514 854.227L706.672 856.587ZM713.814 859.135L710.243 857.861L711.085 855.501L714.657 856.775L713.814 859.135ZM720.957 861.683L717.386 860.409L718.228 858.049L721.799 859.322L720.957 861.683ZM728.1 864.23L724.528 862.957L725.37 860.596L728.942 861.87L728.1 864.23ZM735.242 866.778L731.671 865.504L732.513 863.144L736.084 864.418L735.242 866.778ZM742.385 869.326L738.814 868.052L739.656 865.692L743.227 866.966L742.385 869.326ZM749.528 871.874L745.956 870.6L746.798 868.239L750.37 869.513L749.528 871.874ZM756.67 874.421L753.099 873.147L753.941 870.787L757.512 872.061L756.67 874.421ZM763.813 876.969L760.241 875.695L761.083 873.335L764.655 874.609L763.813 876.969ZM770.955 879.517L767.384 878.243L768.226 875.883L771.797 877.157L770.955 879.517ZM778.098 882.065L774.527 880.791L775.369 878.43L778.94 879.704L778.098 882.065ZM785.241 884.612L781.669 883.338L782.511 880.978L786.083 882.252L785.241 884.612ZM792.383 887.16L788.812 885.886L789.654 883.526L793.225 884.8L792.383 887.16ZM799.526 889.708L795.955 888.434L796.797 886.074L800.368 887.347L799.526 889.708ZM804.883 891.619L803.097 890.982L803.939 888.621L805.725 889.258L804.883 891.619Z" fill="black"/>
<path fill-rule="evenodd" clip-rule="evenodd" d="M866.55 791.188V889.699L811.136 1023.44L731.579 938.438V913.973L693.224 909.25L693.819 908.623H691.484L771.373 822.246L771.52 826.814L775.944 822.155V908.85L777.135 910.065L807.187 937.845V848.661L866.55 791.188ZM809.687 946.834L807.812 944.922V941.832L775.396 911.866L773.445 909.876V828.421L769.214 832.876L769.071 828.421L697.211 906.117H699.651L698.461 907.37L734.078 911.756V937.446L810.312 1018.9L864.05 889.199V797.092L809.687 849.725V946.834Z" fill="black"/>
<path d="M726.612 859.2C728.527 859.799 730.387 860.381 732.256 860.965L732.675 860.286C732.472 859.615 732.515 858.817 732.312 858.146C732.116 857.143 733.178 855.377 732.526 854.16C730.932 851.185 727.748 849.626 725.867 849.038L721.891 851.847C722.718 852.143 723.91 853.181 724.501 853.825C725.092 854.47 725.513 855.247 725.727 856.087L726.163 858.655L726.612 859.2Z" fill="#99C6E8"/>
<path d="M708.195 859.317L712.71 860.729C712.898 860.788 713.593 861.208 713.839 861.082C714.084 860.956 714.865 859.782 714.98 859.413L716.975 856.997C718.297 855.226 720.722 854.338 722.542 853.064C723.504 852.203 723.832 850.912 725.087 850.566C726.341 850.22 728.343 849.973 729.629 850.215L723.986 848.45C719.732 847.525 715.09 851.139 712.604 853.806C710.907 855.455 709.427 857.306 708.195 859.317Z" fill="#B4DAF6"/>
<path d="M710.445 869.949L711.173 856.398L705.53 854.633L704.744 868.369L710.445 869.949Z" fill="#99C6E8"/>
<path d="M710.445 869.95L717.923 867.831L715.128 862.904C715.799 861.878 716.522 860.887 717.296 859.934C718.556 858.182 720.146 856.685 721.98 855.523C724.308 854.022 726.594 853.318 728.475 853.906C730.356 854.495 731.399 856.442 731.922 860.05C732.117 861.393 732.444 861.024 732.936 860.773C733.25 860.425 733.484 860.015 733.623 859.569C733.763 859.124 733.804 858.653 733.744 858.188C733.263 853.783 731.887 850.921 729.441 850.156C728.156 849.981 726.605 850.193 725.361 850.536C724.117 850.879 722.96 851.471 721.963 852.275C719.925 853.65 718.137 855.35 716.672 857.307C715.703 858.423 714.923 859.597 713.839 861.082L711.116 856.583L710.445 869.95Z" fill="#E6FFFF"/>
<path d="M848.993 955.513C846.999 955.993 845.062 956.46 843.116 956.928L843.109 957.758C843.642 958.25 844.026 958.985 844.56 959.478C845.262 960.271 845.266 962.412 846.481 963.154C849.452 964.968 853.065 964.672 855.024 964.2L857.02 959.581C856.138 959.755 854.546 959.46 853.687 959.197C852.828 958.935 852.048 958.464 851.416 957.826L849.675 955.763L848.993 955.513Z" fill="#99C6E8"/>
<path d="M865.06 945.642L860.359 946.774C860.163 946.821 859.333 946.815 859.184 947.057C859.035 947.3 858.973 948.763 859.067 949.155L858.599 952.372C858.379 954.656 856.725 956.736 855.805 958.839C855.419 960.118 855.815 961.446 854.899 962.421C853.983 963.395 852.36 964.678 851.106 965.144L856.983 963.728C861.198 962.299 863.35 956.607 864.116 952.905C864.729 950.532 865.046 948.092 865.06 945.642Z" fill="#B4DAF6"/>
<path d="M857.463 937.332L863.997 949.83L869.874 948.415L863.292 935.721L857.463 937.332Z" fill="#99C6E8"/>
<path d="M857.463 937.332L852.035 943.192L857.091 946.113C857.046 947.385 856.937 948.655 856.764 949.916C856.587 952.151 855.987 954.332 854.996 956.343C853.752 958.919 852.123 960.76 850.164 961.232C848.205 961.704 846.261 960.517 843.893 957.569C843.012 956.473 842.921 956.975 842.623 957.461C842.532 957.938 842.544 958.429 842.658 958.901C842.771 959.373 842.984 959.816 843.283 960.199C846.035 963.882 848.755 965.71 851.302 965.097C852.52 964.572 853.767 963.559 854.675 962.593C855.583 961.627 856.282 960.484 856.73 959.237C857.787 956.928 858.453 954.46 858.701 951.933C858.958 950.423 859.02 948.959 859.184 947.057L863.95 949.634L857.463 937.332Z" fill="#E6FFFF"/>
<path fill-rule="evenodd" clip-rule="evenodd" d="M322.474 794.621C326.621 785.527 328.87 775.432 327.986 765.577L323.568 762.585C324.451 772.362 323.092 782.359 318.991 791.375L322.474 794.621Z" fill="#99C6E8"/>
<path d="M315.037 826.656C329.346 822.642 335.453 808.544 333.344 791.188C333.25 790.413 332.772 787.184 332.772 787.184C332.772 787.184 329.559 786.36 328.767 785.468C331.407 801.291 328.043 818.521 311.604 823.796L315.037 826.656Z" fill="url(#paint1_linear)"/>
<path fill-rule="evenodd" clip-rule="evenodd" d="M318.494 826.247C338.145 823.32 342.025 803.654 338.875 785.604C342.313 783.251 345.694 783.926 349.363 786.054C342.256 778.994 335.148 771.934 328.041 764.874C328.752 775.249 326.216 785.072 322.797 794.731C325.409 790.475 328.233 787.589 332.92 787.139C335.417 804.165 332.094 820.987 315.037 826.656L318.494 826.247Z" fill="#E6FFFF"/>
<path d="M318.469 996.298L267.743 1039.46V853.592H213.456L194.767 829.808L166.289 853.592L171.628 752.288L218.795 804.261H267.743L318.469 851.83V996.298Z" fill="#EDEDEE"/>
<path fill-rule="evenodd" clip-rule="evenodd" d="M171.793 750L219.792 803.25H268.58L319.614 851.433V997.164L267.57 1041.75V854.24H213.792L195.395 830.667L166.289 855.142L171.793 750ZM173.054 753.561L167.906 851.89L195.612 828.593L214.497 852.791H269.016V1038.61L318.168 996.496V852.059L268.006 804.7H219.15L173.054 753.561Z" fill="black"/>
<path d="M165.144 855.259V755.721L217.778 805.057L165.144 855.259Z" fill="white"/>
<path fill-rule="evenodd" clip-rule="evenodd" d="M165.144 752.288L217.778 804.46L165.144 857.547V752.288ZM166.558 755.725V854.069L215.734 804.469L166.558 755.725Z" fill="black"/>
<path fill-rule="evenodd" clip-rule="evenodd" d="M170.192 751.095L173.273 750L219.607 801.842H267.448L268.664 802.329L319.061 850.317L319.614 851.607V999.127L318.975 1000.49L266.809 1044.04L263.911 1042.65L265.663 855.162H213.513L212.118 854.476L194.76 832.046L167.893 858.206L167.019 859.085L164 857.828V752.076L167.008 750.809L170.05 753.814L170.192 751.095ZM167.537 853.604L193.715 828.114L196.342 828.299L214.378 851.607H267.448L269.216 853.401L267.483 1038.86L316.077 998.292V852.372L266.743 805.397H218.818L217.503 804.807L173.501 755.574L173.378 757.941L170.372 759.116L167.537 756.315V853.604Z" fill="black"/>
<path fill-rule="evenodd" clip-rule="evenodd" d="M331.628 904.456C325.212 899.893 318.372 895.733 310.575 894.754L307.027 897.591C314.764 898.558 321.833 901.655 328.195 906.172L331.628 904.456Z" fill="#99C6E8"/>
<path d="M354.398 915.416C353.682 903.278 343.857 896.387 329.84 895.169C329.214 895.114 327.112 894.351 327.112 894.351C327.112 894.351 325.599 897.106 324.762 897.591C337.664 898.128 349.163 903.557 350.507 917.613L354.398 915.416Z" fill="url(#paint2_linear)"/>
<path fill-rule="evenodd" clip-rule="evenodd" d="M354.623 912.852C355.805 896.494 341.667 890.204 327.536 889.857C326.357 886.7 327.447 884.074 329.682 881.449C323.142 886.064 316.603 890.679 310.063 895.294C317.997 896.382 324.955 900.007 331.638 904.321C328.884 901.526 327.198 898.78 327.666 894.918C340.914 895.629 353.006 901.012 354.336 915.714L354.623 912.852Z" fill="#E6FFFF"/>
<path d="M313.893 992.973L269.268 1039.46V855.259H313.893V992.973Z" fill="white"/>
<path fill-rule="evenodd" clip-rule="evenodd" d="M266.979 855.259H313.892V993.818L266.979 1041.75V855.259ZM268.446 856.696V1038.18L312.426 993.24V856.696H268.446Z" fill="black"/>
<path d="M214.127 854.115H318.469L266.744 803.774H218.586L197.182 827.571L214.127 854.115Z" fill="white"/>
<path fill-rule="evenodd" clip-rule="evenodd" d="M218.667 802.872L219.198 802.63H267.373L267.87 802.836L319.613 853.962L319.116 855.259H214.737L214.133 854.919L197.182 827.962L197.255 827.04L218.667 802.872ZM219.514 804.133L198.699 827.629L215.127 853.755H317.306L267.084 804.133H219.514Z" fill="black"/>
<path fill-rule="evenodd" clip-rule="evenodd" d="M220.066 803.774L264.405 850.482V805.244H265.835V854.115L221.497 807.406V853.221H220.066V803.774Z" fill="#E5E5E5"/>
<path fill-rule="evenodd" clip-rule="evenodd" d="M214.345 803.774H168.577V802.63H214.345V803.774Z" fill="#E5E5E5"/>
<path fill-rule="evenodd" clip-rule="evenodd" d="M336.998 1034.92C340.333 1032.61 343.309 1029.86 346.168 1026.97C335.324 1037.77 320.831 1038.47 311.371 1025.44L308.398 1028.59C315.375 1038.19 326.642 1041.96 336.998 1034.92Z" fill="url(#paint3_linear)"/>
<path fill-rule="evenodd" clip-rule="evenodd" d="M350.63 1034.19C350.393 1031.01 349.247 1028.45 346.124 1026.92L342.994 1029.96C345.65 1031.34 347.227 1034.02 347.457 1037.19L350.63 1034.19Z" fill="#648EAE"/>
<path fill-rule="evenodd" clip-rule="evenodd" d="M342.588 1023.5C340.539 1020.7 337.299 1019.39 333.817 1019.31L330.762 1022.43C334.223 1022.5 337.436 1023.79 339.456 1026.57L342.588 1023.5Z" fill="#648EAE"/>
<path fill-rule="evenodd" clip-rule="evenodd" d="M352.695 1012.79C347.168 1016.87 340.548 1018.43 333.839 1019.4C337.563 1019.66 340.531 1020.58 342.659 1023.51C333.331 1032.3 321.41 1034.26 311.325 1025.47C320.832 1038.54 335.098 1038 346.155 1026.95C348.866 1028.25 350.444 1030.95 350.617 1034.13C351.315 1027.03 352.005 1019.91 352.695 1012.79Z" fill="#E6FFFF"/>
<path fill-rule="evenodd" clip-rule="evenodd" d="M599.947 835.568L546.55 788.9V948.505H495.027L445.377 893.436L439.756 1000.77L464.108 979.306L480.97 1001.71H599.01V998.022L599.947 998.906V835.568ZM547.539 949.438L546.55 948.505V949.438H547.539Z" fill="black" fill-opacity="0.2"/>
<path d="M537.609 779.747L590.793 826.258V989.045L537.609 938.814V990.906H480.692L462.96 967.651L434.035 993.697L436.839 883.931L486.291 938.814H537.609V779.747Z" fill="#EDEDEE"/>
<path fill-rule="evenodd" clip-rule="evenodd" d="M535.838 777.459L590.793 825.303V990.205L537.367 939.971V991.061H479.047L461.508 968.163L431.747 994.841L436.896 884.434L485.391 937.449H535.838V777.459ZM535.838 938.966H484.71L438.327 888.285L433.366 991.345L461.718 965.93L479.806 989.543H535.838V938.966ZM537.367 937.881L589.264 986.677V825.99L537.367 780.808V937.881Z" fill="black"/>
<path d="M430.603 992.553V885.006L483.237 938.312L430.603 992.553Z" fill="white"/>
<path fill-rule="evenodd" clip-rule="evenodd" d="M429.458 883.862L485.525 938.302L429.458 993.697V883.862ZM431.007 887.501V990.013L483.335 938.311L431.007 887.501Z" fill="black"/>
<path d="M591.937 831.232H538.159V992.553H591.937V831.232Z" fill="white"/>
<path fill-rule="evenodd" clip-rule="evenodd" d="M538.159 830.088H591.937V993.697H538.159V830.088ZM539.653 831.617V992.168H590.444V831.617H539.653Z" fill="black"/>
<path d="M481.529 992.553H590.793L536.628 938.78H486.198L463.785 964.2L481.529 992.553Z" fill="white"/>
<path fill-rule="evenodd" clip-rule="evenodd" d="M485.121 937.898L485.694 937.635H536.108L536.645 937.86L590.793 992.365L590.255 993.697H481.026L480.379 993.333L462.641 964.594L462.716 963.664L485.121 937.898ZM486.039 939.193L464.241 964.259L481.449 992.14H588.394L535.793 939.193H486.039Z" fill="black"/>
<path fill-rule="evenodd" clip-rule="evenodd" d="M533.225 985.627V941.068H534.727V989.121L488.171 944.631V988.282H486.669V941.137L533.225 985.627Z" fill="#E5E5E5"/>
<path fill-rule="evenodd" clip-rule="evenodd" d="M482.092 938.78H430.603V937.635H482.092V938.78Z" fill="#E5E5E5"/>
<path d="M541.363 826.876L540.448 779.747L591.938 827.8L541.363 826.876Z" fill="white"/>
<path fill-rule="evenodd" clip-rule="evenodd" d="M539.303 777.459L593.081 827.8L540.259 826.832L539.303 777.459ZM540.873 780.98L541.733 825.365L589.219 826.235L540.873 780.98Z" fill="black"/>
<path fill-rule="evenodd" clip-rule="evenodd" d="M537.88 774.026L577.745 812.342L591.464 824.603L591.464 825.886L594.226 828.354L594.226 997.678L593.305 996.789L593.305 998.007L482.847 998.007L462.622 972.587L432.922 999.418L433.248 993.047L429.458 996.908L429.458 880.06L435.757 886.367L436.136 878.967L487.35 937.05L535.315 937.05L535.315 774.422L538 776.822L537.88 774.026ZM538.997 782.703L539.051 940.801L535.501 940.801L485.708 940.801L439.349 888.224L439.008 894.882L433.14 889.006L433.14 988.197L437.369 984.561L437.041 990.969L463.228 967.158L484.688 994.255L589.623 994.255L589.623 988.069L590.544 988.957L590.544 830.053L587.782 827.585L587.782 826.302L575.267 815.117L541.954 783.098L540.448 781.463L538.997 782.703Z" fill="black"/>
<path fill-rule="evenodd" clip-rule="evenodd" d="M517.331 826.532L516.419 824.437L519.207 823.224L520.119 825.319L517.331 826.532ZM520.979 834.915L519.155 830.724L521.943 829.511L523.767 833.702L520.979 834.915ZM524.628 843.298L522.804 839.107L525.591 837.894L527.415 842.085L524.628 843.298ZM528.276 851.681L526.452 847.489L529.24 846.276L531.064 850.468L528.276 851.681ZM531.925 860.064L530.1 855.872L532.888 854.659L534.712 858.851L531.925 860.064ZM535.573 868.446L533.749 864.255L536.536 863.042L538.361 867.233L535.573 868.446ZM539.221 876.829L537.397 872.638L540.185 871.425L542.009 875.616L539.221 876.829ZM542.87 885.212L541.046 881.021L543.833 879.808L545.657 883.999L542.87 885.212ZM546.518 893.595L544.694 889.403L547.482 888.19L549.306 892.382L546.518 893.595ZM550.167 901.978L548.342 897.786L551.13 896.573L552.954 900.765L550.167 901.978ZM553.815 910.36L551.991 906.169L554.778 904.956L556.603 909.147L553.815 910.36ZM557.463 918.743L555.639 914.552L558.427 913.339L560.251 917.53L557.463 918.743ZM561.112 927.126L559.288 922.935L562.075 921.722L563.899 925.913L561.112 927.126ZM564.76 935.509L562.936 931.318L565.724 930.105L567.548 934.296L564.76 935.509ZM568.409 943.892L566.584 939.7L569.372 938.487L571.196 942.679L568.409 943.892ZM572.057 952.275L570.233 948.083L573.02 946.87L574.845 951.062L572.057 952.275ZM575.705 960.657L573.881 956.466L576.669 955.253L578.493 959.444L575.705 960.657ZM579.354 969.04L577.53 964.849L580.317 963.636L582.141 967.827L579.354 969.04ZM583.002 977.423L581.178 973.232L583.965 972.019L585.79 976.21L583.002 977.423ZM586.651 985.806L584.826 981.614L587.614 980.402L589.438 984.593L586.651 985.806ZM590.299 994.189L588.475 989.997L591.262 988.784L593.086 992.976L590.299 994.189ZM593.947 1002.57L592.123 998.38L594.911 997.167L596.735 1001.36L593.947 1002.57ZM597.596 1010.95L595.772 1006.76L598.559 1005.55L600.383 1009.74L597.596 1010.95ZM601.244 1019.34L599.42 1015.15L602.207 1013.93L604.032 1018.12L601.244 1019.34ZM603.98 1025.62L603.068 1023.53L605.856 1022.32L606.768 1024.41L603.98 1025.62Z" fill="black"/>
<path fill-rule="evenodd" clip-rule="evenodd" d="M529.981 878.714C522.326 881.592 515.047 886.673 509.87 892.897L510.698 897.591C515.83 891.413 522.953 886.636 530.537 883.776L529.981 878.714Z" fill="#99C6E8"/>
<path d="M552.564 864.143C541.95 858.21 530.701 862.864 521.904 874.144C521.511 874.648 519.702 876.027 519.702 876.027C519.702 876.027 520.48 881.171 520.424 882.146C528.029 871.447 539.343 864.217 551.92 870.649L552.564 864.143Z" fill="url(#paint4_linear)"/>
<path fill-rule="evenodd" clip-rule="evenodd" d="M550.96 863.019C537.876 853.372 524.272 862.535 515.678 874.819C512.325 874.198 510.755 871.855 509.856 868.503C509.901 876.7 509.946 884.896 509.991 893.092C515.569 886.666 522.711 882.435 530.27 878.808C526.297 879.768 522.994 879.811 520.017 877.366C528.399 866.053 540.038 858.218 553.201 864.778L550.96 863.019Z" fill="#E6FFFF"/>
</g>
<defs>
<radialGradient id="paint0_radial" cx="0" cy="0" r="1" gradientUnits="userSpaceOnUse" gradientTransform="translate(482.5 883.5) rotate(-0.829458) scale(483.551 321.402)">
<stop stop-color="#64D362"/>
<stop offset="1" stop-color="#458644"/>
</radialGradient>
<linearGradient id="paint1_linear" x1="318.878" y1="808.915" x2="380.368" y2="786.541" gradientUnits="userSpaceOnUse">
<stop stop-color="#99C6E8"/>
<stop offset="1" stop-color="#3B4E5C"/>
</linearGradient>
<linearGradient id="paint2_linear" x1="340.906" y1="910.246" x2="333.175" y2="857.316" gradientUnits="userSpaceOnUse">
<stop stop-color="#99C6E8"/>
<stop offset="1" stop-color="#3B4E5C"/>
</linearGradient>
<linearGradient id="paint3_linear" x1="331.937" y1="1032.02" x2="308.556" y2="1012.7" gradientUnits="userSpaceOnUse">
<stop stop-color="#99C6E8"/>
<stop offset="1" stop-color="#3D6683"/>
</linearGradient>
<linearGradient id="paint4_linear" x1="540.731" y1="872.847" x2="492.162" y2="850.318" gradientUnits="userSpaceOnUse">
<stop stop-color="#99C6E8"/>
<stop offset="1" stop-color="#3B4E5C"/>
</linearGradient>
<clipPath id="clip0">
<rect width="1021" height="1278" fill="white"/>
</clipPath>
</defs>
</svg>
