<svg xmlns="http://www.w3.org/2000/svg" xmlns:xlink="http://www.w3.org/1999/xlink" viewBox="0 0 462.2 202.1"><defs><style>.cls-1{opacity:0.16;}.cls-2{fill:#fff;}.cls-3{opacity:0.64;fill:url(#radial-gradient);}.cls-4{fill:url(#radial-gradient-2);}.cls-5{fill:#e0d7d8;}.cls-6{fill:url(#linear-gradient);}.cls-7{fill:#9a744e;}.cls-8{fill:url(#radial-gradient-3);}.cls-9{fill:#d1c7c5;}.cls-10{fill:#e0dbd8;}.cls-11{fill:#b5a49a;}.cls-12{fill:url(#linear-gradient-2);}.cls-13{fill:url(#linear-gradient-3);}.cls-14{opacity:0.1;}.cls-15{fill:url(#linear-gradient-4);}.cls-16{fill:url(#radial-gradient-4);}.cls-17{fill:#f7f7f9;}.cls-18{fill:url(#radial-gradient-5);}.cls-19{fill:url(#radial-gradient-7);}.cls-20{fill:url(#linear-gradient-5);}.cls-21{fill:url(#linear-gradient-6);}.cls-22{fill:url(#linear-gradient-7);}.cls-23{fill:url(#linear-gradient-8);}.cls-24{fill:url(#radial-gradient-9);}.cls-25{fill:url(#radial-gradient-10);}.cls-26{fill:url(#radial-gradient-11);}.cls-27{fill:url(#radial-gradient-12);}.cls-28{fill:url(#radial-gradient-13);}.cls-29{fill:url(#linear-gradient-9);}.cls-30{fill:url(#linear-gradient-10);}.cls-31{fill:url(#linear-gradient-11);}.cls-32{fill:url(#linear-gradient-12);}.cls-33{fill:url(#linear-gradient-13);}.cls-34{fill:url(#linear-gradient-14);}.cls-35{fill:url(#linear-gradient-15);}.cls-36{fill:none;stroke:#7fc000;stroke-miterlimit:10;}.cls-37{fill:#7fc000;}</style><radialGradient id="radial-gradient" cx="358.9" cy="101.63" r="51.25" gradientTransform="translate(-162.1 -31.6) scale(1.49 1.27)" gradientUnits="userSpaceOnUse"><stop offset="0"/><stop offset="0.86" stop-opacity="0"/><stop offset="0.98" stop-opacity="0"/></radialGradient><radialGradient id="radial-gradient-2" cx="-811.69" cy="-559.67" r="0.5" gradientTransform="matrix(-99.17, 214.86, 177.85, 82.29, 19440.13, 220487.71)" gradientUnits="userSpaceOnUse"><stop offset="0" stop-color="#fdfdfd"/><stop offset="0.49" stop-color="#ded9d6"/><stop offset="1" stop-color="#574238"/></radialGradient><linearGradient id="linear-gradient" x1="-805.58" y1="-563.39" x2="-804.58" y2="-563.39" gradientTransform="matrix(71.94, 70.81, 63.62, -64.79, 94152.76, 20585.11)" gradientUnits="userSpaceOnUse"><stop offset="0" stop-color="#e7e3e1"/><stop offset="0.42" stop-color="#e3e1e2"/><stop offset="0.59" stop-color="#cfc8c4"/><stop offset="0.69" stop-color="#592e1f"/><stop offset="0.98" stop-color="#ada29c"/></linearGradient><radialGradient id="radial-gradient-3" cx="-811.04" cy="-559.33" r="0.5" gradientTransform="matrix(-60.15, 190.45, 162.5, 51.45, 42455.01, 183277.39)" gradientUnits="userSpaceOnUse"><stop offset="0" stop-color="#b2a49a"/><stop offset="0.23" stop-color="#c3b9b7"/><stop offset="0.7" stop-color="#6c5c52"/><stop offset="1" stop-color="#59473c"/></radialGradient><linearGradient id="linear-gradient-2" x1="-828.24" y1="-572.83" x2="-827.24" y2="-572.83" gradientTransform="matrix(-0.81, -36.22, -59.09, 1.33, -34152.71, -29124.29)" gradientUnits="userSpaceOnUse"><stop offset="0" stop-color="#979694" stop-opacity="0"/><stop offset="0.4" stop-color="#7a6e6e" stop-opacity="0.53"/><stop offset="1" stop-color="#81767a" stop-opacity="0"/></linearGradient><linearGradient id="linear-gradient-3" x1="-806.32" y1="-583.7" x2="-805.32" y2="-583.7" gradientTransform="matrix(-15.04, 33.37, -33.06, -14.93, -31053.55, 18293.06)" gradientUnits="userSpaceOnUse"><stop offset="0.01" stop-color="#e0dbd8"/><stop offset="0.08" stop-color="#6b5d5a"/><stop offset="1" stop-color="#6b5d5a" stop-opacity="0"/></linearGradient><linearGradient id="linear-gradient-4" x1="-802.81" y1="-570.9" x2="-801.81" y2="-570.9" gradientTransform="matrix(75.5, 24.5, 13.26, -40.86, 68188.41, -3601.45)" gradientUnits="userSpaceOnUse"><stop offset="0" stop-color="#d5d5d3"/><stop offset="0.6" stop-color="#f7f1eb"/><stop offset="0.87" stop-color="#ccbcaf"/><stop offset="1" stop-color="#6c5848"/></linearGradient><radialGradient id="radial-gradient-4" cx="-806.85" cy="-557.19" r="0.5" gradientTransform="matrix(49, 118.42, 66.14, -27.56, 76403.73, 80263.6)" gradientUnits="userSpaceOnUse"><stop offset="0" stop-color="#f7f7f9"/><stop offset="0.4" stop-color="#dbd3cd"/><stop offset="0.82" stop-color="#f4f3f4"/><stop offset="0.99" stop-color="#f7f7f9"/></radialGradient><radialGradient id="radial-gradient-5" cx="-802.15" cy="-561.22" r="0.5" gradientTransform="matrix(46.44, 64.1, 94.84, -69.72, 90490.11, 12358.47)" gradientUnits="userSpaceOnUse"><stop offset="0.17" stop-color="#aca59a"/><stop offset="0.77" stop-color="#ede5dd" stop-opacity="0.42"/><stop offset="1" stop-color="#ede5dd" stop-opacity="0"/></radialGradient><radialGradient id="radial-gradient-7" cx="-812.47" cy="-570.7" r="0.5" gradientTransform="matrix(-47.73, 64.1, -97.48, -69.72, -94323.3, 12358.47)" xlink:href="#radial-gradient-5"/><linearGradient id="linear-gradient-5" x1="-796.82" y1="-564.43" x2="-795.82" y2="-564.43" gradientTransform="matrix(41.76, 33, -16.25, 18.4, 24168.39, 36732.93)" gradientUnits="userSpaceOnUse"><stop offset="0.21" stop-color="#eaeae8"/><stop offset="1" stop-color="#ebecf0"/></linearGradient><linearGradient id="linear-gradient-6" x1="-797.23" y1="-557.09" x2="-796.23" y2="-557.09" gradientTransform="matrix(36.5, 39.5, 18.4, -17, 39344.32, 22072.96)" gradientUnits="userSpaceOnUse"><stop offset="0.87" stop-color="#89654a"/><stop offset="0.91" stop-color="#bfada1"/><stop offset="0.97" stop-color="#a08875"/></linearGradient><linearGradient id="linear-gradient-7" x1="-817.1" y1="-528.04" x2="-816.1" y2="-528.04" gradientTransform="matrix(-39.5, 33, 15.37, 18.4, -24129.41, 36732.93)" xlink:href="#linear-gradient-5"/><linearGradient id="linear-gradient-8" x1="-803.74" y1="-571.45" x2="-802.74" y2="-571.45" gradientTransform="matrix(75.5, 24.5, 13.26, -40.86, 68426.41, -3599.45)" xlink:href="#linear-gradient-4"/><radialGradient id="radial-gradient-9" cx="-807.08" cy="-558.19" r="0.5" gradientTransform="matrix(49, 118.42, 66.14, -27.56, 76641.73, 80265.6)" gradientUnits="userSpaceOnUse"><stop offset="0" stop-color="#f7f7f9"/><stop offset="0.22" stop-color="#dbd3cd"/><stop offset="0.81" stop-color="#f4f3f4"/><stop offset="0.99" stop-color="#f7f7f9"/></radialGradient><radialGradient id="radial-gradient-10" cx="-803.15" cy="-562.04" r="0.5" gradientTransform="matrix(50.31, 64.94, 102.75, -70.64, 98326.57, 12529.57)" gradientUnits="userSpaceOnUse"><stop offset="0.54" stop-color="#aca59a"/><stop offset="0.86" stop-color="#ede5dd" stop-opacity="0.42"/><stop offset="1" stop-color="#ede5dd" stop-opacity="0"/></radialGradient><radialGradient id="radial-gradient-11" cx="-803.15" cy="-562.04" r="0.5" gradientTransform="matrix(50.31, 64.94, 102.75, -70.64, 98326.57, 12529.57)" xlink:href="#radial-gradient-5"/><radialGradient id="radial-gradient-12" cx="-811.91" cy="-570.19" r="0.5" gradientTransform="matrix(-47.73, 64.1, -97.48, -69.72, -94085.3, 12360.47)" gradientUnits="userSpaceOnUse"><stop offset="0.55" stop-color="#aca59a"/><stop offset="1" stop-color="#ede5dd" stop-opacity="0"/></radialGradient><radialGradient id="radial-gradient-13" cx="-811.91" cy="-570.19" r="0.5" gradientTransform="matrix(-47.73, 64.1, -97.48, -69.72, -94085.3, 12360.47)" xlink:href="#radial-gradient-5"/><linearGradient id="linear-gradient-9" x1="-797.91" y1="-562.47" x2="-796.91" y2="-562.47" gradientTransform="matrix(41.76, 33, -16.25, 18.4, 24406.39, 36734.93)" xlink:href="#linear-gradient-5"/><linearGradient id="linear-gradient-10" x1="-798.21" y1="-559.36" x2="-797.21" y2="-559.36" gradientTransform="matrix(36.5, 39.5, 18.4, -17, 39582.32, 22074.96)" xlink:href="#linear-gradient-6"/><linearGradient id="linear-gradient-11" x1="-815.95" y1="-530.11" x2="-814.95" y2="-530.11" gradientTransform="matrix(-39.5, 33, 15.37, 18.4, -23891.41, 36734.93)" xlink:href="#linear-gradient-5"/><linearGradient id="linear-gradient-12" x1="-812.75" y1="-529.78" x2="-811.75" y2="-529.78" gradientTransform="matrix(33.41, -41.43, 18.24, 16.43, 36979.82, -24868.07)" gradientUnits="userSpaceOnUse"><stop offset="0.21" stop-color="#dedada"/><stop offset="1" stop-color="#ebecf0"/></linearGradient><linearGradient id="linear-gradient-13" x1="-812.75" y1="-529.78" x2="-811.75" y2="-529.78" gradientTransform="matrix(33.41, -41.43, 18.24, 16.43, 36979.82, -24868.07)" gradientUnits="userSpaceOnUse"><stop offset="0.21" stop-color="#a59079"/><stop offset="1" stop-color="#ebecf0"/></linearGradient><linearGradient id="linear-gradient-14" x1="-828.83" y1="-570.41" x2="-827.83" y2="-570.41" gradientTransform="matrix(-31.65, -41.55, -17.27, 16.47, -35830.95, -24933.75)" xlink:href="#linear-gradient-12"/><linearGradient id="linear-gradient-15" x1="-823.08" y1="-568.73" x2="-822.08" y2="-568.73" gradientTransform="matrix(-47, -67.5, -28.29, 24.76, -54495.05, -41333.19)" gradientUnits="userSpaceOnUse"><stop offset="0.21" stop-color="#a59079"/><stop offset="0.9" stop-color="#dad6d4"/></linearGradient></defs><title>bootstrap-3</title><g id="Layer_2" data-name="Layer 2"><g id="Layer_1-2" data-name="Layer 1"><g class="cls-1"><path class="cls-2" d="M210.8,196.3h0l-.3.4-.2.2-.2.2-.3.2-.2.2h-.3l-.5.3h-.4l.2.2.5.3.3.2h.3a.8.8,0,0,1,.2.4v.2a.5.5,0,0,1-.2.4h-3.4v-.2H206V200h-.2c0-.1,0-.1.1-.2h0a.4.4,0,0,0,.1-.3h.1V199h.4v-.2h.4l-.2-.2-.2-.2h-.2v-.2h-.1l-.2-.4h0l-.2-.3h.1v-.2h0v-.2h0v-.2l.2-.2h.1l.2-.2h.3l.3-.3h2.8l.3.3.2.2h.1Zm-1.6,3.5c0-.1-.1-.2-.2-.3h-.1l-.2-.2-.3-.2-.2-.2h-.9l-.4.2v.2h-.3l-.2.2h2.7Zm.9-3.6V196l-.3-.2h-.6v.2h.1c0,.2-.2.3-.4.3h-1l-.5.2h-.4v.2h0l.2.4h.9l.3-.2h.9l.2-.2h.5l.2-.2h0Z"/><path class="cls-2" d="M212.8,200.1h-.9c-.1-.1-.1-.1-.1-.2h-.2v-.3q0-.2.3-.3h.7v.2h.1Z"/></g><g class="cls-1"><path class="cls-2" d="M52.2,197.1h-.5l-.3.2H49.3v.2h-.1l-.3.4h-.3v.2h-.1v.2h-.2c-.1.2-.1.3-.2.3l-.3.3v.3h-.4v.2h-.5l-.3.3H46l-.2.2H44.6v-.2h.2l.3-.2h.6l.2-.2h.3v-.2h.2v-.2H47v-.2h.2v-.2c.1-.1.2-.1.2-.2v-.3h.2a.5.5,0,0,1,.2-.4h.1v-.3h.2v-.2H46.9l-.2-.3h0a.8.8,0,0,1,.4-.4h2.1v-.2c0-.1.1-.2.1-.3v-.2h.3v-.2h-.1v.2H45.8l-.4-.2c-.2-.1-.2-.2-.2-.3a.6.6,0,0,1,.1-.4h4.8l.4-.2h.1l.4.2v.4l-.3.2h-.2v.2h0v.3h-.3v.2H50l-.2.3h2.3Z"/><path class="cls-2" d="M53.8,199.2h-1v-.2h-.1V199l.2-.3h.8v.2h.2Z"/></g><g class="cls-1"><path class="cls-2" d="M373.8,196.8v.3h-.1v.3h0l-.2.3h0v.5h-.2v.2H373v.2h0l-.3.2v.3h-.1l-.3.2-.3.5h-.2l-.5.4h-.5l-.4.2h-3.4l-.4-.3h-.2v-.2c0-.2.1-.2.2-.2h2.2l.6-.2h.6l.4-.2h.2l.4-.3.2-.2h.3v-.2a.2.2,0,0,0,.2-.2l.2-.3h.3v-.2a.5.5,0,0,0,.2-.4l.2-.2v-.2h.2v-.4h.1v-.5h.1v-.3h0v-.2h-.1v.4h-3a.4.4,0,0,1-.1-.3v-.8h.1v-.3h.1V195h.3l.2-.2h.1l.2-.2h.1l.3-.2h.4v-.2h.9l.4.4.2.4.2.3h.2v.2h0v.2h0a.4.4,0,0,1,.1.3v.2h0Zm-1.2-1.5v-.2h0l-.2-.3h-.3v-.2H371l-.2.2h-.4v.2h0v.3h1.3v-.2h.5l.2-.2h.1v-.4Z"/><path class="cls-2" d="M376.4,198.8h-.9v-.2h-.1v-.3l.2-.3h.8v.2h.1Z"/></g><ellipse class="cls-3" cx="371.8" cy="97.2" rx="90.4" ry="50"/><g id="Group_3" data-name="Group 3"><g id="Vector_2" data-name="Vector 2"><path id="path17_fill" data-name="path17 fill" class="cls-4" d="M351.6,135.3c1.9,0,24.1-10.3,34.9-15.5,6.5-2,31.3-4,33-5.3s2.4-39,2.4-42.3S403.8,34,394.7,16.5L361.8,28.7l-38.3,6.5c.5,11.4,1.9,37.2,4.5,49.2s14.6,37.6,20.3,48.9A3.7,3.7,0,0,0,351.6,135.3Z"/></g><g id="Vector"><path id="path18_fill" data-name="path18 fill" class="cls-5" d="M362.2,29.5l31.7-12.2-24,26.4-45.5-8.1Z"/></g><g id="Vector-2" data-name="Vector"><path id="path19_fill" data-name="path19 fill" class="cls-6" d="M396.8,57.6c-6.7-3.9-18.6-9.5-23.7-11.8,2.5,6.4,7.8,21.5,9.3,30.7s3.4,27.3,4.2,35.2l33,2.4,2.3-41.3Z"/></g><g id="Vector-3" data-name="Vector"><path id="path20_fill" data-name="path20 fill" class="cls-7" d="M371.9,41.7l-1.4-1.6c0,.8-.1,2.6-1.8,3.2s-3.8-1-4.5-2c1.1,2.4,3.3,7.4,3.3,8.3s1.2-2.7,3-3.3,3.4,1.2,4.3,2.1Z"/></g><g id="Vector-4" data-name="Vector"><path id="path21_fill" data-name="path21 fill" class="cls-8" d="M348.3,39.7l18.3,4c-6.2,12.9-18.6,40.6-19.9,48.1s1.2,31.2,2.9,43.1c-11-18.7-23.7-52.9-24-56.2s-2.6-26-3.7-37l2.5-5.7Z"/></g><g id="Vector-5" data-name="Vector"><path id="path22_fill" data-name="path22 fill" class="cls-9" d="M360.5,35.2c-.9-1.3-3.1-3.8-4-4.9l-33,6.1c5.5.7,17.3,2.2,21.2,2.9s16.5,3.5,21.9,4.4C365.3,41.7,361.5,36.5,360.5,35.2Z"/></g><g id="Vector-6" data-name="Vector"><path id="path23_fill" data-name="path23 fill" class="cls-9" d="M365.8,34c-.4-.8-3.5-3.6-3.6-4.9l31.2-11.8c-2.9,3.2-9.3,10.3-11.2,12.7s-8,9.9-10.7,13.4C371,41.1,366.5,35.4,365.8,34Z"/></g><g id="Vector-7" data-name="Vector"><path id="path24_fill" data-name="path24 fill" class="cls-10" d="M392.7,114.1c-.7-2.2,19.2-26.4,29.2-38.2,0,12.7-.5,38.2-2.4,38.2S393.5,117,392.7,114.1Z"/></g><g id="Vector-8" data-name="Vector"><path id="path25_fill" data-name="path25 fill" class="cls-11" d="M377.2,70.6l-9.4-20.8,5.7-1.6c2.7,8.4,8.3,25.6,9,27.3s3.2,12.1,4.4,17.1.4,16.7,0,19.9,2.6,3.8,4.1,3.7l-6.9,2.8,1.6-2.8c-.5-8.3-1.6-25-1.6-25.7S379.5,77,377.2,70.6Z"/></g><g id="Vector_2-2" data-name="Vector 2"><path id="path26_fill" data-name="path26 fill" class="cls-12" d="M351.2,82.8a75.2,75.2,0,0,0-3.3,14.7l37.4,15.8c-.5-7.3-1.5-22.5-2-24.4-4.1-15.5-16.3-40-17.9-43.1l-9.8,26C353.6,75.1,352.8,78.3,351.2,82.8Z"/></g><g id="Vector-9" data-name="Vector"><path id="path27_fill" data-name="path27 fill" class="cls-13" d="M385.3,114.9c.8-3.1-26.4-13-39-20.3,0,14.2,2.2,40.2,4.7,40.2S384.5,117.9,385.3,114.9Z"/></g></g><g class="cls-14"><path d="M84.2,41l-.5.5L50.3,8h-.5v2H45.3l-.5.5V8h-.5L11.4,41.1h-.1L8.8,43l.6,70.1.4.2v.2h.1v.4l.4-.3.6.7v.6l34.5,34.5h6.5L86.3,115v-6.6L86.8,43Z"/><path d="M266.4,106.6c-5.7-3.3-11.4-7.4-19.3-11.7l.4-49.9-2.7-2-.4.5L211,10h-.5v2H206l-.5.5V10H205L172,43.1h0l-2.5,2,.3,46.6-1.8.9c-8.7,4.3-14.9,8.6-21,12h0c18,9.5,22.4,12,24,12h0l.5.2v.3L206,151.5h6.5l33.8-33.8C249.2,116.3,254.8,113.1,266.4,106.6Z"/></g><g id="Group_2.1" data-name="Group 2.1"><g id="Vector-10" data-name="Vector"><path id="path28_fill" data-name="path28 fill" class="cls-15" d="M46.3,2h6.5L87.3,36.5V107L52.8,141.5H46.3L11.8,107V36.5Z"/></g><g id="Subtract"><path id="path29_fill" data-name="path29 fill" class="cls-16" d="M45.8,0h-.5L10.8,34.6v70.8L45.3,140h.5Z"/></g><g id="Subtract-2" data-name="Subtract"><path id="path29_fill-2" data-name="path29 fill" class="cls-17" d="M50.8,140h.5l34.5-34.6V34.6L51.3,0h-.5Z"/></g><g id="Vector_2.2" data-name="Vector 2.2"><path id="path35_fill" data-name="path35 fill" class="cls-18" d="M45.8,74.3c0-1.6-21.5-26.9-32.3-39.3H9.8l.6,70.1,2.6,1.4C47.8,125.9,45.8,75.8,45.8,74.3Z"/><path id="path35_fill-2" data-name="path35 fill" class="cls-18" d="M45.8,74.3c0-1.6-21.5-26.9-32.3-39.3H9.8l.6,70.1,2.6,1.4C47.8,125.9,45.8,75.8,45.8,74.3Z"/></g><g id="Vector_2.4" data-name="Vector 2.4"><path id="path36_fill" data-name="path36 fill" class="cls-19" d="M50.9,74.3C50.9,72.7,73,47.4,84.1,35h3.7l-.5,70.1-2.7,1.4C48.8,125.9,50.9,75.8,50.9,74.3Z"/><path id="path36_fill-2" data-name="path36 fill" class="cls-19" d="M50.9,74.3C50.9,72.7,73,47.4,84.1,35h3.7l-.5,70.1-2.7,1.4C48.8,125.9,50.9,75.8,50.9,74.3Z"/></g><g id="Vector_2.3" data-name="Vector 2.3"><path id="path32_fill" data-name="path32 fill" class="cls-20" d="M51.4,71.5c0-1.6,22.9-26,33.8-38.5l2.6,2-1.6,68.5.6,2.5C75.3,95.5,51.4,73.1,51.4,71.5Z"/></g><g id="Vector_2-3" data-name="Vector 2"><path id="path37_fill" data-name="path37 fill" class="cls-21" d="M44.8,74.5c0-1.6-20.6-27-31-39.5H10.3l.5,70.5,2.5,1.5C24.2,96.5,44.8,76.1,44.8,74.5Z"/></g><g id="Vector_2.1" data-name="Vector 2.1"><path id="path34_fill" data-name="path34 fill" class="cls-22" d="M44.3,71.5c0-1.6-21.6-26-32-38.5L9.8,35l1.5,68.5-.5,2.5C21.7,95.5,44.3,73.1,44.3,71.5Z"/></g></g><g id="Group_2" data-name="Group 2"><g id="Vector-11" data-name="Vector"><path id="path28_fill-2" data-name="path28 fill" class="cls-23" d="M207,4h6.5L248,38.5V109l-34.5,34.5H207L172.5,109V38.5Z"/></g><g id="Subtract-3" data-name="Subtract"><path id="path29_fill-3" data-name="path29 fill" class="cls-24" d="M206.5,2H206L171.5,36.6v70.8L206,142h.5Z"/></g><g id="Subtract-4" data-name="Subtract"><path id="path29_fill-4" data-name="path29 fill" class="cls-17" d="M211.5,142h.5l34.5-34.6V36.6L212,2h-.5Z"/></g><g id="Vector_2.2-2" data-name="Vector 2.2"><path id="path30_fill" data-name="path30 fill" class="cls-25" d="M209.5,76.8c0-1.6-23.4-27.2-35.1-39.8h-3.9l.5,71,2.9,1.5C211.6,129.1,209.5,78.4,209.5,76.8Z"/><path id="path30_fill-2" data-name="path30 fill" class="cls-26" d="M209.5,76.8c0-1.6-23.4-27.2-35.1-39.8h-3.9l.5,71,2.9,1.5C211.6,129.1,209.5,78.4,209.5,76.8Z"/></g><g id="Vector_2.4-2" data-name="Vector 2.4"><path id="path31_fill" data-name="path31 fill" class="cls-27" d="M211.5,76.3c0-1.6,22.2-26.9,33.2-39.3h3.8l-.6,70.1-9.4,8.4C205,133,211.5,77.8,211.5,76.3Z"/><path id="path31_fill-2" data-name="path31 fill" class="cls-28" d="M211.5,76.3c0-1.6,22.2-26.9,33.2-39.3h3.8l-.6,70.1-9.4,8.4C205,133,211.5,77.8,211.5,76.3Z"/></g><g id="Vector_2.3-2" data-name="Vector 2.3"><path id="path32_fill-2" data-name="path32 fill" class="cls-29" d="M212,73.5c0-1.6,22.9-26,33.8-38.5l2.7,2-1.6,68.5.5,2.5C236,97.5,212,75.1,212,73.5Z"/></g><g id="Vector_2-4" data-name="Vector 2"><path id="path33_fill" data-name="path33 fill" class="cls-30" d="M206,75.5c0-1.6-21.2-26-31.5-38.5H171l.5,70.5L173,109C183.8,98.5,206,77.1,206,75.5Z"/></g><g id="Vector_2.1-2" data-name="Vector 2.1"><path id="path34_fill-2" data-name="path34 fill" class="cls-31" d="M205,73.5c0-1.6-21.7-26-32-38.5l-2.5,2,1.5,68.5-.5,2.5C182.3,97.5,205,75.1,205,73.5Z"/></g></g><g id="Vector_2.3-3" data-name="Vector 2.3"><path id="path56_fill" data-name="path56 fill" class="cls-32" d="M171.7,106.4c-1.6,0-5.7-.4-23.7-9.9,6.1-3.4,12.3-7.7,21-12s19.4-9.4,36-11l1.5.5C195.9,85.3,173.3,106.4,171.7,106.4Z"/></g><g id="Vector_2.4-3" data-name="Vector 2.4"><path id="path57_fill" data-name="path57 fill" class="cls-33" d="M172,108.5c-1.6,0-6-2.5-24-12,10-3,21-6.5,33-12.5,13.5-6,14.5-6,24-10.5l2,.5C196.4,85.3,173.6,108.5,172,108.5Z"/></g><g id="Vector_2.5" data-name="Vector 2.5"><path id="path58_fill" data-name="path58 fill" class="cls-34" d="M244.9,108.5c1.5,0,5.4-.3,22.5-9.9-5.8-3.4-11.7-7.6-19.9-12s-18.4-9.4-34.1-11l-1.4.5C222,87.4,243.4,108.5,244.9,108.5Z"/></g><g id="Vector_2.6" data-name="Vector 2.6"><path id="path59_fill" data-name="path59 fill" class="cls-35" d="M244.6,110.7c1.6-.1,5.7-2.5,22.8-12.1-9.5-3-19.9-6.5-31.3-12.5s-13.7-6-22.7-10.5l-1.9.5C221.5,87.4,243.1,110.7,244.6,110.7Z"/></g><path class="cls-36" d="M261.8,60.8a16.1,16.1,0,0,1,3.1,8.9,17.5,17.5,0,0,1-.4,4"/><polygon class="cls-37" points="260.8 65.5 262.5 61.8 266.3 60.5 257.6 56.5 260.8 65.5"/><polygon class="cls-37" points="260.1 74.3 260.3 74.3 264.2 72.9 260.5 80.7 256.5 82.3 260.1 74.3"/><path class="cls-37" d="M262.8,85.2l-1.4-4.1,3.7-7.8a14.7,14.7,0,0,0,1.4,4Z"/><path class="cls-36" d="M155.7,61.2a15.7,15.7,0,0,0-3.1,8.8,17,17,0,0,0,.4,4"/><polygon class="cls-37" points="151.2 60.8 155 62.2 156.7 65.8 159.9 56.9 151.2 60.8"/><polygon class="cls-37" points="150.9 77.7 151 77.4 152.4 73.6 156.1 81.5 154.6 85.6 150.9 77.7"/><path class="cls-37" d="M160.9,82.6,157,81.1l-3.7-7.9a19.7,19.7,0,0,0,4,1.6Z"/><path class="cls-36" d="M74.1,63.9a16.5,16.5,0,0,1,9.3,1.2,21.9,21.9,0,0,1,3.4,2.1"/><polygon class="cls-37" points="77.8 66.9 75.3 63.7 75.8 59.7 68.4 65.7 77.8 66.9"/><polygon class="cls-37" points="85.4 71.5 85.4 71.3 85.9 67.2 91.3 74 90.8 78.3 85.4 71.5"/><path class="cls-37" d="M96.3,74l-4.2-.6-5.4-6.8a26.5,26.5,0,0,0,4.2.6Z"/><path class="cls-36" d="M20.2,63.7a16,16,0,0,0-8.9,2.8,20.3,20.3,0,0,0-3,2.7"/><polygon class="cls-37" points="17.8 59.9 19 63.7 17.1 67.3 26.2 64.5 17.8 59.9"/><polygon class="cls-37" points="4.2 69.8 4.4 69.7 8.3 68.5 4.2 76.2 0 77.4 4.2 69.8"/><path class="cls-37" d="M6.2,80.8,5,76.6,9.2,69a19.1,19.1,0,0,0,1.1,4.1Z"/></g></g></svg>