<svg width="160" height="160" viewBox="0 0 160 160" fill="none" xmlns="http://www.w3.org/2000/svg">
<circle cx="79.9688" cy="79.9688" r="67" transform="rotate(-12.5625 79.9688 79.9688)" fill="#41B783"/>
<path d="M34.0217 69.7927L32.0141 60.7836L35.935 59.9099C36.341 59.8194 36.7321 59.8211 37.1081 59.9149C37.4842 60.0086 37.826 60.1678 38.1335 60.3923C38.4495 60.6149 38.7138 60.8845 38.9264 61.2012C39.1475 61.5159 39.2986 61.8552 39.3797 62.219C39.4701 62.625 39.4798 63.0269 39.4086 63.4245C39.3439 63.8119 39.2097 64.1659 39.0059 64.4865C38.8021 64.8072 38.5358 65.0663 38.2069 65.2639L41.0893 68.2177L39.4906 68.574L36.8381 65.8753L34.7444 66.3418L35.4428 69.476L34.0217 69.7927ZM34.4645 65.0857L36.9515 64.5315C37.2137 64.473 37.4294 64.345 37.5985 64.1475C37.7657 63.9416 37.8802 63.6985 37.9421 63.4183C38.004 63.1382 38.001 62.8458 37.9331 62.5413C37.8634 62.2283 37.7335 61.9642 37.5435 61.7491C37.3516 61.5255 37.1287 61.362 36.8749 61.2588C36.621 61.1555 36.3714 61.1312 36.1261 61.1859L33.7152 61.7231L34.4645 65.0857Z" fill="white"/>
<path d="M48.3102 65.2901L48.5901 66.5462L42.4107 67.9233L40.4031 58.9142L46.4683 57.5627L46.7483 58.8189L42.1042 59.8537L42.6753 62.4169L46.6977 61.5205L46.9606 62.7006L42.9383 63.5969L43.5519 66.3504L48.3102 65.2901Z" fill="white"/>
<path d="M48.6196 57.0833L52.9552 63.7489L54.0377 55.8759L55.5476 55.5394L54.015 65.3374L52.67 65.6371L47.1096 57.4198L48.6196 57.0833Z" fill="white"/>
<path d="M58.6558 64.3032L56.6482 55.2942L58.0693 54.9775L60.0769 63.9865L58.6558 64.3032Z" fill="white"/>
<path d="M65.9069 55.4552C65.7686 55.3529 65.5575 55.2623 65.2736 55.1835C64.9962 55.0943 64.6813 55.0358 64.3288 55.0078C63.9762 54.9798 63.6223 55.0054 63.2671 55.0845C62.6665 55.2184 62.2468 55.4273 62.0082 55.7113C61.7781 55.9935 61.7064 56.3291 61.7931 56.7182C61.8572 57.0059 61.9885 57.2163 62.1869 57.3497C62.3834 57.4746 62.6598 57.5595 63.0161 57.6044C63.3705 57.6409 63.8105 57.6627 64.336 57.6699C64.9771 57.678 65.5402 57.7346 66.0253 57.8396C66.517 57.9342 66.918 58.1201 67.2284 58.3972C67.5472 58.6725 67.767 59.0808 67.8876 59.6222C68.0252 60.2397 67.9884 60.7718 67.7772 61.2184C67.5659 61.6651 67.2263 62.0338 66.7584 62.3245C66.297 62.6049 65.766 62.812 65.1654 62.9459C64.4802 63.0985 63.7926 63.1408 63.1025 63.0726C62.4125 63.0043 61.7704 62.8322 61.1761 62.5562L61.5518 61.1939C61.7276 61.3056 61.9928 61.4197 62.3473 61.5361C62.6998 61.644 63.0985 61.7194 63.5431 61.7624C63.9944 61.795 64.4484 61.7604 64.9052 61.6586C65.4635 61.5342 65.8732 61.3408 66.1344 61.0784C66.3937 60.8075 66.4818 60.486 66.3989 60.1138C66.331 59.8092 66.1758 59.5908 65.9332 59.4584C65.6972 59.3156 65.3799 59.2265 64.9813 59.191C64.5892 59.1452 64.1201 59.1121 63.574 59.0917C62.9479 59.0714 62.4144 59.0083 61.9735 58.9023C61.5325 58.7963 61.1776 58.6179 60.9086 58.3671C60.648 58.1144 60.465 57.7512 60.3594 57.2775C60.2275 56.6853 60.26 56.1542 60.4572 55.6841C60.6524 55.2055 60.9727 54.81 61.4181 54.4976C61.8701 54.1749 62.4048 53.9448 63.0224 53.8072C63.6314 53.6715 64.2156 53.6434 64.775 53.723C65.3344 53.8025 65.8407 53.9428 66.2939 54.1437L65.9069 55.4552Z" fill="white"/>
<path d="M75.7695 59.171L76.0494 60.4272L69.87 61.8043L67.8624 52.7952L73.9276 51.4437L74.2076 52.6998L69.5635 53.7347L70.1346 56.2979L74.157 55.4015L74.4199 56.5816L70.3976 57.4779L71.0112 60.2314L75.7695 59.171Z" fill="white"/>
<path d="M77.5154 60.1005L75.5079 51.0915L78.7054 50.379C79.6783 50.1622 80.5313 50.1852 81.2647 50.448C82.0047 50.7004 82.616 51.1325 83.0985 51.7441C83.5793 52.3474 83.912 53.0635 84.0967 53.8925C84.3003 54.8061 84.2956 55.6417 84.0827 56.3995C83.8697 57.1573 83.4748 57.7958 82.898 58.3151C82.3295 58.8324 81.6012 59.1901 80.713 59.388L77.5154 60.1005ZM82.6502 54.2148C82.5088 53.5804 82.266 53.0484 81.9217 52.6191C81.5858 52.1878 81.1669 51.8816 80.6648 51.7004C80.1712 51.5174 79.6114 51.4957 78.9854 51.6352L77.2089 52.031L78.6567 58.5277L80.4331 58.1318C81.0675 57.9904 81.5684 57.7279 81.9357 57.3441C82.3115 56.9585 82.5589 56.4949 82.678 55.9534C82.7971 55.4118 82.7878 54.8323 82.6502 54.2148Z" fill="white"/>
<path d="M89.7333 57.3779L87.7258 48.3689L93.7276 47.0315L94.0075 48.2876L89.4268 49.3084L90.0263 51.9984L93.8583 51.1445L94.1213 52.3245L90.2892 53.1785L91.1545 57.0612L89.7333 57.3779Z" fill="white"/>
<path d="M100.69 55.0029C100.047 55.1462 99.431 55.1503 98.8415 55.0153C98.2605 54.8784 97.7316 54.6366 97.2548 54.29C96.7761 53.935 96.3707 53.5103 96.0385 53.0161C95.713 52.5115 95.4861 51.9716 95.358 51.3963C95.2241 50.7957 95.2068 50.2002 95.3061 49.6098C95.4036 49.011 95.5997 48.4567 95.8946 47.947C96.1875 47.4289 96.569 46.9888 97.0388 46.6266C97.5151 46.254 98.0621 45.999 98.6796 45.8614C99.3225 45.7181 99.9354 45.7191 100.518 45.8645C101.11 46.008 101.64 46.2582 102.111 46.6151C102.589 46.9702 102.991 47.3958 103.314 47.8919C103.646 48.3862 103.876 48.9167 104.002 49.4835C104.136 50.0841 104.154 50.6838 104.056 51.2826C103.966 51.8712 103.774 52.4245 103.481 52.9426C103.186 53.4523 102.799 53.8892 102.321 54.2532C101.851 54.6154 101.308 54.8653 100.69 55.0029ZM96.8045 51.074C96.9308 51.6408 97.1689 52.1515 97.5189 52.6063C97.8669 53.0526 98.2873 53.3851 98.78 53.6039C99.2793 53.8123 99.825 53.8505 100.417 53.7185C100.866 53.6186 101.247 53.436 101.56 53.1708C101.874 52.9055 102.119 52.589 102.294 52.2214C102.468 51.8452 102.575 51.4485 102.615 51.0311C102.655 50.6137 102.63 50.202 102.54 49.7959C102.414 49.2292 102.176 48.7226 101.828 48.2763C101.489 47.8281 101.069 47.4998 100.57 47.2914C100.069 47.0746 99.5305 47.0303 98.9553 47.1584C98.4985 47.2602 98.1132 47.4438 97.7994 47.709C97.4856 47.9743 97.2409 48.2908 97.0653 48.6584C96.8898 49.0261 96.7777 49.4196 96.729 49.8388C96.6888 50.2562 96.714 50.668 96.8045 51.074Z" fill="white"/>
<path d="M106.474 53.6474L104.467 44.6384L108.387 43.7647C108.793 43.6742 109.184 43.6758 109.561 43.7696C109.937 43.8634 110.278 44.0225 110.586 44.247C110.902 44.4696 111.166 44.7393 111.379 45.0559C111.6 45.3707 111.751 45.71 111.832 46.0737C111.923 46.4798 111.932 46.8816 111.861 47.2793C111.796 47.6666 111.662 48.0206 111.458 48.3413C111.255 48.662 110.988 48.9211 110.659 49.1187L113.542 52.0725L111.943 52.4287L109.29 49.7301L107.197 50.1966L107.895 53.3307L106.474 53.6474ZM106.917 48.9404L109.404 48.3862C109.666 48.3278 109.882 48.1998 110.051 48.0023C110.218 47.7963 110.333 47.5533 110.395 47.2731C110.456 46.9929 110.453 46.7006 110.386 46.3961C110.316 46.0831 110.186 45.819 109.996 45.6038C109.804 45.3802 109.581 45.2168 109.327 45.1135C109.073 45.0103 108.824 44.986 108.578 45.0407L106.168 45.5779L106.917 48.9404Z" fill="white"/>
<path d="M27.5753 82.1139L43.5836 106.725L47.5806 77.656L53.1558 76.4136L47.497 112.591L42.5308 113.697L22 83.3563L27.5753 82.1139Z" fill="#3A926B"/>
<path d="M58.679 100.116L55.3381 85.1234L60.4917 83.975L63.6029 97.9366C64.5843 102.341 66.6367 104.195 69.76 103.499C73.0759 102.76 75.1997 99.808 75.7953 96.5966L72.3918 81.3232L77.5454 80.1748L81.7111 98.8683C81.9286 99.8447 82.4514 100.406 83.4924 100.242L84.4112 104.365C83.9011 104.577 83.4777 104.737 83.1411 104.844C82.8045 104.952 82.48 105.041 82.1677 105.11C80.4801 105.486 78.7198 104.826 78.1316 103.108L77.495 100.693C76.1167 104.698 72.7792 107.448 68.68 108.362C62.94 109.641 59.8077 105.181 58.679 100.116Z" fill="#3A926B"/>
<path d="M99.8143 101.424C92.7387 103.001 85.8588 98.6037 84.2989 91.6035C82.698 84.4195 87.1429 77.5935 94.2026 76.0203C101.164 74.469 107.964 78.8529 109.499 85.742C109.673 86.5228 109.766 87.1579 109.776 87.6473L90.1459 92.0218C91.2853 95.9198 95.1588 98.478 99.1561 97.5872C101.696 97.0213 104.264 95.0914 104.739 92.4089L109.425 92.6925C108.436 97.3379 104.258 100.434 99.8143 101.424ZM89.2432 88.633L104.048 85.3339C102.842 81.5411 99.0323 78.9274 95.0014 79.8257C91.0495 80.7063 88.6344 84.6771 89.2432 88.633Z" fill="#3A926B"/>
<path d="M130.253 76.301C134.481 76.1047 137.734 79.1975 138.623 83.1893C140.054 89.6102 134.798 94.123 129.098 95.3933C125.052 96.2949 120.552 95.8321 117.387 92.9376L119.733 88.6774C121.977 90.8803 124.959 91.3978 127.96 90.7291C131.325 89.9793 134.039 87.7727 133.209 84.0515C132.275 79.8581 128.213 79.0669 124.512 79.8916L123.247 80.1734L122.349 76.1443L123.755 75.8311C126.948 75.1195 129.912 72.7867 129.108 69.1794C128.435 66.1565 125.468 65.4172 122.75 66.0229C119.798 66.6807 117.399 68.655 116.516 71.5921L112.5 68.7987C113.866 64.7351 118.297 62.2449 122.252 61.3635C127.296 60.2397 133.228 61.8455 134.465 67.3957C135.263 70.9785 133.765 74.8574 130.253 76.301Z" fill="#3A926B"/>
<path d="M24.5753 81.1139L40.5836 105.725L44.5806 76.6559L50.1558 75.4136L44.497 111.59L39.5308 112.697L19 82.3563L24.5753 81.1139Z" fill="white"/>
<path d="M55.679 99.1157L52.3381 84.1234L57.4917 82.975L60.6029 96.9365C61.5843 101.341 63.6367 103.195 66.76 102.498C70.0759 101.76 72.1997 98.808 72.7953 95.5966L69.3918 80.3232L74.5454 79.1748L78.7111 97.8682C78.9286 98.8446 79.4514 99.4063 80.4924 99.2417L81.4112 103.365C80.9011 103.577 80.4777 103.736 80.1411 103.844C79.8045 103.952 79.48 104.041 79.1677 104.11C77.4801 104.486 75.7198 103.826 75.1316 102.108L74.495 99.6929C73.1167 103.698 69.7792 106.448 65.68 107.362C59.94 108.641 56.8077 104.181 55.679 99.1157Z" fill="white"/>
<path d="M96.8143 100.424C89.7387 102.001 82.8588 97.6036 81.2989 90.6035C79.698 83.4195 84.1429 76.5935 91.2026 75.0203C98.1644 73.4689 104.964 77.8529 106.499 84.7419C106.673 85.5228 106.766 86.1579 106.776 86.6473L87.1459 91.0217C88.2853 94.9198 92.1588 97.478 96.1561 96.5872C98.6959 96.0212 101.264 94.0914 101.739 91.4088L106.425 91.6924C105.436 96.3379 101.258 99.4336 96.8143 100.424ZM86.2432 87.6329L101.048 84.3338C99.8418 80.541 96.0323 77.9274 92.0014 78.8256C88.0495 79.7063 85.6344 83.6771 86.2432 87.6329Z" fill="white"/>
<path d="M127.253 75.301C131.481 75.1047 134.734 78.1974 135.623 82.1892C137.054 88.6101 131.798 93.123 126.098 94.3933C122.052 95.2949 117.552 94.832 114.387 91.9376L116.733 87.6774C118.977 89.8803 121.959 90.3977 124.96 89.7291C128.325 88.9793 131.039 86.7727 130.209 83.0515C129.275 78.858 125.213 78.0668 121.512 78.8915L120.247 79.1734L119.349 75.1442L120.755 74.831C123.948 74.1194 126.912 71.7866 126.108 68.1794C125.435 65.1565 122.468 64.4172 119.75 65.0229C116.798 65.6807 114.399 67.655 113.516 70.5921L109.5 67.7987C110.866 63.735 115.297 61.2448 119.252 60.3635C124.296 59.2397 130.228 60.8455 131.465 66.3957C132.263 69.9785 130.765 73.8574 127.253 75.301Z" fill="white"/>
</svg>
