<svg id="Layer_1" data-name="Layer 1" xmlns="http://www.w3.org/2000/svg" viewBox="0 0 585 431.9"><defs><style>.cls-1{fill:#f7e6d5;}.cls-2{fill:#d8802b;}</style></defs><title>book2</title><polygon class="cls-1" points="319.9 423.7 7 243 7 154.8 319.9 335.4 319.9 423.7"/><path class="cls-2" d="M585.3,221.4l-11-5.9h-.1l-9.9-5.4V203l6.3-3.6,14.7-7.5L257.2,1.8.3,152.2v96.3L321.5,433.6h0L585.3,281.4l-11-5.9h-.1l-9.9-5.4v-6.7l21-12.1-11-5.9h-.1l-9.9-5.4v-6.7Zm-257,148.4,221-127.6v17.5L328.3,387Zm0-13.3V339.3l221-127.6v17.1Zm-15.1-23.8v80.9L15.3,241.3V159.9L257,17.3,557.4,191.8Zm15.1,67.1,221-127.6v17.5L328.3,417Z" transform="translate(-0.3 -1.8)"/><polygon id="label" class="cls-1" points="368.7 130.3 211.2 221.2 119.2 168.1 276.7 77.1 368.7 130.3"/></svg>