<?xml version="1.0" encoding="utf-8"?>
<!-- Generator: Adobe Illustrator 22.0.0, SVG Export Plug-In . SVG Version: 6.00 Build 0)  -->
<svg version="1.1" id="Layer_1" xmlns="http://www.w3.org/2000/svg" xmlns:xlink="http://www.w3.org/1999/xlink" x="0px" y="0px"
	 viewBox="0 0 585.3 434" style="enable-background:new 0 0 585.3 434;" xml:space="preserve">
<style type="text/css">
	.st0{fill:#FFFFFF;}
	.st1{fill:#F7E6D5;}
	.st2{fill:#D8802B;}
</style>
<title>Group 2</title>
<desc>Created using Figma</desc>
<g>
	<polygon class="st0" points="7.3,156.1 264.2,7.8 575.6,187.6 318.8,335.9 	"/>
	<polygon class="st0" points="557.4,202 323.5,337.2 323.5,425.5 557.4,290.3 	"/>
	<polygon class="st1" points="320.2,425.5 7.3,244.9 7.3,156.6 320.2,337.2 	"/>
	<g>
		<path class="st2" d="M585.3,221.4l-11-5.9l-0.1,0.1l-9.9-5.4V203l6.3-3.6l14.7-7.5L257.2,1.8L0.3,152.2l0,96.4l321.1,185.1l0,0
			v0.1l263.8-152.3l-11-5.9l-0.1,0.1l-9.9-5.4v-6.7l21-12.1l-11-5.9l-0.1,0.1l-9.9-5.4v-6.7L585.3,221.4z M328.3,369.8l221-127.6
			v17.5L328.3,387V369.8z M328.3,356.5v-17.3l221-127.6v17.2L328.3,356.5z M313.2,332.7l0.2,0.3v80.6l-298-172.4v-81.3L257,17.3
			l300.4,174.5L313.2,332.7z M328.3,399.8l221-127.6v17.5L328.3,417V399.8z"/>
	</g>
	<polygon id="label" class="st1" points="369,132.1 211.5,223 119.5,169.9 277,79 	"/>
</g>
</svg>
