<svg width="478" height="542" viewBox="0 0 478 542" fill="none" xmlns="http://www.w3.org/2000/svg">
<g opacity="0.19">
<path opacity="0.3" d="M401.383 499.666L401.459 499.589C401.536 499.513 401.612 499.437 401.689 499.284C401.689 499.284 401.689 499.284 401.689 499.208C401.765 499.055 401.841 498.979 401.918 498.826C404.515 494.782 407.647 483.258 406.883 480.587C406.196 478.068 403.14 470.589 402.071 467.918C402.223 467.308 402.376 466.774 402.453 466.316C402.3 465.934 399.321 462.118 396.952 459.447C397.029 458.455 396.952 457.463 396.647 456.624C396.036 455.097 389.39 450.442 385.952 448.153C384.501 444.184 379.841 440.903 375.716 438.308C375.64 437.697 375.487 437.087 375.258 436.553C373.883 434.645 365.251 432.203 363.341 431.668C362.424 431.439 358.529 434.111 354.786 436.934L344.779 439.758L343.938 436.324L344.015 435.637L344.549 433.5L342.563 429.074H356.084L378.008 410.224L377.779 410.3L381.98 408.163L390.154 395.418L390.077 394.808L390.154 394.655L389.161 386.795H379.688L352.57 408.468L384.577 374.432L382.286 350.621L381.445 349.629L381.293 348.332L367.543 332L331.945 412.666L329.959 410.834L320.41 409.613C320.41 409.613 317.202 403.584 317.355 404.042C317.431 404.5 312.389 408.316 309.716 408.926C309.258 409.003 308.57 409.155 307.73 409.232C308.112 407.858 308.494 406.789 308.723 406.179C311.396 398.471 315.139 395.495 315.292 394.808C315.903 394.808 316.285 394.808 316.285 394.808C316.285 394.808 312.084 393.205 310.251 395.113C309.181 396.258 306.737 403.584 304.903 409.537C301.924 409.918 298.792 410.224 298.792 410.224C298.792 410.224 296.271 414.955 295.202 417.397C295.125 417.55 295.049 417.855 294.896 418.161C289.091 418.618 281.834 419.229 280.23 419.763C277.48 420.755 272.82 425.487 272.514 426.708C272.056 428.311 272.514 429.074 272.514 429.074C272.514 429.074 272.743 428.616 273.125 427.929C273.66 429.15 275.799 428.616 275.952 426.708C276.028 424.8 279.16 423.655 281.146 423.197C282.75 422.816 291.23 422.816 293.598 422.663C293.445 423.35 293.292 423.808 293.292 423.808L298.716 439.834L298.792 439.758C298.716 439.834 298.563 439.911 298.487 439.987C299.632 439.605 304.369 439.071 307.348 438.842C307.424 438.842 307.424 438.842 307.501 438.918L290.007 448.229L247.917 467.842L214 495.926L216.063 497.3L214.917 498.216L224.389 504.397L250.209 503.711L318.424 443.039C318.653 443.116 318.806 443.192 319.035 443.268C319.265 443.421 319.57 443.65 319.799 443.803C315.445 447.695 263.271 494.171 263.577 495.087C263.577 495.163 263.653 495.392 263.653 495.697C263.577 495.774 263.577 495.85 263.577 495.85C263.653 496.003 263.653 496.384 263.653 496.842C263.653 499.589 263.271 504.55 263.271 504.55H263.348C263.348 505.008 263.271 505.313 263.271 505.313L271.75 506L301.848 490.966L305.744 483.563L323.16 465.476L328.202 447.084C332.098 448.763 335.306 450.289 336.223 451.053C339.049 453.342 338.973 464.942 338.973 464.942L340.424 462.729C340.424 463.187 340.424 463.492 340.424 463.797C339.813 465.018 339.202 466.163 338.667 467.155C338.591 467.308 338.591 467.461 338.667 467.613C338.362 468.147 338.133 468.682 337.827 469.139C337.216 470.818 344.397 478.832 345.772 479.289C346.306 479.442 347.529 478.984 348.98 478.145C351.042 480.434 353.487 482.189 356.619 484.479C357.306 484.632 357.994 484.632 358.681 484.555C360.209 486.387 362.424 488.905 364.869 490.966C367.008 492.797 369.223 494.324 371.209 494.934H371.286C371.591 495.011 371.82 495.087 372.126 495.087C372.126 495.087 372.737 494.858 373.654 494.553C375.716 495.774 381.675 499.132 383.279 499.208C383.814 499.132 384.348 498.75 384.807 498.521C387.709 499.208 395.425 500.887 399.244 500.582C399.321 500.582 399.397 500.582 399.473 500.582C399.55 500.582 399.55 500.582 399.626 500.582C399.702 500.582 399.855 500.582 399.932 500.505C400.008 500.505 400.008 500.505 400.084 500.505C400.161 500.505 400.314 500.429 400.39 500.429H400.466C400.543 500.429 400.619 500.353 400.696 500.353H400.772C400.848 500.276 400.925 500.276 401.001 500.2C401.078 500.124 401.154 500.047 401.307 499.971C401.23 499.818 401.307 499.742 401.383 499.666ZM314.299 407.629C314.91 407.247 315.445 406.866 315.903 406.561C315.445 406.866 314.91 407.247 314.299 407.629ZM310.403 397.479C309.334 399.616 307.959 403.126 307.119 405.492C307.348 404.729 307.501 404.195 307.577 403.966C308.188 402.516 309.258 399.539 310.403 397.479Z" fill="black"/>
<path opacity="0.3" d="M354.5 381.7C354.5 381.7 354.6 381.6 354.8 381.5C354.6 381.6 354.5 381.7 354.5 381.7Z" fill="black"/>
</g>
<path opacity="0.1" d="M239.286 450.263L238.415 415.194L205.315 394.871L199.218 397.35L202.329 390.41V357.82L170.598 338.736L137.872 351.128L133.143 361.785L133.641 350.632L102.283 331.425L68.1878 343.817L55.4954 354.882L53.2555 376.036L24.2621 393.384L12.1919 404.909L6.9668 437.003L45.5405 467.611L44.6695 472.444L39.6236 501.702L79.6358 533.907L117.215 517.302L154.576 541.231L194.738 524.49L202.329 507.265V480.251L231.571 467.363L239.286 450.263ZM166.367 522.755L132.023 500.449L133.143 477.649L160.643 466L193.992 487.066V510.363L166.367 522.755ZM23.2666 408.998L52.6333 397.969L84.1155 417.796L82.6222 437.499L53.38 449.395L20.9024 428.329L23.2666 408.998ZM193.743 392.889L168.98 402.926L137.249 383.223L137.996 366.122L162.883 356.704L193.743 375.292V392.889ZM165.621 419.531L167.487 418.787L165.496 423.125L165.621 419.531ZM91.5816 415.813L91.8305 413.211L92.9504 412.715L91.5816 415.813ZM88.9684 441.836L86.853 442.704L89.3417 437.003L88.9684 441.836ZM98.3011 415.566L125.428 404.909L157.283 424.736L156.786 444.686L129.659 456.087L96.9323 435.145L98.3011 415.566ZM163.878 444.686L163.754 449.519L161.265 450.634L163.878 444.686ZM124.184 385.453L97.43 395.863L66.0724 376.036L67.69 359.183L94.568 349.393L125.179 368.105L124.184 385.453ZM55.4954 470.709L85.2354 458.565L118.211 479.631L116.966 502.556L87.2264 515.691L53.2555 493.138L55.4954 470.709ZM124.059 469.124L128.788 471.453L124.059 475.205V469.124ZM172.589 423.372L197.725 413.087L229.954 432.79L230.451 453.237L205.44 464.265L172.216 443.447L172.589 423.372Z" fill="black" fill-opacity="0.78"/>
<path d="M197.875 347.977L190.225 365.338L158.998 346.603L166.773 329.243L197.875 347.977Z" fill="#EAEAEA"/>
<path d="M166.773 329.243L158.997 346.603L127.018 358.718L134.668 341.358L166.773 329.243Z" fill="#CDCDCD"/>
<path d="M128.648 340.733L120.873 358.094L90.147 339.235L97.7971 321.874L128.648 340.733Z" fill="#EBEBEB"/>
<path d="M197.75 379.825L190.1 397.186L190.225 365.337L197.875 347.977L197.75 379.825Z" fill="white"/>
<path d="M234.244 405.803L226.594 423.164L194.113 403.305L201.763 385.945L234.244 405.803Z" fill="#EBEBEB"/>
<path d="M97.7966 321.874L90.1465 339.235L56.7871 351.349L64.4372 333.989L97.7966 321.874Z" fill="#BFBFBF"/>
<path d="M132.159 373.705L124.509 391.066L126.014 358.094L133.79 340.733L132.159 373.705Z" fill="#C4C4C4"/>
<path d="M127.018 372.706L119.242 390.067L120.873 358.094L128.648 340.733L127.018 372.706Z" fill="white"/>
<path d="M198.753 380.45L165.143 394.063L132.16 373.705L133.665 340.858L166.648 328.369L198.628 347.603L198.753 380.45ZM134.668 341.358L133.163 373.331L165.143 393.064L197.75 379.825V347.977L166.648 329.243L134.668 341.358Z" fill="white"/>
<path d="M165.143 394.063L157.492 411.424L124.509 391.066L132.159 373.705L165.143 394.063Z" fill="#B6B6B6"/>
<path d="M198.753 380.45L191.103 397.81L157.493 411.424L165.143 394.063L198.753 380.45Z" fill="#AAAAAA"/>
<path d="M201.763 385.945L194.113 403.305L161.38 416.669L169.03 399.309L201.763 385.945Z" fill="#CDCDCD"/>
<path d="M161.129 397.685L153.354 415.045L121.249 395.062L128.899 377.702L161.129 397.685Z" fill="#EBEBEB"/>
<path d="M234.997 440.149L227.347 457.51L226.594 423.164L234.244 405.803L234.997 440.149Z" fill="white"/>
<path d="M60.299 366.462L52.6489 383.822L55.9096 350.85L63.5597 333.49L60.299 366.462Z" fill="white"/>
<path d="M93.0313 386.944L85.2558 404.305L52.6489 383.822L60.299 366.462L93.0313 386.944Z" fill="#D5D5D5"/>
<path d="M127.896 373.331L120.246 390.691L85.2559 404.305L93.0314 386.944L127.896 373.331Z" fill="#9E9E9E"/>
<path d="M127.896 373.331L93.0312 386.944L60.4243 366.462L63.5596 333.489L97.9223 321L129.651 340.359L127.896 373.331ZM64.4375 333.989L61.4276 365.962L93.0312 385.945L126.892 372.706L128.523 340.733L97.7969 321.874L64.4375 333.989Z" fill="white"/>
<path d="M128.899 377.702L121.249 395.062L87.2622 408.426L95.0377 391.066L128.899 377.702Z" fill="#CDCDCD"/>
<path d="M87.3878 390.691L79.6123 408.051L47.8833 388.068L55.5334 370.708L87.3878 390.691Z" fill="#ECECEC"/>
<path d="M167.4 434.154L159.625 451.515L160.502 416.045L168.152 398.684L167.4 434.154Z" fill="#BFBFBF"/>
<path d="M160.126 432.031L152.476 449.391L153.354 415.046L161.129 397.685L160.126 432.031Z" fill="white"/>
<path d="M236 440.774L228.35 458.134L194.113 473.246L201.763 455.886L236 440.774Z" fill="#BFBFBF"/>
<path d="M201.763 455.886L194.113 473.246L159.625 451.515L167.4 434.154L201.763 455.886Z" fill="#9E9E9E"/>
<path d="M236 440.774L201.763 455.886L167.274 434.154L168.027 398.684L201.637 384.946L234.996 405.429L236 440.774ZM169.03 399.309L168.278 433.78L201.763 454.762L234.996 440.149L234.244 405.803L201.763 385.945L169.03 399.309Z" fill="white"/>
<path d="M197.875 460.382L190.1 477.743L156.615 456.635L164.265 439.275L197.875 460.382Z" fill="#ECECEC"/>
<path d="M55.5331 370.708L47.8831 388.068L12.5171 401.432L20.1672 384.072L55.5331 370.708Z" fill="#BFBFBF"/>
<path d="M91.4011 426.036L83.751 443.397L86.3846 407.802L94.0347 390.441L91.4011 426.036Z" fill="#D3D3D3"/>
<path d="M84.6286 425.287L76.9785 442.647L79.6121 408.051L87.3876 390.691L84.6286 425.287Z" fill="white"/>
<path d="M125.513 447.768L117.863 465.128L83.751 443.397L91.4011 426.036L125.513 447.768Z" fill="#B6B6B6"/>
<path d="M161.13 432.656L125.513 447.768L91.4009 426.036L94.0345 390.441L129.024 376.703L162.007 397.186L161.13 432.656ZM95.0378 391.066L92.5296 425.537L125.638 446.644L160.126 432.031L161.004 397.56L128.899 377.577L95.0378 391.066Z" fill="white"/>
<path d="M161.129 432.656L153.479 450.016L117.862 465.128L125.512 447.768L161.129 432.656Z" fill="#9E9E9E"/>
<path d="M164.265 439.275L156.615 456.635L121.876 471.373L129.526 454.013L164.265 439.275Z" fill="#CDCDCD"/>
<path d="M121.625 453.013L113.849 470.374L80.7407 449.142L88.3908 431.781L121.625 453.013Z" fill="#ECECEC"/>
<path d="M197.75 497.601L190.1 514.961V477.743L197.875 460.382L197.75 497.601Z" fill="white"/>
<path d="M14.7746 419.042L7.12451 436.403L11.6393 400.808L19.2894 383.447L14.7746 419.042Z" fill="white"/>
<path d="M48.5102 440.899L40.7347 458.259L7.12451 436.402L14.7746 419.042L48.5102 440.899Z" fill="#EDEDED"/>
<path d="M88.3908 390.316L85.6317 425.911L48.51 440.899L14.7744 419.042L19.2892 383.447L55.6585 369.709L88.3908 390.316ZM48.6354 439.9L84.7539 425.287L87.3875 390.691L55.6585 370.708L20.1671 384.072L15.9031 418.667L48.6354 439.9Z" fill="white"/>
<path d="M85.6316 425.911L77.9815 443.272L40.7344 458.259L48.5099 440.899L85.6316 425.911Z" fill="#B6B6B6"/>
<path d="M88.391 431.781L80.7409 449.142L44.4971 463.879L52.2726 446.519L88.391 431.781Z" fill="#CDCDCD"/>
<path d="M126.767 491.856L119.117 509.216L120.872 470.748L128.648 453.388L126.767 491.856Z" fill="#CACACA"/>
<path d="M119.618 490.357L111.968 507.717L113.849 470.374L121.625 453.013L119.618 490.357Z" fill="white"/>
<path d="M198.753 498.35L162.383 515.086L126.767 491.856L128.648 453.388L164.39 438.151L199.003 459.883L198.753 498.35ZM129.526 454.013L127.77 491.356L162.383 513.837L197.749 497.601V460.382L164.139 439.15L129.526 454.013Z" fill="white"/>
<path d="M198.753 498.35L191.103 515.71L154.733 532.446L162.383 515.086L198.753 498.35Z" fill="#C8C7C7"/>
<path d="M162.384 515.086L154.733 532.446L119.117 509.216L126.767 491.856L162.384 515.086Z" fill="#EDEDED"/>
<path d="M47.5069 484.487L39.7314 501.847L43.6192 463.255L51.2693 445.894L47.5069 484.487Z" fill="white"/>
<path d="M120.622 490.981L82.6219 507.717L47.3813 484.362L51.1437 445.77L88.3908 430.532L122.503 452.389L120.622 490.981ZM52.2724 446.519L48.6355 483.987L82.8727 506.593L119.744 490.357L121.625 453.013L88.3908 431.781L52.2724 446.519Z" fill="white"/>
<path d="M82.6221 507.842L74.972 525.202L39.7314 501.847L47.5069 484.487L82.6221 507.842Z" fill="#EDEDED"/>
<path d="M120.622 490.981L112.972 508.342L74.9722 525.202L82.6223 507.842L120.622 490.981Z" fill="#C8C7C7"/>
<path d="M353.199 280.935L353.902 288.029L348.517 279.12C348.517 279.12 330.92 252.149 329.126 249.14C327.331 246.01 319.691 226.638 319.691 226.638L322.942 224.123C322.942 224.123 331.684 236.286 336.35 244.351C341.016 252.417 352.13 276.245 352.13 276.245C352.13 276.245 360.883 284.321 360.282 284.32C359.681 284.318 353.199 280.935 353.199 280.935Z" fill="url(#paint0_linear)"/>
<path d="M337.836 182.936C337.594 183.657 333.204 207.323 333.204 207.323L324.763 217.637L325.824 225.092L322.697 225.805L318.722 229.039L317.304 220.262L331.708 182.319C331.708 182.319 338.222 173.442 338.461 174.164C338.699 174.886 337.836 182.936 337.836 182.936Z" fill="url(#paint1_linear)"/>
<path d="M428.152 164.067L448.901 180.709L453.213 186.49L444.207 183.221L426.688 172.357L428.152 164.067Z" fill="url(#paint2_linear)"/>
<path d="M373.608 155.508C376.851 156.237 409.08 149.953 409.08 149.953L431.64 163.355L431.961 178.501L414.096 161.866L381.88 163.342L375.86 167.293L367.442 168.953L373.608 155.508Z" fill="url(#paint3_radial)"/>
<path d="M471.937 196.156L447.972 186.855C447.972 186.855 446.083 184.576 446.466 183.061C446.849 181.547 449.51 178.522 449.51 178.522L462.752 186.895L477.144 190.344L469.786 191.583L471.937 196.156Z" fill="url(#paint4_linear)"/>
<path d="M320.457 120.028L311.773 131.183L296.222 148.329L307.353 165.907C307.353 165.907 345.054 180.672 349.612 184.29C354.17 187.908 353.88 206.177 353.88 206.177L382.606 161.662L360.954 167.733L353.824 137.546L337.759 122.238L320.457 120.028Z" fill="url(#paint5_linear)"/>
<path d="M322.744 118.832L314.06 129.987L298.509 147.133L309.64 164.711C309.64 164.711 347.341 179.476 351.899 183.094C356.457 186.712 356.167 204.981 356.167 204.981L384.893 160.466L363.242 166.538L356.111 136.35L339.926 121.042L322.744 118.832Z" fill="#BCBEC0"/>
<path d="M355.539 170.363C356.739 170.847 363.338 175.312 364.902 174.835C366.346 174.358 388.149 156.388 391.152 157.117C394.154 157.966 407.726 161.849 409.881 164.859C415.734 178.457 388.12 211.917 380.046 219.828C377.154 222.585 366.678 229.648 364.517 228.921C362.355 228.195 351.091 215.664 352.059 212.902C356.166 205.461 363.292 192.499 357.307 183.229C348.679 173.71 346.022 178.27 355.539 170.363Z" fill="url(#paint6_linear)"/>
<path d="M452.55 209.686C452.55 209.686 459.356 226.411 460.665 231.222C461.975 236.034 455.302 258.973 451.088 261.846C446.873 264.719 423.091 258.766 423.812 258.768C439.336 251.838 449.159 219.292 452.55 209.686Z" fill="url(#paint7_linear)"/>
<g filter="url(#filter0_d)">
<path d="M406.043 251.629C407.003 252.113 419.843 259.719 422.727 260.087C443.889 257.019 451.69 216.655 453.874 208.848C453.516 207.886 442.495 194.034 441.174 193.79C441.172 194.511 432.675 225.739 430.497 231.141C428.319 236.544 406.043 251.629 406.043 251.629Z" fill="url(#paint8_linear)"/>
</g>
<g filter="url(#filter1_d)">
<path d="M424.87 177.881C424.87 177.881 443.587 190.19 444.781 193.439C445.974 196.687 444.639 201.612 444.274 203.053C442.819 207.977 426.501 242.068 421.081 246.261C415.661 250.453 405.797 253.792 405.797 253.792C397.626 252.688 385.884 239.075 382.772 234.259C382.772 234.259 400.009 215.675 404.229 210.758C408.449 205.842 424.87 177.881 424.87 177.881Z" fill="url(#paint9_linear)"/>
</g>
<g filter="url(#filter2_d)">
<path d="M402.327 157.988C408.563 163.414 426.932 171.155 428.584 182.338C424.953 191.943 399.698 240.541 381.442 237.02C372.685 230.626 367.407 226.766 362.868 216.056C367.456 208.256 396.898 165.546 402.327 157.988Z" fill="url(#paint10_linear)"/>
</g>
<g filter="url(#filter3_d)">
<path d="M356.869 167.242C358.07 167.726 364.668 172.191 366.232 171.714C367.796 171.237 389.479 153.266 392.482 153.996C395.484 154.845 409.056 158.727 411.211 161.738C417.064 175.336 389.45 208.796 381.376 216.707C378.484 219.464 368.008 226.527 365.847 225.8C363.685 225.073 352.421 212.543 353.39 209.781C357.496 202.34 364.622 189.378 358.637 180.107C350.009 170.589 347.352 175.149 356.869 167.242Z" fill="url(#paint11_linear)"/>
</g>
<path opacity="0.15" d="M448.935 257.634C446.168 258.828 438.359 257.485 432.354 255.666C432.475 255.546 432.957 255.067 433.077 255.067C430.194 254.218 428.153 253.612 426.232 252.885C424.911 252.401 422.029 251.432 418.068 249.137C417.949 249.017 419.153 247.938 418.913 247.818C418.913 247.818 418.191 248.296 418.191 248.176C411.831 244.553 402.589 239.48 394.551 233.81C394.311 233.689 396.312 231.058 396.312 231.058L394.555 232.569C387.477 227.622 381.716 224.521 377.88 220.664C378.121 220.424 380.412 217.666 380.773 217.427C381.134 217.187 378.967 218.744 379.208 218.504C377.529 216.817 375.253 214.287 374.534 213.443C364.71 201.278 365.084 196.471 364.007 194.545C362.931 192.619 362.341 188.411 361.025 186.243C361.6 195.861 355.926 205.22 353.51 209.781C352.541 212.423 363.805 225.074 365.967 225.801C365.967 225.801 368.372 225.446 368.492 225.447C372.084 230.384 375.518 232.739 381.516 237.082C382.477 237.325 383.965 237.208 384.927 237.091C389.598 242.993 399.067 253.053 405.916 253.913C405.916 253.913 406.879 253.555 408.322 253.078C411.562 255.009 420.923 260.323 423.447 260.45C424.289 260.332 425.252 259.493 426.094 259.255C431.379 260.591 447.836 264.361 451.328 261.967C452.652 261.009 454.102 258.248 455.675 254.406C453.386 256.203 451.102 256.558 448.935 257.634Z" fill="black"/>
<path d="M349.59 192.703L349.5 226.357L358.036 225.178L359.161 209.075L358.092 204.505L367.093 209.457L361.716 197.664L358.378 187.559L349.59 192.703Z" fill="url(#paint12_linear)"/>
<path d="M426.369 291.588L419.165 288.684C419.165 288.684 401.897 273.734 401.416 273.973C400.935 274.212 398.652 273.965 398.652 273.965L399.023 269.76C399.023 269.76 384.764 253.495 384.163 253.374C383.563 253.252 379.599 252.039 379.599 252.039L378.258 259.127L394.44 275.757L397.682 277.088L397.913 280.574L416.276 290.599L421.545 297.825L420.479 291.692L426.369 291.708L426.369 291.588Z" fill="url(#paint13_linear)"/>
<g filter="url(#filter4_d)">
<path d="M361.286 223.624L361.263 232.158L377.806 248.429L388.376 250.981L380.436 253.844L379.688 263.698L357.991 241.885L347.218 225.51L359.373 219.533L361.286 223.624Z" fill="url(#paint14_linear)"/>
</g>
<path d="M247.819 180.291L255.378 185.239L284.235 181.23L301.11 163.246L306.637 164.102L294.204 184.021L260.782 187.057L243.222 191.096L250.445 187.029L247.819 180.291Z" fill="url(#paint15_linear)"/>
<path d="M283.746 139.281C283.384 139.761 266.197 139.595 263.19 140.308C259.943 141.02 255.13 142.81 255.002 145.815C254.874 148.819 251.265 149.771 250.55 147.606C249.835 145.44 259.472 137.293 260.556 136.334C261.64 135.496 280.515 133.744 283.041 133.149C285.687 132.676 297.823 134.03 297.823 134.03C297.823 134.03 301.831 118.296 302.558 116.134C303.285 113.973 309.58 97.1623 311.144 96.4453C312.709 95.7283 316.558 94.6568 316.917 95.379C317.275 96.1011 311.013 100.531 306.532 113.38C304.957 117.943 299.133 138.361 299.133 138.361L283.746 139.281Z" fill="url(#paint16_linear)"/>
<path d="M296.748 131.503C296.266 131.863 265.973 133.344 261.762 135.015C257.551 136.687 250.079 143.999 249.593 145.92C248.865 148.443 249.583 149.646 249.583 149.646C249.583 149.646 253.572 141.244 259.109 138.254C264.646 135.264 298.299 135.834 298.299 135.834C298.299 135.834 303.891 112.051 304.858 110.13C306.43 106.529 309.701 96.8019 312.708 96.209C315.714 95.7363 318.598 95.8642 318.598 95.8642C318.598 95.8642 311.994 93.3225 309.102 96.3196C306.209 99.3167 296.748 131.503 296.748 131.503Z" fill="#F6F7F8"/>
<path d="M291.366 121.152C291.244 121.873 283.139 141.563 283.139 141.563C283.139 141.563 289.334 161.772 290.296 161.895C291.137 162.017 301.11 163.246 308.193 166.27C315.276 169.294 332.479 163.691 333.452 159.246C334.306 154.801 327.155 132.186 328.005 128.702C328.856 125.339 319.998 111.613 319.635 112.454C319.272 113.294 314.455 116.767 309.523 118.557C304.469 120.466 291.366 121.152 291.366 121.152Z" fill="url(#paint17_linear)"/>
<path d="M291.726 121.394C291.726 121.394 298.529 139.321 298.528 139.922C298.527 140.402 295.268 145.442 293.693 150.125C292.481 153.848 291.487 166.105 291.487 166.105C291.487 166.105 283.379 141.684 283.38 141.203C283.381 140.722 286.649 132.318 287.377 129.675C287.986 126.792 291.726 121.394 291.726 121.394Z" fill="url(#paint18_linear)"/>
<path d="M324.907 119.079C324.907 119.079 319.884 109.57 320.122 110.292C320.241 111.013 312.292 117.001 308.083 117.952C303.994 118.782 290.889 120.069 290.889 120.069C290.889 120.069 286.903 127.511 285.21 131.352C284.363 133.393 282.178 141.32 282.178 141.32L290.644 166.584L291.968 165.866C291.968 165.866 283.617 142.646 283.62 141.685C283.624 140.002 285.44 135.079 286.892 131.357C288.345 127.635 291.726 121.874 291.726 121.874C291.726 121.874 306.515 119.991 309.04 119.397C311.566 118.923 319.636 112.454 319.634 113.295C319.631 114.136 328.848 128.464 328.848 128.464C328.848 128.464 330.779 125.464 330.298 125.463C329.817 125.462 324.907 119.079 324.907 119.079Z" fill="#F1F2F2"/>
<path d="M336.553 123.557C335.353 122.833 323.462 119.796 318.771 120.985C306.984 124.079 298.671 131.509 297.343 133.548C296.015 135.588 292.749 143.392 292.741 146.517C292.734 149.161 291.487 165.985 291.487 165.985C291.487 165.985 290.282 167.184 290.282 167.063C290.285 166.102 308.317 164.708 308.317 164.708C308.317 164.708 301.735 154.233 308.713 151.608C315.691 148.982 328.574 140.843 329.667 136.519C330.76 132.195 336.553 123.557 336.553 123.557Z" fill="url(#paint19_radial)"/>
<g opacity="0.34" filter="url(#filter5_f)">
<path d="M320.696 120.269C320.696 120.269 308.791 122.641 303.853 126.474C299.878 129.589 292.205 122.236 292.205 122.236C292.205 122.236 292.657 133.055 292.167 136.419C291.677 139.783 291.777 147.476 291.648 150.721C291.519 153.966 291.968 165.866 291.97 165.025C291.973 164.183 294.169 151.929 295.381 147.966C296.594 143.883 301.292 139.929 303.825 136.691C306.358 133.452 324.661 120.761 324.661 120.761L320.696 120.269Z" fill="black"/>
</g>
<path d="M349.825 149.674L380.955 149.758L415.53 120.163L334.914 152.038L294.527 242.797L329.118 207.072L343.076 156.387L349.825 149.674Z" fill="#D8D9D9"/>
<path d="M419.777 87.5082L352.324 141.295L326.027 176.681C326.027 176.681 236.391 256.13 236.867 257.694C237.344 259.257 236.346 272.596 236.346 272.596L249.685 273.714L297.104 250.163L344.704 159.423L423.416 119.97L436.33 99.9324L434.801 87.5484L419.777 87.5082Z" fill="#C9CBCC"/>
<path d="M418.269 84.4724L350.817 138.259L324.52 173.646C324.52 173.646 234.883 253.094 235.359 254.658C235.836 256.222 234.839 269.561 234.839 269.561L248.177 270.678L295.597 247.127L343.196 156.388L421.908 116.934L434.823 96.8967L433.293 84.5126L418.269 84.4724Z" fill="white"/>
<path d="M426.017 63.94L336.339 158.893L214.173 266.981L173.545 267.954L158.667 258.179L212.271 214.091L311.692 161.351L344.596 127.545L401.066 0.651237L422.512 26.4301L426.017 63.94Z" fill="#BDBFC0"/>
<path d="M424.464 60.33L334.786 155.283L212.62 263.371L171.992 264.344L157.114 254.569L210.718 210.481L318.184 160.648L343.043 123.935L395.464 5.90283C395.464 5.90283 397.084 2.28076 400.145 1.71268C403.206 1.1446 406.207 4.99766 406.207 4.99766L420.959 22.8202L424.464 60.33Z" fill="#FEFEFF"/>
<path d="M317.213 164.251L164.209 253.025L239.557 213.202L212.869 260.006L249.912 206.379L334.786 155.283L342.529 136.314L382.364 72.4771L417.267 60.129L384.09 68.4455L401.071 4.98389L381.899 66.5863L336.258 143.989L317.213 164.251Z" fill="url(#paint20_linear)"/>
<g filter="url(#filter6_d)">
<path d="M346.141 133.679L337.634 123.8C337.634 123.8 320.572 121.711 320.33 122.432C320.088 123.152 300.923 143.294 300.923 143.294L299.833 146.175L305.679 162.417C305.679 162.417 316.482 167.855 317.202 168.337C317.922 168.82 330.52 177.147 330.52 177.147L360.931 176.507L362.3 158.963C362.3 158.963 355.618 140.675 354.416 140.672C353.214 140.669 346.141 133.679 346.141 133.679Z" fill="#D1D3D4"/>
</g>
<path d="M339.92 122.845L320.696 120.269L300.803 143.173L306.645 160.737L320.811 167.025L328.484 174.498L357.809 175.057L334.307 154.321C334.307 154.321 321.654 166.426 321.295 166.065C320.935 165.703 333.348 153.356 333.348 153.356C333.348 153.356 311.524 134.067 312.004 134.429C312.484 134.791 334.192 152.517 334.192 152.517L347.696 136.568L335.392 153.242L358.655 173.376L362.907 156.561L355.858 140.796L339.92 122.845Z" fill="url(#paint21_linear)"/>
<path d="M348.545 133.806L334.314 151.796L312.004 134.669L332.627 153.475L321.295 166.185L306.646 160.737C306.646 160.737 301.887 142.335 302.006 142.816C302.125 143.297 311.169 132.143 311.169 132.143L320.21 122.191L339.801 122.724L348.545 133.806Z" fill="url(#paint22_linear)"/>
<defs>
<filter id="filter0_d" x="402.042" y="191.79" width="55.8315" height="74.2976" filterUnits="userSpaceOnUse" color-interpolation-filters="sRGB">
<feFlood flood-opacity="0" result="BackgroundImageFix"/>
<feColorMatrix in="SourceAlpha" type="matrix" values="0 0 0 0 0 0 0 0 0 0 0 0 0 0 0 0 0 0 127 0"/>
<feOffset dy="2"/>
<feGaussianBlur stdDeviation="2"/>
<feColorMatrix type="matrix" values="0 0 0 0 0 0 0 0 0 0 0 0 0 0 0 0 0 0 0.15 0"/>
<feBlend mode="normal" in2="BackgroundImageFix" result="effect1_dropShadow"/>
<feBlend mode="normal" in="SourceGraphic" in2="effect1_dropShadow" result="shape"/>
</filter>
<filter id="filter1_d" x="378.771" y="175.881" width="70.4948" height="83.9114" filterUnits="userSpaceOnUse" color-interpolation-filters="sRGB">
<feFlood flood-opacity="0" result="BackgroundImageFix"/>
<feColorMatrix in="SourceAlpha" type="matrix" values="0 0 0 0 0 0 0 0 0 0 0 0 0 0 0 0 0 0 127 0"/>
<feOffset dy="2"/>
<feGaussianBlur stdDeviation="2"/>
<feColorMatrix type="matrix" values="0 0 0 0 0 0 0 0 0 0 0 0 0 0 0 0 0 0 0.15 0"/>
<feBlend mode="normal" in2="BackgroundImageFix" result="effect1_dropShadow"/>
<feBlend mode="normal" in="SourceGraphic" in2="effect1_dropShadow" result="shape"/>
</filter>
<filter id="filter2_d" x="358.868" y="155.988" width="73.7161" height="87.2137" filterUnits="userSpaceOnUse" color-interpolation-filters="sRGB">
<feFlood flood-opacity="0" result="BackgroundImageFix"/>
<feColorMatrix in="SourceAlpha" type="matrix" values="0 0 0 0 0 0 0 0 0 0 0 0 0 0 0 0 0 0 127 0"/>
<feOffset dy="2"/>
<feGaussianBlur stdDeviation="2"/>
<feColorMatrix type="matrix" values="0 0 0 0 0 0 0 0 0 0 0 0 0 0 0 0 0 0 0.15 0"/>
<feBlend mode="normal" in2="BackgroundImageFix" result="effect1_dropShadow"/>
<feBlend mode="normal" in="SourceGraphic" in2="effect1_dropShadow" result="shape"/>
</filter>
<filter id="filter3_d" x="346.849" y="151.974" width="69.1697" height="79.8784" filterUnits="userSpaceOnUse" color-interpolation-filters="sRGB">
<feFlood flood-opacity="0" result="BackgroundImageFix"/>
<feColorMatrix in="SourceAlpha" type="matrix" values="0 0 0 0 0 0 0 0 0 0 0 0 0 0 0 0 0 0 127 0"/>
<feOffset dy="2"/>
<feGaussianBlur stdDeviation="2"/>
<feColorMatrix type="matrix" values="0 0 0 0 0 0 0 0 0 0 0 0 0 0 0 0 0 0 0.15 0"/>
<feBlend mode="normal" in2="BackgroundImageFix" result="effect1_dropShadow"/>
<feBlend mode="normal" in="SourceGraphic" in2="effect1_dropShadow" result="shape"/>
</filter>
<filter id="filter4_d" x="345.218" y="217.533" width="49.1583" height="52.1655" filterUnits="userSpaceOnUse" color-interpolation-filters="sRGB">
<feFlood flood-opacity="0" result="BackgroundImageFix"/>
<feColorMatrix in="SourceAlpha" type="matrix" values="0 0 0 0 0 0 0 0 0 0 0 0 0 0 0 0 0 0 127 0"/>
<feOffset dx="2" dy="2"/>
<feGaussianBlur stdDeviation="2"/>
<feColorMatrix type="matrix" values="0 0 0 0 0 0 0 0 0 0 0 0 0 0 0 0 0 0 0.25 0"/>
<feBlend mode="normal" in2="BackgroundImageFix" result="effect1_dropShadow"/>
<feBlend mode="normal" in="SourceGraphic" in2="effect1_dropShadow" result="shape"/>
</filter>
<filter id="filter5_f" x="287.625" y="116.269" width="41.0366" height="52.7979" filterUnits="userSpaceOnUse" color-interpolation-filters="sRGB">
<feFlood flood-opacity="0" result="BackgroundImageFix"/>
<feBlend mode="normal" in="SourceGraphic" in2="BackgroundImageFix" result="shape"/>
<feGaussianBlur stdDeviation="2" result="effect1_foregroundBlur"/>
</filter>
<filter id="filter6_d" x="295.833" y="122.281" width="70.4666" height="62.8666" filterUnits="userSpaceOnUse" color-interpolation-filters="sRGB">
<feFlood flood-opacity="0" result="BackgroundImageFix"/>
<feColorMatrix in="SourceAlpha" type="matrix" values="0 0 0 0 0 0 0 0 0 0 0 0 0 0 0 0 0 0 127 0"/>
<feOffset dy="4"/>
<feGaussianBlur stdDeviation="2"/>
<feColorMatrix type="matrix" values="0 0 0 0 0 0 0 0 0 0 0 0 0 0 0 0 0 0 0.25 0"/>
<feBlend mode="normal" in2="BackgroundImageFix" result="effect1_dropShadow"/>
<feBlend mode="normal" in="SourceGraphic" in2="effect1_dropShadow" result="shape"/>
</filter>
<linearGradient id="paint0_linear" x1="345.902" y1="233.196" x2="316.319" y2="241.834" gradientUnits="userSpaceOnUse">
<stop stop-color="white"/>
<stop offset="0.3545" stop-color="#E6E7E7"/>
<stop offset="0.7292" stop-color="#9C9FA1"/>
<stop offset="0.9958" stop-color="#7D8083"/>
</linearGradient>
<linearGradient id="paint1_linear" x1="341.604" y1="207.087" x2="322.181" y2="198.837" gradientUnits="userSpaceOnUse">
<stop stop-color="white"/>
<stop offset="0.3545" stop-color="#E6E7E7"/>
<stop offset="0.4517" stop-color="#D4D4D6"/>
<stop offset="0.7292" stop-color="#9C9FA1"/>
<stop offset="1" stop-color="#7D8083"/>
</linearGradient>
<linearGradient id="paint2_linear" x1="443.592" y1="170.566" x2="433.406" y2="187.103" gradientUnits="userSpaceOnUse">
<stop offset="0.0844303" stop-color="white"/>
<stop offset="0.3545" stop-color="#E6E7E7"/>
<stop offset="0.7292" stop-color="#9C9FA1"/>
<stop offset="0.9958" stop-color="#7D8083"/>
</linearGradient>
<radialGradient id="paint3_radial" cx="0" cy="0" r="1" gradientUnits="userSpaceOnUse" gradientTransform="translate(398.219 165.861) rotate(4.81259) scale(52.0395 15.6427)">
<stop stop-color="#7D8083"/>
<stop offset="0.8086" stop-color="#E6E7E7"/>
</radialGradient>
<linearGradient id="paint4_linear" x1="461.997" y1="177.903" x2="453.975" y2="197.498" gradientUnits="userSpaceOnUse">
<stop offset="0.0844303" stop-color="white"/>
<stop offset="0.3545" stop-color="#E6E7E7"/>
<stop offset="0.7292" stop-color="#9C9FA1"/>
<stop offset="0.9958" stop-color="#7D8083"/>
</linearGradient>
<linearGradient id="paint5_linear" x1="296.288" y1="163.019" x2="382.598" y2="163.25" gradientUnits="userSpaceOnUse">
<stop offset="0.00355571" stop-color="white"/>
<stop offset="0.1259" stop-color="#E6E7E7"/>
<stop offset="0.2297" stop-color="#D4D4D6"/>
<stop offset="0.5586" stop-color="#9C9FA1"/>
<stop offset="0.9371" stop-color="#7D8083"/>
</linearGradient>
<linearGradient id="paint6_linear" x1="398.178" y1="190.737" x2="358.052" y2="195.137" gradientUnits="userSpaceOnUse">
<stop offset="0.1601" stop-color="#E6E7E7"/>
<stop offset="0.9327" stop-color="#A3A5A8"/>
</linearGradient>
<linearGradient id="paint7_linear" x1="424.005" y1="236.11" x2="460.939" y2="236.209" gradientUnits="userSpaceOnUse">
<stop offset="0.1601" stop-color="#E6E7E7"/>
<stop offset="0.9327" stop-color="#A3A5A8"/>
</linearGradient>
<linearGradient id="paint8_linear" x1="418" y1="216.5" x2="453.783" y2="226.923" gradientUnits="userSpaceOnUse">
<stop offset="0.65625" stop-color="white"/>
<stop offset="1" stop-color="#E6E7E7"/>
</linearGradient>
<linearGradient id="paint9_linear" x1="382.79" y1="215.794" x2="445.235" y2="215.961" gradientUnits="userSpaceOnUse">
<stop offset="0.1601" stop-color="#E6E7E7"/>
<stop offset="0.9327" stop-color="#A3A5A8"/>
</linearGradient>
<linearGradient id="paint10_linear" x1="389.5" y1="174.5" x2="430.5" y2="201" gradientUnits="userSpaceOnUse">
<stop offset="0.44727" stop-color="white"/>
<stop offset="0.989583" stop-color="#E6E7E7"/>
</linearGradient>
<linearGradient id="paint11_linear" x1="350.783" y1="189.77" x2="411.937" y2="189.933" gradientUnits="userSpaceOnUse">
<stop offset="0.1601" stop-color="#E6E7E7"/>
<stop offset="0.9327" stop-color="#A3A5A8"/>
</linearGradient>
<linearGradient id="paint12_linear" x1="365.048" y1="207.189" x2="346.82" y2="206.864" gradientUnits="userSpaceOnUse">
<stop stop-color="white"/>
<stop offset="0.1742" stop-color="#E6E7E7"/>
<stop offset="0.4517" stop-color="#D4D4D6"/>
<stop offset="0.7292" stop-color="#9C9FA1"/>
<stop offset="1" stop-color="#7D8083"/>
</linearGradient>
<linearGradient id="paint13_linear" x1="399.638" y1="262.901" x2="385.561" y2="283.328" gradientUnits="userSpaceOnUse">
<stop stop-color="white"/>
<stop offset="0.293491" stop-color="#E6E7E7"/>
<stop offset="0.7292" stop-color="#9C9FA1"/>
<stop offset="0.9958" stop-color="#7D8083"/>
</linearGradient>
<linearGradient id="paint14_linear" x1="372.452" y1="238.665" x2="361.17" y2="246.119" gradientUnits="userSpaceOnUse">
<stop offset="0.0844303" stop-color="white"/>
<stop offset="0.3545" stop-color="#E6E7E7"/>
<stop offset="0.7292" stop-color="#9C9FA1"/>
<stop offset="0.9958" stop-color="#7D8083"/>
</linearGradient>
<linearGradient id="paint15_linear" x1="268.084" y1="161.24" x2="280.131" y2="189.943" gradientUnits="userSpaceOnUse">
<stop offset="0.1632" stop-color="white"/>
<stop offset="0.3545" stop-color="#E6E7E7"/>
<stop offset="0.4517" stop-color="#D4D4D6"/>
<stop offset="0.7292" stop-color="#9C9FA1"/>
<stop offset="0.8357" stop-color="#7D8083"/>
</linearGradient>
<linearGradient id="paint16_linear" x1="312.558" y1="156.224" x2="279.044" y2="116.144" gradientUnits="userSpaceOnUse">
<stop offset="0.1178" stop-color="white"/>
<stop offset="0.3545" stop-color="#E6E7E7"/>
<stop offset="0.4517" stop-color="#D4D4D6"/>
<stop offset="0.7292" stop-color="#9C9FA1"/>
<stop offset="0.9109" stop-color="#7D8083"/>
</linearGradient>
<linearGradient id="paint17_linear" x1="332.698" y1="139.411" x2="289.832" y2="140.538" gradientUnits="userSpaceOnUse">
<stop offset="0.00355571" stop-color="white"/>
<stop offset="0.1259" stop-color="#E6E7E7"/>
<stop offset="0.2297" stop-color="#D4D4D6"/>
<stop offset="0.5586" stop-color="#9C9FA1"/>
<stop offset="0.9371" stop-color="#7D8083"/>
</linearGradient>
<linearGradient id="paint18_linear" x1="280.08" y1="143.308" x2="294.359" y2="143.769" gradientUnits="userSpaceOnUse">
<stop offset="0.1601" stop-color="#E6E7E7"/>
<stop offset="0.9327" stop-color="#A3A5A8"/>
</linearGradient>
<radialGradient id="paint19_radial" cx="0" cy="0" r="1" gradientUnits="userSpaceOnUse" gradientTransform="translate(316.98 134.69) rotate(0.153389) scale(33.329)">
<stop offset="0.2857" stop-color="#E6E7E7"/>
<stop offset="0.9368" stop-color="#6F7173"/>
</radialGradient>
<linearGradient id="paint20_linear" x1="257.609" y1="105.769" x2="307.51" y2="151.275" gradientUnits="userSpaceOnUse">
<stop offset="0.2" stop-color="white"/>
<stop offset="0.8361" stop-color="#E6E7E7"/>
</linearGradient>
<linearGradient id="paint21_linear" x1="300.833" y1="147.636" x2="362.874" y2="147.802" gradientUnits="userSpaceOnUse">
<stop offset="0.2" stop-color="white"/>
<stop offset="0.8361" stop-color="#E6E7E7"/>
</linearGradient>
<linearGradient id="paint22_linear" x1="302.021" y1="144.234" x2="375" y2="139.5" gradientUnits="userSpaceOnUse">
<stop offset="0.2" stop-color="white"/>
<stop offset="0.8361" stop-color="#E6E7E7"/>
</linearGradient>
</defs>
</svg>
