<svg width="1712" height="2153" viewBox="0 0 1712 2153" fill="none" xmlns="http://www.w3.org/2000/svg">
<g clip-path="url(#clip0)">
<rect width="1712" height="2153" fill="white"/>
<rect width="1712" height="2153" fill="#EB5757"/>
<path d="M4.00152 4.57418C3.78957 4.82587 3.53559 5.02832 3.23958 5.18152C2.94724 5.33472 2.62565 5.41133 2.27484 5.41133C1.81439 5.41133 1.41241 5.29825 1.0689 5.07209C0.729044 4.84594 0.46593 4.52859 0.279558 4.12005C0.093186 3.70786 0 3.25373 0 2.75764C0 2.22508 0.100495 1.74541 0.301484 1.31863C0.506128 0.891857 0.794822 0.56539 1.16757 0.339234C1.54031 0.113078 1.97518 0 2.47217 0C3.26151 0 3.88275 0.295462 4.33589 0.886385C4.79269 1.47366 5.02108 2.27615 5.02108 3.29385V3.58931C5.02108 5.13957 4.71412 6.27218 4.10019 6.98712C3.48625 7.69842 2.55987 8.06319 1.32105 8.08142H1.12371V7.22787H1.33749C2.17434 7.21328 2.81751 6.99624 3.26699 6.57676C3.71648 6.15363 3.96132 5.4861 4.00152 4.57418ZM2.43928 4.57418C2.77914 4.57418 3.09158 4.47023 3.37662 4.26231C3.66532 4.05439 3.87544 3.79723 4.007 3.49082V3.08593C4.007 2.42206 3.86265 1.8822 3.57396 1.46637C3.28526 1.05053 2.91983 0.842613 2.47765 0.842613C2.03182 0.842613 1.67369 1.01405 1.40327 1.35694C1.13285 1.69617 0.997639 2.14483 0.997639 2.70293C0.997639 3.24643 1.12737 3.69509 1.38683 4.04892C1.64994 4.3991 2.00076 4.57418 2.43928 4.57418Z" transform="translate(1219.84 1892.96)" fill="black"/>
<path d="M56.3605 6.62151L55.4388 5.60922L54.0901 5.37398L0.687302 -3.94051L-9.63155 -5.74032L-3.1389 2.47938C1.2651 8.05484 12.4239 22.2883 18.0028 34.8162C21.9004 43.5687 25.466 54.6267 28.149 62.9586C28.149 62.9587 28.149 62.9587 28.1491 62.9588L28.1741 63.0365C29.3596 66.7185 30.3959 69.9371 31.1885 72.0628L31.575 73.0996L32.4395 73.7904L111.979 137.347L114.352 139.243L116.815 137.466L204.838 73.9776L205.775 73.3014L206.207 72.2292C207.061 70.1109 208.175 66.9113 209.447 63.2604L209.499 63.1097L205.722 61.7944L209.499 63.1096C212.402 54.771 216.256 43.7169 220.468 34.9679L216.864 33.2329L220.468 34.9679C226.497 22.4436 238.565 8.20504 243.335 2.61808L250.404 -5.66232L239.656 -3.92801L181.883 5.3938L180.589 5.60259L179.67 6.53668L135.206 51.7073L132.807 47.807L132.237 46.8793L131.275 46.3688L117.419 39.0161L115.493 37.9941L113.59 39.0589L100.552 46.3562L99.579 46.9004L99.0281 47.8692L97.0628 51.3246L56.3605 6.62151Z" transform="translate(1107.96 1671.87)" fill="white" stroke="black" stroke-width="8"/>
<g filter="url(#filter0_f)">
<path d="M55.3553 2.00785L0 -8.16271e-07C5.88909 5.38905 14.7982 13.6144 21.1403 24.1089C28.2371 35.8522 30.3514 44.1051 37.1441 59.9525L117.295 120.456L117.329 119.268L118.086 32.7865L104.164 40.2325L104.485 40.6053L100.019 47.0874L55.5507 1.97999L55.3553 2.00785Z" transform="translate(1104.76 1689.11)" fill="black" fill-opacity="0.11"/>
</g>
<g filter="url(#filter1_f)">
<path d="M60.8756 2.00932L0 0C6.47638 5.393 16.274 13.6244 23.2485 24.1266C31.0531 35.8785 33.3783 44.1374 40.8483 59.9965L128.992 120.544L129.029 119.356L129.862 32.8106L114.552 40.262L114.905 40.6351L109.994 47.1219L61.0906 1.98145L60.8756 2.00932Z" transform="translate(1350.74 1689.04) scale(-1 1)" fill="black" fill-opacity="0.11"/>
</g>
<g filter="url(#filter2_d)">
<path d="M14.0413 51.7802L41.4597 0C43.0164 7.07461 47.1844 25.7998 53.813 38.6846C60.4417 51.5694 71.4392 66.682 75.0548 72.7029L72.586 181.258L0 125.326L14.3426 118.613L23.9842 119.516L14.0413 51.7802Z" transform="matrix(0.600917 0.799312 -0.797537 0.60327 1323.34 1637.68)" fill="white"/>
<path d="M9.09899 68.1549L0 0L58.3617 130.321L9.09899 68.1549Z" transform="matrix(0.600917 0.799312 -0.797537 0.60327 1291.29 1679.57)" fill="#F1F1F1"/>
<path d="M0 6.17147L23.6521 1.05367L13.5586 0L0 6.17147Z" transform="matrix(0.600917 0.799312 -0.797537 0.60327 1228.97 1708.84)" fill="#C4C4C4"/>
<path d="M13.8665 49.3117L40.5427 0C42.0572 6.73736 46.1124 24.5699 52.5616 36.8405C59.0108 49.111 69.7105 63.5032 73.2283 69.2371L72.0714 171.235L0 119.618L14.1597 112.958L23.5403 113.818L13.8665 49.3117Z" transform="matrix(-0.570919 0.821006 0.774114 0.633047 1131.11 1637.51)" fill="url(#paint0_linear)"/>
<path d="M9.20534 64.4479L0 0L58.3033 122.225L9.20534 64.4479Z" transform="matrix(-0.570919 0.821006 0.774114 0.633047 1161.04 1679.84)" fill="#FFFCFC"/>
<path fill-rule="evenodd" clip-rule="evenodd" d="M13.9156 34.666L28.8683 10.9453L13.8802 0L13.9156 34.666ZM13.8217 34.9902L0 11.2861L13.8545 0.347656L13.8217 34.9902Z" transform="translate(1209.28 1712.63)" fill="url(#paint1_linear)" fill-opacity="0.08"/>
<path d="M0 49.025L26.383 0C28.9724 8.8398 30.5054 21.6648 38.8416 37.1271C46.2281 50.8279 53.792 61.3052 59.3617 69.3805L0 49.025Z" transform="matrix(-0.570919 0.821006 0.774114 0.633047 1122.89 1648.83)" fill="url(#paint2_linear)"/>
<path d="M0 5.87727L23.0118 1.00344L13.1915 0L0 5.87727Z" transform="matrix(-0.570919 0.821006 0.774114 0.633047 1218.09 1709.09)" fill="#C4C4C4"/>
<path d="M15.3664 0L20.0365 22.2775L0 7.22514L15.3664 0Z" transform="matrix(0.600917 0.799312 -0.797537 0.60327 1229.09 1707.99)" fill="white"/>
<path d="M14.9504 0L19.4941 21.2155L0 6.88071L14.9504 0Z" transform="matrix(-0.570919 0.821006 0.774114 0.633047 1217.98 1708.24)" fill="white"/>
<path d="M9.09899 68.1549L0 0L58.3617 130.321L9.09899 68.1549Z" transform="matrix(0.600917 0.799312 -0.797537 0.60327 1291.29 1679.57)" fill="#F1F1F1"/>
<path d="M9.20534 64.4478L0 0L58.1861 122.139L9.20534 64.4478Z" transform="matrix(-0.570919 0.821006 0.774114 0.633047 1161.04 1679.84)" fill="#FFFCFC"/>
<path d="M0 51.2978L27.3577 0C29.132 9.33823 36.1495 30.238 39.9224 38.8044C43.2514 46.3629 55.2532 64.1401 60.9881 72.6345L61.0135 72.6722L0 51.2978Z" transform="matrix(0.600917 0.799312 -0.797537 0.60327 1331.69 1649.02)" fill="url(#paint3_linear)"/>
<path d="M0 49.025L26.383 0C28.9724 8.8398 30.5054 21.6648 38.8416 37.1271C46.2281 50.8279 53.792 61.3052 59.3617 69.3805L0 49.025Z" transform="matrix(-0.570919 0.821006 0.774114 0.633047 1122.89 1648.83)" fill="url(#paint4_linear)"/>
<path d="M15.3664 0L20.0365 22.2775L0 7.22514L15.3664 0Z" transform="matrix(0.600917 0.799312 -0.797537 0.60327 1229.09 1707.99)" fill="white"/>
<path d="M14.9504 0L19.4941 21.2155L0 6.88071L14.9504 0Z" transform="matrix(-0.570919 0.821006 0.774114 0.633047 1217.98 1708.24)" fill="#F5F5F5"/>
</g>
<path fill-rule="evenodd" clip-rule="evenodd" d="M10.146 2.89985L17.8451 0L16.5072 8.11673L13.9126 5.98892C0.0853307 25.3966 -3.94574 55.8919 10.5113 88.3938L13.5529 86.9206L12.9567 95.1252L6.14858 90.5067L9.22811 89.0152C-5.44359 56.0648 -1.40598 24.9661 12.8083 5.08329L10.146 2.89985Z" transform="matrix(0.630845 0.775919 -0.856984 0.515332 1310.59 1637.69)" fill="black"/>
<path fill-rule="evenodd" clip-rule="evenodd" d="M6.56599 3.13977L14.1692 0L13.0866 8.15467L10.4438 6.1221C3.98782 16.4847 0.725075 31.3648 1.55068 46.2778C2.37864 61.2333 7.31138 76.1088 17.12 86.4228L19.3282 83.9156L21.9558 91.7108L13.8913 90.0888L16.1747 87.4961C6.0078 76.8631 0.970967 61.5815 0.12809 46.3566C-0.712772 31.168 2.61336 15.9225 9.30903 5.24941L6.56599 3.13977Z" transform="matrix(-0.42661 0.904445 -0.836004 -0.548712 1216.87 1683.55)" fill="black"/>
<path d="M4.88953 2.1886C4.88953 2.5862 4.78355 2.94003 4.5716 3.25008C4.3633 3.56013 4.08009 3.8027 3.72196 3.97779C4.13856 4.15653 4.46745 4.41733 4.70863 4.76022C4.95348 5.1031 5.0759 5.49157 5.0759 5.92565C5.0759 6.61506 4.84202 7.16403 4.37426 7.57257C3.91016 7.98111 3.29805 8.18538 2.53795 8.18538C1.77053 8.18538 1.15478 7.98111 0.690673 7.57257C0.230224 7.16039 0 6.61141 0 5.92565C0 5.49522 0.116939 5.10674 0.350818 4.76022C0.588351 4.41369 0.915416 4.15105 1.33201 3.97232C0.97754 3.79723 0.697982 3.55466 0.493338 3.24461C0.288694 2.93455 0.186372 2.58255 0.186372 2.1886C0.186372 1.51743 0.401979 0.984872 0.833193 0.590923C1.26441 0.196974 1.83266 0 2.53795 0C3.23958 0 3.80601 0.196974 4.23722 0.590923C4.67209 0.984872 4.88953 1.51743 4.88953 2.1886ZM4.06181 5.90376C4.06181 5.45875 3.91929 5.0958 3.63425 4.81493C3.35287 4.53406 2.98378 4.39362 2.52699 4.39362C2.07019 4.39362 1.70293 4.53224 1.4252 4.80946C1.15112 5.08668 1.01408 5.45145 1.01408 5.90376C1.01408 6.35607 1.14747 6.71172 1.41423 6.97071C1.68466 7.22969 2.05923 7.35918 2.53795 7.35918C3.01301 7.35918 3.38576 7.22969 3.65618 6.97071C3.9266 6.70807 4.06181 6.35243 4.06181 5.90376ZM2.53795 0.83167C2.13962 0.83167 1.81621 0.955691 1.56772 1.20373C1.32288 1.44813 1.20046 1.78189 1.20046 2.20502C1.20046 2.60991 1.32105 2.9382 1.56224 3.18989C1.80708 3.43793 2.13232 3.56195 2.53795 3.56195C2.94358 3.56195 3.26699 3.43793 3.50818 3.18989C3.75302 2.9382 3.87544 2.60991 3.87544 2.20502C3.87544 1.80013 3.74937 1.47001 3.49722 1.21468C3.24507 0.959338 2.92531 0.83167 2.53795 0.83167Z" transform="translate(858.734 1896.81)" fill="black"/>
<path d="M83.6123 198.515L90.564 207.515L90.7773 196.145L92.8354 86.4046L177.305 84.0223L187.873 83.7242L179.754 76.9521L173.209 71.4928L177.577 71.0704L188.322 70.0315L179.495 63.8181L84.1867 -3.2709L81.4041 -5.2296L79.0247 -2.79696L-2.85955 80.9195L-5.29294 83.4073L-3.16569 86.1615L83.6123 198.515Z" transform="translate(756.429 1610.92)" fill="white" stroke="black" stroke-width="8"/>
<g filter="url(#filter3_d)">
<path d="M42.6377 133.132L84.8113 90.2274L0 0L5.31436 172.068L42.6377 133.132Z" transform="matrix(-0.0594464 -0.998232 -0.998255 0.0590431 933.622 1689.87)" fill="url(#paint5_linear)"/>
</g>
<path d="M88.3525 0L35.5727 0.19617L0 22.7408L85.0011 138.063L88.3525 0Z" transform="matrix(1.00001 0.00371615 0.0183928 0.999806 757.124 1668.24)" fill="url(#paint6_linear)"/>
<g filter="url(#filter4_d)">
<path d="M86.2493 197.3L81.8828 0L42.5748 41.5892L0 83.7181L86.2493 197.3Z" transform="translate(756.429 1609.84)" fill="url(#paint7_linear)"/>
</g>
<g filter="url(#filter5_d)">
<path d="M80.2519 196.073L75.3581 0L66.4596 9.43528L0 84.2584L80.2519 196.073Z" transform="translate(762.954 1609.84)" fill="url(#paint8_linear)"/>
</g>
<path fill-rule="evenodd" clip-rule="evenodd" d="M10.5269 3.01901L18.5151 0L17.127 8.45024L14.435 6.235C0.0885348 26.4401 -4.0939 58.1885 10.9059 92.0258L14.0619 90.4921L13.4433 99.0338L6.37946 94.2255L9.57462 92.6727C-5.648 58.3684 -1.45878 25.992 13.2893 5.29215L10.5269 3.01901Z" transform="matrix(0.190706 0.981655 -0.99873 0.0502742 959.258 1671.94)" fill="black"/>
<g filter="url(#filter6_f)">
<path d="M32.4141 52.1108L80.4735 0V96.4606L0 85.3732L32.4141 52.1108Z" transform="translate(761.921 1611)" fill="#333333" fill-opacity="0.07"/>
</g>
<path d="M78.4472 90.9963L6.54864 0L0 175.468L78.4472 90.9963Z" transform="matrix(-0.0594464 -0.998232 -0.998255 0.0590431 934.011 1683.47)" fill="url(#paint9_linear)"/>
<path fill-rule="evenodd" clip-rule="evenodd" d="M6.81612 3.26815L14.7089 0L13.5851 8.4881L10.8416 6.37242C4.13973 17.1587 0.752697 32.6473 1.60975 48.17C2.46926 63.737 7.58991 79.2207 17.7722 89.9565L20.0645 87.3467L22.7922 95.4607L14.4205 93.7724L16.7909 91.0737C6.23667 80.0059 1.00796 64.0995 0.132969 48.252C-0.739925 32.4424 2.71292 16.5735 9.66366 5.46405L6.81612 3.26815Z" transform="matrix(-0.378949 -0.925426 0.969918 -0.243408 867.379 1675.8)" fill="black"/>
<path d="M5.39383 0.569037L2.08846 7.96652H1.02505L4.31945 0.83167H0V0H5.39383V0.569037Z" transform="translate(494.103 1887.1)" fill="black"/>
<path d="M6.67102 7.43578C6.67102 7.2607 6.72218 7.11479 6.82451 6.99806C6.93048 6.88134 7.08762 6.82297 7.29592 6.82297C7.50421 6.82297 7.66135 6.88134 7.76733 6.99806C7.87696 7.11479 7.93177 7.2607 7.93177 7.43578C7.93177 7.60358 7.87696 7.74401 7.76733 7.85709C7.66135 7.97017 7.50421 8.02671 7.29592 8.02671C7.08762 8.02671 6.93048 7.97017 6.82451 7.85709C6.72218 7.74401 6.67102 7.60358 6.67102 7.43578Z" transform="translate(494.103 1887.1)" fill="black"/>
<path d="M94.705 286.9L101.479 294.41L101.674 284.298L104.225 151.936L104.303 147.9L100.266 147.859L97.7071 147.833L96.1738 95.1514L96.136 93.8503L95.3396 92.8206L21.6584 -2.44714L15.1629 -10.8457L14.5021 -0.248943L13.5857 14.4478L2.92503 4.23425L-3.83343 -2.24076L-3.84218 7.11886L-4 175.945L-4.00144 177.484L-2.97004 178.628L94.705 286.9Z" transform="translate(437.545 1563.33)" fill="white" stroke="black" stroke-width="8"/>
<path d="M99.2224 0.581578L15.0179 0L0 22.5267L95.4586 133.814L99.2224 0.581578Z" transform="matrix(1.00066 0.00318893 0.0214184 0.998451 438.47 1713.22)" fill="url(#paint10_linear)"/>
<g filter="url(#filter7_d)">
<path d="M96.8557 278.551L91.9522 88.231L0 0L2.1658e-09 168.988L96.8557 278.551Z" transform="matrix(1.00073 -0.000694673 -0.000934431 0.999039 437.702 1569.38)" fill="url(#paint11_linear)"/>
</g>
<g filter="url(#filter8_d)">
<path d="M90.1207 284.498L84.6252 95.3611L10.9966 0L0 176.639L90.1207 284.498Z" transform="translate(445.034 1562.25) scale(1.00071 0.999025)" fill="url(#paint12_linear)"/>
</g>
<path d="M31.8414 123.946L76.7676 81.3776L0 0L2.47629e-07 162.768L31.8414 123.946Z" transform="translate(445.204 1576.15)" fill="#333333" fill-opacity="0.07"/>
<path d="M39.7594 137.836L84.6857 95.2681L11.0045 0L0 176.467L39.7594 137.836Z" transform="translate(445.035 1562.26)" fill="url(#paint13_linear)"/>
<path fill-rule="evenodd" clip-rule="evenodd" d="M114.636 0.711387L113.92 0.750488L113.881 0.0391017L114.598 0L114.636 0.711387ZM109.623 0.985099L108.19 1.0633L108.151 0.351915L109.584 0.273712L109.623 0.985099ZM103.893 1.29791L102.46 1.37612L102.422 0.664729L103.854 0.586525L103.893 1.29791ZM98.163 1.61073L96.7305 1.68893L96.6917 0.977543L98.1242 0.899339L98.163 1.61073ZM92.4331 1.92354L91.0007 2.00174L90.9618 1.29036L92.3943 1.21215L92.4331 1.92354ZM86.7033 2.23635L85.2708 2.31456L85.232 1.60317L86.6644 1.52497L86.7033 2.23635ZM80.9734 2.54917L79.5409 2.62737L79.5021 1.91598L80.9345 1.83778L80.9734 2.54917ZM75.2435 2.86198L73.811 2.94018L73.7722 2.2288L75.2047 2.15059L75.2435 2.86198ZM69.5136 3.17479L68.0812 3.253L68.0423 2.54161L69.4748 2.46341L69.5136 3.17479ZM63.7837 3.48761L62.3513 3.56581L62.3124 2.85442L63.7449 2.77622L63.7837 3.48761ZM58.0539 3.80042L56.6214 3.87862L56.5826 3.16724L58.015 3.08903L58.0539 3.80042ZM52.324 4.11324L50.8915 4.19144L50.8527 3.48005L52.2851 3.40185L52.324 4.11324ZM46.5941 4.42605L45.1616 4.50425L45.1228 3.79287L46.5553 3.71466L46.5941 4.42605ZM40.8642 4.73886L39.4318 4.81707L39.3929 4.10568L40.8254 4.02748L40.8642 4.73886ZM35.1343 5.05168L33.7019 5.12988L33.663 4.41849L35.0955 4.34029L35.1343 5.05168ZM29.4045 5.36449L27.972 5.44269L27.9332 4.73131L29.3656 4.6531L29.4045 5.36449ZM23.6746 5.6773L22.2421 5.75551L22.2033 5.04412L23.6358 4.96592L23.6746 5.6773ZM17.9447 5.99012L16.5122 6.06832L16.4734 5.35693L17.9059 5.27873L17.9447 5.99012ZM12.2148 6.30293L10.7824 6.38113L10.7435 5.66975L12.176 5.59154L12.2148 6.30293ZM6.48495 6.61574L5.05248 6.69395L5.01364 5.98256L6.44611 5.90436L6.48495 6.61574ZM0.755072 6.92856L0.0388371 6.96766L0 6.25627L0.716235 6.21717L0.755072 6.92856Z" transform="matrix(-0.761468 0.648203 -0.758902 -0.651205 533.168 1663.42)" fill="black"/>
<path fill-rule="evenodd" clip-rule="evenodd" d="M9.50777 2.26732L17.4164 0L15.4261 7.98117L13.0261 5.66414C4.72818 16.0903 0.529247 31.2832 1.58528 46.4964C2.64483 61.7601 8.98811 76.9629 21.6799 87.332L23.6007 84.5861L27.0819 92.0389L18.8855 91.3267L20.861 88.5027C7.75329 77.8378 1.24725 62.2049 0.163678 46.595C-0.916155 31.039 3.38291 15.4245 11.9965 4.67005L9.50777 2.26732Z" transform="matrix(-0.970531 0.241007 -0.164981 -0.986291 513.76 1742.31)" fill="black"/>
<path d="M3.37057 0V0.739681H3.21029C2.53146 0.752245 1.99091 0.953262 1.58865 1.34273C1.18638 1.7322 0.953816 2.28029 0.890961 2.98699C1.25237 2.57239 1.74578 2.36509 2.37118 2.36509C2.9683 2.36509 3.44442 2.57553 3.79955 2.99642C4.15782 3.4173 4.33695 3.96067 4.33695 4.62654C4.33695 5.33324 4.14368 5.8986 3.75712 6.32262C3.37371 6.74665 2.8583 6.95866 2.2109 6.95866C1.55408 6.95866 1.02138 6.70738 0.61283 6.20484C0.204277 5.69916 0 5.04899 0 4.25434V3.91984C0 2.6572 0.268703 1.69294 0.806108 1.02707C1.34666 0.358062 2.14962 0.0157045 3.215 0H3.37057ZM2.22505 3.09064C1.92649 3.09064 1.6515 3.18016 1.40008 3.35919C1.14866 3.53822 0.974243 3.76279 0.876819 4.03291V4.35328C0.876819 4.91864 1.0041 5.37407 1.25866 5.71957C1.51322 6.06507 1.83063 6.23782 2.2109 6.23782C2.60374 6.23782 2.91173 6.09334 3.13486 5.80438C3.36114 5.51541 3.47428 5.13694 3.47428 4.66894C3.47428 4.19781 3.35957 3.81776 3.13015 3.5288C2.90387 3.23669 2.60217 3.09064 2.22505 3.09064Z" transform="translate(1213.52 1524.51)" fill="black"/>
<path d="M5.47776 6.40743C5.47776 6.25667 5.52176 6.13103 5.60976 6.03052C5.70089 5.93001 5.83603 5.87976 6.01517 5.87976C6.1943 5.87976 6.32944 5.93001 6.42058 6.03052C6.51486 6.13103 6.562 6.25667 6.562 6.40743C6.562 6.55191 6.51486 6.67283 6.42058 6.7702C6.32944 6.86757 6.1943 6.91625 6.01517 6.91625C5.83603 6.91625 5.70089 6.86757 5.60976 6.7702C5.52176 6.67283 5.47776 6.55191 5.47776 6.40743Z" transform="translate(1213.52 1524.51)" fill="black"/>
<path d="M2.26832 165.348L2.30529 165.424L2.34549 165.499L56.0702 265.718L59.4988 272.113L63.0759 265.8L64.4478 263.378L64.464 263.349L75.6516 243.973L128.368 166.143H131.152L130.869 161.878L120.386 4.00269L119.633 -7.33158L119.407 -7.00866L119.352 -7.83894L112.837 1.45513L108.152 8.13917L107.16 -0.458383L105.803 -12.2235L99.7486 -2.04484L19.7711 132.415L12.843 131.99L10.7942 131.865L9.49746 133.456L-3.10077 148.915L-4.70858 150.888L-3.60255 153.181L2.26832 165.348Z" transform="translate(1164.13 1237.46)" fill="url(#paint14_linear)" stroke="black" stroke-width="8"/>
<g filter="url(#filter9_d)">
<path d="M190.363 0H0L125.623 95.7812L246.223 97.3477L190.363 0Z" transform="translate(1267.31 1236.39) scale(-1.00003 0.999975) rotate(59.2564)" fill="url(#paint15_linear)"/>
</g>
<path d="M67.0461 0.538077L11.7848 0L0 16.0888L64.576 123.805L67.0461 0.538077Z" transform="translate(1164.96 1371.77) rotate(2.95334)" fill="url(#paint16_linear)"/>
<g filter="url(#filter10_d)">
<path d="M43.5208 0H0L43.5208 43.5178V0Z" transform="translate(1190.71 1373.63) rotate(2.95334)" fill="url(#paint17_linear)"/>
</g>
<path d="M192.777 0L0 2.989L124.789 100.272L246.224 100.336L192.777 0Z" transform="translate(1277.77 1238.46) scale(-1.00003 0.999971) rotate(55.8595)" fill="url(#paint18_linear)"/>
<path d="M192.777 0L0 2.989L124.789 100.272L160.963 46.9212L192.777 0Z" transform="translate(1278.05 1238.98) scale(-1.00003 0.999971) rotate(55.8595)" fill="url(#paint19_linear)"/>
<path fill-rule="evenodd" clip-rule="evenodd" d="M15.7518 3.16833L22.6896 0L21.9641 7.59346L19.4213 5.78216C11.2705 18.5513 6.68705 34.1225 4.43031 45.7075L7.52382 46.2211L2.68029 52.1134L0 44.9719L3.12664 45.4911C5.40043 33.802 10.0374 18.003 18.3439 5.01474L15.7518 3.16833Z" transform="translate(1200.91 1432.38) rotate(-111.006)" fill="black"/>
<path fill-rule="evenodd" clip-rule="evenodd" d="M170.842 0.659685L170.174 0.695526L170.139 0.0358407L170.806 0L170.842 0.659685ZM166.171 0.91057L164.837 0.982252L164.801 0.322566L166.136 0.250885L166.171 0.91057ZM160.833 1.1973L159.499 1.26898L159.464 0.609292L160.798 0.537611L160.833 1.1973ZM155.496 1.48402L154.161 1.5557L154.126 0.896018L155.46 0.824336L155.496 1.48402ZM150.158 1.77075L148.824 1.84243L148.788 1.18274L150.123 1.11106L150.158 1.77075ZM144.82 2.05747L143.486 2.12915L143.451 1.46947L144.785 1.39779L144.82 2.05747ZM139.483 2.3442L138.148 2.41588L138.113 1.7562L139.447 1.68451L139.483 2.3442ZM134.145 2.63092L132.811 2.70261L132.775 2.04292L134.11 1.97124L134.145 2.63092ZM128.807 2.91765L127.473 2.98933L127.437 2.32965L128.772 2.25797L128.807 2.91765ZM123.47 3.20438L122.135 3.27606L122.1 2.61637L123.434 2.54469L123.47 3.20438ZM118.132 3.4911L116.797 3.56278L116.762 2.9031L118.096 2.83142L118.132 3.4911ZM112.794 3.77783L111.46 3.84951L111.424 3.18982L112.759 3.11814L112.794 3.77783ZM107.457 4.06455L106.122 4.13623L106.087 3.47655L107.421 3.40487L107.457 4.06455ZM102.119 4.35128L100.784 4.42296L100.749 3.76328L102.083 3.69159L102.119 4.35128ZM96.7811 4.638L95.4467 4.70969L95.4113 4.05L96.7457 3.97832L96.7811 4.638ZM91.4434 4.92473L90.109 4.99641L90.0736 4.33673L91.408 4.26505L91.4434 4.92473ZM86.1057 5.21146L84.7713 5.28314L84.7359 4.62345L86.0703 4.55177L86.1057 5.21146ZM80.768 5.49818L79.4336 5.56986L79.3982 4.91018L80.7326 4.8385L80.768 5.49818ZM75.4304 5.78491L74.0959 5.85659L74.0605 5.1969L75.3949 5.12522L75.4304 5.78491ZM70.0927 6.07163L68.7582 6.14332L68.7228 5.48363L70.0572 5.41195L70.0927 6.07163ZM64.755 6.35836L63.4205 6.43004L63.3851 5.77036L64.7195 5.69867L64.755 6.35836ZM59.4173 6.64509L58.0828 6.71677L58.0474 6.05708L59.3818 5.9854L59.4173 6.64509ZM54.0796 6.93181L52.7451 7.00349L52.7097 6.34381L54.0442 6.27213L54.0796 6.93181ZM48.7419 7.21854L47.4075 7.29022L47.372 6.63053L48.7065 6.55885L48.7419 7.21854ZM43.4042 7.50526L42.0698 7.57694L42.0343 6.91726L43.3688 6.84558L43.4042 7.50526ZM38.0665 7.79199L36.7321 7.86367L36.6966 7.20398L38.0311 7.1323L38.0665 7.79199ZM32.7288 8.07871L31.3944 8.1504L31.359 7.49071L32.6934 7.41903L32.7288 8.07871ZM27.3911 8.36544L26.0567 8.43712L26.0213 7.77744L27.3557 7.70575L27.3911 8.36544ZM22.0534 8.65217L20.719 8.72385L20.6836 8.06416L22.018 7.99248L22.0534 8.65217ZM16.7157 8.93889L15.3813 9.01057L15.3459 8.35089L16.6803 8.27921L16.7157 8.93889ZM11.378 9.22562L10.0436 9.2973L10.0082 8.63761L11.3426 8.56593L11.378 9.22562ZM6.04033 9.51234L4.7059 9.58402L4.67048 8.92434L6.00491 8.85266L6.04033 9.51234ZM0.702631 9.79907L0.0354188 9.83491L0 9.17522L0.667212 9.13938L0.702631 9.79907Z" transform="translate(1232.44 1326.86) rotate(92.9533)" fill="black"/>
<path d="M187.714 0V-4H183.714H153.228H143.54L147.669 0.110294L134.95 12.7749H0H-9.6864L-2.82232 19.6094L1.64929 24.0617L0.0938947 24.1315L-9.30718 24.5535L-2.47951 31.0297L67.2815 97.1995L68.5566 98.4089L70.3099 98.2878L178.905 90.7867L180.049 90.7076L180.977 90.0345L182.856 88.6722H186.11L186.11 84.6722L186.11 38.3832L187.714 39.9801V30.3539V0Z" transform="translate(769.605 1362.08)" fill="white" stroke="black" stroke-width="8"/>
<path d="M0.245132 3.42044L0.593974 0H4.11068V0.80564H1.33408L1.12667 2.67604C1.46294 2.47817 1.84478 2.37923 2.27219 2.37923C2.89759 2.37923 3.39414 2.58653 3.76184 3.00113C4.12953 3.41258 4.31338 3.97009 4.31338 4.67365C4.31338 5.38036 4.12168 5.93786 3.73827 6.34618C3.358 6.75136 2.82531 6.95394 2.14019 6.95394C1.53365 6.95394 1.03867 6.78591 0.655257 6.44983C0.271845 6.11375 0.0534262 5.6489 0 5.05527H0.824964C0.87839 5.44788 1.01824 5.7447 1.24452 5.94572C1.47079 6.14359 1.76935 6.24253 2.14019 6.24253C2.5456 6.24253 2.86302 6.10433 3.09244 5.82793C3.325 5.55153 3.44128 5.16992 3.44128 4.68308C3.44128 4.22451 3.31557 3.85702 3.06415 3.58062C2.81588 3.30108 2.48432 3.16131 2.06948 3.16131C1.68921 3.16131 1.39065 3.24455 1.17381 3.41101L0.942816 3.59947L0.245132 3.42044Z" transform="translate(876.188 1524.52)" fill="black"/>
<path d="M5.37405 6.40272C5.37405 6.25195 5.41805 6.12632 5.50605 6.02581C5.59719 5.9253 5.73232 5.87505 5.91146 5.87505C6.09059 5.87505 6.22573 5.9253 6.31687 6.02581C6.41115 6.12632 6.45829 6.25195 6.45829 6.40272C6.45829 6.5472 6.41115 6.66812 6.31687 6.76549C6.22573 6.86286 6.09059 6.91154 5.91146 6.91154C5.73232 6.91154 5.59719 6.86286 5.50605 6.76549C5.41805 6.66812 5.37405 6.5472 5.37405 6.40272Z" transform="translate(876.188 1524.52)" fill="black"/>
<path d="M181.836 0L0 8.15836L69.761 74.3273L178.356 66.8263L181.836 64.3033V0Z" transform="translate(769.879 1380.98)" fill="url(#paint20_linear)"/>
<path fill-rule="evenodd" clip-rule="evenodd" d="M12.0784 3.67474L17.0604 0L17.7485 6.15638L15.4076 5.13182C5.60577 28.004 0.353246 46.1195 1.15115 61.4255C1.94439 76.642 8.72268 89.1438 23.1463 100.822L24.6871 98.7957L27.077 104.51L20.9386 103.725L22.4967 101.676C7.86564 89.8377 0.89314 77.065 0.0807681 61.4814C-0.730805 45.9132 4.61097 27.6025 14.4255 4.70198L12.0784 3.67474Z" transform="matrix(-0.407538 -0.913188 0.914485 -0.404619 889.745 1430.42)" fill="black"/>
<path d="M113.699 0H85.0379L0 84.6727H113.699V0Z" transform="translate(838.016 1361.01)" fill="url(#paint21_linear)"/>
<g filter="url(#filter11_d)">
<path d="M182.11 0H0L68.1908 67.8979H182.11V0Z" transform="translate(769.605 1377.78)" fill="url(#paint22_linear)"/>
</g>
<g filter="url(#filter12_d)">
<path d="M142.211 0H0L68.1908 67.8979H182.11L142.211 0Z" transform="translate(769.605 1377.78)" fill="url(#paint23_linear)"/>
</g>
<path fill-rule="evenodd" clip-rule="evenodd" d="M66.9631 0.461656L66.4867 0.744377L66.2136 0.282721L66.69 0L66.9631 0.461656ZM62.6759 3.00615L61.7232 3.57159L61.45 3.10993L62.4027 2.54449L62.6759 3.00615ZM57.9123 5.83336L56.9596 6.3988L56.6865 5.93715L57.6392 5.37171L57.9123 5.83336ZM53.1487 8.66058L52.196 9.22602L51.9229 8.76436L52.8756 8.19892L53.1487 8.66058ZM48.3852 11.4878L47.4325 12.0532L47.1593 11.5916L48.112 11.0261L48.3852 11.4878ZM43.6216 14.315L42.6689 14.8804L42.3958 14.4188L43.3485 13.8533L43.6216 14.315ZM38.858 17.1422L37.9053 17.7077L37.6322 17.246L38.5849 16.6806L38.858 17.1422ZM34.0945 19.9694L33.1418 20.5349L32.8686 20.0732L33.8213 19.5078L34.0945 19.9694ZM29.3309 22.7966L28.3782 23.3621L28.1051 22.9004L29.0578 22.335L29.3309 22.7966ZM24.5673 25.6239L23.6146 26.1893L23.3415 25.7276L24.2942 25.1622L24.5673 25.6239ZM19.8038 28.4511L18.8511 29.0165L18.5779 28.5549L19.5306 27.9894L19.8038 28.4511ZM15.0402 31.2783L14.0875 31.8437L13.8143 31.3821L14.7671 30.8166L15.0402 31.2783ZM10.2766 34.1055L9.32392 34.6709L9.05078 34.2093L10.0035 33.6438L10.2766 34.1055ZM5.51306 36.9327L4.56035 37.4982L4.28721 37.0365L5.23993 36.4711L5.51306 36.9327ZM0.749494 39.7599L0.273137 40.0426L0 39.581L0.476357 39.2983L0.749494 39.7599Z" transform="translate(951.55 1378.06) rotate(90)" fill="black"/>
<g filter="url(#filter13_d)">
<path d="M30.4853 0H0L30.4853 30.3544V0Z" transform="translate(922.834 1361.01)" fill="url(#paint24_linear)"/>
</g>
<path fill-rule="evenodd" clip-rule="evenodd" d="M12.0784 3.67474L17.0604 0L17.7485 6.15638L15.4076 5.13182C5.60577 28.004 0.353246 46.1195 1.15115 61.4255C1.94439 76.642 8.72268 89.1438 23.1463 100.822L24.6871 98.7957L27.077 104.51L20.9386 103.725L22.4967 101.676C7.86564 89.8377 0.89314 77.065 0.0807681 61.4814C-0.730805 45.9132 4.61097 27.6025 14.4255 4.70198L12.0784 3.67474Z" transform="matrix(-0.407538 -0.913188 0.914485 -0.404619 900.174 1435.21)" fill="black"/>
<path d="M137.822 -2.83539L135 -5.64297L132.179 -2.83539L99.9387 29.2462H0H-9.69054L-2.82146 36.0815L47.8913 86.5455L49.0617 87.7101H50.7128H219.287H220.938L222.109 86.5455L272.821 36.0815L279.69 29.2462H270H170.062L137.822 -2.83539Z" transform="translate(353 1342.19)" fill="white" stroke="black" stroke-width="8"/>
<path d="M168.247 83.7101L84.1236 0L0 83.7101H168.247Z" transform="translate(403.876 1341)" fill="url(#paint25_linear)"/>
<path d="M4.45194 5.04577H5.51117V5.83368H4.45194V7.59736H3.4766V5.83368H0V5.26493L3.41892 0H4.45194V5.04577ZM1.10119 5.04577H3.4766V1.32014L3.36124 1.52886L1.10119 5.04577Z" transform="translate(482.148 1517.35)" fill="black"/>
<path d="M6.50748 7.09121C6.50748 6.92424 6.55643 6.78509 6.65431 6.67378C6.75569 6.56246 6.90601 6.5068 7.10527 6.5068C7.30453 6.5068 7.45485 6.56246 7.55623 6.67378C7.66111 6.78509 7.71354 6.92424 7.71354 7.09121C7.71354 7.25123 7.66111 7.38516 7.55623 7.493C7.45485 7.60083 7.30453 7.65475 7.10527 7.65475C6.90601 7.65475 6.75569 7.60083 6.65431 7.493C6.55643 7.38516 6.50748 7.25123 6.50748 7.09121Z" transform="translate(482.148 1517.35)" fill="black"/>
<path fill-rule="evenodd" clip-rule="evenodd" d="M0.584044 0.596621H0V0H0.584044V0.596621ZM6.42449 0.596621H5.2564V0H6.42449V0.596621ZM12.2649 0.596621H11.0968V0H12.2649V0.596621ZM18.1054 0.596621H16.9373V0H18.1054V0.596621ZM23.9458 0.596621H22.7777V0H23.9458V0.596621ZM29.7863 0.596621H28.6182V0H29.7863V0.596621ZM35.6267 0.596621H34.4586V0H35.6267V0.596621ZM41.4672 0.596621H40.2991V0H41.4672V0.596621ZM47.3076 0.596621H46.1395V0H47.3076V0.596621ZM53.148 0.596621H51.98V0H53.148V0.596621ZM58.9885 0.596621H57.8204V0H58.9885V0.596621ZM64.8289 0.596621H63.6608V0H64.8289V0.596621ZM70.6694 0.596621H69.5013V0H70.6694V0.596621ZM76.5098 0.596621H75.3417V0H76.5098V0.596621ZM81.7662 0.596621H81.1822V0H81.7662V0.596621Z" transform="translate(488.433 1341.16) rotate(90)" fill="black"/>
<path d="M50.7128 50.4635L0 0H270L219.287 50.4635H50.7128Z" transform="translate(353 1374.25)" fill="url(#paint26_linear)"/>
<path fill-rule="evenodd" clip-rule="evenodd" d="M2.299 1.79006L8.94918 0L7.18198 6.62594L5.24601 4.70865C2.74667 8.44561 1.29386 13.4438 1.19827 18.5831C1.10199 23.7595 2.38339 29.0273 5.29886 33.2497L7.27591 31.346L8.9493 37.9961L2.32507 36.1131L4.42994 34.0864C1.26502 29.593 -0.0959093 23.9989 0.00523355 18.5611C0.105959 13.1458 1.65748 7.83291 4.38476 3.8557L2.299 1.79006Z" transform="translate(478.887 1350.5)" fill="black"/>
<path d="M124.191 -2.82925L121.364 -5.65521L118.536 -2.82925L-2.82761 118.464L-9.66082 125.293H0H242.728H252.389L245.555 118.464L124.191 -2.82925Z" transform="translate(1094.9 995.863)" fill="white" stroke="black" stroke-width="8"/>
<path d="M1.39537 3.10006H2.05063C2.46232 3.09378 2.78602 2.98542 3.02173 2.77498C3.25743 2.56454 3.37528 2.28029 3.37528 1.92223C3.37528 1.11816 2.97459 0.716124 2.17319 0.716124C1.79606 0.716124 1.49436 0.824485 1.26809 1.04121C1.04495 1.25479 0.933388 1.53904 0.933388 1.89396H0.0612831C0.0612831 1.35059 0.259274 0.899867 0.655257 0.541805C1.05438 0.180602 1.56036 0 2.17319 0C2.82059 0 3.32814 0.171179 3.69584 0.513537C4.06354 0.855894 4.24739 1.33174 4.24739 1.94107C4.24739 2.23946 4.14996 2.52842 3.95511 2.80796C3.76341 3.0875 3.50099 3.29637 3.16786 3.43457C3.54499 3.55392 3.83569 3.7518 4.03997 4.0282C4.24739 4.3046 4.3511 4.64225 4.3511 5.04114C4.3511 5.65675 4.14996 6.14516 3.74769 6.50637C3.34543 6.86757 2.82216 7.04817 2.17791 7.04817C1.53365 7.04817 1.00881 6.87385 0.603402 6.52521C0.201134 6.17657 0 5.71643 0 5.14479H0.876819C0.876819 5.50599 0.994671 5.79495 1.23038 6.01168C1.46608 6.2284 1.78192 6.33676 2.17791 6.33676C2.59903 6.33676 2.92116 6.22683 3.14429 6.00696C3.36743 5.7871 3.47899 5.47144 3.47899 5.05998C3.47899 4.66109 3.35643 4.35485 3.11129 4.14127C2.86616 3.92769 2.51261 3.81776 2.05063 3.81148H1.39537V3.10006Z" transform="translate(1215.58 1212.96)" fill="black"/>
<path d="M5.6569 6.49694C5.6569 6.34618 5.7009 6.22055 5.78889 6.12004C5.88003 6.01953 6.01517 5.96927 6.1943 5.96927C6.37344 5.96927 6.50857 6.01953 6.59971 6.12004C6.69399 6.22055 6.74114 6.34618 6.74114 6.49694C6.74114 6.64143 6.69399 6.76235 6.59971 6.85972C6.50857 6.95709 6.37344 7.00577 6.1943 7.00577C6.01517 7.00577 5.88003 6.95709 5.78889 6.85972C5.7009 6.76235 5.6569 6.64143 5.6569 6.49694Z" transform="translate(1215.58 1212.96)" fill="black"/>
<path d="M242.728 121.293L121.364 0L0 121.293H242.728Z" transform="translate(1094.9 994.793)" fill="url(#paint27_linear)"/>
<path fill-rule="evenodd" clip-rule="evenodd" d="M0.526724 0.536358H0V0H0.526724V0.536358ZM5.79396 0.536358H4.74051V0H5.79396V0.536358ZM11.0612 0.536358H10.0078V0H11.0612V0.536358ZM16.3284 0.536358H15.275V0H16.3284V0.536358ZM21.5957 0.536358H20.5422V0H21.5957V0.536358ZM26.8629 0.536358H25.8095V0H26.8629V0.536358ZM32.1302 0.536358H31.0767V0H32.1302V0.536358ZM37.3974 0.536358H36.3439V0H37.3974V0.536358ZM42.6646 0.536358H41.6112V0H42.6646V0.536358ZM47.9319 0.536358H46.8784V0H47.9319V0.536358ZM53.1991 0.536358H52.1457V0H53.1991V0.536358ZM58.4663 0.536358H57.4129V0H58.4663V0.536358ZM63.7336 0.536358H62.6801V0H63.7336V0.536358ZM69.0008 0.536358H67.9474V0H69.0008V0.536358ZM74.2681 0.536358H73.2146V0H74.2681V0.536358ZM79.5353 0.536358H78.4818V0H79.5353V0.536358ZM84.8025 0.536358H83.7491V0H84.8025V0.536358ZM90.0698 0.536358H89.0163V0H90.0698V0.536358ZM95.337 0.536358H94.2836V0H95.337V0.536358ZM100.604 0.536358H99.5508V0H100.604V0.536358ZM105.871 0.536358H104.818V0H105.871V0.536358ZM111.139 0.536358H110.085V0H111.139V0.536358ZM116.406 0.536358H115.353V0H116.406V0.536358ZM121.146 0.536358H120.62V0H121.146V0.536358Z" transform="translate(1216.65 994.94) rotate(90)" fill="black"/>
<path fill-rule="evenodd" clip-rule="evenodd" d="M0.536358 0.536046H0V0H0.536358V0.536046ZM5.89993 0.536046H4.82722V0H5.89993V0.536046ZM11.2635 0.536046H10.1908V0H11.2635V0.536046ZM16.6271 0.536046H15.5544V0H16.6271V0.536046ZM21.9907 0.536046H20.9179V0H21.9907V0.536046ZM27.3542 0.536046H26.2815V0H27.3542V0.536046ZM32.7178 0.536046H31.6451V0H32.7178V0.536046ZM38.0814 0.536046H37.0087V0H38.0814V0.536046ZM43.445 0.536046H42.3723V0H43.445V0.536046ZM48.8085 0.536046H47.7358V0H48.8085V0.536046ZM54.1721 0.536046H53.0994V0H54.1721V0.536046ZM59.5357 0.536046H58.463V0H59.5357V0.536046ZM64.8993 0.536046H63.8266V0H64.8993V0.536046ZM70.2628 0.536046H69.1901V0H70.2628V0.536046ZM75.6264 0.536046H74.5537V0H75.6264V0.536046ZM80.99 0.536046H79.9173V0H80.99V0.536046ZM86.3536 0.536046H85.2809V0H86.3536V0.536046ZM91.7172 0.536046H90.6444V0H91.7172V0.536046ZM97.0807 0.536046H96.008V0H97.0807V0.536046ZM102.444 0.536046H101.372V0H102.444V0.536046ZM107.808 0.536046H106.735V0H107.808V0.536046ZM113.171 0.536046H112.099V0H113.171V0.536046ZM118.535 0.536046H117.462V0H118.535V0.536046ZM123.899 0.536046H122.826V0H123.899V0.536046ZM129.262 0.536046H128.189V0H129.262V0.536046ZM134.626 0.536046H133.553V0H134.626V0.536046ZM139.989 0.536046H138.917V0H139.989V0.536046ZM144.817 0.536046H144.28V0H144.817V0.536046Z" transform="translate(1288.53 1070.52) rotate(180)" fill="black"/>
<path fill-rule="evenodd" clip-rule="evenodd" d="M6.26253 2.91398L11.7266 0L11.5196 6.18627L9.38369 4.85675C4.33336 14.7739 1.31428 30.7677 1.08659 47.3532C0.858162 63.992 3.44085 81.1153 9.50979 93.1825L11.6926 91.9068L11.7268 98.0965L6.34622 95.0312L8.58194 93.7247C2.38162 81.4364 -0.215976 64.0883 0.0139737 47.3385C0.243339 30.6313 3.28767 14.4085 8.46983 4.28792L6.26253 2.91398Z" transform="translate(1204.39 1013.17)" fill="black"/>
<path d="M124.191 -2.82925L121.364 -5.65521L118.536 -2.82925L-2.82761 118.464L-9.66082 125.293H0H242.728H252.389L245.555 118.464L124.191 -2.82925Z" transform="translate(740 1077.34)" fill="white" stroke="black" stroke-width="8"/>
<path d="M4.62923 6.95394H0.131994V6.32734L2.50789 3.68898C2.85988 3.29009 3.10187 2.96658 3.23386 2.71845C3.369 2.46717 3.43656 2.20805 3.43656 1.94107C3.43656 1.58301 3.32814 1.28934 3.11129 1.06005C2.89445 0.830767 2.60532 0.716124 2.2439 0.716124C1.81021 0.716124 1.47236 0.84019 1.23038 1.08832C0.991528 1.33331 0.872105 1.67567 0.872105 2.11539H0C0 1.48407 0.202705 0.973678 0.608116 0.584207C1.01667 0.194736 1.56193 0 2.2439 0C2.88187 0 3.38628 0.168038 3.75712 0.504114C4.12796 0.837049 4.31338 1.28149 4.31338 1.83742C4.31338 2.51272 3.88283 3.31679 3.02173 4.24963L1.18323 6.24253H4.62923V6.95394Z" transform="translate(857.364 1250.5)" fill="black"/>
<path d="M5.66161 6.49694C5.66161 6.34618 5.70561 6.22055 5.79361 6.12004C5.88474 6.01953 6.01988 5.96927 6.19902 5.96927C6.37815 5.96927 6.51329 6.01953 6.60443 6.12004C6.69871 6.22055 6.74585 6.34618 6.74585 6.49694C6.74585 6.64143 6.69871 6.76235 6.60443 6.85972C6.51329 6.95709 6.37815 7.00577 6.19902 7.00577C6.01988 7.00577 5.88474 6.95709 5.79361 6.85972C5.70561 6.76235 5.66161 6.64143 5.66161 6.49694Z" transform="translate(857.364 1250.5)" fill="black"/>
<path d="M242.728 121.293L121.364 0L0 121.293H242.728Z" transform="translate(740 1076.27)" fill="url(#paint28_linear)"/>
<path fill-rule="evenodd" clip-rule="evenodd" d="M0.526724 0.536358H0V0H0.526724V0.536358ZM5.79396 0.536358H4.74051V0H5.79396V0.536358ZM11.0612 0.536358H10.0078V0H11.0612V0.536358ZM16.3284 0.536358H15.275V0H16.3284V0.536358ZM21.5957 0.536358H20.5422V0H21.5957V0.536358ZM26.8629 0.536358H25.8095V0H26.8629V0.536358ZM32.1302 0.536358H31.0767V0H32.1302V0.536358ZM37.3974 0.536358H36.3439V0H37.3974V0.536358ZM42.6646 0.536358H41.6112V0H42.6646V0.536358ZM47.9319 0.536358H46.8784V0H47.9319V0.536358ZM53.1991 0.536358H52.1457V0H53.1991V0.536358ZM58.4663 0.536358H57.4129V0H58.4663V0.536358ZM63.7336 0.536358H62.6801V0H63.7336V0.536358ZM69.0008 0.536358H67.9474V0H69.0008V0.536358ZM74.2681 0.536358H73.2146V0H74.2681V0.536358ZM79.5353 0.536358H78.4818V0H79.5353V0.536358ZM84.8025 0.536358H83.7491V0H84.8025V0.536358ZM90.0698 0.536358H89.0163V0H90.0698V0.536358ZM95.337 0.536358H94.2836V0H95.337V0.536358ZM100.604 0.536358H99.5508V0H100.604V0.536358ZM105.871 0.536358H104.818V0H105.871V0.536358ZM111.139 0.536358H110.085V0H111.139V0.536358ZM116.406 0.536358H115.353V0H116.406V0.536358ZM121.146 0.536358H120.62V0H121.146V0.536358Z" transform="translate(861.753 1076.42) rotate(90)" fill="black"/>
<path fill-rule="evenodd" clip-rule="evenodd" d="M12.6486 3.59405L17.6895 0L18.2798 6.1651L15.9625 5.10707C9.95286 19.1431 1.07209 45.904 1.07209 70.7992C1.07209 96.1316 10.2654 127.427 16.2809 143.904L18.6635 142.991L17.6895 149.107L12.8828 145.205L15.2796 144.287C9.25152 127.78 0 96.3307 0 70.7992C0 45.6833 8.95067 18.7533 14.9869 4.66163L12.6486 3.59405Z" transform="translate(933.089 1160.58) rotate(90)" fill="black"/>
<path d="M2.63517 6.8927H1.75835V1.08361L0 1.72906V0.937558L2.49846 0H2.63517V6.8927Z" transform="translate(497.406 1250.56)" fill="black"/>
<path d="M5.29863 6.4357C5.29863 6.28493 5.34262 6.1593 5.43062 6.05879C5.52176 5.95828 5.6569 5.90803 5.83603 5.90803C6.01517 5.90803 6.1503 5.95828 6.24144 6.05879C6.33572 6.1593 6.38286 6.28493 6.38286 6.4357C6.38286 6.58018 6.33572 6.7011 6.24144 6.79847C6.1503 6.89584 6.01517 6.94452 5.83603 6.94452C5.6569 6.94452 5.52176 6.89584 5.43062 6.79847C5.34262 6.7011 5.29863 6.58018 5.29863 6.4357Z" transform="translate(497.406 1250.56)" fill="black"/>
<path d="M245.555 124.123L248.386 121.293L245.555 118.464L124.192 -2.82925L121.364 -5.65521L118.536 -2.82925L-2.8276 118.464L-5.6585 121.293L-2.82761 124.123L118.536 245.416L121.364 248.242L124.191 245.416L245.555 124.123Z" transform="translate(379.146 984.071)" fill="url(#paint29_linear)" stroke="black" stroke-width="8"/>
<path d="M242.728 121.293L121.364 0L0 121.293H242.728Z" transform="translate(379.146 983)" fill="url(#paint30_linear)"/>
<g filter="url(#filter14_d)">
<path d="M242.728 121.293L121.364 0L0 121.293H242.728Z" transform="translate(621.873 1225.59) rotate(180)" fill="url(#paint31_linear)"/>
</g>
<path fill-rule="evenodd" clip-rule="evenodd" d="M0.531694 0.536046H0V0H0.531694V0.536046ZM5.84863 0.536046H4.78524V0H5.84863V0.536046ZM11.1656 0.536046H10.1022V0H11.1656V0.536046ZM16.4825 0.536046H15.4191V0H16.4825V0.536046ZM21.7994 0.536046H20.7361V0H21.7994V0.536046ZM27.1164 0.536046H26.053V0H27.1164V0.536046ZM32.4333 0.536046H31.3699V0H32.4333V0.536046ZM37.7502 0.536046H36.6869V0H37.7502V0.536046ZM43.0672 0.536046H42.0038V0H43.0672V0.536046ZM48.3841 0.536046H47.3207V0H48.3841V0.536046ZM53.7011 0.536046H52.6377V0H53.7011V0.536046ZM59.018 0.536046H57.9546V0H59.018V0.536046ZM64.3349 0.536046H63.2715V0H64.3349V0.536046ZM69.6519 0.536046H68.5885V0H69.6519V0.536046ZM74.9688 0.536046H73.9054V0H74.9688V0.536046ZM80.2857 0.536046H79.2224V0H80.2857V0.536046ZM85.6027 0.536046H84.5393V0H85.6027V0.536046ZM90.9196 0.536046H89.8562V0H90.9196V0.536046ZM96.2366 0.536046H95.1732V0H96.2366V0.536046ZM101.553 0.536046H100.49V0H101.553V0.536046ZM106.87 0.536046H105.807V0H106.87V0.536046ZM112.187 0.536046H111.124V0H112.187V0.536046ZM117.504 0.536046H116.441V0H117.504V0.536046ZM122.821 0.536046H121.758V0H122.821V0.536046ZM128.138 0.536046H127.075V0H128.138V0.536046ZM133.455 0.536046H132.392V0H133.455V0.536046ZM138.772 0.536046H137.709V0H138.772V0.536046ZM144.089 0.536046H143.026V0H144.089V0.536046ZM149.406 0.536046H148.343V0H149.406V0.536046ZM154.723 0.536046H153.659V0H154.723V0.536046ZM160.04 0.536046H158.976V0H160.04V0.536046ZM165.357 0.536046H164.293V0H165.357V0.536046ZM170.674 0.536046H169.61V0H170.674V0.536046ZM175.991 0.536046H174.927V0H175.991V0.536046ZM181.308 0.536046H180.244V0H181.308V0.536046ZM186.624 0.536046H185.561V0H186.624V0.536046ZM191.941 0.536046H190.878V0H191.941V0.536046ZM197.258 0.536046H196.195V0H197.258V0.536046ZM202.575 0.536046H201.512V0H202.575V0.536046ZM207.892 0.536046H206.829V0H207.892V0.536046ZM213.209 0.536046H212.146V0H213.209V0.536046ZM218.526 0.536046H217.463V0H218.526V0.536046ZM223.843 0.536046H222.78V0H223.843V0.536046ZM229.16 0.536046H228.097V0H229.16V0.536046ZM234.477 0.536046H233.414V0H234.477V0.536046ZM239.794 0.536046H238.73V0H239.794V0.536046ZM244.579 0.536046H244.047V0H244.579V0.536046Z" transform="translate(377 1103.76)" fill="black"/>
<path fill-rule="evenodd" clip-rule="evenodd" d="M12.656 3.59196L17.6998 0L18.2904 6.16152L15.9718 5.1041C9.95865 19.132 1.07272 45.8774 1.07272 70.7581C1.07272 96.0758 10.2714 127.353 16.2904 143.82L18.6744 142.908L17.6998 149.021L12.8903 145.121L15.2884 144.204C9.25689 127.706 0 96.2748 0 70.7581C0 45.6568 8.95587 18.7424 14.9956 4.65892L12.656 3.59196Z" transform="translate(477.835 1029.64)" fill="black"/>
<path d="M78.03 62.3L1.89 254H34.02L54 201.89H127.98L148.23 254H180.09L104.49 62.3H78.03ZM122.04 179.48H59.4L91.26 97.13L122.04 179.48ZM234.037 119L342.577 254H367.687V62.57H337.177V200.54L227.557 62.3H203.797V254H234.037V119ZM544.97 230.24V254H570.35V157.07H504.74V179.48H544.97V200C536.87 209.72 528.23 217.01 519.32 221.33C510.41 225.92 501.23 228.08 491.51 228.08C482.6 228.08 474.5 226.46 466.94 222.68C459.38 218.9 452.63 214.04 447.23 207.56C441.83 201.35 437.51 194.06 434.27 185.42C431.03 177.05 429.68 167.87 429.68 158.15C429.68 148.97 431.03 140.33 433.73 131.69C436.43 123.32 440.48 116.03 445.88 109.55C451.01 103.07 457.22 97.94 464.78 94.16C472.07 90.38 480.17 88.22 489.35 88.22C500.15 88.22 510.41 90.92 519.59 96.05C528.77 101.45 535.79 109.28 541.19 119.54L564.41 102.8C557.93 90.38 548.75 80.12 536.33 72.56C523.91 65 508.52 60.95 490.16 60.95C476.93 60.95 464.78 63.65 453.71 68.78C442.37 73.91 432.92 80.93 424.82 89.57C416.72 98.48 410.24 108.74 405.65 120.35C401.06 132.23 398.9 144.38 398.9 157.34C398.9 170.3 401.06 182.72 405.65 194.6C410.24 206.48 416.72 217.01 424.82 225.92C432.92 235.1 442.37 242.12 453.44 247.52C464.24 252.92 476.12 255.35 489.08 255.35C510.14 255.35 528.77 246.98 544.97 230.24ZM684.762 228.08C674.772 228.08 666.402 226.19 659.652 222.41C652.902 218.63 647.502 213.5 643.452 207.02C639.402 200.54 636.432 193.25 634.812 185.15C633.192 177.05 632.382 168.41 632.382 159.5V62.3H602.142V159.5C602.142 171.92 603.492 184.07 606.462 195.41C609.162 207.02 614.022 217.28 620.502 226.19C626.982 235.1 635.352 242.12 645.882 247.52C656.412 252.92 669.372 255.35 684.762 255.35C699.342 255.35 712.032 252.92 722.562 247.79C733.092 242.93 741.732 235.91 748.482 227.27C754.962 218.63 759.822 208.37 763.062 196.76C766.032 185.15 767.652 172.73 767.652 159.5V62.3H737.142V159.5C737.142 168.14 736.062 176.78 734.442 184.88C732.822 192.98 729.852 200.27 725.802 206.75C721.752 213.23 716.352 218.36 709.872 222.14C703.122 226.19 694.752 228.08 684.762 228.08ZM807.87 254H940.98V227.27H838.11V62.3H807.87V254ZM1021.98 62.3L945.835 254H977.965L997.945 201.89H1071.93L1092.18 254H1124.04L1048.44 62.3H1021.98ZM1065.99 179.48H1003.35L1035.21 97.13L1065.99 179.48ZM1147.74 254H1177.98V187.31H1222.26L1263.84 254H1298.13L1253.04 181.1C1258.44 179.48 1263.57 176.78 1268.43 173C1273.02 169.22 1277.07 164.9 1280.31 159.77C1283.55 154.91 1285.98 149.24 1287.87 143.3C1289.49 137.36 1290.57 131.15 1290.57 124.67C1290.57 117.11 1288.95 109.55 1285.98 101.99C1283.01 94.43 1278.96 87.95 1273.83 82.01C1268.43 76.07 1262.22 71.48 1254.93 67.7C1247.64 64.19 1239.81 62.3 1231.17 62.3H1147.74V254ZM1177.98 160.58V89.03H1229.28C1233.06 89.03 1236.84 90.11 1240.62 92C1244.4 93.89 1247.64 96.32 1250.34 99.56C1253.04 102.8 1255.47 106.58 1257.09 110.9C1258.71 115.22 1259.79 119.81 1259.79 124.67C1259.79 129.53 1258.98 134.12 1257.63 138.44C1256.01 142.76 1254.12 146.81 1251.69 150.05C1248.99 153.29 1246.02 155.99 1242.51 157.88C1239 159.77 1235.22 160.58 1230.9 160.58H1177.98ZM1322.47 148.43H1347.04V114.14H1322.47V148.43ZM1322.47 254H1347.04V219.44H1322.47V254Z" transform="translate(298 493)" fill="white"/>
<path d="M449.815 39.68V27.8H379.495V39.68H407.935V113H421.495V39.68H449.815ZM531.201 27.8H517.641V63.44H474.681V27.8H461.241V113H474.681V75.44H517.641V113H531.201V27.8ZM608.86 101.12H563.86V75.08H601.9V63.92H563.86V39.68H607.78V27.8H550.42V113H608.86V101.12ZM646.973 69.8C646.973 75.32 647.933 80.6 649.973 85.88C651.893 91.16 654.773 95.84 658.373 99.92C661.973 104 666.173 107.36 671.213 109.88C676.133 112.52 681.653 113.72 687.653 113.72C691.013 113.72 694.373 113.36 697.853 112.4C701.333 111.56 704.693 110.24 707.813 108.56C710.933 106.88 713.693 104.84 716.213 102.44C718.613 100.04 720.533 97.16 721.973 93.92L710.813 87.56C709.613 90.08 708.173 92.24 706.493 93.92C704.813 95.72 702.893 97.16 700.853 98.36C698.813 99.56 696.653 100.4 694.493 100.88C692.333 101.36 690.173 101.6 688.133 101.6C684.053 101.6 680.453 100.76 677.093 99.08C673.733 97.4 670.733 95 668.333 92.12C665.933 89.24 664.013 86 662.693 82.16C661.253 78.44 660.653 74.48 660.653 70.28C660.653 66.68 661.133 62.96 662.333 59.24C663.533 55.64 665.213 52.28 667.493 49.28C669.773 46.4 672.653 44 676.013 42.2C679.373 40.4 683.213 39.44 687.773 39.44C689.693 39.44 691.853 39.68 694.013 40.16C696.173 40.64 698.213 41.36 700.253 42.32C702.173 43.4 704.093 44.84 705.773 46.52C707.453 48.32 708.893 50.48 710.093 53L720.653 45.92C717.773 40.4 713.693 35.96 708.173 32.48C702.653 29.12 695.933 27.32 688.253 27.32C681.773 27.32 675.893 28.64 670.853 31.04C665.693 33.56 661.373 36.8 657.773 40.88C654.173 44.96 651.533 49.52 649.733 54.56C647.813 59.6 646.973 64.76 646.973 69.8ZM768.984 113.6C774.744 113.6 780.144 112.52 785.184 110.12C790.224 107.72 794.544 104.6 798.264 100.64C801.864 96.68 804.744 92.12 806.784 86.84C808.824 81.68 809.904 76.28 809.904 70.52C809.904 65.24 808.824 59.96 806.904 54.8C804.984 49.64 802.224 44.96 798.624 40.88C795.024 36.8 790.824 33.56 785.784 31.04C780.744 28.52 775.224 27.2 769.224 27.2C763.224 27.2 757.824 28.4 752.784 30.8C747.744 33.2 743.424 36.32 739.824 40.28C736.224 44.36 733.344 48.92 731.304 54.08C729.144 59.36 728.184 64.76 728.184 70.4C728.184 75.92 729.144 81.2 731.064 86.36C732.984 91.64 735.864 96.2 739.464 100.28C743.064 104.36 747.264 107.6 752.304 110C757.344 112.4 762.864 113.6 768.984 113.6ZM741.864 70.4C741.864 66.56 742.464 62.84 743.664 59.12C744.864 55.4 746.664 52.04 749.064 49.16C751.344 46.28 754.224 44 757.584 42.2C760.944 40.4 764.784 39.44 769.104 39.44C773.184 39.44 776.784 40.4 780.144 42.08C783.504 43.76 786.264 46.04 788.664 48.92C791.064 51.8 792.864 55.04 794.184 58.76C795.384 62.48 796.104 66.32 796.104 70.4C796.104 74.24 795.504 78.08 794.304 81.68C793.104 85.4 791.304 88.76 789.024 91.64C786.624 94.64 783.864 97.04 780.504 98.84C777.144 100.64 773.424 101.48 769.104 101.48C764.904 101.48 761.184 100.64 757.824 98.96C754.464 97.28 751.584 94.88 749.184 92C746.784 89.12 744.984 85.88 743.784 82.04C742.464 78.32 741.864 74.48 741.864 70.4ZM823.819 113H882.979V101.12H837.259V27.8H823.819V113ZM893.897 113H953.057V101.12H907.337V27.8H893.897V113ZM1022.41 101.12H977.415V75.08H1015.46V63.92H977.415V39.68H1021.34V27.8H963.975V113H1022.41V101.12ZM1029.12 69.8C1029.12 75.32 1030.08 80.6 1032.12 85.88C1034.04 91.16 1036.92 95.84 1040.52 99.92C1044.12 104 1048.32 107.36 1053.36 109.88C1058.28 112.52 1063.8 113.72 1069.8 113.72C1073.16 113.72 1076.52 113.36 1080 112.4C1083.48 111.56 1086.84 110.24 1089.96 108.56C1093.08 106.88 1095.84 104.84 1098.36 102.44C1100.76 100.04 1102.68 97.16 1104.12 93.92L1092.96 87.56C1091.76 90.08 1090.32 92.24 1088.64 93.92C1086.96 95.72 1085.04 97.16 1083 98.36C1080.96 99.56 1078.8 100.4 1076.64 100.88C1074.48 101.36 1072.32 101.6 1070.28 101.6C1066.2 101.6 1062.6 100.76 1059.24 99.08C1055.88 97.4 1052.88 95 1050.48 92.12C1048.08 89.24 1046.16 86 1044.84 82.16C1043.4 78.44 1042.8 74.48 1042.8 70.28C1042.8 66.68 1043.28 62.96 1044.48 59.24C1045.68 55.64 1047.36 52.28 1049.64 49.28C1051.92 46.4 1054.8 44 1058.16 42.2C1061.52 40.4 1065.36 39.44 1069.92 39.44C1071.84 39.44 1074 39.68 1076.16 40.16C1078.32 40.64 1080.36 41.36 1082.4 42.32C1084.32 43.4 1086.24 44.84 1087.92 46.52C1089.6 48.32 1091.04 50.48 1092.24 53L1102.8 45.92C1099.92 40.4 1095.84 35.96 1090.32 32.48C1084.8 29.12 1078.08 27.32 1070.4 27.32C1063.92 27.32 1058.04 28.64 1053 31.04C1047.84 33.56 1043.52 36.8 1039.92 40.88C1036.32 44.96 1033.68 49.52 1031.88 54.56C1029.96 59.6 1029.12 64.76 1029.12 69.8ZM1178.25 39.68V27.8H1107.93V39.68H1136.37V113H1149.93V39.68H1178.25ZM1189.68 113H1203.12V27.8H1189.68V113ZM1257.77 113.6C1263.53 113.6 1268.93 112.52 1273.97 110.12C1279.01 107.72 1283.33 104.6 1287.05 100.64C1290.65 96.68 1293.53 92.12 1295.57 86.84C1297.61 81.68 1298.69 76.28 1298.69 70.52C1298.69 65.24 1297.61 59.96 1295.69 54.8C1293.77 49.64 1291.01 44.96 1287.41 40.88C1283.81 36.8 1279.61 33.56 1274.57 31.04C1269.53 28.52 1264.01 27.2 1258.01 27.2C1252.01 27.2 1246.61 28.4 1241.57 30.8C1236.53 33.2 1232.21 36.32 1228.61 40.28C1225.01 44.36 1222.13 48.92 1220.09 54.08C1217.93 59.36 1216.97 64.76 1216.97 70.4C1216.97 75.92 1217.93 81.2 1219.85 86.36C1221.77 91.64 1224.65 96.2 1228.25 100.28C1231.85 104.36 1236.05 107.6 1241.09 110C1246.13 112.4 1251.65 113.6 1257.77 113.6ZM1230.65 70.4C1230.65 66.56 1231.25 62.84 1232.45 59.12C1233.65 55.4 1235.45 52.04 1237.85 49.16C1240.13 46.28 1243.01 44 1246.37 42.2C1249.73 40.4 1253.57 39.44 1257.89 39.44C1261.97 39.44 1265.57 40.4 1268.93 42.08C1272.29 43.76 1275.05 46.04 1277.45 48.92C1279.85 51.8 1281.65 55.04 1282.97 58.76C1284.17 62.48 1284.89 66.32 1284.89 70.4C1284.89 74.24 1284.29 78.08 1283.09 81.68C1281.89 85.4 1280.09 88.76 1277.81 91.64C1275.41 94.64 1272.65 97.04 1269.29 98.84C1265.93 100.64 1262.21 101.48 1257.89 101.48C1253.69 101.48 1249.97 100.64 1246.61 98.96C1243.25 97.28 1240.37 94.88 1237.97 92C1235.57 89.12 1233.77 85.88 1232.57 82.04C1231.25 78.32 1230.65 74.48 1230.65 70.4ZM1326.05 53L1374.29 113H1385.45V27.92H1371.89V89.24L1323.17 27.8H1312.61V113H1326.05V53Z" transform="translate(269 754)" fill="white"/>
<path d="M599.523 12.66L584.295 51H590.721L594.717 40.578H609.513L613.563 51H619.935L604.815 12.66H599.523ZM608.325 36.096H595.797L602.169 19.626L608.325 36.096ZM636.331 51H642.379V34.476H658.687V29.454H642.379V18.006H661.873V12.66H636.331V51ZM682.688 51.27C685.28 51.27 687.71 50.784 689.978 49.704C692.246 48.624 694.19 47.22 695.864 45.438C697.484 43.656 698.78 41.604 699.698 39.228C700.616 36.906 701.102 34.476 701.102 31.884C701.102 29.508 700.616 27.132 699.752 24.81C698.888 22.488 697.646 20.382 696.026 18.546C694.406 16.71 692.516 15.252 690.248 14.118C687.98 12.984 685.496 12.39 682.796 12.39C680.096 12.39 677.666 12.93 675.398 14.01C673.13 15.09 671.186 16.494 669.566 18.276C667.946 20.112 666.65 22.164 665.732 24.486C664.76 26.862 664.328 29.292 664.328 31.83C664.328 34.314 664.76 36.69 665.624 39.012C666.488 41.388 667.784 43.44 669.404 45.276C671.024 47.112 672.914 48.57 675.182 49.65C677.45 50.73 679.934 51.27 682.688 51.27ZM670.484 31.83C670.484 30.102 670.754 28.428 671.294 26.754C671.834 25.08 672.644 23.568 673.724 22.272C674.75 20.976 676.046 19.95 677.558 19.14C679.07 18.33 680.798 17.898 682.742 17.898C684.578 17.898 686.198 18.33 687.71 19.086C689.222 19.842 690.464 20.868 691.544 22.164C692.624 23.46 693.434 24.918 694.028 26.592C694.568 28.266 694.892 29.994 694.892 31.83C694.892 33.558 694.622 35.286 694.082 36.906C693.542 38.58 692.732 40.092 691.706 41.388C690.626 42.738 689.384 43.818 687.872 44.628C686.36 45.438 684.686 45.816 682.742 45.816C680.852 45.816 679.178 45.438 677.666 44.682C676.154 43.926 674.858 42.846 673.778 41.55C672.698 40.254 671.888 38.796 671.348 37.068C670.754 35.394 670.484 33.666 670.484 31.83ZM723.348 45.816C721.35 45.816 719.676 45.438 718.326 44.682C716.976 43.926 715.896 42.9 715.086 41.604C714.276 40.308 713.682 38.85 713.358 37.23C713.034 35.61 712.872 33.882 712.872 32.1V12.66H706.824V32.1C706.824 34.584 707.094 37.014 707.688 39.282C708.228 41.604 709.2 43.656 710.496 45.438C711.792 47.22 713.466 48.624 715.572 49.704C717.678 50.784 720.27 51.27 723.348 51.27C726.264 51.27 728.802 50.784 730.908 49.758C733.014 48.786 734.742 47.382 736.092 45.654C737.388 43.926 738.36 41.874 739.008 39.552C739.602 37.23 739.926 34.746 739.926 32.1V12.66H733.824V32.1C733.824 33.828 733.608 35.556 733.284 37.176C732.96 38.796 732.366 40.254 731.556 41.55C730.746 42.846 729.666 43.872 728.37 44.628C727.02 45.438 725.346 45.816 723.348 45.816ZM747.969 51H754.017V37.662H762.873L771.189 51H778.047L769.029 36.42C770.109 36.096 771.135 35.556 772.107 34.8C773.025 34.044 773.835 33.18 774.483 32.154C775.131 31.182 775.617 30.048 775.995 28.86C776.319 27.672 776.535 26.43 776.535 25.134C776.535 23.622 776.211 22.11 775.617 20.598C775.023 19.086 774.213 17.79 773.187 16.602C772.107 15.414 770.865 14.496 769.407 13.74C767.949 13.038 766.383 12.66 764.655 12.66H747.969V51ZM754.017 32.316V18.006H764.277C765.033 18.006 765.789 18.222 766.545 18.6C767.301 18.978 767.949 19.464 768.489 20.112C769.029 20.76 769.515 21.516 769.839 22.38C770.163 23.244 770.379 24.162 770.379 25.134C770.379 26.106 770.217 27.024 769.947 27.888C769.623 28.752 769.245 29.562 768.759 30.21C768.219 30.858 767.625 31.398 766.923 31.776C766.221 32.154 765.465 32.316 764.601 32.316H754.017ZM797.597 12.66H791.171L806.561 51H811.745L827.081 12.66H820.655L809.153 43.386L797.597 12.66ZM846.271 51.27C848.863 51.27 851.293 50.784 853.561 49.704C855.829 48.624 857.773 47.22 859.447 45.438C861.067 43.656 862.363 41.604 863.281 39.228C864.199 36.906 864.685 34.476 864.685 31.884C864.685 29.508 864.199 27.132 863.335 24.81C862.471 22.488 861.229 20.382 859.609 18.546C857.989 16.71 856.099 15.252 853.831 14.118C851.563 12.984 849.079 12.39 846.379 12.39C843.679 12.39 841.249 12.93 838.981 14.01C836.713 15.09 834.769 16.494 833.149 18.276C831.529 20.112 830.233 22.164 829.315 24.486C828.343 26.862 827.911 29.292 827.911 31.83C827.911 34.314 828.343 36.69 829.207 39.012C830.071 41.388 831.367 43.44 832.987 45.276C834.607 47.112 836.497 48.57 838.765 49.65C841.033 50.73 843.517 51.27 846.271 51.27ZM834.067 31.83C834.067 30.102 834.337 28.428 834.877 26.754C835.417 25.08 836.227 23.568 837.307 22.272C838.333 20.976 839.629 19.95 841.141 19.14C842.653 18.33 844.381 17.898 846.325 17.898C848.161 17.898 849.781 18.33 851.293 19.086C852.805 19.842 854.047 20.868 855.127 22.164C856.207 23.46 857.017 24.918 857.611 26.592C858.151 28.266 858.475 29.994 858.475 31.83C858.475 33.558 858.205 35.286 857.665 36.906C857.125 38.58 856.315 40.092 855.289 41.388C854.209 42.738 852.967 43.818 851.455 44.628C849.943 45.438 848.269 45.816 846.325 45.816C844.435 45.816 842.761 45.438 841.249 44.682C839.737 43.926 838.441 42.846 837.361 41.55C836.281 40.254 835.471 38.796 834.931 37.068C834.337 35.394 834.067 33.666 834.067 31.83ZM870.946 51H897.568V45.654H876.994V12.66H870.946V51ZM916.092 45.816C914.094 45.816 912.42 45.438 911.07 44.682C909.72 43.926 908.64 42.9 907.83 41.604C907.02 40.308 906.426 38.85 906.102 37.23C905.778 35.61 905.616 33.882 905.616 32.1V12.66H899.568V32.1C899.568 34.584 899.838 37.014 900.432 39.282C900.972 41.604 901.944 43.656 903.24 45.438C904.536 47.22 906.21 48.624 908.316 49.704C910.422 50.784 913.014 51.27 916.092 51.27C919.008 51.27 921.546 50.784 923.652 49.758C925.758 48.786 927.486 47.382 928.836 45.654C930.132 43.926 931.104 41.874 931.752 39.552C932.346 37.23 932.67 34.746 932.67 32.1V12.66H926.568V32.1C926.568 33.828 926.352 35.556 926.028 37.176C925.704 38.796 925.11 40.254 924.3 41.55C923.49 42.846 922.41 43.872 921.114 44.628C919.764 45.438 918.09 45.816 916.092 45.816ZM972.952 51H979.054V12.66H972.574L959.884 36.096L947.194 12.66H940.714V51H946.762V23.406L958.21 44.304H961.558L972.952 23.406V51ZM1014 45.654H993.748V33.936H1010.87V28.914H993.748V18.006H1013.51V12.66H987.7V51H1014V45.654ZM1056.26 21.678L1059.01 16.71C1057.34 15.522 1055.39 14.496 1053.23 13.632C1051.02 12.822 1048.64 12.39 1046.05 12.39C1044.05 12.39 1042.22 12.66 1040.54 13.146C1038.82 13.686 1037.36 14.442 1036.12 15.414C1034.87 16.386 1033.9 17.628 1033.2 19.086C1032.44 20.544 1032.12 22.218 1032.12 24.054C1032.12 25.566 1032.34 26.862 1032.82 27.942C1033.31 29.022 1034.01 29.94 1034.98 30.696C1035.9 31.506 1037.09 32.208 1038.49 32.748C1039.9 33.288 1041.57 33.828 1043.51 34.314C1045.13 34.746 1046.65 35.178 1047.94 35.556C1049.24 35.988 1050.32 36.42 1051.24 36.906C1052.1 37.392 1052.8 37.932 1053.29 38.58C1053.77 39.228 1054.04 40.038 1054.04 41.01C1054.04 42.63 1053.4 43.872 1052.1 44.682C1050.8 45.546 1048.97 45.924 1046.59 45.924C1045.08 45.924 1043.68 45.762 1042.33 45.438C1040.92 45.114 1039.68 44.682 1038.49 44.196C1037.3 43.71 1036.28 43.17 1035.41 42.576C1034.55 42.036 1033.85 41.496 1033.42 41.01L1030.66 46.194C1032.82 47.922 1035.31 49.218 1038.01 50.082C1040.71 50.946 1043.57 51.378 1046.48 51.378C1048.43 51.378 1050.21 51.216 1051.94 50.784C1053.61 50.352 1055.07 49.704 1056.37 48.84C1057.66 47.976 1058.63 46.788 1059.39 45.384C1060.15 43.98 1060.52 42.306 1060.52 40.362C1060.52 38.634 1060.2 37.176 1059.61 35.988C1059.01 34.8 1058.2 33.774 1057.12 32.91C1056.04 32.1 1054.69 31.398 1053.13 30.804C1051.56 30.264 1049.83 29.724 1047.89 29.238C1046.27 28.86 1044.92 28.482 1043.73 28.158C1042.54 27.834 1041.52 27.402 1040.76 26.97C1039.95 26.538 1039.36 25.998 1038.98 25.404C1038.6 24.81 1038.44 24.054 1038.44 23.082C1038.44 21.462 1039.03 20.166 1040.22 19.194C1041.41 18.276 1043.3 17.79 1045.89 17.79C1047.02 17.79 1048.16 17.952 1049.24 18.168C1050.32 18.438 1051.34 18.762 1052.26 19.14C1053.18 19.572 1053.99 20.004 1054.69 20.436C1055.34 20.868 1055.88 21.3 1056.26 21.678ZM1092.89 45.654H1072.64V33.936H1089.76V28.914H1072.64V18.006H1092.4V12.66H1066.59V51H1092.89V45.654ZM1127.26 18.006V12.66H1095.62V18.006H1108.42V51H1114.52V18.006H1127.26Z" transform="translate(0 1950)" fill="white"/>
<path d="M12 141H85.95V126.15H28.8V34.5H12V141ZM177.148 126.15H120.898V93.6H168.448V79.65H120.898V49.35H175.798V34.5H104.098V141H177.148V126.15ZM230.329 34.5L188.029 141H205.879L216.979 112.05H258.079L269.329 141H287.029L245.029 34.5H230.329ZM254.779 99.6H219.979L237.679 53.85L254.779 99.6ZM304.699 141H321.499V103.95H346.099L369.199 141H388.249L363.199 100.5C366.199 99.6 369.049 98.1 371.749 96C374.299 93.9 376.549 91.5 378.349 88.65C380.149 85.95 381.499 82.8 382.549 79.5C383.449 76.2 384.049 72.75 384.049 69.15C384.049 64.95 383.149 60.75 381.499 56.55C379.849 52.35 377.599 48.75 374.749 45.45C371.749 42.15 368.299 39.6 364.249 37.5C360.199 35.55 355.849 34.5 351.049 34.5H304.699V141ZM321.499 89.1V49.35H349.999C352.099 49.35 354.199 49.95 356.299 51C358.399 52.05 360.199 53.4 361.699 55.2C363.199 57 364.549 59.1 365.449 61.5C366.349 63.9 366.949 66.45 366.949 69.15C366.949 71.85 366.499 74.4 365.749 76.8C364.849 79.2 363.799 81.45 362.449 83.25C360.949 85.05 359.299 86.55 357.349 87.6C355.399 88.65 353.299 89.1 350.899 89.1H321.499ZM425.169 66L485.469 141H499.419V34.65H482.469V111.3L421.569 34.5H408.369V141H425.169V66Z" transform="translate(290 385)" fill="white"/>
<path d="M7.52075 30.1053C8.09714 31.1327 9.01645 31.9342 10.1242 32.3752L13.306 33.7939H20.5375C21.6541 33.7766 22.7483 33.4839 23.7192 32.9427C24.6562 32.6323 25.4673 32.0357 26.0335 31.2403C26.6598 30.4269 26.9677 29.4201 26.9012 28.4029C26.9476 27.6641 26.7825 26.9272 26.4247 26.2755C26.0669 25.6238 25.5307 25.083 24.8763 24.7143C23.4426 23.8307 21.8829 23.1613 20.2483 22.7282L13.8845 21.3095C11.6905 21.0469 9.54689 20.4734 7.52075 19.6071C5.76921 18.9016 4.19142 17.8375 2.89266 16.486C1.67333 14.9672 0.963094 13.1155 0.859511 11.185C0.755928 9.25452 1.26404 7.33989 2.31411 5.70399C3.24586 4.36769 4.42296 3.2131 5.78526 2.29915C7.17621 1.39438 8.75888 0.812188 10.4134 0.596732C12.105 0.126656 13.8644 -0.0651025 15.62 0.0292571C17.7579 -0.0786822 19.9007 0.112393 21.9838 0.596732C23.8067 0.864056 25.5685 1.44009 27.1904 2.29915C28.6345 3.23525 29.8256 4.50095 30.6615 5.98772C31.4794 7.78138 31.969 9.70227 32.1078 11.6624H25.4549C25.4762 10.6508 25.1727 9.65817 24.5872 8.82508C23.9576 8.01915 23.1709 7.34403 22.2729 6.83894L19.3803 5.70399H13.306L10.7025 6.27146C9.83476 6.83893 8.96712 7.12266 8.67786 7.97387C8.38619 8.27633 8.15901 8.63298 8.00997 9.02281C7.86094 9.41264 7.79293 9.82776 7.80994 10.2438C7.76176 10.7312 7.84306 11.2225 8.04581 11.67C8.24857 12.1175 8.56594 12.5059 8.96705 12.7974C9.8664 13.6803 10.9526 14.3583 12.1488 14.7835L16.1986 15.9185L20.8266 16.7697L25.7441 18.1884C27.1633 18.5818 28.5246 19.1541 29.7938 19.8908C30.9747 20.716 31.9612 21.7804 32.6864 23.0119C33.5119 24.3834 33.9137 25.9605 33.8433 27.5517C33.8889 29.5363 33.3893 31.4963 32.397 33.2264C31.422 34.8005 30.02 36.0776 28.3475 36.915C26.7195 38.0284 24.8268 38.7124 22.8515 38.9011L16.7771 39.4686L10.7025 38.9011C8.73895 38.4977 6.87308 37.7271 5.20671 36.6313C3.67178 35.5933 2.3881 34.2372 1.44636 32.6589C0.489256 30.8134 -0.00649375 28.7711 6.42256e-05 26.7005H6.65301C6.58722 27.8951 6.88957 29.0816 7.52075 30.1053Z" transform="translate(1315.72 148.684)" fill="white"/>
<path d="M6.65294 0H0V37.8788H6.65294V0Z" transform="translate(1357.37 149.564)" fill="white"/>
<path d="M21.1161 11.3495V16.7404H13.3061V40.2906C13.3061 41.1418 13.306 41.7092 13.5953 41.993C13.5953 42.2132 13.6476 42.4305 13.748 42.6274C13.8484 42.8244 13.9942 42.9958 14.1738 43.1279H21.1161V48.5189H11.8598C10.8176 48.3705 9.8262 47.9815 8.96716 47.384C8.08501 46.7741 7.46611 45.8637 7.2315 44.8303C6.85931 43.4407 6.66512 42.011 6.65312 40.5743V16.7404H0V11.3495H6.65312V0H13.3061V11.3495H21.1161Z" transform="translate(1369.81 138.214)" fill="white"/>
<path d="M30.3723 36.3403C27.0305 38.4978 23.0897 39.5881 19.0911 39.4614C16.3255 39.4794 13.5801 38.9985 10.9918 38.0427C8.6461 37.1264 6.56184 35.666 4.91745 33.7866C3.25894 32.0146 2.06726 29.8716 1.4463 27.5444C0.49608 24.9991 0.00661824 22.3104 0 19.5998C0.0345311 16.8917 0.52316 14.2076 1.4463 11.6552C2.35069 9.39025 3.62031 7.28264 5.20664 5.41299C6.92144 3.6814 8.99199 2.32734 11.281 1.44067C13.6328 0.374125 16.2146 -0.112879 18.8019 0.0219922C21.8269 -0.124745 24.8333 0.563347 27.4797 2.00815C29.8677 3.26148 31.8665 5.12401 33.2649 7.39913C34.6424 9.47804 35.6226 11.7855 36.1575 14.2088C36.771 16.6186 36.9666 19.1125 36.736 21.586H6.94213C6.99264 23.2072 7.18624 24.821 7.52069 26.4095C8.00153 27.8773 8.78969 29.2303 9.83473 30.3818C10.8895 31.6159 12.3019 32.5065 13.8844 32.9354C15.8709 33.8008 18.0432 34.1757 20.2115 34.0273C22.3797 33.8789 24.4779 33.2118 26.3226 32.0842C27.2377 31.4573 28.0161 30.6576 28.6121 29.7319C29.2081 28.8062 29.6099 27.7731 29.7937 26.6932H36.1575C35.5956 30.5294 33.5175 33.9947 30.3723 36.3403ZM28.926 11.9389C28.4035 10.5856 27.5008 9.40506 26.3226 8.53408C25.3335 7.55553 24.1527 6.78341 22.8514 6.26419C21.4744 5.7093 20.0012 5.42029 18.5125 5.41299C16.9252 5.36545 15.3464 5.65585 13.8844 6.26419C12.5832 6.78341 11.4024 7.55553 10.4133 8.53408C9.35207 9.45135 8.55427 10.6252 8.09924 11.9389C7.4473 13.2747 7.05485 14.7181 6.94213 16.195H29.7937C29.7863 14.7347 29.4917 13.2896 28.926 11.9389Z" transform="translate(1396.13 148.69)" fill="white"/>
<path d="M6.36358 0.880913V5.98817H6.65294C7.1217 4.94751 7.79841 4.0096 8.64302 3.22985C9.48763 2.4501 10.483 1.84434 11.5704 1.44839C14.0238 0.379567 16.6994 -0.10649 19.3803 0.0297065C22.1563 -0.130031 24.9316 0.356076 27.4797 1.44839C29.6788 2.4735 31.5715 4.03699 32.9755 5.98817C34.6757 7.7307 35.8736 9.88486 36.4467 12.2304C37.2944 14.696 37.6863 17.2904 37.6038 19.8913C37.6014 22.4683 37.3103 25.0374 36.7359 27.5521C35.9294 29.8028 34.7574 31.9107 33.2649 33.7943C31.6511 35.5836 29.6827 37.0317 27.4797 38.0504C24.8914 39.0062 22.1459 39.4871 19.3803 39.4691H16.1985L12.7273 38.6178L9.25618 36.6317C8.10764 35.9758 7.19738 34.9836 6.65294 33.7943H6.36358V53.3722H0V0.880913H6.36358ZM30.0829 14.2165C29.6084 12.5744 28.8234 11.0344 27.7689 9.67675C26.7196 8.42046 25.4453 7.36272 24.0085 6.55564C22.2956 5.75114 20.4107 5.36192 18.5125 5.4207C16.5184 5.327 14.5314 5.7168 12.7273 6.55564C11.2116 7.37561 9.92131 8.54395 8.96699 9.96048C8.0027 11.333 7.31534 12.8741 6.94213 14.5003C6.37513 16.1459 6.08215 17.8704 6.07439 19.6075C6.05573 21.4394 6.34899 23.2614 6.94213 24.9985C7.90083 28.2899 10.0638 31.1187 13.0167 32.9431C14.8127 33.8054 16.8059 34.1965 18.8019 34.0781C20.7828 34.0321 22.7405 33.648 24.5871 32.9431C26.0189 32.1142 27.213 30.9428 28.0581 29.5383C29.0718 28.0882 29.7618 26.4445 30.0829 24.7148C30.5782 22.9615 30.7738 21.1398 30.6615 19.3238C30.7577 17.6017 30.5622 15.8759 30.0829 14.2165" transform="translate(1440.1 148.683)" fill="white"/>
<path d="M1.1638 11.9475C1.9539 9.6297 3.23545 7.5023 4.92414 5.70533C6.59062 3.84977 8.6688 2.39378 10.9987 1.44928C13.6475 0.353564 16.5172 -0.131767 19.3871 0.0306014C22.2554 -0.102776 25.1187 0.381456 27.7757 1.44928C29.9788 2.46793 31.9472 3.91604 33.5609 5.70533C35.2496 7.5023 36.5312 9.6297 37.3213 11.9475C38.2444 14.5 38.7331 17.184 38.7676 19.8921C38.7335 22.5079 38.2444 25.0987 37.3213 27.553C36.5312 29.8708 35.2496 31.9983 33.5609 33.7952C31.9472 35.5845 29.9788 37.0326 27.7757 38.0513C25.0806 38.9827 22.2447 39.4623 19.3871 39.47C16.5276 39.4849 13.688 39.0047 10.9987 38.0513C8.6688 37.1068 6.59062 35.6508 4.92414 33.7952C3.23545 31.9983 1.9539 29.8708 1.1638 27.553C0.333577 25.0833 -0.0576921 22.4919 0.00686283 19.8921C-0.0571008 17.1995 0.33376 14.5149 1.1638 11.9475V11.9475ZM7.81674 25.8506C8.33263 27.5337 9.22171 29.0839 10.4201 30.3904C11.6478 31.4937 13.0077 32.4465 14.4699 33.2278C16.0414 33.8069 17.7085 34.0955 19.3871 34.079C20.9698 34.0736 22.5383 33.7851 24.0154 33.2278C25.4775 32.4465 26.8373 31.4937 28.0649 30.3904C29.2634 29.0839 30.1525 27.5337 30.6683 25.8506C31.3866 23.9407 31.7777 21.9273 31.8255 19.8921C31.799 17.7625 31.4078 15.6524 30.6683 13.65C30.1525 11.9669 29.2634 10.4166 28.0649 9.11016C26.8373 8.00685 25.4775 7.05407 24.0154 6.2728C22.5383 5.71544 20.9698 5.42699 19.3871 5.4216C17.7085 5.4051 16.0414 5.6937 14.4699 6.2728C13.0077 7.05407 11.6478 8.00685 10.4201 9.11016C9.22171 10.4166 8.33263 11.9669 7.81674 13.65C7.18584 15.6711 6.89282 17.7791 6.949 19.8921C6.90883 21.9112 7.20184 23.9233 7.81674 25.8506" transform="translate(1483.48 148.682)" fill="white"/>
<path d="M6.65312 0H0V37.8788H6.65312V0Z" transform="translate(1530.35 149.564)" fill="white"/>
<path d="M6.36375 0.865717V6.82419C7.71083 4.64784 9.63023 2.86719 11.9205 1.66904C14.2108 0.470891 16.7875 -0.100603 19.3805 0.0145099C21.6297 -0.0418788 23.8742 0.245289 26.0334 0.865717C27.6264 1.57545 29.0917 2.53365 30.3723 3.70308C31.3366 5.07563 32.0239 6.61666 32.3972 8.24287C32.9903 9.97996 33.2836 11.802 33.2649 13.6339V38.6027H26.612V13.0664C26.682 12.0354 26.5387 11.0012 26.1907 10.026C25.8427 9.05081 25.2973 8.15472 24.5871 7.39165C23.7654 6.67301 22.8028 6.12625 21.7584 5.78476C20.714 5.44327 19.6097 5.31423 18.5127 5.40551C16.7376 5.36005 14.9702 5.649 13.3061 6.25671C11.8839 6.83988 10.6026 7.70991 9.54554 8.81033C8.59526 9.87407 7.90313 11.1352 7.52087 12.4989C6.93048 14.0404 6.63612 15.6758 6.65294 17.3224V38.6027H0V0.865717H6.36375Z" transform="translate(1546.83 148.698)" fill="white"/>
<path d="M21.4051 11.3495V16.7404H13.3059V40.2906C13.3518 40.8652 13.4486 41.4348 13.5953 41.993C13.5953 42.5605 13.8845 42.8442 14.463 43.1279H21.4051V48.5189H11.8596L8.96699 47.384C8.25448 46.6796 7.75401 45.7959 7.52069 44.8303C7.00435 43.4723 6.80658 42.0176 6.94213 40.5743V16.7404H0V11.3495H6.94213V0H13.3059V11.3495H21.4051Z" transform="translate(1585.59 138.214)" fill="white"/>
<path d="M1.78033 36.0345L7.85472 41.7093L26.946 59.3009L35.0452 51.3563C35.4521 50.9347 35.6789 50.3763 35.6789 49.7957C35.6789 49.2152 35.4521 48.6567 35.0452 48.2352L27.5245 41.7093L19.4251 34.0484C18.977 33.5344 18.7307 32.8804 18.7307 32.2041C18.7307 31.5278 18.977 30.8737 19.4251 30.3598L41.409 9.64703L31.2849 0L7.85472 22.4152L1.78033 28.0899C1.21921 28.5949 0.771155 29.2088 0.46468 29.8926C0.158206 30.5764 0 31.3152 0 32.0622C0 32.8092 0.158206 33.548 0.46468 34.2318C0.771155 34.9156 1.21921 35.5295 1.78033 36.0345" transform="translate(1226 128)" fill="white"/>
<path d="M39.6286 23.2664L33.5543 17.5917L14.463 0L6.36375 7.94462C5.95688 8.36618 5.73012 8.92465 5.73012 9.50518C5.73012 10.0857 5.95688 10.6441 6.36375 11.0657L13.8844 17.5917L21.9839 25.5363C22.4108 26.0044 22.6466 26.6106 22.6466 27.2387C22.6466 27.8668 22.4108 28.4729 21.9839 28.9411L0 49.6539L10.1241 59.3009L33.5543 36.8857L39.6286 31.211C40.1898 30.706 40.6378 30.0921 40.9443 29.4083C41.2508 28.7245 41.409 27.9857 41.409 27.2387C41.409 26.4917 41.2508 25.7529 40.9443 25.0691C40.6378 24.3853 40.1898 23.7714 39.6286 23.2664" transform="translate(1253.24 150.699)" fill="white"/>
<path d="M7.52086 3.68857C7.52086 4.66684 7.12458 5.60504 6.41937 6.29679C5.71416 6.98853 4.75784 7.37714 3.76052 7.37714C2.76321 7.37714 1.8067 6.98853 1.1015 6.29679C0.396289 5.60504 0 4.66684 0 3.68857C0 2.7103 0.396289 1.7721 1.1015 1.08036C1.8067 0.388614 2.76321 0 3.76052 0C4.75784 0 5.71416 0.388614 6.41937 1.08036C7.12458 1.7721 7.52086 2.7103 7.52086 3.68857" transform="translate(1356.79 137.931)" fill="white"/>
<path d="M7.52069 3.68857C7.52069 4.66684 7.12458 5.60504 6.41937 6.29679C5.71416 6.98853 4.75766 7.37714 3.76034 7.37714C2.76303 7.37714 1.80653 6.98853 1.10132 6.29679C0.396113 5.60504 0 4.66684 0 3.68857C0 2.7103 0.396113 1.7721 1.10132 1.08036C1.80653 0.388614 2.76303 0 3.76034 0C4.75766 0 5.71416 0.388614 6.41937 1.08036C7.12458 1.7721 7.52069 2.7103 7.52069 3.68857" transform="translate(1529.77 137.931)" fill="white"/>
</g>
<defs>
<filter id="filter0_f" x="1097.41" y="1682.56" width="131.934" height="133.988" filterUnits="userSpaceOnUse" color-interpolation-filters="sRGB">
<feFlood flood-opacity="0" result="BackgroundImageFix"/>
<feBlend mode="normal" in="SourceGraphic" in2="BackgroundImageFix" result="shape"/>
<feGaussianBlur stdDeviation="3" result="effect1_foregroundBlur"/>
</filter>
<filter id="filter1_f" x="1214.37" y="1682.49" width="143.809" height="134.022" filterUnits="userSpaceOnUse" color-interpolation-filters="sRGB">
<feFlood flood-opacity="0" result="BackgroundImageFix"/>
<feBlend mode="normal" in="SourceGraphic" in2="BackgroundImageFix" result="shape"/>
<feGaussianBlur stdDeviation="3" result="effect1_foregroundBlur"/>
</filter>
<filter id="filter2_d" x="1102.74" y="1669.78" width="250.783" height="144.316" filterUnits="userSpaceOnUse" color-interpolation-filters="sRGB">
<feFlood flood-opacity="0" result="BackgroundImageFix"/>
<feColorMatrix in="SourceAlpha" type="matrix" values="0 0 0 0 0 0 0 0 0 0 0 0 0 0 0 0 0 0 255 0"/>
<feOffset dy="4"/>
<feGaussianBlur stdDeviation="2"/>
<feColorMatrix type="matrix" values="0 0 0 0 0 0 0 0 0 0 0 0 0 0 0 0 0 0 0.25 0"/>
<feBlend mode="normal" in2="BackgroundImageFix" result="effect1_dropShadow"/>
<feBlend mode="normal" in="SourceGraphic" in2="effect1_dropShadow" result="shape"/>
</filter>
<filter id="filter3_d" x="757.538" y="1610.54" width="180.084" height="92.1885" filterUnits="userSpaceOnUse" color-interpolation-filters="sRGB">
<feFlood flood-opacity="0" result="BackgroundImageFix"/>
<feColorMatrix in="SourceAlpha" type="matrix" values="0 0 0 0 0 0 0 0 0 0 0 0 0 0 0 0 0 0 255 0"/>
<feOffset dy="4"/>
<feGaussianBlur stdDeviation="2"/>
<feColorMatrix type="matrix" values="0 0 0 0 0 0 0 0 0 0 0 0 0 0 0 0 0 0 0.11 0"/>
<feBlend mode="normal" in2="BackgroundImageFix" result="effect1_dropShadow"/>
<feBlend mode="normal" in="SourceGraphic" in2="effect1_dropShadow" result="shape"/>
</filter>
<filter id="filter4_d" x="750.429" y="1607.84" width="94.2509" height="205.296" filterUnits="userSpaceOnUse" color-interpolation-filters="sRGB">
<feFlood flood-opacity="0" result="BackgroundImageFix"/>
<feColorMatrix in="SourceAlpha" type="matrix" values="0 0 0 0 0 0 0 0 0 0 0 0 0 0 0 0 0 0 255 0"/>
<feOffset dx="-2" dy="2"/>
<feGaussianBlur stdDeviation="2"/>
<feColorMatrix type="matrix" values="0 0 0 0 0 0 0 0 0 0 0 0 0 0 0 0 0 0 0.15 0"/>
<feBlend mode="normal" in2="BackgroundImageFix" result="effect1_dropShadow"/>
<feBlend mode="normal" in="SourceGraphic" in2="effect1_dropShadow" result="shape"/>
</filter>
<filter id="filter5_d" x="756.954" y="1607.84" width="88.2533" height="204.069" filterUnits="userSpaceOnUse" color-interpolation-filters="sRGB">
<feFlood flood-opacity="0" result="BackgroundImageFix"/>
<feColorMatrix in="SourceAlpha" type="matrix" values="0 0 0 0 0 0 0 0 0 0 0 0 0 0 0 0 0 0 255 0"/>
<feOffset dx="-2" dy="2"/>
<feGaussianBlur stdDeviation="2"/>
<feColorMatrix type="matrix" values="0 0 0 0 0 0 0 0 0 0 0 0 0 0 0 0 0 0 0.15 0"/>
<feBlend mode="normal" in2="BackgroundImageFix" result="effect1_dropShadow"/>
<feBlend mode="normal" in="SourceGraphic" in2="effect1_dropShadow" result="shape"/>
</filter>
<filter id="filter6_f" x="754.921" y="1604" width="94.4735" height="110.461" filterUnits="userSpaceOnUse" color-interpolation-filters="sRGB">
<feFlood flood-opacity="0" result="BackgroundImageFix"/>
<feBlend mode="normal" in="SourceGraphic" in2="BackgroundImageFix" result="shape"/>
<feGaussianBlur stdDeviation="3.5" result="effect1_foregroundBlur"/>
</filter>
<filter id="filter7_d" x="431.544" y="1567.38" width="104.824" height="286.216" filterUnits="userSpaceOnUse" color-interpolation-filters="sRGB">
<feFlood flood-opacity="0" result="BackgroundImageFix"/>
<feColorMatrix in="SourceAlpha" type="matrix" values="0 0 0 0 0 0 0 0 0 0 0 0 0 0 0 0 0 0 255 0"/>
<feOffset dx="-2" dy="2"/>
<feGaussianBlur stdDeviation="2"/>
<feColorMatrix type="matrix" values="0 0 0 0 0 0 0 0 0 0 0 0 0 0 0 0 0 0 0.15 0"/>
<feBlend mode="normal" in2="BackgroundImageFix" result="effect1_dropShadow"/>
<feBlend mode="normal" in="SourceGraphic" in2="effect1_dropShadow" result="shape"/>
</filter>
<filter id="filter8_d" x="439.034" y="1560.25" width="98.1852" height="292.221" filterUnits="userSpaceOnUse" color-interpolation-filters="sRGB">
<feFlood flood-opacity="0" result="BackgroundImageFix"/>
<feColorMatrix in="SourceAlpha" type="matrix" values="0 0 0 0 0 0 0 0 0 0 0 0 0 0 0 0 0 0 255 0"/>
<feOffset dx="-2" dy="2"/>
<feGaussianBlur stdDeviation="2"/>
<feColorMatrix type="matrix" values="0 0 0 0 0 0 0 0 0 0 0 0 0 0 0 0 0 0 0.15 0"/>
<feBlend mode="normal" in2="BackgroundImageFix" result="effect1_dropShadow"/>
<feBlend mode="normal" in="SourceGraphic" in2="effect1_dropShadow" result="shape"/>
</filter>
<filter id="filter9_d" x="1164" y="1234.39" width="123.418" height="269.378" filterUnits="userSpaceOnUse" color-interpolation-filters="sRGB">
<feFlood flood-opacity="0" result="BackgroundImageFix"/>
<feColorMatrix in="SourceAlpha" type="matrix" values="0 0 0 0 0 0 0 0 0 0 0 0 0 0 0 0 0 0 255 0"/>
<feOffset dx="-2" dy="2"/>
<feGaussianBlur stdDeviation="2"/>
<feColorMatrix type="matrix" values="0 0 0 0 0 0 0 0 0 0 0 0 0 0 0 0 0 0 0.15 0"/>
<feBlend mode="normal" in2="BackgroundImageFix" result="effect1_dropShadow"/>
<feBlend mode="normal" in="SourceGraphic" in2="effect1_dropShadow" result="shape"/>
</filter>
<filter id="filter10_d" x="1184.71" y="1371.63" width="51.463" height="53.702" filterUnits="userSpaceOnUse" color-interpolation-filters="sRGB">
<feFlood flood-opacity="0" result="BackgroundImageFix"/>
<feColorMatrix in="SourceAlpha" type="matrix" values="0 0 0 0 0 0 0 0 0 0 0 0 0 0 0 0 0 0 255 0"/>
<feOffset dx="-2" dy="2"/>
<feGaussianBlur stdDeviation="2"/>
<feColorMatrix type="matrix" values="0 0 0 0 0 0 0 0 0 0 0 0 0 0 0 0 0 0 0.15 0"/>
<feBlend mode="normal" in2="BackgroundImageFix" result="effect1_dropShadow"/>
<feBlend mode="normal" in="SourceGraphic" in2="effect1_dropShadow" result="shape"/>
</filter>
<filter id="filter11_d" x="763.605" y="1375.78" width="190.11" height="75.8979" filterUnits="userSpaceOnUse" color-interpolation-filters="sRGB">
<feFlood flood-opacity="0" result="BackgroundImageFix"/>
<feColorMatrix in="SourceAlpha" type="matrix" values="0 0 0 0 0 0 0 0 0 0 0 0 0 0 0 0 0 0 255 0"/>
<feOffset dx="-2" dy="2"/>
<feGaussianBlur stdDeviation="2"/>
<feColorMatrix type="matrix" values="0 0 0 0 0 0 0 0 0 0 0 0 0 0 0 0 0 0 0.15 0"/>
<feBlend mode="normal" in2="BackgroundImageFix" result="effect1_dropShadow"/>
<feBlend mode="normal" in="SourceGraphic" in2="effect1_dropShadow" result="shape"/>
</filter>
<filter id="filter12_d" x="763.605" y="1375.78" width="190.11" height="75.8979" filterUnits="userSpaceOnUse" color-interpolation-filters="sRGB">
<feFlood flood-opacity="0" result="BackgroundImageFix"/>
<feColorMatrix in="SourceAlpha" type="matrix" values="0 0 0 0 0 0 0 0 0 0 0 0 0 0 0 0 0 0 255 0"/>
<feOffset dx="-2" dy="2"/>
<feGaussianBlur stdDeviation="2"/>
<feColorMatrix type="matrix" values="0 0 0 0 0 0 0 0 0 0 0 0 0 0 0 0 0 0 0.15 0"/>
<feBlend mode="normal" in2="BackgroundImageFix" result="effect1_dropShadow"/>
<feBlend mode="normal" in="SourceGraphic" in2="effect1_dropShadow" result="shape"/>
</filter>
<filter id="filter13_d" x="916.834" y="1359.01" width="38.4853" height="38.3544" filterUnits="userSpaceOnUse" color-interpolation-filters="sRGB">
<feFlood flood-opacity="0" result="BackgroundImageFix"/>
<feColorMatrix in="SourceAlpha" type="matrix" values="0 0 0 0 0 0 0 0 0 0 0 0 0 0 0 0 0 0 255 0"/>
<feOffset dx="-2" dy="2"/>
<feGaussianBlur stdDeviation="2"/>
<feColorMatrix type="matrix" values="0 0 0 0 0 0 0 0 0 0 0 0 0 0 0 0 0 0 0.15 0"/>
<feBlend mode="normal" in2="BackgroundImageFix" result="effect1_dropShadow"/>
<feBlend mode="normal" in="SourceGraphic" in2="effect1_dropShadow" result="shape"/>
</filter>
<filter id="filter14_d" x="375.145" y="1104.29" width="250.728" height="129.293" filterUnits="userSpaceOnUse" color-interpolation-filters="sRGB">
<feFlood flood-opacity="0" result="BackgroundImageFix"/>
<feColorMatrix in="SourceAlpha" type="matrix" values="0 0 0 0 0 0 0 0 0 0 0 0 0 0 0 0 0 0 255 0"/>
<feOffset dy="4"/>
<feGaussianBlur stdDeviation="2"/>
<feColorMatrix type="matrix" values="0 0 0 0 0 0 0 0 0 0 0 0 0 0 0 0 0 0 0.25 0"/>
<feBlend mode="normal" in2="BackgroundImageFix" result="effect1_dropShadow"/>
<feBlend mode="normal" in="SourceGraphic" in2="effect1_dropShadow" result="shape"/>
</filter>
<linearGradient id="paint0_linear" x2="1" gradientUnits="userSpaceOnUse" gradientTransform="matrix(104.136 15.0366 -12.8672 43.6981 11.5459 71.839)">
<stop stop-color="#EFEFEF"/>
<stop offset="0.966851" stop-color="#CFCFCF"/>
</linearGradient>
<linearGradient id="paint1_linear" x2="1" gradientUnits="userSpaceOnUse" gradientTransform="translate(27.2507 7.08854) scale(25.6331 31.0689) rotate(90)">
<stop/>
<stop offset="1" stop-opacity="0"/>
</linearGradient>
<linearGradient id="paint2_linear" x2="1" gradientUnits="userSpaceOnUse" gradientTransform="matrix(3.14703 72.6323 -53.042 6.24087 47.5328 0.83819)">
<stop stop-color="#E3E3E3"/>
<stop offset="0.414365" stop-color="#FBFBFB"/>
<stop offset="0.685083" stop-color="white"/>
<stop offset="1" stop-color="#D4D4D4"/>
</linearGradient>
<linearGradient id="paint3_linear" x2="1" gradientUnits="userSpaceOnUse" gradientTransform="matrix(12.4166 90.7986 -63.5208 13.8877 50.751 -9.04989)">
<stop stop-color="#E3E3E3"/>
<stop offset="0.414365" stop-color="#FBFBFB"/>
<stop offset="0.685083" stop-color="white"/>
<stop offset="1" stop-color="#D4D4D4"/>
</linearGradient>
<linearGradient id="paint4_linear" x2="1" gradientUnits="userSpaceOnUse" gradientTransform="matrix(3.14703 72.6323 -53.042 6.24087 47.5328 0.83819)">
<stop stop-color="#E3E3E3"/>
<stop offset="0.414365" stop-color="#FBFBFB"/>
<stop offset="0.713291" stop-color="white"/>
<stop offset="1" stop-color="#E8E8E8"/>
</linearGradient>
<linearGradient id="paint5_linear" x2="1" gradientUnits="userSpaceOnUse" gradientTransform="matrix(96.628 81.4891 -168.117 179.576 32.4157 -38.8631)">
<stop offset="0.287293" stop-color="#D9D9D9"/>
<stop offset="1" stop-color="#F0F0F0"/>
</linearGradient>
<linearGradient id="paint6_linear" x2="1" gradientUnits="userSpaceOnUse" gradientTransform="matrix(-1.12788 93.6349 -226.877 -1.86197 201.791 -1.63435)">
<stop offset="0.403315" stop-color="#E1E1E1"/>
<stop offset="0.745856" stop-color="white"/>
<stop offset="1" stop-color="#F2F2F2"/>
</linearGradient>
<linearGradient id="paint7_linear" x2="1" gradientUnits="userSpaceOnUse" gradientTransform="matrix(271.036 -161.15 365.65 460.621 -264.613 69.0943)">
<stop offset="0.00552486" stop-color="#F2F2F2"/>
<stop offset="0.723757" stop-color="white"/>
<stop offset="1" stop-color="#F0F0F0"/>
</linearGradient>
<linearGradient id="paint8_linear" x2="1" gradientUnits="userSpaceOnUse" gradientTransform="matrix(177.632 215.839 -413.815 362.033 152.915 -221.48)">
<stop offset="0.00552486" stop-color="#F2F2F2"/>
<stop offset="0.230938" stop-color="white"/>
<stop offset="1" stop-color="#F0F0F0"/>
</linearGradient>
<linearGradient id="paint9_linear" x2="1" gradientUnits="userSpaceOnUse" gradientTransform="matrix(96.628 81.4891 -168.117 179.576 26.0515 -38.0941)">
<stop offset="0.00552486" stop-color="#F2F2F2"/>
<stop offset="0.230938" stop-color="white"/>
<stop offset="1" stop-color="#F0F0F0"/>
</linearGradient>
<linearGradient id="paint10_linear" x2="1" gradientUnits="userSpaceOnUse" gradientTransform="matrix(-1.26665 90.3587 -254.789 -1.79682 226.617 -0.995581)">
<stop offset="0.403315" stop-color="#E1E1E1"/>
<stop offset="0.745856" stop-color="white"/>
<stop offset="1" stop-color="#F2F2F2"/>
</linearGradient>
<linearGradient id="paint11_linear" x2="1" gradientUnits="userSpaceOnUse" gradientTransform="matrix(304.366 -155.449 410.615 444.327 -297.154 154.881)">
<stop offset="0.00552486" stop-color="#F2F2F2"/>
<stop offset="0.723757" stop-color="white"/>
<stop offset="1" stop-color="#F0F0F0"/>
</linearGradient>
<linearGradient id="paint12_linear" x2="1" gradientUnits="userSpaceOnUse" gradientTransform="matrix(199.476 208.204 -464.703 349.226 171.72 -118.284)">
<stop offset="0.00552486" stop-color="#F2F2F2"/>
<stop offset="0.230938" stop-color="white"/>
<stop offset="1" stop-color="#F0F0F0"/>
</linearGradient>
<linearGradient id="paint13_linear" x2="1" gradientUnits="userSpaceOnUse" gradientTransform="matrix(102.935 80.8497 -179.09 178.167 28.8702 -32.8095)">
<stop offset="0.00552486" stop-color="#F2F2F2"/>
<stop offset="0.230938" stop-color="white"/>
<stop offset="1" stop-color="#F0F0F0"/>
</linearGradient>
<linearGradient id="paint14_linear" x2="1" gradientUnits="userSpaceOnUse" gradientTransform="matrix(5.42207 -266.531 -245.833 -21.4238 -2168.88 24946.9)">
<stop offset="0.0499394" stop-color="#F2F2F2"/>
<stop offset="1" stop-color="white"/>
</linearGradient>
<linearGradient id="paint15_linear" x2="1" gradientUnits="userSpaceOnUse" gradientTransform="translate(0 259.144) scale(494.695 259.144) rotate(-90)">
<stop offset="0.00552486" stop-color="#F2F2F2"/>
<stop offset="0.723757" stop-color="white"/>
<stop offset="1" stop-color="#F0F0F0"/>
</linearGradient>
<linearGradient id="paint16_linear" x2="1" gradientUnits="userSpaceOnUse" gradientTransform="matrix(-0.831268 83.6 -167.211 -1.66242 150.652 -0.921096)">
<stop offset="0.403315" stop-color="#E1E1E1"/>
<stop offset="0.745856" stop-color="white"/>
<stop offset="1" stop-color="#F2F2F2"/>
</linearGradient>
<linearGradient id="paint17_linear" x2="1" gradientUnits="userSpaceOnUse" gradientTransform="translate(-230.024 43.5178) scale(547.091 273.526) rotate(-90)">
<stop offset="0.00552486" stop-color="#F2F2F2"/>
<stop offset="0.723757" stop-color="white"/>
<stop offset="1" stop-color="#E1E1E1"/>
</linearGradient>
<linearGradient id="paint18_linear" x2="1" gradientUnits="userSpaceOnUse" gradientTransform="translate(-3.95279e-06 262.132) scale(494.696 259.143) rotate(-90)">
<stop offset="0.00552486" stop-color="#F2F2F2"/>
<stop offset="0.723757" stop-color="white"/>
<stop offset="1" stop-color="#F0F0F0"/>
</linearGradient>
<linearGradient id="paint19_linear" x2="1" gradientUnits="userSpaceOnUse" gradientTransform="matrix(-92.6187 -57.2682 109.323 -176.817 137.165 46.2529)">
<stop offset="0.0499394" stop-color="#F2F2F2"/>
<stop offset="1" stop-color="white"/>
</linearGradient>
<linearGradient id="paint20_linear" x2="1" gradientUnits="userSpaceOnUse" gradientTransform="translate(-1.87818 180.748) scale(363.055 180.748) rotate(-90)">
<stop offset="0.00552486" stop-color="#F2F2F2"/>
<stop offset="1" stop-color="#E1E1E1"/>
</linearGradient>
<linearGradient id="paint21_linear" x2="1" gradientUnits="userSpaceOnUse" gradientTransform="matrix(-0.582284 58.3123 -117.128 -1.15957 172.263 -1.01782)">
<stop offset="0.403315" stop-color="#E1E1E1"/>
<stop offset="0.745856" stop-color="white"/>
<stop offset="1" stop-color="#F2F2F2"/>
</linearGradient>
<linearGradient id="paint22_linear" x2="1" gradientUnits="userSpaceOnUse" gradientTransform="translate(0 180.748) scale(363.055 180.748) rotate(-90)">
<stop offset="0.00552486" stop-color="#F2F2F2"/>
<stop offset="0.723757" stop-color="white"/>
<stop offset="1" stop-color="#F0F0F0"/>
</linearGradient>
<linearGradient id="paint23_linear" x2="1" gradientUnits="userSpaceOnUse" gradientTransform="translate(0 180.748) scale(363.055 180.748) rotate(-90)">
<stop offset="0.00552486" stop-color="#F2F2F2"/>
<stop offset="0.723757" stop-color="white"/>
<stop offset="1" stop-color="#F0F0F0"/>
</linearGradient>
<linearGradient id="paint24_linear" x2="1" gradientUnits="userSpaceOnUse" gradientTransform="translate(-161.127 30.3544) scale(383.224 190.789) rotate(-90)">
<stop offset="0.00552486" stop-color="#F2F2F2"/>
<stop offset="0.723757" stop-color="white"/>
<stop offset="1" stop-color="#E1E1E1"/>
</linearGradient>
<linearGradient id="paint25_linear" x2="1" gradientUnits="userSpaceOnUse" gradientTransform="translate(219.124) scale(270 134.336) rotate(90)">
<stop offset="0.00552486" stop-color="#F2F2F2"/>
<stop offset="0.723757" stop-color="white"/>
<stop offset="1" stop-color="#E1E1E1"/>
</linearGradient>
<linearGradient id="paint26_linear" x2="1" gradientUnits="userSpaceOnUse" gradientTransform="translate(0 134.336) scale(270 134.336) rotate(-90)">
<stop offset="0.00552486" stop-color="#F2F2F2"/>
<stop offset="0.723757" stop-color="white"/>
<stop offset="1" stop-color="#E1E1E1"/>
</linearGradient>
<linearGradient id="paint27_linear" x2="1" gradientUnits="userSpaceOnUse" gradientTransform="translate(242.728) scale(242.728 121.293) rotate(90)">
<stop offset="0.00552486" stop-color="#F2F2F2"/>
<stop offset="0.723757" stop-color="white"/>
<stop offset="1" stop-color="#E1E1E1"/>
</linearGradient>
<linearGradient id="paint28_linear" x2="1" gradientUnits="userSpaceOnUse" gradientTransform="translate(242.728) scale(242.728 121.293) rotate(90)">
<stop offset="0.00552486" stop-color="#F2F2F2"/>
<stop offset="0.723757" stop-color="white"/>
<stop offset="1" stop-color="#E1E1E1"/>
</linearGradient>
<linearGradient id="paint29_linear" x2="1" gradientUnits="userSpaceOnUse" gradientTransform="translate(-5672.54 22722) scale(549.596 274.775) rotate(-90)">
<stop stop-color="#E1E1E1"/>
<stop offset="0.491713" stop-color="#F2F2F2"/>
<stop offset="1" stop-color="white"/>
</linearGradient>
<linearGradient id="paint30_linear" x2="1" gradientUnits="userSpaceOnUse" gradientTransform="translate(242.728) scale(242.728 121.293) rotate(90)">
<stop stop-color="white"/>
<stop offset="0.729282" stop-color="#F2F2F2"/>
<stop offset="1" stop-color="#E1E1E1"/>
</linearGradient>
<linearGradient id="paint31_linear" x2="1" gradientUnits="userSpaceOnUse" gradientTransform="translate(242.728) scale(242.728 121.293) rotate(90)">
<stop stop-color="#E1E1E1"/>
<stop offset="0.491713" stop-color="#F2F2F2"/>
<stop offset="1" stop-color="white"/>
</linearGradient>
<clipPath id="clip0">
<rect width="1712" height="2153" fill="white"/>
</clipPath>
</defs>
</svg>
