<svg width="1021" height="1278" viewBox="0 0 1021 1278" fill="none" xmlns="http://www.w3.org/2000/svg">
<g id="Mock - v1 - git2">
<g clip-path="url(#clip0)">
<rect width="1021" height="1278" fill="white"/>
<g id="BASE">
<path id="BASE_2" d="M1056 0H-1056V1278H1056V0Z" fill="#33D5DF"/>
</g>
<g id="Group">
<g id="Group_2">
<path id="Vector" d="M749.484 140.854C749.89 141.58 750.539 142.145 751.32 142.457L753.565 143.458H758.666C759.454 143.446 760.226 143.239 760.91 142.857C761.571 142.638 762.144 142.217 762.543 141.656C762.985 141.081 763.202 140.371 763.155 139.653C763.188 139.131 763.071 138.611 762.819 138.151C762.567 137.691 762.188 137.309 761.727 137.049C760.715 136.425 759.615 135.952 758.462 135.646L753.973 134.645C752.425 134.46 750.913 134.055 749.484 133.443C748.248 132.945 747.135 132.194 746.219 131.24C745.359 130.168 744.858 128.86 744.785 127.498C744.712 126.135 745.07 124.783 745.811 123.628C746.468 122.685 747.299 121.87 748.26 121.225C749.241 120.586 750.357 120.175 751.524 120.023C752.718 119.691 753.959 119.556 755.197 119.622C756.705 119.546 758.217 119.681 759.686 120.023C760.972 120.212 762.215 120.618 763.359 121.225C764.378 121.885 765.218 122.779 765.808 123.829C766.385 125.095 766.73 126.451 766.828 127.835H762.135C762.15 127.12 761.936 126.42 761.523 125.832C761.079 125.263 760.524 124.786 759.89 124.43L757.85 123.628H753.565L751.728 124.029C751.116 124.43 750.504 124.63 750.3 125.231C750.094 125.444 749.934 125.696 749.829 125.971C749.724 126.246 749.676 126.539 749.688 126.833C749.654 127.177 749.711 127.524 749.854 127.84C749.997 128.156 750.221 128.43 750.504 128.636C751.139 129.259 751.905 129.738 752.749 130.038L755.605 130.839L758.87 131.44L762.339 132.442C763.34 132.719 764.3 133.123 765.195 133.643C766.029 134.226 766.724 134.977 767.236 135.847C767.818 136.815 768.102 137.928 768.052 139.052C768.084 140.453 767.732 141.836 767.032 143.058C766.344 144.169 765.355 145.071 764.175 145.662C763.027 146.448 761.692 146.931 760.298 147.064L756.013 147.464L751.728 147.064C750.343 146.779 749.027 146.235 747.852 145.461C746.769 144.729 745.863 143.771 745.199 142.657C744.524 141.354 744.174 139.912 744.179 138.451H748.872C748.825 139.294 749.039 140.132 749.484 140.854Z" fill="white"/>
<path id="Vector_2" d="M778.255 120.223H773.562V146.964H778.255V120.223Z" fill="white"/>
<path id="Vector_3" d="M797.23 120.223V124.029H791.721V140.654C791.721 141.255 791.721 141.656 791.925 141.856C791.925 142.011 791.962 142.165 792.033 142.304C792.104 142.443 792.207 142.564 792.333 142.657H797.23V146.463H790.701C789.966 146.358 789.266 146.083 788.66 145.662C788.038 145.231 787.602 144.588 787.436 143.859C787.174 142.878 787.037 141.869 787.028 140.854V124.029H782.335V120.223H787.028V112.211H791.721V120.223H797.23Z" fill="white"/>
<path id="Vector_4" d="M822.328 145.261C819.971 146.784 817.191 147.554 814.37 147.464C812.419 147.477 810.483 147.137 808.657 146.463C807.002 145.816 805.532 144.785 804.372 143.458C803.202 142.207 802.362 140.694 801.924 139.051C801.253 137.255 800.908 135.356 800.903 133.443C800.928 131.531 801.272 129.636 801.924 127.834C802.562 126.235 803.457 124.748 804.576 123.428C805.786 122.205 807.246 121.249 808.861 120.623C810.52 119.871 812.341 119.527 814.166 119.622C816.3 119.518 818.421 120.004 820.288 121.024C821.972 121.909 823.382 123.224 824.369 124.83C825.34 126.297 826.032 127.926 826.409 129.637C826.842 131.338 826.98 133.099 826.817 134.845H805.8C805.836 135.99 805.973 137.129 806.208 138.25C806.548 139.286 807.104 140.242 807.841 141.054C808.585 141.926 809.581 142.554 810.698 142.857C812.099 143.468 813.631 143.733 815.161 143.628C816.69 143.523 818.17 143.052 819.471 142.256C820.117 141.814 820.666 141.249 821.087 140.596C821.507 139.942 821.79 139.213 821.92 138.451H826.409C826.013 141.159 824.547 143.605 822.328 145.261ZM821.308 128.035C820.939 127.079 820.303 126.246 819.471 125.631C818.774 124.94 817.941 124.395 817.023 124.029C816.052 123.637 815.012 123.433 813.962 123.428C812.843 123.394 811.729 123.599 810.698 124.029C809.78 124.395 808.947 124.94 808.249 125.631C807.5 126.279 806.938 127.107 806.617 128.035C806.157 128.978 805.88 129.997 805.8 131.039H821.92C821.915 130.008 821.707 128.988 821.308 128.035Z" fill="white"/>
<path id="Vector_5" d="M836.407 120.223V123.828H836.611C836.942 123.094 837.419 122.432 838.015 121.881C838.611 121.331 839.313 120.903 840.08 120.624C841.81 119.869 843.698 119.526 845.589 119.622C847.547 119.509 849.505 119.852 851.302 120.624C852.854 121.347 854.189 122.451 855.179 123.828C856.378 125.059 857.223 126.579 857.628 128.235C858.226 129.976 858.502 131.807 858.444 133.643C858.442 135.463 858.237 137.276 857.832 139.051C857.263 140.64 856.436 142.128 855.383 143.458C854.245 144.721 852.856 145.744 851.302 146.463C849.477 147.137 847.54 147.477 845.589 147.464H843.345L840.896 146.863L838.447 145.461C837.637 144.998 836.995 144.298 836.611 143.458H836.407V157.279H831.918V120.223H836.407ZM853.139 129.637C852.804 128.478 852.25 127.391 851.506 126.432C850.766 125.545 849.867 124.799 848.854 124.229C847.645 123.661 846.316 123.386 844.977 123.428C843.57 123.362 842.169 123.637 840.896 124.229C839.827 124.808 838.917 125.633 838.243 126.633C837.563 127.602 837.078 128.69 836.815 129.838C836.415 130.999 836.208 132.217 836.203 133.443C836.19 134.736 836.397 136.022 836.815 137.249C837.491 139.572 839.017 141.569 841.1 142.857C842.367 143.466 843.773 143.742 845.181 143.658C846.578 143.626 847.959 143.355 849.262 142.857C850.272 142.272 851.114 141.445 851.71 140.454C852.425 139.43 852.912 138.27 853.139 137.048C853.488 135.811 853.626 134.525 853.547 133.243C853.615 132.027 853.477 130.809 853.139 129.637" fill="white"/>
<path id="Vector_6" d="M863.341 128.035C863.899 126.399 864.803 124.897 865.994 123.628C867.17 122.318 868.636 121.29 870.279 120.624C872.148 119.85 874.172 119.508 876.196 119.622C878.22 119.528 880.239 119.87 882.114 120.624C883.668 121.343 885.056 122.365 886.195 123.628C887.386 124.897 888.29 126.399 888.847 128.035C889.498 129.837 889.843 131.732 889.867 133.643C889.843 135.49 889.498 137.319 888.847 139.052C888.29 140.688 887.386 142.19 886.195 143.458C885.056 144.721 883.668 145.744 882.114 146.463C880.213 147.12 878.212 147.459 876.196 147.464C874.179 147.475 872.176 147.136 870.279 146.463C868.636 145.796 867.17 144.768 865.994 143.458C864.803 142.19 863.899 140.688 863.341 139.052C862.756 137.308 862.48 135.479 862.525 133.643C862.48 131.743 862.756 129.847 863.341 128.035V128.035ZM868.034 137.85C868.398 139.038 869.026 140.132 869.871 141.055C870.737 141.834 871.696 142.506 872.728 143.058C873.836 143.467 875.012 143.67 876.196 143.659C877.313 143.655 878.419 143.451 879.461 143.058C880.493 142.506 881.452 141.834 882.318 141.055C883.163 140.132 883.79 139.038 884.154 137.85C884.661 136.502 884.937 135.08 884.97 133.643C884.952 132.14 884.676 130.65 884.154 129.237C883.79 128.049 883.163 126.954 882.318 126.032C881.452 125.253 880.493 124.58 879.461 124.029C878.419 123.635 877.313 123.432 876.196 123.428C875.012 123.416 873.836 123.62 872.728 124.029C871.696 124.58 870.737 125.253 869.871 126.032C869.026 126.954 868.398 128.049 868.034 129.237C867.589 130.664 867.383 132.152 867.422 133.643C867.394 135.069 867.601 136.489 868.034 137.85" fill="white"/>
<path id="Vector_7" d="M900.274 120.223H895.581V146.964H900.274V120.223Z" fill="white"/>
<path id="Vector_8" d="M911.701 120.223V124.429C912.651 122.893 914.005 121.636 915.621 120.79C917.236 119.944 919.054 119.541 920.883 119.622C922.47 119.582 924.053 119.785 925.576 120.223C926.7 120.724 927.733 121.4 928.637 122.226C929.317 123.195 929.802 124.283 930.065 125.431C930.484 126.657 930.69 127.943 930.677 129.237V146.863H925.984V128.836C926.034 128.108 925.933 127.378 925.687 126.69C925.442 126.001 925.057 125.369 924.556 124.83C923.976 124.323 923.297 123.937 922.56 123.696C921.824 123.454 921.045 123.363 920.271 123.428C919.019 123.396 917.772 123.6 916.598 124.029C915.595 124.44 914.691 125.055 913.945 125.831C913.275 126.582 912.787 127.473 912.517 128.435C912.101 129.524 911.893 130.678 911.905 131.841V146.863H907.212V120.223H911.701Z" fill="white"/>
<path id="Vector_9" d="M949.653 120.223V124.029H943.94V140.654C943.972 141.06 944.04 141.462 944.144 141.856C944.144 142.256 944.348 142.457 944.756 142.657H949.653V146.463H942.92L940.879 145.662C940.376 145.164 940.023 144.541 939.859 143.859C939.495 142.9 939.355 141.873 939.451 140.854V124.029H934.554V120.223H939.451V112.211H943.94V120.223H949.653Z" fill="white"/>
<path id="Vector_10" d="M682.148 130.439L686.433 134.445L699.9 146.863L705.614 141.255C705.901 140.957 706.061 140.563 706.061 140.153C706.061 139.743 705.901 139.349 705.614 139.052L700.309 134.445L694.595 129.036C694.279 128.674 694.105 128.212 694.105 127.734C694.105 127.257 694.279 126.795 694.595 126.432L710.103 111.81L702.961 105L686.433 120.824L682.148 124.83C681.753 125.187 681.437 125.62 681.22 126.103C681.004 126.585 680.893 127.107 680.893 127.634C680.893 128.162 681.004 128.683 681.22 129.166C681.437 129.649 681.753 130.082 682.148 130.439" fill="white"/>
<path id="Vector_11" d="M728.059 137.449L723.774 133.443L710.307 121.024L704.594 126.633C704.307 126.931 704.147 127.325 704.147 127.735C704.147 128.144 704.307 128.539 704.594 128.836L709.899 133.443L715.612 139.052C715.913 139.382 716.08 139.81 716.08 140.254C716.08 140.697 715.913 141.125 715.612 141.455L700.104 156.078L707.246 162.888L723.774 147.064L728.059 143.058C728.455 142.701 728.771 142.268 728.987 141.785C729.203 141.302 729.315 140.781 729.315 140.254C729.315 139.726 729.203 139.205 728.987 138.722C728.771 138.239 728.455 137.806 728.059 137.449" fill="white"/>
<path id="Vector_12" d="M778.459 114.615C778.459 115.305 778.179 115.968 777.682 116.456C777.184 116.944 776.51 117.219 775.806 117.219C775.103 117.219 774.428 116.944 773.93 116.456C773.433 115.968 773.153 115.305 773.153 114.615C773.153 113.924 773.433 113.262 773.93 112.773C774.428 112.285 775.103 112.011 775.806 112.011C776.51 112.011 777.184 112.285 777.682 112.773C778.179 113.262 778.459 113.924 778.459 114.615" fill="white"/>
<path id="Vector_13" d="M900.478 114.615C900.478 115.305 900.199 115.968 899.701 116.456C899.204 116.944 898.529 117.219 897.825 117.219C897.122 117.219 896.447 116.944 895.95 116.456C895.452 115.968 895.173 115.305 895.173 114.615C895.173 113.924 895.452 113.262 895.95 112.773C896.447 112.285 897.122 112.011 897.825 112.011C898.529 112.011 899.204 112.285 899.701 112.773C900.199 113.262 900.478 113.924 900.478 114.615" fill="white"/>
</g>
<path id="JUMP START GIT" d="M415.052 362.854L412.46 371.686C416.492 374.566 421.484 375.91 427.244 375.91C432.62 375.91 436.844 375.142 440.108 373.414C443.276 371.782 445.676 369.478 447.404 366.406C449.036 363.43 450.092 359.782 450.668 355.558C451.148 351.334 451.436 346.534 451.436 341.35V306.694H440.588V341.35C440.588 345.478 440.396 349.126 440.108 352.198C439.82 355.27 439.244 357.862 438.284 359.974C437.324 362.086 435.98 363.622 434.252 364.678C432.524 365.734 430.124 366.214 427.244 366.214C424.46 366.214 421.964 365.926 419.852 365.158C417.74 364.39 416.108 363.622 415.052 362.854ZM494.471 365.638C490.919 365.638 487.943 364.966 485.543 363.622C483.143 362.278 481.223 360.454 479.783 358.15C478.343 355.846 477.287 353.254 476.711 350.374C476.135 347.494 475.847 344.422 475.847 341.254V306.694H465.095V341.254C465.095 345.67 465.575 349.99 466.631 354.022C467.591 358.15 469.319 361.798 471.623 364.966C473.927 368.134 476.903 370.63 480.647 372.55C484.391 374.47 488.999 375.334 494.471 375.334C499.655 375.334 504.167 374.47 507.911 372.646C511.655 370.918 514.727 368.422 517.127 365.35C519.431 362.278 521.159 358.63 522.311 354.502C523.367 350.374 523.943 345.958 523.943 341.254V306.694H513.095V341.254C513.095 344.326 512.711 347.398 512.135 350.278C511.559 353.158 510.503 355.75 509.063 358.054C507.623 360.358 505.703 362.182 503.399 363.526C500.999 364.966 498.023 365.638 494.471 365.638ZM595.555 374.854H606.403V306.694H594.883L572.323 348.358L549.763 306.694H538.243V374.854H548.995V325.798L569.347 362.95H575.299L595.555 325.798V374.854ZM621.774 374.854H632.526V351.142H650.958C654.03 351.142 656.814 350.566 659.31 349.318C661.806 348.07 664.014 346.438 665.838 344.326C667.566 342.214 669.006 339.91 669.966 337.222C670.926 334.534 671.502 331.75 671.502 328.87C671.502 326.182 670.926 323.494 669.87 320.806C668.814 318.118 667.374 315.814 665.55 313.702C663.63 311.59 661.422 309.958 658.83 308.614C656.238 307.366 653.454 306.694 650.382 306.694H621.774V374.854ZM632.526 341.638V316.198H649.71C651.054 316.198 652.398 316.582 653.742 317.158C655.086 317.734 656.238 318.598 657.294 319.75C658.254 320.902 659.118 322.15 659.694 323.686C660.27 325.222 660.558 326.95 660.558 328.87C660.558 330.79 660.27 332.422 659.79 333.958C659.214 335.494 658.542 336.838 657.678 337.99C656.718 339.142 655.662 340.102 654.414 340.678C653.166 341.35 651.822 341.638 650.286 341.638H632.526ZM743 322.726L747.896 313.894C744.92 311.782 741.464 309.958 737.624 308.422C733.688 306.982 729.464 306.214 724.856 306.214C721.304 306.214 718.04 306.694 715.064 307.558C711.992 308.518 709.4 309.862 707.192 311.59C704.984 313.318 703.256 315.526 702.008 318.118C700.664 320.71 700.088 323.686 700.088 326.95C700.088 329.638 700.472 331.942 701.336 333.862C702.2 335.782 703.448 337.414 705.176 338.758C706.808 340.198 708.92 341.446 711.416 342.406C713.912 343.366 716.888 344.326 720.344 345.19C723.224 345.958 725.912 346.726 728.216 347.398C730.52 348.166 732.44 348.934 734.072 349.798C735.608 350.662 736.856 351.622 737.72 352.774C738.584 353.926 739.064 355.366 739.064 357.094C739.064 359.974 737.912 362.182 735.608 363.622C733.304 365.158 730.04 365.83 725.816 365.83C723.128 365.83 720.632 365.542 718.232 364.966C715.736 364.39 713.528 363.622 711.416 362.758C709.304 361.894 707.48 360.934 705.944 359.878C704.408 358.918 703.16 357.958 702.392 357.094L697.496 366.31C701.336 369.382 705.752 371.686 710.552 373.222C715.352 374.758 720.44 375.526 725.624 375.526C729.08 375.526 732.248 375.238 735.32 374.47C738.296 373.702 740.888 372.55 743.192 371.014C745.496 369.478 747.224 367.366 748.568 364.87C749.912 362.374 750.584 359.398 750.584 355.942C750.584 352.87 750.008 350.278 748.952 348.166C747.896 346.054 746.456 344.23 744.536 342.694C742.616 341.254 740.216 340.006 737.432 338.95C734.648 337.99 731.576 337.03 728.12 336.166C725.24 335.494 722.84 334.822 720.728 334.246C718.616 333.67 716.792 332.902 715.448 332.134C714.008 331.366 712.952 330.406 712.28 329.35C711.608 328.294 711.32 326.95 711.32 325.222C711.32 322.342 712.376 320.038 714.488 318.31C716.6 316.678 719.96 315.814 724.568 315.814C726.584 315.814 728.6 316.102 730.52 316.486C732.44 316.966 734.264 317.542 735.896 318.214C737.528 318.982 738.968 319.75 740.216 320.518C741.368 321.286 742.328 322.054 743 322.726ZM810.915 316.198V306.694H754.659V316.198H777.411V374.854H788.259V316.198H810.915ZM833.369 306.694L806.297 374.854H817.721L824.825 356.326H851.129L858.329 374.854H869.657L842.777 306.694H833.369ZM849.017 348.358H826.745L838.073 319.078L849.017 348.358ZM878.086 374.854H888.838V351.142H904.582L919.366 374.854H931.558L915.526 348.934C917.446 348.358 919.27 347.398 920.998 346.054C922.63 344.71 924.07 343.174 925.222 341.35C926.374 339.622 927.238 337.606 927.91 335.494C928.486 333.382 928.87 331.174 928.87 328.87C928.87 326.182 928.294 323.494 927.238 320.806C926.182 318.118 924.742 315.814 922.918 313.702C920.998 311.59 918.79 309.958 916.198 308.614C913.606 307.366 910.822 306.694 907.75 306.694H878.086V374.854ZM888.838 341.638V316.198H907.078C908.422 316.198 909.766 316.582 911.11 317.254C912.454 317.926 913.606 318.79 914.566 319.942C915.526 321.094 916.39 322.438 916.966 323.974C917.542 325.51 917.926 327.142 917.926 328.87C917.926 330.598 917.638 332.23 917.158 333.766C916.582 335.302 915.91 336.742 915.046 337.894C914.086 339.046 913.03 340.006 911.782 340.678C910.534 341.35 909.19 341.638 907.654 341.638H888.838ZM990.54 316.198V306.694H934.284V316.198H957.036V374.854H967.884V316.198H990.54ZM755.003 564.614V584.854H776.623V502.284H720.733V521.374H755.003V538.854C748.103 547.134 740.743 553.344 733.153 557.024C725.563 560.934 717.743 562.774 709.463 562.774C701.873 562.774 694.973 561.394 688.533 558.174C682.093 554.954 676.343 550.814 671.743 545.294C667.143 540.004 663.463 533.794 660.703 526.434C657.943 519.304 656.793 511.484 656.793 503.204C656.793 495.384 657.943 488.024 660.243 480.664C662.543 473.534 665.993 467.324 670.593 461.804C674.963 456.284 680.253 451.914 686.693 448.694C692.903 445.474 699.803 443.634 707.623 443.634C716.823 443.634 725.563 445.934 733.383 450.304C741.203 454.904 747.183 461.574 751.783 470.314L771.563 456.054C766.043 445.474 758.223 436.734 747.643 430.294C737.063 423.854 723.953 420.404 708.313 420.404C697.043 420.404 686.693 422.704 677.263 427.074C667.603 431.444 659.553 437.424 652.653 444.784C645.753 452.374 640.233 461.114 636.323 471.004C632.413 481.124 630.573 491.474 630.573 502.514C630.573 513.554 632.413 524.134 636.323 534.254C640.233 544.374 645.753 553.344 652.653 560.934C659.553 568.754 667.603 574.734 677.033 579.334C686.233 583.934 696.353 586.004 707.393 586.004C725.333 586.004 741.203 578.874 755.003 564.614ZM806.005 584.854H831.765V421.554H806.005V584.854ZM988.501 444.324V421.554H853.721V444.324H908.231V584.854H934.221V444.324H988.501Z" fill="white"/>
<path id="BY SHAUMIK DAITYARI" d="M738.523 676.608C738.523 675.528 738.235 674.616 737.659 673.848C737.083 673.08 736.315 672.552 735.355 672.264C736.123 671.928 736.723 671.376 737.155 670.656C737.587 669.936 737.803 669.144 737.803 668.304C737.803 667.776 737.707 667.272 737.515 666.744C737.323 666.216 737.083 665.76 736.747 665.352C736.411 664.944 736.003 664.608 735.523 664.344C735.043 664.104 734.491 663.96 733.915 663.96H725.131V681H733.267C733.987 681 734.659 680.904 735.307 680.712C735.931 680.52 736.483 680.232 736.963 679.848C737.443 679.464 737.803 679.008 738.091 678.456C738.379 677.928 738.523 677.304 738.523 676.608ZM735.763 676.104C735.763 676.464 735.691 676.8 735.571 677.112C735.427 677.424 735.259 677.688 735.043 677.928C734.803 678.168 734.539 678.336 734.251 678.48C733.939 678.624 733.603 678.672 733.267 678.672H727.819V673.464H733.435C733.771 673.464 734.083 673.536 734.371 673.68C734.659 673.824 734.899 674.016 735.091 674.256C735.283 674.496 735.451 674.784 735.571 675.096C735.691 675.432 735.763 675.768 735.763 676.104ZM727.819 666.288H732.907C733.531 666.288 734.059 666.528 734.491 667.008C734.899 667.488 735.115 668.088 735.115 668.808C735.115 669.192 735.043 669.528 734.923 669.816C734.803 670.128 734.635 670.392 734.419 670.608C734.203 670.824 733.963 670.992 733.675 671.112C733.387 671.256 733.099 671.304 732.763 671.304H727.819V666.288ZM741.871 663.96H738.919L745.231 674.856V681H747.919V674.904L754.279 663.96H751.327L746.575 672.504L741.871 663.96ZM771.586 667.968L772.81 665.76C772.066 665.232 771.202 664.776 770.242 664.392C769.258 664.032 768.202 663.84 767.05 663.84C766.162 663.84 765.346 663.96 764.602 664.176C763.834 664.416 763.186 664.752 762.634 665.184C762.082 665.616 761.65 666.168 761.338 666.816C761.002 667.464 760.858 668.208 760.858 669.024C760.858 669.696 760.954 670.272 761.17 670.752C761.386 671.232 761.698 671.64 762.13 671.976C762.538 672.336 763.066 672.648 763.69 672.888C764.314 673.128 765.058 673.368 765.922 673.584C766.642 673.776 767.314 673.968 767.89 674.136C768.466 674.328 768.946 674.52 769.354 674.736C769.738 674.952 770.05 675.192 770.266 675.48C770.482 675.768 770.602 676.128 770.602 676.56C770.602 677.28 770.314 677.832 769.738 678.192C769.162 678.576 768.346 678.744 767.29 678.744C766.618 678.744 765.994 678.672 765.394 678.528C764.77 678.384 764.218 678.192 763.69 677.976C763.162 677.76 762.706 677.52 762.322 677.256C761.938 677.016 761.626 676.776 761.434 676.56L760.21 678.864C761.17 679.632 762.274 680.208 763.474 680.592C764.674 680.976 765.946 681.168 767.242 681.168C768.106 681.168 768.898 681.096 769.666 680.904C770.41 680.712 771.058 680.424 771.634 680.04C772.21 679.656 772.642 679.128 772.978 678.504C773.314 677.88 773.482 677.136 773.482 676.272C773.482 675.504 773.338 674.856 773.074 674.328C772.81 673.8 772.45 673.344 771.97 672.96C771.49 672.6 770.89 672.288 770.194 672.024C769.498 671.784 768.73 671.544 767.866 671.328C767.146 671.16 766.546 670.992 766.018 670.848C765.49 670.704 765.034 670.512 764.698 670.32C764.338 670.128 764.074 669.888 763.906 669.624C763.738 669.36 763.666 669.024 763.666 668.592C763.666 667.872 763.93 667.296 764.458 666.864C764.986 666.456 765.826 666.24 766.978 666.24C767.482 666.24 767.986 666.312 768.466 666.408C768.946 666.528 769.402 666.672 769.81 666.84C770.218 667.032 770.578 667.224 770.89 667.416C771.178 667.608 771.418 667.8 771.586 667.968ZM790.17 663.96H787.458V671.088H778.866V663.96H776.178V681H778.866V673.488H787.458V681H790.17V663.96ZM799.03 663.96L792.262 681H795.118L796.894 676.368H803.47L805.27 681H808.102L801.382 663.96H799.03ZM802.942 674.376H797.374L800.206 667.056L802.942 674.376ZM816.563 678.696C815.675 678.696 814.931 678.528 814.331 678.192C813.731 677.856 813.251 677.4 812.891 676.824C812.531 676.248 812.267 675.6 812.123 674.88C811.979 674.16 811.907 673.392 811.907 672.6V663.96H809.219V672.6C809.219 673.704 809.339 674.784 809.603 675.792C809.843 676.824 810.275 677.736 810.851 678.528C811.427 679.32 812.171 679.944 813.107 680.424C814.043 680.904 815.195 681.12 816.563 681.12C817.859 681.12 818.987 680.904 819.923 680.448C820.859 680.016 821.627 679.392 822.227 678.624C822.803 677.856 823.235 676.944 823.523 675.912C823.787 674.88 823.931 673.776 823.931 672.6V663.96H821.219V672.6C821.219 673.368 821.123 674.136 820.979 674.856C820.835 675.576 820.571 676.224 820.211 676.8C819.851 677.376 819.371 677.832 818.795 678.168C818.195 678.528 817.451 678.696 816.563 678.696ZM841.834 681H844.546V663.96H841.666L836.026 674.376L830.386 663.96H827.506V681H830.194V668.736L835.282 678.024H836.77L841.834 668.736V681ZM848.389 681H851.077V663.96H848.389V681ZM854.928 681H857.616V675.864L860.232 673.152L865.992 681H868.992L861.888 671.496L868.608 663.96H865.632L857.616 672.744V663.984H854.928V681ZM876.42 681H882.468C883.716 681 884.868 680.808 885.9 680.4C886.908 679.992 887.796 679.416 888.516 678.672C889.236 677.928 889.788 677.04 890.172 675.984C890.556 674.928 890.772 673.752 890.772 672.456C890.772 671.304 890.58 670.2 890.244 669.168C889.884 668.136 889.356 667.224 888.66 666.456C887.964 665.688 887.1 665.088 886.068 664.632C885.036 664.2 883.836 663.96 882.468 663.96H876.42V681ZM888.036 672.456C888.036 673.344 887.916 674.16 887.676 674.904C887.436 675.672 887.076 676.32 886.596 676.872C886.116 677.424 885.54 677.856 884.844 678.168C884.148 678.48 883.356 678.624 882.468 678.624H879.108V666.336H882.468C883.332 666.336 884.124 666.504 884.82 666.792C885.492 667.104 886.092 667.536 886.572 668.064C887.052 668.592 887.412 669.24 887.652 669.984C887.892 670.752 888.036 671.568 888.036 672.456ZM898.006 663.96L891.238 681H894.094L895.87 676.368H902.446L904.246 681H907.078L900.358 663.96H898.006ZM901.918 674.376H896.35L899.182 667.056L901.918 674.376ZM909.186 681H911.874V663.96H909.186V681ZM928.229 666.336V663.96H914.165V666.336H919.853V681H922.565V666.336H928.229ZM931.762 663.96H928.81L935.122 674.856V681H937.81V674.904L944.17 663.96H941.218L936.466 672.504L931.762 663.96ZM949.334 663.96L942.566 681H945.422L947.198 676.368H953.774L955.574 681H958.406L951.686 663.96H949.334ZM953.246 674.376H947.678L950.51 667.056L953.246 674.376ZM960.514 681H963.202V675.072H967.138L970.834 681H973.882L969.874 674.52C970.354 674.376 970.81 674.136 971.242 673.8C971.65 673.464 972.01 673.08 972.298 672.624C972.586 672.192 972.802 671.688 972.97 671.16C973.114 670.632 973.21 670.08 973.21 669.504C973.21 668.832 973.066 668.16 972.802 667.488C972.538 666.816 972.178 666.24 971.722 665.712C971.242 665.184 970.69 664.776 970.042 664.44C969.394 664.128 968.698 663.96 967.93 663.96H960.514V681ZM963.202 672.696V666.336H967.762C968.098 666.336 968.434 666.432 968.77 666.6C969.106 666.768 969.394 666.984 969.634 667.272C969.874 667.56 970.09 667.896 970.234 668.28C970.378 668.664 970.474 669.072 970.474 669.504C970.474 669.936 970.402 670.344 970.282 670.728C970.138 671.112 969.97 671.472 969.754 671.76C969.514 672.048 969.25 672.288 968.938 672.456C968.626 672.624 968.29 672.696 967.906 672.696H963.202ZM976.381 681H979.069V663.96H976.381V681Z" fill="white"/>
<path id="SECOND EDITION" d="M729.625 626.624L731.257 623.68C730.265 622.976 729.113 622.368 727.833 621.856C726.521 621.376 725.113 621.12 723.577 621.12C722.393 621.12 721.305 621.28 720.313 621.568C719.289 621.888 718.425 622.336 717.689 622.912C716.953 623.488 716.377 624.224 715.961 625.088C715.513 625.952 715.321 626.944 715.321 628.032C715.321 628.928 715.449 629.696 715.737 630.336C716.025 630.976 716.441 631.52 717.017 631.968C717.561 632.448 718.265 632.864 719.097 633.184C719.929 633.504 720.921 633.824 722.073 634.112C723.033 634.368 723.929 634.624 724.697 634.848C725.465 635.104 726.105 635.36 726.649 635.648C727.161 635.936 727.577 636.256 727.865 636.64C728.153 637.024 728.313 637.504 728.313 638.08C728.313 639.04 727.929 639.776 727.161 640.256C726.393 640.768 725.305 640.992 723.897 640.992C723.001 640.992 722.169 640.896 721.369 640.704C720.537 640.512 719.801 640.256 719.097 639.968C718.393 639.68 717.785 639.36 717.273 639.008C716.761 638.688 716.345 638.368 716.089 638.08L714.457 641.152C715.737 642.176 717.209 642.944 718.809 643.456C720.409 643.968 722.105 644.224 723.833 644.224C724.985 644.224 726.041 644.128 727.065 643.872C728.057 643.616 728.921 643.232 729.689 642.72C730.457 642.208 731.033 641.504 731.481 640.672C731.929 639.84 732.153 638.848 732.153 637.696C732.153 636.672 731.961 635.808 731.609 635.104C731.257 634.4 730.777 633.792 730.137 633.28C729.497 632.8 728.697 632.384 727.769 632.032C726.841 631.712 725.817 631.392 724.665 631.104C723.705 630.88 722.905 630.656 722.201 630.464C721.497 630.272 720.889 630.016 720.441 629.76C719.961 629.504 719.609 629.184 719.385 628.832C719.161 628.48 719.065 628.032 719.065 627.456C719.065 626.496 719.417 625.728 720.121 625.152C720.825 624.608 721.945 624.32 723.481 624.32C724.153 624.32 724.825 624.416 725.465 624.544C726.105 624.704 726.713 624.896 727.257 625.12C727.801 625.376 728.281 625.632 728.697 625.888C729.081 626.144 729.401 626.4 729.625 626.624ZM751.332 640.832H739.332V633.888H749.476V630.912H739.332V624.448H751.044V621.28H735.748V644H751.332V640.832ZM753.12 632.48C753.12 633.952 753.376 635.36 753.92 636.768C754.432 638.176 755.2 639.424 756.16 640.512C757.12 641.6 758.24 642.496 759.584 643.168C760.896 643.872 762.368 644.192 763.968 644.192C764.864 644.192 765.76 644.096 766.688 643.84C767.616 643.616 768.512 643.264 769.344 642.816C770.176 642.368 770.912 641.824 771.584 641.184C772.224 640.544 772.736 639.776 773.12 638.912L770.144 637.216C769.824 637.888 769.44 638.464 768.992 638.912C768.544 639.392 768.032 639.776 767.488 640.096C766.944 640.416 766.368 640.64 765.792 640.768C765.216 640.896 764.64 640.96 764.096 640.96C763.008 640.96 762.048 640.736 761.152 640.288C760.256 639.84 759.456 639.2 758.816 638.432C758.176 637.664 757.664 636.8 757.312 635.776C756.928 634.784 756.768 633.728 756.768 632.608C756.768 631.648 756.896 630.656 757.216 629.664C757.536 628.704 757.984 627.808 758.592 627.008C759.2 626.24 759.968 625.6 760.864 625.12C761.76 624.64 762.784 624.384 764 624.384C764.512 624.384 765.088 624.448 765.664 624.576C766.24 624.704 766.784 624.896 767.328 625.152C767.84 625.44 768.352 625.824 768.8 626.272C769.248 626.752 769.632 627.328 769.952 628L772.768 626.112C772 624.64 770.912 623.456 769.44 622.528C767.968 621.632 766.176 621.152 764.128 621.152C762.4 621.152 760.832 621.504 759.488 622.144C758.112 622.816 756.96 623.68 756 624.768C755.04 625.856 754.336 627.072 753.856 628.416C753.344 629.76 753.12 631.136 753.12 632.48ZM785.656 644.16C787.192 644.16 788.632 643.872 789.976 643.232C791.32 642.592 792.472 641.76 793.464 640.704C794.424 639.648 795.192 638.432 795.736 637.024C796.28 635.648 796.568 634.208 796.568 632.672C796.568 631.264 796.28 629.856 795.768 628.48C795.256 627.104 794.52 625.856 793.56 624.768C792.6 623.68 791.48 622.816 790.136 622.144C788.792 621.472 787.32 621.12 785.72 621.12C784.12 621.12 782.68 621.44 781.336 622.08C779.992 622.72 778.84 623.552 777.88 624.608C776.92 625.696 776.152 626.912 775.608 628.288C775.032 629.696 774.776 631.136 774.776 632.64C774.776 634.112 775.032 635.52 775.544 636.896C776.056 638.304 776.824 639.52 777.784 640.608C778.744 641.696 779.864 642.56 781.208 643.2C782.552 643.84 784.024 644.16 785.656 644.16ZM778.424 632.64C778.424 631.616 778.584 630.624 778.904 629.632C779.224 628.64 779.704 627.744 780.344 626.976C780.952 626.208 781.72 625.6 782.616 625.12C783.512 624.64 784.536 624.384 785.688 624.384C786.776 624.384 787.736 624.64 788.632 625.088C789.528 625.536 790.264 626.144 790.904 626.912C791.544 627.68 792.024 628.544 792.376 629.536C792.696 630.528 792.888 631.552 792.888 632.64C792.888 633.664 792.728 634.688 792.408 635.648C792.088 636.64 791.608 637.536 791 638.304C790.36 639.104 789.624 639.744 788.728 640.224C787.832 640.704 786.84 640.928 785.688 640.928C784.568 640.928 783.576 640.704 782.68 640.256C781.784 639.808 781.016 639.168 780.376 638.4C779.736 637.632 779.256 636.768 778.936 635.744C778.584 634.752 778.424 633.728 778.424 632.64ZM803.863 628L816.727 644H819.703V621.312H816.087V637.664L803.095 621.28H800.279V644H803.863V628ZM824.81 644H832.874C834.538 644 836.074 643.744 837.45 643.2C838.794 642.656 839.978 641.888 840.938 640.896C841.898 639.904 842.634 638.72 843.146 637.312C843.658 635.904 843.946 634.336 843.946 632.608C843.946 631.072 843.69 629.6 843.242 628.224C842.762 626.848 842.058 625.632 841.13 624.608C840.202 623.584 839.05 622.784 837.674 622.176C836.298 621.6 834.698 621.28 832.874 621.28H824.81V644ZM840.298 632.608C840.298 633.792 840.138 634.88 839.818 635.872C839.498 636.896 839.018 637.76 838.378 638.496C837.738 639.232 836.97 639.808 836.042 640.224C835.114 640.64 834.058 640.832 832.874 640.832H828.394V624.448H832.874C834.026 624.448 835.082 624.672 836.01 625.056C836.906 625.472 837.706 626.048 838.346 626.752C838.986 627.456 839.466 628.32 839.786 629.312C840.106 630.336 840.298 631.424 840.298 632.608ZM871.207 640.832H859.207V633.888H869.351V630.912H859.207V624.448H870.919V621.28H855.623V644H871.207V640.832ZM874.904 644H882.968C884.632 644 886.168 643.744 887.544 643.2C888.888 642.656 890.072 641.888 891.032 640.896C891.992 639.904 892.728 638.72 893.24 637.312C893.752 635.904 894.04 634.336 894.04 632.608C894.04 631.072 893.784 629.6 893.336 628.224C892.856 626.848 892.152 625.632 891.224 624.608C890.296 623.584 889.144 622.784 887.768 622.176C886.392 621.6 884.792 621.28 882.968 621.28H874.904V644ZM890.392 632.608C890.392 633.792 890.232 634.88 889.912 635.872C889.592 636.896 889.112 637.76 888.472 638.496C887.832 639.232 887.064 639.808 886.136 640.224C885.208 640.64 884.152 640.832 882.968 640.832H878.488V624.448H882.968C884.12 624.448 885.176 624.672 886.104 625.056C887 625.472 887.8 626.048 888.44 626.752C889.08 627.456 889.56 628.32 889.88 629.312C890.2 630.336 890.392 631.424 890.392 632.608ZM897.81 644H901.394V621.28H897.81V644ZM923.201 624.448V621.28H904.449V624.448H912.033V644H915.649V624.448H923.201ZM926.248 644H929.832V621.28H926.248V644ZM944.406 644.16C945.942 644.16 947.382 643.872 948.726 643.232C950.07 642.592 951.222 641.76 952.214 640.704C953.174 639.648 953.942 638.432 954.486 637.024C955.03 635.648 955.318 634.208 955.318 632.672C955.318 631.264 955.03 629.856 954.518 628.48C954.006 627.104 953.27 625.856 952.31 624.768C951.35 623.68 950.23 622.816 948.886 622.144C947.542 621.472 946.07 621.12 944.47 621.12C942.87 621.12 941.43 621.44 940.086 622.08C938.742 622.72 937.59 623.552 936.63 624.608C935.67 625.696 934.902 626.912 934.358 628.288C933.782 629.696 933.526 631.136 933.526 632.64C933.526 634.112 933.782 635.52 934.294 636.896C934.806 638.304 935.574 639.52 936.534 640.608C937.494 641.696 938.614 642.56 939.958 643.2C941.302 643.84 942.774 644.16 944.406 644.16ZM937.174 632.64C937.174 631.616 937.334 630.624 937.654 629.632C937.974 628.64 938.454 627.744 939.094 626.976C939.702 626.208 940.47 625.6 941.366 625.12C942.262 624.64 943.286 624.384 944.438 624.384C945.526 624.384 946.486 624.64 947.382 625.088C948.278 625.536 949.014 626.144 949.654 626.912C950.294 627.68 950.774 628.544 951.126 629.536C951.446 630.528 951.638 631.552 951.638 632.64C951.638 633.664 951.478 634.688 951.158 635.648C950.838 636.64 950.358 637.536 949.75 638.304C949.11 639.104 948.374 639.744 947.478 640.224C946.582 640.704 945.59 640.928 944.438 640.928C943.318 640.928 942.326 640.704 941.43 640.256C940.534 639.808 939.766 639.168 939.126 638.4C938.486 637.632 938.006 636.768 937.686 635.744C937.334 634.752 937.174 633.728 937.174 632.64ZM962.613 628L975.477 644H978.453V621.312H974.837V637.664L961.845 621.28H959.029V644H962.613V628Z" fill="white"/>
<path id="TAKE CONTROL OF YOUR CODE AND ASSETS" d="M236.406 1185.75V1182.97H219.998V1185.75H226.634V1202.85H229.798V1185.75H236.406ZM242.955 1182.97L235.059 1202.85H238.391L240.463 1197.45H248.135L250.235 1202.85H253.539L245.699 1182.97H242.955ZM247.519 1195.13H241.023L244.327 1186.59L247.519 1195.13ZM255.998 1202.85H259.134V1196.86L262.186 1193.7L268.906 1202.85H272.406L264.118 1191.77L271.958 1182.97H268.486L259.134 1193.22V1183H255.998V1202.85ZM288.118 1200.08H277.618V1194.01H286.494V1191.4H277.618V1185.75H287.866V1182.97H274.482V1202.85H288.118V1200.08ZM297.011 1192.77C297.011 1194.06 297.235 1195.29 297.711 1196.53C298.159 1197.76 298.831 1198.85 299.671 1199.8C300.511 1200.75 301.491 1201.54 302.667 1202.13C303.815 1202.74 305.103 1203.02 306.503 1203.02C307.287 1203.02 308.071 1202.94 308.883 1202.71C309.695 1202.52 310.479 1202.21 311.207 1201.82C311.935 1201.43 312.579 1200.95 313.167 1200.39C313.727 1199.83 314.175 1199.16 314.511 1198.4L311.907 1196.92C311.627 1197.51 311.291 1198.01 310.899 1198.4C310.507 1198.82 310.059 1199.16 309.583 1199.44C309.107 1199.72 308.603 1199.91 308.099 1200.03C307.595 1200.14 307.091 1200.19 306.615 1200.19C305.663 1200.19 304.823 1200 304.039 1199.61C303.255 1199.21 302.555 1198.65 301.995 1197.98C301.435 1197.31 300.987 1196.55 300.679 1195.66C300.343 1194.79 300.203 1193.87 300.203 1192.89C300.203 1192.05 300.315 1191.18 300.595 1190.31C300.875 1189.47 301.267 1188.69 301.799 1187.99C302.331 1187.31 303.003 1186.75 303.787 1186.33C304.571 1185.91 305.467 1185.69 306.531 1185.69C306.979 1185.69 307.483 1185.75 307.987 1185.86C308.491 1185.97 308.967 1186.14 309.443 1186.36C309.891 1186.61 310.339 1186.95 310.731 1187.34C311.123 1187.76 311.459 1188.27 311.739 1188.85L314.203 1187.2C313.531 1185.91 312.579 1184.88 311.291 1184.07C310.003 1183.28 308.435 1182.86 306.643 1182.86C305.131 1182.86 303.759 1183.17 302.583 1183.73C301.379 1184.32 300.371 1185.07 299.531 1186.03C298.691 1186.98 298.075 1188.04 297.655 1189.22C297.207 1190.39 297.011 1191.6 297.011 1192.77ZM325.48 1202.99C326.824 1202.99 328.084 1202.74 329.26 1202.18C330.436 1201.62 331.444 1200.89 332.312 1199.97C333.152 1199.05 333.824 1197.98 334.3 1196.75C334.776 1195.55 335.028 1194.29 335.028 1192.94C335.028 1191.71 334.776 1190.48 334.328 1189.27C333.88 1188.07 333.236 1186.98 332.396 1186.03C331.556 1185.07 330.576 1184.32 329.4 1183.73C328.224 1183.14 326.936 1182.83 325.536 1182.83C324.136 1182.83 322.876 1183.11 321.7 1183.67C320.524 1184.23 319.516 1184.96 318.676 1185.89C317.836 1186.84 317.164 1187.9 316.688 1189.11C316.184 1190.34 315.96 1191.6 315.96 1192.91C315.96 1194.2 316.184 1195.43 316.632 1196.64C317.08 1197.87 317.752 1198.93 318.592 1199.89C319.432 1200.84 320.412 1201.59 321.588 1202.15C322.764 1202.71 324.052 1202.99 325.48 1202.99ZM319.152 1192.91C319.152 1192.02 319.292 1191.15 319.572 1190.28C319.852 1189.41 320.272 1188.63 320.832 1187.96C321.364 1187.29 322.036 1186.75 322.82 1186.33C323.604 1185.91 324.5 1185.69 325.508 1185.69C326.46 1185.69 327.3 1185.91 328.084 1186.31C328.868 1186.7 329.512 1187.23 330.072 1187.9C330.632 1188.57 331.052 1189.33 331.36 1190.2C331.64 1191.07 331.808 1191.96 331.808 1192.91C331.808 1193.81 331.668 1194.71 331.388 1195.55C331.108 1196.41 330.688 1197.2 330.156 1197.87C329.596 1198.57 328.952 1199.13 328.168 1199.55C327.384 1199.97 326.516 1200.17 325.508 1200.17C324.528 1200.17 323.66 1199.97 322.876 1199.58C322.092 1199.19 321.42 1198.63 320.86 1197.95C320.3 1197.28 319.88 1196.53 319.6 1195.63C319.292 1194.76 319.152 1193.87 319.152 1192.91ZM341.411 1188.85L352.667 1202.85H355.271V1183H352.107V1197.31L340.739 1182.97H338.275V1202.85H341.411V1188.85ZM374.328 1185.75V1182.97H357.92V1185.75H364.556V1202.85H367.72V1185.75H374.328ZM376.994 1202.85H380.13V1195.94H384.722L389.034 1202.85H392.59L387.914 1195.29C388.474 1195.13 389.006 1194.85 389.51 1194.45C389.986 1194.06 390.406 1193.61 390.742 1193.08C391.078 1192.58 391.33 1191.99 391.526 1191.37C391.694 1190.76 391.806 1190.11 391.806 1189.44C391.806 1188.66 391.638 1187.87 391.33 1187.09C391.022 1186.31 390.602 1185.63 390.07 1185.02C389.51 1184.4 388.866 1183.93 388.11 1183.53C387.354 1183.17 386.542 1182.97 385.646 1182.97H376.994V1202.85ZM380.13 1193.17V1185.75H385.45C385.842 1185.75 386.234 1185.86 386.626 1186.05C387.018 1186.25 387.354 1186.5 387.634 1186.84C387.914 1187.17 388.166 1187.57 388.334 1188.01C388.502 1188.46 388.614 1188.94 388.614 1189.44C388.614 1189.95 388.53 1190.42 388.39 1190.87C388.222 1191.32 388.026 1191.74 387.774 1192.07C387.494 1192.41 387.186 1192.69 386.822 1192.89C386.458 1193.08 386.066 1193.17 385.618 1193.17H380.13ZM403.766 1202.99C405.11 1202.99 406.37 1202.74 407.546 1202.18C408.722 1201.62 409.73 1200.89 410.598 1199.97C411.438 1199.05 412.11 1197.98 412.586 1196.75C413.062 1195.55 413.314 1194.29 413.314 1192.94C413.314 1191.71 413.062 1190.48 412.614 1189.27C412.166 1188.07 411.522 1186.98 410.682 1186.03C409.842 1185.07 408.862 1184.32 407.686 1183.73C406.51 1183.14 405.222 1182.83 403.822 1182.83C402.422 1182.83 401.162 1183.11 399.986 1183.67C398.81 1184.23 397.802 1184.96 396.962 1185.89C396.122 1186.84 395.45 1187.9 394.974 1189.11C394.47 1190.34 394.246 1191.6 394.246 1192.91C394.246 1194.2 394.47 1195.43 394.918 1196.64C395.366 1197.87 396.038 1198.93 396.878 1199.89C397.718 1200.84 398.698 1201.59 399.874 1202.15C401.05 1202.71 402.338 1202.99 403.766 1202.99ZM397.438 1192.91C397.438 1192.02 397.578 1191.15 397.858 1190.28C398.138 1189.41 398.558 1188.63 399.118 1187.96C399.65 1187.29 400.322 1186.75 401.106 1186.33C401.89 1185.91 402.786 1185.69 403.794 1185.69C404.746 1185.69 405.586 1185.91 406.37 1186.31C407.154 1186.7 407.798 1187.23 408.358 1187.9C408.918 1188.57 409.338 1189.33 409.646 1190.2C409.926 1191.07 410.094 1191.96 410.094 1192.91C410.094 1193.81 409.954 1194.71 409.674 1195.55C409.394 1196.41 408.974 1197.2 408.442 1197.87C407.882 1198.57 407.238 1199.13 406.454 1199.55C405.67 1199.97 404.802 1200.17 403.794 1200.17C402.814 1200.17 401.946 1199.97 401.162 1199.58C400.378 1199.19 399.706 1198.63 399.146 1197.95C398.586 1197.28 398.166 1196.53 397.886 1195.63C397.578 1194.76 397.438 1193.87 397.438 1192.91ZM416.56 1202.85H430.364V1200.08H419.696V1182.97H416.56V1202.85ZM447.324 1202.99C448.668 1202.99 449.928 1202.74 451.104 1202.18C452.28 1201.62 453.288 1200.89 454.156 1199.97C454.996 1199.05 455.668 1197.98 456.144 1196.75C456.62 1195.55 456.872 1194.29 456.872 1192.94C456.872 1191.71 456.62 1190.48 456.172 1189.27C455.724 1188.07 455.08 1186.98 454.24 1186.03C453.4 1185.07 452.42 1184.32 451.244 1183.73C450.068 1183.14 448.78 1182.83 447.38 1182.83C445.98 1182.83 444.72 1183.11 443.544 1183.67C442.368 1184.23 441.36 1184.96 440.52 1185.89C439.68 1186.84 439.008 1187.9 438.532 1189.11C438.028 1190.34 437.804 1191.6 437.804 1192.91C437.804 1194.2 438.028 1195.43 438.476 1196.64C438.924 1197.87 439.596 1198.93 440.436 1199.89C441.276 1200.84 442.256 1201.59 443.432 1202.15C444.608 1202.71 445.896 1202.99 447.324 1202.99ZM440.996 1192.91C440.996 1192.02 441.136 1191.15 441.416 1190.28C441.696 1189.41 442.116 1188.63 442.676 1187.96C443.208 1187.29 443.88 1186.75 444.664 1186.33C445.448 1185.91 446.344 1185.69 447.352 1185.69C448.304 1185.69 449.144 1185.91 449.928 1186.31C450.712 1186.7 451.356 1187.23 451.916 1187.9C452.476 1188.57 452.896 1189.33 453.204 1190.2C453.484 1191.07 453.652 1191.96 453.652 1192.91C453.652 1193.81 453.512 1194.71 453.232 1195.55C452.952 1196.41 452.532 1197.2 452 1197.87C451.44 1198.57 450.796 1199.13 450.012 1199.55C449.228 1199.97 448.36 1200.17 447.352 1200.17C446.372 1200.17 445.504 1199.97 444.72 1199.58C443.936 1199.19 443.264 1198.63 442.704 1197.95C442.144 1197.28 441.724 1196.53 441.444 1195.63C441.136 1194.76 440.996 1193.87 440.996 1192.91ZM460.119 1202.85H463.255V1194.29H471.711V1191.68H463.255V1185.75H473.363V1182.97H460.119V1202.85ZM483.122 1182.97H479.678L487.042 1195.69V1202.85H490.178V1195.74L497.598 1182.97H494.154L488.61 1192.94L483.122 1182.97ZM506.988 1202.99C508.332 1202.99 509.592 1202.74 510.768 1202.18C511.944 1201.62 512.952 1200.89 513.82 1199.97C514.66 1199.05 515.332 1197.98 515.808 1196.75C516.284 1195.55 516.536 1194.29 516.536 1192.94C516.536 1191.71 516.284 1190.48 515.836 1189.27C515.388 1188.07 514.744 1186.98 513.904 1186.03C513.064 1185.07 512.084 1184.32 510.908 1183.73C509.732 1183.14 508.444 1182.83 507.044 1182.83C505.644 1182.83 504.384 1183.11 503.208 1183.67C502.032 1184.23 501.024 1184.96 500.184 1185.89C499.344 1186.84 498.672 1187.9 498.196 1189.11C497.692 1190.34 497.468 1191.6 497.468 1192.91C497.468 1194.2 497.692 1195.43 498.14 1196.64C498.588 1197.87 499.26 1198.93 500.1 1199.89C500.94 1200.84 501.92 1201.59 503.096 1202.15C504.272 1202.71 505.56 1202.99 506.988 1202.99ZM500.66 1192.91C500.66 1192.02 500.8 1191.15 501.08 1190.28C501.36 1189.41 501.78 1188.63 502.34 1187.96C502.872 1187.29 503.544 1186.75 504.328 1186.33C505.112 1185.91 506.008 1185.69 507.016 1185.69C507.968 1185.69 508.808 1185.91 509.592 1186.31C510.376 1186.7 511.02 1187.23 511.58 1187.9C512.14 1188.57 512.56 1189.33 512.868 1190.2C513.148 1191.07 513.316 1191.96 513.316 1192.91C513.316 1193.81 513.176 1194.71 512.896 1195.55C512.616 1196.41 512.196 1197.2 511.664 1197.87C511.104 1198.57 510.46 1199.13 509.676 1199.55C508.892 1199.97 508.024 1200.17 507.016 1200.17C506.036 1200.17 505.168 1199.97 504.384 1199.58C503.6 1199.19 502.928 1198.63 502.368 1197.95C501.808 1197.28 501.388 1196.53 501.108 1195.63C500.8 1194.76 500.66 1193.87 500.66 1192.91ZM528.071 1200.17C527.035 1200.17 526.167 1199.97 525.467 1199.58C524.767 1199.19 524.207 1198.65 523.787 1197.98C523.367 1197.31 523.059 1196.55 522.891 1195.71C522.723 1194.87 522.639 1193.98 522.639 1193.05V1182.97H519.503V1193.05C519.503 1194.34 519.643 1195.6 519.951 1196.78C520.231 1197.98 520.735 1199.05 521.407 1199.97C522.079 1200.89 522.947 1201.62 524.039 1202.18C525.131 1202.74 526.475 1202.99 528.071 1202.99C529.583 1202.99 530.899 1202.74 531.991 1202.21C533.083 1201.71 533.979 1200.98 534.679 1200.08C535.351 1199.19 535.855 1198.12 536.191 1196.92C536.499 1195.71 536.667 1194.43 536.667 1193.05V1182.97H533.503V1193.05C533.503 1193.95 533.391 1194.85 533.223 1195.69C533.055 1196.53 532.747 1197.28 532.327 1197.95C531.907 1198.63 531.347 1199.16 530.675 1199.55C529.975 1199.97 529.107 1200.17 528.071 1200.17ZM540.838 1202.85H543.974V1195.94H548.566L552.878 1202.85H556.434L551.758 1195.29C552.318 1195.13 552.85 1194.85 553.354 1194.45C553.83 1194.06 554.25 1193.61 554.586 1193.08C554.922 1192.58 555.174 1191.99 555.37 1191.37C555.538 1190.76 555.65 1190.11 555.65 1189.44C555.65 1188.66 555.482 1187.87 555.174 1187.09C554.866 1186.31 554.446 1185.63 553.914 1185.02C553.354 1184.4 552.71 1183.93 551.954 1183.53C551.198 1183.17 550.386 1182.97 549.49 1182.97H540.838V1202.85ZM543.974 1193.17V1185.75H549.294C549.686 1185.75 550.078 1185.86 550.47 1186.05C550.862 1186.25 551.198 1186.5 551.478 1186.84C551.758 1187.17 552.01 1187.57 552.178 1188.01C552.346 1188.46 552.458 1188.94 552.458 1189.44C552.458 1189.95 552.374 1190.42 552.234 1190.87C552.066 1191.32 551.87 1191.74 551.618 1192.07C551.338 1192.41 551.03 1192.69 550.666 1192.89C550.302 1193.08 549.91 1193.17 549.462 1193.17H543.974ZM571.925 1192.77C571.925 1194.06 572.149 1195.29 572.625 1196.53C573.073 1197.76 573.745 1198.85 574.585 1199.8C575.425 1200.75 576.405 1201.54 577.581 1202.13C578.729 1202.74 580.017 1203.02 581.417 1203.02C582.201 1203.02 582.985 1202.94 583.797 1202.71C584.609 1202.52 585.393 1202.21 586.121 1201.82C586.849 1201.43 587.493 1200.95 588.081 1200.39C588.641 1199.83 589.089 1199.16 589.425 1198.4L586.821 1196.92C586.541 1197.51 586.205 1198.01 585.813 1198.4C585.421 1198.82 584.973 1199.16 584.497 1199.44C584.021 1199.72 583.517 1199.91 583.013 1200.03C582.509 1200.14 582.005 1200.19 581.529 1200.19C580.577 1200.19 579.737 1200 578.953 1199.61C578.169 1199.21 577.469 1198.65 576.909 1197.98C576.349 1197.31 575.901 1196.55 575.593 1195.66C575.257 1194.79 575.117 1193.87 575.117 1192.89C575.117 1192.05 575.229 1191.18 575.509 1190.31C575.789 1189.47 576.181 1188.69 576.713 1187.99C577.245 1187.31 577.917 1186.75 578.701 1186.33C579.485 1185.91 580.381 1185.69 581.445 1185.69C581.893 1185.69 582.397 1185.75 582.901 1185.86C583.405 1185.97 583.881 1186.14 584.357 1186.36C584.805 1186.61 585.253 1186.95 585.645 1187.34C586.037 1187.76 586.373 1188.27 586.653 1188.85L589.117 1187.2C588.445 1185.91 587.493 1184.88 586.205 1184.07C584.917 1183.28 583.349 1182.86 581.557 1182.86C580.045 1182.86 578.673 1183.17 577.497 1183.73C576.293 1184.32 575.285 1185.07 574.445 1186.03C573.605 1186.98 572.989 1188.04 572.569 1189.22C572.121 1190.39 571.925 1191.6 571.925 1192.77ZM600.395 1202.99C601.739 1202.99 602.999 1202.74 604.175 1202.18C605.351 1201.62 606.359 1200.89 607.227 1199.97C608.067 1199.05 608.739 1197.98 609.215 1196.75C609.691 1195.55 609.943 1194.29 609.943 1192.94C609.943 1191.71 609.691 1190.48 609.243 1189.27C608.795 1188.07 608.151 1186.98 607.311 1186.03C606.471 1185.07 605.491 1184.32 604.315 1183.73C603.139 1183.14 601.851 1182.83 600.451 1182.83C599.051 1182.83 597.791 1183.11 596.615 1183.67C595.439 1184.23 594.431 1184.96 593.591 1185.89C592.751 1186.84 592.079 1187.9 591.603 1189.11C591.099 1190.34 590.875 1191.6 590.875 1192.91C590.875 1194.2 591.099 1195.43 591.547 1196.64C591.995 1197.87 592.667 1198.93 593.507 1199.89C594.347 1200.84 595.327 1201.59 596.503 1202.15C597.679 1202.71 598.967 1202.99 600.395 1202.99ZM594.067 1192.91C594.067 1192.02 594.207 1191.15 594.487 1190.28C594.767 1189.41 595.187 1188.63 595.747 1187.96C596.279 1187.29 596.951 1186.75 597.735 1186.33C598.519 1185.91 599.415 1185.69 600.423 1185.69C601.375 1185.69 602.215 1185.91 602.999 1186.31C603.783 1186.7 604.427 1187.23 604.987 1187.9C605.547 1188.57 605.967 1189.33 606.275 1190.2C606.555 1191.07 606.723 1191.96 606.723 1192.91C606.723 1193.81 606.583 1194.71 606.303 1195.55C606.023 1196.41 605.603 1197.2 605.071 1197.87C604.511 1198.57 603.867 1199.13 603.083 1199.55C602.299 1199.97 601.431 1200.17 600.423 1200.17C599.443 1200.17 598.575 1199.97 597.791 1199.58C597.007 1199.19 596.335 1198.63 595.775 1197.95C595.215 1197.28 594.795 1196.53 594.515 1195.63C594.207 1194.76 594.067 1193.87 594.067 1192.91ZM613.189 1202.85H620.245C621.701 1202.85 623.045 1202.63 624.249 1202.15C625.425 1201.68 626.461 1201.01 627.301 1200.14C628.141 1199.27 628.785 1198.23 629.233 1197C629.681 1195.77 629.933 1194.4 629.933 1192.89C629.933 1191.54 629.709 1190.25 629.317 1189.05C628.897 1187.85 628.281 1186.78 627.469 1185.89C626.657 1184.99 625.649 1184.29 624.445 1183.76C623.241 1183.25 621.841 1182.97 620.245 1182.97H613.189V1202.85ZM626.741 1192.89C626.741 1193.92 626.601 1194.87 626.321 1195.74C626.041 1196.64 625.621 1197.39 625.061 1198.04C624.501 1198.68 623.829 1199.19 623.017 1199.55C622.205 1199.91 621.281 1200.08 620.245 1200.08H616.325V1185.75H620.245C621.253 1185.75 622.177 1185.94 622.989 1186.28C623.773 1186.64 624.473 1187.15 625.033 1187.76C625.593 1188.38 626.013 1189.13 626.293 1190C626.573 1190.9 626.741 1191.85 626.741 1192.89ZM646.868 1200.08H636.368V1194.01H645.244V1191.4H636.368V1185.75H646.616V1182.97H633.232V1202.85H646.868V1200.08ZM661.998 1182.97L654.102 1202.85H657.434L659.506 1197.45H667.178L669.278 1202.85H672.582L664.742 1182.97H661.998ZM666.562 1195.13H660.066L663.37 1186.59L666.562 1195.13ZM678.177 1188.85L689.433 1202.85H692.037V1183H688.873V1197.31L677.505 1182.97H675.041V1202.85H678.177V1188.85ZM696.506 1202.85H703.562C705.018 1202.85 706.362 1202.63 707.566 1202.15C708.742 1201.68 709.778 1201.01 710.618 1200.14C711.458 1199.27 712.102 1198.23 712.55 1197C712.998 1195.77 713.25 1194.4 713.25 1192.89C713.25 1191.54 713.026 1190.25 712.634 1189.05C712.214 1187.85 711.598 1186.78 710.786 1185.89C709.974 1184.99 708.966 1184.29 707.762 1183.76C706.558 1183.25 705.158 1182.97 703.562 1182.97H696.506V1202.85ZM710.058 1192.89C710.058 1193.92 709.918 1194.87 709.638 1195.74C709.358 1196.64 708.938 1197.39 708.378 1198.04C707.818 1198.68 707.146 1199.19 706.334 1199.55C705.522 1199.91 704.598 1200.08 703.562 1200.08H699.642V1185.75H703.562C704.57 1185.75 705.494 1185.94 706.306 1186.28C707.09 1186.64 707.79 1187.15 708.35 1187.76C708.91 1188.38 709.33 1189.13 709.61 1190C709.89 1190.9 710.058 1191.85 710.058 1192.89ZM728.444 1182.97L720.548 1202.85H723.88L725.952 1197.45H733.624L735.724 1202.85H739.028L731.188 1182.97H728.444ZM733.008 1195.13H726.512L729.816 1186.59L733.008 1195.13ZM752.945 1187.65L754.373 1185.07C753.505 1184.46 752.497 1183.93 751.377 1183.48C750.229 1183.06 748.997 1182.83 747.653 1182.83C746.617 1182.83 745.665 1182.97 744.797 1183.23C743.901 1183.51 743.145 1183.9 742.501 1184.4C741.857 1184.91 741.353 1185.55 740.989 1186.31C740.597 1187.06 740.429 1187.93 740.429 1188.88C740.429 1189.67 740.541 1190.34 740.793 1190.9C741.045 1191.46 741.409 1191.93 741.913 1192.33C742.389 1192.75 743.005 1193.11 743.733 1193.39C744.461 1193.67 745.329 1193.95 746.337 1194.2C747.177 1194.43 747.961 1194.65 748.633 1194.85C749.305 1195.07 749.865 1195.29 750.341 1195.55C750.789 1195.8 751.153 1196.08 751.405 1196.41C751.657 1196.75 751.797 1197.17 751.797 1197.67C751.797 1198.51 751.461 1199.16 750.789 1199.58C750.117 1200.03 749.165 1200.22 747.933 1200.22C747.149 1200.22 746.421 1200.14 745.721 1199.97C744.993 1199.8 744.349 1199.58 743.733 1199.33C743.117 1199.07 742.585 1198.79 742.137 1198.49C741.689 1198.21 741.325 1197.93 741.101 1197.67L739.673 1200.36C740.793 1201.26 742.081 1201.93 743.481 1202.38C744.881 1202.83 746.365 1203.05 747.877 1203.05C748.885 1203.05 749.809 1202.97 750.705 1202.74C751.573 1202.52 752.329 1202.18 753.001 1201.73C753.673 1201.29 754.177 1200.67 754.569 1199.94C754.961 1199.21 755.157 1198.35 755.157 1197.34C755.157 1196.44 754.989 1195.69 754.681 1195.07C754.373 1194.45 753.953 1193.92 753.393 1193.47C752.833 1193.05 752.133 1192.69 751.321 1192.38C750.509 1192.1 749.613 1191.82 748.605 1191.57C747.765 1191.37 747.065 1191.18 746.449 1191.01C745.833 1190.84 745.301 1190.62 744.909 1190.39C744.489 1190.17 744.181 1189.89 743.985 1189.58C743.789 1189.27 743.705 1188.88 743.705 1188.38C743.705 1187.54 744.013 1186.87 744.629 1186.36C745.245 1185.89 746.225 1185.63 747.569 1185.63C748.157 1185.63 748.745 1185.72 749.305 1185.83C749.865 1185.97 750.397 1186.14 750.873 1186.33C751.349 1186.56 751.769 1186.78 752.133 1187.01C752.469 1187.23 752.749 1187.45 752.945 1187.65ZM770.062 1187.65L771.49 1185.07C770.623 1184.46 769.615 1183.93 768.495 1183.48C767.347 1183.06 766.115 1182.83 764.771 1182.83C763.735 1182.83 762.783 1182.97 761.915 1183.23C761.019 1183.51 760.263 1183.9 759.619 1184.4C758.975 1184.91 758.471 1185.55 758.107 1186.31C757.715 1187.06 757.547 1187.93 757.547 1188.88C757.547 1189.67 757.659 1190.34 757.91 1190.9C758.163 1191.46 758.527 1191.93 759.031 1192.33C759.507 1192.75 760.123 1193.11 760.851 1193.39C761.579 1193.67 762.447 1193.95 763.454 1194.2C764.294 1194.43 765.079 1194.65 765.751 1194.85C766.423 1195.07 766.983 1195.29 767.459 1195.55C767.907 1195.8 768.271 1196.08 768.523 1196.41C768.775 1196.75 768.915 1197.17 768.915 1197.67C768.915 1198.51 768.579 1199.16 767.907 1199.58C767.235 1200.03 766.283 1200.22 765.051 1200.22C764.267 1200.22 763.539 1200.14 762.839 1199.97C762.111 1199.8 761.467 1199.58 760.851 1199.33C760.235 1199.07 759.703 1198.79 759.255 1198.49C758.807 1198.21 758.443 1197.93 758.219 1197.67L756.791 1200.36C757.91 1201.26 759.199 1201.93 760.599 1202.38C761.999 1202.83 763.483 1203.05 764.995 1203.05C766.003 1203.05 766.927 1202.97 767.823 1202.74C768.691 1202.52 769.447 1202.18 770.119 1201.73C770.791 1201.29 771.295 1200.67 771.687 1199.94C772.079 1199.21 772.275 1198.35 772.275 1197.34C772.275 1196.44 772.107 1195.69 771.799 1195.07C771.49 1194.45 771.071 1193.92 770.511 1193.47C769.951 1193.05 769.251 1192.69 768.439 1192.38C767.627 1192.1 766.731 1191.82 765.723 1191.57C764.883 1191.37 764.183 1191.18 763.567 1191.01C762.951 1190.84 762.419 1190.62 762.027 1190.39C761.607 1190.17 761.299 1189.89 761.103 1189.58C760.907 1189.27 760.823 1188.88 760.823 1188.38C760.823 1187.54 761.131 1186.87 761.747 1186.36C762.363 1185.89 763.343 1185.63 764.687 1185.63C765.275 1185.63 765.863 1185.72 766.423 1185.83C766.983 1185.97 767.515 1186.14 767.991 1186.33C768.467 1186.56 768.887 1186.78 769.251 1187.01C769.587 1187.23 769.867 1187.45 770.062 1187.65ZM789.056 1200.08H778.556V1194.01H787.432V1191.4H778.556V1185.75H788.804V1182.97H775.42V1202.85H789.056V1200.08ZM806.879 1185.75V1182.97H790.471V1185.75H797.107V1202.85H800.271V1185.75H806.879ZM821.305 1187.65L822.733 1185.07C821.865 1184.46 820.857 1183.93 819.737 1183.48C818.589 1183.06 817.357 1182.83 816.013 1182.83C814.977 1182.83 814.025 1182.97 813.157 1183.23C812.261 1183.51 811.505 1183.9 810.861 1184.4C810.217 1184.91 809.713 1185.55 809.349 1186.31C808.957 1187.06 808.789 1187.93 808.789 1188.88C808.789 1189.67 808.901 1190.34 809.153 1190.9C809.405 1191.46 809.769 1191.93 810.273 1192.33C810.749 1192.75 811.365 1193.11 812.093 1193.39C812.821 1193.67 813.689 1193.95 814.697 1194.2C815.537 1194.43 816.321 1194.65 816.993 1194.85C817.665 1195.07 818.225 1195.29 818.701 1195.55C819.149 1195.8 819.513 1196.08 819.765 1196.41C820.017 1196.75 820.157 1197.17 820.157 1197.67C820.157 1198.51 819.821 1199.16 819.149 1199.58C818.477 1200.03 817.525 1200.22 816.293 1200.22C815.509 1200.22 814.781 1200.14 814.081 1199.97C813.353 1199.8 812.709 1199.58 812.093 1199.33C811.477 1199.07 810.945 1198.79 810.497 1198.49C810.049 1198.21 809.685 1197.93 809.461 1197.67L808.033 1200.36C809.153 1201.26 810.441 1201.93 811.841 1202.38C813.241 1202.83 814.725 1203.05 816.237 1203.05C817.245 1203.05 818.169 1202.97 819.065 1202.74C819.933 1202.52 820.689 1202.18 821.361 1201.73C822.033 1201.29 822.537 1200.67 822.929 1199.94C823.321 1199.21 823.517 1198.35 823.517 1197.34C823.517 1196.44 823.349 1195.69 823.041 1195.07C822.733 1194.45 822.313 1193.92 821.753 1193.47C821.193 1193.05 820.493 1192.69 819.681 1192.38C818.869 1192.1 817.973 1191.82 816.965 1191.57C816.125 1191.37 815.425 1191.18 814.809 1191.01C814.193 1190.84 813.661 1190.62 813.269 1190.39C812.849 1190.17 812.541 1189.89 812.345 1189.58C812.149 1189.27 812.065 1188.88 812.065 1188.38C812.065 1187.54 812.373 1186.87 812.989 1186.36C813.605 1185.89 814.585 1185.63 815.929 1185.63C816.517 1185.63 817.105 1185.72 817.665 1185.83C818.225 1185.97 818.757 1186.14 819.233 1186.33C819.709 1186.56 820.129 1186.78 820.493 1187.01C820.829 1187.23 821.109 1187.45 821.305 1187.65Z" fill="white"/>
<g id="Group_3" opacity="0.19" filter="url(#filter0_f)">
<path id="Vector_14" opacity="0.3" d="M548.383 1070.67L548.459 1070.59C548.536 1070.51 548.612 1070.44 548.689 1070.28C548.689 1070.28 548.689 1070.28 548.689 1070.21C548.765 1070.06 548.841 1069.98 548.918 1069.83C551.515 1065.78 554.647 1054.26 553.883 1051.59C553.196 1049.07 550.14 1041.59 549.071 1038.92C549.223 1038.31 549.376 1037.77 549.453 1037.32C549.3 1036.93 546.321 1033.12 543.952 1030.45C544.029 1029.46 543.952 1028.46 543.647 1027.62C543.036 1026.1 536.39 1021.44 532.952 1019.15C531.501 1015.18 526.841 1011.9 522.716 1009.31C522.64 1008.7 522.487 1008.09 522.258 1007.55C520.883 1005.64 512.251 1003.2 510.341 1002.67C509.424 1002.44 505.529 1005.11 501.786 1007.93L491.779 1010.76L490.938 1007.32L491.015 1006.64L491.549 1004.5L489.563 1000.07H503.084L525.008 981.224L524.779 981.3L528.98 979.163L537.154 966.418L537.077 965.808L537.154 965.655L536.161 957.795H526.688L499.57 979.468L531.577 945.432L529.286 921.621L528.445 920.629L528.293 919.332L514.543 903L478.945 983.666L476.959 981.834L467.41 980.613C467.41 980.613 464.202 974.584 464.355 975.042C464.431 975.5 459.389 979.316 456.716 979.926C456.258 980.003 455.57 980.155 454.73 980.232C455.112 978.858 455.494 977.789 455.723 977.179C458.396 969.471 462.139 966.495 462.292 965.808C462.903 965.808 463.285 965.808 463.285 965.808C463.285 965.808 459.084 964.205 457.251 966.113C456.181 967.258 453.737 974.584 451.903 980.537C448.924 980.918 445.792 981.224 445.792 981.224C445.792 981.224 443.271 985.955 442.202 988.397C442.125 988.55 442.049 988.855 441.896 989.161C436.091 989.618 428.834 990.229 427.23 990.763C424.48 991.755 419.82 996.487 419.514 997.708C419.056 999.311 419.514 1000.07 419.514 1000.07C419.514 1000.07 419.743 999.616 420.125 998.929C420.66 1000.15 422.799 999.616 422.952 997.708C423.028 995.8 426.16 994.655 428.146 994.197C429.75 993.816 438.23 993.816 440.598 993.663C440.445 994.35 440.292 994.808 440.292 994.808L445.716 1010.83L445.792 1010.76C445.716 1010.83 445.563 1010.91 445.487 1010.99C446.632 1010.61 451.369 1010.07 454.348 1009.84C454.424 1009.84 454.424 1009.84 454.501 1009.92L437.007 1019.23L394.917 1038.84L361 1066.93L363.063 1068.3L361.917 1069.22L371.389 1075.4L397.209 1074.71L465.424 1014.04C465.653 1014.12 465.806 1014.19 466.035 1014.27C466.265 1014.42 466.57 1014.65 466.799 1014.8C462.445 1018.69 410.271 1065.17 410.577 1066.09C410.577 1066.16 410.653 1066.39 410.653 1066.7C410.577 1066.77 410.577 1066.85 410.577 1066.85C410.653 1067 410.653 1067.38 410.653 1067.84C410.653 1070.59 410.271 1075.55 410.271 1075.55H410.348C410.348 1076.01 410.271 1076.31 410.271 1076.31L418.75 1077L448.848 1061.97L452.744 1054.56L470.16 1036.48L475.202 1018.08C479.098 1019.76 482.306 1021.29 483.223 1022.05C486.049 1024.34 485.973 1035.94 485.973 1035.94L487.424 1033.73C487.424 1034.19 487.424 1034.49 487.424 1034.8C486.813 1036.02 486.202 1037.16 485.667 1038.16C485.591 1038.31 485.591 1038.46 485.667 1038.61C485.362 1039.15 485.133 1039.68 484.827 1040.14C484.216 1041.82 491.397 1049.83 492.772 1050.29C493.306 1050.44 494.529 1049.98 495.98 1049.14C498.042 1051.43 500.487 1053.19 503.619 1055.48C504.306 1055.63 504.994 1055.63 505.681 1055.56C507.209 1057.39 509.424 1059.91 511.869 1061.97C514.008 1063.8 516.223 1065.32 518.209 1065.93H518.286C518.591 1066.01 518.82 1066.09 519.126 1066.09C519.126 1066.09 519.737 1065.86 520.654 1065.55C522.716 1066.77 528.675 1070.13 530.279 1070.21C530.814 1070.13 531.348 1069.75 531.807 1069.52C534.709 1070.21 542.425 1071.89 546.244 1071.58C546.321 1071.58 546.397 1071.58 546.473 1071.58C546.55 1071.58 546.55 1071.58 546.626 1071.58C546.702 1071.58 546.855 1071.58 546.932 1071.51C547.008 1071.51 547.008 1071.51 547.084 1071.51C547.161 1071.51 547.314 1071.43 547.39 1071.43H547.466C547.543 1071.43 547.619 1071.35 547.696 1071.35H547.772C547.848 1071.28 547.925 1071.28 548.001 1071.2C548.078 1071.12 548.154 1071.05 548.307 1070.97C548.23 1070.82 548.307 1070.74 548.383 1070.67ZM461.299 978.629C461.91 978.247 462.445 977.866 462.903 977.561C462.445 977.866 461.91 978.247 461.299 978.629ZM457.403 968.479C456.334 970.616 454.959 974.126 454.119 976.492C454.348 975.729 454.501 975.195 454.577 974.966C455.188 973.516 456.258 970.539 457.403 968.479Z" fill="black"/>
<path id="Vector_15" opacity="0.3" d="M501.5 952.7C501.5 952.7 501.6 952.6 501.8 952.5C501.6 952.6 501.5 952.7 501.5 952.7Z" fill="black"/>
</g>
<g id="hive">
<path id="shadpw" opacity="0.1" d="M397.774 943.79L396.773 903.423L358.765 880.031L351.763 882.883L355.335 874.896V837.382L318.899 815.416L281.319 829.679L275.889 841.946L276.46 829.109L240.452 807L201.3 821.264L186.726 834L184.154 858.35L150.86 878.319L137 891.584L131 928.528L175.294 963.759L174.294 969.322L168.5 1003L214.446 1040.07L257.599 1020.96L300.5 1048.5L346.619 1029.23L355.335 1009.4V978.308L388.914 963.474L397.774 943.79ZM314.04 1027.23L274.603 1001.56L275.889 975.313L307.467 961.905L345.762 986.153V1012.97L314.04 1027.23ZM149.717 896.291L183.439 883.597L219.59 906.419L217.876 929.098L184.296 942.791L147.002 918.543L149.717 896.291ZM345.476 877.748L317.041 889.302L280.604 866.623L281.461 846.939L310.039 836.098L345.476 857.494V877.748ZM313.183 908.416L315.326 907.56L313.04 912.552L313.183 908.416ZM228.164 904.136L228.449 901.141L229.735 900.57L228.164 904.136ZM225.163 934.09L222.734 935.089L225.592 928.528L225.163 934.09ZM235.88 903.851L267.03 891.584L303.609 914.406L303.038 937.371L271.888 950.494L234.308 926.388L235.88 903.851ZM311.182 937.371L311.04 942.934L308.182 944.218L311.182 937.371ZM265.601 869.19L234.879 881.172L198.871 858.35L200.729 838.951L231.593 827.683L266.744 849.221L265.601 869.19ZM186.726 967.325L220.876 953.347L258.742 977.595L257.313 1003.98L223.162 1019.1L184.154 993.143L186.726 967.325ZM265.458 965.5L270.888 968.181L265.458 972.5V965.5ZM321.185 912.837L350.048 900.998L387.057 923.678L387.628 947.213L358.908 959.908L320.756 935.945L321.185 912.837Z" fill="black" fill-opacity="0.5"/>
<g id="Group_4">
<g id="Group_5">
<g id="Group_6">
<path id="Vector_16" d="M350.221 826.053L341.437 846.035L305.578 824.471L314.507 804.488L350.221 826.053Z" fill="#EAEAEA"/>
</g>
<g id="Group_7">
<path id="Vector_17" d="M314.507 804.488L305.578 824.471L268.855 838.416L277.64 818.433L314.507 804.488Z" fill="#CDCDCD"/>
</g>
<g id="Group_8">
<path id="Vector_18" d="M270.728 817.714L261.799 837.697L226.517 815.989L235.301 796.006L270.728 817.714Z" fill="#EBEBEB"/>
</g>
<g id="Group_9">
<path id="Vector_19" d="M350.078 862.712L341.293 882.695L341.437 846.035L350.222 826.052L350.078 862.712Z" fill="white"/>
</g>
<g id="Group_10">
<path id="Vector_20" d="M391.985 892.614L383.2 912.597L345.901 889.739L354.686 869.756L391.985 892.614Z" fill="#EBEBEB"/>
</g>
<g id="Group_11">
<path id="Vector_21" d="M235.301 796.006L226.517 815.989L188.21 829.934L196.995 809.951L235.301 796.006Z" fill="#CDCDCD"/>
</g>
<g id="Group_12">
<path id="Vector_22" d="M274.76 855.667L265.976 875.65L267.704 837.697L276.632 817.714L274.76 855.667Z" fill="#C4C4C4"/>
</g>
<g id="Group_13">
<path id="Vector_23" d="M268.855 854.517L259.927 874.5L261.799 837.697L270.728 817.714L268.855 854.517Z" fill="white"/>
</g>
<g id="Group_14">
<path id="Vector_24" d="M351.229 863.431L312.634 879.101L274.76 855.667L276.488 817.858L314.363 803.482L351.085 825.621L351.229 863.431ZM277.64 818.433L275.912 855.236L312.634 877.951L350.077 862.712V826.053L314.363 804.488L277.64 818.433Z" fill="white"/>
</g>
<g id="Group_15">
<path id="Vector_25" d="M312.635 879.101L303.85 899.084L265.976 875.65L274.76 855.667L312.635 879.101Z" fill="#B6B6B6"/>
</g>
<g id="Group_16">
<path id="Vector_26" d="M351.229 863.431L342.444 883.414L303.85 899.084L312.634 879.101L351.229 863.431Z" fill="#AAAAAA"/>
</g>
<g id="Group_17">
<path id="Vector_27" d="M354.686 869.756L345.901 889.739L308.314 905.122L317.099 885.139L354.686 869.756Z" fill="#CDCDCD"/>
</g>
<g id="Group_18">
<path id="Vector_28" d="M308.027 883.27L299.098 903.253L262.231 880.251L271.016 860.268L308.027 883.27Z" fill="#EBEBEB"/>
</g>
<g id="Group_19">
<path id="Vector_29" d="M392.848 932.149L384.063 952.132L383.199 912.597L391.984 892.614L392.848 932.149Z" fill="white"/>
</g>
<g id="Group_20">
<path id="Vector_30" d="M192.242 847.329L183.457 867.312L187.201 829.359L195.986 809.376L192.242 847.329Z" fill="white"/>
</g>
<g id="Group_21">
<path id="Vector_31" d="M229.828 870.906L220.9 890.889L183.457 867.312L192.242 847.329L229.828 870.906Z" fill="#D5D5D5"/>
</g>
<g id="Group_22">
<path id="Vector_32" d="M269.864 855.236L261.079 875.219L220.9 890.889L229.829 870.906L269.864 855.236Z" fill="#9E9E9E"/>
</g>
<g id="Group_23">
<path id="Vector_33" d="M269.863 855.236L229.828 870.906L192.386 847.329L195.986 809.376L235.445 795L271.879 817.283L269.863 855.236ZM196.994 809.951L193.538 846.754L229.828 869.756L268.711 854.517L270.583 817.714L235.301 796.006L196.994 809.951Z" fill="white"/>
</g>
<g id="Group_24">
<path id="Vector_34" d="M271.016 860.268L262.231 880.251L223.204 895.633L232.133 875.65L271.016 860.268Z" fill="#CDCDCD"/>
</g>
<g id="Group_25">
<path id="Vector_35" d="M223.349 875.219L214.42 895.202L177.985 872.2L186.77 852.217L223.349 875.219Z" fill="#ECECEC"/>
</g>
<g id="Group_26">
<path id="Vector_36" d="M315.227 925.248L306.299 945.231L307.307 904.403L316.092 884.42L315.227 925.248Z" fill="#BFBFBF"/>
</g>
<g id="Group_27">
<path id="Vector_37" d="M306.874 922.804L298.09 942.787L299.098 903.253L308.027 883.27L306.874 922.804Z" fill="white"/>
</g>
<g id="Group_28">
<path id="Vector_38" d="M394.001 932.868L385.216 952.85L345.901 970.246L354.686 950.263L394.001 932.868Z" fill="#C8C7C7"/>
</g>
<g id="Group_29">
<path id="Vector_39" d="M354.686 950.263L345.902 970.246L306.299 945.231L315.227 925.248L354.686 950.263Z" fill="#9E9E9E"/>
</g>
<g id="Group_30">
<path id="Vector_40" d="M394.001 932.868L354.686 950.263L315.083 925.248L315.947 884.42L354.542 868.606L392.849 892.183L394.001 932.868ZM317.099 885.139L316.235 924.817L354.686 948.969L392.849 932.149L391.985 892.614L354.686 869.756L317.099 885.139Z" fill="white"/>
</g>
<g id="Group_31">
<path id="Vector_41" d="M350.221 955.438L341.293 975.421L302.842 951.125L311.626 931.142L350.221 955.438Z" fill="#ECECEC"/>
</g>
<g id="Group_32">
<path id="Vector_42" d="M186.77 852.217L177.985 872.2L137.374 887.583L146.159 867.6L186.77 852.217Z" fill="#CDCDCD"/>
</g>
<g id="Group_33">
<path id="Vector_43" d="M227.957 915.904L219.172 935.887L222.196 894.914L230.981 874.932L227.957 915.904Z" fill="#D3D3D3"/>
</g>
<g id="Group_34">
<path id="Vector_44" d="M220.18 915.041L211.396 935.024L214.42 895.202L223.348 875.219L220.18 915.041Z" fill="white"/>
</g>
<g id="Group_35">
<path id="Vector_45" d="M267.127 940.918L258.343 960.901L219.172 935.887L227.957 915.904L267.127 940.918Z" fill="#B6B6B6"/>
</g>
<g id="Group_36">
<path id="Vector_46" d="M308.027 923.523L267.128 940.918L227.957 915.904L230.981 874.932L271.16 859.118L309.035 882.695L308.027 923.523ZM232.133 875.65L229.253 915.329L267.272 939.624L306.875 922.804L307.883 883.126L271.016 860.124L232.133 875.65Z" fill="white"/>
</g>
<g id="Group_37">
<path id="Vector_47" d="M308.026 923.523L299.242 943.506L258.343 960.901L267.127 940.918L308.026 923.523Z" fill="#9E9E9E"/>
</g>
<g id="Group_38">
<path id="Vector_48" d="M311.627 931.142L302.842 951.125L262.951 968.089L271.736 948.106L311.627 931.142Z" fill="#CDCDCD"/>
</g>
<g id="Group_39">
<path id="Vector_49" d="M262.663 946.956L253.735 966.939L215.716 942.5L224.5 922.517L262.663 946.956Z" fill="#ECECEC"/>
</g>
<g id="Group_40">
<path id="Vector_50" d="M350.078 998.279L341.293 1018.26V975.421L350.222 955.438L350.078 998.279Z" fill="white"/>
</g>
<g id="Group_41">
<path id="Vector_51" d="M139.966 907.853L131.182 927.836L136.366 886.864L145.151 866.881L139.966 907.853Z" fill="white"/>
</g>
<g id="Group_42">
<path id="Vector_52" d="M178.705 933.011L169.776 952.994L131.182 927.836L139.966 907.853L178.705 933.011Z" fill="#EDEDED"/>
</g>
<g id="Group_43">
<path id="Vector_53" d="M224.5 874.788L221.332 915.76L178.705 933.011L139.966 907.853L145.15 866.881L186.913 851.067L224.5 874.788ZM178.849 931.861L220.324 915.041L223.348 875.219L186.913 852.217L146.158 867.6L141.262 907.422L178.849 931.861Z" fill="white"/>
</g>
<g id="Group_44">
<path id="Vector_54" d="M221.332 915.76L212.547 935.743L169.776 952.994L178.705 933.011L221.332 915.76Z" fill="#B6B6B6"/>
</g>
<g id="Group_45">
<path id="Vector_55" d="M224.5 922.517L215.716 942.5L174.097 959.464L183.025 939.481L224.5 922.517Z" fill="#CDCDCD"/>
</g>
<g id="Group_46">
<path id="Vector_56" d="M268.568 991.666L259.783 1011.65L261.799 967.37L270.728 947.387L268.568 991.666Z" fill="#CACACA"/>
</g>
<g id="Group_47">
<path id="Vector_57" d="M260.359 989.941L251.574 1009.92L253.734 966.939L262.663 946.956L260.359 989.941Z" fill="white"/>
</g>
<g id="Group_48">
<path id="Vector_58" d="M351.229 999.142L309.466 1018.41L268.567 991.666L270.728 947.387L311.77 929.849L351.517 954.863L351.229 999.142ZM271.736 948.106L269.719 991.091L309.466 1016.97L350.077 998.279V955.438L311.482 930.999L271.736 948.106Z" fill="white"/>
</g>
<g id="Group_49">
<path id="Vector_59" d="M351.229 999.142L342.445 1019.12L300.682 1038.39L309.466 1018.41L351.229 999.142Z" fill="#C8C7C7"/>
</g>
<g id="Group_50">
<path id="Vector_60" d="M309.467 1018.41L300.682 1038.39L259.783 1011.65L268.568 991.666L309.467 1018.41Z" fill="#EDEDED"/>
</g>
<g id="Group_51">
<path id="Vector_61" d="M177.553 983.184L168.624 1003.17L173.088 958.745L181.873 938.762L177.553 983.184Z" fill="white"/>
</g>
<g id="Group_52">
<path id="Vector_62" d="M261.511 990.66L217.876 1009.92L177.409 983.04L181.729 938.618L224.501 921.079L263.671 946.237L261.511 990.66ZM183.026 939.481L178.849 982.609L218.164 1008.63L260.503 989.941L262.663 946.956L224.501 922.517L183.026 939.481Z" fill="white"/>
</g>
<g id="Group_53">
<path id="Vector_63" d="M217.876 1010.07L209.091 1030.05L168.624 1003.17L177.553 983.184L217.876 1010.07Z" fill="#EDEDED"/>
</g>
<g id="Group_54">
<path id="Vector_64" d="M261.511 990.66L252.726 1010.64L209.091 1030.05L217.875 1010.07L261.511 990.66Z" fill="#C8C7C7"/>
</g>
</g>
</g>
</g>
<g id="bigg bee-white">
<path id="Vector_65" d="M493.198 863.935L493.901 871.029L488.516 862.12C488.516 862.12 470.919 835.149 469.125 832.14C467.33 829.01 459.69 809.638 459.69 809.638L462.942 807.123C462.942 807.123 471.683 819.286 476.349 827.351C481.015 835.417 492.129 859.245 492.129 859.245C492.129 859.245 500.882 867.321 500.281 867.32C499.68 867.318 493.198 863.935 493.198 863.935Z" fill="url(#paint0_linear)"/>
<path id="Vector_66" d="M477.836 765.936C477.594 766.657 473.203 790.323 473.203 790.323L464.762 800.637L465.824 808.092L462.697 808.805L458.722 812.039L457.303 803.262L471.708 765.319C471.708 765.319 478.222 756.442 478.46 757.164C478.699 757.886 477.836 765.936 477.836 765.936Z" fill="url(#paint1_linear)"/>
<path id="Vector_67" d="M568.152 747.067L588.901 763.709L593.213 769.49L584.207 766.221L566.688 755.357L568.152 747.067Z" fill="url(#paint2_linear)"/>
<path id="Vector_68" d="M513.607 738.508C516.85 739.237 549.079 732.953 549.079 732.953L571.639 746.355L571.96 761.501L554.095 744.866L521.879 746.342L515.859 750.293L507.441 751.953L513.607 738.508Z" fill="url(#paint3_radial)"/>
<path id="Vector_69" d="M611.937 779.156L587.971 769.855C587.971 769.855 586.083 767.576 586.466 766.061C586.849 764.547 589.509 761.522 589.509 761.522L602.751 769.895L617.143 773.344L609.785 774.583L611.937 779.156Z" fill="url(#paint4_linear)"/>
<path id="Vector_70" d="M460.457 703.028L451.773 714.183L436.222 731.329L447.353 748.907C447.353 748.907 485.054 763.672 489.612 767.29C494.17 770.908 493.88 789.177 493.88 789.177L522.606 744.662L500.954 750.733L493.824 720.546L477.759 705.238L460.457 703.028Z" fill="url(#paint5_linear)"/>
<path id="Vector_71" d="M462.743 701.832L454.059 712.987L438.508 730.133L449.639 747.711C449.639 747.711 487.34 762.476 491.898 766.094C496.456 769.712 496.166 787.981 496.166 787.981L524.892 743.466L503.241 749.538L496.11 719.35L479.925 704.042L462.743 701.832Z" fill="#BCBEC0"/>
<path id="Vector_72" d="M495.538 753.363C496.738 753.847 503.337 758.312 504.901 757.835C506.345 757.358 528.148 739.388 531.151 740.117C534.153 740.966 547.725 744.849 549.88 747.859C555.733 761.457 528.119 794.917 520.045 802.828C517.153 805.585 506.677 812.648 504.516 811.921C502.354 811.195 491.09 798.664 492.059 795.902C496.165 788.461 503.291 775.499 497.306 766.229C488.678 756.71 486.021 761.27 495.538 753.363Z" fill="url(#paint6_linear)"/>
<g id="Group_55">
<g id="Group_56">
<path id="Vector_73" d="M592.55 792.686C592.55 792.686 599.356 809.411 600.665 814.222C601.975 819.034 595.302 841.973 591.088 844.846C586.873 847.719 563.091 841.766 563.812 841.768C579.336 834.838 589.159 802.292 592.55 792.686Z" fill="url(#paint7_linear)"/>
<g id="Vector_74" filter="url(#filter1_d)">
<path d="M546.043 834.629C547.003 835.113 559.844 842.719 562.727 843.087C583.89 840.019 591.69 799.655 593.875 791.848C593.517 790.886 582.496 777.034 581.174 776.79C581.172 777.511 572.675 808.739 570.497 814.141C568.319 819.544 546.043 834.629 546.043 834.629Z" fill="url(#paint8_linear)"/>
</g>
<g id="Vector_75" filter="url(#filter2_d)">
<path d="M564.87 760.881C564.87 760.881 583.587 773.19 584.781 776.439C585.974 779.687 584.639 784.612 584.274 786.053C582.819 790.977 566.501 825.068 561.081 829.261C555.661 833.453 545.797 836.792 545.797 836.792C537.626 835.688 525.884 822.075 522.772 817.259C522.772 817.259 540.009 798.675 544.229 793.758C548.449 788.842 564.87 760.881 564.87 760.881Z" fill="url(#paint9_linear)"/>
</g>
<g id="Vector_76" filter="url(#filter3_d)">
<path d="M542.327 740.988C548.562 746.414 566.931 754.155 568.584 765.338C564.952 774.943 539.697 823.541 521.442 820.02C512.685 813.626 507.406 809.766 502.868 799.056C507.456 791.256 536.898 748.546 542.327 740.988Z" fill="url(#paint10_linear)"/>
</g>
<g id="Vector_77" filter="url(#filter4_d)">
<path d="M496.869 750.242C498.07 750.726 504.668 755.191 506.232 754.714C507.796 754.237 529.479 736.266 532.482 736.996C535.484 737.845 549.056 741.727 551.211 744.738C557.064 758.336 529.45 791.796 521.376 799.707C518.484 802.464 508.008 809.527 505.847 808.8C503.685 808.073 492.421 795.543 493.39 792.781C497.496 785.34 504.622 772.378 498.637 763.107C490.009 753.589 487.352 758.149 496.869 750.242Z" fill="url(#paint11_linear)"/>
</g>
</g>
<path id="Vector_78" opacity="0.15" d="M588.935 840.634C586.168 841.828 578.359 840.485 572.354 838.666C572.475 838.546 572.957 838.067 573.077 838.067C570.194 837.218 568.153 836.612 566.232 835.885C564.911 835.401 562.029 834.432 558.068 832.137C557.949 832.017 559.153 830.938 558.913 830.818C558.913 830.818 558.191 831.296 558.191 831.176C551.831 827.553 542.589 822.48 534.551 816.81C534.311 816.689 536.312 814.058 536.312 814.058L534.555 815.569C527.477 810.622 521.716 807.521 517.88 803.664C518.121 803.424 520.412 800.666 520.773 800.427C521.134 800.187 518.967 801.744 519.208 801.504C517.529 799.817 515.253 797.287 514.534 796.443C504.71 784.278 505.084 779.471 504.007 777.545C502.931 775.619 502.341 771.411 501.025 769.243C501.6 778.861 495.926 788.22 493.51 792.781C492.541 795.423 503.805 808.074 505.967 808.801C505.967 808.801 508.372 808.446 508.492 808.447C512.084 813.384 515.518 815.739 521.516 820.082C522.477 820.325 523.965 820.208 524.927 820.091C529.598 825.993 539.067 836.053 545.916 836.913C545.916 836.913 546.879 836.555 548.322 836.078C551.562 838.009 560.923 843.323 563.447 843.45C564.289 843.332 565.252 842.493 566.094 842.255C571.379 843.591 587.836 847.361 591.328 844.967C592.652 844.009 594.102 841.248 595.675 837.406C593.386 839.203 591.102 839.558 588.935 840.634Z" fill="black"/>
</g>
<path id="Vector_79" d="M489.59 775.703L489.5 809.357L498.036 808.178L499.161 792.075L498.092 787.505L507.093 792.457L501.716 780.664L498.378 770.559L489.59 775.703Z" fill="url(#paint12_linear)"/>
<path id="Vector_80" d="M566.369 874.588L559.165 871.684C559.165 871.684 541.897 856.734 541.416 856.973C540.935 857.212 538.652 856.965 538.652 856.965L539.023 852.76C539.023 852.76 524.764 836.495 524.163 836.374C523.563 836.252 519.599 835.039 519.599 835.039L518.258 842.127L534.44 858.757L537.682 860.088L537.913 863.574L556.276 873.599L561.545 880.825L560.479 874.692L566.369 874.708L566.369 874.588Z" fill="url(#paint13_linear)"/>
<g id="Vector_81" filter="url(#filter5_d)">
<path d="M501.285 806.624L501.262 815.158L517.805 831.429L528.376 833.981L520.435 836.844L519.688 846.698L497.991 824.885L487.217 808.51L499.373 802.533L501.285 806.624Z" fill="url(#paint14_linear)"/>
</g>
<path id="Vector_82" d="M387.818 763.291L395.377 768.239L424.234 764.23L441.11 746.246L446.636 747.102L434.203 767.021L400.781 770.057L383.222 774.096L390.444 770.029L387.818 763.291Z" fill="url(#paint15_linear)"/>
<g id="head 1">
<g id="Group_57">
<path id="Vector_83" d="M423.746 722.281C423.384 722.761 406.197 722.595 403.19 723.308C399.943 724.02 395.13 725.81 395.002 728.815C394.874 731.819 391.265 732.771 390.55 730.606C389.835 728.44 399.472 720.293 400.556 719.334C401.64 718.496 420.515 716.744 423.041 716.149C425.687 715.676 437.823 717.03 437.823 717.03C437.823 717.03 441.831 701.296 442.558 699.134C443.285 696.973 449.58 680.162 451.144 679.445C452.709 678.728 456.558 677.657 456.917 678.379C457.275 679.101 451.013 683.531 446.532 696.38C444.957 700.943 439.133 721.361 439.133 721.361L423.746 722.281Z" fill="url(#paint16_linear)"/>
<path id="Vector_84" d="M436.747 714.503C436.265 714.863 405.973 716.344 401.761 718.015C397.55 719.687 390.078 726.999 389.593 728.92C388.865 731.443 389.583 732.646 389.583 732.646C389.583 732.646 393.571 724.244 399.108 721.254C404.645 718.264 438.298 718.834 438.298 718.834C438.298 718.834 443.891 695.051 444.857 693.13C446.429 689.529 449.701 679.802 452.707 679.209C455.713 678.736 458.598 678.864 458.598 678.864C458.598 678.864 451.994 676.322 449.101 679.32C446.208 682.317 436.747 714.503 436.747 714.503Z" fill="#F6F7F8"/>
</g>
<path id="Vector_85" d="M431.366 704.152C431.244 704.873 423.139 724.563 423.139 724.563C423.139 724.563 429.334 744.772 430.296 744.895C431.137 745.017 441.11 746.246 448.193 749.27C455.276 752.294 472.479 746.691 473.452 742.246C474.306 737.801 467.155 715.186 468.005 711.702C468.856 708.339 459.998 694.613 459.635 695.454C459.272 696.294 454.455 699.767 449.523 701.557C444.469 703.466 431.366 704.152 431.366 704.152Z" fill="url(#paint17_linear)"/>
<path id="Vector_86" d="M431.726 704.394C431.726 704.394 438.529 722.321 438.527 722.922C438.526 723.402 435.267 728.442 433.692 733.125C432.48 736.848 431.486 749.105 431.486 749.105C431.486 749.105 423.378 724.684 423.38 724.203C423.381 723.722 426.649 715.318 427.377 712.675C427.985 709.792 431.726 704.394 431.726 704.394Z" fill="url(#paint18_linear)"/>
<path id="Vector_87" d="M464.906 702.079C464.906 702.079 459.883 692.57 460.121 693.292C460.24 694.013 452.291 700.001 448.082 700.952C443.993 701.782 430.888 703.069 430.888 703.069C430.888 703.069 426.902 710.511 425.209 714.352C424.362 716.393 422.177 724.32 422.177 724.32L430.643 749.584L431.967 748.866C431.967 748.866 423.616 725.646 423.619 724.685C423.623 723.002 425.439 718.079 426.892 714.357C428.344 710.635 431.725 704.874 431.725 704.874C431.725 704.874 446.514 702.991 449.039 702.397C451.565 701.923 459.635 695.454 459.633 696.295C459.63 697.136 468.847 711.464 468.847 711.464C468.847 711.464 470.778 708.464 470.297 708.463C469.816 708.462 464.906 702.079 464.906 702.079Z" fill="#F1F2F2"/>
</g>
<path id="Vector_88" d="M476.553 706.557C475.353 705.833 463.462 702.796 458.771 703.985C446.984 707.079 438.671 714.509 437.343 716.548C436.015 718.588 432.749 726.392 432.741 729.517C432.734 732.161 431.487 748.985 431.487 748.985C431.487 748.985 430.282 750.184 430.282 750.063C430.285 749.102 448.317 747.708 448.317 747.708C448.317 747.708 441.735 737.233 448.713 734.608C455.691 731.982 468.574 723.843 469.667 719.519C470.76 715.195 476.553 706.557 476.553 706.557Z" fill="url(#paint19_radial)"/>
<g id="Vector_89" opacity="0.34" filter="url(#filter6_f)">
<path d="M460.696 703.269C460.696 703.269 448.79 705.641 443.852 709.474C439.877 712.589 432.205 705.236 432.205 705.236C432.205 705.236 432.656 716.055 432.167 719.419C431.677 722.783 431.776 730.476 431.648 733.721C431.519 736.966 431.968 748.866 431.97 748.025C431.972 747.183 434.168 734.929 435.381 730.966C436.594 726.883 441.292 722.929 443.825 719.691C446.357 716.452 464.661 703.761 464.661 703.761L460.696 703.269Z" fill="black"/>
</g>
<path id="Vector_90" d="M489.824 732.674L520.954 732.758L555.529 703.163L474.914 735.038L434.526 825.797L469.118 790.072L483.076 739.387L489.824 732.674Z" fill="#D8D9D9"/>
<path id="Vector_91" d="M559.776 670.508L492.324 724.295L466.027 759.681C466.027 759.681 376.39 839.13 376.867 840.694C377.343 842.257 376.346 855.596 376.346 855.596L389.684 856.714L437.104 833.163L484.703 742.423L563.416 702.97L576.33 682.932L574.801 670.548L559.776 670.508Z" fill="#C9CBCC"/>
<path id="Vector_92" d="M558.269 667.472L490.816 721.259L464.519 756.646C464.519 756.646 374.882 836.094 375.359 837.658C375.835 839.222 374.838 852.561 374.838 852.561L388.177 853.678L435.596 830.127L483.195 739.388L561.908 699.934L574.822 679.897L573.293 667.513L558.269 667.472Z" fill="#F6F7F8"/>
<path id="Vector_93" d="M566.016 646.94L476.338 741.893L354.172 849.981L313.544 850.954L298.666 841.179L352.271 797.091L451.692 744.351L484.595 710.545L541.065 583.651L562.511 609.43L566.016 646.94Z" fill="#BDBFC0"/>
<path id="Vector_94" d="M564.463 643.33L474.785 738.283L352.619 846.371L311.991 847.344L297.113 837.569L350.717 793.481L458.184 743.648L483.042 706.935L535.464 588.903C535.464 588.903 537.083 585.281 540.144 584.713C543.206 584.145 546.206 587.998 546.206 587.998L560.958 605.82L564.463 643.33Z" fill="#F6F7F8"/>
<path id="Vector_95" d="M457.212 747.251L304.208 836.025L379.556 796.202L352.868 843.006L389.911 789.379L474.785 738.283L482.528 719.314L522.363 655.477L557.266 643.129L524.089 651.446L541.07 587.984L521.898 649.586L476.257 726.989L457.212 747.251Z" fill="url(#paint20_linear)"/>
<g id="Vector_96" filter="url(#filter7_d)">
<path d="M486.141 716.679L477.634 706.8C477.634 706.8 460.572 704.711 460.33 705.432C460.088 706.152 440.923 726.294 440.923 726.294L439.833 729.175L445.679 745.417C445.679 745.417 456.482 750.855 457.202 751.337C457.922 751.82 470.52 760.147 470.52 760.147L500.931 759.507L502.3 741.963C502.3 741.963 495.618 723.675 494.416 723.672C493.214 723.669 486.141 716.679 486.141 716.679Z" fill="#D1D3D4"/>
</g>
<path id="Vector_97" d="M479.92 705.845L460.696 703.269L440.803 726.173L446.645 743.737L460.811 750.025L468.484 757.498L497.809 758.057L474.307 737.321C474.307 737.321 461.654 749.426 461.295 749.065C460.935 748.703 473.348 736.356 473.348 736.356C473.348 736.356 451.524 717.067 452.004 717.429C452.484 717.791 474.192 735.517 474.192 735.517L487.696 719.568L475.392 736.242L498.655 756.376L502.907 739.561L495.858 723.796L479.92 705.845Z" fill="url(#paint21_linear)"/>
<path id="Vector_98" d="M488.545 716.806L474.314 734.796L452.003 717.669L472.626 736.475L461.294 749.185L446.645 743.737C446.645 743.737 441.887 725.335 442.005 725.816C442.124 726.297 451.169 715.143 451.169 715.143L460.21 705.191L479.8 705.724L488.545 716.806Z" fill="url(#paint22_linear)"/>
</g>
</g>
</g>
</g>
<defs>
<filter id="filter0_f" x="357" y="899" width="201" height="182" filterUnits="userSpaceOnUse" color-interpolation-filters="sRGB">
<feFlood flood-opacity="0" result="BackgroundImageFix"/>
<feBlend mode="normal" in="SourceGraphic" in2="BackgroundImageFix" result="shape"/>
<feGaussianBlur stdDeviation="2" result="effect1_foregroundBlur"/>
</filter>
<filter id="filter1_d" x="542.043" y="774.79" width="55.8315" height="74.2976" filterUnits="userSpaceOnUse" color-interpolation-filters="sRGB">
<feFlood flood-opacity="0" result="BackgroundImageFix"/>
<feColorMatrix in="SourceAlpha" type="matrix" values="0 0 0 0 0 0 0 0 0 0 0 0 0 0 0 0 0 0 127 0"/>
<feOffset dy="2"/>
<feGaussianBlur stdDeviation="2"/>
<feColorMatrix type="matrix" values="0 0 0 0 0 0 0 0 0 0 0 0 0 0 0 0 0 0 0.15 0"/>
<feBlend mode="normal" in2="BackgroundImageFix" result="effect1_dropShadow"/>
<feBlend mode="normal" in="SourceGraphic" in2="effect1_dropShadow" result="shape"/>
</filter>
<filter id="filter2_d" x="518.771" y="758.881" width="70.4948" height="83.9114" filterUnits="userSpaceOnUse" color-interpolation-filters="sRGB">
<feFlood flood-opacity="0" result="BackgroundImageFix"/>
<feColorMatrix in="SourceAlpha" type="matrix" values="0 0 0 0 0 0 0 0 0 0 0 0 0 0 0 0 0 0 127 0"/>
<feOffset dy="2"/>
<feGaussianBlur stdDeviation="2"/>
<feColorMatrix type="matrix" values="0 0 0 0 0 0 0 0 0 0 0 0 0 0 0 0 0 0 0.15 0"/>
<feBlend mode="normal" in2="BackgroundImageFix" result="effect1_dropShadow"/>
<feBlend mode="normal" in="SourceGraphic" in2="effect1_dropShadow" result="shape"/>
</filter>
<filter id="filter3_d" x="498.868" y="738.988" width="73.7161" height="87.2137" filterUnits="userSpaceOnUse" color-interpolation-filters="sRGB">
<feFlood flood-opacity="0" result="BackgroundImageFix"/>
<feColorMatrix in="SourceAlpha" type="matrix" values="0 0 0 0 0 0 0 0 0 0 0 0 0 0 0 0 0 0 127 0"/>
<feOffset dy="2"/>
<feGaussianBlur stdDeviation="2"/>
<feColorMatrix type="matrix" values="0 0 0 0 0 0 0 0 0 0 0 0 0 0 0 0 0 0 0.15 0"/>
<feBlend mode="normal" in2="BackgroundImageFix" result="effect1_dropShadow"/>
<feBlend mode="normal" in="SourceGraphic" in2="effect1_dropShadow" result="shape"/>
</filter>
<filter id="filter4_d" x="486.849" y="734.974" width="69.1697" height="79.8784" filterUnits="userSpaceOnUse" color-interpolation-filters="sRGB">
<feFlood flood-opacity="0" result="BackgroundImageFix"/>
<feColorMatrix in="SourceAlpha" type="matrix" values="0 0 0 0 0 0 0 0 0 0 0 0 0 0 0 0 0 0 127 0"/>
<feOffset dy="2"/>
<feGaussianBlur stdDeviation="2"/>
<feColorMatrix type="matrix" values="0 0 0 0 0 0 0 0 0 0 0 0 0 0 0 0 0 0 0.15 0"/>
<feBlend mode="normal" in2="BackgroundImageFix" result="effect1_dropShadow"/>
<feBlend mode="normal" in="SourceGraphic" in2="effect1_dropShadow" result="shape"/>
</filter>
<filter id="filter5_d" x="485.218" y="800.533" width="49.1583" height="52.1655" filterUnits="userSpaceOnUse" color-interpolation-filters="sRGB">
<feFlood flood-opacity="0" result="BackgroundImageFix"/>
<feColorMatrix in="SourceAlpha" type="matrix" values="0 0 0 0 0 0 0 0 0 0 0 0 0 0 0 0 0 0 127 0"/>
<feOffset dx="2" dy="2"/>
<feGaussianBlur stdDeviation="2"/>
<feColorMatrix type="matrix" values="0 0 0 0 0 0 0 0 0 0 0 0 0 0 0 0 0 0 0.25 0"/>
<feBlend mode="normal" in2="BackgroundImageFix" result="effect1_dropShadow"/>
<feBlend mode="normal" in="SourceGraphic" in2="effect1_dropShadow" result="shape"/>
</filter>
<filter id="filter6_f" x="427.624" y="699.269" width="41.0366" height="52.7979" filterUnits="userSpaceOnUse" color-interpolation-filters="sRGB">
<feFlood flood-opacity="0" result="BackgroundImageFix"/>
<feBlend mode="normal" in="SourceGraphic" in2="BackgroundImageFix" result="shape"/>
<feGaussianBlur stdDeviation="2" result="effect1_foregroundBlur"/>
</filter>
<filter id="filter7_d" x="435.833" y="705.281" width="70.4666" height="62.8666" filterUnits="userSpaceOnUse" color-interpolation-filters="sRGB">
<feFlood flood-opacity="0" result="BackgroundImageFix"/>
<feColorMatrix in="SourceAlpha" type="matrix" values="0 0 0 0 0 0 0 0 0 0 0 0 0 0 0 0 0 0 127 0"/>
<feOffset dy="4"/>
<feGaussianBlur stdDeviation="2"/>
<feColorMatrix type="matrix" values="0 0 0 0 0 0 0 0 0 0 0 0 0 0 0 0 0 0 0.25 0"/>
<feBlend mode="normal" in2="BackgroundImageFix" result="effect1_dropShadow"/>
<feBlend mode="normal" in="SourceGraphic" in2="effect1_dropShadow" result="shape"/>
</filter>
<linearGradient id="paint0_linear" x1="485.901" y1="816.196" x2="456.318" y2="824.834" gradientUnits="userSpaceOnUse">
<stop stop-color="white"/>
<stop offset="0.3545" stop-color="#E6E7E7"/>
<stop offset="0.7292" stop-color="#9C9FA1"/>
<stop offset="0.9958" stop-color="#7D8083"/>
</linearGradient>
<linearGradient id="paint1_linear" x1="481.604" y1="790.087" x2="462.18" y2="781.837" gradientUnits="userSpaceOnUse">
<stop stop-color="white"/>
<stop offset="0.3545" stop-color="#E6E7E7"/>
<stop offset="0.4517" stop-color="#D4D4D6"/>
<stop offset="0.7292" stop-color="#9C9FA1"/>
<stop offset="1" stop-color="#7D8083"/>
</linearGradient>
<linearGradient id="paint2_linear" x1="583.592" y1="753.566" x2="573.406" y2="770.103" gradientUnits="userSpaceOnUse">
<stop offset="0.0844303" stop-color="white"/>
<stop offset="0.3545" stop-color="#E6E7E7"/>
<stop offset="0.7292" stop-color="#9C9FA1"/>
<stop offset="0.9958" stop-color="#7D8083"/>
</linearGradient>
<radialGradient id="paint3_radial" cx="0" cy="0" r="1" gradientUnits="userSpaceOnUse" gradientTransform="translate(538.218 748.861) rotate(4.81259) scale(52.0395 15.6427)">
<stop stop-color="#7D8083"/>
<stop offset="0.8086" stop-color="#E6E7E7"/>
</radialGradient>
<linearGradient id="paint4_linear" x1="601.997" y1="760.903" x2="593.975" y2="780.498" gradientUnits="userSpaceOnUse">
<stop offset="0.0844303" stop-color="white"/>
<stop offset="0.3545" stop-color="#E6E7E7"/>
<stop offset="0.7292" stop-color="#9C9FA1"/>
<stop offset="0.9958" stop-color="#7D8083"/>
</linearGradient>
<linearGradient id="paint5_linear" x1="436.288" y1="746.019" x2="522.598" y2="746.25" gradientUnits="userSpaceOnUse">
<stop offset="0.00355571" stop-color="white"/>
<stop offset="0.1259" stop-color="#E6E7E7"/>
<stop offset="0.2297" stop-color="#D4D4D6"/>
<stop offset="0.5586" stop-color="#9C9FA1"/>
<stop offset="0.9371" stop-color="#7D8083"/>
</linearGradient>
<linearGradient id="paint6_linear" x1="538.177" y1="773.737" x2="498.051" y2="778.137" gradientUnits="userSpaceOnUse">
<stop offset="0.1601" stop-color="#E6E7E7"/>
<stop offset="0.9327" stop-color="#A3A5A8"/>
</linearGradient>
<linearGradient id="paint7_linear" x1="564.005" y1="819.11" x2="600.939" y2="819.209" gradientUnits="userSpaceOnUse">
<stop offset="0.1601" stop-color="#E6E7E7"/>
<stop offset="0.9327" stop-color="#A3A5A8"/>
</linearGradient>
<linearGradient id="paint8_linear" x1="546.107" y1="809.796" x2="593.783" y2="809.923" gradientUnits="userSpaceOnUse">
<stop offset="0.2" stop-color="white"/>
<stop offset="0.8361" stop-color="#E6E7E7"/>
</linearGradient>
<linearGradient id="paint9_linear" x1="522.79" y1="798.794" x2="585.235" y2="798.961" gradientUnits="userSpaceOnUse">
<stop offset="0.1601" stop-color="#E6E7E7"/>
<stop offset="0.9327" stop-color="#A3A5A8"/>
</linearGradient>
<linearGradient id="paint10_linear" x1="502.932" y1="780.547" x2="568.549" y2="780.723" gradientUnits="userSpaceOnUse">
<stop offset="0.2" stop-color="white"/>
<stop offset="0.8361" stop-color="#E6E7E7"/>
</linearGradient>
<linearGradient id="paint11_linear" x1="490.783" y1="772.77" x2="551.937" y2="772.933" gradientUnits="userSpaceOnUse">
<stop offset="0.1601" stop-color="#E6E7E7"/>
<stop offset="0.9327" stop-color="#A3A5A8"/>
</linearGradient>
<linearGradient id="paint12_linear" x1="505.048" y1="790.189" x2="486.82" y2="789.864" gradientUnits="userSpaceOnUse">
<stop stop-color="white"/>
<stop offset="0.1742" stop-color="#E6E7E7"/>
<stop offset="0.4517" stop-color="#D4D4D6"/>
<stop offset="0.7292" stop-color="#9C9FA1"/>
<stop offset="1" stop-color="#7D8083"/>
</linearGradient>
<linearGradient id="paint13_linear" x1="539.638" y1="845.901" x2="525.561" y2="866.328" gradientUnits="userSpaceOnUse">
<stop stop-color="white"/>
<stop offset="0.293491" stop-color="#E6E7E7"/>
<stop offset="0.7292" stop-color="#9C9FA1"/>
<stop offset="0.9958" stop-color="#7D8083"/>
</linearGradient>
<linearGradient id="paint14_linear" x1="512.452" y1="821.665" x2="501.169" y2="829.119" gradientUnits="userSpaceOnUse">
<stop offset="0.0844303" stop-color="white"/>
<stop offset="0.3545" stop-color="#E6E7E7"/>
<stop offset="0.7292" stop-color="#9C9FA1"/>
<stop offset="0.9958" stop-color="#7D8083"/>
</linearGradient>
<linearGradient id="paint15_linear" x1="408.084" y1="744.24" x2="420.131" y2="772.943" gradientUnits="userSpaceOnUse">
<stop offset="0.1632" stop-color="white"/>
<stop offset="0.3545" stop-color="#E6E7E7"/>
<stop offset="0.4517" stop-color="#D4D4D6"/>
<stop offset="0.7292" stop-color="#9C9FA1"/>
<stop offset="0.8357" stop-color="#7D8083"/>
</linearGradient>
<linearGradient id="paint16_linear" x1="452.558" y1="739.224" x2="419.044" y2="699.144" gradientUnits="userSpaceOnUse">
<stop offset="0.1178" stop-color="white"/>
<stop offset="0.3545" stop-color="#E6E7E7"/>
<stop offset="0.4517" stop-color="#D4D4D6"/>
<stop offset="0.7292" stop-color="#9C9FA1"/>
<stop offset="0.9109" stop-color="#7D8083"/>
</linearGradient>
<linearGradient id="paint17_linear" x1="472.698" y1="722.411" x2="429.832" y2="723.538" gradientUnits="userSpaceOnUse">
<stop offset="0.00355571" stop-color="white"/>
<stop offset="0.1259" stop-color="#E6E7E7"/>
<stop offset="0.2297" stop-color="#D4D4D6"/>
<stop offset="0.5586" stop-color="#9C9FA1"/>
<stop offset="0.9371" stop-color="#7D8083"/>
</linearGradient>
<linearGradient id="paint18_linear" x1="420.079" y1="726.308" x2="434.359" y2="726.769" gradientUnits="userSpaceOnUse">
<stop offset="0.1601" stop-color="#E6E7E7"/>
<stop offset="0.9327" stop-color="#A3A5A8"/>
</linearGradient>
<radialGradient id="paint19_radial" cx="0" cy="0" r="1" gradientUnits="userSpaceOnUse" gradientTransform="translate(456.98 717.69) rotate(0.153389) scale(33.329)">
<stop offset="0.2857" stop-color="#E6E7E7"/>
<stop offset="0.9368" stop-color="#6F7173"/>
</radialGradient>
<linearGradient id="paint20_linear" x1="397.608" y1="688.769" x2="447.509" y2="734.275" gradientUnits="userSpaceOnUse">
<stop offset="0.2" stop-color="white"/>
<stop offset="0.8361" stop-color="#E6E7E7"/>
</linearGradient>
<linearGradient id="paint21_linear" x1="440.833" y1="730.636" x2="502.874" y2="730.802" gradientUnits="userSpaceOnUse">
<stop offset="0.2" stop-color="white"/>
<stop offset="0.8361" stop-color="#E6E7E7"/>
</linearGradient>
<linearGradient id="paint22_linear" x1="442.021" y1="727.234" x2="488.506" y2="727.358" gradientUnits="userSpaceOnUse">
<stop offset="0.2" stop-color="white"/>
<stop offset="0.8361" stop-color="#E6E7E7"/>
</linearGradient>
<clipPath id="clip0">
<rect width="1021" height="1278" fill="white"/>
</clipPath>
</defs>
</svg>
