<svg xmlns="http://www.w3.org/2000/svg" xmlns:xlink="http://www.w3.org/1999/xlink" viewBox="0 0 457.1 182.1"><defs><style>.cls-1{fill:none;stroke:#7fc000;stroke-miterlimit:10;}.cls-2{fill:#7fc000;}.cls-3{opacity:0.16;}.cls-4{fill:#fff;}.cls-5{opacity:0.12;}.cls-6{fill:#f0eef1;}.cls-7{fill:url(#linear-gradient);}.cls-8{fill:url(#linear-gradient-2);}.cls-9{fill:url(#linear-gradient-3);}.cls-10{fill:url(#linear-gradient-4);}.cls-11{fill:#efefed;}.cls-12{fill:url(#linear-gradient-5);}.cls-13{fill:url(#linear-gradient-6);}.cls-14{fill:url(#linear-gradient-7);}.cls-15{fill:#f5f5f5;}.cls-16{fill:url(#linear-gradient-8);}.cls-17{fill:url(#linear-gradient-9);}.cls-18{fill:url(#linear-gradient-10);}.cls-19{fill:url(#linear-gradient-11);}.cls-20{fill:url(#linear-gradient-12);}.cls-21{fill:url(#linear-gradient-13);}.cls-22{fill:url(#linear-gradient-14);}</style><linearGradient id="linear-gradient" x1="-1395.83" y1="210.57" x2="-1395.11" y2="210.57" gradientTransform="matrix(55.89, -47.11, -46.99, -55.74, 87905.2, -53966.22)" gradientUnits="userSpaceOnUse"><stop offset="0" stop-color="#dbdbdb"/><stop offset="0.72" stop-color="#ded9d9"/><stop offset="0.97" stop-color="#cfcccc"/></linearGradient><linearGradient id="linear-gradient-2" x1="123.71" y1="59.23" x2="94.96" y2="31.9" gradientUnits="userSpaceOnUse"><stop offset="0" stop-color="#fcfcfc"/><stop offset="1" stop-color="#e5e5e5"/></linearGradient><linearGradient id="linear-gradient-3" x1="93.23" y1="29.99" x2="67.78" y2="1.24" xlink:href="#linear-gradient-2"/><linearGradient id="linear-gradient-4" x1="-1393.6" y1="207.88" x2="-1392.88" y2="207.88" gradientTransform="matrix(44, -40, -39.9, -43.89, 69675.49, -46497.21)" xlink:href="#linear-gradient-2"/><linearGradient id="linear-gradient-5" x1="-1421.47" y1="213.09" x2="-1420.75" y2="213.09" gradientTransform="matrix(-54, -55, -54.86, 53.86, -65001.05, -89525.73)" xlink:href="#linear-gradient"/><linearGradient id="linear-gradient-6" x1="-1396.08" y1="208.6" x2="-1395.36" y2="208.6" gradientTransform="matrix(46.22, -45.35, -45.26, -46.07, 74146.01, -53634.4)" xlink:href="#linear-gradient"/><linearGradient id="linear-gradient-7" x1="-1428.02" y1="206.1" x2="-1427.3" y2="206.1" gradientTransform="matrix(-30.25, -35.27, -35.21, 30.16, -35663.84, -56522.59)" gradientUnits="userSpaceOnUse"><stop offset="0" stop-color="#c7c1bd"/><stop offset="1" stop-color="#8c7e76"/></linearGradient><linearGradient id="linear-gradient-8" x1="-1394.33" y1="209.3" x2="-1393.61" y2="209.3" gradientTransform="matrix(46.97, -39.57, -39.49, -46.82, 73986.89, -45258.33)" gradientUnits="userSpaceOnUse"><stop offset="0" stop-color="#705d50"/><stop offset="1" stop-color="#817369"/></linearGradient><linearGradient id="linear-gradient-9" x1="-1420.08" y1="238.97" x2="-1419.36" y2="238.97" gradientTransform="matrix(-46.22, 45.35, 45.26, 46.07, -76160.71, 53452.45)" xlink:href="#linear-gradient"/><linearGradient id="linear-gradient-10" x1="-1426.2" y1="206.9" x2="-1425.48" y2="206.9" gradientTransform="matrix(-32.68, -38.75, -38.67, 32.57, -38372.02, -61884.8)" gradientUnits="userSpaceOnUse"><stop offset="0" stop-color="#a19a95"/><stop offset="1" stop-color="#6d5951"/></linearGradient><linearGradient id="linear-gradient-11" x1="-1398.14" y1="213.01" x2="-1397.43" y2="213.01" gradientTransform="matrix(58.5, -51, -50.87, -58.35, 93020.04, -58781.1)" gradientUnits="userSpaceOnUse"><stop offset="0.02" stop-color="#8f847d"/><stop offset="1" stop-color="#f7f7f7"/></linearGradient><linearGradient id="linear-gradient-12" x1="-1426.77" y1="226.73" x2="-1426.05" y2="226.73" gradientTransform="matrix(-64, 0.5, 0.5, 63.84, -91035.26, -13693.81)" gradientUnits="userSpaceOnUse"><stop offset="0" stop-color="#8b7f79"/><stop offset="1" stop-color="#b2a9a4"/></linearGradient><linearGradient id="linear-gradient-13" x1="-1395.37" y1="209.19" x2="-1394.65" y2="209.19" gradientTransform="matrix(44, -40, -39.9, -43.89, 70136.49, -46544.21)" gradientUnits="userSpaceOnUse"><stop offset="0" stop-color="#f5f5f5"/><stop offset="1" stop-color="#f5f5f5"/></linearGradient><linearGradient id="linear-gradient-14" x1="-1425.2" y1="226.48" x2="-1424.48" y2="226.48" gradientTransform="matrix(-70, 0, 0, 69.82, -99369.95, -15750.16)" gradientUnits="userSpaceOnUse"><stop offset="0" stop-color="#ebebeb"/><stop offset="0.4" stop-color="#f0eef1"/><stop offset="0.97" stop-color="#f5f5f5"/></linearGradient></defs><title>bootstrap-1</title><g id="Layer_2" data-name="Layer 2"><g id="Layer_1-2" data-name="Layer 1"><line class="cls-1" x1="175.6" y1="63.6" x2="185.6" y2="63.6"/><polygon class="cls-2" points="173.1 67.1 173.3 67 176.2 64.1 167.5 64.1 164.4 67.1 173.1 67.1"/><path class="cls-2" d="M164.4,60.2l3.1,2.9h8.7a14.2,14.2,0,0,1-3.1-2.9Z"/><path class="cls-2" d="M185.2,63.6a7,7,0,0,1-1.6-4.6,12.9,12.9,0,0,0,5.5,4.6,15,15,0,0,0-5.5,4.5A7.3,7.3,0,0,1,185.2,63.6Z"/><line class="cls-1" x1="293.7" y1="64.3" x2="283.7" y2="64.3"/><polygon class="cls-2" points="296.2 60.7 296 60.9 293.1 63.8 301.8 63.8 304.9 60.7 296.2 60.7"/><path class="cls-2" d="M304.9,67.7l-3.1-2.9h-8.7a17,17,0,0,1,3.1,2.9Z"/><path class="cls-2" d="M284.1,64.3a7.9,7.9,0,0,1,1.6,4.5,13.7,13.7,0,0,0-5.6-4.5,13.9,13.9,0,0,0,5.6-4.6A7.6,7.6,0,0,1,284.1,64.3Z"/><path class="cls-1" d="M432.3,63.9a15.5,15.5,0,0,0,5.7-7.5,18,18,0,0,0,.8-3.9"/><polygon class="cls-2" points="436.5 65.6 433.3 63.2 432.9 59.2 427.1 66.8 436.5 65.6"/><polygon class="cls-2" points="441.9 49.6 441.7 49.8 439.2 53 438.1 44.4 440.8 41 441.9 49.6"/><path class="cls-2" d="M433.8,41.9l3.3,2.7,1.1,8.6a17.6,17.6,0,0,0-3.3-2.7Z"/><path class="cls-1" d="M355,63.9a14.8,14.8,0,0,1-5.6-7.5,18.3,18.3,0,0,1-.9-3.9"/><polygon class="cls-2" points="354.5 59.2 354 63.2 350.8 65.6 360.3 66.8 354.5 59.2"/><polygon class="cls-2" points="352.6 50.5 352.4 50.7 349.1 53.2 350.2 44.6 353.7 41.9 352.6 50.5"/><path class="cls-2" d="M346.7,41l2.6,3.4L348.1,53a15.6,15.6,0,0,0-2.5-3.4Z"/><g class="cls-3"><path class="cls-4" d="M239.2,181.5v.3h-.1l-.4.2h-5.4l-.2-.2h0v-.2h0V181H233l.5-.3h2.9V180h.4v-.3h.2l.2-.2h.3v-.2h.1v-.3l-.5-.3h-3v.2h-.6v-.3h0l.2-.3.2-.2h.2l.5-.2h3v.2h.3l.4.4v.2h.2v.2h0v.2h0v.5h-.1l-.3.3v.2h-.1l-.3.2a.2.2,0,0,0-.2.2h-.4l-.2.2h2.7Zm-4.3-.4h-.2Z"/><path class="cls-4" d="M241.2,181.6H240v-.3q0-.2.3-.3h.7v.2h.1Z"/></g><g class="cls-3"><path class="cls-4" d="M65.7,181.6c0,.1,0,.2-.2.3H61.6c-.3,0-.4-.1-.4-.2H61v-.2h-.1l.2-.2h1.7V181h0v-.2h0v-.2a.4.4,0,0,1,.1-.3h-.1v-.3h0v-.4h.2v-.2h0v-.2h-.7l-.2.2h-.3l-.3.2h-.6v-.3q.1-.3.3-.3h2.1v-.5H64l.3.4v.2l-.3.2h-.1v.3h-.1c0,.1-.1.2-.1.4v.2h0v.2h0v.2h.1v.2c.1,0,.1.1.1.2h-.1a.4.4,0,0,1,.1.3h-.1v.4h.1v.2h-.1v.2h.9v.2h1.2Z"/><path class="cls-4" d="M67.9,181.6H66.7v-.3l.2-.3h.8v.2h.1v.2Z"/></g><g class="cls-3"><path class="cls-4" d="M392.2,180.8h-.1v.2h-.5l-.5.2h-1.3c-.1.1.7.1.5.2h-.1l-.5.2H387c-.2,0-.3-.2-.3-.5s.1-.3.3-.4h.6q.3.1.3.3v.2h.3l.3.2H390l.2-.2h.6l.2-.2h.1l.4-.3h-3.2v-.4h.2l.4-.2h1.3l.4-.2h.4l-.6-.2h-2.4l-.2.2h-.1v.2l-.4-.2h-.2V178h4.2v.2l.2.2v.4h0v.2c-.1.2-.2.3-.4.3h-.1l-.2.2h.9l.2.2v.4h0Z"/><path class="cls-4" d="M394.6,181.6h-1.2v-.3l.2-.3h.8v.2h.2Z"/></g><g class="cls-5"><polygon points="130.7 5.7 130.5 5.7 130.5 5.8 67.5 7.9 67.5 7.8 4.3 5.7 4.3 5.7 4.3 5.7 4.3 5.7 4.3 5.8 4.3 5.8 6.5 68.9 3 130.3 63.2 124.3 129 130.3 125.7 64.3 130.7 5.7"/><path d="M287.7,118.5s-6.2-36.2-15.6-50c7-19.1,15.3-53.5,15.3-53.5l-.3-1.8-.3-1.1c-21.8,4-33.7,12.4-53,24v.6c-18.4-11-29.5-20.3-52.2-24.9,0,0,6.3,38.5,16.2,55.9l-.8,1.2c-9.4,17.1-10.8,25.7-15.8,48.8l.4-.2c16-2.9,33.7-1.9,53.1-10.3h0c18.7,10.2,53,11.3,53,11.3Z"/><polygon points="454.4 98.2 391.2 35.1 391.2 35.1 391.2 35.1 391.2 35.1 391.2 35.1 328 98.3 331.6 98.5 328.1 101.9 393.2 98.5 454.4 102 454.4 101.8 451 98.6 454.4 98.4 454.4 98.2"/></g><g id="Group"><g id="Intersect"><path id="path0_fill" data-name="path0 fill" class="cls-6" d="M63.1,63.3V2.2L0,0V.2Z"/></g><g id="Intersect-2" data-name="Intersect"><path id="path1_fill" data-name="path1 fill" class="cls-7" d="M0,0,2.2,63.3H63.1v-.2Z"/></g><g id="Intersect-3" data-name="Intersect"><path id="path0_fill-2" data-name="path0 fill" class="cls-8" d="M63,63.2h61.2L126.3.1h-.1Z"/></g><g id="Intersect-4" data-name="Intersect"><path id="path2_fill" data-name="path2 fill" class="cls-9" d="M126.3.1,63,2.2v61h.2Z"/></g><g id="Intersect-5" data-name="Intersect"><path id="path0_fill-3" data-name="path0 fill" class="cls-10" d="M63.2,63.1v61.2l63.1,2.1h0Z"/></g><g id="Intersect-6" data-name="Intersect"><path id="path3_fill" data-name="path3 fill" class="cls-11" d="M126.3,126.4l-2.1-63.3h-61v.2Z"/></g><g id="Intersect-7" data-name="Intersect"><path id="path0_fill-4" data-name="path0 fill" class="cls-6" d="M63.3,63.2H2.2L0,126.3H.2Z"/></g><g id="Intersect-8" data-name="Intersect"><path id="path4_fill" data-name="path4 fill" class="cls-12" d="M0,126.3l63.3-2.1v-61h-.2Z"/></g></g><g id="Group-2" data-name="Group"><g id="Intersect-9" data-name="Intersect"><path id="path5_fill" data-name="path5 fill" class="cls-11" d="M234.5,64.9V31.4c-18.5-11-30.3-15-53.1-19.7h0Z"/></g><g id="Intersect-10" data-name="Intersect"><path id="path6_fill" data-name="path6 fill" class="cls-13" d="M181.5,11.3c5.9,23.4,9.8,35.7,19.7,53.2h33.3Z"/></g><g id="Intersect-11" data-name="Intersect"><path id="path7_fill" data-name="path7 fill" class="cls-14" d="M234.5,64.4h33.4c11.5-17.9,15.4-29.8,19.8-53h-.2Z"/></g><g id="Intersect-12" data-name="Intersect"><path id="path8_fill" data-name="path8 fill" class="cls-15" d="M287.7,11.4c-22,4-33.9,8.4-53.2,20v33h.1Z"/></g><g id="Intersect-13" data-name="Intersect"><path id="path9_fill" data-name="path9 fill" class="cls-16" d="M234.6,64.4V99.2c18.7,10.3,31,13.3,53.1,18.3h0Z"/></g><g id="Intersect-14" data-name="Intersect"><path id="path10_fill" data-name="path10 fill" class="cls-17" d="M287.7,117.5c-6.5-25.8-10.4-39.3-19.8-53.1H234.6Z"/></g><g id="Intersect-15" data-name="Intersect"><path id="path11_fill" data-name="path11 fill" class="cls-6" d="M234.7,64.4H201.2c-10.7,17.4-14.7,29.9-19.7,53h.1Z"/></g><g id="Intersect-16" data-name="Intersect"><path id="path12_fill" data-name="path12 fill" class="cls-18" d="M181.5,117.5c21.3-5.2,33.4-7.6,53.2-18.4V64.4h-.2Z"/></g></g><g id="Intersect-17" data-name="Intersect"><path id="path13_fill" data-name="path13 fill" class="cls-19" d="M393.9,35.9V96.8l63.3-.5v-.2Z"/></g><g id="Intersect-18" data-name="Intersect"><path id="path14_fill" data-name="path14 fill" class="cls-20" d="M330.7,96.2l63.1.6L394,36h-.2Z"/></g><g id="Intersect-19" data-name="Intersect"><path id="path15_fill" data-name="path15 fill" class="cls-21" d="M393.8,29.4V96.1l63.3-3.4v-.2Z"/></g><g id="Intersect-20" data-name="Intersect"><path id="path16_fill" data-name="path16 fill" class="cls-22" d="M330.7,92.6l63.1,3.5V29.4Z"/></g></g></g></svg>