<svg width="676" height="494" viewBox="0 0 676 494" fill="none" xmlns="http://www.w3.org/2000/svg">
<rect width="648" height="494" fill="black" fill-opacity="0" transform="translate(12)"/>
<rect width="635.708" height="76.2014" fill="black" fill-opacity="0" transform="translate(20.0894 395.142)"/>
<g filter="url(#filter0_f)">
<path d="M185.642 467.303C146.473 472.702 73.0971 472.677 20.0894 467.303C97.6803 438.899 258.624 428.536 329.685 418.172C419.396 405.088 545.941 389.384 655.798 397.828C577.258 410.752 533.304 416.459 449.529 421.243L501.768 438.899L431.091 423.929L373.09 434.677L418.415 459.626L346.586 438.899C303.565 449.263 241.339 459.626 185.642 467.303Z" fill="black" fill-opacity="0.4"/>
</g>
<g filter="url(#filter1_f)">
<path d="M347.354 441.446L414.19 458.335L361.951 436.072L418.031 421.486L484.483 437.991L431.859 416.88L505.609 396.153C467.71 395.385 382.155 392.622 352.348 401.527C322.541 410.432 293.066 446.436 284.36 458.335L347.354 441.446Z" fill="url(#paint0_radial)"/>
</g>
<rect width="645.63" height="409.172" fill="black" fill-opacity="0" transform="translate(10.9133)"/>
<path d="M656.543 344.035L404.051 403.667L15.6726 409.172L12 382.566L18.4271 360.548V333.943L26.6904 311.925L29.4449 284.402L44.1353 257.797L48.7261 233.026L62.4984 213.76L70.7618 188.99L87.2885 167.889L100.143 144.953L122.178 122.935L134.114 107.339L152.477 92.66L169.922 72.4767L191.958 58.7153L211.239 45.8713L235.111 33.9448L252.556 26.6054L274.592 16.5137L292.036 10.0917L317.745 4.58718H336.108L356.307 0.91748L378.343 2.75233H399.46L417.823 8.25688L437.105 10.0917L453.631 18.3486L474.749 24.7705L488.521 33.9448L505.966 41.2842L519.738 54.1282L535.347 63.3024L545.447 77.9812L561.055 85.3206L567.482 100.917L580.336 111.009L584.927 125.687L597.781 137.614L601.454 155.962L617.062 168.806V184.403L627.162 199.999L625.326 216.512L636.344 227.522V244.953L645.525 260.549L640.934 279.815L649.198 291.741L645.525 308.255L656.543 320.182L645.525 328.438L652.87 336.695L656.543 344.035Z" fill="url(#paint1_linear)"/>
<path d="M656.543 344.035L404.051 403.667L15.6726 409.172L12 382.566L18.4271 360.548V333.943L26.6904 311.925L29.4449 284.402L44.1353 257.797L48.7261 233.026L62.4984 213.76L70.7618 188.99L87.2885 167.889L100.143 144.953L122.178 122.935L134.114 107.339L152.477 92.66L169.922 72.4767L191.958 58.7153L211.239 45.8713L235.111 33.9448L252.556 26.6054L274.592 16.5137L292.036 10.0917L317.745 4.58718H336.108L356.307 0.91748L378.343 2.75233H399.46L417.823 8.25688L437.105 10.0917L453.631 18.3486L474.749 24.7705L488.521 33.9448L505.966 41.2842L519.738 54.1282L535.347 63.3024L545.447 77.9812L561.055 85.3206L567.482 100.917L580.336 111.009L584.927 125.687L597.781 137.614L601.454 155.962L617.062 168.806V184.403L627.162 199.999L625.326 216.512L636.344 227.522V244.953L645.525 260.549L640.934 279.815L649.198 291.741L645.525 308.255L656.543 320.182L645.525 328.438L652.87 336.695L656.543 344.035Z" fill="url(#paint2_radial)"/>
<path d="M402.215 399.997L401.166 399.956L402.215 406.419L400.838 399.943L394.98 399.709L396.706 406.419L394.578 399.693L10.9133 384.401L16.4222 360.548L392.377 392.733L392.159 392.045L16.4222 334.86L25.6038 311.925L390.13 385.627L388.165 379.416L29.4449 283.484L44.1353 257.797L386.624 374.542L386.361 373.713L49.6443 234.861L62.4984 214.678L384.341 367.324L383.684 365.249L381.124 363.536L70.7618 188.99L87.2885 166.971L381.124 363.536L383.579 364.917L383.347 364.184L378.556 358.507L100.143 144.953L122.178 122.935L373.81 352.884L345.221 319.012L137.787 105.504L153.395 91.7425L345.221 319.012L376.181 350.879L371.814 343.876L171.759 72.4766L192.876 56.8804L371.814 343.876L379.479 354.274L380.567 355.394L378.859 349.993L209.403 46.7887L235.111 33.9447L372.87 331.057L358.551 285.786L254.392 27.5228L273.673 17.4311L358.551 285.786L378.237 334.598L294.791 10.0917L316.827 4.58713L389.217 345.25L384.527 297.392L337.026 4.58713L355.389 0L384.527 297.392L391.759 341.967L377.425 4.58713H396.706L399.124 347.676L403.171 308.888L415.987 10.0917H434.35L403.171 308.888L401.378 350.696L454.549 17.4311L471.994 22.9356L400.878 362.351L400.54 370.225L488.521 33.9447L504.13 40.3667L401.61 375.057L402.23 375.406L519.738 52.2932L535.347 63.3023L422.042 344.676L432.177 325.574L544.528 77.9812L560.137 84.4031L432.177 325.574L422.866 346.092L566.564 101.834L580.336 111.008L410.478 377.979L585.845 126.605L598.699 137.614L410.616 383.098L410.866 383.29L602.372 157.797L617.062 167.889L410.478 391.741L617.062 187.155L626.244 199.081L438.334 374.058L457.908 359.664L626.244 216.512L636.344 228.439L457.908 359.664L436.344 378.001L636.344 247.705L645.525 260.549L415.211 395.972L413.31 397.589L641.853 280.732L649.198 291.741L419.523 396.778L428.058 394.053L645.525 309.172L656.543 321.099L428.058 394.053L423.332 395.898L647.361 331.191L656.543 343.117L419.66 400.915L411.568 400.489L410.478 400.915L411.425 400.482L408.004 400.302L406.806 400.915L407.861 400.294L402.215 399.997Z" fill="url(#paint3_linear)"/>
<path d="M413.806 403.97L487.94 384.01L461.436 354.455L361.951 369.04L329.685 400.515L413.806 403.97Z" fill="url(#paint4_radial)"/>
<path d="M452.069 403.03L575.879 370.898L543.238 0L425.056 88.1342L414.551 363.81L452.069 403.03Z" fill="url(#paint5_radial)"/>
<g filter="url(#filter2_d)">
<rect width="166.907" height="357.285" fill="black" fill-opacity="0" transform="translate(369.72 104.759)"/>
<path d="M370.378 304.768C367.42 276.319 375.395 235.465 375.395 235.465C382.014 249.564 394.869 284.053 394.869 296.93C394.869 309.806 402.372 347.705 404.203 364.051L398.803 383.071L383.077 369.424C383.077 369.424 373.336 333.216 370.378 304.768Z" fill="#D5D5D5"/>
<path d="M372.683 303.02C370.544 279.818 378.445 248.727 378.445 248.727C384.462 263.185 394.984 289.816 394.984 303.02C394.984 316.224 398.313 353.047 399.978 369.808L397.266 373.475L383.438 360.808C383.438 360.808 374.821 326.223 372.683 303.02Z" fill="#868282"/>
<path d="M451.091 287.492L487.556 222.414L535.186 233.929L515.596 287.492L469.29 366.586H451.091L489.309 442.952L436.468 373.263L418.332 376.333V442.952V462.043L405.593 442.952L403.412 376.333L395.729 379.616L439.261 275.674L451.091 287.492Z" fill="url(#paint6_linear)"/>
<rect width="62.787" height="130.913" fill="black" fill-opacity="0" transform="translate(473.84 104.759)"/>
<path d="M520.248 139.305L532.987 129.305L536.627 125.669H524.798L512.058 112.032L498.409 104.759L473.84 119.305L487.489 222.945L508.418 235.672L534.807 233.854L498.409 136.578L510.238 131.123L520.248 139.305Z" fill="white"/>
<path d="M507.509 130.214L510.238 113.85L521.158 124.759L511.148 127.487V131.123L497.499 135.669L532.987 233.854H512.968L510.238 218.399L492.949 167.488L476.57 121.123L484.76 135.669L507.509 130.214Z" fill="url(#paint7_linear)"/>
<path d="M520.248 137.487L517.518 133.851L535.717 126.578L520.248 137.487Z" fill="url(#paint8_linear)"/>
<path d="M508.418 234.763L488.399 222.945L473.84 120.214L508.418 221.126V234.763Z" fill="url(#paint9_linear)"/>
<path d="M504.779 119.305L508.418 112.032L497.499 105.668L477.48 117.487L486.58 132.942L506.599 128.396L504.779 119.305Z" fill="url(#paint10_linear)"/>
<path d="M378.084 255.424L426.522 248.4L498.311 288.299H515.98L472.02 370.222L438.751 377.697L395.584 370.222L385.574 359.313L373.835 303.232L378.084 255.424Z" fill="white"/>
<path d="M411.501 365.97L434.548 280.758V276.919L376.14 308.222L386.918 359.061L396.521 370.576H411.501V365.97Z" fill="#E5E5E5"/>
<path d="M486.019 310.313L446.456 283.061H440.31L438.366 370.404L453.347 368.869L486.019 310.313Z" fill="#F1F1F1"/>
<path d="M533.65 234.313L514.444 235.849V263.101L454.115 369.253L441.823 374.626L468.711 370.788L514.444 284.98L533.65 234.313Z" fill="url(#paint11_linear)"/>
<path d="M426.098 252.354L459.9 270.778L462.973 272.697L457.211 281.909L438.005 270.778L426.098 252.354Z" fill="url(#paint12_linear)"/>
<path d="M438.005 364.434L441.078 280.758L438.005 277.687L434.548 362.899L427.611 365.03L419.545 366.949L413.783 373.091L438.005 375.778V364.434Z" fill="url(#paint13_linear)"/>
<path d="M433.012 275L375.372 308.222L382.67 312.828C390.352 311.421 407.737 304.402 417.263 299.182C426.789 293.962 433.268 283.445 435.316 278.839L446.456 276.535L438.389 273.465L433.012 275Z" fill="url(#paint14_radial)"/>
<path d="M414.958 365.586L436.469 284.596L434.932 330.657C434.42 339.357 435.601 359.657 430.684 362.727C425.767 365.798 417.007 365.202 414.958 365.586Z" fill="url(#paint15_linear)"/>
<rect width="81.4092" height="78.4749" fill="black" fill-opacity="0" transform="translate(406.892 375.394)"/>
<path d="M449.12 380.089H441.439L447.584 382.979C460.896 402.604 487.675 442.07 488.29 442.937C488.904 443.804 464.737 398.27 452.576 375.394H449.12L476.385 423.794L449.12 380.089Z" fill="url(#paint16_linear)"/>
<path d="M408.429 441.97C410.605 445.296 415.112 452.333 415.727 453.869H417.263V411.263L414.19 380.94L415.727 450.414L411.117 439.667L408.429 384.778L406.892 379.404L408.429 441.97Z" fill="url(#paint17_linear)"/>
<path d="M504.073 237L491.013 227.02L458.747 283.828L489.476 304.94L512.523 262.717L511.371 237H504.073Z" fill="url(#paint18_linear)"/>
<path d="M408.813 250.051L378.468 255.424L376.524 305.535L432.628 273.855L443.432 272.536L408.813 250.051Z" fill="url(#paint19_linear)"/>
</g>
<defs>
<filter id="filter0_f" x="0.0893555" y="375.445" width="675.708" height="115.898" filterUnits="userSpaceOnUse" color-interpolation-filters="sRGB">
<feFlood flood-opacity="0" result="BackgroundImageFix"/>
<feBlend mode="normal" in="SourceGraphic" in2="BackgroundImageFix" result="shape"/>
<feGaussianBlur stdDeviation="10" result="effect1_foregroundBlur"/>
</filter>
<filter id="filter1_f" x="280.36" y="391.142" width="229.25" height="71.1932" filterUnits="userSpaceOnUse" color-interpolation-filters="sRGB">
<feFlood flood-opacity="0" result="BackgroundImageFix"/>
<feBlend mode="normal" in="SourceGraphic" in2="BackgroundImageFix" result="shape"/>
<feGaussianBlur stdDeviation="2" result="effect1_foregroundBlur"/>
</filter>
<filter id="filter2_d" x="365.72" y="100.759" width="174.907" height="365.285" filterUnits="userSpaceOnUse" color-interpolation-filters="sRGB">
<feFlood flood-opacity="0" result="BackgroundImageFix"/>
<feColorMatrix in="SourceAlpha" type="matrix" values="0 0 0 0 0 0 0 0 0 0 0 0 0 0 0 0 0 0 255 0"/>
<feOffset/>
<feGaussianBlur stdDeviation="2"/>
<feColorMatrix type="matrix" values="0 0 0 0 0 0 0 0 0 0 0 0 0 0 0 0 0 0 0.25 0"/>
<feBlend mode="normal" in2="BackgroundImageFix" result="effect1_dropShadow"/>
<feBlend mode="normal" in="SourceGraphic" in2="effect1_dropShadow" result="shape"/>
</filter>
<radialGradient id="paint0_radial" cx="0" cy="0" r="1" gradientUnits="userSpaceOnUse" gradientTransform="translate(436.853 448.355) rotate(-76.1294) scale(30.4433 72.6505)">
<stop/>
<stop offset="1" stop-opacity="0"/>
</radialGradient>
<linearGradient id="paint1_linear" x1="409.965" y1="408.96" x2="355.495" y2="-65.473" gradientUnits="userSpaceOnUse">
<stop stop-color="#959595"/>
<stop offset="0.997885" stop-color="#F1F1F1"/>
</linearGradient>
<radialGradient id="paint2_radial" cx="0" cy="0" r="1" gradientUnits="userSpaceOnUse" gradientTransform="translate(432.628 396.293) rotate(174.752) scale(271.188 110.707)">
<stop stop-color="#A09E9E"/>
<stop offset="1" stop-color="white" stop-opacity="0"/>
</radialGradient>
<linearGradient id="paint3_linear" x1="25.7723" y1="238.531" x2="671.232" y2="216.477" gradientUnits="userSpaceOnUse">
<stop stop-color="#D5D5D5"/>
<stop offset="1" stop-color="white"/>
</linearGradient>
<radialGradient id="paint4_radial" cx="0" cy="0" r="1" gradientUnits="userSpaceOnUse" gradientTransform="translate(419.76 388.808) rotate(90.526) scale(20.9201 69.1653)">
<stop stop-opacity="0.64"/>
<stop offset="1" stop-color="#C4C4C4" stop-opacity="0"/>
</radialGradient>
<radialGradient id="paint5_radial" cx="0" cy="0" r="1" gradientUnits="userSpaceOnUse" gradientTransform="translate(495.215 247.96) rotate(100.714) scale(185.949 58.0398)">
<stop stop-opacity="0.41"/>
<stop offset="1" stop-color="#C4C4C4" stop-opacity="0"/>
</radialGradient>
<linearGradient id="paint6_linear" x1="470.389" y1="222.414" x2="470.389" y2="462.043" gradientUnits="userSpaceOnUse">
<stop stop-color="#D5D5D5"/>
<stop offset="1" stop-color="#868282"/>
</linearGradient>
<linearGradient id="paint7_linear" x1="504.779" y1="113.85" x2="504.779" y2="233.854" gradientUnits="userSpaceOnUse">
<stop stop-color="#696565"/>
<stop offset="1" stop-color="#C4C4C4" stop-opacity="0"/>
</linearGradient>
<linearGradient id="paint8_linear" x1="526.618" y1="126.578" x2="526.618" y2="137.487" gradientUnits="userSpaceOnUse">
<stop stop-color="#959595"/>
<stop offset="1" stop-color="#C4C4C4" stop-opacity="0"/>
</linearGradient>
<linearGradient id="paint9_linear" x1="491.129" y1="120.214" x2="491.129" y2="234.763" gradientUnits="userSpaceOnUse">
<stop stop-color="white"/>
<stop offset="1" stop-color="white" stop-opacity="0"/>
</linearGradient>
<linearGradient id="paint10_linear" x1="492.949" y1="105.668" x2="492.949" y2="132.942" gradientUnits="userSpaceOnUse">
<stop stop-color="white"/>
<stop offset="1" stop-color="white" stop-opacity="0"/>
</linearGradient>
<linearGradient id="paint11_linear" x1="515.98" y1="239.303" x2="490.664" y2="369.431" gradientUnits="userSpaceOnUse">
<stop stop-color="#696565"/>
<stop offset="1" stop-color="#C4C4C4"/>
</linearGradient>
<linearGradient id="paint12_linear" x1="448.568" y1="252.354" x2="448.568" y2="288.051" gradientUnits="userSpaceOnUse">
<stop stop-color="#959595"/>
<stop offset="1" stop-color="#C4C4C4" stop-opacity="0"/>
</linearGradient>
<linearGradient id="paint13_linear" x1="430.131" y1="277.687" x2="462.587" y2="283.068" gradientUnits="userSpaceOnUse">
<stop stop-color="#959595"/>
<stop offset="1" stop-color="#C4C4C4" stop-opacity="0"/>
</linearGradient>
<radialGradient id="paint14_radial" cx="0" cy="0" r="1" gradientUnits="userSpaceOnUse" gradientTransform="translate(407.276 290.354) rotate(62.0857) scale(14.7689 45.6969)">
<stop stop-color="#868282"/>
<stop offset="1" stop-color="#C4C4C4" stop-opacity="0"/>
</radialGradient>
<linearGradient id="paint15_linear" x1="425.713" y1="321.061" x2="442.229" y2="325.289" gradientUnits="userSpaceOnUse">
<stop stop-color="#868282"/>
<stop offset="1" stop-color="#C4C4C4" stop-opacity="0"/>
</linearGradient>
<linearGradient id="paint16_linear" x1="464.87" y1="375.394" x2="464.87" y2="442.949" gradientUnits="userSpaceOnUse">
<stop stop-color="#E5E5E5" stop-opacity="0.39"/>
<stop offset="1" stop-color="#E5E5E5"/>
</linearGradient>
<linearGradient id="paint17_linear" x1="412.078" y1="379.404" x2="412.078" y2="453.869" gradientUnits="userSpaceOnUse">
<stop stop-color="#E5E5E5" stop-opacity="0.39"/>
<stop offset="1" stop-color="#E5E5E5"/>
</linearGradient>
<linearGradient id="paint18_linear" x1="494.47" y1="227.02" x2="455.33" y2="288.076" gradientUnits="userSpaceOnUse">
<stop stop-color="white"/>
<stop offset="0.883978" stop-color="#E5E5E5"/>
<stop offset="1" stop-color="#959595"/>
</linearGradient>
<linearGradient id="paint19_linear" x1="416.495" y1="257.727" x2="423.76" y2="284.043" gradientUnits="userSpaceOnUse">
<stop stop-color="white"/>
<stop offset="1" stop-color="#E5E5E5"/>
</linearGradient>
</defs>
</svg>
