<svg xmlns="http://www.w3.org/2000/svg" xmlns:xlink="http://www.w3.org/1999/xlink" viewBox="0 0 597 729.9"><defs/><defs><linearGradient id="gradient-0" x1="300.8" x2="300.8" y1="-231.5" y2="499.5" gradientTransform="matrix(1.02277 0 0 1 -.2 0)" gradientUnits="userSpaceOnUse"><stop offset="0" stop-color="#45BFEF"/><stop offset="1" stop-color="#408CCB"/></linearGradient><linearGradient id="gradient-1" x1="2189.1" x2="2189.1" y1="1223.4" y2="1746.1" gradientTransform="translate(-1225.3 -414.4)" gradientUnits="userSpaceOnUse"><stop offset="0" stop-color="rgba(255, 255, 255, 0.46)"/><stop offset="1" stop-color="rgba(255, 255, 255, 0.02)"/></linearGradient><linearGradient id="paint0_linear" x1="317" x2="236.1" y1="400.5" y2="327.3" gradientTransform="matrix(.66455 0 0 .66455 1889 682.5)" gradientUnits="userSpaceOnUse"><stop stop-color="#fff"/><stop offset=".7" stop-color="#E9E9EA"/><stop offset=".9" stop-color="#C5C6C8"/></linearGradient><linearGradient id="paint1_linear" x1="103.6" x2="187.9" y1="247.5" y2="225.4" gradientTransform="matrix(.66455 0 0 .66455 1889 682.5)" gradientUnits="userSpaceOnUse"><stop stop-color="#fff"/><stop offset=".8" stop-color="#E9E9EA"/><stop offset="1" stop-color="#D6D7D8"/></linearGradient><linearGradient id="paint2_linear" x1="187.1" x2="239.3" y1="146.1" y2="217.7" gradientTransform="matrix(.66455 0 0 .66455 1889 682.5)" gradientUnits="userSpaceOnUse"><stop stop-color="#fff"/><stop offset=".8" stop-color="#E9E9EA"/><stop offset="1" stop-color="#C5C6C8"/></linearGradient><linearGradient id="paint4_linear" x1="119.7" x2="165.2" y1="380" y2="427.6" gradientTransform="matrix(.66455 0 0 .66455 1889 682.5)" gradientUnits="userSpaceOnUse"><stop stop-color="#fff"/><stop offset=".4" stop-color="#E9E9EA"/><stop offset="1" stop-color="#C5C6C8"/></linearGradient><linearGradient id="paint5_linear" x1="133.3" x2="155.1" y1="383.6" y2="443.5" gradientTransform="matrix(.66455 0 0 .66455 1889 682.5)" gradientUnits="userSpaceOnUse"><stop stop-color="#fff"/><stop offset=".4" stop-color="#E9E9EA"/><stop offset="1" stop-color="#C5C6C8"/></linearGradient><linearGradient id="paint6_linear" x1="229" x2="313.5" y1="264.7" y2="276.7" gradientTransform="matrix(.66455 0 0 .66455 1889 682.5)" gradientUnits="userSpaceOnUse"><stop stop-color="#fff"/><stop offset=".8" stop-color="#E9E9EA"/><stop offset="1" stop-color="#C5C6C8"/></linearGradient><linearGradient id="paint7_linear" x1="370" x2="339" y1="337.9" y2="316.3" gradientTransform="matrix(.66455 0 0 .66455 1889 682.5)" gradientUnits="userSpaceOnUse"><stop stop-color="#fff"/><stop offset=".8" stop-color="#E9E9EA"/><stop offset="1" stop-color="#C5C6C8"/></linearGradient><symbol id="sitepoint-0" viewBox="0 0 134.7 29.4"><path fill="#FFF" d="M1402.8 625.3c-1.4-.9-3.2-1.1-4.9-1.5-1.7-.4-4.4-2-1.9-3.4 2.5-1.4 5-.5 5.3 1.9h2.3c-.1-3.2-3-4.4-5.8-4.2-6.4-.1-7.4 6.9-.7 7.7 1.4.2 2.7.6 4 1.2 1 .9.7 2.5-.5 3-2.1.7-5.9.6-6.1-2.3h-2.3c0 5.4 8.9 6 11.5 2.4.9-1.4.6-3.9-.9-4.8zM1406.9 618.4h2.3v13.7h-2.3zM1416 614.3h-2.3v4.1h-2.4v1.9h2.4c.3 1.9-.7 9.9.8 11.2 1.5 1.3 3 .5 4.4.5v-2c-.9-.1-2.4.4-2.8-.5-.4-.9 0-8.9-.1-9.2h2.9v-1.9h-2.9zM1432.4 620.7c-1.5-2.5-5.1-3.3-7.8-2.1-2.7 1.2-4.7 6-3.5 9.4 1.5 5.8 11.4 5.9 12.4-.3h-2.3c-1.2 4.7-8.7 2.8-8.1-1.8h10.6c0-1.8-.4-3.6-1.3-5.2zm-9.3 3.2c.3-5.1 7.8-5.1 8.1 0zM1447.9 620.2c-2-2.7-7.5-3.2-9.4 0v-1.8h-2.3v18.8h2.3v-7c1.5 2.3 5.2 2.6 7.4 1.6 4.2-1.9 4.6-8.3 2-11.6zm-1 6.8c-1.7 6.1-10.2 3.5-8.3-3.7 1.9-7.2 10.1-3.2 8.3 3.7zM1463.4 620.1c-2.4-2.8-7.7-2.8-10.2 0a8.4 8.4 0 000 10.2c2.5 2.7 7.8 2.7 10.2 0 2.4-3 2.4-7.2 0-10.2zm-1 7.3c-2.7 6.1-10.3 2.1-8.1-4.4 2.2-6.5 10.3-2.1 8.1 4.4zM1468 618.4h2.3v13.7h-2.3zM1484.6 619.5c-2.1-2.3-7-1.8-8.4 1v-2.1h-2.2V632h2.3c.4-3.6-1.9-12.2 4.2-12 1.6-.1 3 1.2 2.8 2.8v9.2h2.4c-.3-2.6.8-10.5-1.1-12.5zM1495.2 620.3v-1.9h-2.8v-4.1h-2.3v4.1h-2.4v1.9h2.4c.2 1.9-.8 9.9.7 11.2 1.5 1.3 3.1.5 4.4.5v-2c-.9-.1-2.4.4-2.8-.5-.4-.9 0-8.9 0-9.2zM1372.9 628l-2.7-2.4-2.8-2.8a.9.9 0 010-1.3l7.7-7.4-3.5-3.4-10.5 10.1c-1.9 1.8 1 3.7 2.2 4.9l6.7 6.3 2.9-2.8c.3-.3.3-.9 0-1.2z" class="cls-26" transform="translate(-1360.5 -610.7)"/><path fill="#FFF" d="M1382 625.1l-6.7-6.3c-3.6 3.7-4.6 2.7-.2 6.4h-.1l2.9 2.8c.4.4.4 1 0 1.3l-7.7 7.4 3.5 3.4 10.5-10.1c1.8-1.8-1-3.7-2.2-4.9zM1408.1 614.3a1.3 1.3 0 100 2.6c1.7 0 1.7-2.7 0-2.6zM1469.2 614.3c-1.7-.1-1.7 2.6 0 2.6a1.3 1.3 0 100-2.6z" class="cls-26" transform="translate(-1360.5 -610.7)"/></symbol><symbol id="bird2" viewBox="0 0 235.4 291.6"><path fill="snow" fill-rule="evenodd" d="M203.9 28.3l-13.5 176-137.7-44 88.6 159.5 57 3.8 2 4.1L23 410l120.9-7.6-67.3 62.7 154.7-66 57-4.6 1.3.4v-.4h.4l37-55.7 28.6-42.7-21.2 32 42.4 17.5-21.2-49.5-53.1-5.9-13.5 12.6-.7-131.9-84.3-142.6zM221.5 87a6.8 6.8 0 11-13.5-1.5 6.8 6.8 0 0113.5 1.5z" clip-rule="evenodd" transform="matrix(.66 0 0 .66 -15.2 -18.4)"/><path fill="url(#paint0_linear)" d="M2012 948.5l70-3.7L2107 909l-16.8-33.5-78.3 73z" transform="translate(-1904.3 -701)"/><path fill="#C4C4C4" d="M288.6 303.3L258.9 326l30 69.8-.3-92.6z" transform="matrix(.66 0 0 .66 -15.2 -18.4)"/><path fill="url(#paint1_linear)" d="M1924.3 789.8l59 105.4 60 4-19.6-77.8-99.4-31.6z" transform="translate(-1904.3 -701)"/><path fill="url(#paint2_linear)" fill-rule="evenodd" d="M2024.5 700.9l56 95.5-67 56.8 11-152.3z" clip-rule="evenodd" transform="translate(-1904.3 -701)"/><path fill="url(#paint3_radial)" d="M2090.3 875.5l16.2 32.3 19-28.4-35.3-3.9z" transform="translate(-1904.3 -701)"/><path fill="url(#paint4_linear)" d="M1904.6 955.1l128.2-59.4 14.7 31.6-107.3 64.5 102.8-44.5-138.4 7.8z" transform="translate(-1904.3 -701)"/><path fill="url(#paint5_linear)" d="M2032.4 896.4l18.3 47.8-111 48.3L1988 947l44.5-50.6z" transform="translate(-1904.3 -701)"/><path fill="url(#paint6_linear)" d="M2080.5 796.4a740.5 740.5 0 00-79.4 59l43.5 92.5c15 .3 23-.2 36.7-2l-.8-149.5z" transform="translate(-1904.3 -701)"/><path fill="url(#paint7_linear)" d="M2139.6 912.3l-14-32.9-14.1 21.2 28.1 11.7z" transform="translate(-1904.3 -701)"/></symbol><radialGradient id="paint3_radial" cx="0" cy="0" r="1" gradientTransform="matrix(-18.09778 14.48299 -29.83928 -37.28683 2121.5 891.4)" gradientUnits="userSpaceOnUse"><stop stop-color="#fff"/><stop offset=".8" stop-color="#E9E9EA"/><stop offset="1" stop-color="#C5C6C8"/></radialGradient><clipPath id="clip-path-2" transform="translate(366.7 591.3)"><path fill="none" d="M-8.6 0h1212.3v738.1H-8.6z" class="cls-17"/></clipPath><style>@import url(&apos;https://fonts.googleapis.com/css2?family=Inter:wght@500&amp;display=swap&apos;);text{font-family:&apos;Inter&apos;, Arial, Helvetica, sans-serif;white-space:pre;fill:#fff}</style></defs><g transform="translate(-8.4 231.5)"><path fill="url(#gradient-0)" d="M8.4-231.5h598.2v731H8.4z"/><g style="clip-path:url(#clip-path-2)" id="cloud" class="cls-22" clip-path="url(#clip-path-2)" transform="matrix(1.02442 0 0 1 -1002.1 -830)"><path fill="url(#gradient-1)" d="M1569.8 1062.6v269H986.5V810.8c68 7.4 131.2 38.6 168 83.3 39.2 47.6 47.5 109.5 21.6 162.3a91 91 0 0181.1 2.5c22.8 13.6 33 38.6 24.2 60 8.5-16.4 31-23.8 53.1-19.5 22.2 4.3 38.3 22.3 35.8 39.8 23.1-40.8 72.1-67.8 128.7-76.7 23.5-3.5 47.4-3.5 71 .1z" class="cls-26"/><path fill="rgba(255, 255, 255, 0.18)" d="M1574.4 1330.9l-588 .7v-317a283.8 283.8 0 01105.8 34.2c75.8 43.8 112.2 125 85.2 195 17.7-27.4 58.2-42.5 97.9-44.7 39.7-2.2 80.3 12.9 102.8 38.1a73 73 0 019.5 87.5c30.8-41.5 101.7-60.7 161.2-47 7.4 1.7 14.6 4 21.6 6.7z" class="cls-26"/></g><use width="134.7" height="29.4" transform="matrix(.96 0 0 .96 397 -176.7)" xlink:href="#sitepoint-0"/><use width="235.4" height="292" transform="matrix(.93 0 0 .93 74.8 110.8)" xlink:href="#bird2"/><g fill="#FFF"><text x="1523.8" y="767" font-size="31" font-weight="600" text-anchor="end" transform="translate(-971.1 -824.9)">THE PRINCIPLES OF</text><text x="1523.8" y="929.2" font-size="20" font-weight="600" text-anchor="end" transform="translate(-971.1 -824.9)">FOURTH EDITION</text><text x="1281.6" y="1271.7" font-size="16" font-weight="700" letter-spacing=".9" text-anchor="middle" transform="translate(-971.1 -824.9)">DESIGNING GREAT WEB SITES IS NOT ROCKET SCIENCE!</text><text font-size="16" font-weight="500" text-anchor="end" transform="translate(-1655.9 -938.2)"><tspan x="2208.5" y="1065.1">BY JASON BEAIRD,</tspan><tspan x="2208.5" dy="1.1em">​</tspan><tspan>JAMES GEORGE,</tspan><tspan x="2208.5" dy="1.1em">​</tspan><tspan>&amp; ALEX WALKER</tspan></text></g></g><text fill="#FFF" font-size="74" font-weight="500" letter-spacing="-2.6" text-anchor="end" transform="translate(358.5 32.6)"><tspan x="194.7" y="207.7">BEAUTIFUL</tspan><tspan x="194.7" dy=".9em">​</tspan><tspan>WEB DESIGN</tspan></text></svg>