<svg width="1021" height="1278" viewBox="0 0 1021 1278" fill="none" xmlns="http://www.w3.org/2000/svg">
<g id="Mock - v1 - design4">
<g clip-path="url(#clip0)">
<rect width="1021" height="1278" fill="white"/>
<g id="BASE">
<path id="BASE_2" d="M1021 0H-1091V1278H1021V0Z" fill="url(#paint0_radial)"/>
<path id="Vector" d="M1021 0H-1091V1689H1021V0Z" fill="url(#paint1_linear)"/>
<path id="Vector_2" opacity="0.2" d="M1021 872.738C980.345 866.467 938.182 866.177 897.603 872.564C798.946 888.01 713.564 935.046 673.287 1006.06C677.737 975.635 649.603 944.336 610.985 936.845C572.442 929.355 533.372 942.13 518.513 970.525C533.749 933.536 516.024 889.985 476.274 866.177C436.449 842.427 377.768 841.324 335.077 861.822C380.106 769.958 365.775 662.068 297.515 579.147C229.33 496.168 108.799 440.074 -18.2932 432.061C-144.028 424.163 -268.783 461.211 -373.775 515.098C-550.423 605.8 -680.683 755.848 -736.876 913.502C-803.326 855.725 -915.258 831.859 -1010.82 854.97C-1039.94 862.054 -1067.09 873.319 -1091 887.836V1689H1020.92V872.738H1021Z" fill="white"/>
<path id="Vector_3" opacity="0.2" d="M1021 1266.58C1009.01 1261.88 996.486 1257.93 983.512 1254.91C879.873 1230.97 756.321 1264.43 702.691 1336.81C731.882 1288.42 725.32 1228.3 686.022 1184.33C646.723 1140.35 576.122 1114.21 506.954 1117.99C437.786 1121.77 367.336 1148.08 336.41 1195.83C383.553 1073.96 320.042 932.456 188.042 856.07C56.0422 779.684 -134.943 771.319 -279.766 832.486C-424.589 893.653 -531.094 1010.64 -530.038 1137.86C-588.344 1039.92 -737.466 979.392 -875.35 997.748C-963.978 1009.42 -1042.73 1053.05 -1091 1111.19V1689H1021V1266.58Z" fill="white"/>
</g>
<g id="Group">
<g id="SitePoint">
<path id="Vector_4" d="M745.483 140.854C745.89 141.58 746.539 142.145 747.32 142.457L749.564 143.458H754.666C755.453 143.446 756.225 143.239 756.91 142.857C757.571 142.638 758.143 142.217 758.542 141.656C758.984 141.081 759.201 140.371 759.155 139.653C759.187 139.131 759.071 138.611 758.818 138.151C758.566 137.691 758.188 137.309 757.726 137.049C756.715 136.425 755.615 135.952 754.462 135.646L749.972 134.645C748.425 134.46 746.913 134.055 745.483 133.443C744.248 132.945 743.135 132.194 742.219 131.24C741.359 130.168 740.858 128.86 740.785 127.498C740.711 126.135 741.07 124.783 741.811 123.628C742.468 122.685 743.298 121.87 744.259 121.225C745.24 120.586 746.357 120.175 747.524 120.023C748.717 119.691 749.958 119.556 751.197 119.622C752.705 119.546 754.216 119.681 755.686 120.023C756.972 120.212 758.214 120.618 759.359 121.225C760.377 121.885 761.217 122.779 761.807 123.829C762.384 125.095 762.729 126.451 762.827 127.835H758.134C758.149 127.12 757.935 126.42 757.522 125.832C757.078 125.263 756.523 124.786 755.89 124.43L753.849 123.628H749.564L747.728 124.029C747.116 124.43 746.504 124.63 746.3 125.231C746.094 125.444 745.934 125.696 745.829 125.971C745.723 126.246 745.675 126.539 745.687 126.833C745.653 127.177 745.711 127.524 745.854 127.84C745.997 128.156 746.221 128.43 746.504 128.636C747.138 129.259 747.904 129.738 748.748 130.038L751.605 130.839L754.87 131.44L758.338 132.442C759.339 132.719 760.3 133.123 761.195 133.643C762.028 134.226 762.724 134.977 763.235 135.847C763.818 136.815 764.101 137.928 764.052 139.052C764.084 140.453 763.731 141.836 763.031 143.058C762.344 144.169 761.355 145.071 760.175 145.662C759.026 146.448 757.691 146.931 756.298 147.064L752.013 147.464L747.728 147.064C746.343 146.779 745.027 146.235 743.851 145.461C742.768 144.729 741.863 143.771 741.198 142.657C740.523 141.354 740.174 139.912 740.178 138.451H744.871C744.825 139.294 745.038 140.132 745.483 140.854Z" fill="white"/>
<path id="Vector_5" d="M774.254 120.223H769.561V146.964H774.254V120.223Z" fill="white"/>
<path id="Vector_6" d="M793.23 120.223V124.029H787.721V140.654C787.721 141.255 787.721 141.656 787.925 141.856C787.925 142.011 787.962 142.165 788.033 142.304C788.104 142.443 788.207 142.564 788.333 142.657H793.23V146.463H786.701C785.966 146.358 785.266 146.083 784.66 145.662C784.038 145.231 783.602 144.588 783.436 143.859C783.174 142.878 783.037 141.869 783.028 140.854V124.029H778.335V120.223H783.028V112.211H787.721V120.223H793.23Z" fill="white"/>
<path id="Vector_7" d="M818.328 145.261C815.971 146.784 813.191 147.554 810.37 147.464C808.419 147.477 806.483 147.137 804.657 146.463C803.002 145.816 801.532 144.785 800.372 143.458C799.202 142.207 798.362 140.694 797.924 139.051C797.253 137.255 796.908 135.356 796.903 133.443C796.928 131.531 797.272 129.636 797.924 127.834C798.562 126.235 799.457 124.748 800.576 123.428C801.786 122.205 803.246 121.249 804.861 120.623C806.52 119.871 808.341 119.527 810.166 119.622C812.3 119.518 814.421 120.004 816.288 121.024C817.972 121.909 819.382 123.224 820.369 124.83C821.34 126.297 822.032 127.926 822.409 129.637C822.842 131.338 822.98 133.099 822.817 134.845H801.8C801.836 135.99 801.973 137.129 802.208 138.25C802.548 139.286 803.104 140.242 803.841 141.054C804.585 141.926 805.581 142.554 806.698 142.857C808.099 143.468 809.631 143.733 811.161 143.628C812.69 143.523 814.17 143.052 815.471 142.256C816.117 141.814 816.666 141.249 817.087 140.596C817.507 139.942 817.79 139.213 817.92 138.451H822.409C822.013 141.159 820.547 143.605 818.328 145.261ZM817.308 128.035C816.939 127.079 816.303 126.246 815.471 125.631C814.774 124.94 813.941 124.395 813.023 124.029C812.052 123.637 811.012 123.433 809.962 123.428C808.843 123.394 807.729 123.599 806.698 124.029C805.78 124.395 804.947 124.94 804.249 125.631C803.5 126.279 802.938 127.107 802.617 128.035C802.157 128.978 801.88 129.997 801.8 131.039H817.92C817.915 130.008 817.707 128.988 817.308 128.035Z" fill="white"/>
<path id="Vector_8" d="M832.407 120.223V123.828H832.611C832.942 123.094 833.42 122.432 834.015 121.881C834.611 121.331 835.313 120.903 836.08 120.624C837.811 119.869 839.698 119.526 841.589 119.622C843.548 119.509 845.505 119.852 847.303 120.624C848.854 121.347 850.189 122.451 851.18 123.828C852.379 125.059 853.224 126.579 853.628 128.235C854.226 129.976 854.503 131.807 854.444 133.643C854.443 135.463 854.237 137.276 853.832 139.051C853.263 140.64 852.437 142.128 851.384 143.458C850.245 144.721 848.857 145.744 847.303 146.463C845.477 147.137 843.54 147.477 841.589 147.464H839.345L836.896 146.863L834.448 145.461C833.638 144.998 832.996 144.298 832.611 143.458H832.407V157.279H827.918V120.223H832.407ZM849.139 129.637C848.804 128.478 848.251 127.391 847.507 126.432C846.767 125.545 845.868 124.799 844.854 124.229C843.646 123.661 842.316 123.386 840.977 123.428C839.571 123.362 838.169 123.637 836.896 124.229C835.827 124.808 834.917 125.633 834.244 126.633C833.564 127.602 833.079 128.69 832.815 129.838C832.416 130.999 832.209 132.217 832.203 133.443C832.19 134.736 832.397 136.022 832.815 137.249C833.492 139.572 835.018 141.569 837.101 142.857C838.367 143.466 839.773 143.742 841.181 143.658C842.579 143.626 843.96 143.355 845.262 142.857C846.272 142.272 847.115 141.445 847.711 140.454C848.426 139.43 848.913 138.27 849.139 137.048C849.489 135.811 849.627 134.525 849.547 133.243C849.615 132.027 849.477 130.809 849.139 129.637Z" fill="white"/>
<path id="Vector_9" d="M859.341 128.035C859.899 126.399 860.803 124.897 861.994 123.628C863.17 122.318 864.636 121.29 866.279 120.624C868.148 119.85 870.172 119.508 872.196 119.622C874.22 119.528 876.239 119.87 878.114 120.624C879.668 121.343 881.056 122.365 882.195 123.628C883.386 124.897 884.29 126.399 884.847 128.035C885.498 129.837 885.843 131.732 885.867 133.643C885.843 135.49 885.498 137.319 884.847 139.052C884.29 140.688 883.386 142.19 882.195 143.458C881.056 144.721 879.668 145.744 878.114 146.463C876.213 147.12 874.212 147.459 872.196 147.464C870.179 147.475 868.176 147.136 866.279 146.463C864.636 145.796 863.17 144.768 861.994 143.458C860.803 142.19 859.899 140.688 859.341 139.052C858.756 137.308 858.48 135.479 858.525 133.643C858.48 131.743 858.756 129.847 859.341 128.035ZM864.034 137.85C864.398 139.038 865.026 140.132 865.871 141.055C866.737 141.834 867.696 142.506 868.728 143.058C869.836 143.467 871.012 143.67 872.196 143.659C873.313 143.655 874.419 143.451 875.461 143.058C876.493 142.506 877.452 141.834 878.318 141.055C879.163 140.132 879.79 139.038 880.154 137.85C880.661 136.502 880.937 135.08 880.97 133.643C880.952 132.14 880.676 130.65 880.154 129.237C879.79 128.049 879.163 126.954 878.318 126.032C877.452 125.253 876.493 124.58 875.461 124.029C874.419 123.635 873.313 123.432 872.196 123.428C871.012 123.416 869.836 123.62 868.728 124.029C867.696 124.58 866.737 125.253 865.871 126.032C865.026 126.954 864.398 128.049 864.034 129.237C863.589 130.664 863.383 132.152 863.422 133.643C863.394 135.069 863.601 136.489 864.034 137.85Z" fill="white"/>
<path id="Vector_10" d="M896.274 120.223H891.581V146.964H896.274V120.223Z" fill="white"/>
<path id="Vector_11" d="M907.7 120.223V124.429C908.651 122.893 910.005 121.636 911.62 120.79C913.236 119.944 915.053 119.541 916.883 119.622C918.469 119.582 920.052 119.785 921.576 120.223C922.699 120.724 923.733 121.4 924.636 122.226C925.317 123.195 925.801 124.283 926.065 125.431C926.483 126.657 926.69 127.943 926.677 129.237V146.863H921.984V128.836C922.033 128.108 921.932 127.378 921.687 126.69C921.441 126.001 921.056 125.369 920.555 124.83C919.976 124.323 919.297 123.937 918.56 123.696C917.823 123.454 917.044 123.363 916.27 123.428C915.018 123.396 913.772 123.6 912.598 124.029C911.594 124.44 910.691 125.055 909.945 125.831C909.275 126.582 908.786 127.473 908.517 128.435C908.1 129.524 907.893 130.678 907.904 131.841V146.863H903.211V120.223H907.7Z" fill="white"/>
<path id="Vector_12" d="M945.653 120.223V124.029H939.94V140.654C939.972 141.06 940.04 141.462 940.144 141.856C940.144 142.256 940.348 142.457 940.756 142.657H945.653V146.463H938.92L936.879 145.662C936.376 145.164 936.023 144.541 935.859 143.859C935.495 142.9 935.355 141.873 935.451 140.854V124.029H930.554V120.223H935.451V112.211H939.94V120.223H945.653Z" fill="white"/>
<path id="Vector_13" d="M678.148 130.439L682.433 134.445L695.9 146.863L701.614 141.255C701.901 140.957 702.061 140.563 702.061 140.153C702.061 139.743 701.901 139.349 701.614 139.052L696.309 134.445L690.595 129.036C690.279 128.674 690.105 128.212 690.105 127.734C690.105 127.257 690.279 126.795 690.595 126.432L706.103 111.81L698.961 105L682.433 120.824L678.148 124.83C677.753 125.187 677.437 125.62 677.22 126.103C677.004 126.585 676.893 127.107 676.893 127.634C676.893 128.162 677.004 128.683 677.22 129.166C677.437 129.649 677.753 130.082 678.148 130.439Z" fill="white"/>
<path id="Vector_14" d="M724.059 137.449L719.774 133.443L706.307 121.024L700.594 126.633C700.307 126.931 700.147 127.325 700.147 127.735C700.147 128.144 700.307 128.539 700.594 128.836L705.899 133.443L711.612 139.052C711.913 139.382 712.08 139.81 712.08 140.254C712.08 140.697 711.913 141.125 711.612 141.455L696.104 156.078L703.246 162.888L719.774 147.064L724.059 143.058C724.455 142.701 724.771 142.268 724.987 141.785C725.203 141.302 725.315 140.781 725.315 140.254C725.315 139.726 725.203 139.205 724.987 138.722C724.771 138.239 724.455 137.806 724.059 137.449Z" fill="white"/>
<path id="Vector_15" d="M774.458 114.615C774.458 115.305 774.179 115.968 773.681 116.456C773.184 116.944 772.509 117.219 771.806 117.219C771.102 117.219 770.427 116.944 769.93 116.456C769.432 115.968 769.153 115.305 769.153 114.615C769.153 113.924 769.432 113.262 769.93 112.773C770.427 112.285 771.102 112.011 771.806 112.011C772.509 112.011 773.184 112.285 773.681 112.773C774.179 113.262 774.458 113.924 774.458 114.615Z" fill="white"/>
<path id="Vector_16" d="M896.478 114.615C896.478 115.305 896.199 115.968 895.701 116.456C895.204 116.944 894.529 117.219 893.825 117.219C893.122 117.219 892.447 116.944 891.95 116.456C891.452 115.968 891.173 115.305 891.173 114.615C891.173 113.924 891.452 113.262 891.95 112.773C892.447 112.285 893.122 112.011 893.825 112.011C894.529 112.011 895.204 112.285 895.701 112.773C896.199 113.262 896.478 113.924 896.478 114.615Z" fill="white"/>
</g>
<path id="THE PRINCIPLES OF BEAUTIFUL WEB DESIGN" d="M136.321 316.198V306.694H80.065V316.198H102.817V374.854H113.665V316.198H136.321ZM201.429 306.694H190.581V335.206H156.213V306.694H145.461V374.854H156.213V344.806H190.581V374.854H201.429V306.694ZM263.557 365.35H227.557V344.518H257.989V335.59H227.557V316.198H262.693V306.694H216.805V374.854H263.557V365.35ZM298.368 374.854H309.12V351.142H327.552C330.624 351.142 333.408 350.566 335.904 349.318C338.4 348.07 340.608 346.438 342.432 344.326C344.16 342.214 345.6 339.91 346.56 337.222C347.52 334.534 348.096 331.75 348.096 328.87C348.096 326.182 347.52 323.494 346.464 320.806C345.408 318.118 343.968 315.814 342.144 313.702C340.224 311.59 338.016 309.958 335.424 308.614C332.832 307.366 330.048 306.694 326.976 306.694H298.368V374.854ZM309.12 341.638V316.198H326.304C327.648 316.198 328.992 316.582 330.336 317.158C331.68 317.734 332.832 318.598 333.888 319.75C334.848 320.902 335.712 322.15 336.288 323.686C336.864 325.222 337.152 326.95 337.152 328.87C337.152 330.79 336.864 332.422 336.384 333.958C335.808 335.494 335.136 336.838 334.272 337.99C333.312 339.142 332.256 340.102 331.008 340.678C329.76 341.35 328.416 341.638 326.88 341.638H309.12ZM358.18 374.854H368.932V351.142H384.676L399.46 374.854H411.652L395.62 348.934C397.54 348.358 399.364 347.398 401.092 346.054C402.724 344.71 404.164 343.174 405.316 341.35C406.468 339.622 407.332 337.606 408.004 335.494C408.58 333.382 408.964 331.174 408.964 328.87C408.964 326.182 408.388 323.494 407.332 320.806C406.276 318.118 404.836 315.814 403.012 313.702C401.092 311.59 398.884 309.958 396.292 308.614C393.7 307.366 390.916 306.694 387.844 306.694H358.18V374.854ZM368.932 341.638V316.198H387.172C388.516 316.198 389.86 316.582 391.204 317.254C392.548 317.926 393.7 318.79 394.66 319.942C395.62 321.094 396.484 322.438 397.06 323.974C397.636 325.51 398.02 327.142 398.02 328.87C398.02 330.598 397.732 332.23 397.252 333.766C396.676 335.302 396.004 336.742 395.14 337.894C394.18 339.046 393.124 340.006 391.876 340.678C390.628 341.35 389.284 341.638 387.748 341.638H368.932ZM421.649 374.854H432.401V306.694H421.649V374.854ZM458.557 326.854L497.149 374.854H506.077V306.79H495.229V355.846L456.253 306.694H447.805V374.854H458.557V326.854ZM517.079 340.294C517.079 344.71 517.847 348.934 519.479 353.158C521.015 357.382 523.319 361.126 526.199 364.39C529.079 367.654 532.439 370.342 536.471 372.358C540.407 374.47 544.823 375.43 549.623 375.43C552.311 375.43 554.999 375.142 557.783 374.374C560.567 373.702 563.255 372.646 565.751 371.302C568.247 369.958 570.455 368.326 572.471 366.406C574.391 364.486 575.927 362.182 577.079 359.59L568.151 354.502C567.191 356.518 566.039 358.246 564.695 359.59C563.351 361.03 561.815 362.182 560.183 363.142C558.551 364.102 556.823 364.774 555.095 365.158C553.367 365.542 551.639 365.734 550.007 365.734C546.743 365.734 543.863 365.062 541.175 363.718C538.487 362.374 536.087 360.454 534.167 358.15C532.247 355.846 530.711 353.254 529.655 350.182C528.503 347.206 528.023 344.038 528.023 340.678C528.023 337.798 528.407 334.822 529.367 331.846C530.327 328.966 531.671 326.278 533.495 323.878C535.319 321.574 537.623 319.654 540.311 318.214C542.999 316.774 546.071 316.006 549.719 316.006C551.255 316.006 552.983 316.198 554.711 316.582C556.439 316.966 558.071 317.542 559.703 318.31C561.239 319.174 562.775 320.326 564.119 321.67C565.463 323.11 566.615 324.838 567.575 326.854L576.023 321.19C573.719 316.774 570.455 313.222 566.039 310.438C561.623 307.75 556.247 306.31 550.103 306.31C544.919 306.31 540.215 307.366 536.183 309.286C532.055 311.302 528.599 313.894 525.719 317.158C522.839 320.422 520.727 324.07 519.287 328.102C517.751 332.134 517.079 336.262 517.079 340.294ZM587.024 374.854H597.776V306.694H587.024V374.854ZM613.18 374.854H623.932V351.142H642.364C645.436 351.142 648.22 350.566 650.716 349.318C653.212 348.07 655.42 346.438 657.244 344.326C658.972 342.214 660.412 339.91 661.372 337.222C662.332 334.534 662.908 331.75 662.908 328.87C662.908 326.182 662.332 323.494 661.276 320.806C660.22 318.118 658.78 315.814 656.956 313.702C655.036 311.59 652.828 309.958 650.236 308.614C647.644 307.366 644.86 306.694 641.788 306.694H613.18V374.854ZM623.932 341.638V316.198H641.116C642.46 316.198 643.804 316.582 645.148 317.158C646.492 317.734 647.644 318.598 648.7 319.75C649.66 320.902 650.524 322.15 651.1 323.686C651.676 325.222 651.964 326.95 651.964 328.87C651.964 330.79 651.676 332.422 651.196 333.958C650.62 335.494 649.948 336.838 649.084 337.99C648.124 339.142 647.068 340.102 645.82 340.678C644.572 341.35 643.228 341.638 641.692 341.638H623.932ZM672.993 374.854H720.321V365.35H683.745V306.694H672.993V374.854ZM775.807 365.35H739.807V344.518H770.239V335.59H739.807V316.198H774.943V306.694H729.055V374.854H775.807V365.35ZM825.812 322.726L830.708 313.894C827.733 311.782 824.277 309.958 820.437 308.422C816.501 306.982 812.277 306.214 807.669 306.214C804.117 306.214 800.853 306.694 797.877 307.558C794.805 308.518 792.213 309.862 790.005 311.59C787.797 313.318 786.069 315.526 784.821 318.118C783.477 320.71 782.901 323.686 782.901 326.95C782.901 329.638 783.285 331.942 784.148 333.862C785.013 335.782 786.261 337.414 787.989 338.758C789.621 340.198 791.733 341.446 794.229 342.406C796.725 343.366 799.701 344.326 803.156 345.19C806.036 345.958 808.725 346.726 811.029 347.398C813.333 348.166 815.253 348.934 816.885 349.798C818.421 350.662 819.669 351.622 820.533 352.774C821.397 353.926 821.877 355.366 821.877 357.094C821.877 359.974 820.725 362.182 818.421 363.622C816.117 365.158 812.853 365.83 808.629 365.83C805.941 365.83 803.445 365.542 801.045 364.966C798.549 364.39 796.341 363.622 794.229 362.758C792.117 361.894 790.293 360.934 788.757 359.878C787.221 358.918 785.973 357.958 785.205 357.094L780.309 366.31C784.148 369.382 788.565 371.686 793.365 373.222C798.165 374.758 803.253 375.526 808.437 375.526C811.893 375.526 815.061 375.238 818.133 374.47C821.109 373.702 823.701 372.55 826.005 371.014C828.309 369.478 830.037 367.366 831.381 364.87C832.725 362.374 833.397 359.398 833.397 355.942C833.397 352.87 832.821 350.278 831.765 348.166C830.708 346.054 829.269 344.23 827.349 342.694C825.429 341.254 823.029 340.006 820.245 338.95C817.461 337.99 814.389 337.03 810.933 336.166C808.053 335.494 805.653 334.822 803.541 334.246C801.429 333.67 799.605 332.902 798.261 332.134C796.821 331.366 795.765 330.406 795.093 329.35C794.421 328.294 794.133 326.95 794.133 325.222C794.133 322.342 795.189 320.038 797.301 318.31C799.413 316.678 802.773 315.814 807.381 315.814C809.397 315.814 811.413 316.102 813.333 316.486C815.253 316.966 817.077 317.542 818.709 318.214C820.341 318.982 821.781 319.75 823.029 320.518C824.181 321.286 825.141 322.054 825.812 322.726ZM896.219 375.334C900.827 375.334 905.147 374.47 909.179 372.55C913.211 370.63 916.667 368.134 919.643 364.966C922.523 361.798 924.827 358.15 926.459 353.926C928.091 349.798 928.955 345.478 928.955 340.87C928.955 336.646 928.091 332.422 926.555 328.294C925.019 324.166 922.811 320.422 919.931 317.158C917.051 313.894 913.691 311.302 909.659 309.286C905.627 307.27 901.211 306.214 896.411 306.214C891.611 306.214 887.291 307.174 883.259 309.094C879.227 311.014 875.771 313.51 872.891 316.678C870.011 319.942 867.707 323.59 866.075 327.718C864.347 331.942 863.579 336.262 863.579 340.774C863.579 345.19 864.347 349.414 865.883 353.542C867.419 357.766 869.723 361.414 872.603 364.678C875.483 367.942 878.843 370.534 882.875 372.454C886.907 374.374 891.323 375.334 896.219 375.334ZM874.523 340.774C874.523 337.702 875.003 334.726 875.963 331.75C876.923 328.774 878.363 326.086 880.283 323.782C882.107 321.478 884.411 319.654 887.099 318.214C889.787 316.774 892.859 316.006 896.315 316.006C899.579 316.006 902.459 316.774 905.147 318.118C907.835 319.462 910.043 321.286 911.963 323.59C913.883 325.894 915.323 328.486 916.379 331.462C917.339 334.438 917.915 337.51 917.915 340.774C917.915 343.846 917.435 346.918 916.475 349.798C915.515 352.774 914.075 355.462 912.251 357.766C910.331 360.166 908.123 362.086 905.435 363.526C902.747 364.966 899.771 365.638 896.315 365.638C892.955 365.638 889.979 364.966 887.291 363.622C884.603 362.278 882.299 360.358 880.379 358.054C878.459 355.75 877.019 353.158 876.059 350.086C875.003 347.11 874.523 344.038 874.523 340.774ZM940.086 374.854H950.838V345.478H979.83V336.55H950.838V316.198H985.494V306.694H940.086V374.854ZM281.57 479.136C281.57 472.566 279.818 467.018 276.314 462.346C272.81 457.674 268.138 454.462 262.298 452.71C266.97 450.666 270.62 447.308 273.248 442.928C275.876 438.548 277.19 433.73 277.19 428.62C277.19 425.408 276.606 422.342 275.438 419.13C274.27 415.918 272.81 413.144 270.766 410.662C268.722 408.18 266.24 406.136 263.32 404.53C260.4 403.07 257.042 402.194 253.538 402.194H200.102V505.854H249.596C253.976 505.854 258.064 505.27 262.006 504.102C265.802 502.934 269.16 501.182 272.08 498.846C275 496.51 277.19 493.736 278.942 490.378C280.694 487.166 281.57 483.37 281.57 479.136ZM264.78 476.07C264.78 478.26 264.342 480.304 263.612 482.202C262.736 484.1 261.714 485.706 260.4 487.166C258.94 488.626 257.334 489.648 255.582 490.524C253.684 491.4 251.64 491.692 249.596 491.692H216.454V460.01H250.618C252.662 460.01 254.56 460.448 256.312 461.324C258.064 462.2 259.524 463.368 260.692 464.828C261.86 466.288 262.882 468.04 263.612 469.938C264.342 471.982 264.78 474.026 264.78 476.07ZM216.454 416.356H247.406C251.202 416.356 254.414 417.816 257.042 420.736C259.524 423.656 260.838 427.306 260.838 431.686C260.838 434.022 260.4 436.066 259.67 437.818C258.94 439.716 257.918 441.322 256.604 442.636C255.29 443.95 253.83 444.972 252.078 445.702C250.326 446.578 248.574 446.87 246.53 446.87H216.454V416.356ZM369.725 491.4H314.975V459.718H361.257V446.14H314.975V416.648H368.411V402.194H298.623V505.854H369.725V491.4ZM417.108 402.194L375.936 505.854H393.31L404.114 477.676H444.118L455.068 505.854H472.296L431.416 402.194H417.108ZM440.906 465.558H407.034L424.262 421.028L440.906 465.558ZM523.769 491.838C518.367 491.838 513.841 490.816 510.191 488.772C506.541 486.728 503.621 483.954 501.431 480.45C499.241 476.946 497.635 473.004 496.759 468.624C495.883 464.244 495.445 459.572 495.445 454.754V402.194H479.093V454.754C479.093 461.47 479.823 468.04 481.429 474.172C482.889 480.45 485.517 485.998 489.021 490.816C492.525 495.634 497.051 499.43 502.745 502.35C508.439 505.27 515.447 506.584 523.769 506.584C531.653 506.584 538.515 505.27 544.209 502.496C549.903 499.868 554.575 496.072 558.225 491.4C561.729 486.728 564.357 481.18 566.109 474.902C567.715 468.624 568.591 461.908 568.591 454.754V402.194H552.093V454.754C552.093 459.426 551.509 464.098 550.633 468.478C549.757 472.858 548.151 476.8 545.961 480.304C543.771 483.808 540.851 486.582 537.347 488.626C533.697 490.816 529.171 491.838 523.769 491.838ZM666.404 416.648V402.194H580.848V416.648H615.45V505.854H631.948V416.648H666.404ZM680.305 505.854H696.657V402.194H680.305V505.854ZM720.084 505.854H736.436V461.178H780.528V447.6H736.436V416.648H789.142V402.194H720.084V505.854ZM847.849 491.838C842.447 491.838 837.921 490.816 834.271 488.772C830.621 486.728 827.701 483.954 825.511 480.45C823.321 476.946 821.715 473.004 820.839 468.624C819.963 464.244 819.525 459.572 819.525 454.754V402.194H803.173V454.754C803.173 461.47 803.903 468.04 805.509 474.172C806.969 480.45 809.597 485.998 813.101 490.816C816.605 495.634 821.131 499.43 826.825 502.35C832.519 505.27 839.527 506.584 847.849 506.584C855.733 506.584 862.595 505.27 868.289 502.496C873.983 499.868 878.655 496.072 882.305 491.4C885.809 486.728 888.437 481.18 890.189 474.902C891.795 468.624 892.671 461.908 892.671 454.754V402.194H876.173V454.754C876.173 459.426 875.589 464.098 874.713 468.478C873.837 472.858 872.231 476.8 870.041 480.304C867.851 483.808 864.931 486.582 861.427 488.626C857.777 490.816 853.251 491.838 847.849 491.838ZM914.418 505.854H986.396V491.4H930.77V402.194H914.418V505.854ZM124.257 537.632L142.069 583.768L126.593 621.874L94.1812 537.194H76.3692L119.147 640.854H133.163L152.581 594.426L171.853 640.854H185.869L228.647 537.194H210.689L178.423 621.874L162.947 583.768L180.613 537.632H165.283L152.435 572.818L139.733 537.632H124.257ZM311.981 626.4H257.231V594.718H303.513V581.14H257.231V551.648H310.667V537.194H240.879V640.854H311.981V626.4ZM410.318 614.136C410.318 607.566 408.566 602.018 405.062 597.346C401.558 592.674 396.886 589.462 391.046 587.71C395.718 585.666 399.368 582.308 401.996 577.928C404.624 573.548 405.938 568.73 405.938 563.62C405.938 560.408 405.354 557.342 404.186 554.13C403.018 550.918 401.558 548.144 399.514 545.662C397.47 543.18 394.988 541.136 392.068 539.53C389.148 538.07 385.79 537.194 382.286 537.194H328.85V640.854H378.344C382.724 640.854 386.812 640.27 390.754 639.102C394.55 637.934 397.908 636.182 400.828 633.846C403.748 631.51 405.938 628.736 407.69 625.378C409.442 622.166 410.318 618.37 410.318 614.136ZM393.528 611.07C393.528 613.26 393.09 615.304 392.36 617.202C391.484 619.1 390.462 620.706 389.148 622.166C387.688 623.626 386.082 624.648 384.33 625.524C382.432 626.4 380.388 626.692 378.344 626.692H345.202V595.01H379.366C381.41 595.01 383.308 595.448 385.06 596.324C386.812 597.2 388.272 598.368 389.44 599.828C390.608 601.288 391.63 603.04 392.36 604.938C393.09 606.982 393.528 609.026 393.528 611.07ZM345.202 551.356H376.154C379.95 551.356 383.162 552.816 385.79 555.736C388.272 558.656 389.586 562.306 389.586 566.686C389.586 569.022 389.148 571.066 388.418 572.818C387.688 574.716 386.666 576.322 385.352 577.636C384.038 578.95 382.578 579.972 380.826 580.702C379.074 581.578 377.322 581.87 375.278 581.87H345.202V551.356ZM463.444 640.854H500.236C507.828 640.854 514.836 639.686 521.114 637.204C527.246 634.722 532.648 631.218 537.028 626.692C541.408 622.166 544.766 616.764 547.102 610.34C549.438 603.916 550.752 596.762 550.752 588.878C550.752 581.87 549.584 575.154 547.54 568.876C545.35 562.598 542.138 557.05 537.904 552.378C533.67 547.706 528.414 544.056 522.136 541.282C515.858 538.654 508.558 537.194 500.236 537.194H463.444V640.854ZM534.108 588.878C534.108 594.28 533.378 599.244 531.918 603.77C530.458 608.442 528.268 612.384 525.348 615.742C522.428 619.1 518.924 621.728 514.69 623.626C510.456 625.524 505.638 626.4 500.236 626.4H479.796V551.648H500.236C505.492 551.648 510.31 552.67 514.544 554.422C518.632 556.32 522.282 558.948 525.202 562.16C528.122 565.372 530.312 569.314 531.772 573.84C533.232 578.512 534.108 583.476 534.108 588.878ZM639.055 626.4H584.305V594.718H630.587V581.14H584.305V551.648H637.741V537.194H567.953V640.854H639.055V626.4ZM715.105 561.576L722.551 548.144C718.025 544.932 712.769 542.158 706.929 539.822C700.943 537.632 694.519 536.464 687.511 536.464C682.109 536.464 677.145 537.194 672.619 538.508C667.947 539.968 664.005 542.012 660.647 544.64C657.289 547.268 654.661 550.626 652.763 554.568C650.719 558.51 649.843 563.036 649.843 568C649.843 572.088 650.427 575.592 651.741 578.512C653.055 581.432 654.953 583.914 657.581 585.958C660.063 588.148 663.275 590.046 667.071 591.506C670.867 592.966 675.393 594.426 680.649 595.74C685.029 596.908 689.117 598.076 692.621 599.098C696.125 600.266 699.045 601.434 701.527 602.748C703.863 604.062 705.761 605.522 707.075 607.274C708.389 609.026 709.119 611.216 709.119 613.844C709.119 618.224 707.367 621.582 703.863 623.772C700.359 626.108 695.395 627.13 688.971 627.13C684.883 627.13 681.087 626.692 677.437 625.816C673.641 624.94 670.283 623.772 667.071 622.458C663.859 621.144 661.085 619.684 658.749 618.078C656.413 616.618 654.515 615.158 653.347 613.844L645.901 627.86C651.741 632.532 658.457 636.036 665.757 638.372C673.057 640.708 680.795 641.876 688.679 641.876C693.935 641.876 698.753 641.438 703.425 640.27C707.951 639.102 711.893 637.35 715.397 635.014C718.901 632.678 721.529 629.466 723.573 625.67C725.617 621.874 726.639 617.348 726.639 612.092C726.639 607.42 725.763 603.478 724.157 600.266C722.551 597.054 720.361 594.28 717.441 591.944C714.521 589.754 710.871 587.856 706.637 586.25C702.403 584.79 697.731 583.33 692.475 582.016C688.095 580.994 684.445 579.972 681.233 579.096C678.021 578.22 675.247 577.052 673.203 575.884C671.013 574.716 669.407 573.256 668.385 571.65C667.363 570.044 666.925 568 666.925 565.372C666.925 560.992 668.531 557.488 671.743 554.86C674.955 552.378 680.065 551.064 687.073 551.064C690.139 551.064 693.205 551.502 696.125 552.086C699.045 552.816 701.819 553.692 704.301 554.714C706.783 555.882 708.973 557.05 710.871 558.218C712.623 559.386 714.083 560.554 715.105 561.576ZM743.039 640.854H759.391V537.194H743.039V640.854ZM855.381 628.006V640.854H869.105V588.44H833.627V600.558H855.381V611.654C851.001 616.91 846.329 620.852 841.511 623.188C836.693 625.67 831.729 626.838 826.473 626.838C821.655 626.838 817.275 625.962 813.187 623.918C809.099 621.874 805.449 619.246 802.529 615.742C799.609 612.384 797.273 608.442 795.521 603.77C793.769 599.244 793.039 594.28 793.039 589.024C793.039 584.06 793.769 579.388 795.229 574.716C796.689 570.19 798.879 566.248 801.799 562.744C804.573 559.24 807.931 556.466 812.019 554.422C815.961 552.378 820.341 551.21 825.305 551.21C831.145 551.21 836.693 552.67 841.657 555.444C846.621 558.364 850.417 562.598 853.337 568.146L865.893 559.094C862.389 552.378 857.425 546.83 850.709 542.742C843.993 538.654 835.671 536.464 825.743 536.464C818.589 536.464 812.019 537.924 806.033 540.698C799.901 543.472 794.791 547.268 790.411 551.94C786.031 556.758 782.527 562.306 780.045 568.584C777.563 575.008 776.395 581.578 776.395 588.586C776.395 595.594 777.563 602.31 780.045 608.734C782.527 615.158 786.031 620.852 790.411 625.67C794.791 630.634 799.901 634.43 805.887 637.35C811.727 640.27 818.151 641.584 825.159 641.584C836.547 641.584 846.621 637.058 855.381 628.006ZM904.108 567.854L962.8 640.854H976.378V537.34H959.88V611.946L900.604 537.194H887.756V640.854H904.108V567.854Z" fill="white"/>
<path id="BY JASON BEAIRD &#38; ALEX WALKER" d="M601.96 728.608C601.96 727.528 601.672 726.616 601.096 725.848C600.52 725.08 599.752 724.552 598.792 724.264C599.56 723.928 600.16 723.376 600.592 722.656C601.024 721.936 601.24 721.144 601.24 720.304C601.24 719.776 601.144 719.272 600.952 718.744C600.76 718.216 600.52 717.76 600.184 717.352C599.848 716.944 599.44 716.608 598.96 716.344C598.48 716.104 597.928 715.96 597.352 715.96H588.568V733H596.704C597.424 733 598.096 732.904 598.744 732.712C599.368 732.52 599.92 732.232 600.4 731.848C600.88 731.464 601.24 731.008 601.528 730.456C601.816 729.928 601.96 729.304 601.96 728.608ZM599.2 728.104C599.2 728.464 599.128 728.8 599.008 729.112C598.864 729.424 598.696 729.688 598.48 729.928C598.24 730.168 597.976 730.336 597.688 730.48C597.376 730.624 597.04 730.672 596.704 730.672H591.256V725.464H596.872C597.208 725.464 597.52 725.536 597.808 725.68C598.096 725.824 598.336 726.016 598.528 726.256C598.72 726.496 598.888 726.784 599.008 727.096C599.128 727.432 599.2 727.768 599.2 728.104ZM591.256 718.288H596.344C596.968 718.288 597.496 718.528 597.928 719.008C598.336 719.488 598.552 720.088 598.552 720.808C598.552 721.192 598.48 721.528 598.36 721.816C598.24 722.128 598.072 722.392 597.856 722.608C597.64 722.824 597.4 722.992 597.112 723.112C596.824 723.256 596.536 723.304 596.2 723.304H591.256V718.288ZM605.309 715.96H602.357L608.669 726.856V733H611.357V726.904L617.717 715.96H614.765L610.013 724.504L605.309 715.96ZM623.255 730L622.607 732.208C623.615 732.928 624.863 733.264 626.303 733.264C627.647 733.264 628.703 733.072 629.519 732.64C630.311 732.232 630.911 731.656 631.343 730.888C631.751 730.144 632.015 729.232 632.159 728.176C632.279 727.12 632.351 725.92 632.351 724.624V715.96H629.639V724.624C629.639 725.656 629.591 726.568 629.519 727.336C629.447 728.104 629.303 728.752 629.063 729.28C628.823 729.808 628.487 730.192 628.055 730.456C627.623 730.72 627.023 730.84 626.303 730.84C625.607 730.84 624.983 730.768 624.455 730.576C623.927 730.384 623.519 730.192 623.255 730ZM640.67 715.96L633.902 733H636.758L638.534 728.368H645.11L646.91 733H649.742L643.022 715.96H640.67ZM644.582 726.376H639.014L641.846 719.056L644.582 726.376ZM661.672 719.968L662.896 717.76C662.152 717.232 661.288 716.776 660.328 716.392C659.344 716.032 658.288 715.84 657.136 715.84C656.248 715.84 655.432 715.96 654.688 716.176C653.92 716.416 653.272 716.752 652.72 717.184C652.168 717.616 651.736 718.168 651.424 718.816C651.088 719.464 650.944 720.208 650.944 721.024C650.944 721.696 651.04 722.272 651.256 722.752C651.472 723.232 651.784 723.64 652.216 723.976C652.624 724.336 653.152 724.648 653.776 724.888C654.4 725.128 655.144 725.368 656.008 725.584C656.728 725.776 657.4 725.968 657.976 726.136C658.552 726.328 659.032 726.52 659.44 726.736C659.824 726.952 660.136 727.192 660.352 727.48C660.568 727.768 660.688 728.128 660.688 728.56C660.688 729.28 660.4 729.832 659.824 730.192C659.248 730.576 658.432 730.744 657.376 730.744C656.704 730.744 656.08 730.672 655.48 730.528C654.856 730.384 654.304 730.192 653.776 729.976C653.248 729.76 652.792 729.52 652.408 729.256C652.024 729.016 651.712 728.776 651.52 728.56L650.296 730.864C651.256 731.632 652.36 732.208 653.56 732.592C654.76 732.976 656.032 733.168 657.328 733.168C658.192 733.168 658.984 733.096 659.752 732.904C660.496 732.712 661.144 732.424 661.72 732.04C662.296 731.656 662.728 731.128 663.064 730.504C663.4 729.88 663.568 729.136 663.568 728.272C663.568 727.504 663.424 726.856 663.16 726.328C662.896 725.8 662.536 725.344 662.056 724.96C661.576 724.6 660.976 724.288 660.28 724.024C659.584 723.784 658.816 723.544 657.952 723.328C657.232 723.16 656.632 722.992 656.104 722.848C655.576 722.704 655.12 722.512 654.784 722.32C654.424 722.128 654.16 721.888 653.992 721.624C653.824 721.36 653.752 721.024 653.752 720.592C653.752 719.872 654.016 719.296 654.544 718.864C655.072 718.456 655.912 718.24 657.064 718.24C657.568 718.24 658.072 718.312 658.552 718.408C659.032 718.528 659.488 718.672 659.896 718.84C660.304 719.032 660.664 719.224 660.976 719.416C661.264 719.608 661.504 719.8 661.672 719.968ZM673.344 733.12C674.496 733.12 675.576 732.904 676.584 732.424C677.592 731.944 678.456 731.32 679.2 730.528C679.92 729.736 680.496 728.824 680.904 727.768C681.312 726.736 681.528 725.656 681.528 724.504C681.528 723.448 681.312 722.392 680.928 721.36C680.544 720.328 679.992 719.392 679.272 718.576C678.552 717.76 677.712 717.112 676.704 716.608C675.696 716.104 674.592 715.84 673.392 715.84C672.192 715.84 671.112 716.08 670.104 716.56C669.096 717.04 668.232 717.664 667.512 718.456C666.792 719.272 666.216 720.184 665.808 721.216C665.376 722.272 665.184 723.352 665.184 724.48C665.184 725.584 665.376 726.64 665.76 727.672C666.144 728.728 666.72 729.64 667.44 730.456C668.16 731.272 669 731.92 670.008 732.4C671.016 732.88 672.12 733.12 673.344 733.12ZM667.92 724.48C667.92 723.712 668.04 722.968 668.28 722.224C668.52 721.48 668.88 720.808 669.36 720.232C669.816 719.656 670.392 719.2 671.064 718.84C671.736 718.48 672.504 718.288 673.368 718.288C674.184 718.288 674.904 718.48 675.576 718.816C676.248 719.152 676.8 719.608 677.28 720.184C677.76 720.76 678.12 721.408 678.384 722.152C678.624 722.896 678.768 723.664 678.768 724.48C678.768 725.248 678.648 726.016 678.408 726.736C678.168 727.48 677.808 728.152 677.352 728.728C676.872 729.328 676.32 729.808 675.648 730.168C674.976 730.528 674.232 730.696 673.368 730.696C672.528 730.696 671.784 730.528 671.112 730.192C670.44 729.856 669.864 729.376 669.384 728.8C668.904 728.224 668.544 727.576 668.304 726.808C668.04 726.064 667.92 725.296 667.92 724.48ZM686.999 721L696.647 733H698.879V715.984H696.167V728.248L686.423 715.96H684.311V733H686.999V721ZM722.031 728.608C722.031 727.528 721.743 726.616 721.167 725.848C720.591 725.08 719.823 724.552 718.863 724.264C719.631 723.928 720.231 723.376 720.663 722.656C721.095 721.936 721.311 721.144 721.311 720.304C721.311 719.776 721.215 719.272 721.023 718.744C720.831 718.216 720.591 717.76 720.255 717.352C719.919 716.944 719.511 716.608 719.031 716.344C718.551 716.104 717.999 715.96 717.423 715.96H708.639V733H716.775C717.495 733 718.167 732.904 718.815 732.712C719.439 732.52 719.991 732.232 720.471 731.848C720.951 731.464 721.311 731.008 721.599 730.456C721.887 729.928 722.031 729.304 722.031 728.608ZM719.271 728.104C719.271 728.464 719.199 728.8 719.079 729.112C718.935 729.424 718.767 729.688 718.551 729.928C718.311 730.168 718.047 730.336 717.759 730.48C717.447 730.624 717.111 730.672 716.775 730.672H711.327V725.464H716.943C717.279 725.464 717.591 725.536 717.879 725.68C718.167 725.824 718.407 726.016 718.599 726.256C718.791 726.496 718.959 726.784 719.079 727.096C719.199 727.432 719.271 727.768 719.271 728.104ZM711.327 718.288H716.415C717.039 718.288 717.567 718.528 717.999 719.008C718.407 719.488 718.623 720.088 718.623 720.808C718.623 721.192 718.551 721.528 718.431 721.816C718.311 722.128 718.143 722.392 717.927 722.608C717.711 722.824 717.471 722.992 717.183 723.112C716.895 723.256 716.607 723.304 716.271 723.304H711.327V718.288ZM736.522 730.624H727.522V725.416H735.13V723.184H727.522V718.336H736.306V715.96H724.834V733H736.522V730.624ZM744.311 715.96L737.543 733H740.399L742.175 728.368H748.751L750.551 733H753.383L746.663 715.96H744.311ZM748.223 726.376H742.655L745.487 719.056L748.223 726.376ZM755.49 733H758.178V715.96H755.49V733ZM762.029 733H764.717V727.072H768.653L772.349 733H775.397L771.389 726.52C771.869 726.376 772.325 726.136 772.757 725.8C773.165 725.464 773.525 725.08 773.813 724.624C774.101 724.192 774.317 723.688 774.485 723.16C774.629 722.632 774.725 722.08 774.725 721.504C774.725 720.832 774.581 720.16 774.317 719.488C774.053 718.816 773.693 718.24 773.237 717.712C772.757 717.184 772.205 716.776 771.557 716.44C770.909 716.128 770.213 715.96 769.445 715.96H762.029V733ZM764.717 724.696V718.336H769.277C769.613 718.336 769.949 718.432 770.285 718.6C770.621 718.768 770.909 718.984 771.149 719.272C771.389 719.56 771.605 719.896 771.749 720.28C771.893 720.664 771.989 721.072 771.989 721.504C771.989 721.936 771.917 722.344 771.797 722.728C771.653 723.112 771.485 723.472 771.269 723.76C771.029 724.048 770.765 724.288 770.453 724.456C770.141 724.624 769.805 724.696 769.421 724.696H764.717ZM777.897 733H783.945C785.193 733 786.345 732.808 787.377 732.4C788.385 731.992 789.273 731.416 789.993 730.672C790.713 729.928 791.265 729.04 791.649 727.984C792.033 726.928 792.249 725.752 792.249 724.456C792.249 723.304 792.057 722.2 791.721 721.168C791.361 720.136 790.833 719.224 790.137 718.456C789.441 717.688 788.577 717.088 787.545 716.632C786.513 716.2 785.313 715.96 783.945 715.96H777.897V733ZM789.513 724.456C789.513 725.344 789.393 726.16 789.153 726.904C788.913 727.672 788.553 728.32 788.073 728.872C787.593 729.424 787.017 729.856 786.321 730.168C785.625 730.48 784.833 730.624 783.945 730.624H780.585V718.336H783.945C784.809 718.336 785.601 718.504 786.297 718.792C786.969 719.104 787.569 719.536 788.049 720.064C788.529 720.592 788.889 721.24 789.129 721.984C789.369 722.752 789.513 723.568 789.513 724.456ZM812.238 733H815.718L812.31 729.448C812.766 728.728 813.126 727.888 813.39 726.976C813.63 726.064 813.774 725.056 813.798 723.952H811.638C811.638 724.696 811.542 725.392 811.398 726.04C811.254 726.688 811.038 727.288 810.774 727.84L806.934 723.808C807.366 723.52 807.798 723.208 808.182 722.872C808.566 722.536 808.926 722.2 809.214 721.84C809.502 721.48 809.718 721.096 809.886 720.688C810.054 720.304 810.15 719.848 810.15 719.368C810.15 718.792 810.03 718.288 809.79 717.832C809.55 717.376 809.238 716.992 808.854 716.68C808.446 716.392 807.99 716.152 807.462 715.984C806.934 715.84 806.382 715.744 805.806 715.744C805.158 715.744 804.558 715.84 804.006 716.032C803.454 716.224 802.974 716.512 802.59 716.848C802.182 717.208 801.87 717.64 801.63 718.12C801.39 718.6 801.294 719.128 801.294 719.704C801.294 720.016 801.318 720.304 801.39 720.592C801.462 720.88 801.582 721.168 801.726 721.456C801.87 721.744 802.086 722.056 802.326 722.392C802.566 722.728 802.878 723.112 803.262 723.496C802.83 723.784 802.446 724.096 802.062 724.432C801.678 724.768 801.342 725.152 801.054 725.536C800.766 725.944 800.526 726.376 800.358 726.832C800.19 727.312 800.118 727.816 800.118 728.344C800.118 729.016 800.238 729.664 800.526 730.264C800.79 730.864 801.174 731.392 801.678 731.824C802.158 732.256 802.758 732.616 803.454 732.856C804.126 733.12 804.894 733.24 805.734 733.24C806.646 733.24 807.51 733.096 808.35 732.76C809.19 732.448 809.958 731.992 810.678 731.368L812.238 733ZM806.022 731.152C805.542 731.152 805.11 731.104 804.726 730.96C804.318 730.816 803.958 730.624 803.646 730.384C803.334 730.144 803.094 729.856 802.926 729.52C802.734 729.184 802.662 728.8 802.662 728.368C802.662 727.744 802.854 727.168 803.262 726.64C803.646 726.136 804.174 725.656 804.846 725.176L809.262 729.856C808.782 730.288 808.278 730.6 807.726 730.816C807.174 731.056 806.598 731.152 806.022 731.152ZM803.718 719.632C803.718 719.104 803.91 718.672 804.294 718.288C804.678 717.904 805.182 717.712 805.806 717.712C806.358 717.712 806.814 717.88 807.174 718.192C807.534 718.504 807.726 718.912 807.726 719.416C807.726 719.944 807.51 720.4 807.078 720.832C806.646 721.264 806.07 721.696 805.35 722.152C805.014 721.816 804.75 721.504 804.534 721.264C804.318 721.024 804.15 720.808 804.03 720.616C803.91 720.424 803.838 720.256 803.79 720.112C803.742 719.968 803.718 719.8 803.718 719.632ZM827.913 715.96L821.145 733H824.001L825.777 728.368H832.353L834.153 733H836.985L830.265 715.96H827.913ZM831.825 726.376H826.257L829.089 719.056L831.825 726.376ZM839.092 733H850.924V730.624H841.78V715.96H839.092V733ZM864.796 730.624H855.796V725.416H863.404V723.184H855.796V718.336H864.58V715.96H853.108V733H864.796V730.624ZM868.624 715.96H865.648L871.912 724.6L865.84 733H868.816L873.352 726.52L877.888 733H880.84L874.792 724.6L881.032 715.96H878.08L873.352 722.68L868.624 715.96ZM893.82 716.032L896.748 723.616L894.204 729.88L888.876 715.96H885.948L892.98 733H895.284L898.476 725.368L901.644 733H903.948L910.98 715.96H908.028L902.724 729.88L900.18 723.616L903.084 716.032H900.564L898.452 721.816L896.364 716.032H893.82ZM916.553 715.96L909.785 733H912.641L914.417 728.368H920.993L922.793 733H925.625L918.905 715.96H916.553ZM920.465 726.376H914.897L917.729 719.056L920.465 726.376ZM927.733 733H939.565V730.624H930.421V715.96H927.733V733ZM941.748 733H944.436V727.864L947.052 725.152L952.812 733H955.812L948.708 723.496L955.428 715.96H952.452L944.436 724.744V715.984H941.748V733ZM969.28 730.624H960.28V725.416H967.888V723.184H960.28V718.336H969.064V715.96H957.592V733H969.28V730.624ZM972.053 733H974.741V727.072H978.677L982.373 733H985.421L981.413 726.52C981.893 726.376 982.349 726.136 982.781 725.8C983.189 725.464 983.549 725.08 983.837 724.624C984.125 724.192 984.341 723.688 984.509 723.16C984.653 722.632 984.749 722.08 984.749 721.504C984.749 720.832 984.605 720.16 984.341 719.488C984.077 718.816 983.717 718.24 983.261 717.712C982.781 717.184 982.229 716.776 981.581 716.44C980.933 716.128 980.237 715.96 979.469 715.96H972.053V733ZM974.741 724.696V718.336H979.301C979.637 718.336 979.973 718.432 980.309 718.6C980.645 718.768 980.933 718.984 981.173 719.272C981.413 719.56 981.629 719.896 981.773 720.28C981.917 720.664 982.013 721.072 982.013 721.504C982.013 721.936 981.941 722.344 981.821 722.728C981.677 723.112 981.509 723.472 981.293 723.76C981.053 724.048 980.789 724.288 980.477 724.456C980.165 724.624 979.829 724.696 979.445 724.696H974.741Z" fill="white"/>
<path id="4TH EDITION" d="M797.463 693H801.751V687.848H804.567V683.976H801.751V670.28H798.807L787.895 684.008V687.848H797.463V693ZM792.215 683.976L797.943 676.744V683.976H792.215ZM825.173 674.152V670.28H806.261V674.152H813.525V693H817.909V674.152H825.173ZM847.097 670.28H842.713V679.464H832.409V670.28H827.993V693H832.409V683.304H842.713V693H847.097V670.28ZM875.3 689.128H863.94V683.208H873.508V679.624H863.94V674.152H875.012V670.28H859.524V693H875.3V689.128ZM878.743 693H886.999C888.695 693 890.231 692.744 891.607 692.2C892.983 691.656 894.167 690.888 895.159 689.896C896.119 688.904 896.887 687.72 897.399 686.312C897.911 684.904 898.199 683.336 898.199 681.608C898.199 680.072 897.943 678.6 897.495 677.224C897.015 675.848 896.311 674.632 895.383 673.608C894.423 672.584 893.271 671.784 891.863 671.176C890.455 670.6 888.855 670.28 886.999 670.28H878.743V693ZM893.751 681.608C893.751 682.696 893.591 683.688 893.303 684.584C892.983 685.512 892.567 686.312 891.991 686.984C891.415 687.656 890.711 688.168 889.879 688.552C889.047 688.936 888.087 689.128 886.999 689.128H883.159V674.152H886.999C888.055 674.152 889.015 674.344 889.847 674.696C890.679 675.08 891.415 675.592 891.991 676.232C892.567 676.904 892.983 677.704 893.303 678.6C893.591 679.528 893.751 680.52 893.751 681.608ZM901.649 693H906.065V670.28H901.649V693ZM927.798 674.152V670.28H908.886V674.152H916.15V693H920.534V674.152H927.798ZM930.618 693H935.034V670.28H930.618V693ZM949.47 693.16C951.07 693.16 952.542 692.872 953.918 692.232C955.262 691.592 956.446 690.76 957.438 689.704C958.398 688.648 959.166 687.432 959.742 686.056C960.286 684.68 960.574 683.24 960.574 681.704C960.574 680.296 960.286 678.888 959.774 677.48C959.23 676.104 958.494 674.856 957.534 673.768C956.574 672.68 955.39 671.816 954.046 671.144C952.702 670.472 951.198 670.12 949.566 670.12C947.966 670.12 946.462 670.44 945.118 671.08C943.742 671.72 942.558 672.552 941.566 673.608C940.574 674.696 939.806 675.912 939.23 677.288C938.654 678.696 938.398 680.136 938.398 681.64C938.398 683.112 938.654 684.52 939.198 685.896C939.71 687.304 940.478 688.52 941.438 689.608C942.398 690.696 943.582 691.56 944.926 692.2C946.27 692.84 947.806 693.16 949.47 693.16ZM942.878 681.64C942.878 680.712 943.006 679.784 943.294 678.888C943.582 677.992 943.998 677.16 944.574 676.456C945.118 675.752 945.822 675.176 946.654 674.728C947.486 674.28 948.414 674.056 949.502 674.056C950.526 674.056 951.422 674.28 952.254 674.696C953.086 675.112 953.758 675.656 954.334 676.36C954.91 677.064 955.326 677.896 955.646 678.792C955.966 679.72 956.126 680.68 956.126 681.64C956.126 682.6 955.966 683.528 955.678 684.424C955.39 685.32 954.974 686.152 954.398 686.856C953.822 687.592 953.15 688.168 952.318 688.616C951.486 689.064 950.558 689.256 949.502 689.256C948.446 689.256 947.518 689.064 946.686 688.616C945.854 688.2 945.182 687.624 944.606 686.92C944.03 686.216 943.614 685.416 943.326 684.488C943.006 683.592 942.878 682.632 942.878 681.64ZM968.378 678.44L980.058 693H983.642V670.312H979.226V685.192L967.386 670.28H963.962V693H968.378V678.44Z" fill="white"/>
<path id="DESIGNING GREAT WEB SITES IS NOT ROCKET SCIENCE!" d="M144.506 1202.85H151.73C153.214 1202.85 154.558 1202.63 155.762 1202.15C156.966 1201.68 158.002 1201.01 158.87 1200.14C159.71 1199.27 160.382 1198.23 160.83 1197C161.278 1195.77 161.53 1194.4 161.53 1192.89C161.53 1191.54 161.306 1190.25 160.914 1189.05C160.494 1187.85 159.878 1186.78 159.066 1185.89C158.226 1184.99 157.218 1184.29 155.986 1183.76C154.754 1183.25 153.354 1182.97 151.73 1182.97H144.506V1202.85ZM157.638 1192.89C157.638 1193.84 157.498 1194.71 157.246 1195.49C156.966 1196.3 156.602 1197 156.098 1197.59C155.594 1198.18 154.978 1198.63 154.25 1198.96C153.522 1199.3 152.682 1199.47 151.73 1199.47H148.37V1186.36H151.73C152.654 1186.36 153.494 1186.53 154.222 1186.84C154.95 1187.17 155.594 1187.62 156.098 1188.18C156.602 1188.77 156.966 1189.47 157.246 1190.25C157.498 1191.07 157.638 1191.93 157.638 1192.89ZM178.353 1199.47H168.413V1194.29H176.785V1191.15H168.413V1186.36H178.101V1182.97H164.549V1202.85H178.353V1199.47ZM192.799 1188.18L194.507 1185.05C193.611 1184.46 192.603 1183.95 191.427 1183.51C190.251 1183.06 188.963 1182.83 187.563 1182.83C186.555 1182.83 185.603 1182.97 184.735 1183.25C183.839 1183.53 183.083 1183.93 182.411 1184.43C181.739 1184.96 181.235 1185.61 180.871 1186.39C180.479 1187.17 180.311 1188.07 180.311 1189.08C180.311 1189.86 180.423 1190.51 180.647 1191.07C180.871 1191.63 181.235 1192.1 181.711 1192.52C182.159 1192.94 182.747 1193.31 183.447 1193.61C184.147 1193.92 184.987 1194.2 185.939 1194.45C186.723 1194.68 187.423 1194.9 188.067 1195.07C188.683 1195.27 189.243 1195.46 189.691 1195.69C190.139 1195.91 190.475 1196.19 190.727 1196.47C190.951 1196.78 191.091 1197.14 191.091 1197.56C191.091 1198.93 190.027 1199.61 187.899 1199.61C187.115 1199.61 186.387 1199.52 185.659 1199.33C184.931 1199.16 184.259 1198.93 183.671 1198.65C183.055 1198.37 182.551 1198.12 182.103 1197.84C181.655 1197.56 181.375 1197.34 181.207 1197.17L179.499 1200.5C180.647 1201.34 181.963 1201.96 183.419 1202.41C184.875 1202.85 186.331 1203.08 187.843 1203.08C188.795 1203.08 189.719 1202.99 190.615 1202.77C191.511 1202.55 192.295 1202.21 192.967 1201.73C193.639 1201.29 194.199 1200.67 194.591 1199.91C194.983 1199.16 195.207 1198.23 195.207 1197.17C195.207 1196.27 195.039 1195.49 194.759 1194.87C194.451 1194.26 194.031 1193.7 193.471 1193.25C192.911 1192.8 192.239 1192.44 191.455 1192.13C190.671 1191.85 189.775 1191.57 188.823 1191.29C188.067 1191.12 187.395 1190.93 186.835 1190.76C186.275 1190.59 185.799 1190.42 185.435 1190.2C185.043 1190 184.763 1189.78 184.567 1189.5C184.371 1189.22 184.287 1188.88 184.287 1188.46C184.287 1187.76 184.539 1187.2 185.071 1186.81C185.575 1186.42 186.387 1186.22 187.451 1186.22C188.039 1186.22 188.627 1186.31 189.215 1186.45C189.775 1186.61 190.307 1186.78 190.811 1187.01C191.315 1187.23 191.735 1187.43 192.071 1187.65C192.407 1187.87 192.659 1188.07 192.799 1188.18ZM198.127 1202.85H201.991V1182.97H198.127V1202.85ZM219.942 1200.61V1202.85H223.134V1192.63H215.938V1195.46H219.942V1196.86C218.374 1198.68 216.638 1199.58 214.734 1199.58C213.894 1199.58 213.11 1199.41 212.382 1199.07C211.654 1198.74 211.038 1198.26 210.534 1197.65C210.002 1197.06 209.582 1196.36 209.302 1195.55C208.994 1194.73 208.854 1193.87 208.854 1192.91C208.854 1192.02 208.966 1191.18 209.246 1190.37C209.526 1189.58 209.89 1188.85 210.394 1188.24C210.898 1187.62 211.486 1187.15 212.186 1186.78C212.886 1186.45 213.67 1186.25 214.51 1186.25C215.574 1186.25 216.554 1186.53 217.45 1187.03C218.346 1187.57 219.074 1188.32 219.578 1189.3L222.462 1187.17C221.79 1185.86 220.782 1184.79 219.438 1184.01C218.094 1183.23 216.498 1182.83 214.65 1182.83C213.25 1182.83 211.99 1183.11 210.814 1183.65C209.638 1184.18 208.602 1184.91 207.734 1185.8C206.866 1186.7 206.194 1187.76 205.69 1188.97C205.186 1190.17 204.962 1191.46 204.962 1192.8C204.962 1194.26 205.186 1195.6 205.69 1196.83C206.194 1198.07 206.866 1199.16 207.706 1200.05C208.546 1200.98 209.554 1201.71 210.702 1202.21C211.85 1202.74 213.082 1202.99 214.398 1202.99C216.498 1202.99 218.346 1202.21 219.942 1200.61ZM230.291 1190.11L240.511 1202.85H243.647V1183H239.783V1196.02L229.423 1182.97H226.427V1202.85H230.291V1190.11ZM247.783 1202.85H251.647V1182.97H247.783V1202.85ZM259.659 1190.11L269.879 1202.85H273.015V1183H269.151V1196.02L258.791 1182.97H255.795V1202.85H259.659V1190.11ZM290.954 1200.61V1202.85H294.146V1192.63H286.95V1195.46H290.954V1196.86C289.386 1198.68 287.65 1199.58 285.746 1199.58C284.906 1199.58 284.122 1199.41 283.394 1199.07C282.666 1198.74 282.05 1198.26 281.546 1197.65C281.014 1197.06 280.594 1196.36 280.314 1195.55C280.006 1194.73 279.866 1193.87 279.866 1192.91C279.866 1192.02 279.978 1191.18 280.258 1190.37C280.538 1189.58 280.902 1188.85 281.406 1188.24C281.91 1187.62 282.498 1187.15 283.198 1186.78C283.898 1186.45 284.682 1186.25 285.522 1186.25C286.586 1186.25 287.566 1186.53 288.462 1187.03C289.358 1187.57 290.086 1188.32 290.59 1189.3L293.474 1187.17C292.802 1185.86 291.794 1184.79 290.45 1184.01C289.106 1183.23 287.51 1182.83 285.662 1182.83C284.262 1182.83 283.002 1183.11 281.826 1183.65C280.65 1184.18 279.614 1184.91 278.746 1185.8C277.878 1186.7 277.206 1187.76 276.702 1188.97C276.198 1190.17 275.974 1191.46 275.974 1192.8C275.974 1194.26 276.198 1195.6 276.702 1196.83C277.206 1198.07 277.878 1199.16 278.718 1200.05C279.558 1200.98 280.566 1201.71 281.714 1202.21C282.862 1202.74 284.094 1202.99 285.41 1202.99C287.51 1202.99 289.358 1202.21 290.954 1200.61ZM317.97 1200.61V1202.85H321.162V1192.63H313.966V1195.46H317.97V1196.86C316.402 1198.68 314.666 1199.58 312.762 1199.58C311.922 1199.58 311.138 1199.41 310.41 1199.07C309.682 1198.74 309.066 1198.26 308.562 1197.65C308.03 1197.06 307.61 1196.36 307.33 1195.55C307.022 1194.73 306.882 1193.87 306.882 1192.91C306.882 1192.02 306.994 1191.18 307.274 1190.37C307.554 1189.58 307.918 1188.85 308.422 1188.24C308.926 1187.62 309.514 1187.15 310.214 1186.78C310.914 1186.45 311.698 1186.25 312.538 1186.25C313.602 1186.25 314.582 1186.53 315.478 1187.03C316.374 1187.57 317.102 1188.32 317.606 1189.3L320.49 1187.17C319.818 1185.86 318.81 1184.79 317.466 1184.01C316.122 1183.23 314.526 1182.83 312.678 1182.83C311.278 1182.83 310.018 1183.11 308.842 1183.65C307.666 1184.18 306.63 1184.91 305.762 1185.8C304.894 1186.7 304.222 1187.76 303.718 1188.97C303.214 1190.17 302.99 1191.46 302.99 1192.8C302.99 1194.26 303.214 1195.6 303.718 1196.83C304.222 1198.07 304.894 1199.16 305.734 1200.05C306.574 1200.98 307.582 1201.71 308.73 1202.21C309.878 1202.74 311.11 1202.99 312.426 1202.99C314.526 1202.99 316.374 1202.21 317.97 1200.61ZM324.455 1202.85H328.319V1196.19H332.127L336.187 1202.85H340.527L335.991 1195.38C337.083 1194.93 337.951 1194.17 338.595 1193.11C339.239 1192.05 339.575 1190.87 339.575 1189.58C339.575 1188.8 339.407 1187.99 339.099 1187.2C338.763 1186.42 338.343 1185.69 337.783 1185.07C337.223 1184.46 336.551 1183.95 335.767 1183.56C334.983 1183.17 334.143 1182.97 333.247 1182.97H324.455V1202.85ZM328.319 1192.8V1186.36H332.995C333.331 1186.36 333.639 1186.45 333.975 1186.61C334.311 1186.78 334.591 1187.01 334.843 1187.29C335.095 1187.57 335.291 1187.9 335.459 1188.29C335.599 1188.69 335.683 1189.13 335.683 1189.58C335.683 1190.03 335.599 1190.45 335.487 1190.84C335.347 1191.23 335.179 1191.6 334.955 1191.88C334.731 1192.16 334.451 1192.38 334.143 1192.55C333.835 1192.72 333.499 1192.8 333.163 1192.8H328.319ZM356.88 1199.47H346.94V1194.29H355.312V1191.15H346.94V1186.36H356.628V1182.97H343.076V1202.85H356.88V1199.47ZM365.548 1182.97L357.96 1202.85H361.936L363.756 1197.9H370.7L372.548 1202.85H376.524L368.964 1182.97H365.548ZM370 1195.18H364.4L367.256 1187.37L370 1195.18ZM391.604 1186.36V1182.97H375.056V1186.36H381.412V1202.85H385.248V1186.36H391.604ZM405.909 1183.03L409.241 1192.07L406.777 1198.43L401.121 1182.97H396.977L405.013 1202.85H408.261L411.705 1194.51L415.149 1202.85H418.397L426.489 1182.97H422.289L416.661 1198.43L414.141 1192.07L417.529 1183.03H413.945L411.705 1189.61L409.465 1183.03H405.909ZM442.329 1199.47H432.389V1194.29H440.761V1191.15H432.389V1186.36H442.077V1182.97H428.525V1202.85H442.329V1199.47ZM461.358 1197.73C461.358 1196.44 461.022 1195.35 460.35 1194.48C459.678 1193.61 458.782 1193 457.662 1192.66C458.586 1192.27 459.286 1191.63 459.79 1190.79C460.266 1189.95 460.518 1189.02 460.518 1188.04C460.518 1187.43 460.406 1186.84 460.182 1186.22C459.958 1185.61 459.678 1185.07 459.286 1184.6C458.894 1184.12 458.418 1183.73 457.858 1183.42C457.298 1183.14 456.654 1182.97 455.982 1182.97H445.342V1202.85H454.946C455.814 1202.85 456.626 1202.74 457.41 1202.52C458.194 1202.29 458.866 1201.99 459.454 1201.54C460.042 1201.12 460.518 1200.59 460.854 1199.94C461.19 1199.33 461.358 1198.57 461.358 1197.73ZM457.466 1197C457.466 1197.37 457.382 1197.7 457.27 1198.01C457.13 1198.35 456.962 1198.63 456.738 1198.85C456.514 1199.07 456.234 1199.27 455.926 1199.38C455.618 1199.52 455.282 1199.58 454.946 1199.58H449.206V1194.34H455.142C455.478 1194.34 455.786 1194.43 456.066 1194.57C456.346 1194.71 456.57 1194.9 456.794 1195.13C456.99 1195.38 457.158 1195.66 457.27 1195.99C457.382 1196.33 457.466 1196.67 457.466 1197ZM449.206 1186.28H454.526C455.142 1186.28 455.646 1186.5 456.066 1186.95C456.486 1187.4 456.71 1188.01 456.71 1188.77C456.71 1189.55 456.458 1190.17 456.01 1190.62C455.562 1191.07 455.002 1191.29 454.358 1191.29H449.206V1186.28ZM482.943 1188.18L484.651 1185.05C483.755 1184.46 482.747 1183.95 481.571 1183.51C480.395 1183.06 479.107 1182.83 477.707 1182.83C476.699 1182.83 475.747 1182.97 474.879 1183.25C473.983 1183.53 473.227 1183.93 472.555 1184.43C471.883 1184.96 471.379 1185.61 471.015 1186.39C470.623 1187.17 470.455 1188.07 470.455 1189.08C470.455 1189.86 470.567 1190.51 470.791 1191.07C471.015 1191.63 471.379 1192.1 471.855 1192.52C472.303 1192.94 472.891 1193.31 473.591 1193.61C474.291 1193.92 475.131 1194.2 476.083 1194.45C476.867 1194.68 477.567 1194.9 478.211 1195.07C478.827 1195.27 479.387 1195.46 479.835 1195.69C480.283 1195.91 480.619 1196.19 480.871 1196.47C481.095 1196.78 481.235 1197.14 481.235 1197.56C481.235 1198.93 480.171 1199.61 478.043 1199.61C477.259 1199.61 476.531 1199.52 475.803 1199.33C475.075 1199.16 474.403 1198.93 473.815 1198.65C473.199 1198.37 472.695 1198.12 472.247 1197.84C471.799 1197.56 471.519 1197.34 471.351 1197.17L469.643 1200.5C470.791 1201.34 472.107 1201.96 473.563 1202.41C475.019 1202.85 476.475 1203.08 477.987 1203.08C478.939 1203.08 479.863 1202.99 480.759 1202.77C481.655 1202.55 482.439 1202.21 483.111 1201.73C483.783 1201.29 484.343 1200.67 484.735 1199.91C485.127 1199.16 485.351 1198.23 485.351 1197.17C485.351 1196.27 485.183 1195.49 484.903 1194.87C484.595 1194.26 484.175 1193.7 483.615 1193.25C483.055 1192.8 482.383 1192.44 481.599 1192.13C480.815 1191.85 479.919 1191.57 478.967 1191.29C478.211 1191.12 477.539 1190.93 476.979 1190.76C476.419 1190.59 475.943 1190.42 475.579 1190.2C475.187 1190 474.907 1189.78 474.711 1189.5C474.515 1189.22 474.431 1188.88 474.431 1188.46C474.431 1187.76 474.683 1187.2 475.215 1186.81C475.719 1186.42 476.531 1186.22 477.595 1186.22C478.183 1186.22 478.771 1186.31 479.359 1186.45C479.919 1186.61 480.451 1186.78 480.955 1187.01C481.459 1187.23 481.879 1187.43 482.215 1187.65C482.551 1187.87 482.803 1188.07 482.943 1188.18ZM488.271 1202.85H492.135V1182.97H488.271V1202.85ZM511.151 1186.36V1182.97H494.603V1186.36H500.959V1202.85H504.795V1186.36H511.151ZM527.423 1199.47H517.483V1194.29H525.855V1191.15H517.483V1186.36H527.171V1182.97H513.619V1202.85H527.423V1199.47ZM541.869 1188.18L543.577 1185.05C542.681 1184.46 541.673 1183.95 540.497 1183.51C539.321 1183.06 538.033 1182.83 536.633 1182.83C535.625 1182.83 534.673 1182.97 533.805 1183.25C532.909 1183.53 532.153 1183.93 531.481 1184.43C530.809 1184.96 530.305 1185.61 529.941 1186.39C529.549 1187.17 529.381 1188.07 529.381 1189.08C529.381 1189.86 529.493 1190.51 529.717 1191.07C529.941 1191.63 530.305 1192.1 530.781 1192.52C531.229 1192.94 531.817 1193.31 532.517 1193.61C533.217 1193.92 534.057 1194.2 535.009 1194.45C535.793 1194.68 536.493 1194.9 537.137 1195.07C537.753 1195.27 538.313 1195.46 538.761 1195.69C539.209 1195.91 539.545 1196.19 539.797 1196.47C540.021 1196.78 540.161 1197.14 540.161 1197.56C540.161 1198.93 539.097 1199.61 536.969 1199.61C536.185 1199.61 535.457 1199.52 534.729 1199.33C534.001 1199.16 533.329 1198.93 532.741 1198.65C532.125 1198.37 531.621 1198.12 531.173 1197.84C530.725 1197.56 530.445 1197.34 530.277 1197.17L528.569 1200.5C529.717 1201.34 531.033 1201.96 532.489 1202.41C533.945 1202.85 535.401 1203.08 536.913 1203.08C537.865 1203.08 538.789 1202.99 539.685 1202.77C540.581 1202.55 541.365 1202.21 542.037 1201.73C542.709 1201.29 543.269 1200.67 543.661 1199.91C544.053 1199.16 544.277 1198.23 544.277 1197.17C544.277 1196.27 544.109 1195.49 543.829 1194.87C543.521 1194.26 543.101 1193.7 542.541 1193.25C541.981 1192.8 541.309 1192.44 540.525 1192.13C539.741 1191.85 538.845 1191.57 537.893 1191.29C537.137 1191.12 536.465 1190.93 535.905 1190.76C535.345 1190.59 534.869 1190.42 534.505 1190.2C534.113 1190 533.833 1189.78 533.637 1189.5C533.441 1189.22 533.357 1188.88 533.357 1188.46C533.357 1187.76 533.609 1187.2 534.141 1186.81C534.645 1186.42 535.457 1186.22 536.521 1186.22C537.109 1186.22 537.697 1186.31 538.285 1186.45C538.845 1186.61 539.377 1186.78 539.881 1187.01C540.385 1187.23 540.805 1187.43 541.141 1187.65C541.477 1187.87 541.729 1188.07 541.869 1188.18ZM553.924 1202.85H557.788V1182.97H553.924V1202.85ZM573.779 1188.18L575.487 1185.05C574.591 1184.46 573.583 1183.95 572.407 1183.51C571.231 1183.06 569.943 1182.83 568.543 1182.83C567.535 1182.83 566.583 1182.97 565.715 1183.25C564.819 1183.53 564.063 1183.93 563.391 1184.43C562.719 1184.96 562.215 1185.61 561.851 1186.39C561.459 1187.17 561.291 1188.07 561.291 1189.08C561.291 1189.86 561.403 1190.51 561.627 1191.07C561.851 1191.63 562.215 1192.1 562.691 1192.52C563.139 1192.94 563.727 1193.31 564.427 1193.61C565.127 1193.92 565.967 1194.2 566.919 1194.45C567.703 1194.68 568.403 1194.9 569.047 1195.07C569.663 1195.27 570.223 1195.46 570.671 1195.69C571.119 1195.91 571.455 1196.19 571.707 1196.47C571.931 1196.78 572.071 1197.14 572.071 1197.56C572.071 1198.93 571.007 1199.61 568.879 1199.61C568.095 1199.61 567.367 1199.52 566.639 1199.33C565.911 1199.16 565.239 1198.93 564.651 1198.65C564.035 1198.37 563.531 1198.12 563.083 1197.84C562.635 1197.56 562.355 1197.34 562.187 1197.17L560.479 1200.5C561.627 1201.34 562.943 1201.96 564.399 1202.41C565.855 1202.85 567.311 1203.08 568.823 1203.08C569.775 1203.08 570.699 1202.99 571.595 1202.77C572.491 1202.55 573.275 1202.21 573.947 1201.73C574.619 1201.29 575.179 1200.67 575.571 1199.91C575.963 1199.16 576.187 1198.23 576.187 1197.17C576.187 1196.27 576.019 1195.49 575.739 1194.87C575.431 1194.26 575.011 1193.7 574.451 1193.25C573.891 1192.8 573.219 1192.44 572.435 1192.13C571.651 1191.85 570.755 1191.57 569.803 1191.29C569.047 1191.12 568.375 1190.93 567.815 1190.76C567.255 1190.59 566.779 1190.42 566.415 1190.2C566.023 1190 565.743 1189.78 565.547 1189.5C565.351 1189.22 565.267 1188.88 565.267 1188.46C565.267 1187.76 565.519 1187.2 566.051 1186.81C566.555 1186.42 567.367 1186.22 568.431 1186.22C569.019 1186.22 569.607 1186.31 570.195 1186.45C570.755 1186.61 571.287 1186.78 571.791 1187.01C572.295 1187.23 572.715 1187.43 573.051 1187.65C573.387 1187.87 573.639 1188.07 573.779 1188.18ZM589.698 1190.11L599.918 1202.85H603.054V1183H599.19V1196.02L588.83 1182.97H585.834V1202.85H589.698V1190.11ZM615.673 1202.99C617.073 1202.99 618.361 1202.74 619.565 1202.18C620.741 1201.62 621.777 1200.89 622.645 1199.97C623.485 1199.05 624.157 1197.98 624.661 1196.78C625.137 1195.57 625.389 1194.31 625.389 1192.97C625.389 1191.74 625.137 1190.51 624.689 1189.27C624.213 1188.07 623.569 1186.98 622.729 1186.03C621.889 1185.07 620.853 1184.32 619.677 1183.73C618.501 1183.14 617.185 1182.83 615.757 1182.83C614.357 1182.83 613.041 1183.11 611.865 1183.67C610.661 1184.23 609.625 1184.96 608.757 1185.89C607.889 1186.84 607.217 1187.9 606.713 1189.11C606.209 1190.34 605.985 1191.6 605.985 1192.91C605.985 1194.2 606.209 1195.43 606.685 1196.64C607.133 1197.87 607.805 1198.93 608.645 1199.89C609.485 1200.84 610.521 1201.59 611.697 1202.15C612.873 1202.71 614.217 1202.99 615.673 1202.99ZM609.905 1192.91C609.905 1192.1 610.017 1191.29 610.269 1190.51C610.521 1189.72 610.885 1188.99 611.389 1188.38C611.865 1187.76 612.481 1187.26 613.209 1186.87C613.937 1186.47 614.749 1186.28 615.701 1186.28C616.597 1186.28 617.381 1186.47 618.109 1186.84C618.837 1187.2 619.425 1187.68 619.929 1188.29C620.433 1188.91 620.797 1189.64 621.077 1190.42C621.357 1191.23 621.497 1192.07 621.497 1192.91C621.497 1193.75 621.357 1194.57 621.105 1195.35C620.853 1196.13 620.489 1196.86 619.985 1197.48C619.481 1198.12 618.893 1198.63 618.165 1199.02C617.437 1199.41 616.625 1199.58 615.701 1199.58C614.777 1199.58 613.965 1199.41 613.237 1199.02C612.509 1198.65 611.921 1198.15 611.417 1197.53C610.913 1196.92 610.549 1196.22 610.297 1195.41C610.017 1194.62 609.905 1193.78 609.905 1192.91ZM642.292 1186.36V1182.97H625.744V1186.36H632.1V1202.85H635.936V1186.36H642.292ZM650.693 1202.85H654.557V1196.19H658.365L662.425 1202.85H666.765L662.229 1195.38C663.321 1194.93 664.189 1194.17 664.833 1193.11C665.477 1192.05 665.813 1190.87 665.813 1189.58C665.813 1188.8 665.645 1187.99 665.337 1187.2C665.001 1186.42 664.581 1185.69 664.021 1185.07C663.461 1184.46 662.789 1183.95 662.005 1183.56C661.221 1183.17 660.381 1182.97 659.485 1182.97H650.693V1202.85ZM654.557 1192.8V1186.36H659.233C659.569 1186.36 659.877 1186.45 660.213 1186.61C660.549 1186.78 660.829 1187.01 661.081 1187.29C661.333 1187.57 661.529 1187.9 661.697 1188.29C661.837 1188.69 661.921 1189.13 661.921 1189.58C661.921 1190.03 661.837 1190.45 661.725 1190.84C661.585 1191.23 661.417 1191.6 661.193 1191.88C660.969 1192.16 660.689 1192.38 660.381 1192.55C660.073 1192.72 659.737 1192.8 659.401 1192.8H654.557ZM677.798 1202.99C679.198 1202.99 680.486 1202.74 681.69 1202.18C682.866 1201.62 683.902 1200.89 684.77 1199.97C685.61 1199.05 686.282 1197.98 686.786 1196.78C687.262 1195.57 687.514 1194.31 687.514 1192.97C687.514 1191.74 687.262 1190.51 686.814 1189.27C686.338 1188.07 685.694 1186.98 684.854 1186.03C684.014 1185.07 682.978 1184.32 681.802 1183.73C680.626 1183.14 679.31 1182.83 677.882 1182.83C676.482 1182.83 675.166 1183.11 673.99 1183.67C672.786 1184.23 671.75 1184.96 670.882 1185.89C670.014 1186.84 669.342 1187.9 668.838 1189.11C668.334 1190.34 668.11 1191.6 668.11 1192.91C668.11 1194.2 668.334 1195.43 668.81 1196.64C669.258 1197.87 669.93 1198.93 670.77 1199.89C671.61 1200.84 672.646 1201.59 673.822 1202.15C674.998 1202.71 676.342 1202.99 677.798 1202.99ZM672.03 1192.91C672.03 1192.1 672.142 1191.29 672.394 1190.51C672.646 1189.72 673.01 1188.99 673.514 1188.38C673.99 1187.76 674.606 1187.26 675.334 1186.87C676.062 1186.47 676.874 1186.28 677.826 1186.28C678.722 1186.28 679.506 1186.47 680.234 1186.84C680.962 1187.2 681.55 1187.68 682.054 1188.29C682.558 1188.91 682.922 1189.64 683.202 1190.42C683.482 1191.23 683.622 1192.07 683.622 1192.91C683.622 1193.75 683.482 1194.57 683.23 1195.35C682.978 1196.13 682.614 1196.86 682.11 1197.48C681.606 1198.12 681.018 1198.63 680.29 1199.02C679.562 1199.41 678.75 1199.58 677.826 1199.58C676.902 1199.58 676.09 1199.41 675.362 1199.02C674.634 1198.65 674.046 1198.15 673.542 1197.53C673.038 1196.92 672.674 1196.22 672.422 1195.41C672.142 1194.62 672.03 1193.78 672.03 1192.91ZM689.274 1192.77C689.274 1194.06 689.498 1195.29 689.974 1196.53C690.45 1197.76 691.122 1198.85 691.962 1199.8C692.802 1200.75 693.838 1201.54 695.014 1202.13C696.19 1202.74 697.478 1203.02 698.906 1203.02C699.69 1203.02 700.53 1202.94 701.37 1202.71C702.21 1202.52 702.994 1202.21 703.722 1201.82C704.45 1201.43 705.122 1200.95 705.71 1200.39C706.298 1199.83 706.746 1199.16 707.082 1198.4L703.918 1196.58C703.694 1197.14 703.386 1197.59 703.022 1197.98C702.63 1198.37 702.238 1198.68 701.79 1198.91C701.342 1199.16 700.894 1199.33 700.418 1199.44C699.914 1199.55 699.466 1199.61 699.018 1199.61C698.15 1199.61 697.366 1199.44 696.638 1199.05C695.91 1198.68 695.294 1198.18 694.79 1197.56C694.286 1196.95 693.894 1196.25 693.614 1195.43C693.334 1194.62 693.194 1193.78 693.194 1192.89C693.194 1192.1 693.306 1191.32 693.558 1190.53C693.782 1189.75 694.146 1189.02 694.622 1188.41C695.098 1187.79 695.686 1187.26 696.414 1186.87C697.142 1186.47 697.982 1186.28 698.962 1186.28C699.41 1186.28 699.858 1186.33 700.334 1186.45C700.782 1186.56 701.23 1186.7 701.678 1186.92C702.098 1187.15 702.49 1187.45 702.882 1187.85C703.246 1188.24 703.554 1188.69 703.834 1189.25L706.802 1187.2C706.13 1185.91 705.15 1184.88 703.806 1184.07C702.462 1183.28 700.894 1182.86 699.074 1182.86C697.506 1182.86 696.134 1183.17 694.93 1183.73C693.698 1184.32 692.69 1185.07 691.85 1186C691.01 1186.95 690.366 1188.01 689.918 1189.19C689.47 1190.37 689.274 1191.57 689.274 1192.77ZM709.674 1202.85H713.538V1196.92L716.086 1194.26L722.274 1202.85H726.614L718.522 1191.79L726.138 1182.97H721.882L713.538 1192.44V1183H709.674V1202.85ZM742.208 1199.47H732.268V1194.29H740.64V1191.15H732.268V1186.36H741.956V1182.97H728.404V1202.85H742.208V1199.47ZM760.088 1186.36V1182.97H743.54V1186.36H749.896V1202.85H753.732V1186.36H760.088ZM780.334 1188.18L782.042 1185.05C781.146 1184.46 780.138 1183.95 778.962 1183.51C777.786 1183.06 776.498 1182.83 775.098 1182.83C774.09 1182.83 773.138 1182.97 772.27 1183.25C771.374 1183.53 770.618 1183.93 769.946 1184.43C769.274 1184.96 768.77 1185.61 768.406 1186.39C768.014 1187.17 767.846 1188.07 767.846 1189.08C767.846 1189.86 767.958 1190.51 768.182 1191.07C768.406 1191.63 768.77 1192.1 769.246 1192.52C769.694 1192.94 770.282 1193.31 770.982 1193.61C771.682 1193.92 772.522 1194.2 773.474 1194.45C774.258 1194.68 774.958 1194.9 775.602 1195.07C776.218 1195.27 776.778 1195.46 777.226 1195.69C777.674 1195.91 778.01 1196.19 778.262 1196.47C778.486 1196.78 778.626 1197.14 778.626 1197.56C778.626 1198.93 777.562 1199.61 775.434 1199.61C774.65 1199.61 773.922 1199.52 773.194 1199.33C772.466 1199.16 771.794 1198.93 771.206 1198.65C770.59 1198.37 770.086 1198.12 769.638 1197.84C769.19 1197.56 768.91 1197.34 768.742 1197.17L767.034 1200.5C768.182 1201.34 769.498 1201.96 770.954 1202.41C772.41 1202.85 773.866 1203.08 775.378 1203.08C776.33 1203.08 777.254 1202.99 778.15 1202.77C779.046 1202.55 779.83 1202.21 780.502 1201.73C781.174 1201.29 781.734 1200.67 782.126 1199.91C782.518 1199.16 782.742 1198.23 782.742 1197.17C782.742 1196.27 782.574 1195.49 782.294 1194.87C781.986 1194.26 781.566 1193.7 781.006 1193.25C780.446 1192.8 779.774 1192.44 778.99 1192.13C778.206 1191.85 777.31 1191.57 776.358 1191.29C775.602 1191.12 774.93 1190.93 774.37 1190.76C773.81 1190.59 773.334 1190.42 772.97 1190.2C772.578 1190 772.298 1189.78 772.102 1189.5C771.906 1189.22 771.822 1188.88 771.822 1188.46C771.822 1187.76 772.074 1187.2 772.606 1186.81C773.11 1186.42 773.922 1186.22 774.986 1186.22C775.574 1186.22 776.162 1186.31 776.75 1186.45C777.31 1186.61 777.842 1186.78 778.346 1187.01C778.85 1187.23 779.27 1187.43 779.606 1187.65C779.942 1187.87 780.194 1188.07 780.334 1188.18ZM784.458 1192.77C784.458 1194.06 784.682 1195.29 785.158 1196.53C785.634 1197.76 786.306 1198.85 787.146 1199.8C787.986 1200.75 789.022 1201.54 790.198 1202.13C791.374 1202.74 792.662 1203.02 794.09 1203.02C794.874 1203.02 795.714 1202.94 796.554 1202.71C797.394 1202.52 798.178 1202.21 798.906 1201.82C799.634 1201.43 800.306 1200.95 800.894 1200.39C801.482 1199.83 801.93 1199.16 802.266 1198.4L799.102 1196.58C798.878 1197.14 798.57 1197.59 798.206 1197.98C797.814 1198.37 797.422 1198.68 796.974 1198.91C796.526 1199.16 796.078 1199.33 795.602 1199.44C795.098 1199.55 794.65 1199.61 794.202 1199.61C793.334 1199.61 792.55 1199.44 791.822 1199.05C791.094 1198.68 790.478 1198.18 789.974 1197.56C789.47 1196.95 789.078 1196.25 788.798 1195.43C788.518 1194.62 788.378 1193.78 788.378 1192.89C788.378 1192.1 788.49 1191.32 788.742 1190.53C788.966 1189.75 789.33 1189.02 789.806 1188.41C790.282 1187.79 790.87 1187.26 791.598 1186.87C792.326 1186.47 793.166 1186.28 794.146 1186.28C794.594 1186.28 795.042 1186.33 795.518 1186.45C795.966 1186.56 796.414 1186.7 796.862 1186.92C797.282 1187.15 797.674 1187.45 798.066 1187.85C798.43 1188.24 798.738 1188.69 799.018 1189.25L801.986 1187.2C801.314 1185.91 800.334 1184.88 798.99 1184.07C797.646 1183.28 796.078 1182.86 794.258 1182.86C792.69 1182.86 791.318 1183.17 790.114 1183.73C788.882 1184.32 787.874 1185.07 787.034 1186C786.194 1186.95 785.55 1188.01 785.102 1189.19C784.654 1190.37 784.458 1191.57 784.458 1192.77ZM804.857 1202.85H808.721V1182.97H804.857V1202.85ZM826.673 1199.47H816.733V1194.29H825.105V1191.15H816.733V1186.36H826.421V1182.97H812.869V1202.85H826.673V1199.47ZM833.549 1190.11L843.769 1202.85H846.905V1183H843.041V1196.02L832.681 1182.97H829.685V1202.85H833.549V1190.11ZM849.837 1192.77C849.837 1194.06 850.061 1195.29 850.537 1196.53C851.013 1197.76 851.685 1198.85 852.525 1199.8C853.365 1200.75 854.401 1201.54 855.577 1202.13C856.753 1202.74 858.041 1203.02 859.469 1203.02C860.253 1203.02 861.093 1202.94 861.933 1202.71C862.773 1202.52 863.557 1202.21 864.285 1201.82C865.013 1201.43 865.685 1200.95 866.273 1200.39C866.861 1199.83 867.309 1199.16 867.645 1198.4L864.481 1196.58C864.257 1197.14 863.949 1197.59 863.585 1197.98C863.193 1198.37 862.801 1198.68 862.353 1198.91C861.905 1199.16 861.457 1199.33 860.981 1199.44C860.477 1199.55 860.029 1199.61 859.581 1199.61C858.713 1199.61 857.929 1199.44 857.201 1199.05C856.473 1198.68 855.857 1198.18 855.353 1197.56C854.849 1196.95 854.457 1196.25 854.177 1195.43C853.897 1194.62 853.757 1193.78 853.757 1192.89C853.757 1192.1 853.869 1191.32 854.121 1190.53C854.345 1189.75 854.709 1189.02 855.185 1188.41C855.661 1187.79 856.249 1187.26 856.977 1186.87C857.705 1186.47 858.545 1186.28 859.525 1186.28C859.973 1186.28 860.421 1186.33 860.897 1186.45C861.345 1186.56 861.793 1186.7 862.241 1186.92C862.661 1187.15 863.053 1187.45 863.445 1187.85C863.809 1188.24 864.117 1188.69 864.397 1189.25L867.365 1187.2C866.693 1185.91 865.713 1184.88 864.369 1184.07C863.025 1183.28 861.457 1182.86 859.637 1182.86C858.069 1182.86 856.697 1183.17 855.493 1183.73C854.261 1184.32 853.253 1185.07 852.413 1186C851.573 1186.95 850.929 1188.01 850.481 1189.19C850.033 1190.37 849.837 1191.57 849.837 1192.77ZM884.04 1199.47H874.1V1194.29H882.472V1191.15H874.1V1186.36H883.788V1182.97H870.236V1202.85H884.04V1199.47ZM887.416 1195.38H891.168V1182.78H887.416V1195.38ZM887.416 1202.85H891.168V1198.63H887.416V1202.85Z" fill="white"/>
<g id="Group 25">
<g id="CRANE ">
<g id="Union" filter="url(#filter0_d)">
<path fill-rule="evenodd" clip-rule="evenodd" d="M313.896 687.257L300.398 863.343L162.681 819.232L251.329 978.801L308.377 982.584L310.352 986.746L132.939 1068.96L253.774 1061.41L186.534 1124.12L341.18 1058.03L398.14 1053.54L399.487 1053.93L399.484 1053.47L399.852 1053.45L436.827 997.828L465.456 955.112L444.312 987.028L486.682 1004.62L465.456 955.112L412.359 949.221L398.878 961.79L398.18 829.921L313.896 687.257ZM331.505 745.982C331.091 749.716 327.728 752.407 323.993 751.993C320.259 751.579 317.568 748.216 317.982 744.481C318.396 740.747 321.759 738.056 325.493 738.47C329.228 738.884 331.919 742.247 331.505 745.982Z" fill="#FFFAFA"/>
</g>
<g id="BIRD">
<path id="Vector_17" d="M294.997 1059.35L400.291 1053.74L438.184 999.868L412.797 949.511L294.997 1059.35Z" fill="url(#paint2_linear)"/>
<g id="Vector 1" filter="url(#filter1_d)">
<path d="M398.588 962.273L368.886 985.137L398.879 1054.87L398.588 962.273Z" fill="#C4C4C4"/>
</g>
<path id="Vector_18" d="M163.01 820.516L251.767 979.091L342.049 985.077L312.684 868.112L163.01 820.516Z" fill="url(#paint3_linear)"/>
<path id="Subtract" fill-rule="evenodd" clip-rule="evenodd" d="M313.855 686.75L398.125 830.418L297.357 915.882L313.855 686.75Z" fill="url(#paint4_linear)"/>
<path id="Vector_19" d="M412.797 949.511L437.266 998.118L465.894 955.402L412.797 949.511Z" fill="url(#paint5_radial)"/>
<path id="Vector_20" d="M133.378 1069.25L326.387 979.81L348.457 1027.44L186.973 1124.41L341.732 1057.58L133.378 1069.25Z" fill="url(#paint6_linear)"/>
<path id="Vector_21" d="M325.779 980.858L353.326 1052.83L186.366 1125.46L258.722 1057.04L325.779 980.858Z" fill="url(#paint7_linear)"/>
<path id="Vector_22" d="M398.125 830.418C339.926 869.778 312.188 890.139 278.645 919.295L344.162 1058.36C366.796 1058.87 378.81 1058.14 399.322 1055.42L398.125 830.418Z" fill="url(#paint8_linear)"/>
<path id="Vector_23" d="M487.12 1004.91L465.894 955.402L444.751 987.318L487.12 1004.91Z" fill="url(#paint9_linear)"/>
</g>
</g>
</g>
</g>
</g>
</g>
<defs>
<filter id="filter0_d" x="111.544" y="659.067" width="431.817" height="523.497" filterUnits="userSpaceOnUse" color-interpolation-filters="sRGB">
<feFlood flood-opacity="0" result="BackgroundImageFix"/>
<feColorMatrix in="SourceAlpha" type="matrix" values="0 0 0 0 0 0 0 0 0 0 0 0 0 0 0 0 0 0 127 0"/>
<feOffset dx="4" dy="7"/>
<feGaussianBlur stdDeviation="10"/>
<feColorMatrix type="matrix" values="0 0 0 0 0 0 0 0 0 0 0 0 0 0 0 0 0 0 0.25 0"/>
<feBlend mode="normal" in2="BackgroundImageFix" result="effect1_dropShadow"/>
<feBlend mode="normal" in="SourceGraphic" in2="effect1_dropShadow" result="shape"/>
</filter>
<filter id="filter1_d" x="357.608" y="959.296" width="55.4158" height="103.574" filterUnits="userSpaceOnUse" color-interpolation-filters="sRGB">
<feFlood flood-opacity="0" result="BackgroundImageFix"/>
<feColorMatrix in="SourceAlpha" type="matrix" values="0 0 0 0 0 0 0 0 0 0 0 0 0 0 0 0 0 0 127 0"/>
<feOffset dy="4"/>
<feGaussianBlur stdDeviation="2"/>
<feColorMatrix type="matrix" values="0 0 0 0 0 0 0 0 0 0 0 0 0 0 0 0 0 0 0.25 0"/>
<feBlend mode="normal" in2="BackgroundImageFix" result="effect1_dropShadow"/>
<feBlend mode="normal" in="SourceGraphic" in2="effect1_dropShadow" result="shape"/>
</filter>
<radialGradient id="paint0_radial" cx="0" cy="0" r="1" gradientUnits="userSpaceOnUse" gradientTransform="translate(369.5 847) rotate(-175.062) scale(476.268 456.809)">
<stop/>
<stop offset="0.79558"/>
</radialGradient>
<linearGradient id="paint1_linear" x1="-1091" y1="1688.99" x2="556.676" y2="-371.342" gradientUnits="userSpaceOnUse">
<stop stop-color="#428AFF"/>
<stop offset="1" stop-color="#42CEFF"/>
</linearGradient>
<linearGradient id="paint2_linear" x1="427.04" y1="1059.5" x2="346.097" y2="986.295" gradientUnits="userSpaceOnUse">
<stop stop-color="white"/>
<stop offset="0.69607" stop-color="#E9E9EA"/>
<stop offset="0.857243" stop-color="#C5C6C8"/>
</linearGradient>
<linearGradient id="paint3_linear" x1="213.618" y1="906.477" x2="297.877" y2="884.418" gradientUnits="userSpaceOnUse">
<stop stop-color="white"/>
<stop offset="0.770833" stop-color="#E9E9EA"/>
<stop offset="1" stop-color="#D6D7D8"/>
</linearGradient>
<linearGradient id="paint4_linear" x1="297.124" y1="805.108" x2="349.331" y2="876.704" gradientUnits="userSpaceOnUse">
<stop stop-color="white"/>
<stop offset="0.770833" stop-color="#E9E9EA"/>
<stop offset="0.989583" stop-color="#C5C6C8"/>
</linearGradient>
<radialGradient id="paint5_radial" cx="0" cy="0" r="1" gradientUnits="userSpaceOnUse" gradientTransform="translate(459.778 973.335) rotate(141.331) scale(34.8797 71.8626)">
<stop stop-color="white"/>
<stop offset="0.770833" stop-color="#E9E9EA"/>
<stop offset="0.989583" stop-color="#C5C6C8"/>
</radialGradient>
<linearGradient id="paint6_linear" x1="229.656" y1="1038.99" x2="275.169" y2="1086.62" gradientUnits="userSpaceOnUse">
<stop stop-color="white"/>
<stop offset="0.391904" stop-color="#E9E9EA"/>
<stop offset="0.989583" stop-color="#C5C6C8"/>
</linearGradient>
<linearGradient id="paint7_linear" x1="243.279" y1="1042.64" x2="265.113" y2="1102.54" gradientUnits="userSpaceOnUse">
<stop stop-color="white"/>
<stop offset="0.391904" stop-color="#E9E9EA"/>
<stop offset="0.989583" stop-color="#C5C6C8"/>
</linearGradient>
<linearGradient id="paint8_linear" x1="338.986" y1="923.713" x2="423.492" y2="935.667" gradientUnits="userSpaceOnUse">
<stop stop-color="white"/>
<stop offset="0.770833" stop-color="#E9E9EA"/>
<stop offset="0.989583" stop-color="#C5C6C8"/>
</linearGradient>
<linearGradient id="paint9_linear" x1="480.039" y1="996.908" x2="449.023" y2="975.277" gradientUnits="userSpaceOnUse">
<stop stop-color="white"/>
<stop offset="0.770833" stop-color="#E9E9EA"/>
<stop offset="0.989583" stop-color="#C5C6C8"/>
</linearGradient>
<clipPath id="clip0">
<rect width="1021" height="1278" fill="white"/>
</clipPath>
</defs>
</svg>
