<svg width="371" height="81" viewBox="0 0 371 81" fill="none" xmlns="http://www.w3.org/2000/svg">
<path d="M94.8678 49.9607C95.4278 50.9595 96.321 51.7388 97.3973 52.1675L100.489 53.5468H107.515C108.6 53.53 109.663 53.2454 110.606 52.7192C111.517 52.4175 112.305 51.8374 112.855 51.0641C113.463 50.2734 113.763 49.2946 113.698 48.3057C113.743 47.5874 113.583 46.871 113.235 46.2374C112.887 45.6038 112.366 45.0781 111.731 44.7196C110.338 43.8606 108.822 43.2098 107.234 42.7887L101.051 41.4094C98.9191 41.1541 96.8364 40.5966 94.8678 39.7544C93.166 39.0685 91.633 38.034 90.3711 36.72C89.1864 35.2435 88.4963 33.4433 88.3957 31.5664C88.295 29.6896 88.7887 27.8282 89.809 26.2378C90.7142 24.9387 91.8579 23.8162 93.1816 22.9276C94.533 22.048 96.0707 21.482 97.6782 21.2725C99.3219 20.8155 101.031 20.6291 102.737 20.7208C104.814 20.6159 106.896 20.8017 108.92 21.2725C110.691 21.5324 112.403 22.0924 113.979 22.9276C115.382 23.8377 116.539 25.0682 117.352 26.5136C118.146 28.2574 118.622 30.1249 118.757 32.0306H112.293C112.313 31.0471 112.019 30.0821 111.45 29.2721C110.838 28.4886 110.074 27.8322 109.201 27.3412L106.391 26.2378H100.489L97.9592 26.7895C97.1161 27.3412 96.2731 27.617 95.992 28.4446C95.7086 28.7386 95.4879 29.0854 95.3431 29.4643C95.1983 29.8433 95.1322 30.2469 95.1488 30.6514C95.1019 31.1252 95.1809 31.6029 95.3779 32.0379C95.5749 32.473 95.8833 32.8506 96.273 33.134C97.1468 33.9923 98.2022 34.6515 99.3645 35.0649L103.299 36.1683L107.796 36.9959L112.574 38.3751C113.953 38.7576 115.275 39.314 116.508 40.0302C117.656 40.8325 118.614 41.8672 119.319 43.0645C120.121 44.3979 120.511 45.9311 120.443 47.4781C120.487 49.4075 120.002 51.3131 119.038 52.9951C118.09 54.5254 116.728 55.767 115.103 56.5811C113.521 57.6636 111.682 58.3285 109.763 58.512L103.861 59.0637L97.9592 58.512C96.0514 58.1198 94.2385 57.3706 92.6194 56.3053C91.1281 55.2961 89.8808 53.9778 88.9658 52.4434C88.0359 50.6492 87.5542 48.6636 87.5606 46.6506H94.0247C93.9607 47.812 94.2545 48.9654 94.8678 49.9607Z" fill="#585661"/>
<path d="M134.495 21.5483H128.031V58.3741H134.495V21.5483Z" fill="#585661"/>
<path d="M160.633 21.5483V26.7895H153.044V49.6849C153.044 50.5124 153.044 51.0641 153.325 51.34C153.325 51.5541 153.376 51.7653 153.474 51.9568C153.571 52.1483 153.713 52.3149 153.887 52.4434H160.633V57.6845H151.639C150.627 57.5402 149.663 57.162 148.829 56.5811C147.972 55.9882 147.37 55.103 147.142 54.0984C146.781 52.7474 146.592 51.3575 146.58 49.9607V26.7895H140.116V21.5483H146.58V10.5144H153.044V21.5483H160.633Z" fill="#585661"/>
<path d="M195.201 56.0289C191.954 58.1266 188.125 59.1865 184.24 59.0633C181.553 59.0808 178.886 58.6133 176.371 57.684C174.092 56.7933 172.067 55.3735 170.469 53.5463C168.858 51.8235 167.7 49.7401 167.097 47.4776C166.173 45.0031 165.698 42.3892 165.691 39.7539C165.725 37.1211 166.2 34.5116 167.097 32.0301C167.975 29.8282 169.209 27.7792 170.75 25.9615C172.416 24.278 174.428 22.9616 176.652 22.0996C178.937 21.0627 181.446 20.5892 183.959 20.7204C186.899 20.5777 189.82 21.2467 192.391 22.6513C194.711 23.8698 196.653 25.6805 198.012 27.8924C199.35 29.9135 200.302 32.1569 200.822 34.5128C201.418 36.8556 201.608 39.2801 201.384 41.6848H172.436C172.485 43.261 172.674 44.83 172.999 46.3743C173.466 47.8012 174.232 49.1166 175.247 50.2361C176.272 51.436 177.644 52.3018 179.182 52.7188C181.112 53.5601 183.222 53.9246 185.329 53.7803C187.436 53.6361 189.474 52.9875 191.267 51.8912C192.156 51.2818 192.912 50.5043 193.491 49.6043C194.07 48.7044 194.461 47.7 194.639 46.6501H200.822C200.276 50.3796 198.257 53.7486 195.201 56.0289ZM193.796 32.306C193.288 30.9902 192.411 29.8426 191.267 28.9958C190.306 28.0445 189.158 27.2938 187.894 26.789C186.556 26.2496 185.125 25.9686 183.678 25.9615C182.136 25.9153 180.602 26.1976 179.182 26.789C177.917 27.2938 176.77 28.0445 175.809 28.9958C174.778 29.8876 174.003 31.0288 173.561 32.306C172.927 33.6047 172.546 35.0079 172.436 36.4437H194.639C194.632 35.0241 194.346 33.6191 193.796 32.306Z" fill="#585661"/>
<path d="M214.594 21.5481V26.5133H214.875C215.331 25.5016 215.988 24.5898 216.809 23.8317C217.629 23.0736 218.596 22.4847 219.653 22.0998C222.037 21.0607 224.636 20.5881 227.241 20.7205C229.938 20.5652 232.635 21.0378 235.11 22.0998C237.247 23.0964 239.086 24.6164 240.45 26.5133C242.102 28.2074 243.266 30.3017 243.823 32.582C244.646 34.9791 245.027 37.5014 244.947 40.0299C244.945 42.5354 244.662 45.033 244.104 47.4778C243.32 49.6659 242.181 51.7152 240.731 53.5465C239.163 55.286 237.251 56.6939 235.11 57.6842C232.596 58.6134 229.928 59.081 227.241 59.0634H224.15L220.777 58.2359L217.404 56.305C216.289 55.6673 215.404 54.7027 214.875 53.5465H214.594V72.58H208.411V21.5481H214.594ZM237.64 34.5129C237.179 32.9165 236.416 31.4193 235.391 30.0994C234.372 28.878 233.134 27.8497 231.738 27.065C230.074 26.2829 228.242 25.9045 226.398 25.9617C224.46 25.8706 222.53 26.2495 220.777 27.065C219.304 27.8622 218.051 28.9981 217.123 30.3752C216.187 31.7096 215.519 33.2078 215.156 34.7888C214.605 36.3887 214.321 38.0653 214.313 39.7541C214.295 41.535 214.58 43.3064 215.156 44.9952C216.088 48.1951 218.189 50.9453 221.058 52.7189C222.803 53.5573 224.74 53.9374 226.679 53.8223C228.604 53.7776 230.506 53.4042 232.3 52.7189C233.691 51.9131 234.851 50.7742 235.672 49.4088C236.657 47.999 237.328 46.401 237.64 44.7193C238.121 43.0148 238.311 41.2437 238.202 39.4782C238.295 37.804 238.105 36.1262 237.64 34.5129Z" fill="#585661"/>
<path d="M251.692 32.3063C252.46 30.0529 253.705 27.9847 255.346 26.2376C256.965 24.4337 258.984 23.0181 261.248 22.0999C263.821 21.0347 266.61 20.5628 269.398 20.7207C272.185 20.591 274.967 21.0618 277.548 22.0999C279.689 23.0902 281.601 24.4981 283.169 26.2376C284.81 27.9847 286.055 30.0529 286.823 32.3063C287.72 34.7878 288.194 37.3972 288.228 40.0301C288.195 42.5731 287.72 45.0919 286.823 47.4779C286.055 49.7313 284.81 51.7996 283.169 53.5466C281.601 55.2862 279.689 56.694 277.548 57.6843C274.93 58.5899 272.174 59.0561 269.398 59.0636C266.62 59.0781 263.861 58.6112 261.248 57.6843C258.984 56.7661 256.965 55.3506 255.346 53.5466C253.705 51.7996 252.46 49.7313 251.692 47.4779C250.886 45.0768 250.505 42.5576 250.568 40.0301C250.506 37.4122 250.886 34.8023 251.692 32.3063ZM258.156 45.8229C258.657 47.4591 259.521 48.9663 260.686 50.2364C261.878 51.3091 263.2 52.2354 264.62 52.9949C266.147 53.5579 267.767 53.8385 269.398 53.8225C270.936 53.8172 272.46 53.5368 273.895 52.9949C275.315 52.2354 276.637 51.3091 277.829 50.2364C278.994 48.9663 279.858 47.4591 280.359 45.8229C281.057 43.9661 281.437 42.0087 281.483 40.0301C281.457 37.9596 281.077 35.9082 280.359 33.9614C279.858 32.3251 278.994 30.8179 277.829 29.5478C276.637 28.4752 275.315 27.5489 273.895 26.7893C272.46 26.2475 270.936 25.967 269.398 25.9618C267.767 25.9457 266.147 26.2263 264.62 26.7893C263.2 27.5489 261.878 28.4752 260.686 29.5478C259.521 30.8179 258.657 32.3251 258.156 33.9614C257.543 35.9263 257.259 37.9758 257.313 40.0301C257.274 41.993 257.559 43.9492 258.156 45.8229Z" fill="#585661"/>
<path d="M302.561 21.5483H296.097V58.3741H302.561V21.5483Z" fill="#585661"/>
<path d="M318.3 21.5482V27.341C319.609 25.2252 321.474 23.494 323.699 22.3292C325.924 21.1643 328.428 20.6087 330.947 20.7206C333.133 20.6658 335.314 20.945 337.411 21.5482C338.959 22.2382 340.383 23.1698 341.627 24.3067C342.564 25.6411 343.232 27.1393 343.595 28.7203C344.171 30.4091 344.456 32.1805 344.438 33.9614V58.236H337.974V33.4097C338.042 32.4074 337.902 31.4019 337.564 30.4538C337.226 29.5057 336.696 28.6346 336.006 27.8927C335.208 27.194 334.273 26.6625 333.258 26.3305C332.243 25.9985 331.17 25.873 330.104 25.9618C328.38 25.9176 326.662 26.1985 325.045 26.7893C323.664 27.3563 322.419 28.2021 321.392 29.2719C320.468 30.3061 319.796 31.5321 319.425 32.858C318.851 34.3566 318.565 35.9466 318.581 37.5474V58.236H312.117V21.5482H318.3Z" fill="#585661"/>
<path d="M370.574 21.5483V26.7895H362.705V49.6849C362.75 50.2435 362.844 50.7973 362.986 51.34C362.986 51.8917 363.267 52.1675 363.83 52.4434H370.574V57.6845H361.3L358.49 56.5811C357.797 55.8962 357.311 55.0372 357.084 54.0984C356.583 52.7782 356.391 51.3639 356.522 49.9607V26.7895H349.777V21.5483H356.522V10.5144H362.705V21.5483H370.574Z" fill="#585661"/>
<path d="M2.12237 35.6165L8.02431 41.1335L26.5736 58.2361L34.4429 50.5123C34.8382 50.1025 35.0585 49.5595 35.0585 48.9951C35.0585 48.4308 34.8382 47.8878 34.4429 47.478L27.1357 41.1335L19.2662 33.6855C18.8308 33.1859 18.5916 32.55 18.5916 31.8925C18.5916 31.235 18.8308 30.5992 19.2662 30.0995L40.626 9.96258L30.7893 0.58374L8.02431 22.3758L2.12237 27.8927C1.57718 28.3837 1.14184 28.9805 0.844066 29.6453C0.546293 30.3101 0.392578 31.0284 0.392578 31.7546C0.392578 32.4808 0.546293 33.1991 0.844066 33.8639C1.14184 34.5287 1.57718 35.1255 2.12237 35.6165Z" fill="#585661"/>
<path d="M65.3581 45.2714L59.4562 39.7545L40.9069 22.6519L33.0376 30.3756C32.6423 30.7855 32.4219 31.3284 32.4219 31.8928C32.4219 32.4572 32.6423 33.0001 33.0376 33.4099L40.3448 39.7545L48.2142 47.4782C48.629 47.9334 48.8582 48.5226 48.8582 49.1333C48.8582 49.744 48.629 50.3332 48.2142 50.7884L26.8545 70.9253L36.6912 80.3042L59.4562 58.5121L65.3581 52.9952C65.9033 52.5042 66.3386 51.9074 66.6364 51.2426C66.9342 50.5778 67.0879 49.8595 67.0879 49.1333C67.0879 48.4071 66.9342 47.6888 66.6364 47.024C66.3386 46.3592 65.9033 45.7624 65.3581 45.2714Z" fill="#585661"/>
<path d="M134.777 13.8245C134.777 14.7756 134.392 15.6877 133.706 16.3602C133.021 17.0328 132.092 17.4106 131.123 17.4106C130.154 17.4106 129.225 17.0328 128.539 16.3602C127.854 15.6877 127.469 14.7756 127.469 13.8245C127.469 12.8735 127.854 11.9614 128.539 11.2888C129.225 10.6163 130.154 10.2385 131.123 10.2385C132.092 10.2385 133.021 10.6163 133.706 11.2888C134.392 11.9614 134.777 12.8735 134.777 13.8245Z" fill="#585661"/>
<path d="M302.842 13.8245C302.842 14.7756 302.457 15.6877 301.772 16.3602C301.087 17.0328 300.158 17.4106 299.189 17.4106C298.22 17.4106 297.29 17.0328 296.605 16.3602C295.92 15.6877 295.535 14.7756 295.535 13.8245C295.535 12.8735 295.92 11.9614 296.605 11.2888C297.29 10.6163 298.22 10.2385 299.189 10.2385C300.158 10.2385 301.087 10.6163 301.772 11.2888C302.457 11.9614 302.842 12.8735 302.842 13.8245Z" fill="#585661"/>
</svg>
