<svg width="781" height="528" viewBox="0 0 781 528" fill="none" xmlns="http://www.w3.org/2000/svg">
<g filter="url(#filter0_d)">
<path fill-rule="evenodd" clip-rule="evenodd" d="M203.896 28.2574L190.398 204.343L52.6811 160.232L141.328 319.801L198.377 323.584L200.352 327.746L22.9386 409.956L143.773 402.409L76.5342 465.122L231.179 399.027L288.14 394.54L289.487 394.931L289.484 394.468L289.852 394.449L326.827 338.828L355.455 296.112L334.312 328.028L376.681 345.616L355.455 296.112L302.358 290.221L288.878 302.79L288.179 170.921L203.896 28.2574ZM221.505 86.9816C221.09 90.7158 217.727 93.4073 213.993 92.993C210.259 92.5787 207.567 89.2156 207.982 85.4813C208.396 81.747 211.759 79.0556 215.493 79.4699C219.228 79.8842 221.919 83.2473 221.505 86.9816Z" fill="#FFFAFA"/>
</g>
<path d="M184.997 400.345L290.291 394.739L328.184 340.868L302.797 290.511L184.997 400.345Z" fill="url(#paint0_linear)"/>
<g filter="url(#filter1_d)">
<path d="M288.588 303.273L258.886 326.137L288.879 395.87L288.588 303.273Z" fill="#C4C4C4"/>
</g>
<path d="M53.0095 161.516L141.767 320.091L232.049 326.077L202.684 209.112L53.0095 161.516Z" fill="url(#paint1_linear)"/>
<path fill-rule="evenodd" clip-rule="evenodd" d="M203.854 27.7497L288.124 171.418L187.357 256.882L203.854 27.7497Z" fill="url(#paint2_linear)"/>
<path d="M302.797 290.511L327.266 339.118L355.894 296.402L302.797 290.511Z" fill="url(#paint3_radial)"/>
<path d="M23.3775 410.246L216.387 320.81L238.457 368.437L76.9731 465.412L231.732 398.585L23.3775 410.246Z" fill="url(#paint4_linear)"/>
<path d="M215.779 321.858L243.326 393.834L76.3657 466.461L148.722 398.043L215.779 321.858Z" fill="url(#paint5_linear)"/>
<path d="M288.124 171.418C229.926 210.778 202.187 231.139 168.645 260.295L234.161 399.357C256.796 399.875 268.81 399.135 289.321 396.422L288.124 171.418Z" fill="url(#paint6_linear)"/>
<path d="M377.12 345.906L355.894 296.402L334.751 328.318L377.12 345.906Z" fill="url(#paint7_linear)"/>
<defs>
<filter id="filter0_d" x="1.54443" y="0.0664978" width="431.817" height="523.497" filterUnits="userSpaceOnUse" color-interpolation-filters="sRGB">
<feFlood flood-opacity="0" result="BackgroundImageFix"/>
<feColorMatrix in="SourceAlpha" type="matrix" values="0 0 0 0 0 0 0 0 0 0 0 0 0 0 0 0 0 0 127 0"/>
<feOffset dx="4" dy="7"/>
<feGaussianBlur stdDeviation="10"/>
<feColorMatrix type="matrix" values="0 0 0 0 0 0 0 0 0 0 0 0 0 0 0 0 0 0 0.25 0"/>
<feBlend mode="normal" in2="BackgroundImageFix" result="effect1_dropShadow"/>
<feBlend mode="normal" in="SourceGraphic" in2="effect1_dropShadow" result="shape"/>
</filter>
<filter id="filter1_d" x="247.608" y="300.296" width="55.4158" height="103.574" filterUnits="userSpaceOnUse" color-interpolation-filters="sRGB">
<feFlood flood-opacity="0" result="BackgroundImageFix"/>
<feColorMatrix in="SourceAlpha" type="matrix" values="0 0 0 0 0 0 0 0 0 0 0 0 0 0 0 0 0 0 127 0"/>
<feOffset dy="4"/>
<feGaussianBlur stdDeviation="2"/>
<feColorMatrix type="matrix" values="0 0 0 0 0 0 0 0 0 0 0 0 0 0 0 0 0 0 0.25 0"/>
<feBlend mode="normal" in2="BackgroundImageFix" result="effect1_dropShadow"/>
<feBlend mode="normal" in="SourceGraphic" in2="effect1_dropShadow" result="shape"/>
</filter>
<linearGradient id="paint0_linear" x1="317.04" y1="400.503" x2="236.097" y2="327.295" gradientUnits="userSpaceOnUse">
<stop stop-color="white"/>
<stop offset="0.69607" stop-color="#E9E9EA"/>
<stop offset="0.857243" stop-color="#C5C6C8"/>
</linearGradient>
<linearGradient id="paint1_linear" x1="103.618" y1="247.477" x2="187.877" y2="225.418" gradientUnits="userSpaceOnUse">
<stop stop-color="white"/>
<stop offset="0.770833" stop-color="#E9E9EA"/>
<stop offset="1" stop-color="#D6D7D8"/>
</linearGradient>
<linearGradient id="paint2_linear" x1="187.124" y1="146.108" x2="239.33" y2="217.704" gradientUnits="userSpaceOnUse">
<stop stop-color="white"/>
<stop offset="0.770833" stop-color="#E9E9EA"/>
<stop offset="0.989583" stop-color="#C5C6C8"/>
</linearGradient>
<radialGradient id="paint3_radial" cx="0" cy="0" r="1" gradientUnits="userSpaceOnUse" gradientTransform="translate(349.778 314.335) rotate(141.331) scale(34.8797 71.8626)">
<stop stop-color="white"/>
<stop offset="0.770833" stop-color="#E9E9EA"/>
<stop offset="0.989583" stop-color="#C5C6C8"/>
</radialGradient>
<linearGradient id="paint4_linear" x1="119.656" y1="379.985" x2="165.169" y2="427.621" gradientUnits="userSpaceOnUse">
<stop stop-color="white"/>
<stop offset="0.391904" stop-color="#E9E9EA"/>
<stop offset="0.989583" stop-color="#C5C6C8"/>
</linearGradient>
<linearGradient id="paint5_linear" x1="133.279" y1="383.638" x2="155.113" y2="443.54" gradientUnits="userSpaceOnUse">
<stop stop-color="white"/>
<stop offset="0.391904" stop-color="#E9E9EA"/>
<stop offset="0.989583" stop-color="#C5C6C8"/>
</linearGradient>
<linearGradient id="paint6_linear" x1="228.986" y1="264.713" x2="313.492" y2="276.667" gradientUnits="userSpaceOnUse">
<stop stop-color="white"/>
<stop offset="0.770833" stop-color="#E9E9EA"/>
<stop offset="0.989583" stop-color="#C5C6C8"/>
</linearGradient>
<linearGradient id="paint7_linear" x1="370.039" y1="337.908" x2="339.022" y2="316.277" gradientUnits="userSpaceOnUse">
<stop stop-color="white"/>
<stop offset="0.770833" stop-color="#E9E9EA"/>
<stop offset="0.989583" stop-color="#C5C6C8"/>
</linearGradient>
</defs>
</svg>
