<svg width="270" height="58" viewBox="0 0 270 58" fill="none" xmlns="http://www.w3.org/2000/svg">
<path d="M69.4837 35.8544C69.8903 36.5796 70.5387 37.1455 71.3201 37.4568L73.5646 38.4583H78.6657C79.4534 38.4461 80.2253 38.2395 80.9102 37.8574C81.5712 37.6383 82.1433 37.2171 82.5427 36.6556C82.9845 36.0814 83.2017 35.3707 83.1548 34.6526C83.1875 34.131 83.071 33.6108 82.8187 33.1507C82.5663 32.6906 82.188 32.3089 81.7264 32.0486C80.7151 31.4248 79.6148 30.9523 78.4618 30.6465L73.9727 29.645C72.425 29.4596 70.9129 29.0548 69.4837 28.4432C68.2481 27.9451 67.1351 27.1939 66.219 26.2398C65.3588 25.1677 64.8578 23.8604 64.7848 22.4976C64.7117 21.1348 65.0701 19.7832 65.8109 18.6283C66.4681 17.6849 67.2985 16.8698 68.2594 16.2246C69.2406 15.5859 70.357 15.1749 71.5241 15.0228C72.7174 14.691 73.9585 14.5556 75.1969 14.6222C76.7051 14.546 78.2166 14.6809 79.686 15.0228C80.9719 15.2115 82.2147 15.6182 83.3588 16.2246C84.3775 16.8855 85.2177 17.779 85.8074 18.8286C86.3843 20.0948 86.7297 21.4509 86.8276 22.8347H82.1346C82.1496 22.1205 81.9355 21.4197 81.5224 20.8316C81.0784 20.2627 80.5234 19.7861 79.89 19.4295L77.8495 18.6283H73.5646L71.7281 19.0289C71.116 19.4295 70.5039 19.6298 70.2999 20.2307C70.0942 20.4442 69.9339 20.696 69.8288 20.9712C69.7236 21.2464 69.6757 21.5395 69.6877 21.8331C69.6537 22.1772 69.711 22.5241 69.854 22.84C69.9971 23.1559 70.2209 23.4301 70.5039 23.6359C71.1383 24.2591 71.9045 24.7378 72.7484 25.038L75.6051 25.8392L78.8697 26.4401L82.3386 27.4416C83.3397 27.7194 84.2999 28.1234 85.1953 28.6435C86.0283 29.226 86.7241 29.9774 87.2357 30.8468C87.818 31.815 88.1015 32.9283 88.0518 34.0517C88.0839 35.4527 87.7316 36.8364 87.0316 38.0577C86.3438 39.169 85.3548 40.0705 84.175 40.6617C83.0266 41.4477 81.6915 41.9306 80.2981 42.0638L76.0132 42.4644L71.7281 42.0638C70.343 41.779 69.0268 41.235 67.8513 40.4614C66.7686 39.7286 65.863 38.7713 65.1987 37.6571C64.5236 36.3543 64.1739 34.9125 64.1785 33.4507H68.8716C68.8251 34.2941 69.0384 35.1317 69.4837 35.8544Z" fill="white"/>
<path d="M98.2543 15.2231H93.5613V41.9637H98.2543V15.2231Z" fill="white"/>
<path d="M117.231 15.2231V19.0288H111.722V35.654C111.722 36.2549 111.722 36.6555 111.926 36.8559C111.926 37.0113 111.963 37.1647 112.033 37.3037C112.104 37.4428 112.207 37.5638 112.334 37.6571H117.231V41.4628H110.701C109.966 41.3581 109.267 41.0835 108.661 40.6616C108.039 40.2311 107.602 39.5884 107.437 38.8589C107.174 37.8779 107.037 36.8686 107.029 35.8543V19.0288H102.335V15.2231H107.029V7.21094H111.722V15.2231H117.231Z" fill="white"/>
<path d="M142.328 40.2608C139.971 41.784 137.191 42.5536 134.371 42.4642C132.42 42.4769 130.483 42.1374 128.657 41.4626C127.003 40.8158 125.532 39.7849 124.372 38.4581C123.202 37.2071 122.362 35.6943 121.924 34.0514C121.254 32.2545 120.908 30.3565 120.904 28.4429C120.928 26.5311 121.273 24.6363 121.924 22.8344C122.562 21.2355 123.457 19.7476 124.576 18.4277C125.786 17.2053 127.247 16.2494 128.861 15.6235C130.52 14.8706 132.341 14.5268 134.167 14.622C136.3 14.5184 138.421 15.0041 140.288 16.0241C141.972 16.9089 143.382 18.2237 144.369 19.8299C145.341 21.2975 146.032 22.9264 146.409 24.6371C146.842 26.3383 146.98 28.0989 146.817 29.845H125.801C125.836 30.9895 125.973 32.1288 126.209 33.2502C126.548 34.2864 127.104 35.2415 127.841 36.0544C128.585 36.9257 129.581 37.5544 130.698 37.8572C132.099 38.4681 133.631 38.7328 135.161 38.628C136.69 38.5233 138.17 38.0523 139.472 37.2563C140.117 36.8137 140.666 36.2492 141.087 35.5957C141.507 34.9422 141.791 34.2129 141.92 33.4505H146.409C146.013 36.1586 144.547 38.605 142.328 40.2608ZM141.308 23.0347C140.94 22.0793 140.303 21.2459 139.472 20.6311C138.774 19.9403 137.941 19.3952 137.023 19.0286C136.052 18.6369 135.013 18.4329 133.962 18.4277C132.843 18.3942 131.729 18.5992 130.698 19.0286C129.78 19.3952 128.947 19.9403 128.249 20.6311C127.501 21.2786 126.938 22.1073 126.617 23.0347C126.157 23.9777 125.88 24.9967 125.801 26.0393H141.92C141.915 25.0084 141.707 23.9882 141.308 23.0347Z" fill="white"/>
<path d="M156.408 15.223V18.8284H156.612C156.942 18.0938 157.42 17.4316 158.016 16.8812C158.611 16.3307 159.314 15.9031 160.081 15.6236C161.811 14.869 163.699 14.5259 165.59 14.622C167.548 14.5093 169.506 14.8524 171.303 15.6236C172.854 16.3472 174.189 17.451 175.18 18.8284C176.379 20.0586 177.224 21.5793 177.628 23.2351C178.226 24.9757 178.503 26.8072 178.445 28.6433C178.443 30.4626 178.238 32.2762 177.832 34.0515C177.264 35.6403 176.437 37.1284 175.384 38.4582C174.246 39.7213 172.857 40.7436 171.303 41.4627C169.477 42.1375 167.541 42.477 165.59 42.4642H163.345L160.897 41.8633L158.448 40.4612C157.638 39.9981 156.996 39.2977 156.612 38.4582H156.408V52.2791H151.919V15.223H156.408ZM173.139 24.6372C172.805 23.478 172.251 22.3908 171.507 21.4324C170.767 20.5455 169.868 19.7988 168.855 19.229C167.646 18.6611 166.317 18.3863 164.978 18.4278C163.571 18.3617 162.169 18.6368 160.897 19.229C159.827 19.8079 158.917 20.6327 158.244 21.6327C157.564 22.6016 157.079 23.6895 156.816 24.8375C156.416 25.9993 156.209 27.2167 156.204 28.443C156.19 29.7362 156.397 31.0225 156.816 32.2488C157.492 34.5723 159.018 36.5693 161.101 37.8572C162.368 38.466 163.774 38.742 165.182 38.6585C166.579 38.626 167.96 38.3549 169.263 37.8572C170.273 37.2721 171.115 36.4451 171.711 35.4536C172.426 34.43 172.913 33.2696 173.139 32.0484C173.489 30.8107 173.627 29.5247 173.548 28.2427C173.615 27.027 173.477 25.8086 173.139 24.6372Z" fill="white"/>
<path d="M183.342 23.0349C183.899 21.3987 184.803 19.8968 185.994 18.6283C187.17 17.3183 188.636 16.2905 190.279 15.6237C192.148 14.8502 194.172 14.5076 196.197 14.6222C198.22 14.528 200.24 14.8699 202.114 15.6237C203.668 16.3428 205.057 17.3651 206.195 18.6283C207.386 19.8968 208.29 21.3987 208.847 23.0349C209.499 24.8368 209.843 26.7317 209.868 28.6434C209.844 30.49 209.499 32.319 208.847 34.0516C208.29 35.6879 207.386 37.1897 206.195 38.4583C205.057 39.7215 203.668 40.7438 202.114 41.4629C200.213 42.1204 198.212 42.459 196.197 42.4644C194.179 42.475 192.176 42.1359 190.279 41.4629C188.636 40.7961 187.17 39.7682 185.994 38.4583C184.803 37.1897 183.899 35.6879 183.342 34.0516C182.756 32.3081 182.48 30.4788 182.526 28.6434C182.48 26.7425 182.756 24.8474 183.342 23.0349ZM188.035 32.8498C188.399 34.038 189.026 35.1324 189.871 36.0547C190.737 36.8335 191.697 37.5062 192.728 38.0577C193.836 38.4665 195.012 38.6703 196.197 38.6586C197.313 38.6548 198.419 38.4512 199.461 38.0577C200.493 37.5062 201.452 36.8335 202.318 36.0547C203.163 35.1324 203.791 34.038 204.154 32.8498C204.661 31.5015 204.937 30.0802 204.971 28.6434C204.952 27.14 204.676 25.6504 204.154 24.2368C203.791 23.0486 203.163 21.9542 202.318 21.0319C201.452 20.253 200.493 19.5804 199.461 19.0289C198.419 18.6354 197.313 18.4318 196.197 18.428C195.012 18.4163 193.836 18.62 192.728 19.0289C191.697 19.5804 190.737 20.253 189.871 21.0319C189.026 21.9542 188.399 23.0486 188.035 24.2368C187.59 25.6636 187.383 27.1517 187.423 28.6434C187.394 30.0688 187.601 31.4893 188.035 32.8498Z" fill="white"/>
<path d="M220.274 15.2231H215.581V41.9637H220.274V15.2231Z" fill="white"/>
<path d="M231.701 15.223V19.4293C232.651 17.893 234.005 16.6359 235.62 15.7901C237.236 14.9442 239.054 14.5408 240.883 14.6221C242.469 14.5823 244.053 14.785 245.576 15.223C246.7 15.724 247.733 16.4004 248.637 17.226C249.317 18.195 249.802 19.2828 250.065 20.4309C250.483 21.6572 250.69 22.9434 250.677 24.2366V41.8633H245.984V23.836C246.033 23.1082 245.932 22.3781 245.687 21.6897C245.441 21.0012 245.057 20.3686 244.556 19.8299C243.976 19.3226 243.297 18.9366 242.56 18.6956C241.823 18.4545 241.044 18.3634 240.271 18.4278C239.019 18.3957 237.772 18.5997 236.598 19.0287C235.595 19.4404 234.691 20.0546 233.945 20.8315C233.275 21.5824 232.787 22.4727 232.517 23.4354C232.1 24.5236 231.893 25.6782 231.905 26.8406V41.8633H227.212V15.223H231.701Z" fill="white"/>
<path d="M269.653 15.2231V19.0288H263.94V35.654C263.972 36.0597 264.041 36.4618 264.144 36.8559C264.144 37.2565 264.348 37.4568 264.756 37.6571H269.653V41.4628H262.92L260.879 40.6616C260.377 40.1643 260.024 39.5405 259.859 38.8589C259.495 37.9002 259.355 36.8732 259.451 35.8543V19.0288H254.554V15.2231H259.451V7.21094H263.94V15.2231H269.653Z" fill="white"/>
<path d="M2.14868 25.4385L6.43361 29.4446L19.9007 41.8634L25.614 36.2549C25.901 35.9573 26.061 35.5631 26.061 35.1533C26.061 34.7434 25.901 34.3492 25.614 34.0516L20.3089 29.4446L14.5955 24.0364C14.2793 23.6736 14.1056 23.2119 14.1056 22.7345C14.1056 22.257 14.2793 21.7953 14.5955 21.4325L30.1031 6.81031L22.9614 0L6.43361 15.824L2.14868 19.83C1.75287 20.1866 1.4368 20.6199 1.22061 21.1027C1.00442 21.5854 0.892822 22.107 0.892822 22.6343C0.892822 23.1616 1.00442 23.6832 1.22061 24.1659C1.4368 24.6487 1.75287 25.082 2.14868 25.4385Z" fill="white"/>
<path d="M48.0591 32.4493L43.7742 28.4432L30.3071 16.0244L24.5938 21.6329C24.3068 21.9305 24.1468 22.3248 24.1468 22.7346C24.1468 23.1444 24.3068 23.5386 24.5938 23.8362L29.8989 28.4432L35.6123 34.0517C35.9135 34.3822 36.0799 34.8101 36.0799 35.2536C36.0799 35.697 35.9135 36.1249 35.6123 36.4554L20.1047 51.0775L27.2464 57.8878L43.7742 42.0639L48.0591 38.0578C48.4549 37.7013 48.771 37.2679 48.9872 36.7852C49.2034 36.3025 49.315 35.7809 49.315 35.2536C49.315 34.7262 49.2034 34.2046 48.9872 33.7219C48.771 33.2392 48.4549 32.8058 48.0591 32.4493Z" fill="white"/>
<path d="M98.4586 9.61469C98.4586 10.3053 98.1791 10.9676 97.6816 11.456C97.1841 11.9443 96.5095 12.2186 95.806 12.2186C95.1025 12.2186 94.4278 11.9443 93.9303 11.456C93.4329 10.9676 93.1533 10.3053 93.1533 9.61469C93.1533 8.92408 93.4329 8.26175 93.9303 7.77342C94.4278 7.28508 95.1025 7.01074 95.806 7.01074C96.5095 7.01074 97.1841 7.28508 97.6816 7.77342C98.1791 8.26175 98.4586 8.92408 98.4586 9.61469Z" fill="white"/>
<path d="M220.478 9.61469C220.478 10.3053 220.199 10.9676 219.701 11.456C219.204 11.9443 218.529 12.2186 217.825 12.2186C217.122 12.2186 216.447 11.9443 215.95 11.456C215.452 10.9676 215.173 10.3053 215.173 9.61469C215.173 8.92408 215.452 8.26175 215.95 7.77342C216.447 7.28508 217.122 7.01074 217.825 7.01074C218.529 7.01074 219.204 7.28508 219.701 7.77342C220.199 8.26175 220.478 8.92408 220.478 9.61469Z" fill="white"/>
</svg>
